<svg xmlns="http://www.w3.org/2000/svg" xml:space="preserve" viewBox="30.5 31.5 420 500" height="500" width="420">
    <path d="M45.334 33.114c.217 101.874.145 211.067 33.596 296.176 28.05 75.48 82.82 143.03 161.57 201.59 78.75-58.56 133.52-126.11 161.57-201.59 33.451-85.11 33.379-194.302 33.596-296.176-128.806-.76-273.97-.028-390.332 0z" style="fill:#0085ca;fill-opacity:1;fill-rule:evenodd;stroke:#000;stroke-width:1;stroke-miterlimit:4;stroke-dasharray:none;stroke-opacity:1"/>
    <path d="M253.861 255.05c40.365-7.055 69.17-42.501 69.17-81.255v-71.873h-50.349v-7.955h50.349V55.54h7.954v38.428h50.35v7.955h-50.35v71.873c0 38.754 28.805 74.2 69.17 81.256-2.983 36.162-28.747 69.873-73.147 71.285-44.4-1.412-70.164-35.123-73.147-71.285z" style="fill:#ffe000;fill-opacity:1;fill-rule:evenodd;stroke:#000;stroke-width:.99434531px;stroke-linecap:butt;stroke-linejoin:miter;stroke-opacity:1"/>
    <path style="fill:#ffe000;fill-opacity:1;fill-rule:evenodd;stroke:#000;stroke-width:.99434531px;stroke-linecap:butt;stroke-linejoin:miter;stroke-opacity:1" d="M244.477 135.438v38.428h50.349v7.955h-50.349v71.873c0 38.754 28.805 74.2 69.17 81.255-2.983 36.163-28.747 69.874-73.147 71.286-44.4-1.412-70.164-35.123-73.147-71.286 40.365-7.056 69.17-42.501 69.17-81.255v-71.873h-50.349v-7.955h50.349v-38.428h7.954z"/>
    <path style="fill:#ffe000;fill-opacity:1;fill-rule:evenodd;stroke:#000;stroke-width:.99434531px;stroke-linecap:butt;stroke-linejoin:miter;stroke-opacity:1" d="M227.139 255.05c-40.365-7.055-69.17-42.501-69.17-81.255v-71.873h50.349v-7.955h-50.349V55.54h-7.954v38.428h-50.35v7.955h50.35v71.873c0 38.754-28.805 74.2-69.17 81.256 2.983 36.162 28.747 69.873 73.147 71.285 44.4-1.412 70.164-35.123 73.147-71.285z"/>
</svg>
