<svg xmlns="http://www.w3.org/2000/svg" xmlns:xlink="http://www.w3.org/1999/xlink" id="svg3456" height="600" width="500" version="1.1">
    <defs id="defs3460">
        <pattern overflow="visible" viewBox="2.13 -70.9 69 69" id="Punktmuster" patternUnits="userSpaceOnUse" height="69" width="69" y="846.27" x="68.56">
            <g id="g4732">
                <path id="polygon4734" fill="none" d="M71.13-1.9h-69v-69h69z"/>
                <path id="polygon4736" fill="#F7C059" d="M71.13-1.9h-69v-69h69z"/>
                <g id="g4738">
                    <path id="path4740" d="M61.77-71.65c.02.07.01.13-.03.19-.05.1-.11.06-.17.13-.05.06-.1.28-.08.36-.17.06-.01.23-.02.35 0 .05-.04.11-.04.16-.01.12.02.27.07.37.1.2.27.41.44.54.19.15.36.57.61.63.18.04.38-.1.54-.14.18-.04.4.01.57-.05.22-.08.13-.34.29-.45.1-.07.29-.01.41-.05.2-.07.34-.26.38-.46.02-.08.01-.14.04-.22.04-.1.11-.16.09-.29-.01-.06-.05-.12-.06-.19-.02-.11 0-.22 0-.34 0-.2.02-.38-.08-.55-.38-.69-1.24-.93-1.97-.79-.18.03-.29.13-.44.21-.17.09-.14.17-.32.22-.08.03-.22.12-.21.22 0 .12 0 .05.01.17-.02.01-.02 0-.03-.03" fill="#FFF"/>
                    <path id="path4742" d="M54.11-71.65c.02.07.01.13-.03.19-.05.1-.11.06-.17.13-.05.06-.1.28-.08.36-.17.06-.01.23-.02.35 0 .05-.04.11-.04.16-.01.12.02.27.07.37.1.2.27.41.44.54.19.15.36.57.61.63.18.04.38-.1.54-.14.18-.04.4.01.57-.05.22-.08.13-.34.29-.45.1-.07.29-.01.41-.05.2-.07.34-.26.38-.46.02-.08.01-.14.04-.22.04-.1.11-.16.09-.29-.01-.06-.05-.12-.06-.19-.02-.11 0-.22 0-.34 0-.2.02-.38-.08-.55-.38-.69-1.24-.93-1.97-.79-.18.03-.29.13-.44.21-.17.09-.14.17-.32.22-.08.03-.22.12-.21.22 0 .12 0 .05.01.17-.02.01-.02 0-.03-.03" fill="#FFF"/>
                    <path id="path4744" d="M46.44-71.65c.02.07.01.13-.03.19-.05.1-.11.06-.17.13-.05.06-.1.28-.08.36-.17.06-.01.23-.02.35 0 .05-.04.11-.04.16-.01.12.02.27.07.37.1.2.27.41.44.54.19.15.36.57.61.63.18.04.38-.1.54-.14.18-.04.4.01.57-.05.22-.08.13-.34.29-.45.1-.07.29-.01.41-.05.2-.07.34-.26.38-.46.02-.08.01-.14.04-.22.04-.1.11-.16.09-.29-.01-.06-.05-.12-.06-.19-.02-.11 0-.22 0-.34 0-.2.02-.38-.08-.55-.38-.69-1.24-.93-1.97-.79-.18.03-.29.13-.44.21-.17.09-.14.17-.32.22-.08.03-.22.12-.21.22 0 .12 0 .05.01.17-.02.01-.02 0-.03-.03" fill="#FFF"/>
                    <path id="path4746" d="M38.77-71.65c.02.07.01.13-.03.19-.05.1-.11.06-.17.13-.05.06-.1.28-.08.36-.17.06-.01.23-.02.35 0 .05-.04.11-.04.16-.01.12.02.27.07.37.1.2.27.41.44.54.19.15.36.57.61.63.18.04.38-.1.54-.14.18-.04.4.01.57-.05.22-.08.13-.34.29-.45.1-.07.29-.01.41-.05.2-.07.34-.26.38-.46.02-.08.01-.14.04-.22.04-.1.11-.16.09-.29-.01-.06-.05-.12-.06-.19-.02-.11 0-.22 0-.34 0-.2.02-.38-.08-.55-.38-.69-1.24-.93-1.97-.79-.18.03-.29.13-.44.21-.17.09-.14.17-.32.22-.08.03-.22.12-.21.22 0 .12 0 .05.01.17-.02.01-.02 0-.03-.03" fill="#FFF"/>
                    <path id="path4748" d="M31.11-71.65c.02.07.01.13-.03.19-.05.1-.11.06-.17.13-.05.06-.1.28-.08.36-.17.06-.01.23-.02.35 0 .05-.04.11-.04.16-.01.12.02.27.07.37.1.2.27.41.44.54.19.15.36.57.61.63.18.04.38-.1.54-.14.18-.04.4.01.57-.05.22-.08.13-.34.29-.45.1-.07.29-.01.41-.05.2-.07.34-.26.38-.46.02-.08.01-.14.04-.22.04-.1.11-.16.09-.29-.01-.06-.05-.12-.06-.19-.02-.11 0-.22 0-.34 0-.2.02-.38-.08-.55-.38-.69-1.24-.93-1.97-.79-.18.03-.29.13-.44.21-.17.09-.14.17-.32.22-.08.03-.22.12-.21.22 0 .12 0 .05.01.17-.02.01-.02 0-.03-.03" fill="#FFF"/>
                    <path id="path4750" d="M23.44-71.65c.02.07.01.13-.03.19-.05.1-.11.06-.17.13-.05.06-.1.28-.08.36-.17.06-.01.23-.02.35 0 .05-.04.11-.04.16-.01.12.02.27.07.37.1.2.27.41.44.54.19.15.36.57.61.63.18.04.38-.1.54-.14.18-.04.4.01.57-.05.22-.08.13-.34.29-.45.1-.07.29-.01.41-.05.2-.07.34-.26.38-.46.02-.08.01-.14.04-.22.04-.1.11-.16.09-.29-.01-.06-.05-.12-.06-.19-.02-.11 0-.22 0-.34 0-.2.02-.38-.08-.55-.38-.69-1.24-.93-1.97-.79-.18.03-.29.13-.44.21-.17.09-.14.17-.32.22-.08.03-.22.12-.21.22 0 .12 0 .05.01.17-.02.01-.02 0-.03-.03" fill="#FFF"/>
                    <path id="path4752" d="M15.77-71.65c.02.07.01.13-.03.19-.05.1-.11.06-.17.13-.05.06-.1.28-.08.36-.17.06-.01.23-.02.35 0 .05-.04.11-.04.16-.01.12.02.27.07.37.1.2.27.41.44.54.19.15.36.57.61.63.18.04.38-.1.54-.14.18-.04.4.01.57-.05.22-.08.13-.34.29-.45.1-.07.29-.01.41-.05.2-.07.34-.26.38-.46.02-.08.01-.14.04-.22.04-.1.11-.16.09-.29-.01-.06-.05-.12-.06-.19-.02-.11 0-.22 0-.34 0-.2.02-.38-.08-.55-.38-.69-1.24-.93-1.97-.79-.18.03-.29.13-.44.21-.17.09-.14.17-.32.22-.08.03-.22.12-.21.22 0 .12 0 .05.01.17-.02.01-.02 0-.03-.03" fill="#FFF"/>
                    <path id="path4754" d="M8.11-71.65c.02.07.01.13-.03.19-.05.1-.11.06-.17.13-.05.06-.1.28-.08.36-.17.06-.01.23-.02.35 0 .05-.04.11-.04.16-.01.12.02.27.07.37.1.2.27.41.44.54.19.15.36.57.61.63.18.04.38-.1.54-.14.18-.04.4.01.57-.05.22-.08.13-.34.29-.45.1-.07.29-.01.41-.05.2-.07.34-.26.38-.46.02-.08.01-.14.04-.22.04-.1.11-.16.09-.29-.01-.06-.05-.12-.06-.19-.02-.11 0-.22 0-.34 0-.2.02-.38-.08-.55-.38-.69-1.24-.93-1.97-.79-.18.03-.29.13-.44.21-.17.09-.14.17-.32.22-.08.03-.22.12-.21.22 0 .12 0 .05.01.17-.02.01-.02 0-.03-.03" fill="#FFF"/>
                    <path id="path4756" d="M.44-71.65c.02.07.01.13-.03.19-.05.1-.11.06-.17.13-.05.06-.1.28-.08.36-.16.05 0 .22-.01.35 0 .05-.04.11-.04.16-.01.12.02.27.07.37.1.2.27.41.44.54.19.15.36.57.61.63.18.04.38-.1.54-.14.18-.04.4.01.57-.05.22-.08.13-.34.29-.45.1-.07.29-.01.41-.05.2-.07.34-.26.38-.46.02-.08.01-.14.04-.22.04-.1.11-.16.09-.29-.01-.06-.05-.12-.06-.19-.02-.11 0-.22 0-.34 0-.2.02-.38-.08-.55-.38-.69-1.24-.93-1.97-.79-.18.03-.29.13-.44.21-.17.09-.14.17-.32.22-.08.03-.22.12-.21.22 0 .12 0 .05.01.17-.02.01-.02 0-.03-.03" fill="#FFF"/>
                </g>
                <g id="g4758">
                    <path id="path4760" d="M69.44-71.65c.02.07.01.13-.03.19-.05.1-.11.06-.17.13-.05.06-.1.28-.08.36-.17.06-.01.23-.02.35 0 .05-.04.11-.04.16-.01.12.02.27.07.37.1.2.27.41.44.54.19.15.36.57.61.63.18.04.38-.1.54-.14.18-.04.4.01.57-.05.22-.08.13-.34.29-.45.1-.07.29-.01.41-.05.2-.07.34-.26.38-.46.02-.08.01-.14.04-.22.04-.1.11-.16.09-.29-.01-.06-.05-.12-.06-.19-.02-.11 0-.22 0-.34 0-.2.02-.38-.08-.55-.38-.69-1.24-.93-1.97-.79-.18.03-.29.13-.44.21-.17.09-.14.17-.32.22-.08.03-.22.12-.21.22 0 .12 0 .05.01.17-.02.01-.02 0-.03-.03" fill="#FFF"/>
                </g>
                <path id="path4762" d="M.5-71.65c.02.07.01.13-.03.19-.05.1-.11.06-.17.13-.05.06-.1.28-.08.36-.17.06-.01.23-.02.35 0 .05-.04.11-.04.16-.01.12.02.27.07.37.1.2.27.41.44.54.19.15.36.57.61.63.18.04.38-.1.54-.14.18-.04.4.01.57-.05.22-.08.13-.34.29-.45.1-.07.29-.01.41-.05.2-.07.34-.26.38-.46.02-.08.01-.14.04-.22.04-.1.11-.16.09-.29-.01-.06-.05-.12-.06-.19-.02-.11 0-.22 0-.34 0-.2.02-.38-.08-.55-.38-.69-1.24-.93-1.97-.79-.18.03-.29.13-.44.21-.17.09-.14.17-.32.22-.08.03-.22.12-.21.22 0 .12 0 .05.01.17-.02.01-.02 0-.03-.03" fill="#FFF"/>
                <g id="g4764">
                    <g id="g4766">
                        <path id="path4768" d="M69.44-64c.02.07.01.13-.03.19-.05.1-.11.06-.17.13-.05.06-.1.28-.08.36-.17.06-.01.23-.02.35 0 .05-.04.11-.04.16-.01.12.02.27.07.37.1.2.27.41.44.54.19.15.36.57.61.63.18.04.38-.1.54-.14.18-.04.4.01.57-.05.22-.08.13-.34.29-.45.1-.07.29-.01.41-.05.2-.07.34-.26.38-.46.02-.08.01-.14.04-.22.04-.1.11-.16.09-.29-.01-.06-.05-.12-.06-.19-.02-.11 0-.22 0-.34 0-.2.02-.38-.08-.55-.38-.69-1.24-.93-1.97-.79-.18.03-.29.13-.44.21-.17.09-.14.17-.32.22-.08.03-.22.12-.21.22 0 .12 0 .05.01.17-.02.01-.02 0-.03-.03" fill="#FFF"/>
                        <path id="path4770" d="M61.78-64c.02.07.01.13-.03.19-.05.1-.11.06-.17.13-.05.06-.1.28-.08.36-.17.06-.01.23-.02.35 0 .05-.04.11-.04.16-.01.12.02.27.07.37.1.2.27.41.44.54.19.15.36.57.61.63.18.04.38-.1.54-.14.18-.04.4.01.57-.05.22-.08.13-.34.29-.45.1-.07.29-.01.41-.05.2-.07.34-.26.38-.46.02-.08.01-.14.04-.22.04-.1.11-.16.09-.29-.01-.06-.05-.12-.06-.19-.02-.11 0-.22 0-.34 0-.2.02-.38-.08-.55-.38-.69-1.24-.93-1.97-.79-.18.03-.29.13-.44.21-.17.09-.14.17-.32.22-.08.03-.22.12-.21.22 0 .12 0 .05.01.17-.02.01-.02 0-.03-.03" fill="#FFF"/>
                        <path id="path4772" d="M54.12-64c.02.07.01.13-.03.19-.05.1-.11.06-.17.13-.05.06-.1.28-.08.36-.17.06-.01.23-.02.35 0 .05-.04.11-.04.16-.01.12.02.27.07.37.1.2.27.41.44.54.19.15.36.57.61.63.18.04.38-.1.54-.14.18-.04.4.01.57-.05.22-.08.13-.34.29-.45.1-.07.29-.01.41-.05.2-.07.34-.26.38-.46.02-.08.01-.14.04-.22.04-.1.11-.16.09-.29-.01-.06-.05-.12-.06-.19-.02-.11 0-.22 0-.34 0-.2.02-.38-.08-.55-.38-.69-1.24-.93-1.97-.79-.18.03-.29.13-.44.21-.17.09-.14.17-.32.22-.08.03-.22.12-.21.22 0 .12 0 .05.01.17-.02.01-.02 0-.03-.03" fill="#FFF"/>
                        <path id="path4774" d="M46.46-64c.02.07.01.13-.03.19-.05.1-.11.06-.17.13-.05.06-.1.28-.08.36-.17.06-.01.23-.02.35 0 .05-.04.11-.04.16-.01.12.02.27.07.37.1.2.27.41.44.54.19.15.36.57.61.63.18.04.38-.1.54-.14.18-.04.4.01.57-.05.22-.08.13-.34.29-.45.1-.07.29-.01.41-.05.2-.07.34-.26.38-.46.02-.08.01-.14.04-.22.04-.1.11-.16.09-.29-.01-.06-.05-.12-.06-.19-.02-.11 0-.22 0-.34 0-.2.02-.38-.08-.55-.38-.69-1.24-.93-1.97-.79-.18.03-.29.13-.44.21-.17.09-.14.17-.32.22-.08.03-.22.12-.21.22 0 .12 0 .05.01.17-.02.01-.02 0-.03-.03" fill="#FFF"/>
                        <path id="path4776" d="M38.8-64c.02.07.01.13-.03.19-.05.1-.11.06-.17.13-.05.06-.1.28-.08.36-.17.06-.01.23-.02.35 0 .05-.04.11-.04.16-.01.12.02.27.07.37.1.2.27.41.44.54.19.15.36.57.61.63.18.04.38-.1.54-.14.18-.04.4.01.57-.05.22-.08.13-.34.29-.45.1-.07.29-.01.41-.05.2-.07.34-.26.38-.46.02-.08.01-.14.04-.22.04-.1.11-.16.09-.29-.01-.06-.05-.12-.06-.19-.02-.11 0-.22 0-.34 0-.2.02-.38-.08-.55-.38-.69-1.24-.93-1.97-.79-.18.03-.29.13-.44.21-.17.09-.14.17-.32.22-.08.03-.22.12-.21.22 0 .12 0 .05.01.17-.02.01-.02 0-.03-.03" fill="#FFF"/>
                        <path id="path4778" d="M31.14-64c.02.07.01.13-.03.19-.05.1-.11.06-.17.13-.05.06-.1.28-.08.36-.17.06-.01.23-.02.35 0 .05-.04.11-.04.16-.01.12.02.27.07.37.1.2.27.41.44.54.19.15.36.57.61.63.18.04.38-.1.54-.14.18-.04.4.01.57-.05.22-.08.13-.34.29-.45.1-.07.29-.01.41-.05.2-.07.34-.26.38-.46.02-.08.01-.14.04-.22.04-.1.11-.16.09-.29-.01-.06-.05-.12-.06-.19-.02-.11 0-.22 0-.34 0-.2.02-.38-.08-.55-.38-.69-1.24-.93-1.97-.79-.18.03-.29.13-.44.21-.17.09-.14.17-.32.22-.08.03-.22.12-.21.22 0 .12 0 .05.01.17-.02.01-.02 0-.03-.03" fill="#FFF"/>
                        <path id="path4780" d="M23.48-64c.02.07.01.13-.03.19-.05.1-.11.06-.17.13-.05.06-.1.28-.08.36-.17.06-.01.23-.02.35 0 .05-.04.11-.04.16-.01.12.02.27.07.37.1.2.27.41.44.54.19.15.36.57.61.63.18.04.38-.1.54-.14.18-.04.4.01.57-.05.22-.08.13-.34.29-.45.1-.07.29-.01.41-.05.2-.07.34-.26.38-.46.02-.08.01-.14.04-.22.04-.1.11-.16.09-.29-.01-.06-.05-.12-.06-.19-.02-.11 0-.22 0-.34 0-.2.02-.38-.08-.55-.38-.69-1.24-.93-1.97-.79-.18.03-.29.13-.44.21-.17.09-.14.17-.32.22-.08.03-.22.12-.21.22 0 .12 0 .05.01.17-.02.01-.02 0-.03-.03" fill="#FFF"/>
                        <path id="path4782" d="M15.82-64c.02.07.01.13-.03.19-.05.1-.11.06-.17.13-.05.06-.1.28-.08.36-.17.06-.01.23-.02.35 0 .05-.04.11-.04.16-.01.12.02.27.07.37.1.2.27.41.44.54.19.15.36.57.61.63.18.04.38-.1.54-.14.18-.04.4.01.57-.05.22-.08.13-.34.29-.45.1-.07.29-.01.41-.05.2-.07.34-.26.38-.46.02-.08.01-.14.04-.22.04-.1.11-.16.09-.29-.01-.06-.05-.12-.06-.19-.02-.11 0-.22 0-.34 0-.2.02-.38-.08-.55-.38-.69-1.24-.93-1.97-.79-.18.03-.29.13-.44.21-.17.09-.14.17-.32.22-.08.03-.22.12-.21.22 0 .12 0 .05.01.17-.02.01-.02 0-.03-.03" fill="#FFF"/>
                        <path id="path4784" d="M8.16-64c.02.07.01.13-.03.19-.05.1-.11.06-.17.13-.05.06-.1.28-.08.36-.17.06-.01.23-.02.35 0 .05-.04.11-.04.16-.01.12.02.27.07.37.1.2.27.41.44.54.19.15.36.57.61.63.18.04.38-.1.54-.14.18-.04.4.01.57-.05.22-.08.13-.34.29-.45.1-.07.29-.01.41-.05.2-.07.34-.26.38-.46.02-.08.01-.14.04-.22.04-.1.11-.16.09-.29-.01-.06-.05-.12-.06-.19-.02-.11 0-.22 0-.34 0-.2.02-.38-.08-.55-.38-.69-1.24-.93-1.97-.79-.18.03-.29.13-.44.21-.17.09-.14.17-.32.22-.08.03-.22.12-.21.22 0 .12 0 .05.01.17-.02.01-.02 0-.03-.03" fill="#FFF"/>
                        <path id="path4786" d="M.5-64c.02.07.01.13-.03.19-.05.1-.11.06-.17.13-.05.06-.1.28-.08.36-.17.06-.01.23-.02.35 0 .05-.04.11-.04.16-.01.12.02.27.07.37.1.2.27.41.44.54.19.15.36.57.61.63.18.04.38-.1.54-.14.18-.04.4.01.57-.05.22-.08.13-.34.29-.45.1-.07.29-.01.41-.05.2-.07.34-.26.38-.46.02-.08.01-.14.04-.22.04-.1.11-.16.09-.29-.02-.07-.06-.12-.07-.19-.02-.11 0-.22 0-.34 0-.2.02-.38-.08-.55-.38-.69-1.24-.93-1.97-.79-.18.03-.29.13-.44.21-.17.09-.14.17-.32.22-.08.03-.22.12-.21.22 0 .12 0 .05.01.17-.02.01-.02 0-.03-.03" fill="#FFF"/>
                    </g>
                    <g id="g4788">
                        <path id="path4790" d="M69.44-56.35c.02.07.01.13-.03.19-.05.1-.11.06-.17.13-.05.06-.1.28-.08.36-.17.06-.01.23-.02.35 0 .05-.04.11-.04.16-.01.12.02.27.07.37.1.2.27.41.44.54.19.15.36.57.61.63.18.04.38-.1.54-.14.18-.04.4.01.57-.05.22-.08.13-.34.29-.45.1-.07.29-.01.41-.05.2-.07.34-.26.38-.46.02-.08.01-.14.04-.22.04-.1.11-.16.09-.29-.01-.06-.05-.12-.06-.19-.02-.11 0-.22 0-.34 0-.2.02-.38-.08-.55-.38-.69-1.24-.93-1.97-.79-.18.03-.29.13-.44.21-.17.09-.14.17-.32.22-.08.03-.22.12-.21.22 0 .12 0 .05.01.17-.02.01-.02 0-.03-.03" fill="#FFF"/>
                        <path id="path4792" d="M61.78-56.35c.02.07.01.13-.03.19-.05.1-.11.06-.17.13-.05.06-.1.28-.08.36-.17.06-.01.23-.02.35 0 .05-.04.11-.04.16-.01.12.02.27.07.37.1.2.27.41.44.54.19.15.36.57.61.63.18.04.38-.1.54-.14.18-.04.4.01.57-.05.22-.08.13-.34.29-.45.1-.07.29-.01.41-.05.2-.07.34-.26.38-.46.02-.08.01-.14.04-.22.04-.1.11-.16.09-.29-.01-.06-.05-.12-.06-.19-.02-.11 0-.22 0-.34 0-.2.02-.38-.08-.55-.38-.69-1.24-.93-1.97-.79-.18.03-.29.13-.44.21-.17.09-.14.17-.32.22-.08.03-.22.12-.21.22 0 .12 0 .05.01.17-.02.01-.02 0-.03-.03" fill="#FFF"/>
                        <path id="path4794" d="M54.12-56.35c.02.07.01.13-.03.19-.05.1-.11.06-.17.13-.05.06-.1.28-.08.36-.17.06-.01.23-.02.35 0 .05-.04.11-.04.16-.01.12.02.27.07.37.1.2.27.41.44.54.19.15.36.57.61.63.18.04.38-.1.54-.14.18-.04.4.01.57-.05.22-.08.13-.34.29-.45.1-.07.29-.01.41-.05.2-.07.34-.26.38-.46.02-.08.01-.14.04-.22.04-.1.11-.16.09-.29-.01-.06-.05-.12-.06-.19-.02-.11 0-.22 0-.34 0-.2.02-.38-.08-.55-.38-.69-1.24-.93-1.97-.79-.18.03-.29.13-.44.21-.17.09-.14.17-.32.22-.08.03-.22.12-.21.22 0 .12 0 .05.01.17-.02.01-.02 0-.03-.03" fill="#FFF"/>
                        <path id="path4796" d="M46.46-56.35c.02.07.01.13-.03.19-.05.1-.11.06-.17.13-.05.06-.1.28-.08.36-.17.06-.01.23-.02.35 0 .05-.04.11-.04.16-.01.12.02.27.07.37.1.2.27.41.44.54.19.15.36.57.61.63.18.04.38-.1.54-.14.18-.04.4.01.57-.05.22-.08.13-.34.29-.45.1-.07.29-.01.41-.05.2-.07.34-.26.38-.46.02-.08.01-.14.04-.22.04-.1.11-.16.09-.29-.01-.06-.05-.12-.06-.19-.02-.11 0-.22 0-.34 0-.2.02-.38-.08-.55-.38-.69-1.24-.93-1.97-.79-.18.03-.29.13-.44.21-.17.09-.14.17-.32.22-.08.03-.22.12-.21.22 0 .12 0 .05.01.17-.02.01-.02 0-.03-.03" fill="#FFF"/>
                        <path id="path4798" d="M38.8-56.35c.02.07.01.13-.03.19-.05.1-.11.06-.17.13-.05.06-.1.28-.08.36-.17.06-.01.23-.02.35 0 .05-.04.11-.04.16-.01.12.02.27.07.37.1.2.27.41.44.54.19.15.36.57.61.63.18.04.38-.1.54-.14.18-.04.4.01.57-.05.22-.08.13-.34.29-.45.1-.07.29-.01.41-.05.2-.07.34-.26.38-.46.02-.08.01-.14.04-.22.04-.1.11-.16.09-.29-.01-.06-.05-.12-.06-.19-.02-.11 0-.22 0-.34 0-.2.02-.38-.08-.55-.38-.69-1.24-.93-1.97-.79-.18.03-.29.13-.44.21-.17.09-.14.17-.32.22-.08.03-.22.12-.21.22 0 .12 0 .05.01.17-.02.01-.02 0-.03-.03" fill="#FFF"/>
                        <path id="path4800" d="M31.14-56.35c.02.07.01.13-.03.19-.05.1-.11.06-.17.13-.05.06-.1.28-.08.36-.17.06-.01.23-.02.35 0 .05-.04.11-.04.16-.01.12.02.27.07.37.1.2.27.41.44.54.19.15.36.57.61.63.18.04.38-.1.54-.14.18-.04.4.01.57-.05.22-.08.13-.34.29-.45.1-.07.29-.01.41-.05.2-.07.34-.26.38-.46.02-.08.01-.14.04-.22.04-.1.11-.16.09-.29-.01-.06-.05-.12-.06-.19-.02-.11 0-.22 0-.34 0-.2.02-.38-.08-.55-.38-.69-1.24-.93-1.97-.79-.18.03-.29.13-.44.21-.17.09-.14.17-.32.22-.08.03-.22.12-.21.22 0 .12 0 .05.01.17-.02.01-.02 0-.03-.03" fill="#FFF"/>
                        <path id="path4802" d="M23.48-56.35c.02.07.01.13-.03.19-.05.1-.11.06-.17.13-.05.06-.1.28-.08.36-.17.06-.01.23-.02.35 0 .05-.04.11-.04.16-.01.12.02.27.07.37.1.2.27.41.44.54.19.15.36.57.61.63.18.04.38-.1.54-.14.18-.04.4.01.57-.05.22-.08.13-.34.29-.45.1-.07.29-.01.41-.05.2-.07.34-.26.38-.46.02-.08.01-.14.04-.22.04-.1.11-.16.09-.29-.01-.06-.05-.12-.06-.19-.02-.11 0-.22 0-.34 0-.2.02-.38-.08-.55-.38-.69-1.24-.93-1.97-.79-.18.03-.29.13-.44.21-.17.09-.14.17-.32.22-.08.03-.22.12-.21.22 0 .12 0 .05.01.17-.02.01-.02 0-.03-.03" fill="#FFF"/>
                        <path id="path4804" d="M15.82-56.35c.02.07.01.13-.03.19-.05.1-.11.06-.17.13-.05.06-.1.28-.08.36-.17.06-.01.23-.02.35 0 .05-.04.11-.04.16-.01.12.02.27.07.37.1.2.27.41.44.54.19.15.36.57.61.63.18.04.38-.1.54-.14.18-.04.4.01.57-.05.22-.08.13-.34.29-.45.1-.07.29-.01.41-.05.2-.07.34-.26.38-.46.02-.08.01-.14.04-.22.04-.1.11-.16.09-.29-.01-.06-.05-.12-.06-.19-.02-.11 0-.22 0-.34 0-.2.02-.38-.08-.55-.38-.69-1.24-.93-1.97-.79-.18.03-.29.13-.44.21-.17.09-.14.17-.32.22-.08.03-.22.12-.21.22 0 .12 0 .05.01.17-.02.01-.02 0-.03-.03" fill="#FFF"/>
                        <path id="path4806" d="M8.16-56.35c.02.07.01.13-.03.19-.05.1-.11.06-.17.13-.05.06-.1.28-.08.36-.17.06-.01.23-.02.35 0 .05-.04.11-.04.16-.01.12.02.27.07.37.1.2.27.41.44.54.19.15.36.57.61.63.18.04.38-.1.54-.14.18-.04.4.01.57-.05.22-.08.13-.34.29-.45.1-.07.29-.01.41-.05.2-.07.34-.26.38-.46.02-.08.01-.14.04-.22.04-.1.11-.16.09-.29-.01-.06-.05-.12-.06-.19-.02-.11 0-.22 0-.34 0-.2.02-.38-.08-.55-.38-.69-1.24-.93-1.97-.79-.18.03-.29.13-.44.21-.17.09-.14.17-.32.22-.08.03-.22.12-.21.22 0 .12 0 .05.01.17-.02.01-.02 0-.03-.03" fill="#FFF"/>
                        <path id="path4808" d="M.5-56.35c.02.07.01.13-.03.19-.05.1-.11.06-.17.13-.05.06-.1.28-.08.36-.17.06-.01.23-.02.35 0 .05-.04.11-.04.16-.01.12.02.27.07.37.1.2.27.41.44.54.19.15.36.57.61.63.18.04.38-.1.54-.14.18-.04.4.01.57-.05.22-.08.13-.34.29-.45.1-.07.29-.01.41-.05.2-.07.34-.26.38-.46.02-.08.01-.14.04-.22.04-.1.11-.16.09-.29-.01-.06-.05-.12-.06-.19-.02-.11 0-.22 0-.34 0-.2.02-.38-.08-.55-.38-.69-1.24-.93-1.97-.79-.18.03-.29.13-.44.21-.17.09-.14.17-.32.22-.08.03-.22.12-.21.22 0 .12 0 .05.01.17-.02.01-.02 0-.03-.03" fill="#FFF"/>
                    </g>
                    <g id="g4810">
                        <path id="path4812" d="M69.44-48.7c.02.07.01.13-.03.19-.05.1-.11.06-.17.13-.05.06-.1.28-.08.36-.17.06-.01.23-.02.35 0 .05-.04.11-.04.16-.01.12.02.27.07.37.1.2.27.41.44.54.19.15.36.57.61.63.18.04.38-.1.54-.14.18-.04.4.01.57-.05.22-.08.13-.34.29-.45.1-.07.29-.01.41-.05.2-.07.34-.26.38-.46.02-.08.01-.14.04-.22.04-.1.11-.16.09-.29-.01-.06-.05-.12-.06-.19-.02-.11 0-.22 0-.34 0-.2.02-.38-.08-.55-.38-.69-1.24-.93-1.97-.79-.18.03-.29.13-.44.21-.17.09-.14.17-.32.22-.08.03-.22.12-.21.22 0 .12 0 .05.01.17-.02.01-.02 0-.03-.03" fill="#FFF"/>
                        <path id="path4814" d="M61.78-48.7c.02.07.01.13-.03.19-.05.1-.11.06-.17.13-.05.06-.1.28-.08.36-.17.06-.01.23-.02.35 0 .05-.04.11-.04.16-.01.12.02.27.07.37.1.2.27.41.44.54.19.15.36.57.61.63.18.04.38-.1.54-.14.18-.04.4.01.57-.05.22-.08.13-.34.29-.45.1-.07.29-.01.41-.05.2-.07.34-.26.38-.46.02-.08.01-.14.04-.22.04-.1.11-.16.09-.29-.01-.06-.05-.12-.06-.19-.02-.11 0-.22 0-.34 0-.2.02-.38-.08-.55-.38-.69-1.24-.93-1.97-.79-.18.03-.29.13-.44.21-.17.09-.14.17-.32.22-.08.03-.22.12-.21.22 0 .12 0 .05.01.17-.02.01-.02 0-.03-.03" fill="#FFF"/>
                        <path id="path4816" d="M54.12-48.7c.02.07.01.13-.03.19-.05.1-.11.06-.17.13-.05.06-.1.28-.08.36-.17.06-.01.23-.02.35 0 .05-.04.11-.04.16-.01.12.02.27.07.37.1.2.27.41.44.54.19.15.36.57.61.63.18.04.38-.1.54-.14.18-.04.4.01.57-.05.22-.08.13-.34.29-.45.1-.07.29-.01.41-.05.2-.07.34-.26.38-.46.02-.08.01-.14.04-.22.04-.1.11-.16.09-.29-.01-.06-.05-.12-.06-.19-.02-.11 0-.22 0-.34 0-.2.02-.38-.08-.55-.38-.69-1.24-.93-1.97-.79-.18.03-.29.13-.44.21-.17.09-.14.17-.32.22-.08.03-.22.12-.21.22 0 .12 0 .05.01.17-.02.01-.02 0-.03-.03" fill="#FFF"/>
                        <path id="path4818" d="M46.46-48.7c.02.07.01.13-.03.19-.05.1-.11.06-.17.13-.05.06-.1.28-.08.36-.17.06-.01.23-.02.35 0 .05-.04.11-.04.16-.01.12.02.27.07.37.1.2.27.41.44.54.19.15.36.57.61.63.18.04.38-.1.54-.14.18-.04.4.01.57-.05.22-.08.13-.34.29-.45.1-.07.29-.01.41-.05.2-.07.34-.26.38-.46.02-.08.01-.14.04-.22.04-.1.11-.16.09-.29-.01-.06-.05-.12-.06-.19-.02-.11 0-.22 0-.34 0-.2.02-.38-.08-.55-.38-.69-1.24-.93-1.97-.79-.18.03-.29.13-.44.21-.17.09-.14.17-.32.22-.08.03-.22.12-.21.22 0 .12 0 .05.01.17-.02.01-.02 0-.03-.03" fill="#FFF"/>
                        <path id="path4820" d="M38.8-48.7c.02.07.01.13-.03.19-.05.1-.11.06-.17.13-.05.06-.1.28-.08.36-.17.06-.01.23-.02.35 0 .05-.04.11-.04.16-.01.12.02.27.07.37.1.2.27.41.44.54.19.15.36.57.61.63.18.04.38-.1.54-.14.18-.04.4.01.57-.05.22-.08.13-.34.29-.45.1-.07.29-.01.41-.05.2-.07.34-.26.38-.46.02-.08.01-.14.04-.22.04-.1.11-.16.09-.29-.01-.06-.05-.12-.06-.19-.02-.11 0-.22 0-.34 0-.2.02-.38-.08-.55-.38-.69-1.24-.93-1.97-.79-.18.03-.29.13-.44.21-.17.09-.14.17-.32.22-.08.03-.22.12-.21.22 0 .12 0 .05.01.17-.02.01-.02 0-.03-.03" fill="#FFF"/>
                        <path id="path4822" d="M31.14-48.7c.02.07.01.13-.03.19-.05.1-.11.06-.17.13-.05.06-.1.28-.08.36-.17.06-.01.23-.02.35 0 .05-.04.11-.04.16-.01.12.02.27.07.37.1.2.27.41.44.54.19.15.36.57.61.63.18.04.38-.1.54-.14.18-.04.4.01.57-.05.22-.08.13-.34.29-.45.1-.07.29-.01.41-.05.2-.07.34-.26.38-.46.02-.08.01-.14.04-.22.04-.1.11-.16.09-.29-.01-.06-.05-.12-.06-.19-.02-.11 0-.22 0-.34 0-.2.02-.38-.08-.55-.38-.69-1.24-.93-1.97-.79-.18.03-.29.13-.44.21-.17.09-.14.17-.32.22-.08.03-.22.12-.21.22 0 .12 0 .05.01.17-.02.01-.02 0-.03-.03" fill="#FFF"/>
                        <path id="path4824" d="M23.48-48.7c.02.07.01.13-.03.19-.05.1-.11.06-.17.13-.05.06-.1.28-.08.36-.17.06-.01.23-.02.35 0 .05-.04.11-.04.16-.01.12.02.27.07.37.1.2.27.41.44.54.19.15.36.57.61.63.18.04.38-.1.54-.14.18-.04.4.01.57-.05.22-.08.13-.34.29-.45.1-.07.29-.01.41-.05.2-.07.34-.26.38-.46.02-.08.01-.14.04-.22.04-.1.11-.16.09-.29-.01-.06-.05-.12-.06-.19-.02-.11 0-.22 0-.34 0-.2.02-.38-.08-.55-.38-.69-1.24-.93-1.97-.79-.18.03-.29.13-.44.21-.17.09-.14.17-.32.22-.08.03-.22.12-.21.22 0 .12 0 .05.01.17-.02.01-.02 0-.03-.03" fill="#FFF"/>
                        <path id="path4826" d="M15.82-48.7c.02.07.01.13-.03.19-.05.1-.11.06-.17.13-.05.06-.1.28-.08.36-.17.06-.01.23-.02.35 0 .05-.04.11-.04.16-.01.12.02.27.07.37.1.2.27.41.44.54.19.15.36.57.61.63.18.04.38-.1.54-.14.18-.04.4.01.57-.05.22-.08.13-.34.29-.45.1-.07.29-.01.41-.05.2-.07.34-.26.38-.46.02-.08.01-.14.04-.22.04-.1.11-.16.09-.29-.01-.06-.05-.12-.06-.19-.02-.11 0-.22 0-.34 0-.2.02-.38-.08-.55-.38-.69-1.24-.93-1.97-.79-.18.03-.29.13-.44.21-.17.09-.14.17-.32.22-.08.03-.22.12-.21.22 0 .12 0 .05.01.17-.02.01-.02 0-.03-.03" fill="#FFF"/>
                        <path id="path4828" d="M8.16-48.7c.02.07.01.13-.03.19-.05.1-.11.06-.17.13-.05.06-.1.28-.08.36-.17.06-.01.23-.02.35 0 .05-.04.11-.04.16-.01.12.02.27.07.37.1.2.27.41.44.54.19.15.36.57.61.63.18.04.38-.1.54-.14.18-.04.4.01.57-.05.22-.08.13-.34.29-.45.1-.07.29-.01.41-.05.2-.07.34-.26.38-.46.02-.08.01-.14.04-.22.04-.1.11-.16.09-.29-.01-.06-.05-.12-.06-.19-.02-.11 0-.22 0-.34 0-.2.02-.38-.08-.55-.38-.69-1.24-.93-1.97-.79-.18.03-.29.13-.44.21-.17.09-.14.17-.32.22-.08.03-.22.12-.21.22 0 .12 0 .05.01.17-.02.01-.02 0-.03-.03" fill="#FFF"/>
                        <path id="path4830" d="M.5-48.7c.02.07.01.13-.03.19-.05.1-.11.06-.17.13-.05.06-.1.28-.08.36-.17.06-.01.23-.02.35 0 .05-.04.11-.04.16-.01.12.02.27.07.37.1.2.27.41.44.54.19.15.36.57.61.63.18.04.38-.1.54-.14.18-.04.4.01.57-.05.22-.08.13-.34.29-.45.1-.07.29-.01.41-.05.2-.07.34-.26.38-.46.02-.08.01-.14.04-.22.04-.1.11-.16.09-.29-.01-.06-.05-.12-.06-.19-.02-.11 0-.22 0-.34 0-.2.02-.38-.08-.55-.38-.69-1.24-.93-1.97-.79-.18.03-.29.13-.44.21-.17.09-.14.17-.32.22-.08.03-.22.12-.21.22 0 .12 0 .05.01.17-.02.01-.02 0-.03-.03" fill="#FFF"/>
                    </g>
                    <g id="g4832">
                        <path id="path4834" d="M69.44-41.04c.02.07.01.13-.03.19-.05.1-.11.06-.17.13-.05.06-.1.28-.08.36-.17.06-.01.23-.02.35 0 .05-.04.11-.04.16-.01.12.02.27.07.37.1.2.27.41.44.54.19.15.36.57.61.63.18.04.38-.1.54-.14.18-.04.4.01.57-.05.22-.08.13-.34.29-.45.1-.07.29-.01.41-.05.2-.07.34-.26.38-.46.02-.08.01-.14.04-.22.04-.1.11-.16.09-.29-.01-.06-.05-.12-.06-.19-.02-.11 0-.22 0-.34 0-.2.02-.38-.08-.55-.38-.69-1.24-.93-1.97-.79-.18.03-.29.13-.44.21-.17.09-.14.17-.32.22-.08.03-.22.12-.21.22 0 .12 0 .05.01.17-.02.01-.02 0-.03-.03" fill="#FFF"/>
                        <path id="path4836" d="M61.78-41.04c.02.07.01.13-.03.19-.05.1-.11.06-.17.13-.05.06-.1.28-.08.36-.17.06-.01.23-.02.35 0 .05-.04.11-.04.16-.01.12.02.27.07.37.1.2.27.41.44.54.19.15.36.57.61.63.18.04.38-.1.54-.14.18-.04.4.01.57-.05.22-.08.13-.34.29-.45.1-.07.29-.01.41-.05.2-.07.34-.26.38-.46.02-.08.01-.14.04-.22.04-.1.11-.16.09-.29-.01-.06-.05-.12-.06-.19-.02-.11 0-.22 0-.34 0-.2.02-.38-.08-.55-.38-.69-1.24-.93-1.97-.79-.18.03-.29.13-.44.21-.17.09-.14.17-.32.22-.08.03-.22.12-.21.22 0 .12 0 .05.01.17-.02.01-.02 0-.03-.03" fill="#FFF"/>
                        <path id="path4838" d="M54.12-41.04c.02.07.01.13-.03.19-.05.1-.11.06-.17.13-.05.06-.1.28-.08.36-.17.06-.01.23-.02.35 0 .05-.04.11-.04.16-.01.12.02.27.07.37.1.2.27.41.44.54.19.15.36.57.61.63.18.04.38-.1.54-.14.18-.04.4.01.57-.05.22-.08.13-.34.29-.45.1-.07.29-.01.41-.05.2-.07.34-.26.38-.46.02-.08.01-.14.04-.22.04-.1.11-.16.09-.29-.01-.06-.05-.12-.06-.19-.02-.11 0-.22 0-.34 0-.2.02-.38-.08-.55-.38-.69-1.24-.93-1.97-.79-.18.03-.29.13-.44.21-.17.09-.14.17-.32.22-.08.03-.22.12-.21.22 0 .12 0 .05.01.17-.02.01-.02 0-.03-.03" fill="#FFF"/>
                        <path id="path4840" d="M46.46-41.04c.02.07.01.13-.03.19-.05.1-.11.06-.17.13-.05.06-.1.28-.08.36-.17.06-.01.23-.02.35 0 .05-.04.11-.04.16-.01.12.02.27.07.37.1.2.27.41.44.54.19.15.36.57.61.63.18.04.38-.1.54-.14.18-.04.4.01.57-.05.22-.08.13-.34.29-.45.1-.07.29-.01.41-.05.2-.07.34-.26.38-.46.02-.08.01-.14.04-.22.04-.1.11-.16.09-.29-.01-.06-.05-.12-.06-.19-.02-.11 0-.22 0-.34 0-.2.02-.38-.08-.55-.38-.69-1.24-.93-1.97-.79-.18.03-.29.13-.44.21-.17.09-.14.17-.32.22-.08.03-.22.12-.21.22 0 .12 0 .05.01.17-.02.01-.02 0-.03-.03" fill="#FFF"/>
                        <path id="path4842" d="M38.8-41.04c.02.07.01.13-.03.19-.05.1-.11.06-.17.13-.05.06-.1.28-.08.36-.17.06-.01.23-.02.35 0 .05-.04.11-.04.16-.01.12.02.27.07.37.1.2.27.41.44.54.19.15.36.57.61.63.18.04.38-.1.54-.14.18-.04.4.01.57-.05.22-.08.13-.34.29-.45.1-.07.29-.01.41-.05.2-.07.34-.26.38-.46.02-.08.01-.14.04-.22.04-.1.11-.16.09-.29-.01-.06-.05-.12-.06-.19-.02-.11 0-.22 0-.34 0-.2.02-.38-.08-.55-.38-.69-1.24-.93-1.97-.79-.18.03-.29.13-.44.21-.17.09-.14.17-.32.22-.08.03-.22.12-.21.22 0 .12 0 .05.01.17-.02.01-.02 0-.03-.03" fill="#FFF"/>
                        <path id="path4844" d="M31.14-41.04c.02.07.01.13-.03.19-.05.1-.11.06-.17.13-.05.06-.1.28-.08.36-.17.06-.01.23-.02.35 0 .05-.04.11-.04.16-.01.12.02.27.07.37.1.2.27.41.44.54.19.15.36.57.61.63.18.04.38-.1.54-.14.18-.04.4.01.57-.05.22-.08.13-.34.29-.45.1-.07.29-.01.41-.05.2-.07.34-.26.38-.46.02-.08.01-.14.04-.22.04-.1.11-.16.09-.29-.01-.06-.05-.12-.06-.19-.02-.11 0-.22 0-.34 0-.2.02-.38-.08-.55-.38-.69-1.24-.93-1.97-.79-.18.03-.29.13-.44.21-.17.09-.14.17-.32.22-.08.03-.22.12-.21.22 0 .12 0 .05.01.17-.02.01-.02 0-.03-.03" fill="#FFF"/>
                        <path id="path4846" d="M23.48-41.04c.02.07.01.13-.03.19-.05.1-.11.06-.17.13-.05.06-.1.28-.08.36-.17.06-.01.23-.02.35 0 .05-.04.11-.04.16-.01.12.02.27.07.37.1.2.27.41.44.54.19.15.36.57.61.63.18.04.38-.1.54-.14.18-.04.4.01.57-.05.22-.08.13-.34.29-.45.1-.07.29-.01.41-.05.2-.07.34-.26.38-.46.02-.08.01-.14.04-.22.04-.1.11-.16.09-.29-.01-.06-.05-.12-.06-.19-.02-.11 0-.22 0-.34 0-.2.02-.38-.08-.55-.38-.69-1.24-.93-1.97-.79-.18.03-.29.13-.44.21-.17.09-.14.17-.32.22-.08.03-.22.12-.21.22 0 .12 0 .05.01.17-.02.01-.02 0-.03-.03" fill="#FFF"/>
                        <path id="path4848" d="M15.82-41.04c.02.07.01.13-.03.19-.05.1-.11.06-.17.13-.05.06-.1.28-.08.36-.17.06-.01.23-.02.35 0 .05-.04.11-.04.16-.01.12.02.27.07.37.1.2.27.41.44.54.19.15.36.57.61.63.18.04.38-.1.54-.14.18-.04.4.01.57-.05.22-.08.13-.34.29-.45.1-.07.29-.01.41-.05.2-.07.34-.26.38-.46.02-.08.01-.14.04-.22.04-.1.11-.16.09-.29-.01-.06-.05-.12-.06-.19-.02-.11 0-.22 0-.34 0-.2.02-.38-.08-.55-.38-.69-1.24-.93-1.97-.79-.18.03-.29.13-.44.21-.17.09-.14.17-.32.22-.08.03-.22.12-.21.22 0 .12 0 .05.01.17-.02.01-.02 0-.03-.03" fill="#FFF"/>
                        <path id="path4850" d="M8.16-41.04c.02.07.01.13-.03.19-.05.1-.11.06-.17.13-.05.06-.1.28-.08.36-.17.06-.01.23-.02.35 0 .05-.04.11-.04.16-.01.12.02.27.07.37.1.2.27.41.44.54.19.15.36.57.61.63.18.04.38-.1.54-.14.18-.04.4.01.57-.05.22-.08.13-.34.29-.45.1-.07.29-.01.41-.05.2-.07.34-.26.38-.46.02-.08.01-.14.04-.22.04-.1.11-.16.09-.29-.01-.06-.05-.12-.06-.19-.02-.11 0-.22 0-.34 0-.2.02-.38-.08-.55-.38-.69-1.24-.93-1.97-.79-.18.03-.29.13-.44.21-.17.09-.14.17-.32.22-.08.03-.22.12-.21.22 0 .12 0 .05.01.17-.02.01-.02 0-.03-.03" fill="#FFF"/>
                        <path id="path4852" d="M.5-41.04c.02.07.01.13-.03.19-.05.1-.11.06-.17.13-.05.06-.1.28-.08.36-.17.06-.01.23-.02.35 0 .05-.04.11-.04.16-.01.12.02.27.07.37.1.2.27.41.44.54.19.15.36.57.61.63.18.04.38-.1.54-.14.18-.04.4.01.57-.05.22-.08.13-.34.29-.45.1-.07.29-.01.41-.05.2-.07.34-.26.38-.46.02-.08.01-.14.04-.22.04-.1.11-.16.09-.29-.01-.06-.05-.12-.06-.19-.02-.11 0-.22 0-.34 0-.2.02-.38-.08-.55-.38-.69-1.24-.93-1.97-.79-.18.03-.29.13-.44.21-.17.09-.14.17-.32.22-.08.03-.22.12-.21.22 0 .12 0 .05.01.17-.02.01-.02 0-.03-.03" fill="#FFF"/>
                    </g>
                    <g id="g4854">
                        <path id="path4856" d="M69.44-33.39c.02.07.01.13-.03.19-.05.1-.11.06-.17.13-.05.06-.1.28-.08.36-.17.06-.01.23-.02.35 0 .05-.04.11-.04.16-.01.12.02.27.07.37.1.2.27.41.44.54.19.15.36.57.61.63.18.04.38-.1.54-.14.18-.04.4.01.57-.05.22-.08.13-.34.29-.45.1-.07.29-.01.41-.05.2-.07.34-.26.38-.46.02-.08.01-.14.04-.22.04-.1.11-.16.09-.29-.01-.06-.05-.12-.06-.19-.02-.11 0-.22 0-.34 0-.2.02-.38-.08-.55-.38-.69-1.24-.93-1.97-.79-.18.03-.29.13-.44.21-.17.09-.14.17-.32.22-.08.03-.22.12-.21.22 0 .12 0 .05.01.17-.02.01-.02 0-.03-.03" fill="#FFF"/>
                        <path id="path4858" d="M61.78-33.39c.02.07.01.13-.03.19-.05.1-.11.06-.17.13-.05.06-.1.28-.08.36-.17.06-.01.23-.02.35 0 .05-.04.11-.04.16-.01.12.02.27.07.37.1.2.27.41.44.54.19.15.36.57.61.63.18.04.38-.1.54-.14.18-.04.4.01.57-.05.22-.08.13-.34.29-.45.1-.07.29-.01.41-.05.2-.07.34-.26.38-.46.02-.08.01-.14.04-.22.04-.1.11-.16.09-.29-.01-.06-.05-.12-.06-.19-.02-.11 0-.22 0-.34 0-.2.02-.38-.08-.55-.38-.69-1.24-.93-1.97-.79-.18.03-.29.13-.44.21-.17.09-.14.17-.32.22-.08.03-.22.12-.21.22 0 .12 0 .05.01.17-.02.01-.02 0-.03-.03" fill="#FFF"/>
                        <path id="path4860" d="M54.12-33.39c.02.07.01.13-.03.19-.05.1-.11.06-.17.13-.05.06-.1.28-.08.36-.17.06-.01.23-.02.35 0 .05-.04.11-.04.16-.01.12.02.27.07.37.1.2.27.41.44.54.19.15.36.57.61.63.18.04.38-.1.54-.14.18-.04.4.01.57-.05.22-.08.13-.34.29-.45.1-.07.29-.01.41-.05.2-.07.34-.26.38-.46.02-.08.01-.14.04-.22.04-.1.11-.16.09-.29-.01-.06-.05-.12-.06-.19-.02-.11 0-.22 0-.34 0-.2.02-.38-.08-.55-.38-.69-1.24-.93-1.97-.79-.18.03-.29.13-.44.21-.17.09-.14.17-.32.22-.08.03-.22.12-.21.22 0 .12 0 .05.01.17-.02.01-.02 0-.03-.03" fill="#FFF"/>
                        <path id="path4862" d="M46.46-33.39c.02.07.01.13-.03.19-.05.1-.11.06-.17.13-.05.06-.1.28-.08.36-.17.06-.01.23-.02.35 0 .05-.04.11-.04.16-.01.12.02.27.07.37.1.2.27.41.44.54.19.15.36.57.61.63.18.04.38-.1.54-.14.18-.04.4.01.57-.05.22-.08.13-.34.29-.45.1-.07.29-.01.41-.05.2-.07.34-.26.38-.46.02-.08.01-.14.04-.22.04-.1.11-.16.09-.29-.01-.06-.05-.12-.06-.19-.02-.11 0-.22 0-.34 0-.2.02-.38-.08-.55-.38-.69-1.24-.93-1.97-.79-.18.03-.29.13-.44.21-.17.09-.14.17-.32.22-.08.03-.22.12-.21.22 0 .12 0 .05.01.17-.02.01-.02 0-.03-.03" fill="#FFF"/>
                        <path id="path4864" d="M38.8-33.39c.02.07.01.13-.03.19-.05.1-.11.06-.17.13-.05.06-.1.28-.08.36-.17.06-.01.23-.02.35 0 .05-.04.11-.04.16-.01.12.02.27.07.37.1.2.27.41.44.54.19.15.36.57.61.63.18.04.38-.1.54-.14.18-.04.4.01.57-.05.22-.08.13-.34.29-.45.1-.07.29-.01.41-.05.2-.07.34-.26.38-.46.02-.08.01-.14.04-.22.04-.1.11-.16.09-.29-.01-.06-.05-.12-.06-.19-.02-.11 0-.22 0-.34 0-.2.02-.38-.08-.55-.38-.69-1.24-.93-1.97-.79-.18.03-.29.13-.44.21-.17.09-.14.17-.32.22-.08.03-.22.12-.21.22 0 .12 0 .05.01.17-.02.01-.02 0-.03-.03" fill="#FFF"/>
                        <path id="path4866" d="M31.14-33.39c.02.07.01.13-.03.19-.05.1-.11.06-.17.13-.05.06-.1.28-.08.36-.17.06-.01.23-.02.35 0 .05-.04.11-.04.16-.01.12.02.27.07.37.1.2.27.41.44.54.19.15.36.57.61.63.18.04.38-.1.54-.14.18-.04.4.01.57-.05.22-.08.13-.34.29-.45.1-.07.29-.01.41-.05.2-.07.34-.26.38-.46.02-.08.01-.14.04-.22.04-.1.11-.16.09-.29-.01-.06-.05-.12-.06-.19-.02-.11 0-.22 0-.34 0-.2.02-.38-.08-.55-.38-.69-1.24-.93-1.97-.79-.18.03-.29.13-.44.21-.17.09-.14.17-.32.22-.08.03-.22.12-.21.22 0 .12 0 .05.01.17-.02.01-.02 0-.03-.03" fill="#FFF"/>
                        <path id="path4868" d="M23.48-33.39c.02.07.01.13-.03.19-.05.1-.11.06-.17.13-.05.06-.1.28-.08.36-.17.06-.01.23-.02.35 0 .05-.04.11-.04.16-.01.12.02.27.07.37.1.2.27.41.44.54.19.15.36.57.61.63.18.04.38-.1.54-.14.18-.04.4.01.57-.05.22-.08.13-.34.29-.45.1-.07.29-.01.41-.05.2-.07.34-.26.38-.46.02-.08.01-.14.04-.22.04-.1.11-.16.09-.29-.01-.06-.05-.12-.06-.19-.02-.11 0-.22 0-.34 0-.2.02-.38-.08-.55-.38-.69-1.24-.93-1.97-.79-.18.03-.29.13-.44.21-.17.09-.14.17-.32.22-.08.03-.22.12-.21.22 0 .12 0 .05.01.17-.02.01-.02 0-.03-.03" fill="#FFF"/>
                        <path id="path4870" d="M15.82-33.39c.02.07.01.13-.03.19-.05.1-.11.06-.17.13-.05.06-.1.28-.08.36-.17.06-.01.23-.02.35 0 .05-.04.11-.04.16-.01.12.02.27.07.37.1.2.27.41.44.54.19.15.36.57.61.63.18.04.38-.1.54-.14.18-.04.4.01.57-.05.22-.08.13-.34.29-.45.1-.07.29-.01.41-.05.2-.07.34-.26.38-.46.02-.08.01-.14.04-.22.04-.1.11-.16.09-.29-.01-.06-.05-.12-.06-.19-.02-.11 0-.22 0-.34 0-.2.02-.38-.08-.55-.38-.69-1.24-.93-1.97-.79-.18.03-.29.13-.44.21-.17.09-.14.17-.32.22-.08.03-.22.12-.21.22 0 .12 0 .05.01.17-.02.01-.02 0-.03-.03" fill="#FFF"/>
                        <path id="path4872" d="M8.16-33.39c.02.07.01.13-.03.19-.05.1-.11.06-.17.13-.05.06-.1.28-.08.36-.17.06-.01.23-.02.35 0 .05-.04.11-.04.16-.01.12.02.27.07.37.1.2.27.41.44.54.19.15.36.57.61.63.18.04.38-.1.54-.14.18-.04.4.01.57-.05.22-.08.13-.34.29-.45.1-.07.29-.01.41-.05.2-.07.34-.26.38-.46.02-.08.01-.14.04-.22.04-.1.11-.16.09-.29-.01-.06-.05-.12-.06-.19-.02-.11 0-.22 0-.34 0-.2.02-.38-.08-.55-.38-.69-1.24-.93-1.97-.79-.18.03-.29.13-.44.21-.17.09-.14.17-.32.22-.08.03-.22.12-.21.22 0 .12 0 .05.01.17-.02.01-.02 0-.03-.03" fill="#FFF"/>
                        <path id="path4874" d="M.5-33.39c.02.07.01.13-.03.19-.05.1-.11.06-.17.13-.05.06-.1.28-.08.36-.17.06-.01.23-.02.35 0 .05-.04.11-.04.16-.01.12.02.27.07.37.1.2.27.41.44.54.19.15.36.57.61.63.18.04.38-.1.54-.14.18-.04.4.01.57-.05.22-.08.13-.34.29-.45.1-.07.29-.01.41-.05.2-.07.34-.26.38-.46.02-.08.01-.14.04-.22.04-.1.11-.16.09-.29-.01-.06-.05-.12-.06-.19-.02-.11 0-.22 0-.34 0-.2.02-.38-.08-.55-.38-.69-1.24-.93-1.97-.79-.18.03-.29.13-.44.21-.17.09-.14.17-.32.22-.08.03-.22.12-.21.22 0 .12 0 .05.01.17-.02.01-.02 0-.03-.03" fill="#FFF"/>
                    </g>
                    <g id="g4876">
                        <path id="path4878" d="M69.44-25.74c.02.07.01.13-.03.19-.05.1-.11.06-.17.13-.05.06-.1.28-.08.36-.16.06 0 .23-.01.35 0 .05-.04.11-.04.16-.01.12.02.27.07.37.1.2.27.41.44.54.19.15.36.57.61.63.18.04.38-.1.54-.14.18-.04.4.01.57-.05.22-.08.13-.34.29-.45.1-.07.29-.01.41-.05.2-.07.34-.26.38-.46.02-.08.01-.14.04-.22.04-.1.11-.16.09-.29-.01-.06-.05-.12-.06-.19-.02-.11 0-.22 0-.34 0-.2.02-.38-.08-.55-.38-.69-1.24-.93-1.97-.79-.18.03-.29.13-.44.21-.17.09-.14.17-.32.22-.08.03-.22.12-.21.22 0 .12 0 .05.01.17-.02.01-.02 0-.03-.03" fill="#FFF"/>
                        <path id="path4880" d="M61.78-25.74c.02.07.01.13-.03.19-.05.1-.11.06-.17.13-.05.06-.1.28-.08.36-.17.06-.01.23-.02.35 0 .05-.04.11-.04.16-.01.12.02.27.07.37.1.2.27.41.44.54.19.15.36.57.61.63.18.04.38-.1.54-.14.18-.04.4.01.57-.05.22-.08.13-.34.29-.45.1-.07.29-.01.41-.05.2-.07.34-.26.38-.46.02-.08.01-.14.04-.22.04-.1.11-.16.09-.29-.01-.06-.05-.12-.06-.19-.02-.11 0-.22 0-.34 0-.2.02-.38-.08-.55-.38-.69-1.24-.93-1.97-.79-.18.03-.29.13-.44.21-.17.09-.14.17-.32.22-.08.03-.22.12-.21.22 0 .12 0 .05.01.17-.02.01-.02 0-.03-.03" fill="#FFF"/>
                        <path id="path4882" d="M54.12-25.74c.02.07.01.13-.03.19-.05.1-.11.06-.17.13-.05.06-.1.28-.08.36-.17.06-.01.23-.02.35 0 .05-.04.11-.04.16-.01.12.02.27.07.37.1.2.27.41.44.54.19.15.36.57.61.63.18.04.38-.1.54-.14.18-.04.4.01.57-.05.22-.08.13-.34.29-.45.1-.07.29-.01.41-.05.2-.07.34-.26.38-.46.02-.08.01-.14.04-.22.04-.1.11-.16.09-.29-.01-.06-.05-.12-.06-.19-.02-.11 0-.22 0-.34 0-.2.02-.38-.08-.55-.38-.69-1.24-.93-1.97-.79-.18.03-.29.13-.44.21-.17.09-.14.17-.32.22-.08.03-.22.12-.21.22 0 .12 0 .05.01.17-.02.01-.02 0-.03-.03" fill="#FFF"/>
                        <path id="path4884" d="M46.46-25.74c.02.07.01.13-.03.19-.05.1-.11.06-.17.13-.05.06-.1.28-.08.36-.17.06-.01.23-.02.35 0 .05-.04.11-.04.16-.01.12.02.27.07.37.1.2.27.41.44.54.19.15.36.57.61.63.18.04.38-.1.54-.14.18-.04.4.01.57-.05.22-.08.13-.34.29-.45.1-.07.29-.01.41-.05.2-.07.34-.26.38-.46.02-.08.01-.14.04-.22.04-.1.11-.16.09-.29-.01-.06-.05-.12-.06-.19-.02-.11 0-.22 0-.34 0-.2.02-.38-.08-.55-.38-.69-1.24-.93-1.97-.79-.18.03-.29.13-.44.21-.17.09-.14.17-.32.22-.08.03-.22.12-.21.22 0 .12 0 .05.01.17-.02.01-.02 0-.03-.03" fill="#FFF"/>
                        <path id="path4886" d="M38.8-25.74c.02.07.01.13-.03.19-.05.1-.11.06-.17.13-.05.06-.1.28-.08.36-.17.06-.01.23-.02.35 0 .05-.04.11-.04.16-.01.12.02.27.07.37.1.2.27.41.44.54.19.15.36.57.61.63.18.04.38-.1.54-.14.18-.04.4.01.57-.05.22-.08.13-.34.29-.45.1-.07.29-.01.41-.05.2-.07.34-.26.38-.46.02-.08.01-.14.04-.22.04-.1.11-.16.09-.29-.01-.06-.05-.12-.06-.19-.02-.11 0-.22 0-.34 0-.2.02-.38-.08-.55-.38-.69-1.24-.93-1.97-.79-.18.03-.29.13-.44.21-.17.09-.14.17-.32.22-.08.03-.22.12-.21.22 0 .12 0 .05.01.17-.02.01-.02 0-.03-.03" fill="#FFF"/>
                        <path id="path4888" d="M31.14-25.74c.02.07.01.13-.03.19-.05.1-.11.06-.17.13-.05.06-.1.28-.08.36-.17.06-.01.23-.02.35 0 .05-.04.11-.04.16-.01.12.02.27.07.37.1.2.27.41.44.54.19.15.36.57.61.63.18.04.38-.1.54-.14.18-.04.4.01.57-.05.22-.08.13-.34.29-.45.1-.07.29-.01.41-.05.2-.07.34-.26.38-.46.02-.08.01-.14.04-.22.04-.1.11-.16.09-.29-.01-.06-.05-.12-.06-.19-.02-.11 0-.22 0-.34 0-.2.02-.38-.08-.55-.38-.69-1.24-.93-1.97-.79-.18.03-.29.13-.44.21-.17.09-.14.17-.32.22-.08.03-.22.12-.21.22 0 .12 0 .05.01.17-.02.01-.02 0-.03-.03" fill="#FFF"/>
                        <path id="path4890" d="M23.48-25.74c.02.07.01.13-.03.19-.05.1-.11.06-.17.13-.05.06-.1.28-.08.36-.17.06-.01.23-.02.35 0 .05-.04.11-.04.16-.01.12.02.27.07.37.1.2.27.41.44.54.19.15.36.57.61.63.18.04.38-.1.54-.14.18-.04.4.01.57-.05.22-.08.13-.34.29-.45.1-.07.29-.01.41-.05.2-.07.34-.26.38-.46.02-.08.01-.14.04-.22.04-.1.11-.16.09-.29-.01-.06-.05-.12-.06-.19-.02-.11 0-.22 0-.34 0-.2.02-.38-.08-.55-.38-.69-1.24-.93-1.97-.79-.18.03-.29.13-.44.21-.17.09-.14.17-.32.22-.08.03-.22.12-.21.22 0 .12 0 .05.01.17-.02.01-.02 0-.03-.03" fill="#FFF"/>
                        <path id="path4892" d="M15.82-25.74c.02.07.01.13-.03.19-.05.1-.11.06-.17.13-.05.06-.1.28-.08.36-.17.06-.01.23-.02.35 0 .05-.04.11-.04.16-.01.12.02.27.07.37.1.2.27.41.44.54.19.15.36.57.61.63.18.04.38-.1.54-.14.18-.04.4.01.57-.05.22-.08.13-.34.29-.45.1-.07.29-.01.41-.05.2-.07.34-.26.38-.46.02-.08.01-.14.04-.22.04-.1.11-.16.09-.29-.01-.06-.05-.12-.06-.19-.02-.11 0-.22 0-.34 0-.2.02-.38-.08-.55-.38-.69-1.24-.93-1.97-.79-.18.03-.29.13-.44.21-.17.09-.14.17-.32.22-.08.03-.22.12-.21.22 0 .12 0 .05.01.17-.02.01-.02 0-.03-.03" fill="#FFF"/>
                        <path id="path4894" d="M8.16-25.74c.02.07.01.13-.03.19-.05.1-.11.06-.17.13-.05.06-.1.28-.08.36-.16.06 0 .23-.01.35 0 .05-.04.11-.04.16-.01.12.02.27.07.37.1.2.27.41.44.54.19.15.36.57.61.63.18.04.38-.1.54-.14.18-.04.4.01.57-.05.22-.08.13-.34.29-.45.1-.07.29-.01.41-.05.2-.07.34-.26.38-.46.02-.08.01-.14.04-.22.04-.1.11-.16.09-.29-.01-.06-.05-.12-.06-.19-.02-.11 0-.22 0-.34 0-.2.02-.38-.08-.55-.38-.69-1.24-.93-1.97-.79-.18.03-.29.13-.44.21-.17.09-.14.17-.32.22-.08.03-.22.12-.21.22 0 .12 0 .05.01.17-.02.01-.02 0-.03-.03" fill="#FFF"/>
                        <path id="path4896" d="M.5-25.74c.02.07.01.13-.03.19-.05.1-.11.06-.17.13-.05.06-.1.28-.08.36-.16.06 0 .23-.01.35 0 .05-.04.11-.04.16-.01.12.02.27.07.37.1.2.27.41.44.54.19.15.36.57.61.63.18.04.38-.1.54-.14.18-.04.4.01.57-.05.22-.08.13-.34.29-.45.1-.07.29-.01.41-.05.2-.07.34-.26.38-.46.02-.08.01-.14.04-.22.04-.1.11-.16.09-.29-.01-.06-.05-.12-.06-.19-.02-.11 0-.22 0-.34 0-.2.02-.38-.08-.55-.38-.69-1.24-.93-1.97-.79-.18.03-.29.13-.44.21-.17.09-.14.17-.32.22-.08.03-.22.12-.21.22 0 .12 0 .05.01.17-.02.01-.02 0-.03-.03" fill="#FFF"/>
                    </g>
                    <g id="g4898">
                        <path id="path4900" d="M69.44-18.08c.02.07.01.13-.03.19-.05.1-.11.06-.17.13-.05.06-.1.28-.08.36-.17.06-.01.23-.02.35 0 .05-.04.11-.04.16-.01.12.02.27.07.37.1.2.27.41.44.54.19.15.36.57.61.63.18.04.38-.1.54-.14.18-.04.4.01.57-.05.22-.08.13-.34.29-.45.1-.07.29-.01.41-.05.2-.07.34-.26.38-.46.02-.08.01-.14.04-.22.04-.1.11-.16.09-.29-.01-.06-.05-.12-.06-.19-.02-.11 0-.22 0-.34 0-.2.02-.38-.08-.55-.38-.69-1.24-.93-1.97-.79-.18.03-.29.13-.44.21-.17.09-.14.17-.32.22-.08.03-.22.12-.21.22 0 .12 0 .05.01.17-.02.01-.02 0-.03-.03" fill="#FFF"/>
                        <path id="path4902" d="M61.78-18.08c.02.07.01.13-.03.19-.05.1-.11.06-.17.13-.05.06-.1.28-.08.36-.17.06-.01.23-.02.35 0 .05-.04.11-.04.16-.01.12.02.27.07.37.1.2.27.41.44.54.19.15.36.57.61.63.18.04.38-.1.54-.14.18-.04.4.01.57-.05.22-.08.13-.34.29-.45.1-.07.29-.01.41-.05.2-.07.34-.26.38-.46.02-.08.01-.14.04-.22.04-.1.11-.16.09-.29-.01-.06-.05-.12-.06-.19-.02-.11 0-.22 0-.34 0-.2.02-.38-.08-.55-.38-.69-1.24-.93-1.97-.79-.18.03-.29.13-.44.21-.17.09-.14.17-.32.22-.08.03-.22.12-.21.22 0 .12 0 .05.01.17-.02.01-.02 0-.03-.03" fill="#FFF"/>
                        <path id="path4904" d="M54.12-18.08c.02.07.01.13-.03.19-.05.1-.11.06-.17.13-.05.06-.1.28-.08.36-.17.06-.01.23-.02.35 0 .05-.04.11-.04.16-.01.12.02.27.07.37.1.2.27.41.44.54.19.15.36.57.61.63.18.04.38-.1.54-.14.18-.04.4.01.57-.05.22-.08.13-.34.29-.45.1-.07.29-.01.41-.05.2-.07.34-.26.38-.46.02-.08.01-.14.04-.22.04-.1.11-.16.09-.29-.01-.06-.05-.12-.06-.19-.02-.11 0-.22 0-.34 0-.2.02-.38-.08-.55-.38-.69-1.24-.93-1.97-.79-.18.03-.29.13-.44.21-.17.09-.14.17-.32.22-.08.03-.22.12-.21.22 0 .12 0 .05.01.17-.02.01-.02 0-.03-.03" fill="#FFF"/>
                        <path id="path4906" d="M46.46-18.08c.02.07.01.13-.03.19-.05.1-.11.06-.17.13-.05.06-.1.28-.08.36-.17.06-.01.23-.02.35 0 .05-.04.11-.04.16-.01.12.02.27.07.37.1.2.27.41.44.54.19.15.36.57.61.63.18.04.38-.1.54-.14.18-.04.4.01.57-.05.22-.08.13-.34.29-.45.1-.07.29-.01.41-.05.2-.07.34-.26.38-.46.02-.08.01-.14.04-.22.04-.1.11-.16.09-.29-.01-.06-.05-.12-.06-.19-.02-.11 0-.22 0-.34 0-.2.02-.38-.08-.55-.38-.69-1.24-.93-1.97-.79-.18.03-.29.13-.44.21-.17.09-.14.17-.32.22-.08.03-.22.12-.21.22 0 .12 0 .05.01.17-.02.01-.02 0-.03-.03" fill="#FFF"/>
                        <path id="path4908" d="M38.8-18.08c.02.07.01.13-.03.19-.05.1-.11.06-.17.13-.05.06-.1.28-.08.36-.17.06-.01.23-.02.35 0 .05-.04.11-.04.16-.01.12.02.27.07.37.1.2.27.41.44.54.19.15.36.57.61.63.18.04.38-.1.54-.14.18-.04.4.01.57-.05.22-.08.13-.34.29-.45.1-.07.29-.01.41-.05.2-.07.34-.26.38-.46.02-.08.01-.14.04-.22.04-.1.11-.16.09-.29-.01-.06-.05-.12-.06-.19-.02-.11 0-.22 0-.34 0-.2.02-.38-.08-.55-.38-.69-1.24-.93-1.97-.79-.18.03-.29.13-.44.21-.17.09-.14.17-.32.22-.08.03-.22.12-.21.22 0 .12 0 .05.01.17-.02.01-.02 0-.03-.03" fill="#FFF"/>
                        <path id="path4910" d="M31.14-18.08c.02.07.01.13-.03.19-.05.1-.11.06-.17.13-.05.06-.1.28-.08.36-.17.06-.01.23-.02.35 0 .05-.04.11-.04.16-.01.12.02.27.07.37.1.2.27.41.44.54.19.15.36.57.61.63.18.04.38-.1.54-.14.18-.04.4.01.57-.05.22-.08.13-.34.29-.45.1-.07.29-.01.41-.05.2-.07.34-.26.38-.46.02-.08.01-.14.04-.22.04-.1.11-.16.09-.29-.01-.06-.05-.12-.06-.19-.02-.11 0-.22 0-.34 0-.2.02-.38-.08-.55-.38-.69-1.24-.93-1.97-.79-.18.03-.29.13-.44.21-.17.09-.14.17-.32.22-.08.03-.22.12-.21.22 0 .12 0 .05.01.17-.02.01-.02 0-.03-.03" fill="#FFF"/>
                        <path id="path4912" d="M23.48-18.08c.02.07.01.13-.03.19-.05.1-.11.06-.17.13-.05.06-.1.28-.08.36-.17.06-.01.23-.02.35 0 .05-.04.11-.04.16-.01.12.02.27.07.37.1.2.27.41.44.54.19.15.36.57.61.63.18.04.38-.1.54-.14.18-.04.4.01.57-.05.22-.08.13-.34.29-.45.1-.07.29-.01.41-.05.2-.07.34-.26.38-.46.02-.08.01-.14.04-.22.04-.1.11-.16.09-.29-.01-.06-.05-.12-.06-.19-.02-.11 0-.22 0-.34 0-.2.02-.38-.08-.55-.38-.69-1.24-.93-1.97-.79-.18.03-.29.13-.44.21-.17.09-.14.17-.32.22-.08.03-.22.12-.21.22 0 .12 0 .05.01.17-.02.01-.02 0-.03-.03" fill="#FFF"/>
                        <path id="path4914" d="M15.82-18.08c.02.07.01.13-.03.19-.05.1-.11.06-.17.13-.05.06-.1.28-.08.36-.17.06-.01.23-.02.35 0 .05-.04.11-.04.16-.01.12.02.27.07.37.1.2.27.41.44.54.19.15.36.57.61.63.18.04.38-.1.54-.14.18-.04.4.01.57-.05.22-.08.13-.34.29-.45.1-.07.29-.01.41-.05.2-.07.34-.26.38-.46.02-.08.01-.14.04-.22.04-.1.11-.16.09-.29-.01-.06-.05-.12-.06-.19-.02-.11 0-.22 0-.34 0-.2.02-.38-.08-.55-.38-.69-1.24-.93-1.97-.79-.18.03-.29.13-.44.21-.17.09-.14.17-.32.22-.08.03-.22.12-.21.22 0 .12 0 .05.01.17-.02.01-.02 0-.03-.03" fill="#FFF"/>
                        <path id="path4916" d="M8.16-18.08c.02.07.01.13-.03.19-.05.1-.11.06-.17.13-.05.06-.1.28-.08.36-.17.06-.01.23-.02.35 0 .05-.04.11-.04.16-.01.12.02.27.07.37.1.2.27.41.44.54.19.15.36.57.61.63.18.04.38-.1.54-.14.18-.04.4.01.57-.05.22-.08.13-.34.29-.45.1-.07.29-.01.41-.05.2-.07.34-.26.38-.46.02-.08.01-.14.04-.22.04-.1.11-.16.09-.29-.01-.06-.05-.12-.06-.19-.02-.11 0-.22 0-.34 0-.2.02-.38-.08-.55-.38-.69-1.24-.93-1.97-.79-.18.03-.29.13-.44.21-.17.09-.14.17-.32.22-.08.03-.22.12-.21.22 0 .12 0 .05.01.17-.02.01-.02 0-.03-.03" fill="#FFF"/>
                        <path id="path4918" d="M.5-18.08c.02.07.01.13-.03.19-.05.1-.11.06-.17.13-.05.06-.1.28-.08.36-.17.06-.01.23-.02.35 0 .05-.04.11-.04.16-.01.12.02.27.07.37.1.2.27.41.44.54.19.15.36.57.61.63.18.04.38-.1.54-.14.18-.04.4.01.57-.05.22-.08.13-.34.29-.45.1-.07.29-.01.41-.05.2-.07.34-.26.38-.46.02-.08.01-.14.04-.22.04-.1.11-.16.09-.29-.01-.06-.05-.12-.06-.19-.02-.11 0-.22 0-.34 0-.2.02-.38-.08-.55-.38-.69-1.24-.93-1.97-.79-.18.03-.29.13-.44.21-.17.09-.14.17-.32.22-.08.03-.22.12-.21.22 0 .12 0 .05.01.17-.02.01-.02 0-.03-.03" fill="#FFF"/>
                    </g>
                    <g id="g4920">
                        <path id="path4922" d="M69.44-10.43c.02.07.01.13-.03.19-.05.1-.11.06-.17.13-.05.06-.1.28-.08.36-.16.06 0 .23-.01.35 0 .05-.04.11-.04.16-.01.12.02.27.07.37.1.2.27.41.44.54.19.15.36.57.61.63.18.04.38-.1.54-.14.18-.04.4.01.57-.05.22-.08.13-.34.29-.45.1-.07.29-.01.41-.05.2-.07.34-.26.38-.46.02-.08.01-.14.04-.22.04-.1.11-.16.09-.29-.01-.06-.05-.12-.06-.19-.02-.11 0-.22 0-.34 0-.2.02-.38-.08-.55-.38-.69-1.24-.93-1.97-.79-.18.03-.29.13-.44.21-.17.09-.14.17-.32.22-.08.03-.22.12-.21.22 0 .12 0 .05.01.17-.02.01-.02 0-.03-.03" fill="#FFF"/>
                        <path id="path4924" d="M61.78-10.43c.02.07.01.13-.03.19-.05.1-.11.06-.17.13-.05.06-.1.28-.08.36-.17.06-.01.23-.02.35 0 .05-.04.11-.04.16-.01.12.02.27.07.37.1.2.27.41.44.54.19.15.36.57.61.63.18.04.38-.1.54-.14.18-.04.4.01.57-.05.22-.08.13-.34.29-.45.1-.07.29-.01.41-.05.2-.07.34-.26.38-.46.02-.08.01-.14.04-.22.04-.1.11-.16.09-.29-.01-.06-.05-.12-.06-.19-.02-.11 0-.22 0-.34 0-.2.02-.38-.08-.55-.38-.69-1.24-.93-1.97-.79-.18.03-.29.13-.44.21-.17.09-.14.17-.32.22-.08.03-.22.12-.21.22 0 .12 0 .05.01.17-.02.01-.02 0-.03-.03" fill="#FFF"/>
                        <path id="path4926" d="M54.12-10.43c.02.07.01.13-.03.19-.05.1-.11.06-.17.13-.05.06-.1.28-.08.36-.17.06-.01.23-.02.35 0 .05-.04.11-.04.16-.01.12.02.27.07.37.1.2.27.41.44.54.19.15.36.57.61.63.18.04.38-.1.54-.14.18-.04.4.01.57-.05.22-.08.13-.34.29-.45.1-.07.29-.01.41-.05.2-.07.34-.26.38-.46.01-.08 0-.15.03-.22.04-.1.11-.16.09-.29-.01-.06-.05-.12-.06-.19-.02-.11 0-.22 0-.34 0-.2.02-.38-.08-.55-.38-.69-1.24-.93-1.97-.79-.18.03-.29.13-.44.21-.17.09-.14.17-.32.22-.08.03-.22.12-.21.22 0 .12 0 .05.01.17-.02.01-.02 0-.03-.03" fill="#FFF"/>
                        <path id="path4928" d="M46.46-10.43c.02.07.01.13-.03.19-.05.1-.11.06-.17.13-.05.06-.1.28-.08.36-.17.06-.01.23-.02.35 0 .05-.04.11-.04.16-.01.12.02.27.07.37.1.2.27.41.44.54.19.15.36.57.61.63.18.04.38-.1.54-.14.18-.04.4.01.57-.05.22-.08.13-.34.29-.45.1-.07.29-.01.41-.05.2-.07.34-.26.38-.46.02-.08.01-.14.04-.22.04-.1.11-.16.09-.29-.01-.06-.05-.12-.06-.19-.02-.11 0-.22 0-.34 0-.2.02-.38-.08-.55-.38-.69-1.24-.93-1.97-.79-.18.03-.29.13-.44.21-.17.09-.14.17-.32.22-.08.03-.22.12-.21.22 0 .12 0 .05.01.17-.02.01-.02 0-.03-.03" fill="#FFF"/>
                        <path id="path4930" d="M38.8-10.43c.02.07.01.13-.03.19-.05.1-.11.06-.17.13-.05.06-.1.28-.08.36-.17.06-.01.23-.02.35 0 .05-.04.11-.04.16-.01.12.02.27.07.37.1.2.27.41.44.54.19.15.36.57.61.63.18.04.38-.1.54-.14.18-.04.4.01.57-.05.22-.08.13-.34.29-.45.1-.07.29-.01.41-.05.2-.07.34-.26.38-.46.01-.08 0-.15.03-.22.04-.1.11-.16.09-.29-.01-.06-.05-.12-.06-.19-.02-.11 0-.22 0-.34 0-.2.02-.38-.08-.55-.38-.69-1.24-.93-1.97-.79-.18.03-.29.13-.44.21-.17.09-.14.17-.32.22-.08.03-.22.12-.21.22 0 .12 0 .05.01.17-.02.01-.02 0-.03-.03" fill="#FFF"/>
                        <path id="path4932" d="M31.14-10.43c.02.07.01.13-.03.19-.05.1-.11.06-.17.13-.05.06-.1.28-.08.36-.17.06-.01.23-.02.35 0 .05-.04.11-.04.16-.01.12.02.27.07.37.1.2.27.41.44.54.19.15.36.57.61.63.18.04.38-.1.54-.14.18-.04.4.01.57-.05.22-.08.13-.34.29-.45.1-.07.29-.01.41-.05.2-.07.34-.26.38-.46.02-.08.01-.14.04-.22.04-.1.11-.16.09-.29-.01-.06-.05-.12-.06-.19-.02-.11 0-.22 0-.34 0-.2.02-.38-.08-.55-.38-.69-1.24-.93-1.97-.79-.18.03-.29.13-.44.21-.17.09-.14.17-.32.22-.08.03-.22.12-.21.22 0 .12 0 .05.01.17-.02.01-.02 0-.03-.03" fill="#FFF"/>
                        <path id="path4934" d="M23.48-10.43c.02.07.01.13-.03.19-.05.1-.11.06-.17.13-.05.06-.1.28-.08.36-.17.06-.01.23-.02.35 0 .05-.04.11-.04.16-.01.12.02.27.07.37.1.2.27.41.44.54.19.15.36.57.61.63.18.04.38-.1.54-.14.18-.04.4.01.57-.05.22-.08.13-.34.29-.45.1-.07.29-.01.41-.05.2-.07.34-.26.38-.46.02-.08.01-.14.04-.22.04-.1.11-.16.09-.29-.01-.06-.05-.12-.06-.19-.02-.11 0-.22 0-.34 0-.2.02-.38-.08-.55-.38-.69-1.24-.93-1.97-.79-.18.03-.29.13-.44.21-.17.09-.14.17-.32.22-.08.03-.22.12-.21.22 0 .12 0 .05.01.17-.02.01-.02 0-.03-.03" fill="#FFF"/>
                        <path id="path4936" d="M15.82-10.43c.02.07.01.13-.03.19-.05.1-.11.06-.17.13-.05.06-.1.28-.08.36-.17.06-.01.23-.02.35 0 .05-.04.11-.04.16-.01.12.02.27.07.37.1.2.27.41.44.54.19.15.36.57.61.63.18.04.38-.1.54-.14.18-.04.4.01.57-.05.22-.08.13-.34.29-.45.1-.07.29-.01.41-.05.2-.07.34-.26.38-.46.01-.08 0-.15.03-.22.04-.1.11-.16.09-.29-.01-.06-.05-.12-.06-.19-.02-.11 0-.22 0-.34 0-.2.02-.38-.08-.55-.38-.69-1.24-.93-1.97-.79-.18.03-.29.13-.44.21-.17.09-.14.17-.32.22-.08.03-.22.12-.21.22 0 .12 0 .05.01.17-.02.01-.02 0-.03-.03" fill="#FFF"/>
                        <path id="path4938" d="M8.16-10.43c.02.07.01.13-.03.19-.05.1-.11.06-.17.13-.05.06-.1.28-.08.36-.16.06 0 .23-.01.35 0 .05-.04.11-.04.16-.01.12.01.27.06.37.1.2.27.41.44.54.19.15.36.57.61.63.18.04.38-.1.54-.14.18-.04.4.01.57-.05.22-.08.13-.34.29-.45.1-.07.29-.01.41-.05.2-.07.34-.26.38-.46.02-.08.01-.14.04-.22.04-.1.11-.16.09-.29-.01-.06-.05-.12-.06-.19-.02-.11 0-.22 0-.34 0-.2.02-.38-.08-.55-.38-.69-1.24-.93-1.97-.79-.18.03-.29.13-.44.21-.17.09-.14.17-.32.22-.08.03-.22.12-.21.22 0 .12 0 .05.01.17-.02.01-.02 0-.03-.03" fill="#FFF"/>
                        <path id="path4940" d="M.5-10.43c.02.07.01.13-.03.19-.05.1-.11.06-.17.13-.05.06-.1.28-.08.36-.16.06 0 .23-.01.35 0 .05-.04.11-.04.16-.01.12.01.27.06.37.1.2.27.41.44.54.19.15.36.57.61.63.18.04.38-.1.54-.14.18-.04.4.01.57-.05.22-.08.13-.34.29-.45.1-.07.29-.01.41-.05.2-.07.34-.26.38-.46.01-.08 0-.15.03-.22.04-.1.11-.16.09-.29-.01-.07-.05-.12-.06-.19-.02-.11 0-.22 0-.34 0-.2.02-.38-.08-.55-.38-.69-1.24-.93-1.97-.79-.18.03-.29.13-.44.21-.17.09-.14.17-.32.22-.08.03-.22.12-.21.22 0 .12 0 .05.01.17-.02.01-.02 0-.03-.03" fill="#FFF"/>
                    </g>
                </g>
                <g id="g4942">
                    <path id="path4944" d="M69.44-2.78c.02.07.01.13-.03.19-.05.1-.11.06-.17.13-.05.06-.1.28-.08.36-.16.06 0 .23-.01.35 0 .05-.04.11-.04.16-.01.12.02.27.07.37.1.2.27.41.44.54.19.15.36.57.61.63.17.05.37-.1.53-.13.18-.04.4.01.57-.05.22-.08.13-.34.29-.45.1-.07.29-.01.41-.05.2-.08.34-.27.37-.47.02-.08.01-.14.04-.22.04-.1.11-.16.09-.29-.01-.06-.05-.12-.06-.19-.02-.11 0-.22 0-.34 0-.2.02-.38-.08-.55-.38-.69-1.24-.93-1.97-.79-.18.03-.29.13-.44.21-.17.09-.14.17-.32.22-.08.03-.22.12-.21.22 0 .12 0 .05.01.17-.02.01-.02 0-.03-.03" fill="#FFF"/>
                    <path id="path4946" d="M61.78-2.78c.02.07.01.13-.03.19-.05.1-.11.06-.17.13-.05.06-.1.28-.08.36-.17.06-.01.23-.02.35 0 .05-.04.11-.04.16-.01.12.02.27.07.37.1.2.27.41.44.54.19.15.36.57.61.63.18.04.38-.1.54-.14.18-.04.4.01.57-.05.22-.08.13-.34.29-.45.1-.07.29-.01.41-.05.2-.07.34-.26.38-.46.02-.08.01-.14.04-.22.04-.1.11-.16.09-.29-.01-.06-.05-.12-.06-.19-.02-.11 0-.22 0-.34 0-.2.02-.38-.08-.55-.38-.69-1.24-.93-1.97-.79-.18.03-.29.13-.44.21-.19.09-.15.17-.33.23-.08.03-.22.12-.21.22 0 .12 0 .05.01.17-.02.01-.02 0-.03-.03" fill="#FFF"/>
                    <path id="path4948" d="M54.12-2.78c.02.07.01.13-.03.19-.05.1-.11.06-.17.13-.05.06-.1.28-.08.36-.17.06-.01.23-.02.35 0 .05-.04.11-.04.16-.01.12.02.27.07.37.1.2.27.41.44.54.19.15.36.57.61.63.18.04.38-.1.54-.14.18-.04.4.01.57-.05.22-.08.13-.34.29-.45.1-.07.29-.01.41-.05.2-.07.34-.26.38-.46.02-.08.01-.14.04-.22.04-.1.11-.16.09-.29-.01-.06-.05-.12-.06-.19-.02-.11 0-.22 0-.34 0-.2.02-.38-.08-.55-.38-.69-1.24-.93-1.97-.79-.18.03-.29.13-.44.21-.17.09-.14.17-.32.22-.08.03-.22.12-.21.22 0 .12 0 .05.01.17-.02.01-.02 0-.03-.03" fill="#FFF"/>
                    <path id="path4950" d="M46.46-2.78c.02.07.01.13-.03.19-.05.1-.11.06-.17.13-.05.06-.1.28-.08.36-.17.06-.01.23-.02.35 0 .05-.04.11-.04.16-.01.12.02.27.07.37.1.2.27.41.44.54.19.16.37.58.61.64.18.04.38-.1.54-.14.18-.04.4.01.57-.05.22-.08.13-.34.29-.45.1-.07.29-.01.41-.05.2-.07.34-.26.38-.46.02-.08.01-.14.04-.22.04-.1.11-.16.09-.29-.01-.06-.05-.12-.06-.19-.02-.11 0-.22 0-.34 0-.2.02-.38-.08-.55-.38-.69-1.24-.93-1.97-.79-.18.03-.29.13-.44.21-.17.09-.14.17-.32.22-.08.03-.22.12-.21.22 0 .12 0 .05.01.17-.02.01-.02 0-.03-.03" fill="#FFF"/>
                    <path id="path4952" d="M38.8-2.78c.02.07.01.13-.03.19-.05.1-.11.06-.17.13-.05.06-.1.28-.08.36-.17.06-.01.23-.02.35 0 .05-.04.11-.04.16-.01.12.02.27.07.37.1.2.27.41.44.54.19.15.36.57.61.63.18.04.38-.1.54-.14.18-.04.4.01.57-.05.22-.08.13-.34.29-.45.1-.07.29-.01.41-.05.2-.07.34-.26.38-.46.02-.08.01-.14.04-.22.04-.1.11-.16.09-.29-.01-.06-.05-.12-.06-.19-.02-.11 0-.22 0-.34 0-.2.02-.38-.08-.55-.38-.69-1.24-.93-1.97-.79-.18.03-.29.13-.44.21-.17.09-.14.17-.32.22-.08.03-.22.12-.21.22 0 .12 0 .05.01.17-.02.01-.02 0-.03-.03" fill="#FFF"/>
                    <path id="path4954" d="M31.14-2.78c.02.07.01.13-.03.19-.05.1-.11.06-.17.13-.05.06-.1.28-.08.36-.17.06-.01.23-.02.35 0 .05-.04.11-.04.16-.01.12.02.27.07.37.1.2.27.41.44.54.19.15.36.57.61.63.18.05.38-.1.54-.13.18-.04.4.01.57-.05.22-.08.13-.34.29-.45.1-.07.29-.01.41-.05.2-.08.34-.27.37-.47.02-.08.01-.14.04-.22.04-.1.11-.16.09-.29-.01-.06-.05-.12-.06-.19-.02-.11 0-.22 0-.34 0-.2.02-.38-.08-.55-.38-.69-1.24-.93-1.97-.79-.18.03-.29.13-.44.21-.17.09-.14.17-.32.22-.08.03-.22.12-.21.22 0 .12 0 .05.01.17-.02.01-.02 0-.03-.03" fill="#FFF"/>
                    <path id="path4956" d="M23.48-2.78c.02.07.01.13-.03.19-.05.1-.11.06-.17.13-.05.06-.1.28-.08.36-.17.06-.01.23-.02.35 0 .05-.04.11-.04.16-.01.12.02.27.07.37.1.2.27.41.44.54.19.15.36.57.61.63.18.04.38-.1.54-.14.18-.04.4.01.57-.05.22-.08.13-.34.29-.45.1-.07.29-.01.41-.05.2-.07.34-.26.38-.46.02-.08.01-.14.04-.22.04-.1.11-.16.09-.29-.01-.06-.05-.12-.06-.19-.02-.11 0-.22 0-.34 0-.2.02-.38-.08-.55-.38-.69-1.24-.93-1.97-.79-.18.03-.29.13-.44.21-.17.09-.14.17-.32.22-.08.03-.22.12-.21.22 0 .12 0 .05.01.17-.02.01-.02 0-.03-.03" fill="#FFF"/>
                    <path id="path4958" d="M15.82-2.78c.02.07.01.13-.03.19-.05.1-.11.06-.17.13-.05.06-.1.28-.08.36-.17.06-.01.23-.02.35 0 .05-.04.11-.04.16-.01.12.02.27.07.37.1.2.27.41.44.54.19.15.36.57.61.63.18.04.38-.1.54-.14.18-.04.4.01.57-.05.22-.08.13-.34.29-.45.1-.07.29-.01.41-.05.2-.07.34-.26.38-.46.02-.08.01-.14.04-.22.04-.1.11-.16.09-.29-.01-.06-.05-.12-.06-.19-.02-.11 0-.22 0-.34 0-.2.02-.38-.08-.55-.38-.69-1.24-.93-1.97-.79-.18.03-.29.13-.44.21-.17.09-.14.17-.32.22-.08.03-.22.12-.21.22 0 .12 0 .05.01.17-.02.01-.02 0-.03-.03" fill="#FFF"/>
                    <path id="path4960" d="M8.16-2.78c.02.07.01.13-.03.19-.05.1-.11.06-.17.13-.05.06-.09.28-.07.36-.17.06-.01.23-.02.35 0 .05-.04.11-.04.16-.01.12.01.27.06.37.1.2.27.41.44.54.19.16.36.58.61.64.17.04.38-.11.54-.14.18-.04.4.01.57-.05.22-.08.13-.34.29-.45.1-.07.29-.01.41-.05.2-.07.34-.26.38-.46.02-.08.01-.14.04-.22.04-.1.11-.16.09-.29-.01-.06-.05-.12-.06-.19-.02-.11 0-.22 0-.34 0-.2.02-.38-.08-.55-.38-.69-1.24-.93-1.97-.79-.2.03-.3.12-.46.2-.17.09-.14.17-.32.23-.08.02-.21.12-.21.22 0 .12 0 .05.01.17-.02.01-.02 0-.03-.03" fill="#FFF"/>
                    <path id="path4962" d="M.5-2.78c.01.07 0 .13-.03.19-.05.1-.11.06-.17.13-.05.06-.09.28-.07.36-.17.06-.02.23-.02.35 0 .05-.04.11-.04.16-.02.12.01.27.06.37.1.2.27.41.44.54.19.16.36.58.61.64.17.04.38-.11.54-.14.18-.05.4.01.57-.06.22-.08.13-.34.29-.45.1-.07.29-.01.41-.05.19-.07.33-.26.37-.46.02-.08.01-.14.04-.22.04-.1.11-.16.09-.29-.01-.06-.05-.12-.06-.19-.02-.11 0-.22 0-.34 0-.2.02-.38-.08-.55-.38-.68-1.24-.92-1.98-.78-.18.03-.28.12-.44.2-.17.09-.14.17-.32.23-.08.02-.21.12-.21.22 0 .12 0 .05.01.17-.02.01-.02 0-.03-.03" fill="#FFF"/>
                </g>
            </g>
        </pattern>
        <pattern patternTransform="rotate(135 13.896 6.049)" id="HatchD" xlink:href="#Hatch"/>
        <pattern id="Hatch" patternTransform="translate(70)" height="64" width="4" patternUnits="userSpaceOnUse">
            <g transform="translate(-64)" id="gHatch">
                <path id="HatchW" style="fill:#fff" d="M64 0h4v65h-4z"/>
                <path id="HatchB" d="M67 0h2v65h-2z"/>
            </g>
        </pattern>
        <pattern patternTransform="matrix(1 1 0 1 2 3)" id="pattern8359" xlink:href="#pattern8352"/>
        <pattern id="pattern8352" patternTransform="translate(70)" height="4" width="4" patternUnits="userSpaceOnUse">
            <g transform="translate(-64)" id="g8348">
                <path id="rect5703" style="opacity:1;fill:#000;fill-opacity:1;fill-rule:evenodd;stroke:none;stroke-width:1;stroke-linecap:round;stroke-linejoin:round;stroke-miterlimit:0;stroke-dasharray:none;stroke-dashoffset:0;stroke-opacity:1" d="M64 0h5v5h-5z"/>
                <path id="rect4828" style="opacity:1;fill:#fff;fill-opacity:1;fill-rule:evenodd;stroke:none;stroke-width:1;stroke-linecap:round;stroke-linejoin:round;stroke-miterlimit:0;stroke-dasharray:none;stroke-dashoffset:0;stroke-opacity:1" d="M64 0h3v3h-3z"/>
            </g>
        </pattern>
        <pattern id="Hatch-7" patternTransform="translate(70)" height="64" width="4" patternUnits="userSpaceOnUse">
            <g transform="translate(-64)" id="gHatch-9">
                <path id="HatchW-0" style="fill:#fff" d="M64 0h4v65h-4z"/>
                <path id="HatchB-2" d="M67 0h2v65h-2z"/>
            </g>
        </pattern>
        <pattern patternTransform="rotate(135 13.896 6.049)" id="HatchD-3" xlink:href="#Hatch-7"/>
        <pattern id="Hatch-0" patternTransform="translate(70)" height="64" width="4" patternUnits="userSpaceOnUse">
            <g transform="translate(-64)" id="gHatch-2">
                <path id="HatchW-4" style="fill:#fff" d="M64 0h4v65h-4z"/>
                <path id="HatchB-8" d="M67 0h2v65h-2z"/>
            </g>
        </pattern>
        <pattern patternTransform="rotate(135 13.896 6.049)" id="HatchD-39" xlink:href="#Hatch-0"/>
        <radialGradient gradientTransform="matrix(1.55128 0 0 1.35034 -227.894 -51.264)" gradientUnits="userSpaceOnUse" xlink:href="#linearGradient2893" id="radialGradient11919" fy="200.448" fx="285.186" r="300" cy="200.448" cx="285.186"/>
        <radialGradient gradientTransform="matrix(0 2.34248 -2.29135 0 562.913 1323.77)" gradientUnits="userSpaceOnUse" xlink:href="#linearGradient2955" id="radialGradient2928" fy="153.928" fx="-483.508" r="300" cy="153.928" cx="-483.508"/>
        <radialGradient gradientTransform="matrix(-.00042 2.18287 -1.88423 -.00036 1395.6 -309.121)" gradientUnits="userSpaceOnUse" xlink:href="#linearGradient2955" id="radialGradient1911" fy="218.901" fx="225.524" r="300" cy="218.901" cx="225.524"/>
        <radialGradient gradientTransform="matrix(-.00042 2.18287 -1.88423 -.00036 615.597 -289.121)" gradientUnits="userSpaceOnUse" xlink:href="#linearGradient2955" id="radialGradient2961" fy="218.901" fx="225.524" r="300" cy="218.901" cx="225.524"/>
        <radialGradient gradientTransform="matrix(1.36002 0 0 1.35509 -79.528 -87.645)" gradientUnits="userSpaceOnUse" xlink:href="#linearGradient2893" id="radialGradient2883" fy="218.01" fx="203.198" r="300" cy="218.01" cx="203.198"/>
        <radialGradient gradientTransform="matrix(1.55128 0 0 1.35034 -227.894 -51.264)" gradientUnits="userSpaceOnUse" xlink:href="#linearGradient2893" id="radialGradient5857" fy="200.448" fx="285.186" r="300" cy="200.448" cx="285.186"/>
        <radialGradient gradientTransform="matrix(1.55128 0 0 1.35034 1637.76 173.566)" gradientUnits="userSpaceOnUse" xlink:href="#linearGradient2893" id="radialGradient5860" fy="200.448" fx="285.186" r="300" cy="200.448" cx="285.186"/>
        <path id="star" transform="scale(53)" d="M0-1 .588.809-.952-.309H.952L-.588.809z"/>
        <path style="stroke-width:2" id="Shield1" d="M1 1h52v47c0 16-20 5.4-26 14.4-6-9-26 .6-26-14.4V1z"/>
        <path style="stroke:#000" id="Shield1R" d="M27 1h26v47c0 16-20 5.4-26 14.4V1z"/>
        <path d="M27 1h26v47c0 16-20 5.4-26 14.4V1z" style="stroke:#000" id="Shield1R-9"/>
        <path d="M1 1h52v47c0 16-20 5.4-26 14.4-6-9-26 .6-26-14.4V1z" style="stroke-width:2" id="Shield1-3"/>
        <path d="M27 1h26v47c0 16-20 5.4-26 14.4V1z" id="Shield1R-93" style="stroke:#000"/>
        <path d="M1 1h52v47c0 16-20 5.4-26 14.4-6-9-26 .6-26-14.4V1z" id="Shield1-8" style="stroke-width:2"/>
        <marker orient="auto" refY="0" refX="0" id="Arrow1Lstart" style="overflow:visible">
            <path id="path12217" d="m0 0 5-5-17.5 5L5 5 0 0z" style="fill-rule:evenodd;stroke:#000;stroke-width:1pt;marker-start:none" transform="scale(.8)"/>
        </marker>
        <marker orient="auto" refY="0" refX="0" id="Arrow2Send" style="overflow:visible">
            <path id="path12184" style="font-size:12px;fill-rule:evenodd;stroke-width:.625;stroke-linejoin:round" d="M8.719 4.034-2.207.016 8.719-4.002c-1.746 2.372-1.736 5.618 0 8.036z" transform="matrix(-.3 0 0 -.3 1.5 0)"/>
        </marker>
        <marker orient="auto" refY="0" refX="0" id="Dot_l" style="overflow:visible">
            <path id="path12152" d="M-2.5-1c0 2.76-2.24 5-5 5s-5-2.24-5-5 2.24-5 5-5 5 2.24 5 5z" style="fill-rule:evenodd;stroke:#000;stroke-width:1pt;marker-start:none;marker-end:none" transform="matrix(.8 0 0 .8 5.7 .8)"/>
        </marker>
        <marker markerUnits="strokeWidth" refX="0" refY="5" markerWidth="4" markerHeight="3" orient="auto" viewBox="0 0 10 10" id="ArrowEnd">
            <path d="m0 0 10 5-10 5z" id="path5756"/>
        </marker>
        <marker markerUnits="strokeWidth" refX="10" refY="5" markerWidth="4" markerHeight="3" orient="auto" viewBox="0 0 10 10" id="ArrowStart">
            <path d="M10 0 0 5l10 5z" id="path5759"/>
        </marker>
        <linearGradient id="linearGradient2955">
            <stop offset="0" style="stop-color:#fff;stop-opacity:0" id="stop2965"/>
            <stop offset="1" style="stop-color:#000;stop-opacity:.64583331" id="stop2959"/>
        </linearGradient>
        <linearGradient id="linearGradient2893">
            <stop offset="0" style="stop-color:#fff;stop-opacity:.3137255" id="stop2895"/>
            <stop offset=".19" style="stop-color:#fff;stop-opacity:.25098041" id="stop2897"/>
            <stop offset=".6" style="stop-color:#6b6b6b;stop-opacity:.1254902" id="stop2901"/>
            <stop offset="1" style="stop-color:#000;stop-opacity:.1254902" id="stop2899"/>
        </linearGradient>
        <clipPath id="clip">
            <path id="path10" d="M0-200v800h300v-800H0z"/>
        </clipPath>
        <style id="style3658-9" type="text/css">
            .str3{stroke:#1f1a17;stroke-width:.0709901}.str0,.str1,.str2,.str4{stroke:#1f1a17;stroke-width:.18784}.str0,.str1,.str4{stroke:#0093dd}.str0,.str1{stroke:#1f1a17}.str0{stroke-width:.18855}.fil1{fill:none}.fil0{fill:#fff}.fil2,.fil3,.fil4{fill:#1f1a17;fill-rule:nonzero}.fil3,.fil4{fill:#28166f}.fil3{fill:#da251d}
        </style>
    </defs>
    <path style="fill:#fff;fill-opacity:1;fill-rule:evenodd;stroke:#1f1a17;stroke-width:4;stroke-miterlimit:4;stroke-dasharray:none" id="path3693" d="m2.186 167.757.001-165.21h495.627v165.21c0 183.465-99.74 343.681-247.844 429.356C101.898 511.396 2.186 351.198 2.186 167.757Z"/>
    <path id="rect1688" d="M212.14 2.547c12.868 20.922 19.14 58.163 19.14 92.5v118.836H100.341c-37.33 0-78.105-7.407-97.596-22.65 1.222 26.178 4.461 51.832 9.592 76.796 21.005-10.754 55.326-16.705 89.04-16.705H231.28V494.24c0 29.191-6.731 57.147-17.646 79.653a496.096 496.096 0 0 0 36.338 23.22 495.84 495.84 0 0 0 36.808-23.537c-10.998-23.267-18.058-52.178-18.058-79.336V251.324h130.492c33.426 0 67.452 5.847 88.502 16.428a496.143 496.143 0 0 0 9.52-76.063c-19.718 14.932-60.035 22.194-96.987 22.194H268.721V96.084c0-36.244 6.875-73.19 19.205-93.537H212.14z" style="fill:#fd0;fill-opacity:1;fill-rule:nonzero;stroke:#000;stroke-width:4;stroke-miterlimit:4;stroke-dasharray:none;stroke-opacity:1"/>
</svg>
