<svg xmlns="http://www.w3.org/2000/svg" viewBox="0 0 57 68">
    <path d="m32.395.531.048.143c-.24 1.631-.432 3.31-.504 5.012l.192.144c.695 0 1.343.216 1.99.144.432-1.655.671-3.357 1.007-5.036 2.326.408 4.628.84 6.738 1.822-.576 1.63-1.319 3.237-1.655 4.94l1.871.743.216-.216 2.134-4.46c1.966.791 3.837 1.846 5.635 3.045-1.055 1.655-2.087 3.309-3.237 4.916-.336.048-.599-.624-.911-.168l-1.391 2.23c.144.264.432.336.648.503-.216.456-.624.839-.792 1.319l.096.168c9.591 6.906 14.219 18.008 11.773 29.758-1.678 7.385-6.57 14.507-13.38 18.368-5.779 3.333-13.284 4.7-20.166 3.165-6.115-1.342-11.822-4.292-15.898-9.591-5.54-6.882-8.225-16.042-5.827-25.154 1.727-7.002 6.402-13.572 12.876-17.601-.144-.456-.456-.912-.647-1.391l.528-.36c-.312-.935-.911-1.75-1.44-2.589-.263 0-.431.288-.742.288l-2.902-4.94c1.031-.815 2.303-1.27 3.454-1.918.887-.312 1.727-.815 2.614-1.007l1.87 4.772.169.072c.48-.19 1.007-.312 1.439-.575-.384-1.727-1.08-3.285-1.487-4.988 2.063-.647 4.22-1.175 6.475-1.439.264 1.703.432 3.43.815 5.083l.096.096 1.727-.168c.048-1.75-.168-3.549-.24-5.275 2.276-.167 4.578-.072 6.808.145z"/>
    <g fill="#c2a940">
        <path d="M31.843.938c0 1.606-.264 3.07-.36 4.652-1.678.048-3.261-.216-4.963 0l-.12-.024c-.12-1.535-.311-3.094-.288-4.676 1.823-.216 3.909-.143 5.731.048zM22.732 1.226c.384 1.487.48 3.07.743 4.604-1.583.312-3.189.6-4.7 1.103l-.144-.048c-.48-1.439-.983-2.902-1.319-4.413 1.727-.646 3.549-1.006 5.42-1.246zM41.123 2.93l.048.191-1.463 4.292c-1.103-.264-2.23-.624-3.333-.91l-1.727-.385c.072-1.463.48-2.925.743-4.364l.144-.264c1.992.168 3.766.815 5.588 1.44zM14.435 3.432c.624 1.44 1.223 2.878 1.703 4.364a52.218 52.218 0 0 0-4.364 2.11l-.36-.359c-.695-1.223-1.487-2.398-2.062-3.669 1.534-1.055 3.284-1.87 5.083-2.446zM49.372 6.933c0 .336-.264.671-.456.935l-2.11 3.045a47.784 47.784 0 0 0-4.1-2.182l.024-.336 1.942-4.005c1.631.72 3.213 1.464 4.7 2.543zM30.62 6.262c.024.983-.047 1.966-.191 2.925h-2.782l-.12-.192-.048-2.757a15.266 15.266 0 0 1 3.141.024zM26.928 6.238c.144.96.096 1.894.144 2.901-1.079.168-2.23.216-3.309.408-.24-.936-.48-1.99-.456-2.974a16.404 16.404 0 0 1 3.621-.335zM35.033 6.885c-.048.96-.312 1.918-.528 2.83l-.264.048a36.958 36.958 0 0 0-3.285-.479c-.048-.936.048-1.966.192-2.902l.096-.096c1.343.047 2.566.36 3.789.6zM22.659 6.693c.216.935.408 1.895.528 2.877-.839.24-1.75.456-2.638.6l-.791-2.638.024-.216a22.863 22.863 0 0 1 2.877-.623zM38.534 7.82c-.144.935-.528 1.846-.863 2.733-.911-.144-1.822-.408-2.686-.695.12-.983.288-1.942.623-2.83 1.007.193 1.991.433 2.926.792zM19.278 7.533c.312.911.528 1.846.743 2.781l-2.83 1.007c-.456-.815-.791-1.75-1.079-2.662.937-.575 2.087-.863 3.166-1.126zM42.514 9.403c-.216.911-.744 1.775-1.247 2.614l-3.021-1.175-.072-.24c.335-.863.503-1.774.935-2.589 1.175.36 2.302.862 3.405 1.39zM15.562 8.852c.384.887.839 1.774 1.055 2.709l-2.398 1.151c-.6-.768-1.031-1.678-1.415-2.566a15.224 15.224 0 0 1 2.758-1.294z"/>
        <path d="M44.432 14.462c-.024.311-.288.647-.551.839-6.666-4.292-16.042-5.923-23.979-3.261a28.903 28.903 0 0 0-5.515 2.398c-.264-.216-.36-.551-.528-.839 6.978-4.34 17.481-5.107 25.274-1.894 1.799.815 3.669 1.51 5.299 2.757zM45.536 11.01l-.024.264c-.455.743-.911 1.535-1.486 2.206l-2.158-1.151c.359-.888.767-1.799 1.343-2.59.814.359 1.581.767 2.325 1.271z"/>
        <path d="M52.825 25.685c4.077 6.834 4.796 17.121 1.391 24.483-3.669 9.207-13.093 16.114-22.948 16.929-7.386.623-14.028-1.487-19.687-5.539-4.58-3.621-7.841-8.633-9.592-13.884-3.357-10.407-.24-21.677 7.53-28.991 7.577-7.433 20.406-9.52 30.045-5.06 5.42 2.254 10.384 6.834 13.26 12.062z"/>
    </g>
    <path d="M53.281 27.411c2.925 5.851 3.669 14.028 1.391 20.406-2.182 6.69-7.385 13.261-13.98 16.234-6.714 3.429-15.946 3.765-22.876.6-3.741-1.463-7.409-4.029-10.023-7.29-5.348-6.427-8.01-14.747-6.331-23.38 1.535-9.232 9.064-17.961 18.032-20.91 3.98-1.391 8.848-1.871 13.236-1.055 8.537 1.127 16.834 7.386 20.55 15.395z"/>
    <path d="M27.623 12.304c-.24.264-1.007-.191-.863.384.072.384-.048.839.12 1.199.24.024.648-.072.768.096-.024.024-.048.072-.024.144-.264.144-.6-.096-.792.192l.096 1.463c.24.216.911-.192.839.36-.383.144-.839.048-1.247.144l-.072-.144c-.096-1.271-.264-2.59-.24-3.956.432-.12.983-.144 1.415-.072v.19z" fill="#c2a940"/>
    <path d="M29.613 12.113c.024.24-.144.815.336.671.456-.072.503.311.456.671l-.312 2.757c-.575.072-1.199-.024-1.822-.024-.048-.216.048-.6-.216-.719-.216.048-.48.048-.695 0-.096-.264-.072-.576-.096-.863.216-.24.887.167.792-.384l-.072-.719c-.24-.096-.696.144-.768-.192v-.527c.288-.12.816.072.96-.288-.048-.12-.072-.335.024-.456l1.413.073z" fill="#d0cebc"/>
    <path d="M32.275 12.353c.072.191-.096.264-.216.264-.192-.024-.359-.072-.551-.048l-.12.36-.335 3.381-.504-.024.264-3.789c-.239-.048-.599.024-.695-.192l.024-.168c.742.024 1.486.024 2.133.216z" fill="#c2a940"/>
    <g fill="#d0cebc">
        <path d="M25.681 12.208c.216 1.295.192 2.758.264 4.028-1.702.36-3.453.648-5.059 1.223-.216-.983-.911.168-1.391-.311.312-.552.503-1.247.288-1.918-.096-.6-.719-1.127-1.319-1.223-.024 0-.048-.024-.048-.024 2.158-.959 4.532-1.463 6.954-1.798l.311.023zM39.205 14.318c-.936.336-1.966 1.223-2.038 2.326-.072.527.143.936.264 1.367-1.919-.647-3.861-1.343-5.947-1.63-.024-1.127.24-2.23.312-3.357.24-.096.551.048.792 0 .096-.192.048-.528.264-.6 2.229.36 4.387.935 6.353 1.894z"/>
    </g>
    <path d="M23.954 13.935c.384.359.312.959.144 1.391a1.267 1.267 0 0 1-.887.551c-.36.072-.624-.12-.887-.288-.336-.288-.384-.719-.336-1.127.096-.432.504-.792.936-.863.431-.072.743.096 1.03.336zM35.728 14.63c.12.384.048.815-.144 1.127-.264.312-.624.479-1.007.432-.36-.048-.744-.216-.887-.576-.144-.264-.216-.695-.048-.983.144-.408.552-.6.936-.695.503-.024.934.288 1.15.695z"/>
    <g fill="#c2a940">
        <path d="M23.715 14.223c.144.264.192.647.048.911-.191.336-.623.408-.959.288-.312-.144-.456-.527-.384-.815 0-.264.24-.528.479-.576.288-.096.576.024.816.192zM19.302 14.894c.24.384.384.911.192 1.391-.024.384-.552.647-.456 1.031.408.24.935.384 1.391.12l.048.048c-.144.144-.384.312-.647.288-.408 0-.744-.216-1.079-.264-.072.24.143.479.167.719-.191.024-.311.216-.503.168-.624-1.199-1.223-2.446-1.654-3.693.695-.551 2.038-.719 2.541.192zM35.273 14.559c.192.215.264.551.143.815-.216.455-.791.599-1.175.359-.311-.24-.384-.671-.264-1.031a.81.81 0 0 1 .479-.408c.337-.047.649.024.817.265z"/>
    </g>
    <path d="M18.823 14.75c.335.288.432.671.456 1.103 0 .528-.384 1.031-.863 1.223a18.14 18.14 0 0 1-1.031-2.302c.383-.312 1.03-.407 1.438-.024z"/>
    <path d="m41.027 15.134.48.768c-.312.048-.432-.456-.647-.6-.48-.335-1.223-.384-1.727-.072-.527.408-.911.935-.983 1.535 0 .432-.024.911.24 1.27.384.528 1.031.552 1.679.504.096.096.216.288 0 .335a2.608 2.608 0 0 1-2.015-.647c-.551-.408-.431-1.127-.383-1.727.096-.839.791-1.486 1.583-1.75.623-.144 1.294-.023 1.773.384z" fill="#c2a940"/>
    <g fill="#d0cebc">
        <path d="M18.823 15.158c.24.312.264.768.072 1.127l-.311.288c-.335-.479-.552-1.055-.768-1.583-.024-.144.144-.12.216-.192.359-.144.551.24.791.36zM16.257 14.99c.647 1.199 1.247 2.397 1.751 3.668-.359.072-.767.719-1.055.312-.12-.12-.144-.336-.336-.36l-.768.479c-.167-.24-.623-.551-.383-.863.167-.12.359-.192.503-.335-.192-.264-.36-.552-.575-.815-.336.072-.864.647-1.007-.048-.12-.624 1.391-.6.551-1.319.36-.359.839-.575 1.319-.719zM41.027 15.901c.096.168.144.479.384.479l.575-.192-.143-.551c1.103.527 2.134 1.318 3.165 2.038-1.079-.096-2.206.143-2.733 1.199-.408.503-.24 1.247-.144 1.823-.768-.504-1.607-1.031-2.254-1.511l.719-.096a1.97 1.97 0 0 0-.144-.911c-.456.048-1.055.144-1.439-.096-.311-.312-.432-.696-.456-1.151.024-.695.503-1.319 1.175-1.558.552-.12.936.191 1.295.527z"/>
    </g>
    <g fill="#c2a940">
        <path d="M14.579 16.165c-.168.335-.839.384-.72.791l.671.959c.288.096.671-.528.792-.048-.168.12-.359.191-.503.383.24.479.527.96.887 1.367.312-.024.551-.576.839-.264v.12l-1.127.719c-.815-1.055-1.631-2.182-2.302-3.333.384-.36.839-.743 1.343-.863l.12.169zM49.228 30.312c2.686 5.659 2.494 13.764-.527 19.207-4.053 8.033-12.397 12.924-21.462 12.421-8.272-.407-16.066-5.899-19.351-13.5-3.693-7.602-2.158-17.792 3.453-24.027 5.827-6.906 15.347-9.544 24.075-6.738 5.899 1.895 11.414 6.835 13.812 12.637z"/>
    </g>
    <path d="M49.18 31.104c3.189 7.697 1.415 17.265-4.268 23.26-5.54 5.947-13.764 8.68-21.989 6.546-7.434-1.75-14.148-8.632-15.994-15.97-2.326-9.016 1.007-18.344 8.512-23.859 6.211-4.844 16.522-5.515 23.38-1.583 4.628 2.47 8.489 6.81 10.359 11.606z"/>
    <path d="M12.732 17.22c.768 1.103 1.607 2.182 2.23 3.333l-1.391 1.055-2.158-2.518c.048-.335.695-.456.528-.839-.144-.12-.36-.312-.216-.456l.863-.624.144.049z" fill="#d0cebc"/>
    <g fill="#004899">
        <path d="M27.623 17.388c-1.559.312-2.997 1.463-3.669 2.95-.767 1.727-.479 3.885.648 5.371.432.456.815.936 1.319 1.247l-.24.12-2.494.503c-.6.456-.671 1.295-.863 1.99l-.384 2.854-.671 1.151-4.077.216c1.415-1.367 2.254-3.357 1.631-5.395-.456-1.75-2.074-3.003-3.753-3.435-1.223-.192-2.901.018-4.226 1.271.666-.923 1.888-2.176 2.608-2.896a20.315 20.315 0 0 1 6.762-4.364l-1.223 2.398c-.792.288-1.679.048-2.518.191-.168.168.072.216.12.36l1.702 1.559c-.191.863-.647 1.727-.839 2.59l.096.072 2.59-1.223c.839.432 1.63 1.031 2.47 1.51l.048-.167-.887-2.709a24.376 24.376 0 0 1 1.823-2.063l-.144-.144c-.743.048-1.511 0-2.182.048-.335-.768-.647-1.559-.839-2.374-.048-.024-.072-.096-.144-.072 2.253-.984 4.722-1.511 7.336-1.559zM47.358 28.322c1.99 3.381 3.021 7.218 2.997 11.366-.456-.624-.743-1.583-1.223-2.302-.288.072-.24.432-.36.648-1.103-.912-2.134-1.799-3.189-2.878.12-.791-.527-1.439-1.079-1.846l-.48-2.422c.167-.815.695-1.487.767-2.326.048-.887-.072-1.87-.767-2.494-.288-.312-.983-.072-1.007-.551.12-.408.671-.648.552-1.151-.384-.216-.671.264-1.055.264-.432.096-.839-.096-1.223-.096-.144.12-.144.384 0 .479.312.168.456.576.839.624.288.48-.624.624-.576 1.103-.383-.408-1.175.408-1.007-.48.12-.312.408-.624.216-.983-.384-.36-.503.359-.863.456-.312.383-1.463-.072-1.127.719.216.479 1.175.12.911.767-.216.168-.312.384-.384.6-.551-.216-.959.647-1.343.143-.12-.431.144-1.126-.432-1.223-.216.384-.408.839-.839 1.007-.216.168-.647 0-.695.383.24.72 1.175.24 1.535.864-.288.839.072 1.51.576 2.134.839.983 2.014 1.319 3.309 1.343.456.504.983.839 1.439 1.391-.048.336-.48.408-.719.576-2.182-.264-4.652-.12-6.762-.12l-.12-.312c-.24-1.798-.216-3.693-.6-5.419l-.144-.288c-1.199-.36-2.326-.792-3.549-1.055 1.679-.935 2.59-2.662 2.83-4.436.48.24.671.768 1.055 1.127l-1.199 2.35.048.096 2.829-.647c.72.527 1.295 1.175 2.063 1.582.048-.719-.168-1.511-.264-2.254-.312-.647.407-.671.599-1.079.456-.432 1.007-.839 1.415-1.343l-.048-.12-2.398-.096c-.36-.72-.576-1.535-.792-2.326l-.192.024-1.151 2.158c-.624.192-1.319.024-1.966.048-.192-1.535-.791-2.95-2.11-3.957-.648-.576-1.439-.744-2.206-.983 7.362.24 14.22 4.605 17.889 10.935z"/>
    </g>
    <path d="M32.827 20.481c.647 1.223.527 3.021-.12 4.22-.479 1.103-1.559 1.846-2.638 2.158-.048-.624-.144-1.175-.024-1.799.264-.168.719-.12.815-.503-.048-1.247-.12-2.494-.455-3.621-.456-.671-1.175-1.199-2.063-1.127-.767.144-1.606.624-1.87 1.415-.312 1.055-.36 2.23-.408 3.405.24.12.503.168.767.215.12.648.024 1.223-.024 1.871-1.703-.671-2.733-2.47-2.757-4.244.024-1.703.959-3.309 2.446-4.101 1.319-.695 3.285-.695 4.556.12.72.552 1.343 1.152 1.775 1.991z" fill="#c2a940"/>
    <path d="M19.494 17.963c0 .072-.12.12-.216.096v-.144c.072.048.145.024.216.048z" fill="#d0cebc"/>
    <g fill="#c2a940">
        <path d="M46.471 19.066c.335.815.288 1.871-.312 2.542-.48.408-1.055.695-1.727.623-.863-.096-1.63-.743-1.966-1.534-.216-.839.048-1.775.743-2.302.552-.432 1.319-.6 1.99-.384.552.216.96.552 1.272 1.055zM11.365 18.347c0 .144-.096.216-.24.24l-.335.456 2.421 2.901-.383.336c-.936-.863-1.727-1.871-2.566-2.758-.264.144-.503.384-.72.6l-.143-.144c.503-.671 1.199-1.271 1.871-1.727l.095.096z"/>
    </g>
    <path d="M46.183 19.45c.096.719-.312 1.247-.744 1.75-.527.383-1.175.863-1.822.456-.48-.336-.768-.768-.816-1.319.048-.935.935-1.727 1.727-1.99.36-.024.743-.12 1.007.144.312.216.6.551.648.959z"/>
    <g fill="#d0cebc">
        <path d="M45.487 18.827c.24.264.48.576.456.959-.12.767-.839 1.487-1.583 1.703-.432.024-.815-.144-1.031-.503-.264-.48-.024-1.055.24-1.487.456-.552 1.199-1.224 1.918-.672zM48.917 21.464v.096l-3.045 2.566-.216-.072-1.319-1.487c.767.144 1.439-.144 1.966-.647.647-.647.887-1.535.671-2.446.672.552 1.343 1.271 1.943 1.99z"/>
    </g>
    <path d="M21.029 21.8h1.727c-.36.527-.911 1.055-1.343 1.607.096.671.335 1.367.48 2.038-.624-.216-1.151-.791-1.774-1.055l-1.942.959c.072-.671.432-1.319.576-1.99-.456-.456-.983-.887-1.415-1.391.624-.144 1.271-.072 1.942-.168.48-.576.528-1.319.983-1.895.334.552.478 1.272.766 1.895z" fill="#c2a940"/>
    <g fill="#d0cebc">
        <path d="M12.444 22.567c-.264.48-.792.887-1.151 1.271-1.079-.6-2.063-1.703-3.045-2.494.048-.384.408-.744.743-.983.24-.024.408.6.67.168.193-.168.433-.528.697-.312l2.086 2.35zM30.069 21.201c.336 1.007.312 2.086.336 3.189-.144-.024-.312.216-.408 0l.096-2.182c-.551-.624-1.415-.024-2.134-.288-.288-.048-.839-.192-.935.216-.168.719-.048 1.535-.12 2.278-.12.048-.288.023-.312-.12.192-1.439-.288-3.429 1.439-3.98.767-.192 1.559.263 2.038.887z"/>
    </g>
    <g fill="#c2a940">
        <path d="M36.999 21.248c.216.552.359 1.175.671 1.679.551-.048 1.079-.048 1.606.072l-1.439 1.391.312 2.063c-.551-.288-1.103-.792-1.607-1.199l-2.038.552-.072-.096.887-1.654-.935-1.151.12-.12 1.439.072.935-1.63.121.021zM10.838 24.126c.144.144.024.311-.12.408l-.072.096c-1.055-.84-2.086-1.679-3.093-2.59.072-.216.31-.576.527-.264l2.758 2.35zM49.133 21.992c.024 1.775-.192 3.645-.36 5.396l.072.048c1.031-.575 2.038-1.223 3.117-1.702l.024.096c-1.103.768-2.302 1.439-3.501 2.063-.552-.6-.168-1.511-.216-2.302.096-.935.192-1.895.264-2.806l-.167.024-2.158 1.75-.12-.12a55.365 55.365 0 0 1 3.045-2.447z"/>
    </g>
    <g fill="#ffedbc">
        <path d="M27.983 22.328c.024.144-.156.084-.252.084-.12.024-.18.012-.252-.06-.024-.264.48-.24.504-.024zM29.685 22.399c-.138.046-.397.042-.48-.024 0-.167.192-.167.312-.192.096.025.217.072.168.216z"/>
    </g>
    <g fill="#d0cebc">
        <path d="M51.65 25.253c-.719.552-1.559 1.007-2.398 1.391.024-1.463.144-2.902.36-4.292.815.887 1.511 1.87 2.038 2.901zM10.286 25.013l-.791 1.199c-1.175-.647-2.302-1.438-3.381-2.229.264-.576.695-1.127 1.127-1.583 1.03.839 2.086 1.63 3.045 2.613z"/>
    </g>
    <g fill="#ffedbc">
        <path d="M28.774 22.424c-.072.575-.192 1.247-.24 1.822l-.072-.024c-.048-.6-.048-1.295 0-1.823l.312.025z"/>
        <path d="M28.031 23.143c.264.456-.24 1.319.455 1.511.671-.144.312-1.007.503-1.463l.648.048c-.024.695.36 1.822-.432 2.254-.384.288-.911.168-1.319.072-1.107-.319-.387-1.678-.503-2.445.216-.097.384.095.648.023z"/>
    </g>
    <path d="M48.053 23.67c.024 1.055-.144 2.11-.216 3.166-.432-.528-.911-1.223-1.343-1.847v-.168c.504-.407 1.008-.863 1.559-1.151z" fill="#d0cebc"/>
    <path d="M9.135 26.572c.024.192-.12.384-.24.528-.671-.288-1.223-.911-1.92-1.079l-.047.096.887 2.566-.312.264c-.887.36-1.798.624-2.686 1.007.624.407 1.439.671 2.134 1.007.024.072 0 .216-.12.192L3.618 29.81l.264-.216 3.357-1.175.072-.144c-.431-1.247-1.007-2.422-1.294-3.717 1.08.551 2.087 1.318 3.118 2.014z" fill="#c2a940"/>
    <path d="M6.785 28.13c-1.151.408-2.254.935-3.453 1.199.527-1.607 1.318-3.141 2.254-4.556.48 1.08.888 2.206 1.199 3.357z" fill="#d0cebc"/>
    <path d="M28.966 24.965c-.264.192-.767.144-1.055.024.24-.24.671-.12 1.031-.12l.024.096z"/>
    <g fill="#d0cebc">
        <path d="M43.066 24.941c-.143.264-.551.264-.479.623l.12.672c-.144-.432-.192-.959-.72-1.103.264-.096.671-.12.96-.264.047 0 .143 0 .119.072zM17.84 27.459c.888 1.367.864 3.405-.024 4.748-.863 1.271-2.326 2.086-3.933 1.966-.48-.384-.144-1.415-1.031-1.343-.36.072-.647-.408-1.031-.216-.192.216-.216.479-.192.791-1.343-1.079-2.11-2.71-1.774-4.46.264-1.606 1.798-3.189 3.381-3.501 1.846-.263 3.645.432 4.604 2.015z"/>
    </g>
    <path d="M29.566 25.781c.264.599-.192 1.678.623 1.87.12-.048.216.072.336.072-.657.476-1.821.452-2.638.408-.167-.336-.503-.456-.839-.479-.312.12-.575.048-.815-.192.12-.288.599-.024.815-.216.336-.336.168-.983.264-1.415.647.239 1.63.431 2.254-.048z" fill="#ffedbc"/>
    <g fill="#d0cebc">
        <path d="M40.164 26.308c1.247 2.446 2.47 4.868 3.717 7.29-.024.048-.024.12-.096.12-.576-.792-.935-1.798-1.463-2.662l-2.302-4.46c-.12-.192-.359-.072-.48-.216.216-.072.432-.191.671-.239l-.047.167zM44.36 27.987c0 .695-.168 1.319-.455 1.894l-.096-.024c-.191-1.199-.527-2.398-.599-3.621.863.12 1.007 1.079 1.15 1.751zM52.298 26.308c.336.624.671 1.223.911 1.871-.479-.048-1.079-.072-1.391.407-.552.647-.456 1.631-1.103 2.182-.144 0-.384-.048-.384-.24l.096-.767c-.264-.12-.576-.24-.887-.216l-.072.216c-.336-.384-.504-.936-.768-1.391 1.031-.911 2.302-1.343 3.429-2.086l.169.024zM43.953 32.783c-.551-2.038-.863-4.197-1.199-6.355l1.199 5.9v.455zM43.042 30.025c-.503-.024-.648-.624-.911-.983-.384-.744-.432-1.918.144-2.59l.144.144.623 3.429zM8.632 27.531c-.096.288-.264.527-.432.767a4.565 4.565 0 0 1-.504-1.319c.336.144.672.288.936.552zM41.435 27.435c-.048.144-.048.288-.12.408-.216-.192-.383-.503-.335-.743.192.023.551.023.455.335zM26.4 28.011c0 .384-.359.624-.719.647-.863.12-1.751.288-2.614.048-.048-.216.048-.456.168-.624.671-.384 1.463-.456 2.206-.624l.959.553zM41.843 30.768c-1.031-.288-2.039-1.318-2.134-2.47-.024-.312.096-.576.288-.792l.12.025 1.726 3.237zM37.623 28.179c1.798 1.846 3.692 3.405 5.419 5.251-1.919-1.606-3.836-3.525-5.659-5.203l-.432-.048.528-.48.144.48zM34.073 28.538l.24.288c.096 1.871.696 3.669.479 5.516-1.942.384-3.98-.048-5.539-1.079-1.031-.96-1.99-2.11-2.23-3.453-.072-.335.336-.359.36-.647l.456-.647a7.8 7.8 0 0 0 3.573-.671c.959.07 1.798.358 2.661.693zM39.397 28.61l.192.791c-.359-.216-.671-.527-.959-.863.048-.192.264-.192.384-.264.263-.12.359.168.383.336z"/>
    </g>
    <path d="M15.226 29.018c.24.383.24.911.096 1.318a1.486 1.486 0 0 1-1.007.768c-.36 0-.888-.096-1.079-.432a1.346 1.346 0 0 1-.288-1.295c.168-.432.6-.792 1.031-.863.48.024.959.12 1.247.504z"/>
    <path d="m53.856 29.401-.024.695c-.479.096-.168-.551-.383-.767-.168-.311-.552-.36-.888-.288-.863.695-.407 2.35-1.798 2.494-.408-.024-.815-.24-.959-.648l-.024-.839h.216c0 .384.024.959.527 1.055.384.048.72-.24.839-.552l.719-1.751c.144-.216.384-.24.6-.288.528.026 1.032.362 1.175.889z" fill="#c2a940"/>
    <g fill="#004899">
        <path d="M11.533 34.029c.311.552.815 1.415 1.583 1.439 1.463.168 3.093.24 4.58.384l3.765.527c.144.911-.024 1.679.024 2.542l-.216-.096-1.391-1.199c.048-.36.192-.792-.24-1.031-.216-.288-.6-.168-.887-.311-.384.024-.696.336-.983.599-.839.168-1.654.503-2.254 1.127l.024.384c-.767.479-1.655.983-2.086 1.847.024.455.503.767.719 1.079.503-.168.648.48 1.079.504.168-.264.048-.6 0-.887.383-.48.983-.6 1.559-.695l.311.167.792 2.542c-.096.384-.552.408-.863.551-.336.096-.48-.264-.624-.456.048-.12-.048-.216-.144-.264-.144-.048-.264.12-.288.216.048.527-.144 1.151.144 1.535.887.576 2.062.168 3.021.024v.144c-1.894 1.319-3.956 2.254-5.898 3.429l-.168-.024c-1.343-1.055-2.494-3.573-4.484-2.422l-.696.768c-2.182-5.419-1.47-13.009 1.433-17.9-.354 2.21.534 4.326 2.188 5.477zM14.938 29.45c.168.264.048.623-.096.863-.216.288-.552.288-.863.36-.288-.12-.6-.312-.671-.647-.072-.384.096-.815.503-.983.432-.241.887.071 1.127.407z"/>
    </g>
    <path d="M25.944 28.97c.12.551-.599.551-.935.768-.767.264-1.535.479-2.35.647.024-.432.072-.983.288-1.295 1.055.168 1.966-.096 2.997-.12z" fill="#d0cebc"/>
    <path d="M33.69 31.248c.048.048.024.12.024.191-1.75-.12-3.357-.983-4.868-1.918l.096-.215c1.535.767 3.045 1.582 4.748 1.942z"/>
    <g fill="#d0cebc">
        <path d="M53.161 29.809c-.048.168-.168.432.12.48.264.072.599.311.815.12.143.336.311.719.311 1.127l-.432.143c-.096.336.192.576.144.936-1.079.36-2.206.575-3.333.815-.24-.479-.36-1.055-.552-1.582.312-.048.767.144 1.127-.096.792-.576.743-1.559 1.271-2.278.193-.384.673-.024.529.335zM7.12 30.576c-.455-.12-.862-.311-1.294-.551.527-.311 1.175-.479 1.774-.695l.048.072-.527 1.174z"/>
    </g>
    <path d="M33.642 30.025c-.791-.048-1.462-.336-2.23-.432l-.024-.216 2.278.479-.024.169z"/>
    <g fill="#d0cebc">
        <path d="M40.836 31.919c-1.127.192-2.206-.6-2.806-1.607-.144-.264-.216-.671-.048-.935 1.055.792 1.895 1.703 2.854 2.542zM25.201 30.144c-.792.839-1.727 1.823-2.758 2.278l.12-1.583c.815-.384 1.75-.552 2.638-.839v.144zM6.737 31.56c-.096.432-.264.935-.408 1.343-1.295-.24-2.565-.648-3.86-.983.048-.648.312-1.319.575-1.895 1.248.479 2.519.911 3.693 1.535z"/>
    </g>
    <path d="M32.491 33.022a.29.29 0 0 1-.12.12c-1.439-.719-2.829-1.727-4.028-2.853l.144-.24c1.271 1.055 2.661 2.038 4.004 2.973z"/>
    <g fill="#004899">
        <path d="M43.329 31.583c-.24-.168-.407-.503-.456-.815.096-.072.192-.048.288.048.049.24.241.48.168.767zM41.411 31.056c-.12.048-.264-.144-.288-.24.096.072.336.048.288.24zM42.85 32.471v.024c-.383-.12-.648-.479-.911-.791-.048-.144-.12-.336-.048-.456.527.191.599.815.959 1.223z"/>
    </g>
    <g fill="#c2a940">
        <path d="M54.6 32.015c.264.767.456 1.582.551 2.422-.072.072-.24 0-.216-.12-.096-.24-.048-.576-.264-.744-1.247.216-2.47.576-3.693.744-.048-.144-.12-.312-.048-.456l3.597-.863c.096-.312-.167-.647-.12-.983h.193zM6.186 33.43c.024.144-.024.384-.168.36L2.3 32.855a.475.475 0 0 1 0-.503c1.319.287 2.638.598 3.885 1.078z"/>
    </g>
    <path d="M12.061 33.046c.12.432.072.935.36 1.295l.12-.024c0-.384-.264-.863-.12-1.247.264.384.072 1.031.527 1.295.072-.311-.24-.671-.096-1.055.191.288.216.768.432 1.007.072-.288-.12-.647-.048-.983.288.36.048 1.055.695 1.223 2.422-.288 5.011-.528 7.529-.479.144.215.432.096.624.215.503.48.935 1.103 1.247 1.727-2.649.048-5.168-.625-7.769-.863-1.103-.144-2.398.24-3.213-.551-.264-.504-.72-1.079-.408-1.679l.12.119z" fill="#ffedbc"/>
    <path d="m5.97 34.269-.191 1.199c-1.295-.024-2.686-.24-3.981-.48 0-.551.096-1.199.288-1.702 1.342.24 2.637.575 3.884.983z" fill="#d0cebc"/>
    <g fill="#ffedbc">
        <path d="M44.528 33.861c-.216.264-.528.504-.887.6.096-.336.551-.504.863-.624l.024.024zM43.425 33.981c-.264.192-.24.479-.144.767.264.191.288.503.432.743-2.91.673-5.957 1.032-8.92 1.462-.407-.023-.839.096-1.127-.191l-.096-.24 1.559-1.775c1.847-.216 4.029-.24 5.899.024.887.288 1.727-.168 2.278-.792h.119z"/>
    </g>
    <path d="M55.247 34.94c.24.983.359 2.014.335 3.069l-.264-.048a51.114 51.114 0 0 1-4.1-2.47l-.144-.719c1.103-.288 2.254-.576 3.381-.744.192.288.096.696.336.983.144-.023.288-.095.456-.071z" fill="#d0cebc"/>
    <g fill="#ffedbc">
        <path d="M44.792 34.149c-.096.383-.6.576-1.007.648l.815-.648h.192zM45.104 34.485c-.24.432-.695.528-1.079.744l-.024-.024a2.842 2.842 0 0 1 1.103-.72zM45.296 34.797c.072.455-.503.527-.767.719h-.192c.215-.264.599-.528.959-.719z"/>
    </g>
    <path d="M10.478 34.893c.264.744.671 1.438 1.079 2.134l.168.048c.887-.072 1.751-.312 2.638-.336-.48.935-1.175 1.847-1.679 2.806.048 1.127.096 2.278.288 3.309-.695-.527-1.487-1.223-2.182-1.798-1.031.12-1.942.768-2.974.887.31-.767.647-1.535.959-2.302l-.096-.264c-.504-.647-1.151-1.223-1.607-1.894l2.398-.288.768-2.254c.048-.048.145-.12.24-.048z"/>
    <path d="M5.682 36.043c-.887 1.487-2.326 2.518-3.31 3.885 1.032.192 2.039-.024 3.07.096.072.024.048.096.048.168-1.343 0-2.781.096-4.028.024v-.288l3.429-3.765-.24-.168-2.901-.408c-.048-.024-.144-.167-.024-.216 1.343.169 2.685.337 3.956.672z" fill="#c2a940"/>
    <path d="M48.653 38.514c.264.096.335-.168.456-.312.264.36.575.887.599 1.391a5.366 5.366 0 0 1-1.319-.575c.096-.12.336-.36.12-.527l-3.165-2.902c1.127.886 2.254 1.989 3.309 2.925z" fill="#d0cebc"/>
    <path d="m11.437 37.506 2.158-.264c-.288.743-.935 1.391-1.319 2.11.096.864.168 1.751.264 2.614-.647-.264-1.199-.935-1.75-1.439l-2.278.887-.048-.072.767-1.967-1.343-1.51c.576-.216 1.319-.168 1.942-.288.24-.6.335-1.247.576-1.847h.096l.935 1.776z" fill="#c2a940"/>
    <g fill="#d0cebc">
        <path d="M45.104 35.804c.768 1.391 1.559 2.83 2.302 4.22.144-.048.24-.143.384-.143.144.432.288.863.312 1.343-.456-.168-.815-.648-1.199-1.007l.312-.24c-.743-1.367-1.606-2.709-2.182-4.172h.071zM4.148 36.475a57.54 57.54 0 0 1-2.662 2.758c-.168-.743-.048-1.703 0-2.518.048-.264 0-.599.168-.791l2.54.36-.046.191zM44.624 36.043c.384 1.463.647 2.997.887 4.508.192 0 .432.024.384.288l-.144 1.055c-.215-.335-.527-.719-.648-1.127.144 0 .312.024.336-.144-.456-1.462-.624-3.045-.911-4.58h.096z"/>
    </g>
    <path d="m44.384 37.027.576 3.141c-.144.192-.288-.144-.432.048l-.048.239c.408.768.791 1.559 1.343 2.23.24.048.216-.216.288-.336.12-.551-.024-1.271.36-1.75v-.192c.743.384 1.247 1.319 2.038 1.559l.12-.144-.504-2.422 2.206.719c-.048 3.669-1.151 6.978-2.83 9.999-.144-.527-.599 0-.887 0-.144.144-.336.216-.528.312-.048-.216.024-.552-.216-.624-.648.024-1.199.336-1.727.624-2.35-1.727-4.892-3.333-7.169-5.18v-.12c.863.408 1.798.863 2.853.719.72-.479.552-1.415.384-2.086-.408-.264-.432.503-.815.575-.311 0-.623-.24-.791-.503.048-.911.408-1.75 1.127-2.302.503-.12.959.288 1.391.552.096.384-.527.791-.048 1.007.504-.072.768-.672 1.367-.48.336-.192.6-.503.696-.911-.48-.815-1.247-1.511-1.942-2.11.312-.911-.815-1.127-1.295-1.51-.432-.336-1.271 0-1.415-.744l-.383-.312c1.966-.432 4.028-.792 6.066-.935l.215.937z" fill="#004899"/>
    <g fill="#c2a940">
        <path d="M55.583 38.609c-1.271.983-2.685 1.822-4.076 2.662 0-.24-.144-.671.12-.815.264-.264.744-.312.815-.671-.408-1.223.743-3.19-1.079-3.477l-.024-.216c1.414.839 2.853 1.606 4.244 2.517zM19.59 37.146c.048.312-.167.504-.288.744l-.024 5.731c-.024.311-.311.503-.6.527-.695.168-1.678.479-2.254-.048l.024-.12c.671-.168 1.559-.048 1.871-.839-.144-.983-.576-1.895-.863-2.83-.192-.384-.695-.384-1.079-.336-.719.12-1.247.671-1.871.983-.335.048-.503-.336-.647-.552.072-.503.6-.839.983-1.103.335-.456 1.343-.456 1.103-1.199.503-.527 1.223-.744 1.918-.792l.384.36c.383-.216-.216-.887.431-1.031.361.002.721.17.912.505z"/>
    </g>
    <path d="m51.986 37.194.024 2.59c-.168.048-.264.288-.48.263l-.12-3.189c.192.097.456.12.576.336z" fill="#d0cebc"/>
    <g fill="#004899">
        <path d="M47.981 38.657c-.287.192-.12.6-.455.719-.575-.719-1.031-1.582-1.367-2.469.599.575 1.319 1.127 1.822 1.75zM46.59 39.736c-.192.192-.551.144-.791.36l-.144-.192c-.192-.935-.432-1.895-.456-2.877.504.863.912 1.798 1.391 2.709z"/>
    </g>
    <path d="M5.467 39.592c-.695.192-1.583.12-2.302.048a17.482 17.482 0 0 1 2.374-2.566l-.072 2.518z" fill="#d0cebc"/>
    <path d="M37.311 37.099c-.335.36-.551.863-.36 1.367-.719.432-1.415.863-2.086 1.367-.024-.815-.072-1.631.024-2.398.839-.025 1.582-.312 2.422-.336z" fill="#004899"/>
    <path d="M54.744 38.346c-.576.503-1.295.935-1.967 1.319l-.072-2.494c.719.335 1.367.815 2.039 1.175z"/>
    <path d="m38.75 38.178.096.12.048-.072c.671.24 1.415.408 1.942.983-.288.935.887.983 1.223 1.63.191.384.767.671.551 1.127l-.408.36c-.863-.527-1.678-1.343-2.733-1.223-.647.863-1.487 1.822-1.175 2.973.456.456 1.031.624 1.583.863.096.192-.144.311-.24.456a7.167 7.167 0 0 1-2.614-.863l-.072-.408.336-5.204c.096-.12.456-.024.336-.288a.855.855 0 0 1-.168-.887c.144-.311.479-.288.719-.143.288.144.192.576.576.576z" fill="#c2a940"/>
    <path d="M18.055 38.058v.12c-.264.024-.599-.168-.887-.072.168.168.552.024.6.335.144.384-.312.408-.503.528-.264.12-.6-.024-.648-.312-.048-.192.096-.288.144-.432-.216-.048-.408.312-.647.096-.144-.336.312-.408.503-.504.479-.095 1.127-.095 1.438.241z"/>
    <path d="M54.096 38.37c-.216.312-.624.551-1.007.671-.048-.432-.144-.815-.024-1.247.359.144.743.288 1.031.576z" fill="#d0cebc"/>
    <g fill="#c2a940">
        <path d="M20.429 38.633c-.288 2.686.264 5.779-.695 8.225l-.096.072-.096-.144c-.144-2.997.096-5.755.216-8.704.264.12.528.288.671.551zM17.264 38.585c.024.096-.096.048-.12.144-.048 0-.072-.048-.12-.072-.047-.143.193-.192.24-.072z"/>
    </g>
    <path d="M40.596 39.233c-.12.168-.312-.024-.456-.048 0 .216.312.48.072.719-.24.24-.695.12-.959.024-.144-.096-.36-.167-.36-.384.024-.216.312-.311.503-.432-.311-.216-.599.192-.935.216-.143-.24.192-.311.312-.432.551-.264 1.295-.192 1.774.168.049.049.121.121.049.169z"/>
    <g fill="#c2a940">
        <path d="m21.508 39.736-.072 2.063c-.264.743-.528 1.486-.792 2.206-.072-1.655.024-3.333.144-4.988.313.144.552.456.72.719zM36.855 39.113c-.12 2.925-.192 5.803-.432 8.705-.192-.12-.216-.527-.312-.791-.288-1.343-.096-2.757-.072-4.172l.144-3.405c.217-.145.432-.361.672-.337z"/>
    </g>
    <path d="M55.607 39.209c.12 1.511-.048 2.973-.288 4.364-1.343-.096-2.662-.432-3.956-.72-.456-1.391 1.319-1.606 2.014-2.326.743-.455 1.462-.935 2.23-1.318z" fill="#d0cebc"/>
    <g fill="#c2a940">
        <path d="M40.02 39.592v.144c-.24.048-.503.048-.695-.12.024-.263.552-.24.695-.024zM35.704 39.832c.144 1.583-.024 3.237-.096 4.724-.383-1.007-.623-2.206-.791-3.357-.072-.432.048-.792.359-1.031.192-.096.312-.312.528-.336z"/>
    </g>
    <path d="M5.539 41.223c-1.128 1.175-2.206 2.566-3.525 3.597-.431-1.295-.456-2.685-.551-4.076.408-.192.935-.024 1.343-.144l2.686.024.047.599z" fill="#d0cebc"/>
    <g fill="#c2a940">
        <path d="M15.082 41.463c-.144.048-.288-.168-.336-.264.024-.12.168-.12.24-.144.096.096.024.264.096.408zM5.73 42.686l-.815.863.624 2.734c.43.192.935.312 1.27.576v.12c-1.535-.576-3.165-.959-4.628-1.63l3.357-3.405c.192.142.12.502.192.742zM41.603 42.398c-.048.096-.144.168-.24.168l.12-.288c.072.024.096.048.12.12z"/>
    </g>
    <path d="m46.59 42.974.024 2.134c.863.24 1.726.456 2.589.695l-.144.144c-.815.288-1.583.743-2.326 1.151-.12.863-.168 1.918.024 2.757-.311.12-.479-.336-.743-.479l-1.247-1.271c-1.031.024-2.038.36-3.046.479-.192-.168.072-.336.168-.456l1.247-1.462-.768-2.446c.792 0 1.487.407 2.278.456.72-.552 1.199-1.415 1.871-1.966l.073.264z"/>
    <path d="M16.593 43.621c-.024.072-.12.096-.216.072-.12-.096-.144-.288-.096-.432l.312.36z" fill="#c2a940"/>
    <path d="M6.593 46.163c-.24.048-.456-.048-.671-.096a12.289 12.289 0 0 1-.527-2.446l.408-.336.79 2.878z" fill="#d0cebc"/>
    <g fill="#c2a940">
        <path d="m55.175 44.413-4.196 3.165v.096l2.901 1.151v.072c-1.319-.24-2.565-.815-3.813-1.343v-.12c1.343-1.199 2.854-2.158 4.244-3.285l-.024-.072c-1.007-.264-2.062-.432-3.093-.647l.072-.144 3.956.768-.047.359zM46.327 45.419c.6.264 1.295.312 1.918.528-.528.743-2.35.479-1.895 1.918l-.024 1.295-1.583-1.463c-.767.168-1.535.36-2.326.432.288-.575.815-.983 1.175-1.486-.192-.671-.576-1.271-.671-1.966.695.048 1.319.335 1.99.432l1.295-1.487c.097.55.073 1.222.121 1.797z"/>
    </g>
    <path d="m4.795 44.053.432 2.086-2.062-.695c.335-.527 1.007-1.127 1.438-1.582.12-.049.192.095.192.191z"/>
    <path d="M53.521 44.292c-.983.887-2.063 1.63-3.117 2.398l-.048-.096.768-2.734c.838.073 1.629.217 2.397.432z" fill="#d0cebc"/>
    <path d="M40.045 44.532h-.192c-.072-.096.048-.192.12-.264h.072v.264z" fill="#c2a940"/>
    <g fill="#d0cebc">
        <path d="M4.77 45.635c-.36-.072-.742-.144-.982-.384.19-.264.456-.575.743-.695l.24 1.079zM55.008 45.132c-.144 1.151-.6 2.182-.911 3.261-.815-.096-1.559-.48-2.302-.792v-.144c1.054-.791 2.085-1.702 3.213-2.325zM19.158 45.251c.096.6.096 1.199 0 1.823-.647.312-1.319.551-2.11.575-.432-.096-.815-.311-1.247-.408 1.032-.79 2.183-1.39 3.357-1.99zM43.905 50.743c-.6 1.727-2.542 2.014-3.86 2.877-1.007.695-2.015 1.367-2.926 2.302l-.432-.024c-3.86-1.727-8.872-2.518-13.116-1.128-1.631-.719-3.237-1.439-4.844-2.158-.432-.503-.672-1.247-1.343-1.583l-1.391-.36c-.36-.312-.839-.576-1.055-.936 1.223-.023 2.59-.263 3.885-.335-.216.335.168.624.456.743 1.63.552 3.405.815 5.155 1.103v.072c-1.079.768-2.254 1.343-3.237 2.182l.096.12c1.966-.288 3.957-.767 5.947-1.127.384-.216.144-.647.216-.959l1.247-.048c.12.264-.12.551 0 .839l6.139 2.086c.144-.12-.024-.24-.096-.336-.96-.791-1.823-1.774-2.758-2.638l.168-.12c1.654-.072 3.237-.36 4.747-.743 1.223.168 2.494.383 3.813.383.264-.072.575-.24.624-.527.096-.432.096-.983-.12-1.391-.792-.791-2.014-.144-3.021-.432-.456-.191-.983-.215-1.367-.575.024-.767-.096-1.607.12-2.326 2.349 1.586 4.651 3.312 6.953 5.039zM7.073 47.554c.12.168.144.359.19.551a35.382 35.382 0 0 1-3.692 1.582C3.02 48.464 2.54 47.193 2.3 45.874c1.632.48 3.239.984 4.773 1.68z"/>
    </g>
    <g fill="#ffedbc">
        <path d="M10.694 47.098c-.311.143-.456.551-.216.839l.527.744-.024.12c-.408-.24-.551-.768-.983-.983-.216.096-.408.264-.647.288-.144-.432-.144-1.007.12-1.391.437-.195.85.09 1.223.383z"/>
        <path d="M10.646 47.673c-.096-.192.144-.216.264-.312h.048l-.312.312z"/>
    </g>
    <path d="M19.47 47.505c0 .432-.168.839-.408 1.223-1.127.552-2.494.528-3.813.576-.168-.048-.288-.12-.36-.288.072-.432.048-.983.479-1.199.983-.312 1.727.503 2.662.048.505-.096.913-.455 1.44-.36z" fill="#c2a940"/>
    <path d="M12.253 48.752c.072.384.048.815-.192 1.103-.383.503-1.079-.024-1.438.408-.384-.408-.624-.887-.912-1.367.144-.192.48-.216.624-.432.36.024.6 1.151 1.007.384-.12-.24-.288-.456-.408-.696.503-1.005.976.231 1.319.6z" fill="#ffedbc"/>
    <g fill="#d0cebc">
        <path d="M14.698 47.841c-.024.528-.192 1.007-.168 1.535-.312-.144-.743-.575-.935-.935.336-.312.744-.408 1.103-.6zM53.664 49.4c-.192.504-.288 1.128-.719 1.439-.671-.72-.552.719-1.127.432-.911-.552-1.919-.912-2.758-1.559l.792-1.751c1.319.384 2.566.888 3.812 1.439z"/>
    </g>
    <path d="M10.07 48.081c-.123.103-.46.321-.575.288.144-.072.336-.384.575-.288z" fill="#ffedbc"/>
    <g fill="#c2a940">
        <path d="m6.737 53.764.048.072 2.686-1.678.096.12c-1.103.767-2.23 1.583-3.405 2.206l-.24-.335c.216-1.655.36-3.334.67-4.964-.934.24-1.821.792-2.78 1.055l-.048-.096.43-.288c1.104-.432 2.183-.959 3.287-1.319l-.744 5.227zM36.999 48.608c1.007.552 2.278.504 3.453.408.432-.024.552.408.623.719 0 .288.072.648-.24.744-1.439.144-2.806 0-3.956-.647a3.22 3.22 0 0 1-.336-1.271c.192-.048.288.24.456.047z"/>
    </g>
    <path d="M11.701 49.088c-.12.264-.408.432-.648.503-.072-.311.359-.408.527-.6.097-.023.097.025.121.097z"/>
    <path d="M13.931 50.455c1.175.648 2.805.312 3.813 1.295.24.671.839 1.391 1.583 1.511 1.535.671 3.165 1.103 4.556 2.11.12.048.216-.048.192-.168l-.048-.192c2.206-.743 4.868-.792 7.242-.408 2.278.336 4.316 1.247 6.402 2.038l.503-.072c1.582-1.415 3.309-2.542 5.275-3.021 1.583-.647 1.99-2.59 3.573-3.165.264.192-.024.551-.096.791-2.374 3.621-5.611 6.426-9.448 8.153-3.093.024-6.235-.191-9.232-.719-.311-.048-.6-.12-.863-.288-.072-.312-.048-.696-.336-.887l-.12.144c.24.671.096 1.487-.312 2.039-.048.072.048.096.072.144.432-.096.456-.599.695-.839 3.093.264 5.971.767 9.16.767-3.717 1.559-8.608 2.086-12.733.983a38.013 38.013 0 0 1-6.378-6.187c-.863-.695-.312-2.086-1.319-2.638-1.271-.624-2.59-1.031-3.885-1.559.024-.311.384-.623.408-1.007.481.336.649.983 1.296 1.175z" fill="#ffedbc"/>
    <g fill="#d0cebc">
        <path d="m9.207 51.702-.072.191-1.871 1.223-.048-.264c.192-1.175.288-2.374.576-3.525.504.744.912 1.608 1.415 2.375zM6.114 49.808c-.048 1.247-.312 2.494-.527 3.693-.671-.839-1.151-1.798-1.56-2.806.6-.432 1.392-.696 2.087-.887z"/>
    </g>
    <path d="M52.082 51.87c.36-.048.36-1.127.743-.551-.359.647-.647 1.343-1.103 1.942-.072-.024-.168-.048-.168-.144-.024-.36.671-.767.12-.983l-3.021-1.606.144-.384c1.151.455 2.182 1.15 3.285 1.726z" fill="#c2a940"/>
    <path d="M45.608 50.431c-.192 1.199-1.199 2.038-2.182 2.686-2.014.6-3.789 1.774-5.443 3.165-.168-.024-.383.048-.503-.096 1.501-1.626 3.215-2.674 5.228-3.429 1.271-.551 1.319-2.278 2.805-2.494l.095.168z" fill="#ffedbc"/>
    <path fill="#bf8746" d="M16.161 52.277c.456.384.216 1.055.432 1.511 1.535 2.542 4.052 4.604 6.258 6.618-4.796-1.247-9.232-4.292-12.205-8.632-.072-.336-.168-.743.072-1.055.528-.336 1.223 0 1.798.048 1.223.503 2.494.839 3.645 1.51zm-5.299-6.042c1.319 1.439 2.877 2.854 4.268 4.244l-1.271-.36c-1.294-1.318-2.278-3.477-4.244-3.813-.336.024-.647.288-.695.624-.264 1.439.839 2.494 1.439 3.669l-.144.504a18.123 18.123 0 0 1-1.966-3.693c.072-.599.168-1.295.792-1.559.622-.264 1.342-.048 1.821.384zm23.02-8.849.527.096c-.024.624.048 1.223-.048 1.774-.216-.624-.983-1.007-1.631-1.103-.096.048-.216.12-.335.048l-.408-.479c.144-.791.264-1.607.575-2.278.576.575.337 1.799 1.32 1.942zm-9.112-1.031c.144.408.24.983.024 1.391-.6.336-1.343-.072-1.942.336-.551.432-.791 1.031-.863 1.679h-.072l.024-3.261c.695-.192 1.727.503 2.11-.48.456-.743.432-1.702.575-2.565.216.862.048 1.965.144 2.9zm2.709-8.081c0 .384-.335.695-.648.863-.096 0-.191.096-.288.024-.072-.432.192-.887.552-1.127.144.025.312.096.384.24z"/>
    <path d="M51.483 52.493c-.048.336-.456.576-.336.911.12.096.384.12.36.336l-.695 1.055-.192-.024-3.142-2.302c.192-.527.624-1.055.911-1.583 1.103.36 2.062 1.08 3.094 1.607z" fill="#d0cebc"/>
    <path fill="#d51317" d="M33.426 53.453c-1.462-.336-2.781-.983-4.22-1.391-.12-.12-.024-.359.024-.503l.12-.096 1.798-.072a13.172 13.172 0 0 1 2.278 2.062zm-6.402-1.319c-1.462.24-2.83.648-4.292.863.695-.647 1.678-1.08 2.494-1.655l1.727.144.071.648zm4.7-13.812c-1.199.383-1.751 2.206-3.237 2.206-1.391.096-2.374-1.199-3.165-2.206 1.007.887 2.158 1.367 3.525 1.343 1.102-.192 1.99-.816 2.877-1.343zm-5.947 1.127c.767.768 1.606 1.703 2.877 1.511 1.894-.168 2.446-2.878 4.508-2.35.36.144.6.456.72.767.791 3.597 1.798 7.122 2.446 10.743-2.614.792-5.563.839-8.441.912-2.877-.12-5.707-.456-8.321-1.271-.359-.336.024-.863.12-1.247 1.103-3.285 2.11-6.666 3.357-9.855.935-.937 2.062.094 2.734.79zm3.333-.288c.815-.288 1.63-.6 2.326-1.103-.959.839-2.278 1.559-3.741 1.199-.839-.216-1.559-.743-2.254-1.319 1.007.767 2.278 1.558 3.669 1.223zm5.347-4.268c-.24.384-.575.719-.959.983l-.359-.936c.359-.143.934-.071 1.318-.047zm-9.951-3.429c.096 1.414-.288 2.757-.768 4.004h-.096c-.36-.503-.744-1.079-1.223-1.487.24-.288-.143-.6.144-.863.648-.551 1.247-1.151 1.943-1.654zm3.429 1.127c1.102 1.199 2.589 1.966 4.172 2.278 0 .911-.288 1.798-.551 2.638-1.055.839-2.278 1.439-3.717 1.295-.935-.192-1.822-.767-2.446-1.511-.24-1.679.048-3.597-.336-5.179l.024-1.127 1.391-1.151c.36.91.696 1.989 1.463 2.757z"/>
    <path d="M10.814 53.98c-.576-.192-1.128.048-1.535.456l-1.894 1.511-.216-.024-.72-1.007c1.032-.839 2.23-1.559 3.382-2.278.335.455.719.839.983 1.342z" fill="#d0cebc"/>
    <path d="M50.427 55.203c-.192.575-.72 1.103-1.199 1.535.048-.432.456-.792.696-1.151l-1.127-.863c-.383.168-.527 1.007-.959.624l.551-.839c-.264-.456-.815-.576-1.175-1.007h-.12l-.768.911c-.072-.048-.192-.024-.24-.12.216-.551.719-.983 1.031-1.462 1.176.717 2.207 1.533 3.31 2.372z" fill="#c2a940"/>
    <path d="m47.838 54.627-.503.744.719.623c.312-.168.432-.504.719-.767.24.072.455.24.647.408-.168.407-.551.791-.767 1.127l.311.336c-.311.551-.695.863-1.151 1.343-1.103-.935-1.966-1.846-2.854-2.925.168-.312.503-.624.791-.911l.552.312.815-.935c.265.142.744.309.721.645z" fill="#d0cebc"/>
    <path d="M12.061 55.467c.695 1.559-1.511 2.422-2.206 3.573-.168-.096-.336-.288-.456-.432l2.23-2.398c.12-.335.024-.719-.144-1.007-.215-.312-.527-.576-.911-.6l-.72.12c-.766.504-1.414 1.127-2.157 1.727-.096.048-.12-.072-.192-.12l.024-.12c1.223-.551 2.062-2.518 3.597-1.75.383.191.767.599.935 1.007z" fill="#c2a940"/>
    <g fill="#d0cebc">
        <path d="m11.27 55.61-.048.552c-.503.671-1.295 1.439-1.966 2.063-.456-.408-.96-.912-1.318-1.439.623-.695 1.415-1.271 2.182-1.871.502-.192 1.006.24 1.15.695zM19.47 60.478c-.048.192-.456-.024-.6.168-.887.528-1.535 1.439-1.391 2.542.096.384.288.719.48 1.079-2.782-1.127-5.491-2.614-7.697-4.82.575-1.343 2.542-1.99 2.254-3.597 2.135 1.871 4.437 3.549 6.954 4.628z"/>
    </g>
    <path d="M47.478 58.751c-.456.528-.983 1.295-1.846 1.151-.479-.048-.983-.335-1.175-.815-.24-.479-.192-1.127-.024-1.63-.455-.312-.935-.024-1.391-.024-.096-.048-.072-.168-.024-.216.432-.312 1.103-.36 1.606-.168a.18.18 0 0 0 .168-.12c-.12-.311-.695-.575-.432-.911.168-.359.384-.048.552.072l2.566 2.661z" fill="#c2a940"/>
    <path d="M44.025 56.594v.072l-.288.048c-.072-.096.048-.12.12-.216.072-.024.12.048.168.096z" fill="#d0cebc"/>
    <path d="M46.806 59.087c-.12.264-.456.408-.719.552-.384-.048-.887-.048-1.199-.384-.264-.384-.456-.887-.288-1.367.072-.264.288-.479.503-.647.576.527 1.176 1.223 1.703 1.846z"/>
    <g fill="#d0cebc">
        <path d="M43.09 57.936c.24-.192.552-.312.863-.216.048.695 0 1.463.504 1.966.312.335.767.503 1.223.576l-.024.144c-2.638 2.11-5.491 3.717-8.608 4.7.503-.671.599-1.775.216-2.566-.264-.6-.887-1.103-1.511-1.271.647-.335 1.463-.551 2.158-.911 1.607-.767 3.189-1.654 4.652-2.782.215.025.359.265.527.36zM46.351 59.16c-.288.143-.767.168-1.055 0-.335-.216-.479-.576-.432-.96-.048-.168.048-.359.192-.456.48.337 1.007.864 1.295 1.416z"/>
    </g>
    <path d="M15.37 58.824c.336.384.528.815.48 1.367-.024.48-.335.936-.743 1.175-.408.192-1.007.264-1.414.048-.432-.264-.912-.648-.96-1.175-.024-.503 0-.983.36-1.343.502-.72 1.678-.648 2.277-.072z"/>
    <path d="M15.226 59.016c.335.335.551.815.359 1.319-.072.384-.384.671-.719.887a1.385 1.385 0 0 1-1.511-.384c-.288-.311-.384-.695-.384-1.103.024-.432.384-.791.72-.983.48-.312 1.151-.096 1.535.264z" fill="#c2a940"/>
    <path d="M15.226 59.543c.143.312.072.72-.072.983a.984.984 0 0 1-.983.503c-.36-.048-.671-.359-.863-.671-.12-.408-.024-.911.288-1.175.503-.455 1.367-.191 1.63.36z"/>
    <path d="M14.986 59.687a.857.857 0 0 1-.48.983.758.758 0 0 1-.935-.408c-.12-.288-.048-.624.144-.863.336-.336 1.08-.239 1.271.288z" fill="#d0cebc"/>
    <path d="M42.226 59.927c.36.408.528.863.48 1.438-.12.528-.528 1.056-1.055 1.271-.624.264-1.319.048-1.798-.383-.312-.312-.456-.695-.456-1.151s.168-.839.48-1.175c.623-.576 1.75-.672 2.349 0z"/>
    <path d="M42.035 60.046c.312.312.48.744.432 1.175-.048.384-.216.695-.48.983-.503.455-1.247.239-1.798.048-.36-.288-.48-.672-.551-1.079 0-.456.216-.959.551-1.223.503-.431 1.366-.287 1.846.096z" fill="#c2a940"/>
    <path d="M42.035 60.694c.12.335.072.719-.144.983-.288.384-.911.528-1.343.288-.36-.168-.479-.527-.528-.863-.024-.479.264-.767.624-.983.528-.192 1.175.047 1.391.575z"/>
    <path d="M41.795 60.814c.096.336-.024.647-.215.863-.288.192-.671.264-.983.072-.24-.24-.408-.6-.264-.936.096-.312.384-.456.695-.503.335-.023.647.216.767.504z" fill="#d0cebc"/>
    <path d="M21.7 61.558c.384.456.647.959.647 1.559-.048.599-.36 1.103-.767 1.51-.599.384-1.486.576-2.182.288-.768-.264-1.343-1.079-1.439-1.823-.096-.815.24-1.606 1.007-2.014.84-.48 2.063-.288 2.734.48z" fill="#c2a940"/>
    <path d="M21.508 61.965c.336.792.192 1.798-.432 2.446-.432.431-1.175.456-1.727.215-.432-.288-.623-.671-.719-1.127-.048-.575.024-1.175.408-1.606.6-.719 2.087-1.127 2.47.072z"/>
    <g fill="#d0cebc">
        <path d="M21.269 62.061c.288.575.096 1.294-.192 1.798-.36.432-.863.767-1.439.576-.336-.048-.48-.432-.6-.72-.072-.839.144-1.727.935-2.158.48-.215 1.08-.023 1.296.504zM24.458 61.989c-.24.384-.527.792-.407 1.223.12.887.887 1.415 1.247 2.206 0 .12-.12.24-.24.24-.288.048-.455-.216-.671-.311-.216.192-.576.336-.576.647a12.813 12.813 0 0 1-2.686-.6v-.096c.863-.359 1.751-1.103 1.679-2.158-.048-.6-.288-1.103-.527-1.631l2.181.48z"/>
    </g>
    <path d="M36.831 62.66c.24.839.336 1.918-.432 2.542-.551.623-1.487.695-2.254.479-.6-.144-1.103-.767-1.367-1.294a2.015 2.015 0 0 1 0-1.583c.36-.791 1.199-1.175 2.039-1.247.839.024 1.607.336 2.014 1.103z" fill="#c2a940"/>
    <path d="M32.923 61.965c-.527.744-.959 1.871-.408 2.758.24.527.744.959 1.199 1.223-.815.264-1.799.336-2.71.36-.024-.144-.024-.312-.072-.456-.359-.072-.863.024-1.247-.072-.072-1.103-.216-2.326-.072-3.381.935-.216 2.062-.096 2.974-.456.12 0 .24-.024.336.024z" fill="#d0cebc"/>
    <path d="M35.656 62.277c.623.647.72 1.751.36 2.542-.192.432-.647.504-1.031.671-.456-.024-.863-.264-1.175-.575-.408-.456-.527-1.079-.456-1.679.024-.456.24-.863.624-1.127.527-.288 1.198-.096 1.678.168z"/>
    <path d="M26.089 62.612c.024.096-.024.168-.12.192-.24-.096-.479-.383-.791-.24-.744 1.175 1.295 1.703 1.199 2.854-.048.312-.072.671-.432.815-.407.216-.935.072-1.343-.072-.096-.12-.288-.192-.264-.36.336-.072.719.36 1.103.072.743-.839-.624-1.391-.863-2.11a1.35 1.35 0 0 1 .048-1.438c.264-.288.72-.216 1.031-.096.192.072.264.24.432.383z" fill="#c2a940"/>
    <g fill="#d0cebc">
        <path d="M35.608 62.756c.384.551.48 1.439.096 2.038a1.016 1.016 0 0 1-.768.432c-.551-.048-.863-.6-1.103-1.007-.216-.456-.24-1.079 0-1.535.144-.311.48-.407.768-.479.408.048.767.191 1.007.551zM28.175 62.373c.144 1.319.048 2.685.072 4.029l-1.847-.048c.384-.311.408-.887.288-1.343-.288-.743-1.223-1.223-1.319-2.038.288-.24.456.192.695.216.168-.168.384-.288.551-.432l-.312-.48 1.872.096z"/>
    </g>
    <path d="M29.062 62.373c.168 1.175.144 2.59.168 3.789.36.144.936 0 1.319.12l-.024.096-1.727.048-.12-.168c0-1.295-.12-2.638 0-3.885.144.048.264-.096.384 0z" fill="#c2a940"/>
</svg>
