<svg xmlns="http://www.w3.org/2000/svg" height="500" width="420">
    <path d="m7.5 1.5.252 207.884C7.872 307.575 85.765 428.458 210 498.5c124.235-70.042 202.128-190.925 202.248-289.116L412.5 1.5H7.5z" style="fill:#e00e00;fill-opacity:1;stroke:#000;stroke-opacity:1"/>
    <path d="M227.641 157.833c59.84 11.22 127.384 7.417 145.078-42.292 10.313 4.032 10.97 18.363 8.34 25.876-4.634-.368-12.996-2.12-13.577 2.698-.568 4.713 5.149 3.888 9.445 4.267-1.087 7.462-4.542 12.036-7.379 14.027-10.255-6.213-19.917 3.57-5.903 8.044-4.842 6.151-11.367 11.754-17.807 15.695-5.932-8.977-17.141-2.796-7.87 6.572-9.146 4.009-18.172 6.716-27.055 7.848.793-10.534-12.643-10.898-10.823.196-7.438.2-14.82.273-21.742-.687 2.526-11.829-12.737-11.297-11.707.196l-17.414-4.021c4.475-11.934-7.778-13.846-10.724-4.709-5.172-.006-13.65-1.944-17.046-3.865-.747 4.878-1.39 9.624-1.742 14.108-.951 12.084 2.712 52.439 39.952 58.264 26.52 4.149 57.925-49.89 97.108-51.05 31.759-.94 27.786 29.534 24.554 42.033-5.802 22.442-26.466 41.679-26.219 45.502.752 11.583-1.227 20.574-8.184 28.577-11.818 13.595-28.41 18.655-32.046 44.531-8.786-23.602 1.252-51.156 29.271-75.328 15.757-13.593 28.77-33.587 31.213-53.27 3.097-24.938-17.817-33.309-49.525-12.485-23.68 15.552-38.342 39.872-64.923 41.756-16.82 1.192-22.613-3.022-26.913-8.462-.596 4.697 5.165 9.423 13.478 10.747 22.003 18.908 58.612 57.812 55.746 62.083-17.922 26.715-22.338 63.604-46.75 91.698-6.704 7.715-11.028 1.144-19.005-6.798-6.725 8.745-11.888 12.91-25.803 12.485-7.712-.235-9.69-.91-13.595-4.994-4.864-5.086-11.923-2.615-15.468 3.191-2.397-9.648 5.038-10.47 6.728-13.526 1.793-3.241 12.03-3.849 17.895-1.11 2.48 1.159 4.731 1.05 6.66.625-7.593-5.09-21.823-6.69-14.983-19.422-1.73-4.15-7.024-5.43-13.248-5.063 6.944-6.305 12.413-2.11 16.23-2.081 5.827.043 10.449.68 13.596 5.965 3.06 5.139 10.89 9.78 10.89 9.78-4.177-7.827-15.44-19.216-10.752-25.04 4.015-4.985 1.913-10.078-4.3-13.317 7.663-1.955 10.363 3.812 14.918 4.78 3.884.826 4.034 5.125 4.295 9.717.368 6.478-2.34 20.31 5.41 19.005 19.885-3.349 25.35-25.149 27.19-39.675.744-5.863-.562-10.682-5.548-17.48-28.106-38.322-47.52-34.146-70.31-59.657-.328-.368-.987-1.122-.987-1.122-.34-3.888-2.243-15.585-8.748-20.722 3.56 7.982 6.924 17.273 2.636 28.092-5.194 13.105-18.45 50.802-29.41 44.67L84.32 297.505c-4.15-2.321-8.504-2.957-7.006-7.075 2.58-7.085-6.194-6.855-12-3.606-13.597 7.608-12.302-8.297-17.617-10.266-3.801-1.408-9.249-.371-13.249 2.497 1.02-6.125 10.351-9.778 15.706-9.128 8.086-4.874 16.69-5.374 25.288-1.693 2.842-11.93-8.972-9.694-5.966-20.947 1.997-7.474 12.795-3.195 12.347-10.82-.129-2.185-4.806-5.582-8.74-2.567-1.178-7.971 22.572-10.222 16.37 10.266-1.594 5.265-5.68 7.528-2.913 16.3 15.814-4.879 7.546-27.575 17.895-31.49 5.169-1.258 7.454-8.765 6.659-12.625 3.48 1.922 4.86 7.089 4.403 10.463-.482 3.563 5.723 6.76 2.394 16.311-2.124 6.096-11.477 16.353-19.56 30.936-5.327 9.612 23.462 21.124 42.311 30.797-.97-22.612-9.03-50.408-2.774-66.866 3.826-10.064 15.076-10.131 23.167-4.716 4.245 2.84 8.214 5.972 12.346 11.236.643-23.027-7.356-47.218-16.092-63.952-2.678-5.131 16.325-4.73 20.532-.832-2.284-5.72-25.746-8.736-23.93 2.289 1.072 6.51 4.33 18.382-.798 18.416-26.98.174-54.132-.36-82.299.658-.67 13.756-6.16 51.957-27.537 38.705 4.684-.727 7.256-.143 7.908-5.757 1.117-9.629 15.367-11.54 14.427-22.682-.803-9.52-7.664-28.927-16.647-32.878-6.194-2.724-7.22-7.973-6.45-16.37.31-3.384-5.134-4.645-9.573-.346.405-8.596 11.675-10.462 14.913-3.399l16.092 35.098c1.92-10.543 1.105-23.485-.97-25.734-3.168-3.433-7.847-6.893-3.122-17.549.997-2.248-1.085-6.164-8.74-6.104 2.74-3.728 18.834-5.074 18.45 12.624l-.762 35.237c4.485-5.92 13.403-25.374 10.96-29.826-3.358-6.118-2.116-10.895 1.282-14.046 3.27-3.033-1.019-8.792-4.404-10.023 5.936-3.19 14.717 5.207 12.277 16.855-2.966 14.154-9.526 24.092-16.37 38.843l58.542-4.162c2.714-.193 4.782-3.284 6.536-6.61-15.6 1.228-40.786-61.626-53.925-77.724-2.08 1.855-4.236 2.86-13.139 9.178-5.476 3.887-18.803 22.15-30.963 8.344 7.167 1.8 8.157.336 9.372-2.41 3.096-7 4.06-8.313 12.22-8.437 10.506-.16 26.48-23.683 28.39-27.72 2.58-5.451 6.586-19.517 1.695-22.1-2.889-1.527-10.198-9.89-8.862-16.003 1.134-5.186-1.94-7.337-5.821-8.484 9.923-3.766 16.012 7.007 18.225 14.51 1.981 6.72 3.693 18.653 1.654 25.124 6.008-2.278 10.91-18.762 6.982-23.084-4.359-4.798-5.587-12.097-2.205-17.43 1.323-2.085-2.858-5.477-7.238-6.046 8.698-4.303 17.435 3.085 16.34 21.228-.515 8.548-2.518 14.025-4.875 21.068 5.405-3.21 19.86-22.723 15.986-29.482-3.283-5.727-1.614-11.817 2.113-15.946 1.845-2.042-.683-7.453-4.593-9.178 3.849-1.878 20.011 4.32 11.944 23.92-9.459 22.977-25.811 39.62-40.426 57.015 9.886 18.385 24.41 38.642 37.486 58.313 12.676-39.09 16.69-58.027 46.214-60.63 28.586-2.522 39.168-21.382 38.976-36.43-.05-3.912-12.096-10.568-15.967-11.385-3.989-.028-6.07-.137-9.194.106-4.546.353-8.6 2.088-11.794 4.83h0c-.73-26.896 27.05-28.816 39.14-28.508 8.75.223 15.977-.128 24.348 4.08 4.328 2.175 5.772-4.098 7.924-4.126 15.203-.199 38.647-.061 44.222-.006-1.619 1.987-21.253 14.066-29.388 13.47-4.415-.325-4.496-1.974-6.818-2.384-2.548-.45-5.1-.476-5.428 1.127-.187.911 3.895 1.38 5.848 4.644.986 1.648 1.39 3.448 1.556 4.704 13.04 2.603 36.592-3.93 46.306-11.125.03 11.743-21.04 31.873-46.857 15.482-.015 17.414-5.06 61.072-13.331 61.072l19.716.426c41.576.9 85.773-19.563 92.538-42.187 2.604-8.708 3.779-13.987 3.395-25.387 4.677.045 15.623 8.469 16.175 14.608-4.145 3.898-7.615 6.149-4.45 9.942 2.84 3.402 7.318-.754 10.168-3.115 4.964 3.222 3.92 21.398 2.952 24.086-5.25-.224-13.561-.503-14.047 4.504-.32 3.312 4.09 4.434 8.805 4.571-3.992 7.346-15.769 18.048-20.17 20.025-2.562-4.696-6.402-6.615-9.207-4.487-2.317 1.758-2.483 4.668 1.438 9.195-5.459 4-19.121 13.627-26.002 14.754 0 0-2.791-7.677-7.77-5.418-4.602 2.088-1.322 9.263-1.322 9.263-5.74 1.646-13.683 3.639-24.408 5.16-.541-3.333-.892-9.194-7.14-8.406-3.81.481-3.996 5.726-3.253 9.747-8.51 1.194-15.943 1.823-21.963 2.455-.037-5.436-1.002-9.233-5.98-9.146-5.318.095-5.988 4.924-5.82 9.2-7.217.133-12.966.669-19.669.718-.008 1.522.047 3.252-.067 4.78" style="fill:#ffe000;fill-opacity:1;stroke:#000;stroke-linecap:round;stroke-linejoin:round;stroke-opacity:1"/>
    <path d="M137.605 182.968c8.327-18.006 6.778-41.892 20.97-62.835 2.486-3.667 5.126-7.71 11.495-7.7l73.652.112" style="fill:none;fill-rule:evenodd;stroke:#000;stroke-width:1px;stroke-linecap:butt;stroke-linejoin:miter;stroke-opacity:1"/>
    <path d="M145.313 153.053h16.331c-.066-4.131 1.349-7.588 6.752-7.588 4.915 0 6.462 4.09 6.305 7.588h13.28c-.066-4.131 1.348-7.588 6.751-7.588 4.915 0 6.463 4.09 6.305 7.588h13.28c-.066-4.131 1.348-7.588 6.751-7.588 4.915 0 6.798 4.09 6.64 7.588" style="fill:none;fill-rule:evenodd;stroke:#000;stroke-width:1px;stroke-linecap:butt;stroke-linejoin:miter;stroke-opacity:1"/>
    <path d="M221.697 34.373c0 2.659-1.757 5.316-5.316 5.316s-5.316-2.657-5.316-5.316" style="fill:#000;fill-opacity:1;fill-rule:evenodd;stroke:#000;stroke-width:.85828727px;stroke-linecap:butt;stroke-linejoin:miter;stroke-opacity:1"/>
    <path d="M203.269 35.321c.223-.89.605-1.227 2.39-1.227h22.002c1.785 0 2.167.336 2.39 1.227" style="fill:none;fill-rule:evenodd;stroke:#000;stroke-width:1px;stroke-linecap:round;stroke-linejoin:round;stroke-opacity:1"/>
    <path d="M227.641 157.833c-.405 10.796-4.809 21.776-6.184 29.845" style="fill:none;fill-rule:evenodd;stroke:#000;stroke-width:1px;stroke-linecap:butt;stroke-linejoin:miter;stroke-opacity:1"/>
    <path d="M197.188 49.18h18.352" style="fill:none;fill-rule:evenodd;stroke:#000;stroke-width:1px;stroke-linecap:round;stroke-linejoin:miter;stroke-opacity:1"/>
</svg>
