<svg xmlns="http://www.w3.org/2000/svg" height="500" width="440">
    <path style="fill:#fff;fill-rule:evenodd;stroke:#000;stroke-width:1.49999982;stroke-linecap:butt;stroke-linejoin:miter;stroke-miterlimit:4;stroke-dasharray:none;stroke-opacity:1" d="M432 5c.354 252.63-43.166 385.389-212 492C51.166 390.389 7.646 257.63 8 5h424z"/>
    <path d="M94.005 204.274c5.769 4.306 7.857-3.647 6.89-5.758 3.425 1.3 8.572-.62 7.84-5.13 4.593 3.158 10.441 2.09 9.988-1.967l3.989 12.58c1.018 3.21 4.344 3.866 7.084-.153l22.851-33.516c-7.732-5.822-14.3-12.08-20.414-18.51l2.133-3.122-13.101-13.711 4.037-2.97c-4.652-5.707-7.83-11.749-10.816-17.825l4.417-1.6c-3.986-11.403-5.283-21.442-7.921-33.15 5.658 4.975 9.652.336 10.055-2.368 3.887 4.558 8.867 2.028 10.583-1.32 3.162 3.024 5.94 5.2 10.055-.797-.719 8.43-1.012 19.304-2.738 27.733-.621 3.03 1.282 4.839 3.96 6.703 9.432 6.566 17.988 15.135 26.508 24.756l-4.266 15.158c4.06-6.195 8.057-12.39 13.102-18.586l-2.133-2.133c4.236-4.147 8.723-7.791 14.168-9.521l-2.361-2.514c5.85-2.81 12.509-4.14 19.576-4.722l-.305-2.819c5.508-.273 11.05-.24 16.758 1.295l3.656-6.398c-4.961-3.333-12.883-5.679-20.871-3.656-4.304 1.09-10.169-1.395-7.233-8.23 7.337-.301 6.08-5.002 2.322-6.578 0 0-1.01-3.504-1.269-5.335-1.85-1.714-5.215-2.687-5.17-5.527.033-2.032.504-3.377 1.752-5.408-.903-1.068-1.775-.085-3.123 1.295-3.072-3.946-3.152-8.459-.228-8.303l5.713.305 17.52-7.313c.371-2.923 2.763-5.92 8.454-7.388 9.088-2.344 19.77-4.672 27.041-4.8 7.712-.134 17.553.818 19.576 7.313 4.755-6.12 15.418-4.33 18.281 3.657 2.339 6.524-.545 13.09-8.226 14.015 4.386 4.726 9.012 10.706 11.045 18.967l-3.123.838c2.87 9.272 4.885 18.943 4.722 29.63l-2.666.762-14.32 44.332-3.352-.457-9.14 23.46 10.435 28.64c23.83 25.863 32.411 41.414 45.627 60.862l-9.37 2.285c5.888 10.055 12.461 20.11 16.454 30.164l-4.57.99c4.074 9.262 7.664 18.568 9.521 28.031l-4.113.38 1.904 17.52-9.14-2.742 1.675 7.313c.997 4.35-3.919 5.005-10.207 4.875-14.542-.302-32.045-.088-46.06 1.975.382-.381 2.606-6.576-5.56-6.96 4.708-1.91 4.614-7.257-.977-8.607 7.463-.737 4.692-9.505.29-9.943l28.237 2.359c2.84.237 4.662-3.242 1.98-5.56l-11.273-9.75-3.351 3.58-15.996-14.397-2.362 2.97-14.625-14.929-3.046 3.2c-7.66-8.912-17.071-27.757-23.233-41.742l3.352 20.566-9.445 19.652-4.037-1.447-7.541 19.576-4.037-2.21-6.551 21.405-5.713-2.438-.152 6.399c-.046 1.933-.763 4.73-6.018 4.799-15.505.2-31.55-2.116-46.64 1.123 2.361-2.08 2.267-6.43-2.534-7.967 4.328-5.69-.192-7.797-2.553-8.722 6.041-1.833 4.647-6.978 1.247-9.697l26.334 1.497c4.465.254 5.286-.494 5.18-3.123l-.458-11.273-3.808-.305 2.056-22.623-3.732-.61c2.289-8.098 5.265-16.24 9.826-24.145l-4.113-1.372c6.503-13.538 13.646-26.319 22.166-35.038 1.931-1.977 6.3-4.425 10.054-4.57l13.711-.534-9.445-23.232 13.406-15.539-32.906 22.851-1.904-3.808c-4.48 4.66-9.667 8.896-15.158 12.949l-2.133-4.57a81.789 81.789 0 0 1-17.443 11.197l-.381-4.494-16.758 9.064c-3.69 1.996-9.296 3.539-12.644-1.752z" style="fill:#0085ca;fill-opacity:1;fill-rule:evenodd;stroke:none;stroke-width:1;stroke-linecap:round;stroke-linejoin:round;stroke-miterlimit:4;stroke-dasharray:none;stroke-opacity:1"/>
    <path d="M120.72 76.134c1.216 5.905 10.871 4.178 10.798-.831M110.868 79.289c2.282 5.217 11 2.248 9.725-2.844M132.005 74.992c-.897 3.289 7.696 6.036 9.638.066M108.544 192.403c2.892 4.771 10.711 2.738 10.024-1.709M100.526 198.176c2.769 3.365 10.645-1.01 8.032-5.521M93.362 204.11c3.446 4.239 10.485-.738 7.15-5.814" style="fill:none;fill-opacity:1;fill-rule:evenodd;stroke:#000;stroke-width:1.24999985;stroke-linecap:butt;stroke-linejoin:round;stroke-miterlimit:4;stroke-dasharray:none;stroke-opacity:1"/>
    <path style="fill:#fff;fill-rule:evenodd;stroke:#000;stroke-width:1.24999985;stroke-linecap:round;stroke-linejoin:round;stroke-miterlimit:4;stroke-dasharray:none;stroke-opacity:1" d="M235.526 64.564c-4.262-.462-7.579-1.502-10.835-2.5-1.919-.59-3.762 1.958-3.334 3.555.857 3.195 7.382 2.503 8.501 2.223 2.531-.635 4.16-1.914 5.668-3.278z"/>
    <path style="fill:#fff;fill-rule:evenodd;stroke:#000;stroke-width:1;stroke-linecap:butt;stroke-linejoin:round;stroke-miterlimit:4;stroke-dasharray:none;stroke-opacity:1" d="m200.684 79.46-.672.04 6.814-.234c-1.352 2.254-1.572 8.625-1.272 11.688-2.256-1.845-4.477-8.863-4.87-11.493z"/>
    <path style="fill:#fff;fill-rule:evenodd;stroke:#000;stroke-width:.99999988;stroke-linecap:round;stroke-linejoin:round;stroke-miterlimit:4;stroke-dasharray:none;stroke-opacity:1" d="m210.851 79.213 3.172 5.075 3.5-5.056z"/>
    <path d="m217.524 79.232 3.61 5.056 3.112-5.056z" style="fill:#fff;fill-rule:evenodd;stroke:#000;stroke-width:.99999988;stroke-linecap:round;stroke-linejoin:round;stroke-opacity:1;stroke-miterlimit:4;stroke-dasharray:none"/>
    <path style="fill:#fff;fill-rule:evenodd;stroke:#000;stroke-width:.99999988;stroke-linecap:round;stroke-linejoin:round;stroke-miterlimit:4;stroke-dasharray:none;stroke-opacity:1" d="m214.692 90.701-6.203.06c-1.18-2.375-.928-6.19.09-7.973 1.08 2.993 3.37 6.157 6.113 7.913zM217.69 86.121l-2.667 4.557 6.084-.221zM224.663 85.871l-3.268 4.598 6.408-.403zM228.08 84.566l2.445-3.612c-1.252-.89-4.57-1.677-6.495-1.722z"/>
    <path style="fill:none;fill-rule:evenodd;stroke:#000;stroke-width:1.24999985;stroke-linecap:butt;stroke-linejoin:round;stroke-miterlimit:4;stroke-dasharray:none;stroke-opacity:1" d="M260.138 350.062c6.39 1.79 7.72-8.814.928-9.94"/>
    <path d="M261.409 358.789c5.107.425 5.424-8.874-1.077-8.473" style="fill:none;fill-rule:evenodd;stroke:#000;stroke-width:1.24999985;stroke-linecap:butt;stroke-linejoin:round;stroke-miterlimit:4;stroke-dasharray:none;stroke-opacity:1"/>
    <path style="fill:none;fill-rule:evenodd;stroke:#000;stroke-width:1.24999985;stroke-linecap:butt;stroke-linejoin:round;stroke-miterlimit:4;stroke-dasharray:none;stroke-opacity:1" d="M266.064 366.383c5.2-1.452.63-10.065-5.403-6.694"/>
    <path d="M124.511 336.23c5.962 1.267 7.643-7.734 1.752-9.437" style="fill:none;fill-opacity:1;fill-rule:evenodd;stroke:#000;stroke-width:1.24999985;stroke-linecap:butt;stroke-linejoin:round;stroke-miterlimit:4;stroke-dasharray:none;stroke-opacity:1"/>
    <path style="fill:none;fill-opacity:1;fill-rule:evenodd;stroke:#000;stroke-width:1.25;stroke-linecap:round;stroke-linejoin:round;stroke-miterlimit:4;stroke-dasharray:none;stroke-opacity:1" d="M93.843 204.76c-3.244-4.965-7.753-4.296-12.638-4.484 4.839-8.198 14.158-5.8 19.69-1.436-2.238-3.956-1.274-9.3-12.633-11.544 6.002-4.793 14.513-2.954 20.366 5.55-.16-7.226-1.454-10.734-6.87-15.31 10.447-.92 14.076 4.408 16.155 11.075l4.799 15.387c1.003 3.217 4.344 3.867 7.084-.152l22.851-33.516c-7.732-5.822-14.3-12.08-20.414-18.51l2.133-3.122-13.101-13.711 4.037-2.97c-4.652-5.707-7.83-11.749-10.816-17.825l4.417-1.6c-3.986-11.403-5.664-22.872-8.302-34.581-.779-3.456-4.356-6.045-7.97-7.967 7.36-2.98 14.58-1.4 18.07 6.82 1.395-6.364-3.913-12.288-5.264-14.1 12.006-1.378 15.123 8.039 16.183 12.99 2.618-4.929 1.683-8.914-.788-14.657 8.138 1.75 11.903 6.565 10.843 13.86-.719 8.43-1.012 19.304-2.738 27.733-.621 3.03 1.282 4.839 3.96 6.703 9.432 6.566 17.988 15.135 26.508 24.756l-4.266 15.158c4.06-6.195 8.057-12.39 13.102-18.586l-2.133-2.133c4.236-4.147 8.723-7.791 14.168-9.521l-2.361-2.514c5.85-2.81 12.509-4.14 19.576-4.722l-.305-2.819c5.508-.273 11.05-.24 16.758 1.295l3.656-6.398c-4.961-3.333-12.883-5.679-20.871-3.656a8.203 8.203 0 0 1-4.097-.027c-.88-.24-1.691-.642-2.346-1.21a4.464 4.464 0 0 1-1.445-2.385 5.338 5.338 0 0 1-.136-1.298 7.537 7.537 0 0 1 .304-1.95c.047-.165.205-1.524 1.364-1.89 1.86-.588 4.92-.301 5.045-.593l-15.092 1.124c-8.794.655-10.563-1.129-12.545-4.345-1.562-2.535-.37-6.242 2.738-7.869.64 5.69 3.563 5.69 8.223 5.683 4.447-.005 13.02-.372 13.02-.372s-.554-2.587-.895-4.526c-.074-.42-.151-.483-.197-.808-.54-.273-1.287-.044-1.906-.373-1.74-.924-3.418-2.736-3.385-4.831.033-2.032.504-3.377 1.752-5.408-.903-1.068-1.775-.085-3.123 1.295-3.072-3.946-3.152-8.459-.228-8.303l5.713.305 17.52-7.313c.371-2.923 2.763-5.92 8.454-7.388 9.088-2.344 19.77-4.672 27.041-4.8 7.712-.134 17.553.818 19.576 7.313 4.755-6.12 15.418-4.33 18.281 3.657 2.339 6.524-.545 13.09-8.226 14.015 4.386 4.726 9.012 10.706 11.044 18.967l-3.123.838c2.87 9.272 4.886 18.943 4.723 29.63l-2.666.762-14.32 44.332-3.352-.457-9.14 23.46 10.435 28.64c23.83 25.863 32.411 41.414 45.627 60.862l-9.37 2.285c5.888 10.055 12.461 20.11 16.454 30.164l-4.57.99c4.074 9.262 7.664 18.568 9.521 28.031l-4.113.38 1.904 17.52-9.14-2.742 1.675 7.313c.997 4.35-3.919 5.005-10.207 4.875-14.542-.302-31.127-.088-45.141 1.975-4.127.608-7.284 3.362-10.516 11.977-6.003-10.461-.941-15.16 4.037-18.937-2.068-.102-7.47.254-12.77 6.784-2.17-14.606 8.486-14.589 11.47-15.391-3.948-2.838-7.059-2.617-15.377 1.95-2.206-5.26 5.313-13.02 13.669-12.27l30.558 2.736c2.839.254 4.661-3.242 1.98-5.56l-11.273-9.75-3.351 3.58-15.996-14.397-2.362 2.97-14.625-14.929-3.046 3.2c-7.66-8.912-17.071-27.757-23.233-41.742l3.352 20.566-9.445 19.652-4.037-1.447-7.541 19.576-4.037-2.21-6.551 21.405-5.713-2.438-.152 6.399c-.046 1.933-.763 4.73-6.018 4.799-15.505.2-31.55-2.116-46.64 1.123-3.533.759-5.425 7.38-7.024 10.973-6.59-9.885-3.083-16.21 4.49-19.048-9.288-.146-10.31 4.272-13.963 7.632-2.156-9.86 1.93-15.764 10.924-16.246-5.069-3.753-8.298-1.17-14.759 2.23.786-8.27 6.096-12.759 13.252-12.305l29.574 1.875c4.464.283 5.286-.494 5.18-3.123l-.458-11.273-3.808-.305 2.056-22.623-3.732-.61c2.289-8.098 5.264-16.24 9.826-24.145l-4.113-1.372c6.503-13.538 13.646-26.319 22.166-35.038 1.931-1.977 6.3-4.425 10.054-4.57l13.711-.534-9.445-23.232 13.406-15.539-32.906 22.851-1.904-3.808c-4.48 4.66-9.667 8.896-15.158 12.949l-2.133-4.57a81.789 81.789 0 0 1-17.443 11.197l-.381-4.494-16.758 9.064c-3.69 1.996-9.22 3.49-12.644-1.752z"/>
    <path style="fill:none;fill-opacity:1;fill-rule:evenodd;stroke:#000;stroke-width:1.24999988;stroke-linecap:butt;stroke-linejoin:round;stroke-miterlimit:4;stroke-dasharray:none;stroke-opacity:1" d="M127.584 345.587c4.256-.967 2.76-9.104-2.97-8.842"/>
    <path d="M129.929 353.714c4.585-1.445 2.07-8.745-2.766-7.936" style="fill:none;fill-opacity:1;fill-rule:evenodd;stroke:#000;stroke-width:1.24999985;stroke-linecap:butt;stroke-linejoin:round;stroke-miterlimit:4;stroke-dasharray:none;stroke-opacity:1"/>
</svg>
