<svg xmlns="http://www.w3.org/2000/svg" version="1.0" width="200" height="247.526">
    <path d="M348.974 532.871v89.752c0 89.919 99.515 156.822 99.515 156.822s99.533-66.903 99.533-156.822v-89.752H348.974z" style="font-style:normal;font-variant:normal;font-weight:400;font-stretch:normal;letter-spacing:normal;word-spacing:normal;text-anchor:start;fill:none;fill-opacity:1;stroke:none;stroke-width:.60934383;stroke-linecap:butt;stroke-linejoin:miter;stroke-miterlimit:10.43299961;stroke-dasharray:none;stroke-dashoffset:0;stroke-opacity:1" transform="translate(-348.498 -532.395)"/>
    <path d="M348.974 532.871v89.752c0 89.919 99.515 156.822 99.515 156.822s99.533-66.903 99.533-156.822v-89.752H348.974z" style="font-style:normal;font-variant:normal;font-weight:400;font-stretch:normal;letter-spacing:normal;word-spacing:normal;text-anchor:start;fill:#ffd90f;fill-opacity:1;fill-rule:nonzero;stroke:#000;stroke-width:.95232344;stroke-linecap:butt;stroke-linejoin:miter;stroke-miterlimit:10.43299961;stroke-dasharray:none;stroke-dashoffset:0;stroke-opacity:1" transform="translate(-348.498 -532.395)"/>
    <path d="M513 637.314c1.174-1.926-.345-2.303-.695-2.32-1.313-.059-2.775.138-2.877 1.786l-1.885 33.133-1.984.397 1.29-35.91c.093-2.584-5.52-4.036-5.158-2.679 3.485 13.112 3.461 28.175-3.67 40.077l-25.991 5.159c-.33.065-1.169.994-1.588 1.785-.15.285-1.118 2.057.794 1.885.221-1.08.968-1.794 1.885-1.984l23.014-4.762c-5.637 5.867-10.2 6.852-12.697 6.944l-13.392.496c-36.97-38.41 5.572-86.668 37.497-113.088h2.976c1.852 0 2.407-2.842.992-2.877l-63.587-1.587-.694-18.154-1.687-.397v1.984c-1.03 0-1.633.204-2.281.645-3.196 2.177-5.518-.217-9.127-.744-2.283-.333-4.957 1.784-5.357 2.083-.397.298-2.109 1.651-5.952-1.488-1.112-.908-3.362-1.488-5.853-1.488-4.34 0-7.72 7.349-10.713 3.076-.397.728-.87 2.767 2.976 3.174 2.41.254 5.43-1.626 7.34-1.587 4.492.092 4.275 1.5 5.457 2.58.547.517 4.598 3.082 8.332 1.19 2.997-1.54 3.075-1.467 4.068-1.39.963.131 1.16 1.948 5.555 2.183.437.037 1.233 2.636 5.357 3.075l-.1 5.159-58.032-1.488c-1.6-.041-1.176 2.976-.396 2.976h4.067c-3.84 70.846 33.184 106.494 45.235 116.163-21.006-.738-28.966-2.033-33.53-2.579-14.497-1.733-19.7-23.712-19.939-24.7l8.035-8.532c1.09-1.156 1.361-2.244-.099-2.182l-7.043.297c-1.38.059-.818 2.034-.595 2.58 0 0-.256.31-1.29.297-.643-11.353 1.513-22.022 1.984-23.411.87-2.562.627-3.047-.1-3.571l-3.57-2.58c-1.646-1.457-2.248-.993-2.282-.595-.223 2.602.11 16.202.595 30.455-.83.004-1.19-.496-1.19-.496-.103-1.709-.678-2.48-1.29-2.48h-5.257c-1.924 0-.496 1.488-.496 1.488 1.802 2.193 7.464 7.87 8.432 8.828l1.29 31.645c.456 11.21 10.218 13.104 13.193 13.104l103.268-.01c7.413 0 7.836-7.935 7.836-7.935l1.488-19.047 1.885-.397-1.488 22.618c-.162 2.466 1.146 3.441 3.274 3.571 2.14.131 3.856-1.312 4.067-2.976l1.488-11.705c.36-5.03-1.19-7.44-1.686-8.135-2.7-3.778-2.432-6.872-2.381-7.936l.992-20.931c.298-6.301 1.046-8.293 1.29-8.692zm-67.556-88.524-.1 8.134s-4.265-1.013-4.265-4.365c0-3.351 4.365-3.77 4.365-3.77zm-2.48 118.048-.198 14.583-4.762-.1c-5.958-7.658-5.207-14.483 4.96-14.483zm4.067.794c10.03 3.542 17.171 11.129 19.543 13.888h-19.84l.297-13.888z" style="font-style:normal;font-variant:normal;font-weight:400;font-stretch:normal;letter-spacing:normal;word-spacing:normal;text-anchor:start;fill:#000;fill-opacity:1;fill-rule:nonzero;stroke:none;stroke-width:.1;stroke-linecap:butt;stroke-linejoin:miter;stroke-miterlimit:10.43299961;stroke-dasharray:none;stroke-dashoffset:0;stroke-opacity:1" transform="translate(-348.498 -532.395)"/>
</svg>
