<svg width="820.336" height="1000" xml:space="preserve" xmlns="http://www.w3.org/2000/svg">
    <path d="M1.212.001s-5.875 288.417 44.247 499.521l135.19 280.305L410.16 890l229.482-110.168.049-.048c39.891-51.777 76.476-111.857 104.97-182.449 11.812-29.3 21.772-62.467 30.172-97.814C824.965 288.416 819.127 0 819.127 0L410.16 150z" fill="#d0d0ce"/>
    <g fill="#007096">
        <path d="M819.11.008H1.21l408.956 499.497zM180.648 779.835C256.201 877.882 343.608 946.041 410.16 999c66.54-52.959 153.92-121.118 229.483-219.165zM45.459 499.524c8.398 35.348 18.396 68.515 30.22 97.815 28.481 70.592 65.066 130.672 104.97 182.449l229.52-280.264z"/>
    </g>
</svg>
