<svg xmlns="http://www.w3.org/2000/svg" version="1.0" width="200" height="229.821">
    <path d="M0 .006h200l-.034 49.688c0 111.176-100.068 180.127-100.068 180.127S0 160.871 0 49.694V.006z" style="font-style:normal;font-variant:normal;font-weight:400;font-stretch:normal;letter-spacing:normal;word-spacing:normal;text-anchor:start;fill:#f80804;fill-opacity:1;fill-rule:nonzero;stroke:none;stroke-width:0;stroke-linecap:butt;stroke-linejoin:miter;stroke-miterlimit:10.43299961;stroke-dasharray:none;stroke-dashoffset:0;stroke-opacity:1"/>
    <path d="m53.698 0 94.228 119.786s-11.348-9.669-18.195-12.285c-5.259-2.01-11.395-3.063-15.985-12.77-6.062-12.818-15.463-19.856-30.44-25.867-12.932-5.19-11.26-22.283-24.725-28.89-11.853-5.816-15.914-2.56-25.151-18.68-3.573-6.234-10.037-11.199-10.037-11.199C17.986 6.305 10.57 7.91 4.326 4.863 2.04 3.748.836 1.258.006.04c1.096 6.286 2.19 6.838 10.017 10.056 12.324 5.067 14.265 13.423 19.144 24.802 4.418 10.303 19.12 11.396 24.705 21.78 6.52 12.118 9.988 23.866 26.333 31.06 14.744 6.49 16.729 23.657 25.558 30.673 9.101 7.233 16.702 6.464 22.418 16.877 2.56 4.664 8.147 13.64 8.08 14.435L.006 45.71l143.638 143.27c14.843-17.196 30.44-39.446 41.446-66.054L53.698 0z" style="font-style:normal;font-variant:normal;font-weight:400;font-stretch:normal;letter-spacing:normal;word-spacing:normal;text-anchor:start;fill:#ffe000;fill-opacity:1;fill-rule:nonzero;stroke:none;stroke-width:0;stroke-linecap:butt;stroke-linejoin:miter;stroke-miterlimit:10.43299961;stroke-dasharray:none;stroke-dashoffset:0;stroke-opacity:1"/>
</svg>
