<svg xmlns="http://www.w3.org/2000/svg" xml:space="preserve" viewBox="30.5 31.5 420 500" height="500" width="420">
    <path d="M45.334 33.114c.217 101.874.145 211.067 33.596 296.176 28.05 75.48 82.82 143.03 161.57 201.59 78.75-58.56 133.52-126.11 161.57-201.59 33.451-85.11 33.379-194.302 33.596-296.176-128.806-.76-273.97-.028-390.332 0z" style="fill:#0085ca;fill-opacity:1;fill-rule:evenodd;stroke:#000;stroke-width:1;stroke-miterlimit:4;stroke-dasharray:none;stroke-opacity:1"/>
    <path d="m249.795 449.371 6.536-57.973h50.38l-23.795-130.352 104.489 19.656V165.868l-104.489 19.656 23.795-120.007H174.289l23.795 120.007-104.489-19.656v114.834l104.489-19.656-23.795 130.352h50.38l6.536 57.973c1.752 15.54 4.122 34.421 9.295 34.421s7.543-18.882 9.295-34.42z" style="fill:#fff;fill-opacity:1;fill-rule:evenodd;stroke:#000;stroke-width:1.03454185px;stroke-linecap:butt;stroke-linejoin:miter;stroke-opacity:1"/>
</svg>
