<svg width="549.359" height="200mm" viewBox="0 0 145.351 200" xmlns="http://www.w3.org/2000/svg">
    <defs>
        <clipPath clipPathUnits="userSpaceOnUse" id="a">
            <path d="M58 905.592h280.834v116.409H58Z" transform="translate(-65.214 -997.905)"/>
        </clipPath>
        <clipPath clipPathUnits="userSpaceOnUse" id="b">
            <path d="M58 905.592h280.834v116.409H58Z" transform="translate(-131.15 -1010.9)"/>
        </clipPath>
        <clipPath clipPathUnits="userSpaceOnUse" id="c">
            <path d="M58 905.592h280.834v116.409H58Z" transform="translate(-68.275 -943.254)"/>
        </clipPath>
        <clipPath clipPathUnits="userSpaceOnUse" id="d">
            <path d="M58 905.592h280.834v116.409H58Z" transform="translate(-108.636 -913.52)"/>
        </clipPath>
        <clipPath clipPathUnits="userSpaceOnUse" id="e">
            <path d="M58 905.592h280.834v116.409H58Z" transform="translate(-134.965 -925.647)"/>
        </clipPath>
        <clipPath clipPathUnits="userSpaceOnUse" id="f">
            <path d="M58 905.592h280.834v116.409H58Z" transform="translate(-136.49 -931.122)"/>
        </clipPath>
        <clipPath clipPathUnits="userSpaceOnUse" id="g">
            <path d="M58 905.592h280.834v116.409H58Z" transform="translate(-118.718 -941.105)"/>
        </clipPath>
        <clipPath clipPathUnits="userSpaceOnUse" id="h">
            <path d="M58 905.592h280.834v116.409H58Z" transform="translate(-63.68 -939.877)"/>
        </clipPath>
        <clipPath clipPathUnits="userSpaceOnUse" id="i">
            <path d="M58 905.592h280.834v116.409H58Z" transform="translate(-94.706 -922.636)"/>
        </clipPath>
        <clipPath clipPathUnits="userSpaceOnUse" id="j">
            <path d="M58 905.592h280.834v116.409H58Z" transform="translate(-113.812 -921.833)"/>
        </clipPath>
        <clipPath clipPathUnits="userSpaceOnUse" id="k">
            <path d="M58 905.592h280.834v116.409H58Z" transform="translate(-73.976 -923.5)"/>
        </clipPath>
        <clipPath clipPathUnits="userSpaceOnUse" id="l">
            <path d="M58 905.592h280.834v116.409H58Z" transform="translate(-100.344 -1021.555)"/>
        </clipPath>
        <clipPath clipPathUnits="userSpaceOnUse" id="m">
            <path d="M58 905.592h280.834v116.409H58Z" transform="translate(-89.024 -1018.535)"/>
        </clipPath>
        <clipPath clipPathUnits="userSpaceOnUse" id="n">
            <path d="M58 905.592h280.834v116.409H58Z" transform="translate(-112.478 -974.975)"/>
        </clipPath>
        <clipPath clipPathUnits="userSpaceOnUse" id="o">
            <path d="M58 905.592h280.834v116.409H58Z" transform="translate(-96.15 -923.416)"/>
        </clipPath>
        <clipPath clipPathUnits="userSpaceOnUse" id="p">
            <path d="M58 905.592h280.834v116.409H58Z" transform="translate(-95.88 -923.524)"/>
        </clipPath>
        <clipPath clipPathUnits="userSpaceOnUse" id="q">
            <path d="M58 905.592h280.834v116.409H58Z" transform="translate(-96.815 -922.431)"/>
        </clipPath>
        <clipPath clipPathUnits="userSpaceOnUse" id="r">
            <path d="M58 905.592h280.834v116.409H58Z" transform="translate(-105.029 -921.793)"/>
        </clipPath>
        <clipPath clipPathUnits="userSpaceOnUse" id="s">
            <path d="M58 905.592h280.834v116.409H58Z" transform="translate(-100.993 -921.1)"/>
        </clipPath>
        <clipPath clipPathUnits="userSpaceOnUse" id="t">
            <path d="M58 905.592h280.834v116.409H58Z" transform="translate(-96.643 -922.067)"/>
        </clipPath>
        <clipPath clipPathUnits="userSpaceOnUse" id="u">
            <path d="M58 905.592h280.834v116.409H58Z" transform="translate(-92.963 -920.647)"/>
        </clipPath>
        <clipPath clipPathUnits="userSpaceOnUse" id="v">
            <path d="M58 905.592h280.834v116.409H58Z" transform="translate(-95.055 -922.286)"/>
        </clipPath>
        <clipPath clipPathUnits="userSpaceOnUse" id="w">
            <path d="M58 905.592h280.834v116.409H58Z" transform="translate(-71.562 -922.783)"/>
        </clipPath>
        <clipPath clipPathUnits="userSpaceOnUse" id="x">
            <path d="M58 905.592h280.834v116.409H58Z" transform="translate(-74.647 -924.047)"/>
        </clipPath>
        <clipPath clipPathUnits="userSpaceOnUse" id="y">
            <path d="M58 905.592h280.834v116.409H58Z" transform="translate(-76.474 -923.153)"/>
        </clipPath>
        <clipPath clipPathUnits="userSpaceOnUse" id="z">
            <path d="M58 905.592h280.834v116.409H58Z" transform="translate(-75.21 -921.177)"/>
        </clipPath>
        <clipPath clipPathUnits="userSpaceOnUse" id="A">
            <path d="M58 905.592h280.834v116.409H58Z" transform="translate(-75.14 -923.453)"/>
        </clipPath>
        <clipPath clipPathUnits="userSpaceOnUse" id="B">
            <path d="M58 905.592h280.834v116.409H58Z" transform="translate(-72.604 -921.796)"/>
        </clipPath>
        <clipPath clipPathUnits="userSpaceOnUse" id="C">
            <path d="M58 905.592h280.834v116.409H58Z" transform="translate(-74.274 -923.106)"/>
        </clipPath>
        <clipPath clipPathUnits="userSpaceOnUse" id="D">
            <path d="M58 905.592h280.834v116.409H58Z" transform="translate(-111.843 -920.5)"/>
        </clipPath>
        <clipPath clipPathUnits="userSpaceOnUse" id="E">
            <path d="M58 905.592h280.834v116.409H58Z" transform="translate(-115.907 -923.107)"/>
        </clipPath>
        <clipPath clipPathUnits="userSpaceOnUse" id="F">
            <path d="M58 905.592h280.834v116.409H58Z" transform="translate(-118.509 -922.223)"/>
        </clipPath>
        <clipPath clipPathUnits="userSpaceOnUse" id="G">
            <path d="M58 905.592h280.834v116.409H58Z" transform="translate(-120.498 -921.207)"/>
        </clipPath>
        <clipPath clipPathUnits="userSpaceOnUse" id="H">
            <path d="M58 905.592h280.834v116.409H58Z" transform="translate(-115.631 -921.604)"/>
        </clipPath>
        <clipPath clipPathUnits="userSpaceOnUse" id="I">
            <path d="M58 905.592h280.834v116.409H58Z" transform="translate(-113.026 -919.537)"/>
        </clipPath>
        <clipPath clipPathUnits="userSpaceOnUse" id="J">
            <path d="M58 905.592h280.834v116.409H58Z" transform="translate(-114.216 -921.547)"/>
        </clipPath>
        <clipPath clipPathUnits="userSpaceOnUse" id="K">
            <path d="M58 905.592h280.834v116.409H58Z" transform="translate(-65.214 -997.905)"/>
        </clipPath>
    </defs>
    <path d="m0 0 70.171-.003c.152-.1 5.302-3.446 6.009-3.904-1.227-.94-4.825-4.155-4.825-9.51v-46.978c0-7.676-1.324-12.278-4.429-15.383-3.548-3.549-7.863-5.838-12.824-6.808-2.692-.525-4.943-.769-6.928-.984-2.22-.239-4.138-.446-6.171-.967-3.579-.921-5.274-3.998-5.916-5.544-.642 1.546-2.34 4.627-5.921 5.545-2.03.523-3.947.729-6.168.97-1.985.213-4.238.459-6.928.982-4.962.969-9.275 3.26-12.823 6.809-3.106 3.105-4.43 7.706-4.43 15.382v46.98c0 5.353-3.6 8.568-4.824 9.508C-5.303-3.445-.151-.099 0 0" style="fill:#c13338;fill-opacity:1;fill-rule:nonzero;stroke:#c13338;stroke-width:.151;stroke-linecap:butt;stroke-linejoin:miter;stroke-miterlimit:4;stroke-dasharray:none;stroke-opacity:1" transform="matrix(1.7181 0 0 -1.7181 12.394 41.398)" clip-path="url(#a)"/>
    <path d="m0 0-.837-1.076-.141-.172-.175.135C-1.95-.505-2.474-.101-3.365.508l-.186.127.904 1.31c-.506.353-1.19.786-1.759 1.146l-.246.157c-.175-.284-.828-1.353-.828-1.353l-.187.114c-.814.492-1.441.859-2.437 1.392l-.196.104s.59 1.112.749 1.403a51.75 51.75 0 0 1-1.9.95l-1.863-3.982c.301-.147 1.391-.685 1.391-.685l.032-.088a.162.162 0 0 0 .005-.04c0-.097-.139-.371-1.167-2.361l-.104-.197-.196.101c-.41.212-1.455.714-2.008.967-.149-.339-1.017-2.292-1.017-2.292l-.205.092c-.967.437-1.976.814-2.925 1.163l-.206.075.832 2.364c-.479.162-1.439.48-2.25.713l-.215.063.75 2.622.062.219 1.656-.509c.119.36 1.248 3.812 1.366 4.178a52.57 52.57 0 0 1-3.418.968l-.37-1.546-.215.048c-.596.137-2.096.475-3.163.649l-.223.035.268 1.565a50.24 50.24 0 0 1-3.056.41 552.14 552.14 0 0 1-.155-1.578l-.223.021a43.847 43.847 0 0 1-2.812.192l-.225.004.064 1.588c-.509.012-1.765.037-1.765.037-.474 0-1.153-.007-1.819-.032l.066-1.593-.228-.004a43.102 43.102 0 0 1-2.811-.192l-.22-.02s-.125 1.246-.156 1.577a50.464 50.464 0 0 1-3.057-.408l.266-1.567-.219-.034c-1.068-.174-2.568-.513-3.167-.648l-.212-.049s-.293 1.224-.372 1.545a52.207 52.207 0 0 1-3.419-.968c.122-.366 1.251-3.818 1.368-4.178l1.435.44c.135.041.222.061.222.061l.812-2.833-.215-.063a57.27 57.27 0 0 1-2.25-.709c.128-.354.832-2.365.832-2.365l-.203-.075c-.955-.351-1.969-.729-2.926-1.161l-.203-.093s-.869 1.956-1.021 2.293a60.88 60.88 0 0 1-2.013-.969l-.199-.103-.101.197C-51.639.702-51.781.975-51.781 1.071c0 .016.005.026.008.038l.029.089 1.394.68c-.162.343-1.699 3.628-1.865 3.98a51.533 51.533 0 0 1-1.895-.95l.746-1.403-.196-.104c-.995-.533-1.626-.9-2.437-1.39l-.187-.116-.827 1.354-.248-.157a53.537 53.537 0 0 1-1.759-1.146l.905-1.311-.186-.125a48.437 48.437 0 0 1-2.204-1.618l-.187-.144-.973 1.253a71.447 71.447 0 0 1-1.684-1.381c.253-.293 2.629-3.035 2.875-3.321.266.217 1.381 1.145 1.381 1.145l7.103-8.887h1.081A33.343 33.343 0 0 0-30.84-5.767c7.53 0 14.477-2.485 20.073-6.677h1.091l6.961 8.711.123.172s.083-.048.186-.135c.326-.269 1.012-.842 1.211-1.005.249.284 2.623 3.028 2.878 3.321A72.76 72.76 0 0 1 0 0" style="fill:#be891a;fill-opacity:1;fill-rule:nonzero;stroke:#be891a;stroke-width:.151;stroke-linecap:butt;stroke-linejoin:miter;stroke-miterlimit:4;stroke-dasharray:none;stroke-opacity:1" transform="matrix(1.7181 0 0 -1.7181 125.677 19.069)" clip-path="url(#b)"/>
    <path d="M0 0c-.069.076-.16.153-.266.215-.798.46-.43 1.201 0 1.705.514.597 1.434 1.242 1.434 1.242C1.699 2.09 2.254 1.209 2.744.428Zm67.988-4.872c-6.01 0-6.01 2.292-12.015 2.156-2.5-.055-5.631.587-5.631.587 8.551 7.883 8.973 14.352 8.973 14.352l-1.631-.669c-.199-1.237-.644-2.419-.644-2.419l-1.208-.705s-.026.004-.026.016c.196 2.549-.666 3.11-.666 3.11.459.224.112.7.297.737.185.037.363.262.363.262.098.07-.084.148-.146.183-.113.063-.145.135-.225.299-.161.331-.59.44-.59.44.073.218.183.44.148.917-.075 2.587-.676 8.553-3.511 12.736-5.362 7.914-12.979 12.444-12.979 12.444.357.129.771.157.58.773-.152.487-.604.313-.604.313l-9.737-2.767-.403 6.433c-.273.375-.553-.003-.553-.003l.28-6.62-10.07-2.858c-.008 0-.355-.146-.197-.627.162-.482.533-.377.533-.377l2.363.635c6.391-4.52 10.333-8.851 6.627-18.472-3.037-7.885-10.23-13.326-10.23-13.326.01 1.097-.822 1.404-.822 1.404s.101.034.186.12c.088.084.032.499.032.499s.307.02.172.171a.692.692 0 0 0-.11.141l-.028.334s.418.374.393.408c-.027.037-.204-.033-.409-.05-.085-.007-.763.398-1.213.153-.409-.223-.442-.971-.527-1.16-.087-.187-.599-.449-.59-.501.008-.052.54-.13.54-.13s-.427-.255-.546-.595c-.146-.417-.199-1.307-.199-1.307l-2.856-.434C6.864 2.5 3.825 3.319 3.825 3.319l-.789 1.884c-.728.17-3.157 1.434-3.157 1.434.205-1.068.838-2.512.838-2.512-1.603-.599-2.348-2.081-2.551-2.444-.298-.534-.58-1.981.392-2.779.769-.632 1.35-.194 1.568.119a.58.58 0 0 1 .093.24c.003.007.023.004.023.004.701.116 2.95.5 2.95.5C4.411-2.01 5.219-2.914 5.219-2.914 1.833-3.448.92-4.872-3.947-4.872c-.212 0-.423.005-.636.012l-.013-1.41c.215-.008.432-.013.649-.013 5.988 0 5.988 2.158 11.985 2.158 5.993 0 5.993-2.158 11.991-2.158 5.991 0 5.991 2.154 11.992 2.154 5.98 0 5.98-2.154 11.981-2.154 5.988 0 5.988 2.158 11.968 2.158 6.008 0 6.008-2.158 12.015-2.158.22 0 .43.003.631.009l.013 1.411a21.902 21.902 0 0 0-.641-.009" style="fill:#a4a7a6;fill-opacity:1;fill-rule:nonzero;stroke:none" transform="matrix(1.7181 0 0 -1.7181 17.653 135.293)" clip-path="url(#c)"/>
    <path d="M0 0a17.766 17.766 0 0 1-8.33 2.059c-3.006 0-5.842-.744-8.327-2.058l-2.233.317A19.155 19.155 0 0 0-8.33 3.469 19.16 19.16 0 0 0 2.215.327z" style="fill:#a4a7a6;fill-opacity:1;fill-rule:nonzero;stroke:none" transform="matrix(1.7181 0 0 -1.7181 86.998 186.378)" clip-path="url(#d)"/>
    <path d="M0 0c-4.74.288-5.172 2.12-10.709 2.12-5.983 0-5.983-2.157-11.971-2.157-5.998 0-5.998 2.153-11.978 2.153-6.004 0-6.004-2.153-11.992-2.153-6.001 0-6.001 2.157-11.993 2.157-5.523 0-5.959-1.832-10.676-2.12l-.562 1.385c5.255.171 5.504 2.147 11.239 2.147 5.994 0 5.994-2.157 11.992-2.157 5.991 0 5.991 2.152 11.992 2.152 5.98 0 5.98-2.152 11.98-2.152 5.986 0 5.986 2.157 11.969 2.157 5.746 0 5.995-1.973 11.262-2.147z" style="fill:#a4a7a6;fill-opacity:1;fill-rule:nonzero;stroke:none" transform="matrix(1.7181 0 0 -1.7181 132.232 165.543)" clip-path="url(#e)"/>
    <path d="M0 0a14.386 14.386 0 0 0-.296-.003c-6.009 0-6.009 2.157-12.019 2.157-5.979 0-5.979-2.157-11.965-2.157-6.001 0-6.001 2.155-11.98 2.155-6.004 0-6.004-2.155-11.995-2.155-5.997 0-5.997 2.157-11.991 2.157-5.996 0-5.996-2.157-11.985-2.157l-.156.001-.17 1.414c.109-.003.218-.003.326-.003 5.989 0 5.989 2.156 11.985 2.156 5.994 0 5.994-2.156 11.994-2.156 5.988 0 5.988 2.154 11.992 2.154 5.979 0 5.979-2.154 11.98-2.154 5.989 0 5.989 2.156 11.968 2.156 6.009 0 6.009-2.156 12.018-2.156.159 0 .313.002.465.004z" style="fill:#a4a7a6;fill-opacity:1;fill-rule:nonzero;stroke:none" transform="matrix(1.7181 0 0 -1.7181 134.854 156.137)" clip-path="url(#f)"/>
    <path d="M0 0c1.356.481 2.838.917 5.527.917 6.008 0 6.008-2.157 12.015-2.157.22 0 .43.003.631.008l.024 1.409a25.22 25.22 0 0 0-.629-.009c-6.009 0-6.009 2.157-12.014 2.157-1.564 0-2.719-.147-3.678-.364Z" style="fill:#a4a7a6;fill-opacity:1;fill-rule:nonzero;stroke:none" transform="matrix(1.7181 0 0 -1.7181 104.32 138.985)" clip-path="url(#g)"/>
    <path d="M0 0c.215-.008.431-.012.649-.012 4.333 0 5.531 1.128 8.133 1.751l-.856 1.169C5.872 2.273 4.49 1.397.671 1.397c-.214 0-.43.003-.647.012Z" style="fill:#a4a7a6;fill-opacity:1;fill-rule:nonzero;stroke:none" transform="matrix(1.7181 0 0 -1.7181 9.757 141.095)" clip-path="url(#h)"/>
    <path d="M0 0a.347.347 0 0 1-.347-.35.348.348 0 1 1 .696 0C.349-.156.194 0 0 0m12.378-1.838-.1-.049.048-.098c.013-.026.185-.394.185-.807 0-.268-.083-.552-.318-.782-.161.321-.609 1.133-1.148 1.521-.688.498-1.722.77-1.835.801l-.173.043c0 .002-.003.002-.003.002l-.01.002-.045.011-.011-.003c-.853.168-1.852-.114-2.681-.339l-.818-.2-.507-.122c-.556-.143-1.489-.383-2.342-.518a7.25 7.25 0 0 0-1.123-.075c.259.269.71.879.535 1.741-.011.06-.035.154-.095.142-.061-.012-.035-.073-.024-.133.199-.979-.639-1.663-.71-1.721-.567.091-1.814.319-2.951.602-.163.04-.398.148-.438.207.013.003.048.025.13.05l.339.11-.344.103c-.242.073-.615.243-.644.376v.011c0 .027.02.059.063.094C-2.605-.841-1.041.297 1.344.76c2.887.331 3.811.083 5.609-.404l.466-.124.275-.085c.657-.207 2.144-.672 2.62-.734l.009-.003c.047-.009 1.141-.197 1.901-.098.432.055 1.069-.037 1.286-.105-.136-.218-.511-.743-1.132-1.045m-3.192.167c-.011-.022-.066-.047-.183-.047-.388 0-.692-.113-.962-.212l-.344-.114c-.273-.067-.655.105-1.082.481.763.203 1.646.4 2.364.255l.113-.12c.062-.08.115-.201.094-.243m-2.571-.316c-.005-.028-.044-.049-.076-.062-.382-.145-.548-.287-.729-.436l-.257-.203c-.448-.319-.697-.16-.843-.013-.203.204-.474.415-.659.5.36.085.689.17.939.235l.497.119.827.205c.013.002.026.007.037.009l.026-.016c.104-.085.241-.242.241-.325 0-.005-.003-.009-.003-.013M3.132-2.989a.164.164 0 0 0-.056-.14c-.064-.06-.167-.079-.295-.06-.153.029-.425.218-.666.382a4.62 4.62 0 0 1-.377.248c.267.004.57.025.861.068l.167-.076c.002-.003.334-.155.366-.422m.341 5.176c.379-.279.949-.784.972-1.052V1.12c0-.028-.081-.093-.118-.124-.721.053-1.567.028-2.75-.099.229.265 1.046 1.138 1.896 1.29m3.034-.353C7.013 1.556 8.224.892 8.335.817a.143.143 0 0 0 .064-.124V.679c-.005-.12-.122-.333-.474-.488l-.199.06-.278.089-.466.125C6.128.697 5.469.873 4.705.96c.377.209 1.373.743 1.802.874M9.517.476c.288-.036 1.017-.529 1.071-.657-.006-.025-.136-.131-.29-.197l-.179-.061c-.454.098-1.268.342-1.874.531C8.68.271 9.323.5 9.517.476m.874-1.282c-.029.009-.058-.007-.068-.037-.062-.194-.165-.258-.167-.258a.055.055 0 0 1-.021-.077.052.052 0 0 1 .073-.022c.006.003.147.083.223.325a.057.057 0 0 1-.04.069m-.418-.069c-3.68.98-7.824.673-7.864.67-.031-.003-.056-.028-.05-.06 0-.03.027-.053.058-.051.042.004 4.165.308 7.829-.667a.055.055 0 0 1 .066.041.054.054 0 0 1-.039.067" style="fill:#a4a7a6;fill-opacity:1;fill-rule:nonzero;stroke:none" transform="matrix(1.7181 0 0 -1.7181 63.064 170.717)" clip-path="url(#i)"/>
    <path d="M0 0a.357.357 0 0 1-.285-.405.35.35 0 0 1 .689.119A.351.351 0 0 1 0 0m12.95.534-.089-.067.066-.09c.013-.016.183-.258.183-.597 0-.204-.07-.446-.274-.692a5.39 5.39 0 0 1-1.11.725 4.728 4.728 0 0 1-1.682.429l-.199.013-.003.002C8.77.382 7.567-.202 6.687-.626l-.63-.293-.39-.182c-.503-.248-1.349-.659-2.202-.949a2.544 2.544 0 0 0-.225-.07 7.154 7.154 0 0 0-.217-.057A8.773 8.773 0 0 0 1.95-2.36c.249.302.689 1.054-.016 2.058-.035.05-.064.106-.114.073-.05-.036-.006-.073.029-.124.801-1.142-.143-1.949-.182-1.982v-.002c-.332-.012-1.211-.039-2.574.176-.335.05-.437.103-.471.126a.515.515 0 0 0 .11.074l.377.199-.424.012c-.186.004-.466.062-.511.154a.047.047 0 0 0-.008.026c0 .032.024.075.047.108.014.019 1.423 1.998 3.978 2.596l.011.001c1.9.287 2.88.313 5.079.119l.265-.036c.637-.09 2.116-.302 2.511-.243l.17.01c.058.002 1.412.083 2.141.311l.648.215c.265.091.535.183.723.237-.071-.278-.272-.844-.789-1.214M9.677-.337c-.307-.122-.664-.309-.982-.471l-.522-.262c-.095-.041-.525-.042-1.269.424.848.409 1.95.905 2.925.792.003 0 .005.003.008.003L9.97.035c0-.001.066-.055.055-.118-.005-.036-.05-.139-.348-.254m-2.964-.894-.622-.552-.17-.172c-.273-.278-.686-.699-.988-.58l-.668.297c-.223.103-.354.165-.44.197.744.279 1.447.622 1.889.838l.385.182.58.268c.052-.047.167-.171.17-.262 0-.071-.045-.143-.136-.216M3.235-2.882c.01-.04.029-.116 0-.153-.027-.036-.1-.057-.207-.057-.152 0-.448.223-.687.403a5.206 5.206 0 0 1-.315.226c.139.018.313.04.504.073l.204-.074c.116-.041.435-.198.501-.418m.726 5.366c.243-.095.789-.363.85-.653.002-.015.002-.033.002-.047 0-.065-.037-.132-.092-.198a5.408 5.408 0 0 0-.082-.096c-.723-.016-1.415-.086-2.303-.216.215.255.849.936 1.625 1.21m2.222.209a73.64 73.64 0 0 1 1.628-.85c.196-.086.409-.244.426-.368v-.014c0-.025-.011-.073-.093-.136 0-.001-.056-.038-.098-.064a35.38 35.38 0 0 0-.485.067l-.27.037c-.959.084-1.685.127-2.358.126.236.279.87.995 1.25 1.202m3.098-.908c.288.013.914-.321.964-.431.013-.081-.093-.169-.096-.171l-.118-.099c-.263-.034-1.02.05-1.667.134.283.239.726.558.917.567M10.817.771c-2.288.29-4.594-.113-6.12-.381L4.438.344c-.989-.172-2.464-.25-2.48-.25-.029 0-.054-.027-.054-.059a.058.058 0 0 1 .062-.052c.016.001 1.496.079 2.49.251l.262.045c1.518.268 3.816.669 6.086.381a.06.06 0 0 1 .061.049.058.058 0 0 1-.048.062" style="fill:#a4a7a6;fill-opacity:1;fill-rule:nonzero;stroke:none" transform="matrix(1.7181 0 0 -1.7181 95.89 172.096)" clip-path="url(#j)"/>
    <path d="M0 0a.35.35 0 1 1-.093-.692A.35.35 0 0 1 0 0m13.703-3.294-.127-.041.064-.12c.005-.002.164-.304.164-.804 0-.2-.037-.444-.11-.705-.36.323-1.376 1.225-1.972 1.595-.61.384-1.602.72-1.963.835-.65.242-1.861.194-3.071.078l-.726-.059-.233-.016c-.525-.043-1.614-.132-2.623-.003l-1.627.233c.161.186.526.669.488 1.234-.028.395-.266.69-.669.988-.047.037-.1.081-.134.032-.037-.049.042-.096.091-.133.347-.257.466-.575.489-.903.038-.535-.375-1.011-.474-1.117l-.281.046c-.402.057-1.15.163-2.216.589l-.039.017c-.214.08-.345.115-.36.169-.048.113.349.236.349.236s-.925-.103-.972.229c-.001.021.009.05.032.092.077.112.902.762 2.996 1.236C3.31.962 4.604.995 6.712.112l.616-.302c.971-.483 2.783-1.383 3.196-1.529v.002c.169-.064 1.349-.502 2.218-.525.071-.002 1.264.037 1.762.101-.075-.3-.3-.993-.801-1.153m-3.939.281v-.002c-.003.002-.032-.011-.117-.006-.427.017-.892-.05-1.268-.104l-.353-.046c-.196-.02-.7.003-1.23.613.822.077 1.862.168 2.621.003.352-.182.36-.412.347-.458m-3.039.051c-.024-.074-.132-.114-.223-.132a3.815 3.815 0 0 1-.731-.232l-.309-.119-.244-.088c-.697-.253-1.022-.35-1.372.072l-.346.459c-.119.166-.195.27-.255.339.976-.101 1.992-.021 2.492.019l.23.017.551.046.063-.066h-.002c.053-.055.149-.186.149-.281 0-.012 0-.023-.003-.034M2.186-3.35c-.011-.008-.118-.008-.339.157-.172.126-.368.535-.477.789l.007.005.608-.087.03-.074c.002-.005.185-.45.178-.76Zm.165 5.563c.544-.32 1.274-.852 1.288-1.106v-.006c0-.021-.008-.041-.037-.064a7.96 7.96 0 0 1-.181-.133C2.703.883 1.9.765.911.555c.189.311.878 1.379 1.44 1.658m2.943-.366C5.519 1.718 7.183.754 7.328.676c.114-.059.174-.13.19-.217l.003-.042c0-.128-.085-.289-.237-.449l-.008-.007-.521.256C5.681.666 4.804.89 3.792.905c.331.279 1.102.868 1.502.942M8.973.002c.282-.075 1.593-1.199 1.722-1.424.007-.035.007-.155-.395-.083-.609.268-1.895.903-2.74 1.325.508.108 1.226.233 1.413.182M2.497-.346c-.03-.01-.043-.042-.035-.071a.054.054 0 0 1 .068-.038c.024.007 2.481.694 8.421-1.935.026-.013.059 0 .071.028a.056.056 0 0 1-.029.074C5.008.36 2.597-.317 2.497-.346" style="fill:#a4a7a6;fill-opacity:1;fill-rule:nonzero;stroke:none" transform="matrix(1.7181 0 0 -1.7181 27.448 169.233)" clip-path="url(#k)"/>
    <path d="M0 0s1.256-.025 1.764-.037l-.063-1.588.225-.004a43.172 43.172 0 0 0 2.812-.192l.223-.021s.121 1.248.155 1.578a51 51 0 0 0 3.055-.409l-.267-1.566.223-.035c1.067-.174 2.566-.511 3.163-.648l.215-.049.37 1.547c.843-.208 2.298-.6 3.418-.969-.119-.366-1.248-3.818-1.367-4.178l-1.656.509-.062-.219-.749-2.622.214-.063a56.417 56.417 0 0 0 2.251-.713l-.833-2.363.207-.076c.949-.349 1.958-.726 2.925-1.163l.204-.092s.869 1.954 1.017 2.292a63.593 63.593 0 0 0 2.008-.967l.197-.101.104.198C20.78-9.962 20.92-9.688 20.92-9.59c0 .015-.003.026-.005.039l-.032.088-1.391.685c.159.344 1.698 3.63 1.863 3.982a51.75 51.75 0 0 0 1.9-.95c-.16-.291-.75-1.403-.75-1.403l.197-.104c.996-.533 1.623-.9 2.437-1.392l.187-.114s.652 1.07.828 1.353c.121-.076.246-.157.246-.157a50.019 50.019 0 0 0 1.759-1.146l-.904-1.31.186-.126c.89-.61 1.415-1.013 2.212-1.622l.175-.134.141.171s.632.815.837 1.076c.615-.49 1.234-.999 1.682-1.379-.254-.294-2.628-3.037-2.877-3.322-.199.164-.886.737-1.211 1.005a1.438 1.438 0 0 1-.186.135l-.124-.171s-6.83-8.547-6.96-8.712l-42.312.001-7.103 8.887s-1.116-.927-1.381-1.145c-.246.286-2.623 3.028-2.876 3.322.45.382 1.07.892 1.684 1.381l.974-1.254.186.144c.794.608 1.32 1.008 2.205 1.618l.185.125-.905 1.311a54.168 54.168 0 0 0 2.008 1.303l.826-1.354.188.116c.811.49 1.442.857 2.436 1.39l.197.104-.746 1.403c.561.299 1.321.677 1.895.95.166-.352 1.702-3.636 1.864-3.98l-1.393-.68-.029-.088c-.003-.012-.008-.023-.008-.039 0-.096.141-.368 1.165-2.367l.101-.198.199.103c.437.224 1.457.718 2.013.97l1.02-2.294.203.093c.958.432 1.971.811 2.926 1.161l.204.075s-.705 2.011-.832 2.365c.652.219 1.521.501 2.25.709l.214.063-.812 2.833s-.086-.02-.221-.061l-1.435-.44c-.118.36-1.246 3.812-1.368 4.178 1.122.369 2.578.762 3.419.969l.372-1.546.212.049c.599.136 2.098.474 3.167.648l.219.034-.267 1.567c1.023.169 2.048.306 3.057.408l.157-1.577.22.02c1.152.109 2.071.173 2.81.192l.228.004-.066 1.593C-1.153-.007-.474 0 0 0m-2.061.405-.22-.011.064-1.586a45.752 45.752 0 0 1-2.398-.165c-.029.325-.153 1.584-.153 1.584l-.223-.021a50.733 50.733 0 0 1-3.53-.474l-.22-.036.269-1.57a60.145 60.145 0 0 1-2.756-.565L-11.6-.885l-.216-.053c-.839-.2-2.635-.679-3.883-1.102l-.208-.071 1.64-5.014 1.639.504.565-1.98a62.806 62.806 0 0 1-2.267-.725l-.212-.072.834-2.377a44.233 44.233 0 0 1-2.541-1.009l-1.022 2.296-.202-.088a53.535 53.535 0 0 1-2.043-.974c-.151.298-.787 1.539-.938 1.836l1.497.728-.091.2-2.146 4.582-.202-.094c-.647-.3-1.691-.818-2.317-1.161l-.193-.105.747-1.403a44.165 44.165 0 0 1-2.071-1.182l-.83 1.362-.63-.399c-.641-.406-1.439-.909-1.961-1.286l-.178-.126.901-1.307a46.73 46.73 0 0 1-1.876-1.379l-.977 1.259-.178-.139a65.829 65.829 0 0 1-2.042-1.677l-.169-.146 3.454-3.988 1.367 1.133 6.952-8.7h42.741s6.683 8.36 6.953 8.7l1.361-1.131.149.161 3.312 3.825-.17.146a68.859 68.859 0 0 1-2.043 1.677l-.174.139s-.78-1-.98-1.259c-.65.497-1.156.879-1.877 1.379l.902 1.307-.178.126c-.522.377-1.32.88-1.961 1.286l-.631.399-.116-.193-.713-1.169c-.673.406-1.261.746-2.072 1.182l.747 1.403-.192.105a50.14 50.14 0 0 1-2.319 1.161l-.199.094-2.241-4.78s1.2-.588 1.496-.736c-.147-.291-.789-1.536-.94-1.831-.575.286-1.624.791-2.037.97l-.205.088-1.017-2.296c-.848.374-1.711.706-2.544 1.011.123.343.838 2.376.838 2.376l-.212.072c-.403.137-1.381.467-2.27.73.089.318.471 1.651.564 1.979l1.638-.504.068.206 1.573 4.807-.208.072c-1.249.423-3.045.902-3.882 1.102l-.217.053s-.296-1.235-.371-1.554c-.644.145-1.815.403-2.756.565.053.326.268 1.568.268 1.568l-.22.037c-1.179.202-2.366.36-3.529.473l-.222.023-.157-1.584c-.949.087-1.738.14-2.395.163.01.33.063 1.588.063 1.588l-.22.011C1.412.432.737.445 0 .445a47.35 47.35 0 0 1-2.061-.04" style="fill:#231f20;fill-opacity:1;fill-rule:nonzero;stroke:none" transform="matrix(1.7181 0 0 -1.7181 72.75 .765)" clip-path="url(#l)"/>
    <path d="M0 0c1.042.25 2.102.466 3.161.646.056-.317.123-.712.145-.844A44.086 44.086 0 0 1 .2-.83c-.029.129-.123.515-.2.829Zm.192-1.059c.964.237 2.02.45 3.222.653l.148.028-.236 1.381-.217.011-.045-.159A49.148 49.148 0 0 1 .015.231C-.03.286-.102.367-.102.367L-.294.269l.332-1.365ZM9.343 1.29h.003c.016-.324.029-.722.034-.854V.435A47.77 47.77 0 0 1 6.625.248l-.084.849c.924.09 1.87.155 2.802.193M6.641.026c.912.089 1.837.152 2.75.187l.223.014-.058 1.4-.213.044-.076-.164c-.896-.037-1.8-.099-2.686-.184-.037.06-.089.15-.089.15l-.208-.067.142-1.395Zm6.597 1.264a50.058 50.058 0 0 0 2.799-.193h.007c-.028-.321-.069-.718-.082-.851l-.011.002c-.908.088-1.83.151-2.744.187.005.135.018.529.031.855M15.93.026l.231-.022.18 1.819-.241-.35-.107-.15c-.889.085-1.793.149-2.686.184-.029.065-.064.157-.064.157l-.214-.037-.053-1.408.209-.006A46.67 46.67 0 0 0 15.93.026m3.495.62A48.673 48.673 0 0 0 22.57.001l.014-.004-.202-.828-.013.002a47.891 47.891 0 0 1-3.09.631c.024.131.09.522.146.844m2.892-1.692.231-.053.435 1.805s-.376-.419-.427-.474a49.842 49.842 0 0 1-3.038.622l-.04.16-.22-.006-.236-1.383.21-.041a45.168 45.168 0 0 0 3.085-.63m18.068-8.475a47.863 47.863 0 0 1-2.17 1.6l.485.705a47.725 47.725 0 0 0 2.212-1.625zm-4.243 2.95.451.731c.652-.4 1.294-.816 1.924-1.25l-.488-.706c-.619.423-1.247.833-1.887 1.225m-2.579 1.484.404.76c.828-.44 1.638-.906 2.438-1.395l-.452-.729c-.783.478-1.58.932-2.39 1.364m9.286-5.344.146.169c-.581.5-1.184.994-1.787 1.467l.066.106-.155.116-.069-.091a47.862 47.862 0 0 1-2.224 1.632l.054.078-.183.126-.055-.079a46.51 46.51 0 0 1-1.945 1.264l.058.117-.17.094-.063-.1c-.802.491-1.619.959-2.451 1.401l.05.091-.177.101-.056-.094c-.67.354-1.365.7-2.05 1.022l-.096-.2a47.96 47.96 0 0 0 2.03-1.013l-.406-.759c-.646.343-1.3.675-1.963.987l-.096-.202a47.09 47.09 0 0 0 10.837-7.049l.146.169c-.568.49-1.145.96-1.73 1.42l.527.68c.598-.47 1.187-.954 1.762-1.453m-31.563-2.97a33.36 33.36 0 0 1-20.364-6.898c-.008-.007-.034-.015-.024-.019l40.802-.016c-.013.008-.024.017-.037.027a33.347 33.347 0 0 1-20.377 6.906m23.795 1.689c-.173-.262-2.104-3.097-2.498-3.674a36.67 36.67 0 0 1-1.19.774c.352.573 2.122 3.443 2.338 3.778a.803.803 0 0 0 1.114.234.801.801 0 0 0 .236-1.112m-6.296-1.404.928 1.805a39.76 39.76 0 0 0 2.419-1.361 376.14 376.14 0 0 1-1.049-1.742c-.756.461-1.522.892-2.298 1.298M15.143-9.063l.202 2.031a40.1 40.1 0 0 0 6.841-1.298l-.556-1.95c-2.11.592-4.277.998-6.487 1.217m-.222.021c-.284.026-.567.05-.85.069.037.288.132 1.086.182 2.033.292-.021.581-.046.869-.072zm4.149 4.01-.425-2.249a40.658 40.658 0 0 1-4.382.564c.013.306.024.621.024.938 0 .497-.124.963-.333 1.374a42.363 42.363 0 0 0 5.116-.627m-7.787 2.259a3.006 3.006 0 0 1-2.538-1.401c-.519-.03-1.042-.07-1.561-.12l-.225 2.273c1.433.137 2.88.208 4.327.208 1.451 0 2.896-.071 4.329-.208l-.225-2.273c-.522.051-1.046.091-1.571.121a3.001 3.001 0 0 1-2.536 1.4m2.44-6.173c-.808.048-1.619.074-2.437.074-.806 0-1.607-.026-2.404-.073a17.832 17.832 0 0 0-.126 1.932 2.53 2.53 0 1 0 5.063 0c0-1.06-.064-1.688-.096-1.933M8.279-5.779c0-.271.013-.598.032-.937a41.03 41.03 0 0 1-4.383-.565l-.424 2.248a42.41 42.41 0 0 0 5.108.628 2.989 2.989 0 0 1-.333-1.374m-.626-3.263-.202 2.03c.293.026.581.051.873.074.058-.858.149-1.743.175-2.035a47.419 47.419 0 0 1-.846-.069M.945-10.281l-.556 1.95a39.943 39.943 0 0 0 6.842 1.299l.199-2.031a37.685 37.685 0 0 1-6.485-1.218m-9.451-4.134c-.152.253-.58.965-1.051 1.743.789.481 1.597.934 2.419 1.361l.928-1.807a37.443 37.443 0 0 1-2.296-1.297m-1.502-.973c-.392.577-2.326 3.414-2.498 3.676a.804.804 0 0 0 .236 1.112.802.802 0 0 0 1.113-.234c.219-.335 1.986-3.206 2.339-3.778-.401-.25-.797-.508-1.19-.776m45.735 3.886c.368.568.21 1.329-.361 1.699a1.227 1.227 0 0 1-1.7-.359c-.027-.041-.064-.103-.111-.178a42.666 42.666 0 0 1-2.692 1.515l-.101-.199a43.284 43.284 0 0 0 2.676-1.505c-.286-.461-.748-1.218-1.193-1.952a40.135 40.135 0 0 1-4.61 2.421l-.089-.202a41.295 41.295 0 0 0 1.968-.949l-.928-1.804a37.21 37.21 0 0 1-6.742 2.672l.556 1.949a39.993 39.993 0 0 0 2.221-.705l.073.209c-1.9.671-3.85 1.19-5.831 1.567l.427 2.252a42.868 42.868 0 0 0 3.693-.875l.06.213a42.534 42.534 0 0 1-7.431 1.418l.226 2.273a44.896 44.896 0 0 0 7.842-1.496l.122.427a45.557 45.557 0 0 1-12.516 1.743c-5.57 0-9.756-.956-12.503-1.739l.123-.428a45.018 45.018 0 0 0 7.83 1.493l.228-2.273A42.682 42.682 0 0 1-.474-5.733l.061-.214c1.22.346 2.453.639 3.698.874l.426-2.251a39.942 39.942 0 0 1-5.818-1.562l.074-.21c.729.258 1.465.488 2.208.702l.556-1.949a37.303 37.303 0 0 1-6.744-2.672l-.927 1.804c.649.332 1.306.653 1.968.947l-.091.204a40.38 40.38 0 0 1-4.608-2.423 410.62 410.62 0 0 1-1.192 1.954 43.32 43.32 0 0 0 2.667 1.5l-.103.197a41.946 41.946 0 0 1-2.68-1.508 3.525 3.525 0 0 1-.115.178 1.229 1.229 0 0 1-2.058-1.34l.118-.174a44.22 44.22 0 0 1-2.403-1.786l.14-.175a43.724 43.724 0 0 0 2.388 1.778c.3-.439.805-1.172 1.299-1.883a40.27 40.27 0 0 1-2.269-1.687l.14-.174a39.46 39.46 0 0 0 2.255 1.679c.515-.743.991-1.426 1.166-1.677a38.944 38.944 0 0 1-2.138-1.592l.14-.174c6.762 5.411 14.924 8.273 23.602 8.273 8.682 0 16.845-2.862 23.609-8.275l.138.174c-.697.56-1.412 1.09-2.138 1.594.172.251.649.935 1.163 1.677a39.155 39.155 0 0 0 2.257-1.679l.138.176a40.466 40.466 0 0 1-2.268 1.685c.492.711 1.001 1.444 1.301 1.883a46.105 46.105 0 0 0 2.393-1.783l.14.174a43.309 43.309 0 0 1-2.409 1.792c.053.076.094.137.117.174m-49.094 5.06-.447.729c.797.486 1.61.951 2.434 1.393l.401-.755a47.552 47.552 0 0 1-2.388-1.367m-2.086-1.349-.485.703c.633.436 1.279.855 1.935 1.259l.447-.727a50.87 50.87 0 0 1-1.897-1.235m-2.342-1.71-.524.675a48.226 48.226 0 0 0 2.199 1.612l.485-.705a46.646 46.646 0 0 1-2.16-1.582m8.981 5.51a47.373 47.373 0 0 1-1.967-.98l-.402.754a48.3 48.3 0 0 0 2.012 1.003l-.093.202a48.284 48.284 0 0 1-2.035-1.02l-.063.095-.174-.091.052-.095a48.951 48.951 0 0 1-2.448-1.402l-.053.085-.188-.116.05-.084a49.212 49.212 0 0 1-1.941-1.264l-.051.074-.183-.127.051-.075a46.798 46.798 0 0 1-2.209-1.619l-.063.083-.177-.137.065-.083a45.777 45.777 0 0 1-1.803-1.489l.146-.169c.585.51 1.186 1.002 1.794 1.481l.524-.674a49.021 49.021 0 0 1-1.764-1.457l.145-.168A47.115 47.115 0 0 0-8.72-4.192zm-.725-2.408a45.732 45.732 0 0 1-7.61-4.94l.279-.348a45.217 45.217 0 0 0 7.536 4.891zm41.454-.398a45.267 45.267 0 0 0 7.516-4.877l.278.348a45.625 45.625 0 0 1-7.59 4.924zM11.4-10.418a37.026 37.026 0 0 0 6.541-.598l-.14-.747a36.302 36.302 0 0 1-6.401.585zm6.761-.638a35.613 35.613 0 0 0 6.475-1.867l-.278-.707a35.194 35.194 0 0 1-6.337 1.829zm12.837-5.133-.413-.639a35.364 35.364 0 0 1-6.02 3.119l.281.705a36.1 36.1 0 0 0 6.152-3.185m-4.165-.236a33.329 33.329 0 0 1-6.044 2.396l.358 1.254a34.731 34.731 0 0 0 6.285-2.488zm-12.069 3.549.13 1.297a35.337 35.337 0 0 0 6.041-1.133l-.361-1.254a33.984 33.984 0 0 1-5.81 1.09m-.219.021a34.23 34.23 0 0 1-6.513-.006l-.13 1.303a36.187 36.187 0 0 0 6.77 0zm-12.54-1.137-.364 1.279c1.961.551 3.983.93 6.038 1.134l.131-1.304a34.247 34.247 0 0 1-5.805-1.109m-6.256-2.45-.605 1.178a34.726 34.726 0 0 0 6.284 2.489l.363-1.279a34.577 34.577 0 0 1-6.042-2.388m-3.76-.386-.41.638a36.067 36.067 0 0 0 6.152 3.186l.278-.706a35.468 35.468 0 0 1-6.02-3.118m12.427 5.772.139-.747a34.954 34.954 0 0 1-6.339-1.827l-.278.707a35.886 35.886 0 0 0 6.478 1.867m6.762.638v-.76a36.339 36.339 0 0 1-6.405-.585l-.14.747c2.136.39 4.32.591 6.545.598m-22.946-7.634.278-.346a37.559 37.559 0 0 0 2.881 2.085l.413-.637a37.037 37.037 0 0 1-2.821-2.044l.139-.174a35.876 35.876 0 0 0 5.825 3.803l.604-1.178a33.965 33.965 0 0 1-5.657-3.677l.139-.173c6.084 4.884 13.434 7.468 21.253 7.468 7.799 0 15.133-2.571 21.208-7.431l.141.172a34.443 34.443 0 0 1-5.603 3.658l.595 1.161a35.806 35.806 0 0 0 5.832-3.807l.138.174a35.89 35.89 0 0 1-2.827 2.048l.413.637a37 37 0 0 0 2.888-2.089l.278.346c-6.607 5.289-14.58 8.083-23.063 8.083-8.475 0-16.447-2.794-23.054-8.079" style="fill:#231f20;fill-opacity:1;fill-rule:nonzero;stroke:none" transform="matrix(1.7181 0 0 -1.7181 53.301 5.953)" clip-path="url(#m)"/>
    <path d="M0 0c-.008-.061-.003-.12.058-.128.062-.01.088.035.099.094.336 1.772-.584 2.742-.676 2.798-.045.028-.1.032-.131-.013-.029-.045.015-.089.052-.126C-.588 2.617.194 1.688 0 0m-1.793-.366c-.016-.061-.011-.115.047-.133.058-.017.09.027.108.087.624 1.873-.441 2.688-.487 2.722-.048.037-.098.055-.135.008-.036-.049.006-.1.053-.139.037-.031.862-.802.414-2.545m-1.976 2.129c.007-.007.744-.607.327-2.449-.013-.06-.013-.119.048-.133.061-.016.096.026.112.085.604 1.996-.372 2.618-.411 2.643-.05.032-.108.041-.141-.01-.034-.052.018-.093.065-.136M-5.19-1.028c-.016-.059-.01-.109.048-.126.058-.02.092.017.11.075.608 1.756-.218 2.513-.254 2.544-.042.042-.092.062-.134.019-.045-.044-.016-.103.026-.147.008-.006.642-.759.204-2.365m-1.68 2.12c-.047-.038-.026-.091.013-.139.003-.007.483-.767.008-2.326-.015-.058-.021-.116.037-.135.056-.022.094.023.115.08.653 1.68-.018 2.457-.046 2.49-.037.047-.079.067-.127.03M-8.431.689c-.05-.034-.04-.088-.005-.14.025-.034.487-.901-.061-2.234-.024-.057-.032-.113.024-.138.056-.024.093.021.122.076.726 1.472.074 2.349.048 2.387-.032.052-.077.084-.128.049M-9.907.294C-9.959.265-9.949.204-9.92.15c.021-.035.388-.89-.23-2.174-.027-.055-.037-.109.018-.138.057-.028.096.005.125.058.8 1.37.252 2.302.231 2.341-.029.054-.074.086-.131.057m-1.449-.395c-.058-.02-.055-.079-.034-.137.002-.01.262-.953-.294-2.083-.029-.056-.034-.111.018-.14.056-.029.097.01.128.063.726 1.247.315 2.185.302 2.224-.024.058-.063.095-.12.073m-1.422-.368c-.054-.032-.043-.088-.01-.141.018-.032.386-.784-.196-1.966-.027-.055-.035-.11.018-.139.053-.031.097.006.129.059.763 1.269.212 2.091.188 2.127-.031.051-.076.09-.129.06m-1.394-.364c-.05-.031-.031-.09-.002-.143.018-.032.346-.791-.186-1.883-.026-.055-.037-.115.018-.144.053-.029.094.007.126.06.728 1.228.189 2.02.168 2.054-.029.052-.071.087-.124.056M6.115-33.72l-.567.103c-.066.011-.128.017-.188.027a43.672 43.672 0 0 1 3.537 3.7.077.077 0 0 1 .016.007l-.002.006a34.86 34.86 0 0 1 2.392 3.181c.418.632.782 1.232 1.094 1.79.186-.163.369-.309.509-.396-1.301-2.365-3.4-5.281-6.791-8.418m-4.066-1.486c-.011-.044-.016-.087-.025-.131-.465.228-2.137.941-2.808-.164a.958.958 0 0 1-.09-.211c-.188.119-1.007.602-1.695.456a1.01 1.01 0 0 1-.668-.473.938.938 0 0 1-.157-.487c-1.096.206-1.947.512-2.771.805-.018.009-.039.016-.058.023 4.61.536 8.791 1.411 12.14 2.542a59.045 59.045 0 0 0-.753-.716c-1.935.203-2.92-.84-3.115-1.644m-8.604-.065c-1.3.461-2.739.898-5.234.94.013.023.029.042.044.067.032.053.061.101.093.149 8.234.475 15.389 1.921 20.217 4.075a41.575 41.575 0 0 0-2.396-2.556c-3.461-1.203-7.859-2.127-12.724-2.675m-6.461.41a.523.523 0 0 0-.311.417c-.032.253.065.536.199.653.034.028.068.058.042.091-.029.032-.06.011-.092-.016a.79.79 0 0 1-.249-.331c-9.208-.367-18.35.558-24.583 2.479l3.955.663c3.932-.803 7.402-1.315 10.599-1.568a69.392 69.392 0 0 1 10.029-.067c.763.051 1.499.17 2.199.356a2.57 2.57 0 0 1 .215-.284l-.639-.756-.016-.02v-.097a5.913 5.913 0 0 1-.191-.151l-.029-.022c-.169-.131-.469-.186-.659-.049-.096.067-.175.148-.173.236.003.041-.013.078-.039.078-.044 0-.054-.027-.054-.069a.388.388 0 0 1 .175-.372c.249-.181.626-.116.846.05l.034.028c.622.522.779.44.803.419-.199-.09-.525-.33-.925-.991-.381-.631-.763-.859-1.136-.677m-.469.495c-2.186-.131-3.485-.596-4.735-1.045-.4-.145-.805-.29-1.24-.424-6.931.148-13.369 1.016-18.146 2.448-.453.555-.88 1.114-1.275 1.672l.53.089c6.242-1.983 15.524-2.947 24.882-2.578a.78.78 0 0 1-.016-.162m-10.687-2.115c-2.982 0-4.497.543-5.962 1.07-.491.178-.989.357-1.543.517 3.547-.602 7.542-.973 11.727-1.083-1.062-.29-2.356-.504-4.222-.504m-11.993 2.156c-.218 0-.431-.005-.639-.01-.217.243-.426.49-.632.738a45.193 45.193 0 0 1 3.279-.823 20.17 20.17 0 0 1-2.008.095m-1.686-.068a31.265 31.265 0 0 0-1.912 2.53l.71.119c.612-.869 1.3-1.743 2.048-2.596-.292-.011-.572-.03-.846-.053m-1.091-.124c-.167.195-.878 1.034-1.876 2.477l.887.15a30.334 30.334 0 0 1 1.893-2.519c-.31-.029-.612-.063-.904-.108m-2.016 2.68-.001.002-3.097-.524-.856-.137a.295.295 0 0 0-.329.23.285.285 0 0 0 .052.19c.05.071.127.114.227.124l.776.121 2.746.428 8.364 1.304 2.787.423a5.288 5.288 0 0 1 .003-.371l-.03-.005zm-3.211-.802c-.056-.077-.259-.336-.599-.384-.258-.037-.529.06-.806.289-.483.396-.633.952-.633 1.462 0 .505.149.963.268 1.178l.035.064c.235.43.945 1.715 2.363 2.29l.365-.782c-.23-.169-.94-.698-1.377-1.207-.266-.308-.563-.769-.485-1.215.045-.268.218-.49.514-.66.021-.012.042-.029.065-.045l-.531-.081a.518.518 0 0 1-.469-.586c.045-.184.233-.445.575-.4l.735.116c-.007-.012-.012-.027-.02-.039m2.528 1.429c-.288-.043-2.427-.377-2.525-.393-.062.06-.138.131-.247.193-.234.134-.371.304-.407.504a.623.623 0 0 0-.008.106c0 .35.271.724.444.926.4.466 1.063.967 1.309 1.149.485-.96.983-1.767 1.434-2.485m-2.521 5.917c.268-.14.763-.387 1.282-.635.116-.419.732-2.431 2.391-5.1l-.912-.144c-.481.762-1.019 1.623-1.536 2.661l-.447.961c-.012.026-.544 1.25-.778 2.257m2.913-1.319c.03-.075.521-1.244.714-1.701l-.566.158.057-.146c.006-.009.401-1.018 1.419-2.595l-.697-.107c-1.539 2.467-2.186 4.374-2.37 4.985.561-.262 1.119-.507 1.443-.594m4.832-3.782-3.038-.475a21.568 21.568 0 0 0-.853 1.419c1.327-.343 2.63-.66 3.891-.944m-3.916 1.865c.452-.12 3.05-.79 6.577-1.452l-2.245-.349c-1.421.318-2.901.675-4.406 1.066-.22.411-.357.711-.429.873l.501-.141zm10.076-1.823-.266.04.256.042c.002-.025.007-.055.01-.082m.582-.953c.361-.084 1.035.161 1.614.425.03.021.084-.002.107-.006 1.502-.212 2.694-.351 3.478-.407.016-.207.104-.668.605-.986-2.962.252-6.163.726-9.75 1.447l2.608.438.783-.12c.074-.366.23-.713.555-.791m-.459 1.66.006.08c.001.011.054.883.193 1.279.104.297.493.534.498.538l.121.073c.415-.08 1.069-.452 1.398-.781l.184-.185-.18.866c.178-.09.663-.413.683-1.199l-1.325-.206c-.041.333-.227.521-.229.524a.078.078 0 0 1-.11-.002.075.075 0 0 1 .002-.109c.023-.025.578-.587-.297-1.575a.076.076 0 0 1 .009-.109.075.075 0 0 1 .107.006c.222.249.354.476.434.679.479-.011 1.16.115 1.346.152a.617.617 0 0 0 .203-.438.444.444 0 0 0-.029-.174c-.151-.087-1.905-1.073-2.518-.926-.462.108-.516 1.039-.496 1.507m.793 2.576.07.264c.061.28.151.703.409.845.298.161.733-.015.966-.11l.201-.057.133.021c-.061-.061-.133-.125-.199-.184l-.031-.031-.007-.001c-.012-.009-.985-.785-1.85-1.05.15.108.262.203.308.303m1.354-1.12c-.442.357-1.186.748-1.573.681.153.049.309.113.461.185.49-.303.814-.377 1.007-.38h.005l.1-.486m.258 1.279-.117-.009.013-.116a1.73 1.73 0 0 0 .017-.242.466.466 0 0 0-.019-.17c-.045-.045-.101-.071-.126-.083-.086-.025-.375-.06-.97.288a8.01 8.01 0 0 1 1.144.733l.021-.24.004.003.11-.15a.617.617 0 0 0-.077-.014m.495-2.538-.005.003-.038-.007c-.008-.002-.782-.16-1.313-.16.018.072.031.143.038.207l1.323.206c0-.04-.005-.197-.005-.249m.226.347.047.037c.038.019.06.024.067.019.003-.002.005-.008.01-.012.001-.006.005-.008.008-.013a.393.393 0 0 0 .018-.153l-.015-.237.153.182c.199.234.308.304.465.297.147-.008.237-.057.269-.145.045-.131-.042-.331-.148-.423-.05-.044-.318-.259-.803-.478a.751.751 0 0 1-.147.416.08.08 0 0 1 .012.046c-.018.151-.006.373.064.464m2.335 2.054-.351-1.586-1.044-.17c-.026-.004-.137-.025-.178-.023a.422.422 0 0 1-.264-.072c-.006.002-.276-.041-.276-.041a.065.065 0 0 1-.008.009c.376.304 1.147.951 2.121 1.883m-.306-2.113.057.258c.032-.022.057-.046.06-.07l.002-.011c0-.028-.021-.083-.087-.172l-.032-.005m.509 2.311a39.21 39.21 0 0 1 3.296 3.638l-.347-2.11c-.024.003-.047.008-.076.01a.402.402 0 0 1-.385-.207c-.082-.141-.063-.315.046-.464a.627.627 0 0 0 .101-.458c-.039-.023-.086-.065-.079-.126v-.002c0-.003-.002-.003 0-.004v-.008c.011-.066.189-1.306.281-1.71.083-.369.984-1.22 1.289-1.501l-.1-.912a64.393 64.393 0 0 0-4.9-.12l.315 1.427.206.037.027.033c.127.152.176.279.154.396-.025.129-.133.206-.228.263zm1.99 8.842c.198.225.474.478.603.459.011-.002.037-.004.058-.058.011-.031.048-.122-.095-.23a1.036 1.036 0 0 0-.566-.171m-.084-.167.009.02c.196-.032.533.047.728.189.16.118.214.265.152.418-.045.112-.123.145-.179.154-.186.026-.442-.19-.621-.375l3.633 16.52c.378-.403.731-.817 1.054-1.247l-3.314-20.268a38.71 38.71 0 0 0-3.283-3.691zm-.77-.5c-.062-.011-.109.01-.148.07a.123.123 0 0 0-.026.071c0 .014.002.025.008.035.057.137.402.246.681.304-.106-.181-.334-.447-.515-.48M-25.18 2.194l1.645.439c1.687-1.194 3.264-2.4 4.56-3.746l-3.622-16.483zm-.455.108a.578.578 0 0 1 .045.221.744.744 0 0 1-.037.235.71.71 0 0 1-.234.35c1.25.356 5.947 1.689 8.335 2.365l-.207-.943-5.814-1.669Zm-.157.014a.305.305 0 0 0-.057-.072l-.057-.016c-.028-.007-.277-.059-.398.303-.122.372.102.478.13.49 0 0 .036.008.104.028.12-.034.241-.165.295-.339a.538.538 0 0 0-.017-.394m8.436 3.206 1.104.314.04-.871-1.351-.386zm.941 4.277c.073-1.735.152-3.642.158-3.733a572.83 572.83 0 0 1-1.044-.298zm.283 2.86c.05 0 .1-.037.15-.101.003-.025.052-.776.112-1.758a.952.952 0 0 0-.364-.028c-.042.995-.073 1.754-.076 1.786.037.041.103.101.178.101m.273-2.016c.002-.051.005-.101.01-.154a1.107 1.107 0 0 0-.183-.03.917.917 0 0 0-.188.005l-.008.15a1.04 1.04 0 0 1 .369.029m.031-.507a.915.915 0 0 0-.183-.03c-.079-.005-.142 0-.196.006l-.008.194a1.06 1.06 0 0 1 .374.028l.013-.198m.249-3.971.005-.074c0-.041.003-.064.003-.064l.109-1.662c-.18-.055-.35-.07-.501-.063l-.066 1.597h.002s-.095 2.187-.171 4.054c.063-.007.132-.007.2-.003.057.005.118.015.181.031.095-1.554.207-3.322.238-3.816m.816-1.553a.429.429 0 0 0 .305-.426c0-.021 0-.044-.002-.065-.088-.116-.841-1.035-2.285-.426-.01.036-.029.104-.029.197a.41.41 0 0 0 .231.387 1.643 1.643 0 0 1 1.78.333m9.065 4.221c.007.003.163.058.293-.007.077-.038.135-.116.173-.231a.799.799 0 0 0 .045-.242c0-.216-.162-.268-.409-.346l-.145-.044-9.554-2.735-.056.861zm-9.674-18.618c.05.88.013 1.701-.104 2.473l-.447 10.651c.193-.009.365.008.525.043l2.317-35.666a8.247 8.247 0 0 0-.359-.033 66.97 66.97 0 0 0-.983-.055zm-.395-21.197-.074.086-.053-.101c-.257-.486-.869-.633-1.208-.678l.034 1.096 2.335.278.087-2.085c-.325-.015-.649-.025-.972-.039.543.636-.144 1.435-.149 1.443m-1.72-.85a.82.82 0 0 1 .189-.017c.183.008 1.07.083 1.476.686.094-.13.262-.399.262-.694a.722.722 0 0 0-.252-.545c-.008-.009-.013-.02-.018-.031a72.533 72.533 0 0 0-1.678-.03zm-.635.423-.45.199a.342.342 0 0 1-.165-.009v.015c-.341 1.347-.061 2.135-.058 2.143a.077.077 0 0 1-.047.101.077.077 0 0 1-.099-.047c-.013-.033-.302-.837.053-2.235 0-.006.005-.013.01-.018l-.055-.019c-.158-.05-.352-.112-.577-.147a1.839 1.839 0 0 0-.776.056l.174 1.577-.028.028-.04.036.198 1.775c.379.032.642.133.76.187.139-.303.273-.626.276-.685l.005-.05.045-.035c.077-.029.08-.027.466.695.12.018.485.082.737.159l-.239-.343a.078.078 0 0 1 .019-.108c.038-.023.085-.015.109.02l.299.428-.129-3.943a3.532 3.532 0 0 0-.488.22m-3.325 4.763c.089.017.191.042.266.075.079-.37.358-1.348 1.041-1.387l-.182-1.641c-.415.39-1.099 1.074-1.159 1.343-.077.331-.214 1.261-.261 1.585a1.27 1.27 0 0 1 .295.025m.118 1.082a.15.15 0 0 0 .03-.105c-.008-.061-.061-.09-.085-.102a.176.176 0 0 0-.166.01.078.078 0 0 1-.09-.127.315.315 0 0 1 .28-.036l.088-.514a1.19 1.19 0 0 0-.205-.055 1.241 1.241 0 0 0-.211-.023c.026.135.05.39-.123.626-.072.1-.087.208-.037.297a.25.25 0 0 0 .239.126c.136-.011.236-.045.28-.097m1.999 4.904-.623-5.601c-.103-.049-.175-.118-.18-.207l.068-.161c.018-.02.042-.038.066-.058l-.123-1.116c-.629.028-.876 1.107-.922 1.347a.105.105 0 0 1 .003.047c-.008.043-.041.073-.094.088l-.08.485a.286.286 0 0 1 .068.152.285.285 0 0 1-.06.217.35.35 0 0 1-.164.108l.394 2.399a33.52 33.52 0 0 1 1.647 2.3m1.672 17.993c.098-.134.19-.27.281-.407l-1.897-17.092a32.605 32.605 0 0 0-1.628-2.334zm.32-.052c-.085.123-.178.243-.27.366l.957 5.846.005-.003zm.628-.994a11.13 11.13 0 0 1-.493.792l.705 6.36a.095.095 0 0 1 .023-.005zm.366-.717c-.069.149-.144.296-.218.439l.241 7.384c.006 0 .011-.002.014-.003zm.079-20.31a.256.256 0 0 0 .162-.174c.031-.097.021-.204-.027-.271-.125-.167-.13-.375-.135-.528v-.016c-.045-.001-.103 0-.189.013-.06.009-.108.024-.15.036l.095.449c.021 0 .042-.004.067-.003.045.006.074.043.069.085a.078.078 0 0 1-.086.071c-.124-.012-.176.03-.19.151a.16.16 0 0 0 .061.139c.074.064.204.083.323.048m-1.759-2.218c.223.048.403.118.501.208l.052.096-.024-.686a.408.408 0 0 0-.092-.14c-.135-.069-.471-.139-.694-.179.157.176.257.429.257.701m-1.526.064c.008-.257.116-.522.283-.72a2.114 2.114 0 0 0-.699-.182l.113 1.02c.086-.044.189-.084.303-.118m.016.58a.535.535 0 0 1 .066-.149.08.08 0 0 1 .112-.025c.039.022.047.072.026.109-.114.181-.059.355.008.469.121.205.347.342.474.334a.6.6 0 0 0 .506-.306.569.569 0 0 0 .011-.547.08.08 0 0 1 .031-.109.083.083 0 0 1 .111.033.74.74 0 0 1 .054.142c.405-.085.532-.196.532-.229l-.026-.04c-.078-.067-.246-.131-.469-.176l-.01.003a.075.075 0 0 1-.032-.01 3.12 3.12 0 0 0-1.296.058.075.075 0 0 1-.037.009 1.675 1.675 0 0 0-.36.144l.024.225c.065.023.152.047.275.065m2.398 9.693-.33-9.887c-.086.162-.407.257-.645.306a.732.732 0 0 1-.088.399.765.765 0 0 1-.638.389c-.202.01-.482-.175-.623-.415a.667.667 0 0 1-.098-.324c-.077-.014-.157-.028-.23-.05l.648 5.836a26.985 26.985 0 0 1 2.004 3.746m.018.63a25.979 25.979 0 0 0-1.965-3.868l1.838 16.578c.188-.291.361-.59.519-.897zm.169.43.369 11.085c.082-.172.162-.347.233-.527l-.039-8.935a25.264 25.264 0 0 0-.563-1.623m.29-9.628-.075-.357a.157.157 0 0 1-.108-.057.067.067 0 0 1-.024-.031 19.119 19.119 0 0 0-.459-1.32l.355 10.738c.064.153.128.304.188.458.141.372.268.733.39 1.089l-.044-9.903a.463.463 0 0 1-.253-.096.317.317 0 0 1-.116-.273c.013-.12.065-.202.146-.248m-1.969-2.697-.212-.383a7.768 7.768 0 0 1-.183.442.556.556 0 0 1 .27-.079.74.74 0 0 1 .125.02m-.127.137c-.103-.003-.22.053-.328.157a1.044 1.044 0 0 0-.306.656 3.332 3.332 0 0 1 1.205-.049c-.007-.433-.299-.757-.571-.764m1.531-2.777-.035-1.164a.672.672 0 0 0-.222.015l.143 4.304c.197.392.446 1.136.585 1.58.096-.046.226-.071.273-.078.088-.014.207-.026.3-.012.056-.376.14-1.705-.99-3.293l-.015-.019-.037-1.291c-.005-.012-.005-.023-.005-.034 0-.003.003-.005.003-.008m1.693 19.261.793-18.879-2.327-.277c.018.588.034 1.157.037 1.178.872 1.238 1.036 2.308 1.036 2.933 0 .273-.032.457-.048.536.005.044-.016.082-.066.115.005.128.021.271.1.382a.46.46 0 0 1 .052.412.414.414 0 0 1-.269.274c-.019.007-.04.008-.058.011l.047 10.397c.327 1.037.56 2.006.703 2.918m-.659 6.498.039 8.129h.006l.391-9.372c-.121.429-.265.844-.436 1.243m.498-2.664.095-2.304c-.058-1.122-.262-2.338-.634-3.666l.038 7.998c.23-.638.397-1.311.501-2.028m-3.223 6.585c-1.27 1.291-2.794 2.455-4.422 3.61l5.565 1.592zm1.312 5.251 1.396.4.02-.474c-.189.038-.314.099-.327.105l-.034.017-.032-.014c-.416-.182-.377-.625-.299-.833l.01-.03.029-.013c.013-.005.027-.008.04-.015l-.938-5.73c-.323.413-.674.813-1.046 1.199zm-2.774-35.911c.249-.077.554-.123.888-.074.238.035.442.101.603.154.112.037.236.076.272.065l.42-.188c.178-.088.369-.184.555-.243l-.026-.671a64.47 64.47 0 0 0-2.812.045zm-4.819 2.084-.308-1.4c-.848.019-1.477.053-1.863.08l-.311.042c.363.182.633.334.662.353l.022.012.009.023c0 .002.019.042.033.11.002 0 .005 0 .01.003.426.183.75.394.908.532.04.033.076.075.107.125.01 0 .018-.003.026 0zm-.644.347a.3.3 0 0 1-.039.078l.805.131-.069-.323a93.489 93.489 0 0 1-.688-.116.436.436 0 0 1-.009.23m5.311-2.38-.106-.959c-.585.022-1.176.052-1.767.09.052.13.216.401.657.424.37.021.572.164.676.283a.694.694 0 0 1 .154.35c.085-.054.219-.124.386-.188m-.402.384-.135.102.011-.17a.51.51 0 0 0-.131-.377c-.121-.137-.311-.214-.567-.228-.574-.03-.763-.43-.812-.569-.279.02-.559.037-.84.061-.904.304-.853 1.022-.85 1.052l.01.114-.114.008c-.281.018-.625.05-1.02.092v.007c1.23-.02 2.891-.003 4.917.12l-.048-.435c-.256.103-.415.22-.421.223M7.183-4.654c2.729-4.026 3.327-9.577 3.46-11.992a.324.324 0 0 1-.183-.001c-.158-.041-.249-.241-.296-.398-.064-.007-.103-.034-.116-.079l-.012-.03.002-.01c-.524-.579-1.069-3.155-1.019-3.632h.008c-.567-.974-1.317-2.395-1.303-2.619.005-.108.18-.243.421-.375-.037-.166-.138-.71-.07-1.164a37.89 37.89 0 0 0-1.861-.741c.058.377.008.645-.149.789-.22.203-.554.118-.716.078l-.047-.012c-.154-.033-1.002-.367-1.274-.475-.003.051-.003.112-.003.181 0 .247.011.599.021.923.013.355.024.718.024.996 0 .157-.005.278-.016.363.173.149 1.345 1.214 1.345 2.456 0 .172-.021.344-.071.518a.087.087 0 0 1-.031.045l-.027.028c.04.12.085.282.077.412-.008.145-.024.481-.315.503a.294.294 0 0 1-.231-.081l.403 5.104c.003 0 .948 2.685 1.259 3.564l.023-.002a.305.305 0 1 1-.172.053L5.09-13.726l-2.613 2.332a.304.304 0 1 1-.103-.117l2.674-2.384c-.045-.543-.369-4.614-.419-5.246a.196.196 0 0 1-.095.043.162.162 0 0 1-.139-.059c-.026-.029-.102-.117.163-.662a.1.1 0 0 1-.03-.063v-.004c-.002-.012-.063-1.12-.683-1.757a.99.99 0 0 1-.249-.007c-.265-.028-.66-.064-.782.14.122.097.218.2.276.295.058.093.076.172.06.237-.042.183-.359.21-.649.194a.602.602 0 0 1-.116.304.6.6 0 0 1-.687.246c-.294-.084-.45-.357-.492-.562a.586.586 0 0 1 .002-.28c-.27-.107-.637-.296-.587-.505.015-.058.063-.114.145-.163.114-.071.292-.129.5-.159-.145-.225-.487-.79-.428-1.008l.111-.122c.01-.006.026-.011.039-.016a.771.771 0 0 1-.071-.229c-.356.266-.954.452-1.03.473a.126.126 0 0 1-.052.011c-.079.138-.2.293-.341.331-.063.016-.186.024-.291-.114-.112-.14-.154-.269-.131-.396a.464.464 0 0 1 .11-.208c-.125-.076-.377-.261-.475-.545-.119-.353-.408-.685-.511-.685-.045 0-.077-.035-.077-.08 0-.042.032-.076.077-.076.215 0 .535.432.659.791.091.268.364.437.445.482.014-.011.029-.023.045-.033-.013-.069.005-.108.03-.132v-.003c.135-.148.591-.436.729-.519.079-.048.148-.137.231-.237.142-.179.322-.402.666-.565h.003c-.034-.248-.142-1.241.204-1.66a.61.61 0 0 1 .157-.128c-.032-.1-.08-.358.005-.619a53.913 53.913 0 0 0-7.864-1.386c-.048.221-.265.446-.391.562.17.083.304.18.378.27.054.062.08.123.072.176-.013.138-.217.222-.61.247a.66.66 0 0 1-.233.522L2.673-6.65a.305.305 0 1 1-.249.301v-.009L.891-6.854a.302.302 0 0 1-.564-.183L-.86-7.42a.305.305 0 0 1-.571-.151c0-.009.003-.019.005-.03l-1.324-.427a.305.305 0 0 1-.566-.155c0-.008.002-.017.005-.027l-1.257-.404a.3.3 0 0 1-.254.137.307.307 0 0 1-.305-.304c0-.006.003-.01.003-.012l-1.163-.374a.305.305 0 0 1-.559-.169c0-.005.003-.008.003-.013l-1.086-.349a.315.315 0 0 1-.261.143.306.306 0 0 1-.304-.306l.002-.018-1.2-.387a.306.306 0 0 1-.553-.177s.002-.001.002-.003l-1.295-.416a.306.306 0 0 1-.562-.165.305.305 0 0 1 .61 0v.015c.264.087.712.231 1.287.416a.306.306 0 0 1 .265-.153c.167 0 .303.138.303.306v.029c.362.12.765.249 1.194.386a.302.302 0 0 1 .251-.137c.17 0 .306.137.306.304v.012c.349.114.713.232 1.085.351a.305.305 0 0 1 .563.162c0 .007-.004.013-.004.02l1.161.373a.303.303 0 0 1 .257-.144c.17 0 .308.137.308.306l-.003.019 1.256.406a.306.306 0 0 1 .556.173v.006l1.333.43a.306.306 0 0 1 .554.176v.002l1.2.387a.302.302 0 0 1 .548.177l1.539.496a.295.295 0 0 1 .065-.072C1.762-8.142-6.812-25.506-7.41-26.712c-.104.05-.223.069-.353.05-.302-.042-.495-.29-.569-.487a.606.606 0 0 1-.037-.269c-.322-.07-.657-.194-.657-.382 0-.09.092-.144.092-.144.08-.066.228-.138.421-.195l-.429-.551c-.506.427-1.345.297-1.555.257a.78.78 0 0 1-.071.199c.254.102.441.216.511.326 0 0 .05.072.034.146-.042.204-.448.217-.723.202a.716.716 0 0 1-.877.55c-.19-.039-.405-.283-.475-.541a.664.664 0 0 1-.01-.327c-.241-.107-.49-.273-.456-.439.02-.1.091-.118.091-.118.124-.081.394-.104.728-.076a.868.868 0 0 1 .106-.325c-.191-.142-.745-.582-.808-.975l-.564-.088-2.167 33.343c.561.198.852.596.855.602l.013.016v.02a.6.6 0 0 1-.448.693l-.042.01-.032-.031a1.609 1.609 0 0 0-.413-.299l-.04.614 9.477 2.714.042-.026c.078-.045 7.661-4.609 12.949-12.411m3.471-12.321a1.798 1.798 0 0 0-.087-.324c-.12.025-.225.071-.282.101.038.167.12.376.215.401.038.01.088.017.114-.006.027-.019.04-.071.04-.139zm.026-.529c0-.293-.063-.465-.124-.629l-.021-.061c-.284-.061-.445-.302-.589-.518l-.146-.207a.71.71 0 0 0-.19-.143c-.106-.062-.207-.124-.191-.223l.05-.072c.05-.037.173-.078.34-.116-.049-.069-.091-.183-.112-.371a.202.202 0 0 1-.071-.033c-.058-.039-.228-.296-.443-.656.074.766.522 2.737.952 3.243l.002-.003c.069-.047.157-.084.218-.106.002-.003.005-.005.01-.007l.037-.012.016-.005.029-.008a.915.915 0 0 1 .23-.05l.003-.023m.443-1.229c.087-.175.132-.267.275-.348l.032-.018.047-.031c-.058-.064-.163-.169-.265-.189a.172.172 0 0 1-.092-.049c-.66-.104-1.336.04-1.51.117.037.024.082.056.082.056.079.048.173.105.233.182l.152.214c.137.211.27.409.498.453l.031-.007c.006 0 .384-.101.517-.38m-1.137-.775a4.004 4.004 0 0 1 1.079-.029c0-.001-.003-.002-.003-.005 0-.033.006-.067.008-.096.003-.045.008-.087.008-.125 0-.131-.037-.228-.188-.302l-.008-.003c-.194.083-.695.257-1.025.248.029.229.1.295.129.301zm1.535-3.051c0-.216-.011-.452-.031-.708a1.103 1.103 0 0 1-.542-.255c-.939 1.653-.62 2.107-.427 2.378l.067.103a.075.075 0 0 1-.021.104.082.082 0 0 1-.112-.025l-.061-.092c-.217-.303-.572-.812.438-2.579a32.92 32.92 0 0 0-1.106-.566l-.002.001c-.336 0-1.809.595-1.846.793.002.248 1.612 3.236 1.835 3.399.144.1.752-.054 1.069-.187l.094-.064c.006-.006.645-.465.645-2.302m.118-1.265c-.005-.08-.029-.129-.071-.147-.085-.034-.199-.014-.299.051a.425.425 0 0 0-.196.302c.042.034.108.077.204.122.108.05.19.071.246.077a.682.682 0 0 0 .116-.405m-21.058-7.974s-.019-.001-.042-.005c.037.088.055.204.063.319.772.413 1.354.912 1.723 1.479 4.593.314 13.827 2.02 19.839 5.315a6.5 6.5 0 0 1 .117-.108 28.64 28.64 0 0 0-1.092-1.79c-6.359-3.077-16.525-4.667-20.608-5.21m-1.253-2.026c.01.009.88 1.034.88 1.034 0 .001.111.119.111.28v.028c-.008.099-.064.185-.148.267.04.059.121.186.14.212.039.008.106.03.106.03l.185.021c4.041.536 14.027 2.101 20.418 5.112a33.452 33.452 0 0 0-2.219-2.922c-4.789-2.212-12.004-3.699-20.341-4.19.042.058.084.114.123.162.247-.158.603-.157.745-.034m.636 2.811c.005.01.05.019.119.009-.021-.027-.042-.06-.069-.098-.042.047-.052.083-.05.089m.286-.044c.008-.002.011-.004.016-.007a.602.602 0 0 0 .151-.104c0-.011-.002-.018 0-.026.022-.071.058-.502-.08-.619-.018-.016-.071-.062-.225.009-.064.031-.103.075-.116.135-.042.191.162.497.254.612m1.214.419a4.657 4.657 0 0 0-.501-.373c.154.171.323.389.445.637.011-.089.029-.176.056-.264m16.823 6.773c.393-.193.896-.37 1.203-.448a38.423 38.423 0 0 0-1.266-.577c-.05.382.027.837.063 1.025m2.684.053a.592.592 0 0 1 .21-.238.51.51 0 0 1 .411-.074c.087-.089.254-.263.456-.454-5.944-3.241-15.018-4.931-19.62-5.262.175.309.294.636.349.978.954.066 10.294.804 18.194 5.05m-9.461-2.81a.605.605 0 0 1 .099-.014c.747-.017 2.079.642 2.369 1.006.045.055.068.104.068.151l-.002.001c.344.138 1.158.458 1.29.485l.055.014c.133.034.413.105.568-.039.126-.118.158-.363.092-.728v-.011a48.067 48.067 0 0 0-4.526-1.394.954.954 0 0 0-.013.529m3.008 7.374c.013-.005.055-.036.108-.123a.08.08 0 0 1 .107-.027l.008.008c.005.001.005.005.008.007l.01.011c.005.008.016.015.021.026l.011.037c.05.165.108.272.23.262.111-.007.158-.104.17-.353.011-.159-.08-.397-.114-.482a.778.778 0 0 0-.157-.013.898.898 0 0 0-.156.012c-.135.261-.262.568-.246.635m-3.36-5.563c.098.011.217.078.334.281.175.307.361 1.115.334 1.433.257.024.509.07.656.126.804.296 1.389.971 1.45 1.179a.156.156 0 0 1 .002.03c.008.004.016.004.021.009.539.555.682 1.408.716 1.73l.018-.004.003-.001c.083-.019.172-.022.228-.022.07 0 .188.006.279.038.312-1.386-1.259-2.734-1.275-2.749l-.035-.029.008-.043c.032-.185.011-.817-.005-1.374-.024-.707-.034-1.147-.003-1.274-.013-.185-1.428-1.019-2.278-.999a.353.353 0 0 0-.28.137c-.303.361-.204 1.293-.173 1.532m.909 2.938c.241.058.453.157.622.27.178-.274.639-.231.925-.202l.146.009c-.106-.198-.628-.768-1.33-1.029-.339-.125-1.169-.187-1.405-.07l-.037.026c-.031.12.202.575.451.948.199-.012.416-.002.628.048m-.647.732a.144.144 0 0 0-.031.039c-.003.004 0 .008-.006.011 0 .012-.008.02-.015.027a.431.431 0 0 0-.011.235c.034.165.156.381.383.447a.451.451 0 0 0 .517-.186c.101-.144.115-.299.07-.359a.075.075 0 0 1 .016-.109c.031-.026.081-.018.108.016.016.021.023.05.034.079.371.022.509-.044.515-.074.005-.012-.004-.053-.043-.118-.127-.209-.472-.48-.927-.587-.528-.128-1.005 0-1.184.11-.057.033-.073.059-.073.065-.007.033.104.17.506.33.014-.016.025-.033.041-.048a.077.077 0 0 1 .108.011.08.08 0 0 1-.008.111m-1.868-2.137c-.195.121-.304.231-.325.334-.016.079.015.169.097.27.054.069.096.069.128.061.137-.038.288-.308.312-.391a.61.61 0 0 0-.095-.158.66.66 0 0 0-.117-.116m.238.021a.834.834 0 0 1 .149.271c.313-.101.888-.332 1.049-.577.021-.036.073-.046.11-.022.034.022.044.071.021.108a.695.695 0 0 1-.056.071c.006.149.048.296.087.316.149-.024.334-.028.527-.017.011-.237-.149-1.254-.443-1.505-.057-.049-.107-.058-.165-.03-.314.147-.472.346-.613.522-.09.112-.167.208-.27.272a6.916 6.916 0 0 0-.594.401.82.82 0 0 1 .198.19m-7.433-4.966c.22.02.423.072.601.142.148-.128.347-.342.392-.508-.416-.042-.655-.055-.67-.056l-.09-.005-.013-.092c-.086-.658-.422-1.261-.986-1.783-.183.759.323 1.609.328 1.618a.077.077 0 0 1-.026.106.077.077 0 0 1-.107-.025 3.156 3.156 0 0 1-.267-.603 1.546 1.546 0 0 1-.349.628l.482.621c.21-.043.451-.066.705-.043m-.525.702c-.059.066-.064.187-.017.318.06.156.21.354.446.387.3.042.437-.167.485-.26.077-.155.069-.309.013-.365a.08.08 0 0 1 0-.109c.029-.03.08-.03.109 0 .021.02.034.049.05.077.364-.022.482-.09.496-.114-.006-.076-.412-.421-1.07-.481-.652-.059-1.182.189-1.211.284.002.021.113.125.548.216.011-.019.021-.04.037-.057.026-.033.076-.034.109-.007a.078.078 0 0 1 .005.111m-2.517-1.647-.082-.353-.233.243c.05-.002.1.003.149.017.06.018.116.052.166.093m-.525.741c.178.038.339.085.49.137a.714.714 0 0 0 .064-.554c-.027-.099-.093-.226-.241-.267-.153-.047-.294.025-.381.092a.815.815 0 0 0-.311.526c.122.016.25.038.379.066m-.631.396c-.15.14-.14.316-.108.439.061.221.239.404.357.429a.583.583 0 0 0 .552-.158.553.553 0 0 0 .145-.506.077.077 0 0 1 .057-.092c.045-.012.084.015.095.057.013.047.013.099.015.147.398.023.546-.048.551-.081l-.01-.028c-.079-.127-.477-.325-1.057-.452-.577-.125-1.022-.108-1.148-.029l-.021.021c-.005.02.056.124.367.261a.565.565 0 0 1 .1-.121.076.076 0 0 1 .11.004.074.074 0 0 1-.005.109m-.457-1.851c0 .303.487.726.747.915.053-.065.111-.127.177-.177.021-.016.043-.027.064-.039l.632-.654.032.142.112.494-.149.034a.564.564 0 0 1 .178.28c.026.093.04.199.032.299.186.035 1.089.179 1.518-.307.838-.946.008-1.808-.392-2.22-.013-.013-.021-.023-.031-.035a.687.687 0 0 1-.28.239.75.75 0 0 1-.241.077c.419.554.637 1.158.647 1.184a.075.075 0 0 1-.047.099.073.073 0 0 1-.063-.005l-.202.181c-.094.061-.167-.055-.112-.112l.238-.21a4.615 4.615 0 0 0-.691-1.178l-.058-.061c-.048-.092-.003-.211.114-.317-.07-.141-.125-.308-.093-.453a.291.291 0 0 1 .064-.132l-.093-.123a.414.414 0 0 1-.129.026v.028c-.062.211-.828 1.803-1.029 1.863-.037.011-.069-.009-.087-.044-.016-.035.002-.08.034-.102.136-.09.846-1.466.93-1.759l.003-.004a.381.381 0 0 1-.127-.074 3.662 3.662 0 0 1-.308-.326c-.254.26-1.39 2.073-1.39 2.471m-.146-.087c.081-.419.673-1.413 1.08-2.02-.482-.122-.98-.217-1.497-.277l-.142 2.21zm1.518-3.721c.034-.026.08-.017.093 0 .021.024.005.057-.028.084-.029.024-.023.073-.023.092l.021.042.734.839c.059.067.062.153.009.233-.073.109-.266.219-.377.185a.114.114 0 0 1-.084-.113.08.08 0 0 1 .079-.08c.026 0 .05.016.066.04a.323.323 0 0 0 .188-.124c.013-.024.005-.033 0-.041l-.535-.611c-.013-.001-.031-.006-.05-.01.005.028.003.057-.018.078-.112.096-.285.073-.534-.072.319.374.771.905.885 1.002.133.111.284.025.292.021l.06-.034.041.056.124.164.024-.014a.55.55 0 0 1 .093-.036l-.167-.254.058-.044c.087-.064.133-.134.138-.205.011-.105-.072-.193-.072-.193l-.871-1.029c-.078-.064-.343-.068-.533.043.119.13.223.215.308.268a.211.211 0 0 1-.035-.111c.003-.068.048-.119.114-.176m23.339 9.14-.056-.104c-.018.013-.031.029-.047.043.032.022.069.041.103.061m-.705 1.175 1.219.713v.001l.112.069.421.263a20.123 20.123 0 0 0-.909-1.965c-.12-.07-.241-.136-.361-.205a23.32 23.32 0 0 0-.466.463c.04.051.067.117.072.202a.883.883 0 0 1-.093.419.083.083 0 0 1 .005.04m1.871 3.127.587.241c-.047-.279-.2-1.003-.611-2.079l-.54-.341c.129.383.41 1.265.564 2.179m1.402.573c-.078-.576-.446-2.613-2.003-5.49-.13.079-.311.229-.505.402 1.504 2.739 1.819 4.533 1.863 4.826.265.109.527.216.645.262m8.804-16.806c-2.941 0-4.446.557-5.906 1.097-1.497.555-3.045 1.128-6.112 1.059-1.868-.042-4.109.312-5.092.487 1.216.409 2.67.773 5.092.773 2.983 0 4.501-.544 5.969-1.073 1.486-.532 3.023-1.084 6.046-1.084l.633.009-.005.223-.628-.009c-2.983 0-4.502.544-5.97 1.072-1.486.533-3.022 1.086-6.045 1.086-2.528 0-4.017-.394-5.273-.822a41.243 41.243 0 0 1 1.662 1.648c1.083.245 2.241.359 3.638.359 2.982 0 4.498-.545 5.968-1.072 1.486-.533 3.021-1.085 6.046-1.085l.634.009-.008.222-.626-.008c-2.985 0-4.503.544-5.974 1.071-1.484.534-3.021 1.085-6.04 1.085-1.281 0-2.359-.095-3.368-.298 1.835 1.969 3.179 3.813 4.157 5.444.015-.066.044-.12.1-.15.241-.129.557.159.705.456.138.274.342.76.12.871a.302.302 0 0 1-.252.009c1.783 3.358 1.966 5.558 1.968 5.594l.011.178-1.855-.759-.008-.062a14.413 14.413 0 0 0-.625-2.359l-1.026-.6c.011.193.021.385.021.555 0 1.52-.418 2.155-.627 2.378a.528.528 0 0 1 .186.419c0 .053-.006.102-.011.141 0 0 0 .069-.002.091.2.057.365.253.393.287a.157.157 0 0 1 .056.116v.011c-.008.108-.121.166-.203.211l-.026.014c-.081.043-.102.084-.178.245-.133.27-.401.405-.554.464a1.8 1.8 0 0 1 .124.672c0 .058-.002.12-.005.187-.053 1.854-.464 8.265-3.53 12.791C2.511 2.635-4.252 7.071-5.447 7.822c.228.077.48.191.48.534 0 .086-.016.187-.053.303-.054.179-.151.302-.29.369-.217.105-.45.018-.461.014.008.004-8.443-2.398-9.593-2.727-.01.148-.13 2.07-.238 3.759.013.009.028.019.039.03l.04.109c-.003.039-.024.09-.095.129 0 .029-.003.057-.006.087a.224.224 0 0 1 .037.028l.04.109c-.003.038-.024.088-.092.127-.003.015-.003.028-.003.044a.263.263 0 0 1 .037.029l.039.108c-.002.041-.023.089-.092.13l-.107 1.639-.015.027c-.103.139-.22.21-.35.212-.217 0-.366-.194-.384-.215l-.021-.033.071-1.682c-.071-.052-.09-.107-.084-.148.005-.058.039-.1.094-.132 0-.012 0-.021.003-.034-.068-.05-.084-.104-.079-.145.003-.054.04-.095.091-.125.003-.032.003-.061.003-.092-.057-.049-.073-.098-.07-.136.002-.004.002-.008.002-.012l-.967-4.407-8.773-2.49a.488.488 0 0 1-.244-.21.568.568 0 0 1-.073-.29c0-.077.011-.167.047-.27.153-.462.503-.494.668-.446 0 0 .215.056.515.137l2.632-20.164c-.097-.015-.817-.135-.944-.424-.026-.057-.041-.148.031-.256a.298.298 0 0 1 .308-.136c.116.023.238.108.346.212-.118-.218-.253-.441-.363-.546l-.127-.122c-.283-.262-.506-.47-.429-.747a.075.075 0 0 1 .096-.054c.041.011.042.048.033.09-.05.179.118.332.404.597l.129.122c.116.11.249.323.366.537l-1.738-7.915a32.726 32.726 0 0 0-2.437-2.174c-.067.685-.459 1.044-.697 1.194.018.014.031.02.048.035.063.062.082.195.082.328 0 .057-.006.106-.011.158.074.019.155.056.188.132a.172.172 0 0 1 .011.062c0 .04-.013.09-.063.145 0 0-.071.086-.083.103a5.984 5.984 0 0 0-.021.253c.305.274.392.384.392.452 0 .026-.01.044-.027.067-.058.078-.151.058-.278.032l-.23-.037h.002c0 .004-.1.04-.1.04-.25.102-.767.313-1.158.099-.347-.191-.451-.673-.519-.992l-.057-.22c-.039-.084-.247-.225-.371-.311-.16-.107-.23-.155-.23-.23 0-.008 0-.016.003-.024.009-.061.024-.112.374-.178-.141-.116-.302-.286-.377-.493-.124-.353-.179-1.013-.198-1.247l-2.748-.417a98.698 98.698 0 0 0-7.203 1.568l-.793 1.886-.055.012c-.705.167-3.106 1.412-3.129 1.425l-.206.105.044-.226c.176-.92.657-2.091.804-2.434-1.484-.606-2.224-1.935-2.469-2.382l-.036-.063c-.159-.284-.294-.759-.294-1.265 0-.586.18-1.217.713-1.656.328-.268.657-.382.979-.337.429.059.682.383.751.479.04.057.058.132.082.204.073.014 2.711.461 2.843.483l.035-.048-1.148-.394c-1.465-.526-2.977-1.07-5.953-1.07l-.643.014-.009-.224.652-.013c3.015 0 4.546.552 6.029 1.085l1.204.411c.254-.365.49-.69.698-.972a20.448 20.448 0 0 1-2.002-.638c-1.465-.528-2.978-1.072-5.952-1.072l-.645.012-.009-.223.654-.012c3.013 0 4.544.552 6.027 1.084.638.231 1.299.467 2.071.656.403-.533.702-.898.859-1.08-1.211-.209-2.128-.532-3.005-.849-1.464-.527-2.978-1.07-5.952-1.07l-.632.011-.008-.223.64-.011c3.014 0 4.545.55 6.027 1.086.916.327 1.863.669 3.156.873.844.133 1.761.199 2.802.199 2.978 0 4.491-.545 5.956-1.072 1.484-.536 3.017-1.086 6.037-1.086 3.013 0 4.544.55 6.025 1.083 1.241.447 2.529.905 4.693 1.034a.666.666 0 0 1 .371-.412c.387-.191.772-.039 1.139.447 2.812-.027 4.282-.557 5.704-1.066.851-.306 1.729-.621 2.88-.832a.681.681 0 0 1 .062-.135c.185-.317.58-.47.876-.456a.5.5 0 0 1 .462.296c.023.055.023.104-.027.141-.042.031-.079-.016-.13-.074a.414.414 0 0 0-.315-.139c-.223-.011-.535.106-.676.345-.105.179-.084.396.062.624a.777.777 0 0 0 .524.375c.673.143 1.558-.444 1.565-.45a.11.11 0 0 1 .043-.017 1.125 1.125 0 0 1 .297-.831c.268-.273.622-.281.989-.069.052.03.079.071.05.125-.032.052-.093.049-.147.019-.275-.16-.54-.117-.733.08-.25.254-.313.713-.138.998.614 1.011 2.36.166 2.604.042.01-.341.162-.64.435-.849.411-.311.983-.319 1.449-.055.055.029.094.07.063.123-.031.055-.089.049-.142.02a1.152 1.152 0 0 0-1.234.09c-.297.226-.412.585-.314.989.186.774 1.206 1.79 3.244 1.422l.606-.124c.031-.007 3.176-.643 5.655-.586 3.025.066 4.485-.474 6.032-1.046 1.475-.547 3.002-1.112 5.983-1.112l.644.008-.005.224zm-.003-1.412c-2.983 0-4.502.546-5.97 1.071-1.486.534-3.022 1.086-6.045 1.086-3.008 0-4.539-.552-6.02-1.086-1.46-.525-2.972-1.071-5.949-1.071-2.982 0-4.498.546-5.963 1.071-1.481.533-3.01 1.084-6.017 1.084-3.023 0-4.558-.552-6.041-1.085-1.463-.526-2.976-1.07-5.951-1.07-2.98 0-4.496.546-5.961 1.071-1.482.534-3.015 1.086-6.03 1.086-3.018 0-4.552-.552-6.033-1.086-1.465-.525-2.978-1.071-5.952-1.071l-.645.014-.009-.225.654-.012c3.013 0 4.545.553 6.027 1.085 1.465.527 2.979 1.072 5.958 1.072 2.975 0 4.49-.543 5.954-1.072 1.483-.532 3.019-1.085 6.037-1.085 3.013 0 4.546.551 6.027 1.084 1.467.527 2.982 1.071 5.965 1.071 2.967 0 4.48-.544 5.942-1.07 1.485-.532 3.016-1.085 6.038-1.085 3.014 0 4.547.553 6.026 1.085 1.462.529 2.972 1.072 5.943 1.072 2.983 0 4.501-.543 5.969-1.072 1.486-.532 3.023-1.085 6.046-1.085l.633.009-.005.223zm-.066-5.851c-2.987 0-4.505.545-5.973 1.071-1.486.534-3.022 1.086-6.046 1.086-3.006 0-4.537-.552-6.016-1.085-1.462-.527-2.976-1.072-5.948-1.072-2.986 0-4.499.545-5.966 1.071-1.48.534-3.011 1.082-6.015 1.082-3.024 0-4.557-.551-6.041-1.084-1.465-.526-2.978-1.069-5.953-1.069-2.981 0-4.496.545-5.962 1.072-1.482.533-3.015 1.085-6.03 1.085-3.018 0-4.55-.552-6.033-1.086-1.465-.526-2.978-1.071-5.951-1.071h-.155l-.002-.224h.157c3.013 0 4.544.552 6.025 1.086 1.465.527 2.981 1.071 5.959 1.071 2.977 0 4.491-.544 5.956-1.071 1.482-.534 3.018-1.086 6.036-1.086 3.016 0 4.546.551 6.027 1.084 1.465.526 2.98 1.07 5.967 1.07 2.967 0 4.48-.543 5.939-1.068 1.484-.534 3.019-1.086 6.042-1.086 3.011 0 4.544.552 6.025 1.086 1.46.527 2.972 1.071 5.939 1.071 2.987 0 4.505-.544 5.97-1.071 1.486-.534 3.023-1.086 6.049-1.086l.296.002-.002.223zm.002 1.411c-2.986 0-4.507.545-5.975 1.072-1.486.532-3.019 1.084-6.043 1.084-3.009 0-4.538-.552-6.016-1.084-1.462-.527-2.976-1.072-5.951-1.072-2.986 0-4.499.545-5.964 1.072-1.482.532-3.01 1.082-6.017 1.082-3.021 0-4.557-.552-6.041-1.086-1.465-.523-2.978-1.068-5.951-1.068-2.981 0-4.496.545-5.961 1.072-1.483.532-3.018 1.084-6.033 1.084-3.018 0-4.549-.552-6.033-1.084-1.463-.527-2.975-1.072-5.951-1.072l-.324.003-.005-.223.329-.002c3.014 0 4.544.55 6.028 1.084 1.464.527 2.978 1.072 5.956 1.072 2.977 0 4.494-.545 5.956-1.071 1.484-.535 3.018-1.085 6.038-1.085 3.014 0 4.544.549 6.025 1.082 1.465.526 2.98 1.071 5.967 1.071 2.967 0 4.48-.543 5.939-1.068 1.484-.535 3.019-1.085 6.042-1.085 3.011 0 4.544.55 6.025 1.085 1.46.526 2.972 1.071 5.942 1.071 2.984 0 4.502-.545 5.97-1.071 1.486-.535 3.022-1.085 6.048-1.085l.467.003-.002.223zm-11.94-4.764c-3.011 0-4.542-.552-6.02-1.086-1.46-.526-2.973-1.071-5.952-1.071-2.98 0-4.495.545-5.963 1.071-1.478.532-3.008 1.083-6.015 1.083-3.022 0-4.557-.551-6.041-1.084-1.465-.526-2.977-1.07-5.95-1.07-2.981 0-4.498.545-5.962 1.071-1.483.534-3.017 1.086-6.032 1.086-3.016 0-4.551-.552-6.033-1.086-1.233-.444-2.509-.903-4.65-1.032l.014-.223c2.172.133 3.462.596 4.71 1.047 1.466.525 2.979 1.073 5.959 1.073 2.976 0 4.491-.546 5.956-1.073 1.484-.534 3.017-1.086 6.038-1.086 3.01 0 4.543.551 6.026 1.084 1.467.527 2.98 1.07 5.965 1.07 2.967 0 4.479-.543 5.944-1.068 1.481-.534 3.015-1.086 6.034-1.086 3.016 0 4.547.552 6.028 1.086 1.46.527 2.973 1.073 5.944 1.073 2.983 0 4.5-.546 5.968-1.073 1.253-.451 2.547-.916 4.733-1.047l.013.221c-2.152.131-3.431.59-4.672 1.034-1.486.534-3.02 1.086-6.042 1.086m0 1.412c-3.008 0-4.539-.552-6.018-1.085-1.462-.527-2.975-1.073-5.951-1.073-2.983 0-4.498.546-5.963 1.073-1.481.53-3.011 1.082-6.018 1.082-3.022 0-4.557-.552-6.041-1.085-1.465-.526-2.977-1.07-5.95-1.07-2.981 0-4.496.546-5.962 1.073-1.483.533-3.015 1.085-6.031 1.085-3.017 0-4.55-.553-6.033-1.085-1.338-.483-2.719-.979-5.21-1.061l.008-.221c2.525.081 3.924.584 5.278 1.071 1.464.527 2.978 1.072 5.957 1.072 2.977 0 4.493-.545 5.955-1.071 1.484-.534 3.019-1.086 6.038-1.086 3.012 0 4.543.551 6.028 1.082 1.465.53 2.98 1.073 5.963 1.073 2.967 0 4.481-.543 5.944-1.069 1.481-.534 3.015-1.086 6.037-1.086 3.013 0 4.547.552 6.025 1.086 1.46.526 2.973 1.071 5.944 1.071 2.983 0 4.5-.545 5.968-1.071 1.357-.488 2.759-.989 5.292-1.072l.005.221c-2.493.082-3.879.578-5.219 1.061-1.488.533-3.024 1.085-6.046 1.085m-32.329-15.67.104-.196a17.763 17.763 0 0 0 8.275 2.047c2.883 0 5.748-.711 8.28-2.051l.104.198a17.99 17.99 0 0 1-8.384 2.072c-2.919 0-5.818-.715-8.379-2.07m-2.243.311.123-.185a19.054 19.054 0 0 0 10.499 3.133c3.744 0 7.368-1.079 10.484-3.124l.123.185a19.281 19.281 0 0 1-10.607 3.163 19.269 19.269 0 0 1-10.622-3.172" style="fill:#231f20;fill-opacity:1;fill-rule:nonzero;stroke:none" transform="matrix(1.7181 0 0 -1.7181 93.598 80.793)" clip-path="url(#n)"/>
    <path d="m0 0 .04.008.026.031c.008.012.967 1.189 1.963 1.368.379-.279.949-.784.972-1.051V.34c0-.034-.123-.126-.137-.138l.249-.101c.016.007 1.418.792 1.95.953C5.569.776 6.78.112 6.891.037a.142.142 0 0 0 .064-.124V-.1c-.005-.127-.13-.356-.525-.512l.249-.126c.427.18 1.181.461 1.394.434.288-.036 1.017-.529 1.071-.657-.005-.025-.136-.131-.29-.197l-.36-.123.385-.088c.047-.009 1.141-.197 1.901-.099.432.056 1.069-.037 1.286-.105-.136-.218-.511-.743-1.132-1.045l-.1-.049.048-.098c.013-.026.185-.394.185-.807 0-.268-.083-.552-.318-.782-.161.321-.609 1.133-1.148 1.521-.688.498-1.722.77-1.835.802l-.231.057-.087-.018.2-.215c.062-.08.115-.202.094-.244-.011-.022-.066-.047-.183-.047-.388 0-.692-.113-.962-.212l-.344-.113c-.291-.073-.71.129-1.174.562-.002 0-.008.005-.008.005l-.188-.141.05-.032c.104-.085.241-.242.241-.325 0-.005-.003-.009-.003-.013-.005-.028-.044-.049-.076-.062-.382-.145-.548-.287-.729-.436l-.257-.203c-.448-.319-.696-.159-.843-.013-.262.263-.643.544-.794.544-.019-.005-1.123-.199-1.123-.199l-.353-.063.326-.148c.002-.003.334-.155.366-.422a.164.164 0 0 0-.056-.14c-.064-.06-.167-.079-.295-.06-.153.029-.425.218-.666.382-.297.206-.485.332-.624.345-.214.018-1.819.285-3.239.642-.163.04-.398.148-.438.207.013.003.048.025.131.05l.338.111-.344.102c-.242.073-.615.243-.644.376v.011c0 .027.02.059.063.094C-4.049-1.621-2.443-.449 0 0m2.037 1.637C.996 1.48.053.374-.082.209c-2.489-.467-4.126-1.672-4.141-1.682l-.005-.004c-.113-.096-.144-.19-.144-.265a.25.25 0 0 1 .006-.057c.044-.214.345-.37.569-.46-.033-.038-.061-.078-.061-.134v-.008c.009-.261.589-.408.613-.415 1.366-.343 3.012-.627 3.274-.648.084-.008.323-.173.514-.305.273-.189.553-.382.755-.419.199-.034.371.006.487.115a.396.396 0 0 1 .128.289c0 .015-.003.029-.005.042a.679.679 0 0 1-.249.433c.299.054.784.14.813.144.068-.016.353-.19.636-.472.217-.217.588-.395 1.131-.013l.274.214c.168.143.314.267.658.399.162.06.21.162.22.235 0 .005 0 .009.003.014.414-.27.718-.299.909-.253l.373.122c.263.098.536.198.883.198.199 0 .328.059.382.172.018.04.026.081.026.122a.389.389 0 0 1-.016.112c.36-.111 1.033-.347 1.518-.699.617-.444 1.143-1.561 1.148-1.57l.058-.122.11.078c.388.292.499.688.499 1.05 0 .35-.103.662-.161.813a3.158 3.158 0 0 1 1.2 1.19l.034.064-.045.056c-.138.172-1.131.262-1.561.207-.495-.064-1.158.003-1.536.054.082.068.149.149.149.247 0 .26-.93.822-1.262.864-.202.025-.638-.115-.991-.247.034.073.06.145.067.218v.025a.36.36 0 0 1-.162.308C6.867.319 5.2 1.234 5.129 1.274l-.039.021-.045-.012C4.626 1.17 3.643.644 3.214.409c-.082.467-.991 1.133-1.097 1.209l-.037.026Z" style="fill:#231f20;fill-opacity:1;fill-rule:nonzero;stroke:none" transform="matrix(1.7181 0 0 -1.7181 65.545 169.377)" clip-path="url(#o)"/>
    <path d="m0 0 .013-.146c3.015.36 3.934.11 5.766-.385l.466-.125.276-.085c.694-.219 2.322-.73 2.694-.741l.002.149c-.355.009-2.032.536-2.665.734l-.278.086-.466.126C3.963.113 3.036.364 0 0" style="fill:#231f20;fill-opacity:1;fill-rule:nonzero;stroke:none" transform="matrix(1.7181 0 0 -1.7181 65.08 169.192)" clip-path="url(#p)"/>
    <path d="M0 0c-.032-.004-.067-.029-.059-.069.005-.039.027-.072.059-.069.04.004 4.165.306 7.826-.667.029-.007.066.012.079.052.011.04-.01.076-.042.083C4.183.31.04.003 0 0" style="fill:#231f20;fill-opacity:1;fill-rule:nonzero;stroke:none" transform="matrix(1.7181 0 0 -1.7181 66.688 171.069)" clip-path="url(#q)"/>
    <path d="M0 0c-.062-.195-.165-.258-.167-.259-.029-.015-.037-.049-.021-.077a.052.052 0 0 1 .073-.021c.006.003.147.083.223.325a.057.057 0 0 1-.04.069A.056.056 0 0 1 0 0" style="fill:#231f20;fill-opacity:1;fill-rule:nonzero;stroke:none" transform="matrix(1.7181 0 0 -1.7181 80.8 172.165)" clip-path="url(#r)"/>
    <path d="m0 0-.818-.2-.507-.122c-.556-.144-1.489-.384-2.342-.518-.778-.124-1.664-.057-1.672-.057a.055.055 0 0 1-.06-.05c0-.031.021-.093.052-.096.008 0 .907-.068 1.696.056.858.136 1.796.376 2.353.521l.498.119.826.202c.84.228 1.887.512 2.705.331.029-.006.058.049.064.08.008.029-.019.057-.048.062C1.881.523.85.231 0 0" style="fill:#231f20;fill-opacity:1;fill-rule:nonzero;stroke:none" transform="matrix(1.7181 0 0 -1.7181 73.866 173.355)" clip-path="url(#s)"/>
    <path d="M0 0c-.061-.011-.034-.072-.024-.133.21-1.017-.71-1.72-.72-1.727a.114.114 0 0 1-.014-.157.11.11 0 0 1 .154-.016c.04.031.935.738.699 1.891C.084-.081.061.012 0 0" style="fill:#231f20;fill-opacity:1;fill-rule:nonzero;stroke:none" transform="matrix(1.7181 0 0 -1.7181 66.391 171.694)" clip-path="url(#t)"/>
    <path d="M0 0s-.074-.613.281-.668c.17-.028.156.079.021.194-.077.066.021.331.047.374C.378-.06 0 0 0 0" style="fill:#231f20;fill-opacity:1;fill-rule:nonzero;stroke:none" transform="matrix(1.7181 0 0 -1.7181 60.069 174.133)" clip-path="url(#u)"/>
    <path d="M0 0a.347.347 0 0 0-.349-.348A.345.345 0 0 0-.696 0 .348.348 0 1 0 0 0" style="fill:#231f20;fill-opacity:1;fill-rule:nonzero;stroke:none" transform="matrix(1.7181 0 0 -1.7181 63.663 171.318)" clip-path="url(#v)"/>
    <path d="M0 0Zm3.199 1.133.047.011.028.041c.007.014.833 1.421 1.491 1.744.544-.319 1.274-.851 1.289-1.106v-.006c0-.021-.008-.041-.037-.063-.002 0-.223-.163-.223-.163l.354-.016c.002.001.004.002.005.006V1.58c.296.251 1.132.905 1.555.983.226-.128 1.89-1.092 2.034-1.17.114-.06.175-.131.19-.218a.307.307 0 0 0 .003-.042c0-.127-.084-.288-.237-.449L9.656.639l.148-.141.09.021c.51.112 1.295.252 1.493.199.283-.075 1.594-1.199 1.722-1.423.009-.041.009-.191-.577-.043l.385-.245c.054-.022 1.322-.508 2.239-.533.072-.001 1.264.037 1.762.101-.074-.3-.3-.992-.8-1.152l-.128-.041.064-.121c.006-.001.164-.303.164-.804 0-.2-.037-.444-.11-.705-.36.323-1.376 1.225-1.972 1.596-.679.426-1.836.794-2.064.865l-.373.008c.487-.185.494-.468.479-.518v-.002c-.003.002-.032-.01-.117-.005-.426.017-.892-.051-1.268-.104l-.353-.046c-.203-.021-.733 0-1.281.672l-.007.009-.258-.055c.004-.002.097-.099.101-.102h-.001c.052-.055.148-.186.148-.282 0-.012 0-.023-.003-.033-.024-.075-.132-.115-.222-.133-.382-.087-.543-.154-.732-.232l-.309-.118-.243-.089c-.698-.253-1.023-.349-1.373.073l-.345.458c-.267.369-.329.448-.416.458l-1.145.164.076-.18c.001-.005.184-.449.177-.76l-.007-.03c-.01-.008-.118-.008-.338.157-.207.153-.456.725-.536.932l-.024.059-.299.049a8.88 8.88 0 0 0-2.215.588l-.04.018c-.213.08-.344.115-.36.168-.048.113.35.236.35.236S.213-.53.165-.198c-.001.021.01.051.032.092.077.113.904.764 3.002 1.239m1.523 2.028c-.686-.29-1.494-1.614-1.618-1.825C.857.821.062.119 0 0a.397.397 0 0 1-.055-.198c0-.067.021-.121.045-.159.096-.162.334-.227.541-.261 0-.005-.007-.008-.007-.015L.523-.649c0-.15.194-.255.546-.392l.038-.014c1.088-.437 1.854-.545 2.264-.604l.173-.028c.077-.197.325-.776.584-.968.245-.184.435-.244.57-.178.083.04.129.121.133.225v.019c0 .225-.074.482-.133.651.231-.033.714-.1.747-.106.049-.039.181-.222.29-.373l.355-.471c.463-.559.948-.381 1.618-.137l.243.088.317.123c.187.075.334.134.696.219.215.049.347.144.389.288.001.004.001.014.004.019.481-.392.915-.408 1.107-.389l.362.048c.364.052.82.118 1.228.101.174-.009.286.041.328.143a.173.173 0 0 1 .017.085.421.421 0 0 1-.065.196c.451-.154 1.201-.433 1.683-.737.698-.435 2.064-1.682 2.077-1.694l.124-.115.056.161c.128.361.17.683.17.953 0 .389-.09.663-.147.802.674.32.866 1.371.874 1.419l.025.154-.156-.027c-.094-.014-1.403-.127-1.879-.115-.641.017-1.489.281-1.904.424a.262.262 0 0 1 .085.156v.012c0 .336-1.676 1.586-1.898 1.644-.246.066-.975-.067-1.396-.155a.713.713 0 0 1 .108.354.524.524 0 0 1-.005.079c-.026.158-.128.286-.304.38a188.41 188.41 0 0 0-2.064 1.188l-.034.018-.035-.005c-.416-.053-1.11-.566-1.472-.853-.163.468-1.199 1.088-1.419 1.215l-.05.028z" style="fill:#231f20;fill-opacity:1;fill-rule:nonzero;stroke:none" transform="matrix(1.7181 0 0 -1.7181 23.3 170.464)" clip-path="url(#w)"/>
    <path d="m0 0 .022-.152c2.587.566 3.889.609 6.019-.283l.616-.302C7.628-1.22 9.44-2.12 9.853-2.266l.036.147c-.407.144-2.214 1.041-3.183 1.523l-.621.307C4.087.545 2.779.608 0 0" style="fill:#231f20;fill-opacity:1;fill-rule:nonzero;stroke:none" transform="matrix(1.7181 0 0 -1.7181 28.6 168.293)" clip-path="url(#x)"/>
    <path d="M0 0c-.03-.01-.092-.047-.076-.097.022-.077.117-.05.109-.052-.024-.007 2.461.702 8.401-1.926.027-.012.083-.01.106.038.021.041-.015.082-.044.095C2.511.707.1.029 0 0" style="fill:#231f20;fill-opacity:1;fill-rule:nonzero;stroke:none" transform="matrix(1.7181 0 0 -1.7181 31.739 169.829)" clip-path="url(#y)"/>
    <path d="M0 0c-.004-.03-.02-.106-.051-.103l1.923-.274c1.022-.13 2.117-.041 2.644 0l.23.016.732.061c.985.096 2.336.224 3.112-.109.03-.012.05.056.062.084a.059.059 0 0 1-.029.074c-.621.287-1.898.24-3.169.118l-.726-.059-.233-.016C3.97-.251 2.881-.34 1.872-.211L-.047.063A.054.054 0 0 0 0 0" style="fill:#231f20;fill-opacity:1;fill-rule:nonzero;stroke:none" transform="matrix(1.7181 0 0 -1.7181 29.568 173.224)" clip-path="url(#z)"/>
    <path d="M0 0c-.037-.049.042-.097.091-.134a1.15 1.15 0 0 0 .489-.902C.622-1.64.09-2.17.085-2.177a.109.109 0 0 1-.001-.156.107.107 0 0 1 .157 0c.025.021.611.603.562 1.313-.027.395-.265.69-.668.988C.087.005.034.048 0 0" style="fill:#231f20;fill-opacity:1;fill-rule:nonzero;stroke:none" transform="matrix(1.7181 0 0 -1.7181 29.447 169.314)" clip-path="url(#A)"/>
    <path d="M0 0s.048-.615.408-.598c.168.006.137.108-.019.195C.3-.355.344-.076.364-.029.384.017 0 0 0 0" style="fill:#231f20;fill-opacity:1;fill-rule:nonzero;stroke:none" transform="matrix(1.7181 0 0 -1.7181 25.09 172.16)" clip-path="url(#B)"/>
    <path d="M0 0a.35.35 0 1 0-.692.096A.35.35 0 0 0 0 0" style="fill:#231f20;fill-opacity:1;fill-rule:nonzero;stroke:none" transform="matrix(1.7181 0 0 -1.7181 27.96 169.909)" clip-path="url(#C)"/>
    <path d="M0 0Zm8.152 4.026a78.29 78.29 0 0 1 1.627-.85c.196-.085.41-.244.427-.368v-.014c0-.025-.012-.073-.094-.136 0-.001-.137-.092-.14-.092l.276-.085c0 .001 0 .003.003.003.275.24.789.624.998.635.289.012.915-.322.965-.431.013-.082-.094-.17-.096-.172l-.265-.219.342.021c.058.002 1.413.083 2.141.311l.649.216c.264.09.535.182.723.237-.071-.279-.273-.845-.789-1.215l-.09-.066.066-.091c.013-.016.183-.258.183-.597 0-.204-.07-.446-.274-.692a5.405 5.405 0 0 1-1.109.725 4.76 4.76 0 0 1-1.683.43l-.344.022.27-.229c0-.002.066-.056.056-.119-.006-.035-.05-.139-.348-.254-.307-.122-.664-.309-.983-.471l-.522-.262c-.097-.041-.548-.047-1.334.465L8.631.593c.037-.027.183-.172.186-.274 0-.071-.045-.144-.136-.216L8.059-.45 7.89-.621c-.273-.279-.687-.699-.989-.581l-.668.298c-.426.199-.524.24-.595.228-.008 0-.925-.243-.925-.243l-.347-.09.336-.122c.116-.041.435-.198.501-.417.011-.041.029-.117 0-.154-.026-.036-.1-.057-.207-.057-.151 0-.448.223-.686.403-.299.225-.488.362-.633.354-.295-.013-1.195-.048-2.615.174-.336.05-.438.103-.472.127.013.012.04.034.111.074l.377.198-.424.012c-.186.004-.467.062-.512.154a.05.05 0 0 0-.008.027c0 .031.024.074.048.108.013.019 1.423 1.997 3.978 2.595l.039.01.024.032c.008.009.747.969 1.706 1.308.244-.095.789-.362.85-.652.002-.016.002-.034.002-.048 0-.065-.036-.132-.092-.198-.029-.035-.1-.116-.103-.122 0 0 .218-.086.223-.083.008.01.868 1.055 1.343 1.312m-.05.23c-.321-.15-.8-.645-1.124-1.005-.137.455-.92.758-1.009.792l-.037.015-.037-.014c-.978-.328-1.706-1.22-1.826-1.371C1.457 2.044.016.022 0 0a.408.408 0 0 1-.088-.239c0-.052.013-.092.029-.125.075-.146.272-.212.442-.242C.37-.638.357-.668.357-.705c0-.011.003-.02.003-.03.034-.189.333-.26.655-.311 1.454-.228 2.37-.191 2.673-.177.071.002.323-.186.487-.309.294-.221.596-.45.821-.45.186 0 .312.049.385.146.039.053.06.119.06.194a.598.598 0 0 1-.023.159c-.058.19-.22.329-.366.423l.612.162c.061-.014.289-.121.474-.208l.682-.306c.436-.171.913.314 1.229.634l.169.173.604.533c.143.116.218.247.218.387v.009c0 .005-.003.009-.006.014.784-.421 1.152-.297 1.196-.279l.537.267c.31.162.665.346.962.461.302.12.461.26.485.433.002.014.005.03.005.043 0 .024-.013.042-.018.065.293-.032.863-.123 1.392-.382.692-.337 1.143-.763 1.148-.767l.08-.076.079.08c.305.321.397.648.397.924 0 .294-.106.525-.169.644.705.566.831 1.432.837 1.47l.021.154-.153-.03c-.172-.035-.532-.158-.92-.289l-.644-.214c-.53-.167-1.436-.252-1.859-.287a.314.314 0 0 1 .021.179c-.042.243-.851.622-1.192.606-.223-.011-.584-.253-.838-.447-.082.267-.451.452-.533.486-.121.055-1.144.594-1.669.874l-.047.026Z" style="fill:#231f20;fill-opacity:1;fill-rule:nonzero;stroke:none" transform="matrix(1.7181 0 0 -1.7181 92.507 174.386)" clip-path="url(#D)"/>
    <path d="M0 0c-.032-.004-.063-.071-.061-.101.006-.03.032-.057.061-.053 1.971.3 2.943.332 5.186.134l.265-.035c.648-.092 2.167-.307 2.532-.241.032.006.05.034.045.064-.005.032-.024.089-.053.083-.346-.063-1.908.159-2.495.24l-.273.037C2.954.327 1.982.304 0 0" style="fill:#231f20;fill-opacity:1;fill-rule:nonzero;stroke:none" transform="matrix(1.7181 0 0 -1.7181 99.489 169.908)" clip-path="url(#E)"/>
    <path d="m0 0-.26-.046c-.988-.171-2.463-.249-2.479-.25-.029 0-.057-.042-.057-.072.003-.032.046-.078.075-.076.016 0 1.497.078 2.493.251l.262.046c1.518.266 3.813.669 6.083.38.032-.004.061.027.064.07a.072.072 0 0 1-.061.078C3.831.671 1.526.268 0 0" style="fill:#231f20;fill-opacity:1;fill-rule:nonzero;stroke:none" transform="matrix(1.7181 0 0 -1.7181 103.96 171.427)" clip-path="url(#F)"/>
    <path d="m0 0-.63-.293-.39-.183c-.503-.247-1.349-.659-2.201-.949-.745-.255-1.73-.329-1.741-.332-.029 0-.053-.028-.05-.059.003-.03.029-.104.058-.101.01.001 1.012.076 1.769.335.857.295 1.707.707 2.213.956l.384.181.638.293c.867.421 2.054.995 3.092.875.029-.005.176-.026.178.004.003.03-.136.152-.165.156C2.083 1.008.88.424 0 0" style="fill:#231f20;fill-opacity:1;fill-rule:nonzero;stroke:none" transform="matrix(1.7181 0 0 -1.7181 107.378 173.171)" clip-path="url(#G)"/>
    <path d="M0 0c-.05-.036-.005-.072.029-.124.801-1.141-.142-1.948-.182-1.982a.115.115 0 0 1-.014-.157.113.113 0 0 1 .159-.012c.011.007 1.041.892.123 2.203C.079-.023.05.034 0 0" style="fill:#231f20;fill-opacity:1;fill-rule:nonzero;stroke:none" transform="matrix(1.7181 0 0 -1.7181 99.016 172.49)" clip-path="url(#H)"/>
    <path d="M0 0s.022-.431.274-.427c.119.001.1.075-.008.138-.062.036-.025.228-.012.261C.269.005 0 0 0 0" style="fill:#231f20;fill-opacity:1;fill-rule:nonzero;stroke:none" transform="matrix(1.7181 0 0 -1.7181 94.54 176.042)" clip-path="url(#I)"/>
    <path d="M0 0a.35.35 0 0 0-.689-.118.354.354 0 0 0 .285.404A.352.352 0 0 0 0 0" style="fill:#231f20;fill-opacity:1;fill-rule:nonzero;stroke:none" transform="matrix(1.7181 0 0 -1.7181 96.584 172.588)" clip-path="url(#J)"/>
    <path d="m0 0 70.171-.003c.152-.1 5.302-3.446 6.009-3.904-1.227-.94-4.825-4.155-4.825-9.51v-46.978c0-7.676-1.324-12.278-4.429-15.383-3.548-3.549-7.863-5.838-12.824-6.808-2.692-.525-4.943-.769-6.928-.984-2.22-.239-4.138-.446-6.171-.967-3.579-.921-5.274-3.998-5.916-5.544-.642 1.546-2.34 4.627-5.921 5.545-2.03.523-3.947.729-6.168.97-1.985.213-4.238.459-6.928.982-4.962.969-9.275 3.26-12.823 6.809-3.106 3.105-4.43 7.706-4.43 15.382v46.98c0 5.353-3.6 8.568-4.824 9.508C-5.303-3.445-.151-.099 0 0m-.281.614-6.933-4.506.438-.281c.051-.03 4.924-3.2 4.924-9.24v-46.98c0-7.871 1.384-12.611 4.626-15.854 3.644-3.646 8.073-5.994 13.166-6.991 2.721-.532 4.989-.776 6.987-.992 2.194-.235 4.091-.442 6.072-.95 4.366-1.124 5.755-5.93 5.771-5.979l.32-1.154.32 1.154c.013.05 1.394 4.854 5.763 5.976 1.981.509 3.876.713 6.072.951 1.998.214 4.267.46 6.985.992 5.095.994 9.524 3.346 13.165 6.989 3.245 3.244 4.628 7.985 4.628 15.856v46.978c0 6.041 4.875 9.211 4.923 9.243l.44.279L70.37.664-.198.667z" style="fill:#231f20;fill-opacity:1;fill-rule:nonzero;stroke:none" transform="matrix(1.7181 0 0 -1.7181 12.394 41.398)" clip-path="url(#K)"/>
</svg>
