<svg xmlns="http://www.w3.org/2000/svg" width="400" height="500" viewBox="30.5 31.5 400 500" xml:space="preserve">
    <path style="fill:#0085ca;fill-rule:evenodd" d="M30.5 61.44c8.44 27.77 15 66.61 15 109.14v125.74c0 66.8 24.73 126.72 70.47 167.86 27.6 24.82 72.7 55.18 114.53 66.32 41.83-11.14 86.93-41.5 114.53-66.33 45.74-41.14 70.47-101.05 70.47-167.85V170.58c0-42.53 6.56-81.37 15-109.14-49.44-19.34-127.72-25.94-200-25.94s-150.56 6.6-200 25.94z"/>
    <path style="fill:#fff;fill-rule:evenodd;stroke:#000;stroke-miterlimit:4" d="M138.23 407.8 288.6 242.67l-5.84-5.84-150.37 165.13 5.84 5.84"/>
    <path style="fill:#fff;fill-rule:evenodd;stroke:#000;stroke-miterlimit:4" d="M337.53 260.42c5.6 37.87-27.66 57.99-55.08 55.08 9.91-9.01 12.26-27.79 4.18-40.66-5.11-8.14-15.72-10.41-19.86-15.18-4.67-5.39-3.91-13.13-1.29-15.76 2.45-2.46 10.82-3.82 16.21.85 4.77 4.13 6.99 15.05 14.76 20.7 12.86 9.34 30.39 4.67 41.08-5.02M322.77 407.8 172.4 242.67l5.84-5.84 150.37 165.13-5.84 5.84"/>
    <path style="fill:#fff;fill-rule:evenodd;stroke:#000;stroke-miterlimit:4" d="M123.47 260.42c-5.6 37.87 27.66 57.99 55.08 55.08-9.91-9.01-12.26-27.79-4.18-40.66 5.11-8.14 15.72-10.41 19.86-15.18 4.67-5.39 3.91-13.13 1.29-15.76-2.45-2.46-10.82-3.82-16.21.85-4.77 4.13-6.99 15.05-14.76 20.7-12.86 9.34-30.39 4.67-41.08-5.02"/>
    <path style="fill:#fff;fill-rule:evenodd" d="M47.69 330.46c-3.5-24.94-1.91-51.6-2.09-78.56L230.5 35.5l184.9 216.4c-.18 26.95 1.41 53.62-2.09 78.56L230.5 116.5Z"/>
    <path style="fill:none;stroke:#000" d="M413.31 330.46 230.5 116.5 47.69 330.46M45.6 251.9 230.5 35.5l184.9 216.4"/>
    <path style="fill:none;stroke:#000" d="M30.5 61.44c8.44 27.77 15 66.61 15 109.14v125.74c0 66.8 24.73 126.72 70.47 167.86 27.6 24.82 72.7 55.18 114.53 66.32 41.83-11.14 86.93-41.5 114.53-66.33 45.74-41.14 70.47-101.05 70.47-167.85V170.58c0-42.53 6.56-81.37 15-109.14-49.44-19.34-127.72-25.94-200-25.94s-150.56 6.6-200 25.94z"/>
</svg>
