<svg xmlns="http://www.w3.org/2000/svg" width="400" height="500" viewBox="30.5 31.5 400 500" xml:space="preserve">
    <path style="fill:#e00e00" d="M230.44 531.14C156.12 477.22 105.18 409.12 74.7 322.98c-27.64-78.1-38.73-172.75-33.91-289.35l.02-.46h379.82l.02.46c4.81 116.6-6.28 211.24-33.91 289.35-30.48 86.14-81.42 154.24-155.74 208.16l-.28.2-.28-.2z"/>
    <path d="M419.96 33.21c9.07 219.45-36.26 385.95-189.46 497.1C77.31 419.16 31.99 252.66 41.06 33.21h378.9m.92-.95H40.14l-.04.92c-4.82 116.66 6.28 211.36 33.93 289.52 30.51 86.24 81.51 154.41 155.91 208.39l.56.41.56-.41c74.4-53.98 125.4-122.15 155.91-208.39 27.65-78.16 38.75-172.86 33.93-289.52l-.04-.92z"/>
    <path style="fill:#ffe000;fill-opacity:1;stroke:#000;stroke-opacity:1" d="M173.782 174.103c4.5 2.558 10.271-10.827 10.467-14.807.153-3.107-3.829-1.969-5.106-5.616-2.29-6.54-.174-16.03-.766-23.998-5.839.339-6.143-3.251-5.616-6.51.173-6.974 7.715-23.48 7.148-27.062-1.99-12.569-16.745-15.134-17.374-28.007-.085-1.727 1.937-2.175 3.064-3.064-.108-2.664-2.784-7.858-.128-7.787 20.998.566 38.207 17.94 38.207 17.94 4.005 3.34 8.602-5.404 20.505-6.064 34.58-1.918 28.862 8.258 36.42 5.33 10.565-4.093 18.148-16.267 23.031-14.032 4.493 2.056 8.89-1.161 14.501-.623 2.243.215-.588 5.38.748 6.613 2.12 1.956 7.757.814 5.48 4.12-4.411 6.408-20.006 19.264-19.773 22.391.997 13.363 12.3 26.1-.306 38.692.493 8.938-.166 20.135-9.91 23.46-.65 7.697 5.382 23.872 12.478 21.145 3.835-1.475 16.445-10.798 23.809-23.154 11.158-18.723 20.805-43.548 28.214-48.918 5.665-4.105 9.721-17.895 20.922-17 28.592 2.288 22.363 61.894 31.193 95.607 2.885 11.019-5.117 9.205-5.315 11.772-1.83 23.662-.195 51.092-3.68 62.999-1.846 6.304-8.437 2.981-9.624 8.466-4.513 20.845-14.179 61.376-28.054 84.57-4.97 8.308-7.708 3.725-9.399.462-1.988-3.838 1.896-22.21-.12-24.787-1.677-2.143-11.594 20.558-15.299 19.62-5.636-1.426-.584-23.907-1.69-27.627-.837-2.81-12.406 19.052-15.102 17.345-4.656-2.948 0-21.497 1.46-24.377 4.729-9.321 11.434-26.266 11.177-31.661-.433-9.088-8.914-21.36-10.96-21.686-2.625 3.653-13.032 35.839-13.693 51.413-1.228 28.906 15.913 49.06 22.69 79.98.628 2.864-2.99 3.865-5.405 5.194-6.754 3.72 4.778 12.337.106 15.872-2.869 2.17-28.786-12.935-41.82-24.93-.764-.702-6.48 12.444-5.626 13.403 7.168 8.034 20.82 10.035 24.764 14.181 6.838 7.186 3.435 20.035.118 16.027-2.192-2.65-2.546-9.512-5.062-9.994-2.421-.463-5.76 4.799-8.47 4.321-4.34-.765-6.363-7.222-10.732-3.235-1.644 1.5 9.621 11.769 9.658 15.232.097 9.097 1.128 9.355 3.506 8.711l5.886-1.593c10.061-2.723-.744 13.449-6.19 13.386-9.4-.108-10.209-8.627-15.499-14.72-3.461-3.986-6.804-8.04-6.03-4.377 2.841 13.444-4.947 17.436-4.12 20.092 3.31 10.62 11.552 4.808 11.132 8.168-.466 3.736-4.62 5.89-9.099 5.9-8.656.017-12.045-6.986-12.946-15.34-.7-6.48 1.636-16.76-.246-18.965-1.872-2.193-5.69 13.565-8.504 14.632-2.266.859-5.12-2.215-6.97-.746-2.21 1.755-1.658 6.073-.762 7.764 1.487 2.805 7.665 5.532 5.391 6.739-10.68 5.67-18.153-4.694-15.261-15.97 2.922-11.394 23.345-28.08 31.94-55.98 1.278-4.152-6.338-16.031-11.917-14.793-4.603 1.022-11.254 1.553-9.703 5.705 2.024 5.42 9.683 7.382 12.297 17.952 1.46 5.903-9.438 11.68-9.487 7.858 0 0 2.573-12.422-.138-10.906-2.55 1.426-5.02 3.395-7.648 3.104-3.836-.423-6.078-2.245-7.163-.264-1.867 3.406-.42 12.165-1.134 17.002-.755 5.11-3.91.708-5.14 5.909-.234.991-.496 5.183.938 6.625 2.708 2.724 6.47 3.492 6.105 5.003-.464 1.919-8.805 4.437-12.93.75-6.825-6.104-2.634-14.228-3.648-21.378-.225-1.585-.204-4.459-2.748-3.225-5.06 2.453-3.688 6.438-9.424 9.158-3.274 1.553-6.35-1.467-7.605.052-2.666 3.226.017 10.622 2.57 13.967 2.103 2.755-12.725-1.154-13.429-11.538-.452-6.674 8.867-13.789 13.108-17.616 1.913-1.726 7.286-6.367 5.74-6.34-12.49.21-17.893-6.956-18.584-3.443-.848 4.31-1.162 13.531-3.497 12.374-12.474-6.18-4.392-23.373 4.428-24.279 24.292-2.495 38.296-.675 41.503-17.954.621-3.345 1.284-12.632-1.433-14.995-1.741-1.514-3.422 7.608-5.871 6.891-6.29-1.841-12.067-18.012-13.371-20.121-13.24-21.404-12.979-34.086-15.426-53.687-1.189-9.523-3.62-26.525-7.393-26.29-6.087.38-12.372 12.415-13.092 17.52-2.912 20.677 14.21 34.75 13.846 55.44-.142 8.056-2.657 8.568-3.764 7.044-2.033-2.798-10.511-19.367-13.424-18.426-1.76.57.696 27.762-2.002 28.296-5.856 1.158-12.238-23.269-14.832-22.823-1.616.277-.641 20.354-.367 26.708.232 5.363-4.135 6.516-5.924 1.551-10.189-28.262-25.25-55.679-34.196-84.65-23.084-4.907-9.871-49.612-12.127-77.482-6.877 1.14-10.221-2.358-7.967-10.961 5.426-20.709 11.262-68.723 15.882-80.946 3.463-9.164 27.027-12.456 32.55-4.595 17.76 25.276 29.506 63.227 57.059 78.886z"/>
    <path style="fill:none;fill-opacity:1;stroke:#000;stroke-width:1;stroke-miterlimit:4;stroke-dasharray:none;stroke-opacity:1" d="M230.667 121.164c-3.608-.123-6.557 5.23-6.504 8.976.041 2.841 4.48 7.486 6.776 12.432 3.308-4.406 5.86-8.077 5.73-14.161-.09-4.2-2.859-7.14-6.002-7.247z"/>
    <path d="M210.625 154.072c7.307-6.264 4.357-14.872 9.473-21.332M242.123 133.202c5.041 5.986 3.42 12.368 9.857 18.02M195.3 87.458c9.909 12.841 16.275 4.676 34.347 24.797 20.206-22.125 30.652-14.44 36.04-27.878" style="fill:none;fill-rule:evenodd;stroke:#000;stroke-width:1px;stroke-linecap:round;stroke-linejoin:round;stroke-opacity:1"/>
    <path style="fill:none;fill-rule:evenodd;stroke:#000;stroke-width:1px;stroke-linecap:round;stroke-linejoin:miter;stroke-opacity:1" d="M260.27 100.857c-1.593 2.042-4.685 5.204-6.93 5.776-3.992-.246-8.682-.802-11.167 2.465-3.403 4.475-1.608 10.978 5.853 10.396 6.744-.526 5.836-8.182 5.314-12.86"/>
    <circle r="2.81" cy="113.141" cx="247.167" style="opacity:1;fill:#000;fill-opacity:1;fill-rule:evenodd;stroke:none;stroke-width:1;stroke-linecap:round;stroke-linejoin:round;stroke-miterlimit:4;stroke-dasharray:none;stroke-opacity:1"/>
    <path d="M198.781 101.165c1.594 2.042 4.686 5.204 6.931 5.776 3.992-.245 8.683-.802 11.167 2.465 3.403 4.475 1.608 10.978-5.853 10.396-6.744-.526-5.835-8.182-5.314-12.86" style="fill:none;fill-rule:evenodd;stroke:#000;stroke-width:1px;stroke-linecap:round;stroke-linejoin:miter;stroke-opacity:1"/>
    <circle transform="scale(-1 1)" style="opacity:1;fill:#000;fill-opacity:1;fill-rule:evenodd;stroke:none;stroke-width:1;stroke-linecap:round;stroke-linejoin:round;stroke-miterlimit:4;stroke-dasharray:none;stroke-opacity:1" cx="-211.886" cy="113.449" r="2.81"/>
</svg>
