<svg xmlns="http://www.w3.org/2000/svg" width="400" height="500" viewBox="30.5 31.5 400 500" xml:space="preserve">
    <path d="M230.45 531.13c-74.32-53.92-125.26-122.02-155.74-208.16-27.64-78.1-38.73-172.75-33.91-289.35l.02-.46h379.82l.02.46c4.81 116.6-6.28 211.24-33.91 289.35-30.48 86.14-81.42 154.24-155.74 208.16l-.28.2-.28-.2z" fill="#e00e00"/>
    <path d="M419.96 33.21c9.07 219.45-36.25 385.95-189.45 497.1C146.04 469.02 94.36 390.9 66.52 296.34a557.24 557.24 0 0 1-5.87-21.54c-11.45-45.69-17.77-95.02-19.88-147.94-1.2-30.06-1.05-61.28.29-93.65h378.9m.92-.95H40.14l-.04.92c-4.82 116.66 6.28 211.36 33.93 289.52 30.51 86.24 81.51 154.41 155.91 208.39l.56.41.56-.41c74.4-53.98 125.4-122.15 155.91-208.39 27.65-78.16 38.75-172.86 33.93-289.52l-.04-.92z"/>
    <path d="M166.2 117.27c16.2 27.6 37.8 66.3 42.3 106.1-37.5-3.3-63.9-18.6-85.8-38.8-13.3 20.6-27.9 40.6-45.4 59.2 20.9 18 35.9 37.7 49.2 57.8 24.4-18.4 48.7-37.1 81.3-38.8-2.4 46-15.4 87.4-43.2 122.3 22.9 16.1 45.1 34.5 65.9 58.2 20.8-23.7 43-42.1 65.9-58.2-27.8-35-40.8-76.4-43.2-122.3 32.6 1.6 56.9 20.4 81.3 38.8 13.4-20.1 28.3-39.8 49.2-57.8-17.5-18.5-32.1-38.5-45.4-59.2-21.9 20.2-48.3 35.5-85.8 38.8 4.5-39.9 26-78.5 42.3-106.1-26.5-17.4-50.4-41.9-64.3-58-13.9 16.1-37.8 40.6-64.3 58z" style="fill:#ffe000;stroke:#000"/>
</svg>
