<svg xmlns="http://www.w3.org/2000/svg" width="400" height="500" viewBox="30.5 31.5 400 500" xml:space="preserve">
    <path style="fill:#e00e00;fill-opacity:1" fill="#32ac60" d="M230.45 531.13c-74.32-53.92-125.26-122.02-155.74-208.16-27.64-78.1-38.73-172.75-33.91-289.35l.02-.46h379.82l.02.46c4.81 116.6-6.28 211.24-33.91 289.35-30.48 86.14-81.42 154.24-155.74 208.16l-.28.2-.28-.2z"/>
    <path d="M419.96 33.21c9.07 219.45-36.25 385.95-189.45 497.1C146.04 469.02 94.36 390.9 66.52 296.34a557.24 557.24 0 0 1-5.87-21.54c-11.45-45.69-17.77-95.02-19.88-147.94-1.2-30.06-1.05-61.28.29-93.65h378.9m.92-.95H40.14l-.04.92c-4.82 116.66 6.28 211.36 33.93 289.52 30.51 86.24 81.51 154.41 155.91 208.39l.56.41.56-.41c74.4-53.98 125.4-122.15 155.91-208.39 27.65-78.16 38.75-172.86 33.93-289.52l-.04-.92z"/>
    <path style="fill:#fff;fill-rule:evenodd;stroke:#000;stroke-miterlimit:4" d="m320.51 134.21-7.42-7.45c-2.39 1.19-5.39.36-6.71-1.8-1.38-2.26-.81-4.91.36-6.24 1.78-2.04 5.5-2.83 7.84-.22 1.01 1.13 1.81 3.56 1.11 5.44l7.5 7.25M332.99 120.39l-7.91-7.58c-2.4 1.2-5.41.36-6.74-1.81-1.39-2.27-.81-4.93.36-6.26 1.79-2.05 5.53-2.84 7.88-.22 1.02 1.14 1.82 3.57 1.12 5.47l7.97 7.47M344.93 107.2l-8.33-7.96c-2.41 1.2-5.43.36-6.76-1.81-1.39-2.28-.81-4.94.36-6.28 1.79-2.05 5.55-2.85 7.9-.22 1.02 1.14 1.83 3.58 1.12 5.48l8.34 7.88M356.81 94.09l-8.77-8.41c-2.42 1.21-5.45.37-6.78-1.82-1.4-2.29-.81-4.96.36-6.31 1.8-2.06 5.57-2.86 7.93-.22 1.03 1.15 1.83 3.6 1.12 5.51l8.82 8.29M378.38 98.82l7.842 6.535c-.77 2.57.348 5.735 2.708 6.675 2.47.98 4.98-.04 6.1-1.42 1.71-2.11 1.521-5.835-1.063-7.837-1.12-.867-3.253-1.123-5.163-.226L380.8 95.76M367.61 112.58l7.44 6.77c-.77 2.56.56 5.37 2.92 6.3 2.46.98 4.97-.04 6.09-1.41 1.7-2.1 1.85-5.91-1.12-7.77-1.29-.81-3.81-1.18-5.55-.17l-7.32-6.8M356.39 126.96l7.06 6.46c-.76 2.55.56 5.35 2.91 6.28 2.45.97 4.95-.04 6.06-1.41 1.7-2.09 1.85-5.89-1.11-7.74-1.28-.8-3.8-1.18-5.53-.17l-6.92-6.6M345.66 140.63l6.82 6.21c-.76 2.55.56 5.34 2.9 6.27 2.45.97 4.94-.04 6.05-1.41 1.69-2.09 1.84-5.87-1.11-7.72-1.28-.8-3.79-1.18-5.52-.17l-6.69-6.29M368.64 81.02l-9.09-8.91c-2.43 1.21-5.46.37-6.8-1.83-1.4-2.29-.82-4.97.36-6.32 1.8-2.07 5.58-2.87 7.95-.22 1.03 1.15 1.84 3.6 1.13 5.52l9.11 8.82"/>
    <path style="fill:#fff;stroke:#000" d="m392 50.38-4.8 5.7c-10-5.1-19.2 6.2-13.2 15.7l-94.26 108.59c-2.03 2.34-4.46 3.73-6.8 2.36-14.11-8.27-37.5-13.85-51.66-.45-8.7 8.2-17.08 18.99-19.98 28.59-2.9 9.9-7.9 5.5-11.4 8-2.4 1.7-.7 3.3 1 3.9 11.1 4.1 4.9 17-1.1 24.3-16.9 20.5-31.3 18.1-32.6 8.8-.4-3-4-3.3-6.2.6-.7 1.3.5 5.4-4 8.5-17.6 12.2-18.9 7.7-29.6 21.6-10.9 14.1-17 23.4-14.2 44 1.9 13.2 15 31.8 29.3 43.9 14.3 12 34.6 20.8 48 20.4 20.8-.7 29.2-7.5 41.2-20.6 11.8-12.9 2.2-10.2 11.1-29.8 2.2-4.9 6.5-4.5 7.6-5.4 3.5-2.8 2.7-6.2-.4-6.2-9.3.3-11-18 6.4-38.2 6.3-7.3 19-13.9 25.1-3.5 1 1.6 2.8 2.9 4 .3 1.9-3.8-3.3-8 6-12.6 9-4.5 15.5-15.5 22.1-25.4 9.16-14.15 10.33-30.6-1.83-48.33-1.73-2.53-3.05-5.1-.7-7.99L391.9 85.28c10.4 4.3 20-6.7 13.2-15.7l4.8-5.7c-4.6-3.7-13.2-9.6-17.9-13.5z"/>
    <path style="fill:#e00e00;stroke:#000;fill-opacity:1" d="M207.4 256.08c1.6 3.7-3 1.5-3.8 5-.6 2.6 2.9 5.7 5.9 1.7 1.8-2.4 2.6-6.1-.5-8.9-8.3-7.6-19.4 5.4-28.4 14.9-14.9 16.1-19.9 17.2-22.8 16.9-4.2-.3-4.3-8.1-1.7-7.4 1.1.1 2.8.2 3.9-1.9 1.5-2.4-2.9-7.9-7.7-2.6-2.7 3-2.4 8.2 1.2 11.9 3.9 3.9 11.1 2.2 17.4-2.8 5.9-4.5 9.2-8 13.3-12.3 8.6-9.1 11.9-12.1 14.3-14.2 3.9-3.5 7.7-2.7 8.6-.5zM235 279.18c-3.9-.9-1 3.2-4.2 4.6-2.4 1.1-6.2-1.9-2.7-5.6 2-2.2 5.6-3.6 8.9-1.1 8.9 6.9-2 20.1-9.8 30.5-13.3 17.5-13.5 22.5-12.8 25.3 1 4.1 8.7 2.8 7.6.4-.3-1-.7-2.7 1.2-4.2 2.2-1.9 8.2 1.5 3.9 7.1-2.5 3.2-7.7 3.8-11.9.8-4.5-3.2-4.1-10.6-.3-17.7 3.4-6.6 6.3-10.4 9.8-15.2 7.5-10 9.9-13.8 11.5-16.5 2.8-4.5 1.3-8-.9-8.6z"/>
</svg>
