<svg xmlns="http://www.w3.org/2000/svg" width="400" height="500" viewBox="30.5 31.5 400 500" xml:space="preserve">
    <path style="fill:#0085ca;fill-opacity:1" d="M230.45 531.13c-74.32-53.92-125.26-122.02-155.74-208.16-27.64-78.1-38.73-172.75-33.91-289.35l.02-.46h379.82l.02.46c4.81 116.6-6.28 211.24-33.91 289.35-30.48 86.14-81.42 154.24-155.74 208.16l-.28.2z"/>
    <path d="M419.96 33.21c9.07 219.45-36.25 385.95-189.45 497.1C146.04 469.02 94.36 390.9 66.52 296.34a557.24 557.24 0 0 1-5.87-21.54c-11.45-45.69-17.77-95.02-19.88-147.94-1.2-30.06-1.05-61.28.29-93.65h378.9m.92-.95H40.14l-.04.92c-4.82 116.66 6.28 211.36 33.93 289.52 30.51 86.24 81.51 154.41 155.91 208.39l.56.41.56-.41c74.4-53.98 125.4-122.15 155.91-208.39 27.65-78.16 38.75-172.86 33.93-289.52l-.04-.92z"/>
    <path style="fill:#ffe000;fill-opacity:1;fill-rule:evenodd;stroke:#000;stroke-width:1px;stroke-linecap:butt;stroke-linejoin:round;stroke-opacity:1" d="M230.5 66.5c5.22 0 17.167 10.171 33.657 23H241.67l-1.96 93.64c-.116 5.553-2.175 7.882-9.21 11.978-7.035-4.096-9.094-6.425-9.21-11.978l-1.96-93.64h-22.487c16.49-12.829 28.438-23 33.657-23M230.5 376.5c5.22 0 17.167-10.171 33.657-23H241.67l-1.96-93.64c-.116-5.553-2.175-7.882-9.21-11.978-7.035 4.096-9.094 6.425-9.21 11.978l-1.96 93.64h-22.487c16.49 12.829 28.438 23 33.657 23M96.5 144c2.647-4.498 17.472-9.637 36.892-17.344l-11.404 19.381 79.71 49.179c4.727 2.916 5.69 5.872 5.653 14.012-7.098 3.986-10.15 4.579-14.995 1.863l-81.698-45.8-11.404 19.381c-2.694-20.718-5.4-36.174-2.754-40.672M364.5 144c-2.647-4.498-17.472-9.637-36.892-17.344l11.404 19.381-79.71 49.179c-4.727 2.916-5.69 5.872-5.653 14.012 7.098 3.986 10.15 4.579 14.995 1.863l81.698-45.8 11.404 19.381c2.694-20.718 5.4-36.174 2.754-40.672M364.5 299c-2.647 4.498-17.472 9.637-36.892 17.344l11.404-19.381-79.71-49.179c-4.727-2.916-5.69-5.872-5.653-14.012 7.098-3.986 10.15-4.579 14.995-1.863l81.698 45.8 11.404-19.381c2.694 20.718 5.4 36.174 2.754 40.672M96.5 299c2.647 4.498 17.472 9.637 36.892 17.344l-11.404-19.381 79.71-49.179c4.727-2.916 5.69-5.872 5.653-14.012-7.098-3.986-10.15-4.579-14.995-1.863l-81.698 45.8-11.404-19.381c-2.694 20.718-5.4 36.174-2.754 40.672"/>
</svg>
