<svg xmlns="http://www.w3.org/2000/svg" width="400" height="500" viewBox="30.5 31.5 400 500" xml:space="preserve">
    <path d="M230.55 531.13c74.32-53.92 125.26-122.02 155.74-208.16 27.64-78.1 38.73-172.75 33.91-289.35l-.02-.46H40.36l-.02.46c-4.81 116.6 6.28 211.24 33.91 289.35 30.48 86.14 81.42 154.24 155.74 208.16l.28.2.28-.2z" fill="#32ac60"/>
    <path d="M41.04 33.21c-9.07 219.45 36.25 385.95 189.45 497.1 84.47-61.29 136.15-139.41 163.99-233.97a557.24 557.24 0 0 0 5.87-21.54c11.45-45.69 17.77-95.02 19.88-147.94 1.2-30.06 1.05-61.28-.29-93.65H41.04m-.92-.95H420.86l.04.92c4.82 116.66-6.28 211.36-33.93 289.52-30.51 86.24-81.51 154.41-155.91 208.39l-.56.41-.56-.41c-74.4-53.98-125.4-122.15-155.91-208.39C46.38 244.54 35.28 149.84 40.1 33.18l.04-.92z"/>
    <path d="M254.73 270.53c-.19-16.16-18.88-30.76-24.23-47.69-5.35 16.94-24.04 31.53-24.23 47.69-.19 13.72 8.18 23.07 24.23 23.07 16.06 0 24.43-9.44 24.23-23.07zM132.73 270.53c-.19-16.16-18.88-30.76-24.23-47.69-5.35 16.94-24.04 31.53-24.23 47.69-.19 13.72 8.18 23.07 24.23 23.07 16.06 0 24.43-9.44 24.23-23.07zM376.73 270.53c-.19-16.16-18.88-30.76-24.23-47.69-5.35 16.94-24.04 31.53-24.23 47.69-.19 13.72 8.18 23.07 24.23 23.07 16.06 0 24.43-9.44 24.23-23.07zM314.73 190.53c-.19-16.16-18.88-30.76-24.23-47.69-5.35 16.94-24.04 31.53-24.23 47.69-.19 13.72 8.18 23.07 24.23 23.07 16.06 0 24.43-9.44 24.23-23.07zM194.73 190.53c-.19-16.16-18.88-30.76-24.23-47.69-5.35 16.94-24.04 31.53-24.23 47.69-.19 13.72 8.18 23.07 24.23 23.07 16.06 0 24.43-9.44 24.23-23.07zM132.73 110.53c-.19-16.16-18.88-30.76-24.23-47.69-5.35 16.93-24.04 31.53-24.23 47.69-.19 13.72 8.18 23.07 24.23 23.07 16.06 0 24.43-9.44 24.23-23.07zM254.73 110.53c-.19-16.16-18.88-30.76-24.23-47.69-5.35 16.94-24.04 31.53-24.23 47.69-.19 13.72 8.18 23.07 24.23 23.07 16.06 0 24.43-9.44 24.23-23.07zM376.73 110.53c-.19-16.16-18.88-30.76-24.23-47.69-5.35 16.94-24.04 31.53-24.23 47.69-.19 13.72 8.18 23.07 24.23 23.07 16.06 0 24.43-9.44 24.23-23.07zM314.73 350.53c-.19-16.16-18.88-30.76-24.23-47.69-5.35 16.94-24.04 31.53-24.23 47.69-.19 13.72 8.18 23.07 24.23 23.07 16.06 0 24.43-9.44 24.23-23.07zM194.73 350.53c-.19-16.16-18.88-30.76-24.23-47.69-5.35 16.94-24.04 31.53-24.23 47.69-.19 13.72 8.18 23.07 24.23 23.07 16.06 0 24.43-9.44 24.23-23.07z" style="fill:#fff;stroke-width:.97;stroke:#000"/>
    <path d="M255.4 430.88c-.2-16.6-19.4-31.6-24.9-49-5.5 17.4-24.7 32.4-24.9 49-.2 14.1 8.4 23.7 24.9 23.7s25.1-9.7 24.9-23.7z" style="fill:#fff;stroke:#000"/>
</svg>
