<svg xmlns="http://www.w3.org/2000/svg" width="400" height="500" viewBox="30.5 31.5 400 500" xml:space="preserve">
    <path d="M230.44 531.14C156.12 477.22 105.18 409.12 74.7 322.98c-27.64-78.1-38.73-172.75-33.91-289.35l.02-.46h379.82l.02.46c4.81 116.6-6.28 211.24-33.91 289.35-30.48 86.14-81.42 154.24-155.74 208.16l-.28.2z" style="fill:#0085ca;fill-opacity:1"/>
    <path d="M419.96 33.21c9.07 219.45-36.26 385.95-189.46 497.1C77.31 419.16 31.99 252.66 41.06 33.21h378.9m.92-.95H40.14l-.04.92c-4.82 116.66 6.28 211.36 33.93 289.52 30.51 86.24 81.51 154.41 155.91 208.39l.56.41.56-.41c74.4-53.98 125.4-122.15 155.91-208.39 27.65-78.16 38.75-172.86 33.93-289.52l-.04-.92z"/>
    <path style="fill:#fff;fill-opacity:1;stroke:#000;stroke-width:.99400002;stroke-linecap:round;stroke-linejoin:round;stroke-miterlimit:4;stroke-dasharray:none;stroke-opacity:1" d="M301.265 209c4.297-3.255-9.528-19.83-13.716-17.382l-4.385 2.563-35.25-25.104c1.58-9.266.55-21.071-6.813-26.498-23.5-17.318-38.087-28.469-47.316-36.233-8.78-7.387-6.1-22.55 5.393-22.577l97.348-.232c5.87-.014 6.669 2.077 6.846 7.89l22.858-.116V77.619c0-15.205-20.67-17.234-27.863-17.211l-108.487.348c-21.928.07-31.754 17.679-31.193 31.857 1.061 26.803 35.9 45.239 53.838 59.597 5.28 4.226 5.46 15.174-1.528 19.81l-52.124 34.576c-5.137 3.408 10.422 20.482 15.578 18.601l3.636-2.055 28.102 20.955c-32.013 19.268-87.99 63.68-88.562 113.406-.481 41.804 49.719 45.834 65.373 22.348-22.127 0-37.968.5-38.153-18.834-.333-34.843 63.359-84.773 85.653-98.476 22.294 13.703 85.986 63.633 85.653 98.476-.185 19.335-16.026 18.834-38.153 18.834 15.654 23.486 65.854 19.456 65.373-22.348-.572-49.726-56.549-94.138-88.484-113.371z"/>
    <path style="fill:#0085ca;fill-opacity:1;stroke:#000;stroke-width:.9939813;stroke-linecap:round;stroke-linejoin:round;stroke-opacity:1" d="M230.5 188.138 201.5 209l29 20.073 29-20.073Z"/>
</svg>
