<svg xmlns="http://www.w3.org/2000/svg" xml:space="preserve" viewBox="30.5 31.5 400 500" height="500" width="400">
    <path style="fill:#fff;fill-opacity:1" d="M230.44 531.14C156.12 477.22 105.18 409.12 74.7 322.98c-27.64-78.1-38.73-172.75-33.91-289.35l.02-.46h379.82l.02.46c4.81 116.6-6.28 211.24-33.91 289.35-30.48 86.14-81.42 154.24-155.74 208.16l-.28.2-.28-.2z"/>
    <path style="fill:#0085ca;fill-opacity:1;fill-rule:evenodd;stroke:none;stroke-width:1px;stroke-linecap:butt;stroke-linejoin:miter;stroke-opacity:1" d="M409.732 110.32c-5.47 12.747-12.385 18.044-25.303 25.474-13.624 7.837-14.477 19.798-19.152 28.464-2.71 5.022-11.29 13.441-23.094 19.472-8.19 4.183-11.823 10.112-17.441 22.11-4.156 8.878-11.834 16.298-22.622 21.519-7.496 3.626-14.492 9.895-15.875 19.052-1.272 8.422-5.71 12.985-12.989 16.305-4.3 1.96-12.357 4.57-8.814 21.955 2.33 11.43 9.092 20.028.182 39.217-3.366 7.25-3.647 13.314 1.773 28.565 1.711 4.814 5.042 20.62-.562 30.565-4.099 7.274-6.312 14.25-2.29 26.766 2.594 8.071 6.6 16.965-.643 34.493-3.568 8.634-3.078 20.896-1.227 27.408 1.7 5.984 5.588 17.51 12.33 23.458-13.96 12.471-28.219 24.706-43.603 35.752-14.102-10.27-28.013-21.376-41.259-33.641-3.523-8.58-13.375-31.313-7.249-45.652 4.344-10.169 9.343-20.327 8.298-33.006-.933-11.31-9.644-20.721-4.499-38.742 1.64-5.745 4.312-9.527 4.063-20.944-.31-14.244-11.49-20.564-2.27-41.21 8.292-18.562-3.25-21.522-.673-38.723 2.594-17.322-10.68-15.66-18.693-29.51-4.317-7.462-5.43-16.023-10.054-22.61-3.858-5.498-10.807-9.351-19.609-13.533-9.18-4.362-15.175-12.95-16.909-20.506-2.053-8.947-7.082-16.026-18.083-20.494-7.34-2.982-17.136-8.666-20.968-17.51-4.988-11.51-9.517-24.06-20.056-29.257-12.529-6.179-22.537-8.471-22.575-17.932-.095-23.654-.437-46.467.832-74.758l60.322-.095c.33 7.343-1.696 25.002 17.463 35.17 12.544 6.656 19.13 10.907 26.473 26.71 4.207 9.055 6.526 17.366 19.69 23.722 13.047 6.3 18.826 12.357 22 23.089 4.62 15.625 16.595 20.088 23.378 23.094 12.33 5.464 18.334 21.074 19.692 26.208.484 1.829 1.527 2.341 1.899 1.506 7.847-17.615 16.165-25.153 22.85-27.953 12.48-5.227 17.475-10.8 21.008-18.394 7.47-16.056 10.968-21.26 19.414-25.215 12.506-5.857 21.926-15.677 24.634-21.64 8.183-18.02 12.588-24.055 22.562-28.501 12.373-5.516 19.403-12.904 21.535-17.485 2.11-4.534 2.914-13.044 2.605-19.772l53.971-.426 1.266 60.76c-6.187 3.55-9.025 10.376-11.728 16.675z"/>
    <path d="M419.96 33.21c9.07 219.45-36.26 385.95-189.46 497.1C77.31 419.16 31.99 252.66 41.06 33.21h378.9m.92-.95H40.14l-.04.92c-4.82 116.66 6.28 211.36 33.93 289.52 30.51 86.24 81.51 154.41 155.91 208.39l.56.41.56-.41c74.4-53.98 125.4-122.15 155.91-208.39 27.65-78.16 38.75-172.86 33.93-289.52l-.04-.92z"/>
    <path d="M189.143 497.254c-3.523-8.58-13.375-31.313-7.249-45.652 4.344-10.169 9.343-20.327 8.298-33.006-.933-11.31-9.644-20.721-4.499-38.742 1.64-5.745 4.312-9.527 4.063-20.944-.31-14.244-11.49-20.564-2.27-41.21 8.292-18.562-3.25-21.522-.673-38.723 2.594-17.322-10.68-15.66-18.693-29.51-4.317-7.462-5.43-16.023-10.054-22.61-3.858-5.498-10.807-9.351-19.609-13.533-9.18-4.362-15.175-12.95-16.909-20.506-2.053-8.947-7.082-16.026-18.083-20.494-7.34-2.982-17.136-8.666-20.968-17.51-4.988-11.51-9.517-24.06-20.056-29.257-12.529-6.179-22.537-8.471-22.575-17.932m61.154-74.853c.33 7.343-1.696 25.002 17.463 35.17 12.544 6.656 19.13 10.907 26.473 26.71 4.207 9.055 6.526 17.366 19.69 23.722 13.047 6.3 18.826 12.357 22 23.089 4.62 15.625 16.595 20.088 23.378 23.094 12.33 5.464 18.334 21.074 19.692 26.208.484 1.829 1.527 2.341 1.899 1.506 7.847-17.615 16.165-25.153 22.85-27.953 12.48-5.227 17.475-10.8 21.008-18.394 7.47-16.056 10.968-21.26 19.414-25.215 12.506-5.857 21.926-15.677 24.634-21.64 8.183-18.02 12.588-24.055 22.562-28.501 12.373-5.516 19.403-12.904 21.535-17.485 2.11-4.534 2.914-13.044 2.605-19.772m55.237 60.334c-6.187 3.55-9.025 10.376-11.728 16.675-5.47 12.747-12.385 18.044-25.303 25.474-13.624 7.837-14.477 19.798-19.152 28.464-2.71 5.022-11.29 13.441-23.094 19.472-8.19 4.183-11.823 10.112-17.441 22.11-4.156 8.878-11.834 16.298-22.622 21.519-7.496 3.626-14.492 9.895-15.875 19.052-1.272 8.422-5.71 12.985-12.989 16.305-4.3 1.96-12.357 4.57-8.814 21.955 2.33 11.43 9.092 20.028.182 39.217-3.366 7.25-3.647 13.314 1.773 28.565 1.711 4.814 5.042 20.62-.562 30.565-4.099 7.274-6.312 14.25-2.29 26.766 2.594 8.071 6.6 16.965-.643 34.493-3.568 8.634-3.078 20.896-1.227 27.408 1.7 5.984 5.588 17.51 12.33 23.458" style="fill:none;fill-opacity:1;fill-rule:evenodd;stroke:#000;stroke-width:1px;stroke-linecap:butt;stroke-linejoin:miter;stroke-opacity:1"/>
</svg>
