<svg xmlns="http://www.w3.org/2000/svg" width="400" height="500" viewBox="30.5 31.5 400 500" xml:space="preserve">
    <path d="M230.44 531.14C156.12 477.22 105.18 409.12 74.7 322.98c-27.64-78.1-38.73-172.75-33.91-289.35l.02-.46h379.82l.02.46c4.81 116.6-6.28 211.24-33.91 289.35-30.48 86.14-81.42 154.24-155.74 208.16l-.28.2-.28-.2z" fill="#fff"/>
    <path d="M419.95 33.22c9.07 219.45-36.25 385.95-189.45 497.1C77.31 419.17 31.98 252.67 41.05 33.22h378.9m.92-.95H40.13l-.04.92c-4.82 116.66 6.28 211.36 33.93 289.52 30.51 86.24 81.51 154.41 155.91 208.39l.56.41.56-.41c74.4-53.98 125.4-122.15 155.91-208.39 27.65-78.16 38.75-172.86 33.93-289.52l-.04-.92z"/>
    <path d="M130.48 351.5v-15.38l7.02-9.58v-97.36l-22.33-34.97h-12.13L223.8 90.57V74.75h-9.02l10.97-13.23h9.52l10.97 13.23h-9.02v15.82l120.76 103.64h-12.13l-22.33 34.97v97.36l7.02 9.58v15.38H130.5z" style="fill-rule:evenodd;fill:#0085ca;stroke:#000"/>
    <path d="m192.5 229.17-10-34.97h-57l22 34.97zM202.5 229.17l-10-34.97h76l-10 34.97h-56zM268.5 229.17l10-34.97h57l-22 34.97z" style="fill-rule:evenodd;fill:#fff;stroke:#000"/>
</svg>
