<svg xmlns="http://www.w3.org/2000/svg" width="400" height="500" viewBox="30.5 31.5 400 500" xml:space="preserve">
    <path style="fill:#0085ca;fill-opacity:1" d="M230.56 531.14c74.32-53.92 125.26-122.02 155.74-208.16 27.64-78.1 38.73-172.75 33.91-289.35l-.02-.46H40.37l-.02.46c-4.81 116.6 6.28 211.24 33.91 289.35 30.48 86.14 81.42 154.24 155.74 208.16l.28.2.28-.2z"/>
    <path d="M41.04 33.21C31.97 252.66 77.3 419.16 230.5 530.31c153.19-111.15 198.51-277.65 189.44-497.1H41.04m-.92-.95H420.86l.04.92c4.82 116.66-6.28 211.36-33.93 289.52-30.51 86.24-81.51 154.41-155.91 208.39l-.56.41-.56-.41c-74.4-53.98-125.4-122.15-155.91-208.39C46.38 244.54 35.28 149.84 40.1 33.18l.04-.92z"/>
    <path d="M136.795 439.694V261.633c-7.31-1.461-16.178-4.868-24.94-10.238l-3.374 2.07-12.416-11.982 1.416-2.828c-10.663-13.09-16.288-28.985-16.59-43.364-.332-15.816 4.915-31.839 14.301-44.42l-1.85-3.156c2.515-3.364 9.832-11.083 12.634-12.635l2.939 2.178c8.325-5.506 17.245-10.195 27.88-12.524l1.741-24.83c.673-9.6 2.98-15.516 8.387-18.625l.546-15.574c.075-2.166.937-4.136 3.031-4.136 2.094 0 2.956 1.97 3.031 4.136l.546 15.574c5.407 3.11 7.714 9.025 8.387 18.625l1.74 24.83c10.636 2.33 19.556 7.018 27.881 12.524l2.94-2.178c2.8 1.552 10.118 9.271 12.634 12.635l-1.851 3.157c9.386 12.58 14.633 28.603 14.301 44.42-.302 14.378-5.927 30.273-16.59 43.363l1.416 2.828-12.416 11.981-3.374-2.069c-8.762 5.37-17.63 8.777-24.94 10.238v210.6c-9.739-10.417-19.101-21.101-27.41-32.54z" style="fill:#fff;fill-rule:evenodd;stroke:#000;stroke-width:1px;stroke-linecap:butt;stroke-linejoin:miter;stroke-opacity:1"/>
    <path d="M136.795 231.479c-1.42-.704-3.925 1.931-7.664 4.792-3.662 2.801-8.472 7.636-8.472 7.636 5.394 3.068 9.753 5.04 16.136 6.65 0 0 1-18.583 0-19.078zM136.467 161.109c-.839.366-5.872-4.213-9.518-7.19-4.097-3.347-9.344-8.945-9.344-8.945 3.689-3.011 13.342-7.19 19.19-8.613 0 0 .198 7.489.217 12.429.018 4.411.396 11.908-.545 12.319zM102.235 160.18l25.075 32.05c2.393 3.058 1.355 5.122-.435 7.416l-22.896 29.325c-15.796-21.13-15.948-47.323-1.744-68.791ZM164.205 231.479c1.42-.704 3.925 1.931 7.664 4.792 3.662 2.801 8.472 7.636 8.472 7.636-5.394 3.068-9.753 5.04-16.136 6.65 0 0-1-18.583 0-19.078zM164.533 161.109c.839.366 5.872-4.213 9.518-7.19 4.097-3.347 9.344-8.945 9.344-8.945-3.689-3.011-13.342-7.19-19.19-8.613 0 0-.198 7.489-.217 12.429-.018 4.411-.396 11.908.545 12.319zM198.765 160.18l-25.075 32.05c-2.393 3.058-1.355 5.122.435 7.416l22.896 29.325c15.796-21.13 15.948-47.323 1.744-68.791z" style="fill:#0085ca;fill-opacity:1;fill-rule:evenodd;stroke:#000;stroke-width:1px;stroke-linecap:butt;stroke-linejoin:miter;stroke-opacity:1"/>
    <path style="fill:#fff;fill-rule:evenodd;stroke:#000;stroke-width:1px;stroke-linecap:butt;stroke-linejoin:miter;stroke-opacity:1" d="M324.205 439.694V261.633c7.31-1.461 16.178-4.868 24.94-10.238l3.374 2.07 12.416-11.982-1.416-2.828c10.663-13.09 16.288-28.985 16.59-43.364.332-15.816-4.916-31.839-14.301-44.42l1.85-3.156c-2.515-3.364-9.832-11.083-12.634-12.635l-2.939 2.178c-8.325-5.506-17.245-10.195-27.88-12.524l-1.741-24.83c-.673-9.6-2.98-15.516-8.387-18.625l-.546-15.574c-.075-2.166-.937-4.136-3.031-4.136-2.094 0-2.956 1.97-3.031 4.136l-.546 15.574c-5.407 3.11-7.714 9.025-8.387 18.625l-1.74 24.83c-10.636 2.33-19.556 7.018-27.881 12.524l-2.94-2.178c-2.8 1.552-10.118 9.271-12.634 12.635l1.851 3.157c-9.386 12.58-14.633 28.603-14.301 44.42.302 14.378 5.927 30.273 16.59 43.363l-1.416 2.828 12.416 11.981 3.374-2.069c8.762 5.37 17.63 8.777 24.94 10.238v210.6c9.739-10.417 19.101-21.101 27.41-32.54z"/>
    <path style="fill:#0085ca;fill-opacity:1;fill-rule:evenodd;stroke:#000;stroke-width:1px;stroke-linecap:butt;stroke-linejoin:miter;stroke-opacity:1" d="M324.205 231.479c1.42-.704 3.925 1.931 7.664 4.792 3.662 2.801 8.472 7.636 8.472 7.636-5.394 3.068-9.753 5.04-16.136 6.65 0 0-1-18.583 0-19.078zM324.533 161.109c.839.366 5.872-4.213 9.518-7.19 4.097-3.347 9.344-8.945 9.344-8.945-3.689-3.011-13.342-7.19-19.19-8.613 0 0-.198 7.489-.217 12.429-.018 4.411-.396 11.908.545 12.319zM358.765 160.18l-25.075 32.05c-2.393 3.058-1.355 5.122.435 7.416l22.896 29.325c15.796-21.13 15.948-47.323 1.744-68.791zM296.795 231.479c-1.42-.704-3.925 1.931-7.664 4.792-3.662 2.801-8.472 7.636-8.472 7.636 5.394 3.068 9.753 5.04 16.136 6.65 0 0 1-18.583 0-19.078zM296.467 161.109c-.839.366-5.872-4.213-9.518-7.19-4.097-3.347-9.344-8.945-9.344-8.945 3.689-3.011 13.342-7.19 19.19-8.613 0 0 .198 7.489.217 12.429.018 4.411.396 11.908-.545 12.319zM262.235 160.18l25.075 32.05c2.393 3.058 1.355 5.122-.435 7.416l-22.896 29.325c-15.796-21.13-15.948-47.323-1.744-68.791z"/>
</svg>
