<svg xmlns="http://www.w3.org/2000/svg" version="1" width="420" height="500">
    <path d="M4.45 1.5h411.09V302.415c0 108.649-92.027 196.713-205.54 196.713-113.513 0-205.55-88.074-205.55-196.713V1.5z" style="fill:#ffe000;fill-opacity:1;fill-rule:nonzero"/>
    <path style="fill:#00823c;fill-opacity:1;stroke:none;stroke-width:1;stroke-linejoin:bevel;stroke-miterlimit:4;stroke-dasharray:none;stroke-opacity:1" d="M323.117 255.546c4.006-1.542 7.248 6.985 5.123 8.824-45.879 39.71-39.73 86.175-58.05 122.912-4.2 8.425 39.467 4.68 88.323 50.55-31.974 33.389-79.046 55.352-124.089 59.991-55.74 5.742-117.735-8.365-163.79-51.139 14.562-19.76 38.625-37.683 70.386-50.443 7.041-2.828-5.611-43.41-9.46-66.614-1.705-10.288-32.417-13.614-42.125-58.447-.58-2.68 7.801-6.911 8.635-3.728 3.317 12.664 9.22 21.128 16.421 29.108 23.777 26.343 30.048.67 30.993-7.044 3.184-25.986 4.11-33.462.08-49.363-.839-3.308 5.219-6.6 6.34-4.695 14.35 24.4 5.286 57.595 3.037 69.836-3.044 16.57 3.95 25.927 6.016 36.693 3.062 15.958 2.58 17.546 11.126 35.77 6.606 14.087 16.338 13.287 18.079-2.347 3.79-34.033.718-44.669-3.59-73.215-1.715-11.365-19.082-50.6-28.954-67.648-.883-1.525 9.175-4.633 10.148-2.25 6.425 15.735 2.322 10.353 14.58 27.677 9.018 12.745 14.13 18.035 20.662-3.522 6.822-22.52 16.12-29.351 24.183-42.304-12.977-32.837 18.142-33.945 28.41-50.48 9.678 19.4 25.256 22.44 20.541 40.415-4.868 18.241-22.952 26.138-33.657 15.274-1.033-1.048-4.366-3.097-6.372-.161-1.899 2.778-5.716 7.897-2.583 8.57 4.02.863 4.517 5.402 4.587 7.919.236 8.431.172 14.235 3.161 26.83 2.237 9.422 6.685 12.937 13.384-2.348 5.851-13.352 18.992-37.325 23.01-33.575 2.284-9.382-2.448-14.292 2.525-23.204 7.763-13.912 25.777-10.604 40.91-20.467 10.18 12.019 13.889 21.918 14.088 32.4.359 18.889-28.35 35.396-35.698 23.588-8.294-13.327-11.33-7.605-19.008-10.908 1.358 4.997-25.97 40.55-24.384 54.807 3.453 31.042-4.343 49.777-14.286 94.955-2.117 9.619 1.005 7.076 8.415-1.047 22.387-24.54 17.452-66.355 28.767-85.162 12.94-21.1.545-33.455 4.015-54.47.609-3.689 11.125-2.819 11.5 2.574 1.134 16.293 6.893 12.854 4.195 32.11-1.084 7.738 3 11.028 8.922 2.445 10.206-14.792 11.498-17.132 15.484-18.667"/>
    <path d="M228.125 233.283c-13.679 14.608-20.074 37.907-18.726 51.247.864 8.55-.245 15.629.434 26.005 1.875 28.658 4.32 32.15 3.389 63.967-.31 10.606 3.033 10.566 5.453 1.572 7.038-26.162 13.697-38.857 18.08-62.389 2.023-10.859.904-20.362.333-29.884-1.495-24.923-7.844-42.904-8.963-50.518z" style="fill:#ffe000;fill-opacity:1;stroke:#000;stroke-width:1;stroke-linejoin:bevel;stroke-miterlimit:4;stroke-dasharray:none;stroke-opacity:1"/>
    <path d="M44.054 260.637c5.486-14.378 10.957-29.91 19.488-43.899 4.05-6.641 20.885-12.007 26.766-7.161 3.822 3.15 6.426 7.661 8.687 11.263 5.283-2.114 8.883-6.414 15.849-6.34 2.683 1.963.956 8.61 0 8.687-3.901.313-9.772 1.592-14.323 5.4-2.57 2.152-.099 6.494 1.193 7.44 5.408 3.962.362 19.925-3.54 23.436-18.71 17.51-24.424.996-54.12 1.174z" style="fill:#00823c;fill-opacity:1;stroke:#000;stroke-width:1;stroke-linejoin:bevel;stroke-miterlimit:4;stroke-dasharray:none;stroke-opacity:1"/>
    <path d="M48.75 239.975c4.805-11.877 6.082-17.623 13.273-27.625 5.501-7.652 18.35-9.2 24.059-8.533 4.402.515 4.217 4.103 7.63.94 2.228-2.065 2.146-15.532-4.55-16.917-2.816-.582-4.051 1.39-5.147 2.906-5.667 2.797-10.96 6.142-18.428 6.724-5.72.445-10.818.287-18.512-4.732-7.17 3.326-13.475 11.36-18.87 19.18z" style="fill:#00823c;fill-opacity:1;stroke:#000;stroke-width:1;stroke-linejoin:bevel;stroke-miterlimit:4;stroke-dasharray:none;stroke-opacity:1"/>
    <path d="M28.793 160.616c8.389-3.688 15.008-9.114 21.013-15.144 4.788-4.807 16.604-9.556 28.997-4.461 7.336 3.016 10.464 4.744 10.448 15.965-.012 8.905 1.407 18.046-2.069 23.619-7.83 12.555-25.495 17.337-36.275 8.217-8.902-7.531-17.845-16.658-22.114-28.196z" style="fill:#00823c;fill-opacity:1;stroke:#000;stroke-width:1;stroke-linejoin:bevel;stroke-miterlimit:4;stroke-dasharray:none;stroke-opacity:1"/>
    <path d="M45.83 99.683c10.293-2.601 18.25-10.21 32.374-7.804-1.609 6.946-.977 21.774 18.377 22.647.285 4.127.774 20.198-5.344 31.228-1.943-4.032-11.676-13.858-30.797-9.63-.564-7.179-4.612-22.765-14.61-36.441z" style="fill:#00823c;fill-opacity:1;stroke:#000;stroke-width:1;stroke-linejoin:bevel;stroke-miterlimit:4;stroke-dasharray:none;stroke-opacity:1"/>
    <path d="M82.52 57.845c3.568 13.903-2.249 28.672.167 42.502 1.802 10.316 12.114 11.207 22.247 8.633 5.657-1.437 4.353-8.18 7.803-11.124l18.428 20.421-29.884-.83c-2.24 13.714 1.467 7.367-8.633 47.814-1.52 6.088 3.996 13.865 13.78 12.12 11.443-2.04 42.314-11.546 39.181-44.162-.595-6.197.095-11.26-10.127-14.278 1.381-2.516 5.902-2.025 2.988-10.293-1.933-5.485-5.735-9.336-15.606-17.267 3.849.433 10.535-2.234 12.784-10.127-5.85-4.293-10.653-9.988-9.795-23.077-9.338-7.923-28.374-3.837-43.332-.332z" style="fill:#00823c;fill-opacity:1;stroke:#000;stroke-width:1;stroke-linejoin:bevel;stroke-miterlimit:4;stroke-dasharray:none;stroke-opacity:1"/>
    <path d="M127.18 170.657c2.259 19.248-7.006 21.095-9.13 40.26-1.933 17.442 5.197 32.293 16.436 28.058 5.051-1.903 8.39-5.475 12.617-9.63 4.258-4.184 5.113 3.063 18.097-1.825 7.89-2.97 9.463-20.089 2.988-30.382l-8.3-7.886c4.412-1.553 3.58-3.108 3.486-5.064-.699-14.503-5.493-27.248-14.942-37.521-1.697-1.845-4.503 8.348-3.155 10.791 5.194 9.413 8.955 18.213 11.622 30.216-7.59-7.953-17.135-15.976-29.718-17.017zM192.594 160.779c-11.076 8.1-19.826 23.835-22.413 35.86 6.928 4.992 8.048 14.654 6.973 18.761 4.945 9.533 46.656 2.59 41.671-12.286-3.331-9.94-2.6-8.656-1.162-12.617 2.24-6.175-19.535-14.832-25.07-29.718zM159.887 74.281c-5.59 12.673-14.86 21.99-16.436 39.68-.49 5.5 2.962 15.616 6.973 19.092 2.028 1.757 10.013 1.92 13.282-.332 3.763-2.594 5.259-4.367 11.29-2.656 3.433-5.335 19.528-20.252 17.93-27.394-3.698-16.519-25.351-12.65-33.039-28.39z" style="fill:#00823c;fill-opacity:1;stroke:#000;stroke-width:1;stroke-linejoin:bevel;stroke-miterlimit:4;stroke-dasharray:none;stroke-opacity:1"/>
    <path d="M147.01 21.032c-6.225 15.907-10.416 21.128-15.614 30.875-8.71 16.335 5.975 35.274 21.601 26.062 2.87-1.692 1.229-5.913 3.992-10.565 1.173 2.526 3.133 5.755 6.339 7.983 7.839 5.447 17.175-.108 21.131-6.575-7.16-7.696-8.235-18.804-5.165-26.766-14.836-7.928-15.77-15.77-32.284-21.014ZM205.59 93.935c-7.275 22.265-24.582 26.268-30.757 48.367-1.643 13.093 5.354 22.132 10.565 19.722 4.68-2.163 7.834-8.677 15.027-2.582 2.672 2.264 9.848-1.569 14.792 3.287 3.37 4.273 6.24 8.597 10.8 19.722 2.063 5.031 7.891-.038 5.4-8.452-1.877-6.34-5.315-11.64-8.452-17.14 5.707-4.309 11.483-21.453 10.096-28.175-9.414-6.813-11.314-17.111-11.27-20.192-11.513-9.886-11.375-10.178-16.2-14.557z" style="fill:#00823c;fill-opacity:1;stroke:#000;stroke-width:1;stroke-linejoin:bevel;stroke-miterlimit:4;stroke-dasharray:none;stroke-opacity:1"/>
    <path d="M248.377 162.439c5.978 2.64 11.313-6.174 11.456-8.467-1.306-7.699-2.676-15.23.332-25.07.883 4.062 5.527 4.542 8.716 4.65 8.848.297 12.195-10.395 16.685-16.271 3.35-4.383-1.013-18.814-4.945-24.48-5.627-8.106-12.167-7.474-15.974-21.342-18.308 3.83-24.537 12.307-31.71 20.42.184-6.827-4.756-9.997-9.795-24.903 16.548-1.469 20.794-19.537 16.602-26.73-14.985-25.71-26.244-15.811-40.344-29.22-5.67 9.115-10.386 18.54-14.443 29.055-4.935 12.788-.8 27.495 10.625 33.868 5.256 2.932 15.598.456 18.927-2.822 6.873 5.29 8.006 22.56 15.938 25.235-9.804 14.008.562 34.93 12.451 30.216 7.03-2.787 11.233-5.159 10.626-.996-1.795 12.31-4.422 24.448-5.147 36.857zM292.705 15.177c-7.139 4.667-14.16 5.946-21.417 7.803-19.533 5-15.398 29.219-7.305 43.83 6.888-1.483 8.858 4.035 12.784 6.807 13.051 9.214 23.865-3.301 23.907-10.127.038-6.179 3.161-5.472 5.313-7.637 7.769-7.82-13.846-25.945-13.282-40.676zM344.006 45.393c-12.902 6.105-26.862 6.106-36.691 17.267-6.02 6.834-7.278 16.533-5.479 23.907l-12.95 12.7c.857 2.938.615 12.455 2.574 8.8 3.625-6.765 7.742-12.3 12.618-15.938 5.066-1.887 7.232 8.023 10.573 12.841 2.649 3.821 8.595 3.393 12.913 2.113 4.595-9.813 13.83-13.594 18.666-18.9 2.246-2.464-2.17-5.59-1.459-12.92.879-9.067 2.29-21.539-.765-29.87zM331.886 257.072c.594-4.777-.667-25.279 8.135-32.209 18.134-14.277 29.772 5.092 31.379 12.12 2.211 9.676 3.234 18.582 2.49 30.382-18.36-.816-31.619 2.688-42.004-10.293z" style="fill:#00823c;fill-opacity:1;stroke:#000;stroke-width:1;stroke-linejoin:bevel;stroke-miterlimit:4;stroke-dasharray:none;stroke-opacity:1"/>
    <path d="M353.137 206.103c-1.387-.193-3.365 8.742-.166 9.131 7.25.882 19.084 5.579 24.737 23.077 1.182 3.656 18.852.41 16.27-5.479-4.124-9.41-8.837-21.944-9.96-30.548-.364-2.78-6.221-3.88-7.638-1.494-2.802 4.72-11.086 7.002-23.243 5.313z" style="fill:#00823c;fill-opacity:1;stroke:#000;stroke-width:1;stroke-linejoin:bevel;stroke-miterlimit:4;stroke-dasharray:none;stroke-opacity:1"/>
    <path d="M326.117 167.503c-2.135-1.33 1.778-6.061 4.192-5.853 7.459.645 5.6 9.127 14.693 9.007-.772-4.897-.975-9.478 1.91-13.282 1.532-2.022 3.731-3.185 6.972-3.403 7.167 3.995 10.888 1.168 13.531-.83 2.57-1.944 8.453-1.425 11.788 2.656 5.54 6.778 11.731 11.294 17.598 15.44-4.895 12.65-16.35 21.568-23.077 26.564-12.003 8.914-30.714 8.057-35.529-.83-1.592-2.94 1.694-4.965.664-10.294-.697-3.61 1.878-4.763 2.823-7.139-7.31-.478-9.934-8.53-15.565-12.036zM282.578 194.315c-2.885-2.781-2.75-7.471-1.495-9.878 3.123-5.983 7.087-13.585 8.468-21.25-11.282-4.856-15.426-19.395-11.788-27.478 5.006-11.122 16.423-19.662 24.405-20.254 6.557-.487 11.84-.66 16.27-3.653 2.328-1.572 11.69-.255 10.46 3.155-1.896 5.257-2.213 10.75-1.102 15.89 2.467 11.41 2.375 29.456-12.18 39.063-4.61 3.042-10.101 4.327-13.614 1.66-2.392-1.816-5.693-7.608-6.973-3.32-3.12 10.453-6.954 20.102-12.451 26.065z" style="fill:#00823c;fill-opacity:1;stroke:#000;stroke-width:1;stroke-linejoin:bevel;stroke-miterlimit:4;stroke-dasharray:none;stroke-opacity:1"/>
    <path d="M332.964 132.558c.543-7.995 1.969-14.994.213-22.745-1.182-5.219 5.444-16.67 23.214-16.766 16.571-.091 12.166 8.227 27.053 7.345.978 13.304-10.02 22.043-10.8 39.914-.497 11.405-21.744 15.187-29.232 5.048-1.34-1.814-.921-6.081-10.448-12.796z" style="fill:#00823c;fill-opacity:1;stroke:#000;stroke-width:1;stroke-linejoin:bevel;stroke-miterlimit:4;stroke-dasharray:none;stroke-opacity:1"/>
    <path d="M4.45 1.5h411.09V302.415c0 108.649-92.027 196.713-205.54 196.713-113.513 0-205.55-88.074-205.55-196.713V1.5z" style="fill:none;stroke:#000;stroke-width:1.02142417"/>
    <path d="M323.117 255.546c4.006-1.542 7.248 6.985 5.123 8.824-45.879 39.71-39.73 86.175-58.05 122.912-4.2 8.425 39.467 4.68 88.323 50.55m-287.878 8.852c14.561-19.76 38.624-37.683 70.385-50.443 7.041-2.828-5.611-43.41-9.46-66.614-1.705-10.288-32.417-13.614-42.125-58.447-.58-2.68 7.801-6.911 8.635-3.728 3.317 12.664 9.22 21.128 16.421 29.108 23.777 26.343 30.048.67 30.993-7.044 3.184-25.986 4.11-33.462.08-49.363-.839-3.308 5.219-6.6 6.34-4.695 14.35 24.4 5.286 57.595 3.037 69.836-3.044 16.57 3.95 25.927 6.016 36.693 3.062 15.958 2.58 17.546 11.126 35.77 6.606 14.087 16.338 13.287 18.079-2.347 3.79-34.033.718-44.669-3.59-73.215-1.715-11.365-19.082-50.6-28.954-67.648-.883-1.525 9.175-4.633 10.148-2.25 6.425 15.735 2.322 10.353 14.58 27.677 9.018 12.745 14.13 18.035 20.662-3.522 6.822-22.52 16.12-29.351 24.183-42.304-12.977-32.837 18.142-33.945 28.41-50.48 9.678 19.4 25.256 22.44 20.541 40.415-4.868 18.241-22.952 26.138-33.657 15.274-1.033-1.048-4.366-3.097-6.372-.161-1.899 2.778-5.716 7.897-2.583 8.57 4.02.863 4.517 5.402 4.587 7.919.236 8.431.172 14.235 3.161 26.83 2.237 9.422 6.685 12.937 13.384-2.348 5.851-13.352 18.992-37.325 23.01-33.575 2.284-9.382-2.448-14.292 2.525-23.204 7.763-13.912 25.777-10.604 40.91-20.467 10.18 12.019 13.889 21.918 14.088 32.4.359 18.889-28.35 35.396-35.698 23.588-8.294-13.327-11.33-7.605-19.008-10.908 1.358 4.997-25.97 40.55-24.384 54.807 3.453 31.042-4.343 49.777-14.286 94.955-2.117 9.619 1.005 7.076 8.415-1.047 22.387-24.54 17.452-66.355 28.767-85.162 12.94-21.1.545-33.455 4.015-54.47.609-3.689 11.125-2.819 11.5 2.574 1.134 16.293 6.893 12.854 4.195 32.11-1.084 7.738 3 11.028 8.922 2.445 10.206-14.792 11.498-17.132 15.484-18.667" style="fill:none;fill-opacity:1;stroke:#000;stroke-width:1;stroke-linejoin:bevel;stroke-miterlimit:4;stroke-dasharray:none;stroke-opacity:1"/>
</svg>
