<svg xmlns="http://www.w3.org/2000/svg" width="400" height="500" viewBox="30.5 31.5 400 500" xml:space="preserve">
    <path d="M230.55 531.13c74.32-53.92 125.26-122.02 155.74-208.16 27.64-78.1 38.73-172.75 33.91-289.35l-.02-.46H40.36l-.02.46c-4.81 116.6 6.28 211.24 33.91 289.35 30.48 86.14 81.42 154.24 155.74 208.16l.28.2.28-.2z" fill="#e00e00"/>
    <path d="M41.04 33.21c-9.07 219.45 36.25 385.95 189.45 497.1 84.47-61.29 136.15-139.41 163.99-233.97a557.24 557.24 0 0 0 5.87-21.54c11.45-45.69 17.77-95.02 19.88-147.94 1.2-30.06 1.05-61.28-.29-93.65H41.04m-.92-.95H420.86l.04.92c4.82 116.66-6.28 211.36-33.93 289.52-30.51 86.24-81.51 154.41-155.91 208.39l-.56.41-.56-.41c-74.4-53.98-125.4-122.15-155.91-208.39C46.38 244.54 35.28 149.84 40.1 33.18l.04-.92z"/>
    <path d="M259.09 207.63c33.19 5.43 51.89-20.4 51.11-42.25-.96-26.99-32.88-53.63-66.7-32.03-2.83-21.82 15.89-47.44 48.18-45.78 63.28 3.27 88.03 78.88 85.64 123.93-5.2 98.21-56.82 160-146.82 215-90-55-141.62-116.79-146.82-215-2.39-45.05 22.36-120.66 85.64-123.93 32.29-1.66 51.01 23.96 48.18 45.78-33.82-21.6-65.74 5.04-66.7 32.03-.77 21.85 17.92 47.68 51.11 42.25-25.15 39.4-3.1 73.05 28.59 73.05s53.74-33.64 28.59-73.05z" style="fill-rule:evenodd;fill:#fff;stroke:#000"/>
</svg>
