<svg xmlns="http://www.w3.org/2000/svg" xmlns:xlink="http://www.w3.org/1999/xlink" width="400" height="500" viewBox="30.5 31.5 400 500" xml:space="preserve">
    <path fill="#32ac60" d="M230.56 531.14c74.32-53.92 125.26-122.02 155.74-208.16 27.64-78.1 38.73-172.75 33.91-289.35l-.02-.46H40.37l-.02.46c-4.81 116.6 6.28 211.24 33.91 289.35 30.48 86.14 81.42 154.24 155.74 208.16l.28.2.28-.2z"/>
    <path d="m112.312 228.642 11.317 17.082 9.158-1.06-4.237 9.154 11.601-.915-5.509 8.922 10.734-1.248-4.855 9.24 11.48-1.445-4.863 9.786 10.735-1.98-4.345 9.667 9.878-1.672-3.696 9.354 10.744-1.981-2.942 9.578 10.537-2-3.066 10.003 10.666-2.318-2.554 9.678 9.68-3.057-1.985 9.768 9.884-2.837-1.672 10.761 9.581-4.135-.809 10.537 9.875-4.438-1.345 10.73 9.297-4.524.123 10.639 9.353-4.987-.687 10.398 9.482-5.152.397 10.73 8.202-5.204.446 10.008 17.189 8.114 12.064-4.378 18.72-18.946-173.311-160.306-11.103 28.078z" style="fill:#fff;stroke:#000;stroke-linejoin:round;stroke-opacity:1"/>
    <path d="M79.074 223.07c-7.225 7.564 2.983 15.43 8.553 9.77l64.505-65.544c6.17-6.27-3.048-17.52-9.283-10.993z" style="fill:#fff;stroke:#000;stroke-opacity:1"/>
    <use transform="rotate(-.962 16337.802 -8497.126)" width="390" height="480" xlink:href="#a"/>
    <path transform="matrix(.6989 -.71522 .6918 .72208 0 0)" style="fill:#fff;fill-opacity:1;stroke:#000;stroke-width:1.00027168;stroke-linejoin:round;stroke-miterlimit:4;stroke-dasharray:none;stroke-opacity:1" d="M-65.353 210.672h26.325v16.778h-26.325z"/>
    <path transform="matrix(.70106 -.7131 .71996 .69402 0 0)" style="fill:#fff;fill-opacity:1;stroke:#000;stroke-width:1.0000242;stroke-linecap:round;stroke-linejoin:round;stroke-miterlimit:4;stroke-dasharray:none;stroke-dashoffset:42.65618134;stroke-opacity:1" d="M-74.375 227.564h26.259v13.002h-26.259z"/>
    <use transform="rotate(177.567 227.804 235.43)" width="390" height="480" xlink:href="#b"/>
    <use transform="rotate(177.567 227.881 235.512)" width="390" height="480" xlink:href="#c"/>
    <path d="M41.04 33.21C31.97 252.66 77.3 419.16 230.5 530.31c153.19-111.15 198.51-277.65 189.44-497.1H41.04m-.92-.95H420.86l.04.92c4.82 116.66-6.28 211.36-33.93 289.52-30.51 86.24-81.51 154.41-155.91 208.39l-.56.41-.56-.41c-74.4-53.98-125.4-122.15-155.91-208.39C46.38 244.54 35.28 149.84 40.1 33.18l.04-.92z"/>
    <path style="fill:#fff;stroke:#000;stroke-opacity:1;stroke-linejoin:round" d="m155.191 131.408 11.317 17.082 9.158-1.059-4.236 9.154 11.6-.916-5.508 8.923 10.733-1.249-4.855 9.241 11.48-1.445-4.863 9.785 10.736-1.979-4.345 9.666 9.877-1.671-3.696 9.354 10.744-1.981-2.942 9.578 10.538-2-3.066 10.003 10.665-2.319-2.554 9.679 9.681-3.058-1.985 9.769 9.883-2.838-1.671 10.762 9.58-4.136-.809 10.537 9.875-4.437-1.344 10.73 9.296-4.524.123 10.638 9.353-4.987-.687 10.399 9.483-5.152.397 10.73 8.201-5.204.446 10.007 17.189 8.114 12.064-4.377 18.72-18.946-173.31-160.307-11.104 28.079z"/>
    <path style="fill:#fff;stroke:#000;stroke-opacity:1" id="a" d="M121.953 125.836c-7.225 7.564 2.983 15.43 8.554 9.77l64.504-65.543c6.17-6.27-3.048-17.52-9.282-10.993Z"/>
    <use xlink:href="#a" height="480" width="390" transform="rotate(-.962 10566.976 -11100.1)"/>
    <path style="fill:#fff;fill-opacity:1;stroke:#000;stroke-width:1.00027168;stroke-linejoin:round;stroke-miterlimit:4;stroke-dasharray:none;stroke-opacity:1" id="b" transform="matrix(.6989 -.71522 .6918 .72208 0 0)" d="M32.93 173.364h26.325v16.778H32.93z"/>
    <path style="fill:#fff;fill-opacity:1;stroke:#000;stroke-width:1.0000242;stroke-linecap:round;stroke-linejoin:round;stroke-miterlimit:4;stroke-dasharray:none;stroke-dashoffset:42.65618134;stroke-opacity:1" id="c" transform="matrix(.70106 -.7131 .71996 .69402 0 0)" d="M25.392 189.973h26.259v13.002H25.392z"/>
    <use xlink:href="#b" height="480" width="390" transform="rotate(177.567 250.276 187.268)"/>
    <use xlink:href="#c" height="480" width="390" transform="rotate(177.567 250.354 187.35)"/>
</svg>
