<svg xmlns="http://www.w3.org/2000/svg" xml:space="preserve" viewBox="30.5 31.5 400 500" height="500" width="400">
    <path d="M230.56 531.14c74.32-53.92 125.26-122.02 155.74-208.16 27.64-78.1 38.73-172.75 33.91-289.35l-.02-.46H40.37l-.02.46c-4.81 116.6 6.28 211.24 33.91 289.35 30.48 86.14 81.42 154.24 155.74 208.16l.28.2.28-.2z" style="fill:#32ac60"/>
    <path d="M332.161 103.269c-1.122-9.23-4.46-13.703-1.664-16.616 5.167-5.385 8.926-11.594 10.372-13.7 1.666-2.426 9.697-.14 14.797 1.346 2.546.742 1.324 6.937 1.103 10.637-.163 2.718-4.948 12.516-6.512 22.084-4.049 24.76 1.008 47.337 2.32 71.22 2.718 49.506 4.556 111.866-14.034 153.303-4.764 10.618-10.366 20.877-15.203 28.316-4.029 6.195-14.069-9.205-12.623-14.575 3.036-11.27 9.272-12.336 8.273-19.592-.699-5.077-1.637-11.88.256-15.7 3.827-7.725 5.523-12.342-3.716-12.872-3.31-.19.34-6.298 5.465-14.572 2.464-3.977-10.088-.17-8.396-3.347 3.061-5.747 4.786-9.344 7.33-13.394 1.946-3.099-9.86.992-8.271-1.444 4.8-7.365 5.99-10.137 8.894-14.535 2.446-3.703-11.078 1.847-8.498-1.84 4.53-6.475 6.75-9.55 9.039-12.878 4.097-5.96-10.717-.383-8.88-3 5.124-7.301 6.841-12.794 9.163-16.228 2.274-3.363-10.097.975-8.727-1.172 3.148-4.931 5.76-9.549 7.95-13.17 2.348-3.883-9.05-.9-7.738-2.833 4.816-7.095 6.23-11.144 8.5-14.571 1.936-2.924-8.575.76-7.493-1.145 4.412-7.774 6.346-11.989 8.266-14.974 2.394-3.724-9.89.349-8.007-2.035 5.481-6.935 7.443-10.839 9.67-14.251 1.716-2.628-9.285.563-8.06-1.189 4.785-6.846 6.695-8.784 9.514-13.193 2.196-3.436-13.501.05-8.76-4.147 10.155-8.99 17.477-15.074 15.67-29.933z" style="fill:#fff;stroke:#000;stroke-linecap:round;stroke-linejoin:round;stroke-opacity:1"/>
    <path d="M350.321 84.72a4.053 3.968 0 0 1-8.106 0 4.053 3.968 0 1 1 8.106 0zM325.606 346.352a4.053 3.968 0 0 1-8.107 0 4.053 3.968 0 1 1 8.107 0z" style="opacity:.98999999;fill:#32ac60;fill-opacity:1;fill-rule:nonzero;stroke:#000;stroke-width:1;stroke-miterlimit:4;stroke-dasharray:none;stroke-opacity:1"/>
    <path style="fill:#fff;stroke:#000;stroke-linecap:round;stroke-linejoin:round;stroke-opacity:1" d="M144.161 103.269c-1.122-9.23-4.46-13.703-1.664-16.616 5.167-5.385 8.926-11.594 10.372-13.7 1.666-2.426 9.697-.14 14.797 1.346 2.546.742 1.324 6.937 1.103 10.637-.163 2.718-4.948 12.516-6.512 22.084-4.049 24.76 1.008 47.337 2.32 71.22 2.718 49.506 4.556 111.866-14.034 153.303-4.764 10.618-10.366 20.877-15.203 28.316-4.029 6.195-14.069-9.205-12.623-14.575 3.036-11.27 9.272-12.336 8.273-19.592-.699-5.077-1.637-11.88.256-15.7 3.827-7.725 5.523-12.342-3.716-12.872-3.31-.19.34-6.298 5.465-14.572 2.464-3.977-10.088-.17-8.396-3.347 3.061-5.747 4.786-9.344 7.33-13.394 1.946-3.099-9.86.992-8.271-1.444 4.8-7.365 5.99-10.137 8.894-14.535 2.446-3.703-11.078 1.847-8.498-1.84 4.53-6.475 6.75-9.55 9.038-12.878 4.098-5.96-10.716-.383-8.88-3 5.125-7.301 6.842-12.794 9.164-16.228 2.274-3.363-10.097.975-8.727-1.172 3.148-4.931 5.76-9.549 7.95-13.17 2.348-3.883-9.05-.9-7.738-2.833 4.816-7.095 6.23-11.144 8.5-14.571 1.936-2.924-8.575.76-7.493-1.145 4.412-7.774 6.346-11.989 8.266-14.974 2.394-3.724-9.89.349-8.007-2.035 5.481-6.935 7.443-10.839 9.67-14.251 1.716-2.628-9.285.563-8.06-1.189 4.785-6.846 6.695-8.784 9.514-13.193 2.196-3.436-13.501.05-8.76-4.147 10.155-8.99 17.477-15.074 15.67-29.933z"/>
    <path style="opacity:.98999999;fill:#32ac60;fill-opacity:1;fill-rule:nonzero;stroke:#000;stroke-width:1;stroke-miterlimit:4;stroke-dasharray:none;stroke-opacity:1" d="M162.321 84.72a4.053 3.968 0 0 1-8.106 0 4.053 3.968 0 1 1 8.106 0z"/>
    <path style="fill:#fff;fill-opacity:1;stroke:#000;stroke-linecap:round;stroke-linejoin:round;stroke-opacity:1" d="M236.327 108.216c1.762-5.146 2.253-6.354-2.08-20.547-1.212-3.971 4.306-8.274 10.918-15.387 1.64-1.762 7.488-.709 12.953.644 3.51.869 5.096 6.973 5.247 9.258.368 5.57-4.387 14.843-5.785 24.36-7.664 52.175 4.72 142.637 1.838 211.586-1.522 36.415-8.856 64.294-16.337 85.516-4.398 12.475-9.789 23.932-14.662 30.77-2.122 2.978-3.453 7.009-10.25 1.047-3.392-2.975-6.418-7.506-3.025-14.95 3.69-8.096 8.533-14.593 9.616-32.018.75-12.079-10.512-6.406-7.54-10.57 4.73-6.627 4.345-7.286 7.368-12.128 1.788-2.864-9.402-.646-7.883-3.243 5.07-8.667 6.503-11.905 8.247-15.18 1.516-2.845-9.55.73-8.24-1.185 4.627-6.763 5.806-10.03 7.978-14.08 1.194-2.228-9.993 1.789-8.87-.174 3.72-6.493 6.866-12.833 7.957-15.037 1.174-2.373-10.612 2.528-8.468-1.526 5.11-9.664 5.675-11.825 7.454-15.59 1.98-4.192-9.46.946-6.857-2.954 5.645-8.453 7.907-12.427 8.452-13.771 1.027-2.53-10.595 2.282-7.996-1.874 5.38-8.605 7.473-11.899 8.679-16.008.529-1.802-9.596 1.675-8.07-.873 5.145-8.59 7.4-14.464 7.684-16.132.376-2.201-9.369 1.593-7.574-1.428 4.306-7.248 5.553-9.612 7.286-14.113.578-1.503-9.239 1.205-7.806-.981 5.077-7.741 7.703-11.198 8.757-13.243 1.416-2.744-9.58.397-7.34-2.699 5.94-8.207 6.354-9.344 9.004-13.907 2.377-4.093-11.02.274-8.264-4.026 4.132-6.446 6.115-8.448 8.085-11.695 2.573-4.243-9.423-.83-7.351-3.79 4.276-6.104 4.952-8.21 6.944-11.562 2.153-3.624-9.323-.758-7.437-3.212 5.974-7.774 6.983-9.205 9.197-12.527 2.216-3.325-10.42-1.122-9.155-2.67 5.887-7.212 8.146-10.212 9.75-12.658 2.443-3.728-7.938-2.154-6.907-3.907 4.589-7.802 9.073-11.735 14.483-27.536z"/>
    <path style="opacity:.98999999;fill:#32ac60;fill-opacity:1;fill-rule:nonzero;stroke:#000;stroke-width:1;stroke-miterlimit:4;stroke-dasharray:none;stroke-opacity:1" d="M255.07 82.74a4.093 4.006 0 0 1-8.185 0 4.093 4.006 0 1 1 8.185 0zM227.67 425.571a4.053 3.968 0 1 1-8.107 0 4.053 3.968 0 1 1 8.106 0zM137.606 346.352a4.053 3.968 0 0 1-8.107 0 4.053 3.968 0 1 1 8.107 0z"/>
    <path d="M41.04 33.21C31.97 252.66 77.3 419.16 230.5 530.31c153.19-111.15 198.51-277.65 189.44-497.1H41.04m-.92-.95H420.86l.04.92c4.82 116.66-6.28 211.36-33.93 289.52-30.51 86.24-81.51 154.41-155.91 208.39l-.56.41-.56-.41c-74.4-53.98-125.4-122.15-155.91-208.39C46.38 244.54 35.28 149.84 40.1 33.18l.04-.92z"/>
</svg>
