<svg xmlns="http://www.w3.org/2000/svg" xmlns:xlink="http://www.w3.org/1999/xlink" width="400" height="500" viewBox="30.5 31.5 400 500" xml:space="preserve">
    <path style="fill:#e00e00;fill-opacity:1" d="M230.44 531.14C156.12 477.22 105.18 409.12 74.7 322.98c-27.64-78.1-38.73-172.75-33.91-289.35l.02-.46h379.82l.02.46c4.81 116.6-6.28 211.24-33.91 289.35-30.48 86.14-81.42 154.24-155.74 208.16l-.28.2-.28-.2z"/>
    <path d="M419.96 33.21c9.07 219.45-36.26 385.95-189.46 497.1C77.31 419.16 31.99 252.66 41.06 33.21h378.9m.92-.95H40.14l-.04.92c-4.82 116.66 6.28 211.36 33.93 289.52 30.51 86.24 81.51 154.41 155.91 208.39l.56.41.56-.41c74.4-53.98 125.4-122.15 155.91-208.39 27.65-78.16 38.75-172.86 33.93-289.52l-.04-.92z"/>
    <path style="fill:#ffe000;fill-opacity:1;stroke:#000;stroke-opacity:1" id="a" d="M200.273 232.958c-6.497 4.282-10.436 10.591-16.048 14.224-4.116 2.664-8.028 3.684-9.342 2.394-1.026-1.007-.875-6.94.22-9.602 1.783-4.334 6.168-7.768 13.13-9.47 4.677-1.145 3.478-6.145-.53-7.32-3.193-.936-8.908.29-13.06 2.123-10.905 4.813-5.558 12.158-9.61 20.652-3.29 6.902-11.558 8.166-12.552 7.273-1.256-1.13-2.214-9.888-1.13-12.96 2.197-6.224 5.12-8.95 8.066-12.741 5.035-6.48-2.331-6.7-6.111-4.653-4.439 2.405-9.545 1.806-14.382-.546-5.966-2.902-9.922-7.775-9.103-9.397.96-1.9 5.464-2.655 8.166-2.961 7.787-.882 15.374 3.254 22.464 6.856 5.962 3.028 8.566-3.436 6.985-8.983-1.4-4.911-6.402-7.3-8.48-11.794-2.435-5.269-.365-9.378 1.013-9.802.996-.306 6.25 4.154 8.222 7.493 3.148 5.333 4.404 12.393 12.46 17.483 3.977 2.513 9.604 5.183 18.145 5.87 2.101.17 2.12-2.888-.167-4.266-13.634-8.21-21.872-23.792-29.748-40.198-4.736-9.868-11.13-19.623-23.869-28.965-2.537-1.861-7.114 4.634-5.941 7.397 1.819 4.284 4.65 8.358 3.19 11.72-4.572 10.536-12.642 12.715-20.465 12.312-10.403-.536-20.82-8.219-21.076-16.02-.117-3.595 5.802-7.559 9.175-13.348 2.94-5.047-4.37-10.257-8.498-7.802-3.987 2.37-5.897 7.945-9.095 7.882-6.615-.13-17.228-11.162-18.27-20.723-1.058-9.702 7.01-23.863 12.452-24.89 4.445-.84 11.479 8.298 15.002 10.83 7.443 5.349 11.217-3.066 9.71-6.736-2.051-4.998-14.825-11.687-13.858-16.047 2.301-10.38 10.511-19.057 21.315-18.71 9.252.299 19.248 6.039 20.468 15.226.649 4.88-4.28 7.782-6.28 11.45-3.057 5.61 9.458 13.729 13.295 9.494 3.96-4.37 1.57-12.546 6.5-12.857 10.984-.693 18.46 13.283 19.277 24.12.58 7.695-.611 15.975-7.097 19.99-3.863 2.393-6.358-1.94-10.983-3.57-4.595-1.62-6.057 1.446-4.85 2.486 13.184 11.366 21.55 20.702 26.439 32.1 5.486 12.79 13.506 25.306 23.29 35.225 3.189 3.233 10.146 8.29 12.125 5.954 1.622-1.915.491-10.154-2.124-14.96-5.595-10.278-14.28-16.82-22.747-26.93-3.078-3.675-5.368-11.93-3.808-13.061 1.326-.961 5.137-.187 6.964 1.612 2.979 2.933 5.292 8.117 6.18 10.65 2.821 8.042 7.408 1.437 7.105-4.696-.366-7.4-2.202-10.485-1.174-18.52.537-4.188 5.172-10.324 7.513-10.16 1.822.128 4.028 7.927 3.485 14.355-1.209 14.307-6.69 18.24-5.557 29.237.74 7.182 8.219 9.057 9.032.4.721-7.678 1.443-13.263 4.468-16.238 1.61-1.585 3.985-3.008 4.903-2.522.869.46 3.053 5.073 1.228 10.845-2.062 6.521-5.459 15.119-5.926 25.023-.472 10.023 1.351 19.951 2.748 28.469.603 3.749-13.953 4.438-22.854 10.303z"/>
    <use xlink:href="#a" height="480" width="390" transform="matrix(-1 0 0 1 461 0)"/>
    <path style="fill:#ffe000;fill-opacity:1;stroke:#000;stroke-opacity:1" d="M230.5 240.076c2.28-2.328 9.413.057 16.601 4.496 8.606 5.315 19.572 7.76 26.155 11.185 3.522 1.832 7.164 5.995 6.659 7.207-.574 1.377-7.896 5.507-17.581-1.8-4.246-3.204-9.068-.35-8.834 4.445.218 4.46 5.107 10.87 10.277 12.205 11.795 3.045 13.994-1.065 23.207-.828 6.243.16 10.248 2.802 13 5.323 2.442 2.238-7.198 7.281-13.736 6.361-8.489-1.194-10.926-2.789-14.28.081-2.47 2.113.289 7.957 5.555 9.724 12.095 4.06 12.825 19.739 9.836 19.423-15.067-1.59-22.113-9.644-22.463-21.401-.3-10.108-14.138-10.343-9.978 3.472 2.501 8.309 6.463 16.391-1.418 24.862-2.246 2.414-6.097-6.388-7.5-11.088-3.408-11.429 1.918-20.643 2.485-33.975.267-6.285-2.169-12.564-4.76-17.617-1.683-3.281-6.36-3.661-5.532.17 1.718 7.942 2.714 16.67 1.209 24.513-2.836 14.775-9.373 29.107-10.1 48.91-.246 6.74-.522 13.714 1.198 22.095.632 3.082 4.078 2.788 4.746-.138 1.17-5.127 2.981-11.379 7.525-12.965 6.142-2.143 15.829.098 22.028 5.829 8.173 7.554 10.226 21.144 4.396 28.637-2.209 2.84-10.324-1.668-16.375 2.258-1.835 1.19-2.008 3.707-1.575 6.36.404 2.479 1.31 5.12 2.677 5.715 4.354 1.895 10.454-2.151 12.419.372 6.664 8.562 3.162 22.912-3.92 30.096-5.863 5.947-15.794 8.79-24.111 6.989-5.767-1.25-.564-14.887-2.95-20.035-1.625-3.508-3.956-4.692-6.031-4.677-2.844.02-5.308 2.489-5.729 6.13-.65 5.622 3.71 15.118-1.158 19.154-9.544 7.913-21.458 4.871-28.1-5.435-4.295-6.664-7.219-11.983-5.456-19.576 1.738-7.488 9.9-2.975 15.169-9.043 4.189-4.824 1.108-14.125-4.548-13.305-4.74.687-9.922 6.444-13.4 2.937-5.737-5.784-4.354-18.42 1.243-27.497 4.556-7.39 14.396-13.06 19.672-11.348 4.322 1.403 5.284 5.507 6.827 10.386 1.468 4.645 5.46 2.992 5.264 1.412-4.739-38.106 10.743-64.8 9.65-90.263-.253-5.915-3.63-10.179-8.978-9.096-2.117.428-4.17 5.437-5.584 8.872-1.402 3.408-1.148 8.31-1.038 13.555.181 8.602 1.876 18.621 1.285 26.197-.55 7.05-4.793 11.619-6.948 11.086-1.657-.409-3.366-3.898-3.637-6.92-.407-4.56 1.19-9.862 1.716-11.898.885-3.434.538-9.101-1.414-10.175-2.19-1.204-5.121-.79-8.38 8.85-2.988 8.838-5.854 11.44-12.794 14.27-2.661 1.086-11.117.582-11.569-1.205-.634-2.51 2.32-9.353 5.275-11.679 4.052-3.191 9.244-4.59 11-8.964 1.463-3.644.265-4.043-2.055-4.866-3.832-1.359-8.342.944-13.483.192-4.237-.619-10.175-5.401-9.84-6.985.726-3.434 7.015-5.568 11.945-5.288 5.603.32 8.671 3.321 16.18 3.229 4.875-.06 9.44-1.22 11.817-2.97 7.862-5.792 8.66-14.64 6.947-18.305-.919-1.967-4.263-1.276-6.674.826-4.508 3.932-6.398 8.233-14.52 8.288-2.428.016-7.997-.483-7.337-2.363 4.637-13.226 17.089-11.346 26.823-13.526 8.996-2.015 15.594-3.324 23-10.881z"/>
    <circle style="fill:#e00e00;stroke:#000;stroke-width:1;stroke-miterlimit:4;stroke-dasharray:none;stroke-opacity:1;fill-opacity:1" cx="125" cy="122.5" r="12.624"/>
    <path d="M125 135.124v-25.248M114.248 129.114l21.504-13.228M135.752 129.114l-21.504-13.228" style="fill:none;fill-rule:evenodd;stroke:#000;stroke-width:1;stroke-linecap:butt;stroke-linejoin:miter;stroke-miterlimit:4;stroke-dasharray:none;stroke-opacity:1"/>
    <circle r="12.624" cy="122.5" cx="336" style="fill:#e00e00;stroke:#000;stroke-width:1;stroke-miterlimit:4;stroke-dasharray:none;stroke-opacity:1;fill-opacity:1"/>
    <path style="fill:none;fill-rule:evenodd;stroke:#000;stroke-width:1;stroke-linecap:butt;stroke-linejoin:miter;stroke-miterlimit:4;stroke-dasharray:none;stroke-opacity:1" d="M336 135.124v-25.248M325.248 129.114l21.504-13.228M346.752 129.114l-21.504-13.228"/>
    <circle r="12.624" cy="386.581" cx="228.47" style="fill:#e00e00;stroke:#000;stroke-width:1;stroke-miterlimit:4;stroke-dasharray:none;stroke-opacity:1;fill-opacity:1"/>
    <path style="fill:none;fill-rule:evenodd;stroke:#000;stroke-width:1;stroke-linecap:butt;stroke-linejoin:miter;stroke-miterlimit:4;stroke-dasharray:none;stroke-opacity:1" d="M228.47 399.205v-25.247M217.718 393.195l21.504-13.228M239.222 393.195l-21.504-13.228"/>
    <circle r="3.832" cy="122.5" cx="125" style="fill:#ffe000;fill-opacity:1;stroke:#000;stroke-width:1;stroke-miterlimit:4;stroke-dasharray:none;stroke-opacity:1"/>
    <circle style="fill:#ffe000;fill-opacity:1;stroke:#000;stroke-width:1;stroke-miterlimit:4;stroke-dasharray:none;stroke-opacity:1" cx="336" cy="122.5" r="3.832"/>
    <circle r="3.832" style="fill:#ffe000;fill-opacity:1;stroke:#000;stroke-width:1;stroke-miterlimit:4;stroke-dasharray:none;stroke-opacity:1" cx="228.47" cy="386.581"/>
</svg>
