<svg xmlns="http://www.w3.org/2000/svg" width="400" height="500" viewBox="30.5 31.5 400 500" xml:space="preserve">
    <path style="fill:#e00e00;fill-opacity:1" d="M230.45 531.13c-74.32-53.92-125.26-122.02-155.74-208.16-27.64-78.1-38.73-172.75-33.91-289.35l.02-.46h379.82l.02.46c4.81 116.6-6.28 211.24-33.91 289.35-30.48 86.14-81.42 154.24-155.74 208.16l-.28.2-.28-.2z"/>
    <path d="M419.96 33.21c9.07 219.45-36.25 385.95-189.45 497.1C146.04 469.02 94.36 390.9 66.52 296.34a557.24 557.24 0 0 1-5.87-21.54c-11.45-45.69-17.77-95.02-19.88-147.94-1.2-30.06-1.05-61.28.29-93.65h378.9m.92-.95H40.14l-.04.92c-4.82 116.66 6.28 211.36 33.93 289.52 30.51 86.24 81.51 154.41 155.91 208.39l.56.41.56-.41c74.4-53.98 125.4-122.15 155.91-208.39 27.65-78.16 38.75-172.86 33.93-289.52l-.04-.92z"/>
    <path d="M222.16 453.651c-5.923-5.824-11.919-10.952-11.96-18.645-.053-10.107 6.12-11.452 8.713-18.732 2.967-8.328-4.56-17.448-10.455-22.217-45.068-36.466-73.823-74.313-99.543-119.8-32.067-56.71-34.98-131.38-29.624-163.147 16.542 29.674 32.693 59.69 52.93 85.167 29.618 37.287 51.18 77.083 67.742 113.484 10.112 22.225 15.424 44.786 17.86 69.048.662 6.586 8.33 7.985 8.35 2.218l.581-166.631c.018-4.895-2.229-6.3-4.638-8.1-3.221-.928-5.612.68-10.664 7.167 6.606 4.564 6.686 14.055 2.068 22.15-4.184 7.335-3.253 9.42-4.125 14.575-5.402-1.95-7.149-6.707-8.48-9.635-2.297 1.09-6.568 2.83-9.672 3.358-.924-2.373-1.801-6.763-1.66-9.912-3.516-.116-7.622-.906-11.775-4.346 7.517-4.216 8.433-6.713 13.041-11.545 6.818-7.15 11.121-8.619 15.677-6.9 2.873-3.14 6.243-7.414 9.572-9.405 3.169-1.895 8.16-1.953 10.693.073l.157-41.059c.02-5.008-1.5-4.025-3.515-7.12-1.089-1.673-9.043 2.919-9.782 7.153 3.556 2.75 5.318 9.983 1.88 17.673-2.294 5.128-4.487 9.091-5.557 13.858-2.418-1.913-5.233-7.25-5.95-9.163-3.36 1.663-6.32 2.514-9.901 3.154-.895-2.656-1.3-6.29-.579-9.717-3.247.484-7.161.025-10.667-1.968 5.53-4.676 7.832-8.825 12.02-13.4 4.502-4.918 10.244-4.725 13.99-3.049 1.633-2.89 3.807-5.055 6.684-6.804 3.515-2.136 8.283-2.71 11.405-2.623l.128-36.59c.011-3.13-3.901-4.648-6.576-4.37-3.1.323-5.357 2.997-6.064 6.007 2.416 2.853 3.493 7.69 1.247 13.66-1.527 4.058-5.94 6.193-7.55 15.79-2.017-.868-5.559-5.29-6.273-7.41-2.808 1.408-5.678 1.874-9.037 2.257-.73-2.364-1.45-5.705-1.11-8.934-2.94-.03-6.7-1.805-8.896-3.258 6.948-3.566 9.251-10.37 14.217-14.587 4.392-3.73 10.704-2.16 13.184-1.012 2.587-2.905 4.678-6.042 9.5-6.647a11.381 11.381 0 0 1 7.382 1.573l.111-31.863c.012-3.324-3.164-6.786-6.14-6.888-2.324-.08-4.915.822-6.226 3.797 7.575 6.81-2.375 18.004-2.258 26.57-2.798-.601-5.99-4.36-6.927-6.732-2.32 1.518-5.583 3.343-7.845 4.096-.88-1.977-1.92-5.156-1.717-7.68-2.409.264-6.501.25-8.988-1.747 8.633-7.08 8.561-12.793 15.239-16.294 2.607-1.366 6.002-1.061 8.3-.461 3.267-4.738 7.24-6.144 10.616-6.095 3.958.058 8.053 3.253 9.207 6.586 1.154-3.333 5.249-6.528 9.207-6.586 3.376-.049 7.35 1.357 10.616 6.095 2.298-.6 5.693-.905 8.3.461 6.678 3.5 6.606 9.214 15.239 16.294-2.487 1.997-6.58 2.01-8.988 1.746.202 2.525-.836 5.704-1.717 7.681-2.262-.753-5.525-2.578-7.845-4.096-.937 2.372-4.129 6.13-6.927 6.731.117-8.565-9.833-19.76-2.258-26.569-1.311-2.975-3.902-3.877-6.227-3.797-2.975.102-6.151 3.564-6.14 6.888l.112 31.863c1.378-.857 4-1.997 7.382-1.573 4.822.605 6.913 3.742 9.5 6.647 2.48-1.148 8.792-2.717 13.184 1.012 4.966 4.218 7.269 11.02 14.217 14.587-2.196 1.453-5.957 3.229-8.897 3.258.34 3.229-.38 6.57-1.109 8.934-3.36-.383-6.23-.849-9.037-2.257-.714 2.12-4.256 6.542-6.274 7.41-1.61-9.597-6.022-11.732-7.549-15.79-2.246-5.97-1.17-10.807 1.247-13.66-.707-3.01-2.963-5.684-6.064-6.007-2.675-.278-6.587 1.24-6.576 4.37l.128 36.59c3.122-.086 7.89.487 11.405 2.623 2.877 1.749 5.05 3.915 6.685 6.804 3.745-1.676 9.487-1.869 13.99 3.05 4.187 4.574 6.49 8.723 12.02 13.4-3.507 1.992-7.421 2.45-10.668 1.967.721 3.427.316 7.06-.579 9.717-3.58-.64-6.541-1.49-9.902-3.154-.716 1.913-3.531 7.25-5.95 9.163-1.069-4.767-3.262-8.73-5.556-13.858-3.438-7.69-1.676-14.923 1.88-17.673-.739-4.234-8.693-8.826-9.782-7.152-2.015 3.094-3.535 2.11-3.515 7.12l.157 41.058c2.533-2.026 7.524-1.968 10.693-.073 3.329 1.99 6.7 6.265 9.572 9.406 4.556-1.72 8.86-.25 15.677 6.899 4.608 4.832 5.524 7.329 13.04 11.545-4.152 3.44-8.258 4.23-11.773 4.346.14 3.15-.737 7.539-1.66 9.912-3.105-.528-7.376-2.268-9.674-3.358-1.33 2.928-3.077 7.685-8.479 9.635-.872-5.155.059-7.24-4.125-14.575-4.618-8.095-4.538-17.586 2.068-22.15-5.052-6.488-7.443-8.095-10.664-7.167-2.41 1.8-4.656 3.205-4.638 8.1l.581 166.631c.02 5.767 7.688 4.368 8.35-2.218 2.436-24.262 7.748-46.823 17.86-69.048 16.561-36.4 38.124-76.197 67.742-113.484 20.237-25.478 36.388-55.493 52.93-85.167 5.355 31.768 2.443 106.436-29.624 163.146-25.72 45.488-54.475 83.335-99.543 119.8-5.895 4.77-13.422 13.89-10.455 22.218 2.594 7.28 8.766 8.625 8.713 18.732-.041 7.693-6.037 12.821-11.96 18.645-3.74 3.676-6.86 8.8-8.34 8.8-1.48 0-4.6-5.124-8.34-8.8z" style="fill:#ffe000;fill-rule:evenodd;stroke:#000;stroke-width:1px;stroke-linecap:round;stroke-linejoin:round;stroke-opacity:1;fill-opacity:1"/>
</svg>
