<svg xmlns="http://www.w3.org/2000/svg" xml:space="preserve" viewBox="30.5 31.5 400 500" height="500" width="400">
    <path d="M230.45 531.13c-74.32-53.92-125.26-122.02-155.74-208.16-27.64-78.1-38.73-172.75-33.91-289.35l.02-.46h379.82l.02.46c4.81 116.6-6.28 211.24-33.91 289.35-30.48 86.14-81.42 154.24-155.74 208.16l-.28.2z" style="fill:#e00e00"/>
    <path d="M209.26 284.93c.508 5.986-16.218-7.544-29.188-4.901-17.291 3.523-17.43 15.905-30.821 21.672-5.528 2.381-15.906 8.633-31.257 0-1.037-10.146-6.976-14.283-14.804-14.165-8.736.13-14.302 7.999-13.276 17.098.622 5.517 6.459 12.168 15.228 11.552 4.818-.338 8.383-2.1 10.782-5.52 3.688.04 6.8.4 10.504 1.945l-.165 3.097c-2.852 1.786-7.223 7.427-7.289 10.607-7.627-1.518-14.24.513-17.643 5.445-6.257 9.07-.463 18.738 4.574 21.129 9.842 4.672 17.736-1.128 20.584-8.277 1.904-4.781-.066-9.347-2.178-13.723 1.748-5.783 4.44-10.143 10.237-13.613l6.29-.008c-5.128 10.775-6.169 24.693-4.295 35.876-1.505 2.133-3.63 5.244-4.718 8.675-5.022-1.356-12.064-.102-15.585 4.293-6.93 8.65-1.524 20.738 6.38 22.953 9.17 2.57 15.917-1.39 18.399-7.334 2.742-6.57.396-13.083-3.748-16.536.088-2.58 1.677-5.734 2.614-7.188 1.545 3.44 9.579 11.557 9.579 11.557.64 4.614 4.35 11.765 6.975 15.67-5.924 5.371-6.763 12.83-4.466 17.317 2.512 4.905 9.145 10.2 17.208 8.277 8.207-1.957 11.623-9.778 10.02-18.188-.804-4.214-5.485-10.908-16.663-9.257-3.436-4.429-5.418-8.422-4.792-12.307 6.226 3.662 18.187 7.947 28.752 10.674-1.794 9.589 6.734 16.242 11.255 16.88 10.577 1.495 15.924-7.48 16.389-12.96.557-6.56-3.531-13.897-9.467-15.683-5.668-1.704-13.785.944-15.89 6.317-3.963-.713-8.967-2.701-11.436-4.683 7.467-2.921 11.93-7.411 14.929-12.262 6.663 3.403 13.767 1.476 18.07-3.203 4.82-5.24 5.557-16.772-3.049-21.89-6.342-3.773-19.144-.458-21.673 7.514-1.26 3.971-.8 9.773 2.287 13.396-4.202 5.708-8.342 10.42-18.514 10.237-15.942-.288-21.044-7.156-24.245-15.599-2.897-7.643-1.2-21.486 2.163-29.11l4.871-.372c-1.338 6.114.393 10.067 3.27 15.022-7.293 11.875-.877 25.845 12.09 25.376 11.248-.407 14.612-9.236 13.94-16.227-1.069-11.119-11.182-15.04-20.693-12.09-2.366-3.266-3.65-9.46-1.01-12.728 4.158 4.97 13.682 8.34 21.376 7.719 4.364 4.143 18.24 3.844 22.266-7.85 3.097-8.993-2.779-17.488-10.83-18.724-7.682-1.18-20.22 3.02-17.347 19.821-8.366-1.192-12.762-7.303-11.95-12.85.951-6.5 4.062-15.095 18.841-16.773 20.492-2.326 26.466 8.28 31.91 19.168 5.726 11.452 8.055 39.947 7.515 61.752-.992 40.146-3.065 70.368-3.92 105.533-.1 4.09 20.702-8.72 20.475-11.762-2.055-27.542-2.864-60.12-3.92-91.95-.547-16.45-2.23-40.133 7.514-61.751 4.311-7.386 14.25-21.495 31.91-19.168 14.747 1.943 17.89 10.273 18.842 16.772.811 5.548-3.584 11.659-11.95 12.851 2.872-16.801-9.665-21-17.347-19.821-8.052 1.236-13.928 9.73-10.83 18.724 4.026 11.694 17.901 11.993 22.265 7.85 7.694.621 17.219-2.749 21.376-7.719 2.64 3.268 1.357 9.461-1.01 12.728-9.51-2.95-19.624.97-20.692 12.09-.672 6.991 2.692 15.82 13.94 16.227 12.967.469 19.383-13.501 12.089-25.376 2.878-4.955 4.608-8.908 3.27-15.022l4.872.372c3.363 7.624 5.06 21.467 2.162 29.11-3.2 8.442-8.302 15.311-24.244 15.599-10.172.183-14.313-4.53-18.515-10.238 3.088-3.622 3.547-9.424 2.287-13.395-2.528-7.973-15.33-11.288-21.673-7.515-8.606 5.119-7.869 16.65-3.05 21.89 4.304 4.68 11.408 6.607 18.072 3.204 2.998 4.85 7.461 9.34 14.928 12.262-2.468 1.981-7.472 3.97-11.435 4.683-2.106-5.373-10.223-8.022-15.89-6.317-5.936 1.786-10.024 9.123-9.467 15.683.465 5.48 5.812 14.455 16.389 12.96 4.52-.639 13.048-7.292 11.255-16.88 10.564-2.727 22.525-7.013 28.752-10.674.626 3.885-1.357 7.878-4.792 12.307-11.178-1.65-15.86 5.043-16.663 9.257-1.604 8.41 1.813 16.23 10.02 18.188 8.063 1.924 14.696-3.372 17.207-8.277 2.298-4.488 1.459-11.946-4.465-17.317 2.624-3.905 6.335-11.056 6.975-15.67 0 0 8.034-8.116 9.579-11.557.936 1.454 2.526 4.607 2.614 7.188-4.145 3.453-6.49 9.966-3.748 16.536 2.482 5.944 9.228 9.903 18.398 7.334 7.905-2.215 13.31-14.303 6.38-22.953-3.52-4.395-10.562-5.65-15.585-4.293-1.087-3.431-3.212-6.542-4.717-8.675 1.873-11.183.833-25.1-4.296-35.877l6.29.008c5.797 3.47 8.49 7.83 10.238 13.614-2.112 4.376-4.083 8.942-2.178 13.723 2.848 7.149 10.741 12.949 20.584 8.277 5.037-2.392 10.83-12.059 4.574-21.129-3.403-4.932-10.016-6.963-17.643-5.445-.066-3.18-4.438-8.82-7.289-10.608l-.166-3.096c3.705-1.544 6.817-1.906 10.504-1.945 2.4 3.42 5.965 5.182 10.782 5.52 8.77.616 14.607-6.035 15.229-11.552 1.026-9.1-4.54-16.968-13.276-17.099-7.829-.117-13.767 4.02-14.804 14.166-15.351 8.633-25.73 2.381-31.257 0-13.391-5.767-13.53-18.15-30.821-21.673-12.97-2.643-19.023 3.482-25.267 7.08 4.723-14.93 9.694-28.684 16.772-44 2.73 7.384 7.573 17.068 13.722 25.594 5.81 8.056 20.466 14.793 34.742 13.613-1.656-10.674-6.381-20.877-15.792-28.752-8.45-7.07-18.735-11.925-28.643-18.84l10.891-19.931c7.825 11.25 13.091 24.675 23.307 34.633 13.545 13.203 28.14 19.73 46.504 17.643-3.594-14.672-11.477-30.155-24.069-39.316-14.853-10.806-27.409-12.319-42.257-18.841l17.426-27.119c7.866 13.385 15.554 26.923 25.593 38.445 12.754 14.637 30.568 18.957 49.01 18.841-1.532-18.352-15.419-36.589-30.277-45.96-13.321-8.4-26.937-11.037-40.406-16.88l21.456-29.079c8.322 14.61 13.224 30.18 26.9 43.346 10.585 10.189 26.021 15.834 41.821 13.614.664-11.689-11.898-33.607-33-47.376-10.188-6.648-20.837-10.867-31.256-15.138l16.99-19.93c5.176 11.485 9.29 24.283 21.128 31.256 10.28 6.055 21.46 11.133 35.505 7.406 1.051-12.89-6.555-25.948-16.119-32.02-12.957-8.224-22.98-7.26-35.178-12.96l6.317-5.88c21.938-3.628 27.874-9.213 36.702-20.04 10.341-12.682 12.858-29.725 11.38-42.191-16.963 1.578-35.73 5.907-46.69 18.362-14.131 16.062-7.644 34.948-7.644 34.948l-6.488 6.514c-3.318-12.945-6.898-27.722-16.052-39.869-10.702-14.2-27.179-20.217-43.13-19.97-2.132 11.25 1.537 29.68 12.615 43.172 9.15 11.143 21.183 20.262 37.905 24.8L323.67 137.04c-7.457-14.645-16.324-29.865-28.699-41.642-17.103-16.279-37.732-21.288-57.068-22.653.415 19.89 15.964 41.48 27.663 49.444 18.782 12.788 40.424 17.192 52.82 21.129l-18.514 25.376c-6.256-10.857-14.483-22.67-24.613-31.148-11.764-9.846-26.176-14.345-37.9-14.921-1.26 10.461 5.118 28.916 17.752 40.514 10.77 9.889 30.835 12.766 38.336 14.812l-15.901 24.94c-4.095-8.91-6.769-18.328-13.723-24.722-8.743-8.04-17.266-10.8-27.554-11.871-.54 12.547 4.174 25.486 8.822 30.712 5.752 6.468 18.33 10.535 28.316 12.416-3.858 7.904-9.156 16.293-12.742 24.326-5.938-2.354-16.358-2.96-25.92-1.525-10.567 1.585-19.497 7.769-22.98 13.723 5.249 5.641 16.156 8.24 23.742 6.099 9.387-2.65 13.755-8.524 20.194-8.312-9.159 19.307-17.359 38.15-24.55 62.836-.715 2.454-3.915 2.96-4.466.574-5.581-24.17-13.361-48.56-25.811-74.058 10.22-2.79 17.837-2.279 25.484-5.12 9.402-3.491 17.458-10.19 21.564-19.167-9.254-5.627-22.613-6.447-32.454-2.287-8.104 3.425-14.273 10.349-18.95 17.86l-9.803-18.078c18.598-1.926 21.694-5.73 27.446-12.198 4.647-5.226 8.272-15.987 7.732-28.534-10.287 1.072-17.504 2.306-26.247 10.346-6.954 6.395-9.41 14.07-13.505 22.98l-14.811-23.633c13.728-1.47 27.13-4.052 37.9-13.94 12.633-11.6 17.486-25.262 16.445-38.337-13.685 1.447-25.047 3.333-36.811 13.178-10.13 8.479-18.792 17.678-25.05 28.535l-17.642-23.96c18.945-4.331 38.395-9.43 57.177-22.218 11.699-7.965 22.783-26.722 23.198-46.613-19.336 1.366-40.727 4.088-57.831 20.366-12.374 11.777-21.242 26.126-28.698 40.771l-16.443-20.015c16.722-4.538 30.28-11.805 39.429-22.949 11.078-13.491 13.222-32.03 11.09-43.28-15.95-.248-30.577 4.899-41.278 19.099-9.154 12.146-13.933 25.072-17.25 38.016l-5.508-5.424c1.509-21.76-6.993-31.702-9.278-35.057-7.888-11.582-27.549-17.982-44.512-19.56-1.478 12.466-1.14 29.945 9.202 42.627 8.829 10.827 18.467 21.204 38.01 22.435l5.009 4.248c-12.198 5.7-22.221 4.735-35.178 12.96-9.564 6.071-17.17 19.13-16.118 32.02 14.044 3.726 25.225-1.352 35.504-7.407 11.839-6.973 15.953-19.77 21.129-31.257l16.99 19.93c-10.42 4.272-21.069 8.49-31.258 15.14-21.1 13.768-32.574 34.161-31.91 45.85 15.8 2.22 30.148-1.9 40.732-12.09 13.677-13.164 18.579-28.735 26.9-43.345l21.456 29.079c-13.469 5.843-27.084 9.678-40.406 18.079-14.858 9.37-28.745 26.409-30.276 44.761 18.441.116 36.255-4.204 49.009-18.84 10.04-11.523 17.727-25.061 25.594-38.446l17.425 27.119c-14.848 6.522-29.691 11.193-44.544 22-12.592 9.16-20.366 21.267-23.96 35.94 18.364 2.086 34.484-4.55 48.03-17.753 10.215-9.957 16.896-21.967 24.721-33.217l9.367 17.643c-9.908 6.916-19.867 12.097-28.317 19.168-9.41 7.874-15.878 18.731-17.534 29.406 14.712 6.298 31.11-4.578 36.92-12.634 6.149-8.526 8.487-18.428 13.178-27.663 7.078 15.316 12.594 30.377 17.317 45.306" style="fill:#ffe000;fill-opacity:1;fill-rule:evenodd;stroke:#000;stroke-width:1px;stroke-linecap:butt;stroke-linejoin:round;stroke-opacity:1"/>
    <path d="M419.96 33.21c9.07 219.45-36.25 385.95-189.45 497.1C146.04 469.02 94.36 390.9 66.52 296.34a557.24 557.24 0 0 1-5.87-21.54c-11.45-45.69-17.77-95.02-19.88-147.94-1.2-30.06-1.05-61.28.29-93.65h378.9m.92-.95H40.14l-.04.92c-4.82 116.66 6.28 211.36 33.93 289.52 30.51 86.24 81.51 154.41 155.91 208.39l.56.41.56-.41c74.4-53.98 125.4-122.15 155.91-208.39 27.65-78.16 38.75-172.86 33.93-289.52l-.04-.92z"/>
</svg>
