<svg xmlns="http://www.w3.org/2000/svg" version="1.1" id="Layer_1" x="0" y="0" xml:space="preserve" width="400" height="537.243">
    <style type="text/css" id="style2">
        .st1{fill:#0066b3}.st1,.st2{stroke:#000;stroke-width:.538}.st2,.st3{fill:#fff}.st4{fill:#ee334e}.st5,.st8{fill:#fff;stroke:#000;stroke-width:.1614}.st8{fill:#ee334e;stroke-width:.269}.st9{fill:#fec340}.st10,.st11{fill:#fff;stroke:#000;stroke-width:.1076}.st11{stroke-width:.269}.st12,.st13{fill:#ee334e;stroke:#000;stroke-width:.3766}.st13{fill:#fff}
    </style>
    <g id="g482" transform="translate(-.786 -1.975)">
        <path d="M399.95 126.299c.812.809.812 2.427-.406 3.64-18.273 9.305-23.552 29.129-24.77 48.548l-.812 79.698 1.624 80.102c.812 49.761 2.842 106.4-42.23 135.123-17.867 12.541-29.236 17.396-60.503 20.633-34.109 3.64-58.878 19.014-70.654 44.906h-2.436c-11.37-21.846-34.515-41.265-59.285-44.097-41.418.404-80.806-15.778-101.515-53.402-7.309-13.755-12.181-28.32-11.775-45.31l-.812-216.035c.406-12.541-.406-27.106-9.34-37.22-3.654-5.663-10.151-8.9-15.836-12.54 0 0 17.054-18.61 25.176-27.106h347.18Z" id="path4" style="stroke:#000;stroke-width:.538"/>
        <path class="st1" d="m373.15 106.07 11.775 11.328-17.46 15.778-60.097 51.784-35.733 30.746c-7.309-6.877-13.806-14.969-21.927-21.846-4.06-5.26-10.152-8.496-16.649-8.496-14.212 1.618-22.739 21.037-31.672 33.579-9.34-4.046-18.679-12.946-30.048-12.946-4.873-.405-10.152.404-14.619-.81 0-2.427.407-5.663-2.03-7.282-.812-1.213-2.03-2.022-3.654-1.618l-2.03 3.237c-2.843-3.641-4.467-8.496-6.092-12.946-.812-3.641-11.775-37.624-11.775-37.624s-21.521 35.601-31.267 52.593c-1.624 1.213-5.279 0-5.279 3.236-.812 2.832 1.219 5.664 3.655 6.068 3.655.81 7.715-6.068 9.34 0 2.436 3.237 0 8.9 4.872 10.519 4.873 0 8.933 2.427 12.994 4.045 3.248 4.45-1.218 8.9-2.436 13.35-7.716 8.497-18.273 18.206-30.455 13.756-6.09-3.641-13.806-4.046-18.679-10.114-7.309-2.427-3.654-11.328-10.963-14.16l-7.31-2.427c-4.06-21.442-8.932-42.883-12.993-64.73 1.218-10.922-3.248-20.227-8.933-28.723 0 0-.812 2.427-1.218 4.046-1.625 19.418 7.715 36.41 8.933 55.424 2.03 12.137 4.873 23.465 6.09 36.006-2.03 1.214-1.217 4.45-2.842 6.068-.812 4.45-1.218 10.114 2.03 13.755 1.219 2.023 4.061 3.237 5.28 4.855l19.084 105.994 4.873 27.51-.812 2.023c-14.618 12.137-27.206 24.678-41.824 35.601-2.437-5.259-3.249-10.923-4.061-16.991l-.406-25.083-.406-205.111c1.624-17.8-4.873-34.388-19.085-44.502l-3.654-2.832 21.52-23.06Z" id="path6"/>
        <path class="st2" d="M396.295 127.917c-16.648 9.71-23.551 27.51-24.363 46.12l-.813 19.418 1.625 159.801c.812 16.587.406 34.388-1.625 50.57-15.43 3.641-31.266 6.877-47.102 9.71-1.219-8.496 0-16.587 4.872-22.656 2.437-4.045-3.248-6.068-1.624-9.305-2.842-3.64-6.497.405-10.151-1.213-4.061-5.26-11.776-2.428-15.43-7.282-1.625-1.214-2.843 0-4.467-.81-11.37-10.518-24.364-21.441-40.2-16.991-2.03-4.046-6.497-.81-8.527-5.664 2.436-3.236 6.09-6.473 7.309-10.114 4.06 0 6.903-2.023 8.933-5.26 5.279-6.472 1.624-15.372 4.467-23.059-2.843-4.45-8.528-3.641-13.4-4.45-5.685-3.237-11.776-5.26-17.867-8.091l.406-.81c11.37-5.663 34.515-16.182 34.515-16.182 9.34-4.045 21.115-9.71 23.146-21.037 0-13.755-10.558-23.464-18.273-33.983-2.03-2.832-6.497-7.282-6.09-7.686 9.744-8.496 38.98-33.579 56.035-48.143l51.164-45.31 8.12-7.283c3.25 3.237 7.31 6.069 9.34 9.71z" id="path8"/>
        <path class="st3" d="M39.37 145.313c2.842 11.732.812 20.228 3.654 24.678.406 1.618 3.655 4.045-.812 4.855-2.842-.405-2.03-6.878-2.842-10.114-2.437-8.092-5.28-18.61-4.061-27.106 1.624.81 3.248 5.664 4.06 7.687z" id="path10" style="stroke-width:.999998"/>
        <path class="st3" d="M144.945 197.905c1.218 1.619 2.03 5.26 5.279 4.855 2.436-.809.812-3.64 2.842-3.64 1.218 1.213 1.624 3.236.812 4.45-1.218 1.618-3.248 2.427-5.279 1.618-13.806-8.092-11.775-25.083-16.242-38.029l-2.842 3.236c-1.219-.404-4.061-2.831-4.061-2.831-7.31 12.54-14.618 25.487-22.333 38.028-1.218 1.618-2.843 4.046-5.279 2.427 0-.809-1.218-1.618 0-2.427 6.497-.404 7.309-7.687 10.557-11.732 7.31-12.946 15.43-25.892 22.74-38.838 4.466 13.755 8.527 28.724 13.806 42.883z" id="path12" style="stroke-width:.999998"/>
        <path class="st4" d="M129.515 172.823c.812-.81 2.03-1.618 2.436-2.023 2.03 5.664 2.03 12.541 4.06 18.205-5.684-1.618-11.37-4.855-18.678-3.64 2.436-5.26 5.685-10.52 8.527-15.374z" id="path14" style="stroke-width:.999998"/>
        <path class="st4" d="M53.582 225.82c-.813.405-2.03 1.618-2.843.405-4.06-15.778-6.09-32.365-9.34-48.952l1.625-1.214 1.218 1.214z" id="path16" style="stroke-width:.999998"/>
        <path class="st3" d="M136.011 191.837c-.812.405-.406 1.214-.406 2.023.813.809 3.249.404 2.843 2.427-2.437-1.213-6.091-.809-8.121-3.236.406 0 0-.81.406-1.214l-.406-.404c-1.625 2.831-5.28.404-7.715.809-.813-.405 0-2.023-1.219-1.619-.812.405-.406.81-.406 1.619-2.03.404-4.872 0-7.309.404-.406-2.832 2.03-.809 2.843-2.023-.812-.809-1.219-.809-.812-2.022 6.496-2.428 15.024-1.214 20.302 3.236z" id="path18" style="stroke-width:.999998"/>
        <path class="st2" d="M242.805 190.219c9.34 8.9 19.085 17.396 26.8 27.51-44.667 40.456-90.957 81.72-136.436 120.154 12.182-21.846 28.018-41.67 38.576-63.92 5.684-7.687 10.557-15.778 15.43-23.87 7.715-12.945 16.648-29.532 21.521-38.837 9.34-12.541 15.836-25.892 29.642-22.655 2.437.404 3.249.809 4.467 1.618z" id="path20"/>
        <path class="st3" d="M121.393 193.86c.812 9.305-3.654 16.991-6.09 25.487-1.625 0-3.249-.809-3.655-2.427.406-1.214.406-2.428-.812-3.641 1.218-2.023 2.842.809 4.06-.81-1.218-2.427-4.872-.404-5.278-3.236 1.218-.404 2.436-1.214 2.436-2.832-.812-.404-.812-1.213-1.624-.809l-.812.81s.406.404.406.808c0 .81-1.218-.809-2.437-.809-.406-3.64 2.03-6.068 2.437-9.305h3.248c2.03 2.023-2.842 4.046.812 5.26.812-.405 2.437.404 3.249-.405-.406-1.214-1.624-.404-2.437-.809-.406-1.214 1.219-1.618 2.437-2.023l2.03-2.023c-1.624-1.618-4.06-1.618-6.09-2.022 1.623-1.214 5.278-1.214 8.12-1.214z" id="path22" style="stroke-width:.999998"/>
        <path class="st3" d="M124.236 194.264c.406 5.26-1.624 9.305-2.843 14.16 0-4.046 2.843-8.9 2.437-14.16z" id="path24" style="stroke-width:.999998"/>
        <path class="st5" d="M132.763 195.883c.812 1.213 0 2.427-.812 3.64-2.843.405-4.873-2.022-6.903-2.831l.812-2.023c2.842-.81 4.467.81 6.903 1.214z" id="path26"/>
        <path class="st3" d="M137.23 197.905c-3.249 6.473-5.28 14.16-10.152 19.824 2.843-6.069 5.685-13.35 7.31-20.633.811-.404 2.436 0 2.842.81z" id="path28" style="stroke-width:.999998"/>
        <path class="st5" d="M131.95 201.142c.407 1.214-.811 1.214-1.217 1.618-2.437 1.214-4.06-4.045-5.28-.809 2.031.405 3.25 3.237 5.686 2.427.406 1.214-.812 2.023-2.03 2.023-2.03 0-3.655-1.213-4.873-2.427l1.218-5.664c2.03.81 4.06 2.023 6.497 2.832z" id="path30"/>
        <path class="st5" d="M141.696 199.928v.81h-3.248l.406-2.023c.812 0 2.03 0 2.842 1.213z" id="path32"/>
        <path class="st5" d="M143.727 205.188c.406 1.213-.813 1.618-.813 2.427-2.03-.81-3.248-4.046-5.684-2.427 1.624.809 3.248 2.022 4.06 3.64 0 .81-.812 1.619-1.218 2.023-1.624-.809-2.842-2.427-4.873-2.427.812-2.427 1.625-4.855 3.249-6.877 1.624.404 4.06 1.213 5.279 3.64z" id="path34"/>
        <path class="st3" d="M148.193 206.806c-4.466 6.068-10.557 10.518-16.648 15.373h-.812c4.872-5.26 11.37-10.114 15.43-16.587.406 0 1.218.405 2.03 1.214z" id="path36" style="stroke-width:.999998"/>
        <path class="st5" d="M129.92 208.02c0 1.618-.812 2.427-2.03 3.64-2.03-.404-5.685-2.022-4.872-4.045l.812-1.214c2.03.405 3.654 2.428 6.09 1.618z" id="path38"/>
        <path class="st5" d="M157.533 211.66c.406 1.214-.406 1.619-1.219 2.023-2.436.405-2.436-2.427-3.248-3.64l.406-3.642c4.467-.809 1.624 4.046 4.06 5.26z" id="path40"/>
        <path class="st5" d="M152.66 212.47c.812.809 1.218 1.213 1.218 2.022-.812 2.023-2.03 0-3.248 0-2.03-2.022-2.437-5.259-1.219-8.09 4.061-.81 2.03 4.45 3.249 6.068z" id="path42"/>
        <path class="st5" d="M164.436 207.615c0 1.214-1.219 1.618-2.437 2.023-2.03-2.023 1.218-2.023 2.437-2.023z" id="path44"/>
        <path class="st5" d="m174.993 210.042-2.436 2.023-2.03-2.427c.406-2.023 5.278-2.832 4.466.404z" id="path46"/>
        <path class="st5" d="M160.781 210.042c.406.405-.406.81-.812.81-.812 0-2.436 0-2.03-1.214-.406-2.832 3.654-1.619 2.842.404z" id="path48"/>
        <path class="st3" d="M168.902 208.424c-11.37 9.305-24.363 17.396-37.763 21.846.812-2.427 4.466-1.213 5.685-3.64 10.151-6.07 20.303-12.542 30.454-18.61z" id="path50" style="stroke-width:.999998"/>
        <path class="st3" d="M177.836 209.638c-4.467 8.09-9.34 17.396-6.091 27.914-1.625.81-2.03-1.618-2.843-2.427-2.436-10.114 3.249-17.8 7.715-25.892.406 0 .812 0 1.219.405z" id="path52" style="stroke-width:.999998"/>
        <path class="st3" d="M118.957 218.538c.812-1.214 3.248-.81 4.467-.405 1.218 1.214.406 3.641 2.436 3.641.812-.404 1.218-.809 2.03-1.213.812 1.213-.406 3.64 2.03 4.045l3.25-1.618c.811.81 1.217 2.023 1.217 3.237-1.624.809-3.248 2.022-4.872 2.427 0-6.878-7.716-7.687-12.182-9.71l3.654-9.304c-.406 3.236-1.624 6.068-2.03 8.9z" id="path54" style="stroke-width:.999998"/>
        <path class="st5" d="m148.6 213.683 2.436 2.832c-.812 2.023-2.437.405-3.655.405-1.218-1.618-2.03-3.237-1.624-5.26.812-.404.812-1.618 1.624-1.618 1.218.81 0 2.832 1.218 3.641z" id="path56"/>
        <path class="st5" d="M186.769 213.279c0 .809-1.218 1.213-1.624 2.023-1.625-1.619-3.249-3.642-5.685-4.046v-.81c2.842-.808 4.872 1.619 7.309 2.833z" id="path58"/>
        <path class="st5" d="M127.484 214.088c-1.624.404-3.248-.405-4.872-.81l-.407.405c.813 1.214 2.437 1.619 4.061 2.428-.812 3.64-3.248-.405-4.873 0-.812-2.023.812-4.046 1.219-5.664 1.218.809 4.06 1.618 4.872 3.64z" id="path60"/>
        <path class="st5" d="M137.636 212.065c0 .81 0 2.023-.812 2.023-1.625 0-2.843-1.214-3.655-2.428 0-2.427 4.06-1.618 4.467.405z" id="path62"/>
        <path class="st5" d="M171.339 213.683c0 .405.406.81-.406 1.214-2.03 0-1.625-2.427-3.249-3.237l.812-.809c1.218 0 2.437 1.619 2.843 2.832z" id="path64"/>
        <path class="st5" d="M183.926 215.706v1.214c-1.624-1.214-3.654-3.641-6.09-3.237l-.407-1.213c2.843-.81 4.873 1.618 6.497 3.236z" id="path66"/>
        <path class="st5" d="M170.12 217.324c-.812 2.832-2.03 6.473-5.684 7.282-2.437.81-.406-2.832-2.03-3.64l-2.843-3.642c.406-1.213 2.03-2.022 2.842-2.427 2.03 2.023 2.843 5.26 2.437 7.687.812 0 1.218-.81 1.218-1.214 1.218-3.641-4.873-7.282-.406-8.9 2.436.809 3.248 2.832 4.466 4.854z" id="path68"/>
        <path class="st5" d="M147.381 218.538c0 .81-.812 1.214-1.218 1.214-4.06 1.213-2.03-3.641-3.249-5.26.813-.404.813-1.618 2.03-1.213 0 2.023.407 4.045 2.437 5.259z" id="path70"/>
        <path class="st5" d="M133.981 214.897v.81c-.812.404-2.03-.81-2.436-1.215l.406-.809c.812 0 2.436 0 2.03 1.214z" id="path72"/>
        <path class="st3" d="M190.423 215.706c-6.903 6.068-10.963 14.969-12.587 23.87-1.219-1.215-.813-4.047-.407-6.07 2.843-6.472 5.28-13.754 10.558-19.014 1.218-.809 1.624.81 2.436 1.214z" id="path74" style="stroke-width:.999998"/>
        <path class="st5" d="M182.302 218.538c-1.624 1.618-.812 6.473-4.06 4.855-.406-1.619-2.437-2.428-1.625-4.046 1.625-.404 2.03 2.023 3.655 2.427.812-.404.406-.809.406-1.213-1.218-1.214-2.436-2.832-4.06-2.428l.405-2.022c2.03-1.214 4.467 0 5.28 2.427z" id="path76"/>
        <path class="st5" d="M142.508 222.584c-1.624.404-2.842-.81-3.248-2.023 0-1.618-.406-3.641 1.624-4.45 1.218 1.618 2.437 4.45 1.624 6.473z" id="path78"/>
        <path class="st5" d="M195.296 221.774c0 .81-.406 1.619-.812 2.023-1.218 0-2.436-.809-3.249-2.023-2.03 2.428 4.467 3.641.406 5.26-2.03.809-2.842-1.214-3.654-2.428-.406-2.022-1.218-5.663 2.03-6.877.812 1.214-.406 3.236.812 4.045l.406-5.259c3.655 0 2.843 3.237 4.061 5.26z" id="path80"/>
        <path class="st5" d="M131.545 216.92c.812 1.213-.406 2.427-1.218 2.832-.812-.405-1.219-.405-1.625-.81 0-1.618 1.625-1.618 2.843-2.022z" id="path82"/>
        <path class="st5" d="M161.593 222.179c.812 1.214 0 2.832-.812 4.046l-1.218.809c.406-2.428-.406-5.26-2.436-7.282 2.03-4.046 2.436 1.618 4.466 2.427z" id="path84"/>
        <path class="st5" d="M197.732 220.56c-.406 0-.406.405-.406.81-1.218.404-1.624-.81-1.624-2.023.812-.404 1.218.81 2.03 1.214z" id="path86"/>
        <path class="st5" d="M139.26 224.202c-1.218.404-2.436 1.213-4.06.404-.407-.809-.813-2.427-.407-3.64.812-.81 1.625-1.619 2.843-2.023 1.218 1.618 1.218 3.64 1.624 5.259z" id="path88"/>
        <path d="M276.508 226.225c8.12 10.114 19.49 22.25 17.46 35.6-5.278 12.947-19.49 16.183-28.83 21.442-8.933 4.855-18.273 7.282-27.206 12.137 0 0-23.551 10.114-33.703 15.373-23.957 8.9-46.29 21.847-69.842 31.556h-2.03l53.194-46.929c28.018-25.892 58.066-50.974 85.678-75.652-.406 0 4.467 5.259 5.279 6.473z" id="path90" style="fill:#ee334e;stroke:#000;stroke-width:.538"/>
        <path class="st5" d="M157.533 222.584c.812 1.618-.406 4.045.812 4.854-.812.81-2.03 1.619-3.249 1.214l-2.03-6.878c1.624-2.427 3.654-.404 4.467.81z" id="path92"/>
        <path class="st3" d="M200.98 221.774c-4.466 8.496-8.932 16.587-13.805 24.274-1.218-.81-.812-3.641-.406-5.26 3.654-6.877 5.685-14.563 12.182-19.823z" id="path94" style="stroke-width:.999998"/>
        <path class="st5" d="M176.211 223.393c-3.248 2.427 4.467 5.259-.406 7.282.812.404.406 1.618.406 2.023-1.624.809-2.842-.81-4.06-1.619-.812-3.236 1.218-4.854.812-8.09.812-.81 2.842-2.024 3.248.404z" id="path96"/>
        <path class="st5" d="M153.878 229.057c.406.809-.812 1.213-1.624 1.618h-.812c0-2.023-.406-4.45-2.03-6.069l2.436-2.022c1.218 1.618 3.248 3.64 2.03 6.473z" id="path98"/>
        <path class="st5" d="M190.423 229.461c-.812.81-.812 3.237-2.436 2.023-2.03-2.023-3.655-4.046-3.655-6.878l1.219-2.022c1.218 2.831 2.03 5.259 4.872 6.877z" id="path100"/>
        <path class="st3" d="M167.278 225.01c-9.34 6.07-19.897 10.924-30.048 15.374-.812 0-1.219-.404-1.625-1.214 3.249-2.022 6.903-2.831 10.558-4.045 6.903-3.641 14.212-6.068 21.115-10.114z" id="path102" style="stroke-width:.999998"/>
        <path class="st5" d="M149.817 228.652c.407 1.618-.406 3.236-2.03 4.046-.812-.81-.812-2.428-1.218-3.641.406-1.214-3.248-2.428-.812-3.642 2.436-.404 3.248 1.619 4.06 3.237z" id="path104"/>
        <path class="st5" d="M145.757 229.866c.406 2.022-.406 3.236-2.03 4.45-1.219-.405 0-2.428-.813-3.237-.406-1.213-1.624-2.427-.812-3.64 1.625.404 3.249.808 3.655 2.427z" id="path106"/>
        <path class="st5" d="M187.58 235.934c-2.842 1.618-4.06-2.427-5.684-4.046-.406-1.213 0-3.64 1.624-4.045-.406 3.64 6.497 4.45 4.06 8.091z" id="path108"/>
        <path class="st5" d="M166.872 227.843c-1.624 3.236 3.654 8.496-2.436 8.9-.813 0-1.625-.809-2.03-1.618-.407-2.832 1.217-6.068 3.654-7.282z" id="path110"/>
        <path class="st3" d="M54.8 228.652c0 .405 0 .81-.406.81l-.812-1.62c.406 0 .812.405 1.218.81z" id="path112" style="stroke-width:.999998"/>
        <path class="st5" d="M60.89 233.507c-1.624.809-2.436-1.214-4.06-2.023-.812-.81-1.218-2.023-.406-3.237 2.436.81 6.497 1.214 4.467 5.26z" id="path114"/>
        <path class="st5" d="M53.988 231.888c-.812.81-2.437.81-3.249.405-.406-.81-.812-1.618-.812-2.427 2.03-3.237 3.249 1.213 4.06 2.022z" id="path116"/>
        <path class="st5" d="M142.508 232.293c.406 1.618-1.624 2.427-2.436 3.641h-.406c1.624-2.427-3.248-6.473.406-6.877z" id="path118"/>
        <path class="st5" d="M138.448 232.293c.406 1.214.406 2.832-.812 3.641-.812 0-1.625-1.214-1.625-2.023l-.812 3.641c-2.03 0-2.436-3.236-3.248-4.854.812-.81 2.436-2.023 4.06-2.428 1.219 0 2.03 1.214 2.437 2.023z" id="path120"/>
        <path class="st3" d="M63.733 231.08c.406 1.213-.812 2.831-1.624 4.045l.406-4.855z" id="path122" style="stroke-width:.999998"/>
        <path class="st5" d="M161.593 231.08c0 2.022-.812 4.854.406 6.472-.812 1.618-2.03 0-2.842 0-1.218-2.023 0-3.64-.406-5.664.812-.809 2.03-.809 2.842-.809z" id="path124"/>
        <path class="st3" d="M132.357 237.957c2.436 3.236 4.467 6.877 7.715 9.71-.406 1.617-1.218 3.236-1.624 4.854-4.467-2.832-6.497-7.687-8.121-12.137-1.625-1.214-2.03-3.236-2.437-4.855.812-.809.406-2.831 1.625-3.64 2.03.809 1.218 4.045 2.842 6.068z" id="path126" style="stroke-width:.999998"/>
        <path class="st3" d="M58.048 233.911c2.843 2.023 6.091 4.45 5.279 8.496.406 1.214-.812 1.618-1.218 2.427-1.624-3.236-3.655-7.282-6.091-9.71-.812.405 0 .81-.406 1.62-1.218 0-2.436-.405-2.436-1.62-2.843.81-2.03 4.856-3.249 6.878-.812-2.022 2.03-4.854-1.218-5.259-1.624.81 0 2.023.406 2.427-1.624.405.406 3.642-1.624 3.642-2.03-2.428.406-5.664-.406-8.496.812.404 2.03 2.427 3.248 1.213l-2.436-2.427 1.218-1.214c2.436 4.45 6.09-.404 8.933 2.023z" id="path128" style="stroke-width:.999998"/>
        <path class="st5" d="M157.533 233.102c-2.03 2.427 3.654 8.9-2.437 6.878 0-2.428-1.624-7.282 2.437-6.878z" id="path130"/>
        <path class="st5" d="M66.575 235.53H64.14l.812-2.428c1.624.405 1.218 1.618 1.624 2.427z" id="path132"/>
        <path class="st5" d="M175.4 235.934h-2.437l-.406-2.427c1.624 0 2.842 1.618 2.842 2.427z" id="path134"/>
        <path class="st5" d="m185.55 240.789-.812.809c-2.436-1.214-4.06-4.046-4.06-6.878l.812-1.213c.406 2.427 7.31 3.236 4.06 7.282z" id="path136"/>
        <path class="st5" d="M154.284 241.598c-.812 1.618-1.624-.405-2.436-.405-1.218-1.213-.406-3.64-.406-5.259l2.03-.81c.406 1.215-.812 4.856.812 6.474z" id="path138"/>
        <path class="st3" d="M168.902 237.148v.809c-7.309 4.045-14.212 9.305-21.927 12.137-.812-.405-1.624-.81-2.03-1.619 7.309-4.854 15.43-8.09 23.957-11.327z" id="path140" style="stroke-width:.999998"/>
        <path class="st5" d="M149.817 237.148c-.406 2.022.407 4.45 1.625 5.664h-2.843l-.406-4.046c-.406 0-1.218.81-1.218 1.214-1.218 2.022 3.655 5.259-.812 4.854-1.218-1.213-1.624-3.64-.812-5.259 1.218-.81 2.436-2.427 4.466-2.427z" id="path142"/>
        <path class="st5" d="M67.794 238.766c-.813.81-1.219 1.214-2.437.81-.812-.81-2.03-1.62-.812-2.428.812 1.213 3.655-.405 3.249 1.618z" id="path144"/>
        <path class="st5" d="M175.805 240.384v.81c-1.218.404-3.248-.81-3.654-2.024 0-.809-.406-1.618.812-1.618 2.03-.809 1.218 2.428 2.842 2.832z" id="path146"/>
        <path class="st3" d="m55.612 239.575-2.03-.405v-1.618c.406.81 2.03.405 2.03 2.023z" id="path148" style="stroke-width:.999998"/>
        <path class="st3" d="M127.89 239.98c-.406.404-.812.404-1.218.809-.812-.81-1.624-2.428-.406-3.237 1.624 0 1.218 1.618 1.624 2.428z" id="path150" style="stroke-width:.999998"/>
        <path class="st5" d="M184.738 244.43c-1.624 1.213-3.248-.81-4.872-.81-1.218-1.213-.406-2.831-.406-4.45l.812-.809c0 2.428 3.248 4.046 4.466 6.069z" id="path152"/>
        <path class="st5" d="M169.308 239.98c-.406 2.427 4.467 3.64 2.437 6.473-.812.404-1.625.809-2.437.809.406-2.428-1.624-3.641-2.842-5.664.406-.81 1.624-1.618 2.842-1.618z" id="path154"/>
        <path class="st5" d="M144.945 246.453c-1.624 0-2.843-.81-3.249-2.428 0-1.213-.406-3.236.812-4.045 2.03 1.213.813 4.854 2.437 6.473z" id="path156"/>
        <path class="st3" d="M55.206 242.002v.81c-.812-.405-2.437-.405-3.249-1.214.812-2.023 2.437-.405 3.249.404z" id="path158" style="stroke-width:.999998"/>
        <path class="st5" d="m136.011 267.085-.406.81c-2.842-1.214-3.248-4.451-4.466-6.878-5.685-5.26-7.715-13.35-6.497-20.228.812 10.114 6.903 17.8 11.37 26.296z" id="path160"/>
        <path class="st3" d="M58.86 241.193c0 2.023-2.03 3.641-2.03 5.664 0-1.618.406-4.045.812-5.664z" id="path162" style="stroke-width:.999998"/>
        <path class="st3" d="M66.17 241.193c-.813 3.237-1.625 7.282-4.873 9.71 0 .404-.406 1.213.406 1.213 2.436-1.213 3.654-3.64 5.278-5.663-1.218 1.618-1.624 4.854-4.06 6.473-1.624-.81-2.842-2.832-4.873-2.428-.406-2.023.406-4.855 2.03-6.068 1.625.809.407 4.045 3.249 3.236 2.842-1.618-.406-5.664 2.842-6.473z" id="path164" style="stroke-width:.999998"/>
        <path class="st3" d="m129.108 245.239-1.218 1.618c-2.03-.809-.406-2.832-1.218-3.64l1.624-1.215c1.219.405 1.625 2.023.812 3.237z" id="path166" style="stroke-width:.999998"/>
        <path class="st5" d="m140.884 246.048-2.436-2.427c-.406-1.214 1.218-1.214 2.03-1.619z" id="path168"/>
        <path class="st5" d="M173.775 245.239c-.812-.405-1.218-2.023-.812-2.832l2.842 1.214z" id="path170"/>
        <path class="st5" d="M168.09 246.453c0 1.618-.812 2.831-2.436 3.64-1.624-.404-.812-2.831-2.03-4.045l-2.03-2.427c3.248-3.641 4.872 1.618 6.496 2.832z" id="path172"/>
        <path class="st5" d="M72.26 246.453c-.406 1.618-1.624 0-2.436 0-1.218-.405-.812-2.428-.406-3.641 1.624-.81 4.466 1.618 2.842 3.64z" id="path174"/>
        <path class="st5" d="M55.206 248.88c-1.218.809-2.843 0-3.655-.81l.812-4.45c3.249-.404 2.843 2.833 2.843 5.26z" id="path176"/>
        <path class="st5" d="M123.018 248.475c-.813.81-2.437 1.619-3.655 1.214-.812-.405-1.218-1.618-.812-2.427l3.654-3.237c0 1.618.813 2.832.813 4.45z" id="path178"/>
        <path class="st5" d="M163.623 250.498c-3.654 2.023-.406-4.045-4.06-4.45-.406-.81.406-1.214.812-1.618 2.03 1.213 2.842 4.045 3.248 6.068z" id="path180"/>
        <path class="st3" d="M178.648 244.834c-1.625 2.428-5.28 3.641-7.715 6.069-4.467 2.022-8.122 7.282-12.994 5.664.812-2.428 4.06-1.619 5.684-3.237 4.873-2.832 9.746-6.473 15.025-8.496z" id="path182" style="stroke-width:.999998"/>
        <path class="st3" id="polygon184" transform="matrix(4.06059 0 0 4.04559 -3.673 .076)" style="stroke-width:.246725" d="m13.3 60.8-.1-.2h.1z"/>
        <path class="st5" d="M72.666 254.14c-.406 2.022-1.624 4.854-3.654 5.258-1.624-2.831-8.933-5.259-3.249-8.495 1.218-.81 2.03 1.213 2.843 2.023 0 .404.406.809-.406 1.213l-2.03-.809c-.813 1.214 1.218 1.618 1.624 2.832 1.218-1.214 3.654-3.236 4.06-5.664l2.437-4.855c2.436 2.428-.813 5.664-1.625 8.496z" id="path186"/>
        <path class="st5" d="M185.145 249.689c-1.625 1.214-1.625 3.641-4.061 2.023-.812-1.618-.812-4.45-.406-5.664 2.03.81 6.497 1.214 4.467 3.641z" id="path188"/>
        <path class="st5" d="M160.781 250.094c0 .809 0 3.236-1.624 3.64-.812-1.618-1.624-4.045-3.249-5.663 1.219-3.641 4.467 0 4.873 2.023z" id="path190"/>
        <path class="st5" d="M182.302 254.14c-.406 1.617-2.436.808-3.248.808-.812 0-1.625-.809-1.625-1.618 0-2.427-.406-5.26 1.625-6.473 1.624 2.023-.812 6.878 3.248 7.282z" id="path192"/>
        <path class="st3" d="M129.515 247.262c1.624 1.618-2.03 2.022-.407 3.64 1.219.81.813-2.022 2.03-.808l-1.623 1.213c-.813-.809-1.219-2.023-.813-3.64.406 0 .406-.405.813-.405z" id="path194" style="stroke-width:.999998"/>
        <path class="st5" d="M70.636 250.498c-.406.405-1.218.81-1.624.405-.812-.81-1.218-2.428-.812-3.641 1.218 1.213 3.654 1.213 2.436 3.236z" id="path196"/>
        <path class="st5" d="M79.163 249.284h-2.436l.406-1.618c.812 0 1.218 1.214 2.03 1.618z" id="path198"/>
        <path class="st5" d="M134.387 250.498c-2.03.81-2.436-1.618-2.436-2.427z" id="path200"/>
        <path class="st5" d="m157.127 253.735-1.625.809c.406-2.023-3.654-5.26-.812-6.473.812 2.023 2.843 3.236 2.437 5.664z" id="path202"/>
        <path class="st3" d="M126.672 271.13c-.406 1.214-2.436 1.214-3.654.81-5.685-6.069-7.716-15.373-5.685-23.06.812 8.091 3.654 15.778 9.34 22.25z" id="path204" style="stroke-width:.999998"/>
        <path class="st5" d="M175.805 249.689c-.406 2.832 2.437 6.068-.406 8.091-3.654-.404-1.218-4.45-2.03-6.473.812-.809 1.624-1.618 2.436-1.618z" id="path206"/>
        <path class="st3" d="M147.381 252.116c2.03 3.237 4.467 6.473 4.467 10.114 1.624.81.812 3.237.812 4.45-.406.81-.812.405-1.218.405-1.625-3.641-3.655-7.282-7.715-9.71.406-2.022 4.06-1.618 3.654-4.45-.812-.404-3.654-.809-4.873.405v2.023c-1.218 0-1.624-1.618-2.03-2.428l.812-2.831c2.03 0 4.467.404 6.091 2.022z" id="path208" style="stroke-width:.999998"/>
        <path class="st5" d="M153.878 252.925v.81c-2.03.809-3.654-1.619-5.279-2.428 1.625-2.023 5.28-1.213 5.28 1.619z" id="path210"/>
        <path class="st5" d="M79.163 251.307c0 .81 0 1.214-.812 1.619-.812-.405-4.467 0-2.842-2.428 1.218-.404 2.842.405 3.654.81z" id="path212"/>
        <path class="st3" d="M81.6 250.498c.406 5.664-1.219 11.732-5.685 15.778l-.812-.81c1.624-4.854 4.466-10.113 5.684-14.968z" id="path214" style="stroke-width:.999998"/>
        <path class="st5" d="M114.896 250.498c-.406 4.046-.812 8.496 1.219 12.137l-4.467 3.236c-.812 0-.406-.809-.406-1.213.406-3.237 6.497-.405 3.248-3.641-1.624.404-3.248 2.022-4.466.809l4.872-3.237c-.812-1.213-2.03-.404-3.248 0l-1.624 1.214c-.812-.405-.406-1.618-.406-2.427l4.872-3.237c-1.218-.809-2.842 0-3.654.405-.406.404-.812.404-.812.404-1.218-2.427 2.842-3.236 4.872-4.45z" id="path216"/>
        <path class="st5" d="M124.236 252.52c.406 2.024-2.437 1.215-3.655 2.024-1.218 0-1.218-1.214-1.624-2.023-.812-2.023 1.624-1.214 2.436-2.023 1.625 0 2.843.405 2.843 2.023z" id="path218"/>
        <path class="st5" d="M87.284 252.925v2.023c-1.624.81-2.436-1.618-3.654-2.427l.406-2.023c.812 1.214 2.842.81 3.248 2.428z" id="path220"/>
        <path class="st5" d="M172.15 251.712c.407 2.427.407 5.664 0 7.282-.811-1.214-2.436-.81-2.842-2.427-.406-2.023.812-4.45 2.843-4.855z" id="path222"/>
        <path d="m60.89 263.04 6.091 32.364 14.213 74.439 14.212 72.82v1.214c-1.625.405-4.467.405-5.28-1.213-6.496-36.006-15.023-70.798-20.708-107.208l-11.776-65.134c-.812-6.069-2.03-12.137-2.842-17.801 6.497-1.214 4.466 6.877 6.09 10.518z" id="path224" style="fill:#ee334e;stroke:#000;stroke-width:.1614"/>
        <path class="st3" d="M131.139 252.925c-.406 0-.406 0-.812.405-.812-.405.406-.81.812-.81z" id="path226" style="stroke-width:.999998"/>
        <path class="st3" d="M135.2 253.33v.81h-1.219v-1.214c.812-.405.812 0 1.218.404z" id="path228" style="stroke-width:.999998"/>
        <path class="st3" d="M92.157 256.971c-.812 5.664 0 12.137-4.873 16.182-.812-.404-1.624-.404-2.436-.809 2.842-4.45 3.655-9.71 4.06-14.968.407-.81 2.031-.81 1.625-2.023-.812-.405-2.436-.405-2.03-2.023 2.842 0 2.842 2.023 3.654 3.641z" id="path230" style="stroke-width:.999998"/>
        <path class="st3" d="M132.763 254.544c.406.809-.406.809-.812 1.213-.812-.404-.812-1.618 0-2.022 0 0 .406.809.812.809z" id="path232" style="stroke-width:.999998"/>
        <path class="st5" d="M142.914 258.994v.809c-2.436-.405-6.09 2.427-7.309-1.214.813-1.213-1.624-1.618-.406-2.832 1.625-.809 1.625 1.619 2.843 1.214.406-.809-.406-2.023-1.218-2.427 3.248-.81 3.248 3.64 6.09 4.45z" id="path234"/>
        <path class="st5" d="M77.945 256.162c-1.624 0-2.842-.405-3.654-.81 0-1.617 2.842-.808 3.654-.404z" id="path236"/>
        <path class="st3" d="M161.187 258.59c.406 1.618 2.843.808 3.655 1.618 3.248 2.427 7.715 2.022 10.963 4.045-.812 4.046-4.872 3.641-8.121 3.237-6.903-2.023-16.242-3.641-17.46-12.946l.406-.405c3.248 2.428 6.497 4.046 10.557 4.45z" id="path238" style="stroke-width:.999998"/>
        <path class="st5" d="M169.714 260.208c-1.624.404-2.842-.81-4.06-2.023.406-1.214 0-3.237 2.03-3.641 1.624 1.213.406 4.045 2.03 5.664z" id="path240"/>
        <path class="st3" d="M107.587 254.544c2.03 6.473 0 14.968 6.903 19.823-.406.81-1.624 1.214-2.436.81-4.873-4.855-4.873-11.733-6.09-18.206 0-.809-.407-2.832 1.623-2.427z" id="path242" style="stroke-width:.999998"/>
        <path class="st5" d="M125.454 256.162c.406 1.618-.812 1.618-1.624 2.023-1.218-.405-2.843 1.213-3.249-.81-.406-1.618 4.06-3.64 4.873-1.213z" id="path244"/>
        <path class="st5" d="M87.284 258.59c-.812 1.618-2.03.808-2.842-.405-.406-.81-2.03-2.023-.812-3.237.812 1.214 2.842 2.023 3.654 3.641z" id="path246"/>
        <path class="st5" d="M98.654 256.162v1.214c-1.624-.405-4.873.809-5.279-1.214l.406-1.214c1.219.81 3.249-.404 4.873 1.214z" id="path248"/>
        <path class="st5" d="M104.339 255.353c.406 1.618.812 3.64-.406 4.855-1.624-.405-.812-2.023-2.03-2.428-.407 6.069 1.218 14.564-2.843 19.014h-2.03c.812-2.022 2.03-4.854 1.624-7.282l-.812 1.214c-1.218-2.427-6.09-1.618-5.279-4.855 2.03-.809 4.06.81 5.279 2.428l.812 1.213c2.03-3.64 1.624-8.9 1.624-13.35l1.625 1.214c-.407-1.214.812-2.428 2.436-2.023z" id="path250"/>
        <path class="st1" d="m73.072 266.276.812 1.618c10.964 8.091 24.364 16.183 38.576 10.114 8.121-4.45 18.273-3.64 25.582-8.496h1.624c5.685 8.092 12.994 12.946 21.115 17.396-.812 4.855-4.873 9.305-7.309 14.16-8.933 14.16-18.273 27.51-26.8 42.074-13.806 12.541-26.8 23.87-41.012 36.006-5.685-22.25-8.933-46.12-13.806-69.18-3.654-17.8-6.903-35.196-10.151-52.997 5.278 1.214 7.309 7.282 11.37 9.305z" id="path252"/>
        <path class="st5" d="M76.727 258.185c-.812 2.023-2.843-.405-4.06 0l.811-1.618c.813.404 2.843 0 3.249 1.618z" id="path254"/>
        <path class="st5" d="M136.011 260.612c.407.81-.406 1.214-.812 1.618-2.03 0-2.03-2.427-2.842-3.64l.812-2.023c1.218.809 2.436 2.427 2.842 4.045z" id="path256"/>
        <path class="st5" d="M164.436 257.376v.809h-1.625c.406-.81 1.219-1.618 1.625-.81z" id="path258"/>
        <path class="st5" d="M177.43 261.826c-1.625.809-3.249-.405-4.873-.405 1.218-2.427 4.466-3.236 6.903-4.045.812 1.213-1.624 2.832-2.03 4.45z" id="path260"/>
        <path class="st5" d="M130.327 264.253c.812 1.214 2.03 2.832.812 4.45-.812 1.214-2.03 2.023-3.655 1.619l-2.03-2.428c1.624-.809 3.248-2.023 4.873-3.64-2.03-.405-5.685 4.45-6.497 0 1.218-.405 3.248-.81 3.654-2.428-2.03-.405-4.466 2.023-5.685-.81.813-1.213 3.249-2.022 5.28-2.427z" id="path262"/>
        <path class="st5" d="M98.654 260.612c0 .81.406 1.618-.406 2.023-.812-2.427-6.09 0-4.873-3.641 2.03-.81 4.467 0 5.28 1.618z" id="path264"/>
        <path class="st5" d="m87.284 261.017-.406 2.427c-1.624.81-3.248-.405-4.466-1.214-2.03-.809-.812-2.427 0-3.236 1.218.809 2.842 2.427 4.872 2.023z" id="path266"/>
        <path class="st5" d="M75.103 261.826c.406.809-.406 1.618-.812 2.023-2.03.404-2.03-2.023-3.249-2.832-.406-.81 1.218-.81 1.624-1.214.812.405 2.843.405 2.437 2.023z" id="path268"/>
        <path class="st5" d="M145.757 261.421c-2.03.81-4.06 1.214-6.497.81l-.406-.81z" id="path270"/>
        <path class="st5" d="M105.557 263.444c0 .405.406 1.618-.812 1.618h-.812l-.406-3.236c1.624-.405 1.624.809 2.03 1.618z" id="path272"/>
        <path class="st5" d="M138.448 263.444c.406.81-.812 1.618-1.218 2.023-.812.404-1.219-.405-1.625-.81-.406-1.213.813-1.618 1.219-2.427.812 0 1.218.81 1.624 1.214z" id="path274"/>
        <path class="st5" d="M98.248 265.871c-1.624 0-3.655-.809-5.279-1.618 0-1.618 2.437-2.023 3.249-.809.406.81 2.03 1.214 2.03 2.427z" id="path276"/>
        <path class="st5" d="M149.005 268.299c-1.218.809-2.436.809-3.654.404-1.624-.809-.812-2.832-.812-4.45.812-1.214 2.03-.809 2.842-1.214.406 2.023 2.436 2.832 1.624 5.26z" id="path278"/>
        <path class="st5" d="M86.066 265.871v.81c-1.624.404-4.466.809-5.279-1.619l-.406-2.023c1.625 1.619 4.061 2.023 5.685 2.832z" id="path280"/>
        <path class="st5" d="M142.914 266.68c-1.218 0-2.03-1.618-2.842-2.427.406-.809 2.03-.404 3.249 0z" id="path282"/>
        <path class="st5" d="M156.72 265.467c-.406.809-1.624 1.214-2.436.809l.406-2.023z" id="path284"/>
        <path class="st5" d="M117.333 266.276c-2.437-.405-3.655 4.046-5.685 2.023 1.218-2.023 4.06-4.855 5.685-2.023z" id="path286"/>
        <path class="st5" d="M84.442 268.703c-.406.81-.812 3.641-2.436 2.428-2.03-1.214-3.249-2.428-4.467-3.641.406-.405 0-2.428 1.624-2.428 1.218 1.619 2.843 4.855 5.279 3.641z" id="path288"/>
        <path class="st5" d="M140.072 266.276c-.812.405-1.218 1.214-2.03.81 0-.81 1.218-1.62 2.03-.81z" id="path290"/>
        <path class="st5" d="M105.963 267.894c.812 1.618-.812.81-1.624 1.214-.406 0-.812-.405-.812-.81-1.218-2.022 2.842-2.831 2.436-.404z" id="path292"/>
        <path class="st3" d="M158.345 267.085c-.812 1.214-2.843 1.618-4.467 2.023 1.218-1.618 2.842-2.023 4.467-2.023z" id="path294" style="stroke-width:.999998"/>
        <path class="st5" d="M165.654 271.13c.406.81.406 1.619.406 2.428-.812 0-.812.81-1.624.81l-4.061-5.665c2.03-2.427 5.279.405 5.279 2.428z" id="path296"/>
        <path class="st5" d="M145.35 271.535c2.031-.404 5.686-.404 7.31 2.023 1.218 0 .812 1.618 1.624 2.427-.406 1.214-1.624 1.214-2.436 1.619-2.843-.405-6.091-3.237-6.497-6.069-.812 0-2.03-1.213-2.437-2.427l.407-.81c0 1.214 3.654 1.214 2.03 3.237z" id="path298"/>
        <path class="st3" d="M133.575 268.299c0 .404 0 .809-.406.809h-.812c.406 0 .406-1.214 1.218-.81z" id="path300" style="stroke-width:.999998"/>
        <path class="st5" d="M118.55 269.108c-1.217.809-2.841 2.023-4.06 3.64-.812-.404-1.218-1.213-.812-2.426 1.218-1.619 3.249-2.023 4.873-1.214z" id="path302"/>
        <path class="st5" d="M162.405 275.176c-.812 0-1.218 1.618-2.436.81 1.218-3.642-8.933-6.069-1.218-7.283 1.218 2.428 4.06 3.641 3.654 6.473z" id="path304"/>
        <path class="st5" d="M169.308 271.13c1.218-.404 1.218-2.427 2.843-1.213-.812.81-.812 2.023-2.03 2.427-2.843 2.023-3.25-2.022-4.061-3.64 2.03-.405 3.654.808 3.248 2.427z" id="path306"/>
        <path class="st5" d="M96.624 273.153c-1.624 0-3.655-1.213-5.685-1.213-.812-.81 0-2.023.812-2.428 2.842-1.213 3.655 2.832 4.873 3.641z" id="path308"/>
        <path class="st5" d="M107.587 271.94c.406 2.023-2.03 1.618-3.248 2.023-.812 0-2.03.404-2.03-.81.812-.809-.406-2.831 1.218-3.236 1.218-.405 3.654 0 4.06 2.023z" id="path310"/>
        <path class="st5" d="M157.939 276.39c-3.655 1.618-2.843-4.855-6.497-5.26 3.248-3.236 4.06 2.833 6.497 3.237z" id="path312"/>
        <path class="st5" d="M121.393 272.344c-.812 1.619-3.654 1.214-5.278 1.619-.406-1.214.812-1.619 1.218-2.023 1.218 0 3.248-.81 4.06.404z" id="path314"/>
        <path class="st5" d="M95.406 275.176c0 .81 0 1.214-.813 1.618-2.03-.809-6.09-.809-6.09-3.64 1.218-.81 3.654-.405 5.278.404.812.81 1.219 1.214 1.625 1.618z" id="path316"/>
        <path class="st3" d="M168.09 276.794c-4.06 2.428-9.34 3.237-14.618 3.237-.406-.405-.812-.81-.812-1.214 5.279-1.213 11.37-1.213 15.836-4.854 1.218.809-.406 2.022-.406 2.831z" id="path318" style="stroke-width:.999998"/>
        <path class="st5" d="M110.43 275.985c-2.843.81-6.497 2.428-9.34.81.406-2.832 4.873-.81 6.497-2.832 2.03-.81 1.219 1.618 2.843 2.022z" id="path320"/>
        <path class="st5" d="M166.06 279.626c-1.218 1.619-1.624 5.664-4.06 4.855-1.625-1.214-3.655-1.214-4.873-2.832 2.842-1.213 6.09-1.213 8.933-2.023z" id="path322"/>
        <path class="st4" d="M250.926 305.923c4.873 2.832 10.964 2.023 15.836 4.45-1.624 7.686.812 17.396-4.466 23.869-2.03.404-3.249-2.428-5.28-2.832-13.805-4.046-25.175-13.35-35.326-23.869l-.812-.81c3.654-4.045 9.34-4.854 14.212-7.686 4.872 2.832 10.963 3.237 15.836 6.878z" id="path324" style="stroke-width:.999998"/>
        <path class="st4" d="M221.284 309.968c2.842 2.832 4.466 4.855 7.715 7.687 6.497 8.091 15.836 11.732 24.363 15.778.813 2.023 1.625 3.64 0 5.664-2.03 3.236-6.09 7.686-9.745 8.9-4.873 3.64-10.151 6.068-15.024 10.114-2.843 1.214-5.685 4.045-8.527 4.855-.406-1.619-1.219-4.046-3.655-4.855-6.09.809-10.964 4.855-16.648 5.26 1.218-.81.812-2.833.406-4.046-3.655-4.046-9.34-.405-13.806-1.214-8.527-2.428-15.024-8.496-24.77-7.687l-7.309.405c.406-5.26 3.249-10.519 4.06-16.183 19.492-9.709 39.794-17.8 59.285-27.51-.406-.404 2.843 2.023 3.655 2.832z" id="path326" style="stroke-width:.999998"/>
        <path d="M231.435 328.983c2.03 3.64 5.685 6.068 8.121 8.9 1.625 2.023 4.873 1.214 5.28 4.045-8.934-2.427-14.619-12.54-20.71-19.418l-6.497-8.092c6.091 3.237 9.34 9.71 13.806 14.565z" id="path328" style="stroke-width:.999998"/>
        <path d="M237.12 345.165c0 .404.406.81-.406 1.214-10.558-4.046-11.776-16.587-19.897-23.06l.406-1.214c8.121 6.473 9.746 17.8 19.897 23.06z" id="path330" style="stroke-width:.999998"/>
        <path d="M190.83 332.22c3.248 6.472 3.654 14.159 8.933 19.418v.809l-1.219-.405c-4.872-6.068-6.496-13.755-9.745-20.632-.812-2.023-2.842-3.237-2.842-5.26 1.624 1.619 4.06 4.046 4.872 6.07z" id="path332" style="stroke-width:.999998"/>
        <path d="M205.041 330.6c5.28 7.687 7.31 17.397 15.025 24.274v2.832c-1.625-1.213-2.843-3.236-4.061-5.664-5.685-7.686-8.527-17.396-15.836-24.273 1.218-1.214 3.248 1.214 4.872 2.832z" id="path334" style="stroke-width:.999998"/>
        <path d="M189.611 337.478c2.437 6.069 2.843 12.946 5.685 18.61-4.06-1.214-4.06-6.473-4.873-10.518-2.436-4.855-2.436-10.924-6.903-14.97l-.406-3.236c2.843 2.428 4.873 6.473 6.497 10.114z" id="path336" style="stroke-width:.999998"/>
        <path d="M197.326 331.815c5.685 7.686 7.31 16.586 14.618 23.06-2.03.808-4.06-2.428-6.09-3.642 0-4.045-4.873-6.473-4.873-10.518-1.218-3.237-4.467-5.664-5.279-9.305z" id="path338" style="stroke-width:.999998"/>
        <path class="st2" d="M155.502 335.051c-.812 6.068-4.06 11.732-4.466 18.205 0 4.45 0 8.091 2.03 11.328 8.933 8.496 13.4 20.632 19.085 31.15 2.842 6.07 6.09 12.138 8.527 18.206-1.624 1.618 0 3.641.406 4.855 2.436 2.427 2.842 6.473 4.873 9.71-1.625 2.022-4.873 2.022-5.685 4.854.812 4.045-3.249 5.664-4.06 8.9-4.467-.404-6.498 7.282-11.37 4.855-3.655.809-4.467 5.26-4.873 8.091-25.582 4.046-55.224 16.991-80.806 3.236-7.715-3.236-14.618-8.9-19.897-15.777-1.218-.405-3.654-.405-4.06 1.618.406 4.855 4.873 8.091 8.527 11.732 15.43 12.946 35.733 16.587 56.036 14.564 19.085-4.45 40.2-8.496 59.69-12.946 30.05-6.877 59.691-13.755 90.146-19.418 7.309-2.023 16.242-2.428 21.115-9.71-1.624-3.64 2.436-2.832 4.06-4.046 25.582-3.64 49.946-11.732 75.527-15.777-3.654 35.196-35.327 65.538-67.811 76.461-6.497 2.023-20.71 6.069-30.86 5.664-28.425 2.832-57.255 16.587-70.25 44.097h-.811c-14.212-24.678-39.388-43.692-69.03-43.692-29.642-1.214-56.442-10.519-76.34-33.174-5.278-2.832-7.714-9.305-11.775-13.755-3.248-5.664-6.497-11.732-8.527-18.205l.812-2.023c13.806-11.732 28.424-24.678 42.636-35.601l11.776 55.424c2.436 1.619 5.279 0 8.121 0 0-8.495-9.34-50.57-11.37-63.515 12.182-11.328 25.582-22.251 38.17-33.174-.406 1.213 25.988-10.923 30.454-12.137z" id="path340"/>
        <path class="st8" d="M248.896 352.042v1.214c-.812 0-2.843-.404-2.03 1.214-.407.809.406 1.213.812 2.023 2.436.404 4.872-2.023 6.497-.405.812 2.023-4.061 2.832-.813 4.855 4.467-3.641 9.746-5.26 15.837-4.046 11.37 2.023 21.115 10.923 29.236 18.61 0 4.045-2.842 7.686-4.06 12.137-15.43-.405-26.8-10.923-41.013-14.16-9.339-1.214-19.084-2.832-23.957-11.732 4.873-4.45 10.964-7.282 16.648-10.519 1.219-.404 2.03 0 2.843.81z" id="path342"/>
        <path class="st8" d="M178.648 357.706c0 1.619-1.625 1.214-2.437 2.428-1.218 0-2.03-.81-2.842.404-.406.81.812 1.214 1.624 1.618.812 0 1.624-.404 2.03.405-.406 2.023-4.06 2.832-2.436 4.855 1.218-1.214 3.249-1.214 4.467 0 8.933 8.495 12.181 20.632 15.024 31.96.812 2.832-.406 6.473 2.03 8.091-3.654 4.046-8.527 5.26-13.4 5.664-9.34-15.778-15.024-33.174-25.581-47.738-1.625-.81-3.249-2.023-3.655-4.046 0-2.832-1.624-7.686 1.218-8.9 9.34-.81 17.46.81 23.958 5.26z" id="path344"/>
        <path class="st3" d="M194.078 359.73c2.03 2.022 1.624 6.472 5.279 6.067 6.09 2.023 10.963-7.282 15.43-.404 4.466.809 8.527-.81 12.182-3.641 4.06 4.855 7.715 9.305 12.993 10.923 20.303.81 34.515 14.969 54.412 16.587-.406 1.618.406 2.832 2.03 3.64 3.25-3.64 5.28 2.428 8.934 1.215.406.404.812.809.812 1.618-1.624 0-3.248 1.213-3.654 2.427-.407 2.832-.407 6.069 2.842 6.878 3.248-1.214 3.654 2.427 4.06 3.64-.812 3.642-7.309 3.642-6.496 8.901-29.643 4.45-65.782 20.633-93.8.405-2.436-.81-4.873-4.855-8.121-2.832-1.624-2.832-.406-6.473-3.655-8.496-1.624-15.778-6.497-30.747-17.866-41.67.406-2.022 0-5.663 2.842-6.473 3.249 1.214 7.715 1.619 11.776 1.214z" id="path346" style="stroke-width:.999998"/>
        <path class="st4" d="M198.138 361.347c-.812.405-.812-.404-1.218-.809-.406-.809.812-1.213 1.218-.809z" id="path348" style="stroke-width:.999998"/>
        <path class="st4" d="M217.63 361.347c.405 1.214-.813 1.619-1.219 2.023-1.218 0-1.624-1.214-2.436-2.023.812-.404 2.436-2.022 3.654 0z" id="path350" style="stroke-width:.999998"/>
        <path class="st9" d="M301.683 379.957c-.406.405-1.218.81-.812 1.618 1.625 1.214 1.218-1.213 2.437-1.213.812 1.213-.812 3.236 1.218 3.64-.812-2.022 1.218-3.64.812-6.068 6.497-2.023 10.151 4.45 15.43 5.664-4.873 3.237-1.218 15.373-10.151 11.328l-.812-.81c2.436-1.213 4.872-4.045 4.466-6.472h-.812l-5.685 6.473c-2.03-3.237-6.903-1.619-8.933-4.855-.812.404-1.218 1.214-2.03 1.618-.406-6.068 2.842-10.923 4.06-16.587 1.218 1.214 1.218 3.641.812 5.664z" id="path352" style="stroke-width:.999998"/>
        <path class="st9" d="M324.829 381.98c-1.218 6.068-5.685 10.518-7.31 16.587-3.248-1.619-6.902 2.023-9.339-2.023l.812-.81 6.497.81c3.249-4.45 4.061-10.519 7.31-14.969z" id="path354" style="stroke-width:.999998"/>
        <path class="st9" d="M328.077 387.644c0 3.64-2.436 5.663-4.06 8.9-1.219 5.664-2.03 10.518-2.03 16.182-1.625.405-2.031-1.618-2.843-2.427.812-4.45-1.624-10.114.812-14.969l5.685-10.518c1.218 1.213 2.436 1.618 2.436 2.832z" id="path356" style="stroke-width:.999998"/>
        <path class="st9" d="M309.399 398.971c0 .81-.813.81-1.219.81-.812-.405-.812-1.619 0-2.023 0 .404.812.404 1.219 1.213z" id="path358" style="stroke-width:.999998"/>
        <path class="st9" d="m305.744 402.612-2.03-.404c-.812-1.214-.406-3.237.812-3.641h.812z" id="path360" style="stroke-width:.999998"/>
        <path class="st9" d="M317.114 400.185c-2.843.81-6.497 2.023-9.34 2.023 2.03-2.023 5.685-3.641 9.34-2.023z" id="path362" style="stroke-width:.999998"/>
        <path class="st9" d="M318.332 407.872c-1.624 0-3.655-2.428-5.685-2.832-1.218 0-2.436.404-3.655-.405.407-2.832 4.061-1.214 5.685-2.427 4.467-.81 2.437 4.045 3.655 5.664z" id="path364" style="stroke-width:.999998"/>
        <path class="st9" d="M315.083 407.872h-4.872v-1.619c1.624.405 3.654 0 4.872 1.619z" id="path366" style="stroke-width:.999998"/>
        <path class="st10" d="m370.307 407.872-45.884 9.709c-.812-2.832 3.248-2.023 4.872-3.236 13.4-3.237 26.8-5.664 40.606-8.092z" id="path368"/>
        <path class="st11" d="M322.392 416.367c.812 1.214-1.218 1.214-1.624 2.023-3.654-2.023-6.903-4.855-9.745-7.687v-.809c4.872-.404 8.933 2.832 11.37 6.473z" id="path370"/>
        <path class="st9" d="M198.138 410.299c1.219 4.046-4.872 5.26-4.466 8.496 1.218.404 1.218-1.214 1.624-1.619l3.248-2.427c2.03 4.046-.812 9.305 3.249 12.946-.812 2.832-5.279 2.427-5.279 5.26 1.624-.405 2.843-3.237 4.873-1.619-1.218 1.214-3.655 2.023-4.873 3.641 2.03.81 3.249-1.618 5.279-2.023.812.405 1.218 1.214 1.218 2.023l-6.09 2.023c-2.437-2.832-5.28-5.26-8.934-6.069 0-5.663-3.249-10.114-5.279-14.968 4.873-1.214 10.558-2.023 15.43-5.664z" id="path372" style="stroke-width:.999998"/>
        <path class="st10" d="M316.708 417.176c.812.81.406.405.812 1.214l-.812.81c-36.14 4.45-77.964 25.082-111.667 1.617-1.218-.809-2.03-2.427-2.03-3.64 2.843.404 5.279 2.831 7.715 4.45 22.333 16.182 61.721 3.64 79.588.404 2.03-.404 26.394-4.45 26.394-4.855h-.407" id="path374"/>
        <path class="st9" d="M314.271 416.772c-1.218 0-2.436.809-4.06.404-2.03 0-3.249.405-5.28.405-2.842-4.45 3.655-2.427 5.28-5.26 1.624 1.214 4.06 2.024 5.684 3.642z" id="path376" style="stroke-width:.999998"/>
        <path class="st3" d="M211.132 427.695c21.521 10.923 48.321 5.664 71.06 1.214l-2.436 2.022-70.248 14.97c1.218-2.833-1.624-5.665 0-8.497.406-1.618-1.218-2.832-2.436-3.64-5.685-.81-1.625-8.092-6.091-10.924v-2.832z" id="path378" style="stroke-width:.999998"/>
        <path class="st10" d="M287.471 428.504c-.406 4.45-6.09 3.641-8.933 6.068-32.485 6.473-63.751 14.16-95.83 21.038-.406-.81.406-2.832 1.624-3.237 30.86-4.046 59.691-12.541 89.74-18.205 4.466-1.214 8.933-3.641 13.4-5.664z" id="path380"/>
        <path class="st9" d="M185.957 432.954c0 2.023-1.625 2.428-3.249 2.832-1.218 0-.812-1.618-.406-2.023.812-1.618 2.437-.809 3.655-.809z" id="path382" style="stroke-width:.999998"/>
        <path class="st9" d="M194.078 436.595c0 3.641 6.497 2.832 3.248 6.473-.812-.404-3.654 1.214-3.248-1.213v-.81l-8.121-4.45c1.624-.809.406-5.259 3.654-3.64z" id="path384" style="stroke-width:.999998"/>
        <path class="st9" d="M207.072 436.595c-1.218 3.237-4.467 2.428-6.497 3.641-.812 0-1.218-1.213-2.03-1.213.812-2.832 4.466-2.832 6.902-3.641.407 1.213 1.625.809 1.625 1.213z" id="path386" style="stroke-width:.999998"/>
        <path class="st9" d="M191.642 442.664c-2.03 3.236-5.685 5.663-9.34 6.473-.812-3.237-7.309-6.069-2.436-9.305 2.03-1.618 4.872-2.023 6.903-.81 2.03.405 4.06 2.023 4.872 3.642z" id="path388" style="stroke-width:.999998"/>
        <path class="st9" d="M207.884 441.855c.812 2.831-2.03 4.045-3.655 4.854-3.654 1.618-8.12 2.428-12.181 2.832h-.813c.813-2.023 2.843-3.64 4.873-4.855 4.873.81 7.715-6.877 11.776-2.831z" id="path390" style="stroke-width:.999998"/>
        <path class="st9" d="M193.672 444.686c-2.843 2.832-6.091 7.687-10.558 6.473 2.843-2.022 7.31-3.64 9.34-6.877.406-.81.812 0 1.218.404z" id="path392" style="stroke-width:.999998"/>
        <path class="st11" d="M181.084 453.587c-1.624 1.213-2.03 3.236-4.06 3.236-.407-3.64-3.25-6.473-5.28-9.71.407-2.022 2.843-2.022 4.061-2.831 3.655 1.214 4.873 5.664 5.279 9.305z" id="path394"/>
        <path class="st10" d="M66.981 453.587c5.28 6.473 13.4 7.282 20.71 10.923 28.83 8.496 56.442-5.26 84.054-8.9.812-.81 1.624-.405 2.436-.405.812.405.812 1.618.406 2.023-32.079 4.854-80.4 27.51-110.854-4.046-2.436-2.427-5.685-4.045-6.497-7.686 3.655 1.213 5.685 5.663 9.745 8.09z" id="path396"/>
        <path class="st9" d="M170.12 451.969c.813-.405.813-1.214 1.625-.81l1.218 2.023c-1.624 1.618-4.873.405-6.497 2.023l-5.279-.81c.406-1.213.406-4.045 2.436-4.045 2.437-1.618 5.28-.809 6.497 1.619z" id="path398" style="stroke-width:.999998"/>
        <ellipse class="st12" cx="233.466" cy="210.042" id="circle400" rx="10.964" ry="10.923"/>
        <ellipse class="st12" cx="233.466" cy="210.042" id="circle402" rx="6.903" ry="6.878"/>
        <ellipse class="st13" cx="272.447" cy="255.757" id="circle404" rx="10.964" ry="10.923"/>
        <ellipse class="st13" cx="272.447" cy="255.757" id="circle406" rx="6.903" ry="6.878"/>
        <path d="M108.806 59.524c-2.843-4.046-6.497-2.428-8.122-1.619-2.842 1.214-2.03 5.26-1.624 6.878.406 1.618 11.37 20.228 11.776 20.228.406 0 8.121-4.855 8.933-4.855 0 0-7.715-16.182-10.963-20.632zm86.49-25.083c-1.624 2.023-1.624 4.855-1.624 5.664 0 .809.812 21.846 1.218 21.846h13.4s0-19.014-.812-24.274c-.406-5.259-6.903-6.877-7.31-6.068 0 0-2.03-.81-4.872 2.832zm7.715 42.479c-8.527 0-25.988-.81-43.854 4.854-20.71 6.473-30.86 10.519-50.758 23.06l-3.248.405h-2.436L94.187 93.91l4.467-3.236-19.49-30.747-6.904 3.237-14.618-17.396s17.46-12.542 19.897-13.35c1.624-.405 6.497 10.113 6.497 10.113s11.776-6.877 13.4-6.877c1.218-.405-4.06-9.71-4.06-9.71s19.49-9.71 21.114-8.9c1.219.404 8.122 20.228 8.122 20.228l-5.28 2.832s.407 2.427 1.219 2.427c.812-.405 12.588-5.26 13.4-4.45.812.809 2.436 9.305 3.654 9.305 1.625.404 17.055-4.45 18.273-4.45s-1.624-9.71-1.624-9.71 14.618-3.236 15.836-2.832c.406 0 0-4.045 0-4.045s-8.527.404-9.745.809c-1.218.809-4.873-20.633-4.873-20.633s21.521-3.236 22.74-2.427c1.217.81.405 6.473 2.436 6.877 2.03.81 7.715.81 8.933 0 1.218-.809-.812-8.9 0-8.9s23.145-.404 25.582.405c1.218.404-.406 8.495-.406 8.495s10.151.81 10.963.405c.812-.405.812-8.496 2.436-8.496 1.219 0 20.71 2.428 20.71 3.641 0 1.214-4.061 22.251-4.061 22.251l-10.152-2.023s-.812 3.237-.406 3.237c1.219 0 17.46 4.045 17.46 4.045l-1.623 9.305 16.648 4.046s2.436-8.9 3.249-8.9c2.842.809 14.618 5.663 14.618 5.663l1.218-2.427-7.31-2.832s6.904-20.633 8.122-20.633 19.897 8.9 19.897 8.9l-2.843 7.283 6.497 3.236 6.497 3.641 4.467-6.877s15.836 8.496 17.46 10.114c.813.809-11.37 18.205-11.37 18.205l-5.684-3.641-17.867 33.578 4.061 3.237-5.685 8.496s-4.06.404-6.903.404h.406s-30.86-16.587-42.23-19.823c-8.121-1.619-23.957-8.091-48.32-8.091zm93.8-17.801c-2.03 0-3.249 1.618-4.467 3.236-1.218 1.619-9.34 19.42-9.745 19.824-.406.404 6.497 3.64 6.903 3.64.406 0 9.339-19.013 10.151-20.632.812-1.618 1.624-4.45-.812-6.068-.406.405 0 .405-2.03 0z" id="path408" style="stroke-width:.999998"/>
        <path class="st9" d="M67.388 52.241c.406-.404 12.587-7.686 13.4-7.686.812-.405-4.061-6.878-4.061-6.878s-8.121 4.046-12.994 8.496c-2.03 1.214 3.655 6.068 3.655 6.068z" id="path410" style="stroke-width:.999998"/>
        <path class="st9" d="M101.903 34.036c.812-.404 5.684-2.832 7.309-3.64 1.624-.81 6.497-2.833 6.903-3.237 0-.405-2.437-6.069-3.249-6.069-.812 0-12.588 4.855-14.618 6.069 0 .404 2.436 7.686 3.655 6.877z" id="path412" style="stroke-width:.999998"/>
        <path class="st9" d="M91.345 42.127c-2.03 0-24.364 13.755-22.333 12.542-.406 0 2.842 4.045 3.248 4.045 8.527-5.663 19.491-11.327 21.115-12.136.406 0-1.624-4.45-2.03-4.45z" id="path414" style="stroke-width:.999998"/>
        <path class="st9" d="M96.624 45.769c9.34-4.855 10.963-5.664 22.74-10.519-.407 0-1.625-4.046-2.437-4.45-.812-.405-18.679 7.282-23.146 10.114 0 0 3.249 4.45 2.843 4.855z" id="path416" style="stroke-width:.999998"/>
        <path class="st9" d="M107.993 86.629s-2.436-4.45-3.248-5.26c-.812-.808-7.31-12.136-8.933-16.586-1.625-4.855 0-7.687 2.03-9.71 2.03-2.022 3.654-1.618 5.685-2.022 2.436-.405 5.279 1.618 6.903 3.236 1.624 1.618 12.182 22.655 12.588 22.655.406 0 6.09-3.236 6.09-3.236l-15.024-33.983-1.218-.405c-1.218-.404-27.206 12.542-30.86 16.183-.812.809 19.084 31.96 19.49 32.364.407.405 5.28-2.427 6.497-3.236z" id="path418" style="stroke-width:.999998"/>
        <path class="st9" d="m122.612 51.837 1.218-.405c1.218-.809 8.933-3.236 8.933-3.64 0 0-2.03-6.474-2.436-6.878-.406-.405-7.715 2.427-10.964 3.64z" id="path420" style="stroke-width:.999998"/>
        <path class="st9" d="M123.83 54.264s3.654 8.496 3.654 8.9c0 0 2.437-.809 2.03-.809l-4.06-8.495z" id="path422" style="stroke-width:.999998"/>
        <path class="st9" d="m128.702 52.646 3.655 8.496s8.933-2.832 14.212-4.046c.406 0-3.248-8.496-3.248-8.496s-10.558 2.023-14.619 4.046z" id="path424" style="stroke-width:.999998"/>
        <path class="st9" d="m146.569 47.791 2.436 8.496s15.025-3.641 16.243-3.641c1.218 0-1.625-8.9-1.625-8.9s-9.745 1.618-17.054 4.045z" id="path426" style="stroke-width:.999998"/>
        <path class="st9" d="M156.314 34.845s.813 7.282 1.219 6.878c.406 0 12.587-2.427 12.587-2.427.406 0-.406-6.069-.812-6.069 0 0-7.715.405-12.994 1.618z" id="path428" style="stroke-width:.999998"/>
        <path class="st9" d="m166.466 43.341 1.624 8.496 3.655-1.214-.812-8.091c0 .405-4.467.81-4.467.81z" id="path430" style="stroke-width:.999998"/>
        <path class="st9" d="M129.108 66.401s3.249 8.496 3.655 8.496c.406 0 7.715-3.237 7.715-3.237-1.624-4.854-2.436-7.282-3.248-8.09 0-.81-8.122 2.831-8.122 2.831z" id="path432" style="stroke-width:.999998"/>
        <path class="st9" d="M144.133 70.447c-.812 0 11.775-3.237 13.4-3.641 1.624-.405.812 0 .812 0l-1.625-8.496s-13.806 3.236-15.024 4.045c-1.218.81 2.437 8.092 2.437 8.092z" id="path434" style="stroke-width:.999998"/>
        <path class="st9" d="M161.593 65.996c-.406 0 10.964-2.022 11.776-2.022.406 0-.406-8.496-.812-8.9-.406-.405-9.746 1.213-11.37 1.618l-.812.404 1.218 8.9z" id="path436" style="stroke-width:.999998"/>
        <path class="st9" d="M157.127 8.55s0 4.854.406 4.854c.812 0 16.242-1.618 17.054-1.618.812 0 0-4.855-.406-5.26L157.127 8.55z" id="path438" style="stroke-width:.999998"/>
        <path class="st9" d="m158.75 16.64.813 6.473s11.776-1.618 21.927-1.618c1.218 0 0-7.282 0-7.282s-10.964 0-12.182.404c-.812.81-10.557 2.023-10.557 2.023z" id="path440" style="stroke-width:.999998"/>
        <path class="st9" id="polygon442" transform="matrix(4.06059 0 0 4.04559 -3.673 2.076)" style="stroke-width:.246725" d="M48 .9v1.2h4.5l.1-1.2z"/>
        <path class="st9" d="M184.738 14.213s-.812 7.687 0 7.282c.407 0 31.267 0 31.673.405.406.404.406-7.687.406-7.687s-12.182-.81-14.618-.81c-2.436.405-17.46.81-17.46.81z" id="path444" style="stroke-width:.999998"/>
        <path class="st9" d="M219.66 15.022s-1.219 7.282-.407 7.282c.813 0 10.152.81 11.776.81 1.624 0 7.715 1.617 8.121 1.617.406 0 1.625-7.282 1.625-7.282s-7.31-1.213-8.528-1.213c-.812-.405-12.181-1.214-12.587-1.214z" id="path446" style="stroke-width:.999998"/>
        <path class="st9" d="M227.375 12.19c2.436.405 12.587 2.023 13.4 2.023h.406l1.624-5.26s-12.994-2.427-13.4-2.427c-.406 0-2.03 5.664-2.03 5.664z" id="path448" style="stroke-width:.999998"/>
        <path class="st9" d="M200.169 27.968c6.09 0 10.963 4.45 11.37 8.9.405 4.45.811 25.487.811 25.487.407 0 4.873.405 6.497.405 1.625 0 6.091.81 6.903.81.813 0 2.843-37.22 2.843-37.22s-19.085-1.619-27.206-1.619c-8.527 0-26.394.81-29.642 1.619-.812 0 4.872 36.815 4.872 37.22 0 0 6.497-.405 7.715-.405 1.219 0 6.091-.405 6.497-.405 0 0-1.624-21.846-.812-24.678.812-2.832 1.625-6.473 5.279-8.091 3.655-2.428 4.873-2.023 4.873-2.023z" id="path450" style="stroke-width:.999998"/>
        <path class="st9" d="M231.841 32.823s-.812 6.877-.406 6.877l13.4 2.427 1.218-6.068s-10.151-3.236-14.212-3.236z" id="path452" style="stroke-width:.999998"/>
        <path class="st9" d="M235.496 43.746s-1.624-.405-4.467-.81c-.812 0-.812 8.496-.812 8.9 0 .405 2.842.405 3.249.405.406 0 2.03-8.495 2.03-8.495z" id="path454" style="stroke-width:.999998"/>
        <path class="st9" d="M230.623 55.073s-1.218 9.305-.812 9.305c.406 0 8.121 1.618 9.34 2.023 1.218 0 2.436-9.305 2.436-9.305s-3.249-1.618-6.091-1.618c-2.437-.405-4.873-.405-4.873-.405z" id="path456" style="stroke-width:.999998"/>
        <path class="st9" d="M238.338 44.15s-2.436 8.9-2.03 8.9c0 0 3.654.405 6.903 1.619 3.654.809 7.715 2.023 7.715 2.023l2.436-8.496s-4.466-2.023-7.309-2.427c-2.436-.81-7.715-1.619-7.715-1.619z" id="path458" style="stroke-width:.999998"/>
        <path class="st9" id="polygon460" transform="matrix(4.06059 0 0 4.04559 -3.673 2.076)" style="stroke-width:.246725" d="m66.8 14.8.8-2.2-1.7-.6-1.7-.5-.6 2.2 1.5.5z"/>
        <path class="st9" id="polygon462" transform="matrix(4.06059 0 0 4.04559 -3.673 2.076)" style="stroke-width:.246725" d="m68.3 12.9-.7 2.2.8.3.9-2z"/>
        <path class="st9" d="M275.696 44.15c-2.843-1.213-5.685-1.618-6.091-2.023 0 0-2.437 5.664-2.437 6.069 0 0 2.843.809 5.685 2.023 2.843 1.213 5.279 2.427 5.685 2.427l2.842-6.068-5.684-2.428z" id="path464" style="stroke-width:.999998"/>
        <path class="st9" d="M252.144 59.928c-3.654-1.214-7.715-1.618-7.715-1.618s-2.436 8.9-2.03 8.9c0 0 3.654.81 6.903 2.023 3.248.809 6.903 2.023 6.903 2.023.406 0 3.248-8.496 3.248-8.496 0-.405-3.654-2.023-7.309-2.832z" id="path466" style="stroke-width:.999998"/>
        <path class="st9" d="M267.98 64.783c-2.436-.81-5.278-1.618-5.684-1.618l-3.249 8.9s2.03.809 4.467 1.618c2.03.81 5.279 2.023 5.279 2.023l4.06-9.305c.406.405-2.03-.405-4.872-1.618z" id="path468" style="stroke-width:.999998"/>
        <path class="st9" d="M300.06 28.372c0-.404-12.995-6.472-13.4-6.068-.407 0-2.031 4.046-2.031 4.046s12.994 6.473 13.4 6.473c.406 0 2.03-4.45 2.03-4.45z" id="path470" style="stroke-width:.999998"/>
        <path class="st9" d="M320.768 39.296c-.406 0-2.842 3.236-2.436 3.64 2.436 1.214 9.34 5.664 10.151 5.664.406 0 2.843-2.831 2.437-3.236 0 0-6.497-4.45-10.152-6.068z" id="path472" style="stroke-width:.999998"/>
        <path class="st9" d="M283.817 29.182c-.406-.405-3.655 6.068-3.249 6.473 2.437 1.213 14.212 6.472 21.928 10.518.406.405 4.06-5.664 4.06-6.068-9.745-5.26-14.618-7.282-22.74-10.923z" id="path474" style="stroke-width:.999998"/>
        <path class="st9" d="M309.399 41.318s-3.655 6.069-3.655 5.664c0 0 11.37 6.069 17.867 10.114.406.405 3.654-5.26 3.248-5.664-8.527-5.259-10.151-6.068-17.46-10.114z" id="path476" style="stroke-width:.999998"/>
        <path class="st9" d="M300.465 55.478c5.685 3.236 3.249 8.9 2.437 11.328L292.75 87.034c.406.404 4.873 3.64 5.279 4.045.812.405 18.272-32.365 17.866-32.77-.406-1.213-6.496-4.45-14.212-8.495-7.309-3.64-15.024-6.877-15.43-6.877-.812 0-15.024 33.578-15.024 33.983 0 .404 7.715 4.45 8.121 4.045.406-.404 8.121-17.396 10.152-20.228 1.624-2.832 3.248-6.068 7.309-5.664 4.06 0 3.654.405 3.654.405z" id="path478" style="stroke-width:.999998"/>
        <path class="st9" d="M280.568 85.01c-8.12-4.045-21.52-10.113-33.296-13.35-11.776-3.236-29.643-6.068-45.885-6.473-16.242-.404-36.545 3.237-45.073 5.26-14.212 3.236-12.587 3.236-23.551 7.686-17.867 7.687-32.485 16.587-32.89 16.992-.407.404 4.466 6.068 4.466 6.068s.406 0 3.248-2.427c4.873-4.046 33.703-16.183 37.358-17.8 4.872-2.024 21.927-7.283 38.17-8.497 26.393-2.022 43.041 1.619 62.532 6.473 19.491 4.855 48.321 22.251 49.133 22.656.406 0 3.249-4.855 3.655-5.26.406-.404-7.31-6.068-17.867-11.327z" id="path480" style="stroke-width:.999998"/>
    </g>
</svg>
