<svg xmlns="http://www.w3.org/2000/svg" xml:space="preserve" viewBox="30.5 31.5 400 500" height="500" width="400">
    <path fill="#e00e00" style="fill:#ffe000;fill-opacity:.98823529" d="M230.45 531.13c-74.32-53.92-125.26-122.02-155.74-208.16-27.64-78.1-38.73-172.75-33.91-289.35l.02-.46h379.82l.02.46c4.81 116.6-6.28 211.24-33.91 289.35-30.48 86.14-81.42 154.24-155.74 208.16l-.28.2-.28-.2z"/>
    <path d="M260.06 332.228c0 23.045-1.663 46.622-5.069 55.82-6.237 16.844-18.783 41.983-24.491 48.452-5.708-6.469-18.254-31.608-24.491-48.452-3.406-9.198-5.07-32.775-5.07-55.82V230.772c0-23.045 1.664-46.622 5.07-55.82 6.237-16.844 18.783-41.983 24.491-48.452 5.708 6.469 18.254 31.608 24.491 48.452 3.406 9.198 5.07 32.775 5.07 55.82V281.5z" style="fill:#000;fill-rule:evenodd;stroke:#000;stroke-width:1px;stroke-linecap:butt;stroke-linejoin:miter;stroke-opacity:1;fill-opacity:.98823529"/>
    <path d="M419.96 33.21c9.07 219.45-36.25 385.95-189.45 497.1C146.04 469.02 94.36 390.9 66.52 296.34a557.24 557.24 0 0 1-5.87-21.54c-11.45-45.69-17.77-95.02-19.88-147.94-1.2-30.06-1.05-61.28.29-93.65h378.9m.92-.95H40.14l-.04.92c-4.82 116.66 6.28 211.36 33.93 289.52 30.51 86.24 81.51 154.41 155.91 208.39l.56.41.56-.41c74.4-53.98 125.4-122.15 155.91-208.39 27.65-78.16 38.75-172.86 33.93-289.52l-.04-.92z"/>
    <path style="fill:#000;fill-rule:evenodd;stroke:#000;stroke-width:1;stroke-linecap:butt;stroke-linejoin:miter;stroke-opacity:1;stroke-miterlimit:4;stroke-dasharray:none;fill-opacity:.98823529" d="M365.058 273.888c0 22.11-1.663 44.732-5.068 53.557-6.237 16.16-18.782 40.28-24.49 46.487-5.708-6.206-18.253-30.326-24.49-46.487-3.405-8.825-5.068-31.446-5.068-53.557V176.547c0-22.11 1.663-44.732 5.068-53.557 6.237-16.16 18.782-40.281 24.49-46.488 5.708 6.207 18.253 30.327 24.49 46.488 3.405 8.825 5.068 31.446 5.068 53.557v48.67z"/>
    <path d="M221.866 244.961c.025-6.059.274-9.726 2.19-12.447 2.214-3.144 3.315-4.944 2.156-5.708-2.251-1.484-3.564-3.437-3.597-5.225-.095-5.1 5.879-7.13 5.879-7.13v-7.243c0-3.22-16.291 3.843-16.291 25.208v98.168c0 21.365 16.29 28.427 16.29 25.208v-7.243s-5.973-2.03-5.878-7.13c.033-1.788 1.346-3.741 3.597-5.225 1.159-.764.058-2.564-2.156-5.708-1.916-2.721-2.165-6.388-2.19-12.447l-.154-36.539Z" style="fill:#ffe000;fill-rule:evenodd;stroke:#000;stroke-width:1px;stroke-linecap:butt;stroke-linejoin:miter;stroke-opacity:1;fill-opacity:.98823529"/>
    <path d="M155.059 273.886c0 22.11-1.664 44.731-5.07 53.557-6.236 16.16-18.781 40.28-24.489 46.487-5.708-6.207-18.253-30.327-24.49-46.487-3.405-8.826-5.069-31.447-5.069-53.557V176.545c0-22.111 1.664-44.732 5.07-53.558 6.236-16.16 18.781-40.28 24.489-46.487 5.708 6.207 18.253 30.327 24.49 46.487 3.405 8.826 5.068 31.447 5.068 53.557v48.671z" style="fill:#000;fill-rule:evenodd;stroke:#000;stroke-width:1;stroke-linecap:butt;stroke-linejoin:miter;stroke-miterlimit:4;stroke-dasharray:none;stroke-opacity:1;fill-opacity:.98823529"/>
    <path style="fill:#ffe000;fill-rule:evenodd;stroke:#000;stroke-width:1px;stroke-linecap:butt;stroke-linejoin:miter;stroke-opacity:1;fill-opacity:.98823529" d="M248.797 232.416c0-21.365-16.29-28.427-16.29-25.208v7.243s5.973 2.03 5.878 7.13c-.033 1.788-1.346 3.741-3.597 5.225-1.159.764-.058 2.564 2.156 5.708 1.916 2.721 2.165 6.388 2.19 12.447l.154 36.539-.154 36.539c-.025 6.059-.274 9.726-2.19 12.447-2.214 3.144-3.315 4.944-2.156 5.708 2.251 1.484 3.564 3.437 3.597 5.225.095 5.1-5.879 7.13-5.879 7.13v7.243c0 3.22 16.291-3.843 16.291-25.208V281.5z"/>
    <path style="fill:#ffe000;fill-rule:evenodd;stroke:#000;stroke-width:1;stroke-linecap:butt;stroke-linejoin:miter;stroke-opacity:1;stroke-miterlimit:4;stroke-dasharray:none;fill-opacity:.98823529" d="M326.866 190.16c.026-5.813.275-9.331 2.19-11.942 2.214-3.017 3.315-4.744 2.156-5.477-2.25-1.424-3.563-3.298-3.597-5.013-.094-4.893 5.879-6.84 5.879-6.84v-6.95c0-3.089-16.29 3.687-16.29 24.185v94.189c0 20.498 16.29 27.274 16.29 24.185v-6.95s-5.973-1.947-5.879-6.84c.034-1.716 1.346-3.59 3.597-5.013 1.16-.733.058-2.46-2.156-5.477-1.915-2.61-2.164-6.129-2.19-11.942l-.154-35.058zM353.796 178.123c0-20.498-16.29-27.274-16.29-24.185v6.95s5.973 1.947 5.879 6.84c-.034 1.715-1.346 3.59-3.597 5.013-1.16.733-.058 2.46 2.156 5.477 1.915 2.61 2.164 6.129 2.19 11.942l.154 35.057-.154 35.058c-.026 5.813-.275 9.331-2.19 11.942-2.214 3.017-3.315 4.744-2.156 5.477 2.25 1.423 3.563 3.297 3.597 5.013.094 4.893-5.879 6.84-5.879 6.84v6.95c0 3.089 16.29-3.687 16.29-24.185v-47.095z"/>
    <path d="M116.866 190.158c.026-5.814.275-9.332 2.19-11.942 2.214-3.017 3.315-4.744 2.156-5.477-2.25-1.424-3.563-3.298-3.597-5.014-.094-4.893 5.879-6.84 5.879-6.84v-6.95c0-3.088-16.29 3.688-16.29 24.186v94.188c0 20.498 16.29 27.274 16.29 24.186v-6.95s-5.973-1.947-5.879-6.84c.034-1.716 1.346-3.59 3.597-5.014 1.16-.733.058-2.46-2.156-5.477-1.915-2.61-2.164-6.128-2.19-11.942l-.154-35.057zM143.796 178.12c0-20.497-16.29-27.273-16.29-24.185v6.95s5.973 1.947 5.879 6.84c-.034 1.716-1.346 3.59-3.597 5.014-1.16.733-.058 2.46 2.156 5.477 1.915 2.61 2.164 6.128 2.19 11.942l.154 35.057-.154 35.057c-.026 5.814-.275 9.332-2.19 11.942-2.214 3.017-3.315 4.744-2.156 5.477 2.25 1.424 3.563 3.298 3.597 5.014.094 4.893-5.879 6.84-5.879 6.84v6.95c0 3.088 16.29-3.688 16.29-24.186v-47.094z" style="fill:#ffe000;fill-rule:evenodd;stroke:#000;stroke-width:1;stroke-linecap:butt;stroke-linejoin:miter;stroke-miterlimit:4;stroke-dasharray:none;stroke-opacity:1;fill-opacity:.98823529"/>
</svg>
