<svg xmlns="http://www.w3.org/2000/svg" width="400" height="500" viewBox="30.5 31.5 400 500" xml:space="preserve">
    <path style="fill:#e00e00" d="M230.45 531.13c-74.32-53.92-125.26-122.02-155.74-208.16-27.64-78.1-38.73-172.75-33.91-289.35l.02-.46h379.82l.02.46c4.81 116.6-6.28 211.24-33.91 289.35-30.48 86.14-81.42 154.24-155.74 208.16l-.28.2-.28-.2z"/>
    <path d="M419.96 33.21c9.07 219.45-36.25 385.95-189.45 497.1C146.04 469.02 94.36 390.9 66.52 296.34a557.24 557.24 0 0 1-5.87-21.54c-11.45-45.69-17.77-95.02-19.88-147.94-1.2-30.06-1.05-61.28.29-93.65h378.9m.92-.95H40.14l-.04.92c-4.82 116.66 6.28 211.36 33.93 289.52 30.51 86.24 81.51 154.41 155.91 208.39l.56.41.56-.41c74.4-53.98 125.4-122.15 155.91-208.39 27.65-78.16 38.75-172.86 33.93-289.52l-.04-.92z"/>
    <path d="M188.638 323.423c1.387-2.833 1.61-5.788 1.586-8.612-.04-4.624-4.833-10.703-11.548-10.686-6.06.016-9.693 4.188-11.111 7.643-1.153 2.805-1.189 7.34.093 9.516-2.368-1.38-4.659-1.712-7.542-1.39-4.278.477-10.322 4.447-10.322 12.312 0 7.865 6.044 11.835 10.322 12.312 2.883.322 5.174-.01 7.542-1.39-1.282 2.177-1.246 6.711-.093 9.517 1.418 3.454 5.052 7.626 11.111 7.642 6.715.017 11.508-6.062 11.548-10.686.024-2.824-.2-5.779-1.586-8.612l33.156-.077-.077 33.156c-2.833-1.387-5.788-1.61-8.612-1.586-4.624.04-10.703 4.833-10.686 11.548.016 6.06 4.188 9.693 7.642 11.112 2.806 1.152 7.34 1.188 9.517-.094-1.38 2.368-1.712 4.659-1.39 7.542.477 4.278 4.447 10.322 12.312 10.322 7.865 0 11.835-6.044 12.312-10.322.322-2.883-.01-5.174-1.39-7.542 2.177 1.282 6.71 1.246 9.517.094 3.454-1.42 7.626-5.053 7.642-11.112.017-6.715-6.062-11.508-10.686-11.548-2.824-.024-5.779.2-8.612 1.586l-.077-33.156 33.155.077c-1.386 2.833-1.609 5.788-1.585 8.612.04 4.624 4.833 10.703 11.548 10.686 6.06-.016 9.693-4.188 11.111-7.642 1.153-2.806 1.189-7.34-.093-9.517 2.368 1.38 4.659 1.712 7.542 1.39 4.278-.477 10.322-4.447 10.322-12.312 0-7.865-6.044-11.835-10.322-12.312-2.883-.322-5.174.01-7.542 1.39 1.282-2.177 1.246-6.71.093-9.516-1.418-3.455-5.052-7.627-11.111-7.643-6.715-.017-11.508 6.062-11.548 10.686-.024 2.824.2 5.779 1.585 8.612l-33.155.077.077-33.155c2.833 1.386 5.788 1.61 8.612 1.585 4.624-.04 10.703-4.833 10.686-11.548-.016-6.06-4.188-9.693-7.642-11.111-2.806-1.153-7.34-1.189-9.517.093 1.38-2.368 1.712-4.659 1.39-7.541-.477-4.28-4.447-10.323-12.312-10.323-7.865 0-11.835 6.044-12.312 10.323-.322 2.882.01 5.173 1.39 7.541-2.177-1.282-6.71-1.246-9.517-.093-3.454 1.418-7.626 5.052-7.642 11.111-.017 6.715 6.062 11.508 10.686 11.548 2.824.024 5.779-.2 8.612-1.585l.077 33.155zM283.639 166.423c1.386-2.833 1.609-5.788 1.585-8.612-.04-4.624-4.833-10.703-11.548-10.686-6.06.016-9.693 4.188-11.111 7.643-1.153 2.805-1.189 7.34.093 9.516-2.368-1.38-4.659-1.712-7.541-1.39-4.28.477-10.323 4.447-10.323 12.312 0 7.865 6.044 11.835 10.323 12.312 2.882.322 5.173-.01 7.541-1.39-1.282 2.177-1.246 6.711-.093 9.517 1.418 3.454 5.052 7.626 11.111 7.642 6.715.017 11.508-6.062 11.548-10.686.024-2.824-.2-5.779-1.585-8.612l33.155-.077-.077 33.156c-2.833-1.387-5.788-1.61-8.612-1.586-4.624.04-10.703 4.833-10.686 11.548.016 6.06 4.188 9.693 7.642 11.112 2.806 1.152 7.34 1.188 9.517-.094-1.38 2.368-1.712 4.659-1.39 7.542.477 4.278 4.447 10.322 12.312 10.322 7.865 0 11.835-6.044 12.312-10.322.322-2.883-.01-5.174-1.39-7.542 2.177 1.282 6.71 1.246 9.517.094 3.454-1.42 7.626-5.053 7.642-11.112.017-6.715-6.062-11.508-10.686-11.548-2.824-.024-5.779.2-8.612 1.586l-.077-33.156 33.156.077c-1.387 2.833-1.61 5.788-1.586 8.612.04 4.624 4.833 10.703 11.548 10.686 6.06-.016 9.693-4.188 11.111-7.642 1.153-2.806 1.189-7.34-.093-9.517 2.368 1.38 4.659 1.712 7.542 1.39 4.278-.477 10.322-4.447 10.322-12.312 0-7.865-6.044-11.835-10.322-12.312-2.883-.322-5.174.01-7.542 1.39 1.282-2.177 1.246-6.71.093-9.516-1.418-3.455-5.052-7.627-11.111-7.643-6.715-.017-11.508 6.062-11.548 10.686-.024 2.824.2 5.779 1.586 8.612l-33.156.077.077-33.155c2.833 1.386 5.788 1.61 8.612 1.585 4.624-.04 10.703-4.833 10.686-11.548-.016-6.06-4.188-9.693-7.642-11.111-2.806-1.153-7.34-1.189-9.517.093 1.38-2.368 1.712-4.659 1.39-7.541-.477-4.28-4.447-10.323-12.312-10.323-7.865 0-11.835 6.044-12.312 10.323-.322 2.882.01 5.173 1.39 7.541-2.177-1.281-6.71-1.246-9.517-.093-3.454 1.418-7.626 5.052-7.642 11.111-.017 6.715 6.062 11.508 10.686 11.548 2.824.024 5.779-.2 8.612-1.585l.077 33.155zM93.638 166.423c1.387-2.833 1.61-5.788 1.586-8.612-.04-4.624-4.833-10.703-11.548-10.686-6.06.016-9.693 4.188-11.111 7.643-1.153 2.805-1.189 7.34.093 9.516-2.368-1.38-4.659-1.712-7.541-1.39-4.28.477-10.323 4.447-10.323 12.312 0 7.865 6.044 11.835 10.323 12.312 2.882.322 5.173-.01 7.541-1.39-1.282 2.177-1.246 6.711-.093 9.517 1.418 3.454 5.052 7.626 11.111 7.642 6.715.017 11.508-6.062 11.548-10.686.024-2.824-.2-5.779-1.586-8.612l33.156-.077-.077 33.156c-2.833-1.387-5.788-1.61-8.612-1.586-4.624.04-10.703 4.833-10.686 11.548.016 6.06 4.188 9.693 7.642 11.112 2.806 1.152 7.34 1.188 9.517-.094-1.38 2.368-1.712 4.659-1.39 7.542.477 4.278 4.447 10.322 12.312 10.322 7.865 0 11.835-6.044 12.312-10.322.322-2.883-.01-5.174-1.39-7.542 2.177 1.282 6.71 1.246 9.517.094 3.454-1.42 7.626-5.053 7.642-11.112.017-6.715-6.062-11.508-10.686-11.548-2.824-.024-5.779.2-8.612 1.586l-.077-33.156 33.156.077c-1.387 2.833-1.61 5.788-1.586 8.612.04 4.624 4.833 10.703 11.548 10.686 6.06-.016 9.693-4.188 11.111-7.642 1.153-2.806 1.189-7.34-.093-9.517 2.368 1.38 4.659 1.712 7.542 1.39 4.278-.477 10.322-4.447 10.322-12.312 0-7.865-6.044-11.835-10.322-12.312-2.883-.322-5.174.01-7.542 1.39 1.282-2.177 1.246-6.71.093-9.516-1.418-3.455-5.052-7.627-11.111-7.643-6.715-.017-11.508 6.062-11.548 10.686-.024 2.824.2 5.779 1.586 8.612l-33.156.077.077-33.155c2.833 1.386 5.788 1.61 8.612 1.585 4.624-.04 10.703-4.833 10.686-11.548-.016-6.06-4.188-9.693-7.642-11.111-2.806-1.153-7.34-1.189-9.517.093 1.38-2.368 1.712-4.659 1.39-7.541-.477-4.28-4.447-10.323-12.312-10.323-7.865 0-11.835 6.044-12.312 10.323-.322 2.882.01 5.173 1.39 7.541-2.177-1.281-6.71-1.246-9.517-.093-3.454 1.418-7.626 5.052-7.642 11.111-.017 6.715 6.062 11.508 10.686 11.548 2.824.024 5.779-.2 8.612-1.585l.077 33.155z" style="fill:#ffe000;fill-opacity:1;fill-rule:evenodd;stroke:#000;stroke-width:1px;stroke-linecap:butt;stroke-linejoin:round;stroke-opacity:1"/>
</svg>
