<svg xmlns="http://www.w3.org/2000/svg" width="420" height="500" viewBox="30.5 31.5 420 500" xml:space="preserve">
    <path d="M440 32.7c2.09 102.46-3.38 187.49-43.93 296.59-28.05 75.48-74.21 144.77-155.57 201.59-81.36-56.82-127.52-126.11-155.57-201.59C44.38 220.19 38.91 135.16 41 32.7c133 .29 266 0 399 0z" style="fill-rule:evenodd;fill:#ffe000"/>
    <path d="M124.77 274.87C82.95 163.2 190.13 159.34 162.61 68.16c-15.08 26.13-39.07 36.03-56.45 39.8-20.71 4.49-43.98 5.06-63.27 30.56C51.9 244.43 85.78 425.66 240.5 530.88c39.59-27.54 73.39-60.3 101.18-98.47-23.3-80.63 81.59-141.32 23.88-225.7-13.16 98.15-132.05 85.27-131.79 162.95-63.05-88.19 81.79-111.29 25.32-239.58-13.09 94.74-122.43 60.99-134.32 144.79z" style="fill-rule:evenodd;fill:#e00e00"/>
    <path d="M341.68 432.41c-23.3-80.62 81.59-141.32 23.88-225.7-13.17 98.15-132.06 85.27-131.79 162.95-63.05-88.19 81.78-111.29 25.32-239.58-13.09 94.74-122.43 60.99-134.32 144.79-41.82-111.67 65.36-115.53 37.84-206.71-15.08 26.13-39.07 36.03-56.45 39.8-20.7 4.49-43.98 5.06-63.26 30.56" style="fill:none;stroke:#000"/>
    <path d="M440 32.7c2.09 102.46-3.38 187.49-43.93 296.59-28.05 75.48-74.21 144.77-155.57 201.59-81.36-56.82-127.52-126.11-155.57-201.59C44.38 220.19 38.91 135.16 41 32.7c133 .29 266 0 399 0z" style="fill:none;stroke:#000"/>
</svg>
