<svg xmlns="http://www.w3.org/2000/svg" width="412" height="533" viewBox="30.5 31.5 412 533" xml:space="preserve">
    <path fill="#32AC60" d="M237.267 558.404c-77.893-56.518-131.286-127.884-163.23-218.175-28.96-81.854-40.584-181.048-35.537-303.25l.02-.479H436.6l.021.479c5.047 122.201-6.577 221.395-35.536 303.25-31.944 90.291-85.337 161.657-163.23 218.175l-.293.214-.295-.214z"/>
    <path d="M436.12 37c9.5 230-38 404.5-198.56 521C77 441.5 29.5 267 39 37h397.12m.959-1H38.04l-.04.959c-5.05 122.266 6.583 221.521 35.564 303.437 31.979 90.39 85.43 161.834 163.408 218.413l.587.426.587-.426c77.978-56.58 131.429-128.023 163.408-218.413 28.981-81.916 40.614-181.171 35.564-303.437l-.039-.959z"/>
    <path fill="#FFF" d="m139.334 265.838 73.81-77.278 29.834 28.867-.345.359c-.478.498-48.135 50.112-78.505 79.556-25.799 25.011-37.61 28.706-64.787 32.889l-1.09.168 41.083-64.561z"/>
    <path d="m213.158 189.27 29.115 28.17s-47.777 49.765-78.493 79.543c-25.892 25.102-37.949 28.665-64.516 32.754l40.491-63.63 73.403-76.837m-.028-1.419-.695.728-73.402 76.837-.068.071-.053.083-40.491 63.63-1.184 1.861 2.18-.335c27.294-4.201 39.155-7.911 65.06-33.024 30.377-29.449 78.04-79.071 78.518-79.568l.69-.719-.716-.693-29.115-28.17-.724-.701z"/>
    <path fill="none" stroke="#000" stroke-miterlimit="10" d="M109.229 312.743c16.133-1.685 22.412-7.008 40.939-24.723s48.552-47.214 55.509-54.256c10.161-10.286 20.25-17.919 29.488-8.694"/>
    <path fill="#FFF" d="m212.701 188.142.127-.313c18.433-45.288 65.761-91.87 120.573-118.673l.313-.153.252.24c5.359 5.109 8.633 8.243 10.627 10.161l.315.26c.053.049 1.442 1.342 13.536 13.244l.248.244-.143.317c-25.039 55.641-70.085 104.433-114.76 124.304l-.308.137-30.78-29.768z"/>
    <path d="M333.621 69.605c5.64 5.376 8.969 8.566 10.929 10.451l.018-.025s1.298 1.2 13.525 13.234c-24.868 55.26-69.503 104.035-114.507 124.052l-30.295-29.298c18.57-45.623 65.893-91.794 120.33-118.414m.186-1.204-.625.306c-54.917 26.855-102.34 73.539-120.817 118.934l-.255.626.486.47 30.295 29.298.485.469.617-.274c44.781-19.918 89.926-68.808 115.013-124.555l.286-.635-.496-.488c-12.1-11.907-13.494-13.205-13.548-13.255l-.821-.759-.005.007c-2.45-2.353-5.845-5.598-10.11-9.663l-.505-.481z"/>
    <path fill="#FFF" stroke="#000" stroke-miterlimit="10" d="M358.458 78.952a27.654 27.654 0 0 0-.455-1.448c-.784-2.194-1.9-3.866-3.37-5.21-1.394-1.43-3.105-2.493-5.33-3.206a27.733 27.733 0 0 0-1.461-.406 440.226 440.226 0 0 0-6.701 7.447l10.093 9.766c.002 0 3.361-3.14 7.224-6.943z"/>
    <path fill="none" stroke="#000" stroke-miterlimit="10" d="m225.939 163.618 41.628 40.405M306.691 83.361l38.437 37.295"/>
    <path fill="#FFF" d="m185.348 345.827 73.81-77.278 29.834 28.867-.345.359c-.478.498-48.135 50.112-78.505 79.556-25.799 25.011-37.61 28.706-64.787 32.889l-1.09.168 41.083-64.561z"/>
    <path d="m259.172 269.259 29.115 28.17s-47.777 49.765-78.493 79.543c-25.892 25.102-37.949 28.665-64.516 32.754l40.491-63.63 73.403-76.837m-.028-1.419-.695.728-73.402 76.837-.068.071-.053.083-40.491 63.63-1.184 1.861 2.18-.335c27.294-4.201 39.155-7.911 65.06-33.024 30.377-29.449 78.04-79.07 78.518-79.568l.69-.719-.716-.693-29.115-28.17-.724-.701z"/>
    <path fill="none" stroke="#000" stroke-miterlimit="10" d="M155.243 392.733c16.133-1.685 22.412-7.008 40.939-24.723s48.552-47.214 55.509-54.256c10.161-10.286 20.25-17.919 29.488-8.694"/>
    <path fill="#FFF" d="m258.715 268.131.127-.313c18.433-45.288 65.761-91.87 120.573-118.673l.313-.153.252.24c5.359 5.109 8.633 8.243 10.627 10.161l.315.26c.053.049 1.442 1.342 13.536 13.244l.248.244-.143.317c-25.039 55.641-70.085 104.433-114.76 124.304l-.308.137-30.78-29.768z"/>
    <path d="M379.635 149.594c5.64 5.376 8.969 8.566 10.929 10.451l.018-.025s1.298 1.2 13.525 13.234c-24.868 55.26-69.503 104.035-114.507 124.052l-30.295-29.298c18.569-45.623 65.893-91.794 120.33-118.414m.186-1.204-.625.306c-54.917 26.855-102.34 73.539-120.817 118.934l-.255.626.486.47 30.295 29.298.485.469.617-.274c44.781-19.918 89.926-68.808 115.013-124.555l.286-.635-.496-.488c-12.1-11.907-13.494-13.205-13.548-13.255l-.821-.759-.005.007c-2.45-2.353-5.845-5.598-10.11-9.663l-.505-.481z"/>
    <path fill="#FFF" stroke="#000" stroke-miterlimit="10" d="M404.472 158.941a27.654 27.654 0 0 0-.455-1.448c-.784-2.194-1.9-3.866-3.37-5.21-1.394-1.43-3.105-2.493-5.33-3.206a27.733 27.733 0 0 0-1.461-.406 440.226 440.226 0 0 0-6.701 7.447l10.093 9.766c.002 0 3.36-3.14 7.224-6.943z"/>
    <path fill="none" stroke="#000" stroke-miterlimit="10" d="m271.952 243.607 41.628 40.405M352.704 163.35l38.438 37.295"/>
</svg>
