<svg xmlns="http://www.w3.org/2000/svg" width="400" height="500" viewBox="30.5 31.5 400 500" xml:space="preserve">
    <path style="fill:#0085ca" d="M230.44 531.14C156.12 477.22 105.18 409.12 74.7 322.98c-27.64-78.1-38.73-172.75-33.91-289.35l.02-.46h379.82l.02.46c4.81 116.6-6.28 211.24-33.91 289.35-30.48 86.14-81.42 154.24-155.74 208.16l-.28.2-.28-.2z"/>
    <path style="fill:#fff;fill-rule:evenodd" d="M64.09 289.29C52.5 247.42 45.98 204.57 42.15 159.5H83.5v32h42v-32h42v32h42v-32h42v32h42v-32h42v32h42v-32h41.35c-3.83 45.07-10.35 87.92-21.94 129.79H64.09z"/>
    <path d="M419.96 33.21c9.07 219.45-36.26 385.95-189.46 497.1C77.31 419.16 31.99 252.66 41.06 33.21h378.9m.92-.95H40.14l-.04.92c-4.82 116.66 6.28 211.36 33.93 289.52 30.51 86.24 81.51 154.41 155.91 208.39l.56.41.56-.41c74.4-53.98 125.4-122.15 155.91-208.39 27.65-78.16 38.75-172.86 33.93-289.52l-.04-.92z"/>
    <path style="fill:none;stroke:#000" d="M42.15 159.5H83.5v32h42v-32h42v32h42v-32h42v32h42v-32h42v32h42v-32h41.35m-21.94 129.79H64.09"/>
</svg>
