<svg xmlns="http://www.w3.org/2000/svg" width="400" height="500" viewBox="30.5 31.5 400 500" xml:space="preserve">
    <path style="fill:#0085ca" d="M230.45 531.13c-74.32-53.92-125.26-122.02-155.74-208.16-27.64-78.1-38.73-172.75-33.91-289.35l.02-.46h379.82l.02.46c4.81 116.6-6.28 211.24-33.91 289.35-30.48 86.14-81.42 154.24-155.74 208.16l-.28.2z"/>
    <path d="M419.96 33.21c9.07 219.45-36.25 385.95-189.45 497.1C146.04 469.02 94.36 390.9 66.52 296.34a557.24 557.24 0 0 1-5.87-21.54c-11.45-45.69-17.77-95.02-19.88-147.94-1.2-30.06-1.05-61.28.29-93.65h378.9m.92-.95H40.14l-.04.92c-4.82 116.66 6.28 211.36 33.93 289.52 30.51 86.24 81.51 154.41 155.91 208.39l.56.41.56-.41c74.4-53.98 125.4-122.15 155.91-208.39 27.65-78.16 38.75-172.86 33.93-289.52l-.04-.92z"/>
    <path d="M174.72 102.186c-15.556 11.015-23.501 14.742-32.195 13.997-8.29-.71-17.646-19.455-34.025-32.683 3.788 30.015 4.58 54.354 6.889 80.361 1.43 16.1 3.933 31.69 3.124 40.311 6.687.711 26.302 33.742 38.969 66.52 7.832 17.175 12.523 29.101 16.687 43.29 2.18 7.57 7.044-.495 10.961 8.637 3.995 9.313.334 32.095-8.975 55.114-2.55 6.305-5.577 12.767-9.2 19.16 6.084-2.348 11.27-4.9 17.565-7.962 1.548 4.765 4.614 9.606 11.196 17.022l8.684-44.806c4.158-21.454 6.043-28.289-1.535-43.082-4.736-9.248 3.66-11.58-1.297-17.29-3.545-4.086-4.927-4.956-7.723-8.791-23.018-31.581-26.885-79.99-25.277-107.948.488-8.473 5.564-15.518 14.134-16.076-10.285-14.953-14.061-44.232-7.981-65.774z" style="fill:#fff;stroke:#000;stroke-linecap:round;stroke-linejoin:round;stroke-opacity:1"/>
    <path d="M139.26 153.269c-3.157 25.695 1.693 52.163 8.025 65.467 14.211 29.858 26.942 61.933 42.66 93.555 4.382 8.818 6.022 13.144 6.546 24.497" style="fill:none;fill-rule:evenodd;stroke:#000;stroke-width:1px;stroke-linecap:round;stroke-linejoin:miter;stroke-opacity:1"/>
    <path style="fill:#fff;stroke:#000;stroke-linecap:round;stroke-linejoin:round;stroke-opacity:1" d="M286.28 102.186c15.556 11.015 23.501 14.742 32.195 13.997 8.29-.71 17.646-19.455 34.025-32.683-3.788 30.015-4.58 54.354-6.889 80.361-1.43 16.1-3.933 31.69-3.124 40.311-6.687.711-26.302 33.742-38.969 66.52-7.832 17.175-12.523 29.101-16.687 43.29-2.18 7.57-7.044-.495-10.961 8.637-3.995 9.313-.334 32.095 8.975 55.114 2.55 6.305 5.577 12.767 9.2 19.16-6.084-2.348-11.27-4.9-17.565-7.962-1.548 4.765-4.614 9.606-11.196 17.022l-8.684-44.806c-4.158-21.454-6.043-28.289 1.535-43.082 4.736-9.248-3.66-11.58 1.297-17.29 3.545-4.086 4.927-4.956 7.723-8.791 23.018-31.581 26.885-79.99 25.277-107.948-.488-8.473-5.564-15.518-14.134-16.076 10.285-14.953 14.061-44.232 7.981-65.774z"/>
    <path style="fill:none;fill-rule:evenodd;stroke:#000;stroke-width:1px;stroke-linecap:round;stroke-linejoin:miter;stroke-opacity:1" d="M321.74 153.269c3.157 25.695-1.693 52.163-8.025 65.467-14.211 29.858-26.942 61.933-42.66 93.555-4.382 8.818-6.022 13.144-6.546 24.497"/>
</svg>
