<svg xmlns="http://www.w3.org/2000/svg" width="400" height="500" viewBox="30.5 31.5 400 500" xml:space="preserve">
    <path d="M230.44 531.14C156.12 477.22 105.18 409.12 74.7 322.98c-27.64-78.1-38.73-172.75-33.91-289.35l.02-.46h379.82l.02.46c4.81 116.6-6.28 211.24-33.91 289.35-30.48 86.14-81.42 154.24-155.74 208.16l-.28.2-.28-.2z" fill="#0085ca"/>
    <path d="M40.37 128.35c34.41-41.56 71.7-56.69 117.98-59.06 24.66-1.26 69.66 7.61 96.71 27.37 26.05 19.03 41.69 49.64 42.91 76.74 1.45 32.31-5.54 73.65-67.48 69.7-31.32-3.42-60.43 13.93-60.16 53.8.35 53.35 40.39 99.14 109.13 104.77 26.02 2.13 68.77-9.27 79.72-17.43 25.61-46.92 54.97-125.64 60.81-242.43-13.22 68.32-58.65 156.77-120.71 167.94-36.48 6.57-82.1-12.92-68.79-66.65 15.19-43.49-18.36-64.67-60.16-64.91-54.41-.31-99.85 79.8-92.84 152.55-24.01-64.66-34.42-132.6-37.12-202.39Z" style="fill-rule:evenodd;fill:#fff"/>
    <path d="M419.96 33.21c9.07 219.45-36.26 385.95-189.46 497.1C77.31 419.16 31.99 252.66 41.06 33.21h378.9m.92-.95H40.14l-.04.92c-4.82 116.66 6.28 211.36 33.93 289.52 30.51 86.24 81.51 154.41 155.91 208.39l.56.41.56-.41c74.4-53.98 125.4-122.15 155.91-208.39 27.65-78.16 38.75-172.86 33.93-289.52l-.04-.92z"/>
    <path d="M40.47 128.25c34.41-41.56 71.6-56.6 117.89-58.96 24.66-1.26 69.66 7.61 96.71 27.37 26.05 19.03 41.69 49.64 42.91 76.74 1.45 32.31-5.54 73.65-67.48 69.7-31.32-3.42-60.43 13.93-60.16 53.8.35 53.35 40.81 99 109.55 104.64 26.02 2.13 68.77-9.27 79.72-17.43m60.32-242.24c-13.22 68.32-58.58 156.71-120.65 167.88-36.48 6.57-82.1-12.92-68.79-66.65 15.19-43.49-18.36-64.67-60.16-64.91-54.41-.31-99.85 79.8-92.84 152.55" style="fill:none;stroke-linecap:round;stroke-miterlimit:4;stroke:#000"/>
    <path d="M419.43 141.82c.11-.54.16-.92.19-1.52l.18 1.41z" style="fill-rule:evenodd;fill:#000"/>
</svg>
