<svg xmlns="http://www.w3.org/2000/svg" xml:space="preserve" viewBox="30.5 31.5 420 500" height="500" width="420">
    <path style="fill-rule:evenodd;fill:#e00e00" d="M440 32.7c2.09 102.46-3.38 187.49-43.93 296.59-28.05 75.48-74.21 144.77-155.57 201.59-81.36-56.82-127.52-126.11-155.57-201.59C44.38 220.19 38.91 135.16 41 32.7c133 .29 266 0 399 0z"/>
    <path style="fill:none;stroke:#000" d="M440 32.7c2.09 102.46-3.38 187.49-43.93 296.59-28.05 75.48-74.21 144.77-155.57 201.59-81.36-56.82-127.52-126.11-155.57-201.59C44.38 220.19 38.91 135.16 41 32.7c133 .29 266 0 399 0z"/>
    <path style="fill:#fff;stroke:#000;stroke-linecap:round;stroke-linejoin:round;stroke-opacity:1" d="m196.661 349.561 21.102-7.627 4.195-24.534c-15.618-4.943-43.845-30.622-43.845-30.622-14.266-13.227-29.054-49.548-24.42-71.358l8.464-39.833s-9.177-5.055-12.446-8.993c-3.687-4.443-7.385-15.668-7.385-15.668l-12.457-4.83c15.607-22.7 39.564-29.386 53.77-13.984 9.883 10.713 11.423 22.526 20.36 34.242 6.546 8.583 14.38 14.15 37.734 25.123 13.354 6.274 42.377 27.461 58.3 50.93 17.53 25.838 31.24 57.78 42.56 89.993l-17.288 8.517-31.398-26.949-20.34 5.34-8.008 38.77-21.101 5.594 3.305-6.102-8.517-.381 7.277-8.708-8.358-1.78 16.843-6.546-6.228-16.017c-11.759 10.663-21.311 26.5-29.619 39.28l-19.068 5.72 5.72-7.246-12.584-3.56 8.771-5.084z"/>
    <path style="fill:#000;fill-opacity:1;stroke:none" d="M159.55 137.61c-2.6-.427-3.86 4.58-6.99 1.049-.623-6.22 5.512-7.508 8.643-6.324 4.448 1.68 2.3 5.925-1.652 5.275z"/>
</svg>
