<svg xmlns="http://www.w3.org/2000/svg" width="400" height="500" viewBox="30.5 31.5 400 500" xml:space="preserve">
    <path style="fill:#32ac60;fill-opacity:1" d="M230.44 531.14C156.12 477.22 105.18 409.12 74.7 322.98c-27.64-78.1-38.73-172.75-33.91-289.35l.02-.46h379.82l.02.46c4.81 116.6-6.28 211.24-33.91 289.35-30.48 86.14-81.42 154.24-155.74 208.16l-.28.2-.28-.2z"/>
    <path d="M419.96 33.21c9.07 219.45-36.26 385.95-189.46 497.1C77.31 419.16 31.99 252.66 41.06 33.21h378.9m.92-.95H40.14l-.04.92c-4.82 116.66 6.28 211.36 33.93 289.52 30.51 86.24 81.51 154.41 155.91 208.39l.56.41.56-.41c74.4-53.98 125.4-122.15 155.91-208.39 27.65-78.16 38.75-172.86 33.93-289.52l-.04-.92z"/>
    <path d="M93.93 69.068c-3.912 1.865-9.153 2.404-12.817 5.35-6.514 5.24-5.592 9.362-9.32 14.131-3.33 4.26-5.867 6.77-7.394 12.44-1.161 4.31.35 9.78.717 14.102.256 3.013-2.213 7.734-1.133 12.124 1.347 5.48 5.58 9.182 6.033 15.213.39 5.219 5.243 4.696 9.535 9.367 5.452 5.933 9.325 1.416 14.363 7.956 3.168 4.113 4.86 2.335 8.66 6.075 3.49 3.436 11.622 3.409 17.53 6.435 22.496 11.525 35.944 19.003 63.956 36.495 22.66 14.149 74.389 57.831 117.36 97.441 9.008 8.304 17.67 16.389 25.521 24.065 5.177 5.061 1.59 8.64 7.466 13.916 3.853 3.458 22.314-15.597 19.33-19.3-4.162-5.167-8.821-3.767-12.763-7.659a4335.036 4335.036 0 0 1-24.15-24.026c-34.649-34.747-71.31-72.75-97.863-103.097-16.9-19.313-30.33-36.68-37.004-58.43-1.897-6.18-6.29-11.076-9.539-14.602-2.28-2.475-2.125-7.343-4.547-11.53-2.884-4.988-7.715-6.779-10.337-12.74-2.015-4.58-4.687-8.9-9.42-11.62-3.021-1.735-5.753-6.156-9.167-7.56-4.035-1.658-9.598-.546-13.715-3.335-8.247-5.584-10.75-7.363-17.357-6.865-7.418.56-8.531 3.075-13.944 5.654z" style="fill:#fff;stroke:#000;stroke-width:1;stroke-opacity:1"/>
</svg>
