<svg xmlns="http://www.w3.org/2000/svg" width="400" height="500" viewBox="30.5 31.5 400 500" xml:space="preserve">
    <path d="M230.44 531.14C156.12 477.22 105.18 409.12 74.7 322.98c-27.64-78.1-38.73-172.75-33.91-289.35l.02-.46h379.82l.02.46c4.81 116.6-6.28 211.24-33.91 289.35-30.48 86.14-81.42 154.24-155.74 208.16l-.28.2-.28-.2z" fill="#0085ca"/>
    <path d="M419.96 33.21c9.07 219.45-36.26 385.95-189.46 497.1C77.31 419.16 31.99 252.66 41.06 33.21h378.9m.92-.95H40.14l-.04.92c-4.82 116.66 6.28 211.36 33.93 289.52 30.51 86.24 81.51 154.41 155.91 208.39l.56.41.56-.41c74.4-53.98 125.4-122.15 155.91-208.39 27.65-78.16 38.75-172.86 33.93-289.52l-.04-.92z"/>
    <path d="M333.5 167.82c0 33.36-18.37 66.45-52.04 86.47-5.76 3.43-11.96 6.52-18.62 9.07-7.98 3.05-8.46 8.95-13.66 10.87-5.02 1.85-9.22-5.88-9.7-14.17-.32-5.62-.96-11.19 9.18-13.96 39.41-10.76 64.84-45.38 64.84-78.28 0-50.78-36.64-86.32-83-86.32s-83 35.54-83 86.32c0 32.89 25.43 67.52 64.84 78.28 10.13 2.77 9.5 8.34 9.18 13.96-.48 8.29-4.68 16.01-9.7 14.17-5.2-1.91-5.68-7.81-13.66-10.87-6.66-2.55-12.86-5.64-18.62-9.07-33.67-20.01-52.04-53.1-52.04-86.47 0-51.58 35.66-106.32 103-106.32s103 54.74 103 106.32z" style="fill-rule:evenodd;fill:#ffe000;stroke:#000"/>
    <path d="M309.44 371.87c0 25.57-14.08 50.93-39.88 66.27-4.42 2.63-9.16 5-14.27 6.95-6.11 2.34-6.48 6.86-10.47 8.33-3.84 1.42-7.07-4.5-7.43-10.86-.25-4.31-.73-8.58 7.03-10.7 30.2-8.25 49.69-34.79 49.69-59.99 0-38.92-28.08-66.16-63.61-66.16s-63.61 27.24-63.61 66.16c0 25.21 19.49 51.74 49.69 59.99 7.77 2.12 7.28 6.39 7.03 10.7-.37 6.35-3.59 12.27-7.43 10.86-3.98-1.47-4.35-5.99-10.47-8.33-5.11-1.95-9.85-4.32-14.27-6.95-25.8-15.34-39.88-40.7-39.88-66.27 0-39.53 27.33-81.48 78.94-81.48s78.94 41.95 78.94 81.48z" style="fill-rule:evenodd;fill:#ffe000;stroke-miterlimit:4;stroke:#000"/>
</svg>
