<svg xmlns="http://www.w3.org/2000/svg" width="400" height="500" viewBox="30.5 31.5 400 500" xml:space="preserve">
    <path d="M230.55 531.13c74.32-53.92 125.26-122.02 155.74-208.16 27.64-78.1 38.73-172.75 33.91-289.35l-.02-.46H40.36l-.02.46c-4.81 116.6 6.28 211.24 33.91 289.35 30.48 86.14 81.42 154.24 155.74 208.16l.28.2.28-.2z" fill="#ffe000"/>
    <path d="M41.04 33.21c-9.07 219.45 36.25 385.95 189.45 497.1 84.47-61.29 136.15-139.41 163.99-233.97a557.24 557.24 0 0 0 5.87-21.54c11.45-45.69 17.77-95.02 19.88-147.94 1.2-30.06 1.05-61.28-.29-93.65H41.04m-.92-.95H420.86l.04.92c4.82 116.66-6.28 211.36-33.93 289.52-30.51 86.24-81.51 154.41-155.91 208.39l-.56.41-.56-.41c-74.4-53.98-125.4-122.15-155.91-208.39C46.38 244.54 35.28 149.84 40.1 33.18l.04-.92z"/>
    <path d="M311.7 406.49c-2.13 7.56-8.97 14.71-15.7 17.05-41.2-55.11-80.8-81.72-109.49-108.91-17.41 14.64-32.74 36.02-48.5 55.84-.95 1.19-3.26-.82-2.83-1.8 9.53-21.71 18.59-47.84 37.44-66.39.3-2.4-.59-5.57.9-7.2l7.98-8.75c1.07-1.18 5.4-.86 8.11-1.29 19.44-20.98 47.43-34.49 71.28-41.43 1.95-.57 2.3 3 1.29 3.73-24.32 17.62-47.15 31.92-60.21 51.85 34.02 27.38 42.34 56.09 109.75 107.3zM396.11 215.39c-2.13 7.56-8.97 14.71-15.7 17.05-41.2-55.11-80.8-81.72-109.49-108.91-17.41 14.64-32.74 36.02-48.5 55.84-.95 1.19-3.26-.82-2.83-1.8 9.53-21.71 18.59-47.84 37.44-66.39.3-2.4-.59-5.57.9-7.2l7.98-8.75c1.07-1.18 5.4-.86 8.11-1.29 19.44-20.98 47.43-34.49 71.28-41.43 1.95-.57 2.3 3 1.29 3.73-24.32 17.62-47.15 31.92-60.21 51.85 34.02 27.38 42.34 56.09 109.75 107.3z"/>
    <path d="M238.47 213.6c-2.13 7.56-8.97 14.71-15.7 17.05-41.2-55.11-80.8-81.72-109.49-108.91-17.41 14.64-32.74 36.02-48.5 55.84-.95 1.19-3.26-.82-2.83-1.8 9.53-21.71 18.59-47.84 37.44-66.39.3-2.4-.59-5.57.9-7.2l7.98-8.75c1.07-1.18 5.4-.86 8.11-1.29 19.44-20.98 47.43-34.49 71.28-41.43 1.95-.57 2.3 3 1.29 3.73-24.32 17.62-47.15 31.92-60.21 51.85 34.02 27.38 42.34 56.09 109.75 107.3z"/>
</svg>
