<svg xmlns="http://www.w3.org/2000/svg" version="1" width="400" height="500">
    <path d="M2.91 1.45h393.73v301.14c0 108.73-88.14 196.86-196.86 196.86-108.72 0-196.87-88.14-196.87-196.86V1.45z" style="fill-rule:nonzero;fill:#e00e00"/>
    <path d="M2.91 1.45h393.73v301.14c0 108.73-88.14 196.86-196.86 196.86-108.72 0-196.87-88.14-196.87-196.86V1.45z" style="fill:none;stroke:#000"/>
    <path d="M132.72 73.74c-6.96.06-19 6.78-22.14 19.5-1.07 8.8 1.96 11.52 5.99 14.84 2.83 2.34 9.08 5.9 4 9.4-3.74.56-4.04-.11-6.68-6.46-2.61-6.26-11.54-11.37-17.96-9.96-14.69 3.24-23.93 11.98-24.32 19.91-.27 5.55 5.69 13.69 14.53 20.73 5.38 4.29 12.44 3.12 17.14.49 3.57-1.99 5.8-3 7.43.07.02 5.49-5.38 2.74-8.73 4.31-11.32 5.32-13.16 11.2-13.88 19.1-.54 5.95 3.14 15.47 5.55 17.47 3.51 2.92 13.89 4.42 20.24 3.26 12.12-2.2 17.62-10.73 16.65-17.14l-1.31-8.65c-.5-3.32 1.66-4.72 3.49-5.06 1.84.34 3.99 1.74 3.49 5.06l-1.31 8.65c-.97 6.41 4.53 14.94 16.65 17.14 6.35 1.15 16.73-.35 20.24-3.26 2.41-2 6.09-11.52 5.55-17.47-.72-7.9-2.55-13.78-13.88-19.1-3.35-1.57-8.76 1.18-8.72-4.31 1.63-3.07 3.87-2.06 7.44-.07 4.7 2.63 11.76 3.8 17.14-.49 8.84-7.04 14.8-15.19 14.53-20.73-.39-7.93-9.64-16.68-24.32-19.91-6.42-1.42-15.34 3.69-17.96 9.96-2.65 6.35-2.94 7.02-6.69 6.46-5.09-3.5 1.15-7.06 3.99-9.4 4.03-3.32 7.06-6.04 5.99-14.84-3.13-12.72-15.17-19.44-22.14-19.5M266.82 73.74c-6.96.06-19 6.78-22.14 19.5-1.07 8.8 1.96 11.52 5.99 14.84 2.83 2.34 9.08 5.9 4 9.4-3.74.56-4.04-.11-6.68-6.46-2.61-6.26-11.54-11.37-17.96-9.96-14.69 3.24-23.93 11.98-24.32 19.91-.27 5.55 5.69 13.69 14.53 20.73 5.38 4.29 12.44 3.12 17.14.49 3.57-1.99 5.8-3 7.43.07.02 5.49-5.38 2.74-8.73 4.31-11.32 5.32-13.16 11.2-13.88 19.1-.54 5.95 3.14 15.47 5.55 17.47 3.51 2.92 13.89 4.42 20.24 3.26 12.12-2.2 17.62-10.73 16.65-17.14l-1.31-8.65c-.5-3.32 1.66-4.72 3.49-5.06 1.84.34 3.99 1.74 3.49 5.06l-1.31 8.65c-.97 6.41 4.53 14.94 16.65 17.14 6.35 1.15 16.73-.35 20.24-3.26 2.41-2 6.09-11.52 5.55-17.47-.72-7.9-2.55-13.78-13.88-19.1-3.35-1.57-8.76 1.18-8.72-4.31 1.63-3.07 3.87-2.06 7.44-.07 4.7 2.63 11.76 3.8 17.14-.49 8.84-7.04 14.8-15.19 14.53-20.73-.39-7.93-9.64-16.68-24.32-19.91-6.42-1.42-15.34 3.69-17.96 9.96-2.65 6.35-2.94 7.02-6.69 6.46-5.09-3.5 1.15-7.06 3.99-9.4 4.03-3.32 7.06-6.04 5.99-14.84-3.13-12.72-15.17-19.44-22.14-19.5M199.78 269.97c-6.96.06-19 6.78-22.14 19.5-1.07 8.8 1.96 11.52 5.99 14.84 2.83 2.34 9.08 5.9 4 9.4-3.74.56-4.04-.11-6.68-6.46-2.61-6.26-11.54-11.37-17.96-9.96-14.69 3.24-23.93 11.98-24.32 19.91-.27 5.55 5.69 13.69 14.53 20.73 5.38 4.29 12.44 3.12 17.14.49 3.57-1.99 5.8-3 7.43.07.02 5.49-5.38 2.74-8.73 4.31-11.32 5.32-13.16 11.2-13.88 19.1-.54 5.95 3.14 15.47 5.55 17.47 3.51 2.92 13.89 4.42 20.24 3.26 12.12-2.2 17.62-10.73 16.65-17.14l-1.31-8.65c-.5-3.32 1.66-4.72 3.49-5.06 1.84.34 3.99 1.74 3.49 5.06l-1.31 8.65c-.97 6.41 4.53 14.94 16.65 17.14 6.35 1.15 16.73-.35 20.24-3.26 2.41-2 6.09-11.52 5.55-17.47-.72-7.9-2.55-13.78-13.88-19.1-3.35-1.57-8.76 1.18-8.72-4.31 1.63-3.07 3.87-2.06 7.44-.07 4.7 2.63 11.76 3.8 17.14-.49 8.84-7.04 14.8-15.19 14.53-20.73-.39-7.93-9.64-16.68-24.32-19.91-6.42-1.42-15.34 3.69-17.96 9.96-2.65 6.35-2.94 7.02-6.69 6.46-5.09-3.5 1.15-7.06 3.99-9.4 4.03-3.32 7.06-6.04 5.99-14.84-3.13-12.72-15.17-19.44-22.14-19.5M302.92 194.42c-6.96.06-19 6.78-22.14 19.5-1.07 8.8 1.96 11.52 5.99 14.84 2.83 2.34 9.08 5.9 4 9.4-3.74.56-4.04-.11-6.68-6.46-2.61-6.26-11.54-11.37-17.96-9.96-14.69 3.24-23.93 11.98-24.32 19.91-.27 5.55 5.69 13.69 14.53 20.73 5.38 4.29 12.44 3.12 17.14.49 3.57-1.99 5.8-3 7.43.07.02 5.49-5.38 2.74-8.73 4.31-11.32 5.32-13.16 11.2-13.88 19.1-.54 5.95 3.14 15.47 5.55 17.47 3.51 2.92 13.89 4.42 20.24 3.26 12.12-2.2 17.62-10.73 16.65-17.14l-1.31-8.65c-.5-3.32 1.66-4.72 3.49-5.06 1.84.34 3.99 1.74 3.49 5.06l-1.31 8.65c-.97 6.41 4.53 14.94 16.65 17.14 6.35 1.15 16.73-.35 20.24-3.26 2.41-2 6.09-11.52 5.55-17.47-.72-7.9-2.55-13.78-13.88-19.1-3.35-1.57-8.76 1.18-8.72-4.31 1.63-3.07 3.87-2.06 7.44-.07 4.7 2.63 11.76 3.8 17.14-.49 8.84-7.04 14.8-15.19 14.53-20.73-.39-7.93-9.64-16.68-24.32-19.91-6.42-1.42-15.34 3.69-17.96 9.96-2.65 6.35-2.94 7.02-6.69 6.46-5.09-3.5 1.15-7.06 3.99-9.4 4.03-3.32 7.06-6.04 5.99-14.84-3.13-12.72-15.17-19.44-22.14-19.5M96.64 194.42c-6.96.06-19 6.78-22.14 19.5-1.07 8.8 1.96 11.52 5.99 14.84 2.83 2.34 9.08 5.9 4 9.4-3.74.56-4.04-.11-6.68-6.46-2.61-6.26-11.54-11.37-17.96-9.96-14.69 3.24-23.93 11.98-24.32 19.91-.27 5.55 5.69 13.69 14.53 20.73 5.38 4.29 12.44 3.12 17.14.49 3.57-1.99 5.8-3 7.43.07.02 5.49-5.38 2.74-8.73 4.31-11.32 5.32-13.16 11.2-13.88 19.1-.54 5.95 3.14 15.47 5.55 17.47 3.51 2.92 13.89 4.42 20.24 3.26 12.12-2.2 17.62-10.73 16.65-17.14l-1.31-8.65c-.5-3.32 1.66-4.72 3.49-5.06 1.84.34 3.99 1.74 3.49 5.06l-1.31 8.65c-.97 6.41 4.53 14.94 16.65 17.14 6.35 1.15 16.73-.35 20.24-3.26 2.41-2 6.09-11.52 5.55-17.47-.72-7.9-2.55-13.78-13.88-19.1-3.35-1.57-8.76 1.18-8.72-4.31 1.63-3.07 3.87-2.06 7.44-.07 4.7 2.63 11.76 3.8 17.14-.49 8.84-7.04 14.8-15.19 14.53-20.73-.39-7.93-9.64-16.68-24.32-19.91-6.42-1.42-15.34 3.69-17.96 9.96-2.65 6.35-2.94 7.02-6.69 6.46-5.09-3.5 1.15-7.06 3.99-9.4 4.03-3.32 7.06-6.04 5.99-14.84-3.13-12.72-15.17-19.44-22.14-19.5" style="fill:#fff;stroke:#000"/>
    <path fill="#fff" d="M203.39 222.91h-7.22v50.04h7.22z"/>
    <path fill="#fff" d="m205.576 216.07-2.543 6.758 42.782 16.098 2.543-6.757zM194.142 216.071l2.543 6.758-42.782 16.097-2.543-6.757zM199.89 211.614l5.67 4.469 28.294-35.9-5.67-4.47z"/>
    <path fill="#fff" d="m199.77 211.63-5.671 4.47-28.294-35.9 5.67-4.47z"/>
    <path d="M224.51 202.74c2.58-6.16 7.69-9.86 15-11.94 7.29-2.08 20.05-.34 29.37 6.71-4.01 10.98-13.79 19.36-21.04 21.56-7.27 2.21-13.57 1.88-19.08-1.91-2.47-1.69-3.23-2.58-4.4-6.54-1.17-3.96-1-5.12.15-7.88z" style="fill:#fff;stroke:#000"/>
    <path fill="#fff" d="m201.694 211.46 1.045 8.183 27.982-3.572-1.044-8.184z"/>
    <path d="M210.61 248.97c-1.78 6.59.02 12.79 4.6 19.06 4.57 6.25 15.93 12.86 27.86 13.02 3.65-11.38 1.01-24.29-3.45-30.62-4.47-6.35-9.76-10.03-16.56-10.44-3.05-.18-4.22.06-7.64 2.52s-4.01 3.5-4.81 6.46z" style="fill:#fff;stroke:#000"/>
    <path fill="#fff" d="m204.276 217.824-6.926 4.481 15.324 23.685 6.927-4.482z"/>
    <path d="M188.95 248.97c1.78 6.59-.02 12.79-4.6 19.06-4.57 6.25-15.93 12.86-27.86 13.02-3.65-11.38-1.01-24.29 3.45-30.62 4.47-6.35 9.76-10.03 16.56-10.44 3.05-.18 4.22.06 7.64 2.52s4.01 3.5 4.81 6.46z" style="fill:#fff;stroke:#000"/>
    <path fill="#fff" d="m195.279 217.822 6.926 4.482-15.324 23.684-6.927-4.481z"/>
    <path d="M192.26 193.13c-5.18-4.32-7.29-10.41-7.22-18.2.07-7.76 5.34-19.81 14.74-26.93 9.4 7.12 14.67 19.16 14.74 26.93.07 7.79-2.04 13.88-7.22 18.2-2.32 1.93-3.39 2.43-7.52 2.43-4.13 0-5.2-.5-7.52-2.43z" style="fill:#fff;stroke:#000"/>
    <path fill="#fff" d="M203.91 194.42h-8.25v28.21h8.25z"/>
    <path d="M212.07 186.97c-8.13-4.22-16.47-4.5-24.58 0M169 242.23c4.2 8.31 10.91 13.48 20.28 14.58M230.56 242.23c-4.2 8.31-10.91 13.48-20.28 14.58M235.09 220.31c1.76-9.02-.34-17.12-6.97-23.65" style="fill:none;stroke-miterlimit:4;stroke:#000"/>
    <path d="M175.05 202.74c-2.58-6.16-7.69-9.86-15-11.94-7.29-2.08-20.05-.34-29.37 6.71 4.01 10.98 13.79 19.36 21.04 21.56 7.27 2.21 13.57 1.88 19.08-1.91 2.47-1.69 3.23-2.58 4.4-6.54 1.17-3.96 1-5.12-.15-7.88z" style="fill:#fff;stroke:#000"/>
    <path fill="#fff" d="m197.852 211.47-1.045 8.183-27.983-3.573 1.045-8.183z"/>
    <path d="M164.47 220.31c-1.76-9.02.34-17.12 6.97-23.65m95.38-66.29v-17.63m0 17.63v-17.63M266.82 130.37v-17.63" style="fill:none;stroke-miterlimit:4;stroke:#000"/>
    <path d="M263.71 109.76a3.1 3.06 0 0 0 6.2 0 3.1 3.06 0 1 0-6.2 0z" style="fill:none;stroke-miterlimit:4;stroke-width:1.03;stroke:#000"/>
    <path d="m269.9 132.53 16.91-4.97" style="fill:none;stroke-miterlimit:4;stroke:#000"/>
    <path d="M288.81 123.75a3.1 3.06 73.61 1 0 1.75 5.95 3.1 3.06 73.61 0 0-1.75-5.95z" style="fill:none;stroke-miterlimit:4;stroke-width:1.03;stroke:#000"/>
    <path d="m263.73 132.53-16.91-4.97" style="fill:none;stroke-miterlimit:4;stroke:#000"/>
    <path d="M244.83 123.75a3.06 3.1 16.39 0 1-1.75 5.95 3.06 3.1 16.39 0 1 1.75-5.95z" style="fill:none;stroke-miterlimit:4;stroke-width:1.03;stroke:#000"/>
    <path d="m268.88 137.44 10.64 14.06" style="fill:none;stroke-miterlimit:4;stroke:#000"/>
    <path d="M283.79 152a3.06 3.1 52.89 1 0-4.94 3.74 3.06 3.1 52.89 0 0 4.94-3.74z" style="fill:none;stroke-miterlimit:4;stroke-width:1.03;stroke:#000"/>
    <path d="m264.76 137.44-10.64 14.06" style="fill:none;stroke-miterlimit:4;stroke:#000"/>
    <path d="M261.65 134.6a5.16 5.1 0 1 0 10.32 0 5.16 5.1 0 1 0-10.32 0z" style="fill:#fff;stroke-width:1.03;stroke:#000"/>
    <path d="M249.85 152a3.1 3.06 37.11 1 1 4.94 3.74 3.1 3.06 37.11 0 1-4.94-3.74z" style="fill:none;stroke-miterlimit:4;stroke-width:1.03;stroke:#000"/>
    <path d="M132.74 130.37v-17.63" style="fill:none;stroke-miterlimit:4;stroke:#000"/>
    <path d="M129.64 109.76a3.1 3.06 0 0 0 6.2 0 3.1 3.06 0 1 0-6.2 0z" style="fill:none;stroke-miterlimit:4;stroke-width:1.03;stroke:#000"/>
    <path d="m135.82 132.53 16.91-4.97" style="fill:none;stroke-miterlimit:4;stroke:#000"/>
    <path d="M154.73 123.75a3.1 3.06 73.61 1 0 1.75 5.95 3.1 3.06 73.61 0 0-1.75-5.95z" style="fill:none;stroke-miterlimit:4;stroke-width:1.03;stroke:#000"/>
    <path d="m129.65 132.53-16.91-4.97" style="fill:none;stroke-miterlimit:4;stroke:#000"/>
    <path d="M110.75 123.75a3.06 3.1 16.39 0 1-1.75 5.95 3.06 3.1 16.39 0 1 1.75-5.95z" style="fill:none;stroke-miterlimit:4;stroke-width:1.03;stroke:#000"/>
    <path d="m134.79 137.44 10.64 14.06" style="fill:none;stroke-miterlimit:4;stroke:#000"/>
    <path d="M149.71 152a3.06 3.1 52.89 1 0-4.94 3.74 3.06 3.1 52.89 0 0 4.94-3.74z" style="fill:none;stroke-miterlimit:4;stroke-width:1.03;stroke:#000"/>
    <path d="m130.68 137.44-10.64 14.06" style="fill:none;stroke-miterlimit:4;stroke:#000"/>
    <path d="M127.58 134.6a5.16 5.1 0 0 0 10.32 0 5.16 5.1 0 1 0-10.32 0z" style="fill:#fff;stroke-width:1.03;stroke:#000"/>
    <path d="M115.77 152a3.1 3.06 37.11 1 1 4.94 3.74 3.1 3.06 37.11 0 1-4.94-3.74z" style="fill:none;stroke-miterlimit:4;stroke-width:1.03;stroke:#000"/>
    <path d="M302.92 251.04v-17.63M299.82 230.43a3.1 3.06 0 0 0 6.2 0 3.1 3.06 0 1 0-6.2 0zM306.01 253.21l16.92-4.98M324.9 244.42a3.1 3.06 73.61 1 0 1.75 5.95 3.1 3.06 73.61 1 0-1.75-5.95zM299.82 253.21l-16.91-4.97M280.93 244.42a3.06 3.1 16.39 0 1-1.75 5.95 3.06 3.1 16.39 0 1 1.75-5.95zM304.98 258.11l10.64 14.06M319.89 272.67a3.06 3.1 52.89 1 0-4.94 3.74 3.06 3.1 52.89 0 0 4.94-3.74zM300.86 258.11l-10.64 14.06" style="fill:none;stroke-miterlimit:4;stroke:#000"/>
    <path d="M297.76 255.27a5.16 5.1 0 0 0 10.32 0 5.16 5.1 0 1 0-10.32 0z" style="fill:#fff;stroke-miterlimit:4;stroke:#000"/>
    <path d="M285.95 272.67a3.1 3.06 37.11 1 1 4.94 3.74 3.1 3.06 37.11 0 1-4.94-3.74zM96.64 251.12v-17.63M96.64 251.12v-17.63M93.54 230.51a3.1 3.06 0 0 0 6.2 0 3.1 3.06 0 1 0-6.2 0zM99.73 253.29l16.91-4.97M118.63 244.5a3.1 3.06 73.61 1 0 1.75 5.95 3.1 3.06 73.61 1 0-1.75-5.95zM93.55 253.29l-16.91-4.97M74.65 244.5a3.06 3.1 16.39 0 1-1.75 5.95 3.06 3.1 16.39 0 1 1.75-5.95zM98.7 258.19l10.64 14.06M113.61 272.76a3.06 3.1 52.89 0 0-4.94 3.74 3.06 3.1 52.89 0 0 4.94-3.74zM94.58 258.19l-10.64 14.06" style="fill:none;stroke-miterlimit:4;stroke:#000"/>
    <path d="M91.48 255.35a5.16 5.1 0 0 0 10.32 0 5.16 5.1 0 1 0-10.32 0z" style="fill:#fff;stroke-miterlimit:4;stroke:#000"/>
    <path d="M79.67 272.76a3.1 3.06 37.11 1 1 4.94 3.74 3.1 3.06 37.11 1 1-4.94-3.74zm120.11 53.57V308.7M199.78 326.33V308.7M196.68 305.72a3.1 3.06 0 1 0 6.2 0 3.1 3.06 0 1 0-6.2 0zM202.87 328.5l16.91-4.97M221.77 319.71a3.1 3.06 73.61 0 0 1.75 5.95 3.1 3.06 73.61 1 0-1.75-5.95zM196.69 328.5l-16.91-4.97M177.79 319.71a3.06 3.1 16.39 0 1-1.75 5.95 3.06 3.1 16.39 1 1 1.75-5.95zM201.84 333.4l10.64 14.06M216.75 347.97a3.06 3.1 52.89 1 0-4.94 3.74 3.06 3.1 52.89 0 0 4.94-3.74zM197.72 333.4l-10.64 14.06" style="fill:none;stroke-miterlimit:4;stroke:#000"/>
    <path d="M194.62 330.56a5.16 5.1 0 1 0 10.32 0 5.16 5.1 0 1 0-10.32 0z" style="fill:#fff;stroke-miterlimit:4;stroke:#000"/>
    <path d="M182.81 347.97a3.1 3.06 37.11 1 1 4.94 3.74 3.1 3.06 37.11 0 1-4.94-3.74z" style="fill:none;stroke-miterlimit:4;stroke:#000"/>
    <path d="m212.22 245.29-8.84-13.66v38.86m-7.21 0v-38.85l-8.84 13.66m8.84 25.19v-38.85l-8.84 13.66" style="fill:none;stroke-linecap:round;stroke-linejoin:round;stroke:#000"/>
    <path d="M196.17 270.49v-38.85l-8.84 13.66M180.65 240.43l9.89-15.29-33.64 12.66M152.78 231.63l34.93-13.15-15.94-2.03M175.72 208.64l13.91 1.78-20.36-25.84M174.29 179.3l21.36 27.1v-11.24M203.91 195.17v11.35l21.37-27.12M230.36 184.62l-20.32 25.78 13.79-1.76M227.77 216.45l-15.81 2.02 34.87 13.12M242.68 237.75l-33.72-12.69 9.94 15.37" style="fill:none;stroke-linecap:round;stroke-linejoin:round;stroke:#000"/>
</svg>
