<svg width="500.212" height="700.282" xml:space="preserve" xmlns="http://www.w3.org/2000/svg">
    <style>
        .st0,.st1,.st3{fill:#ffd200;stroke:#000;stroke-width:.6;stroke-linecap:round}.st1,.st3{fill:none}.st3{fill:#fff}
    </style>
    <g stroke-width=".553">
        <path class="st0" d="m140.256 50.05-3.24-9.348-43.474 11.137 12.819 70.758s-6.889 1.878-5.52 7.111c1.186 4.428 6.843 3.757 6.843 3.757l2.19 11.719s-7.847 3.444-5.43 10.377c2.145 6.082 9.033 3.175 9.033 3.175 46.075-15.856 91.179-23.84 136.63-23.84s90.553 7.984 136.628 23.84c0 0 6.889 2.907 9.033-3.175 2.417-6.933-5.429-10.377-5.429-10.377l2.19-11.719s5.656.671 6.843-3.757c1.368-5.233-5.52-7.111-5.52-7.111l12.819-70.758-43.475-11.137-3.24 9.348c-36.586-8.096-73.022-12.177-109.85-12.177s-73.264 4.08-109.85 12.177zM211.695 29.386l-2.19-28.044h16.742v13.15h15.51V1.342H258.5v13.15h15.556V1.342h16.697l-2.144 28.044z"/>
        <path d="M57.734 14.155c-7.901.003-15.809.84-23.224 2.525m8.86 4 .69 5.62m2.22-11.53.48 5.28m-7.55-4.23.83 5.34m17.689-1.46c-7.264.003-14.534.71-21.419 2.13M57.986 14.155c7.901.003 15.809.84 23.224 2.525m-8.86 4-.69 5.62m-2.22-11.53-.48 5.28m7.55-4.23-.83 5.34M57.991 19.7c7.264.003 14.534.71 21.419 2.13" fill="none" stroke="#000" transform="matrix(4.5619 0 0 4.4727 -13.845 -14)"/>
        <path class="st0" d="m284.366 99.741-6.432-70.221-55.655.09-6.478 69.594"/>
        <path class="st1" d="m234.322 98.265.867-36.944c-.137-6.53 6.202-12.121 14.917-12.121s15.054 5.59 14.918 12.12l.866 36.945"/>
        <path class="st0" d="m147.372 37.66-5.428-27.596-14.462 3.801 3.422 12.658-13.412 3.489-3.422-12.703-14.46 3.802 3.42 12.658-13.366 3.489-3.421-12.703-14.462 3.802 9.17 26.612z"/>
        <path class="st1" d="m140.256 50.05 20.346 57.787M393.395 122.507c-96.849-31.443-189.866-31.666-286.67-.09"/>
        <path d="M27.11 35.61c10.135-3.405 20.435-5.059 30.75-5.059s20.615 1.654 30.75 5.059m-61.97-2.59c10.595-3.53 20.895-5.284 31.22-5.284s20.625 1.754 31.22 5.284" fill="none" stroke="#000" transform="matrix(4.5619 0 0 4.4727 -13.845 -14)"/>
        <path class="st1" d="m120.594 117.632-8.896-37.794c-1.825-6.62 2.19-13.418 8.941-15.207s13.686 2.146 15.51 8.766l11.245 37.098"/>
        <path class="st0" d="m358.269 10.064 14.461 3.801-3.421 12.658 13.412 3.489 3.421-12.703 14.461 3.802-3.421 12.658 13.366 3.489 3.422-12.703 14.46 3.802-9.169 26.612-66.42-17.309z"/>
        <path class="st1" d="m359.957 50.05-20.346 57.787M379.619 117.632l8.895-37.794c1.825-6.62-2.19-13.418-8.941-15.207s-13.686 2.146-15.51 8.766l-11.245 37.1"/>
        <path d="M112.4 37.63v103.5c0 6.71-5.39 12.14-12.1 12.14H67.46c-1.3 0-6.265 1.09-9.585 5.9-3.32-4.81-8.285-5.9-9.585-5.9H15.45c-6.71 0-12.1-5.43-12.1-12.14V37.63z" style="fill:#f32735;stroke:#000;stroke-width:.6;stroke-linecap:round" transform="matrix(4.5619 0 0 4.4727 -13.914 -14)"/>
        <path class="st3" d="M48.128 307.32s-13.047 5.545-18.521 4.92-9.626-3.624-10.63-4.518c-1.049-.94-5.976-.313-2.92 3.802 3.012 4.114 8.167 5.59 9.17 5.59 1.05 0 25.501-2.773 25.501-2.773z"/>
        <path class="st3" d="M29.105 300.163s2.463 8.722 5.155 10.153c0 0 1.597-8.275 1.277-9.124"/>
        <path class="st3" d="M213.588 311.658c2.737-.537 11.405-3.713 13.047-4.25s35.857 9.572 38.548 9.572c2.737 0 79.012-14.715 91.649-14.715s25.318-1.565 28.968-.447c3.695 1.118 33.12 18.92 47.58 31.353 14.462 12.39 33.12 34.485 33.804 36.095.684 1.566 4.836 33.143 4.38 34.485s-7.801 14.402-9.626 14.67c-1.825.224-5.976-.224-5.976-.224s.228 23.885 3.923 29.744 21.167 33.366 21.624 34.26-5.064 2.73-5.748 3.624 4.15 10.824 4.607 18.025 1.597 15.565.912 16.46-7.344 0-7.344 0-.32 26.656-1.414 28.4c-1.14 1.79-6.205 3.4-9.626 4.071-3.467.67-27.828-.447-28.512-.224s-14.005 14.447-14.735 13.955c-.684-.447.456-12.166 0-13.284s-15.19 13.731-16.331 13.284.912-12.39 0-13.284-12.865 11.719-13.777 11.271.456-11.27-1.14-12.389-5.749-1.386-5.749-2.684c0-1.341 2.92-16.057 16.742-26.88 0 0 9.398 5.188 17.929 2.952 8.485-2.282 15.464-7.872 15.236-9.483-.228-1.565-12.408-24.331-17.7-30.861s-14.963-12.837-14.963-12.837-6.888 11.271-7.116 13.955c-.229 2.728 1.368 16.683.912 17.578s-8.485 0-8.941.67-.685 16.236-4.152 20.754c0 0-5.063-.671-7.344-2.46-2.327-1.79-13.139 27.283-15.42 29.072-2.326 1.79-14.46 2.729-17.7 2.46-3.239-.223-14.963-2.952-15.875-2.012-.913.894-15.647 13.955-15.647 13.06s.364-13.552.364-13.552-14.598 14.894-15.282 14c-.684-.94.456-11.72-.456-12.166s-11.268 12.389-11.724 11.047.912-12.166 0-13.06c-.913-.94-5.52-.447-5.748-2.058-.228-1.565 9.671-25.941 15.191-28.178s21.851 7.917 31.979 3.176 11.268-31.8 11.268-31.8h-7.573l.228-27.955s-33.165-11.227-37.042-10.6c-1.37.223 2.737 26.836 2.737 26.836s-8.76-4.473-11.04-.895-.228 6.53 1.14 9.259c1.369 2.683 8.531 13.73 8.303 14.894-.228 1.118-7.846 2.683-8.987 2.236s-1.232 19.68-4.151 22.99c-1.369 1.565-7.573-1.118-8.76-.671-1.14.447-5.519 22.095-8.986 23.437 0 0-17.472 3.399-30.565 0 0 0-17.7 13.73-18.384 13.284s1.368-13.284.228-13.732-14.005 13.732-14.963 12.837c-.913-.894.912-11.718-.228-12.166s-12.18 11.719-12.865 10.6 0-12.165-.684-12.612-5.064-.895-5.064-2.058c0-1.118 10.356-24.555 16.56-26.836 6.204-2.236 29.652 9.258 34.26 1.342s-1.14-15.565-1.14-15.565l-15.42-34.261s-15.191 22.542-16.332 22.766-5.291-4.07-6.204-4.07-13.594 32.472-14.507 32.472-8.029-5.189-9.215-5.412c-1.14-.224-14.871 25.181-23.904 34.037-2.737 2.728-28.056-1.79-29.196-1.342s-14.735 12.837-15.42 12.166 0-11.942-1.14-12.39-14.279 14.895-14.917 13.955c-.685-.894-.685-12.39-.685-12.39L68.565 563.56l.228-13.552s-5.52 1.118-6.204 0 8.257-22.766 16.104-29.073c3.65-2.952 20.391 5.815 29.06 1.834 9.762-4.473 19.66-27.507 21.258-30.683 1.596-3.13 14.005-37.883 14.005-37.883l-12.774-.626s13.55-26.345 7.619-30.325c-5.976-3.981-14.644 5.322-14.644 5.322l-.274-20.038s-6.25 4.25-7.618 3.713-6.25-17.041-4.881-20.485c0 0-11.679 2.102-12.5.805-.821-1.342 4.608-10.914 2.965-17.31-1.642-6.35-20.62-30.324-20.62-30.324s-10.31 6.932-12.225 5.59v-9.84s-12.5.537-16.013-2.683c0 0 7.071-5.59 6.798-6.664 0 0-22.81-1.879-29.06-5.86-5.61-3.578-4.881-8.498-4.881-8.498s23.904-1.61 24.954-3.175c1.094-1.61-1.916-9.572-4.882-11.45-3.01-1.879-20.072-1.61-21.988-5.055s-2.418-9.571-2.418-9.571-3.512-2.415-3.284-5.86c.273-3.443 11.13-5.859 15.236-6.395 4.06-.537 18.932-.984 21.715-2.147 6.524-2.64 12.226-7.738 15.237-7.738 4.06 0 36.632 7.47 39.643 9.303 2.965 1.879 4.06 8.498 10.31 10.645s22.809 5.054 32.572 7.738 61.585 18.383 61.585 18.383zM143.016 454.203l13.047-.403"/>
        <path class="st3" d="M194.337 447.404s14.461 18.964 17.426 25.718M285.028 422.133s4.333 29.52 4.333 33.009M326.723 464.803s20.21 7.38 23.722 9.75c0 0 2.965-9.034 2.144-10.376s16.56 10.913 17.929 13.328 7.892-11.181 7.892-11.181M399.805 472.228s-31.477-22.453-35.264-24.824M455.916 418.51s-.319-10.69 1.734-20.887M104.468 286.03s11.495 1.878 9.716 10.018c-1.733 8.185-11.268 8.32-11.268 8.32M65.418 278.336s-2.008 3.355-.639 7.693M63.639 282.585s-3.285-1.118-6.296 0M27.052 315.996s-.639-8.9-.091-9.974 7.8 9.84 7.8 9.84"/>
        <path class="st1" d="M20.574 287.55s4.151-.984 5.885-1.61"/>
    </g>
</svg>
