<svg xmlns="http://www.w3.org/2000/svg" width="950" height="1200" xml:space="preserve">
    <path fill="#E4032C" d="M4.004 1.18v727.381c0 60.654 11.494 118.626 32.367 171.868 68.671 175.031 239.115 299.011 438.527 299.011 199.39 0 369.841-123.979 438.507-299.011 20.882-53.242 32.376-111.214 32.376-171.868V1.18H4.004z"/>
    <path fill="#FC0" d="M159.076 573.184c5.024 5.379 10.091 10.733 15.678 15.548 1.697 1.454 3.422 2.896 5.249 4.216 1.705 1.222 3.5 2.354 4.9 3.937 1.674 1.866 2.606 4.811 4.766 6.183a9.783 9.783 0 0 0 2.944 1.191c1.266.301 3.319-.048 4.209 1.121 1.574 2.027-1.089 3.781-2.965 3.754-1.574-.06-4.566-1.048-5.559-2.384.15.194-.681 1.746-.76 1.998-.706 2.21-.886 4.767.021 6.952.635 1.463 1.775 2.289 3.199 2.868 1.754.683 3.299 1.39 4.034 3.277.739 1.946.534 4.234.355 6.265-.201 2.633-.478 5.376-1.596 7.811-1.04 2.359-2.944 4.358-3.25 7-.329 2.562.534 5.406 2.181 7.378 1.98 2.389 5.408 2.917 8.043 1.604 5.475-2.686 9.687-9.004 10.782-14.964.302-1.681-.079-3.318-.462-4.95-.223-1.115-.506-2.134-.527-3.149v-1.04c0-2.305-.534-4.591-1.523-6.699a21 21 0 0 0-1.827-3.09c-.886-1.221-1.653-2.148-1.704-3.731-.15-2.837.818-5.456-.072-8.266-.384-1.291-1.119-2.338-1.875-3.229-.133-.199-.284-.37-.434-.553-.605-.637-1.188-1.293-1.11-1.979.021-.381.172-.788.301-1.19.254-.687.527-1.474.354-2.364-.079-.378-.282-.763-.462-1.11-.192-.378-.404-.764-.404-1.02 0 0 0-217.978-.102-217.946l-.432-.08-8.848-1.191v212.803c-.075-.13-.175-.207-.283-.333-.193-.179-.326-.351-.405-.452a140.45 140.45 0 0 1-1.825-2.364c-3.35-4.262-6.72-8.545-10.1-12.863-17.929-22.751-36.476-46.26-50.116-72.266-4.954-9.413-8.837-18.241-11.856-26.964-7.579-21.887-11.562-46.061-12.5-76.098 0-.081-.03-.284-.03-.536-.099-1.754-.151-3.067-.151-4.115l-1.244.056c-1.674.053-3.349.104-5.023.255-1.442.151-2.865.484-4.339.806-1.085.234-2.126.484-3.196.662-2.563.406-5.17.561-7.76.561-3.069 0-6.063-.204-8.907-.483 0 1.727.029 4.055.108 7.354.527 22.276 4.794 44.223 12.604 65.248 2.26 6.034 4.793 11.97 7.558 17.608 9.062 18.493 21.157 37.341 36.028 56.08a494.9 494.9 0 0 0 15.548 18.666 611.527 611.527 0 0 0 12.785 14.207M74.248 323.625c3.32.637 6.871.406 10.242.203.968-.053 1.958-.129 2.947-.179a77.252 77.252 0 0 0 3.328-.273c1.927-.154 3.935-.133 5.831-.462.555-.094 1.14-.256 1.596-.605.765-.61.735-1.982.714-3.425v-.484c-.13-13.318 2.259-26.458 4.038-39.625.706-5.252 1.975-10.369 3.267-15.496a258.937 258.937 0 0 1 2.413-9.161c2.915-10.219 6.59-20.399 11.339-31.147 7.681-17.481 17.373-34.987 28.788-52.084 1.321-1.954 2.642-3.96 3.983-5.991 8.93-13.57 19.028-28.916 32.146-38.452.727-.563 2-1.492 3.059-1.492 1.201 0 1.907 1.062 2.52 1.926.304.402.578.83.961 1.159.352.283 1.019.557 1.019 1.121 0 .406-.334 161.387-.384 184.469l9.514-.327c0-23.768-.028-177.93-.028-186.25.1-.021.229-.074.361-.102.758-.253 1.364-.378 1.593-1.219.254-.862-.051-1.748-.03-2.637 0-.35-.021-.704-.042-1.089-.079.049-.129.105-.18.154-2.108 1.163-4.64 1.442-7.032 1.24-1.725-.151-4.562-.403-5.397-2.231a1.495 1.495 0 0 1 0-1.321c.452-1.015 1.52-1.089 2.482-1.015 1.19.105 2.388.308 3.554.406.886.073 1.804.125 2.683.073.945-.073 1.885-.301 2.721-.735 2.765-1.496 2.686-6.216 1.324-8.667a7.573 7.573 0 0 0-.917-1.271c-.585-.686-.991-1.191-.814-2.21.278-1.603 1.14-3.218 2.005-4.769.504-.89 1.018-1.821 1.394-2.739.359-.837.485-1.723.613-2.613.022-.252.072-.536.102-.785.376-2.195 1.161-4.31 1.926-6.349.404-1.11.838-2.258 1.161-3.422 1.273-4.083 2.159-7.455 2.744-10.589.075-.595.226-1.173.333-1.803.606-2.851 1.263-6.069.273-8.927-1.037-3.079-3.956-5.631-7.021-6.174-1.445-.284-2.485-.851-3.754-1.621-1.474-.936-3.25-1.426-4.975-1.426-2.208 0-4.157.81-5.354 2.21-1.11 1.317-1.516 3.088-1.194 5.144.464 2.63 1.987 4.724 3.455 6.791 1.42 1.947 2.793 3.845 3.115 6.129.442 2.559.414 4.804-.15 6.769-.911 3.372-2.584 6.184-5.479 9.108-1.825 1.849-2.586 4.629-1.618 7.102 1.063 2.738 5.379 2.837 5.936 5.705.171.945-.462 1.985-1.352 2.206-1.112.285-2.231-.301-3.167-.833-.275-.154-2.434-2.059-2.229-2.231-.101.102-.255.2-.355.28-3.58 3.142-6.949 6.57-10.381 9.869a851.494 851.494 0 0 0-10.625 10.345c-3.63 3.6-7.233 7.231-10.805 10.911a623.944 623.944 0 0 0-10.733 11.364 454.159 454.159 0 0 0-10.447 11.745c-.404.483-.816.935-1.218 1.418-5.078 5.936-9.546 11.616-13.701 17.38-16.085 22.171-28.054 45.098-35.566 68.109-5.251 16.056-9.235 32.368-11.312 49.108a206.06 206.06 0 0 0-1.068 9.668 294.991 294.991 0 0 0-.355 4.588c-.222 2.815-.434 5.631-.505 8.475-.049 1.548-.33 3.526.283 4.875.417.864 1.135 1.932 2.425 2.181M470.894 223.144c1.546.637 3.299 1.019 4.239 1.32.935.305 1.923.689 2.916.689 1.09 0 1.553-.868 2.106-1.625.836-1.169 1.727-2.287 2.584-3.428 1.772-2.364 3.502-4.745 5.298-7.074 1.048-1.324 2.088-2.645 3.146-3.958a64.622 64.622 0 0 1 3.127-3.4c2.203-2.185 5.474-2.542 8.447-2.542 4.336 0 8.575.868 12.781 1.706 10.604 2.101 21.392 3.369 32.09 4.692 3.098.381 6.173.735 9.24 1.058 3.215.385 6.465.669 9.708.669.917.021 1.652.805 1.632 1.723.125 5.025.654 12.25 1.211 17.201.739 6.388 1.503 11.511 2.441 16.106 1.03 5.074 3.441 11.917 9.179 15.78 3.043 2.048 6.752 3.32 10.782 3.705 7.554.704 15.343-.032 22.809-1.226a47.352 47.352 0 0 0 4.643-.957c1.289-.333 2.845-.662 3.702-1.754.557-.687.729-1.829.584-2.687 0 0-2.029-11.237-2.08-11.493-5.123-29.224-12.207-58.475-23.043-86.172-3.06-7.84-6.456-15.58-10.26-23.117a150.14 150.14 0 0 0-13.762-22.349 167.652 167.652 0 0 0-3.691-4.71c-.669-.84-1.434-1.958-2.624-1.989-1.11-.042-2.027.921-2.783 1.632-.869.84-1.759 1.625-2.616 2.437-20.473 19.026-39.652 39.365-58.22 60.195-5.375 6.041-10.681 12.126-15.979 18.241-7.364 8.465-14.458 17.272-20.221 26.965-1.291 2.183.462 3.496 2.614 4.362"/>
    <path fill="#FC0" d="M835.396 247.272c-.301-2.543-.634-5.075-.956-7.617-.992-7.683-1.729-15.622-3.635-23.155-1.594-6.5-3.824-12.663-5.601-17.275-1.445-3.733-3.579-6.194-6.768-9.183-4.291-4.062-8.023-8.625-11.624-13.065l-.2-.231c-3.705-4.563-7.538-9.283-11.948-13.419-7.862-7.333-15.121-11.945-22.903-14.557-4.542-1.502-9.343-1.019-12.13 1.316-2.059 1.699-3.911 4.132-4.801 5.302-1.572 2.129-2.784 4.619-3.877 6.798-.806 1.677-1.954 3.907-3.215 5.861-2.623 3.929-6.702 6.801-10.632 9.589l-.287.199c-4.104 2.966-8.797 6.314-12.705 10.198-3.526 3.506-8.149 8.807-7.333 14.337.182 1.243.816 3.022 1.674 4.007.788.812 1.727 1.215 2.889 1.243 1.02 0 2.108-.28 3.156-.788 0 0 .406-.172.427-.2 5.096-2.381 1.541-9-.076-12.428-2.074-4.319 1.981-5.834 5.606-6.038 4.996-.231 8.624 1.362 11.266 5.831.225.357.535.992 1.012.992.402 0 .715-.354.984-.558 3.936-2.742 9.84-5.789 14.771-5.789.507 0 1.036.053 1.498.15 1.604.301 3.299 1.401 4.437 2.868.326.435 2.028 2.693 1.392 4.389-.071.23-.229.483-.456.714-2.535 2.434-7.2 3.653-10.419 4.843a320.229 320.229 0 0 1-5.971 2.161c-2.283.784-6.135 2.893-7.661-.154-.477-.994-.383-2.311-.856-3.352-.966-2.055-2.262-4.688-4.09-6.114-1.116-.862-4.006-2.003-6.289-2.125-.48 0-1.064.073-1.419.479-.332.406-.38 1.495-.106 1.951.241.336.741 1.292.888 1.576 1.682 3.4 2.339 6.114 2.39 9.666v1.344c0 1.902-.021 3.678.867 5.303.96 1.775 2.431 2.885 4.105 3.168 1.142.204 2.38.302 3.705.406 3.55.28 7.234.585 9.836 2.483 4.871 3.583 11.039 3.307 16.372.844 3.859-1.779 6.997-6.146 11.333-6.829 10.092-1.646 13.498 14.127 12.936 20.984-1.59 19.779-8.061 38.687-11.539 58.139a155.152 155.152 0 0 0-2.508 30.337c.095 4.591 0 7.41-.259 8.527-.042.403-.424.756-.938.886-.102 0-.2.028-.307 0-20.446-3.072-41.146-.634-61.689-.556-3.937.024-7.89 0-11.823-.106-2.055-.045-7.787.865-8.624-1.796-.102-.386-.081-.711-.081-.963-.073-.078-.785-.333-3.096-.484l-.356-.049c-.119 0-.249-.032-.351-.032-4.815-.456-9.869-.763-14.744-1.036-18.868-1.142-37.792-1.698-56.692-2.263-6.443-.178-12.884-.354-19.333-.455l-6.848-.099c-.406 0-.756-.182-1.034-.487-1.294-1.439-.913-4.608-.937-6.383-.05-5.46.332-10.961.701-16.417.107-1.471.251-3.117.637-4.742-2.887-.504-4.714-2.816-5.453-5.358-.455.364-1.012.687-1.646 1.04-5.032 2.896-11.822.785-15.394-3.45-1.089-1.316-1.965-2.969-2.521-4.563-2.13 1.622-5.097 2.511-8.415 2.511-2.444 0-4.802-.512-6.626-1.471-1.499-.837-3.353-2.36-4.129-3.957-.942-1.926-.207-4.339.302-6.093l.102-.372a108.999 108.999 0 0 0 1.442-5.28c.028-.077.028-.151.057-.228l-.204.199-.26.225c-.608.563-1.239 1.144-1.895 1.652-4.65 3.4-10.221 5.326-16.161 5.634h-.738c-1.927 0-4.434-.427-5.376-2.335-1.526-3.043.613-6.497 2.08-9.081 1.853-3.299 3.779-6.549 5.452-9.946 1.426-2.815 2.757-5.705 3.884-8.67 1.213-3.327 2.13-7.109 2.717-11.242.526-4.083.891-8.502.051-12.711-.289-1.471-.938-3.32.021-4.668.84-1.191 2.991-1.012 3.732.207 1.495 2.417 1.317 5.554 1.362 8.269a57.531 57.531 0 0 1-.809 10.502 93.311 93.311 0 0 1-1.247 5.862c-.427 1.625-.881 3.243-1.464 4.843-2.359 6.447-5.812 12.299-9.314 18.162-.634 1.068-2.935 4.139-1.694 5.329 1.667 1.604 6.52-.048 8.194-.71 2.178-.865 4.388-2.105 6.569-3.702 6.213-4.623 9.662-12.582 11.466-18.466.73-2.41 1.418-4.85 1.922-7.312.253-1.163.441-2.304.612-3.45.183-1.012 1.446-1.748 2.382-1.698.638.025 1.19.256 1.625.735.532.557.585 1.04.532 1.807a19.993 19.993 0 0 1-.631 3.422c-.336 1.219-.56 2.434-.889 3.652-2.13 7.68-5.351 15.013-7.461 22.725-.503 1.908-.965 3.81-1.294 5.76-.305 1.552-.605 3.331.56 4.619 2.516 2.788 8.497 2.333 11.319.326 3.414-2.434 3.827-7.406 5.238-11.059.413-1.061 1.078-2.784 2.494-2.784.413 0 .686.15.938.301 1.499 1.062.59 3.197.203 4.591-1.218 4.458-3.854 12.047.158 15.829 1.666 1.624 5.018 2.311 7.072 1.366 5.307-2.403 7.66-8.29 9.081-13.189.051-.154.134-.374.204-.679.231-.914.403-1.674.557-2.238-4.233-.606-8.136-2.077-11.363-4.287-6.979-4.72-9.897-12.733-11.108-18.616-.998-5.004-1.807-10.25-2.49-16.519-.427-4.006-.584-8.04-.809-12.046-.054-.533.021-1.089-.028-1.653-.053-.605 0-1.19-.224-1.769-.306-.816-1.829-.794-2.515-.864-9.792-.942-19.632-1.755-29.431-2.966a375.923 375.923 0 0 1-8.516-1.17c-6.165-.967-12.285-2.312-18.495-2.794l-.745-.042c-.981-.083-1.996-.155-3.017-.112-.374.029-2.994.112-2.381.869.301.406 1.349.455 1.797.536.714.07 1.433.119 2.108.171.638.056 1.299.078 1.933.179.435.053 1.416.133 1.598.63.665 1.804-7.355 1.401-8.292 1.369-1.072-.021-2.484-.192-3.427.337-1.042.584-.539 2.308-.434 3.222.133 1.145.259 2.283.153 3.446-.079 1.169-.402 2.311-.636 3.45a605.042 605.042 0 0 1-1.419 6.779c-.486 2.28-.99 4.56-1.502 6.839-.273 1.274-.557 2.546-.83 3.813l-.081.326c-.708 3.222-1.442 6.5-2.149 9.742-.333 1.646-.637 3.394 0 4.161.527.658 1.727.536 2.482.564.735.021 1.453.021 2.182.021 1.472 0 2.936 0 4.388-.021 1.272 0 2.714.122 3.905-.361 1.32-.508.868-2.413 1.825-3.243.331-.28.786-.438 1.242-.259.554.231.764.866.845 1.422.198 1.652-.41 3.453-1.503 4.671-.736.837-1.513 1.412-2.612 1.695-.988.252-1.996.28-2.998.336-.725.021-1.572.049-2.102.633-.248.249-.28.806-.328 1.362-.077.816-.203 1.775.101 2.592.334.858 1.3 1.191 1.979 1.673.938.631 1.652 1.527 2.339 2.414.658.858 2.409 2.934.854 3.824-.903.536-1.821-.91-2.309-1.467-.476-.585-1.39-.812-2.107-.84-.557-.021-1.411-.046-1.796.381-.204.231-.282.637-.231.914.08.378.461.739.638 1.065.23.382.413.816.553 1.247a8.423 8.423 0 0 1 .384 3.754c-.356 2.766-1.749 5.196-2.652 7.81-.666 1.958-1.143 4.29-.827 6.37.112.563.312 1.116.612 1.6 1.426 2.255 3.961 3.394 6.448 4.129.755.231 1.574.434 2.359.634 1.766.434 3.573.787 5.372 1.071 1.472.249 2.922.375 4.395.554 1.17.129 2.361.336 3.373.97 1.897 1.138 2.003 3.449 1.954 5.424-.078 3.404-.23 6.773-.357 10.146-.081 2.36-.146 5.053-2.182 6.829-2.133 1.926-4.896 2.15-7.056 2.15-.827 0-1.676-.021-2.432-.07l-.301-.031c-5.933-.305-12.2-.575-17.405-.735-14.38-.508-28.766-.68-43.175-.809-4.106-.021-8.245-.049-12.358-.102-9.739-.07-19.504.081-29.25.102-2.837 0-5.703-.021-8.567-.13-2.41-.07-4.924-.553-7.355-.375-.947.098-1.402.455-2.371 1.24-1.392 1.19-2.604 2.129-4.229 2.665-2.128.708-4.489 1.012-7.433 1.012-7.688 0-15.377-1.041-23.036-1.597-4.106-.277-8.194-.427-12.3-.15-4.034.252-8.345.634-12.127-1.04-1.063-.456-1.949-1.169-2.815-1.825l-.384-.305c-.657-.536-1.341-1.068-2.077-1.474-3.725-2.161-8.577-1.754-12.683-1.727-8.172.024-16.316 0-24.456-.2l-8.527-.234c-11.641-.329-23.027-.634-34.444-.704-1.396-.029-2.819-.029-4.188-.029-7.055 0-13.57.126-19.889.354-4.49.15-9.079.28-13.541.378l-1.958.077c-9.08.228-18.443.511-27.602 1.043-6.163.456-12.532.659-19.402.659-2.331 0-4.673-.021-7.004.129-.735.053-1.492.15-2.259.252-2.281.381-3.928.133-5.176-1.271-1.465-1.723-3.09-3.499-5.349-4.973-2.794-1.797-5.94-3.141-8.697-4.311-1.729-.714-3.453-1.446-5.127-2.259-3.299-1.597-6.771-3.096-10.483-3.271-1.218-.049-2.409 0-3.6.056-.706.049-1.161.119-1.369.854-.304 1.068-.075 2.238 0 3.331.15 2.28.208 4.587.257 6.891.051 1.482.072 2.977.051 4.448 0 .123 0 1.544-.079 1.565 1.191-.273 2.41-.456 3.601-.736 1.704-.406 3.633-1.04 5.351-.476.483.151.948.375 1.327.683.832.711.888 1.496.809 1.93-.232 1.421-1.927 2.381-3.326 2.987-4.795 1.803-9.79 2.188-14.66 2.521l-3.22.252c-4.29.326-8.758.654-13.139.676l-1.554.032c-4.41 0-8.929-.402-11.158-5.253-1.32-2.837-.858-6.258-.635-9.309.1-.966.178-1.926.283-2.892-.03.077-1.474.333-1.625.354a9.325 9.325 0 0 0-1.625.585c-1.018.483-1.879 1.271-2.693 2.056a16.998 16.998 0 0 0-2.08 2.515c-.935 1.369-1.544 2.966-2.058 4.559-.523 1.754-.928 3.53-1.057 5.358-.134 1.775 0 3.571.43 5.326.433 1.674 1.194 3.169 2.129 4.623.1.15.205.343.333.504 2.282 2.809 5.581 4.056 10.676 4.056 2.031 0 4.105-.201 6.165-.406l.89-.078c1.704-.15 3.298-.305 4.818-.354h.661c2.155 0 4.892.253 7 2.305l.712.742c1.142 1.11 1.93 1.898 3.476 2.28.322.101 1.29.357 1.776.536.483.123.835.605.835 1.138 0 .081-.03.15-.051.252-.15.483-.562.84-1.04.869-.179.021-.815.123-1.753.192l-2.049.154h-.261c-1.445 0-2.331-.83-3.087-1.516a8.972 8.972 0 0 0-.739-.662c-.605-.427-1.32-.606-2.339-.606-.477 0-.982.028-1.445.07-2.888.281-5.375.41-7.556.41-3.099 0-6.193-.301-9.234-.837-1.14-.228-2.259-.505-3.378-.736a56.697 56.697 0 0 1-4.945-1.523c-.373-.15-.756-.304-1.139-.477-.23 2.403.171 4.837.634 7.148.455 2.107 1.04 3.298 2.948 3.96 1.52.529 3.266.838 5.468.935 2.392.207 4.952.028 7.466-.097l.585-.028a106.26 106.26 0 0 1 4.51-.225h.869c2.026-.077 3.75 0 5.095.378 1.825.585 2.687 1.674 3.55 2.714.305.41.613.812.991 1.19.15.15.405.329 1.168.329.328 0 .657-.028.962-.049.786-.08 1.553-.101 2.137 0 .727.252 1.035.869.857 1.475-.229.756-.764.655-1.393.938-.666.301-1.243.683-1.907.907-1.746.612-2.994.563-4.185-.123-.557-.354-1.041-.784-1.423-1.141-.757-.684-1.442-1.247-2.505-1.338-1.201-.133-2.441.221-3.631.27-4.106.255-8.246-.078-12.329-.27-1.163-.063-2.36-.133-3.53-.214a70.563 70.563 0 0 1-4.182-.406 21.388 21.388 0 0 1-1.369-.178c-.555 4.64.715 10.712 4.842 14.053.968.792 2.037 1.142 3.377 1.142 2.053 0 4.513-.935 6.491-1.694 2.36-.886 4.745-1.775 7.004-1.775h.301c2.714.119 5.43 1.219 7.666 3.067.478.483.529 1.12.201 1.604-.179.221-.634.48-.964.48-.227 0-.435-.077-.638-.207-.858-.529-2.281-.406-3.723-.073l-.334.073a126.15 126.15 0 0 0-9.028 2.462c-2.716.886-6.042 1.775-8.578 1.594-.022.36 0 .767.053 1.271.18 2.182 1.069 4.287 2.381 5.632 2.873 2.892 10.654 3.278 13.218 3.407 3.906.22 7.634-.386 11.802-1.068 2.715-.413 5.275-.788 7.91-.991 7.71-.532 13.954-2.056 19.282-7.687a31.605 31.605 0 0 0 1.875-2.157l.233-.252c.475-.557.937-1.064 1.392-1.596 2.03-2.238 4.312-4.287 6.287-6.013l.184-.182c1.774-1.593 3.984-3.547 6.618-3.674.432-.028.866-.052 1.372-.052 1.623 0 3.248.154 5.023.329l1.878.179c1.926.154 3.852.305 5.78.505 6.285.584 12.864 1.04 18.415 1.425l.484.028c5.296.343 10.805.729 16.184 1.211 2.966.252 6.193.584 9.393.991 5.116.704 10.652 1.776 17.475 3.376a982.865 982.865 0 0 1 13.823 3.323c21.462 5.194 43.529 10.523 65.652 11.763 1.725.108 3.3.129 4.795.129 6.414 0 11.563-.858 16.183-2.713 1.475-.606 2.945-1.293 4.361-1.976 1.702-.812 3.198-1.373 4.931-1.373.476 0 .956.049 1.411.129l.817.151c9.94 1.699 20.167 1.495 30.21 1.222 3.521-.08 7.053-.23 10.574-.336 2.843-.049 6.065-.126 8.557 1.447.472.304.756.714.906 1.219.384 1.316-.735 2.944-1.32 4.026-4.13 7.95-2.506 17.587-1.544 26.062.305 2.462.968 4.714 1.958 6.489.856 1.454 2.046 1.625 4.076 1.804 9.138.76 18.322.528 27.479.76 6.362.13 12.756-.021 19.125-.074.352 0 .885.305 1.04.638.481.956.584 2.027.685 3.117.534 5.256.663 10.551.814 15.833.485 13.874.862 27.777.862 41.68 0 11.308-.227 22.626-.606 33.934-.102 3.193-.383 6.395-.383 9.584-.89 20.704-2.31 39.572-4.29 57.684-.585 5.225-1.191 10.461-1.521 15.735-.434 6.59-8.599 5.196-13.01 4.454-20.53-3.399-41.529-3.975-62.333-4.23-6.084-.08-12.148-.123-18.241-.203-15.577-.15-31.148-.354-46.755-.354-3.572.126-6.468.434-9.101 1.013-7.437 1.625-8.193 7.073-10.708 13.097-1.036 2.479-3.5 2.307-5.708 3.016-2.788.938-5.43 2.791-7.356 5.014-3.471 3.965-4.055 9.599-4.339 14.59-1.089 19.765.485 39.548.768 59.337.273 18.948.324 37.904.101 56.878-.129 12.051-.154 24.121-.434 36.172-.283 11.08-.079 22.453-2.159 33.384-1.068 5.782-2.816 11.441-5.708 16.537-2.031 3.603-4.644 7.175-8.215 11.269-7.333 8.419-15.578 17.194-25.193 26.881-3.419 3.477-7.175 6.878-11.744 8.808-9.589 4.006-21.178 2.286-31.279 4.699-9.666 2.301-15.901 6.339-18.515 12.047-1.525 3.193-2.261 8.85-.94 12.174 2.586 6.568 13.118 5.658 18.647 5.931 10.882.586 21.784.586 32.672.157 10.169-.409 20.752-.611 30.743-2.79 2.488-.536 5.123-1.219 7.382-1.797 4.844-1.303 9.87-2.616 15.123-2.997 14.864-1.471 29.194 4.714 44.165 2.462 5.68-.861 11.131-1.877 14.915-5.046 5.981-4.953 5.859-13.147 4.712-19.131-1.618-8.472-4.057-17.202-7.227-25.95-.787-2.237-1.697-4.497-2.614-6.721l-.25-.637c-3.15-7.789-6.419-15.825-6.316-24.514.021-5.953 1.392-11.757 2.714-17.422l.585-2.557c2.843-12.407 5.375-24.486 8.269-38.815l2.23-11.238c2.334-11.44 4.261-22.479 6.57-35.717l.434-2.409c-.029-.356.354-.812.881-.941.41-.123 1.02.157 1.249.585 5.479 9.889 11.665 19.176 17.68 28.161a545.451 545.451 0 0 1 5.687 8.697c1.618 2.513 4.209 6.04 7.881 7.406 1.27.43 2.593.664 4.064.664 3.019 0 6.005-.889 9.082-1.858 10.706-3.377 21.46-6.595 32.29-9.482 9.179-2.463 18.67-4.206 27.734-7.162 1.868-.606 3.904-1.464 5.902-1.335 4.36.256 2.615 6.419 2.464 9.207-1.163 21.891-2.03 43.785-3.221 65.678-.413 7.4-.868 14.856-1.524 22.297-.585 6.871-1.42 14.282.961 20.953.691 1.854 1.854 3.677 3.148 5.021 3.78 3.831 8.807 5.81 13.269 7.284a83.72 83.72 0 0 0 19.833 4.006c4.947.382 10.476-1.372 15.298-.354 3.833.81 3.044 3.824 3.299 6.902a35.26 35.26 0 0 0 1.974 9.253c2.998 8.395 9.496 13.601 17.256 17.426 3.68 1.804 7.917 3.095 12.604 3.841 6.121.981 12.561 1.443 19.691 1.443 8.142 0 16.238-.638 22.395-1.17 23.957-2.161 47.745-5.732 71.643-8.304 6.92-.728 13.85-1.383 20.774-1.947 16.689-1.344 33.436-2.156 50.146-2.99 6.294-.301 12.614-1.046 18.729-2.539 2.557-.633 5.253-1.189 7.656.18 2.741 1.568 3.936 4.793 6.194 6.849 3.884 3.548 8.395 6.37 12.933 9.004 13.825 8.068 32.926 15.196 40.562 30.341 3.128 6.185 3.219 13.374 2.994 20.164-.15 4.574-.886 9.063-1.267 13.605-.288 2.987-1.394 8.614.917 11.059 1.369 1.461 3.779 1.771 5.529 1.771 1.391 0 2.966-.2 4.409-.58a12.903 12.903 0 0 0 4.236-2.08c2.571-1.906 4.441-4.692 6.234-7.386 2.136-3.148 3.888-6.882 5.26-9.918.357-.734.689-1.395 1.017-2.087 3.318-7.014 7.102-14.984 7.405-22.948.757-18.753-20.885-30.086-20.524-48.835.308-14.337 6.703-29.017 2.938-43.333-1.362-5.123-4.233-9.967-8.316-13.974-4.262-4.209-9.2-6.828-14.322-7.608-11.066-1.632-20.581 4.843-30.45 8.649-2.434.938-5.249 1.523-8.415 1.796-.938.078-1.829.109-2.595.13-4.64.154-8.898 1.724-13.497 2.108-11.637 1.04-23.409-1.068-35.022-1.876-11.976-.838-23.975-1.268-35.979-1.681-6.85-.256-13.696-.478-20.546-.782-5.073-.203-10.432.354-15.398-.809-1.089-.229-4.313-.836-4.285-2.314 0-1.667 3.978-2.305 5.046-2.864 4.563-2.386 9.514-5.432 11.672-10.356-1.303-.476-4.415-1.895-4.952-2.251-9.868-6.898-14.609-18.563-16.689-29.955-2.592-14.127-2.784-28.614-2.736-42.952.054-8.85.222-17.685.334-26.514.095-6.843.066-13.725.147-20.566.248-20.087-.358-40.206-.688-60.328-.337-19.075-.812-38.101-2.081-57.152-.254-3.677-.532-7.638-.706-11.616-.767-13.146-1.496-28.643-1.449-43.708.048-11.017.966-22.591 2.892-36.553a506.27 506.27 0 0 1 1.577-10.524l.622-3.96c.687-4.335 1.405-8.646 2.065-12.964 2.789-17.878 6.995-35.566 9.054-53.545 0-.564.508-1.04 1.138-1.04 18.771 0 37.878-.689 56.697-2.515 5.483-.532 10.989-1.089 16.466-1.547l.735-25.064c.077-.553.412-.959.862-1.109.941-.133 3.171-.333 9.156-.463h.36c4.161-.179 10.346-.385 16.46-.385 20.29 0 40.588-.192 60.839-1.597 9.678-.634 20.644-1.341 30.737-4.027 3.096-.816 5.729-1.772 8.075-2.92 3.972-1.902 7.459-5.173 9.561-8.951 8.013-14.54 10.53-32.144 12.327-48.4 1.365-12.261 1.169-24.612.856-34.025-.477-15.125-2.072-30.19-3.981-45.203m-322.541-14.971c-.539.381-1.246.511-1.778.048-.484-.406-.99-1.19-1.345-1.694-.462-.606-.857-1.443-.41-2.182.516-.812 1.523-1.02 2.336-.606.992.557 1.898 1.817 1.982 2.966.028.557-.305 1.11-.785 1.468m4.364-12.25c-.15.249-.385.456-.693.606-.959.483-2.129.434-3.161.434-.28 0-2.44.172-2.543-.024.256.508.462 1.114.462 1.828 0 4.945-7.787 4.994-7.787 0 0-.413.094-.843.255-1.25.119-.382.505-.729.581-1.111.197-.763-1.552 0-1.933.049-.966.15-3.629.456-3.828-.967-.149-1.04.663-1.975 1.496-2.41.966-.507 2.08-.406 3.147-.456 2.253-.101 4.49-.073 6.742-.325.636-.081 1.299-.183 1.933-.28 1.365-.182 2.998-1.093 4.21 0 .867.838 1.774 2.764 1.119 3.906"/>
    <path fill="#FC0" d="M593.852 270.658c-.714 4.237-2.279 8.173-3.455 12.278a19.09 19.09 0 0 0-.372 1.646c-.382 1.878-.511 4.367 1.313 5.59 1.216.808 3.604.654 4.896.171 1.476-.536 2.763-1.52 4.039-2.41 2.438-1.698 4.384-3.828 5.777-6.471.991-1.874 1.484-3.905 1.849-5.96.078-.456.612-5.348.747-5.379-2.572.406-6.062.686-9.922.686a74.584 74.584 0 0 1-4.872-.151"/>
</svg>
