<svg xmlns="http://www.w3.org/2000/svg" xml:space="preserve" viewBox="30.5 31.5 400 500" height="500" width="400">
    <path style="fill:#0085ca;fill-opacity:1" d="M230.44 531.14C156.12 477.22 105.18 409.12 74.7 322.98c-27.64-78.1-38.73-172.75-33.91-289.35l.02-.46h379.82l.02.46c4.81 116.6-6.28 211.24-33.91 289.35-30.48 86.14-81.42 154.24-155.74 208.16l-.28.2-.28-.2z"/>
    <path d="M419.96 33.21c9.07 219.45-36.26 385.95-189.46 497.1C77.31 419.16 31.99 252.66 41.06 33.21h378.9m.92-.95H40.14l-.04.92c-4.82 116.66 6.28 211.36 33.93 289.52 30.51 86.24 81.51 154.41 155.91 208.39l.56.41.56-.41c74.4-53.98 125.4-122.15 155.91-208.39 27.65-78.16 38.75-172.86 33.93-289.52l-.04-.92z"/>
    <path d="M74.546 96.381c-6.483-10.184-5.951-18.117-5.298-28.274.13-2.015 2.456-1.821 3.45-1.107.247.177 1.603-.285 2.837.37 4.783 2.542 9.63 4.992 14.023 7.863 7.166 4.682 13.484 9.763 18.463 13.93 15.215 12.739 22.119 20.654 31.846 31.194l11.388 2.83c4.27 1.062 16.051 19.308 15.275 19.91l-4.755 3.684c4.899 9.148 6.71 19.247 18.845 29.866 10.127 8.861 21.757 13.52 32.1 18.499-3.909 3.33-12.51 6.742-23.665 5.09-.346 9.342-2.71 18.495-8.761 24.545-2.278-9.963-5.314-19.964-10.258-30.24-4.485-9.32-17.54-14.676-18.034-13.31l-2.034 5.632c-1.25 3.456-16.69-8.098-16.45-10.437l.326-3.2c.115-1.124-12.332-11.448-13.491-8.779-1.302 2.996-1.624 4.433-2.898 3.875-5.42-2.377-7.635-6.112-7.572-11.616.038-3.297-14.629-14.239-20.467-24.193-6.519-11.113-7.624-14.886-14.87-36.132z" style="fill:#fff;fill-rule:evenodd;stroke:#000;stroke-width:1;stroke-linecap:round;stroke-linejoin:round;stroke-miterlimit:4;stroke-dasharray:none;stroke-opacity:1"/>
    <path d="M74.546 96.381c2.819 2.063 7.007 3.243 9.304 2.826 2.623-.476 4.816-2.53 6.355-4.043M88.653 107.31c.038 2.992-.081 5.968.745 9.04.558 2.076 9.105 1.794 8.503.452-.984-2.193-1.265-3.362-1.703-4.76M72.698 67c1.237 4.315 2.255 7.125 3.09 10.063" style="fill:none;fill-rule:evenodd;stroke:#000;stroke-width:1;stroke-linecap:round;stroke-linejoin:miter;stroke-miterlimit:4;stroke-dasharray:none;stroke-opacity:1"/>
    <circle transform="rotate(5.829)" r="2.457" cy="71.205" cx="90.213" style="opacity:.98000004;fill:#000;fill-opacity:1;stroke:#000;stroke-width:1;stroke-linecap:round;stroke-linejoin:round;stroke-miterlimit:4;stroke-dasharray:none;stroke-opacity:1"/>
    <path style="fill:#fff;fill-rule:evenodd;stroke:#000;stroke-width:1;stroke-linecap:round;stroke-linejoin:round;stroke-miterlimit:4;stroke-dasharray:none;stroke-opacity:1" d="M211.203 248.318c-6.483-10.184-5.951-18.117-5.298-28.274.13-2.014 2.456-1.821 3.45-1.107.247.177 1.603-.285 2.837.37 4.783 2.542 9.63 4.992 14.023 7.863 7.166 4.682 13.484 9.763 18.463 13.931 15.215 12.738 22.119 20.654 31.846 31.193l11.388 2.83c4.27 1.062 16.052 19.308 15.275 19.91l-4.755 3.685c4.899 9.148 6.71 19.246 18.845 29.865 10.127 8.861 21.757 13.52 32.1 18.499-3.909 3.33-12.51 6.742-23.665 5.09-.346 9.342-2.71 18.495-8.761 24.546-2.278-9.964-5.314-19.964-10.258-30.24-4.485-9.322-17.54-14.676-18.034-13.31l-2.034 5.63c-1.249 3.457-16.69-8.097-16.45-10.436l.326-3.199c.115-1.125-12.332-11.449-13.491-8.78-1.302 2.996-1.624 4.434-2.898 3.875-5.42-2.377-7.635-6.112-7.572-11.616.038-3.297-14.629-14.239-20.467-24.193-6.518-11.112-7.624-14.885-14.87-36.132z"/>
    <path style="fill:none;fill-rule:evenodd;stroke:#000;stroke-width:1;stroke-linecap:round;stroke-linejoin:miter;stroke-miterlimit:4;stroke-dasharray:none;stroke-opacity:1" d="M211.203 248.318c2.819 2.063 7.007 3.243 9.304 2.826 2.623-.475 4.816-2.53 6.355-4.043M225.31 259.247c.038 2.992-.081 5.968.745 9.04.558 2.076 9.105 1.794 8.503.452-.984-2.192-1.264-3.362-1.703-4.76M209.355 218.937c1.237 4.315 2.255 7.125 3.09 10.064"/>
    <circle style="opacity:.98000004;fill:#000;fill-opacity:1;stroke:#000;stroke-width:1;stroke-linecap:round;stroke-linejoin:round;stroke-miterlimit:4;stroke-dasharray:none;stroke-opacity:1" cx="241.595" cy="208.478" r="2.457" transform="rotate(5.829)"/>
    <path d="M236.227 140.84c-6.483-10.185-5.951-18.118-5.298-28.275.13-2.015 2.455-1.821 3.45-1.107.246.177 1.603-.285 2.837.37 4.782 2.542 9.63 4.992 14.023 7.863 7.166 4.682 13.484 9.763 18.462 13.93 15.216 12.74 22.12 20.655 31.847 31.194l11.388 2.83c4.27 1.062 16.051 19.308 15.275 19.91l-4.756 3.684c4.9 9.149 6.71 19.247 18.846 29.866 10.126 8.861 21.756 13.52 32.1 18.499-3.91 3.33-12.51 6.742-23.665 5.09-.347 9.342-2.71 18.495-8.762 24.545-2.277-9.963-5.313-19.964-10.258-30.24-4.485-9.32-17.54-14.676-18.033-13.309l-2.035 5.63c-1.248 3.457-16.689-8.097-16.45-10.436l.327-3.2c.115-1.124-12.332-11.448-13.492-8.779-1.301 2.996-1.623 4.434-2.897 3.875-5.421-2.377-7.635-6.112-7.572-11.616.037-3.297-14.629-14.239-20.468-24.193-6.518-11.112-7.624-14.885-14.87-36.132z" style="fill:#fff;fill-rule:evenodd;stroke:#000;stroke-width:1;stroke-linecap:round;stroke-linejoin:round;stroke-miterlimit:4;stroke-dasharray:none;stroke-opacity:1"/>
    <path d="M236.227 140.84c2.818 2.062 7.007 3.242 9.304 2.825 2.622-.475 4.815-2.53 6.355-4.043M250.333 151.768c.039 2.992-.08 5.968.745 9.04.558 2.076 9.106 1.794 8.503.452-.983-2.193-1.264-3.362-1.702-4.76M234.378 111.458c1.238 4.315 2.255 7.125 3.091 10.064" style="fill:none;fill-rule:evenodd;stroke:#000;stroke-width:1;stroke-linecap:round;stroke-linejoin:miter;stroke-miterlimit:4;stroke-dasharray:none;stroke-opacity:1"/>
    <circle transform="rotate(5.829)" r="2.457" cy="99.013" cx="255.573" style="opacity:.98000004;fill:#000;fill-opacity:1;stroke:#000;stroke-width:1;stroke-linecap:round;stroke-linejoin:round;stroke-miterlimit:4;stroke-dasharray:none;stroke-opacity:1"/>
    <path style="fill:#fff;fill-rule:evenodd;stroke:#000;stroke-width:1;stroke-linecap:round;stroke-linejoin:round;stroke-miterlimit:4;stroke-dasharray:none;stroke-opacity:1" d="M105.468 255.035c-6.483-10.184-5.952-18.117-5.298-28.273.13-2.015 2.455-1.822 3.45-1.108.246.178 1.602-.285 2.836.37 4.783 2.543 9.63 4.992 14.024 7.863 7.166 4.683 13.484 9.763 18.462 13.931 15.215 12.738 22.12 20.654 31.847 31.193l11.388 2.83c4.27 1.062 16.051 19.308 15.274 19.91l-4.755 3.685c4.9 9.148 6.71 19.246 18.846 29.865 10.126 8.862 21.756 13.52 32.1 18.5-3.91 3.329-12.51 6.741-23.665 5.09-.347 9.342-2.71 18.494-8.762 24.545-2.277-9.964-5.313-19.964-10.258-30.24-4.485-9.321-17.54-14.676-18.033-13.31l-2.035 5.631c-1.249 3.456-16.689-8.097-16.45-10.437l.327-3.199c.114-1.124-12.333-11.449-13.492-8.78-1.301 2.997-1.623 4.434-2.898 3.875-5.42-2.377-7.635-6.111-7.572-11.616.038-3.297-14.628-14.238-20.467-24.192-6.518-11.113-7.624-14.886-14.87-36.133z"/>
    <path style="fill:none;fill-rule:evenodd;stroke:#000;stroke-width:1;stroke-linecap:round;stroke-linejoin:miter;stroke-miterlimit:4;stroke-dasharray:none;stroke-opacity:1" d="M105.468 255.035c2.818 2.064 7.006 3.243 9.303 2.827 2.623-.476 4.816-2.53 6.356-4.043M119.574 265.965c.039 2.992-.081 5.968.745 9.04.558 2.076 9.106 1.794 8.503.451-.983-2.192-1.264-3.361-1.702-4.76M103.62 225.654c1.237 4.316 2.254 7.125 3.09 10.064"/>
    <circle style="opacity:.98000004;fill:#000;fill-opacity:1;stroke:#000;stroke-width:1;stroke-linecap:round;stroke-linejoin:round;stroke-miterlimit:4;stroke-dasharray:none;stroke-opacity:1" cx="137.088" cy="225.899" r="2.457" transform="rotate(5.829)"/>
</svg>
