<svg xmlns="http://www.w3.org/2000/svg" xml:space="preserve" viewBox="30.5 31.5 450 500" height="500" width="450">
    <path style="fill:#32ac60;fill-opacity:1;fill-rule:evenodd;stroke:none;stroke-width:1px;stroke-linecap:butt;stroke-linejoin:miter;stroke-opacity:1" d="M255.5 530h185c20 0 38.5-18.872 38.5-38.5V33H32v458.5c0 19.628 18.5 38.5 38.5 38.5h185"/>
    <path d="M255.5 530h185c20 0 38.5-18.872 38.5-38.5V33L45.158 519.466C52.118 525.87 61.145 530 70.5 530h185" style="fill:#ffe000;fill-opacity:1;fill-rule:evenodd;stroke:none;stroke-width:1px;stroke-linecap:butt;stroke-linejoin:miter;stroke-opacity:1"/>
    <path style="fill:none;fill-rule:evenodd;stroke:#000;stroke-width:1px;stroke-linecap:butt;stroke-linejoin:miter;stroke-opacity:1" d="M479 33 45.158 519.466M255.5 530h185c20 0 38.5-18.872 38.5-38.5V33H32v458.5c0 19.628 18.5 38.5 38.5 38.5h185"/>
</svg>
