<svg xmlns="http://www.w3.org/2000/svg" xml:space="preserve" viewBox="30.5 31.5 400 500" height="500" width="400">
    <path d="M230.45 531.13c-74.32-53.92-125.26-122.02-155.74-208.16-27.64-78.1-38.73-172.75-33.91-289.35l.02-.46h379.82l.02.46c4.81 116.6-6.28 211.24-33.91 289.35-30.48 86.14-81.42 154.24-155.74 208.16l-.28.2z" style="fill:#fff"/>
    <path d="M419.96 33.21c9.07 219.45-36.25 385.95-189.45 497.1C146.04 469.02 94.36 390.9 66.52 296.34a557.24 557.24 0 0 1-5.87-21.54c-11.45-45.69-17.77-95.02-19.88-147.94-1.2-30.06-1.05-61.28.29-93.65h378.9m.92-.95H40.14l-.04.92c-4.82 116.66 6.28 211.36 33.93 289.52 30.51 86.24 81.51 154.41 155.91 208.39l.56.41.56-.41c74.4-53.98 125.4-122.15 155.91-208.39 27.65-78.16 38.75-172.86 33.93-289.52l-.04-.92z"/>
    <path style="fill:#e00e00;fill-opacity:1;stroke:#000;stroke-linejoin:round;stroke-opacity:1" d="M130.314 261.464c-11.877-18.925-38.765-13.782-48.394 3.74m-2.5 12.056c6.812 3.091 5.627 12.542 5.963 11.835 6.692-7.818 15.466-2.774 18.88 5.781 4.308-8.48 12.076-6.736 18.34-.36-.939-7.882 1.76-7.277 4.335-6.957.28-4.254-.084-7.865-1.084-10.84 3.843 3.773 8.136 7.64 13.063 10.57 2.672-5.832 11.658-5.635 13.098 1.174l32.91-.075 13.812-14.1 29.562 5.59 31.676-7.33c-4.641 7.694-1.686 18.891 3.344 22.493 9.773-12.805 8.096-1.731 16.545 3.195 10.683-11.266 12.584-1.018 23.794 2.107-.364-3.67-3.038-8.93 3.61-7.282-.994-16.8 8.097-.682 11.115.575 2.514-.237 7.676-11.836 12.137-.32l36.922-1.34c2.103-6.083 2.896-12.906-2.874-18.973-2.155-2.266 7.849-8.196 8.751-6.388 5.927 11.874-.137 66.511-51.503 61.046-48.103-5.118-88.238-28.01-153.674-19.908-32.407 4.013-43.187 17.49-42.414 32.712 1.416 27.891 26.333 30.824 48.798 40.75 9.248 9.181 17.997 19.46 30.515 21.449-1.606-3.481-2.213-8.008.403-10.449v.001c4.973 9.541 16.04 16.29 27.192 15.99-1.152-4.388-3.058-8.709-1.717-13.325 3.933 6.356 24.573 13.867 33.148 9.7-3.312-2.895-4.584-9.835-2.433-14.397 23.248 5.063 33.581-3.71 43.634-12.784-21.41 2.682-42.889-.913-53.661-18.745-26.199 1-50.229-6.363-76.428 9.847-52.912-9.178-52.554-50.604 1.909-52.735 68.079-2.665 105.337 19.016 145.706 21.568 31.86 2.014 60.126-15.623 61.973-58.268.848-19.571-8.122-82.054-57.44-80.036-29.891 1.224-31.564 9.407-56.51 1.42-6.574-2.105-20.617-8.372-25.512-10.107-2.008-.712-2.774-9.51-.192-8.496l8.943 3.513s1.436-7.205 1.685-11.035c.65-9.991-.523-15.125-3.154-21.032l5.43-.895c3.416-22.999-14.618-56.205-32.804-55.82.05-3.437-1.825-8.107-8.006-11.072-4.46-.764-13.672.144-15.947 3.674-4.761-3.01-15.846.41-18.558 7.388-1.263 3.252-24.206 2.62-26.829 9.965-.291.816.165 2.763.511 3.833-7.483 4.653-22.345 10.095-22.997 11.498-.909 3.384.332 6.254 2.026 9.076l4.8 9.51h20c3.782.004 3.64 4.012-.04 4.012h-19.714c-4.455 3.5-6.98 10.575-7.53 15.375 7.195-1.63 11.793-2.757 18.984-3.925 2.314-.376 2.989 2.139 1.15 3.066-15.362 7.744-24.992 21.842-29.888 37.709l8.68-.083c-11.027 17.77-1.723 39.055 5.482 47.125-2.738 3.265-6.898 2.703-14.554 2.362-8.331-4.85-12.001-12.317-28.909-11.653-16.907.664-30.993 22.527-18.474 37.536-.287-6.129 3.988-13.347 5.962-14.364-.627 1.5-.683 6.544.558 7.593-1.898 3.55-2.223 7.625-2.5 12.056zm50.894-15.796 24.9-.465 16.714-11.744L155.215 261"/>
    <path style="fill:#fff;fill-opacity:1;stroke:#000;stroke-opacity:1" d="M169.44 116.035c-.838 3.01-5.184 2.86-6.78 1.742-2.472-1.733-1.794-4.882-.558-6.276 1.86 1.566 4.162 3.208 7.338 4.534z"/>
    <path style="fill:none;fill-opacity:1;stroke:#000;stroke-opacity:1" d="M155.215 261c-3.452-2.977-12.013-9.284-17.878-17.27"/>
    <path d="M161.16 109.09c.728 3.812 7.952 7.218 11.322 8M225.213 96.58c.14 11.418-6.597 13.082-11.074 13.863M201.26 89.18c-1.215 1.883-2.397 4.162-1.544 6.868" style="fill:none;fill-rule:evenodd;stroke:#000;stroke-width:1px;stroke-linecap:round;stroke-linejoin:miter;stroke-opacity:1"/>
    <path d="M327.262 215.543c-15.526-3.81-27.628 13.089-27.628 13.089l7.375 20.445 29.741 20.147-16.63-.958c-4.843-4.63-17.566-12.473-32.145-12.134-14.383.336-23.174 9.481-28 16.416" style="fill:none;fill-rule:evenodd;stroke:#000;stroke-width:1px;stroke-linecap:round;stroke-linejoin:round;stroke-opacity:1"/>
    <path d="m198.737 274.288 17.383-19.187-3.515-9.896M135.413 130.94l7.118-2.847" style="fill:none;fill-rule:evenodd;stroke:#000;stroke-width:1px;stroke-linecap:round;stroke-linejoin:miter;stroke-opacity:1"/>
</svg>
