<svg xmlns="http://www.w3.org/2000/svg" width="305.608" height="477.57" xml:space="preserve">
    <switch>
        <g>
            <path d="M290.932 36.978a292.602 292.602 0 0 0-14.514-7.231l-4.271 7.727c1.312.607 2.609 1.241 3.914 1.863l-12.859 13.746c-.379-.142-.756-.29-1.137-.43a313.297 313.297 0 0 0-47.314-13.245l2.295-20.805c1.941.446 3.887.882 5.812 1.368l2.379-8.444a290.599 290.599 0 0 0-37.066-6.854l-.957 8.715c2.148.256 4.281.565 6.416.869l-8.221 20.794a319.408 319.408 0 0 0-32.056-1.634v-.001l-.039.001-.039-.001v.001a319.132 319.132 0 0 0-32.057 1.634l-8.221-20.794c2.135-.304 4.268-.613 6.416-.869l-.957-8.715a290.997 290.997 0 0 0-37.067 6.854l2.379 8.444c1.926-.486 3.871-.922 5.812-1.368l2.295 20.805a313.297 313.297 0 0 0-47.314 13.245c-.381.14-.758.288-1.138.43L30.564 39.336c1.304-.622 2.601-1.256 3.913-1.863l-4.271-7.727a293.511 293.511 0 0 0-14.515 7.231c-4.136 2.212-8.189 4.556-12.203 6.958l5.254 7.072a369.769 369.769 0 0 1 4.521-2.636l8.688 13.594 27.934 43.704h206.852l27.934-43.704 8.689-13.594c1.512.87 3.021 1.745 4.52 2.636l5.254-7.072c-4.01-2.401-8.065-4.745-12.202-6.957z"/>
            <path fill="#FD0" d="M289.479 39.624c-3.738-1.999-7.707-4-11.834-5.965l-1.367 2.473 4.736 2.261-17.023 18.197-2.998-1.121a311.51 311.51 0 0 0-46.863-13.117l-2.703-.533 2.969-26.894s5.648 1.297 6.32 1.453l.754-2.684a289.581 289.581 0 0 0-30.688-5.669l-.305 2.763c.973.133 7.301 1.035 7.301 1.035l-10.453 26.439-2.258-.228c-9.596-.97-19.26-1.509-31.714-1.604h-.078v.001c-12.455.095-22.119.634-31.715 1.604l-2.258.228-10.453-26.439s6.328-.902 7.301-1.035l-.305-2.763a289.647 289.647 0 0 0-30.689 5.669l.756 2.684c.672-.156 6.32-1.453 6.32-1.453l2.967 26.894-2.703.533A311.733 311.733 0 0 0 45.634 55.47l-2.998 1.121-17.024-18.199 4.735-2.261-1.367-2.473a284.253 284.253 0 0 0-11.834 5.965 263.674 263.674 0 0 0-9.226 5.195l1.663 2.239c.74-.431 4.706-2.714 4.706-2.714L40.1 84.727c33.898-14.512 71.084-22.732 113.154-23.137 42.07.404 79.371 8.625 113.271 23.137l25.809-40.384s3.967 2.283 4.707 2.714l1.664-2.239a260.152 260.152 0 0 0-9.226-5.194z"/>
            <path d="M293.36 48.374c.951.55 4.529 2.626 4.529 2.626l5.254-7.074-2.879-1.693a266.352 266.352 0 0 0-9.332-5.254 287.09 287.09 0 0 0-11.957-6.028l-2.551-1.213-4.273 7.729 3.906 1.865-34.832 36.897c-10.59-3.482-18.885-5.714-29.822-7.951l5.639-49.676 5.822 1.347 2.379-8.439-3.029-.731a293.179 293.179 0 0 0-31.008-5.729l-3.031-.393-.961 8.708 2.896.396c.438.06 1.967.276 3.51.495l-19.582 49.099c-6.402-.485-9.789-.225-16.22-.29H155.5l4.797 18.77 18.958-16.057c8.734.789 17.49 1.988 26.092 3.573l-.133 1.185 39.438 11.014 1.416-1.508a283.995 283.995 0 0 1 19.316 7.445l2.338 1.001 25.638-40.114z"/>
            <path fill="#FD0" d="m177.217 63.571 20.6-51.748s-6.328-.902-7.301-1.035l.305-2.763a289.628 289.628 0 0 1 30.688 5.669l-.754 2.684c-.672-.156-6.32-1.453-6.32-1.453l-5.957 53.407 35.23 9.839 37.346-39.778-4.736-2.261 1.367-2.473a284.876 284.876 0 0 1 11.834 5.965 262.755 262.755 0 0 1 9.227 5.195l-1.664 2.239c-.74-.431-4.707-2.714-4.707-2.714l-25.809 40.384c-33.91-14.517-71.166-22.703-110.291-23.103l5.391 15.117 15.551-13.171z"/>
            <path d="M13.266 48.374C12.313 48.923 8.735 51 8.735 51l-5.254-7.074 2.881-1.693a267.277 267.277 0 0 1 9.33-5.254 286.576 286.576 0 0 1 11.959-6.028l2.55-1.213 4.273 7.729-3.905 1.865L65.4 76.229c10.59-3.482 18.885-5.714 29.821-7.951l-5.638-49.676-5.823 1.347-2.377-8.439 3.028-.731A293.197 293.197 0 0 1 115.42 5.05l3.031-.393.961 8.708-2.896.396c-.438.06-1.967.276-3.51.495l19.582 49.099c6.402-.485 9.789-.225 16.221-.29h2.318l-4.797 18.77-18.959-16.057a286.788 286.788 0 0 0-26.092 3.573l.133 1.185-39.437 11.012-1.416-1.508a283.792 283.792 0 0 0-19.316 7.445l-2.339 1.001-25.638-40.112z"/>
            <path fill="#FD0" d="m129.409 63.571-20.6-51.748s6.328-.902 7.301-1.035l-.305-2.763a289.647 289.647 0 0 0-30.689 5.669l.756 2.684c.672-.156 6.32-1.453 6.32-1.453l5.955 53.407-35.229 9.838-37.345-39.778 4.735-2.261-1.367-2.473a284.253 284.253 0 0 0-11.834 5.965 263.674 263.674 0 0 0-9.226 5.195l1.663 2.239c.74-.431 4.706-2.714 4.706-2.714l25.811 40.384C73.97 70.21 111.227 62.024 150.352 61.624l-5.391 15.117-15.552-13.17z"/>
            <path d="M56.977 102.42a8.637 8.637 0 0 0-1.188-6.544L36.731 66.29a8.658 8.658 0 0 0-7.313-3.985 8.656 8.656 0 0 0-4.695 1.385l-1.625-2.521a11.65 11.65 0 0 1 6.32-1.863c3.999 0 7.676 2.004 9.836 5.361L58.31 94.251a11.616 11.616 0 0 1 1.6 8.803l-2.933-.634zM54.887 66.991c12.959-4.595 26.357-8.299 39.9-11.063V52.86a300.872 300.872 0 0 0-42.235 11.778l2.335 2.353zM60.035 72.679a293.695 293.695 0 0 1 34.752-9.566v-3.066a296.041 296.041 0 0 0-37.099 10.269l2.347 2.363zM47.999 58.778l-.678.254 2.326 2.344a303.95 303.95 0 0 1 45.091-12.575l.049-.01v-3.058l-.629.124a307.056 307.056 0 0 0-46.159 12.921zM246.715 103.054a11.613 11.613 0 0 1 1.602-8.803l19.055-29.586a11.647 11.647 0 0 1 9.836-5.361c2.242 0 4.428.645 6.32 1.863l-1.625 2.521a8.664 8.664 0 0 0-4.695-1.385 8.658 8.658 0 0 0-7.314 3.985l-19.057 29.587a8.632 8.632 0 0 0-1.188 6.544l-2.934.635zM258.627 58.778l.676.254-2.324 2.344a304.03 304.03 0 0 0-45.092-12.575l-.049-.01v-3.058l.629.124a307.035 307.035 0 0 1 46.16 12.921zM184.631 41.634c-10.438-1.02-20.945-1.65-31.31-1.731h-.016c-10.365.081-20.873.712-31.311 1.731l1.322 2.887c10.002-.952 19.984-1.539 29.996-1.617 10.012.078 19.994.665 29.996 1.617l1.323-2.887zM251.739 66.991c-12.959-4.595-26.357-8.299-39.9-11.063V52.86a300.82 300.82 0 0 1 42.234 11.778l-2.334 2.353zM181.737 48.289c-9.725-.914-19.4-1.476-28.406-1.553v-.001h-.036v.001c-9.006.077-18.682.639-28.406 1.553l1.32 2.887c9.287-.848 18.449-1.365 27.104-1.439 8.654.074 17.816.592 27.103 1.439l1.321-2.887zM246.59 72.679a293.695 293.695 0 0 0-34.752-9.566v-3.066a296.103 296.103 0 0 1 37.1 10.269l-2.348 2.363zM178.862 55.068c-8.846-.785-17.535-1.268-25.546-1.27l-.002.188-.002-.188c-8.012.002-16.701.484-25.547 1.27l1.324 2.896c8.391-.723 16.568-1.166 24.225-1.166s15.833.443 24.224 1.166l1.324-2.896z"/>
            <path fill-rule="evenodd" clip-rule="evenodd" fill="#E2001A" d="M295.043 328.978V106.555H11.58v222.423c0 29.342 8.896 56.602 24.134 79.229h235.197c15.236-22.627 24.132-49.887 24.132-79.229z"/>
            <path d="M271.655 409.607H34.969l-.416-.618c-15.944-23.678-24.373-51.345-24.373-80.011V105.155h286.264v223.823c0 28.665-8.428 56.333-24.371 80.011l-.418.618zm-235.194-2.801h233.702c15.365-23.076 23.48-49.971 23.48-77.828V107.956H12.98v221.022c0 27.858 8.117 54.752 23.481 77.828z"/>
            <path fill-rule="evenodd" clip-rule="evenodd" fill="#FD0" d="M236.696 267.75H93.242a2.427 2.427 0 0 1 0-4.854h143.454v4.854z"/>
            <path d="M235.284 269.15H93.242a3.83 3.83 0 0 1-3.827-3.826 3.832 3.832 0 0 1 3.827-3.828h144.987v7.653h-2.945zm-142.042-4.853a1.028 1.028 0 0 0 0 2.054h142.042v-2.054H93.242z"/>
            <path fill-rule="evenodd" clip-rule="evenodd" fill="#FD0" d="M155.935 400.179V167.448c0-1.846-1.436-3.342-3.209-3.342-1.77 0-3.209 1.496-3.209 3.342v232.731h6.418z"/>
            <path d="M157.334 401.58h-9.218V167.448c0-2.615 2.067-4.742 4.609-4.742s4.609 2.127 4.609 4.742V401.58zm-6.417-2.801h3.618V167.448c0-1.071-.812-1.942-1.809-1.942s-1.809.871-1.809 1.942v231.331z"/>
            <path fill-rule="evenodd" clip-rule="evenodd" fill="#FD0" d="M35.714 408.207c25.46 37.811 68.627 62.678 117.598 62.678 48.97 0 92.138-24.867 117.599-62.678H35.714z"/>
            <path d="M153.312 472.285c-47.676 0-92.071-23.662-118.759-63.296l-1.47-2.183h240.458l-1.469 2.183c-26.689 39.634-71.085 63.296-118.76 63.296zM38.374 409.607c26.311 37.544 69.076 59.877 114.938 59.877 45.861 0 88.626-22.333 114.939-59.877H38.374z"/>
            <path fill-rule="evenodd" clip-rule="evenodd" fill="#FD0" d="m147.116 255.657 5.586-15.244 5.578 15.243 15.992-2.783-10.41 12.452 10.404 12.453-15.98-2.781-5.586 15.238-5.59-15.239-15.986 2.785 10.412-12.458-10.412-12.45z"/>
            <path d="m152.7 294.301-6.502-17.726-18.6 3.24 12.113-14.493-12.115-14.485 18.607 3.239 6.498-17.735 6.49 17.734 18.605-3.238-12.111 14.487 12.104 14.487-18.591-3.235-6.498 17.725zm-4.678-20.885 4.678 12.753 4.674-12.752 13.369 2.327-8.705-10.419 8.708-10.418-13.378 2.329-4.666-12.752-4.674 12.753-13.377-2.329 8.709 10.415-8.711 10.423 13.373-2.33z"/>
            <path fill-rule="evenodd" clip-rule="evenodd" fill="#FD0" d="M159.356 162.971c0 2.596-3.994 4.701-6.631 4.701s-6.631-2.105-6.631-4.701l6.631-33.997 6.631 33.997z"/>
            <path d="M152.726 169.073c-3.234 0-8.031-2.562-8.031-6.102l.025-.268 8.006-41.043 8.031 41.311c0 3.539-4.797 6.102-8.031 6.102zm-5.227-5.992c.141 1.533 3.162 3.191 5.227 3.191s5.086-1.658 5.227-3.191l-5.227-26.793-5.227 26.793z"/>
            <path fill-rule="evenodd" clip-rule="evenodd" fill="#FD0" d="M56.072 408.207v-24.412c1.813 1.141 5.074 2.072 10.403.1 10.42-3.857 6.218-18.543 5.161-23.633-1.157-5.574-.118-15.447-.118-15.447s-4.858 3.473-6.934 6.934c-2.836 4.729-2.312 5.365-3.888 11.668-.897 3.59-2.989 5.033-4.625 5.611V317.53c1.813 1.142 5.074 2.072 10.402.1 10.42-3.857 6.218-18.543 5.161-23.633-1.157-5.574-.118-15.447-.118-15.447s-4.858 3.473-6.934 6.934c-2.836 4.729-2.312 5.365-3.888 11.668-.897 3.59-2.988 5.032-4.624 5.611v-48.94c1.813 1.142 5.074 2.072 10.403.1 10.42-3.857 6.218-18.543 5.161-23.633-1.157-5.574-.118-15.447-.118-15.447s-4.858 3.473-6.934 6.934c-2.836 4.729-2.312 5.365-3.888 11.668-.897 3.59-2.989 5.033-4.625 5.612v-29.502a3.98 3.98 0 0 0-7.96 0v29.502c-1.636-.58-3.727-2.022-4.624-5.612-1.576-6.303-1.052-6.939-3.888-11.668-2.075-3.461-6.934-6.934-6.934-6.934s1.039 9.873-.118 15.447c-1.057 5.09-5.259 19.775 5.161 23.633 5.328 1.973 8.589 1.042 10.402-.1v48.941c-1.636-.579-3.728-2.022-4.625-5.612-1.576-6.303-1.052-6.939-3.888-11.668-2.075-3.461-6.934-6.934-6.934-6.934s1.039 9.873-.118 15.447c-1.057 5.09-5.259 19.775 5.161 23.633 5.329 1.973 8.59 1.042 10.403-.1v51.498c-1.636-.578-3.727-2.021-4.624-5.611-1.576-6.303-1.052-6.939-3.888-11.668-2.075-3.461-6.934-6.934-6.934-6.934s1.039 9.873-.118 15.447c-1.057 5.09-5.259 19.775 5.161 23.633 5.328 1.973 8.589 1.041 10.402-.1v24.412h7.966z"/>
            <path d="M57.473 409.607H46.711v-23.643c-2.64.823-5.882.578-9.488-.758-10.771-3.987-7.659-17.96-6.33-23.927l.284-1.303c1.101-5.3.107-14.92.097-15.017l-.325-3.096 2.532 1.811c.208.148 5.12 3.684 7.32 7.353 2.205 3.677 2.519 5.155 3.145 8.101.222 1.043.488 2.299.9 3.947.373 1.495.998 2.662 1.865 3.49v-46.867c-2.637.825-5.879.579-9.489-.758-10.771-3.987-7.659-17.96-6.33-23.927l.284-1.303c1.1-5.294.107-14.92.097-15.017l-.325-3.095 2.532 1.81c.208.148 5.12 3.684 7.32 7.353 2.205 3.677 2.519 5.155 3.145 8.101.222 1.043.488 2.299.9 3.947.373 1.494.998 2.661 1.866 3.491v-44.311c-2.637.824-5.882.578-9.488-.758-10.771-3.987-7.659-17.96-6.33-23.927l.284-1.303c1.101-5.3.107-14.92.097-15.017l-.325-3.096 2.532 1.811c.208.148 5.12 3.684 7.32 7.353 2.205 3.677 2.519 5.155 3.145 8.101.222 1.043.488 2.299.9 3.947.373 1.493.998 2.66 1.865 3.489V209.55c0-2.967 2.414-5.381 5.381-5.381s5.381 2.414 5.381 5.381v27.041c.868-.829 1.493-1.997 1.866-3.491.412-1.648.679-2.904.9-3.947.626-2.945.939-4.424 3.146-8.101 2.199-3.669 7.111-7.204 7.319-7.353l2.532-1.81-.325 3.095c-.011.097-1.003 9.723.097 15.017l.284 1.303c1.329 5.967 4.44 19.939-6.33 23.927-3.61 1.335-6.854 1.582-9.489.758v44.309c.867-.829 1.492-1.995 1.865-3.489.412-1.648.679-2.904.9-3.947.626-2.945.939-4.424 3.146-8.101 2.199-3.669 7.111-7.204 7.319-7.353l2.532-1.81-.325 3.095c-.011.097-1.003 9.723.097 15.017l.284 1.303c1.329 5.967 4.44 19.939-6.33 23.927-3.606 1.336-6.852 1.584-9.488.758v46.868c.868-.829 1.493-1.996 1.866-3.491.412-1.648.679-2.904.9-3.947.626-2.945.939-4.424 3.146-8.101 2.199-3.669 7.111-7.204 7.319-7.353l2.532-1.81-.325 3.095c-.011.097-1.003 9.723.097 15.017l.284 1.303c1.329 5.967 4.44 19.939-6.33 23.927-3.608 1.336-6.852 1.578-9.489.758v23.643zm-7.961-2.801h5.16V381.26l2.146 1.349c2.188 1.377 5.381 1.377 9.172-.027 8.479-3.14 5.839-14.995 4.569-20.692l-.293-1.344c-.773-3.726-.617-9.157-.402-12.606-1.417 1.239-3.104 2.904-4.077 4.528-1.965 3.276-2.194 4.356-2.808 7.243-.228 1.068-.501 2.355-.923 4.045-1.053 4.208-3.581 5.907-5.517 6.592l-1.867.659v-56.013l2.146 1.351c2.186 1.376 5.381 1.375 9.17-.028 8.479-3.14 5.839-14.995 4.569-20.692l-.293-1.344c-.773-3.726-.617-9.157-.402-12.606-1.417 1.239-3.104 2.904-4.077 4.528-1.966 3.276-2.194 4.356-2.808 7.243-.228 1.068-.501 2.355-.923 4.045-1.052 4.206-3.58 5.906-5.516 6.591l-1.867.661v-53.456l2.146 1.351c2.185 1.376 5.379 1.375 9.171-.028 8.479-3.14 5.839-14.995 4.569-20.692l-.293-1.344c-.773-3.726-.617-9.157-.402-12.606-1.417 1.239-3.104 2.904-4.077 4.528-1.965 3.276-2.194 4.356-2.808 7.243-.228 1.068-.501 2.355-.923 4.045-1.052 4.207-3.58 5.907-5.517 6.592l-1.867.661v-31.482c0-1.423-1.157-2.58-2.58-2.58s-2.58 1.157-2.58 2.58v31.483l-1.868-.662c-1.936-.687-4.463-2.387-5.515-6.592-.422-1.689-.695-2.977-.923-4.045-.613-2.887-.842-3.967-2.807-7.243-.975-1.624-2.661-3.289-4.078-4.528.215 3.449.371 8.881-.402 12.606l-.293 1.344c-1.27 5.697-3.91 17.553 4.569 20.692 3.791 1.403 6.984 1.404 9.17.028l2.146-1.351v53.457l-1.867-.661c-1.937-.685-4.465-2.385-5.517-6.592-.422-1.689-.695-2.977-.923-4.045-.613-2.887-.843-3.967-2.807-7.243-.977-1.628-2.662-3.292-4.079-4.53.216 3.45.372 8.882-.401 12.608l-.293 1.344c-1.27 5.697-3.91 17.553 4.569 20.692 3.792 1.403 6.985 1.404 9.171.028l2.146-1.351v56.013l-1.867-.659c-1.936-.685-4.463-2.383-5.516-6.592-.422-1.689-.695-2.977-.923-4.045-.613-2.887-.842-3.967-2.807-7.243-.975-1.624-2.661-3.289-4.078-4.528.215 3.449.371 8.881-.402 12.606l-.293 1.344c-1.27 5.697-3.91 17.553 4.569 20.692 3.787 1.403 6.982 1.403 9.171.027l2.146-1.349v25.546h.004zM156.274 102.943V61.625c39.125.399 76.38 8.586 110.291 23.103l-11.643 18.214-98.648.001z"/>
            <path fill-rule="evenodd" clip-rule="evenodd" fill="#FD0" d="M80.299 125.597s24.153 14.796 24.153 44.723v220.164l11.441 9.932h6.779V174.135c0-42.164-41.104-51.08-41.104-51.08l-1.269 2.542z"/>
            <path d="M124.073 401.816h-8.703l-12.318-10.693V170.32c0-28.81-23.249-43.385-23.484-43.529l-1.095-.67 2.33-4.665 1.063.23c.422.092 42.207 9.65 42.207 52.448v227.682zm-7.656-2.801h4.855V174.134c0-37.289-32.503-47.747-38.95-49.454l-.223.445c4.759 3.371 23.753 18.504 23.753 45.194v219.525l10.565 9.171z"/>
            <path d="M117.372 400.416h-2.801s.016-210.999 0-228.865c-.027-32.008-33.093-45.903-33.427-46.04l1.061-2.592c.352.144 35.138 14.765 35.167 48.63.016 17.866 0 228.867 0 228.867z"/>
            <circle fill-rule="evenodd" clip-rule="evenodd" fill="#FD0" cx="78.198" cy="123.097" r="2.917"/>
            <path d="M78.197 127.415c-2.381 0-4.317-1.937-4.317-4.317s1.937-4.318 4.317-4.318 4.318 1.938 4.318 4.318-1.937 4.317-4.318 4.317zm0-5.835a1.518 1.518 0 1 0 .002 3.034 1.518 1.518 0 0 0-.002-3.034z"/>
            <path fill-rule="evenodd" clip-rule="evenodd" fill="#FD0" d="M94.451 248.497h21.521v-10.826h-11.52l-10.859 10.824 10.859 10.822v-10.598"/>
            <path d="M105.853 262.689 91.61 248.495l12.265-12.224h13.498v13.626h-11.52v12.792zm-8.871-12.792 6.069 6.048v-6.048h-6.069zm-.003-2.801h17.593v-8.024h-9.541l-8.052 8.024z"/>
            <path fill="#FD0" d="M71.268 181.897c4.555-2.66 6.113-8.5 3.473-13.076-2.641-4.572-8.477-6.145-13.063-3.531-.027-5.273-4.305-9.541-9.586-9.541-5.282 0-9.56 4.268-9.589 9.541-4.584-2.609-10.418-1.039-13.057 3.533a9.589 9.589 0 0 0 3.469 13.074c-4.551 2.664-6.107 8.502-3.469 13.074 2.641 4.572 8.473 6.146 13.057 3.535.027 5.273 4.307 9.541 9.589 9.541 5.281 0 9.559-4.27 9.586-9.543 4.583 2.613 10.419 1.043 13.063-3.533 2.64-4.572 1.081-10.414-3.473-13.074z"/>
            <path d="M52.091 209.448c-5.324 0-9.791-3.826-10.783-8.873-1.141.39-2.342.592-3.55.592a11.026 11.026 0 0 1-9.524-5.495c-2.659-4.607-1.579-10.389 2.293-13.773-3.873-3.383-4.953-9.164-2.294-13.774a11.023 11.023 0 0 1 9.523-5.494c1.209 0 2.41.202 3.552.593.994-5.047 5.461-8.874 10.783-8.874s9.788 3.826 10.78 8.873a10.97 10.97 0 0 1 3.556-.594c3.919 0 7.569 2.104 9.525 5.493 2.661 4.611 1.58 10.394-2.295 13.776 3.877 3.384 4.958 9.164 2.295 13.774a11.033 11.033 0 0 1-9.526 5.496h-.001c-1.209 0-2.411-.203-3.554-.595-.992 5.048-5.458 8.875-10.78 8.875zm-8.201-13.343.013 2.395c.022 4.492 3.696 8.147 8.188 8.147 4.49 0 8.163-3.656 8.186-8.149l.013-2.396 2.081 1.187a8.214 8.214 0 0 0 4.056 1.078 8.224 8.224 0 0 0 7.103-4.096c2.246-3.89.915-8.897-2.967-11.165l-2.07-1.209 2.07-1.209c3.881-2.267 5.212-7.276 2.966-11.167a8.22 8.22 0 0 0-7.101-4.094 8.211 8.211 0 0 0-4.057 1.079l-2.081 1.185-.013-2.395c-.022-4.492-3.695-8.147-8.186-8.147s-8.164 3.655-8.188 8.148l-.014 2.393-2.079-1.184a8.208 8.208 0 0 0-4.054-1.077 8.213 8.213 0 0 0-7.098 4.094c-2.244 3.89-.915 8.898 2.962 11.165l2.066 1.208-2.065 1.209c-3.877 2.271-5.207 7.279-2.963 11.166a8.222 8.222 0 0 0 7.1 4.096 8.197 8.197 0 0 0 4.051-1.077l2.081-1.185z"/>
            <circle fill-rule="evenodd" clip-rule="evenodd" fill="#FD0" cx="52.092" cy="181.898" r="8.343"/>
            <path d="M52.092 191.641c-5.372 0-9.743-4.371-9.743-9.743s4.371-9.743 9.743-9.743 9.743 4.371 9.743 9.743-4.371 9.743-9.743 9.743zm0-16.685c-3.828 0-6.942 3.114-6.942 6.942s3.114 6.942 6.942 6.942 6.942-3.114 6.942-6.942-3.114-6.942-6.942-6.942z"/>
            <path fill-rule="evenodd" clip-rule="evenodd" fill="#FD0" d="M249.391 408.207v-24.412c-1.812 1.141-5.074 2.072-10.402.1-10.422-3.857-6.219-18.543-5.162-23.633 1.158-5.574.119-15.447.119-15.447s4.857 3.473 6.934 6.934c2.836 4.729 2.311 5.365 3.887 11.668.898 3.59 2.988 5.033 4.625 5.611V317.53c-1.812 1.142-5.074 2.072-10.402.1-10.42-3.857-6.219-18.543-5.16-23.633 1.156-5.574.117-15.447.117-15.447s4.859 3.473 6.934 6.934c2.836 4.729 2.312 5.365 3.887 11.668.898 3.59 2.988 5.032 4.625 5.611v-48.94c-1.812 1.142-5.074 2.072-10.402.1-10.422-3.857-6.219-18.543-5.162-23.633 1.158-5.574.119-15.447.119-15.447s4.857 3.473 6.934 6.934c2.836 4.729 2.311 5.365 3.887 11.668.898 3.59 2.988 5.033 4.625 5.612v-29.502a3.98 3.98 0 1 1 7.96 0v29.502c1.637-.58 3.727-2.022 4.625-5.612 1.574-6.303 1.051-6.939 3.887-11.668 2.074-3.461 6.934-6.934 6.934-6.934s-1.039 9.873.117 15.447c1.059 5.09 5.258 19.775-5.16 23.633-5.328 1.973-8.59 1.042-10.402-.1v48.941c1.637-.579 3.727-2.022 4.625-5.612 1.574-6.303 1.051-6.939 3.887-11.668 2.074-3.461 6.934-6.934 6.934-6.934s-1.039 9.873.117 15.447c1.059 5.09 5.262 19.775-5.16 23.633-5.328 1.973-8.59 1.042-10.402-.1v51.498c1.637-.578 3.727-2.021 4.625-5.611 1.574-6.303 1.051-6.939 3.887-11.668 2.074-3.461 6.934-6.934 6.934-6.934s-1.039 9.873.117 15.447c1.059 5.09 5.258 19.775-5.16 23.633-5.328 1.973-8.59 1.041-10.402-.1v24.412h-7.966z"/>
            <path d="M258.752 409.607H247.99v-23.643c-2.635.821-5.881.578-9.488-.758-10.771-3.987-7.66-17.959-6.332-23.926l.285-1.304c1.1-5.294.107-14.92.098-15.017l-.324-3.095 2.531 1.81c.207.148 5.119 3.684 7.32 7.353 2.205 3.676 2.518 5.153 3.143 8.099.223 1.043.488 2.3.9 3.949.375 1.495 1 2.662 1.867 3.491v-46.868c-2.635.825-5.881.579-9.488-.758-10.775-3.988-7.658-17.965-6.328-23.934l.283-1.297c1.1-5.299.105-14.919.096-15.016l-.326-3.095 2.533 1.81c.207.148 5.121 3.684 7.32 7.353 2.205 3.679 2.52 5.158 3.146 8.106.221 1.041.486 2.296.896 3.942.375 1.493 1 2.66 1.867 3.489v-44.31c-2.635.825-5.881.578-9.488-.758-10.771-3.987-7.66-17.959-6.332-23.926l.285-1.304c1.102-5.3.107-14.92.098-15.017l-.326-3.096 2.533 1.811c.207.148 5.119 3.684 7.32 7.353 2.205 3.676 2.518 5.153 3.143 8.099.223 1.043.488 2.3.9 3.949.375 1.495 1 2.662 1.867 3.491v-27.041c0-2.967 2.414-5.381 5.381-5.381s5.381 2.414 5.381 5.381v27.04c.867-.83 1.492-1.996 1.867-3.49a105 105 0 0 0 .896-3.941c.627-2.948.941-4.428 3.146-8.106 2.199-3.669 7.113-7.204 7.32-7.353l2.531-1.81-.324 3.095c-.01.097-1.002 9.723.096 15.017l.283 1.295c1.33 5.968 4.445 19.945-6.328 23.935-3.605 1.337-6.852 1.583-9.488.758V300.3c.867-.829 1.492-1.997 1.867-3.491a105 105 0 0 0 .896-3.941c.627-2.948.941-4.428 3.146-8.106 2.199-3.669 7.113-7.204 7.32-7.353l2.531-1.81-.324 3.095c-.01.097-1.002 9.723.096 15.017l.283 1.298c1.332 5.968 4.447 19.943-6.328 23.932-3.605 1.335-6.852 1.583-9.488.758v46.868c.867-.829 1.492-1.996 1.867-3.491a105 105 0 0 0 .896-3.941c.627-2.948.941-4.428 3.146-8.106 2.199-3.669 7.113-7.204 7.32-7.353l2.531-1.81-.324 3.095c-.01.097-1.002 9.723.096 15.017l.283 1.295c1.33 5.968 4.445 19.945-6.328 23.935-3.607 1.337-6.852 1.581-9.488.758v23.641h.004zm-7.96-2.801h5.16v-25.547l2.146 1.351c2.184 1.374 5.379 1.376 9.17-.028 8.482-3.141 5.838-15.001 4.566-20.701l-.291-1.334c-.773-3.727-.615-9.158-.4-12.607-1.418 1.239-3.105 2.903-4.078 4.528-1.967 3.278-2.195 4.359-2.809 7.248-.227 1.067-.5 2.353-.922 4.039-1.053 4.211-3.58 5.909-5.516 6.593l-1.867.659v-56.014l2.146 1.352c2.186 1.376 5.379 1.375 9.17-.028 8.482-3.141 5.84-14.998 4.568-20.697l-.293-1.338c-.773-3.727-.615-9.158-.4-12.607-1.418 1.239-3.105 2.903-4.078 4.528-1.967 3.278-2.195 4.359-2.809 7.248-.227 1.067-.5 2.353-.922 4.039-1.053 4.209-3.58 5.908-5.516 6.593l-1.867.661v-53.458l2.146 1.352c2.186 1.376 5.379 1.375 9.17-.028 8.482-3.141 5.838-15.001 4.566-20.701l-.291-1.334c-.773-3.727-.615-9.158-.4-12.607-1.418 1.239-3.105 2.903-4.078 4.528-1.967 3.278-2.195 4.359-2.809 7.248-.227 1.067-.5 2.353-.922 4.039-1.053 4.207-3.58 5.907-5.516 6.593l-1.867.662v-31.483c0-1.423-1.156-2.58-2.58-2.58s-2.58 1.157-2.58 2.58v31.482l-1.867-.661c-1.936-.685-4.463-2.384-5.516-6.592-.424-1.69-.697-2.979-.924-4.048-.613-2.886-.842-3.965-2.807-7.24-.977-1.628-2.662-3.291-4.078-4.53.215 3.45.371 8.882-.402 12.609l-.293 1.344c-1.27 5.697-3.91 17.552 4.57 20.691 3.789 1.403 6.986 1.404 9.17.028l2.146-1.352v53.457l-1.867-.661c-1.936-.685-4.463-2.384-5.516-6.591-.422-1.688-.695-2.973-.922-4.04-.613-2.889-.842-3.97-2.809-7.248-.973-1.625-2.66-3.289-4.078-4.528.215 3.449.373 8.881-.4 12.606l-.293 1.337c-1.27 5.699-3.914 17.559 4.568 20.699 3.789 1.403 6.986 1.404 9.17.028l2.146-1.352v56.014l-1.867-.659c-1.936-.684-4.463-2.382-5.516-6.592-.424-1.69-.697-2.979-.924-4.048-.613-2.886-.842-3.965-2.807-7.24-.977-1.628-2.662-3.291-4.078-4.53.215 3.45.371 8.883-.402 12.609l-.293 1.344c-1.27 5.697-3.91 17.552 4.57 20.691 3.797 1.405 6.99 1.402 9.17.028l2.146-1.351v25.547h.006z"/>
            <path fill-rule="evenodd" clip-rule="evenodd" fill="#FD0" d="M225.165 125.597s-24.152 14.796-24.152 44.723v220.164l-11.441 9.932h-6.781V174.135c0-42.164 41.105-51.08 41.105-51.08l1.269 2.542z"/>
            <path d="M190.094 401.816h-8.705V174.134c0-42.798 41.787-52.356 42.209-52.448l1.062-.23 2.328 4.663-1.092.672c-.234.145-23.484 14.774-23.484 43.529v220.803l-12.318 10.693zm-5.904-2.801h4.857l10.564-9.17V170.32c0-26.692 18.996-41.824 23.752-45.194l-.223-.445c-6.447 1.707-38.951 12.165-38.951 49.454v224.88h.001z"/>
            <path d="M188.092 400.416s-.016-211.001 0-228.867c.027-33.865 34.816-48.486 35.168-48.63l1.061 2.592c-.334.137-33.402 14.074-33.428 46.04-.016 17.866 0 228.865 0 228.865h-2.801z"/>
            <circle fill-rule="evenodd" clip-rule="evenodd" fill="#FD0" cx="227.266" cy="123.097" r="2.916"/>
            <path d="M227.266 127.415c-2.379 0-4.316-1.937-4.316-4.317s1.938-4.318 4.316-4.318 4.316 1.938 4.316 4.318-1.937 4.317-4.316 4.317zm0-5.835a1.519 1.519 0 0 0 0 3.035 1.518 1.518 0 0 0 0-3.035z"/>
            <path fill-rule="evenodd" clip-rule="evenodd" fill="#FD0" d="M211.012 248.497h-21.519v-10.826h11.519l10.86 10.824-10.86 10.822v-10.598"/>
            <path d="M199.612 262.689v-12.792h-11.52v-13.626h13.498l12.264 12.224-14.242 14.194zm2.801-12.792v6.048l6.068-6.048h-6.068zm-11.52-2.801h17.592l-8.051-8.024h-9.541v8.024z"/>
            <path fill="#FD0" d="M234.196 181.897c-4.555-2.66-6.113-8.5-3.473-13.076 2.641-4.572 8.477-6.145 13.062-3.531.027-5.273 4.305-9.541 9.586-9.541s9.559 4.268 9.59 9.541c4.582-2.609 10.418-1.039 13.055 3.533 2.641 4.574 1.086 10.412-3.469 13.074 4.551 2.664 6.109 8.502 3.469 13.074s-8.473 6.146-13.055 3.535c-.027 5.273-4.309 9.541-9.59 9.541s-9.559-4.27-9.586-9.543c-4.582 2.613-10.418 1.043-13.062-3.533-2.64-4.572-1.082-10.414 3.473-13.074z"/>
            <path d="M253.372 209.448c-5.322 0-9.789-3.826-10.781-8.875a10.948 10.948 0 0 1-3.553.595 11.033 11.033 0 0 1-9.527-5.496c-2.662-4.61-1.58-10.391 2.297-13.774-3.877-3.383-4.957-9.165-2.297-13.776a11.027 11.027 0 0 1 9.525-5.493c1.211 0 2.412.202 3.555.594.992-5.047 5.459-8.873 10.781-8.873 5.32 0 9.789 3.826 10.783 8.874a10.96 10.96 0 0 1 3.551-.593 11.02 11.02 0 0 1 9.523 5.494c2.66 4.609 1.58 10.391-2.295 13.774 3.875 3.386 4.955 9.167 2.295 13.773a11.029 11.029 0 0 1-9.525 5.495c-1.207 0-2.408-.201-3.547-.592-.994 5.047-5.461 8.873-10.785 8.873zm-8.2-13.347.014 2.396c.023 4.493 3.695 8.149 8.186 8.149 4.492 0 8.166-3.655 8.189-8.147l.014-2.396 2.08 1.186a8.19 8.19 0 0 0 4.049 1.077 8.22 8.22 0 0 0 7.1-4.096c2.244-3.887.916-8.896-2.963-11.166l-2.066-1.209 2.066-1.208c3.879-2.267 5.209-7.275 2.963-11.165a8.212 8.212 0 0 0-7.098-4.094 8.195 8.195 0 0 0-4.051 1.077l-2.08 1.184-.014-2.393c-.025-4.493-3.699-8.148-8.189-8.148s-8.162 3.655-8.186 8.147l-.014 2.396-2.08-1.186a8.205 8.205 0 0 0-4.057-1.079 8.215 8.215 0 0 0-7.1 4.094c-2.246 3.891-.916 8.9 2.967 11.167l2.068 1.209-2.068 1.209c-3.883 2.268-5.213 7.275-2.967 11.165a8.225 8.225 0 0 0 7.102 4.096 8.216 8.216 0 0 0 4.055-1.078l2.08-1.187z"/>
            <circle fill-rule="evenodd" clip-rule="evenodd" fill="#FD0" cx="253.372" cy="181.898" r="8.344"/>
            <path d="M253.372 191.641c-5.373 0-9.744-4.371-9.744-9.743s4.371-9.743 9.744-9.743 9.744 4.371 9.744 9.743-4.371 9.743-9.744 9.743zm0-16.685c-3.828 0-6.943 3.114-6.943 6.942s3.115 6.942 6.943 6.942 6.943-3.114 6.943-6.942-3.115-6.942-6.943-6.942z"/>
            <path fill-rule="evenodd" clip-rule="evenodd" fill="#FD0" d="M162.44 163.325c.424-1.978.033-3.938-.971-5.612H143.93c-1.002 1.674-1.393 3.635-.967 5.612.51 2.378 3.555 4.302 6.053 5.513h7.363c2.503-1.212 5.55-3.135 6.061-5.513z"/>
            <path d="M156.7 170.238h-8.006l-.289-.141c-4.014-1.946-6.307-4.126-6.811-6.479-.482-2.242-.08-4.596 1.135-6.624l.408-.682h19.125l.408.681c1.215 2.026 1.619 4.38 1.139 6.625-.508 2.355-2.801 4.535-6.82 6.479l-.289.141zm-7.357-2.801h6.711c2.902-1.447 4.725-3.046 5.018-4.407a6.17 6.17 0 0 0-.443-3.917h-15.855a6.176 6.176 0 0 0-.439 3.917c.289 1.361 2.109 2.959 5.008 4.407z"/>
            <path fill-rule="evenodd" clip-rule="evenodd" fill="#FD0" d="m142.007 163.391-7.879-6.875h37.197l-7.879 6.875z"/>
            <path d="M163.972 164.792h-22.49l-11.088-9.676h44.666l-11.088 9.676zm-21.44-2.801h20.389l4.669-4.074h-29.728l4.67 4.074z"/>
            <path fill-rule="evenodd" clip-rule="evenodd" fill="#FD0" d="M90.641 260.6c1.848 0 3.348 2.846 3.348 4.725 0 1.878-1.5 4.724-3.348 4.724l-24.224-4.724 24.224-4.725z"/>
            <path d="m90.641 271.449-.268-.026-31.27-6.098L90.64 259.2c2.854 0 4.748 3.687 4.748 6.125.001 2.437-1.893 6.124-4.747 6.124zm-16.911-6.124 17.001 3.314c.743-.139 1.856-1.906 1.856-3.314 0-1.409-1.113-3.177-1.856-3.315l-17.001 3.315z"/>
            <path fill-rule="evenodd" clip-rule="evenodd" fill="#FD0" d="M90.982 257.022c-1.689-.36-3.364-.027-4.796.83v14.988c1.432.857 3.106 1.19 4.796.827 2.033-.436 3.679-3.038 4.713-5.173v-6.293c-1.034-2.138-2.679-4.741-4.713-5.179z"/>
            <path d="M89.622 275.313a8.197 8.197 0 0 1-4.206-1.186l-.729-.438v-16.688l.729-.438c1.79-1.073 3.895-1.434 5.879-1.01 2.114.456 4.048 2.472 5.751 5.993l.149.31v6.98l-.15.311c-1.705 3.52-3.639 5.533-5.748 5.985a7.89 7.89 0 0 1-1.675.181zm-1.935-3.393a5.036 5.036 0 0 0 2.98.28c1.065-.228 2.343-1.7 3.528-4.056v-5.594c-1.185-2.358-2.462-3.833-3.529-4.063a5.057 5.057 0 0 0-2.979.284v13.149z"/>
            <path fill-rule="evenodd" clip-rule="evenodd" fill="#FD0" d="m91.04 274.196-5.876 7.022v-31.789l5.876 7.026z"/>
            <path d="M83.664 285.348v-40.051l8.876 10.612v18.831l-8.876 10.608zm3-31.787v23.527l2.876-3.438V257l-2.876-3.439zM113.497 77.972c-3.596 0-6.703-2.451-7.391-5.828l-5.562-27.427c-.799-3.968 1.926-7.88 6.072-8.722a8.105 8.105 0 0 1 1.604-.162c3.598 0 6.705 2.452 7.391 5.831l5.561 27.425c.393 1.938-.033 3.916-1.199 5.57-1.146 1.628-2.877 2.747-4.873 3.151a8.058 8.058 0 0 1-1.603.162zm-5.277-39.139c-.332 0-.668.033-1.006.102-2.529.514-4.201 2.841-3.729 5.188l5.562 27.424c.463 2.284 2.887 3.844 5.455 3.324 1.24-.252 2.312-.941 3.018-1.94.686-.973.938-2.125.709-3.245l-5.561-27.426c-.401-1.985-2.272-3.427-4.448-3.427zM193.387 76.366a8.079 8.079 0 0 1-1.6-.161c-1.998-.404-3.729-1.523-4.875-3.151-1.166-1.654-1.592-3.633-1.199-5.571l5.561-27.424c.686-3.379 3.793-5.831 7.391-5.831a8.12 8.12 0 0 1 1.604.162c4.146.842 6.871 4.754 6.072 8.72l-5.562 27.428c-.689 3.377-3.796 5.828-7.392 5.828zm5.278-39.139c-2.176 0-4.047 1.441-4.449 3.427l-5.561 27.425c-.229 1.121.023 2.273.709 3.246.705.999 1.777 1.688 3.02 1.94 2.547.518 4.99-1.039 5.453-3.325l5.562-27.425c.473-2.346-1.199-4.673-3.729-5.187a5.076 5.076 0 0 0-1.005-.101z"/>
            <path d="M150.353 102.943V61.625c-39.125.399-76.382 8.586-110.291 23.103l11.642 18.214 98.649.001z"/>
            <g fill-rule="evenodd" clip-rule="evenodd" fill="#FD0">
                <path d="m101.638 82.501-5.816 1.192-2.055-8.371 5.863-1.227zM91.932 84.534l-5.709 1.382-2.433-8.245 5.756-1.421zM82.402 86.886l-5.591 1.571-2.796-8.106 5.635-1.611zM73.074 89.55l-5.466 1.751-3.149-7.952 5.509-1.793zM63.962 92.516l-5.327 1.925-3.486-7.784 5.363-1.971zM55.083 95.769l-5.177 2.091-3.806-7.606 5.209-2.136zM151.056 77.736l-6.045.124v-8.736l6.113-.135zM140.937 77.987l-6.022.335-.412-8.7 6.086-.354zM130.864 78.59l-5.974.547-.817-8.646 6.037-.567zM120.87 79.549l-5.922.752-1.217-8.575 5.979-.779zM110.976 80.851l-5.848.958-1.611-8.485 5.902-.988zM204.913 82.501l5.822 1.192 2.057-8.371-5.872-1.227zM214.629 84.534l5.717 1.382 2.438-8.245-5.766-1.421zM224.172 86.886l5.6 1.571 2.799-8.106-5.645-1.611zM233.514 89.55l5.471 1.751 3.154-7.952-5.517-1.793zM242.635 92.516l5.336 1.925 3.488-7.784-5.367-1.971zM251.53 95.769l5.181 2.091 3.811-7.606-5.215-2.136zM155.427 77.736l6.054.124v-8.736l-6.123-.135zM165.561 77.987l6.027.335.412-8.7-6.091-.354zM175.647 78.59l5.982.547.819-8.646-6.049-.567zM185.653 79.549l5.928.752 1.22-8.575-5.986-.779zM195.561 80.851l5.857.958 1.61-8.485-5.908-.988z"/>
            </g>
        </g>
    </switch>
</svg>
