<svg xmlns="http://www.w3.org/2000/svg" xml:space="preserve" viewBox="30.5 31.5 400 500" height="500" width="400">
    <path d="M230.45 531.13c-74.32-53.92-125.26-122.02-155.74-208.16-27.64-78.1-38.73-172.75-33.91-289.35l.02-.46h379.82l.02.46c4.81 116.6-6.28 211.24-33.91 289.35-30.48 86.14-81.42 154.24-155.74 208.16l-.28.2z" style="fill:#e00e00"/>
    <path d="M419.96 33.21c9.07 219.45-36.25 385.95-189.45 497.1C146.04 469.02 94.36 390.9 66.52 296.34a557.24 557.24 0 0 1-5.87-21.54c-11.45-45.69-17.77-95.02-19.88-147.94-1.2-30.06-1.05-61.28.29-93.65h378.9m.92-.95H40.14l-.04.92c-4.82 116.66 6.28 211.36 33.93 289.52 30.51 86.24 81.51 154.41 155.91 208.39l.56.41.56-.41c74.4-53.98 125.4-122.15 155.91-208.39 27.65-78.16 38.75-172.86 33.93-289.52l-.04-.92z"/>
    <path d="M322.263 365.812c23.192-46.608 40.878-106.278 44.603-175.15l-99.791-12.028C255.4 144.375 251.7 102.894 249.835 56.5h-38.67c-1.866 46.393-5.565 87.875-17.24 122.134l-99.791 12.029c3.725 68.87 21.411 128.541 44.603 175.15 17.896 35.963 58.24 98.529 91.763 98.529s73.867-62.566 91.763-98.53z" style="fill:#ffe000;fill-rule:evenodd;stroke:#000;stroke-width:1;stroke-linecap:butt;stroke-linejoin:round;stroke-miterlimit:4;stroke-dasharray:none;stroke-opacity:1;fill-opacity:1"/>
    <path d="M156.4 354.196c-21.317-47.319-30.272-90.763-31.877-128.513-.45-10.586 9.336-10.927 16.629-10.891 59.566.638 119.13.29 178.696 0 7.293-.036 17.08.305 16.63 10.89-1.606 37.751-10.56 81.195-31.877 128.514-13.847 30.738-53.94 89.305-74.101 89.305-20.16 0-60.254-58.567-74.1-89.305z" style="fill:none;fill-rule:evenodd;stroke:#000;stroke-width:1px;stroke-linecap:butt;stroke-linejoin:miter;stroke-opacity:1"/>
</svg>
