<svg xmlns="http://www.w3.org/2000/svg" xml:space="preserve" viewBox="30.5 31.5 420 500" height="500" width="420">
    <path style="fill:#e00e00;stroke:#000;stroke-opacity:1;fill-opacity:1" d="M81.875 355.04C45.253 259.47 38.91 135.16 41 32.7c133 .29 66.5.05 199.5.05s66.5.24 199.5-.05c2.09 102.46-4.253 226.77-40.875 322.34C370.64 427.03 320.551 491.954 240.5 530.88c-80.05-38.926-130.139-103.851-158.625-175.84Z"/>
    <path style="fill:#ffe000;fill-opacity:1;fill-rule:evenodd;stroke:#000;stroke-width:1;stroke-linecap:butt;stroke-linejoin:miter;stroke-miterlimit:4;stroke-dasharray:none;stroke-opacity:1" d="M145.936 242.515V99.445h43.782v-29.96H69.282v29.96h43.782v143.07z"/>
    <path d="M238.936 338.515v-143.07h43.782v-29.96H162.282v29.96h43.782v143.07z" style="fill:#ffe000;fill-opacity:1;fill-rule:evenodd;stroke:#000;stroke-width:1;stroke-linecap:butt;stroke-linejoin:miter;stroke-miterlimit:4;stroke-dasharray:none;stroke-opacity:1"/>
    <path style="fill:#ffe000;fill-opacity:1;fill-rule:evenodd;stroke:#000;stroke-width:1;stroke-linecap:butt;stroke-linejoin:miter;stroke-miterlimit:4;stroke-dasharray:none;stroke-opacity:1" d="M331.936 434.515v-143.07h43.782v-29.96H255.282v29.96h43.782v143.07z"/>
</svg>
