<svg xmlns="http://www.w3.org/2000/svg" width="561.5" height="679.984" viewBox="0 0 148.564 179.912">
    <path style="fill:#ced1d2;stroke-width:.26136553" d="M72.239 216.488c-4.79-4.312-14.985-14.664-19.351-19.65-15.547-17.752-27.033-36.167-35.066-56.218C9.646 120.214 5.17 99.501 3.229 73.096c-.77-10.474-1.295-31.126-.814-32.027l.297-.558H76.15c66.725 0 73.452.038 73.596.414.4 1.044.025 18.849-.633 30.077-1.083 18.498-4.154 36.768-8.864 52.737-8.289 28.103-22.995 53.67-44.034 76.553-6.751 7.343-19.144 19.225-20.06 19.233-.32.003-1.898-1.221-3.915-3.037z" transform="translate(-1.596 -39.927)"/>
    <path style="fill:#108648;stroke-width:.26458332" d="M71.314 216.07c-22.335-20.504-39.456-43.301-50.42-67.134C7.868 120.614 1.917 89.643 1.654 48.79l-.057-8.731 74.282-.067 74.282-.066v6.717c0 11.102-.612 24.064-1.607 34.03-4.67 46.782-19.956 82.714-49.581 116.548-6.581 7.516-22.037 22.63-23.129 22.617-.235-.003-2.273-1.7-4.53-3.77zm7.856-.11c4-3.619 13.458-13.074 17.051-17.047 21.046-23.269 35.547-48.81 43.618-76.832 1.646-5.713 2.71-9.948 2.543-10.116-.072-.071-1.298.851-2.725 2.05-11.863 10.022-21.916 11.332-33.283 8.201 0 0 .253-.983.653-2.3.346-1.138.725-3.218.725-3.218 1.593.002 2.959.062 4.636-.264.48-.48.774-6.24.475-9.299-.163-1.673-.381-3.118-.484-3.21-.103-.093-1.137-.305-2.298-.473-1.16-.167-2.185-.39-2.277-.495-.091-.105-.488-1.242-.88-2.527-.394-1.285-1.304-3.485-2.023-4.89-.72-1.403-1.308-2.666-1.308-2.806 0-.14.515-.916 1.144-1.725 1.647-2.119 1.629-2.047.814-3.137-1.942-2.597-7.45-7.728-8.296-7.728-.185 0-1.049.536-1.92 1.19-.871.656-1.776 1.191-2.011 1.191-.235 0-1.384-.498-2.554-1.106-1.17-.609-3.295-1.487-4.725-1.95-1.429-.465-2.706-.953-2.838-1.085-.132-.132-.372-1.189-.533-2.349-.162-1.16-.344-2.16-.407-2.223-.656-.66-11.99-.66-12.646 0-.063.063-.245 1.063-.406 2.223-.161 1.16-.396 2.212-.52 2.337-.126.125-1.45.637-2.943 1.138-1.493.5-3.625 1.384-4.737 1.963-1.113.579-2.215 1.052-2.45 1.052-.236 0-1.14-.535-2.012-1.19-.87-.655-1.735-1.19-1.92-1.19-.93 0-7.37 6.15-8.513 8.13l-.456.789 1.313 1.692c.723.93 1.314 1.797 1.316 1.926 0 .129-.646 1.558-1.438 3.175-.791 1.617-1.712 3.877-2.046 5.02-.686 2.353-.738 2.394-3.455 2.685-1.256.135-1.803.31-1.921.619-.09.237-.275 1.681-.41 3.21-.251 2.867.076 8.642.515 9.081.124.124 1.1.336 2.167.47 1.067.134 2.079.392 2.248.574.29.313 1.694 4.623 1.694 4.623-13.477 3.402-24.273 1.65-34.47-9.714-.989-.91-1.875-1.577-1.971-1.482-.21.21.906 4.896 2.497 10.476 8.654 30.353 24.319 57.06 48.152 82.093 5.015 5.267 15.494 15.265 16.008 15.271.1.001 1.589-1.269 3.307-2.823zm-8.253-69.058c-1.17-.191-1.378-.472-1.578-2.141-.326-2.724-.182-2.563-3.1-3.488-1.46-.462-3.798-1.427-5.2-2.145-1.4-.717-2.624-1.305-2.719-1.305-.095 0-.928.587-1.85 1.304-1.676 1.302-1.678 1.303-2.446.86-1.962-1.132-8.11-7.577-8.11-8.502 0-.185.536-1.049 1.19-1.92.655-.87 1.191-1.682 1.191-1.801 0-.12-.536-1.242-1.19-2.494-.655-1.252-1.458-3.13-1.458-3.13l1.917-1.056 3.492-1.822 2.385-1.188s.604 1.417 1.204 2.618c3.313 6.629 9.29 11.27 16.457 12.777 2.425.51 7.38.494 9.946-.032 7.104-1.457 13.48-6.065 16.509-12.62.51-1.104 1.096-2.686 1.096-2.686l2.08 1.063 3.418 1.889 2.223 1.133s-.968 1.919-1.611 3.136c-.644 1.217-1.17 2.304-1.17 2.416 0 .112.586.957 1.301 1.878 1.26 1.622 1.29 1.697.916 2.42-.925 1.786-7.619 8.139-8.578 8.139-.185 0-.943-.459-1.684-1.02-.741-.56-1.5-1.105-1.686-1.21-.195-.111-1.431.366-2.91 1.122-2.121 1.084-4.088 1.84-7.405 2.845-.464.14-.758 1.023-.98 2.94-.13 1.139-.321 1.693-.627 1.83-.505.224-9.83.385-11.023.19zm.075-60.7c10.656-2.199 21.67 2.49 26.614 12.365 3.14 6.567 2.611 12.556 1.047 19.564 0 0-1.488-.775-3.001-1.751-7.213-4.653-13.07-6.602-19.84-6.602-6.848 0-12.106 1.703-18.956 6.14-1.434.93-2.75 1.777-2.925 1.883-.079.048-.49.273-.49.273-4.82-14.835 4.528-29.058 17.551-31.872Z" transform="translate(-1.596 -39.927)"/>
    <path style="fill:#000;stroke-width:.26458332" d="M71.314 216.07c-22.334-20.504-39.456-43.301-50.42-67.134C7.868 120.614 1.917 89.643 1.654 48.79l-.057-8.731 74.282-.067 74.282-.066v6.717c0 11.102-.612 24.064-1.607 34.03-4.67 46.782-19.956 82.714-49.581 116.548-6.581 7.516-22.037 22.63-23.129 22.617-.235-.003-2.273-1.7-4.53-3.77zm7.856-.11c4-3.619 13.458-13.074 17.051-17.047 21.046-23.269 35.547-48.81 43.618-76.832 1.695-5.883 2.527-10.131 2.527-10.131l1.017-3.899s2.367-11.745 3.969-26.151c1.17-10.525 1.651-22.19 1.893-33.124.14-6.276.106-7.473-.216-7.74-.292-.243-17.146-.3-73.377-.249l-72.997.067-.084 5.291c-.183 11.623.815 29.223 2.356 41.54 1.096 8.764 3.875 22 3.875 22l.216.963s3.73 14.916 6.213 21.884c11.167 31.335 29.689 58.152 58.067 84.074 1.31 1.196 2.464 2.176 2.565 2.177.1.001 1.589-1.269 3.307-2.823z" transform="translate(-1.596 -39.927)"/>
</svg>
