<svg xmlns="http://www.w3.org/2000/svg" width="400" height="500">
    <path d="M0 0c-2.4 233.5 59.4 395.1 200 500C340.6 395.1 402.4 233.5 400 0H0z" style="fill:#da291c;fill-opacity:1;stroke:none"/>
    <path d="M138.05 21.65c-.08.04-.15.16-.2.3-1.35 3.55-.57 17.63-9.95 20.44-6.27 1.88-11.05 13.39-11.05 19.19 0 6.37 6.21 8.53 4.82 10.3-1.77 2.24-7.41 4.44-11.5 3.32-2.7-.74-2.75-4.67-8.19-4.67-5.75 0-5.28 5.42-8.34 5.47-7.35.14-15.02-.46-23.46.1-3.12.21-5-6.49-7.28-6.73-1.61-.17-3.53 1.34-3.26 2.96.3 1.81 4.97 5.13 4.97 7.33 0 5.88-7.76 5.29-8.89 18.58-.17 1.98 2.88 2.18 3.26 1.56.98-1.6.46-3.07 1.71-4.52 1.43-1.66 3.87-1 5.93-1.05 4.05-.1 3.01 4.09 6.23 5.88 1.57-2.13 1.14-3.76 2.31-4.97 1.53-1.6 5.39-.8 7.03.45 1.52 1.15 2.43 2.35 3.72 4.22 1.74-1.93.69-2.92 2.91-4.02 2.09-1.03 4.82-.87 5.98-.65 2.76.52 1 3.59 2.61 4.97 2.03-1.84 2.05-3.25 3.21-4.17 1.22-.96 4.33-.38 5.17 1.66.53 1.28.73 2.49.55 3.72-4.73.07-23.5.1-35.86.1-9.19 0-17.31 0-19.49.05-1.39.03-2.56-.62-3.72-1.86-1.16-1.24-2.21-3.02-3.01-4.82-1.61-3.6-2.36-7.28-2.36-7.28-.06-.32-.23-.62-.5-.8-.28-.18-.63-.22-.95-.15-.31.07-.58.28-.75.55-.17.27-.23.59-.15.9 0 0 .77 3.89 2.51 7.79.87 1.95 2.01 3.93 3.47 5.48 1.45 1.55 3.3 2.66 5.53 2.61 2.06-.04 10.25-.05 19.44-.05h9.54c-1.8 2.08-3.83 5.22-5.78 5.12-4.84-.25-6.26.09-9.79-.15-1.68-.12-3.16-1.6-4.12-2.96-.6-.86-1.81-.8-2.51-.45-.43.21-.52.98-.3 1.41 3.54 6.71 10.91 14.87 17.48 14.87 3.6 0 10.29-5.32 18.23-5.32.56 0 14.82-.53 15.87-.95 3.15-1.28 3.13-6.97 5.27-8.74.81-.67 3.03.55 3.57 1.41.5.81.27 2.66-.45 3.62-17.37 23.15-51.33 31.04-51.33 71.27 0 20.79 9.26 49.18 21.9 66.6 14.4 19.86 21.16 31.98 59.12 45.21 11 3.83 30.84 3.28 38.12.15 2.56-1.1-7.5-9.94-8.54-12.96-.29-.85 2.83-1.63 3.57-.75 3.42 4.07 7.14 9.51 11.5 11.7.43.21.75.63 1 1.16.13.26.23.55.3.85.08.3.13.64.15.95.02.31.03.61 0 .9-.1.87-.47 1.57-1.16 1.76-.88.24-1.83.43-2.81.65-.12.03-.23.07-.35.1-13.19 2.92-34.51 4.37-47.67 4.37-10.82 0-5.77-3.01-12-3.42-5.29-.34-11.23 3.73-11.95 9.79-.47 3.92-5.7 5.4-7.79 8.89-2.58 4.33.48 10.19 1.86 12 .19 4.92 2.89 6.35 4.02 5.93-1.35-3-.49-4.93.35-6.53 1.46-2.78 6.11-4.21 7.79-7.03 1.06-1.79.3-4.49.3-6.68 0-3.07 3.7-7.47 5.42-6.98.98.28 2.29.66 4.27.95-.16.76-.3 1.47-.3 2.11 0 3.19-7.4 6.84-7.53 10.7-.14 3.92 2.72 7.11 3.97 7.84.52 4.56 2.14 6.62 6.68 7.99-.68-2.41-1.98-5.46-1.41-7.18.76-2.29 4.19-3.29 4.92-5.68.75-2.45-1.18-6.37-.8-9.04.22-1.58 1.64-4.31 2.66-6.28 2.06.02 4.16.03 6.38.05-.15 1.06-.42 2.1-.5 2.76-.28 2.25-4.21 6.03-4.02 9.09.32 5.13.89 6.54 2.81 8.74 1.7 5.13 3.53 8.68 8.09 9.09-2.99-4.87-3.11-5.22-3.11-7.74 0-3.44 5.88-5.32 5.88-10 0-3.2-3.42-5.06-3.42-8.64 0-1.61 1.35-2.55 2.71-3.37 1.46-.04 2.84-.1 4.02-.2 15.56-1.38 21.48-2.97 36.21-1.86 4.97.37 12.07 4.17 15.42 4.17 5.31 0 8.54-3.8 8.54-8.54 0-1.85-.82-3.6-2.06-5.32-.03-.04-.07-.06-.1-.1-.05-.07-.09-.18-.15-.25-.35-.46-.71-.9-1.11-1.36-.09-.11-.21-.19-.3-.3-.02-.03-.03-.07-.05-.1-.29-.33-.6-.67-.9-1-.34-.37-.71-.74-1.05-1.11-.18-.19-.37-.41-.55-.6-.49-.52-.97-1.02-1.46-1.56l-.1-.1c-.67-.73-1.29-1.49-1.91-2.26-.05-.06-.11-.09-.15-.15-.12-.16-.23-.34-.35-.5-.23-.3-.44-.6-.65-.9-.13-.18-.23-.37-.35-.55-.15-.24-.31-.46-.45-.7-.14-.24-.28-.46-.4-.7-.19-.37-.34-.78-.5-1.16-.05-.12-.1-.24-.15-.35-.01-.03-.04-.07-.05-.1-.07-.2-.14-.4-.2-.6-.09-.28-.18-.56-.25-.85-.09-.36-.15-.74-.2-1.1-.01-.07-.04-.13-.05-.2v-.1c-.05-.44-.1-.89-.1-1.36 0-.51.03-1.02.1-1.56.14-1.03 2.77-1.75 3.57-.95 4.69 4.7 6.21 17.31 12.91 17.33 27.77.09 51.37-.27 75.89-1.11 8.96-.31 20.21-4.44 27.98-8.24 16.41-8.02 27.73-33.27 27.73-50.73 0-58.12-59.12-79.08-59.12-117.43 0-28.02 49.78-62.63 49.78-79.51 0-5.52-9.62-16.59-12.91-13.41-3.22 3.11 3.87 7.88 3.87 11.85 0 3.94-9.54 14.09-21.45 24.31-17.2 14.75-38.73 32.76-38.73 57.56 0 40.39 47.42 72.88 47.42 106.38 0 13.96-13.91 27.12-23.66 27.12-19.03 0-44.05-38.31-70.12-38.68-6.46-.09 7.21-7.72 9.79-10.75 2.36-2.77-4-8.27-3.11-12.05 1.63-6.91 10.79-16.29 10.6-20.09-.1-1.99-8.13 2.97-11.55 2.66-1.46-.13-3.9-2.6-3.06-3.92 3.74-5.9 15.4-11.28 19.09-18.53l.8-10.45c-8.8-.51-13.22 5.66-20.24 8.39-3.05 1.18-4.34-.74-4.17-1.26.76-2.3 20.78-11.51 28.43-19.19l3.11-14.97c-14.26-1.25-25.9 13.19-38.22 22.15-1.28.93-4.58-2.79-3.47-4.02 17.38-19.09 41.17-30.9 56.51-43.45l.3-12.31c-20.31 4.45-47.67 22.78-64.39 38.27-1.17 1.09-4.24-2.82-3.11-3.92 15.91-15.58 42.18-34.77 59.42-41.34l13.92-27.87c-22.6.8-70.74 44.89-99.7 72.18-5.41 5.09-5.25 18.95-3.42 26.37 2.17 8.77 13.51 16.41 12.46 24.96-2.2 17.81-15.01 43.62-21.75 58.01-.48 1.02-2.31 1.01-2.36 0l1.56-10c-1.85-.44-4.08-1.08-6.38-.75-16.14 2.26-26.58 16.5-30.64 13.41-10.78-8.21-26.87-39.17-27.98-57.11-1-16.26 33.71-38.45 45.56-62.08 2.53-5.04-3.22-16.86-3.26-22.6-.05-6.82 3.93-2.89 10.6-14.67 2-3.53 1.34-19.82 4.17-29.48 1.13-3.87 5.5-6.57 6.08-10.45-10.24.71-10.57 7.67-14.01 12.81-2.09 3.12-9.62 5.97-13.66 14.52-2.53 5.36-.2 12.49-2.06 17.28-1.05 2.71-5.42 1.59-5.73 0-2.41-12.45 10.43-24.78 12.1-37.57.61-4.68-3.39-15.27-4.62-14.67zm116.33 8.74c-17.27 7.07-55.15 31.09-83.38 69.57-8.7 11.86-8.09 28.63-8.09 42.39 0 5.79 13.06 12.52 13.06 22.65 0 13.95-9.54 31.45-14.47 45.36 2.37-.28 4.66.37 6.93.9.88-2.44 2.35-5.31 3.52-7.89 5.99-13.26 12.01-28.04 13.36-39.03.23-1.84-1.22-4.84-4.07-8.74-2.85-3.9-6.73-8.22-8.24-14.32-1.09-4.41-1.72-10.11-1.26-15.77.46-5.66 1.65-11.4 6.08-15.57 14.51-13.67 33.86-31.63 52.59-46.36 6.7-5.27 13.25-10.17 19.59-14.32l4.37-18.89zM99.52 81.82c2.03-.06 4.35.21 5.68.3.19 2.7 1.54 9.57-2.01 9.59-2.02.01-.94-3.97-2.26-5.52-1.32-1.56-5.47-.41-5.27-2.61.11-1.3 1.84-1.7 3.87-1.76zm13.61.15c2.63-.1 5.28.14 5.42 1.76.19 2.2-3.95 1.05-5.27 2.61-1.32 1.56-.24 5.49-2.26 5.47-3.55-.03-2.2-6.84-2.01-9.54.99-.07 2.54-.24 4.12-.3zm-41.54.35c1.03-.15 1.86 2.29 2.01 4.07.15 1.77-3.96 1.71-6.03 1.71-2.06 0-.59-3.33 0-4.22.59-.89 2.99-1.41 4.02-1.56zm33.91 21.4c-.55.94-1.34 1.92-2.46 2.96-1.16 1.08-3.87.52-4.97 0-1.6-.76-1.59-.75-3.97-2.86 5.53-.01 9.04-.07 11.4-.1zm-25.37.1c4.81 0 9.23.01 13.76 0-1.07 1.25-1.09 2.92-2.86 3.82-1.63.82-3.95 1.15-5.73.65-2.17-.61-3.75-2.04-5.17-4.47zm6.63 179.01c-4.72.16-12.57 1.73-10.8 15.92-2.38 2.2-4.62 2.77-4.62 5.93 0 3.3-.27 6.59 2.46 8.89.81 3.89-1.36 7.83 6.53 11.35-1.99-7.56-1.77-8.4-1.21-9.89 2.92-2.34 5.47-1.98 5.07-8.64-.19-3.22-2.82-3.24-1.56-6.88 1.19-3.44 1.18-9.06 4.07-8.29 1.95.52 3.96 1.04 6.08 1.51-.52 1.1-1.24 2.27-1.71 3.67-.64 1.9-4.75 4.94-4.57 8.24.21 3.89 3.37 7.51 5.02 8.24 1.13 3.42 1.54 3.95 4.57 5.02-1.13-2.43-2.25-6.44-1.66-7.84.95-2.25 3.95-5.1 4.37-7.63.26-1.61-1.16-3.18-1.86-4.67-.51-1.08-.28-2.73.25-4.17 3.67.62 7.57 1.01 11.65 1-.29 2.5-6.91 5.37-7.38 8.39-.48 3.06 1.38 5.68 2.41 6.38-.1 5.07.14 6.11 5.17 6.98-.37-1.97-1.21-4.49-.55-5.78.88-1.71 4.26-1.93 5.12-3.72.88-1.84-.43-5.13.15-7.18.45-1.6 2.19-5.49 3.57-5.73 0 0 .73-.08 1.86-.25 2.5-.37 6.88-1.18 9.19-2.61.57-.35 1.12-.75 1.66-1.16-4.92-2.26-9.16-4.55-12.86-6.88-3.67 1.73-6.73 3.37-12.91 3.52-8.33.2-12.04-3.72-15.72-3.72-.51 0-1.13-.02-1.81 0z" style="fill:#fce300;fill-opacity:1;fill-rule:nonzero;stroke:none;display:inline"/>
</svg>
