<svg xmlns="http://www.w3.org/2000/svg" height="500" width="420">
    <path d="M210 496.79c-1.646-7.508-2.624-14.97-14.203-27.818C182.026 453.69 164.735 451 147.535 451H80c-53 0-70-17-70-70V2.5h400V381c0 53-17 70-70 70h-67.535c-17.2 0-34.49 2.69-48.262 17.972-11.579 12.848-12.557 20.31-14.203 27.818" style="fill:#0085ca;fill-rule:evenodd;stroke:none;stroke-width:1;stroke-linecap:butt;stroke-linejoin:miter;stroke-miterlimit:4;stroke-dasharray:none;stroke-opacity:1;fill-opacity:1"/>
    <path style="fill:#e00e00;fill-rule:evenodd;stroke:none;stroke-width:1;stroke-linecap:butt;stroke-linejoin:miter;stroke-miterlimit:4;stroke-dasharray:none;stroke-opacity:1;fill-opacity:1" d="M10 2.5h400V381c0 27.912-4.715 45.84-16.92 56.557C394.506 436.487 10 2.5 10 2.5Z"/>
    <path style="fill:#fff;fill-rule:evenodd;stroke:none;stroke-width:1;stroke-linecap:butt;stroke-linejoin:miter;stroke-miterlimit:4;stroke-dasharray:none;stroke-opacity:1;fill-opacity:1" d="M9.985 65.068 10 2.5h76.943l322.982 384.385C408.656 435.267 390.987 451 340 451h-6.179c.012-.033-323.836-385.932-323.836-385.932Z"/>
    <path d="M340 451h-6.179c.012-.033-323.836-385.932-323.836-385.932M86.943 2.5l322.982 384.385" style="fill:none;fill-opacity:1;fill-rule:evenodd;stroke:#000;stroke-width:1;stroke-linecap:butt;stroke-linejoin:miter;stroke-miterlimit:4;stroke-dasharray:none;stroke-opacity:1"/>
    <path style="fill:none;fill-rule:evenodd;stroke:#000;stroke-width:1;stroke-linecap:butt;stroke-linejoin:miter;stroke-miterlimit:4;stroke-dasharray:none;stroke-opacity:1" d="M210 496.79c-1.646-7.508-2.624-14.97-14.203-27.818C182.026 453.69 164.735 451 147.535 451H80c-53 0-70-17-70-70V2.5h400V381c0 53-17 70-70 70h-67.535c-17.2 0-34.49 2.69-48.262 17.972-11.579 12.848-12.557 20.31-14.203 27.818"/>
    <path style="fill:#fff;stroke:#000;stroke-width:1;stroke-linecap:butt;stroke-linejoin:miter;stroke-miterlimit:4;stroke-dasharray:none;stroke-opacity:1" d="M369.965 64.518c3.464-1.381 9.79-5.566 8.744-1.885-1.056 3.721.72 8.32-1.885 11.212-2.24 2.487-.474 6.928-3.73 8.586-3.287 1.678-2.458 6.622-5.567 8.103-3.425 1.628-2.004 6.484-7.066 7.273-2.29.356-4.037 3.149-7.205 5.192-6.938 3.77-6.425 21.791-3.612 16.679 1.54-2.418 4.668-5.33 6.07-7.244 2.28-3.1 5.921-1.56 9.05-4.363 2.131-1.914 4.954-.187 8.448-2.802 3.306-2.488 9.484-3.632 8.645-.563-2.635 9.603-13.55 19.63-34.79 23.676-6.256 1.195-7.727 39.211-3.128 34.82 3.07-2.932 4.136-7.274 4.461-10.896.257-2.793 4.441-6.8 5.636-10.205.78-2.22 4.007-2.181 6.425-6.919 1.204-2.358 6.7-1.253 8.744-3.957 1.332-1.767 10.303-3.603 10.382-1.875.217 4.757-1.253 8.556-4.066 12.938-1.401 2.181-1.974 4.757-5.043 6.188-1.885.879-4.5 6.12-6.297 6.85-2.122.858-3.316 3.079-4.628 4.648-1.451 1.727-3.76 1.589-5.705 2.803-2.23 1.391-4.411 3.267-6.77 4.411-2.882 1.402-5.3 7.471-4.471 11.824.947 4.925 1.234 17.005 3.415 12.484.503-1.046 2.516-4.066 3.928-7.076 1.954-4.175 2.418-8.26 7.244-13.787 6.662-7.007 14.28-13.047 21.732-17.044 1.865-.978-.099 5.329-1.046 7.214-1.273 2.527.7 5.27-1.421 6.889-2.468 1.875-.928 6.356-4.422 8.655-1.855 1.224-2.615 5.28-5.043 6.139-2.132.76-3.454 4.323-6.267 4.934-2.931.632-5.083 3.168-8.142 4.669-2.704 1.342-7.037 2.427-5.714 11.566.65 4.52.503 20.42 3.809 17.805 4.668-3.682 6.366-10.018 9.13-16.374.976-2.25 2.101-3.878 3.345-6.138 3.908-7.106 9.524-14.567 19.916-19.078 1.895-.819-.414 4.708-1.322 8.488-.316 1.322.325 2.97-.425 4.234-1.52 2.596.247 4.619-1.806 6.622-2.082 2.448-.918 4.718-3.71 6.86-1.836 1.095-1.017 4.026-3.544 5.881-3.079 1.659-1.382 3.169-6.06 5.586-1.835.958-2.368.168-4.954 1.797-2.576 1.618-3.7 3.336-7.027 4.49-4.431 1.135-3.73 5.793-3.612 9.465-.76 14.38-.355 45.803-3.346 42.763-3.868-3.918-7.283-4.678-6.237-6.632 4.757-8.951 1.905-25.393 2.033-39.023.02-2.576-2.665-4.224-5.191-4.599-3.987-.592-7.343-2.349-11.37-3.257-3.572-.81-7.214.306-10.678-.829-2.132-.7-4.155-3.178-6.178-4.165-1.441-.7-4.303-.977-5.665-1.756-1.629-.928-2.843-1.915-3.909-3.326-3.069-4.037-15.06-16.038-11.073-16.423 5.517-.543 10.205-.67 14.103 1.767 4.195 2.635 8.468 2.003 11.172 4.767 3.297 3.365 7.244 6.73 11.439 7.915 2.339.661.05 2.832 5.339 4.816 3.622 1.362 4.046 4.609 8.922 6.869 2.142.997 2.082-.523 1.905-1.382l-3.218-15.435c-.483-2.32-13.63-6.405-18.011-6.84-3.06-.306-6.504-3.71-11.41-4.44-2.476-.366-4.766-3.406-9.74-5.31-2.773-1.056-3.859-3.593-7.205-5.942-1.5-1.056-2.23-4.174-2.97-5.596-.869-1.648 6.938.346 9.938 1.747 2.487 1.155 5.487 1.086 8.053 2.34 2.418 1.184 4.52 3.128 6.958 3.74 1.757.444 3.978 1.865 5.507 3.335 6.731 6.494 12.475 10.788 17.686 12.15 2.635.69-2.21-13.65-5.083-21.545-.829-2.29-12.316-5.665-15.149-5.517-2.931.158-5.922.237-8.734.839-2.872.612-5.695-1.086-8.488-.513-2.674.552-6.247-2.704-10.126-2.33-3.118.306-5.507-2.556-9.257-2.822-2.97-.217-4.6-4.175-8.162-4.737-3.208-.504-9.692-5.665-6.277-6.731 17.232-5.36 39.625.543 54.36 14.024 2.438 2.23 8.754 2.921 7.461.296-8.21-16.66-25.443-26.311-33.763-29.361-5.615-2.053-9.533 1.273-14.053 3.217-4.402 1.885-8.912-.444-14.755.77-4.5.928-7.6-2.694-12.642-3.296-6.09-.73-12.93-6.07-7.018-8.438 3.376-1.352 4.106-3.701 8.044-2.774 3.464.81 7.353-.848 10.984.277 3.415 1.056 6.603.237 9.357 1.687 3.71 1.964 8.556 3.583 12.415 3.178-8.162-5.586-17.43-9.593-29.233-8.408-4.293.434-7.48-.464-11.37.69-3.177.948-5.842-1.174-9.79-.404-3.612.7-6.612-2.862-10.155-2.29-2.635.434-4.856-2.388-8.31-3.997-3.089-1.43-9.297-6.405-6.218-7.678 3.277-1.352 6.337-3.316 9.416-3.869 3.76-.68 6.464.928 9.928.444 3.79-.533 7.412.76 10.856.997 3.524.237 7.975 3.967 11.015 4.639 5.783 1.283 9.346 5.428 13.353 6.928l14.912 5.586c4.175 1.56-6.247-7.116-12.948-8.853-3.938-1.016-4.62-4.55-8.448-6.129-4.047-1.668-3.257-5.487-6.307-7.382-4.638-2.862-4.875-7.915-1.924-7.787 3.464.148 5.872 1.007 9.257 1.333 3.425.325 5.497 4.391 8.152 4.974 3.82.839 5.389 6.888 8.419 8.33 6.602 3.138 5.378 8.852 12.603 17.093 4.194 4.786 22.68 14.735 32.716 25.354-6.296-17.597-16.817-34.947-40.582-52.712-14.084-10.53-30.713-19.492-34.849-19.038-7.402.81-7.313 3.721-11.191 5.428-1.826.8-3.583.78-5.557 1.362-1.45.435-2.684 1.333-4.263 1.639-1.155.227-4.027-.484-5.182-.306-2.28.365-4.303 1.253-6.583 1.322-2.339.08-4.54-.78-6.839-1.006-1.747-.178-3.207.325-4.915-.08-1.688-.404-3.08-1.973-4.708-2.605-2.625-1.016-4.648-1.204-7.105-2.96-1.649-1.185 3.81-2.389 5.447-3.228 1.58-.81 2.596-1.401 4.52-1.826 2.31-.503 5.419-.996 8.005-.592 2.3.365 4.678-.849 7.017-.78 3.02.09 6.02.346 8.872.622 1.796.178 3.8-.276 5.458-.069 6.573.83 12.03 2.092 13.698.938 1.708-1.185-17.241-12.584-25.265-8.665-3.869-.642-8.981 2.496-11.537 1.362-2.517-1.214-5.626.404-7.234-.73-3.228-2.3-6.09-2.567-6.692-3.396-2.891-3.957-5.615-2.566-7.056-3.582-1.885-1.027-2.527-2.566-3.78-3.75-2.3-2.192-4.461-4.175-4.866-6.426-.177-.957 1.757-1.42 3.81-2.062 1.964-.612 3.01-1.727 4.53-1.293 2.96.849 5.24-1.362 7.254-.365 3.336 1.648 5.092.098 7.421 1.776 2.428 1.757 4.224.346 6.376 2.023 2.438 1.905 4.48 1.421 6.652 3.307 2.26 1.964 4.964 2.496 6.74 4.224 1.945 1.885 1.747 3.138 4.156 4.283 10.964 5.201 19.837 7.204 17.034 5.22-16.531-11.694-16.837-24.534-31.039-30.722-2.132-.928.602-4.047 6.316-4.57 1.52-.138 2.695.8 4.57 1.165 1.391.276 2.822-.188 4.392.128 1.194.237 2.96 2.152 4.372 2.99.839.504 2.96.74 3.671 1.165 1.599.947 1.678 2.349 2.872 3.444 1.273 1.165 3.1 1.935 4.027 3.208 1.135 1.57 1.076 3.573 1.747 5.22.434 1.076 1.55 3.169 1.865 4.235.553 1.835-.158 4.016.04 5.734.66 5.586 1.144 8.458 3.67 10.086 10.097 6.543 28.967 19.66 30.753 14.784.277-.75-.898-3.01-4.194-5.457-2.655-1.974-5.438-4.787-6.81-8.33-.631-1.629-.552-3.366-1.026-5.22-.365-1.442-2.004-2.942-2.27-4.501-.247-1.412.454-2.872.424-4.382-.02-1.155-.76-2.418-.72-3.622.069-1.826.987-3.603 1.421-5.517.661-2.931.217-9.267 2.448-8.547 2.23.72 3.158 5.408 6.109 6.612 1.875.77.898 5.853 2.161 6.87 1.767 1.42.69 5.467 3 7.905 1.056 1.105 1.53 2.96 2.014 4.401.523 1.55-.306 3.09.088 4.6 1.007 3.839.612 7.52.85 10.787.167 2.29 1.351 4.372.512 6.168-1.342 2.882 22.058 26.035 22.858 22.897.404-1.59-3.316-6.09-6.248-12.18-1.687-3.513-3.888-7.46-2.891-11.931.552-2.487-1.017-7.106.404-10.965.889-2.418-.266-6.208 1.264-9.11 1.983-3.73 1.322-8.585 3.168-13.421 1.075-2.823 3.543-1.333 4.875 6.622.276 1.678 1.184 3.01 2.507 4.875 1.45 2.053-.632 7.52 1.618 9.228 1.333 1.017-1.332 4.441 1.037 8.557.858 1.49-2.024 8.527.523 12.11 1.115 1.569-2.537 9.128-2.843 10.629-.79 3.928-.838 7.678.326 9.356 7.303 10.57 19.739 32.183 24.673 42.033 2.389 4.767 3.07 4.49 2.586.375-1.905-16.235 3.514-39.517 4.727-40.859 1.372-1.51-3.868-6.632-9.148-11.971-3.79-3.85-9.87-9.603-8.853-12.297.878-2.32-2.408-4.955-1.678-6.267 1.698-3.04-2.378-5.596-1.628-7.866 1.371-4.155-6.267-15.781-2.132-14.034 4.59 1.944 10.303 6.987 11.192 9.218 1.016 2.566 3.76 4.875 4.253 7.786.474 2.823 2.912 5.014 2.774 7.6-.129 2.467 1.648 5.596 1.5 7.6-.652 8.852 3.76 13.905 5.043 12.207 1.56-2.072 4.056-9.08 5.892-12.622 2.546-12.228 7.303-30.417 21.604-36.053z"/>
    <path style="fill:none;stroke:#000;stroke-width:1;stroke-linecap:round;stroke-linejoin:miter;stroke-miterlimit:4;stroke-dasharray:none;stroke-opacity:1" d="M222.241 70.025c-13.225-1.569-20.42-7.708-40.138-12.03"/>
    <path style="fill:none;stroke:#000;stroke-width:1;stroke-linecap:round;stroke-linejoin:round;stroke-opacity:1;stroke-miterlimit:4;stroke-dasharray:none" d="m187.393 56.692 2.753 3.217-4.747 2.3M190.916 64.43l5.29-2.606-2.684-4.214M198.96 59.297l3.375 4.678-5.438 2.606M204.93 61.212l3.83 4.905-6.129 3.375M212.135 64.202l3.444 4.6-6.513 2.3"/>
    <path style="fill:none;stroke:#000;stroke-width:1;stroke-linecap:round;stroke-linejoin:miter;stroke-miterlimit:4;stroke-dasharray:none;stroke-opacity:1" d="M199.769 87.1c12.958-1.59 27.377-.83 37.385-1.383"/>
    <path style="fill:none;stroke:#000;stroke-width:1;stroke-linecap:round;stroke-linejoin:miter;stroke-opacity:1;stroke-miterlimit:4;stroke-dasharray:none" d="m203.045 84.474 4.728 2.033-3.74 3.681M210.862 83.813l3.938 2.368-3.158 4.205M218.945 89.655l3.217-3.612-4.204-2.566M225.054 83.684l4.076 2.497-3.02 3.09"/>
    <path style="fill:none;stroke:#000;stroke-width:1;stroke-linecap:round;stroke-linejoin:miter;stroke-miterlimit:4;stroke-dasharray:none;stroke-opacity:1" d="M216.764 44.247c16.758 3.849 17.607 19.857 25.087 26.854"/>
    <path style="fill:none;stroke:#000;stroke-width:1;stroke-linecap:round;stroke-linejoin:miter;stroke-opacity:1;stroke-miterlimit:4;stroke-dasharray:none" d="m224.945 43.684.375 4.274h-4.273M224.294 51.767l5.477.74.84-4.924M236.838 54.738l-2.882 3.622-4.737-.839M233.305 63.285l4.086 1.115 2.881-3.533"/>
    <path style="fill:none;stroke:#000;stroke-width:1;stroke-linecap:round;stroke-linejoin:miter;stroke-miterlimit:4;stroke-dasharray:none;stroke-opacity:1" d="M293.774 199.303c15.968 7.698 26.982 14.814 38.954 22.009"/>
    <path style="fill:none;stroke:#000;stroke-width:1;stroke-linecap:round;stroke-linejoin:miter;stroke-opacity:1;stroke-miterlimit:4;stroke-dasharray:none" d="m299.616 199.57 2.764 4.006-4.53.72M302.251 207.514l6.702-.266-2.102-4.333M314.006 206.853l1.776 4.076-5.911.128M315.121 215.656l6.178-1.056-1.243-4.47M326.155 214.68l1.905 3.612-4.6.325M296.073 180.65c8.902 6.455 19.502 10.165 28.513 15.376"/>
    <path style="fill:none;stroke:#000;stroke-width:1;stroke-linecap:round;stroke-linejoin:miter;stroke-opacity:1;stroke-miterlimit:4;stroke-dasharray:none" d="m303.17 182.92 2.427 3.346h-4.727M307.087 189.957l4.984-.198-1.559-3.414M316.77 189.315l1.845 3.543-4.935.07"/>
    <path style="fill:none;stroke:#000;stroke-width:1;stroke-linecap:round;stroke-linejoin:miter;stroke-miterlimit:4;stroke-dasharray:none;stroke-opacity:1" d="M249.362 136.436c12.702 1.115 24.693 4.934 37.05 3.681"/>
    <path style="fill:none;stroke:#000;stroke-width:1;stroke-linecap:round;stroke-linejoin:miter;stroke-opacity:1;stroke-miterlimit:4;stroke-dasharray:none" d="m256.389 139.722 2.892-1.974-1.777-2.566M263.751 135.646l2.892 3.484-4.273 2.96M270.186 136.238l3.02 3.218-3.158 2.891"/>
    <path style="fill:none;stroke:#000;stroke-width:1;stroke-linecap:round;stroke-linejoin:miter;stroke-miterlimit:4;stroke-dasharray:none;stroke-opacity:1" d="M268.193 52.142c-.02 12.08 5.368 23.499 8.833 33.457"/>
    <path style="fill:none;stroke:#000;stroke-width:1;stroke-linecap:round;stroke-linejoin:miter;stroke-opacity:1;stroke-miterlimit:4;stroke-dasharray:none" d="m271.232 56.268-1.885 6.158-3.118-2.675M274.716 69.74l-1.668 4.855-3.908-2.171M276.591 75.67l-1.371 5.142-3.77-2.102M273.048 63.216l-2.102 5.576-3.336-2.172"/>
    <path style="fill:none;stroke:#000;stroke-width:1;stroke-linecap:round;stroke-linejoin:miter;stroke-miterlimit:4;stroke-dasharray:none;stroke-opacity:1" d="M303.317 65.97c-1.677 16.274-.424 30.584 1.954 41.855"/>
    <path style="fill:none;stroke:#000;stroke-width:1;stroke-linecap:round;stroke-linejoin:miter;stroke-opacity:1;stroke-miterlimit:4;stroke-dasharray:none" d="m305.42 74.23-2.892 2.822-2.606-2.319M305.775 83.862l-3.119 2.823-3.405-2.606M307.078 92.616l-3.692 2.537-3.987-2.458M307.443 99.357l-3.257 4.056-4.056-3.336"/>
    <path style="fill:none;stroke:#000;stroke-width:1;stroke-linecap:round;stroke-linejoin:miter;stroke-miterlimit:4;stroke-dasharray:none;stroke-opacity:1" d="M322.503 76.983c6.445 9.238 7.294 24.24 13.906 32.806"/>
    <path style="fill:none;stroke:#000;stroke-width:1;stroke-linecap:round;stroke-linejoin:miter;stroke-opacity:1;stroke-miterlimit:4;stroke-dasharray:none" d="m328.227 83.21-1.302 2.754-4.49-3.336M330.902 89.655l-1.668 3.622-4.994-2.388M333.221 96.603l-1.372 4.205-5.793-3.336"/>
    <path style="fill:none;stroke:#000;stroke-width:1;stroke-linecap:round;stroke-linejoin:miter;stroke-miterlimit:4;stroke-dasharray:none;stroke-opacity:1" d="M352.92 97.255c3.721-10.333 9.169-20.667 21.22-30.99"/>
    <path style="fill:none;stroke:#000;stroke-width:1;stroke-linecap:round;stroke-linejoin:miter;stroke-opacity:1;stroke-miterlimit:4;stroke-dasharray:none" d="m354.963 85.52 1.066 3.898 6.386-.917M366.61 81.543l-7.097 1.48-.81-4.589M363.402 72.246l.78 3.849 5.812-.81"/>
    <path style="fill:none;stroke:#000;stroke-width:1;stroke-linecap:round;stroke-linejoin:miter;stroke-miterlimit:4;stroke-dasharray:none;stroke-opacity:1" d="M350.039 123.843c10.125-10.383 22.324-10.827 27.545-17.538"/>
    <path style="fill:none;stroke:#000;stroke-width:1;stroke-linecap:round;stroke-linejoin:miter;stroke-opacity:1;stroke-miterlimit:4;stroke-dasharray:none" d="m355.93 115.355.139 3.326 7.224.405M369.955 115.572l-7.452-.128-.266-2.912M368.494 109.463l.533 2.477 5.635-.148"/>
    <path style="fill:none;stroke:#000;stroke-width:1;stroke-linecap:round;stroke-linejoin:miter;stroke-miterlimit:4;stroke-dasharray:none;stroke-opacity:1" d="M348.252 162.135c5.418-6.109 11.231-19.906 25.601-28.927"/>
    <path style="fill:none;stroke:#000;stroke-width:1;stroke-linecap:round;stroke-linejoin:miter;stroke-opacity:1;stroke-miterlimit:4;stroke-dasharray:none" d="m365.405 135.972.286 3.612 5.389.03M365.691 146.117l-5.951-.128-.878-3.898M363.332 152.266l-8.477-.01-.918-3.79M357.766 157.378l-5.912-.049-.67-3.385"/>
    <path style="fill:none;stroke:#000;stroke-width:1;stroke-linecap:round;stroke-linejoin:miter;stroke-miterlimit:4;stroke-dasharray:none;stroke-opacity:1" d="M256.33 104.765c8.882 6.346 17.952 12.702 23.785 19.048M258.037 123.951c-12.712-3.75-26.045-6.06-39.813-7.362"/>
    <path style="fill:none;stroke:#000;stroke-width:1;stroke-linecap:round;stroke-linejoin:miter;stroke-opacity:1;stroke-miterlimit:4;stroke-dasharray:none" d="m264.008 106.413.661 4.274-5.645-.395M270.581 111.93l.395 3.682-5.448-.129M276.167 116.598l.326 3.484-3.938-.394M224.66 114.496l1.776 2.961-4.205 2.102M231.499 115.473l2.566 3.09-5.784 2.822M238.723 116.796l2.96 3.158-5.585 3.681M246.145 117.576l3.158 3.937-4.728 2.961"/>
    <path style="fill:none;stroke:#000;stroke-width:1;stroke-linecap:round;stroke-linejoin:miter;stroke-miterlimit:4;stroke-dasharray:none;stroke-opacity:1" d="M351.114 187.786c7.442-9.741 16.087-14.449 22.107-27.496M377.307 187.036c-7.402 9.356-14.024 25.028-19.413 30.2M273.443 159.165c14.202 1.954 27.22 8.142 39.023 11.152"/>
    <path style="fill:none;stroke:#000;stroke-width:1;stroke-linecap:round;stroke-linejoin:miter;stroke-opacity:1;stroke-miterlimit:4;stroke-dasharray:none" d="m280.598 158.05 2.043 2.97-4.836 2.043M289.796 159.915l1.767 3.622-5.852 1.303M297.88 162.51l1.667 3.81-5.2 2.23M304.847 165.116l1.58 3.158-3.346 1.855M368.208 163.438l.839 3.346 5.013-.464M369.224 172.172l-4.273-.088c0-.09-.74-3.346-.74-3.534M360.125 173.1v4.185h6.415M359.937 182.022l-4.184-.375.375-2.694M377.406 191.773l-5.112 1.766-.464-2.783M375.54 197.813l-6.503 1.303-1.026-3.07M371.642 203.488l-5.388.839-1.204-2.882M367.922 208.965l-5.113.74-.552-2.97"/>
    <path style="fill:#fff;fill-opacity:1;stroke:#000;stroke-width:1;stroke-linecap:round;stroke-miterlimit:4;stroke-dasharray:none;stroke-opacity:1" d="M127.978 238.462a20.325 20.407 0 1 1-.01-.027"/>
    <path style="fill:#0085ca;fill-opacity:1;stroke:#000;stroke-width:1;stroke-linecap:round;stroke-miterlimit:4;stroke-dasharray:none;stroke-opacity:1" d="M119.71 240.03a11.914 11.962 0 1 1-.006-.017"/>
    <path style="fill:#fff;stroke:#000;stroke-width:1;stroke-linecap:butt;stroke-linejoin:miter;stroke-miterlimit:4;stroke-dasharray:none;stroke-opacity:1" d="M118.08 256.723c2.833 5.29 8.064 12.307 9.663 21.742l6.316.276c-.572-7.057-.73-10.797-5.477-18.485-4.441-7.185-6.13-13.906-8.448-16.709-4.165.967-4.333 8.912-2.053 13.176z"/>
    <path style="fill:#fff;stroke:#000;stroke-width:1;stroke-linecap:butt;stroke-linejoin:miter;stroke-miterlimit:4;stroke-dasharray:none;stroke-opacity:1" d="M74.745 393.56c-14.676-3.454-30.072-12.79-42.833-25.62-3.553-3.573 2.734-5.616 5.26-4.333 12.81 6.504 21.2 4.066 32.056 4.332 4.017.1 4.333 3.721 2.369 5.39a46.167 46.167 0 0 1-4.994 3.68c3.414 4.54 10.037 5.537 18.84 5.537 11.814 0 19.255-17.173 19.255-33.003v-60.311H72.11v-13.136h32.588v-27.062c0-3.73 3.287-5.26 5.783-5.26 2.497 0 5.784 1.53 5.784 5.26v27.062h32.588v13.136h-32.588v60.311c0 15.83 7.441 33.003 19.255 33.003 8.803 0 15.435-.997 18.85-5.537a44.889 44.889 0 0 1-4.994-3.68c-1.964-1.669-1.648-5.29 2.369-5.39 10.856-.266 19.255 2.172 32.055-4.332 2.527-1.283 8.814.76 5.26 4.332-12.75 12.83-28.156 22.167-42.832 25.621-26.025 6.12-26.42 21.545-35.737 21.545-9.316 0-9.711-15.426-35.736-21.545z"/>
    <path style="fill:#fff;stroke:#000;stroke-width:1;stroke-linecap:butt;stroke-linejoin:miter;stroke-miterlimit:4;stroke-dasharray:none;stroke-opacity:1" d="M132.747 289.765c-1.49 6.83-4.323 13.244-11.044 18.228-15.732 11.686-33.99 24.289-26.203 42.37 1.855 4.312 4.441 6.997 7.678 9.118-.81 4.175-2.22 7.481-3.424 10.511-7.718-6.435-14.37-12.899-14.656-27.426-.277-14.242 10.639-25.503 23.41-35.115 6.967-5.25 14.37-10.018 16.353-17.676z"/>
    <path style="fill:none;stroke:#000;stroke-width:1;stroke-linecap:butt;stroke-linejoin:miter;stroke-miterlimit:4;stroke-dasharray:none;stroke-opacity:1" d="M118.96 258.884c.029-3.158 3.483-5.665 4.332-9.652M121.259 263.029c2.95-2.191 2.161-4.6 5.122-6.573M124.407 268.28c2.803-1.777 2.714-4.027 5.843-6.04M132.49 268.28c-2.931.592-3.198 3.454-5.912 4.332M123.884 292.716c2.832.059 5.418.661 7.55 2.3M121.584 296.664c1.777.394 6.258 2.763 6.83 4.194M116.66 301.322c1.993.651 5.102 1.43 7.224 4.47M110.857 305.743c2.477.257 6.01 2.29 7.066 4.816M106.08 309.207c3.276 1.106 6.375 2.922 6.898 5.586M100.78 313.895c3.622.553 6 2.063 8.063 3.918M96.398 318.159c3.622.256 6.435 1.52 8.31 3.523M92.815 322.146c1.935.079 5.804.74 7.827 3.336M89.39 326.617c3.386-.03 5.962.68 8.725 2.171M95.569 332.854c-2.911-1.51-5.754-1.293-8.537-1.056M94.059 337.226c-3.178-.434-5.951-.79-8.606.434M93.25 341.954c-2.586-.257-5.636.286-7.935 3.355M94.187 346.523c-3.8.385-6.395 2.26-7.925 4.57M95.638 351.053c-2.931.089-6.247 1.826-7.826 4.727M98.392 354.971c-5.616 1.451-6.524 3.83-7.777 5.29M101.48 358.425c-2.832 1.451-5.536 4.185-6.77 6.89"/>
    <path style="fill:#fff;stroke:#000;stroke-width:1;stroke-linecap:butt;stroke-linejoin:miter;stroke-miterlimit:4;stroke-dasharray:none;stroke-opacity:1" d="M139.852 412.578c-1.026 3.198 4.471 6.87 7.56 3.03 3.395-4.234 2.843-9.317 2.517-15.16-.345-6.197-1.816-11.003-3.602-15.02-3.909-8.813-15.762-17.44-26.549-17.32.504 2.476 2.112 5.427 3.642 7.49 6.04 5.369 11.39 6.652 14.439 11.616 2.813 4.58 4.263 18.308 1.993 25.364z"/>
    <path style="fill:none;stroke:#000;stroke-width:1;stroke-linecap:butt;stroke-linejoin:miter;stroke-miterlimit:4;stroke-dasharray:none;stroke-opacity:1" d="M125.404 368.907c.355 2.487-.928 5.823-1.56 6.908M128.878 379.042c1.47-1.194 2.487-5.892 2.526-7.994M137.79 375.272c-.434 3.168-1.915 5.665-3.681 7.274M137.494 387.155c2.585-.878 4.165-3.06 5.98-6.652M139.912 391.616c2.793.237 6.08-2.833 7.283-4.392M149.15 394.458c-1.866 1.846-6.327 3.227-8.29 2.004M140.938 401.82c2.28 1.234 7.057.77 8.813-.799M149.87 407.92c-2.448 1.145-7.007.947-8.902-.898"/>
</svg>
