<svg xmlns="http://www.w3.org/2000/svg" xml:space="preserve" viewBox="30.5 31.5 400 500" height="500" width="400">
    <path d="M230.44 531.14C156.12 477.22 105.18 409.12 74.7 322.98c-27.64-78.1-38.73-172.75-33.91-289.35l.02-.46h379.82l.02.46c4.81 116.6-6.28 211.24-33.91 289.35-30.48 86.14-81.42 154.24-155.74 208.16l-.28.2-.28-.2z" fill="#fff"/>
    <path d="M419.95 33.22c9.07 219.45-36.25 385.95-189.45 497.1C77.31 419.17 31.98 252.67 41.05 33.22h378.9m.92-.95H40.13l-.04.92c-4.82 116.66 6.28 211.36 33.93 289.52 30.51 86.24 81.51 154.41 155.91 208.39l.56.41.56-.41c74.4-53.98 125.4-122.15 155.91-208.39 27.65-78.16 38.75-172.86 33.93-289.52l-.04-.92z"/>
    <path d="m98.47 150.56 33 75.44-33 73.23-33-73.23zM164.47 150.56l33 75.44-33 73.23-33-73.23zM230.49 150.56l33 75.44-33 73.23-33-73.23zM362.51 150.56l33 75.44-33 73.23-33-73.23zM296.51 150.56l33 75.44-33 73.23-33-73.23z" style="fill:#0085ca;stroke-miterlimit:4;stroke:#000"/>
</svg>
