<svg xmlns="http://www.w3.org/2000/svg" width="400" height="500" viewBox="30.5 31.5 400 500" xml:space="preserve">
    <path d="M230.44 531.14C156.12 477.22 105.18 409.12 74.7 322.98c-27.64-78.1-38.73-172.75-33.91-289.35l.02-.46h379.82l.02.46c4.81 116.6-6.28 211.24-33.91 289.35-30.48 86.14-81.42 154.24-155.74 208.16l-.28.2-.28-.2z" fill="#0085ca"/>
    <path d="M419.96 33.21c9.07 219.45-36.26 385.95-189.46 497.1C77.31 419.16 31.99 252.66 41.06 33.21h378.9m.92-.95H40.14l-.04.92c-4.82 116.66 6.28 211.36 33.93 289.52 30.51 86.24 81.51 154.41 155.91 208.39l.56.41.56-.41c74.4-53.98 125.4-122.15 155.91-208.39 27.65-78.16 38.75-172.86 33.93-289.52l-.04-.92z"/>
    <path d="m122.6 97.97 7.7 47.75c.48 2.96 1.99 8.42-3.39 8.32-22.27-.41-34.76-3-50.21-4.93v45.28c15.87-2.76 27.36-5.74 48.36-6.78 2.55-.13 6.05 3.5 6.16 6.78 1.82 51.63-3.32 105.05-6.47 153.4h45.48c-3.15-48.35-8.28-101.77-6.47-153.4.12-3.28 3.61-6.9 6.16-6.78 21 1.04 32.49 4.02 48.36 6.78v-45.28c-15.45 1.93-27.94 4.52-50.21 4.93-5.37.1-3.87-5.36-3.39-8.32l7.7-47.75h-24.9zM288.6 97.97l7.7 47.75c.48 2.96 1.99 8.42-3.39 8.32-22.27-.41-34.76-3-50.21-4.93v45.28c15.87-2.76 27.36-5.74 48.36-6.78 2.55-.13 6.05 3.5 6.16 6.78 1.82 51.63-3.32 105.05-6.47 153.4h45.48c-3.15-48.35-8.28-101.77-6.47-153.4.12-3.28 3.61-6.9 6.16-6.78 21 1.04 32.49 4.02 48.36 6.78v-45.28c-15.45 1.93-27.94 4.52-50.21 4.93-5.37.1-3.87-5.36-3.39-8.32l7.7-47.75h-24.9z" style="fill-rule:evenodd;fill:#fff;stroke:#000"/>
</svg>
