<svg xmlns="http://www.w3.org/2000/svg" width="400" height="500" viewBox="30.5 31.5 400 500" xml:space="preserve">
    <path d="M230.45 531.13c-74.32-53.92-125.26-122.02-155.74-208.16-27.64-78.1-38.73-172.75-33.91-289.35l.02-.46h379.82l.02.46c4.81 116.6-6.28 211.24-33.91 289.35-30.48 86.14-81.42 154.24-155.74 208.16l-.28.2-.28-.2z" fill="#e00e00"/>
    <path d="M419.96 33.21c9.07 219.45-36.25 385.95-189.45 497.1C146.04 469.02 94.36 390.9 66.52 296.34a557.24 557.24 0 0 1-5.87-21.54c-11.45-45.69-17.77-95.02-19.88-147.94-1.2-30.06-1.05-61.28.29-93.65h378.9m.92-.95H40.14l-.04.92c-4.82 116.66 6.28 211.36 33.93 289.52 30.51 86.24 81.51 154.41 155.91 208.39l.56.41.56-.41c74.4-53.98 125.4-122.15 155.91-208.39 27.65-78.16 38.75-172.86 33.93-289.52l-.04-.92z"/>
    <path d="M155.01 130.98c13.91-17.06 31.32 10.63 44.42.9-12.96 1.69-20.36-16.9-7.72-23.3-9.3-3.22-8.66-22.92 4.25-24.34-4.41-10.66 6.26-23.2 20.73-18.8 1.1-10.34 25.16-12.3 27.3 2.31 10.03-5.59 22.99 5.21 18.67 16.74 12.28 2.86 14.46 17.47 7.72 25.75 8.54 11.44-6.17 24.61-15.4 20.03 11.12 9.79 29.42-9.78 46.17 1.98-20.64.36-27.53 19.29-49.7 10.43-1.18 6.37 16.46 3.43 18.41 15.06-17.89-6.41-22.65 6.81-35.41-4.12 2.55 13.59 4.57 29.6 3.11 44.01-4.91 48.4-21.82 97.69-.15 133.68-.07-37.62 26.91-65.99 48.47-78.15-5.97 1.57-12.73 1.95-18.09.97-.74-2.06-.66-4.2.31-6.42-4.01 2.08-13.83 2.83-16.28-1.69 1.56-1.48 3.19-2.38 4.33-3.26-5.29-1.63-9.42-5.81-11.8-10.01.95-.83 3.56-1.69 5.53-1.98-4.03-3.31-7.55-8.55-8.48-13.92 2.03-.6 5.1-.27 7.13.07-3.1-4.96-5.47-10.41-5.33-17.58 1.73.43 3.46.87 5.35 1.81-3.12-4.31-4.28-9.05-4.32-14.04 2.07-.53 4.1-.33 5.96-.1-1.65-3.7-1.67-8.26-.81-12.14 3.38.22 6.89 1.46 9.27 3.4.08-1.92.95-4.52 2.57-6.1 3.43 1.02 8.54 4.37 11.46 7.89.03-1.28-.63-2.93.13-4.92 6.55 1.84 9.44 8.86 13.26 14.55-2.33-7.23-2.76-13.67-2.26-19.06 1.38.49 2.88 1.1 4.76 2.1-2.62-3.93-.95-12.98.5-18.03 2.28.25 3.03 1.43 4.97 2.2 1.49-6.13 3.78-8.74 6.55-12.02 2.68 2.65 5.06 5.56 6.21 9.58.86-1.4 2.24-3.61 3.25-4.36 4.36 4.55 5.66 13.74 6.63 18.63.78-1.69 2.7-3.47 5.15-4.27 2.17 4.5 1.68 12.92 1.03 18.93 1.47-7.02 4.33-15.44 8.24-18.02 1.5 1.31 2.77 2.77 3.76 4.42 2.07-4.44 6.85-9.81 10.6-11.82.87 1.92 1.53 4.1 1.73 4.93 4.22-5.53 8.65-7.25 11.85-7.44.31 1.48-.11 3.36-.46 4.81 8.13-4.94 13.84-5.21 15.65-5.33.22 1.85.42 3.72.3 5.91 3.65-1.01 7.77-1.22 12.45-.5-.57 4.17-1.54 8.29-3.31 12.28 2.39-.02 4.28.23 7.56 1.1-.48 4.97-2.18 9.79-5.53 13.07 2.03.28 3.96.91 5.65 2.38-1.24 4.42-3.58 9.68-6.19 12.73 2.48.57 3.33 1.95 4.13 3.37-3.32 3.54-6.95 5.56-10.1 7.29.96.64 2.04 1.85 2.76 3.13-5.81 4.07-12.7 6.52-19.18 7.54.14-.87 16.45 1.44 16.61 2.38.18 1.05-5.53 4.74-5.93 4.25 4.63 1.4 10.09 1.74 13.65 4.51-.75 1.55-1.98 3.5-4.37 5.28 4.18.96 7.88 2.86 11.2 5.54-2.56 3.17-5.37 5.54-10.05 7.21 1.48 1.33 3.09 2.67 3.09 3.99-2.92 2.12-6.18 2.91-9.78 2.45.26 1.72.3 3.52-.2 5.41-3.7 1.3-6.99.6-10.37.25.62 1.63 1.34 3.16.97 5.79-4.58 1.33-8.14 1.01-11.91 1.03 2.9 1.94 6.83 3.39 8.11 6.89-.76.95-2.56 2.21-3.99 3.15 3.81 3.68 7.95 8.9 7.99 14.94-1.46.08-3 .1-4.64 0 1.01 4.3 4.86 9.14 3.8 16.28-3.07-.46-4.32-1.11-5.73-1.74.9 6.96 1.62 14.95-.71 19.18-4.23-1.17-7.01-4.41-10.1-7.21.21 2.65.06 5.25-1.09 7.72-4.08.54-7.69-.83-11.27-2.31-.84 1.4-1.47 2.79-2.96 4.19-6.48-2.22-10.8-5.89-13.13-10.37-.1 1.41-.76 2.54-1.54 3.6-5.24-1.96-7.82-6.17-10.94-9.92-.55 1.29-1.26 2.35-2.31 2.96-4.63-3.52-6.77-8.29-7.99-13.52-.52 1.07-1.54 2.1-2.58 3.03-2.48-5.02-3.3-11.98-3.6-17.84-1.17.74-2.53.92-3.87 1.16-.03-6.45 1.84-12.69 4.89-18.8-1.28 1.47-2.75 2.48-4.37 3.09-.85-4.84-.18-10.18 1.03-15.71-29.01 21.98-46.56 49.87-44.66 90.31 8.42-10.87 18.08-13.01 29.98-10.48-12.1 5.8-22.72 20.63-26.89 37.08-4.21 16.59-1.92 34.83-2.84 46.55-.85 10.86-7.61 28.69-13.84 43.71-1.67 4.01-3.76-4.59-9.65-10.41-4.55-4.5-7.18-7.4-5.93-10.7 26.77-70.51 22.5-114.21-36.14-121.42 4.44-11.09 15.67-11.99 30.77-7.08-14.98-30.65-37.42-45.46-47.25-52.28 2.11 4.47 6.04 8.84 4.64 15.32-1.42.14-2.76.39-4.76-.64 2 4.63 3.71 9.31 2.96 14.42-1.18.34-2.15.27-3.09.13.7 4.07.36 9.29-.39 14.94-2.66.6-4.48-.06-6.18-.9.46 3.91-.48 8.72-1.81 12.49-2.03.03-3.94-.95-5.79-2.96-3.66 4.39-6.33 9.67-11.33 12.88-1.39-1.35-1.94-3.13-2.06-5.15-3.54 2.98-7.43 5.16-11.71 6.44-1.75-1.89-2.27-3.78-2.84-5.67-1.36 1.71-3.2 4.78-5.84 6.65-2.45-.96-6.43-3.93-8.71-6.13-2.18 1.68-4.39 2.86-6.7 3.09-2.07-3.5-2.64-7.5-1.67-11.98-1.48.28-3.61.66-5.54.21-2.18-2.94.56-16.28 2.11-18.56-1.9-.91-4.34-2-6.1-3.92.31-5.19 5.43-9.64 9.14-12.49-2.01-.37-3.59-1.51-4.89-2.45 2.89-4.03 7.05-7.52 12.75-8.63-5.22-.42-10.17-.37-15.03-2.92.15-1.85.92-3.28 1.89-4.81-4.49.68-9.09 1.78-13 .5.02-1.74.52-3.68 2.05-5.01-4.54-1.04-8.92-2.26-11.2-5.93 1-1.44 2.38-2.39 3.87-3.22-3.42-1.77-6.04-4.97-8.11-8.37 2.97-3.07 6.37-4.7 9.94-5.7-.88-1.3-1.06-3.35-.93-4.98 3.55-1.17 7.37-.71 11.16-.36-2.02-.86-3.65-2.38-4.52-3.87 3.67-2.2 9.42-2.73 13.58-2.99-6.29-1.33-12.22-3.28-17.12-7.08.66-1.27 1.61-2.46 3.12-3.49-6.06-2.88-12.18-6.48-14.8-12.22 1.53-.11 3.28-.42 4.7.2-3-4.32-6.13-11.62-6.59-16.54 2.57-.56 4.22-.73 5.59-.15-2.14-2.8-4.99-7.03-4.64-13.26 1.72-.51 3.44-.31 5.15.39-1.85-4.71-1.73-9.54-1.56-14.36 5-.86 9.99-.67 17.15.74-.54-1.78-.57-3.67-.01-5.69 4.69.41 9.45 2.1 14.25 4.33-.34-.88-.48-1.83.14-3.07 4.13 1.57 7.5 4 9.68 7.76 1.45-2.33 2.78-3.62 4.12-5.02 5.03 2.92 8.33 8.36 10.74 12.84.43-1.19.83-2.32 1.81-3.09 2.08.41 5.36 7.98 8.06 16.27-1.09-5.22-1.25-12.62 1.16-17.12 1.63.93 2.32 1.53 3.35 2.31.26-5.01 2.9-11.73 5.79-16.87 1.82.99 3.02 2.69 3.66 3.09 1.08-3.44 5.76-9.17 8.64-10.94 2.46 1.88 7.73 9.47 7.97 12.57 1.63-1.31 2.9-1.87 4.2-2.52 1.92 3.72 1.55 13.06 1.37 16.96 1.47-.17 3.61.2 4.94.94.47 2.2-1.55 12.67-3.77 16.09.07-.68 8.61-9.96 13.03-10.75 1.02.75 2.33 2.4 2.7 3.67 2.29-4.63 8.43-7.47 11.98-8.24 1.31 1.2 2.62 2.92 3.09 4.44 2.81-1.91 6.39-2.28 10.06-2.51.25 4.24-.97 10.95-3.5 14.37 1.49-.06 5.19-.5 6.98 1.21.67.83-6.28 12.54-6.82 11.07-.43-1.14 7.56 1.2 7.47 1.54-2.13 5.7-4.2 11.46-8.49 15.32 1.76-.19 3.51.1 5.28.77-1.62 7.71-5.89 11.66-7.32 13.15 1.59.72 2.8 2.58 3.59 4.11-2.77 4.13-7.25 6.1-12.11 6.95 1.5.76 2.86 1.86 3.99 3.48-5.04 3.02-10.37 5.26-16.61 5.02 1.84.7 3.83 2.59 4.89 4.25-6.56 3.62-12.86 2.51-19.18 1.93 13.27 7.74 38.32 32.33 41.97 45.71-5.88-48.38 22.04-101.08 5.54-150.52-12.62 9.9-19.22-4.09-35.28 8.76-.83-5.12 4.2-12.46 13.25-17.12-26.36.44-19.04-14.19-42.74-13.52z" style="fill:#ffe000;stroke-linejoin:round;stroke-miterlimit:4;stroke:#000"/>
</svg>
