<svg xmlns="http://www.w3.org/2000/svg" width="400" height="500" viewBox="30.5 31.5 400 500" xml:space="preserve">
    <path style="fill:#0085ca" d="M230.55 531.13c74.32-53.92 125.26-122.02 155.74-208.16 27.64-78.1 38.73-172.75 33.91-289.35l-.02-.46H40.36l-.02.46c-4.81 116.6 6.28 211.24 33.91 289.35 30.48 86.14 81.42 154.24 155.74 208.16l.28.2z"/>
    <path d="M41.04 33.21c-9.07 219.45 36.25 385.95 189.45 497.1 84.47-61.29 136.15-139.41 163.99-233.97a557.24 557.24 0 0 0 5.87-21.54c11.45-45.69 17.77-95.02 19.88-147.94 1.2-30.06 1.05-61.28-.29-93.65H41.04m-.92-.95H420.86l.04.92c4.82 116.66-6.28 211.36-33.93 289.52-30.51 86.24-81.51 154.41-155.91 208.39l-.56.41-.56-.41c-74.4-53.98-125.4-122.15-155.91-208.39C46.38 244.54 35.28 149.84 40.1 33.18l.04-.92z"/>
    <path style="fill:#fff;fill-opacity:1;stroke:#000;stroke-width:1;stroke-miterlimit:4;stroke-dasharray:none;stroke-opacity:1" d="M230.33 364.058c14.108 2.058 13.575 9.084 17.004 12.611 4.605 4.703 1.738 8.29 2.13 19.068 1.916 1.751 7.127 2.359 10.318-1.543.543-15.48 3.713-15.884 7.926-19.411 6.074 2.94 13.73 1.11 24.408-.85 4.786 2.361 15.413 6.031 25.262 7.57 5.275.823 8.476.67 12.474-1.38 0 0-9.013-6.173-13.226-11.268 0 0 11.463-2.057 20.28-3.527-7.868-16.591-17.86-27.581-33.928-37.183-5.78-37.035-15.286-82.994-35.824-118.243-6.458-11.082-20.328-34.895-31.808-43.028 3.274-11.11 2.476-8.865 6.858-20.771 2.94-8.132 7.279-4.333 12.41-35.386 2.413-14.604 1.861-27.402-13.031-39.55C228.65 60.584 228.108 55.1 203.42 52.321c-5.784-.651-27.236 3.054-31.776 10.99-8.622 13.913-8.704 16.755-11.447 37.428-1.274 9.112 11.694 8.164 13.164 17.08 8.546 2.82 5.308 7.591 5.456 9.857.464 7.106-21.459 10.637-26.85 34.2-25.474 8.426-43.6 44.048-36.905 83.918 4.082 24.304 9.877 22.55 33.098 60.858 14.206 23.416 19.217 35.949 46.259 47.804 8.034 14.598 5.363 20.672 5.911 31.796.146 2.959 8.89 5.217 10.86-1.66 1.02-6.802 6.638-20.483 19.138-20.535z"/>
    <path style="fill:#e00e00;fill-opacity:1;stroke:#000;stroke-width:1;stroke-miterlimit:4;stroke-dasharray:none;stroke-opacity:1" d="M259.887 393.595c-1.13 25.382 4.912 9.12 5 19.943.086 7.759-7.73-.478-20.064 11.686-15.808 15.516-13.29 20.305-16.068 23.37-3.735-2.682-2.954-9.195-1.998-12.93-14.679-4.023-18.76-.48-19.89 3.64-3.995-8.43 6.862-10.537 10.423-13.601-2.345-1.82-10.25 1.34-13.376 2.202 3.04-10.056 12.768-3.16 21.54-7.853 5.472-2.97 10.944.862 14.94-2.395 7.034-5.843 9.38-15.793 9.12-22.785 2.519-1.341 3.907 2.097 5.818 1.043 1.408-.956 1.477-2.666 4.555-2.32zM170.938 99.884c.588 5.291 2.094 14.704 3.465 17.35-16.236 2.759-28.912.303-33.798-1.494-4.957-1.823-10.247-6.507-15.946-12.074 0 0 41.576-18.968 46.279-3.782z"/>
    <path style="fill:#e00e00;fill-opacity:1;stroke:#000;stroke-width:1;stroke-miterlimit:4;stroke-dasharray:none;stroke-opacity:1" d="M146.739 101.14c16.55-.856 17.957-1.795 24.199-1.256-.691-5.9-3.879-5.847-4.53-12.367-.769-7.693 1.309-8.798 4.999-23.681-22.072.035-49.538 17.023-50.97 40.514 10.424-1.404 13.592-2.551 26.302-3.21z"/>
    <path style="fill:#e00e00;fill-opacity:1;stroke:#000;stroke-width:.9863202;stroke-miterlimit:4;stroke-dasharray:none;stroke-opacity:1" d="M164.597 411.96c3.55.63 7.455 2.104 17.395.105 8.608-1.684 17.927-.842 18.193-6.419.102-4.561-.02-10.917.083-23.652 3.107-1.789 2.844 2.978 5.686 2.923 2.573-.05 1.012-3.625 5.58-2.152-.532 6.524-1.232 17.935 2.496 23.302 4.437 6.313-.089 8.944-6.124 9.68-16.063 1.79-14.91 10.628-23.074 11.891-5.946.947-8.698 8.839-10.384 12.206-.887-5.366-1.597-9.47 1.509-12.943-11.537 1.158-11.981-5.682-20.146 3.999-.089-3.578 0-6.524 8.076-12.627-3.55-2.315-11.98-1.473-13.312 3.472-1.598-1.578 3.816-11.785 14.022-9.89z"/>
    <path style="fill:none;stroke:#000;stroke-width:1;stroke-linecap:round;stroke-linejoin:miter;stroke-miterlimit:4;stroke-dasharray:none;stroke-opacity:1" d="M182.392 64.652c11.41-3.014 21.686-2.896 30.211 1.602 15.046 7.939 15.934 22.595 34.734 22.313M187.068 124.855c21.19.165 30.912-6.634 38.399-12.635 11.106-8.9 13.682-19.33 21.783-20.568"/>
    <path style="fill:#000;stroke:#000;stroke-width:1;stroke-linecap:round;stroke-linejoin:miter;stroke-miterlimit:4;stroke-dasharray:none;stroke-opacity:1" d="M202.864 87.392c-.966-5.802-4.13-9.566-6.656-10.82-4.25 2.39-4.751 9.858-2.9 10.969z"/>
    <path style="fill:none;stroke:#000;stroke-width:1;stroke-linecap:round;stroke-linejoin:miter;stroke-miterlimit:4;stroke-dasharray:none;stroke-opacity:1" d="M304.882 354.159c-.18 5.017 7.337 10.397 11.744 14.696M292.116 373.934c-10.174-5.681-19.723-19.924-28.547-43.928"/>
    <path style="fill:none;stroke:#000;stroke-width:1;stroke-linecap:round;stroke-linejoin:miter;stroke-miterlimit:4;stroke-dasharray:none;stroke-opacity:1" d="M270.157 333.798c-25.18-14.011-47.616-44.776-56.924-85.73"/>
    <path style="fill:none;stroke:#000;stroke-width:1.01650369px;stroke-linecap:round;stroke-linejoin:miter;stroke-opacity:1" d="M232.559 429.83c-3.821 1.764-5.389 4.997-6.173 7.642"/>
    <path style="fill:none;stroke:#000;stroke-width:1;stroke-linecap:round;stroke-linejoin:miter;stroke-miterlimit:4;stroke-dasharray:none;stroke-opacity:1" d="M241.783 420.722c-4.95 2.203-21.627 7.375-24.667 4.885"/>
    <path style="fill:none;stroke:#000;stroke-width:1.00259805px;stroke-linecap:round;stroke-linejoin:miter;stroke-opacity:1" d="M183.59 416.274c-3.728 1.999-9.053 3.262-19.88 2.21M185.72 419.536c-2.93 2.525-5.77 5.997-9.94 7.576"/>
    <path d="M230.5 88.438c-6.338.582-19.386 1.025-27.636-1.046M196.208 76.572c.25-1.673.598-3.641 1.243-6.502" style="fill:none;fill-rule:evenodd;stroke:#000;stroke-width:1px;stroke-linecap:round;stroke-linejoin:miter;stroke-opacity:1"/>
</svg>
