<svg xmlns="http://www.w3.org/2000/svg" xml:space="preserve" viewBox="30.5 31.5 400 500" height="500" width="400">
    <path d="M230.45 531.13c-74.32-53.92-125.26-122.02-155.74-208.16-27.64-78.1-38.73-172.75-33.91-289.35l.02-.46h379.82l.02.46c4.81 116.6-6.28 211.24-33.91 289.35-30.48 86.14-81.42 154.24-155.74 208.16l-.28.2z" style="fill:#e00e00"/>
    <path d="M419.96 33.21c9.07 219.45-36.25 385.95-189.45 497.1C146.04 469.02 94.36 390.9 66.52 296.34a557.24 557.24 0 0 1-5.87-21.54c-11.45-45.69-17.77-95.02-19.88-147.94-1.2-30.06-1.05-61.28.29-93.65h378.9m.92-.95H40.14l-.04.92c-4.82 116.66 6.28 211.36 33.93 289.52 30.51 86.24 81.51 154.41 155.91 208.39l.56.41.56-.41c74.4-53.98 125.4-122.15 155.91-208.39 27.65-78.16 38.75-172.86 33.93-289.52l-.04-.92z"/>
    <path style="fill:#ffe000;fill-opacity:1;fill-rule:evenodd;stroke:#000;stroke-width:1px;stroke-linecap:butt;stroke-linejoin:miter;stroke-opacity:1" d="M230.5 62.66c-22.531 0-45.804 16.498-44.747 50.211.797 25.424 14.036 53.629 27.416 75.162L196.633 200.1c-15.962-19.142-37.79-39.786-60.914-48.476-31.574-11.864-54.692 4.851-61.952 26.18-7.26 21.33.858 48.677 33.113 58.54 24.324 7.438 55.29 3.995 79.987-1.732l5.402 18.292c-23.157 10.317-49.941 26.236-64.866 46.834-19.79 27.313-9.783 54.027 8.868 66.669 18.65 12.642 47.17 12.043 65.212-16.456 13.226-20.893 18.194-50.559 19.385-75.469h19.264c1.19 24.91 6.16 54.576 19.385 75.469 18.041 28.499 46.562 29.098 65.212 16.456 18.65-12.642 28.658-39.356 8.868-66.67-14.925-20.597-41.709-36.516-64.866-46.833l5.402-18.292c24.696 5.727 55.663 9.17 79.987 1.732 32.255-9.863 40.374-37.21 33.113-58.54-7.26-21.329-30.378-38.044-61.952-26.18-23.125 8.69-44.952 29.334-60.914 48.476l-16.536-12.066c13.38-21.533 26.619-49.738 27.416-75.162 1.057-33.713-22.216-50.21-44.747-50.21"/>
    <path style="fill:#e00e00;fill-opacity:1;fill-rule:evenodd;stroke:#000;stroke-width:1px;stroke-linecap:butt;stroke-linejoin:miter;stroke-opacity:1" d="M211.513 114.897c-.028-11.454 4.914-23.397 18.987-23.397 14.073 0 19.015 11.943 18.987 23.397-.04 17.103-6.625 34.683-18.987 51.603-12.362-16.92-18.946-34.5-18.987-51.603ZM117.099 212.61c-10.852-3.664-20.566-12.191-16.03-25.513 4.534-13.323 17.433-14.153 28.267-10.435 16.177 5.55 30.697 17.448 42.731 34.603-20 6.25-38.764 6.818-54.968 1.346zM181.297 333.82c-6.404 9.496-17.196 16.61-28.845 8.713-11.649-7.896-9.039-20.555-2.589-30.02 9.63-14.135 24.944-24.992 44.67-32.062.74 20.942-3.674 39.188-13.236 53.369zM343.901 212.61c10.852-3.664 20.566-12.191 16.03-25.513-4.534-13.323-17.433-14.153-28.267-10.435-16.177 5.55-30.697 17.448-42.731 34.603 20 6.25 38.764 6.818 54.968 1.346zM279.703 333.82c6.404 9.496 17.196 16.61 28.845 8.713 11.649-7.896 9.039-20.555 2.589-30.02-9.63-14.135-24.944-24.992-44.67-32.062-.74 20.942 3.674 39.188 13.236 53.369zM218.195 247.868l-8.537-25.843 20.842-15.113 20.842 15.113-8.537 25.843h-24.61z"/>
</svg>
