<svg xmlns="http://www.w3.org/2000/svg" xml:space="preserve" viewBox="30.5 31.5 400 500" height="500" width="400">
    <path d="M230.44 531.14C156.12 477.22 105.18 409.12 74.7 322.98c-27.64-78.1-38.73-172.75-33.91-289.35l.02-.46h379.82l.02.46c4.81 116.6-6.28 211.24-33.91 289.35-30.48 86.14-81.42 154.24-155.74 208.16l-.28.2-.28-.2z" fill="#ffe000"/>
    <path d="M230.5 530.73c55.18-40.3 95.95-85.9 127.11-143.04-42.95 42.67-151.13 11.89-150.24-80.98.32-33.99 18.03-66.5 44.43-67.52 29.44-1.14 40.46 25.76 33.11 41.82 26.82-5.71 50.29-36.71 51.83-82.32 1.83-54.26-57.39-83.98-106.24-89.32-54.14-5.91-101.44 18.67-122.46 35.72-19.22 15.59-49.04 58.55-56.36 90.28 23.92 123.98 74.48 219.02 178.81 295.37" style="fill-rule:evenodd;fill:#0085ca"/>
    <path d="M419.96 33.21c9.07 219.45-36.26 385.95-189.46 497.1C77.31 419.16 31.99 252.66 41.06 33.21h378.9m.92-.95H40.14l-.04.92c-4.82 116.66 6.28 211.36 33.93 289.52 30.51 86.24 81.51 154.41 155.91 208.39l.56.41.56-.41c74.4-53.98 125.4-122.15 155.91-208.39 27.65-78.16 38.75-172.86 33.93-289.52l-.04-.92z"/>
    <path d="M357.78 387.51c-42.95 42.67-151.3 12.07-150.41-80.8.32-33.99 18.03-66.5 44.43-67.52 29.44-1.14 40.46 25.76 33.11 41.82 26.82-5.71 50.29-36.71 51.83-82.32 1.83-54.26-57.39-83.98-106.24-89.32-54.14-5.91-101.4 18.72-122.46 35.72C88.8 160.63 59 203.64 51.68 235.37" style="fill:none;stroke-linecap:round;stroke-linejoin:round;stroke:#000"/>
</svg>
