<svg xmlns="http://www.w3.org/2000/svg" width="420" height="500" viewBox="30.5 31.5 420 500" xml:space="preserve">
    <path d="M440 32.7c2.09 102.46-3.38 187.49-43.93 296.59-28.05 75.48-74.21 144.77-155.57 201.59-81.36-56.82-127.52-126.11-155.57-201.59C44.38 220.19 38.91 135.16 41 32.7c133 .29 266 0 399 0z" style="fill-rule:evenodd;fill:#32ac60;fill-opacity:1"/>
    <path d="M440 32.7c2.09 102.46-3.38 187.49-43.93 296.59-28.05 75.48-74.21 144.77-155.57 201.59-81.36-56.82-127.52-126.11-155.57-201.59C44.38 220.19 38.91 135.16 41 32.7c133 .29 266 0 399 0z" style="fill:none;stroke:#000"/>
    <path style="fill:#fff;fill-opacity:1;stroke:#000;stroke-linecap:round;stroke-linejoin:round;stroke-opacity:1" d="M237.473 53.763c-2.82.38-.976 5.914-6.168 5.861-.047 2.12-1.918 5.486-4.183 4.863-.505 7.332-1.639 9.219-4.706 7.805-.054 2.577-1.749 12.075-6.603 10.4-1.608 8.525-4.866 12.295-8.078 9.954-.478 3.222-1.812 11.746-7.638 10.12.162 2.981-.229 7.949-3.984 6.866.6 5.592.5 9.903-3.223 9.43.646 4.268 1.17 10.625-3.627 9.38-.803 4.61-1.087 11.207.628 16.32 1.913 5.706 7.409 10.155 13.32 11.351 11.958 2.42 31.54.306 31.7 12.597.17 13.318.217 24.116-.124 37.616-.126 4.981-3.256 3.91-6.297 1.665-8.617-6.362-15.146-11.99-22.648-18.346-9.646-8.172-18.746-16.073-26.957-23.793-5.285-4.97-13.216-13.998-7.802-21.667 4.673-6.62 5.379-16.006 5.802-21.92.672-9.395-5.93-14.717-10.563-19.914-3.718 2.006-5.621.202-8.88-3.666-3.509 2.626-7.316 1.069-10.562-3.472-1.331 2.43-5.744-.225-7.46-2.756-.594 4.195-5.489 1.512-8.412-.166-.842.806-2.213 2.733-8.703-1.711-.76 2.903-3.687 1.854-6.561.42-.875 2.248-3.753 1.64-7.16-.326.042 3.132-5.7 1.22-7.293.415-.211 2.732-4.713 2.777-8.679.31-1.307 2.398-5.3 1.478-8.173-.812-1.63 2.195-6.23-1.422-8.16-1.8 1.142 3.571 4.566 7.659 2.257 9.872 2.437 2.846 4.56 6.07 1.908 8.3 3.594 2.525 5.343 5.87 3.12 8.881 2.518 1.398 3.221 6.522 1.107 7.958 2.173 2.43 4.733 6.68 2.62 9.41 1.296.806 4.943 4.98 2.166 7.492 2.68 2.631 4.285 6.542 1.92 8.769 2.777 1.627 6.514 4.91 4.757 8.357 2.41.901 6.823 1.658 3.646 5.864 3.366.924 6.102 2.378 5.117 5.76 2.248.162 8.25.114 6.755 5.063 1.983 1.059 3.945 1.716 6.157 2.313 7.471 2.016 18.695.628 25.817-3.246 3.908-2.126 8.773-9.983 15.693-11.213 5.33-.947 8.94.528 15.734 6.377 15.218 13.101 17.052 16.247 30.58 28.993 1.834 1.727-2.401 3.507-3.751 10.077-.909 4.42-.147 8.8-.597 11.898-2.543 1.437-3.125 10.548.041 9.316-2.544 2.79-1.58 9.677.65 7.852-2.667 1.047-2.391 10.572.473 7.604-1.421 1.128-2.881 8.673.93 7.243-2.227.743-3.047 8.675-.226 7.903-2.475 2.948.071 7.35 1.922 7.603 3.153.43 7.261-5.27 3.246-8.623 4.272 2.442 2.281-7.327.113-7.12 2.607 2.885 4.178-4.919.335-7.734 4.424 4.958 1.21-7.075-.376-7.241 4.61 2.007.703-8.83-.933-8.22 4.637 1.014.08-8.88-2.049-9.265-2.532-9.548.953-18.648 6.604-16.322l12.3 9.823c1.385 1.106-1.145 3.321-1.963 2.517-1.736-1.705-3.533.978-1.675 3.401 3.14 4.095 13.39 9.754 13.511 16.256.112 5.994.19 43.242-1.022 65.526-.392 7.212-5.072 9.19-8.212 6.344-10.976-9.945-24.561-25.284-32.529-35.219-2.295-2.863-5.117-5.942-5.936-7.732-2.21-4.833-4.32-8.878-1.712-12.575 6.299-8.926 10.458-19.889 8.355-28.624-.428-1.78-2.137-5.14-5.722-7.972-2.48.224-5.9-.774-9.96-6.624-1.643 1.631-5.871.539-11.603-2.172.983 2.511-2.637 3.502-9.17-2.26-3.096 4.308-10.62-1.152-11.3-1.919-2.453 3.179-7.966 3.086-11.094-.437-1.837 3.395-8.564 1.69-11.495-1.527-2.161 2.004-7.209 1.39-9.734-2.264-1.729 2.653-5.666 1.646-8.18-1.425-2.35 4.069-12.245-3.774-19.642-1.867.314 1.827 5.841 4.966 4.589 8.68 1.505 1.062 6.155 3.83 3.919 6.263-1.358-1.747 8.786 4.706 5.09 8.337 7.096 5.122 5.223 7.63 2.877 9.496 3.598 1.16 5.434 9.126 2.23 10.135 4.263 1.78 6.905 10.047 3.055 12.547 4.398 1.132 6.121 10.883 2.507 11.566 4.026 2.149 7.58 5.083 5.654 10.092 2.874 1.277 7.221 3.853 4.794 7.138 4.262-.456 10.207 3.899 6.7 6.07 2.8 1.528 3.936 2.026 6.519 3.105 4.264 1.78 9.411 4.058 13.446 3.725 3.887-.322 7.058-2.298 8.336-3.221 9.968-7.195 22.917-24.148 30.753-15.21l42.278 48.218c6.02 6.867 4.177 10.274 4.177 15.857 0 0-.134 52.846.567 62.7.7 9.853-7.393 7.306-8.87 5.224l-8.63-12.172c-2.557-3.608-.903-10.059 2.155-15.867 4.235-8.043 9.555-15.637 8.847-21.27-.234-1.865-1.13-2.835-2.946-4.896-4.162-1.025-7.14-5.106-8.459-10.637-6.15 1.078-7.376-2.72-8.849-6.53-4.38 1.062-7.163-1.602-8.75-4.459-2.868 1.416-6.438 1.213-8.696-1.076-1.997 1.155-6.183.998-7.69-1.233-2.84 1.366-7.516-.7-9.058-2.57-1.036 2.328-5.391 2.34-7.948-.355-2.463 2.914-6.987 2.348-9.873-.773-2.32 1.982-6.853 1.993-8.685-2.277-3.049.839-7.296-2.189-15.015-1.615-1.18 9.25 7.382 4.96 5.481 13.484 4.687 1.04 7.052 5.626 5.128 10.595 4.08 1.88 5.488 7.885 2.641 9.74 4.879 3.15 4.685 8.65 1.94 10.69 4.035 1.57 5.697 9.627 2.002 11.681 3.794 2.292 3.188 9.66 1.279 11.11 2.511.87 5.34 6.13 2.785 7.602 3.914.421 6.17 5.54 4.097 7.008 6.781 7.499 22.09 20.479 35.523 7.17 5.772-5.72 15.764-20.31 20.14-13.579l9.504 14.62c-5.705 2.25-8.7 7.018-9.7 12.619-6.796 4.964-4.511 10.65-1.855 8.793-.942.088-5.363 6.655-.59 7.881.18-1.15-3 5.774.66 6.521-2.48.387-1.323 7.49.506 5.52-.816-.16-1.592 7.89 1.443 7.252-2.258 4.936-.439 8.458 2.258 8.349 2.43-.1 3.652-3.49 1.696-8.42 1.203.37 3.53-5.076-.29-7.088 2.324.634 3.253-4.025.732-4.964 1.803 1.217 4.33-4.097-.154-7.252 2.998 2.285 4.55-6.399.248-7.842 2.115 1.589 4.61-3.988-.66-8.667-.161-3.691 3.45-8.22 6.722-9.104 1.648-.444 3.524.46 5.08 2.006 8.187 8.14 10.464 19.485 8.05 36.105-.793 5.46-.62 10.248-.775 15.669-.058 2.031 6.016.629 8.749 2.609 2.553 1.85 4.197 3.574 6.585 6.4 2.173 2.568 3.97-1.494 3.746-6.418-.4-8.753-3.992-24.002-2.534-36.611.291-2.528 6.32-4.994 8.731-8.916 1.8-2.926-2.691-2.713-4.652-3.72-1.961-.863 1.527-5.011 6.14-6.77 4.056-1.547 8.371-.22 8.833 7.659-3.277.375-4.595 13.867.243 9.492-3.84 1.47-4.377 11.403.405 8.567-4.278 1.326-4.742 11.952-.918 8.959-2.878 1.228-3.665 9.996-.506 9.691-1.482 4.63.068 9.301 2.236 9.336 2.613.042 4.504-3.074 2.814-8.59 2.715 1.875 3.922-7.06.056-10.061 3.713 2.263 3.34-7.24.012-9.148 3.989 4.202 3.78-8.137.495-9.148 3.738 4.624 2.738-9.41-1.86-9.73-.724-3.893.988-11.307-8.36-11.794 1.62-4.128 3.808-7.302 7.933-11.96 2.893-3.269 4.248-6.15 8.24-8.227 4.3-2.237 9.636 6.457 18.072 10.484 4.623 2.207 10.622 2.792 16.74.676 6.262-2.166 7.53-5.242 11.352-7.92-1.132-1.686 1.154-6.398 4.125-7.158-1.904-2.12-1.742-7.856 2.23-10.175-2.114-1.986-.781-7.18 2.412-10.366-3.206-1.948-2.288-9.34 1.776-10.131-2.663-.82-1.385-7.15 1.741-8.854-3.22-1.59-2.383-10.362.149-12.357-2.901-1.994-2.86-8.136 1.721-12.21-2.945-2.32.008-5.727 1.342-8.56-3.344 1.912-5.884 4.792-9.144 1.372-.666 3.257-7.622 9.128-10.826 3.375-2.153 2.385-4.718 4.58-7.793 2.89-1.024.987-5.14 4.952-7.309 1.255-2.612 2.757-5.773 4.44-8.068 2.038-1.743 2.321-6.007 4.42-8.647.976-1.996 2.709-5.849 5.974-11.09 3.084-.132 2.71-3.777 6.808-7.348 4.356-.846 1.242-.592 8.797-8.977 7.834-1.488 2.96-3.742 7.802-4.862 12.644-.803 3.472-.504 7.456 1.562 10.433 5.206 7.501 19.893 14.566 12.908 23.205l-18.82 23.277c-8.886 10.99-4.033-52.926-5.777-79.405-.731-11.1 4.341-15.17 9.395-21.155 7.438-8.809 14.45-15.54 21.561-23.348 5.562-6.105 10.539-13.661 17.405-18.142 5.704-3.721 7.859-4.962 10.594-2.441 8.596 7.92 22.075 23.056 39.434 13.745.463-5.72 8.69-10.98 11.391-9.905.286-6.846 4.37-10.752 8.294-12.083-2.477-3.49.957-11.216 3.419-12.318-1.754-3.627 1.032-9.461 3.636-11.02-2.79-6.009-.71-10.528 2.759-13.585-1.273-2.661 1.965-7.072 3.84-7.665.083-3.03 1.83-8.289 4.264-8.614-2.37-7.736 6.219-12.763 7.626-12.842-2.866-1.49 2.622-5.596 2.574-9.037-3.404 1.381-6.607 4.124-9.861 2.575-2.041 3.537-7.13 4.2-11.065 2.782-.333.746-6.03 5.38-11.37 1.626 1.123.118-6.855 5.175-10.72-.05-1.516 1.996-8.09 4.403-12.356.836-2.24 1.29-6.79 4.698-11.767 2.35-1.716 1.942-5.12 4.812-9.22 2.278-1.36 1.762-4.52 4.937-8.78 2.852-1.855 3.499-5.633 4.688-7.852 4.005-.966 1.568-3.58 5.536-6.512 3.7-3.67 3.93-6.092 8.707-6.738 15.092-.717 7.094-.243 13.486 4.456 20.558 3.487 5.247 9.227 12.66.495 21.296l-33.585 35.234c.579-1.824 1.133-5.395-.397-5.272-3.795.303-5.931 7.969-8.518 12.04-3.877 6.106-6.945-2.983-6.86-8.325.31-19.236-2.285-37.63-.193-57.716.809-7.76 2.16-10.06 9.864-15.167.582-.386 3.018-.425 3.621-1.42 1.13-1.865 1.835-4.743.055-6.618-1.132-1.193-.653-4.766.87-7.074 2.245-3.403 5.757-5.836 7.286-5.141 3.123 1.418 2.21 10.172 2.23 13.837-1.148 1.857-4.668 3.314-4.577 7.462.053 2.422-.257 1.615 1.955 1.63.967.005-2.847-.632-2.483 5.75.158 2.774-.292 3.143 2.295 3.123 1.391-.011-3.147-.787-1.56 6.804.176.842 3.208 1.047 1.118 1.31-2.584 2.728-.477 8.347.84 6.203-4.086 3.4-.759 8.01.75 7.195-3.363 2.99-.769 9.678 2.646 9.25 5.643-.707 1.837-9.38 2.546-8.98 4.101.447 2.066-5.815 1.48-6.639.686.25 1.658-1.087 1.662-1.488.065-5.935-2.549-4.742-2.159-5.789.587-1.573 2.56 3.611 2.224-3.2-.211-4.27-3.848-4.481-2.36-4.575 1.673-.106 2.307.329 2.35-3.802.047-4.508-3.393-6.138-1.597-5.324 1.445.655 1.205 1.037 2.016-2.009 1.102-4.136-3.062-6.357-3.815-6.214.064-5.368 1.508-14.002-4.315-19.477 10.332-14.662 24.331-27.444 39.672-41.123 11.965-10.669 20.834 16.848 38.044 17.93 5.493.345 11.765-3.137 19.565-10.946-2.739-2.85-.587-7.125.103-8.356 2.94-3.293 5.045-3.5 7.921-3.644-2.9-4.549 2.29-10.09 5.587-11.067-2.994-5.173 1.202-9.48 3.085-10.19-1.986-3.24-.125-7.527 3.243-9.114-1.993-3.859-.995-8.091 2.277-10.31-2.195-4.423.113-9.946 3.936-11.51-2.191-3.478 1.348-8.352 3.52-8.458-.917-3.693 1.443-8.543 4.904-10.488-3.518-1.725-9.49 1.62-12.469-1.244-1.825 1.446-5.535 3.613-9.454 1.32-3.486 2.681-7.267 2.78-11.285.25-2.984 2.025-9.779 2.044-11.301-.757-3.099 2.749-8.06 3.532-11.944.566-2.68 1.709-6.787 2.368-9.909.028-2.438 3.495-6.433 3.27-9.276 1.975-.815 2.138-4.323 4.002-7.727 3.32-.709 2.23-4.6 5.853-8.452 3.764-5.907 2.372-11.194 9.05-12.43 16.72-1.248 7.747 1.725 17.6 8.08 27.786 2.818 4.515 5.7 8.27 2.889 14.096-1.51 3.13-4.446 6.693-9.346 10.86-14.803 12.586-27.1 23.9-39.605 43.085-1.303 2-4.284 6.733-5.071 5.493-1.866-2.938-2.616-2.92-3.489-1.897-1.728 2.026-.56 3.726-1.486 9.254-1.073 6.41-4.502 3.71-5.268.546-.97-4.001-.232-11.459-.17-16.03.155-11.643.205-20.045.741-29.634.406-7.244 8.767-6.101 18.727-7.31 9.242-1.121 13.687-1.413 17.265-9.829.797-1.874 2.008-9.534 2.1-13.79-5.777 3.877-.43-4.74-.848-9.408-4.65 1.665-1.661-3.965-1.562-6.833-2.562.197-3.456-3.471-2.235-6.903-3.041-.255-2.708-4.443-1.998-6.383-4.142-.376-5.23-4.152-5.362-6.882-4.032.49-5.513-4.327-5.038-6.943-2.27-.562-3.286-3.844-3.12-5.09-2.895-.968-3.511-3.06-3.274-5.868-4.1-.265-4.8-3.832-4.285-7.78-1.334.3-3.2-1.685-2.758-3.93-2.163.378-3.498-1-4.061-4.674-2.37-.013-3.478-2.697-3.472-5.727-3.431.804-1.192-7.391-3.786-7.042z"/>
    <path d="M90.143 99.977c21.804 18.707 44.053 36.374 66.857 52.749" style="fill:none;fill-rule:evenodd;stroke:#000;stroke-width:1px;stroke-linecap:round;stroke-linejoin:round;stroke-opacity:1"/>
    <path d="M115.795 166.354c14.625-1.625 25.74-8.92 36.074-17.476" style="fill:none;fill-rule:evenodd;stroke:#000;stroke-width:1px;stroke-linecap:round;stroke-linejoin:miter;stroke-opacity:1"/>
    <path d="M163.894 114.407c1 21.176-8.802 20.995-12.025 34.47M124.453 104.627c5.365 6.516 7.578 17.372 4.791 27.33-7.143 3.176-20.201 4.49-31.726 5.377M215.52 102.703c5.471 8.516 13.024 13.705 22.819 16.568 7.713-3.075 12.34-11.96 16.141-20.576" style="fill:none;fill-rule:evenodd;stroke:#000;stroke-width:1px;stroke-linecap:round;stroke-linejoin:round;stroke-opacity:1"/>
    <path d="M236.363 76.73c1.724 28.89 3.472 57.817 1.443 81.286" style="fill:none;fill-rule:evenodd;stroke:#000;stroke-width:1px;stroke-linecap:round;stroke-linejoin:round;stroke-opacity:1"/>
    <path d="M201.892 138.617c9.562 8.963 25.032 4.787 37.004 6.823 14.393-1.401 23.036.614 30.655-6.663M381.942 88.914c-25.224 17.243-46.333 37.735-66.697 56.436" style="fill:none;fill-rule:evenodd;stroke:#000;stroke-width:1px;stroke-linecap:round;stroke-linejoin:round;stroke-opacity:1"/>
    <path d="M316.688 98.534c2.478 13.902-1.326 28.71 8.337 38.64 11.711 15.949 20.736 9.595 29.982 14.59M348.914 88.594c-1.511 9.731-4.956 18.772-.307 26.506 8.517-.595 16.915 4.99 24.838 3.155M377.847 195.216c-15.15 13.226-49.3 28.217-70.618 57.395" style="fill:none;fill-rule:evenodd;stroke:#000;stroke-width:1px;stroke-linecap:round;stroke-linejoin:round;stroke-opacity:1"/>
    <path d="M300.976 211.246c-2.084 17.545 1.847 27.316 10.74 35.215 10.59 4.518 20.328 22.781 28.861 22.343M331.118 198.9c-2.583 9.685 1.146 16.484 3.878 25.879 8.12 6.291 19.71 3.323 27.867 2.98M329.354 326.042c-14.545 18.486-34.9 34.38-47.778 54.03" style="fill:none;fill-rule:evenodd;stroke:#000;stroke-width:1px;stroke-linecap:round;stroke-linejoin:round;stroke-opacity:1"/>
    <path d="M272.437 346.724c2.377 10.085 5.122 20.097 11.704 29.34 9.841 3.96 17.45 6.432 26.134 9.62M311.077 327.805c-.093 5.345-.08 10.69 1.924 16.033 4.153 3.3 10.062 3.966 14.75 3.207M147.861 333.577c18.252 17.437 36.77 34.821 58.2 51.626" style="fill:none;fill-rule:evenodd;stroke:#000;stroke-width:1px;stroke-linecap:round;stroke-linejoin:round;stroke-opacity:1"/>
    <path d="M152.992 363.88c7.161.601 14.323-.87 21.484-4.97 3.912-7.14 3.567-15.7 2.405-24.531M212.474 352.657c1.641 6.865-4.582 18.357-9.94 29.34-8.769 8.56-18.066 20.642-25.653 21.324M105.855 207.558c15.34 10.164 21.6 21.107 39.269 31.22 11.258 6.443 20.98 13.208 28.71 20.086" style="fill:none;fill-rule:evenodd;stroke:#000;stroke-width:1px;stroke-linecap:round;stroke-linejoin:round;stroke-opacity:1"/>
    <path d="M113.871 241.067c11.768 1.16 21.537-.334 28.7-5.451 2.042-8.658.54-16.354-3.207-25.011M180.408 221.988c.457 11.552-2.585 27.762-9.94 33.99-9.427 11.094-19 21.728-30.944 24.85" style="fill:none;fill-rule:evenodd;stroke:#000;stroke-width:1px;stroke-linecap:round;stroke-linejoin:round;stroke-opacity:1"/>
</svg>
