<svg xmlns="http://www.w3.org/2000/svg" height="614.256" width="400" id="svg75" version="1.1">
    <defs id="defs4">
        <style id="style2">
            .cls-1{fill:#1a1918}.cls-2{fill:#005d9b}.cls-3{fill:#b59930}
        </style>
    </defs>
    <g transform="translate(-.03)" data-name="Layer 2" id="Layer_2">
        <g data-name="Layer 1" id="Layer_1-2">
            <g id="Group">
                <path style="stroke-width:1" d="M199.783 132.416c-64.256 0-104.847 16.187-104.847 16.187h209.531s-40.591-16.187-104.848-16.187zm136.73-16.927v.246a5.053 5.053 0 0 1 4.109 5.3 5.793 5.793 0 0 1-2.342 5.26c-1.849 1.52-3.04 1.56-4.807 3.204a11.216 11.216 0 0 0-4.109 8.997c0 2.917 1.315 4.479 1.315 7.437a3.492 3.492 0 0 1-.904 2.465v.246h70.255v265.612a200 200 0 1 1-400 0V148.603h70.09v-.246a3.492 3.492 0 0 1-.903-2.465c0-2.917 1.314-4.479 1.314-7.437a11.216 11.216 0 0 0-4.108-8.997c-1.726-1.644-2.958-1.685-4.807-3.205a5.793 5.793 0 0 1-2.342-5.259 5.341 5.341 0 0 1 4.109-5.505L31.665 32.457l5.793-2.383 6.533-2.506 6.614 17.214 3.492-1.397-5.751-17.543 5.957-2.095 6.286-2.054 5.71 17.09 3.698-1.232-5.177-17.337 6.163-1.931 7.519-2.219 22.596 87.058 9.984-2.3 10.476-2.219L104.55 9.45l9.984-2.095c4.108-.822 10.64-1.972 10.64-1.972l3.698 18.283 7.437-1.15-2.137-18.407 10.436-1.479 10.97-1.232 2.218 18.693 6.943-.534-.78-18.816 10.887-.411L185.938 0l1.643 91.413h24.939L213.958 0l11.093.329 10.887.452-.822 18.857 6.944.535 2.26-18.776 10.969 1.232 10.435 1.48-2.136 18.57 7.477 1.027 3.698-18.283s6.491 1.192 10.64 1.972l9.984 2.096-17.05 89.112 10.477 2.26 9.983 2.3 22.597-87.058 7.518 2.219 6.163 1.93-5.176 17.297 3.697 1.233 5.71-17.091 6.287 2.054 5.957 2.095-5.752 17.543 3.492 1.397 6.615-17.214 6.533 2.506 5.792 2.383z" class="cls-1" id="Fill-17"/>
                <path style="fill:#0064b4;fill-opacity:1;stroke-width:1" d="M396.291 152.26v261.38a196.364 196.364 0 1 1-392.728 0V152.26h392.728" class="cls-2" id="Fill-18"/>
                <path style="stroke-width:1" d="M240.827 481.348h5.71c8.218-14.914 15.9-27.815 19.064-33.608 2.013-3.697 8.217-4.601 16.434-4.601 9.12 0 16.434 2.095 16.434 5.094 0 2.178-14.503 15.9-21.529 32.868 32.868 0 60.477-11.873 66.599-11.873.41 0 .862 0 .862.616s-.616 1.027-.986 1.684a46.631 46.631 0 0 0-7.19 9.778c-8.216 11.38-34.1 66.68-56.737 62.531a494.659 494.659 0 0 0-71.816-7.354 163.311 163.311 0 0 0 14.462 26.582c3.861 5.382-13.476 8.217-17.626 8.217-5.094 0-8.217-.74-9.244-2.589-10.107-20.83-13.517-33.894-28.76-33.894-4.108 0-67.583-1.233-108.709 3.656 18.652-17.338 16.434-34.963 31.758-54.601a36.976 36.976 0 0 1 24.651-14.38s5.423 1.972 9.984 4.109c0 0 13.188-18.242 13.188-34.347 0-18.488-12.038-36.73-31.512-36.73-11.175 0-18.406 3.862-22.638 12.326a21.2 21.2 0 0 1 10.765-2.466c10.065 0 14.544 7.067 14.544 15.736a13.763 13.763 0 0 1-7.314 12.695 8.217 8.217 0 0 1-5.012 9.737 7.272 7.272 0 0 1-5.916 8.505 7.806 7.806 0 0 1-7.149 9.326c1.603 6.656-5.094 8.956-10.6 7.107-4.642 5.383-4.724 10.23-5.998 16.845a22.35 22.35 0 0 1-7.888 13.024c-.575 0 3.41-7.56 3.41-12.038v-10.148a17.256 17.256 0 0 1 3.78-11.257 7.683 7.683 0 0 1 0-11.586 8.669 8.669 0 0 1 2.177-11.052c-2.26-8.216 2.3-11.298 3.862-12.12a17.913 17.913 0 0 1 2.876-15.242c0-20.994 16.968-26.91 33.69-26.91 17.789 0 36.976 17.913 36.976 43.508 0 19.844-12.86 37.921-12.86 37.921l1.11.247c8.997-14.298 16.433-24.897 16.433-44.125 0-37.757-58.299-51.397-69.844-85.785-1.972 4.437-6.409 14.79-17.502 14.79-12.736 0-12.038.946-13.27 2.712a2.835 2.835 0 0 1-1.643-2.711 7.56 7.56 0 0 1 .246-1.726c-5.752.863-6.532-2.342-10.148-5.094a15.571 15.571 0 0 0-8.669-3.123 21.61 21.61 0 0 0-2.917 0 8.217 8.217 0 0 1 6.41-6.245c-.33-.986-1.685-.903-2.425-1.643 4.807-.863 5.136-2.547 8.71-3.739a18.365 18.365 0 0 1 6.533-1.232c2.876 0 4.478.616 7.354.616 2.876 0 6.368-.534 6.368-2.712 0-2.177-2.054-2.341-3.78-2.341-6.655 0-4.601 3.492-16.762 3.492-3.205 0-5.095-.452-7.313-.452a8.422 8.422 0 0 0-6.902 2.26 1.52 1.52 0 0 1-.617-1.397 7.888 7.888 0 0 1 2.424-6.78 10.6 10.6 0 0 1-8.217-5.874c-2.424-5.382-1.807-10.23-6.573-13.723 1.027-1.643 5.67-1.314 8.217 1.027-1.233-3.04-2.465-4.108-2.465-6.778a35.456 35.456 0 0 0 0-8.751 16.064 16.064 0 0 1-.986-3.821 5.67 5.67 0 0 1 0-.658c1.807 0 2.341 1.644 4.108 2.589a46.754 46.754 0 0 0 6.861 2.629 10.353 10.353 0 0 1 .945-3.739c.37-1.15.37-2.218 1.315-2.711.945-.493 1.273 1.273 1.808 2.177.534.904 2.054 1.767 3.574 2.589a107.19 107.19 0 0 1 12.325 4.848 35.004 35.004 0 0 1 7.026 6.203c1.397 1.315 2.547 2.67 4.108 2.794a1.397 1.397 0 0 0 1.685-1.438 6.738 6.738 0 0 0-2.26-3.41c-2.547-2.63-2.753-4.52-6.327-5.916-5.218-2.013-9.86-1.931-14.544-5.054a19.967 19.967 0 0 1-5.053-4.108 15.448 15.448 0 0 1-3.246-7.97 36.278 36.278 0 0 0-2.712-7.642c3.205 0 4.56 2.753 7.765 2.753a6.697 6.697 0 0 0 1.315-.206c-1.232-2.753-3.246-3.903-3.246-6.984 0-7.231 3.698-9.737 3.698-16.229a8.217 8.217 0 0 0-1.11-4.889 10.189 10.189 0 0 1 6.78 3.78 5.546 5.546 0 0 1 0-1.11c0-8.216 6.409-12.53 6.409-18.24a20.542 20.542 0 0 0-1.315-5.136c8.217 2.917 21.077 12.325 21.077 22.76 0 2.876-.493 4.602-.493 6.656 0 2.054.41 4.109 1.355 4.109.945 0 1.192-1.192.945-2.67a35.62 35.62 0 0 1-1.068-8.834c0-5.012 5.629-10.477 7.067-11.915a13.065 13.065 0 0 0 2.67 8.217c4.643 5.218 8.751 6.985 9.45 13.353 4.108-.945 5.464-1.602 7.313-4.396-.329 2.67.863 11.34.863 13.147 0 3.04-2.589 5.67-5.3 9.82-2.014 3.122-10.477 9.695-10.477 18.857 0 1.027.452 2.136 1.48 2.136a3.657 3.657 0 0 0 3.245-3.862 13.846 13.846 0 0 1 1.602-6.902 115.037 115.037 0 0 1 7.272-11.134 4.108 4.108 0 0 1 1.931 2.178c3.657-2.342 7.519-3.616 8.833-7.765a3.78 3.78 0 0 1 2.096 2.013c2.793-3.698 6.902-3.164 9.696-6.861-1.397 4.683.903 8.217.903 11.298a22.309 22.309 0 0 1-.575 5.834 7.23 7.23 0 0 1 2.219-.534 3.246 3.246 0 0 1 2.958 1.52c-.534.986-1.356.616-2.178 1.849-3.82 5.916.904 15.366-2.013 19.72a27.157 27.157 0 0 0 6.615 2.671c-4.109 1.233-5.999 5.464-11.38 9.655-3.904 2.999-15.366 3.533-18.94 4.93a3.78 3.78 0 0 0-2.753 3 3.04 3.04 0 0 0 2.588 2.793c3.081 0 4.108-2.917 7.026-4.437a44.536 44.536 0 0 1 12.859-3.04 7.97 7.97 0 0 0 4.108-2.014 8.217 8.217 0 0 1 .74 2.014 2.958 2.958 0 0 1 1.808-.658h5.546a8.463 8.463 0 0 0 3-.575c-.74 2.219-2.589 2.588-3.863 4.52-1.273 1.93-1.438 4.642-3.327 6.614a4.52 4.52 0 0 1 1.684 3.246h-1.89c-4.971 0-7.395 13.68-23.5 13.68a11.668 11.668 0 0 1-7.437-1.643c5.958 10.888 14.914 19.105 31.266 30.608 23.747 16.722 38.784 31.512 38.784 53.945 0 17.296-7.642 30.484-17.667 45.809h2.26a337.346 337.346 0 0 1 24.28-30.033c2.59-2.835 6.123-2.63 13.066-2.63 6.943 0 13.476 1.398 10.723 4.643a98.603 98.603 0 0 0-23.788 30.115s8.217 0 13.065.329c13.804-19.967 23.13-40.51 23.13-58.792 0-15.653-4.108-26.828-9.654-41.085a111.257 111.257 0 0 1-9.984-43.796 91.537 91.537 0 0 1 1.849-16.434c-4.848 2.794-11.134 18.16-26.459 18.16-12.325 0-11.134-5.383-19.022-5.383a16.434 16.434 0 0 0-9.203 3.164 9.039 9.039 0 0 1 1.685-6.286c1.56-1.808 2.341-3.246 4.642-4.108-4.108-1.48-10.353-3.452-12.325-17.38-.493-3.163-3-5.669-4.109-9.202 4.848-.37 4.643 4.108 11.34 4.52a7.313 7.313 0 0 1-2.712-6.122c4.109 0 4.89 1.437 7.97 1.437 3.082 0 6.04.493 10.6.493a35.908 35.908 0 0 1 14.051 4.273c.658 0 .863-.328.863-.78 0-4.109-11.421-6.738-14.544-6.738-11.914 0-18.282-8.751-26.13-9.326a24.98 24.98 0 0 1 6.78-2.507 26.664 26.664 0 0 1-8.793-18.323 107.642 107.642 0 0 0-.657-14.668 27.362 27.362 0 0 0 10.066 8.67 35.867 35.867 0 0 1-4.109-14.545 43.016 43.016 0 0 1 4.109-18.036 21.2 21.2 0 0 0 12.325 15.612 10.394 10.394 0 0 1 4.108-8.504c1.685 3.163 1.48 7.149 5.26 9.655a46.097 46.097 0 0 1 10.476 9.038 27.65 27.65 0 0 1 9.12 15.859c0 .78.576 1.52 1.356 1.52 1.644 0 1.52-1.849 1.52-3.204a21.693 21.693 0 0 0-4.108-10.518c-7.806-9.86-16.023-10.271-16.023-25.72a34.88 34.88 0 0 1 1.233-11.38 27.65 27.65 0 0 0 3.492 4.972 17.543 17.543 0 0 1-.247-4.109 20.912 20.912 0 0 1 5.382-12.9 15.201 15.201 0 0 0 2.424-3.862c.904.945.411 4.807 2.178 5.875a27.362 27.362 0 0 1 13.147-23.09c.534 1.931.37 3.492.863 5.3 3.862-12.325 10.6-15.858 19.022-21.076a14.38 14.38 0 0 0 6.08-6.902 7.354 7.354 0 0 1 1.726 4.97c0 5.753-3.862 8.587-3.862 15.366a7.683 7.683 0 0 0 1.48 4.972c2.505-5.752 7.559-3.164 9.983-6.533a16.68 16.68 0 0 0-1.89 8.67c0 3.327 1.068 4.313 1.068 8.627a14.339 14.339 0 0 1-.452 3.533 5.053 5.053 0 0 1 2.753-.575c2.383 0 2.095.657 4.108.657h2.67a10.97 10.97 0 0 0-2.341 7.19c0 3.698 2.67 7.026 2.3 12.613a58.094 58.094 0 0 0 10.066-8.587 84.593 84.593 0 0 1-.821 10.723c0 2.178.41 3 .41 5.588a16.434 16.434 0 0 1-.534 4.108 8.628 8.628 0 0 0 2.548-1.725c0 14.338-5.26 17.46-14.627 22.802a68.53 68.53 0 0 0-10.723 5.464c-2.629 2.013-5.258 4.971-5.258 6.861 0 .534 0 2.178.862 2.178a15.653 15.653 0 0 0 8.628-5.423 59.942 59.942 0 0 1 8.217-7.56c9.244-7.108 14.215-6.163 18.94-14.75a5.588 5.588 0 0 1 1.48 4.11 9.86 9.86 0 0 1-1.11 4.888c5.998-.78 15.365-4.807 17.091-7.847a19.515 19.515 0 0 1-.205 4.108c0 1.931.205 3 .205 4.93 0 5.752-3.328 8.218-6.45 11.586a8.217 8.217 0 0 0 5.998 2.22 18.776 18.776 0 0 0 5.71-1.357c-5.751 3.862-5.053 17.091-16.433 22.186.78 1.027 3.698.945 3.698 1.479 0 1.52-2.055 1.315-3.451 1.931a21.035 21.035 0 0 1-12.326 4.93 43.468 43.468 0 0 0-15.16 1.931c-3.657 1.315-9.737 5.957-9.737 7.93 0 .534 0 1.355.945 1.355 4.108 0 7.724-8.956 25.349-8.956a13.147 13.147 0 0 0 7.149-2.137 5.053 5.053 0 0 1-.658 4.109 38.003 38.003 0 0 0 12.901-.986c-4.89 5.587-4.109 10.353-10.066 15.242h1.685l3.903-.986a33.854 33.854 0 0 1-3.492 6.78c-2.917 4.888-3.493 10.188-8.957 11.544a11.38 11.38 0 0 1 2.67 3.04h-2.752c-4.109 0-11.504 6.656-19.68 6.656-16.433 0-22.432-15.571-25.061-19.803a54.89 54.89 0 0 0-2.054 12.326c0 24.65 10.928 43.467 17.543 66.023a71.816 71.816 0 0 1 3.328 20.213c0 25.555-7.56 39.934-18.94 60.271h23.418a153.287 153.287 0 0 1 13.845-49.63 87.346 87.346 0 0 1 19.557-28.76c6.82-6.532 14.38-11.626 23.5-19.925a94.248 94.248 0 0 0 24.24-30.937 10.805 10.805 0 0 1-7.683 1.849c-21.57 0-19.433-13.106-32.005-13.106a9.162 9.162 0 0 1 8.217-4.684 13.928 13.928 0 0 1-3.04-9.942c0-4.109-2.096-8.505-5.259-8.505 0 0-2.013-.575-2.013-1.232a10.929 10.929 0 0 1 5.259-1.438 21.487 21.487 0 0 1 11.832 3.245 8.217 8.217 0 0 1-.493-7.641c2.67 4.478 3.78 3.78 7.97 5.3a12.325 12.325 0 0 1 5.506 4.313 6.656 6.656 0 0 0 4.724 2.959.986.986 0 0 0 .781-.822 13.065 13.065 0 0 0-5.998-7.888c-2.835-1.644-11.71-5.054-11.71-12.942 0-6.491-.739-9.778-4.108-12.325a10.477 10.477 0 0 1 6.738 1.848 26.952 26.952 0 0 1-.37-4.314c0-3.45.74-4.108.74-6.984a22.925 22.925 0 0 0-3.616-12.325 10.394 10.394 0 0 1 4.89 1.314 12.695 12.695 0 0 1 0-2.67c0-4.89 3.615-6.574 3.615-12.695 2.3 7.107 8.217 6.779 12.53 13.352a15.201 15.201 0 0 0 4.561-4.478 22.268 22.268 0 0 0 .575 4.89c1.561 5.504 5.588 7.435 6.82 13.064a29.992 29.992 0 0 1 0 12.736c-.205 2.178 2.055 8.505 4.109 8.505s3.04-3.451 3.04-6.533c0-10.682-8.217-16.721-8.217-29.704 0-10.107 5.71-13.393 6.861-22.268 2.917.575 3.205 2.506 3.205 4.725 0 .822-1.397 7.683 1.849 9.614a18.118 18.118 0 0 1 2.177-7.888 109.737 109.737 0 0 1 9.82-11.34 21.652 21.652 0 0 0 2.382-4.108 8.217 8.217 0 0 1 3.657 8.217c0-6.697 14.503-14.914 15.53-21.898 1.315 7.354 7.354 10.6 7.354 20.83a29.58 29.58 0 0 1-1.89 11.503 9.532 9.532 0 0 0 7.93-6.943c0 6.41 3.122 8.915 3.122 15.489a16.434 16.434 0 0 1-2.465 8.874 30.69 30.69 0 0 0 9.162-1.191l-5.26 11.668c-3.41 6.86-2.752 11.955-6.86 15.94-3.328 3.246-6.41 3.04-12.695 3.04-7.56 0-14.01 2.794-14.01 5.588a1.233 1.233 0 0 0 1.027 1.274c2.876 0 4.683-3.451 13.845-3.451 4.109 0 12.326.493 17.995-5.67a9.901 9.901 0 0 1-1.725 9.039 14.544 14.544 0 0 1 2.054-.288h4.684a11.216 11.216 0 0 0 4.93-1.068c-6.08 6.368-4.602 14.996-10.312 18.817a16.434 16.434 0 0 0 11.79 1.643c-4.888 8.217-8.873 15.777-16.063 15.777a11.915 11.915 0 0 1-3.04-.37 5.752 5.752 0 0 0 4.108 1.684 17.091 17.091 0 0 1-9.532 2.876c-8.586 0-18.241-6.409-26.047-6.409-1.233 0-3.082.78-3.082 2.095 0 1.315 1.027 1.726 2.958 1.726 1.931 0 3.37.616 5.547.616 10.97 0 10.23 4.109 17.379 5.752a18.94 18.94 0 0 1-4.56 4.108 61.627 61.627 0 0 1 7.477 4.438c-4.109 0-5.095 6.902-12.942 6.902a10.846 10.846 0 0 0 2.013 5.3c-5.752 0-6.368 2.67-11.545 2.67a13.722 13.722 0 0 1-4.108-.657 5.588 5.588 0 0 1-1.315 5.218 25.678 25.678 0 0 0-9.285-7.231 15.366 15.366 0 0 1-8.217-12.326c-.329-1.725-.698-3.862-2.3-3.862-1.603 0-1.932 1.233-3 3.287-6.82 12.9-11.873 22.515-25.267 33.443a128.554 128.554 0 0 0-23.213 22.35c-14.174 17.749-21.2 33.36-27.239 68.57 11.915-66.27 46.467-79.416 58.792-79.416a17.009 17.009 0 0 1 13.394 5.217 11.873 11.873 0 0 1 11.915 4.725 13.394 13.394 0 0 1 11.257 4.109 10.435 10.435 0 0 1 9.737 4.683 11.134 11.134 0 0 1 10.64 5.423h1.069c3.204 0 8.217 6.862 21.076 7.601-9.326 5.916-20.542-1.027-20.542-1.027a8.217 8.217 0 0 1-8.217 8.217 8.217 8.217 0 0 1-6.286-2.013 9.45 9.45 0 0 1-11.914.246 10.107 10.107 0 0 1-10.518.288 11.586 11.586 0 0 1-12.325.37 10.64 10.64 0 0 1-5.958 1.643 13.188 13.188 0 0 1-13.434-14.01 20.542 20.542 0 0 1 10.394-17.214h-.74c-6.409 0-41.372 13.229-49.712 71.446" class="cls-1" id="Fill-19"/>
                <path style="fill:#ffbf00;fill-opacity:1;stroke-width:1" d="M238.855 483.936h-1.233c8.217-61.01 44.454-76.54 52.794-76.54 11.504 0 14.667 6.49 14.667 14.913 0 6.327-3.862 13.27-10.189 13.27a9.162 9.162 0 0 1-8.874-9.942c0-6.45 5.957-11.75 12.326-13.64a10.559 10.559 0 0 0-2.26-1.233c-4.109 0-12.736 8.012-12.736 16.064a11.34 11.34 0 0 0 10.97 11.792 14.503 14.503 0 0 0 12.694-15.448c0-12.778-6.45-18.981-16.023-18.981-10.6 0-44.782 12.695-56.943 79.786h-4.601c3.04-27.732 11.339-52.794 28.143-73.952 7.806-9.82 17.666-15.859 26.376-24.364a107.354 107.354 0 0 0 21.816-30.156 18.406 18.406 0 0 1 2.013-3.615 6.615 6.615 0 0 1 3.287-.78 3.739 3.739 0 0 1 4.108 3.491c2.096 9.45 3.657 11.34 11.299 15.037a15.366 15.366 0 0 1 2.834 1.685 17.42 17.42 0 0 1-.287-1.931v-2.054a13.353 13.353 0 0 0 6.82 2.465 19.433 19.433 0 0 0 7.56-2.178c-.822-2.095-1.685-4.108-2.425-6.203a18.57 18.57 0 0 0 4.807.739 14.626 14.626 0 0 0 7.108-4.437 8.628 8.628 0 0 0-2.917-2.054 14.914 14.914 0 0 1-3.451-1.931l4.108-3.575a18.488 18.488 0 0 0-12.86-4.108c-2.588 0-3.615-.699-5.71-.699-2.917 0-5.464-1.314-5.464-4.108 0-2.794 3.533-4.643 5.752-4.643 9.203 0 16.433 6.245 26.253 6.245 1.314 0 3.04.534 4.108 0a10.435 10.435 0 0 1-2.999-4.93 35.497 35.497 0 0 0 7.518.575c3.698 0 7.683-4.108 10.765-9.86a55.012 55.012 0 0 1-12.038-4.108c6.779-2.26 6.532-10.23 9.778-15.941h-9.491s2.301-4.52 3-6.368a24.98 24.98 0 0 1-9.244 2.547c-2.589 0-4.109.493-6.697.493-7.354 0-9.655 3.369-13.065 3.369a3.533 3.533 0 0 1-3.78-3.287c0-6.861 11.134-8.628 15.818-8.628 6.86 0 8.627.658 11.832-2.67s4.108-10.723 6.656-15.654l2.999-6.285c-1.356.246-9.49.451-8.792-.535a25.637 25.637 0 0 0 3.574-11.216 22.227 22.227 0 0 0-1.684-7.847c-1.767 1.438-11.257 3.862-10.6 2.753a25.144 25.144 0 0 0 3.41-14.832c0-6.409-2.835-8.545-4.971-13.599a36.976 36.976 0 0 1-6.861 7.354 40.099 40.099 0 0 0-8.217 13.64 60.6 60.6 0 0 1-2.137-7.19 13.024 13.024 0 0 0-.904-2.875 70.624 70.624 0 0 1-7.19 8.504c-5.012 5.054-4.889 7.97-5.916 14.544-5.998-1.972-6.86-4.889-6.409-10.517a36.483 36.483 0 0 0-4.93 14.585c0 10.97 7.93 19.227 7.93 30.567 0 2.834-1.439 8.586-5.465 8.586s-6.574-7.641-6.574-10.97c0-7.764 2.055-10.147-2.423-17.789a30.485 30.485 0 0 1-4.355-7.19v-.41a14.01 14.01 0 0 0-2.835 5.176 20.008 20.008 0 0 0-9.573-11.216 11.997 11.997 0 0 1-2.136-1.849 13.435 13.435 0 0 0-2.178 6.41 13.804 13.804 0 0 0 1.274 5.423 5.957 5.957 0 0 1-3.534 0 17.256 17.256 0 0 1 1.069 11.257 39.934 39.934 0 0 0-.576 11.462 26.705 26.705 0 0 1-3.45-1.273 28.102 28.102 0 0 1 1.232 8.217c0 9.367 17.625 9.572 17.625 20.542 0 5.957-8.217 4.643-10.271.41-2.054-4.23-5.341-4.272-9.039-5.874a14.38 14.38 0 0 0 1.808 7.066 18.611 18.611 0 0 0-13.27-5.67h-.452a14.01 14.01 0 0 1 2.588 8.217 14.708 14.708 0 0 0 5.629 11.833 35.867 35.867 0 0 0-7.272 1.315 28.76 28.76 0 0 1 8.381 5.998 25.555 25.555 0 0 0 17.913 6.04c4.889 0 8.217-2.63 10.394-2.63.945 0 1.356.986 1.15 1.274a101.643 101.643 0 0 1-25.184 33.894c-9.162 8.217-16.68 13.682-23.542 20.543a91.002 91.002 0 0 0-19.268 27.773 160.23 160.23 0 0 0-14.092 52.054h-.534c-11.011 0-21.118 0-29.746-.205 10.025-19.598 20.173-37.387 20.173-62.86 0-26.951-20.542-52.177-20.542-86.277a56.984 56.984 0 0 1 2.875-15.53 1.11 1.11 0 0 1 1.52-.658 10.435 10.435 0 0 1 2.712 3.492c5.382 9.121 10.107 17.585 22.679 17.585 7.395 0 10.518-4.479 16.434-6.122a16.434 16.434 0 0 1-1.603-2.876h1.972c6.204 0 8.217-8.217 10.641-12.818a21.94 21.94 0 0 1-8.833-.945c8.423-3.821 8.71-4.643 12.12-12.326l.411-.862H243.169c-.575.616.616-2.096.822-2.507a30.403 30.403 0 0 1-4.56.658c-15.53 0-20.05 8.956-24.94 8.956a3.533 3.533 0 0 1-3.615-3.45c0-4.48 8.217-9.286 11.545-10.765 11.298-5.054 14.75.616 26.459-5.957-1.11 0-2.26-.411-2.26-1.808a2.219 2.219 0 0 1 1.643-2.013c8.67-2.835 8.998-10.107 12.983-16.68-3.122 0-4.355-2.055-6.41-2.055h-6.244c3.862-3.328 10.641-9.038 10.641-14.626v-3.205a72.227 72.227 0 0 1-19.556 6.615 37.592 37.592 0 0 0 3.492-7.806 77.198 77.198 0 0 1-14.462 9.82 57.888 57.888 0 0 0-10.271 9.243 16.187 16.187 0 0 1-9.943 5.629 3.574 3.574 0 0 1-3.245-3.657c0-12.736 21.446-16.146 26.376-22.103a17.913 17.913 0 0 0 4.109-9.573 7.56 7.56 0 0 1-4.109 1.027 19.474 19.474 0 0 0 2.054-8.217c0-2.054-.328-3.204-.328-5.259a44.823 44.823 0 0 1 0-4.765c-2.876 2.26-9.82 7.23-9.82 7.23 1.931-7.6-1.766-11.462-1.766-17.625a11.956 11.956 0 0 1 .698-4.56 19.72 19.72 0 0 0-2.752 0 27.116 27.116 0 0 0-5.341.986 12.942 12.942 0 0 0 1.027-5.999c0-4.108-1.069-5.3-1.069-8.627a31.306 31.306 0 0 1 .247-4.437c-3.698 1.109-3.82 4.108-4.109 7.56-3.245-3.699-5.505-5.712-5.505-11.135s3.164-9.162 3.78-14.133a76.705 76.705 0 0 1-11.586 8.217c-6.861 4.807-9.326 11.463-11.832 19.31a11.01 11.01 0 0 1-3.492-6.286 28.184 28.184 0 0 0-9.162 21.282l-.493 2.013c-2.548-1.397-3.657-1.931-4.807-4.396a18.406 18.406 0 0 0-4.355 11.134v8.956a15.776 15.776 0 0 1-4.109-3.492v5.793c0 16.434 19.762 16.228 19.762 35.086 0 2.547-.288 5.464-3.533 5.588a4.108 4.108 0 0 1-4.109-4.396 37.223 37.223 0 0 0-8.217-13.558c-5.916-6.533-12.86-7.354-15.242-15.407a22.021 22.021 0 0 0-1.233 7.477 29.458 29.458 0 0 1-14.954-12.12 36.154 36.154 0 0 0-1.438 9.902 34.717 34.717 0 0 0 3.45 13.024 19.597 19.597 0 0 1 .412 4.396 9.984 9.984 0 0 1-4.766-1.315l-1.561-.945a28.307 28.307 0 0 1-3-2.095l-.328-.288v7.97a26.335 26.335 0 0 0 10.394 18.694 15.982 15.982 0 0 0-3.533 2.178c5.957 3.122 11.832 7.23 19.104 7.23 4.56 0 17.132 2.876 17.132 9.45a3 3 0 0 1-2.917 3.04c-4.724 0-7.025-4.396-14.79-4.396-3.903 0-6.45-.74-10.559-.74a14.544 14.544 0 0 1-5.218-.944 10.066 10.066 0 0 0 4.109 3.697 7.23 7.23 0 0 1-4.109 1.808 12.325 12.325 0 0 1-6.121-1.643 13.517 13.517 0 0 1 .863 2.917c2.3 12.53 5.793 14.544 16.68 18.077-.657.37-1.726 1.15-2.63 1.561h-.37a11.38 11.38 0 0 0-5.874 4.478 15.612 15.612 0 0 1 5.34-1.273c7.314 0 9.41 5.71 19.023 5.71 15.366 0 18.899-17.707 28.348-18.857.534 0 .986 0 1.15.287.165.288 0 .534 0 .904a113.846 113.846 0 0 0-1.643 18.447c0 36.976 19.474 50.945 19.474 85.086 0 21.036-12.325 42.359-24.034 61.422-6.368-.247-12.736-.452-19.104-.822a113.517 113.517 0 0 1 22.185-29.54 45.193 45.193 0 0 1-17.214-2.054 321.898 321.898 0 0 0-23.994 30.115l-6.738-.904c8.464-16.187 18.16-29.663 18.16-47.288 0-20.83-13.476-34.881-36.976-51.233-16.147-11.298-29.17-24.65-34.47-35.702l-.822-1.685s0-.657.534-.821c.534-.165 1.027.205 1.027.205a15.571 15.571 0 0 0 10.559 3.533c8.217 0 11.668-3.328 16.434-8.956a24.65 24.65 0 0 1 5.67-4.109c-.822-.862-.945-1.684-3.246-1.725 5.464-1.849 2.999-3.205 6.368-7.93h-2.465a1.931 1.931 0 0 0-1.438.617l-.247.246a11.01 11.01 0 0 1-2.136 1.561 8.463 8.463 0 0 1-.452-2.506 5.546 5.546 0 0 1-2.712.74 17.79 17.79 0 0 0-12.982 3.697 9.244 9.244 0 0 1-6.82 3.698 4.93 4.93 0 0 1-4.93-5.218c0-7.97 17.707-6.245 22.267-9.531a34.634 34.634 0 0 0 7.642-7.067 35.292 35.292 0 0 0-7.6-2.588c4.765-1.972 5.258-1.767 4.97-7.026-.246-4.396-1.396-9.819.74-13.845a8.463 8.463 0 0 1-4.437 2.136 61.832 61.832 0 0 0 2.342-9.244c0-3.204-1.315-5.135-1.356-7.354a12.818 12.818 0 0 0-6.779 5.587l-.863-1.766-.205-.411c-2.054 2.958-6.491 4.108-9.039 6.943l-1.397 1.644c-.287-.945-.616-2.055-.986-3.04-3.656 4.642-6.779 8.216-6.779 14.379a5.916 5.916 0 0 1-5.34 5.916 4.108 4.108 0 0 1-4.109-4.396c0-7.806 4.108-12.325 8.217-17.502 2.547-3.204 6.656-6.286 7.067-10.107a62.818 62.818 0 0 0 0-8.627 65.201 65.201 0 0 1-7.642 3.41v-1.89c0-11.833-9.326-10.313-11.34-18.94a11.71 11.71 0 0 0-3.08 7.847c0 2.835 1.108 5.464 1.108 8.217 0 1.807-.904 4.108-3.081 4.108s-3.698-2.752-3.698-5.382.534-3.451.534-6.327c0-7.93-7.806-16.064-15.283-19.556v1.027c0 6.779-6.245 11.093-6.245 17.707a48.809 48.809 0 0 0 1.068 9.039 67.05 67.05 0 0 0-6.82-7.6c0 5.874-3.245 10.928-3.245 16.762a20.871 20.871 0 0 0 4.889 9.901 16.434 16.434 0 0 1-9.409-.37c2.835 11.75 8.833 13.065 22.104 17.42a15.653 15.653 0 0 1 7.683 6.492 16.105 16.105 0 0 1 2.711 5.628 4.108 4.108 0 0 1-4.108 3.78c-4.314 0-8.67-6.738-12.326-9.08a77.732 77.732 0 0 0-12.078-4.724 21.159 21.159 0 0 1-4.109-2.548 19.885 19.885 0 0 0 .74 7.15 25.02 25.02 0 0 0-10.641-5.383h-.288c0 2.342-.205 4.684-.205 7.026 0 4.683 3.574 8.545 6.08 12.325h-2.3c-2.055 0-4.725-2.383-6.697-3.287 1.725 3.328 2.095 7.19 3.82 10.6 2.055 4.109 7.15 4.643 11.134 5.423a11.298 11.298 0 0 0-5.135 5.464 8.628 8.628 0 0 1 3.328-.493h1.89c2.218 0 4.93.493 8.217.493 5.71 0 10.024-3.656 15.735-3.656 3.82 0 6.122 2.095 6.122 4.725 0 4.108-4.479 5.258-7.601 5.258-3.123 0-5.382-.821-8.217-.821a17.009 17.009 0 0 0-10.271 3.492 8.874 8.874 0 0 1 .904 2.26 14.996 14.996 0 0 0-6.163 2.547 18.077 18.077 0 0 1 9.162 4.108c4.848 4.56 5.875 5.547 11.914 2.917a10.97 10.97 0 0 0-2.054 5.054c-.657 0 2.958-2.424 13.435-2.424 8.217 0 11.052-6.738 14.05-12.86.617-1.232 1.685-3.163 2.63-3.163.329 0 1.11 1.027 1.356 1.849 20.542 40.838 71.898 48.48 71.898 87.633 0 20.542-8.217 31.553-18.036 46.837-3.122-.617-4.807-1.028-4.807-1.028l-.904-.287s13.64-21.57 13.64-39.524c0-23.582-17.872-40.838-34.223-40.838-20.214 0-31.348 8.217-31.348 24.281a17.338 17.338 0 0 0 16.68 18.406 12.777 12.777 0 0 0 12.326-12.325c0-7.478-4.109-13.188-12.038-13.188a19.228 19.228 0 0 0-11.38 3.574v2.876a15.201 15.201 0 0 1 10.682-3.615 9.49 9.49 0 0 1 9.942 10.312 8.628 8.628 0 0 1-8.874 9.038c-11.586 0-14.38-8.217-14.38-16.146 0-11.75 9.943-21.158 26.048-21.158 20.953 0 33.936 18.159 33.936 39.4a69.844 69.844 0 0 1-14.38 37.715l-.575-.287c-4.108-2.095-9.696-4.109-10.887-4.602-8.998.781-16.147 6.985-21.61 13.805-14.874 18.488-14.504 35.456-27.897 49.548 43.385-5.3 97.658-3.328 101.643-3.328 16.023 0 19.638 9.532 24.65 20.131 1.685 3.534 3.37 7.437 5.219 11.669 5.834-4.89 15.981-4.109 21.98-2.917a133.114 133.114 0 0 1-12.326-22.885c-.903-1.56-.575-4.108 1.767-4.108a414.05 414.05 0 0 1 64.42 5.752 18.57 18.57 0 0 1-1.766-6.327c0-9.902 6.04-20.543 21.693-32.252 9.983-7.6 44.782-28.02 44.782-28.02-6.08 1.685-8.792 2.835-14.955 4.438a184.88 184.88 0 0 1-46.836 5.957h-1.849a137.962 137.962 0 0 1 19.967-31.553 62.079 62.079 0 0 1-10.23 1.11 30.69 30.69 0 0 1-15.818-3 325.555 325.555 0 0 0-18.405 33.607h-10.6.616" class="cls-3" id="Fill-20"/>
                <path style="fill:#ffbf00;fill-opacity:1;stroke-width:1" d="M67.532 465.653a4.108 4.108 0 0 1 .616-2.26 12.572 12.572 0 0 0-.862-1.15 4.56 4.56 0 0 0-1.356 3.246c0 4.889 4.108 7.97 10.887 7.97 3.246 0 4.109-1.232 4.52-3.163a3.164 3.164 0 0 0 0-1.685h-2.055c-.328 2.055-1.479 2.958-4.108 2.958-3.533 0-7.765-2.793-7.765-5.793" class="cls-3" id="Fill-21"/>
                <path style="fill:#ffbf00;fill-opacity:1;stroke-width:1" d="M63.177 496.713a26.459 26.459 0 0 0 2.547-11.38 19.967 19.967 0 0 1 4.109-11.052 11.545 11.545 0 0 1-2.178-1.191 14.503 14.503 0 0 0-3.574 9.696v5.258a85.127 85.127 0 0 1-.863 8.71" class="cls-3" id="Fill-22"/>
                <path style="stroke-width:1" d="m70.367 465.53-.616-.452c-1.15 3.616 6.491 7.19 6.614 3.739l-.821-.247a11.791 11.791 0 0 1-5.3-3.04" class="cls-2" id="Fill-23"/>
                <path style="stroke-width:1" d="M83.925 459.82a21.857 21.857 0 0 1-11.463-5.095c-1.849.863 0 7.477 7.97 7.477a4.478 4.478 0 0 0 3.452-1.767v-.616" class="cls-2" id="Fill-24"/>
                <path style="fill:#ffbf00;fill-opacity:1;stroke-width:1" d="M73.86 464.832c9.038 4.108 14.79-.781 14.05-5.136h-1.315v.37c0 2.547-3.41 4.437-6.286 4.437a9.86 9.86 0 0 1-10.805-8.751 3.739 3.739 0 0 1 1.027-2.547l-.41-.535a15.36 15.36 0 0 1-1.028-1.479c-3.163 2.301-2.588 10.354 4.725 13.558" class="cls-3" id="Fill-25"/>
                <path style="stroke-width:1" d="M89.225 451.684c-.411.37-7.6 0-14.339-7.682a7.354 7.354 0 0 0-.37 1.725c0 3.04 4.725 7.642 11.915 7.642.246 0 2.835-.534 2.835-1.643" class="cls-2" id="Fill-26"/>
                <path style="fill:#ffbf00;fill-opacity:1;stroke-width:1" d="M91.69 451.931v.288c0 1.807-3.04 2.958-4.971 2.958-6.944 0-14.38-4.56-14.38-9.614a6.122 6.122 0 0 1 1.438-3.657s.246.411 0-.328a15.653 15.653 0 0 1-1.027-2.26c-1.602.74-2.465 2.67-2.465 5.546 0 6.122 6.409 12.613 16.434 12.613 4.519 0 7.806-3.04 7.19-5.916l-2.22.329" class="cls-3" id="Fill-27"/>
                <path style="fill:#ffbf00;fill-opacity:1;stroke-width:1" d="M90.827 449.548a7.272 7.272 0 0 0 8.217-7.395 9.901 9.901 0 0 1-2.383.534c-.329 3.205-3.451 4.108-6.163 4.108a14.133 14.133 0 0 1-14.338-13.393 10.805 10.805 0 0 1 .41-3.41 30.65 30.65 0 0 1-1.026-3.205 10.887 10.887 0 0 0-1.315 5.916 16.886 16.886 0 0 0 16.803 16.845" class="cls-3" id="Fill-28"/>
                <path style="stroke-width:1" d="M93.908 442.81a17.872 17.872 0 0 1-15.406-9.285v.41a11.75 11.75 0 0 0 11.79 10.477c1.028 0 3.452 0 3.78-1.602" class="cls-2" id="Fill-29"/>
                <path style="stroke-width:1" d="M83.021 424.24a9.655 9.655 0 0 0 10.764 10.6 6.45 6.45 0 0 0 6.943-6.533 7.313 7.313 0 0 0-7.723-8.217 13.681 13.681 0 0 0-9.984 4.109" class="cls-2" id="Fill-30"/>
                <path style="fill:#ffbf00;fill-opacity:1;stroke-width:1" d="M218.272 563.517a36.031 36.031 0 0 0-9.655-1.233c-5.013 0-11.175 1.931-11.175 4.807 0 2.054 5.094 2.26 5.957 2.26a30.074 30.074 0 0 0 15.9-3.575c1.725-.78 1.643-1.725-1.027-2.26" class="cls-3" id="Fill-31"/>
                <path style="fill:#ffbf00;fill-opacity:1;stroke-width:1" d="M274.023 533.484a6.738 6.738 0 0 0 6.04 7.395c22.186 1.068 44.536-51.15 57.518-65.735-20.542 15.16-63.722 35.456-63.722 58.299" class="cls-3" id="Fill-32"/>
                <path style="fill:#ffbf00;fill-opacity:1;stroke-width:1" d="M269.134 446.919c-1.109.616-1.109 1.027 0 1.643 4.725 2.712 21.693 2.958 26.5.452 1.15-.575 1.15-.986 0-1.643-4.848-2.794-21.61-3.164-26.5-.452" class="cls-3" id="Fill-33"/>
                <path style="fill:#ffbf00;fill-opacity:1;stroke-width:1" d="M171.189 449.26s1.355 1.52 8.217 2.507c5.34.74 10.024 1.314 11.38-1.356 2.424-4.109-19.68-4.109-19.68-1.15" class="cls-3" id="Fill-34"/>
                <path style="fill:#ffbf00;fill-opacity:1;stroke-width:1" d="M339.266 423.952a3.574 3.574 0 0 1 .904 0 7.642 7.642 0 0 1 5.998 7.437 5.505 5.505 0 0 1-8.915 4.437l-.534.657c.945 1.068 1.807 1.52 4.313 1.52a6.245 6.245 0 0 0 6.163-6.614 7.806 7.806 0 0 0-8.217-8.464l.288.904" class="cls-3" id="Fill-35"/>
                <path style="stroke-width:1" d="M339.882 426.582a14.544 14.544 0 0 1-1.274 6.82c0 1.479.822 1.561 2.548 1.561 1.725 0 2.588-1.643 2.588-3.574a4.52 4.52 0 0 0-3.862-4.807" class="cls-2" id="Fill-36"/>
                <path style="stroke-width:1" d="M327.475 434.1a1.233 1.233 0 0 0 1.027.37 5.546 5.546 0 0 0 4.724-5.834 5.998 5.998 0 0 0-2.999-5.998 18.735 18.735 0 0 1-2.752 11.462" class="cls-2" id="Fill-37"/>
                <path style="fill:#ffbf00;fill-opacity:1;stroke-width:1" d="M325.667 436.401a2.342 2.342 0 0 1-.411.452c.863.945 1.726 1.15 3.615 1.15a9.45 9.45 0 0 0 8.217-10.148 8.833 8.833 0 0 0-7.313-9.696h-.41a11.134 11.134 0 0 1 .451 1.685c3.37.329 5.917 3.862 5.917 8.75a8.217 8.217 0 0 1-7.15 8.464 5.957 5.957 0 0 1-2.875-.616" class="cls-3" id="Fill-38"/>
                <path style="fill:#ffbf00;fill-opacity:1;stroke-width:1" d="M318.477 415.776h1.643c2.589 0 4.972 3.575 4.972 8.217 0 4.643-2.219 11.956-6.82 11.956a3.82 3.82 0 0 1-1.726-.41 17.625 17.625 0 0 1-1.52 1.807 5.012 5.012 0 0 0 2.054.452c7.231 0 10.353-7.19 10.353-13.147 0-6.697-2.999-10.354-8.956-10.354h-.698c.246.493.493 1.028.698 1.52" class="cls-3" id="Fill-39"/>
                <path style="stroke-width:1" d="M319.545 418.324a17.132 17.132 0 0 1-1.561 15.078h.329c2.999 0 4.807-5.054 4.807-9.49 0-3.041-.781-5.712-3.164-5.712h-.41" class="cls-2" id="Fill-40"/>
                <path style="stroke-width:1" d="M306.85 433.607c2.712.493 5.423-5.012 5.423-9.696a9.285 9.285 0 0 0-3.369-8.463 26.664 26.664 0 0 1 .822 6.943 21.405 21.405 0 0 1-2.876 11.216" class="cls-2" id="Fill-41"/>
                <path style="stroke-width:1" d="M294.73 433.073c5.053 0 7.888-5.464 7.888-10.887a16.434 16.434 0 0 0-1.89-7.889 13.476 13.476 0 0 0-12.037 11.422c0 2.958 1.643 7.354 6.04 7.354" class="cls-2" id="Fill-42"/>
                <path style="fill:#ffbf00;fill-opacity:1;stroke-width:1" d="M306.316 409.614a18.981 18.981 0 0 1 1.274 2.218c5.587 1.685 7.107 6.862 7.107 11.956 0 6.82-4.108 12.325-7.395 12.325a3.246 3.246 0 0 1-1.89-.452 16.434 16.434 0 0 1-2.013 1.89 6.245 6.245 0 0 0 2.876.74c6.573 0 11.421-6.697 11.421-13.846 0-7.148-3.41-14.872-10.682-14.872h-.452" class="cls-3" id="Fill-43"/>
                <path style="fill:#ffbf00;fill-opacity:1;stroke-width:1" d="M349.126 428.307a17.625 17.625 0 0 1 .37 1.726c3.328 1.561 9.983 5.259 15.16 3.82a26.5 26.5 0 0 1-13.435-5.217c-.451-.288-1.56-.863-2.095-.329" class="cls-3" id="Fill-44"/>
                <path style="stroke-width:1" d="M74.722 332.991c-.493.37-.863-.205-.863-.205-2.342-3.78-5.135-7.765-17.79-7.765a17.297 17.297 0 0 1-14.626-6.245c-.328-.329-.41-.699 0-.986a.616.616 0 0 1 .945 0 16.886 16.886 0 0 0 14.339 6.04c13.188 0 15.776 4.108 18.2 8.216 0 0 .452.657 0 .986" class="cls-1" id="Fill-45"/>
                <path style="stroke-width:1" d="M57.425 349.63c9.82 0 9.778-10.723 18.776-10.723.575 0 .986 0 1.068.493.082.493-.534.658-1.11.658-8.216 0-7.805 10.682-18.734 10.682-.493 0-.945 0-.904-.535.041-.534.452-.534.904-.534" class="cls-1" id="Fill-46"/>
                <path style="stroke-width:1" d="M63.834 280.444a176.294 176.294 0 0 1 7.97 31.8 73.583 73.583 0 0 0 9.41 28.389c.205.37.574.74.985.534.411-.206 0-.822 0-1.192-10.065-14.174-7.395-35.949-17.543-59.983-.246-.616-.287-1.603-1.068-1.274-.78.329 0 1.192.246 1.767" class="cls-1" id="Fill-47"/>
                <path style="stroke-width:1" d="M80.515 331.676c0-16.146 9.614-20.83 15.94-28.759a25.637 25.637 0 0 0 3.575-5.505c.329-.658 0-1.767.78-1.685.781.082.617 1.192.411 1.808a18.036 18.036 0 0 1-4.108 6.327c-6.861 8.217-15.448 13.476-15.448 27.65 0 .78 0 1.52-.616 1.561-.616.041-.74-.863-.74-1.479" class="cls-1" id="Fill-48"/>
                <path style="stroke-width:1" d="M85.815 335.826c-.452-.288-.904-.699-1.397 0-.493.698.246.863.657 1.191a11.545 11.545 0 0 0 7.97 2.917 22.843 22.843 0 0 0 13.066-5.587c.451-.329.944-.945.534-1.274-.411-.329-.986 0-1.52.329a22.35 22.35 0 0 1-12.326 5.259 12.325 12.325 0 0 1-7.19-2.67" class="cls-1" id="Fill-49"/>
                <path style="stroke-width:1" d="M155.535 318.2c-.575-.287-1.232-.616-1.602 0-.37.617.37 1.15.986 1.397a16.434 16.434 0 0 0 6.45 1.52c10.6 0 15.078-9.12 24.939-9.12.534 0 1.273 0 1.273-.534s-.78-.658-1.397-.658c-11.709 0-14.05 8.916-24.65 8.916a11.422 11.422 0 0 1-5.793-1.397" class="cls-1" id="Fill-50"/>
                <path style="stroke-width:1" d="M156.973 276.91c0-.534.247-1.068.74-1.068s.698.534.698 1.027c0 9.121 31.635 15.12 31.635 30.608 0 .658 0 1.438-.616 1.438s-1.027-.74-1.027-1.438c0-15.037-31.43-19.72-31.43-30.567" class="cls-1" id="Fill-51"/>
                <path style="stroke-width:1" d="M228.46 276.17c.494-.451.904-.656 1.274-.287.37.37 0 .863-.287 1.274-9.532 8.217-15.736 11.134-22.885 17.625a120.542 120.542 0 0 0-9.449 14.626c-.329.452-.616.945-1.11.74-.492-.206-.37-1.027 0-1.48a82.662 82.662 0 0 1 9.656-14.995c6.86-6.861 13.968-9.49 22.72-17.502" class="cls-1" id="Fill-52"/>
                <path style="stroke-width:1" d="M198.51 312.9c-.493 0-1.068 0-1.11.535-.04.534.535.698 1.028.698 4.97 0 13.68 7.56 25.883 7.56a24.65 24.65 0 0 0 8.422-1.027.616.616 0 0 0 .452-.863c0-.452-.78 0-1.273 0a29.95 29.95 0 0 1-7.683.657c-11.71 0-20.296-7.56-25.72-7.56" class="cls-1" id="Fill-53"/>
                <path style="stroke-width:1" d="M195.1 217.379c0-.616.287-1.027-.329-1.027s-.74.37-.904.945a53.944 53.944 0 0 0-1.684 17.132c0 13.763 3.204 21.323 3.204 35.004 0 29.211-3.862 33.936-3.862 43.878 0 .493 0 1.15.576 1.15.575 0 .78-.574.78-1.108 0-7.026 3.78-14.914 3.78-44.084 0-13.64-3.122-21.2-3.122-34.84a69.269 69.269 0 0 1 1.52-17.01" class="cls-1" id="Fill-54"/>
                <path style="stroke-width:1" d="M183.514 237.346c0-.493 0-1.15-.534-1.15s-.74.616-.74 1.15c0 14.05 9.203 17.46 9.203 22.638 0 .493.247 1.068.74 1.068s.534-.534.534-1.027c0-6.41-9.203-9.45-9.203-22.638" class="cls-1" id="Fill-55"/>
                <path style="stroke-width:1" d="M212.479 233.69c-.781 0-.781.616-.781 1.232 0 8.956-13.804 23.583-13.804 27.075 0 .452 0 .862.575.904.575.04.657-.452.657-.945 0-1.397 13.969-18.694 13.969-26.993 0-.493 0-1.233-.616-1.233" class="cls-1" id="Fill-56"/>
                <path style="stroke-width:1" d="M300.44 301.89c0-.534 0-1.233.658-1.192.658.042.534.658.534 1.192 0 12.325 6.82 14.75 9.45 21.158a21.282 21.282 0 0 1-.247 19.557c-.246.41-.575.698-.986.493a.698.698 0 0 1-.205-1.15 18.858 18.858 0 0 0 .452-18.407c-2.63-6.244-9.655-9.038-9.655-21.692" class="cls-1" id="Fill-57"/>
                <path style="stroke-width:1" d="M310.876 345.933c-.287.328-.616 1.027 0 1.314.617.288.863-.287 1.15-.616a71.775 71.775 0 0 1 12.942-13.845c6.368-4.56 12.326-5.3 18.324-8.217a.657.657 0 0 0 .329-1.028c-.247-.41-.78-.246-1.233 0-2.054 1.52-11.709 3.862-18.16 8.217a65.735 65.735 0 0 0-13.352 14.051" class="cls-1" id="Fill-58"/>
                <path style="stroke-width:1" d="M322.955 276.993c0-.493.288-1.028.904-.986.616.04.74.451.74.986 0 14.502 3.492 16.433 3.492 21.24 0 .576 0 1.11-.78 1.192-.781.082-1.069-.616-1.069-1.192 0-6.08-3.328-5.135-3.328-21.24" class="cls-1" id="Fill-59"/>
                <path style="stroke-width:1" d="M349.537 278.554c0-.74 0-1.11.698-1.11.699 0 .576.494.576 1.028a11.668 11.668 0 0 1-4.109 7.025c-4.108 4.355-8.628 5.629-13.024 10.477a18.16 18.16 0 0 0-3.862 4.807c0 .41 0 1.027-.78 1.027s-.452-.658-.329-1.15a19.187 19.187 0 0 1 4.109-5.588c4.56-4.89 8.422-5.793 12.777-10.107a11.504 11.504 0 0 0 3.739-6.41" class="cls-1" id="Fill-60"/>
                <path style="stroke-width:1" d="M348.346 252.383c-2.548 9.737-10.395 19.515-15.736 32.58-5.998 14.626-7.108 23.706-12.736 38.455a106.245 106.245 0 0 1-8.669 20.255c-.246.41-.616 1.068 0 1.027.616-.041.74-.288 1.027-.78a89.482 89.482 0 0 0 8.998-20.132c5.587-14.544 6.532-23.952 12.325-38.578 5.341-13.148 12.572-20.543 15.859-32.868 0-.493.287-1.15-.37-1.15s-.657.575-.78 1.027" class="cls-1" id="Fill-61"/>
                <path style="fill:#ffbf00;fill-opacity:1;stroke-width:1" d="M90.827 134.593a29.786 29.786 0 0 1-5.998 2.794c-4.109 1.48-10.97.986-11.874-3a5.67 5.67 0 0 1 1.89-5.71 8.874 8.874 0 0 1 5.916-2.26c.986 0 1.562-.287 2.548-.287-.822-.329-1.356-.863-2.26-.904a8.71 8.71 0 0 0-7.6 3.369c0-.657-.822-.822-.781-1.48.246-3.122 3.45-4.108 7.107-5.422a6.41 6.41 0 0 0-.534 1.807 8.217 8.217 0 0 1 4.109-1.027 8.217 8.217 0 0 1 3.04.658c.575 0 1.89.575 1.356.862-.534.288-1.11.74-1.85 1.15a4.478 4.478 0 0 1 4.11 4.11 1.643 1.643 0 0 0-1.48-.74c-2.177 0-3.04 1.972-5.217 1.972a9.326 9.326 0 0 0-1.15 0 5.546 5.546 0 0 0 1.15.821 5.094 5.094 0 0 1-4.109 1.397c-2.054 0-3.205 0-4.56-1.56a3.615 3.615 0 0 0 0 3.45c.657 1.397 4.108 2.424 6.779 2.054a19.474 19.474 0 0 0 8.217-3.122 32.21 32.21 0 0 0 7.313-7.518 10.477 10.477 0 0 1-3.164.616 4.108 4.108 0 0 1-4.108-4.109 5.588 5.588 0 0 1 3.78-5.382s-.37 1.027-.37 1.15a4.108 4.108 0 0 1 3.286-1.314 3.574 3.574 0 0 1 2.794 1.15c-.493.247-.821 0-1.314 0 .903 0 1.479 1.438 1.479 2.342a2.383 2.383 0 0 1-1.808 2.137c-1.726 0-2.219-.535-2.219-1.397 0-.863 0-1.438.493-1.726h.329-.493c-2.26 0-3.78.657-3.78 2.876a2.342 2.342 0 0 0 2.588 2.26 6.04 6.04 0 0 0 5.341-2.055 25.678 25.678 0 0 1 15.16-11.01c10.354-2.26 17.092 1.314 24.652 4.725a8.217 8.217 0 0 1-1.48-4.807 4.89 4.89 0 0 1 5.136-4.89s-.575.576-.37.576c4.109 0 5.013 1.766 5.013 3.122v1.356l-.863-.698v1.191a2.177 2.177 0 0 1-2.3 2.26c-1.11 0-2.178-.452-2.178-2.014 0-.862.493-1.52 1.191-1.52.698 0 .657.452.986.576.329.123.329 0 .206-.781-.124-.78-1.028-1.068-1.931-1.068a2.753 2.753 0 0 0-2.342 2.752 6.656 6.656 0 0 0 5.217 6.82 35.333 35.333 0 0 0 12.901 2.014 7.806 7.806 0 0 1-6.861-6.122l1.972.822c-2.178-2.178-.452-4.109-1.027-7.19.616.822 1.15.74 2.054 1.15 0-2.67 2.342-2.711 3.41-4.889 1.931 2.054 3.328 3.205 3.328 5.999a2.424 2.424 0 0 1 0 1.191 3.081 3.081 0 0 0 1.438-1.397v2.588a8.217 8.217 0 0 1-2.219 5.588c-1.684 0-2.835-1.726-3.163-3.574a10.97 10.97 0 0 1 0-4.109 6.122 6.122 0 0 0-1.52 3.287 6.245 6.245 0 0 0 8.052 5.916 32.868 32.868 0 0 0 11.627-6.368 8.217 8.217 0 0 1-4.807-1.274 4.725 4.725 0 0 1-1.479-6.614s0 .74.288.616c1.93-3.246 4.108-3.246 5.053-2.588l1.15.616-.944.205.986.576a2.095 2.095 0 0 1 .698 3.04 1.849 1.849 0 0 1-2.752.821 1.315 1.315 0 0 1-.658-1.725c.411-.699.699-.329.945-.534.247-.206 0-.288-.534-.575-.534-.288-1.397.328-1.849 1.068a3.04 3.04 0 0 0 1.11 3.697c3.286 1.603 5.34.699 8.216-1.602a28.143 28.143 0 0 1 18.406-7.518c9.82-.288 16.434 5.834 23.213 11.216a8.217 8.217 0 0 1-.452-5.013 4.89 4.89 0 0 1 6.04-3.697s-.658.41-.493.493c3.862.822 4.519 2.752 4.108 4.108v1.356l-.534-.822c0 .493 0 .658-.247 1.15a2.177 2.177 0 0 1-2.752 1.726 1.931 1.931 0 0 1-1.726-2.424c0-.862.822-1.397 1.48-1.273.657.123.533.616.821.78.288.165.329 0 .37-.74.04-.739-.78-1.273-1.685-1.437a2.753 2.753 0 0 0-2.876 2.218 6.656 6.656 0 0 0 3.698 7.765 22.432 22.432 0 0 0 10.6 3.616 36.483 36.483 0 0 0 8.792-.575l-7.026-.617c-3.656-.74-7.518-2.547-7.518-5.916a10.23 10.23 0 0 1 .246-2.013c.617.986.904.657 1.767 1.274a9.08 9.08 0 0 1-.41-2.958 4.684 4.684 0 0 1 1.109-3.246 9.573 9.573 0 0 1 .862 1.191 6.45 6.45 0 0 1 5.218-2.752 33.073 33.073 0 0 0-.986 4.108c1.192 0 1.808-.657 3-.74a12.572 12.572 0 0 0-.535 1.932l.534 4.108a3.82 3.82 0 0 1-1.232 2.63h-.74a4.52 4.52 0 0 1-2.999-5.711 2.013 2.013 0 0 0-1.233 1.807c0 4.396 5.013 5.752 12.696 5.752a42.77 42.77 0 0 0 4.396-1.397 8.998 8.998 0 0 1-5.547-1.109 5.629 5.629 0 0 1-2.177-7.806s.246.863.37.698c2.095-4.108 4.108-3.78 5.834-3.368a8.751 8.751 0 0 1 1.396.657l-1.109.329 1.192.657c.986.534 1.52 1.356 1.396 3.287a2.506 2.506 0 0 1-3.45 1.602 1.849 1.849 0 0 1-.905-2.26c.452-.862.945-.41 1.233-.698.288-.288 0-.78-.945-.78a2.219 2.219 0 0 0-2.136 1.478 3.369 3.369 0 0 0 1.191 4.109c4.109 1.849 7.436.698 17.01-2.958a28.472 28.472 0 0 1 16.022-.904 26.007 26.007 0 0 1 15.243 11.421 4.314 4.314 0 0 1 3.04-4.93 13.106 13.106 0 0 1 2.999-.37 8.792 8.792 0 0 1-.863.699 4.601 4.601 0 0 1 3.821 3.451 10.107 10.107 0 0 0-1.315-.41v.657a2.588 2.588 0 0 1-2.177 2.834 2.013 2.013 0 0 1-2.424-1.438 1.479 1.479 0 0 1 1.11-1.972 1.972 1.972 0 0 1 1.89.493 4.355 4.355 0 0 0-.247-.986c0-.657-.74-1.602-2.63-1.109a3.04 3.04 0 0 0-1.725 4.108 13.722 13.722 0 0 0 2.629 4.438 19.556 19.556 0 0 0 13.887 8.504c2.63.37 6.162-.657 6.779-2.054a3.615 3.615 0 0 0 0-3.451c-1.356 1.561-2.507 1.561-4.56 1.561a5.094 5.094 0 0 1-4.11-1.397 5.629 5.629 0 0 0 1.151-.822 8.71 8.71 0 0 0-1.15 0c-2.178 0-3.04-1.972-5.218-1.972a1.602 1.602 0 0 0-1.479.74 4.437 4.437 0 0 1 4.108-4.109c-.74-.37-.986-.657-1.848-1.15-.863-.493.78-.698 1.355-.863a8.217 8.217 0 0 1 3.04-.657 8.217 8.217 0 0 1 4.479.945 6.656 6.656 0 0 0-.534-1.808c3.656 1.15 6.86 2.3 7.107 5.423 0 .658-.78.822-.78 1.48a8.833 8.833 0 0 0-6.861-3.164 9.737 9.737 0 0 0-3.04.863 25.596 25.596 0 0 1 3.492 0 7.642 7.642 0 0 1 4.848 1.93 5.793 5.793 0 0 1 2.095 5.999c-.945 4.108-7.6 4.478-11.915 3a26.828 26.828 0 0 1-13.475-9.286 10.518 10.518 0 0 0-3.616-2.876c-2.177-1.027-3.697-.41-4.108.74-.863 1.848 0 2.588.698 2.917a4.807 4.807 0 0 0 .986.41 2.095 2.095 0 0 1-.205-2.054 1.561 1.561 0 0 1 2.26-.821 2.095 2.095 0 0 1 1.068 2.752 2.712 2.712 0 0 1-3.287 1.767l-.658-.247a10.682 10.682 0 0 0 .206 1.438 4.89 4.89 0 0 1-3.04-4.355 9.326 9.326 0 0 1-.863.781 13.681 13.681 0 0 1 .863-3.081 4.56 4.56 0 0 1 5.628-2.383 23.295 23.295 0 0 0-13.845-9.285h.246a4.108 4.108 0 0 1 2.013 3.369 36.483 36.483 0 0 0 0 6.86 4.108 4.108 0 0 1-2.588-1.848 3.164 3.164 0 0 1 .329.986c0 2.465-1.356 3.656-2.137 5.998-1.684-2.26-3.328-1.52-5.71-4.601a8.217 8.217 0 0 1-.74.986 4.643 4.643 0 0 1-.657-2.342 10.025 10.025 0 0 1 1.068-4.93c-.534.287-.78.534-1.397.534a5.834 5.834 0 0 1 6.574-4.766 8.217 8.217 0 0 0-1.562 4.93v2.096c0 .821.576 1.191.904 1.766a20.912 20.912 0 0 1 0-3.45 8.217 8.217 0 0 1 2.219-5.876 18.858 18.858 0 0 0-6.944 0 29.458 29.458 0 0 0-7.313 2.547 10.518 10.518 0 0 0-3.862 2.835 3.41 3.41 0 0 0 3.37 5.875c.698-.246.575-.657.698-.904a1.972 1.972 0 0 1-1.931-.328c-.616-.411-.74-1.274 0-2.548.74-1.273 2.424-.903 3.369 0a2.63 2.63 0 0 1 .534 3.78l-.575.37a5.629 5.629 0 0 0 1.314 0 4.971 4.971 0 0 1-6.203 1.11 6.574 6.574 0 0 1 .534.862 5.916 5.916 0 0 1-3.04-1.397 4.643 4.643 0 0 1-.781-6.45 42.235 42.235 0 0 1-23.295 4.108 25.637 25.637 0 0 1-9.039-2.588 49.63 49.63 0 0 1-6.943-4.355 11.093 11.093 0 0 0-4.19-2.095c-2.466-.534-3.904.452-4.11 1.766-.451 2.096.658 2.63 1.398 2.794a5.053 5.053 0 0 0 1.109 0 2.177 2.177 0 0 1-.698-2.054 1.643 1.643 0 0 1 2.095-1.356 2.219 2.219 0 0 1 1.767 2.547c-.33 1.52-1.397 2.794-2.959 2.589h-.74a11.216 11.216 0 0 0 .576 1.438 5.136 5.136 0 0 1-4.108-4.109 8.833 8.833 0 0 1-.74.986 14.914 14.914 0 0 1 0-3.328 4.766 4.766 0 0 1 5.177-3.738 29.663 29.663 0 0 0-13.558-7.067 7.6 7.6 0 0 0-8.217 6.943c0 2.465 1.767 4.109 4.437 4.93a6.861 6.861 0 0 1-3.122-4.806 4.478 4.478 0 0 1 2.218-4.643c3.04.329 3.37 3.41 5.793 5.3l-2.342.246a3.862 3.862 0 0 1 1.726 3.205v1.397a9.45 9.45 0 0 0 .863 2.958c-2.917-.698-5.3-.329-7.231-2.588l-.863 2.588c-1.15-2.588-3.533-2.835-4.643-5.382a3.328 3.328 0 0 1-1.848.986c1.643-1.438.903-3.328 1.602-5.423a4.766 4.766 0 0 1 4.601-3.698c1.767-.575 1.562-2.136 4.109-2.342h-.534a23.336 23.336 0 0 0-14.421 5.424c-1.972 1.56-3.862 2.917-3.862 5.998 0 1.397.329 2.054.945 2.383 1.767 1.027 2.835 0 3.205-.452a3.698 3.698 0 0 0 .246-.945 2.095 2.095 0 0 1-2.095 0 1.561 1.561 0 0 1-.616-2.3 2.095 2.095 0 0 1 2.834-.822 2.712 2.712 0 0 1 1.48 3.45l-.288.658a10.97 10.97 0 0 0 1.479 0 4.848 4.848 0 0 1-4.766 2.547 9.696 9.696 0 0 1 .699.945 13.476 13.476 0 0 1-3-1.15 4.355 4.355 0 0 1-1.89-5.793 34.141 34.141 0 0 1-18.323 8.669 42.112 42.112 0 0 1-22.391-3.534 10.518 10.518 0 0 0-4.52-1.068c-2.383 0-3.533 1.192-3.533 2.465 0 2.055 1.15 2.342 1.849 2.342a4.601 4.601 0 0 0 1.068 0 2.095 2.095 0 0 1-1.068-1.766 1.561 1.561 0 0 1 1.684-1.685 2.095 2.095 0 0 1 2.137 2.054 2.712 2.712 0 0 1-2.26 3h-.698a10.64 10.64 0 0 0 .821 1.232 4.848 4.848 0 0 1-4.601-2.876 8.874 8.874 0 0 1-.493 1.068 13.804 13.804 0 0 1-.493-3.163 4.56 4.56 0 0 1 4.108-4.52 28.225 28.225 0 0 0-11.052-3.245 3.451 3.451 0 0 0-3.286 1.725c2.506 1.644 1.93 4.89 3.328 7.601l-1.973-.616a4.52 4.52 0 0 0 2.548 3.82 2.753 2.753 0 0 1-2.301 1.028c-.534 0-.822-.452-1.356-.452.411 1.191 0 1.561.863 2.547h-1.849c-1.643 0-2.465-.904-3.246-2.342-1.479.74-1.602.945-1.93 1.931a4.971 4.971 0 0 1-1.274-3.246c0-1.355 1.027-2.054 1.027-3.368a5.177 5.177 0 0 0-2.178 1.725 7.354 7.354 0 0 1 5.588-8.217h.205a9.12 9.12 0 0 0-1.643 4.848 5.67 5.67 0 0 0 2.013 4.355 13.763 13.763 0 0 1-.575-4.437 7.765 7.765 0 0 1 3.492-6.984 23.46 23.46 0 0 0-2.958.493 18.611 18.611 0 0 0-8.587 4.355 10.025 10.025 0 0 0-4.108 8.71 2.3 2.3 0 0 0 1.972 2.341c.247 0 1.274 0 1.48-.575-.453-.452-1.398 0-1.398-1.397a1.972 1.972 0 0 1 1.972-1.766c.986 0 2.096.698 2.096 1.684a2.63 2.63 0 0 1-1.48 2.465c.535 0 1.069-.37 1.562-.246-1.068.986-1.644 1.725-2.876 1.725a4.108 4.108 0 0 1-2.589-.821 3.657 3.657 0 0 1 .452 1.109 4.108 4.108 0 0 1-3.204-4.355 6.738 6.738 0 0 1 .37-2.753 42.44 42.44 0 0 1-10.765 10.641" class="cls-3" id="Fill-62"/>
                <path style="fill:#ffbf00;fill-opacity:1;stroke-width:1" d="M100.112 112.12a395.48 395.48 0 0 1 99.671-12.325 395.563 395.563 0 0 1 99.672 12.325 252.3 252.3 0 0 1 36.606 12.325 3.78 3.78 0 0 0 1.603-3.369c0-1.684-.37-2.382-3.493-3.41a248.973 248.973 0 0 0-36.688-11.79 410.846 410.846 0 0 0-195.48 0 249.26 249.26 0 0 0-36.69 11.79c-3.122 1.028-3.492 1.726-3.492 3.41a3.739 3.739 0 0 0 1.603 3.37 252.219 252.219 0 0 1 36.606-12.326" class="cls-3" id="Fill-63"/>
                <path style="fill:#ffbf00;fill-opacity:1;stroke-width:1" d="M326.365 148.603a3.78 3.78 0 0 0 1.315-2.67 260.107 260.107 0 0 0-34.511-10.641 402.63 402.63 0 0 0-186.73 0 255.916 255.916 0 0 0-34.388 10.64 2.917 2.917 0 0 0 1.233 2.671h13.722a236.483 236.483 0 0 1 32.252-9.983 355.505 355.505 0 0 1 80.525-8.834 355.629 355.629 0 0 1 80.526 8.834 235.292 235.292 0 0 1 32.252 9.983h13.763" class="cls-3" id="Fill-64"/>
                <path style="fill:#ffbf00;fill-opacity:1;stroke-width:1" d="m92.8 82.786-4.726-18.242a274.404 274.404 0 0 0-36.4 12.736l6.902 18.16a199.055 199.055 0 0 1 34.182-12.654" class="cls-3" id="Fill-65"/>
                <path style="fill:#ffbf00;fill-opacity:1;stroke-width:1" d="m87.376 61.627-4.437-17.461a234.182 234.182 0 0 0-38.66 13.64l6.367 16.722a271.652 271.652 0 0 1 36.73-12.901" class="cls-3" id="Fill-66"/>
                <path style="fill:#ffbf00;fill-opacity:1;stroke-width:1" d="M82.076 41.085 76.53 19.597l-8.217 2.424 5.546 17.297-9.12 3.04-6-17.05-6.778 2.342 5.752 17.256-8.505 3.492-6.943-17.215-3.82 1.685-3.164 1.314 8.217 21.159a254.725 254.725 0 0 1 38.578-14.256" class="cls-3" id="Fill-67"/>
                <path style="fill:#ffbf00;fill-opacity:1;stroke-width:1" d="M98.181 103.985 93.54 85.703a209.942 209.942 0 0 0-33.977 12.325l6.244 16.434a261.34 261.34 0 0 1 32.375-10.436" class="cls-3" id="Fill-68"/>
                <path style="fill:#ffbf00;fill-opacity:1;stroke-width:1" d="m183.473 25.76-.411-22.884-16.105.616.822 18.858-12.326 1.027L153.07 4.52l-15.694 1.89 2.218 18.694-12.859 1.849-3.739-18.242-15.078 3.04 4.109 22.104a450.575 450.575 0 0 1 71.405-8.217" class="cls-3" id="Fill-69"/>
                <path style="fill:#ffbf00;fill-opacity:1;stroke-width:1" d="m112.684 36.976 3.369 17.584a392.564 392.564 0 0 1 67.83-8.792l-.328-17.009a418.2 418.2 0 0 0-70.87 8.217" class="cls-3" id="Fill-70"/>
                <path style="fill:#ffbf00;fill-opacity:1;stroke-width:1" d="m116.587 57.518 3.533 18.612a382.087 382.087 0 0 1 64.216-7.519l-.411-19.68a391.578 391.578 0 0 0-67.338 8.587" class="cls-3" id="Fill-71"/>
                <path style="fill:#ffbf00;fill-opacity:1;stroke-width:1" d="M124.352 97.987a408.956 408.956 0 0 1 60.436-6.533l-.37-19.72a380.937 380.937 0 0 0-63.681 7.313l3.615 18.94" class="cls-3" id="Fill-72"/>
                <path style="fill:#ffbf00;fill-opacity:1;stroke-width:1" d="m307.097 82.786 4.724-18.242a274.404 274.404 0 0 1 36.401 12.736l-6.902 18.16a199.548 199.548 0 0 0-34.223-12.654" class="cls-3" id="Fill-73"/>
                <path style="fill:#ffbf00;fill-opacity:1;stroke-width:1" d="m312.52 61.627 4.437-17.461a233.854 233.854 0 0 1 38.66 13.64l-6.49 16.68a271.159 271.159 0 0 0-36.607-12.859" class="cls-3" id="Fill-74"/>
                <path style="fill:#ffbf00;fill-opacity:1;stroke-width:1" d="m317.779 41.085 5.587-21.488 8.217 2.424-5.382 17.297 9.12 3.04 5.835-17.05 6.779 2.342-5.752 17.256 8.669 3.533 6.738-17.215 3.862 1.644 3.163 1.314-8.217 21.159a254.108 254.108 0 0 0-38.62-14.256" class="cls-3" id="Fill-75"/>
                <path style="fill:#ffbf00;fill-opacity:1;stroke-width:1" d="m301.714 103.985 4.643-18.282a210.025 210.025 0 0 1 33.977 12.325l-6.245 16.434a261.257 261.257 0 0 0-32.375-10.436" class="cls-3" id="Fill-76"/>
                <path style="fill:#ffbf00;fill-opacity:1;stroke-width:1" d="m216.423 25.76.41-22.884 16.147.575-.822 18.858 12.326 1.027 2.341-18.817 15.695 1.89-2.178 18.653 12.86 1.848L276.94 8.67l15.078 3.04-4.108 22.104a450.493 450.493 0 0 0-71.405-8.217" class="cls-3" id="Fill-77"/>
                <path style="fill:#ffbf00;fill-opacity:1;stroke-width:1" d="m287.212 36.976-3.37 17.584a392.564 392.564 0 0 0-67.83-8.833l.37-16.968a418.242 418.242 0 0 1 70.83 8.217" class="cls-3" id="Fill-78"/>
                <path style="fill:#ffbf00;fill-opacity:1;stroke-width:1" d="m283.39 57.518-3.533 18.612a382.087 382.087 0 0 0-64.215-7.519l.37-19.68a391.66 391.66 0 0 1 67.379 8.587" class="cls-3" id="Fill-79"/>
                <path style="fill:#ffbf00;fill-opacity:1;stroke-width:1" d="M275.585 97.987a408.956 408.956 0 0 0-60.436-6.533l.37-19.72a380.896 380.896 0 0 1 63.763 7.313l-3.615 18.94" class="cls-3" id="Fill-80"/>
            </g>
        </g>
    </g>
</svg>
