<svg xmlns="http://www.w3.org/2000/svg" width="400" height="500" viewBox="30.5 31.5 400 500" xml:space="preserve">
    <path fill="#0085ca" d="M230.44 531.14C156.12 477.22 105.18 409.12 74.7 322.98c-27.64-78.1-38.73-172.75-33.91-289.35l.02-.46h379.82l.02.46c4.81 116.6-6.28 211.24-33.91 289.35-30.48 86.14-81.42 154.24-155.74 208.16l-.28.2-.28-.2z"/>
    <path d="M419.96 33.21c9.07 219.45-36.26 385.95-189.46 497.1C77.31 419.16 31.99 252.66 41.06 33.21h378.9m.92-.95H40.14l-.04.92c-4.82 116.66 6.28 211.36 33.93 289.52 30.51 86.24 81.51 154.41 155.91 208.39l.56.41.56-.41c74.4-53.98 125.4-122.15 155.91-208.39 27.65-78.16 38.75-172.86 33.93-289.52l-.04-.92z"/>
    <path style="fill:#fff;stroke:#000;stroke-width:.99000001;stroke-linecap:round;stroke-linejoin:round;stroke-miterlimit:4;stroke-dasharray:none" d="M153.59 145.46c8.55-7.79 19.43-16.531 31.59-25.031-6.977-7.185-5.96-12.55-6.113-19.62-.12-5.48 1.516-8.435.736-25.807 18.94 2.932 30.317 15.753 38.677 28.461 47.02-31.437 63.959-49.874 91.31-46.038 28.609 4.014 41.11 28.778 43.358 53.298 1.932 21.06-6.703 43.803-12.013 64.767-8.918 35.203-14.358 60.645 16.338 82.881 1.102.799-.863 2.487-1.655 2.147-52.684-22.565-25.67-91.228-24.278-126.007.969-24.207-6.149-42.066-25.13-41.562-13.249.352-28.16 15.49-47.037 28.28 27.864 18.77 30.709 53.62 35.852 91.828 4.795 35.623 8.425 67.785 9.628 79.124 3.24-4.213 8.952-4.95 13.525-3.771 26.182 6.752 11.814 36.037 30.766 40.77-4.8 5.45-16.73 8.876-22.598 3.432 1.281 5.913.977 10.552-.227 17.173-1.307 7.195-10.343 10.364-4.406 20.939-12.58-.65-10.212-16.188-12.697-20.283.407 14.355-3.193 21.474-7.18 25.486-5.51 5.545-7.214 10.86-3.922 19.656-12.317 2.022-13.534-10.12-11.516-14.922-7.737 5.181-7.494 14.464-7.395 22.972.136 11.81-4.87 23.958-19.877 27.29 2.023-5.164.907-8.317 1.433-14.249-5.638 2.883-10.304 18.273-8.838 30.404 1.709 14.143-1.59 31.793-21.188 36.817 5.87-18.093-2.688-20.586-5.037-29.78-2.986-11.686-4.905-25.67 4.674-38.875-17.424-.732-6.374 29.325-31.517 40.168 6.174-12.138.45-16.42-1.665-23.19-5.908-18.918 9.276-36.838 12.012-37.793-6.186.01-11.813 1.314-16.012 9.482-4.814 9.365-2.731 27.441-23.897 25.824 9.87-7.128.689-15.484-.297-25.26-.499-4.956.509-10.905 4.409-14.243 2.637-2.257 4.2-3.948 5.24-5.792 1.142-2.02-.12-3.948 1.848-7.778-4.388 1.416-6.149 9.715-11.981 14.375-5.688 4.543-16.706 3.946-23.356.953 16.315-1.432 14.573-15.595 16.787-21.083 2.126-5.27 2.998-11.66 14.745-18.478 2.772-1.608 3.62-5.103 3.067-7.444-5.458 7.178-17.85 14.024-28.042 7.909 14.492-1.74 14.854-10.808 18.589-16.19 5.438-7.836 11.106-7.852 11.714-13.987-3.507 3.87-13.839 9.042-20.582 2.15 4.14.039 6.376-.625 9.19-2.339 2.205-1.342 2.598-4.414 4.118-6.65 1.403-2.066 5.83-2.821 6.815-5.018.688-13.662 8.54-30.51 8.7-66.02-.387-.66-7.412-1.708-7.217-.519-1.1 31.433-37.413 25.331-42.721 51.357-5.185-15.795 11.231-23.883 18.153-36.542 2.412-4.413 3.671-9.381 2.46-15.426-.44-.819-9.74-1.65-10 .32-1.886 16.41-19.07 7.711-26.799 31.814-6.843-16.039 12.892-24.948 8.96-34.494-22.634-.506-33.682-9.334-34.459-16.372-.377-3.42 11.093-7.579 11.08-9.523-.4-1.783-15.301 1.879-14.734-2.308.233-1.72 1.086-5.955 4.669-9.644 10.54-10.855 54.566-45.68 54.566-45.68s-4.163-9.129-.623-12.359z"/>
    <path style="fill:none;stroke:#000;stroke-linecap:round" d="M180.105 142.53c-11.933 8.892-15.173 12.316-15.017 13.499"/>
    <path style="fill:#fff;stroke:#000;stroke-width:1.07000005" d="M172.958 157.629c.01 5.98-8.16 5.98-8.15 0-.01-5.98 8.16-5.98 8.15 0z"/>
    <path d="M309.216 350.44c-.28-.699-.882-1.712-1.965-2.983M326.546 332.612l-1.144-1.422" style="fill:none;fill-rule:evenodd;stroke:#000;stroke-width:1px;stroke-linecap:round;stroke-linejoin:miter;stroke-opacity:1"/>
</svg>
