<svg xmlns="http://www.w3.org/2000/svg" viewBox="0 0 262.467 304.015" height="1149.034" width="992.003">
    <path style="display:inline;fill:#fff;stroke:#000;stroke-width:.5;stroke-linecap:butt;stroke-linejoin:miter;stroke-miterlimit:4;stroke-dasharray:none;stroke-opacity:1" d="m.25.25 261.964.02s-.513 34.725-2.935 51.873c-2.725 19.287-5.567 38.691-10.113 57.674-3.146 13.136-7.366 26.022-11.865 38.729-10.627 30.014-25.235 58.735-42.1 85.742-8.544 13.681-18.708 26.395-29.67 38.227-4.35 4.694-10.512 11.592-16.799 17.184-8.927 7.939-17.628 14.013-17.628 14.013s-8.366-5.687-17.12-13.438c-6.579-5.825-13.17-13.186-17.736-18.125-11.05-11.952-21.193-24.863-29.842-38.653-15.263-24.338-28.367-50.227-38.48-77.116-3.526-9.373-7.07-18.762-9.885-28.391C12.668 109.61 8.915 90.71 5.746 71.863 4.07 61.903 2.264 47.505 1.39 34.297.193 16.199.25.25.25.25Z"/>
    <g style="display:inline">
        <path transform="matrix(.26458 0 0 .26458 -.884 -.933)" d="M425.847 61.029c-1.745 1.766-.854 6.216-1.723 8.455-2.47 15.138-11.915 20.931-23.733 30.084-13.378 10.152-33.27 15.551-48.789 21.858-42.718 16.055-64.733 25.606-106.35 44.513-22.113 10.116-54.525 22.718-75.321 35.385-18.851 11.993-65.041 40.667-69.445 62.632-4.2 20.242 23.155 52.256 28.533 72.045.176.839 22.542 35.526 24.006 34.026 5.525-132.686 15.256 37.803 27.889 30.112 19.887-20.01 93.992 189.04 119.443 177.416 38.178-17.443 208.854-7.743 247.72-23.551 146.094-67.908-201.228-199.53-126.013-161.95 109.734 35.811 379.692-123.12 425.447-140.722 109.694-42.202-42.54-247.525-42.54-247.525l-107.143.129-277.04.105s-21.963 22.09 5.059 56.988z" style="display:inline;opacity:1;vector-effect:none;fill:#7fc241;fill-opacity:1;stroke:none;stroke-width:.0638759;stroke-linecap:butt;stroke-linejoin:miter;stroke-miterlimit:4;stroke-dasharray:none;stroke-dashoffset:0;stroke-opacity:1"/>
        <path transform="matrix(.26458 0 0 .26458 -.884 -.933)" d="M804.972 3.807s2.16 3.094 2.438 4.06c5.505 8.575 10.359 17.662 13.654 27.313 3.463 13.12 5.563 26.619 6.729 40.127 1.133 18.623.842 37.438-2.004 55.904-6.04 34.665-24.764 66.786-51.412 89.703-27.519 23.866-61.301 39.188-95.607 50.559-26.217 8.475-52.987 15.07-79.735 21.623-36.466 7.085-60.87 13.712-91.556 19.287-16.88 3.066-33.87 5.954-50.875 7.781-2.89-1.16 1.809-2.394 2.755-2.8 4.092-1.43 8.233-2.689 12.354-4.042-.072-.03-.15-.052-.223-.08 12.81-3.642 25.501-7.726 38.297-11.441 40.983-12.287 82.143-24.187 122.23-39.207 29.001-11.169 57.809-24.382 81.901-44.35 16.996-14.168 30.81-33.154 35.764-54.976 3.365-15.29 3.042-31.089 2.01-46.618-1.9-20.383-6.365-40.867-15.038-59.336-9.41-20.04-39.121-53.674-39.121-53.674s-49.201.948-68.576.958c-14.927.088-29.875-.08-44.791.306-.442 1.055 1.492 1.48 2.023 2.184 20.06 13.23 36.906 32.79 43.096 56.357 3.136 11.362 2.096 23.294 1.79 34.963-1.053 16.088-5.45 32.185-13.862 46.045-8.516 13.907-21.267 24.53-33.772 34.725-21.804 17.286-45.663 31.783-70.246 44.742-1.64 1.216-4.135 1.704-5.279 3.455.379 1.241 2.24.105 3.115.14 37.274-9.01 74.835-19.649 107.934-39.58 17.675-10.796 34.256-24.68 44.447-43 10.534-18.978 12.184-41.51 9.953-62.726-2.054-19.523-8.792-38.227-17.543-55.693-.171-.685-3.542-6.06-2.158-4.89.8.503 2.2 1.77 3.217 2.745 6.514 6.249 12.632 12.94 18.42 19.85 16.312 20.027 28.481 44.167 31.154 70.076.443 10.414.516 21.054-2.656 31.09-6.33 22.713-21.608 41.8-39.037 57.187-23.204 20.209-50.595 34.871-78.4 47.684-26.68 12.307-54.903 20.795-82.258 31.44-25.9 10.077-53.48 16.746-77.514 30.698-21.459 12.458-44.404 25.178-58.12 46.508-6.532 10.312-9.447 23.912-3.55 35.19 7.902 15.42 21.049 27.361 34.006 38.531 20.08 16.64 43.354 30.208 68.22 38.077 1.962.534 2.922 1.048 4.127 1.93-2.461.221-4.807.15-7.154.01-44.743-3.804-89.698-17.312-126.572-43.671-29.38-20.602-58.298-63.539-62.277-84.222-2.43-12.632-2.687-22.354-4.4-24.614-2.596 3.916-5.644 18.257-6.069 23.842-2.038 26.017 11.773 55.862 28.998 74.699 33.323 38.115 78.588 62.839 123.904 83.893 34.84 16.377 72.132 28.24 110.293 33.36 2.897.473 7.284 1.023 9.328 1.576 2.982.655 1.635 1.616-2.455 2.125-16.544 1.483-33.262.215-49.804-.801-43.095-3.555-85.472-14.615-126.358-28.444-46.02-16.785-90.858-40.012-125.455-75.322-18.773-18.247-34.11-40.474-41.908-65.578-1.702-19-7.675-40.67-.178-57.125 8.855-18.875 22.07-36.31 38.186-49.536 19.97-16.39 45.659-24.328 69.432-34.44 31.17-13.26 64.4-21.234 95.665-34.267 33.077-13.787 70.521-22.211 96.992-46.365 14.742-13.45 33.575-31.688 30.647-51.428-6.703-45.183-101.3-92.283-101.3-92.283l-416.5.432s-.68 62.297 4.233 129.76c4.83 66.32 15.217 137.632 19.387 159.658 8.412 44.43-3.824-20.005 4.065 22.392 4.545 24.43 13.88 77.34 27.97 131.295 10.364 39.686 24.227 81.535 35.93 115.23 22.495 66.24 50.294 128.106 81.709 190.585 42.01 82.594 91.957 161.289 150.078 233.505 47.2 57.828 99.438 112.215 159.744 156.518 3.823 2.63 7.512 5.684 11.45 7.998 20.738-13.64 39.999-29.469 58.693-45.777 47.044-41.795 89.68-88.488 128.162-138.244 11.595-15.523 36.197-48.747 36.197-48.747l-365.056-.066 176.299-295.402 25.437 4.19 53.025-120.508 9.569 9.142 11.85-9.742 37.382 95.818 41.568-106.32 17.137 42.601 17.92-6.601 19.863 14.328c9.156-29.249 27.04-89.182 27.04-89.182l5.365 6.168 14.603-19.982s61.19 87.01 85.787 123.683c36.517-109.542 42.173-127.055 59.215-214.025 12.56-67.001 12.381-67.415 21.078-129.256 2.914-23.089 5.911-47.24 7.64-70.449 2.693-31.606 4.809-66.045 5.567-97.762.528-18.053 1.19-50.732 1.19-50.732s-119.39-1.457-189.413-.742zM429.469 42.043s11.57 11.564 15.84 33.198c2.422 12.272 4.857 31.598-4.373 44.404-20.93 29.033-67.296 44.546-67.296 44.546-68.703 30.902-191.794 54.994-224.323 121.586-9.17 22.095.673 71.763.673 71.763-24.449-43.312-33.463-77.965-19.684-103.584 38.916-72.356 182.742-96.869 281.384-149.515 43.39-30.714 17.779-62.398 17.779-62.398z" style="display:inline;opacity:1;vector-effect:none;fill:#014a7f;fill-opacity:1;stroke:none;stroke-width:.0903342;stroke-linecap:butt;stroke-linejoin:miter;stroke-miterlimit:4;stroke-dasharray:none;stroke-dashoffset:0;stroke-opacity:1"/>
        <path d="m113.771 70.642 261.964.02s-.513 34.724-2.936 51.873c-2.724 19.287-5.566 38.691-10.112 57.674-3.146 13.136-7.366 26.022-11.865 38.729-10.627 30.014-25.235 58.735-42.1 85.742-8.544 13.681-18.708 26.394-29.67 38.226-4.35 4.695-10.512 11.593-16.799 17.184-8.927 7.94-17.628 14.013-17.628 14.013s-8.366-5.686-17.12-13.437c-6.579-5.825-13.171-13.187-17.737-18.125-11.05-11.952-21.193-24.864-29.841-38.654-15.263-24.337-28.367-50.227-38.48-77.116-3.526-9.372-7.07-18.761-9.885-28.39-5.373-18.379-9.126-37.279-12.296-56.127-1.675-9.96-3.482-24.357-4.355-37.565-1.197-18.099-1.14-34.047-1.14-34.047z" style="display:inline;fill:none;stroke:#000;stroke-width:.5;stroke-linecap:butt;stroke-linejoin:miter;stroke-miterlimit:4;stroke-dasharray:none;stroke-opacity:1" transform="translate(-113.52 -70.392)"/>
    </g>
</svg>
