<svg xmlns="http://www.w3.org/2000/svg" xml:space="preserve" viewBox="30.5 31.5 420 500" height="500" width="420">
    <path style="fill:#e00e00;fill-opacity:1;stroke:#000" d="M36.846 32.7c-6.56 239.76 37.97 376.005 203.654 498.18C406.183 408.705 450.715 272.46 444.154 32.7c-174.747.213-297.744.009-407.308 0z"/>
    <path transform="translate(30.5 31.5)" d="M210 70.045A126.463 126.463 0 0 0 83.537 196.508 126.463 126.463 0 0 0 210 322.97a126.463 126.463 0 0 0 126.463-126.463A126.463 126.463 0 0 0 210 70.045zm0 29a97.463 97.463 0 0 1 97.463 97.463A97.463 97.463 0 0 1 210 293.97a97.463 97.463 0 0 1-97.463-97.463A97.463 97.463 0 0 1 210 99.045z" style="opacity:.98999999;fill:#ffe000;fill-opacity:1;fill-rule:evenodd;stroke:#000;stroke-width:1.14281297;stroke-linecap:round;stroke-linejoin:bevel;stroke-miterlimit:4;stroke-dasharray:none;stroke-opacity:1"/>
</svg>
