<svg xmlns="http://www.w3.org/2000/svg" xml:space="preserve" viewBox="30.5 31.5 400 500" height="500" width="400">
    <path d="M230.55 531.13c74.32-53.92 125.26-122.02 155.74-208.16 27.64-78.1 38.73-172.75 33.91-289.35l-.02-.46H40.36l-.02.46c-4.81 116.6 6.28 211.24 33.91 289.35 30.48 86.14 81.42 154.24 155.74 208.16l.28.2.28-.2z" fill="#ffe000"/>
    <path d="M41.04 33.21c-9.07 219.45 36.25 385.95 189.45 497.1 84.47-61.29 136.15-139.41 163.99-233.97a557.24 557.24 0 0 0 5.87-21.54c11.45-45.69 17.77-95.02 19.88-147.94 1.2-30.06 1.05-61.28-.29-93.65H41.04m-.92-.95H420.86l.04.92c4.82 116.66-6.28 211.36-33.93 289.52-30.51 86.24-81.51 154.41-155.91 208.39l-.56.41-.56-.41c-74.4-53.98-125.4-122.15-155.91-208.39C46.38 244.54 35.28 149.84 40.1 33.18l.04-.92z"/>
    <path d="m328.65 190.84 6.26 8.46h6.42v-33.2h-6.42l-6.26 7.2h-21.56l27.04-25.37.31-69.06-12.37-.16.16 14.41H138.77l.16-14.41-12.37.16.31 69.06 27.04 25.37h-21.56l-6.26-7.2h-6.42v33.2h6.42l6.26-8.46c66.96-.01 131.7-.26 196.3 0z" style="fill:#000;stroke-width:.99;stroke:#000"/>
    <path d="M236.79 203.32a29.39 29.39 0 1 0 58.78 0 29.39 29.39 0 1 0-58.78 0z" fill="#ffe000"/>
    <path d="M242.04 203.32a24.14 24.14 0 0 0 48.29 0 24.14 24.14 0 1 0-48.29 0z" style="fill:#ffe000;stroke-miterlimit:4;stroke-width:8.22;stroke:#000"/>
    <path d="M266.18 178.93v47.92M291.55 203.52h-50.27" style="fill:none;stroke-miterlimit:4;stroke-width:7.93;stroke:#000"/>
    <path d="M272.62 197.08h-12.88v12.88h12.88z"/>
    <path d="M165.46 203.32a29.36 29.36 0 1 0 58.72 0 29.36 29.36 0 1 0-58.72 0z" fill="#ffe000"/>
    <path d="M170.71 203.32a24.11 24.11 0 0 0 48.22 0 24.11 24.11 0 1 0-48.22 0z" style="fill:#ffe000;stroke-miterlimit:4;stroke-width:8.22;stroke:#000"/>
    <path d="M194.82 178.93v47.92M220.19 203.52h-50.27" style="fill:none;stroke-miterlimit:4;stroke-width:7.93;stroke:#000"/>
    <path d="M201.26 197.08h-12.88v12.88h12.88z"/>
    <path d="m328.65 360.84 6.26 8.46h6.42v-33.2h-6.42l-6.26 7.2h-21.56l27.04-25.37.31-69.06-12.37-.16.16 14.41H138.77l.16-14.41-12.37.16.31 69.06 27.04 25.37h-21.56l-6.26-7.2h-6.42v33.2h6.42l6.26-8.46c67.64-.12 140.75-.23 196.3 0z" style="fill:#000;stroke-width:.99;stroke:#000"/>
    <path d="M236.85 373.32a29.33 29.33 0 1 0 58.66 0 29.33 29.33 0 1 0-58.66 0z" fill="#ffe000"/>
    <path d="M242.1 373.32a24.08 24.08 0 0 0 48.16 0 24.08 24.08 0 1 0-48.16 0z" style="fill:#ffe000;stroke-miterlimit:4;stroke-width:8.22;stroke:#000"/>
    <path d="M266.18 348.93v47.92M291.55 373.52h-50.27" style="fill:none;stroke-miterlimit:4;stroke-width:7.93;stroke:#000"/>
    <path d="M272.62 367.08h-12.88v12.88h12.88z"/>
    <path d="M165.49 373.32a29.33 29.33 0 1 0 58.66 0 29.33 29.33 0 1 0-58.66 0z" fill="#ffe000"/>
    <path d="M170.74 373.32a24.08 24.08 0 0 0 48.16 0 24.08 24.08 0 1 0-48.16 0z" style="fill:#ffe000;stroke-miterlimit:4;stroke-width:8.22;stroke:#000"/>
    <path d="M194.82 348.93v47.92M220.19 373.52h-50.27" style="fill:none;stroke-miterlimit:4;stroke-width:7.93;stroke:#000"/>
    <path d="M201.26 367.08h-12.88v12.88h12.88z"/>
</svg>
