<svg width="1782.35" height="786.15mm" viewBox="0 0 471.58 786.15" xmlns="http://www.w3.org/2000/svg">
    <g stroke-width="2.088">
        <path d="M92.82 64.987c3.92 8.394 22.323 48.024 26.476 56.827-1.12.798-2.232 1.606-3.335 2.424l.322.683-.03.042 18.02 38.538c26.164-17.331 54.567-27.817 84.054-30.79a170.4 170.4 0 0 1 17.79-.927c12.785 0 25.244 1.4 37.242 4.149 22.024 4.86 43.266 13.983 63.215 27.079l17.036-36.626 1.422-3.049a201.723 201.723 0 0 0-3.949-2.808c3.87-8.169 22.164-47.34 26.123-55.817l7.778 4.372 11.112-19.782-10.595-5.957-4.94 8.792-6.187-3.478 4.936-8.793-10.58-5.961-4.936 8.797-6.208-3.49 4.945-8.79-10.59-5.953-11.117 19.78 8.208 4.617c-.587.877-1.414 2.12-2.433 3.648l-6.957-2.56-2.213 5.84-4.1-1.48 2.204-5.83-8.854-3.186-2.188 5.833-4.099-1.478 2.203-5.842-5.909-2.132 1.12-5.483 8.581 2.437 6.193-21.83-11.685-3.329-2.756 9.712-6.832-1.94 2.748-9.707-11.685-3.316-2.74 9.71-6.846-1.945 2.754-9.703-11.69-3.318-6.188 21.83 9.06 2.573c-.418 1.136-1.032 2.804-1.79 4.869l-6.754-1.08-.971 6.156-4.423-.714.967-6.158-9.388-1.52-.975 6.16-4.414-.716.971-6.158-7.46-1.2c-.136-1.803-.249-3.27-.326-4.314h8.916V.005h-12.15v10.087h-7.106V.005h-12.142v10.087h-7.108V.005h-12.144v22.69h9.413c-.081 1.048-.192 2.524-.33 4.332l-7.456 1.205.971 6.176-4.425.714-.975-6.176-9.381 1.524.97 6.175-4.43.716-.973-6.172-7.107 1.142a848.34 848.34 0 0 1-1.838-5.126L193.765 25l-5.462-22.022-11.79 2.908 2.425 9.795-6.896 1.708-2.429-9.788-11.787 2.914 2.425 9.795-6.901 1.71-2.42-9.797-11.793 2.928 5.45 22.024 8.92-2.21c.219 1.229.59 3.419 1.075 6.315l-6.761 2.485 2.177 5.852-4.215 1.545-2.166-5.84-8.932 3.272 2.174 5.842-4.208 1.54-2.165-5.832-7.1 2.605c-.995-1.497-1.82-2.733-2.398-3.6l7.775-4.372L117.644 25l-10.597 5.951 4.949 8.8-6.187 3.476-4.95-8.793-10.585 5.95 4.945 8.793-6.193 3.485-4.945-8.794-10.586 5.955L84.612 69.6z" fill="#b99a4a"/>
        <path d="M235.78 786.15c-63.089 0-122.36-34.097-166.9-96.015C24.457 628.378-.006 546.295-.006 458.995c0-87.302 24.463-169.39 68.886-231.14 44.539-61.922 103.81-96.024 166.9-96.024 63.085 0 122.35 34.101 166.89 96.024 44.425 61.761 68.892 143.85 68.892 231.14 0 87.292-24.467 169.38-68.892 231.14-44.539 61.918-103.81 96.015-166.89 96.015" fill="#b3b7b3"/>
        <path d="M235.55 182.47c-100.51 0-182.28 123.11-182.28 274.45 0 151.32 81.771 274.43 182.28 274.43 100.51 0 182.28-123.11 182.28-274.43 0-151.33-81.771-274.45-182.28-274.45" fill="#1e5cb3"/>
        <g fill="#231f20">
            <path d="M438.14 463.71c0-2.297-.397-4.057-1.194-5.287-.731-1.159-1.742-1.741-3.032-1.741-1.645 0-2.731.766-3.26 2.292-.254.717-.377 1.7-.377 2.96 0 3.263.561 5.574 1.71 6.919.647.766 1.476 1.148 2.474 1.148 2.45 0 3.68-2.088 3.68-6.291m5.033-2.443c0 4.272-1.415 7.467-4.249 9.582-1.34.994-3.002 1.495-5.011 1.495-2.817 0-5.02-1.094-6.619-3.3-1.645-2.215-2.476-5.353-2.476-9.4 0-3.91.666-7.157 1.983-9.736 1.401-2.727 3.232-4.896 5.494-6.498 2.35-1.639 4.942-2.464 7.8-2.464l1.646 1.447-.635.75a8.041 8.041 0 0 0-1.41-.13c-2.141 0-4.006.836-5.618 2.508-.725.758-1.355 1.719-1.894 2.867-.891 1.938-1.493 4.581-1.8 7.939 1.865-1.852 2.986-2.85 3.36-3.02.885-.4 1.92-.601 3.09-.601 1.798 0 3.274.712 4.44 2.134 1.269 1.539 1.9 3.683 1.9 6.427M463.81 460.65c0 3.205-1.144 5.94-3.464 8.206-2.372 2.349-5.289 3.514-8.734 3.514-1.487 0-3.086-.342-4.811-1.038-.077-.847-.52-2.927-1.336-6.228l.138-.318 1.004-.376.29.138c1.386 3.429 3.62 5.133 6.684 5.133 2.178 0 3.7-1.017 4.595-3.045.4-.92.61-1.988.61-3.2 0-1.988-.503-3.55-1.505-4.699-.992-1.154-2.368-1.724-4.137-1.724-1.597 0-3.17.624-4.756 1.86l-.825-.489c.17-2.852.274-5.195.274-7.005v-3.063c0-2.194-.11-4.5-.324-6.922l.273-.217c3.36.159 6.187.247 8.465.247 1.491 0 3.598-.088 6.337-.247l.186.355c-.167 1.464-.244 2.52-.244 3.176 0 .376.012.887.058 1.543l-.219.286c-1.7-.096-3.752-.136-6.145-.136-2.854 0-4.909.059-6.153.178l-.155 7.274c2.013-1.025 3.888-1.54 5.623-1.54 2.558 0 4.56.762 6.055 2.27 1.477 1.513 2.216 3.538 2.216 6.067M25.203 471.42l-.242.267c-1.942-.135-4.318-.194-7.12-.194-2.723 0-5.602.059-8.626.194l-.221-.244v-1.353l.246-.22c.71-.091 1.393-.164 2.042-.227 1.203-.102 1.97-.23 2.293-.384.238-.115.447-.382.624-.81.25-.698.374-3.514.374-8.453v-5.539c0-1.664-.019-3.771-.065-6.314l-.046-1.669c0-.74-.144-1.11-.44-1.11-.121 0-.529.173-1.228.505a302.437 302.437 0 0 0-4.89 2.466l-.242-.146a31.19 31.19 0 0 0-.447-2.825l.023-.18c3.825-1.16 8.101-2.702 12.829-4.65l.447.334c-.063.875-.132 2.17-.224 3.892-.044.648-.088 2.4-.134 5.245l-.066 8.743c0 6.262.1 9.617.292 10.073.144.346.36.549.643.62.49.146 1.796.284 3.915.4l.263.22zM42.03 463.83c0-2.288-.403-4.057-1.203-5.287-.724-1.159-1.733-1.733-3.025-1.733-1.641 0-2.733.756-3.266 2.284-.25.715-.378 1.7-.378 2.96 0 3.263.57 5.574 1.714 6.919.652.766 1.472 1.148 2.466 1.148 2.462 0 3.692-2.088 3.692-6.29m5.028-2.444c0 4.272-1.42 7.467-4.251 9.582-1.333.994-3 1.495-5.005 1.495-2.815 0-5.022-1.094-6.621-3.29-1.65-2.227-2.47-5.363-2.47-9.41 0-3.91.66-7.157 1.979-9.738 1.407-2.725 3.234-4.894 5.491-6.496 2.343-1.639 4.945-2.466 7.805-2.466l1.646 1.45-.643.757a7.252 7.252 0 0 0-1.401-.137c-2.136 0-4.01.835-5.628 2.507-.726.762-1.359 1.719-1.887 2.867-.89 1.938-1.495 4.581-1.806 7.937 1.868-1.85 2.988-2.848 3.36-3.018.887-.4 1.918-.6 3.09-.6 1.791 0 3.278.715 4.445 2.135 1.263 1.537 1.896 3.69 1.896 6.425"/>
            <path d="m25.203 471.42-.242.267c-1.942-.135-4.318-.194-7.12-.194-2.723 0-5.602.059-8.626.194l-.221-.244v-1.353l.246-.22c.71-.091 1.393-.164 2.042-.227 1.203-.102 1.97-.23 2.293-.384.238-.115.447-.382.624-.81.25-.698.374-3.514.374-8.453v-5.539c0-1.664-.019-3.771-.065-6.314l-.046-1.669c0-.74-.144-1.11-.44-1.11-.121 0-.529.173-1.228.505a302.437 302.437 0 0 0-4.89 2.466l-.242-.146a31.19 31.19 0 0 0-.447-2.825l.023-.18c3.825-1.16 8.101-2.702 12.829-4.65l.447.334c-.063.875-.132 2.17-.224 3.892-.044.648-.088 2.4-.134 5.245l-.066 8.743c0 6.262.1 9.617.292 10.073.144.346.36.549.643.62.49.146 1.796.284 3.915.4l.263.22zM42.03 463.83c0-2.288-.403-4.057-1.203-5.287-.724-1.159-1.733-1.733-3.025-1.733-1.641 0-2.733.756-3.266 2.284-.25.715-.378 1.7-.378 2.96 0 3.263.57 5.574 1.714 6.919.652.766 1.472 1.148 2.466 1.148 2.462 0 3.692-2.088 3.692-6.29m5.028-2.444c0 4.272-1.42 7.467-4.251 9.582-1.333.994-3 1.495-5.005 1.495-2.815 0-5.022-1.094-6.621-3.29-1.65-2.227-2.47-5.363-2.47-9.41 0-3.91.66-7.157 1.979-9.738 1.407-2.725 3.234-4.894 5.491-6.496 2.343-1.639 4.945-2.466 7.805-2.466l1.646 1.45-.643.757a7.252 7.252 0 0 0-1.401-.137c-2.136 0-4.01.835-5.628 2.507-.726.762-1.359 1.719-1.887 2.867-.89 1.938-1.495 4.581-1.806 7.937 1.868-1.85 2.988-2.848 3.36-3.018.887-.4 1.918-.6 3.09-.6 1.791 0 3.278.715 4.445 2.135 1.263 1.537 1.896 3.69 1.896 6.425M159.21 195.6l-.042.324c-1.177.808-2.965 2.15-5.35 4.021-2.432 1.909-4.157 3.322-5.18 4.239l-.294-.04-.965-1.232.036-.323c1.106-.986 1.727-1.564 1.854-1.748.27-.363.286-.737.056-1.13-.524-.994-1.916-2.931-4.176-5.815l-3.428-4.374c-.645.4-2.52 1.823-5.632 4.263-2.87 2.25-4.737 3.761-5.598 4.534l3.435 4.376c2.255 2.882 3.803 4.704 4.631 5.46.332.303.702.378 1.107.215.209-.081.919-.545 2.144-1.384l.32.042.956 1.217-.023.305c-1.192.82-2.977 2.161-5.35 4.021-2.448 1.92-4.173 3.333-5.182 4.241l-.29-.033-.971-1.24.02-.305c1.106-.986 1.726-1.568 1.857-1.748.261-.363.28-.74.054-1.134-.522-.99-1.916-2.93-4.178-5.815l-7.531-9.6c-2.261-2.886-3.81-4.7-4.65-5.45-.324-.31-.693-.387-1.107-.213-.21.081-.923.543-2.144 1.382l-.3-.052-.974-1.234.038-.297c1.154-.789 2.942-2.13 5.35-4.015 2.484-1.948 4.21-3.36 5.184-4.24l.29.033.981 1.257-.052.304c-1.102.986-1.722 1.569-1.856 1.75-.25.353-.267.727-.054 1.124.54.99 1.937 2.92 4.199 5.806l2.344 2.993c1.26-.886 2.953-2.164 5.072-3.824 3.324-2.614 5.379-4.27 6.158-4.975l-2.353-2.997c-2.26-2.885-3.805-4.7-4.65-5.443-.322-.313-.691-.386-1.107-.217-.207.081-.919.545-2.136 1.384l-.33-.04-.965-1.236.032-.292c1.163-.79 2.948-2.13 5.353-4.017 2.483-1.948 4.214-3.362 5.183-4.239l.309.02.983 1.25-.035.294c-1.132 1.002-1.754 1.593-1.873 1.764-.25.351-.27.731-.057 1.128.537.985 1.94 2.917 4.202 5.8l7.529 9.607c2.257 2.882 3.802 4.7 4.63 5.46.335.303.703.376 1.106.216.208-.082.923-.543 2.146-1.387l.318.042zM180.01 171.74l-8.987-9.327.61 12.877a134.819 134.819 0 0 0 4.282-1.74c1.7-.72 3.064-1.321 4.095-1.81m17.527 6.064-.08.286c-2.998 1.167-4.808 1.88-5.432 2.146a180.963 180.963 0 0 0-6.786 3.026l-.263-.138-.564-1.34.092-.316 1.7-.845c.713-.353.966-.785.751-1.3-.127-.294-.597-.882-1.399-1.761l-3.535-3.79a379.19 379.19 0 0 0-5.648 2.34c-1.036.441-2.572 1.107-4.617 2.01l.2 2.966c.174 2.255.362 3.623.573 4.12.227.54.672.729 1.338.56.38-.092 1.084-.32 2.116-.69l.3.124.574 1.357-.123.303c-2.501.954-4.1 1.585-4.809 1.885-.542.232-1.877.848-4.004 1.846l-.276-.109-.585-1.38.124-.305c1.336-.666 2.056-1.313 2.159-1.94.098-.63.027-4.082-.226-10.356l-.645-16.09a742.07 742.07 0 0 1-.303-5.61l2.854-1.21 21.826 22.01c.834.833 1.441 1.244 1.821 1.232.514-.015 1.188-.198 2.021-.553l.272.158zM229.65 165.21c-.02 2.265.146 4.8.505 7.61l-.2.262-15.673 1.852c-2.625.336-4.466.616-5.523.843l-.259-.196-.081-.643.081-.286c.975-.858 1.489-1.38 1.543-1.57.1-.297.059-1.318-.136-3.078l-.586-5.136-1.477-11.605c-.463-3.636-.864-5.989-1.202-7.062-.117-.439-.399-.683-.842-.752-.225-.033-1.073-.006-2.55.092l-.231-.207-.2-1.555.181-.232c1.493-.094 3.67-.328 6.542-.693 2.959-.38 5.197-.708 6.713-.996l.259.18.198 1.574-.204.242c-1.454.276-2.285.46-2.49.55-.396.17-.6.484-.624.935-.041 1.127.165 3.501.631 7.132l1.74 13.691c.258 2.003.544 3.934.858 5.799l2.929-.372c4.199-.532 6.749-1.04 7.648-1.512a.708.708 0 0 0 .312-.292c.108-.234.19-.71.238-1.424l.14-2.904.196-.28 1.309-.167zM270.22 159.95c.702-4.201.282-7.592-1.26-10.181a8.137 8.137 0 0 0-3.309-3.132c-1.367-.702-3.322-1.265-5.867-1.691a23.485 23.485 0 0 0-3.88-.353c-.42 1.674-1.181 5.773-2.275 12.296l-1.64 9.953c-.354 2.218-.55 3.7-.588 4.444a23.8 23.8 0 0 0 3.815.97c2.843.479 5.144.414 6.944-.187 1.932-.656 3.615-2.04 5.047-4.153 1.476-2.184 2.483-4.84 3.013-7.966m6.75.017c-.87 5.144-3.173 9.139-6.91 11.987-1.809 1.394-3.89 2.363-6.254 2.9-2.52.582-5.352.582-8.492-.004l-7.532-1.416c-2.054-.38-3.76-.618-5.122-.724l-.183-.264.114-.64.155-.253c1.184-.533 1.823-.883 1.938-1.057.181-.248.428-1.244.76-2.981l.923-5.089 1.943-11.536c.616-3.606.913-5.976.898-7.101.015-.453-.186-.773-.578-.967-.209-.092-1.032-.311-2.468-.647l-.165-.265.259-1.545.242-.174c1.508.353 2.932.64 4.3.87 3.334.563 6.347 1.022 9.032 1.385 1.332.178 2.67.38 4.013.608 3.72.628 6.5 1.556 8.331 2.785 2.007 1.353 3.448 3.19 4.304 5.506.902 2.38 1.063 5.256.493 8.622M308.54 185.02c-1.244 1.898-2.474 4.124-3.692 6.68l-.31.11-14.195-6.911c-2.399-1.136-4.092-1.89-5.107-2.272l-.109-.309.282-.58.226-.199c1.28-.192 1.99-.357 2.136-.486.265-.207.777-1.092 1.555-2.665l2.293-4.637 5.015-10.57c1.577-3.305 2.51-5.5 2.807-6.588.138-.43.029-.791-.31-1.086-.154-.148-.893-.582-2.188-1.298l-.091-.299.68-1.418.274-.096c1.28.71 3.295 1.723 6.068 3.036 2.46 1.17 7.147 3.354 14.086 6.546l.154.274-1.382 2.186c-.416.708-.769 1.3-1.053 1.798l-1.077 1.866-.29.145-1.149-.548-.081-.298c.883-1.894 1.295-3.022 1.217-3.376-.06-.27-.689-.756-1.894-1.464-1.21-.71-2.278-1.295-3.244-1.75a46.26 46.26 0 0 0-3.529-1.5c-.84 1.394-1.869 3.38-3.09 5.962l-2.057 4.318c.998.562 1.81.99 2.458 1.295l2.589 1.207c1.194.557 1.933.774 2.198.655.318-.148.892-1.02 1.731-2.622l.312-.109 1.202.574.109.307a135.09 135.09 0 0 0-2.115 4.235 168.999 168.999 0 0 0-2.107 4.646l-.29.087-1.322-.624-.088-.297c.754-1.599 1.109-2.6 1.04-2.994-.059-.399-.606-.9-1.641-1.505a31.313 31.313 0 0 0-2.483-1.314 36.703 36.703 0 0 0-2.718-1.167l-3.032 6.354a155.072 155.072 0 0 0-2.41 5.345l2.67 1.27c3.816 1.814 6.236 2.769 7.248 2.86a.688.688 0 0 0 .42-.08c.223-.135.537-.494.967-1.07l1.691-2.366.324-.133 1.184.565zM360.51 194.89l-.347.019c-1.204-.856-1.925-1.332-2.117-1.418-.41-.165-.779-.1-1.119.2-.84.744-2.418 2.537-4.719 5.383l-5.894 7.28c-4.34 5.367-7.112 8.921-8.277 10.662l-.353-.012a120.28 120.28 0 0 0-2.493-2.82c-.1-6.044.073-16.78.492-32.213l-9.508 11.726c-2.297 2.844-3.725 4.76-4.268 5.75-.228.384-.224.76.037 1.128.136.18.74.776 1.834 1.777l.012.309-.985 1.217-.297.031a89.425 89.425 0 0 0-3.53-3.044 100.298 100.298 0 0 0-3.972-3.04l-.05-.311.983-1.216.326-.033c1.205.858 1.915 1.328 2.109 1.418.411.165.779.102 1.121-.2.835-.744 2.412-2.54 4.71-5.383l7.685-9.482c2.317-2.85 3.744-4.759 4.295-5.74.219-.39.21-.769-.036-1.124-.131-.183-.739-.776-1.833-1.78l-.021-.324.981-1.22.307-.014a56.783 56.783 0 0 0 2.963 2.574c1.518 1.23 2.809 2.218 3.871 2.959-.597 9.02-.816 19.032-.657 30.028l8.492-10.488c2.317-2.846 3.733-4.76 4.278-5.748.228-.385.217-.758-.046-1.128-.121-.182-.739-.775-1.814-1.777l-.03-.311.996-1.217.29-.032a90.973 90.973 0 0 0 3.51 3.03 93.35 93.35 0 0 0 4.003 3.057l.055.307z"/>
        </g>
        <path d="m337.71 684.07-8.197-6.2-8.075-4.756-6.619-3.725-5.383-2.278-5.093-.42-3.8-.208-2.075 1.457.83 5.387-6.629 2.892-8.279-1.031-6.414-4.35-10.553-5.176-16.554-8.49-4.345 1.04-2.7-.825-3.925 2.274h-5.175L188.16 681.39l-9.732-4.138-1.656-2.892-4.965-.629-6.416 2.278-10.768 4.137-11.17 4.554-5.34 3.518-.34.263c28.264 27.142 61.802 42.89 97.741 42.89 37.845 0 73.03-17.46 102.2-47.3" fill="#2f393f"/>
        <path d="M255.67 621.3c.171 10.434-.825 20.199-4.8 28.984-.332 1.988-.825 4.295-2.153 5.631-.16-1.336.662-4.8-2.157-4.8l-12.58 3.464c-2.643-5.617-.155-12.42-.33-18.535 2.322-19.21 9.269-36.269 9.93-56.134-6.946-8.444 3.815-16.059.83-25.994 0-3.483-6.122-6.955-.491-9.444-1.161-6.126 2.15-11.261 2.15-17.387.333-11.096 2.648-21.85 4.8-31.955 3.642 20.199 7.78 42.723 2.978 63.582-.33 5.464 4.48 10.265.838 15.572-9.945 14.069.653 31.289.985 47.016m99.344-263.42c-8.6-2.155-18.038-2.324-25.173-8.285-6.95-17.711-14.723-35.271-24.989-51.827-5.132-4.464-3.487-11.588-9.937-15.562-3.31-3.972-9.442-3.31-13.75-2.153-9.262 2.316-5.46 14.405-9.922 20.694-3.487.338-5.308-3.472-8.285-4.642-1.16-2.309.17-4.62 2.153-6.111-2.153-15.733 2.484-31.132-2.153-45.711l7.79-8.275c7.774-6.625 0-15.564 0-23.346-1.835-5.136-7.128-5.63-12.098-5.136l-4.297-3.968c-8.283-3.81-10.597 8.275-19.043 3.968-2.315-1.16-4.47-3.64-7.283-2.151-2.98 4.802-8.94.992-11.762 6.458-11.758 1.654-2.155 13.248-8.11 18.542.497 6.456-2.977 11.098-1.822 17.725-1.656 2.817-3.976 1.819-6.456 1.819-2.153.328-4.972 2.146-3.807 5.126-.336 1.992-2.656 1.328-3.978 2.155-1.323 2.155-.99 5.629 0 7.79.332.827 1.157 1.654 2.157 1.318 1.32 1.493 2.151 2.99 1.821 5.136 2.316 5.128 8.607 4.47 13.407 6.126 4.633 0 4.8-7.454 9.442-6.126.988 4.47 3.31 8.444 2.976 13.41 3.808 20.033-19.041 19.378-27.98 31.465-8.443-17.723-15.565-36.104-23.015-54.313-1.157-1.49-2.648-2.489-4.304-3.144-1.819 3.144 0 6.619 0 9.928 7.29 17.552 14.24 35.104 19.865 53.155-2.146 3.147-4.798 6.126-5.625 9.939-4.143 8.11 1.324 17.047-2.984 25.173 5.964 4.132-4.305 9.427.497 14.558-.497 1.994 0 4.149-1.324 5.636.16 12.417-7.283 21.525-5.136 34.609 4.804 5.788 14.075 2.643 19.38 8.11 3.143.997 7.117-.166 9.435 2.651-.827 5.63-.994 12.255-2.147 17.218-1.163 3.475-3.32 7.947-.833 11.254.493.998 1.489 2.157.493 3.153-1.491 3.809-1.491 9.27 1.66 12.415-4.308 8.283-2.32 19.375-3.477 28.988-.167 23.663 11.254 43.046 9.599 66.88 1.159 3.325 4.965 5.643 1.656 9.107-3.642 21.862 1.822 44.878-1.322 66.568l-5.135 12.417c-7.283 5.968-15.403 10.927-21.19 17.723-2.982 1.153-5.467 6.291-9.108 3.47-10.267 3.81-19.876 9.61-30.136 13.411.497.673 0 1.827.33 1.827l1.325-1.334c2.151-.311 4.966 0 5.296 2.487 1.655 1.004 2.986 1.497 4.641 0 0-.332.159-.984-.334-1.153-.829-1.49-.829-3.98 1.159-4.307 2.652.835 3.312 3.153 3.477 5.46h.991c.332-1.978-2.645-4.794-.991-6.782 1.82-1.322 3.975.338 4.307 2.157.493-1.174-.664-1.664-.833-2.658.668-1.487 1.992-3.64 3.978-2.157 2.487 1.503 2.153 4.153 3.476 6.13.831.33 1.324-.66 2.157-.983 2.318 3.14 3.642-4.149 6.454-.332-1.489-1.664-1.489-4.974-4.307-4.815-1.656-1.311-.827-3.633.829-4.8-.165 3.155 3.478 1.825 3.81 3.98 4.308 1.49 7.786 4.134 12.587 4.307 15.896-6.462 32.281-12.756 46.688-22.016.998 1.819 0 5.126-.992 7.283l3.477-4.64 1.825.819.332-2.643c.824-1.658 2.806-3.308 4.295-2.644 1.82 3.473-1.821 6.623-1.16 9.6l2.49-1.822c-1.491-1.155-.493-3.31-.825-5.134.332-2.817 3.312-2.644 5.625-2.644 10.434 7.116 23.016 8.935 32.784 17.706 5.135.336 11.421 1.827 16.065-1.647.332-1.99 2.644-4.308.825-6.126 0-1.153 1.48-1.153 2.157-1.665h-.831c-3.815-14.067-25.501-11.578-21.7-28.969 1.488-16.735 10.934-30.136 11.759-47.03-1.984-10.757-1.654-21.352-1.318-32.448 1.487-3.478.994-6.627.493-10.26.66-1.336 0-4.153 2.489-3.487 6.458-29.806 11.081-58.943 7.772-91.236-2.648-3.647-6.951-7.62-5.129-12.09 9.929 8.78 16.065 27.99 33.28 23.851 5.796-3.32 7.128-9.272 8.615-14.743 1.985-22.519.158-45.203-1.663-67.88 4.31-7.956 11.588-14.41 20.206-17.555.337-2.653 1.988-5.963-1.66-6.953" fill="#231f20"/>
        <g fill="#b99a4a">
            <path d="M252.57 206.17c-1.332 2.155-2.157 5.63-1.16 7.786 3.31-1.66 8.272-2.157 11.583-1.326.33 1.986-1.984 1.491-2.98 2.149-.666 2.654.825 4.307 2.155 6.128 3.473 1.159 1.487-3.641 4.308-3.474 2.153 2.977-3.976 7.45 1.647 8.609h2.662c.986.99 0 2.152-.505 2.977-1.49 1.658-2.819-1.155-4.64-.825-2.317.992-4.138 2.817-4.802 4.8 1.157 1.329 3.31.665 2.978 2.983-.493 1.325-1.984.664-2.978.82-1.65-1.484-1.65-4.963-4.299-5.126-1.5.994-.992 3.479-.501 4.798.996 2.652 6.792-.328 4.8 3.815-3.468.656-8.774 1.157-9.93-2.982-3.807-5.303 4.64-16.395-5.628-15.07-3.641-1.491-9.604 0-7.786-6.455.17-.998 0-1.656-.824-2.322-2.984 1.988-1.322 4.974-2.984 7.78-.992.17-1.656 0-2.147-.825-.499-1.822.99-3.144-1.33-3.81-3.47-2.149-6.788 2.157-10.432.833.831 3.307-6.953 5.627-1.654 8.275 3.475 0 7.618-2.316 10.762.334 2.322.664.834 3.806 1.324 5.63-.655 2.814-4.134-.166-4.301 2.651 5.132 9.106-9.77 3.8-4.31 12.415 1.159 2.654 1.491 5.63 0 8.275-3.144 3.98-5.79-4.302-7.776.833-.998 5.627 9.599 3.474 4.632 9.108-2.153.165-5.298-3.314-6.454.493.499 2.653 4.3 1.49 3.975 4.307-2.984 4.145-10.27-3.48-9.607 4.308-1.155-5.797-9.277.655-9.44-5.634-.822-3.144-6.788-6.619-2.977-10.434 1.653-.992 4.301.506 5.629-1.656v-3.472c2.48-.998 7.78.493 9.442-2.982-2.485-6.961 6.623-10.436 2.147-16.56-1.155-4.802 7.953-7.784 1.33-11.59-.998-5.63 7.116-2.978 5.955-8.61 1.822-2.154 3.313-.991 5.631-1.325 2.324-2.32 3.978-6.127 7.78-4.308 3.65 1.49 5.306 6.295 9.937 3.813 2.812-2.817 6.285-7.617 10.768-5.135"/>
            <path d="M245.26 232.98c.332 5.963 2.489 11.256 6.128 15.89 4.63-.49 8.444 2.491 11.092 5.636v1.818c-4.64-1.326-9.108-5.792-14.576-6.454-3.802-2.148-.66-7.118-3.478-9.6-3.306 1.32-1.652 5.29-3.965 7.452l-8.943 5.957c.167-7.118 2.478-15.065 5.132-22.022 1.489-4.805 7.776-2.322 8.61 1.324"/>
            <path d="M256.03 257.66c10.102 4.308.662 13.418 4.8 20.199-.158 1.99-.985 4.972-3.47 3.479-1.994-1.654-5.306-2.153-5.96-5.135-.661-2.482-.834-5.961 1.16-7.78 1.979.163 3.802-.33 5.293-1.328l-2.65-3.965c.827-1.497 3.312-.342 2.982-2.489-2.982.827-9.11-.664-9.93 4.308l.49 10.764c-.49 1.155-1.652.82-2.648.82-1.33-.991-2.15-2.812-3.804-2.975-.171.992-1.654 1.984-.5 2.975l1.322 2.155c-.993.17-2.315.497-2.643 1.823-2.819.664-6.295.165-8.617 2.155-2.31-4.308-2.145-9.77-2.145-15.071 3.312-.5 9.265 1.157 10.762-3.145-.332-.99-.666-2.647-2.156-2.981-2.978.499-5.463-.992-7.286 1.32 1.656 1.826 4.308-2.481 4.8.834-1.319 1.82-3.476 1.82-5.629 1.82-.655-1.82-2.98-3.81-.824-5.628 5.134-3.147 9.108-8.937 15.896-7.788 3.311 2.651 6.782 4.641 10.757 5.633M171.4 268.44c18.21 47.024 36.091 94.382 53.977 141.57-.994.825-2.155.996-3.477.996-8.443-17.717-14.073-36.599-20.696-54.977L171.4 274.402c-1.488-4.31-4.14-8.609-4.307-12.919 3.311.336 2.15 4.8 4.307 6.955"/>
            <path d="M234.84 290.8c1.49-2.155-2.318-3.472-1.654-5.961 6.125.336 13.07 5.14 18.537.824 3.642-.162 7.457.174 9.946 1.33-1.662 2.145-4.308-.828-5.137 2.654.324 2.809-.662 5.133-2.986 6.782-4.8-.158-10.924 2.817-13.407-2.154-1.487.332-1.988 2.656-3.976 1.816-1.156-3.8-5.464-4.301-7.285-7.446l-.822 1.002 13.739 15.061c5.629 1.491 10.92.999 16.882.493 1.169 4.8-4.47 5.644-7.275 8.123-5.796 5.627-10.764-1.658-16.063-2.988-2.817-4.465-10.102-4.465-9.44-10.755l.332-11.762h1.322c.833-2.155-3.64-4.302-.823-6.953 1.984 3.315 4.302 7.45 8.11 9.934M294.94 284.32c-17.059 2.982-11.927 24.501-15.9 36.759-.666 44.377 7.621 86.266 29.813 121.86l9.44 11.261c1.313 1.155-2.658 2.483 0 3.809.985 1.653 3.802 0 4.295 2.146-1.155 1.49-2.157.998-3.475 0-11.756-1.819-16.57-14.737-22.03-23.342-3.63-10.764-9.93-20.534-12.575-31.957-9.771-16.556-7.293-38.246-12.088-56.955-2.315-20.54 1.823-40.581 6.62-59.287 2.82-2.48 5.637-4.798 8.946-5.955 2.805-.662 4.63 1.157 6.954 1.656"/>
            <path d="M293.61 291.27v.835h-2.157c-.493-1.495 1.664-1.495 2.157-.835M297.58 296.07c-.66 1-1.664.84-2.648.84-1.66-.663-.5-2.325.493-2.987zM300.05 299.57c.328 1.155-.332 1.317-1.163 1.656-.994.163-1.658-.165-2.153-.835-.328-1.974 2.646-2.312 3.316-.821M293.61 304.68c3.31 2.817 2.817 8.444 6.46 11.259 1.646.338 4.293.493 3.97 2.982.323 1.495-.502 2.654-1.815 2.981-4.978-6.29-15.572-11.597-12.108-21.198 2.326.165 1.004 3.648 3.493 3.976M302.21 306.01c-.182.825-1.173.165-1.662.332-.493-.829-1.165-1.658-.827-2.986 1.315-1.819 4.134.835 2.489 2.654M286.33 306.01c-.66.497-.66.99-.825 1.654h-.99v-4.799c1.483 0 1.155 2.155 1.815 3.145M245.26 321.93c5.957.165 8.932-6.458 14.24-7.776 4.627-2.489 4.466-9.446 10.425-10.275 3.642 14.906-12.246 23.513-17.715 34.945-1.992.827-1.819-1.499-2.654-2.157-8.93-6.786-22.839-1.818-30.126-12.584-3.806-2.816-4.474-10.44-9.605-10.267-2.654 4.139 2.976 7.12 3.477 11.26 3.643 10.594 6.128 25.5 1.323 35.767 2.32-1.33 3.15-4.973 4.805-7.285 3.145-5.953 1.157-14.24 1.654-21.198 7.78 8.444 23.016 3.648 27.647 15.071 5.794 19.702 1.818 41.723 1.66 62.26l.996.825c4.629-4.965 4.136-12.749 4.629-19.87 1.662-16.89-.666-34.273-2.978-50.505 4.64-2.485 6.793-10.927 12.578-9.108 7.127 22.851 7.95 50.668 5.972 75.185-8.125 3.307-17.397 16.552-25.505 7.776 1.159-5.306-1.157-8.945-5.625-11.261-3.483-.67-7.287.82-10.271 2.971-8.941-25.163-21.362-49.175-29.804-74.672 3.478-1.49 7.786 1.664 9.442-3.474.829-2.976-1-6.122-3.813-6.454-3.474 0-6.619.824-8.605 3.969-1.16-1.648-1.66-4.631-1.325-6.621 8.276-5.467 16.888-9.935 25.495-14.574 6.794 7.621 13.248 16.564 23.682 18.05M305.67 309.51c-.155.493-.155 1.163-.82 1.664a2.15 2.15 0 0 1-2.151-.84c-.677-1.977 3.31-4.296 2.971-.824M290.62 311.63c7.778 11.586 17.379 22.026 26.322 33.615v1.322c-4.462 1.33-5.965-4.64-9.928-6.13-7.283-8.275-23.194-13.573-19.375-27.65.334-1.156 1.824-2.315 2.981-1.156M313.97 325.08c0 .328.155.994-.505 1.157h-1.318l-6.792-12.908c0-1.167 1.819-1.66 2.478-.835zM305.36 324.58h-.998v-2.654h.998z"/>
            <path d="M204.69 325.08c-.499.165-.664.994-1.322.831-.83-.503-.998-1.497-.5-2.149 1.323-.332 1.323.493 1.822 1.318M187.83 326.73c3.14 6.124 3.802 13.075 6.456 19.371-3.98-1.825-9.277-1.332-12.424-3.81.992-5.632 2.646-11.757 5.968-15.56M284.17 328.38c-.155.501.171.666.336 1.002-.49.328-.829.99-1.658.82v-1.822zM315.62 352.55c-.493 1.173 0 2.982-1.65 3.15-9.285-5.305-25.505-2.152-27.662-16.06 0-3.98 1.16-7.452 2.65-10.762 9.44 7.283 18.216 15.735 26.662 23.672M284.17 336.63c-.998-.497-.493-1.326 0-2.155zM326.55 347.4c-1.485 9.774-3.31 19.702 1.159 28.483.998.825 2.489.825 2.662 2.15v2.153c-5.134.493-3.821-9.774-10.44-6.788-1.153-9.108-3.642-21.525 2.157-29.808 2.311.163 2.482 2.648 4.462 3.81M199.07 357.86c-1.49 6.456-6.625-1.334-10.764 0-2.155-1.334-6.458 1.155-7.448-2.155.825-2.645.159-5.8 2.149-7.778 6.13 1.646 16.063.825 16.063 9.933M285.82 351.37c-.167.497-.829.328-1.322.328-.674-.666-.49-1.978.493-2.485.829.508.99 1.155.829 2.157M313.14 358.69c2.153 1.336 3.15 4.308 2.153 6.953-9.108-2.48-21.352 5.634-26.328-5.289.334-2.98-1.153-6.792 1.154-8.943 7.624 2.652 15.572 4.462 23.02 7.279"/>
            <path d="M332.52 365.96c-1.153.495-2.138 2.817-3.47 1.82-1.978-4.637.16-9.437 1.332-13.907 6.623 2.315.165 8.112 2.138 12.088M354.02 364.31c-2.316.497-2.142-2.485-4.3-2.654-1.498 3.479-8.122 0-6.457 5.636l-.823.824c-1.334-.661-.842-3.148-2.155-4.303-1.152.994 1.984 6.126-2.157 5.625.493-1.819-.66-4.8-2.981-5.128l.83-6.951 18.044 1.823zM199.07 368.59c-6.124-.155-11.593-1.645-18.212-.493-1.165-2.98.99-6.619 2.648-9.44 5.631 2.324 14.403 2.324 15.564 9.933M285.51 366.94h-.99c.17-.835 0-1.996.99-1.83zM318.29 372.4c-4.485 5.287-12.43 3.971-17.723 8.27-2.82 0-5.798 2.817-8.287 0a19.823 19.823 0 0 1 0-11.58c8.122-.173 20.863-4.311 26.01 3.31M203.87 373.43c1.986 3.637-4.8 1.49-1.823 5.128.998 1.66 3.809 3.815 1.823 5.636-7.448-.338-16.393-7.127-23.843-.831h-.827c-1.326-4.968 1.984-9.275 4.8-12.584 6.956 1.152 14.9-2.65 19.87 2.652M320.92 379.05c-1.167 3.806-5.308 6.784-7.463 9.933-4.472 3.643-8.6 12.417-14.566 10.764-5.126-2.982-4.635-9.108-3.973-13.411 6.955-4.64 15.065-6.62 22.509-9.933 1.336.163 2.819 1.16 3.493 2.648M323.09 382.86c-.837 11.428-8.442 21.198-13.088 31.623-1.992 2.483-5.464.501-7.772 0-2.334-2.15-1.829-5.47-2.489-8.268 1.98-3.648 6.446-5.302 9.44-8.616l12.576-14.739zM201.71 389.31c-.833 4.967-6.796 6.619-10.931 8.279-5.3 2.478-9.774 4.64-14.24 9.442 0-6.634 3.31-12.916 3.974-19.874 1.158-2.15 3.969-.668 5.625-1.658 5.796-.493 11.098.497 15.572 3.81M291.13 385.49c-.16.328.167.497.332.831l-.827.827c-1.155-.336-1.002-2.15.495-1.658"/>
            <path d="M326.55 390.13c-5.287 14.409-10.26 28.819-16.059 42.888-2.157-.493-4.134-3.477-4.8-5.617-1.819-5.47 3.98-7.627 5.293-11.77 5.798-8.934 9.108-18.874 13.754-28.474 1.484-.171.992 2.153 1.812 2.974M199.07 399.72c-3.81 4.635-4.97 10.265-7.287 15.564-1.491-2.146-4.966-.831-5.632-3.967.497-4.978 5.298-7.795 8.941-10.762 1.328-.334 2.984-1.174 3.978-.835M296.24 404.56c-.165.497.328 1.326-.493 1.664-.49.155-.829-.666-1.33-.84-.328-.989 1.823-2.808 1.823-.824M205.52 406.21l-3.483 13.401c-1.981-1.311-5.462-1.311-5.955-4.301-.499-4.638 3.477-7.947 6.454-10.764 1.489-.825 1.986.998 2.984 1.664M240.15 410.02c1.984 10.595-8.776 2.489-12.916 6.13-3.808 2.978-7.454 5.795-11.756 7.281-2.153-1.324-1.16-4.468-.829-6.46 7.12-3.31 15.564-3.8 21.525-9.929 2.32-.496 3.312 1.318 3.976 2.978M211.96 410.49c1.656 3.477-.831 3.637-1.322 6.949-1.163 1.334-2.484 2.656-4.307 2.487-.775-1.756 1.823-9.505 1.823-11.092 1.484 0 2.975.156 3.806 1.656M276.39 410.49c-1.98 2.485 0 5.464 0 8.283-6.458 4.796-13.904 6.788-20.698 10.757-4.8 1.322-3.314-4.299-4.8-6.454v-2.152c9.598-.999 15.727-10.27 25.499-10.434M324.74 412.65c-.493 5.798-.493 10.106-1.65 15.57 4.294 3.978-4.8 4.305-.507 8.279.508 3.648-3.472 7.285-.825 9.939l-.82.825c-1.996-2.65-7.294-5.139-5.308-9.6 4.14-8.12 4.306-18.058 8.28-26.327zM244.43 418.79c-.163 5.955-8.607.328-8.607 6.46 2.986.984 9.108-4.307 9.933 1.318-2.648 2.15-8.935.5-8.603 4.64 3.312 2.48 6.294-2.817 10.263-.337v4.308c-3.148 1.656-8.277-3.644-9.437 1.326 1.653 2.476 5.13.5 7.287 1.653.49 1.994-.998 3.481-2.652 4.31-3.804.664-6.79-.829-9.436-2.982-1.489-5.798-2.487-12.417-1.656-18.544 3.978-1.49 8.778-.83 12.908-2.152M302.73 419.61c.157.334-.182.66-.493.831h-1.171v-1.652c.662-.336 1.171.328 1.664.821M282.01 422.09c-1.322 1.815-5.132 4.97-1.823 7.448l.501.33c-7.945 4.48-15.723 9.609-24.672 11.762-2.806-1.159-6.289-2.48-4.307-6.46.334-3.807 3.817.162 5.64-1.82 7.285-4.639 15.062-7.95 22.506-12.09.998-.327 1.326.665 2.155.83M227.22 426.06c-.662 4.134 1.82 8.11.33 11.597-2.806.159-2.975-2.986-3.804-4.644-.172-3.971-2.157-8.772 1.653-10.924 1.821 0 1.821 2.48 1.821 3.972M329.53 433.84c-1.487-2.643-1.155-6.627.328-9.108.51 2.817 1.002 6.957-.328 9.108M213.81 427.39c-1.322 2.798-.998 6.28-2.155 9.1-.436-.474-6.96-1.021-7.452-2.654.998-2.48 0-5.79 2.153-7.782 2.48.499 5.798-1.153 7.454 1.336M287.99 435.18c-.662.825-1.503 2.65 0 3.472.651-.162.983.508 1.317.836-13.084 2.981-23.676 11.916-35.76 17.218-1.825.165-3.143-.167-4.3-1.326v-7.29c10.267.998 18.377-8.602 27.643-12.91 3.31-.998 8.776-3.969 11.1 0M329.85 440.33c-.328-.165-.49.165-.82.493-1.485-.831-.66-2.65 0-3.475h.82zM229.38 444.61c1.163 1.495 1.986 3.14 1.654 5.132l-.83.994c-9.6-1.484-20.361-.332-28.974-4.303.167-1.99 1.159-3.974 2.98-4.805 8.608.328 17.217.658 25.17 2.982M240.93 446.77c.167 3.14 1.658 6.291-1.324 8.603-4.8.829-4.301-4.31-5.963-6.784-.656-2.151.998-3.155 2.155-4.308 1.99-.17 3.975.99 5.132 2.489"/>
            <path d="M288.97 448.58c1.662 2.15-1.153 4.138-2.65 5.128-12.572 4.636-24.5 11.1-36.252 17.72-14.898-7.113-30.796-11.425-48.346-11.759-1.99-1.981-1.822-5.961-.499-8.108 9.764-.507 20.195.328 29.31 2.644 3.639 5.798 10.591 7.778 16.885 5.464 2.49-1.819 5.293 1.984 8.275 0 9.933-5.3 18.882-13.077 30.136-15.399zM294.12 465.8c6.295 12.752 2.817 29.134.831 43.216l-1.324 1.334c-2.32-3.645 2.15-7.794 0-11.263l-2.489 2.976c-2.157 9.934-4.138 19.876-6.955 29.303 1.658 4.645 7.287 8.615 5.634 13.42-5.129-4.646-6.3-11.925-10.768-17.222l5.963-63.428c2.324-3.97 6.63-.155 9.108 1.664M276.86 466.62c2.153 20.204-.664 40.898-.983 60.438-3.813 5.132-9.106 7.613-14.238 11.766-1.663-6.799-.174-14.906-1.33-22.033-.333-13.073-9.933-29.8 2.154-40.572 3.31-4.625 7.939-9.425 13.084-11.248zM219.43 467.96c1.817 9.599 3.637 20.195 1.654 30.305 1.326 11.578-1.328 24.835 3.802 34.928l1.831-1.825c-3.485-17.704-.998-35.592-.5-53.967 1.323-1.833.661-4.483 2.647-5.97 5.631 1.815 11.263 5.636 14.73 11.262 2.648 17.723-4.132 34.772-9.099 51l-2.155 2.156c1.324 4.135 6.463 5.786 7.285 10.263-4.464-1.66-6.617-6.788-10.263-9.437-7.12.16-10.43 6.29-17.387 6.452-2.482-1.821-.167-5.63-2.15-7.782-3.978-21.352-12.417-43.543-5.964-66.56 4.139-2.648 10.931-2.982 15.568-.825M285.82 553.06c-1.658 3.472-3.477-1.326-5.633.831-1.98-1.988.5-7.295-2.157-9.108h-1.153c-1.819 2.487-.332 6.291-1.313 9.108-1.665.66-4.154-1.497-5.64.49 2.157 1.153 4.483 3.97 4.641 6.793 0 2.485-1.822 5.297 0 7.45 4.135-3.32 6.793-7.29 11.747-8.607-1.645 3.974-5.132 9.933-10.42 9.933-.994 1.645-1.326 3.97-2.99 5.139-5.13 0-6.292-5.14-9.931-8.29-3.855-5.097-3.706-15.435-2.155-21.525 3.642-6.45 10.772-7.448 14.748-13.4 3.464 6.616 8.77 13.241 10.256 21.186"/>
            <path d="M226.23 540.13c3.36 10.455 22.845 18.03 9.108 29.309-3.316 0-6.13 4.147-9.108 2.66.662-3.976 4.97-6.126 8.279-6.957 1.157.495 1.157-.833 1.654-1.326-.99-2.982-5.298-3.149-8.11-4.308-1.988.82-2.817-1.163-2.654-2.643-.499-1.83 1.159-4.805-1.324-5.63-2.977 1.82.668 6.782-2.977 7.78-.497 2.481 2.478 2.312 2.647 4.469-.169 3.31.33 6.792-.5 9.933-4.133-2.32-8.278-6.457-10.754-10.935-.334-4.295-1.499-8.772-.83-12.91 5.63-1.322 8.775-8.599 14.57-9.442M218.45 604.4c.501.493.998 1.163 1.823.998 3.31-8.772 3.31-18.709 9.932-25.994 8.776 7.112 1.495 18.207 1.33 27.643-1.33 12.591-4.474 24.507-5.633 37.098-2.485 2.65-6.454 2.485-9.605 1.823-2.647-.837-3.476-3.821-4.303-6.126.994-23.354-3.807-47.69-.83-70.383 15.07 6.462 7.618 23.348 7.286 34.94M274.23 579.4c.332 20.358-3.314 40.234-6.955 59.607-4.798 1.49-8.937 5.786-10.76 10.43 3.314 1.814 5.784-3.318 9.1-3.984 1.822.512 5.3-.983 5.637 1.338-1.823 2.817-7.463-2.156-5.638 2.976 3.483 4.149 11.094-.82 15.9 2.658-4.806 1.49-7.777 9.43-13.747 6.45l-2.647 3.48c-6.129-1.996 1.332-9.93-4.798-11.256-2.646 1.155-1.491 6.444-5.135 4.799-1.819-1.163-1.658-4.308-.49-5.63 7.78-18.057 5.132-39.248 5.625-59.617-1.984-5.293-1.491-12.736 0-18.202 4.971 2.484 8.995 8.11 13.908 6.953"/>
            <path d="M285 586.67c1.658 17.431-5.608 32.03-9.427 47.523l-1.33 6.45c-1.491-.493-3.316-.328-4.308-2.155 1.823-21.022 10.588-39.236 10.258-61.254.175-1.66 1.487-2.662 2.654-3.815 1.988 3.477 1.495 8.776 2.153 13.251M226.7 654.55c-2.56 3.99-5.339-1.495-9.438-2.138-1.326-1.664-2.986-1.172-4.477 0-.164.493-.991.651-.824 1.317 1.324.994 3.81-.492 4.8 1.33-1.656 4.137-4.631-.837-7.778.827-4.142-2.32-3.645 3.97-7.285 2.976-.83.827-1.823 1.332-1.332 2.643 1.658 1.491 3.644 2.326 5.965 2.153 2.32-1.98-1.156-6.291 3.479-5.617 2.15 1.483 4.965 4.631 2.652 7.28-1.823 3.141-3.978-.506-6.13-.327-3.976 1.643-7.948.82-10.765-2.157-.664 0-1.321-1.159-1.655 0 0 1.978 1.486 1.33 2.484 2.978 3.147.998 1.49 4.47 1.326 6.46-3.977 5.295-11.263 2.646-16.888 1.65-1.33-.493-.666-1.98-.83-2.974 7.286-9.446 18.21-12.756 25.993-20.694 5.797-2.326 11.762-.83 18.55-1.324 1.322 1.153 2.646 3.137 2.153 5.617M288.46 657.23c-.334 5.953-9.11 4.959-8.615 11.089-.984.998-2.253.33-3.078-.332-1.326-1.823-1.718-5.132-.392-6.955 3.136-3.155 7.777-4.469 12.085-3.802M295.41 664.5c-.662 1.49-.334 3.324-2.153 4.308-3.973-1.034-4.894 3.342-9.108 4.307-3.31-1.33-.998-5.29 0-7.29 2.817-2.647 9.282-7.616 11.261-1.325"/>
        </g>
        <g fill="#231f20">
            <path d="M326.07 674.44c3.472.983 7.12 4.293 8.607 7.29-1.825-.174-4.623-2.997-5.625-.337-.165 1.986 1.99 4.139 0 5.957-5.29-1.328-6.133 9.108-10.755 2.648 1.806-1.314-1.504-2.483-1.662-3.976-3.151-1.32-6.626.508-9.108-1.65-3.316 2.82-4.469-3.482-7.446-1.66 1.973-.49 3.637-2.315 4.295-4.47-.324 1.49.662 2.648 1.819 3.151 2.324.984 2.324-1.662 3.487-2.66 0-.65-.335 1.506.82 1.664 2.326-.49 3.817-2.975 4.308-5.132.998-3.31-.998-6.951-4.8-7.285-3.816-.493-3.308 3.975-5.129 5.955l-.505 3.155c-1.155-3.485 4.635-7.778 0-10.44v-2.151c7.46 2.817 15.568 5.14 21.694 9.941M238.81 670.12l.493-3.483.33 2.662zM224.9 671.77c-12.248 7.951-26.315 12.591-37.912 21.198 4.965-5.297 12.916-8.607 19.872-12.91 3.474-.336 4.963-2.817 8.11-3.984 2.819-1.973 6.62-2.798 9.93-4.303M234.49 672.28c-11.923 6.955-24.505 11.597-34.605 21.195h-1.322c10.098-10.931 23.008-15.397 35.926-21.195M268.61 674.91c-1.167 2.817-4.149 2.982-6.46 3.802-10.76 8.615-22.354 12.923-33.776 21.53 3.311-4.794 10.267-7.606 16.383-11.578 7.126-5.974 14.41-9.774 21.7-14.247.663.165 1.648-.328 2.153.493"/>
        </g>
        <path d="M320.41 677.43c-1.823 2.648.666 7.279-4.293 6.458 0-2.658-.503-6.792 2.155-8.947 1.973-.493.985 1.827 2.138 2.489" fill="#2f393e"/>
        <path d="m234.84 678.26 3.477-2.978h.993z" fill="#231f20"/>
        <path d="M324.23 677.43c-.844 2.975 1.313 5.62-1.159 8.264-.837 1.504 0 3.66-2.15 4.646-.339-4.8-1.996-10.425 3.31-12.91" fill="#2f393e"/>
        <g fill="#231f20">
            <path d="M232.68 679.24c-2.485 1-4.301 4.138-7.285 4.31 2.654-.838 4.637-3.644 7.285-4.31M247.07 679.24c-6.128 5.291-14.57 9.11-20.362 14.24-6.293 4.633-12.255 10.093-18.548 14.574h-.831c5.963-5.464 11.426-9.768 17.548-14.574 7.29-5.306 14.247-9.768 22.194-14.24M284.49 682.23c-.336.996-1.658 1.49-2.982 1.326-1.002-.17 1.815-1.326 2.982-1.326M266.96 683.56v-.507h1.153zM161.97 684.39l.334-.167.497 1.326-.497.154zM222.42 685.21l.326-.82h.998zM265.11 684.39c-.159.82-1.157 1.495-1.66 2.157h-1.317c.993-.662 1.647-2.324 2.977-2.157M295.77 684.39c-.177 2.316 2.48 1.313 3.466 2.157-1.98.66-2.8-1.155-4.796-1.664.332-.66.84-.493 1.33-.493M274.58 687.85l3.149-2.648h1.645zM219.43 687.34l.326-.82h.83zM260 688.16l.332-.825h.994zM287.63 688.16c1.487 1.173 3.474 2.982 5.625 3.483h2.982c-.493 3.32 4.307 3.136 6.464 4.8 3.466-.169 5.788 2.32 8.597 3.472-7.444-.158-14.56-.824-22.35-3.472 4.153.998 7.79 1.83 11.597.825v-1.318l-16.89-6.788c1.818.82 2.152-1.662 3.975-1.002M307.85 687.86h1.336v.334h-1.336zM257.84 689.18c-2.316.994-3.978 2.646-6.452 3.802.322-.158 4.136-2.981 6.452-3.802M164.44 693.82c-.66 1.988 1.66 2.322 2.65 2.65-1.16 0-10.098 2.155-12.088-1.666 2.818-.984 6.62 0 9.437-.984M180.87 696.97l3.97-3.14-.828 1.827zM248.72 694.29c.167.674-.668.831-.831 1.336h-.823c.493-.505.823-1.336 1.654-1.336M307.01 704.24c.159 1.819-1.996 1.996-2.982 2.982-3.81-.165-8.77-.165-12.094-2.982-4.299-.155-8.272-1.157-12.088-2.643-2.808.824-5.289-1.495-7.773-2.49 1.152-.33 2.816.667 3.482-.993 0-1.491-1.822-2.318-3.155-2.474h-2.482v-1.337c12.083 3.984 25.34 5.962 37.09 9.937M195.1 696.97h-.823l2.151-2.155c.328 0-.495 1.495-1.328 2.155M285.51 695.63l-2.155-.505h1.658zM174.39 695.98h-1.658c.334-.662 1.322-.662 1.658 0M191.76 701.25c2.984 1.823 5.963 3.81 8.116-.493 1.322.986-4.807 1.984-2.153 4.8-6.62 2.32-13.086 2.648-21.53 2.982v-.493c4.968-.332 9.935-1.818 15.073-1.17 0-1.646 2.648-.984 1.656-3.137l-1.163-.835-22.52 2.157c5.958-3.646 13.742-1.988 20.7-2.982l-.334-.336 3.479-4.295.33.32c-.165 0-1.988 1.832-1.654 3.482M241.45 699.09l.167.173-1.157 1.314-.332-.328zM237.16 702.59l2.147-1.823c-.992.163-.656 2.316-2.147 1.823M224.07 703.41l2.654-2.15-1.831 2.15zM219.75 707.22l2.155-2.982-.334 1.66zM233.19 706.4l1.324-2.153h.829zM262.16 708.05c-2.982 1.647-6.13-2.658-9.599-2.986v-.829zM296.75 710.21c-8.943-1.996-17.882-2.662-26.825-5.972 9.102 2.646 17.882 1.491 26.825 5.972M275.05 717.64c-2.316 1.819-4.295-2.157-6.45.332.825.666.984 1.313.825 2.157-5.467 4.8-8.116-2.157-13.75 2.311h-.986c1.819-.666 3.143-1.983 4.803-2.645l-2.153-2.155c-7.955.66-14.906 6.951-22.022 7.29-3.642-4.979-9.607.665-14.74-1.66l-7.284-.491.822-2.984c-.657-.84-1.979-.336-2.977-.51 1.656-.492 4.807-.33 5.631-2.97l-1.323-.832c3.808-1.98 9.77.666 12.085-3.97-.497 1.327.833 2.323 1.824 2.648 4.968 2.153 7.943-1.66 11.097-4.303 7.934 4.138 17.38 6.456 26.489 9.098.661-.491.169-1.485.33-2.14-4.308-3.312-10.268-2.485-14.732-5.636-3.814.169-5.796-3.803-9.939-3.14 1.817-5.143 5.296.158 8.277.983 7.617 3.643 15.57 6.798 24.173 8.124zM206.34 712.85c4.308-1.159 10.1-.507 12.085-5.132-1.155 4.959-8.44 3.641-12.085 5.132M287.63 713.36c-8.776.173-15.896-1.984-23.849-4.8 7.46 1.666 16.228 3.478 23.849 4.8M195.1 710.21l3.145-1.173h2.486zM182.99 712.02l.996-.497 1.159.497z"/>
        </g>
        <path d="M240.46 712.53c.49 1.167-.499 1.83-1.163 2.489-.658.159-.994-.501-1.324-.831.666-.984.831-2.15 2.487-1.658" fill="#2f393e"/>
        <g fill="#231f20">
            <path d="m189.64 716.34.332-.831h.831z"/>
            <path d="M235.55 182.47c-100.51 0-182.28 123.11-182.28 274.45 0 151.32 81.771 274.43 182.28 274.43 100.51 0 182.28-123.11 182.28-274.43 0-151.33-81.771-274.45-182.28-274.45m0 551.4c-49.467 0-95.932-28.877-130.83-81.311-34.799-52.273-53.961-121.76-53.961-195.64 0-73.891 19.162-143.38 53.961-195.65 34.903-52.436 81.37-81.314 130.83-81.314 49.463 0 95.928 28.877 130.83 81.314 34.801 52.278 53.967 121.76 53.967 195.65 0 73.886-19.166 143.37-53.967 195.64-34.907 52.434-81.372 81.311-130.83 81.311M300.05 37.209a3.28 3.28 0 0 1 3.278 3.276 3.279 3.279 0 0 1-6.558 0 3.281 3.281 0 0 1 3.28-3.276m0 9.07c3.197 0 5.803-2.597 5.803-5.794 0-3.197-2.606-5.796-5.803-5.796-3.199 0-5.803 2.6-5.803 5.796 0 3.197 2.604 5.794 5.803 5.794M172.19 37.732a3.278 3.278 0 0 1 3.276 3.274 3.282 3.282 0 0 1-3.276 3.278 3.285 3.285 0 0 1-3.282-3.278 3.281 3.281 0 0 1 3.282-3.274m0 9.07c3.197 0 5.796-2.6 5.796-5.796a5.8 5.8 0 0 0-11.6 0c0 3.197 2.603 5.796 5.804 5.796M115.13 64.406a3.257 3.257 0 0 1-.948 2.32 3.249 3.249 0 0 1-2.316.964h-.012c-.869 0-1.69-.338-2.31-.95a3.242 3.242 0 0 1-.968-2.311 3.283 3.283 0 0 1 3.27-3.289h.01c.87 0 1.69.339 2.307.953.62.615.965 1.438.967 2.31zm-3.274-5.786h-.02c-3.2.015-5.793 2.625-5.783 5.817a5.769 5.769 0 0 0 1.719 4.095 5.766 5.766 0 0 0 4.08 1.679h.025a5.74 5.74 0 0 0 4.092-1.71 5.75 5.75 0 0 0 1.681-4.103 5.755 5.755 0 0 0-1.71-4.093 5.746 5.746 0 0 0-4.084-1.685M236.3 27.743a3.281 3.281 0 0 1 3.278 3.278 3.279 3.279 0 0 1-6.558 0 3.283 3.283 0 0 1 3.28-3.278m0 9.072c3.199 0 5.803-2.6 5.803-5.794 0-3.196-2.604-5.798-5.803-5.798s-5.8 2.602-5.8 5.798c0 3.195 2.601 5.794 5.8 5.794M356.42 62.57a3.231 3.231 0 0 1 1.959-1.541 3.238 3.238 0 0 1 2.495.303 3.243 3.243 0 0 1 1.545 1.967c.236.84.127 1.724-.3 2.484l-.007.009a3.22 3.22 0 0 1-1.952 1.543 3.253 3.253 0 0 1-2.5-.297 3.24 3.24 0 0 1-1.545-1.973 3.257 3.257 0 0 1 .305-2.495m.004 6.665a5.775 5.775 0 0 0 4.423.526 5.736 5.736 0 0 0 3.468-2.742c.76-1.346.948-2.91.53-4.401a5.737 5.737 0 0 0-2.733-3.483 5.75 5.75 0 0 0-4.416-.532 5.717 5.717 0 0 0-3.475 2.735 5.756 5.756 0 0 0-.532 4.406 5.754 5.754 0 0 0 2.735 3.49M247.85 102.05c4.028 0 7.302 3.278 7.302 7.31 0 4.034-3.274 7.314-7.302 7.314-4.04 0-7.325-3.28-7.325-7.314 0-4.032 3.285-7.31 7.325-7.31m0 17.147c5.416 0 9.824-4.414 9.824-9.837 0-5.42-4.408-9.83-9.824-9.83-5.429 0-9.847 4.41-9.847 9.83 0 5.423 4.418 9.837 9.847 9.837M270.73 104.76a7.321 7.321 0 0 1 7.314 7.314c0 4.03-3.28 7.308-7.314 7.308s-7.319-3.278-7.319-7.308c0-4.034 3.285-7.314 7.319-7.314m0 17.145c5.425 0 9.835-4.41 9.835-9.83 0-5.425-4.41-9.835-9.835-9.835s-9.839 4.41-9.839 9.835c0 5.42 4.414 9.83 9.839 9.83M291.6 110.42c4.036 0 7.319 3.28 7.319 7.314 0 4.03-3.283 7.31-7.319 7.31-4.038 0-7.323-3.28-7.323-7.31 0-4.034 3.285-7.314 7.323-7.314m0 17.145c5.425 0 9.839-4.41 9.839-9.83 0-5.423-4.414-9.835-9.839-9.835-5.429 0-9.845 4.412-9.845 9.835 0 5.42 4.416 9.83 9.845 9.83M312.47 118.59a7.315 7.315 0 0 1 7.308 7.308c0 4.034-3.276 7.314-7.308 7.314-4.036 0-7.319-3.28-7.319-7.314 0-4.03 3.283-7.308 7.319-7.308m0 17.145c5.42 0 9.832-4.412 9.832-9.837 0-5.418-4.412-9.828-9.832-9.828-5.427 0-9.84 4.41-9.84 9.828 0 5.425 4.413 9.837 9.84 9.837M330.36 128.34c4.028 0 7.304 3.28 7.304 7.314 0 4.03-3.276 7.31-7.304 7.31-4.036 0-7.319-3.28-7.319-7.31 0-4.034 3.283-7.314 7.319-7.314m0 17.145c5.418 0 9.826-4.41 9.826-9.83 0-5.425-4.408-9.835-9.826-9.835-5.425 0-9.839 4.41-9.839 9.835 0 5.42 4.414 9.83 9.839 9.83M223.4 116.47a7.317 7.317 0 0 1-7.31-7.31c0-4.032 3.278-7.312 7.31-7.312 4.036 0 7.319 3.28 7.319 7.312s-3.283 7.31-7.319 7.31m0-17.145c-5.423 0-9.832 4.412-9.832 9.835 0 5.42 4.41 9.83 9.832 9.83 5.427 0 9.839-4.41 9.839-9.83 0-5.423-4.412-9.835-9.839-9.835M200.49 119.7a7.321 7.321 0 0 1-7.314-7.314c0-4.03 3.28-7.31 7.314-7.31 4.04 0 7.325 3.28 7.325 7.31 0 4.034-3.285 7.314-7.325 7.314m0-17.145c-5.425 0-9.835 4.41-9.835 9.83 0 5.423 4.41 9.835 9.835 9.835 5.429 0 9.847-4.412 9.847-9.835 0-5.42-4.418-9.83-9.847-9.83M179.61 125.36c-4.032 0-7.312-3.28-7.312-7.314 0-4.03 3.28-7.308 7.312-7.308 4.034 0 7.316 3.278 7.316 7.308 0 4.034-3.282 7.314-7.316 7.314m0-17.145c-5.423 0-9.832 4.41-9.832 9.83 0 5.425 4.41 9.835 9.832 9.835 5.425 0 9.837-4.41 9.837-9.835 0-5.42-4.412-9.83-9.837-9.83M158.98 133.77a7.317 7.317 0 0 1-7.31-7.31c0-4.032 3.278-7.314 7.31-7.314 4.036 0 7.319 3.282 7.319 7.314s-3.283 7.31-7.319 7.31m0-17.145c-5.42 0-9.832 4.412-9.832 9.835 0 5.42 4.411 9.83 9.832 9.83 5.425 0 9.839-4.41 9.839-9.83 0-5.423-4.414-9.835-9.839-9.835M140.62 143.75a7.321 7.321 0 0 1-7.314-7.314c0-4.03 3.28-7.31 7.314-7.31 4.036 0 7.319 3.28 7.319 7.31 0 4.034-3.283 7.314-7.319 7.314m0-17.145c-5.425 0-9.835 4.41-9.835 9.83 0 5.425 4.41 9.835 9.835 9.835s9.839-4.41 9.839-9.835c0-5.42-4.414-9.83-9.839-9.83"/>
            <path d="M235.78 783.01c-128.28 0-232.63-145.35-232.63-324 0-128.78 54.222-240.25 132.54-292.47v.004c.01-.008.019-.015.03-.02 30.325-20.213 64.264-31.54 100.07-31.54 128.28 0 232.63 145.36 232.63 324.02 0 178.65-104.36 324-232.63 324m.532-659.27c35.077 0 68.875 9.833 100.48 31.301l-1.353 2.907c-30.287-20.845-64.703-30.435-99.337-30.435-35.164 0-69.658 10.09-100.66 31.41l-1.278-2.744c32.068-22.225 66.426-32.439 102.15-32.439m-111.98 11.307c34.958-24.674 72.492-37.192 111.59-37.192 38.683 0 75.858 12.269 110.51 36.455l-8.3 17.842c-32.016-21.638-66.259-31.777-101.82-31.777-36.206 0-71.013 10.522-103.49 32.913zm-4.46-9.58c32.669-23.653 72.84-37.626 116.23-37.626 42.802 0 82.468 13.6 114.89 36.67l-3.207 6.897c-35.07-24.35-72.694-36.703-111.87-36.703-39.591 0-77.576 12.6-112.94 37.44zm23.979-18.613a201.917 201.917 0 0 0-13.708 7.76l-6.62-18.532c-1.177-3.278-1.634-7.174-1.317-8.759.115-.589.432-1.056.894-1.315s1.027-.288 1.585-.086c1.484.551 4.643 3.021 6.803 5.684zM95.026 63.741l23.762-13.357c11.23 16.85 31.022 46.561 34.523 51.893a203.663 203.663 0 0 0-7.154 3.397L133.458 90.01c-2.3-2.833-5.763-5.669-7.888-6.458-1.249-.46-2.596-.367-3.694.253-1.098.618-1.877 1.72-2.132 3.023-.443 2.222.182 6.659 1.42 10.098l6.803 19.053a201.382 201.382 0 0 0-6.14 4.064c-.12.079-.24.15-.358.23-2.86-6.033-17.901-38.228-26.443-56.532m-9.448 2.42L76.93 50.78l6.191-3.483 4.944 8.793 10.588-5.955-4.944-8.79 6.191-3.483 4.95 8.794 10.58-5.946-4.948-8.8 6.202-3.482 8.648 15.384zM129 53.371l2.165 5.831 8.943-3.274-2.174-5.842 4.195-1.535 2.167 5.838 8.952-3.282-2.18-5.855 3.936-1.443c.499 3.011 1.08 6.544 1.706 10.371l-25.365 10.503c-2.437-3.66-4.678-7.02-6.517-9.78zm17.433-19.252-4.241-17.132 6.899-1.714 2.42 9.797 11.797-2.923-2.427-9.793 6.895-1.706 2.43 9.789 11.785-2.915-2.424-9.797 6.899-1.7 4.247 17.13zm10.609 54.677L162 86.744l1.802 11.16c-.863.33-1.719.668-2.573 1.01zm-2.33.965 4.184 10.108c-1.086.453-2.172.912-3.247 1.382-.869-1.328-3.145-4.765-6.174-9.32zm-6.762-6.747c1.182 1.87 2.335 3.682 3.427 5.4l-3.324 1.374-3.554-5.343zm-.626-11.096 3.048 7.365-7.295 3.023-4.504-6.765zm-6.45-.06-3.725 1.543-4.38-6.58 3.89-1.61zm2.364-.977-4.216-6.648 11.027-4.565.265 1.178c.47 2.09.96 4.282 1.455 6.502zm12.812 15.597-2.308.954a2393.43 2393.43 0 0 1-3.428-5.398l4.34-1.797zm4.501-8.684c.353 2.184.702 4.328 1.036 6.391l-3.174 1.313-1.397-6.24zm-8.137-19.105 4.713-1.953c.416 2.544.846 5.183 1.282 7.864l-4.276 1.77c-.464-2.073-.921-4.12-1.36-6.076zm6.41 8.467c.44 2.697.88 5.408 1.314 8.08l-7.437 3.082-3.051-7.364zm33.238 22.216a198.948 198.948 0 0 0-15.466 4.107l-1.533-20.425c-.257-3.475.342-7.352 1.063-8.797.267-.535.695-.9 1.207-1.027.51-.128 1.065-.007 1.553.344 1.316.942 3.654 4.09 5.043 7.279zm11.946-2.287a200.012 200.012 0 0 0-9.415 1.735l-8.352-18.974c-1.458-3.345-4.043-7-5.886-8.323-1.084-.772-2.406-1.041-3.63-.739-1.219.303-2.259 1.16-2.856 2.345-1.01 2.025-1.589 6.467-1.32 10.112l1.55 21.026c-2.654.858-5.285 1.77-7.89 2.733-7.484-46.462-9.614-59.105-10.274-62.64l26.491-6.556c1.529 4.397 6.542 18.27 21.582 59.28m-12.292-53.012.973 6.178 9.405-1.526-.97-6.172 4.407-.716.975 6.174 9.4-1.52-.971-6.175 4.38-.707c-.254 3.384-.567 7.527-.906 12.023l-27.14 3.288c-1.367-3.76-2.628-7.23-3.693-10.179zm21.987 18.479.407-7.86 4.105-.496-.59 7.88zm-6.036 20.189-1.85-6.124 4.662-.564c-.112 2.207-.223 4.347-.332 6.387zm.309 2.501c.572 4.742 1.105 9.242 1.324 11.071-.919.12-1.834.245-2.748.378-1.067-2.904-2.587-7.026-3.967-10.795zm-4.698-8.316 1.848 6.122-3.43.417c-.719-1.962-1.464-3.998-2.224-6.078zm-3.558-20.49 11.849-1.437-.407 7.861L202 53.972l-1.03-3.403c-.426-1.416-.843-2.788-1.25-4.134m-4.834 8.4c-.932-2.55-1.846-5.062-2.73-7.484l5.022-.61c.45 1.479.907 2.995 1.378 4.557l.902 2.981zm10.766 1.232.96 7.911-8.03.975c-.93-2.539-1.871-5.12-2.809-7.686zm3.464 7.608-.96-7.911 9.274-1.128c-.204 2.738-.41 5.467-.607 8.104zm6.848 10.595c-.367 4.961-.624 9.398-.74 11.332-1.13.115-2.256.245-3.38.382-.231-1.856-.799-6.343-1.365-11.048zm-3.276-2.14c.109-2.042.217-4.184.33-6.387l3.615-.439-.479 6.406zm31.19 12.424c-2.772-.117-5.55-.182-8.336-.182-2.518 0-5.028.05-7.532.149l3.36-19.68c.587-3.435 2.1-7.052 3.147-8.277.388-.455.893-.708 1.42-.708h.001c.53 0 1.036.253 1.429.71 1.04 1.217 2.553 4.834 3.142 8.275zm-21.512-61.866h27.267c1.53 20.183 4.147 56.251 4.583 62.653-2.549-.225-5.109-.405-7.683-.537l-3.54-20.389c-.62-3.608-2.25-7.775-3.71-9.485-.867-1.013-2.084-1.596-3.345-1.596h-.002c-1.261.003-2.476.585-3.339 1.596-1.468 1.716-3.094 5.884-3.712 9.488l-3.473 20.402c-2.583.135-5.15.319-7.709.55.587-8.31 3.189-43.198 4.663-62.681m-9.42-2.52V2.519h7.104v10.089h12.15V2.518h7.1v10.09h12.145V2.518h7.106v17.65zm44.119 10.125-.971 6.155 9.392 1.524.973-6.161 4.414.716-.967 6.16 9.398 1.513.971-6.157 3.773.603c-1.075 2.932-2.35 6.406-3.727 10.15l-26.768-3.725c-.323-4.287-.624-8.237-.87-11.484zm6.91 44.648 5.042.701a1175.648 1175.648 0 0 0-3.945 10.958c-.858-.125-1.72-.234-2.583-.349.276-2.182.865-6.832 1.485-11.31m2.272-8.59-1.955 6.088-2.468-.342-.008-.193c-.068-1.969-.142-4.063-.21-6.201zm5.245-16.336-1.207 3.755-9.137-1.268c-.092-2.702-.184-5.35-.276-7.867l11.818 1.645c-.39 1.215-.789 2.455-1.198 3.735m.626 17.151-2.213 6.054-3.078-.428 1.955-6.089zm.702-13.044 1.073-3.338c.455-1.424.898-2.807 1.332-4.151l4.21.584-2.732 7.444zm2.994 2.961-2.808 7.661-7.47-1.038 1.099-7.899zm-21.471-5.527c-.2-2.679-.401-5.34-.595-7.913l4.587.639c.094 2.512.186 5.16.278 7.867zm.806 10.705c-.198-2.652-.405-5.387-.612-8.135l9.603 1.335-1.098 7.896zm.672 9c-.15-2.024-.31-4.183-.478-6.427l3.73.518c.07 2.204.145 4.357.216 6.39zm5.657 3.332c-.629 4.544-1.266 9.194-1.548 11.336a194.823 194.823 0 0 0-3.18-.355c-.108-1.986-.355-6.58-.737-11.74zm33.607-1.031-2.057 19.128c-5-1.47-10.083-2.748-15.236-3.832l8.509-17.796c1.501-3.147 3.944-6.214 5.28-7.103.5-.33 1.053-.435 1.564-.29.514.144.936.524 1.186 1.064.67 1.46 1.132 5.356.754 8.828m-5.928-45.508 26.219 7.446c-3.921 19.247-10.749 52.72-12.355 60.415a200.08 200.08 0 0 0-7.538-2.484l2.107-19.596c.399-3.64-.03-8.1-.97-10.156-.56-1.205-1.575-2.093-2.788-2.435-1.232-.347-2.523-.127-3.644.618-1.881 1.249-4.59 4.815-6.162 8.116l-8.78 18.362a202.45 202.45 0 0 0-7.675-1.357c.561-1.572 2.03-5.596 4-10.985l.094.013.063-.439a39060.707 39060.707 0 0 1 17.429-47.517m-8.381-4.999 4.817-16.98 6.836 1.942-2.752 9.699 11.697 3.324 2.74-9.71 6.831 1.94-2.747 9.708 11.682 3.311 2.754-9.705 6.838 1.948-4.82 16.98zm38.56 22.252-2.202 5.845 8.849 3.19 2.188-5.836 4.101 1.476-2.199 5.828 8.837 3.193 2.209-5.828 4.047 1.489-6.947 10.432-24.2-10.321 2.163-10.605zm-4.75 44.617 5.542 2.362c-2.45 3.685-4.378 6.594-5.41 8.16-1.3-.551-2.608-1.092-3.923-1.616.766-1.8 2.148-5.053 3.792-8.906m-2.316-.99a4799.725 4799.725 0 0 0-3.825 8.983c-1.009-.388-2.02-.766-3.032-1.138.386-1.846 1.115-5.38 2.04-9.895zm.092-9.544c-.386 1.616-.76 3.208-1.12 4.738l-.346 1.483-2.923-1.25c.403-1.974.835-4.092 1.288-6.292zm16.77-12.718c-.94 1.454-1.916 2.957-2.904 4.477l-8.498-3.623c.629-2.628 1.236-5.207 1.804-7.658l10.977 4.683zm-.548 5.48c.904-1.393 1.8-2.774 2.664-4.11l1.614-2.489 3.934 1.679-4.368 6.556zm-9.538 7.347c1.09-2.57 2.17-5.103 3.127-7.34l8.835 3.765-4.496 6.76zm-3.492 8.097-2.303-.983.447-1.913c.326-1.392.666-2.84 1.017-4.307l4.314 1.841c-1.2 1.854-2.364 3.646-3.474 5.362m5.723-4.195.106-.164 3.706 1.58-3.545 5.333-3.635-1.55c1.08-1.67 2.203-3.403 3.368-5.199M311.92 65.05l1.583-7.754 3.677 1.568c-.568 2.445-1.176 5.023-1.804 7.66zm7.933 6.12c-.959 2.239-2.036 4.772-3.128 7.34l-6.949-2.963c.53-2.595 1.08-5.279 1.63-7.976zm20.216 42.22a201.433 201.433 0 0 0-13.545-7.473l11.885-14.662c2.198-2.708 5.297-5.121 6.809-5.677.561-.205 1.13-.177 1.589.082.461.26.78.726.896 1.309.304 1.58-.157 5.48-1.326 8.765zm11.167-63.29 23.766 13.367c-8.21 17.587-22.442 48.041-26.021 55.61a200.229 200.229 0 0 0-6.713-4.351l6.483-18.145c1.226-3.445 1.854-7.876 1.426-10.096-.259-1.305-1.038-2.407-2.134-3.023-1.1-.618-2.445-.71-3.694-.25-2.12.778-5.591 3.613-7.896 6.455L324.21 104.77a205.363 205.363 0 0 0-7.146-3.307c4.517-6.838 23.321-35.081 34.172-51.363m-6.978-6.818 8.649-15.384 6.195 3.483-4.947 8.789 10.603 5.961 4.937-8.795 6.186 3.487-4.936 8.795 10.578 5.95 4.945-8.794 6.197 3.487-8.642 15.387zm58.43 184.57c-19.516-27.132-41.862-48.922-66.114-64.843l17.038-36.628v.002l1.422-3.05a217.786 217.786 0 0 0-3.95-2.807c3.87-8.168 22.162-47.342 26.123-55.819l7.777 4.375L396.096 49.3l-10.595-5.957-4.94 8.792-6.187-3.478 4.939-8.793-10.582-5.963-4.936 8.799-6.208-3.492 4.944-8.788-10.59-5.955-11.117 19.782 8.206 4.614c-.584.88-1.411 2.12-2.43 3.648l-6.955-2.558-2.214 5.84-4.099-1.48 2.201-5.832-8.85-3.184-2.191 5.834-4.099-1.478 2.203-5.845-5.907-2.13 1.117-5.485 8.582 2.44 6.193-21.83-11.687-3.329-2.754 9.71-6.832-1.938 2.747-9.708-11.685-3.315-2.739 9.709-6.847-1.944 2.754-9.703-11.689-3.318-6.188 21.828 9.06 2.575c-.418 1.135-1.032 2.802-1.79 4.869l-6.755-1.08-.968 6.156-4.423-.714.967-6.158-9.39-1.52-.975 6.16-4.414-.719.97-6.155-7.46-1.203c-.135-1.8-.248-3.268-.325-4.314h8.915V.002h-12.15V10.09h-7.105V.002h-12.142V10.09h-7.108V.002h-12.142V22.69h9.409c-.08 1.048-.19 2.527-.326 4.335l-7.458 1.205.97 6.176-4.422.714-.975-6.176-9.381 1.524.969 6.172-4.431.719-.971-6.175-7.11 1.144c-.777-2.152-1.405-3.9-1.837-5.128l8.903-2.203-5.462-22.022-11.791 2.909 2.426 9.795-6.896 1.708-2.429-9.79-11.787 2.916 2.426 9.795-6.903 1.708-2.422-9.797-11.79 2.93 5.451 22.024 8.918-2.21c.221 1.226.59 3.416 1.075 6.315l-6.763 2.482 2.18 5.855-4.216 1.545-2.165-5.84-8.93 3.272 2.173 5.842-4.21 1.54-2.164-5.833-7.098 2.604-2.4-3.6 7.775-4.37-11.119-19.778-10.597 5.951 4.949 8.799-6.187 3.476-4.95-8.794-10.585 5.953 4.945 8.792-6.193 3.483-4.945-8.793-10.586 5.953 11.117 19.778 8.206-4.612c3.92 8.392 22.325 48.024 26.476 56.827-1.12.797-2.232 1.603-3.335 2.422l.322.685-.03.04 18.023 38.54c-23.972 15.876-46.064 37.498-65.382 64.356C24.47 289.61.007 371.703.007 458.993c0 87.294 24.463 169.38 68.886 231.14 44.539 61.918 103.81 96.015 166.9 96.015 63.085 0 122.35-34.097 166.89-96.015 44.425-61.76 68.892-143.84 68.892-231.14 0-87.298-24.467-169.39-68.892-231.14"/>
            <path d="M252.22 293.43c-3.31 2.643-8.77.825-10.762-1.66zM211.96 336.16c.501 1.823-.497 2.986-1.656 3.97h-1.818c-1.33-1.82 2.476-2.485 1.323-4.801l-2.98-.829c.656-2.478 5.632-1.322 5.13 1.66M214.64 346.11c0 1.65-1.159 3.31-2.65 3.965-.998.328-1.321-.656-2.15-.825 2.32-.662 2.32-10.425 4.8-3.14M96.766 691.46l-.326-.015c-.71-.59-1.271-.82-1.689-.7-.415.12-1.718.97-3.915 2.559a41.98 41.98 0 0 0-3.036 2.413c-4.391-2.77-7.73-5.742-10.016-8.911-3.013-4.172-4.207-8.465-3.575-12.858.635-4.391 3.11-8.148 7.43-11.27 5.625-4.048 11.286-4.664 16.973-1.826 2.601 1.299 5.07 3.556 7.402 6.784a31.481 31.481 0 0 1 3.434 6.145c.77 1.835 1.257 3.374 1.452 4.612l-.218.418c-1.313.488-3.405 1.614-6.266 3.376l-.332-.069-.758-1.042.065-.302c.236-.18.71-.556 1.414-1.14.708-.585 1.186-1.017 1.442-1.303.37-1.053.374-2.393.006-4.001-.409-1.718-1.167-3.368-2.284-4.903-2.98-4.128-6.821-5.7-11.536-4.712-2.171.463-4.343 1.48-6.51 3.046-3.468 2.504-5.72 5.444-6.75 8.824-1.074 3.508-.57 6.705 1.509 9.588a12.17 12.17 0 0 0 4.245 3.675c.937-.538 2.167-1.359 3.69-2.462 1.237-.887 1.951-1.472 2.15-1.753.146-.218.13-.543-.054-.986-.15-.365-.769-1.41-1.853-3.149l.05-.33 1.18-.845.324.05c1.17 1.733 2.439 3.52 3.792 5.374l3.524 4.77-.064.3zM136.8 706.87l-.328-.004c-1.16-1.232-2.171-1.593-3.021-1.08-.47.293-1.376 1.032-2.72 2.228-1.005.882-2.425 2.195-4.252 3.932l-5.164 4.888c-3.311 3.143-6.262 4.771-8.847 4.89-3.41.159-6.535-1.255-9.369-4.251-2.59-2.735-4.132-5.33-4.623-7.795-.405-2.081-.03-4.038 1.107-5.882.74-1.163 3.153-3.689 7.252-7.577l4.324-4.09c2.658-2.519 4.326-4.23 5-5.124.274-.36.31-.74.112-1.124-.103-.206-.627-.864-1.577-2.002l.021-.31 1.125-1.064.31-.008c.887 1.077 2.382 2.714 4.489 4.94 2.136 2.255 3.691 3.83 4.658 4.709l-.023.309-1.125 1.06-.31.008c-1.077-.996-1.707-1.543-1.897-1.658-.387-.233-.765-.219-1.132.044-.927.627-2.72 2.207-5.383 4.726l-3.447 3.265c-4.226 3.997-6.646 6.626-7.262 7.87-1.201 2.493-.474 5.136 2.167 7.928 1.735 1.831 3.566 2.8 5.487 2.905.913.041 1.694-.057 2.345-.312.645-.254 1.51-.795 2.59-1.624a36.576 36.576 0 0 0 2.925-2.495l3.48-3.295c2.926-2.769 4.918-4.68 5.964-5.71.99-.98 1.582-1.665 1.787-2.047.142-.307.138-.654-.002-1.042-.123-.336-.647-1.054-1.576-2.167l.023-.31 1.125-1.064.309-.01a52.367 52.367 0 0 0 2.554 2.895c.684.725 2.03 2.074 4.032 4.064l-.004.32zM155.28 736.51c2.462-3.48 3.568-6.71 3.326-9.69a8.198 8.198 0 0 0-1.62-4.258c-.917-1.217-2.424-2.556-4.516-4.053a24.043 24.043 0 0 0-3.322-1.975c-1.11 1.33-3.573 4.687-7.394 10.09l-5.79 8.257c-1.289 1.841-2.107 3.092-2.46 3.746.92.916 1.923 1.75 3 2.514 2.337 1.658 4.442 2.595 6.308 2.831 2.02.246 4.124-.284 6.32-1.576 2.268-1.335 4.315-3.297 6.148-5.886m6.043 2.923c-3.013 4.255-6.801 6.867-11.37 7.84-2.24.468-4.533.443-6.892-.098-2.508-.561-5.043-1.766-7.59-3.654l-6.137-4.506c-1.678-1.225-3.104-2.186-4.278-2.867l-.035-.309.367-.526.238-.175c1.297.042 2.03-.002 2.2-.11.272-.145.922-.938 1.962-2.366l3.044-4.183 6.76-9.544c2.114-2.992 3.419-4.995 3.908-6.01.196-.402.158-.776-.111-1.125-.138-.165-.781-.722-1.919-1.635l-.05-.32.902-1.283.311-.032a70.208 70.208 0 0 0 3.476 2.627c2.742 1.938 5.229 3.65 7.482 5.126 1.12.742 2.234 1.495 3.339 2.278 3.048 2.168 5.128 4.189 6.24 6.089 1.218 2.088 1.707 4.355 1.479 6.815-.242 2.522-1.353 5.176-3.326 7.968M252.45 767.72c-.288 2.247-.411 4.784-.372 7.615l-.204.234-15.714.08c-2.617.037-4.46.118-5.536.225l-.217-.23-.01-.651.09-.276c1.069-.73 1.64-1.199 1.714-1.382.136-.29.196-1.326.19-3.076l-.01-5.17-.167-11.697c-.053-3.654-.178-6.051-.38-7.151-.08-.437-.328-.725-.75-.838-.217-.06-1.053-.131-2.516-.2l-.232-.221-.023-1.573.226-.208c1.447.066 3.693.079 6.738.037 2.708-.04 7.859-.159 15.437-.353l.24.182-.247 2.558a57.025 57.025 0 0 0-.156 2.082l-.13 2.142-.204.265-1.268.019-.213-.232c-.044-2.09-.175-3.289-.394-3.568-.157-.211-.93-.378-2.326-.483a42.816 42.816 0 0 0-3.663-.133c-1.263.016-2.526.09-3.804.227-.134 1.608-.174 3.85-.134 6.717l.069 4.774c1.14.066 2.063.087 2.77.077l2.813-.067c1.324-.03 2.08-.157 2.264-.378.22-.278.35-1.324.384-3.115l.228-.24 1.34-.02.22.233a122.874 122.874 0 0 0-.034 4.733c.023 1.55.081 3.247.173 5.095l-.213.213-1.449.02-.21-.233c-.028-1.769-.161-2.815-.39-3.138-.241-.328-.947-.545-2.112-.629a31.263 31.263 0 0 0-2.821-.08 33.507 33.507 0 0 0-2.923.162l.098 7.038c.029 2.015.09 3.961.198 5.86l2.932-.042c4.197-.06 6.77-.28 7.721-.644.15-.062.274-.144.343-.265.133-.206.265-.678.4-1.382l.462-2.88.205-.252 1.342-.019zM286.37 750.11c-1.213-4.086-3.07-6.951-5.554-8.609a8.137 8.137 0 0 0-4.35-1.361c-1.513-.034-3.516.315-5.975 1.048a24.045 24.045 0 0 0-3.602 1.378c.344 1.69 1.472 5.709 3.347 12.052l2.896 9.66c.66 2.152 1.132 3.566 1.428 4.246a23.879 23.879 0 0 0 3.842-.793c2.731-.819 4.778-1.888 6.116-3.216 1.435-1.432 2.332-3.416 2.67-5.936.345-2.614.072-5.43-.818-8.469m6.035-2.944c1.476 5.007 1.186 9.599-.88 13.793-1.01 2.044-2.461 3.83-4.336 5.347-1.992 1.637-4.512 2.859-7.561 3.704l-7.343 2.03c-2 .558-3.632 1.09-4.901 1.591l-.263-.159-.18-.618.006-.296c.823-.996 1.261-1.6 1.28-1.798.044-.298-.165-1.31-.657-3.002l-1.404-4.982-3.31-11.221c-1.045-3.51-1.805-5.772-2.298-6.78-.207-.407-.516-.608-.948-.61-.234.002-1.052.17-2.476.489l-.286-.155-.456-1.501.172-.267a69.897 69.897 0 0 0 4.217-1.1c3.21-.957 6.106-1.855 8.653-2.703 1.274-.43 2.56-.83 3.86-1.223 3.578-1.055 6.467-1.439 8.637-1.136 2.39.34 4.483 1.359 6.272 3.057 1.83 1.751 3.234 4.272 4.201 7.54M334.56 722.99c-2.604-3.633-5.345-6.024-8.227-7.185-2.888-1.155-5.654-.795-8.296 1.096-3.489 2.49-4.593 5.807-3.33 9.952.645 2.138 1.725 4.27 3.24 6.395 2.765 3.863 5.61 6.448 8.547 7.736 3.044 1.326 5.938.992 8.684-.966 3.35-2.395 4.332-5.757 2.96-10.081-.722-2.31-1.914-4.623-3.578-6.947m4.7-4.844c3.303 4.616 4.64 9.143 3.996 13.566-.628 4.311-3.04 7.974-7.274 11-4.022 2.875-8.033 3.921-12.046 3.144-3.997-.778-7.542-3.313-10.603-7.604-4.308-6.016-5.126-11.72-2.487-17.12 1.196-2.443 3.232-4.692 6.093-6.742 4.086-2.917 8.085-4.047 12.006-3.383 3.959.677 7.402 3.059 10.315 7.139M368.29 697.36c1.898 1.687 3.009 3.804 3.337 6.343.307 2.226-.028 4.5-.996 6.812-.877 2.123-2.324 4.315-4.337 6.558-2.483 2.79-5.464 5.049-8.95 6.776l-.59-.1c-.992-1.556-2.706-3.423-5.141-5.599l.023-.334 1.136-1.28.324-.029.392.349c.656.574 1.57 1.263 2.765 2.04 1.158.173 2.56-.121 4.194-.881a13.766 13.766 0 0 0 4.412-3.31c2.347-2.63 3.176-5.162 2.504-7.575-.355-1.245-.971-2.257-1.84-3.038-1.463-1.305-3.148-1.533-5.061-.681-.93.43-2.205 1.345-3.823 2.723-3.625 3.128-6.298 4.95-7.995 5.435-2.606.716-5.028.067-7.296-1.952-2.347-2.1-3.405-4.694-3.165-7.774.263-3.247 1.948-6.594 5.026-10.052 2.783-3.11 5.441-5.247 8.013-6.406l.543.234c1.08 1.545 2.554 3.197 4.406 4.973l-.02.38-1.12 1.26-.355.041c-1.42-1.192-2.378-1.93-2.875-2.2-.894-.065-2.003.237-3.297.922a13.494 13.494 0 0 0-3.61 2.894c-1.602 1.786-2.452 3.556-2.564 5.316-.099 1.654.467 3.032 1.674 4.11 1.339 1.188 2.792 1.495 4.398.94 1.04-.354 2.94-1.702 5.691-4.058.293-.24 1.095-.923 2.418-2.031a16.63 16.63 0 0 1 2.458-1.708c1.627-.967 3.18-1.38 4.702-1.26 1.618.143 3.163.859 4.619 2.162M389.24 671.1c1.996 1.541 3.282 3.545 3.842 5.999.505 2.146.386 4.362-.332 6.684-.68 2.113-1.896 4.307-3.644 6.604-2.194 2.84-4.9 5.193-8.162 7.051l-.593-.075c-1.115-1.462-2.97-3.18-5.562-5.172l-.021-.342.996-1.3.322-.041.434.324c.683.532 1.647 1.148 2.888 1.835 1.16.121 2.505-.246 4.03-1.088a12.167 12.167 0 0 0 4.03-3.412c2.069-2.685 2.634-5.188 1.745-7.52-.464-1.197-1.153-2.145-2.088-2.853-1.554-1.198-3.224-1.326-5.011-.397-.883.474-2.036 1.424-3.483 2.853-3.274 3.234-5.736 5.13-7.364 5.685-2.479.838-4.907.336-7.313-1.499-2.507-1.93-3.773-4.395-3.817-7.396-.062-3.186 1.257-6.542 3.966-10.058 2.43-3.178 4.86-5.385 7.276-6.633l.537.183c1.21 1.456 2.81 2.986 4.794 4.61l.015.374-.978 1.276-.35.065c-1.493-1.077-2.491-1.744-3.005-1.982-.902-.023-1.946.328-3.161 1.053a13.242 13.242 0 0 0-3.283 3.015c-1.386 1.817-2.063 3.585-2.002 5.308.05 1.612.735 2.927 2.04 3.919 1.397 1.075 2.85 1.305 4.38.68.98-.402 2.715-1.82 5.198-4.244.265-.261.993-.959 2.188-2.097.73-.71 1.478-1.307 2.236-1.81 1.51-1.019 3.007-1.508 4.502-1.46 1.606.044 3.18.67 4.75 1.86M216.41 774.24c-.102.073-.152.11-.255.186-1.413-.395-3.64-.927-6.646-1.604-3.071-.69-5.3-1.175-6.669-1.4l-.14-.245c.146-.614.221-.919.368-1.53.106-.072.158-.105.265-.176 1.474.255 2.332.374 2.555.363.46-.023.77-.242.938-.657.422-1.028 1.09-3.33 1.94-6.893 1.447-6.072 2.17-9.108 3.618-15.178-2.86 3.669-4.297 5.498-7.185 9.148-.415.507-1.841 2.386-4.311 5.61a1353.23 1353.23 0 0 1-6.125 8l-1.442-.356c-.293-2.044-.717-4.629-1.268-7.78-.526-2.962-.787-4.443-1.3-7.408-.98-5.458-1.46-8.189-2.393-13.656l-4.014 15.51c-.914 3.546-1.417 5.882-1.513 7.001-.038.443.137.796.513 1.02.194.116 1.004.417 2.43.889.072.113.105.167.174.28-.157.61-.236.912-.39 1.524l-.28.135a99.975 99.975 0 0 0-4.536-1.365c-1.63-.445-3.299-.844-4.96-1.211-.061-.107-.09-.159-.151-.263l.4-1.518c.103-.07.155-.103.258-.171 1.468.321 2.315.471 2.543.467.449-.006.766-.213.944-.618.438-1.012 1.152-3.305 2.075-6.853l3.086-11.808c.92-3.547 1.414-5.894 1.535-6.994.048-.45-.115-.8-.497-1.03-.19-.115-.981-.407-2.37-.898l-.14-.286.403-1.507.25-.155c1.412.493 9.564 2.335 9.913 2.702.363.382.42 3.02.747 5.302.226 1.376.34 2.063.57 3.436 1.178 6.645 1.783 9.964 3.03 16.598 1.99-2.457 2.982-3.687 4.959-6.153 3.155-4.092 4.723-6.145 7.847-10.263.916-1.221 2.186-3.769 2.791-3.99.616-.226 8.03 1.892 9.53 2.115l.155.25c-.144.62-.213.932-.357 1.552l-.249.159c-1.468-.217-2.318-.332-2.539-.318-.428.027-.74.261-.914.675-.437 1.04-1.065 3.34-1.9 6.909-1.113 4.752-1.669 7.128-2.78 11.883-.835 3.558-1.278 5.909-1.347 7.028-.027.447.155.79.541.998.196.107 1.032.366 2.487.769.063.108.094.163.159.267-.142.605-.211.906-.353 1.508"/>
        </g>
    </g>
</svg>
