<svg xmlns="http://www.w3.org/2000/svg" xml:space="preserve" viewBox="30.5 31.5 420 500" height="500" width="420">
    <path style="fill:#0085ca;fill-opacity:1;fill-rule:evenodd" d="M440 32.7c2.09 102.46-3.38 187.49-43.93 296.59-28.05 75.48-74.21 144.77-155.57 201.59-81.36-56.82-127.52-126.11-155.57-201.59C44.38 220.19 38.91 135.16 41 32.7c133 .29 266 0 399 0z"/>
    <path style="fill:#ffe000;fill-opacity:1;fill-rule:evenodd;stroke:none;stroke-width:1px;stroke-linecap:butt;stroke-linejoin:miter;stroke-opacity:1" d="M365.027 396.027c12.187-20.976 23.408-45.758 33.082-71.918L293 219 438 74l2.415-2.568L440 32.7l-65.856.156L240.5 166.5 106.856 32.856 41 32.7l-.415 38.732L43 74l145 145L82.89 324.11c9.675 26.16 20.896 50.941 33.083 71.917L240.5 271.5Z"/>
    <path style="fill:none;fill-rule:evenodd;stroke:#000;stroke-width:1px;stroke-linecap:butt;stroke-linejoin:miter;stroke-opacity:1" d="M106.856 32.856 240.5 166.5 374.144 32.856M40.584 71.432 43 74l145 145L82.89 324.11m33.083 71.917L240.5 271.5l124.527 124.527"/>
    <path style="fill:none;stroke:#000" d="M440 32.7c2.09 102.46-3.38 187.49-43.93 296.59-28.05 75.48-74.21 144.77-155.57 201.59-81.36-56.82-127.52-126.11-155.57-201.59C44.38 220.19 38.91 135.16 41 32.7c133 .29 266 0 399 0z"/>
    <path d="M440.415 71.432 438 74 293 219l105.11 105.11" style="fill:none;fill-rule:evenodd;stroke:#000;stroke-width:1px;stroke-linecap:butt;stroke-linejoin:miter;stroke-opacity:1"/>
</svg>
