<svg width="241.84" height="308.92" xml:space="preserve" xmlns="http://www.w3.org/2000/svg">
    <g fill-rule="evenodd">
        <path d="M14.64 182.567C-1.36 133.235 4.9 4.638 4.9 4.638h232.008s6.826 138.21-10.602 182.702c-30.34 77.45-105.636 115.801-105.636 115.801S38.239 255.333 14.64 182.568" fill="#fcd405"/>
        <g fill="#231f20">
            <path d="M236.914 4.648s2.787 119.494-6.048 159.476c-9.297 42.308-25.568 84.154-109.725 139.023h-.465C36.06 248.283 20.715 202.72 11.418 163.204 2.118 122.753 4.907 4.66 4.907 4.66h232.007zm4.49-4.634s2.898 122.973-6.277 164.503c-9.66 43.948-26.562 87.415-113.977 144.396h-.484C32.769 251.925 16.833 204.597 7.176 163.543-2.485 121.53.411.002.411.002h240.994"/>
            <path d="M73.417 36.78a6.446 6.446 0 0 1 2.928 1.001c-.818.618-1.8 1.018-2.872 1.18a1.32 1.32 0 0 0 .561-1.072 1.35 1.35 0 0 0-.617-1.109zM72.037 39A6.394 6.394 0 0 1 69.126 38a6.33 6.33 0 0 1 2.837-1.163c-.327.236-.545.62-.545 1.053 0 .454.254.874.62 1.111zm-22.183 8.31s1.673 2.088 2.926.833c1.672-.834 4.601-1.671 5.855-.416 0 0 .419.416.837 1.254 0 0-1.673-.838-2.93-.418-1.671.418-4.18 3.346-6.688-1.254zm-4.965 40.654s1.254-8.38 18.837-2.51c0 0 .417 0 .837.838 0 0 10.036-21.766 15.471-25.944 0 0 .419-.42 0-1.258 0 0-2.925-1.672-4.18-4.618 0 0-3.348.418-5.02-1.672 0 0-7.525 0-9.2-.418-2.11-.418-2.944-1.673-2.944-2.51 0-.416 2.527 0 2.527 0s0-1.253.417-3.345c0 0 1.256 3.345 2.091 3.345h2.09s.42-2.508 1.257-3.345c0 0 .837 3.345 2.091 3.345 0 0 .837.417.837-.836 0-1.255-.42-3.344-1.673-3.764 0 0-.418-.42-1.255-.42s-2.092 2.093-2.092 4.184c0 0-1.255-1.255-1.255-3.764v-.42h-1.673s-1.672 0-1.672 2.512v.835s-1.69-.418-2.11-3.347c0 0-1.672-.833-2.091-4.18 0 0-1.673-1.256-1.253-3.347 0 0-.42-.836 2.925-.836l1.258.42s1.69-1.673 5.033-1.673c0 0 0-2.09 2.51-2.93 2.511-.834 4.6-1.254 5.438-1.671 0 0 2.509-.417 3.764 1.253l.418.839.418-2.928s0-1.672 2.509-2.51c2.509-1.27 5.854 1.255 5.854 2.09.418.839-.418 2.51-.836 2.928l.418 1.256s8.801-5.019 12.564-5.436c0 0 10.873 0 21.747 4.18 8.383 2.93 18.001-.419 24.69-.835 6.694-.837 19.673-.837 26.366 2.508 0 0 13.821 7.11 14.655 8.365.418.836 5.018 6.69 6.273 7.944 0 0 .419.42 0 .837-.417.838-1.255 3.346-2.51 2.51 0 0-2.509-2.51-2.926-2.51-.419.418-.837.838-.419 1.256 0 0 2.927 2.508 3.344 3.346 0 0 5.019 10.474 5.436 23.02.423 12.98 2.512 12.98 2.93 15.07.418 2.094 0 2.511-1.254 2.511 0 0-7.529 0-9.62.416-2.088.42-5.872.42-8.38.42 0 0-2.927-.836-4.183 1.674l-.419 1.253s-1.255-3.763 1.675-4.599c0 0-2.51-.838-3.346.836 0 0-.418.416-.418.836 0 0-.838-4.182 3.764-4.6 0 0-2.091-1.257-4.186.838 0 0 .84-4.186 5.438-2.927 3.768.416 7.547 1.67 11.309 1.252 3.765-.42 2.094-1.672 1.676-2.092-.422-.833-5.858-9.637-17.167-15.489-8.365-4.602-9.2-11.293-9.2-11.293s-20.508 29.711-21.344 30.549c-.839.834-1.257 1.252-4.603 1.252s-4.601.417-5.435.838c-.836.419-2.09.836-5.02.836 0 0-2.092 0-2.507 2.51 0 0-1.257-3.346 1.67-4.184 0 0 .42 0 .837-.418 0 0-2.925-1.254-4.601 2.092 0 0 .42-.836 0 0 0 0 .42-5.02 4.183-4.6 0 0-1.254-1.673-3.346 0l-.837.836s.837-4.182 4.601-3.348c0 0 1.257 0 1.673.84 0 0 1.257-.42 5.856 0 4.182.42 3.765-.42 4.182-1.674 0 0 2.508-18.838 2.928-20.928 0-2.092 2.09-3.764 6.27-5.437 0 0 .84-.418.42-1.254-.835-.836-3.343.417-3.343.417-1.675.419-7.53 2.51-20.912 2.51 0 0-6.292 0-10.473-1.673-4.183-1.254-2.508 1.253-2.091 1.673 0 0 2.926 3.346 3.347 6.271.834 3.347.834 18.002 1.252 18.84 0 .415 0 1.674 1.254 2.926 1.256 1.255 0 2.09-.417 2.51-.418.417-1.255 1.255-3.345 1.255-1.672 0-2.927-.421-7.11.419-3.765 1.253-6.273 1.253-7.108 1.253 0 0-3.764.419-4.602 2.508 0 0-.417-3.761 2.93-4.601 0 0-2.93-.835-4.185 1.673l-.834.839s.834-5.019 4.6-5.437c0 0-2.928-1.255-4.6 1.256 0 0 .834-4.6 6.272-3.347 0 0 5.438-.42 9.2 0 0 0 1.254.42 2.091.42.838 0 .419-1.259 0-2.093-.415-.836-10.872-13.82-12.545-23.02 0 0-.418-2.926-3.346-2.509 0 0-.838.417-.838 1.255-.418 1.254 0 5.853-1.253 6.694-1.273 1.25-20.51 13.799-23.437 20.505 0 0 0 .42-1.256.42-1.253 0-5.436-1.252-8.382-.836 0 0-2.928.836-3.765.836-.417.419-4.18.837-5.018 3.765 0 0-1.253-4.6 3.346-5.437 0 0-4.6-.839-7.108 1.672 0 0 1.254-3.764 5.016-4.181 0 0-3.762-2.528-5.854.417M47.095 106.952h16.923v17.838h5.484v-17.838h21.472v17.838h5.481v-17.838h21.036v30.631l-5.478-.001-.004 65.369h17.797v-65.37h-5.442l.001-30.63h20.101v17.839h5.937v-17.838h20.58v17.838h5.937v-17.838h17.818v30.611h-19.577l13.953 89.164H52.571l14.183-89.145H47.087v-30.63"/>
        </g>
    </g>
</svg>
