<svg xmlns="http://www.w3.org/2000/svg" width="400" height="500" viewBox="30.5 31.5 400 500" xml:space="preserve">
    <path d="M230.45 531.13c-74.32-53.92-125.26-122.02-155.74-208.16-27.64-78.1-38.73-172.75-33.91-289.35l.02-.46h379.82l.02.46c4.81 116.6-6.28 211.24-33.91 289.35-30.48 86.14-81.42 154.24-155.74 208.16l-.28.2-.28-.2z" fill="#0085ca"/>
    <path d="M419.96 33.21c9.07 219.45-36.25 385.95-189.45 497.1C146.04 469.02 94.36 390.9 66.52 296.34a557.24 557.24 0 0 1-5.87-21.54c-11.45-45.69-17.77-95.02-19.88-147.94-1.2-30.06-1.05-61.28.29-93.65h378.9m.92-.95H40.14l-.04.92c-4.82 116.66 6.28 211.36 33.93 289.52 30.51 86.24 81.51 154.41 155.91 208.39l.56.41.56-.41c74.4-53.98 125.4-122.15 155.91-208.39 27.65-78.16 38.75-172.86 33.93-289.52l-.04-.92z"/>
    <path d="M225.23 367.7c-24.34 7.07-45.21 30.15-65.78 55.54-.4.5-2.26 2.85-3.49-.22-4.81-12-17.21-22.63-31.15-33.33-4.05-3.11-.7-9.71-1.63-18.31-.91-8.43-3.22-15.49-6.22-25.04-.31-.99 1-4.94 5.01-2.45 42.12 26.18 89.11 29.58 112.83 4.41-13.74-.99-33.26-15.4-49.66-19.17-3.63-.22-7.26-3.48-10.89-.65l-9.8 20.04c-3.92 8.02-13.52-.13-10.84-5.45 3.79-7.53 8.41-17.48 8.66-24.61.74-21.39-17.66-48.35-23.31-73.4-2.25-9.98 16.31-6.17 17.64-3.92 9.66 16.32 2.25 33.78 14.38 52.71 10.93 17.07 35.86 30.71 54.24 28.97 16.51-1.56 25.01-42.91 24.4-65.35-1.42-52.43-40.59-90.73-70.36-108.69-28.07-16.94-59.65-17.31-101.29-18.95-4.65-.18 1.75-6.97 2.05-11.7.51-8.19 4.03-10.37 6.66-9.87 21.8 4.21 42.3 13.46 60.74 13.84 15.8.33 10.63-9.82 5.23-14.59-10.01-8.85-19.68-11.91-29.11-19.32-4.03-3.17 2.19-7.12 7.16-7.96 3.94-.67 7.49-7.14 9.78-4.24 4.3 5.45 5.06 13.51 13.41 14.85 4.84.78 3.76-5.08 4.23-9.15.38-2.25 2.8-.45 6.04 1.12 2.56 1.24 7.06-.91 7.07.44.09 15.77-.45 34.83 7.82 41.42 32.04 25.52 55.5 51.71 73.61 80.52 3.69 5.88 11.22 3.51 12.85-6.1 1.74-10.24 1.79-20.44 1.09-30.71-.1-1.52 3.51-1.74 7.23-.9 4.03.91 8.37.02 8.45 1.55.33 6.79-5.4 20 1.31 20.04h7.84c2.87 0 2.07 3.41 4.81 5.84 2.33 2.06 2.55 5.22.64 6.14-13.42 6.46-31.22 9.07-32.89 24.4 2.61 38.69-4.33 73.41-12.42 107.38-1.33 5.6 5.71-1.22 9.58-3.7 28.35-24.71 74.1-61.7 79.61-87.3 9.27-43.08-25.26-97.98-52.71-117.96-20.16-14.67-42.96-21.25-65.51-29.57-4.11-1.52-2.27-4.85 1.74-8.12 4.27-3.49 3.75-12.26 8.04-9.24 19.1 13.44 38.75 26.58 56.7 29.35 10.38 1.6 11.8-6.28 7.02-11.71-5.55-6.3-12.96-12.3-14.5-17.68-1.22-4.28 6.57-2.35 10.72-2.26 2.51.06 7.45-6.02 8.36-1.15 1.35 7.24 1.84 13.46 6.89 21.13 3.5 5.32 6.51-1.93 6.32-11.36-.08-3.74 2.32-1.61 5.56 1.29 1.62 1.45 7.72.67 6.15 3.64-5.75 10.91-17.62 27.53-12.23 35.01 15.26 21.17 30.94 37.38 41.93 69.77 1.2 3.53 5.55 2.57 8.06-.22 12.08-13.4 8.6-26.07 9.8-42.91.4-5.67 10.43-5.93 10.67-1.31l-.82 17.02c-.24 4.92 6.82-3.75 10.19-6.66 1.56-1.35 4.6-2.87 6.2 5.55.68 3.56 7.79 6.96 1.42 10.67-6.71 3.91-15.35 6.94-17.04 10.17-6.81 13.01-20.85 26.69-21.35 33.5-2.32 31.71-4.59 44.55-19.33 59.14l-66.43 68.88c-4.42 4.59-4.05 12.42-.22 16.28 2.47 2.49 5.11 8.38 2.18 8.28-3.58-.12-7.61-2.57-13.29 0-4.89 2.21-5.84 4.89-8.12 5.31-2.8.51-4.12-3.71-8.65-3.13-9.37 1.2-10.41 5.93-11.98 5.23-1.99-.89-1.92-4.85-.73-8.09 1.87-5.1-6.24-4.29-10.6-3.02z" style="fill-rule:evenodd;fill:#fff;stroke:#000"/>
</svg>
