<svg xmlns="http://www.w3.org/2000/svg" width="400" height="500" viewBox="30.5 31.5 400 500" xml:space="preserve">
    <path d="M230.44 531.14C156.12 477.22 105.18 409.12 74.7 322.98c-27.64-78.1-38.73-172.75-33.91-289.35l.02-.46h379.82l.02.46c4.81 116.6-6.28 211.24-33.91 289.35-30.48 86.14-81.42 154.24-155.74 208.16l-.28.2-.28-.2z" style="fill:#0085ca;fill-opacity:1"/>
    <path style="opacity:1;fill:#fff;fill-opacity:1;fill-rule:evenodd;stroke:none;stroke-width:1px;stroke-linecap:butt;stroke-linejoin:miter;stroke-opacity:1" d="M371.683 359.72c-60.806-34.022-137.24-94.854-135.158-179.04 39.756 34.012 51.697 11.665 51.652-5.773-.045-17.439-10.4-37.757-49.393-7.532 31.38-41.846 3.567-47.635-8.284-47.635s-39.665 5.79-8.284 47.635c-38.993-30.225-49.348-9.907-49.393 7.532-.045 17.438 11.896 39.785 51.652 5.774 2.082 84.185-74.352 145.017-135.158 179.038C140.271 473.997 229.55 529.006 230.5 530.855c.95-1.849 90.229-56.858 141.183-171.136z"/>
    <path d="M419.96 33.21c9.07 219.45-36.26 385.95-189.46 497.1C77.31 419.16 31.99 252.66 41.06 33.21h378.9m.92-.95H40.14l-.04.92c-4.82 116.66 6.28 211.36 33.93 289.52 30.51 86.24 81.51 154.41 155.91 208.39l.56.41.56-.41c74.4-53.98 125.4-122.15 155.91-208.39 27.65-78.16 38.75-172.86 33.93-289.52l-.04-.92z"/>
    <path d="M371.683 359.72c-60.806-34.022-137.24-94.854-135.158-179.04 39.756 34.012 51.697 11.665 51.652-5.773-.045-17.439-10.4-37.757-49.393-7.532 31.38-41.846 3.567-47.635-8.284-47.635s-39.665 5.79-8.284 47.635c-38.993-30.225-49.348-9.907-49.393 7.532-.045 17.438 11.896 39.785 51.652 5.774 2.082 84.185-74.352 145.017-135.158 179.038" style="opacity:1;fill:none;fill-opacity:1;fill-rule:evenodd;stroke:#000;stroke-width:1px;stroke-linecap:butt;stroke-linejoin:miter;stroke-opacity:1"/>
</svg>
