<svg xmlns="http://www.w3.org/2000/svg" xml:space="preserve" viewBox="30.5 31.5 400 500" height="500" width="400">
    <defs>
        <linearGradient id="a">
            <stop style="stop-color:#fff;stop-opacity:1" offset="0"/>
            <stop style="stop-color:#fff;stop-opacity:0" offset="1"/>
        </linearGradient>
    </defs>
    <path d="M230.44 531.14C156.12 477.22 105.18 409.12 74.7 322.98c-27.64-78.1-38.73-172.75-33.91-289.35l.02-.46h379.82l.02.46c4.81 116.6-6.28 211.24-33.91 289.35-30.48 86.14-81.42 154.24-155.74 208.16l-.28.2-.28-.2z" fill="#0085ca"/>
    <path style="fill:#fff;stroke:none;stroke-opacity:1" d="M78.592 100.047s131.059-26.26 203.468-37.723c21.518-3.406 43.654 12.019 44.622 32.103 1.389 28.805 15.991 62.232 51.306 31.936-11.957 35.608-55.402 29.608-60.53-1.074-2.326 10.995-3.103 17.158-3.606 24.791-.972 14.763-1.182 27.686-12.951 41.784-18.595 22.275-62.384 34.79-61.13 66.368.402 10.146.777 35.063 3.366 48.271 15.237-9.728 31.617-15.66 53.116 2.544 24.192 20.485 43.176 56.31 57.008 86.406-29.52 51.711-69.428 97-122.872 135.45-28.12-20.46-61.698-49.968-86.64-82.08 8.145-68.48 19.472-136.79 32.281-205.027 6.642-35.384 36.642-46.383 64.053-68.915 22.975-18.887 22.22-29.783 22.371-47.833z"/>
    <circle r="6.236" cy="84.531" cx="244.281" style="fill:#0085ca;fill-opacity:1;stroke:#000;stroke-width:.84986871;stroke-linecap:round;stroke-linejoin:round;stroke-miterlimit:4;stroke-dasharray:none;stroke-opacity:1"/>
    <path d="m249.522 516.245-10.514-150.129c-.409-5.834 2.605-11.844 7.245-14.628l19.613-11.768" style="fill:none;fill-rule:evenodd;stroke:#000;stroke-width:1px;stroke-linecap:round;stroke-linejoin:round;stroke-opacity:1"/>
    <path d="m288.967 480.504-27.241-82.16M312.57 454.581l-26.806-68.43" style="fill:none;fill-rule:evenodd;stroke:#000;stroke-width:1px;stroke-linecap:round;stroke-linejoin:miter;stroke-opacity:1"/>
    <path d="M143.748 448.823c8.146-68.48 19.473-136.79 32.282-205.027 6.642-35.384 36.642-46.383 64.053-68.915 22.975-18.887 22.22-29.783 22.371-47.833L78.592 100.047s131.059-26.26 203.468-37.723c21.518-3.406 43.654 12.019 44.622 32.103 1.389 28.805 15.991 62.232 51.306 31.936-11.957 35.608-55.402 29.608-60.53-1.074-2.326 10.995-3.103 17.158-3.606 24.791-.972 14.763-1.182 27.686-12.951 41.784-18.595 22.275-62.384 34.79-61.13 66.368.402 10.146.777 35.063 3.366 48.271 15.237-9.728 31.617-15.66 53.116 2.544 24.192 20.485 43.176 56.31 57.008 86.406" style="fill:none;stroke:#000;stroke-opacity:1"/>
    <path d="M419.96 33.21c9.07 219.45-36.26 385.95-189.46 497.1C77.31 419.16 31.99 252.66 41.06 33.21h378.9m.92-.95H40.14l-.04.92c-4.82 116.66 6.28 211.36 33.93 289.52 30.51 86.24 81.51 154.41 155.91 208.39l.56.41.56-.41c74.4-53.98 125.4-122.15 155.91-208.39 27.65-78.16 38.75-172.86 33.93-289.52l-.04-.92z"/>
</svg>
