<svg xmlns="http://www.w3.org/2000/svg" width="400" height="500" viewBox="30.5 31.5 400 500" xml:space="preserve">
    <path d="M230.44 531.14C156.12 477.22 105.18 409.12 74.7 322.98c-27.64-78.1-38.73-172.75-33.91-289.35l.02-.46h379.82l.02.46c4.81 116.6-6.28 211.24-33.91 289.35-30.48 86.14-81.42 154.24-155.74 208.16l-.28.2-.28-.2z" style="fill:#32ac60"/>
    <path d="M419.96 33.21c9.07 219.45-36.26 385.95-189.46 497.1C77.31 419.16 31.99 252.66 41.06 33.21h378.9m.92-.95H40.14l-.04.92c-4.82 116.66 6.28 211.36 33.93 289.52 30.51 86.24 81.51 154.41 155.91 208.39l.56.41.56-.41c74.4-53.98 125.4-122.15 155.91-208.39 27.65-78.16 38.75-172.86 33.93-289.52l-.04-.92z"/>
    <path style="fill:#fff;stroke:#000;stroke-opacity:1" d="m93.296 176.465-.128-9.186c-.038-2.737-8.05-5.648-8.05-2.005v10.032l-9.705-1.384c-2.713-.387-1.991 19.705.973 20.232l8.733 1.552v8.357c0 3.927 8.177 4.074 8.177 1.074v-7.822l122.141 21.854c-.551 29.724 8.54 59.882 20.85 80.514l-16.128 5.481c-.065.795-3.422-3.897-5.145-5.867-26.461 9.478-78.23 25.685-78.18 29.278h182.242c.983-3.426.692-17.455-2.5-16.973l-9.54 1.441-11.563-21.864c18.2-11.724 22.466-37.354 24.38-51.996l9.51.702c8.137.6 16.48-27.714 9.064-28.657l-10.531-1.34c8.78-27.337 15.598-57.096 20.987-84.771 4.197-.152 8.05-2.938 9.18-6.697l5.782-19.232c.992-3.302 6.295-3.806 12.765-3 6.207.773 10.229 1.222 15.637 1.851 3.767.438 4.794-8.53 1.925-8.977l-35.258-5.495 1.378-4.605c1.163-3.89-12.086-7.73-13.472-3.537l-43.118 130.997-74.61-10.603 2.281-16.64c.56-4.084-11.147-6.463-11.896-1.532l-2.508 16.504z"/>
    <path style="fill:#32ac60;fill-opacity:1;stroke:#000;stroke-opacity:1" d="m228.63 221.59 66.13 12.876c-1.392 10.778-11.464 44.715-14.538 46.456-8.472 4.797-16.161 8.491-30.462 13.676-10.852-16.879-19.628-41.272-21.13-73.008zM240.967 311.687l41.724-13.7 8.895 16.831c-13.21 5.168-43.336 6.361-50.619-3.131z"/>
</svg>
