<svg xmlns="http://www.w3.org/2000/svg" xml:space="preserve" viewBox="30.5 31.5 420 500" height="500" width="420">
    <path style="fill:#0085ca;fill-opacity:1;fill-rule:evenodd" d="M41 32.7c-2.09 102.46 3.38 187.49 43.93 296.59 28.05 75.48 74.21 144.77 155.57 201.59 81.36-56.82 127.52-126.11 155.57-201.59C436.62 220.19 442.09 135.16 440 32.7c-133 .29-266 0-399 0z"/>
    <path style="fill:none;stroke:#000" d="M41 32.7c-2.09 102.46 3.38 187.49 43.93 296.59 28.05 75.48 74.21 144.77 155.57 201.59 81.36-56.82 127.52-126.11 155.57-201.59C436.62 220.19 442.09 135.16 440 32.7c-133 .29-266 0-399 0z"/>
    <path style="fill:#fff;fill-rule:evenodd;stroke:#000;stroke-width:1.06812668px;stroke-linecap:butt;stroke-linejoin:miter;stroke-opacity:1" d="M268.974 193.797h50.918c-5.588-8.597-12.04-19.952-19.447-22.368-8.714-2.843-12.917-.119-19.446-5.603-5.27-4.427-8.798-11.047-11.042-19.941-1.965-7.791-.38-18.154 5.109-23.073 6.113-5.478 14.42-7.064 23.402-11.041 21.857-9.68 40.322-20.871 65.584-37.575 2.163-1.43 1.58-3.233-.824-3.233H117.772c-2.404 0-2.987 1.803-.824 3.233 25.262 16.704 43.727 27.895 65.584 37.575 8.982 3.977 17.289 5.563 23.402 11.041 5.488 4.919 7.075 15.282 5.11 23.073-2.245 8.894-5.772 15.514-11.043 19.94-6.53 5.485-10.732 2.76-19.446 5.604-7.407 2.416-13.859 13.77-19.447 22.368h50.918c1.102-12.722 11.533-27.971 28.474-27.971 16.94 0 27.372 15.249 28.474 27.971z"/>
    <path d="M263.297 313.551h40.765c-4.474-6.883-9.64-15.974-15.57-17.908-6.976-2.276-10.34-.095-15.568-4.486-4.22-3.544-7.044-8.844-8.84-15.965-1.574-6.237-.304-14.534 4.09-18.472 4.894-4.386 11.545-5.656 18.735-8.84 17.5-7.75 32.283-16.71 52.508-30.083 1.731-1.144 1.265-2.588-.66-2.588H142.243c-1.924 0-2.39 1.444-.66 2.588 20.226 13.374 35.01 22.333 52.509 30.083 7.19 3.184 13.84 4.454 18.735 8.84 4.394 3.938 5.664 12.235 4.09 18.472-1.796 7.121-4.62 12.42-8.84 15.965-5.227 4.391-8.592 2.21-15.569 4.486-5.93 1.934-11.095 11.025-15.569 17.908h40.765c.883-10.186 9.234-22.394 22.797-22.394s21.914 12.208 22.797 22.394z" style="fill:#fff;fill-rule:evenodd;stroke:#000;stroke-width:1.08645344;stroke-linecap:butt;stroke-linejoin:miter;stroke-miterlimit:4;stroke-dasharray:none;stroke-opacity:1"/>
    <path style="fill:#fff;fill-rule:evenodd;stroke:#000;stroke-width:1.10178757;stroke-linecap:butt;stroke-linejoin:miter;stroke-miterlimit:4;stroke-dasharray:none;stroke-opacity:1" d="M260.117 420.692h35.078c-3.85-5.923-8.294-13.745-13.397-15.41-6.004-1.959-8.899-.082-13.397-3.86-3.631-3.05-6.061-7.61-7.607-13.738-1.354-5.368-.262-12.507 3.52-15.895 4.211-3.775 9.934-4.867 16.121-7.607 15.06-6.67 27.78-14.379 45.184-25.887 1.49-.985 1.088-2.227-.568-2.227H155.95c-1.656 0-2.058 1.242-.568 2.227 17.404 11.508 30.125 19.218 45.183 25.887 6.188 2.74 11.91 3.832 16.123 7.607 3.78 3.388 4.873 10.527 3.52 15.895-1.547 6.128-3.977 10.688-7.608 13.738-4.498 3.778-7.393 1.901-13.397 3.86-5.103 1.665-9.548 9.487-13.397 15.41h35.078c.76-8.765 7.946-19.27 19.617-19.27 11.671 0 18.857 10.505 19.617 19.27z"/>
</svg>
