<svg xmlns="http://www.w3.org/2000/svg" height="611.669" width="400">
    <path d="M1029.829-45.647c21.31 31.856 54.292 50.172 78.82 72.838 30.854-16.632 50.39-47.553 74.948-70.727 54.5-95.364 5.533-206.403 8.093-301.906 10.916-65.194-65.75-69.796-91.487-97.117-134.2 28.536-79.336 193.933-114.006 278.683-26.106 56.997 31.81 86.194 43.632 118.23zM1004.142-456.634c34.259-5.41 68.692-23.169 106.97-16.89 34.49 4.236 68.008 3.035 100.283 12.316 7.744-27.988 20.713-57.863 24.631-89.024-13.203-2.837-28.524-5.652-42.577-9.149-2.269 7.166-3.81 13.78-6.685 21.113-20.507-2.654-40.248-5.216-59.818-7.741.536-5.99 4.254-15.789 2.11-23.576-12.748-.731-28.62-4.387-42.928-2.463v27.094c-21.346 1.919-40.71 7.278-62.633 5.63-1.149-6.163-4.705-13.394-3.87-20.76-12.877 2.936-25.959 10.11-40.114 9.148 3.898 31.798 17.063 65.327 24.631 94.302z" style="fill:#fff;stroke:#000;stroke-width:1px;stroke-linecap:butt;stroke-linejoin:miter;stroke-opacity:1" transform="translate(-907.377 576.27)"/>
    <path d="M1104.8 33.59c-5.756-4.116-16.188-12.147-21.429-16.496-2.77-2.3-10.529-8.936-11.693-10.002-.794-.727-2.956-2.686-4.805-4.354-5.71-5.15-18.718-18.07-24.84-24.673a458.556 458.556 0 0 0-2.385-2.562c-.594-.6-8.04-9.066-10.284-11.694-10.25-12.002-23.431-29.64-31.836-42.602-4.495-6.932-5.027-7.763-6.566-10.25l-2.577-4.164c-7.022-11.338-16.59-29.142-23.761-44.211-11.3-23.748-21.596-50.736-29.875-78.309-2.99-9.96-6.341-22.641-9.776-36.996-1.47-6.142-4.982-23.263-6.537-31.871-9.417-52.122-13.11-110.964-9.953-158.539.263-3.954.477-7.378.477-7.607 0-.34 8.04-.417 43.745-.417 41.51 0 43.736-.029 43.578-.56-.177-.602-2.252-9.184-6.136-25.385-1.33-5.55-3.27-13.622-4.311-17.938-1.04-4.316-2.983-12.388-4.316-17.937-1.333-5.55-3.345-13.91-4.471-18.579-4.365-18.088-5.057-21.137-4.894-21.561.353-.92 23.559-8.07 36.501-11.247 5.938-1.458 15.949-3.707 16.498-3.707.156 0 .908 2.63 1.671 5.845 2.33 9.82 4.732 19.483 4.878 19.629.076.076 2.147-.221 4.602-.66 10.059-1.798 25.761-3.826 35.855-4.631 2.466-.197 4.953-.429 5.525-.516l1.042-.157v-26.78l3.283-.2c11.316-.692 25.268-.914 35.791-.57 6.097.2 12.267.453 13.712.565l2.628.202V-548.666l7.11.569c11.744.94 23.241 2.38 35.155 4.401 3.075.522 5.778.877 6.006.789.23-.088.416-.392.416-.676 0-.76 5.652-24.161 5.894-24.403.394-.393 20.456 4.446 31.084 7.498 6.912 1.985 21.658 6.764 22.075 7.155.15.141-.325 2.757-1.057 5.812-2.816 11.748-6.77 28.207-7.992 33.262-.362 1.498-1.815 7.552-3.229 13.454a9886.046 9886.046 0 0 1-4.16 17.296c-4.678 19.33-7.7 31.962-7.7 32.187 0 .091 19.819.165 44.043.165 35.018 0 44.044.082 44.047.4 0 .22.213 3.356.467 6.967 1.642 23.305 1.39 56.83-.636 84.723-7.716 106.217-37.17 201.016-85.909 276.502-8.147 12.617-20.111 29.244-27.147 37.725-.73.881-2.76 3.332-4.508 5.446-8.4 10.158-13.955 16.255-24.832 27.26-13.09 13.244-27.79 26.412-39.698 35.562-6.976 5.36-15.886 11.971-16.134 11.971-.058 0-1.245-.814-2.636-1.81zm8.04-17.052c5.37-4.13 6.024-4.654 12.812-10.268 5.063-4.187 11.517-9.879 16.336-14.406 7.991-7.507 24.923-24.998 28.863-29.817a57.304 57.304 0 0 1 2.12-2.402c.723-.77 1.203-1.6 1.205-2.082 0-.767-1.07-14.594-2.075-26.746-.262-3.171-.916-11.243-1.452-17.938-.537-6.694-1.104-13.397-1.261-14.894-.43-4.092-.162-14.402.457-17.618.794-4.125 1.947-7.598 3.368-10.145 2.303-4.128 7.033-8.155 12.104-10.303 1.859-.788 7.008-1.96 8.642-1.969 1.11-.006 1.414-.492.48-.767-.923-.272-11.076-1.748-16.736-2.433-15.798-1.913-37.139-3.308-54.453-3.559-15.698-.228-41.416.046-48.207.513a835.76 835.76 0 0 1-8.488.488c-14.208.759-33.378 2.757-43.059 4.487-1.924.344-3.546.626-3.603.626-.057 0-.104.123-.104.274 0 .151.973.365 2.162.476 7.868.735 15.592 5.437 19.557 11.906 1.249 2.038 2.752 6.53 3.429 10.246.62 3.413.895 14.339.462 18.418-.16 1.498-.584 6.398-.945 10.89-.36 4.493-1.076 13.358-1.59 19.7-.512 6.342-1.246 15.458-1.63 20.257l-.697 8.725 2.038 2.324c9.793 11.168 25.218 26.945 34.55 35.337 7.106 6.39 16.725 14.436 23.383 19.56 6.093 4.688 6.844 5.212 7.187 5.012.187-.108 2.502-1.86 5.145-3.892zm-88.863-174.112c7.95-1.106 20.95-2.32 37.933-3.542 17.429-1.253 44.825-1.893 60.7-1.417 8.462.254 26.787 1.112 30.109 1.41.793.071 2.81.219 4.484.328 8.889.58 26.354 2.244 33.613 3.202 2.015.266 3.852.484 4.084.484.341 0 .42-2.832.42-15.029v-15.028l-2.001-.667c-8.539-2.84-25.787-5.117-49.088-6.478-7.644-.446-57.813-.633-67.266-.251-24.622.996-43.976 3.315-54.854 6.573l-2.643.79v15.045c0 14.353.027 15.045.585 15.045.322 0 2.088-.21 3.924-.465zm39.054-49.984c27.538-2.295 66.844-2.163 92.25.31 2.379.232 4.363.386 4.41.343.048-.043-.076-2.195-.275-4.782-.81-10.503.996-18.993 4.738-22.287 1.67-1.47 4.668-3.01 6.832-3.508 1.799-.415 5.59-.441 6.96-.048l1.038.298.035-1.74c.02-.956.052-2.063.072-2.46.032-.632-.197-.766-1.877-1.096-2.778-.545-15.645-1.942-22.895-2.486-15.119-1.135-20.024-1.28-44.043-1.29-30.328-.015-32.778.048-49.328 1.277-9.83.73-24.627 2.41-25.062 2.846-.062.061-.142 1.212-.177 2.557-.055 2.066.01 2.412.415 2.238.264-.114 1.66-.278 3.104-.364 5.784-.345 11.336 2.34 13.659 6.606 1.927 3.542 3 10.788 2.636 17.82-.118 2.29-.298 4.71-.4 5.376l-.186 1.211 1.244-.177c.684-.098 3.766-.388 6.85-.645zm-8.328-50.605a691.55 691.55 0 0 0 4.164-.341c16.091-1.387 62.25-1.824 83.442-.79 7.947.387 20.197 1.229 21.22 1.457l.721.162v-35.097c0-29.866-.069-35.229-.46-35.985-1.628-3.149-7.535-5.912-16.458-7.7-9.762-1.956-20.167-2.654-39.777-2.666-22.292-.015-33.624.913-44.079 3.608-6.328 1.632-9.922 3.456-11.887 6.031l-1.05 1.377v70.47l.88-.169c.485-.092 1.963-.253 3.284-.357zm-2.706-83.74c-.1-.162-.051-.63.108-1.041 1.81-4.68 12.452-7.5 35.11-9.301 7.808-.62 34.131-.517 42.441.167 15.496 1.277 24.411 3.012 29.599 5.763 2.033 1.079 3.855 3.17 3.602 4.138-.082.312-.083.567 0 .567.477 0 4.914-3.768 4.903-4.164-.01-.264-.258-1.676-.559-3.138l-.546-2.657-3.734-2.628c-4.803-3.38-21.688-15.396-29.738-21.162-7.333-5.253-12.637-9.02-17.297-12.288-1.85-1.297-3.6-2.553-3.889-2.792-.669-.55-.79-4.104-.162-4.728.23-.228 1.456-.982 2.723-1.675l2.303-1.259-.087-5.618-.087-5.619-4.324-1.471-4.324-1.472-.084-10.63c-.072-9.11-.152-10.629-.556-10.629-.405 0-.484 1.518-.557 10.618l-.084 10.619-4.324 1.494-4.324 1.494v11.17l2.643 1.56 2.642 1.56v2.177c0 1.197-.135 2.225-.3 2.284-.166.058-1.644 1.076-3.284 2.26-3.166 2.287-23.682 16.894-36.775 26.183-13.013 9.233-14.566 10.356-14.793 10.7-.12.182-.458 1.627-.749 3.213l-.53 2.882.902.657a70.107 70.107 0 0 1 2.35 1.837c1.399 1.14 2.161 1.537 1.785.929zm163.183-109.54c-.264-.148-3.724-1.077-7.688-2.065-25.151-6.273-46.802-9.686-73.832-11.64-9.74-.704-41.554-.809-50.77-.167-25.471 1.775-45.356 4.6-66.945 9.515-4.824 1.098-14.506 3.55-16.336 4.138-1.263.405 12.05.464 107.305.474 59.81.006 108.53-.109 108.266-.256zm-204.719-17.014c22.103-5.136 46.828-8.847 67.144-10.077 1.762-.106 3.924-.259 4.805-.338.88-.08 6.863-.294 13.293-.477 15.168-.43 32.44.046 47.086 1.297 20.174 1.723 40.621 4.928 59.578 9.34 3.083.718 5.812 1.321 6.063 1.342.326.027.715-1.023 1.353-3.646.966-3.979 7.185-29.819 9.25-38.438 2.655-11.08 6.48-26.952 7.694-31.935.696-2.854 1.265-5.329 1.265-5.5 0-.87-29.766-9.192-30.405-8.5-.147.16-1.583 5.757-3.19 12.437-1.609 6.681-2.96 12.181-3.002 12.222-.075.072-1.746-.211-7.606-1.289-20.082-3.693-36.653-5.712-55.254-6.73-1.938-.107-4.136-.27-4.885-.364l-1.36-.17v-26.477l-6.007-.238c-3.303-.132-9.465-.148-13.693-.038-4.228.11-8.66.203-9.846.204l-2.159.003-.084 13.373-.084 13.373-2.403.196c-1.321.107-3.916.296-5.765.418-17.05 1.132-33.648 3.269-51.247 6.599-4.49.85-8.241 1.422-8.334 1.27-.093-.15-.795-2.913-1.56-6.14-3.018-12.732-4.464-18.566-4.646-18.749-.339-.338-12.86 2.918-24.742 6.434-5.096 1.508-5.565 1.7-5.565 2.272 0 .436 3.457 15.053 7.238 30.603 2.368 9.743 6.575 27.215 7.172 29.789 3.346 14.428 4.629 19.218 5.108 19.077.276-.08 2.43-.595 4.787-1.142z" style="fill:#028eb1;fill-opacity:1;stroke-width:1" transform="translate(-907.377 576.27)"/>
</svg>
