<svg xmlns="http://www.w3.org/2000/svg" xml:space="preserve" viewBox="30.5 31.5 400 500" height="500" width="400">
    <path style="fill:#ffe000" d="M230.55 531.13c74.32-53.92 125.26-122.02 155.74-208.16 27.64-78.1 38.73-172.75 33.91-289.35l-.02-.46H40.36l-.02.46c-4.81 116.6 6.28 211.24 33.91 289.35 30.48 86.14 81.42 154.24 155.74 208.16l.28.2.28-.2z"/>
    <path d="M41.04 33.21c-9.07 219.45 36.25 385.95 189.45 497.1 84.47-61.29 136.15-139.41 163.99-233.97a557.24 557.24 0 0 0 5.87-21.54c11.45-45.69 17.77-95.02 19.88-147.94 1.2-30.06 1.05-61.28-.29-93.65H41.04m-.92-.95H420.86l.04.92c4.82 116.66-6.28 211.36-33.93 289.52-30.51 86.24-81.51 154.41-155.91 208.39l-.56.41-.56-.41c-74.4-53.98-125.4-122.15-155.91-208.39C46.38 244.54 35.28 149.84 40.1 33.18l.04-.92z"/>
    <path style="fill:#e00e00;fill-opacity:1;stroke:#000;stroke-opacity:1" d="M93.564 201.27c-10.258 4.935-13.042 17.251-8.895 29.213.902 2.602 5.13 4.515 8.52 4.494l112.36-.093c2.334-.002 6.726-3.573 6.93-5.805.661-7.252 3.062-21.66-9.738-27.903-10.55-45.85-22.304-76.394-18.165-86.986 5.29-13.536 12.685-8.594 16.292-.468 1.355 3.053-.46 5.153.633 6.186 1.596 1.508 4.17 3.359 1.989 5.331-2.184 1.974-3.18 4.492-2.716 6.835.977 4.917 3.514 15.57 5.993 20.6 1.976 4.009 18.042-1.718 18.633-4.776.694-3.588-1.29-13.696-4.4-20.786-1.973-4.496-4.42-4.661-5.993-4.775-2.928-.213.128-5.946-1.025-7.145-1.773-1.843-3.44-1.78-4.554-4.154-4.641-9.892-8.942-20.244-18.485-25.312-45.216-24.012-61.921 19.318-70.787 37.079-13.237 26.52-16.34 59.154-26.592 78.464zM251.734 201.27c-10.258 4.935-13.042 17.251-8.896 29.213.902 2.602 5.13 4.515 8.521 4.494l112.36-.093c2.333-.002 6.725-3.573 6.929-5.805.662-7.252 3.062-21.66-9.738-27.903-10.55-45.85-22.304-76.394-18.165-86.986 5.29-13.536 12.686-8.594 16.293-.468 1.355 3.053-.46 5.153.633 6.186 1.596 1.508 4.17 3.359 1.988 5.331-2.184 1.974-3.18 4.492-2.715 6.835.976 4.917 3.513 15.57 5.992 20.6 1.976 4.009 18.042-1.718 18.633-4.776.694-3.588-1.29-13.696-4.4-20.786-1.972-4.496-4.419-4.661-5.993-4.775-2.928-.213.128-5.946-1.025-7.145-1.772-1.843-3.44-1.78-4.554-4.154-4.641-9.892-8.942-20.244-18.485-25.312-45.215-24.012-61.921 19.318-70.787 37.079-13.237 26.52-16.34 59.154-26.591 78.464zM173.117 379.374c-10.532 5.067-13.39 17.712-9.133 29.992.926 2.671 5.267 4.635 8.748 4.614l115.355-.096c2.395-.002 6.904-3.668 7.113-5.96.68-7.445 3.144-22.236-9.997-28.646-10.83-47.071-22.899-78.43-18.649-89.304 5.431-13.897 13.024-8.823 16.727-.48 1.391 3.133-.473 5.29.65 6.35 1.638 1.548 4.281 3.449 2.041 5.473-2.242 2.027-3.265 4.612-2.788 7.018 1.003 5.048 3.607 15.984 6.153 21.148 2.028 4.116 18.523-1.763 19.13-4.902.711-3.685-1.326-14.062-4.519-21.341-2.024-4.616-4.536-4.786-6.152-4.903-3.006-.217.132-6.104-1.052-7.335-1.82-1.892-3.532-1.827-4.675-4.264-4.765-10.156-9.181-20.784-18.978-25.987-46.42-24.652-63.572 19.832-72.674 38.067-13.59 27.226-16.776 60.73-27.3 80.556z"/>
</svg>
