<svg xmlns="http://www.w3.org/2000/svg" width="480" height="500">
    <path style="fill:#0085ca;fill-opacity:1;fill-rule:evenodd;stroke:#000;stroke-width:1px;stroke-linecap:butt;stroke-linejoin:miter;stroke-opacity:1" d="m461.556 1.5 14.076 264.063c2.936 55.082-10.522 110.398-71.895 144.215L240 499.25 76.263 409.778C14.77 376.177 1.433 320.645 4.368 265.563L18.444 1.5h443.112z"/>
    <path d="M411.114 56.075 421.283 267.7c1.308 22.15 4.074 40.212-4.494 54.26-9.826 16.11-34.666 35.842-60.365 50.416L240 438.4l-116.424-66.023c-25.7-14.574-50.54-34.306-60.365-50.416-8.568-14.048-5.802-32.11-4.494-54.26L68.886 56.075c114.076-.52 228.152-.236 342.228 0z" style="fill:none;fill-rule:evenodd;stroke:#000;stroke-width:6.99999905;stroke-linecap:butt;stroke-linejoin:miter;stroke-miterlimit:4;stroke-dasharray:none;stroke-opacity:1"/>
    <path style="fill:#ffe000;fill-opacity:1;fill-rule:evenodd;stroke:#000;stroke-width:.99999988;stroke-linecap:butt;stroke-linejoin:miter;stroke-miterlimit:4;stroke-dasharray:none;stroke-opacity:1" d="m135.888 107.866 185.296 173.588 15.384-21.881c1.014-1.442 13.658 10.21 11.732 12.611l-19.92 22.366 28.224 25.548 2.611-2.247c2.196-1.889 3.77-1.249 5.223.61 6.592 8.438 2.233 16.733-1.243 20.426-3.476 3.692-11.493 8.545-20.313 2.474-1.944-1.338-2.678-2.87-.925-5.176l2.085-2.743-27.087-24.662-21.122 21.236c-2.183 2.168-14.675-9.85-13.297-10.95l20.913-16.677-184.461-174.474c-6.477-6.127-11.07-18.08-10.933-29.199 11.09-.807 21.327 3.055 27.833 9.15zM232.41 84.228l142.3 133.309 9.856-14.846c.749-1.128 10.568 7.907 9.01 9.685l-13.34 15.217 20.16 19.62 2.006-1.725c1.686-1.45 2.895-.96 4.011.469 5.063 6.479 1.715 12.85-.955 15.685-2.67 2.836-8.826 6.563-15.599 1.9-1.493-1.027-2.057-2.204-.71-3.975l1.601-2.106-20.802-18.94-14.262 14.35c-1.666 1.677-11.285-7.582-10.212-8.408l14.102-10.85L217.917 99.625c-4.974-4.705-8.5-13.884-8.396-22.423 8.517-.62 17.892 2.346 22.89 7.027zM111.323 210.006l144.3 135.306 9.859-14.85c.749-1.129 10.57 7.91 9.012 9.688l-13.344 15.222 20.167 19.626 2.006-1.726c1.687-1.452 2.896-.96 4.012.469 5.064 6.48 1.715 12.853-.955 15.69-2.67 2.836-8.829 6.564-15.604 1.9-1.493-1.027-2.057-2.205-.71-3.976l1.602-2.107-20.808-18.945-14.267 14.354c-1.667 1.677-11.288-7.585-10.215-8.41l14.106-10.853L96.825 225.406c-4.973-4.708-8.503-13.888-8.398-22.43 8.52-.62 17.9 2.345 22.896 7.03z"/>
    <path d="M111.546 401.095c2.073-3.2 3.41-4.268 8.22-9.584-3.717 2.021-7.97 3.489-11.429 1.623-2.841-1.532-4.689-3.429-5.152-6.979-.735-5.63 4.406-12.953 11.02-10.212-1.428 3.067-1.829 5.61.867 7.038 2.823 1.496 7.184.527 9.479-1.405 2.965-2.496 4.05-3.345 6.156-6.85 2.07-3.446 3.203-7.426.905-12.371 2.803-.293 6.019.78 7.164 3.305 1.4-2.71 5.698-2.719 5.698-2.719s2.079 3.762.39 6.302c2.765-.226 5.263 2.065 6.368 4.658-5.439.392-8.368 3.315-10.375 6.797-2.042 3.544-2.258 4.904-3 8.709-.574 2.944.696 7.226 3.375 8.968 2.557 1.663 4.585.078 6.574-2.658 5.606 4.45 1.701 12.5-3.578 14.592-3.329 1.318-5.884.624-8.603-1.116-3.31-2.118-4.092-6.549-4.13-10.78-2.313 6.786-2.597 8.474-4.387 11.84-3.389 6.369-9.635 8.207-15.279 8.161-2.78-4.912-4.206-11.264-.283-17.32z" style="fill:#ffe000;fill-opacity:1;fill-rule:evenodd;stroke:#000;stroke-width:.99999988;stroke-linecap:round;stroke-linejoin:round;stroke-miterlimit:4;stroke-dasharray:none;stroke-opacity:1"/>
    <path d="m119.766 391.511 3.47-3.574M131.494 398.413l1.44-4.769" style="fill:none;fill-rule:evenodd;stroke:#000;stroke-width:.99999988;stroke-linecap:round;stroke-linejoin:miter;stroke-miterlimit:4;stroke-dasharray:none;stroke-opacity:1"/>
    <path style="fill:#ffe000;fill-opacity:1;fill-rule:evenodd;stroke:#000;stroke-width:.99999988;stroke-linecap:round;stroke-linejoin:round;stroke-miterlimit:4;stroke-dasharray:none;stroke-opacity:1" d="M445.107 165.368c-3.808.164-5.408.775-12.428 2.224 3.627-2.179 7.048-5.1 7.195-9.027.12-3.226-.577-5.78-3.401-7.98-4.48-3.49-13.399-2.773-14.391 4.317 3.367.326 5.762 1.27 5.625 4.317-.142 3.193-3.189 6.46-6.018 7.457-3.655 1.29-4.937 1.794-9.026 1.832-4.02.036-8.024-1.006-11.12-5.495-1.675 2.268-2.382 5.583-.785 7.85-3.045-.166-5.233 3.533-5.233 3.533s2.188 3.7 5.233 3.532c-1.597 2.268-.89 5.583.784 7.85 3.097-4.488 7.102-5.53 11.12-5.494 4.09.038 5.372.542 9.027 1.832 2.83.998 5.876 4.265 6.018 7.457.137 3.047-2.258 3.991-5.625 4.317.992 7.09 9.91 7.807 14.39 4.317 2.825-2.2 3.523-4.754 3.402-7.98-.147-3.927-3.568-6.848-7.195-9.027 7.02 1.45 8.62 2.06 12.428 2.224 7.208.31 11.96-4.14 14.783-9.028-2.823-4.888-7.575-9.338-14.783-9.028z"/>
    <path style="fill:none;fill-rule:evenodd;stroke:#000;stroke-width:.99999988;stroke-linecap:round;stroke-linejoin:miter;stroke-miterlimit:4;stroke-dasharray:none;stroke-opacity:1" d="m432.679 167.592-4.84 1.177M432.679 181.2l-4.84-1.177"/>
    <path d="M230.972 462.025c.164-3.808.775-5.408 2.224-12.429-2.179 3.628-5.1 7.05-9.027 7.196-3.226.12-5.78-.577-7.98-3.402-3.49-4.48-2.773-13.398 4.317-14.39.326 3.367 1.27 5.761 4.317 5.625 3.193-.143 6.46-3.19 7.457-6.018 1.29-3.655 1.794-4.937 1.832-9.027.036-4.019-1.006-8.024-5.495-11.12 2.268-1.674 5.583-2.381 7.85-.785-.166-3.045 3.533-5.233 3.533-5.233s3.7 2.188 3.532 5.233c2.268-1.596 5.583-.889 7.85.785-4.488 3.096-5.53 7.101-5.494 11.12.038 4.09.542 5.372 1.832 9.027.998 2.829 4.265 5.875 7.457 6.018 3.047.136 3.991-2.258 4.317-5.625 7.09.992 7.806 9.91 4.317 14.39-2.2 2.825-4.754 3.522-7.98 3.402-3.927-.147-6.848-3.568-9.027-7.196 1.45 7.021 2.06 8.62 2.224 12.429.31 7.208-4.14 11.96-9.028 14.783-4.888-2.823-9.338-7.575-9.028-14.783z" style="fill:#ffe000;fill-opacity:1;fill-rule:evenodd;stroke:#000;stroke-width:.99999988;stroke-linecap:round;stroke-linejoin:round;stroke-miterlimit:4;stroke-dasharray:none;stroke-opacity:1"/>
    <path d="m233.196 449.596 1.177-4.84M246.804 449.596l-1.177-4.84" style="fill:none;fill-rule:evenodd;stroke:#000;stroke-width:.99999988;stroke-linecap:round;stroke-linejoin:miter;stroke-miterlimit:4;stroke-dasharray:none;stroke-opacity:1"/>
    <path style="fill:#ffe000;fill-opacity:1;fill-rule:evenodd;stroke:#000;stroke-width:.99999988;stroke-linecap:round;stroke-linejoin:round;stroke-miterlimit:4;stroke-dasharray:none;stroke-opacity:1" d="M368.384 401.175c-2.072-3.2-3.41-4.268-8.22-9.584 3.718 2.021 7.97 3.489 11.43 1.623 2.84-1.532 4.688-3.429 5.152-6.979.735-5.63-4.406-12.953-11.02-10.212 1.427 3.067 1.828 5.61-.867 7.038-2.824 1.496-7.184.527-9.48-1.405-2.965-2.496-4.05-3.345-6.156-6.85-2.07-3.446-3.203-7.426-.904-12.371-2.804-.293-6.02.78-7.164 3.305-1.4-2.71-5.699-2.719-5.699-2.719s-2.078 3.762-.39 6.302c-2.764-.226-5.262 2.065-6.368 4.658 5.44.392 8.369 3.315 10.376 6.797 2.042 3.544 2.257 4.904 3 8.709.574 2.944-.696 7.226-3.375 8.968-2.558 1.663-4.586.078-6.574-2.658-5.607 4.45-1.702 12.5 3.578 14.592 3.328 1.318 5.883.624 8.603-1.116 3.31-2.118 4.092-6.549 4.13-10.78 2.312 6.786 2.596 8.474 4.387 11.84 3.388 6.369 9.634 8.207 15.278 8.161 2.78-4.911 4.206-11.264.283-17.32z"/>
    <path style="fill:none;fill-rule:evenodd;stroke:#000;stroke-width:.99999988;stroke-linecap:round;stroke-linejoin:miter;stroke-miterlimit:4;stroke-dasharray:none;stroke-opacity:1" d="m360.164 391.591-3.47-3.574M348.436 398.493l-1.44-4.769"/>
    <path style="fill:#ffe000;fill-opacity:1;fill-rule:evenodd;stroke:#000;stroke-width:.99999988;stroke-linecap:round;stroke-linejoin:round;stroke-miterlimit:4;stroke-dasharray:none;stroke-opacity:1" d="M296.536 27.288c.163 3.808.774 5.407 2.224 12.428-2.18-3.627-5.1-7.049-9.027-7.195-3.227-.121-5.78.577-7.98 3.401-3.49 4.48-2.773 13.398 4.317 14.39.325-3.366 1.27-5.761 4.317-5.625 3.192.143 6.459 3.19 7.457 6.018 1.29 3.655 1.794 4.937 1.831 9.027.037 4.019-1.006 8.024-5.494 11.12 2.268 1.674 5.582 2.381 7.85.785-.167 3.045 3.533 5.233 3.533 5.233s3.699-2.188 3.532-5.233c2.268 1.596 5.582.89 7.85-.785-4.488-3.096-5.53-7.101-5.494-11.12.038-4.09.542-5.372 1.831-9.027.998-2.828 4.265-5.875 7.457-6.018 3.048-.136 3.992 2.259 4.318 5.626 7.09-.993 7.806-9.91 4.317-14.391-2.2-2.824-4.754-3.522-7.98-3.401-3.927.146-6.849 3.568-9.027 7.195 1.449-7.021 2.06-8.62 2.224-12.428.31-7.209-4.14-11.96-9.028-14.784-4.888 2.823-9.338 7.575-9.028 14.784z"/>
    <path style="fill:none;fill-rule:evenodd;stroke:#000;stroke-width:.99999988;stroke-linecap:round;stroke-linejoin:miter;stroke-miterlimit:4;stroke-dasharray:none;stroke-opacity:1" d="m298.76 39.716 1.177 4.84M312.368 39.716l-1.178 4.84"/>
    <path d="M165.408 27.288c.164 3.808.775 5.407 2.224 12.428-2.179-3.627-5.1-7.049-9.027-7.195-3.226-.121-5.78.577-7.98 3.401-3.49 4.48-2.772 13.398 4.317 14.39.326-3.366 1.27-5.761 4.318-5.625 3.192.143 6.459 3.19 7.457 6.018 1.29 3.655 1.794 4.937 1.831 9.027.037 4.019-1.006 8.024-5.495 11.12 2.268 1.674 5.583 2.381 7.851.785-.167 3.045 3.532 5.233 3.532 5.233s3.7-2.188 3.533-5.233c2.268 1.596 5.582.89 7.85-.785-4.488-3.096-5.531-7.101-5.494-11.12.037-4.09.541-5.372 1.831-9.027.998-2.828 4.265-5.875 7.457-6.018 3.048-.136 3.991 2.259 4.317 5.626 7.09-.993 7.807-9.91 4.318-14.391-2.2-2.824-4.754-3.522-7.98-3.401-3.927.146-6.849 3.568-9.028 7.195 1.45-7.021 2.06-8.62 2.224-12.428.31-7.209-4.14-11.96-9.028-14.784-4.887 2.823-9.338 7.575-9.028 14.784z" style="fill:#ffe000;fill-opacity:1;fill-rule:evenodd;stroke:#000;stroke-width:.99999988;stroke-linecap:round;stroke-linejoin:round;stroke-miterlimit:4;stroke-dasharray:none;stroke-opacity:1"/>
    <path d="m167.632 39.716 1.178 4.84M181.24 39.716l-1.177 4.84" style="fill:none;fill-rule:evenodd;stroke:#000;stroke-width:.99999988;stroke-linecap:round;stroke-linejoin:miter;stroke-miterlimit:4;stroke-dasharray:none;stroke-opacity:1"/>
    <path d="M34.893 165.368c3.808.164 5.407.775 12.428 2.224-3.627-2.179-7.049-5.1-7.195-9.027-.12-3.226.577-5.78 3.401-7.98 4.48-3.49 13.399-2.773 14.391 4.317-3.367.326-5.762 1.27-5.625 4.317.142 3.193 3.189 6.46 6.018 7.457 3.655 1.29 4.937 1.794 9.026 1.832 4.02.036 8.024-1.006 11.12-5.495 1.674 2.268 2.382 5.583.785 7.85 3.045-.166 5.233 3.533 5.233 3.533s-2.188 3.7-5.233 3.532c1.597 2.268.89 5.583-.785 7.85-3.096-4.488-7.1-5.53-11.12-5.494-4.09.038-5.371.542-9.026 1.832-2.83.998-5.876 4.265-6.018 7.457-.137 3.047 2.258 3.991 5.625 4.317-.992 7.09-9.91 7.807-14.39 4.317-2.825-2.2-3.523-4.754-3.402-7.98.146-3.927 3.568-6.848 7.195-9.027-7.02 1.45-8.62 2.06-12.428 2.224-7.208.31-11.96-4.14-14.783-9.028 2.823-4.888 7.575-9.338 14.783-9.028z" style="fill:#ffe000;fill-opacity:1;fill-rule:evenodd;stroke:#000;stroke-width:.99999988;stroke-linecap:round;stroke-linejoin:round;stroke-miterlimit:4;stroke-dasharray:none;stroke-opacity:1"/>
    <path d="m47.321 167.592 4.84 1.177M47.321 181.2l4.84-1.177" style="fill:none;fill-rule:evenodd;stroke:#000;stroke-width:.99999988;stroke-linecap:round;stroke-linejoin:miter;stroke-miterlimit:4;stroke-dasharray:none;stroke-opacity:1"/>
    <path style="fill:#ffe000;fill-opacity:1;fill-rule:evenodd;stroke:#000;stroke-width:.99999988;stroke-linecap:round;stroke-linejoin:round;stroke-miterlimit:4;stroke-dasharray:none;stroke-opacity:1" d="M29.749 301.748c3.753-.67 5.447-.421 12.615-.535-4.015-1.337-7.99-3.444-8.988-7.244-.82-3.123-.695-5.768 1.583-8.53 3.613-4.38 12.473-5.622 14.985 1.082-3.215 1.05-5.347 2.493-4.551 5.438.834 3.085 4.519 5.61 7.497 5.968 3.848.463 5.21.677 9.209-.177 3.93-.84 7.613-2.728 9.657-7.783 2.128 1.849 3.538 4.93 2.475 7.491 2.936-.826 5.877 2.309 5.877 2.309s-1.33 4.086-4.339 4.586c2.052 1.866 2.083 5.255.943 7.833-4-3.707-8.135-3.853-12.05-2.942-3.983.927-5.124 1.698-8.411 3.753-2.544 1.59-4.806 5.44-4.25 8.588.53 3.004 3.072 3.404 6.43 2.989.574 7.135-7.974 9.777-13.106 7.346-3.236-1.532-4.473-3.873-5.057-7.048-.712-3.865 1.992-7.461 5.058-10.377-6.537 2.942-7.965 3.887-11.647 4.876-6.967 1.871-12.574-1.438-16.394-5.594 1.692-5.385 5.361-10.763 12.464-12.03z"/>
    <path style="fill:none;fill-rule:evenodd;stroke:#000;stroke-width:.99999988;stroke-linecap:round;stroke-linejoin:miter;stroke-miterlimit:4;stroke-dasharray:none;stroke-opacity:1" d="m42.364 301.213 4.98.096M45.326 314.495l4.468-2.203"/>
    <path d="M450.25 301.748c-3.752-.67-5.446-.421-12.614-.535 4.015-1.337 7.99-3.444 8.988-7.244.82-3.123.695-5.768-1.583-8.53-3.613-4.38-12.473-5.622-14.985 1.082 3.215 1.05 5.347 2.493 4.55 5.438-.833 3.085-4.518 5.61-7.496 5.968-3.848.463-5.21.677-9.209-.177-3.93-.84-7.613-2.728-9.657-7.783-2.128 1.849-3.538 4.93-2.475 7.491-2.936-.826-5.877 2.309-5.877 2.309s1.33 4.086 4.339 4.586c-2.052 1.866-2.083 5.255-.943 7.833 3.999-3.707 8.135-3.853 12.05-2.942 3.983.927 5.124 1.698 8.411 3.753 2.544 1.59 4.806 5.44 4.25 8.588-.53 3.004-3.072 3.404-6.43 2.989-.574 7.135 7.974 9.777 13.106 7.346 3.236-1.532 4.473-3.873 5.057-7.048.712-3.865-1.992-7.461-5.058-10.377 6.537 2.942 7.965 3.887 11.647 4.876 6.967 1.871 12.574-1.438 16.393-5.594-1.691-5.385-5.36-10.763-12.463-12.03z" style="fill:#ffe000;fill-opacity:1;fill-rule:evenodd;stroke:#000;stroke-width:.99999988;stroke-linecap:round;stroke-linejoin:round;stroke-miterlimit:4;stroke-dasharray:none;stroke-opacity:1"/>
    <path d="m437.636 301.213-4.98.096M434.674 314.495l-4.468-2.203" style="fill:none;fill-rule:evenodd;stroke:#000;stroke-width:.99999988;stroke-linecap:round;stroke-linejoin:miter;stroke-miterlimit:4;stroke-dasharray:none;stroke-opacity:1"/>
    <path style="fill:#ffe000;fill-opacity:1;fill-rule:evenodd;stroke:#000;stroke-width:.99999988;stroke-linecap:round;stroke-linejoin:round;stroke-miterlimit:4;stroke-dasharray:none;stroke-opacity:1" d="M46.101 45.854c2.752 2.638 4.299 3.37 10.2 7.44-4.082-1.113-8.558-1.565-11.496 1.044-2.414 2.144-3.777 4.414-3.413 7.975.577 5.65 7.261 11.597 13.07 7.411-2.094-2.657-3.068-5.04-.772-7.049 2.405-2.104 6.872-2.162 9.548-.808 3.46 1.748 4.71 2.326 7.565 5.254 2.806 2.878 4.822 6.493 3.72 11.833 2.796-.359 5.68-2.14 6.214-4.861 1.985 2.315 6.17 1.338 6.17 1.338s1.16-4.139-1.066-6.223c2.742-.415 4.647-3.218 5.128-5.995-5.383.867-8.906-1.306-11.658-4.234-2.8-2.981-3.323-4.256-4.919-7.788-1.235-2.734-.981-7.193 1.226-9.504 2.108-2.206 4.445-1.128 7.009 1.079 4.435-5.619-1.213-12.557-6.832-13.381-3.542-.52-5.87.743-8.117 3.06-2.735 2.821-2.48 7.313-1.546 11.44-3.808-6.074-4.472-7.652-6.987-10.516-4.76-5.422-13.26-7.777-18.744-6.437-1.578 5.419.492 13.929 5.7 18.922z"/>
    <path style="fill:none;fill-rule:evenodd;stroke:#000;stroke-width:.99999988;stroke-linecap:round;stroke-linejoin:miter;stroke-miterlimit:4;stroke-dasharray:none;stroke-opacity:1" d="m56.302 53.294 4.197 2.683M66.132 43.885l2.497 4.311"/>
    <path d="M433.899 45.854c-2.752 2.638-4.3 3.37-10.2 7.44 4.082-1.113 8.558-1.565 11.496 1.044 2.414 2.144 3.777 4.414 3.413 7.975-.577 5.65-7.261 11.597-13.07 7.411 2.094-2.657 3.068-5.04.772-7.049-2.405-2.104-6.872-2.162-9.548-.808-3.46 1.748-4.71 2.326-7.565 5.254-2.806 2.878-4.822 6.493-3.72 11.833-2.796-.359-5.68-2.14-6.214-4.861-1.985 2.315-6.17 1.338-6.17 1.338s-1.16-4.139 1.066-6.223c-2.742-.415-4.647-3.218-5.128-5.995 5.383.867 8.906-1.306 11.658-4.234 2.8-2.981 3.323-4.256 4.919-7.788 1.234-2.734.981-7.193-1.226-9.504-2.108-2.206-4.445-1.128-7.009 1.079-4.436-5.619 1.213-12.557 6.832-13.381 3.542-.52 5.87.743 8.117 3.06 2.735 2.821 2.48 7.313 1.546 11.44 3.807-6.074 4.472-7.652 6.987-10.516 4.76-5.422 13.26-7.777 18.744-6.437 1.578 5.419-.492 13.929-5.7 18.922z" style="fill:#ffe000;fill-opacity:1;fill-rule:evenodd;stroke:#000;stroke-width:.99999988;stroke-linecap:round;stroke-linejoin:round;stroke-miterlimit:4;stroke-dasharray:none;stroke-opacity:1"/>
    <path d="m423.698 53.294-4.197 2.683M413.868 43.885l-2.497 4.311" style="fill:none;fill-rule:evenodd;stroke:#000;stroke-width:.99999988;stroke-linecap:round;stroke-linejoin:miter;stroke-miterlimit:4;stroke-dasharray:none;stroke-opacity:1"/>
    <path style="fill:none;fill-rule:evenodd;stroke:#ffe000;stroke-width:4.99999952;stroke-linecap:butt;stroke-linejoin:miter;stroke-miterlimit:4;stroke-dasharray:none;stroke-opacity:1" d="M411.114 56.075 421.283 267.7c1.308 22.15 4.074 40.212-4.494 54.26-9.826 16.11-34.666 35.842-60.365 50.416L240 438.4l-116.424-66.023c-25.7-14.574-50.54-34.306-60.365-50.416-8.568-14.048-5.802-32.11-4.494-54.26L68.886 56.075c114.076-.52 228.152-.236 342.228 0z"/>
</svg>
