<svg xmlns="http://www.w3.org/2000/svg" width="400" height="500" viewBox="30.5 31.5 400 500" xml:space="preserve">
    <path d="M230.45 531.13c-74.32-53.92-125.26-122.02-155.74-208.16-27.64-78.1-38.73-172.75-33.91-289.35l.02-.46h379.82l.02.46c4.81 116.6-6.28 211.24-33.91 289.35-30.48 86.14-81.42 154.24-155.74 208.16l-.28.2-.28-.2z" fill="#e00e00"/>
    <path d="M419.96 33.21c9.07 219.45-36.25 385.95-189.45 497.1C146.04 469.02 94.36 390.9 66.52 296.34a557.24 557.24 0 0 1-5.87-21.54c-11.45-45.69-17.77-95.02-19.88-147.94-1.2-30.06-1.05-61.28.29-93.65h378.9m.92-.95H40.14l-.04.92c-4.82 116.66 6.28 211.36 33.93 289.52 30.51 86.24 81.51 154.41 155.91 208.39l.56.41.56-.41c74.4-53.98 125.4-122.15 155.91-208.39 27.65-78.16 38.75-172.86 33.93-289.52l-.04-.92z"/>
    <path d="M49.13 50.95c83.01-8.68 134.72 46.77 162.59 129.53 7.45 24.83 14.68 46.64 17.67 73.06 2.42 26.42 2.02 43.38 1.95 58.09l-11.33.19c-16.31-65.92-30.9-119.72-101.83-160-20.45-11.6-37.04-18.73-48.93-36.53-5.64-8.45-1.68-17.9-2.61-27.54-2.16-22.42-21.26-36.41-17.51-36.8Z" style="fill:#fff;stroke:#000"/>
    <path d="M91.69 323.94c24.6 5.82 48.99-15.17 49.46-39.03.39-19.67-3.88-33.47 4.02-41.48 22.07-22.37 60.04 46.05 65.59 72.89l10.99-1.5c-2.8-32.22-24.76-84.21-35.98-98.45-13.22-16.78-27.69-32.9-47.92-39.92-35.51-12.32-58.1 8.7-64.14 22.74-3.05 7.11-4.7 26.52-1 38.98 5.02 16.88 25.79 17.61 31.84 43.17 2.19 9.26-4.75 35.52-12.87 42.6z" style="fill:#fff;stroke-miterlimit:4;stroke-width:.99;stroke:#000"/>
    <path d="M406.33 50.94c-130.52 9.21-176.98 113.63-174.58 214.22-.2 24.15-.36 31.83-.57 45.79l10.12.87c16.31-65.92 29.94-123.57 102.45-160.92 29.04-14.96 52.65-20.59 50.92-70.58-.78-22.51 15.42-29.65 11.66-29.38z" style="fill:#fff;stroke-linecap:round;stroke-linejoin:round;stroke:#000"/>
    <path d="M363.08 319.52c-21.07 3.88-43.29-14.46-43.76-38.33-.39-19.67 7.9-29.76 0-37.77-22.07-22.37-61.28 46.05-66.83 72.89l-10.99-1.5c2.8-32.22 21.5-83.14 34.36-98.83 12.86-15.68 38.07-32.93 59.06-37.14 36.75-7.37 52.21 12.89 58.24 26.93 3.05 7.11 3.77 19.5-2.98 32.82-11.95 23.57-29.16 31.91-31.94 44.85-2.78 12.94 1.98 31.46 4.84 36.07z" style="fill:#fff;stroke-miterlimit:4;stroke:#000"/>
    <path d="M114.44 341.83c16.85-13.84 35.33-5.17 43.23 12.36 6.09 13.52 4.76 30.92 14.88 26.49 22.02-9.63 30.1-41.83 32.38-55.09l16.79.35c.84 49.91-21.11 70.2-34.2 83.37-17.38 17.49-46.89 20.2-53.05-5.8-5.42-22.91 6.18-42.88-20.03-61.7zM242.84 326.75c1.11 29.75 15.35 76.32 35.25 84.28 11.58 4.63 20.27 8.49 33.84-1.41 29.29-21.38 7.24-54.54 39.19-73.42-22.48-14.64-38.58 5.32-47.94 26.25-5.4 12.07-29.56 21.96-44.34-38.97z" style="fill:#fff;stroke:#000"/>
    <path d="M230.35 496.83c14.68-32.23 44.72-38.57 41.29-60.3-2.51-15.92-12.53-15.47-19.85-56.46-3-16.8-8.25-45.38-9.54-60.51l-18.74-.25c-5.24 45.39-9.39 58.71-15.73 76.44-7.13 19.95-16.45 34.63-13.96 52.11 2.68 18.81 13.99 18.71 36.53 48.97z" style="fill:#fff;stroke-miterlimit:4;stroke:#000"/>
    <path d="M207.73 308.43c-11.44-.88-14.86 18.44-4.98 22.68 8.06 3.46 47.25 4.06 57.56-.52 8.71-3.86 8.61-27.84-3.44-24.57-18.59 5.04-33.54 3.6-49.14 2.41z" style="fill:#fff;stroke-miterlimit:4;stroke-width:.97;stroke:#000"/>
</svg>
