<svg xmlns="http://www.w3.org/2000/svg" xml:space="preserve" viewBox="30.5 31.5 400 500" height="500" width="400">
    <path style="fill:#ffe000;fill-opacity:1" d="M230.44 531.14C156.12 477.22 105.18 409.12 74.7 322.98c-27.64-78.1-38.73-172.75-33.91-289.35l.02-.46h379.82l.02.46c4.81 116.6-6.28 211.24-33.91 289.35-30.48 86.14-81.42 154.24-155.74 208.16l-.28.2-.28-.2z"/>
    <path d="M419.96 33.21c9.07 219.45-36.26 385.95-189.46 497.1C77.31 419.16 31.99 252.66 41.06 33.21h378.9m.92-.95H40.14l-.04.92c-4.82 116.66 6.28 211.36 33.93 289.52 30.51 86.24 81.51 154.41 155.91 208.39l.56.41.56-.41c74.4-53.98 125.4-122.15 155.91-208.39 27.65-78.16 38.75-172.86 33.93-289.52l-.04-.92z"/>
    <path style="fill:#e00e00;fill-opacity:1;fill-rule:evenodd;stroke:#000;stroke-width:1px;stroke-linecap:butt;stroke-linejoin:round;stroke-opacity:1" d="M187.5 338.5c7.4 1.66 16.704 4 33 4 0-16.296-2.34-25.6-4-33h28c-1.66 7.4-4 16.704-4 33 16.296 0 25.6-2.34 33-4v28c-7.4-1.66-16.704-4-33-4 0 16.296 2.34 25.6 4 33h-28c1.66-7.4 4-16.704 4-33-16.296 0-25.6 2.34-33 4v-14zM238.5 107.773c7.4 1.66 16.704 4 33 4 0-16.297-2.34-25.6-4-33h28c-1.66 7.4-4 16.703-4 33 16.296 0 25.6-2.34 33-4v28c-7.4-1.661-16.704-4-33-4 0 16.296 2.34 25.6 4 33h-28c1.66-7.4 4-16.704 4-33-16.296 0-25.6 2.339-33 4v-14zM307.5 190.434c7.4 1.66 16.704 4 33 4 0-16.296-2.34-25.6-4-33h28c-1.66 7.4-4 16.704-4 33 16.296 0 25.6-2.34 33-4v28c-7.4-1.66-16.704-4-33-4 0 16.296 2.34 25.6 4 33h-28c1.66-7.4 4-16.704 4-33-16.296 0-25.6 2.34-33 4v-14zM279.149 292.806c7.4 1.66 16.703 4 33 4 0-16.297-2.34-25.6-4-33h28c-1.661 7.4-4 16.703-4 33 16.296 0 25.6-2.34 33-4v28c-7.4-1.661-16.704-4-33-4 0 16.296 2.339 25.6 4 33h-28c1.66-7.4 4-16.704 4-33-16.297 0-25.6 2.339-33 4v-14zM222.5 107.773c-7.4 1.66-16.704 4-33 4 0-16.297 2.34-25.6 4-33h-28c1.66 7.4 4 16.703 4 33-16.296 0-25.6-2.34-33-4v28c7.4-1.661 16.704-4 33-4 0 16.296-2.34 25.6-4 33h28c-1.66-7.4-4-16.704-4-33 16.296 0 25.6 2.339 33 4v-14zM153.5 190.434c-7.4 1.66-16.704 4-33 4 0-16.296 2.34-25.6 4-33h-28c1.66 7.4 4 16.704 4 33-16.296 0-25.6-2.34-33-4v28c7.4-1.66 16.704-4 33-4 0 16.296-2.34 25.6-4 33h28c-1.66-7.4-4-16.704-4-33 16.296 0 25.6 2.34 33 4v-14zM181.851 292.806c-7.4 1.66-16.703 4-33 4 0-16.297 2.34-25.6 4-33h-28c1.661 7.4 4 16.703 4 33-16.296 0-25.6-2.34-33-4v28c7.4-1.661 16.704-4 33-4 0 16.296-2.339 25.6-4 33h28c-1.66-7.4-4-16.704-4-33 16.297 0 25.6 2.339 33 4v-14z"/>
</svg>
