<svg xmlns="http://www.w3.org/2000/svg" xml:space="preserve" viewBox="30.5 31.5 420 500" height="500" width="420">
    <path style="fill:#32ac60;fill-opacity:1;fill-rule:evenodd;stroke:#000;stroke-opacity:1" d="M440 32.7c2.09 102.46-3.38 187.49-43.93 296.59-28.05 75.48-74.21 144.77-155.57 201.59-81.36-56.82-127.52-126.11-155.57-201.59C44.38 220.19 38.91 135.16 41 32.7c133 .29 266 0 399 0z"/>
    <path style="fill:#fff;fill-opacity:1;stroke:none;stroke-opacity:1" d="M144.149 357.954c-11.611 7.24-26.882 13.32-40.484 14.955-2.405-4.968-6.36-12.629-8.193-17.659 11.959-1.558 38.268-9.729 49.638-21.887 23.889 19.172 64.626 19.246 95.39-2.121 30.764 21.367 71.501 21.293 95.39 2.121 11.37 12.158 37.68 20.33 49.638 21.887-1.833 5.03-5.788 12.69-8.193 17.66-13.602-1.635-28.873-7.717-40.484-14.957-34.277 16.51-66.071 15.32-96.351-.069-30.28 15.39-62.074 16.58-96.351.07zM138.64 385.545c-7.055 4.16-16.21 8.6-23.628 8.83 2.506 4.558 5.33 9.058 7.897 13.312 5.56-.303 12.96-4.183 16.127-6.507 30.949 9.598 63.084 12.136 101.464.65 38.38 11.486 70.515 8.948 101.464-.65 3.167 2.324 10.568 6.204 16.127 6.507 2.567-4.254 5.391-8.754 7.897-13.313-7.418-.229-16.573-4.668-23.628-8.83-39.484 12.834-72.455 9.933-101.86-1.584-29.405 11.517-62.376 14.418-101.86 1.585zM229.726 274.24l-1.056-33.777c-.284-9.109-30.387-39.562-39.05-34.837-10.172 5.549-7.692 46.769-48.198 38.197 13.392-13.567.646-28.329 39.227-42.618-4.708-3.9-20.7-16.618-24.472-13.138-16.164 14.92-16.85 43.93-52.75 36.304 11.505-6.083 12.862-36.71 43.976-41.558-8.213-2.07-20.147-10.028-24.64-6.21-16.321 13.87-18.384 40.716-52.227 36.45 23.361-24.06 15.578-31.575 39.4-40.142-6.833-1.228-17.024-6.323-20.633-3.671-12.33 9.058-9.385 29.143-39.033 31.396 4.793 29.7 12.01 58.675 20.226 85.915 11.22 12.686 51.758 28.91 77.611 29.953 27.61 1.113 53.604-33.87 81.62-42.265z"/>
    <path style="fill:#fff;fill-opacity:1;stroke:none;stroke-opacity:1;stroke-linejoin:round;stroke-linecap:round" d="M47.834 182.627c5.393-5.016 16.76-12.432 25.437-16.029-7.49-.729-21.517-.69-27.405.04.597 4.955 1.281 10.992 1.968 15.989z"/>
    <path style="fill:#fff;fill-opacity:1;stroke:none;stroke-opacity:1" d="M410.52 161.813c4.214 6.461 16.079 14.675 23.125 17.718.979-7.173 1.892-14.214 2.682-21.408-8.186-1.59-21.66 1.084-25.808 3.69zM377.987 168.67c.539.023 18.102-5.201 19.534-2.005 5.208 11.625 6.242 21.622 33.594 30.963-4.278 31.267-11.823 61.161-22.253 94.477-18.198 16.243-32.773 24.662-67.034 26.251-52.202 2.422-50.633-38.935-82.815-44.84l.106-33.488c.089-28.172 23.64-32.995 26.235-32.545 11.779 2.044 23.833 48.876 55.656 34.748-21.532-13.763-5.882-44.095-50.635-41.556 10.579-7.75 19.855-12.353 29.537-12.733 15.54-.608 13.89 39.789 52.218 29.179-18.793-12.121-2.412-29.497-35.164-37.844 8.322-2.18 23.76-9.114 25.108-6.539 7.887 15.068 13.251 36.291 43.251 32.804-13.014-17.557-2.545-20.51-27.34-36.871h.002z"/>
    <path style="fill:#fff;fill-opacity:1;stroke:#000;stroke-opacity:1;stroke-linejoin:round" d="M272.61 199.26c.795-1.504 13.085-9.638 13.085-9.638-.875-16.59 4.19-38.617 20.513-60.92 9.261 11.868 15.181 31.697-11.14 56.676l25.288-13.175c-5.2-24.71 11.257-29.727 13.881-43.413l-27.763-4.951c-19.73 19.713-29.242 40.387-33.864 75.421z"/>
    <path style="fill:#fff;fill-opacity:1;stroke:none;stroke-opacity:1" d="m334 166.987 21.918-5.815c-11.53-20.794 14.021-38.46 15.753-51.643 7.34 16.563 13.566 31.586-7.193 49.799l14.882-2.876c8.148-1.575-.475-12.7 5.027-27.763 2.583-7.074 11.97-12.3 14.742-21.598 8.849 17.992 2.962 35.874-10.39 48.22 26.575.431 6.509-31.462 34.23-47.624 1.99 17.532-.48 31.648-10.554 42.858l24.7-3.51c2.772-28.138 2.57-53.652 3.215-81.258-22.133 2.56-38.7-11.208-54.56-10.885-7.01.144-17.738 6.987-25.353 12.02 47.401-9.85 33.087 13.82 50.785 20.972-21.576 6.087-41.653-9.131-50.883-13.19-9.23-4.06-24.651 11.699-23.755 13.589 4.878-2.029 8.977-3.044 12.55-3.321 15.318-1.19 20.947 11.187 36.68 15.445-20.97 20.697-40.6-5.75-57.676-3.183-5.071.763-9.53 4.486-13.385 12.202 16.892-2.296 33.365-2.566 48.607 3.095-3.778 6.258-13.001 13.624-23.038 15.312 3.779 4.42 15.385 17.045-6.301 39.154zM407.573 45.256c.473-2.654 24.989-8.965 32.581-7.518-.002 4.956-.106 10.296-.141 15.36-10.098-6.324-27.05-7.937-32.44-7.842zM413.11 32.867c-5.262 1.92-10.607 3.936-18.818 8.271-.092-2.578-.112-5.08-.956-8.275l19.773.004zM362.806 57.589c.75-.06 16.005-9.243 16.005-9.243-1.781-4.88-1.218-10.34.322-15.54l-9.55-.001c3.435 15.15-1.766 19.924-6.777 24.784zM340.934 32.809l12.545.003c2.479 5.753-10.362 26.117-4.31 33.49l-16.38 11.981c6.597-10.566 12.136-29.367 8.145-45.474zM291.518 124.3l8.815-11.252c-10.096-33.707 2.891-32.55 4.626-60.583 23.323 29.457 5.996 38.672 1.252 53.289 7.076-6.369 13.128-14.004 18.88-22.009-9.46-23.19 6.047-37.42 6.685-50.937l-33.686-.005c-.652 31.092-5.336 60.198-6.572 91.496zM281.267 32.807h4.376c-.603 33.59-3.847 66.131-8.443 97.744l-13.004-50.739c20.317-14.234 17.258-30.868 17.07-47.005ZM275.454 32.81c-5.984 6.693-11.592 16.745-14.245 24.716l-1.376-24.707 15.62-.01z"/>
    <path style="fill:#fff;fill-opacity:1;stroke:#000;stroke-opacity:1;stroke-linejoin:round" d="M219.125 204.187c-10.954.438-22.467-10.128-31.012-15.63 10.892-17.05 5.452-33.634-6-51.893-19.713 27.5-3.233 35.564-2.877 47.016l-17.506-9.753c9.494-15.807 7.03-38.173-2.729-52.834 3.32-1.648 6.828-4.05 8.92-5.38 36.315 27.632 32.739 59.797 51.204 88.474zM135.595 125.526c4.93.73 12.939-1.094 17.632-2.72-6.92 11.378-9.117 23.58.25 49.995l-15.63-6.127c5.423-11.64 4.427-28.929-2.252-41.148z"/>
    <path style="fill:#fff;fill-opacity:1;stroke:#000;stroke-opacity:1;stroke-linejoin:round" d="M103.24 104.654c26.75-2.043 27.807-7.877 38.358-11.255 4.423-1.417 16.492 3.64 16.38 11.254-13.95 2.422-27.06 10.237-40.514 10.629 2.476 3.22 4.785 6.432 7.165 7.558-6.57 14.513-1.58 26.364 2.089 40.458-2.411-.997-14.556-2.396-17.96-3.185 1.52-25.23 9.766-32.005-5.518-55.459z"/>
    <path style="fill:#fff;fill-opacity:1;stroke:none;stroke-opacity:1;stroke-linejoin:round;stroke-linecap:round" d="m102.636 158.546-25.055-3.375c2.849-10.106 13.035-24.867-6.249-59.021-15.86 22.545-11.198 39.93-2.66 57.895l-24.081.97c-2.779-26.026-3.151-52.819-4.04-79.02 26.052-5.341 34.69-17.556 47.732-21.485 8.662 2.584 14.693 8.27 21.53 13.005C79.08 64.823 61.598 80.102 56.36 89.272c34.93 12.553 40.368-11.478 60.38-15.005 6.82-1.202 11.864 4.047 14.353 8.503-33.128.837-23.525 7.406-48.75 15.255 4.437 5.204 11.42 4.23 17.322 5.878-20.333 22.258 5.042 40.979 2.97 54.643z"/>
    <path style="fill:#fff;fill-opacity:1;stroke:none;stroke-opacity:1" d="M242.938 223.041c11.047-10.738 18.819-32.174 21.508-49.84 2.281-14.99-26.018-13.197-17.256-52.085 6.747 3.278 14.952 11.953 20.131 30.155 6.407-3.808-17.731-59.028-19.13-118.622h-11.005c-2.211 25.663-2.255 51.806-7.128 76.88 4.98-11.943 9.15-17.84 23.635-20.186-10.087 14.37 8.61 23.554-26.26 39-1.449 4.779-11.48 20.328-9.753 32.398 2.703 18.901 11.61 44.511 25.258 62.3zM209.872 137.374c5.195-3.017 8.376-32.417 12.254-48.283-17.196-15.277-26.474-32.555-12.505-55.71 8.366 8.977 9.853 16.839 13.755 42.835 1.285-14.32 2.781-28.49-.471-43.453l-27.54.002c4.7 35.167 8.614 72.397 14.507 104.609zM196.227 128.676l-12.741-95.844-27.983.001c7.819 31.014 3.14 42.817-4.916 48.971l14.005 11.625c-.291-8.734-3.063-27.692 12.38-42.543 13.813 44.782-.695 42.38-2.142 49.02-2.177 9.995 13.804 20.562 21.397 28.77zM126.092 61.26c5.783-5.357 5.835-20.553 4.377-28.477h18.006c-6.658 10.69-11.81 26.827-7.628 39.373L126.092 61.26ZM113.51 32.811c-.958 7.511-2.435 15.318 1.44 22.214l-13.005-8.122c1.568-4.658.784-9.437-.625-14.095l12.19.003zM85.478 32.789c-.343 1.347.3 5.726.622 7.074-6.614-3.873-13.082-5.988-16.034-7.076l15.412.002zM41 32.7c-.014 8.401-.063 16.485.058 24.871 7.79-4.33 26.116-7.435 36.653-7.205C69.398 43.324 55.995 34.172 41 32.7ZM327.799 450.355c5.083-6.457 10.418-13.156 15.053-19.85-41.086 8.51-70.377 5.93-102.352-6.866-31.975 12.796-61.266 15.376-102.352 6.865 4.635 6.695 9.97 13.394 15.053 19.851 26.203 3.27 63.668 2.91 87.299-7.923 23.631 10.833 61.096 11.193 87.299 7.923z"/>
    <path d="M95.472 355.25c11.959-1.558 38.268-9.729 49.638-21.887 23.889 19.172 64.626 19.246 95.39-2.121 30.764 21.367 71.501 21.293 95.39 2.121 11.37 12.158 37.68 20.33 49.638 21.887m-8.193 17.66c-13.602-1.635-28.873-7.717-40.484-14.957-34.277 16.51-66.071 15.32-96.351-.069-30.28 15.39-62.074 16.58-96.351.07-11.611 7.24-26.882 13.32-40.484 14.955" style="fill:none;fill-opacity:1;stroke:#000;stroke-opacity:1;stroke-linejoin:round;stroke-linecap:round"/>
    <path d="M365.988 394.374c-7.418-.229-16.573-4.668-23.628-8.83-39.484 12.834-72.455 9.933-101.86-1.584-29.405 11.517-62.376 14.418-101.86 1.585-7.055 4.16-16.21 8.6-23.628 8.83m7.897 13.312c5.56-.303 12.96-4.183 16.127-6.507 30.949 9.598 63.084 12.136 101.464.65 38.38 11.486 70.515 8.948 101.464-.65 3.167 2.324 10.568 6.204 16.127 6.507M342.852 430.504c-41.086 8.51-70.377 5.93-102.352-6.865-31.975 12.796-61.266 15.376-102.352 6.865m15.053 19.851c26.203 3.27 63.668 2.91 87.299-7.923 23.631 10.833 61.096 11.193 87.299 7.923M70.496 286.551c11.22 12.686 51.758 28.91 77.611 29.953 27.61 1.113 53.604-33.87 81.62-42.265l-1.057-33.776c-.284-9.109-30.387-39.562-39.05-34.837-10.172 5.549-7.692 46.769-48.198 38.197 13.392-13.567.646-28.329 39.227-42.618-4.708-3.9-20.7-16.618-24.472-13.138-16.164 14.92-16.85 43.93-52.75 36.304 11.505-6.083 12.862-36.71 43.976-41.558-8.213-2.07-20.147-10.028-24.64-6.21-16.321 13.87-18.384 40.716-52.227 36.45 23.361-24.06 15.578-31.575 39.4-40.142-6.833-1.228-17.024-6.323-20.633-3.671-12.33 9.058-9.385 29.143-39.033 31.396" style="fill:none;fill-opacity:1;stroke:#000;stroke-opacity:1;stroke-linejoin:round"/>
    <path d="M47.834 182.627c5.393-5.016 16.76-12.432 25.437-16.029-7.49-.729-21.517-.69-27.405.04M40.551 75.995c26.052-5.341 34.69-17.556 47.732-21.485 8.662 2.584 14.693 8.27 21.53 13.005C79.08 64.823 61.598 80.102 56.36 89.272c34.93 12.553 40.368-11.478 60.38-15.005 6.82-1.202 11.864 4.047 14.353 8.503-33.128.837-23.525 7.406-48.75 15.255 4.437 5.204 11.42 4.23 17.322 5.878-20.333 22.258 5.042 40.979 2.97 54.643l-25.055-3.375c2.849-10.106 13.035-24.867-6.249-59.021-15.86 22.545-11.198 39.93-2.66 57.895l-24.081.97" style="fill:none;fill-opacity:1;stroke:#000;stroke-linecap:round;stroke-linejoin:round;stroke-opacity:1"/>
    <path d="M41.058 57.571c7.79-4.33 26.116-7.435 36.653-7.205C69.398 43.324 55.995 34.172 41 32.7M85.478 32.789c-.343 1.347.3 5.726.622 7.074-6.614-3.873-13.082-5.988-16.034-7.076" style="fill:none;fill-opacity:1;stroke:#000;stroke-opacity:1;stroke-linejoin:round"/>
    <path d="M113.51 32.811c-.958 7.511-2.435 15.318 1.44 22.214l-13.005-8.122c1.568-4.658.784-9.437-.625-14.095" style="fill:none;fill-opacity:1;stroke:#000;stroke-opacity:1;stroke-linejoin:round;stroke-linecap:round"/>
    <path d="M148.475 32.783c-6.658 10.69-11.81 26.827-7.628 39.373L126.092 61.26c5.783-5.357 5.835-20.553 4.377-28.477" style="fill:none;fill-opacity:1;stroke:#000;stroke-linecap:round;stroke-linejoin:round;stroke-opacity:1"/>
    <path d="M155.503 32.833c7.819 31.014 3.14 42.817-4.916 48.971l14.005 11.625c-.291-8.734-3.063-27.692 12.38-42.543 13.813 44.782-.695 42.38-2.142 49.02-2.177 9.995 13.804 20.562 21.397 28.77h0l-12.741-95.844M195.366 32.765c4.7 35.167 8.613 72.397 14.506 104.609h0c5.195-3.017 8.376-32.417 12.254-48.283-17.196-15.277-26.474-32.555-12.505-55.71 8.366 8.977 9.853 16.839 13.755 42.835 1.285-14.32 2.781-28.49-.471-43.453" style="fill:none;fill-opacity:1;stroke:#000;stroke-opacity:1;stroke-linejoin:round;stroke-linecap:round"/>
    <path d="M237.186 32.649c-2.211 25.663-2.255 51.806-7.128 76.88 4.98-11.943 9.15-17.84 23.635-20.186-10.087 14.37 8.61 23.554-26.26 39-1.449 4.779-11.48 20.328-9.753 32.398 2.703 18.901 11.61 44.511 25.258 62.3 11.047-10.738 18.819-32.174 21.508-49.84 2.281-14.99-26.018-13.197-17.256-52.085 6.747 3.278 14.952 11.953 20.131 30.155 6.407-3.808-17.731-59.028-19.13-118.622" style="fill:none;fill-opacity:1;stroke:#000;stroke-opacity:1;stroke-linejoin:round"/>
    <path d="M275.454 32.81c-5.984 6.693-11.592 16.745-14.245 24.716l-1.376-24.707M285.643 32.807c-.603 33.59-3.847 66.131-8.443 97.744l-13.004-50.739c20.317-14.234 17.258-30.868 17.07-47.005" style="fill:none;fill-opacity:1;stroke:#000;stroke-opacity:1"/>
    <path d="M298.09 32.803c-.652 31.092-5.336 60.198-6.572 91.496l8.815-11.251c-10.096-33.707 2.891-32.55 4.626-60.583 23.323 29.457 5.996 38.672 1.252 53.289 7.076-6.369 13.128-14.004 18.88-22.009-9.46-23.19 6.047-37.42 6.685-50.937" style="fill:none;fill-opacity:1;stroke:#000;stroke-opacity:1;stroke-linejoin:round"/>
    <path d="M353.479 32.812c2.479 5.753-10.362 26.117-4.31 33.49l-16.38 11.981c6.597-10.566 12.136-29.367 8.145-45.474h0M369.583 32.805c3.435 15.15-1.766 19.924-6.777 24.784h0c.75-.06 16.005-9.243 16.005-9.243-1.781-4.88-1.218-10.34.322-15.54M413.11 32.867h0c-5.262 1.92-10.607 3.936-18.818 8.271-.092-2.578-.112-5.08-.956-8.275M440.013 53.099c-10.098-6.325-27.05-7.938-32.44-7.843h0c.473-2.654 24.989-8.965 32.581-7.518" style="fill:none;fill-opacity:1;stroke:#000;stroke-opacity:1;stroke-linejoin:round;stroke-linecap:round"/>
    <path d="M440.33 65.777c-22.133 2.56-38.7-11.208-54.56-10.885-7.01.144-17.738 6.987-25.353 12.02 47.401-9.85 33.087 13.82 50.785 20.972-21.576 6.087-41.653-9.131-50.883-13.19-9.23-4.06-24.651 11.699-23.755 13.589 4.878-2.029 8.977-3.044 12.55-3.321 15.318-1.19 20.947 11.187 36.68 15.445-20.97 20.697-40.6-5.75-57.676-3.183-5.071.763-9.53 4.486-13.385 12.202 16.892-2.296 33.365-2.566 48.607 3.095-3.778 6.258-13.001 13.624-23.038 15.312 3.779 4.42 15.385 17.045-6.301 39.154l21.917-5.815c-11.53-20.794 14.021-38.46 15.753-51.643 7.34 16.563 13.566 31.586-7.193 49.799l14.882-2.876c8.148-1.575-.475-12.7 5.027-27.763 2.583-7.074 11.97-12.3 14.742-21.598 8.849 17.992 2.962 35.874-10.39 48.22 26.575.431 6.509-31.462 34.23-47.624 1.99 17.532-.48 31.648-10.554 42.858l24.7-3.51" style="fill:none;fill-opacity:1;stroke:#000;stroke-opacity:1;stroke-linejoin:round"/>
    <path d="M436.327 158.123c-8.186-1.59-21.66 1.084-25.808 3.69 4.215 6.461 16.08 14.675 23.126 17.718" style="fill:none;fill-opacity:1;stroke:#000;stroke-opacity:1"/>
    <path d="M408.862 292.105c-18.198 16.243-32.773 24.662-67.034 26.251-52.202 2.422-50.633-38.935-82.815-44.84l.106-33.488c.089-28.172 23.64-32.995 26.235-32.545 11.779 2.044 23.833 48.876 55.656 34.748-21.532-13.763-5.882-44.095-50.635-41.556 10.579-7.75 19.855-12.353 29.537-12.733 15.54-.608 13.89 39.789 52.218 29.179-18.793-12.121-2.412-29.497-35.164-37.844 8.322-2.18 23.76-9.114 25.108-6.539 7.887 15.068 13.251 36.291 43.251 32.804-13.014-17.557-2.545-20.51-27.34-36.871h.002c.539.022 18.102-5.202 19.534-2.006 5.208 11.625 6.242 21.622 33.594 30.963" style="fill:none;fill-opacity:1;stroke:#000;stroke-opacity:1;stroke-linejoin:round"/>
    <path style="fill:none;stroke:#000" d="M440 32.7c2.09 102.46-3.38 187.49-43.93 296.59-28.05 75.48-74.21 144.77-155.57 201.59-81.36-56.82-127.52-126.11-155.57-201.59C44.38 220.19 38.91 135.16 41 32.7c133 .29 266 0 399 0z"/>
</svg>
