<svg xmlns="http://www.w3.org/2000/svg" width="400" height="500" viewBox="30.5 31.5 400 500" xml:space="preserve">
    <path style="fill:#fff" d="M230.45 531.13c-74.32-53.92-125.26-122.02-155.74-208.16-27.64-78.1-38.73-172.75-33.91-289.35l.02-.46h379.82l.02.46c4.81 116.6-6.28 211.24-33.91 289.35-30.48 86.14-81.42 154.24-155.74 208.16l-.28.2z"/>
    <path style="fill:#000;stroke:#000;stroke-opacity:1;stroke-linejoin:round;stroke-linecap:round;stroke-width:.5;stroke-miterlimit:4;stroke-dasharray:none" d="M161.6 469.404c34.82-82.34-43.417-155.405 18.506-243.639 46.172-6.995 86.413-39.034 65.593-72.19-2.3-3.664-3.377 7.634-4.147 11.588-11.052-1.957 13.224-2.782-65.668-88.518-3.393-3.706 5.628-8.124-11.244-9.84 17.457-21.005 56.727 30.199 70.276 28.739 17.373-1.872 14.62-15.05 13.64-19.773-1.572-7.583-3.385-10.3-6.728-17.842 13.418 10.715 19.545 17.305 21.843 31.637 2.325-1.665 3.543-4.436 3.41-8.553 4.214 4.212 4.295 11.994 3.78 17.75 4.853-.031 12.134-.062 16.036 5.15-5.018.186-8.692 1.105-10.783 6.162 11.257.395 16.204 7.928 20.184 16.554-5.368-4.186-10.384-6.62-14.286-3.495 5.447 15.784 15.574 35.676 14.209 49.034-4.008 39.228-72.534 50.633-66.824 93.664 2.403 18.106 43.37 64.624 62.652 211.438-26.26 28.431-51.731 46.76-61.477 53.929-15.23-10.688-49.887-38.206-68.971-61.795z"/>
    <path style="fill:#fff;stroke:#000;stroke-opacity:1;stroke-linecap:round;stroke-linejoin:round;stroke-width:.5;stroke-miterlimit:4;stroke-dasharray:none" d="M232.979 131.275c-2.265-3.985-3.791-9.587-.646-8.756 22.743 6.01 19.527-28.158-2.764-12.165-3.327 2.386-.944-10.676-.378-15.367-15.33-6.48-48.73-46.1-63.65-28.42 18.96-1.4 46.467 35.355 56.93 48.118-16.854-17.96-27.815-33.098-46.002-44.362 0 0-1.19 4.031.445 5.685 14.707 14.88 29.925 33.36 46.13 53.783 3.59 4.526 9.935 1.484 9.935 1.484z"/>
    <path style="fill:#000;fill-opacity:1;stroke:none" d="M243.915 114.66a5.468 5.587 0 1 1-10.935 0 5.468 5.587 0 1 1 10.935 0z"/>
    <path style="fill:#000;stroke:#000;stroke-opacity:1;stroke-linejoin:round;stroke-linecap:round;stroke-width:.5;stroke-miterlimit:4;stroke-dasharray:none" d="M83.842 227.176c46.173-7.01 86.346-40.136 65.525-73.363-2.3-3.672-3.377 7.65-4.147 11.613-11.052-1.962 13.224-2.788-65.668-88.71-3.393-3.713 5.628-8.14-11.244-9.86 17.457-21.05 56.727 30.264 70.276 28.8 17.373-1.875 14.62-15.081 13.64-19.815-1.572-7.599-3.385-10.322-6.728-17.88 13.418 10.738 19.545 17.342 21.843 31.705 2.325-1.669 3.543-4.445 3.41-8.571 4.214 4.22 4.295 12.02 3.78 17.788 4.853-.031 12.134-.062 16.036 5.16-5.018.188-8.692 1.108-10.783 6.176 11.258.396 16.204 7.945 20.184 16.59-5.368-4.195-10.384-6.634-14.286-3.503 5.447 15.818 15.67 35.773 14.305 49.16-4.008 39.313-76.736 52.423-70.774 99.314 2.802 22.036 50.877 128.316 26.361 191.01-57.716-64.395-87.613-147.039-98.195-200.161 4.818-16.319 16.64-29.173 26.465-35.453Z"/>
    <path style="fill:#fff;stroke:#000;stroke-opacity:1;stroke-linejoin:round;stroke-linecap:round;stroke-width:.5;stroke-miterlimit:4;stroke-dasharray:none" d="M136.647 131.275c-2.265-3.985-3.791-9.587-.645-8.756 22.742 6.01 19.526-28.158-2.765-12.165-3.327 2.386-.944-10.676-.378-15.367-15.33-6.48-48.73-46.1-63.65-28.42 18.96-1.4 46.467 35.355 56.93 48.118-16.854-17.96-27.815-33.098-46.002-44.362 0 0-1.19 4.031.445 5.685 14.707 14.88 29.925 33.36 46.13 53.783 3.59 4.526 9.935 1.484 9.935 1.484z"/>
    <path style="fill:#000;fill-opacity:1;stroke:none" d="M147.583 114.66a5.468 5.587 0 1 1-10.935 0 5.468 5.587 0 1 1 10.935 0z"/>
    <path style="fill:#000;stroke:#000;stroke-opacity:1;stroke-linejoin:round;stroke-linecap:round;stroke-width:.5;stroke-miterlimit:4;stroke-dasharray:none" d="M300.66 468.187c-15.184-141.286-70.39-169.974-22.2-241.011 48.385-9.222 78.726-30.487 65.622-73.363-1.267-4.144-3.377 7.65-4.148 11.613-11.052-1.962 13.225-2.788-65.667-88.71-3.393-3.713 5.628-8.14-11.244-9.86 17.456-21.05 56.726 30.264 70.276 28.8 17.373-1.875 14.62-15.081 13.64-19.815-1.573-7.599-3.385-10.322-6.728-17.88 13.418 10.738 19.544 17.342 21.843 31.705 2.325-1.669 3.542-4.445 3.41-8.571 4.213 4.22 4.294 12.02 3.779 17.788 4.854-.031 12.135-.062 16.036 5.16-5.017.188-8.691 1.108-10.783 6.176 11.258.396 16.205 7.945 20.184 16.59-5.367-4.195-10.383-6.634-14.285-3.503 5.446 15.818 15.573 35.773 14.209 49.16-4.009 39.313-59.186 44.767-56.53 86.46.9 14.123 27.595 23.138 48.904 61.415-18.157 56.029-54.743 115.438-86.317 147.846z"/>
    <path style="fill:#fff;stroke:#000;stroke-opacity:1;stroke-linecap:round;stroke-linejoin:round;stroke-width:.5;stroke-miterlimit:4;stroke-dasharray:none" d="M331.361 131.275c-2.264-3.985-3.79-9.587-.645-8.756 22.743 6.01 19.526-28.158-2.765-12.165-3.326 2.386-.944-10.676-.378-15.367-15.329-6.48-48.73-46.1-63.649-28.42 18.96-1.4 46.467 35.355 56.93 48.118C304 96.725 293.04 81.587 274.851 70.323c0 0-1.19 4.031.445 5.685 14.707 14.88 29.925 33.36 46.13 53.783 3.59 4.526 9.935 1.484 9.935 1.484z"/>
    <path style="fill:#000;fill-opacity:1;stroke:none" d="M342.298 114.66a5.468 5.587 0 0 1-10.936 0 5.468 5.587 0 1 1 10.936 0z"/>
    <path d="M419.96 33.21c9.07 219.45-36.25 385.95-189.45 497.1C146.04 469.02 94.36 390.9 66.52 296.34a557.24 557.24 0 0 1-5.87-21.54c-11.45-45.69-17.77-95.02-19.88-147.94-1.2-30.06-1.05-61.28.29-93.65h378.9m.92-.95H40.14l-.04.92c-4.82 116.66 6.28 211.36 33.93 289.52 30.51 86.24 81.51 154.41 155.91 208.39l.56.41.56-.41c74.4-53.98 125.4-122.15 155.91-208.39 27.65-78.16 38.75-172.86 33.93-289.52l-.04-.92z"/>
</svg>
