<svg width="471.58" height="594.09" xml:space="preserve" xmlns="http://www.w3.org/2000/svg">
    <style>
        .st0{fill:#2172dc}.st1{clip-path:url(#SVGID_2_)}.st2{clip-path:url(#SVGID_4_);fill:#2172dc}.st3{clip-path:url(#SVGID_6_)}.st4{clip-path:url(#SVGID_8_);fill:#b4a76c}.st5{clip-path:url(#SVGID_10_)}.st6{clip-path:url(#SVGID_12_);fill:#b4a76c}.st7{clip-path:url(#SVGID_14_)}.st8{clip-path:url(#SVGID_16_)}.st9{clip-path:url(#SVGID_18_);fill:#e0e4e8}
    </style>
    <g stroke-width="10.961">
        <path d="M471.45 0c2.192 204.97-20.826 416.52-233.47 594.09C24.24 416.52-2.07 203.87.12 0z" fill="#2172dc"/>
        <path d="M234.69 146.88v93.169l94.266-89.881 115.32 120.67c8.769-37.268 10.294-45.419 15.774-79.398L332.24 54.8z" fill="#b4a76c"/>
        <path d="M234.69 333.22v93.169l95.362-89.881 63.574 66.863c15.346-30.691 18.634-37.268 29.595-65.767l-89.881-95.362z" fill="#b4a76c"/>
        <path d="M233.59 10.961c-38.364 26.307-67.959 64.671-74.536 92.073-16.442 66.863 43.844 84.401 49.325 225.8-12.057-114-47.133-155.65-73.439-185.24C96.576 105.23 46.155 124.96 33 164.42c-26.307 77.824 41.652 156.74 99.746 154.55-10.961-9.865-25.211-29.595-23.018-47.133 4.384-33.979 35.076-38.364 51.517-21.922 16.442 16.442 26.307 80.016 26.307 80.016h-17.538v43.844h14.249s-7.673 37.268-32.883 36.172c-15.346-1.096-23.018-14.249-20.826-26.307-7.673 2.192-21.922 23.018-19.73 40.556 4.384 31.787 48.229 44.941 69.055 14.249 9.865-14.249 19.73-28.499 25.211-62.478-4.384 55.902-19.73 62.478-25.211 110.71-2.192 30.691 42.748 60.286 53.709 64.671z" fill="#e0e4e8"/>
    </g>
</svg>
