<svg xmlns="http://www.w3.org/2000/svg" viewBox="0 0 243.283 317.989" height="1201.847" width="919.493">
    <g style="display:inline">
        <path style="display:inline;opacity:1;vector-effect:none;fill:#fff;fill-opacity:1;stroke:#00a0ae;stroke-width:.0478017;stroke-linecap:butt;stroke-linejoin:miter;stroke-miterlimit:4;stroke-dasharray:none;stroke-dashoffset:0;stroke-opacity:1" d="M62.8 604.775c-51.85.121-103.7.237-155.55.629-.933 9.513-.193 19.223-.28 28.811.408 18.298.037 36.655 2.087 54.873 2.814 31.021 8.625 62.126 21.282 90.753 14.76 34.406 33.745 67.063 57.197 96.286C.506 892.378 14.45 907.9 29.134 922.59c6.337-5.041 11.887-11.071 17.724-16.69 38.45-38.52 68.835-85.61 85.364-137.629 8.901-28.02 13.907-57.156 16.808-86.37 1.568-17.646.899-35.394.801-53.086-.295-8.056-.027-16.26-1.155-24.214l-85.876.173z" transform="translate(93.226 -604.602)"/>
        <path transform="matrix(.26458 0 0 .26458 93.226 -604.602)" d="M237.354 2285.765c-195.968.458-391.938.896-587.902 2.374-3.53 35.956-.732 72.656-1.064 108.894 1.545 69.16.143 138.539 7.892 207.393 10.635 117.247 32.598 234.808 80.433 343.006 55.787 130.038 127.543 253.465 216.179 363.914 49.02 61.421 101.721 120.088 157.221 175.61 23.95-19.05 44.925-41.841 66.987-63.081 145.323-145.583 260.163-323.563 322.638-520.169 33.642-105.9 52.562-216.023 63.524-326.436 5.928-66.698 3.397-133.775 3.03-200.642-1.116-30.45-.103-61.453-4.368-91.519l-324.57.656zm-273.915 136.973c4.56 21.365 1.822 44.051 5.589 65.485 20.652 4.915 43.097 4.066 63.3 8.918-8.677 21.655-22.918 41.007-31.874 62.324 16.167 12.456 36.205 19.522 52.676 31.546-28.248 14.744-58.329 26.823-88.318 37.829-5.63 3.426-11.413.916-15.525-3.516-32.12-31.308-51.888-76.39-49.42-121.523.327-3.422.466-10.335 5.09-8.767-.518-5.961 6.664-10.634 9.363-15.65 15.97-19.154 31.696-38.916 49.12-56.646zm384.908 68.878c11.389-1.402 12.785 12.418 16.895 19.816 3.363 6.141 7.49 13.676 14.009 16.28 27.304 1.32 54.875-.097 82.02 3.19 6.56 1.822 4.678 10.225.542 13.767-5.291 8.039-16.984 15.693-12.835 26.693 5.428 16.731 9.851 34.603 7.938 52.087-3.908-1.3-7.398-7.745-11.632-6.191-4.13 30.05-2.619 60.695-3.377 90.993-1.353 11.555 3.668 25.151-5.477 34.255-6.533 8.898-18.236 16.032-29.364 11.236-11.86-3.774-30.195-3.804-34.282-18.437-4.353-18.67-2.806-39.675-15.11-55.804-5.77-7.999-9.718-18.746-18.188-24.118-4.735 7.048-4.404 17.08-7.083 25.174-4.828 27.245-14.84 53.315-19.45 80.554 2.008 27.718 4.907 55.437 8.33 83.008.46 5.436 3.645 10.581 9.76 10.647 25.398 9.674 51.808 17.446 76.202 29.356 9.689 7.525 5.374 21.775 6.512 32.29-.653 9.943 1.373 20.726-5.706 28.672-13.818 19.959-26.589 40.821-41.403 59.983-22.85 9.674-46.492 18.096-70.56 24.158-8.868-.935-10.147-12.98-5.932-19.225 3.86-7.532 6.34-17.226 13.392-22.352 11.538-2.49 23.504-1.243 35.173-1.983 17.665-16.965 29.135-40.595 33.22-64.3-26.331-.687-53.25 3.296-79.213-1.878-10.137-3.95-20.8-10.19-32.026-6.01-10.263 2.465-10.844 15.464-14.814 23.371-16.406 50.421-29.1 102.07-38.258 154.29 3.604 14.23 4.998 29.618 9.861 43.187 11.642 13.158 26.285 24.127 35.569 39.177 1.832 6.261-8.276 5.865-11.92 6.592-12.41.486-25.317 2.99-37.511.163-9.416-6.393-4.672-20.425-9.693-29.238-7.556-4.37-18.559-8.374-18.18-19.001-2.472-44.898.139-89.966-.814-134.93-1.05-36.026.704-72.538-5.787-108.136-12.783-56.682-53.65-101.572-95.303-139.724-26.264-24.518-58.119-41.873-85.37-65.048-4.75-3.803 2.973-7.886 6.523-6.889 45.348-7.042 95.23-6.764 134.056-34.648 9.225-11.329 11.348-26.81 19.328-39.047 25.53-45.438 69.326-79.376 117.83-97.365 26.283-9.502 54.238-13.895 82.128-14.615zm-479.818 33.039c-.598 15.921-2.084 32.533-1.732 48.755-.827 22.188 1.064 44.616 9.285 65.433 12.838 37.466 37.518 71.226 71.607 91.975 51.496 31.935 100.749 69.738 137.157 118.708 19.17 27.09 32.197 59.045 32.17 92.573 1.014 52.677-11.13 105.512-32.779 153.41-16.117 32.709-42.223 59.392-69.902 82.575-2.378 2.669-7.097.213-3.881-3.175 13.7-35.808 22.634-73.664 22.494-112.169.752-27.046-.022-54.994-11.763-79.958-11.435-26.07-29.928-49.365-52.924-66.155-14.858-10.402-33.841-11.563-51.06-7.528-27.087 3.717-54.027 10.37-81.354 11.298-16.414.029-36.078-11.828-35.1-30.117-1.228-17.084 4.16-36.3-7.143-51.136-3.035-6.55-13.62-14.325-6.504-21.705 6.725-4.751 4.681-7.893-1.987-10.243-6.763-4.13-9.81-13.048-5.623-20.198.67-5.82 8.124-15.32 1.05-19.69-8.525-3.896-22.936-5.619-23.87-17.352-.55-12.163 10.92-20.624 16.422-30.442 10.78-16.44 24.995-31.374 31.79-50.046 3.402-24.197-3.328-49.988 7.94-72.816 10.792-28.57 30.999-53.164 54.9-71.783.251-.093.524-.263.807-.214z" style="opacity:1;vector-effect:none;fill:#00a0ae;fill-opacity:1;stroke:none;stroke-width:.18066844;stroke-linecap:butt;stroke-linejoin:miter;stroke-miterlimit:4;stroke-dasharray:none;stroke-dashoffset:0;stroke-opacity:1"/>
    </g>
</svg>
