<svg width="471.58" height="693.44" viewBox="30.5 31.5 471.58 693.44" xml:space="preserve" xmlns="http://www.w3.org/2000/svg">
    <path d="M262.3 719.2a61.112 61.112 0 0 0-21.767-21.577c-12.643-6.628-10.219-6.424-91.215-7.095-79.287-.642-77.944-.555-88.806-6.073a60.367 60.367 0 0 1-27.096-31.607l-2.38-6.35-.277-230.56-.263-230.56h45.637c44.147 0 45.578 0 43.972-1.826a8.76 8.76 0 0 1 1.343-11.679l3.008-3.095-3.183-9.402h-4.73c-5.84 0-9.066-2.92-9.066-8.131 0-4.38 2.423-6.687 9.986-9.767 6.365-2.599 9.183-5.387 8.51-8.438-.247-1.183-2.568-12.935-5.123-26.132s-4.935-24.293-5.27-24.658a14.234 14.234 0 0 0-6.366 1.679 47.841 47.841 0 0 1-5.737 2.146c0-.117-1.781-6.249-3.956-13.636-2.176-7.387-3.87-13.49-3.752-13.577a43.797 43.797 0 0 1 12-3.635 54.863 54.863 0 0 1 1.678 5.489 17.519 17.519 0 0 0 1.986 5.212 14.599 14.599 0 0 0 8.03-2.482 51.418 51.418 0 0 0-1.46-5.577 51.608 51.608 0 0 1-1.46-5.606 43.023 43.023 0 0 1 14.015-4.278 17.256 17.256 0 0 1 1.985 5.198c.715 2.628 1.46 5.066 1.635 5.416a13.869 13.869 0 0 0 8.263-2.102 51.097 51.097 0 0 0-1.46-5.548 16.059 16.059 0 0 1-1.05-5.49 40.877 40.877 0 0 1 11.926-2.831c.336.394 7.548 24.483 7.548 25.183a18.789 18.789 0 0 1-5.504 1.722c-3.022.672-5.504 1.65-5.504 2.146s8.906 22.366 10.424 25.417c0 .103 4.876-.86 10.745-2.116s15.636-3.095 21.723-4.074l11.066-1.766V61.694l-10.482.263-.817-12.76a87.39 87.39 0 0 1-.336-13.314 25.738 25.738 0 0 1 6.03-1.256c6.277-.847 6.613-.452 6.642 7.767 0 4.38 0 4.38 3.11 3.737a32.512 32.512 0 0 1 4.584-.627c1.168 0 1.46-1.256 1.124-6.249l-.336-6.248 15.475-.584v12.073h9.212l-.394-6.497-.409-6.496h12.468l.526 4.248c.277 2.336.803 8.409 1.138 13.49l.614 9.241h-6.132c-5.387 0-6.073.22-5.62 1.752.277.964 1.46 7.037 2.686 13.49l2.146 11.679h45.505l2.146-11.679c1.182-6.453 2.394-12.511 2.657-13.431.423-1.46-.38-1.737-5.3-2-5.489-.278-5.84-.423-5.62-2.803.102-1.372.481-7.3.846-13.241l.672-10.745h12.993l-.35 6.248-.35 6.249 4.116.306c4.044.292 4.117.248 4.73-3.489a49.243 49.243 0 0 0 .643-6.292c0-2.482.073-2.497 7.591-2.16l7.577.335-.336 6.117-.336 6.117 3.898.817a9.548 9.548 0 0 0 4.38.278 25.446 25.446 0 0 0 .964-6.453c.481-6.613-.614-6.102 9.504-4.511l3.81.599-.54 5.182c-.292 2.92-.818 9.037-1.139 13.752l-.613 8.57-4.672-.73a11.869 11.869 0 0 0-5.328-.073 75.784 75.784 0 0 0-.103 13.752l.555 13.139 13.606 2.204c7.475 1.212 17.125 3.022 21.431 4.015l7.84 1.81 2.715-6.131a123.04 123.04 0 0 0 8-20.001 47.593 47.593 0 0 0-6.014-1.738l-5.606-1.46 3.606-12.176a125.92 125.92 0 0 1 4.19-12.745 21.052 21.052 0 0 1 11.913 2.92 38.819 38.819 0 0 1-1.46 6.103c-.818 2.7-1.46 4.963-1.46 5.036a16.147 16.147 0 0 0 2.744.672 33.753 33.753 0 0 1 4.38 1.168c1.226.482 1.942-.7 3.27-5.49s2.03-6 3.431-5.605a470.13 470.13 0 0 1 7.3 2.204l5.606 1.708-3.592 11.68 2.175.817c6.453 2.423 6.22 2.525 8.132-3.796l1.796-5.84 5.84 1.986a18.512 18.512 0 0 1 5.839 2.613c0 .934-7.197 25.607-7.606 26.074a21.315 21.315 0 0 1-6.015-1.767 25.329 25.329 0 0 0-5.985-1.854c-.92.92-10.365 52.557-9.942 54.25.35 1.46 2.92 3.183 8.525 5.68 8.687 3.897 10.686 6.423 9.49 11.912-.832 3.782-4.015 5.84-9.037 5.84-3.956 0-4.204.19-5.84 4.277-2.116 5.548-2.131 5.446 1.358 8.76a6.95 6.95 0 0 1 .818 10.672l-2.176 2.306h91.317l-.262 230.56-.234 230.58-2.599 7.096a55.228 55.228 0 0 1-35.87 34.585c-6.394 2.16-7.606 2.204-81.433 2.759-67.506.51-75.36.73-79.273 2.277a60.484 60.484 0 0 0-30.848 24.98 28.731 28.731 0 0 1-5.24 6.744 18.862 18.862 0 0 1-4.088-5.723zm134.92-534.32a251.44 251.44 0 0 0-31.476-9.986 394.17 394.17 0 0 0-98.908-11.679 395.87 395.87 0 0 0-88.952 9.227 336.74 336.74 0 0 0-41.476 11.898c-.876.51 53.783.89 129.65.905 72.148.102 131.16-.073 131.16-.277z" fill="#0050b5"/>
    <path d="M45.216 664.81c-4.307-.964-5.037-1.533-7.139-5.694a71.448 71.448 0 0 1-3.927-9.985l-1.591-5.358 2.233.613a128.33 128.33 0 0 0 56.192-1.212c6.6-1.679 16.06-3.591 20.98-4.248a155.9 155.9 0 0 1 44.468 2.088 123.68 123.68 0 0 0 40.994 5.328 114.4 114.4 0 0 0 23.986-1.576 159.13 159.13 0 0 1 37.957-6.395 125.55 125.55 0 0 1 39.417 3.81 135.1 135.1 0 0 0 69.448.336 139.79 139.79 0 0 1 67.594-.554 130.02 130.02 0 0 0 60.571 2.598l3.723-.715-1.562 5.358c-2.774 9.504-5.08 13.78-8.015 14.89a123.74 123.74 0 0 1-34.337 1.023 189.79 189.79 0 0 1-18.979-3.563 181.03 181.03 0 0 0-17.898-3.533 132.47 132.47 0 0 0-49.987 3.446 140.97 140.97 0 0 1-65.447.934 136.3 136.3 0 0 0-72.44-.963 136.78 136.78 0 0 1-72.28-.614 133.04 133.04 0 0 0-67.156 1.227 96.719 96.719 0 0 1-26.964 3.416 122.18 122.18 0 0 1-19.81-.686zm4.292-44.454c-2.482-.16-7.533-.803-11.24-1.46l-6.746-1.11v-18.978l2.745.584c1.46.306 7.737 1.08 13.84 1.708a123.81 123.81 0 0 0 45.009-4.249 97.974 97.974 0 0 1 34.322-3.27 95.886 95.886 0 0 1 35.038 3.46 92.937 92.937 0 0 0 33.972 3.446 97.711 97.711 0 0 0 30.965-2.672 110.95 110.95 0 0 1 41.622-4.497 106.72 106.72 0 0 1 28.833 3.066 121.04 121.04 0 0 0 41.242 4.38 103.92 103.92 0 0 0 28.205-3.708 106.43 106.43 0 0 1 30.483-3.723 119.79 119.79 0 0 1 41.958 4.263 144.53 144.53 0 0 0 58.206.817c2.219-.598 2.248-.481 2.248 8.964v9.577l-4.248 1.285a126.52 126.52 0 0 1-24.731 1.285 97.653 97.653 0 0 1-33.797-3.314 138.4 138.4 0 0 0-69.126 0 100.03 100.03 0 0 1-34.468 3.343 100.73 100.73 0 0 1-34.352-3.285 138.4 138.4 0 0 0-69.097 0 99.843 99.843 0 0 1-34.44 3.314 98.047 98.047 0 0 1-34.234-3.343 137.81 137.81 0 0 0-68.177-.132 183.95 183.95 0 0 1-22.483 4.015 102.35 102.35 0 0 1-21.475.336zm-7.49-45.958c-1.649-.263-4.686-.905-6.744-1.46l-3.752-.978v-19.052l2.745.7a133.57 133.57 0 0 0 42.527 1.46c3.956-.598 11.46-2.13 16.672-3.43a138.25 138.25 0 0 1 65.447-.964 134.08 134.08 0 0 0 68.995 1.562c6.628-1.62 16.059-3.489 20.979-4.146a172.44 172.44 0 0 1 42.92 1.46 129.61 129.61 0 0 0 42.966 5.986 92.426 92.426 0 0 0 28.483-2.745 139.84 139.84 0 0 1 45.46-5.27 111.16 111.16 0 0 1 27.316 3.606 211.53 211.53 0 0 0 21.972 4.16 133.83 133.83 0 0 0 36.892-1.46l5.24-1.357v19.417l-5.737 1.3a136.19 136.19 0 0 1-23.227 1.226 99.142 99.142 0 0 1-26.979-2.336 123.62 123.62 0 0 0-41.476-5.446 89.492 89.492 0 0 0-30.965 3.256 143.63 143.63 0 0 1-71.448.745 137.23 137.23 0 0 0-73.944 1.007 95.084 95.084 0 0 1-28.979 2.788 121.17 121.17 0 0 1-39.417-4.876A145.58 145.58 0 0 0 113 566.91a208.58 208.58 0 0 0-20.979 4.219 96.354 96.354 0 0 1-29.475 3.402c-9.635.16-18.847.087-20.439-.176zm137.39-31.359c-3.576-.423-11.211-1.942-16.992-3.387a159.13 159.13 0 0 0-16.06-3.226c-5.124-.555-5.678-.862-6.715-3.723a107.3 107.3 0 0 0-5.591-10.935l-4.468-7.825 3.694.554c5.562.847 30.994 3.373 45.666 4.526a1698 1698 0 0 0 227.82 1.562l20.98-1.46c7.693-.554 16.058-1.284 18.452-1.65l4.467-.642-4.467 5.198a107.39 107.39 0 0 0-11.197 16.22 17.971 17.971 0 0 1-6.745-.745 140.63 140.63 0 0 0-58.95 2.102 141.61 141.61 0 0 1-65.448.978 137.23 137.23 0 0 0-32.483-5.138 133.29 133.29 0 0 0-39.972 4.16 145.99 145.99 0 0 1-51.958 3.46zm84.427-24.001c-18.687-.38-38.687-.993-44.47-1.358l-25.985-1.664c-22.935-1.46-66.104-5.84-68.747-6.95a77.784 77.784 0 0 1-9.548-6.583l-7.3-5.62-39.066.35-14.132-11.68c-7.767-6.394-14.132-11.869-14.132-12.176 0-.744 15.679-21.198 49.199-64.236 8.905-11.43 37.622-48.454 66.63-85.915l33.403-43.126-.395-6.175a52.031 52.031 0 0 1 2.511-24.118c1.46-3.737 2.555-6.964 2.555-7.168 0-.204-.905-.38-2-.38s-2-.671-2-1.46c0-.788.336-1.46.76-1.46.422 0 9.737 1.767 20.73 3.913s20.132 3.767 20.307 3.577c.175-.19.54-5.65.803-12.161.599-15.3 1.24-20.322 2.599-20.322.773 0 .92 4.92.496 16.789l-.613 16.789 21.899 5.416a112.41 112.41 0 0 1 21.592 6.453c-.19.57-1.708.89-3.402.715-2.438-.248-3.489.292-5.197 2.701-8.365 11.752-8.497 26.512-.394 46.717 2.146 5.358 3.007 6.453 5.606 7.124 4.233 1.095 5.066 3.665.876 2.745-2.92-.642-3.212-.394-5.533 4.204a50.133 50.133 0 0 0-5.3 27.738c1.285 22.847 12.818 50.644 21.417 51.651 3.49.395 2.614 2.395-.905 2.074-2.496-.22-2.715.116-3.84 6a210.4 210.4 0 0 0-1.036 45.476 70.499 70.499 0 0 0 17.52 37.46l3.751 3.767 32.118-.554.686-8.993c.365-4.935 1.387-24.278 2.234-42.965.847-18.687 1.752-36.98 2-40.644.394-6 .204-6.906-1.912-9.037a19.11 19.11 0 0 0-7.3-3.635 16.906 16.906 0 0 1-6.716-3.198c-1.313-1.46-3.08-1.927-7.3-1.927a20.76 20.76 0 0 1-16.511-7.401 10.613 10.613 0 0 0-5.577-3.928c-5.24-1.05-3.664-2.92 1.825-2.175l4.876.672-1.577-6.322a113.14 113.14 0 0 1-1.59-24.818 95.609 95.609 0 0 1 2.204-27.475 93.974 93.974 0 0 1 7.299-21.08c1.168-1.548 0-2.41-3.314-2.41-1.883 0-2.832-.525-2.832-1.547s.89-1.46 3.606-1.255l3.606.292-.146-10.993a97.901 97.901 0 0 1 5.489-34.44 58.542 58.542 0 0 0 2.438-7.825c0-.584-1.314-1.343-2.92-1.693-1.606-.35-2.744-1.139-2.452-1.927s4.19-.54 17.11 2.058c9.139 1.84 16.993 3.344 17.43 3.344a34.425 34.425 0 0 0 1.066-10.468c0-5.84-.116-10.497-.248-10.497s-3.401.671-7.3 1.46a45.257 45.257 0 0 1-27.474-1.46 53.038 53.038 0 0 0-14.76-3.095h-5.738l2.92-1.563a31.213 31.213 0 0 1 21.68-.467 25.14 25.14 0 0 0 15.971.643c4.628-.818 9.986-1.942 11.898-2.511a27.519 27.519 0 0 1 4.497-1.022 47.374 47.374 0 0 1 1.284 14.7c.16 8.089.467 14.863.672 15.082.204.219 12.862 3.182 28.118 6.584a163.51 163.51 0 0 1 28.162 7.49c.306.919-.526 1.196-2.92.948-2.92-.306-3.562.073-5.562 3.635a57.768 57.768 0 0 0-5.592 25.505 61.739 61.739 0 0 0 5.417 24.088 22.147 22.147 0 0 0 5.489 1.358c2.92.423 4.38 1.139 4.38 2.132 0 .992-.789 1.343-3.256.905-2.92-.526-3.519-.19-5.592 2.92a80.426 80.426 0 0 0-.905 72.133c2.117 5.3 2.701 5.942 5.723 6.395 5.416.803 4.92 2.92-.671 2.774a34.366 34.366 0 0 0-10.803 2.16 27.183 27.183 0 0 1-22.366-1.46c-4.146-1.897-5.709-2.204-6.774-1.313s-3.548.92-7.971.467c-5.096-.526-7.125-.336-8.92.846-2.205 1.46-2.336 2.176-2.628 14.6-.263 11.196-.088 13.007 1.24 13.007 1.33 0 75.04-24.41 97.815-32.366a39.563 39.563 0 0 1 7.766-2.248 22.774 22.774 0 0 1-2.16 5.84 70.543 70.543 0 0 0 8.438 73.623l5.037 6.044-3.256.525c-3.343.54-70.251 4.015-99.828 5.198l-16.657.51-.599 2.92c-1.46 7.548-2.642 7.11 16.891 6.41l17.52-.643.116 2.22c0 1.225.175 2.919.248 3.722.19 2.088 4.059 2.307 25.36 1.46l18.233-.7v-2.25c0-2.291.278-2.393 6.935-2.393 6.424 0 6.949.16 7.3 2.248.35 2.088.642 2.248 12.058 2.234 11.416-.015 11.68 0 11.68 2.204a39.505 39.505 0 0 1-5.008 13.796c-.89.555-41.958 3.869-60.44 4.876-31.665 1.752-86.032 2.409-127.92 1.577zm68.864-7.548a3.314 3.314 0 0 0 1.591-2.993c0-2.335-.204-2.394-8.497-2.394s-8.496 0-8.496 2.424c0 1.328.555 2.642 1.255 2.92a46.717 46.717 0 0 0 14.146 0zm-64.367-3.401v-2.993h-7.884c-7.3 0-7.927.175-8.438 2.175a5.066 5.066 0 0 0 0 2.993 25.067 25.067 0 0 0 8.438.817h7.942zm33.665.248c-.365-2.716-.467-2.745-8.526-3.051l-8.16-.307v6.103h17.051zm64.864 1.168a10.307 10.307 0 0 1-.613-3.037c0-1.168-1.46-1.46-7.738-1.168-7.62.278-7.752.336-8.059 3.037l-.306 2.744h8.672c7.489.015 8.57-.19 8.044-1.562zm33.023.219a12.949 12.949 0 0 0-.365-2.92l-.54-2.803-7.11.496-7.869.555c-.788 0-1.051 4.38-.307 5.154a112.41 112.41 0 0 0 16.205-.468zm-164.17-1.139c1.168-3.066-.438-4.496-5.212-4.613-2.555 0-6.102-.278-7.883-.497-3.008-.35-3.256-.16-3.256 2.555 0 2.716.306 2.92 4.248 3.314 9.592.876 11.533.745 12.103-.759zm194.98-2.496c0-2.453-.132-2.497-8-2.497h-8l-.643 5.577 8.321-.292c8.147-.277 8.322-.336 8.322-2.774zm-226.29-.876c0-2.92 0-2.92-7.738-3.373-4.263-.277-7.825-.452-7.912-.38a19.636 19.636 0 0 0-.847 2.804c-.613 2.452-.394 2.715 2.671 3.08 1.84.22 5.694.482 8.585.57 5.153.16 5.24.116 5.24-2.701zm-29.738-2.57c.54-2.803-.862-3.314-10.22-3.722-5.27-.234-5.503-.132-5.839 2.394-.35 3.007.774 3.43 9.928 3.65 5.226.13 5.664-.044 6.087-2.307zm117.65-6.306a96.923 96.923 0 0 0-21.9-15.212 122.79 122.79 0 0 0-32.774-10.57l-6.22-.701v15.022l4.249.57c2.336.306 8.175.875 12.979 1.225l8.76.672v7.533l13.24.964c18.044 1.314 21.738 1.46 21.723.525zm-204.05-2.234a34.789 34.789 0 0 0 11.679-.847 91.492 91.492 0 0 0-16.06-6.7l-6.19-2.264-2.627 4.818c-3.037 5.591-3.212 6.482-1.051 5.65a104.66 104.66 0 0 1 14.19-.599zm-15.344-5.65a21.3 21.3 0 0 0 2.336-4.92c-.584-.584-25.008-6.482-25.36-6.131a159.99 159.99 0 0 0 19.637 15.65 14.103 14.103 0 0 0 3.357-4.585zm140.92-.102.628-3.752 13.898.671v-7.577c0-5.679-.336-7.576-1.344-7.576a58.513 58.513 0 0 0-17.825 7.11c-5.533 3.547-13.24 11.84-12.088 12.978a20.643 20.643 0 0 0 6.774 1.139c3.3.204 6.745.453 7.65.555 1.212.131 1.854-.876 2.307-3.562zm-22.44 1.328c0-.219-1.46-4.38-3.372-9.24a123.65 123.65 0 0 1-4.058-84.033c2.57-6.847 2.482-8.234-.628-8.234-1.066 0-1.942-.452-1.942-.993 0-.54 1.358-.992 2.993-.992a8.89 8.89 0 0 0 2.993-.248c0-.146-1.46-4.293-3.402-9.227l-3.387-8.978-6.657 13.752c-18.395 37.957-23.169 72.995-13.665 100.03a47.053 47.053 0 0 0 2.526 6.336 158.56 158.56 0 0 0 28.585 1.854zm-36.088-4.38a49.184 49.184 0 0 0-44.381-8.233c-8.38 2.306-12.132 3.927-9.46 4.087.817 0 11.84 1.373 24.483 2.92 12.643 1.548 24.95 2.92 27.359 2.92l4.38.102zm-67.01-9.766a36.702 36.702 0 0 0-22.468-9.344c-6.176 0-20.117 3.548-18.862 4.804.774.773 38.57 7.898 42.834 8.058 2.817.073 2.803.044-1.504-3.518zm52.878-57.622c21.3-28.468 38.629-52.308 38.54-52.965-.087-.657-.7-3.898-1.357-7.197a79.185 79.185 0 0 1 13.49-54.863l3.3-3.606-2.395-.599c-3.518-.876-2.92-2.745.613-2.03a8.76 8.76 0 0 0 2.993.336c0-.613-5.723-13.752-6.19-14.219a208.77 208.77 0 0 0-26.57 33.782c-37.125 53.71-66.163 118.63-67.813 151.61l-.482 9.49 3.577-3.986c1.971-2.204 20.993-27.3 42.337-55.768zm134.12-19.183a73.112 73.112 0 0 0-18.497-12.278 138.5 138.5 0 0 0-23.504-9.183 17.519 17.519 0 0 0-.935 7.913c0 7.84 0 7.912 2.745 8.467 1.46.307 9.942 1.679 18.745 3.037l18.482 2.92 3.372.54c.438-.015.278-.643-.423-1.475zm-45.155-14.6-.292-7.4-5.84.306a81.915 81.915 0 0 0-12.979 2.146c-8.57 2.19-19.694 7.051-17.782 7.766a315.75 315.75 0 0 0 36.395 5.242 23.796 23.796 0 0 0 .497-8.06zm162.05 5.665a166.11 166.11 0 0 0-28.483-19.68 47.053 47.053 0 0 0-17.884-5.84 50.104 50.104 0 0 0-.789 8.92l-.32 8.439 16.992 3.255c9.344 1.796 18.98 3.665 21.475 4.176 5.125 1.036 9.008 1.343 9.008.7zm-51.184-18.307.292-8.234h-9.095a73.36 73.36 0 0 0-13.475 1.11c-4.643 1.168-12.833 7.3-12.22 9.226a174.87 174.87 0 0 0 32.192 6.322c1.795-.146 2.029-.993 2.292-8.41zm-80.295-64.03a74.455 74.455 0 0 0-22.278-13.607c-2.263-.686-2.292-.584-2 6.073l.292 6.774 14.497 3.636a114.38 114.38 0 0 0 14.993 3.211 26.147 26.147 0 0 0-5.504-6.087zm-27.315-8.278c.248-4.38 0-6.263-.993-6.628a70.411 70.411 0 0 0-23.49 2.759 18.526 18.526 0 0 0-6.365 2.628c.51.51 27.344 7.182 29.344 7.3.832 0 1.387-2.264 1.606-6.103zm153.7 4.38a53.827 53.827 0 0 0-8.234-6.935 71.433 71.433 0 0 0-28.57-13.971l-5.226-.613.583 14.599 18.482 3.693c19.577 3.898 22.993 4.38 22.964 3.168zm-45.943-13.739a46.469 46.469 0 0 1 .248-6.248c.993-2.92-17.767 1.285-24.234 5.504-2.453 1.591-2.277 1.679 8.993 3.84 16.293 3.05 15.095 3.313 15.095-3.14zM123.04 181.47c-2.92-3.168-1.46-6.54 3.635-8.628a364.64 364.64 0 0 1 62.206-17.387 425.66 425.66 0 0 1 211.83 15.11c8.686 3.256 11.606 5.636 10.774 8.76-1.139 4.38-3.577 4.38-17.519-.555a357.27 357.27 0 0 0-72.178-16.876 411.97 411.97 0 0 0-179.86 16.059c-17.183 5.986-16.745 5.913-18.891 3.518zm-9.986-26.395a4.263 4.263 0 0 1-1.46-4.248c.394-3.562 5.154-6.16 22.818-12.468a380.61 380.61 0 0 1 131.61-20.964 391.94 391.94 0 0 1 100.92 11.431 217.07 217.07 0 0 1 54.016 19.329 4.263 4.263 0 0 1-1.138 6.76c-2.234 1.46-2.92 1.343-11.241-2.117a367.76 367.76 0 0 0-112.28-25.037 592.91 592.91 0 0 0-66.44.583 368.92 368.92 0 0 0-108.19 25.636c-6.395 2.803-6.307 2.803-8.628 1.11zm46.848-2.058a5.037 5.037 0 0 1 4.146-8.117 5.372 5.372 0 0 1 3.781 1.46 5.168 5.168 0 0 1 1.636 4.146 4.453 4.453 0 0 1-1.709 3.606 6.117 6.117 0 0 1-3.941 1.211 4.277 4.277 0 0 1-3.913-2.306zm204.55 1.168a6.263 6.263 0 0 1-1.197-3.796 6.73 6.73 0 0 1 1.183-3.708 5.241 5.241 0 0 1 4.116-1.942 5.504 5.504 0 0 1 3.373 1.256 3.095 3.095 0 0 1 1.46 1.912 5.84 5.84 0 0 1-.701 5.84 5.285 5.285 0 0 1-3.81 1.941 7.446 7.446 0 0 1-4.38-1.562zm-169.86-6.993a6.526 6.526 0 0 1-1.314-5.475 5.051 5.051 0 0 1 1.767-2.817 4.95 4.95 0 0 1 2.993-1.051 6.307 6.307 0 0 1 3.197.73 5.679 5.679 0 0 1 1.11 8.365 6.511 6.511 0 0 1-7.767.248zm135.89 0a5.84 5.84 0 0 1 1.022-8.35 5.27 5.27 0 0 1 6.774.437 4.964 4.964 0 0 1 .423 7.548 7.022 7.022 0 0 1-8.234.365zm-101.51-4.044a4.862 4.862 0 0 1-1.562-4.38c1.08-2.92 1.664-4.277 5.533-4.277a5.022 5.022 0 0 1 3.08 1.226c.993.774 1.46 1.562 1.46 3.956a4.978 4.978 0 0 1-1.357 3.344 4.876 4.876 0 0 1-3.752 1.46A4.73 4.73 0 0 1 229 143.22zm67.535 0a6.015 6.015 0 0 1 1.022-8.234 5.562 5.562 0 0 1 3.723-1.153 5.65 5.65 0 0 1 3.533 2.306 4.584 4.584 0 0 1 1.285 3.052 5.066 5.066 0 0 1-1.329 3.65 7.022 7.022 0 0 1-8.22.379zm-34.322-2.234a5.708 5.708 0 0 1 2.57-8.146 5.329 5.329 0 0 1 6.131 8.117 4.993 4.993 0 0 1-8.76 0zm-132.24-6.715c-.817-2.176-10.497-51.097-10.497-52.965 0-1.358 2.22-2.467 9.665-4.789 5.314-1.664 11.05-3.27 12.745-3.577l3.08-.569 21.17 51.564-3.986 1.226-5.68 1.767c-1.46.438-2.481-1.562-5.97-10.964-4.584-12.38-4.628-12.424-11.037-10.088-4.044 1.46-4.03 1.08-.453 15.563a34.483 34.483 0 0 1 1.65 10.103 16.672 16.672 0 0 1-3.694 1.65c-1.65.569-3.781 1.343-4.73 1.737-.949.394-1.956.233-2.277-.599zm7.869-40.337a9.139 9.139 0 0 0 3.62-2.117 49.797 49.797 0 0 0-1.737-5.475c-1.825-5.153-1.737-5.124-7.97-2.788-2.147.803-2.176.963-.76 5.62a46.542 46.542 0 0 1 1.46 5.533c0 1.154 1.328.964 5.372-.715zm258.67 39.826c-2.715-.964-4.234-2.103-4.234-3.168a105.24 105.24 0 0 1 2.482-11.154c1.358-5.227 2.467-10.015 2.482-10.643 0-1.46-9.095-4.672-10.015-3.606-.35.408-2.365 5.474-4.467 11.24-2.103 5.767-3.928 10.644-4.088 10.833a38.22 38.22 0 0 1-11.402-2.701c0-.599 15.767-38.44 19.534-46.848 1.285-2.92 2.92-5.241 3.65-5.241a148.41 148.41 0 0 1 23.782 7.913c0 .759-9.592 49.009-10.497 52.805-.613 2.613-1.416 2.671-7.241.627zm5.066-41.198c.306-1.592.861-4 1.197-5.373.54-2.146.16-2.657-2.599-3.606-4.54-1.591-4.73-1.46-6.292 2.205-2.92 7.036-2.92 7.3.599 8.409 5.401 1.84 6.467 1.547 7.095-1.577zm-234.05 25.84c-1.46-4.774-.964-5.504 4.073-6.424l3.664-.671.89 4.38c.98 4.759.673 5.211-4.306 6.277-2.92.57-3.139.35-4.321-3.562zm193.01 3.372c-2.365-.452-2.92-3.226-1.606-8.088.526-1.97 1.051-2.204 3.737-1.65 4.555.964 5.066 1.855 3.373 6.074-1.694 4.219-2.03 4.38-5.504 3.65zm-13.14-2.744c-2.919-.57-5.357-1.46-5.328-2.03s.321-2.73.672-4.847l.613-3.854 4.599.686c6.978 1.051 7.3 1.3 6.642 4.862-1.226 6.292-1.284 6.321-7.197 5.182zm-167-3.592a8.19 8.19 0 0 1-.306-4.993 13.708 13.708 0 0 1 5.285-1.124l4.467-.336.687 3.986a9.3 9.3 0 0 1 0 4.642 16.059 16.059 0 0 1-4.774 1.343l-4.19.687-1.139-4.205zm14.6.905a44.25 44.25 0 0 1-.934-5.007c-.468-3.402-.307-3.68 2.54-4.249a33.928 33.928 0 0 1 3.912-.613c1.066 0 1.183 9.986.132 10.015a19.723 19.723 0 0 0-2.92.613c-1.46.38-2.394.103-2.657-.773zm138.82.132c-2.832-.54-2.92-.774-2.657-5.066a24.03 24.03 0 0 1 .584-4.73 11.212 11.212 0 0 1 3.752.335l3.46.643-.847 4.584a29.198 29.198 0 0 1-1.11 4.73 15.957 15.957 0 0 1-3.182-.496zM205.32 89.058v-27.49l4.263-.643c4.963-.744 25.067-2.233 25.534-1.912s9.124 49.564 9.153 52.133c0 2.087-.408 2.248-5.84 2.248-6.905 0-6.394.818-8.175-13.285l-1.226-9.781-11.124.584.365 12.249c.365 11.679.277 12.249-1.606 12.249-1.095 0-4.073.277-6.628.642l-4.642.642zm20.439-15.928c-.847-6.41-1.343-6.979-5.606-6.57-3.066.292-3.402.642-3.606 3.81-.467 6.906.263 8 5.343 8h4.716zm91.697 42.512c-2.175-.424-2.248-.789-2.248-12.25 0-13.138 0-13.021-6.964-13.021-4.292 0-3.869-.993-6.102 14.73l-1.168 8.234h-6.95c-6.131 0-6.89-.205-6.452-1.752.277-.964 2.657-13.285 5.3-27.402l4.802-25.651 7.022.496a150.37 150.37 0 0 1 21.096 2.613c.22.22.701 12.614 1.052 27.548l.744 27.213-3.898-.131a50.367 50.367 0 0 1-6.16-.57zm-.336-42.95-.306-5.738-9.198-.613-.613 5.183a18.979 18.979 0 0 0-.088 6.044 11.343 11.343 0 0 0 5.519.846h4.993zm-69.14 35.972c-1.008-6.117-.935-6.249 3.357-6.249h3.985v10h-3.372c-3.11 0-3.416-.292-3.985-3.752zm12.35-1.256v-5.007h12v10h-12zm16.993 0v-5.007h4.117c4.088 0 4.117 0 3.49 3.124a32.906 32.906 0 0 0-.629 5.007c0 1.46-.744 1.869-3.489 1.869h-3.489zm-114.76-1.46a19.928 19.928 0 0 1-1.153-4.146 35.154 35.154 0 0 1 15.986-3.723 11.811 11.811 0 0 1 1.46 4.044c.73 3.504 1.46 3.11-11.051 6.044-4.03.935-4.132.905-5.256-2.204zm196.9.672c-5.562-1.46-6.248-1.825-5.766-3.635a18.687 18.687 0 0 0 .569-3.81c0-2.234 2.452-2.249 11.679-.103l7.183 1.679-1.957 3.825c-2.19 4.292-2.51 4.35-11.708 2.044zm-175.38-5.84a10.103 10.103 0 0 1-.146-4.146 99.361 99.361 0 0 1 15.71-3.11c1.386 0 1.751.803 1.751 3.957a10.103 10.103 0 0 1-.409 3.985c-.219 0-3.927.672-8.234 1.46l-7.956 1.46a28.176 28.176 0 0 1-.745-3.664zm155.22 2.073-7.737-1.314a18.249 18.249 0 0 1-.249-4.19v-4.131l3.752.584c2.059.321 6.074.876 8.92 1.24l5.169.672-.555 3.636a12.088 12.088 0 0 1-1.168 4.204 28.745 28.745 0 0 1-8.117-.686zm-64.236-5.11-5.737-.364v-7.884h9.562c8.628 0 9.519.175 9.095 1.752-.262.964-.759 2.92-1.08 4.497-.496 2.233-1.11 2.715-3.343 2.569-1.475-.175-5.329-.423-8.497-.628zm-29.724-2.642a13.781 13.781 0 0 0-.613-4.03c-.526-1.371.642-1.59 8.832-1.59h9.446l-.219 3.752-.219 3.752-8.613.292c-8.555.233-8.614.146-8.614-2.234zm-142.82-24.366a101.55 101.55 0 0 1-2.788-9.912 16.891 16.891 0 0 1 2.92-.876c2.481-.614 2.744-.322 4.38 4.671.963 2.92 1.868 5.475 2.029 5.665a39.067 39.067 0 0 0 14.438-5.46 13.694 13.694 0 0 0-.847-3.548c-2.292-6.19-2.234-7.577.263-8.205 1.313-.335 3.065-.861 3.898-1.168 1.124-.423 1.897.818 3.124 4.993 1.08 3.694 2.146 5.563 3.197 5.563a80.105 80.105 0 0 0 13.139-3.519 22.249 22.249 0 0 0-1.24-5.533 22.307 22.307 0 0 1-1.242-5.591 14.146 14.146 0 0 1 3.285-.905l2.92-.599 2.744 9.183a70.835 70.835 0 0 1 2.453 9.416c-.16.132-5.694 1.694-12.292 3.49-6.599 1.795-17.592 5.24-24.439 7.65s-12.57 4.38-12.687 4.38-1.577-4.351-3.256-9.695zm309.67 4.657c-7.416-2.613-18.205-6-23.986-7.518-5.781-1.518-10.584-2.818-10.686-2.92-.102-.102 1.051-4.146 2.599-9.066 2.92-9.197 4.38-10.876 8.058-8.526 1.27.818 1.241 1.62-.219 6.19a31.797 31.797 0 0 0-1.46 5.387c.117 0 3.475 1.051 7.446 2.175l7.3 2.059 1.708-5.62c.934-3.096 1.766-5.723 1.825-5.84a15.767 15.767 0 0 1 3.795.788c4.176 1.153 4.38 1.723 2.088 8.292a16.57 16.57 0 0 0-1.255 5.066 55.243 55.243 0 0 0 14.876 3.825 26.862 26.862 0 0 0 1.897-5.475c1.285-4.759 2.833-5.84 5.84-3.868 1.08.686.788 2.627-1.46 10.219a33.49 33.49 0 0 1-3.825 9.49 129.46 129.46 0 0 1-14.526-4.658zm-217.2-21.183c-1.84-15.183-1.81-15.65.934-16.336a5.956 5.956 0 0 1 2.92-.277 68.688 68.688 0 0 1 1.46 10.614c0 1.46 4.146 1.606 11.475.613l4.701-.642-.671-6.35-.672-6.351h7.971l.672 6 .671 6h4.818a48.819 48.819 0 0 0 7.694-.584c2.832-.57 2.92-.657 2.54-6.57l-.336-5.985 3.256.32c3.591.351 3.343-.393 4.262 12.425l.511 7.11-13.665.7c-7.518.38-18.614 1.343-24.658 2.117s-11.533 1.46-12.176 1.46c-.642 0-1.43-1.927-1.708-4.263zm127.8 2.716c-5.504-.672-15.957-1.577-23.227-1.986l-13.24-.759v-3.708c0-2.044.291-6.482.641-9.855.643-6.102.672-6.146 3.81-6.146h3.169l-.847 11.854 3.387.643a37.344 37.344 0 0 0 7.854.306l4.468-.321.613-11.475h7.883v12.716l4.643.642a72.075 72.075 0 0 0 7.942.643h3.3l.306-5.738c.306-5.84 1.591-7.3 4.642-5.387 1.066.686 1.197 2.92.628 10.497-.832 11.14 1.022 10.22-15.971 8.088z" fill="#b3a369"/>
</svg>
