<svg xmlns="http://www.w3.org/2000/svg" xml:space="preserve" viewBox="30.5 31.5 400 500" height="500" width="400">
    <path d="M230.44 531.14C156.12 477.22 105.18 409.12 74.7 322.98c-27.64-78.1-38.73-172.75-33.91-289.35l.02-.46h379.82l.02.46c4.81 116.6-6.28 211.24-33.91 289.35-30.48 86.14-81.42 154.24-155.74 208.16l-.28.2-.28-.2z" style="fill:#fff"/>
    <path d="M419.95 33.22c9.07 219.45-36.25 385.95-189.45 497.1C77.31 419.17 31.98 252.67 41.05 33.22h378.9m.92-.95H40.13l-.04.92c-4.82 116.66 6.28 211.36 33.93 289.52 30.51 86.24 81.51 154.41 155.91 208.39l.56.41.56-.41c74.4-53.98 125.4-122.15 155.91-208.39 27.65-78.16 38.75-172.86 33.93-289.52l-.04-.92z"/>
    <path style="fill:#000;stroke:none" d="M201.57 321.63c-.6 7.25 6.9 15 4 27.7-2.5 11.2-12.1 16.2-29.2 16.7l.2-6.3-5.5-.1c-.7-13.9 10.31-17.41 9.65-27.11-.24-3.6-.71-6.89-2.75-8.59l-5.3 6.4s-23.37-19.4-23.4-19.2c-1.7-1.8-3.4-3.6-4.6-7l-4.9 4.5c-9.6-10.3-18.87-18.91-17.87-32.31-7.54 3.63-3.5 10.63-18.2 11.08-13.99.44-22.51-16.01-22.68-25.71-.13-7.3 4.89-18.1 4.39-26.1-.7-9.4-1.55-10.6-5.75-22.17-.2-10.1 3.9-10.57 6-15.47l14.1-58.78c39.03-28.19 55.12-50.02 61.81-49.79.36.2 91.88 21.98 102.02 23.95 6.63 1.29 19.9 33.62 26.15 35.32 3.01 1.14 43.73 13.88 49.53 23.18 5.6 8.8 37.4 50.6 35.2 58.4l-19.3 71.5c-1.3 4.6 2.5 10 5.1 16.7-3.1 4.6-17 6-17 6s-.6 4.9 0 11.3c2 19.2-17.2 22.9-30.2 23.7l-.2-5.8h-5.4c.1-13.3 4.9-15 9.4-21.1 2.48-3.37 3.69-8.28 3.58-8.19 0 0-9.86 5.43-9.73 5.39l-8.14-4.1c-.76 8.18.1 11.8.3 18.3.1 3.7-7.3 18.8-32.5 17.8l-.1-5.7h-5.2c-1.9-17.3 17.4-22.6 18.5-31.5 1.02-2.23-5.91 2.9-13.5 5.3l-2.8-7.1-8.2 7.6s-8.5-4.98-10.98-4.42c-1.29 1.3.18 10.62-.12 22.02-.2 11-12.6 15.7-30.8 16.8l.1-5.6h-5.4c.1-13.3 7.3-15.4 9.8-23.4 1.2-3.9 1.35-12.93.03-13.76-2.63-1.67-12.03 3.96-12.03 3.96s-6.78-3.52-8.1-4.3z"/>
    <path style="fill:#fff;fill-opacity:1;stroke:none" d="M108.47 263.68c.37 4.07-3.09 7.09-5.06 6.84-2.9-.36-.51-4.55.41-8.28.8-3.22 4.34-1.96 4.65 1.44z"/>
    <path style="fill:#ffe000;fill-opacity:1;stroke:#000;stroke-width:1;stroke-linecap:butt;stroke-linejoin:miter;stroke-miterlimit:4;stroke-dasharray:none;stroke-opacity:1" d="M170.34 213.73c1.75.03 3.59 9.69 1.69 15.49-2.4 7.3-8.48 12.6-16.58 12.9-26.2-1.52-8.96-56.2-37.38-56.59-20.5-.29-22.33 6.28-34.92 16.28-7.28-4.89-9.13-17.91-4.94-28.22 4.27-10.51 8.51-18.4 11.27-23.84 7.01-13.83 16.18-18.21 19.61-17.24 32.28 9.13 36.82 49.36 42.52 87.36 1.3 8.4 8.16 11.4 11.79 5.91 5.26-7.95 4.84-12.09 6.94-12.06z"/>
    <path style="fill:#fff;fill-opacity:1;stroke:none" d="M115.42 210.12c-2.97-2.4 3.97-3.38 6.52-3.29 2.04.07 1.35 3.61-2.09 4.38-1.78.34-3.23.04-4.44-1.08z"/>
</svg>
