<svg xmlns="http://www.w3.org/2000/svg" width="400" height="500" viewBox="30.5 31.5 400 500" xml:space="preserve">
    <path style="fill:#e00e00" d="M230.45 531.13c-74.32-53.92-125.26-122.02-155.74-208.16-27.64-78.1-38.73-172.75-33.91-289.35l.02-.46h379.82l.02.46c4.81 116.6-6.28 211.24-33.91 289.35-30.48 86.14-81.42 154.24-155.74 208.16l-.28.2z"/>
    <path d="M419.96 33.21c9.07 219.45-36.25 385.95-189.45 497.1C146.04 469.02 94.36 390.9 66.52 296.34a557.24 557.24 0 0 1-5.87-21.54c-11.45-45.69-17.77-95.02-19.88-147.94-1.2-30.06-1.05-61.28.29-93.65h378.9m.92-.95H40.14l-.04.92c-4.82 116.66 6.28 211.36 33.93 289.52 30.51 86.24 81.51 154.41 155.91 208.39l.56.41.56-.41c74.4-53.98 125.4-122.15 155.91-208.39 27.65-78.16 38.75-172.86 33.93-289.52l-.04-.92z"/>
    <path d="M283.09 127.048c-.947-2.899-3.59-.93-3.341.817 5.17 36.315 11.047 81.11 15.2 108.23l3.233 21.103c.308 2.016.915 5.39 6.62 5.39h43.751c5.032 0 6.358-1.968 7.39-4.466 8.002-19.356 11.675-36.868 14.17-58.376 1.764-15.197 2.858-30.548 2.157-45.744-.116-2.518.05-3.682 1.54-4.775 3.111-2.282 6.483-5.988 3.08-8.625-22.2-17.212-43.186-35.145-62.994-53.908-2.342-2.218-.673-4.308-.616-6.469.06-2.25-3.002-2.376-3.85-1.848-3.785 2.36-4.707 3.602-8.474 9.706-1.01 1.638.734 3.95 2.619 5.699l44.666 41.431c7 6.494 9.865 19.464 6.777 36.5-3.483 19.21-7.07 38.506-13.554 57.759-.953 2.828-1.78 3.696-2.927 3.696H315.59c-2.382 0-3.294-1.81-3.696-3.542l-5.016-21.594c-.966-4.162 9.555-2.044 8.357-4.867-10.99-25.894-26.499-58.824-32.145-76.117zM89.09 127.048c-.947-2.899-3.59-.93-3.341.817 5.17 36.315 11.047 81.11 15.2 108.23l3.233 21.103c.308 2.016.915 5.39 6.62 5.39h43.751c5.032 0 6.358-1.968 7.39-4.466 8.002-19.356 11.675-36.868 14.17-58.376 1.764-15.197 2.858-30.548 2.157-45.744-.116-2.518.05-3.682 1.54-4.775 3.111-2.282 6.483-5.988 3.08-8.625-22.2-17.212-43.186-35.145-62.994-53.908-2.342-2.218-.673-4.308-.616-6.469.06-2.25-3.002-2.376-3.85-1.848-3.785 2.36-4.707 3.602-8.474 9.706-1.01 1.638.734 3.95 2.619 5.699l44.666 41.431c7 6.494 9.865 19.464 6.777 36.5-3.483 19.21-7.07 38.506-13.554 57.759-.953 2.828-1.78 3.696-2.927 3.696H121.59c-2.382 0-3.294-1.81-3.696-3.542l-5.016-21.594c-.966-4.162 9.555-2.044 8.357-4.867-10.99-25.894-26.499-58.824-32.145-76.117zM187.53 303.855c-.947-2.9-3.59-.93-3.341.817 5.17 36.315 11.047 81.11 15.2 108.23l3.232 21.103c.31 2.016.916 5.39 6.621 5.39h43.751c5.032 0 6.358-1.968 7.39-4.466 8.002-19.356 11.675-36.868 14.17-58.376 1.764-15.197 2.858-30.548 2.157-45.745-.116-2.517.05-3.68 1.54-4.774 3.11-2.283 6.483-5.988 3.08-8.625-22.2-17.212-43.186-35.145-62.994-53.908-2.342-2.218-.673-4.308-.616-6.469.06-2.25-3.003-2.376-3.85-1.848-3.785 2.36-4.708 3.602-8.474 9.706-1.01 1.638.734 3.95 2.618 5.699l44.666 41.431c7.001 6.494 9.866 19.464 6.777 36.5-3.482 19.21-7.069 38.506-13.554 57.759-.952 2.828-1.779 3.696-2.926 3.696H220.03c-2.382 0-3.294-1.81-3.696-3.542l-5.016-21.594c-.966-4.162 9.555-2.045 8.357-4.867-10.99-25.894-26.5-58.824-32.145-76.117z" style="fill:#ffe000;fill-rule:evenodd;stroke:#000;stroke-width:1px;stroke-linecap:butt;stroke-linejoin:miter;stroke-opacity:1;fill-opacity:1"/>
</svg>
