<svg xmlns="http://www.w3.org/2000/svg" xml:space="preserve" viewBox="30.5 31.5 400 500" height="500" width="400">
    <path style="fill:#e00e00" d="M230.45 531.13c-74.32-53.92-125.26-122.02-155.74-208.16-27.64-78.1-38.73-172.75-33.91-289.35l.02-.46h379.82l.02.46c4.81 116.6-6.28 211.24-33.91 289.35-30.48 86.14-81.42 154.24-155.74 208.16l-.28.2-.28-.2z"/>
    <path d="M419.96 33.21c9.07 219.45-36.25 385.95-189.45 497.1C146.04 469.02 94.36 390.9 66.52 296.34a557.24 557.24 0 0 1-5.87-21.54c-11.45-45.69-17.77-95.02-19.88-147.94-1.2-30.06-1.05-61.28.29-93.65h378.9m.92-.95H40.14l-.04.92c-4.82 116.66 6.28 211.36 33.93 289.52 30.51 86.24 81.51 154.41 155.91 208.39l.56.41.56-.41c74.4-53.98 125.4-122.15 155.91-208.39 27.65-78.16 38.75-172.86 33.93-289.52l-.04-.92z"/>
    <path style="fill:#fff;fill-opacity:1;stroke:#000;stroke-width:1;stroke-opacity:1;stroke-miterlimit:4;stroke-dasharray:none" d="m96.085 118.865 27.488 114.052h-5.69c-4.277.284-6.18 3.11-6.436 6.965-.353 5.396-4.502 9.78-9.947 9.78-5.494 0-9.996-4.453-9.996-9.947 0-3.894 2.256-7.25 5.532-8.878.216-.117.481-.225.687-.323 1.913-1.11 3.188-3.218 3.188-5.582a6.358 6.358 0 0 0-6.376-6.377c-1.383 0-2.678.422-3.718 1.167-7.161 3.826-12.066 11.321-12.066 19.993 0 12.538 10.222 22.7 22.759 22.7 9.702 0 17.972-6.101 21.219-14.675h4.463l3.993 16.638h10.742c9.369-11.027 23.28-18.08 38.868-18.08 15.588 0 29.557 7.043 38.916 18.08h24.3c9.368-11.027 23.279-18.08 38.867-18.08 15.588 0 29.557 7.043 38.916 18.08h10.742l3.561-16.697h7.603c3.237 8.594 11.488 14.725 21.22 14.725 12.536 0 22.7-10.163 22.7-22.7 0-12.538-10.164-22.7-22.7-22.7-9.752 0-18.051 6.15-21.27 14.783h-4.149l24.25-112.933H96.086zm268.824 110.913c5.494 0 9.948 4.453 9.948 9.947 0 5.494-4.454 9.947-9.948 9.947-5.493 0-9.947-4.453-9.947-9.947 0-5.494 4.454-9.947 9.947-9.947zm-184.134 21.376c-25.496 0-46.156 20.709-46.156 46.205s20.66 46.205 46.156 46.205 46.205-20.709 46.205-46.205-20.709-46.205-46.205-46.205zm102.093 0c-25.496 0-46.156 20.709-46.156 46.205s20.66 46.205 46.156 46.205 46.205-20.709 46.205-46.205-20.709-46.205-46.205-46.205zM180.775 264.23c7.279 0 13.989 2.344 19.463 6.327l-19.463 19.463-19.463-19.463a32.932 32.932 0 0 1 19.463-6.327zm102.093 0c7.279 0 13.989 2.344 19.463 6.327l-19.463 19.463-19.463-19.463a32.932 32.932 0 0 1 19.463-6.327zm-128.884 13.665 19.463 19.463-19.463 19.463a32.91 32.91 0 0 1-6.328-19.463c0-7.279 2.345-13.989 6.328-19.463zm53.592 0a32.91 32.91 0 0 1 6.327 19.463c0 7.28-2.344 13.99-6.327 19.463l-19.463-19.463 19.463-19.463zm48.49 0 19.464 19.463-19.463 19.463a32.91 32.91 0 0 1-6.328-19.463c0-7.279 2.345-13.989 6.328-19.463zm53.593 0a32.91 32.91 0 0 1 6.328 19.463c0 7.28-2.345 13.99-6.328 19.463l-19.463-19.463 19.463-19.463zm-128.884 26.801 19.463 19.463a32.932 32.932 0 0 1-19.463 6.328 32.932 32.932 0 0 1-19.463-6.328l19.463-19.463zm102.093 0 19.463 19.463a32.932 32.932 0 0 1-19.463 6.328c-7.28 0-13.99-2.345-19.463-6.328l19.463-19.463z"/>
</svg>
