<svg xmlns="http://www.w3.org/2000/svg" xmlns:xlink="http://www.w3.org/1999/xlink" width="390" height="480">
    <path d="M0 0h390c.167 197.09.658 320.96-195.112 479.998C-.185 323.2.018 196.88 0 0z" style="fill:#003380;fill-opacity:1;stroke:none"/>
    <path d="M4.192 4.95h381.323c.163 192.344.643 313.232-190.77 468.442C4.012 320.368 4.21 197.089 4.192 4.95z" style="fill:#c3a869;fill-opacity:1;stroke:none"/>
    <path d="M23.042 20.506h343.503c.147 177.056.58 288.336-171.85 431.208C22.88 310.854 23.058 197.374 23.042 20.506z" style="fill:#003380;fill-opacity:1;stroke:none"/>
    <path d="M176.729 87.34c-2.217-.046-11.246 11.04-15.01 18.279l-4.48-2.764c7.534-12.065 14.628-20.982 20.306-24.998-2.664-2.54-16.604 11.935-23.094 23.343l-3.426-2.147c8.392-14.532 21.337-24.593 26.208-28.76-1.973-3.022-21.331 13.573-28.94 27.152l-3.375-2.066c8.526-15.155 23.075-26.277 33.526-33.664-2.353-3.25-27.774 16.739-36.177 32.075l-3.407-2.032c15.342-27.397 49.855-43.004 57.626-46.396 10.126 4.262 42.367 20.425 57.214 47.983l-3.636 1.83c-6.64-14.42-33.74-36.605-36.234-33.813 5.136 4.151 25.597 18.62 33.337 35.233l-4.315 2.163c-4.857-11.287-26.117-31.33-28.232-28.709 9.539 8.28 19.912 18.763 25.341 30.143l-3.81 1.88c-4.446-9.059-20.43-24.718-22.057-22.979 7.844 8.076 15.318 14.935 19.129 24.426l-4.164 2.04c-3.118-7.862-10.559-15.475-13.725-18.312l-5.99 7.912 12.344 28.786-8.79.033c-1.796-8.784-4.015-20.01-6.96-25.797l4.629 25.752h-7.93c-.253-7.662-1.006-19.668-3.677-26.027l1.407 26.017-9.457.033 2.061-25.995c-2.845 6.02-3.645 20.308-4.36 25.962l-7.885-.023 5.542-24.785c-2.287 2.313-5.702 16.825-7.89 24.774h-7.773l11.236-27.466-5.112-9.083z" style="fill:#c3a869;fill-opacity:1;stroke:none"/>
    <path d="M180.6 62.69c-.02 3.14 14.188 2.043 14.16.018-3.56-1.025-12.037-.907-14.16-.018zM194.235 65.928c-3.685 4.631-5.33 11.905-5.77 19.011l10.674.055 1.277-1.964-9.024-.055c-.458-5.333 1.239-11.576 2.843-17.047zM188.113 90.336c1.075-1.1 4.283-.845 7.708-.847 3.12-.01 7.644-.167 8.58.722-.017.948-2.73 1.308-8.427 1.278-5.918.027-7.822-.399-7.86-1.153zM198.497 62.88c-.02 3.139 14.188 2.043 14.16.018-3.56-1.025-12.037-.907-14.16-.018zM184.747 67.603c-.006-2.226 6.008-2.068 5.865-.04.11 4.089-5.83 3.802-5.865.04zM202.352 67.653c-.006-2.227 6.008-2.069 5.865-.04.11 4.088-5.83 3.8-5.865.04z" style="fill:#003380;fill-opacity:1;stroke:none"/>
    <path d="m91.146 116.987 79.99.094-3.984 8.55 58.218.233-3.899-8.394 94.426-.733-.12 17.254-77.405-.125c-8.872 13.891-10.664 36.061-21.428 48.01l-41.628.125c-9.573-7.71-14.494-42.697-19.924-48.135l-65.088-.5.842-16.38z" style="fill:#c3a869;fill-opacity:1;stroke:none"/>
    <path style="opacity:.98999999;fill:#c3a869;fill-opacity:1;stroke:#003380;stroke-width:3.5;stroke-miterlimit:4;stroke-opacity:1;stroke-dasharray:none" d="M119.784 114.868h15.378v35.128h-15.378z"/>
    <path style="opacity:.98999999;fill:#c3a869;fill-opacity:1;stroke:#003380;stroke-width:3.51022482;stroke-miterlimit:4;stroke-opacity:1;stroke-dasharray:none" d="M257.727 115.196h15.368v35.357h-15.368z"/>
    <path d="m80.754 66.963-6.375 9.906 4.907.156.062 104.032 3.188-.063-.094-104.062h4.031l-5.718-9.97z" style="fill:#c3a869;fill-opacity:1;stroke:none"/>
    <path d="m108.922 69.702-10.268 5.775 4.263 2.432-51.346 96.108 2.596 1.686 51.584-96.4 3.563 1.885-.392-11.486z" style="fill:#c3a869;fill-opacity:1;stroke:none"/>
    <path d="m51.943 76.432-.575 11.766 4.329-2.315 52.019 90.092 2.73-1.646-52.062-90.104 3.493-2.013-9.934-5.78z" style="fill:#c3a869;fill-opacity:1;stroke:none"/>
    <rect width="10.43" height="9.723" ry="0" x="176.431" y="185.042" style="opacity:.98999999;fill:#c3a869;fill-opacity:1;stroke:none"/>
    <rect width="10.43" height="9.723" ry="0" x="190.661" y="184.998" style="opacity:.98999999;fill:#c3a869;fill-opacity:1;stroke:none"/>
    <rect width="10.43" height="9.723" ry="0" x="205.467" y="184.998" style="opacity:.98999999;fill:#c3a869;fill-opacity:1;stroke:none"/>
    <path d="M170.818 199.626h50.116l12.552 47.642h-75.042l12.374-47.642zM165.963 249.932l19.625.125c-7.292 14.417-4.507 17.122-6.427 29.312-2.525 14.975-10.942 20.02-15.125 34.875-.943 4.278 1.077 18.303-1.875 18.875-14.707 1.517-43.028 4.898-44.25 3-6.978-12.706 24.125-12.812 27.375-19.875 8.386-20.703 12.578-45.215 20.677-66.312zM227.142 250.213l-19.625.125c7.291 14.417 3.902 17.122 5.823 29.312 2.524 14.975 10.942 20.02 15.125 34.875.943 4.278-1.078 18.303 1.875 18.875 14.707 1.517 43.028 4.898 44.25 3 6.977-12.707-24.125-12.813-27.375-19.875-8.386-20.703-11.974-45.216-20.073-66.312zM161.317 233.42l2.972-11.66c-7.396-26.275-11.062-63.545-11.553-87.14l-6.712-.005c.798 34.072 3.41 70.137 15.293 98.804z" style="fill:#c3a869;fill-opacity:1;stroke:none"/>
    <path d="M236.723 138.725c.646-1.427 1.065-2.249 2.076-4.136l2.414.003c13.486 41.337 23.714 84.437 33.823 120.402l-40.23 16.169-1.664-6.009 34.062-14.436c-10.42-39.634-20.66-77.877-30.481-111.993zM211.682 270.817c.013 2.337.107 4.554.511 7.266-9.632 1.942-21.32 3.776-32.772 3.983.64-2.942.762-4.845 1.02-7.262 10.987-.269 20.278-1.883 31.241-3.987z" style="fill:#c3a869;fill-opacity:1;stroke:none"/>
    <path style="opacity:.98999999;fill:#c3a869;fill-opacity:1;stroke:none" d="M282.514 44.433h3.741V206.87h-3.741z"/>
    <path d="M281.392 42.295c64.253 17.443 73.844 139.24 1.238 165.64-12.306-6.228 44.105-11.314 44.99-83.97 2.091-57.628-54.054-80.17-46.228-81.67z" style="fill:#c3a869;fill-opacity:1;stroke:#003380;stroke-width:1.60000002;stroke-linecap:butt;stroke-linejoin:miter;stroke-miterlimit:4;stroke-opacity:1;stroke-dasharray:none"/>
    <path d="M187.943 170.259v-32.384l-18.781-.098 18.78 32.482z" style="fill:#c3a869;fill-opacity:1;stroke:#003380;stroke-width:3.42241549;stroke-linecap:butt;stroke-linejoin:miter;stroke-miterlimit:4;stroke-opacity:1;stroke-dasharray:none"/>
    <path d="M203.947 170.254v-32.551l18.773-.098-18.773 32.65z" style="fill:#c3a869;fill-opacity:1;stroke:#003380;stroke-width:3.43054605;stroke-linecap:butt;stroke-linejoin:miter;stroke-miterlimit:4;stroke-opacity:1;stroke-dasharray:none"/>
    <path style="fill:#003380;fill-opacity:1;stroke:none" d="M282.482 116.888h3.817v17.057h-3.817z"/>
    <path d="M331.777 117.737c-5.357-1.475-14.85.985-15.026-3.536-.186-4.792 26.576-5.896 19.18 3.624.79 1.889 3.147 3.08 0 6.718 1.271 1.802 2.127 3.687-.088 6.187 6.561 9.632-19.28 9.57-19.092 4.773.23-5.886 9.84-2.357 14.76-3.536-4.978-1.325-14.59 1.529-14.937-3.977-.282-4.467 3.644-3.067 14.584-3.27-10.935-.697-14.225.05-14.319-3.448-.138-5.17 9.189-2.502 14.938-3.535z" id="a" style="fill:#c3a869;fill-opacity:1;stroke:#003380;stroke-width:1.5;stroke-linecap:butt;stroke-linejoin:miter;stroke-miterlimit:4;stroke-opacity:1;stroke-dasharray:none"/>
    <use transform="matrix(-1 0 0 1 408.083 0)" width="390" height="480" xlink:href="#a"/>
</svg>
