<svg xmlns="http://www.w3.org/2000/svg" xml:space="preserve" viewBox="30.5 31.5 400 500" height="500" width="400">
    <path d="M230.44 531.14C156.12 477.22 105.18 409.12 74.7 322.98c-27.64-78.1-38.73-172.75-33.91-289.35l.02-.46h379.82l.02.46c4.81 116.6-6.28 211.24-33.91 289.35-30.48 86.14-81.42 154.24-155.74 208.16l-.28.2-.28-.2z" style="fill:#32ac60;fill-opacity:1"/>
    <path d="M241.266 368.213c7.428 7.566 9.51 15.198 11.16 25.928l27.213 18.32 20.937-20.56 20.936-20.56L303.69 343.8c-10.698-1.843-18.292-4.063-25.721-11.629l-11.094-11.297 26.533-26.533c46.735-46.735 61.093-69.967 60.65-110.799C353.343 117.466 282.58 68.5 230.5 68.5s-122.842 48.966-123.558 115.042c-.442 40.832 13.916 64.064 60.651 110.799l26.533 26.533-11.094 11.297c-7.43 7.566-15.023 9.786-25.721 11.629l-17.823 27.541 20.936 20.56 20.937 20.56 27.214-18.32c1.648-10.73 3.73-18.362 11.16-25.928l10.765-10.965Z" style="fill:#fff;fill-rule:evenodd;stroke:#000;stroke-width:1;stroke-linecap:butt;stroke-linejoin:miter;stroke-miterlimit:4;stroke-dasharray:none;stroke-opacity:1"/>
    <path d="M419.96 33.21c9.07 219.45-36.26 385.95-189.46 497.1C77.31 419.16 31.99 252.66 41.06 33.21h378.9m.92-.95H40.14l-.04.92c-4.82 116.66 6.28 211.36 33.93 289.52 30.51 86.24 81.51 154.41 155.91 208.39l.56.41.56-.41c74.4-53.98 125.4-122.15 155.91-208.39 27.65-78.16 38.75-172.86 33.93-289.52l-.04-.92z"/>
    <circle r="8.999" cy="319.93" cx="230.5" style="opacity:.98000004;fill:#32ac60;fill-opacity:1;stroke:#000;stroke-width:1;stroke-linecap:round;stroke-linejoin:round;stroke-miterlimit:4;stroke-dasharray:none;stroke-opacity:1"/>
    <path d="M194.126 320.874 230.5 284.5M230.5 357.248l36.374-36.374" style="fill:none;fill-rule:evenodd;stroke:#000;stroke-width:1px;stroke-linecap:butt;stroke-linejoin:miter;stroke-opacity:1"/>
    <path style="fill:#32ac60;fill-rule:evenodd;stroke:#000;stroke-width:1px;stroke-linecap:butt;stroke-linejoin:miter;stroke-opacity:1;fill-opacity:1" d="M264.117 250.883c26.307-26.307 30.077-45.805 30.704-66.383.949-31.174-28.31-55-47.321-55 0-8.631-7.105-17-17-17s-17 8.369-17 17c-19.01 0-48.27 23.826-47.32 55 .626 20.578 4.396 40.076 30.703 66.383L230.5 284.5Z"/>
</svg>
