<svg xmlns="http://www.w3.org/2000/svg" version="1" width="400" height="500">
    <path d="M396.64 1.45H2.91v301.14c0 108.73 88.14 196.86 196.86 196.86 108.72 0 196.87-88.14 196.87-196.86v-.09z" style="fill:#004899;fill-opacity:1;fill-rule:nonzero"/>
    <path d="m281.298 196.693-1.668 13.787 73.187-20.982-12.62-12.074 27.578-5.261 2.597 15.114 14.4-27.487-23.062-12.907 4.71 14.412-46.444 9.834 15.584 14.049-36.324 8.926 1.821-16.523-30.852 6.813 38.776-57.417-24.159 3.404 29.892-37.765 9.575 15.26L371.59 50.34l9.182 8.329L384 21l-36.198 15.888 13.86 5.46-33.45 44.884-9.672-17.984-58.193 73.156 24.808-1.43-37.544 58.52zM279.767 253.653l-1.084-20.999 69.745 23.899-12.353 15.81 28.124 11.709 1.925-18.085 19.053 27.966-31.908 15.264 6.44-15.002-42.102-15.13 9.063-18.914-31.755-9.505.727 18.288-29.055-6.414 31.748 65.607-25.109-.68 18.949 35.795 11.38-16.078 25.251 45.882 11.71-12.48 1.618 47.896-35.769-20.32 14.917-7.369-18.84-31.167-9.981 15.594-42.2-72.39 25.827.575-31.477-69.605zM118.702 196.693l1.668 13.787-73.187-20.982 12.62-12.074-27.578-5.261-2.597 15.114-14.4-27.487 23.062-12.907-4.71 14.412 46.444 9.834-15.584 14.049 36.324 8.926-1.821-16.523 30.852 6.813-38.776-57.417 24.159 3.404-29.892-37.765-9.575 15.26L28.41 50.34l-9.182 8.329L16 21l36.198 15.888-13.86 5.46 33.45 44.884 9.672-17.984 58.193 73.156-24.808-1.43 37.544 58.52zM120.233 253.653l1.084-20.999-69.745 23.899 12.353 15.81-28.124 11.709-1.925-18.085-19.053 27.966 31.908 15.264-6.44-15.002 42.102-15.13-9.063-18.914 31.755-9.505-.727 18.288 29.055-6.414-31.748 65.607 25.109-.68-18.949 35.795-11.38-16.078-25.251 45.882-11.71-12.48-1.618 47.896 35.769-20.32-14.917-7.369 18.84-31.167 9.981 15.594 42.2-72.39-25.827.575 31.477-69.605z" style="fill:#fff;stroke:#000;stroke-linecap:round;stroke-linejoin:round;stroke-opacity:1"/>
    <path style="fill:#fff;fill-rule:evenodd;stroke:none;stroke-width:1;stroke-linecap:butt;stroke-linejoin:miter;stroke-miterlimit:4;stroke-dasharray:none;stroke-opacity:1" d="M156.193 1.437c1.74 15.245 7.678 18.221 7.678 38.548 0 23.814-8.151 23.814-8.151 47.628s8.151 23.814 8.151 47.628-8.151 23.814-8.151 47.628 8.151 23.814 8.151 47.628c0 23.813-8.151 23.813-8.151 47.627 0 23.814 8.151 23.814 8.151 47.628s-8.151 23.814-8.151 47.628 8.151 23.814 8.151 47.628-8.151 23.814-8.151 47.628c0 14.037 2.832 19.8 5.157 27.043 31.962 6.724 66.176 3.397 81.63-1.036-2.253-6.78-4.82-12.645-4.82-26.007 0-23.814 8.152-23.814 8.152-47.628s-8.151-23.814-8.151-47.628 8.15-23.814 8.15-47.628-8.15-23.814-8.15-47.628 8.15-23.814 8.15-47.627c0-23.814-8.15-23.814-8.15-47.628s8.15-23.814 8.15-47.628-8.15-23.814-8.15-47.628 8.15-23.814 8.15-47.628c0-20.315-5.93-23.3-7.674-38.522z"/>
    <path d="M156.193 1.437c1.74 15.245 7.678 18.221 7.678 38.548 0 23.814-8.151 23.814-8.151 47.628s8.151 23.814 8.151 47.628-8.151 23.814-8.151 47.628 8.151 23.814 8.151 47.628c0 23.813-8.151 23.813-8.151 47.627 0 23.814 8.151 23.814 8.151 47.628s-8.151 23.814-8.151 47.628 8.151 23.814 8.151 47.628-8.151 23.814-8.151 47.628c0 14.037 2.832 19.8 5.157 27.043m81.63-1.036c-2.253-6.78-4.82-12.645-4.82-26.007 0-23.814 8.152-23.814 8.152-47.628s-8.151-23.814-8.151-47.628 8.15-23.814 8.15-47.628-8.15-23.814-8.15-47.628 8.15-23.814 8.15-47.627c0-23.814-8.15-23.814-8.15-47.628s8.15-23.814 8.15-47.628-8.15-23.814-8.15-47.628 8.15-23.814 8.15-47.628c0-20.315-5.93-23.3-7.674-38.522" style="fill:none;fill-rule:evenodd;stroke:#000;stroke-width:1;stroke-linecap:butt;stroke-linejoin:miter;stroke-miterlimit:4;stroke-dasharray:none;stroke-opacity:1"/>
    <path d="M396.64 1.45H2.91v301.14c0 108.73 88.14 196.86 196.86 196.86 108.72 0 196.87-88.14 196.87-196.86V1.45z" style="fill:none;stroke:#000"/>
</svg>
