<svg width="471.58" height="614.73" viewBox="30.5 31.5 471.58 614.73" xml:space="preserve" xmlns="http://www.w3.org/2000/svg">
    <path d="M500.71 31.5H31.9l-.05 1.133c-5.934 143.65 7.733 260.25 41.78 356.49 37.568 106.19 100.37 190.13 191.98 256.6l.69.505.689-.505c91.61-66.467 154.41-150.41 191.98-256.6 34.046-96.24 47.714-212.85 41.779-356.49l-.05-1.133z" fill="#32ac60"/>
    <path d="M126.55 31.5H31.899l-.05 1.133c-1.72 41.627-1.594 80.73-.003 117.98l373.17 350.12c21.744-34.174 39.674-71.28 53.943-111.61 4.021-11.367 7.734-23.041 11.188-34.987z" fill="#ffe000" fill-rule="evenodd"/>
</svg>
