<svg xmlns="http://www.w3.org/2000/svg" width="400" height="500" viewBox="30.5 31.5 400 500" xml:space="preserve">
    <path d="M230.55 531.13c74.32-53.92 125.26-122.02 155.74-208.16 27.64-78.1 38.73-172.75 33.91-289.35l-.02-.46H40.36l-.02.46c-4.81 116.6 6.28 211.24 33.91 289.35 30.48 86.14 81.42 154.24 155.74 208.16l.28.2.28-.2z" fill="#0085ca"/>
    <path d="M41.04 33.21c-9.07 219.45 36.25 385.95 189.45 497.1 84.47-61.29 136.15-139.41 163.99-233.97a557.24 557.24 0 0 0 5.87-21.54c11.45-45.69 17.77-95.02 19.88-147.94 1.2-30.06 1.05-61.28-.29-93.65H41.04m-.92-.95H420.86l.04.92c4.82 116.66-6.28 211.36-33.93 289.52-30.51 86.24-81.51 154.41-155.91 208.39l-.56.41-.56-.41c-74.4-53.98-125.4-122.15-155.91-208.39C46.38 244.54 35.28 149.84 40.1 33.18l.04-.92z"/>
    <path d="m121.66 360.71.11-107.8c.01-9.19 2.95-16.99 16.93-27.04 3.72-2.68 6.38-8.17 6.38-14.73V84.42c0-3.91-1.38-4.84-3.68-6.95-2.3-2.1-3.26-4.55-3.25-8.66.03-5.27 5.56-12.31 13.09-12.31 7.52 0 13.06 7.05 13.09 12.31.02 4.12-.95 6.56-3.25 8.66-2.3 2.11-3.68 3.04-3.68 6.95v126.72c0 6.56 2.65 12.05 6.38 14.73 13.98 10.04 16.92 17.85 16.93 27.04l.11 107.8h-59.14z" style="fill:#fff;stroke-width:.96;stroke:#000"/>
    <path d="M173.11 360.71v-110c0-6.86-6.45-19.78-21.88-19.78s-21.88 12.93-21.88 19.78v110" style="fill:none;stroke-miterlimit:4;stroke-width:.96;stroke:#000"/>
    <path d="m280.19 360.71.11-107.8c.01-9.19 2.95-16.99 16.93-27.04 3.72-2.68 6.38-8.17 6.38-14.73V84.42c0-3.91-1.38-4.84-3.68-6.95-2.3-2.1-3.26-4.55-3.25-8.66.03-5.27 5.56-12.31 13.09-12.31 7.52 0 13.06 7.05 13.09 12.31.02 4.12-.95 6.56-3.25 8.66-2.3 2.11-3.68 3.04-3.68 6.95v126.72c0 6.56 2.65 12.05 6.38 14.73 13.98 10.04 16.92 17.85 16.93 27.04l.11 107.8h-59.14z" style="fill:#fff;stroke-width:.96;stroke:#000"/>
    <path d="M331.64 360.71v-110c0-6.86-6.45-19.78-21.88-19.78s-21.88 12.93-21.88 19.78v110" style="fill:none;stroke-miterlimit:4;stroke-width:.96;stroke:#000"/>
    <path d="m200.93 460.28.11-107.8c.01-9.19 2.95-16.99 16.93-27.04 3.72-2.68 6.38-8.17 6.38-14.73V84.41c0-3.91-1.38-4.84-3.68-6.95-2.3-2.1-3.26-4.55-3.25-8.66.03-5.27 5.57-12.31 13.09-12.31s13.06 7.05 13.09 12.31c.02 4.12-.95 6.56-3.25 8.66-2.3 2.11-3.68 3.04-3.68 6.95v226.3c0 6.56 2.65 12.05 6.38 14.73 13.98 10.04 16.92 17.85 16.93 27.04l.11 107.8h-59.14z" style="fill:#fff;stroke-width:.96;stroke:#000"/>
    <path d="M252.38 460.28v-110c0-6.86-6.45-19.78-21.88-19.78s-21.88 12.93-21.88 19.78v110" style="fill:none;stroke-miterlimit:4;stroke-width:.96;stroke:#000"/>
</svg>
