<svg xmlns="http://www.w3.org/2000/svg" xml:space="preserve" viewBox="30.5 31.5 420 500" height="500" width="420">
    <path d="M440 32.7c2.09 102.46-3.38 187.49-43.93 296.59-28.05 75.48-74.21 144.77-155.57 201.59-81.36-56.82-127.52-126.11-155.57-201.59C44.38 220.19 38.91 135.16 41 32.7c133 .29 266 0 399 0z" style="fill-rule:evenodd;fill:#ffe000"/>
    <path d="M73.87 297.5H240.5v-129h194.74c-11.09 83.89-42.85 260.21-194.74 362.38C158.66 471.33 108.96 405.6 73.87 297.5Z" style="fill-rule:evenodd;fill:#e00e00"/>
    <path d="M73.87 297.5H240.5v-129h194.74" style="fill:none;stroke:#000"/>
    <path d="M440 32.7c2.09 102.46-3.38 187.49-43.93 296.59-28.05 75.48-74.21 144.77-155.57 201.59-81.36-56.82-127.52-126.11-155.57-201.59C44.38 220.19 38.91 135.16 41 32.7c133 .29 266 0 399 0z" style="fill:none;stroke:#000"/>
</svg>
