<svg xmlns="http://www.w3.org/2000/svg" width="390" height="480">
    <path d="M.004.004 390.01-.031c-.015 270.034-.019 274.018-.019 274.03 1 274.633-389.982 274.639-389.985 0L.004.003z" style="fill:#000;fill-opacity:1;stroke:none"/>
    <path d="m225.102 267.418-7.381-44.87" style="fill:none;stroke:#f2f2f2;stroke-width:1.61765635;stroke-linecap:butt;stroke-linejoin:miter;stroke-miterlimit:4;stroke-opacity:1;stroke-dasharray:none"/>
    <path d="M175.186 42.119c-2.327 3.748-5.326 10.28-3.052 14.04 7.505 12.405 33.194-7.027 45.417-3.052 2.425-2.901 5.306-12.322-2.32-13.064-16.221-1.577-32.828 17.411-40.045 2.076z" style="fill:#e6e6e6;stroke:#000;stroke-width:1.07843757px;stroke-linecap:butt;stroke-linejoin:miter;stroke-opacity:1"/>
    <path d="M174.881 39.982c-1.456 2.527-2.98 4.263-4.761 9.554-10.449 1.62-32.572 2.323-39.251-8.15 7.96 2.637 23.115 6.933 26.798 2.503-6.971.58-15.003-1.536-16.848-3.968 13.4 2.737 29.01-3.941 34.062.061z" style="fill:#e6e6e6;stroke:none"/>
    <path d="M221.208 49.665c.692 7.109-1.143 11.62-4.048 14.708-2.04 2.168-4.831 1.818-6.734 1.788l-.051 7.482-4.538.006c.022-5.253-.226-14.216-.57-23.469-.124-3.316 4.579-3.44 5.697-1.642 1.23 1.976 3.806 1.721 5.235-.422.747-1.122 4.415-1.57 5.009 1.548z" style="fill:#e6e6e6;stroke:#000;stroke-width:1.50981319;stroke-linecap:butt;stroke-linejoin:miter;stroke-miterlimit:4;stroke-opacity:1;stroke-dasharray:none"/>
    <path d="M320.104 72.824c-6.12 9.842 1.76 20.898 1.645 25.535-.008.352.936-.811 2.156-1.686 1.07-.768 2.481-1.227 2.41-1.507-2.338-9.095-7.728-7.896-6.211-22.342zM309.116 91.26c-.885 11.717 5.35 9.891 6.55 19.68.076.627-1.306.24-2.74.4-1.503.17-2.675.952-2.632.485.57-6.21-5.72-12.664-1.178-20.566z" style="fill:#e6e6e6;stroke:none"/>
    <path d="M315.81 113.045c-.162-1.127-5.447-.495-5.661.595-2.876 14.644 1.274 18.352 9.462 25.768.52.47 4.34-4.52 8.113-8.853 4.935-5.668 10.41-11.23 9.411-11.46-10.782-2.484-10.17-15.106-10.011-22.586.03-1.353-5.485 3.86-5.8 5.189-2.79 11.798 5.463 14.37 3.602 26.676-11.491-3.245-8.455-10.743-9.116-15.329zM337.653 121.253c.148-.65-3.657 4.463-8.209 9.489-4.729 5.22-9.468 10.715-9.596 11.63-1.519 10.85 6.321 18.63 13.942 20.847l8.805-24.258c-6.003-2.253-6.22-12.122-4.942-17.708zM344.235 139.565c-8.06 18.29-14.003 43.079-20.503 64.056l4.792-1.985c2.594-8.054 4.782-17.98 8.46-24.95 13.42.742 16.799-1.452 23.395-29.955-10.4-1.258-13.227-5.015-16.144-7.166z" style="fill:#e6e6e6;stroke:none"/>
    <path d="M347.516 141.012c-1.8-1.587 3.403-9.13 6.302-6.885 2.414 1.869 9.52 6.471 6 10.115-2.473 2.561-9.266-.554-12.302-3.23z" style="fill:#e6e6e6;stroke:none"/>
    <path d="M349.36 133.156c1.09.734-2.742 5.841-3.588 4.807-2.712-3.317-2.869-4.903-2.288-5.849.473-.769 2.968-.917 5.876 1.042z" style="fill:#e6e6e6;stroke:none"/>
    <path d="m165.449 282.526 8.989-45.981" style="fill:#ececec;stroke:#f2f2f2;stroke-width:1.61765635;stroke-linecap:butt;stroke-linejoin:miter;stroke-miterlimit:4;stroke-opacity:1;stroke-dasharray:none"/>
    <path d="m184.182 281.231 7.252-51.28M243.058 253.52l-7.251-34.532" style="fill:none;stroke:#f2f2f2;stroke-width:1.61765635;stroke-linecap:butt;stroke-linejoin:miter;stroke-miterlimit:4;stroke-opacity:1;stroke-dasharray:none"/>
    <path d="M15.582 260.857c-2.264-.568-3.267 4.94-1.468 5.612 16.856 6.288 36.826 16.409 47.688 27.441 10.83 11 16.388 51.584 57.835 59.654 42.233 8.222 103.851 4.023 160.422 5.86 27.195.883 53.212-55.06 47.405-65.006-2.571-4.403.327-21.632 2.355-28.985 7.628-5.808 10.914-17.003 12.604-25.554 14.147-5.86 19.857-35.738 22.488-43.51l-94.66 34.187c-2.218 10.914-8.587 15.74-15.193 17.611-14.964 4.24-30.17 15.833-36.43 29.007-51.37 11.026-105.044-2.044-112.746-4.835-6.055-2.194-10.905-5.055-13.122-10.014-41.888-9.064-32.035 2.939-38.33 8.287z" style="fill:#e6e6e6;stroke:#000;stroke-width:1.61765635;stroke-linecap:butt;stroke-linejoin:miter;stroke-miterlimit:4;stroke-opacity:1;stroke-dasharray:none"/>
    <path d="M80.674 283.907c48.734 25.142 160.945 23.686 249.36-18.69" style="fill:none;stroke:#000;stroke-width:1.61765635;stroke-linecap:round;stroke-linejoin:miter;stroke-miterlimit:4;stroke-opacity:1;stroke-dasharray:none"/>
    <path d="M101.576 292.154c-.992-2.434 2.738-3.619 3.654-1.343l26.737 66.415c4.675 11.613 7.613 7.872 17.947 38.214h-6.837c-15.494-28.266-8.635-22.658-14.528-37.115z" style="fill:#e6e6e6;stroke:#000;stroke-width:1.40197003;stroke-linecap:butt;stroke-linejoin:miter;stroke-miterlimit:4;stroke-opacity:1;stroke-dasharray:none"/>
    <path d="M273.589 221.71c-54.076-54.712-37.136-95.727-25.304-118.255-46.174-15.336-125.69 63.62-116.44 121.184l4.396 27.348c46.886-19.084 92.29-40.716 137.348-30.278z" style="fill:#e6e6e6;stroke:#000;stroke-width:1.07843757px;stroke-linecap:butt;stroke-linejoin:miter;stroke-opacity:1"/>
    <path d="M121.029 297.525c-1.046-2.432 2.875-3.617 3.84-1.342l25.906 61.043c4.926 11.608 8 7.872 18.863 38.214h-7.186c-16.286-28.266-9.056-22.667-15.27-37.115zM140.685 301.066c-1.035-2.416 2.7-3.602 3.654-1.343l24.295 57.503c4.873 11.532 7.612 7.872 17.947 38.214h-6.837c-15.494-28.266-8.38-22.765-14.528-37.115zM160.382 303.02c-1.076-2.436 2.98-3.62 3.972-1.343l24.187 55.55c5.06 11.622 8.276 7.871 19.512 38.213h-7.433c-16.846-28.266-9.404-22.652-15.796-37.115zM178.817 301.799c-1.08-2.43 2.938-3.615 3.933-1.343l24.87 56.77c5.08 11.593 8.194 7.872 19.317 38.214h-7.358c-16.677-28.266-9.225-22.689-15.638-37.115zM196.642 300.7c-1.123-2.411 2.913-3.598 3.949-1.343l26.578 57.87c5.286 11.508 8.227 7.871 19.397 38.213h-7.389c-16.747-28.266-9.034-22.794-15.702-37.115zM213.408 298.502c-1.153-2.417 3.051-3.603 4.116-1.343l28.281 60.067c5.432 11.536 8.573 7.872 20.213 38.214h-7.7c-17.45-28.266-9.512-22.758-16.363-37.115zM229.687 296.06c-1.174-2.419 3.124-3.604 4.208-1.343l29.937 62.51c5.53 11.544 8.767 7.871 20.669 38.213h-7.874c-17.844-28.266-9.76-22.746-16.732-37.115z" style="fill:#e6e6e6;stroke:#000;stroke-width:1.40197003;stroke-linecap:butt;stroke-linejoin:miter;stroke-miterlimit:4;stroke-opacity:1;stroke-dasharray:none"/>
    <path d="M91.513 171.49c31.657 22.047 38.991 57.686 53.006 92.717-41.582-36.979-66.343-13.654-78.56-9.842z" style="fill:#f2f2f2;stroke:none"/>
    <path d="m103.55 99.509.778-37.64c.027-1.331 2.598-1.316 2.59.432l-.173 37.294c-.211 1.892-3.208.706-3.194-.086z" style="fill:#e6e6e6;stroke:#000;stroke-width:1.07843757px;stroke-linecap:butt;stroke-linejoin:miter;stroke-opacity:1"/>
    <path d="M84.11 86.914c.48-5.017-1.182-8.756-5.12-12.138-6.247-5.367.055-13.729 9.971-12.561-6.918 7.642 2.016 20.113-4.852 24.7z" style="fill:#e6e6e6;stroke:none"/>
    <path d="M80.13 78.812c1.837.008 3.517 9.39 1.048 9.237-22.978-1.422-32.36-24.855-33.31-30.669 2.954 8.303 12.416 16.834 19.943 20.029-7.966-7.485-12.826-15.122-12.924-23.395 1.935 12.24 16.072 24.755 25.242 24.798z" style="fill:#e6e6e6;stroke:none"/>
    <path d="M87.072 73.64c-.392-2.041-1.516-10.332 1.68-11.979 9 1.867 8.687 15.482 21.812 10.146.679-.276-.321-2.116-.573-.769-.195 1.044-2.092 1.046-2.616-.62-1.4-4.45 4.55-5.33 4.773-2.207.09 1.263-.275 1.434.574 2.853 1.997 3.337 4.316 10.16-2.478 12.828-14.86 5.834-14.871-7.18-23.172-10.253z" style="fill:#e6e6e6;stroke:#000;stroke-width:1.50981319;stroke-miterlimit:4;stroke-opacity:1;stroke-dasharray:none"/>
    <path d="M269.475 311.187c14.462-3.664 24.364-11.964 30.733-17.87M267.49 336.222c7.958-4.864 16.328-11.165 25.207-19.25M104.414 310.842c-7.134-3.213-14.91-8.774-19.596-13.9M91.379 314.295c3.44 6.182 12.955 12.131 19.337 14.59" style="fill:none;stroke:#000;stroke-width:1.83334422;stroke-linecap:round;stroke-linejoin:miter;stroke-miterlimit:4;stroke-opacity:1;stroke-dasharray:none"/>
    <path d="M42.991 268.023c.219-1.22 10.467.187 9.885 2.715l-3.065 13.318c-.447 1.942-9.226-2.591-8.805-4.94z" style="fill:#e6e6e6;stroke:#000;stroke-width:1.61765635;stroke-linecap:butt;stroke-linejoin:miter;stroke-miterlimit:4;stroke-opacity:1;stroke-dasharray:none"/>
    <path d="M218.67 277.174c45.373-7.535 85.922-24.035 123.774-37.295" style="fill:none;stroke:#000;stroke-width:1.61765635;stroke-linecap:round;stroke-linejoin:miter;stroke-miterlimit:4;stroke-opacity:1;stroke-dasharray:none"/>
    <path d="m278.712 235.995 18.56-7.252-2.762 18.13-18.733 6.646z" style="fill:none;stroke:#000;stroke-width:1.50981319;stroke-linecap:butt;stroke-linejoin:miter;stroke-miterlimit:4;stroke-opacity:1;stroke-dasharray:none"/>
    <path d="M269.561 224.6c-2.981 1.127-1.594 6.696 1.9 5.438l94.227-33.755c2.926-1.047.815-8.36-2.115-7.251z" style="fill:#e6e6e6;stroke:#000;stroke-width:1.07843757px;stroke-linecap:butt;stroke-linejoin:miter;stroke-opacity:1"/>
    <path d="m317.56 222.182 18.56-7.252-2.762 18.13-18.733 6.647z" style="fill:none;stroke:#000;stroke-width:1.50981319;stroke-linecap:butt;stroke-linejoin:miter;stroke-miterlimit:4;stroke-opacity:1;stroke-dasharray:none"/>
    <path d="M324.186 268.023c-2.574 29.882-25.242 66.582-44.783 85.638" style="fill:none;stroke:#000;stroke-width:1.83334422;stroke-linecap:butt;stroke-linejoin:miter;stroke-miterlimit:4;stroke-opacity:1;stroke-dasharray:none"/>
    <path d="m317.967 292.612 2.625-7.661 7.081-1.71c2.933-.707 4.653 6.585.733 7.57-4.374 1.099-7.156 1.64-10.439 1.8z" style="fill:#e6e6e6;stroke:#000;stroke-width:1.40197003;stroke-linecap:butt;stroke-linejoin:miter;stroke-miterlimit:4;stroke-opacity:1;stroke-dasharray:none"/>
    <path d="m154.783 297.084 3.54.489c10.097-72.64 25.346-98.297 37.74-122.623 22.749-44.647 62.318-79.08 96.327-116.899l-.854-4.761c-33.397 39.744-68.398 60.063-102.187 124.468-14.858 28.32-25.596 48.294-34.566 119.326z" style="fill:#e6e6e6;stroke:#000;stroke-width:1.61765635;stroke-linecap:butt;stroke-linejoin:miter;stroke-miterlimit:4;stroke-opacity:1;stroke-dasharray:none"/>
    <path d="M205.02 93.844 187.926 171.8c-10.749 10.998-9.143 21.189-7.424 31.942-16.414 8.554-20.916 28.999-13.5 43.908-19.427 10.154-15.001 38.932-11.98 52.774-76.063-93.154 6.302-185.074 49.998-206.579z" style="fill:#e6e6e6;stroke:#000;stroke-width:1.61765635;stroke-linecap:butt;stroke-linejoin:miter;stroke-miterlimit:4;stroke-opacity:1;stroke-dasharray:none"/>
    <path d="m187.644 172.361 16.69-77.442c22.74-15.723 58.585-33.09 80.926-35.154-4.485 2.953-15.438 6.914-14.453 19.806-21.168.18-23.684 18.137-22.845 25.226-25.865 3.764-26.374 19.595-24.691 30.685-13.312.963-31.564 19.726-25.686 32.762-6.083-.367-7.406 1.835-9.94 4.117z" style="fill:#e6e6e6;stroke:#000;stroke-width:1.61765635;stroke-linecap:butt;stroke-linejoin:miter;stroke-miterlimit:4;stroke-opacity:1;stroke-dasharray:none"/>
    <path d="m198.642 280.281 10.03-1.315 1.236-196.464c.013-1.975-4.202-2.049-4.317 0-3.678 66.042-4.59 131.233-6.949 197.78z" style="fill:#e6e6e6;stroke:#000;stroke-width:1.61765635;stroke-linecap:butt;stroke-linejoin:miter;stroke-miterlimit:4;stroke-opacity:1;stroke-dasharray:none"/>
    <path d="m200.15 73.673 15.582-.087c.185.103-.076 8.014-2.072 9.928-1.654 1.587-9.877 1.777-11.525-.043-2.31-2.551-1.869-6.563-1.985-9.798z" style="fill:#e6e6e6;stroke:#000;stroke-width:1.07843757px;stroke-linecap:butt;stroke-linejoin:miter;stroke-opacity:1"/>
    <path d="M321.792 84.142a4.443 4.896 0 1 1-8.886 0 4.443 4.896 0 1 1 8.886 0z" transform="matrix(1.0205 0 0 1.01705 -29.303 -32.155)" style="fill:#e6e6e6;fill-opacity:1;stroke:#000;stroke-width:1.05856085;stroke-linecap:butt;stroke-linejoin:round;stroke-miterlimit:4;stroke-opacity:1;stroke-dasharray:none"/>
    <path d="M321.792 84.142a4.443 4.896 0 1 1-8.886 0 4.443 4.896 0 1 1 8.886 0z" transform="matrix(.87313 0 0 .83922 -121.52 229.58)" style="fill:#e6e6e6;fill-opacity:1;stroke:#000;stroke-width:1.76379144;stroke-linecap:butt;stroke-linejoin:round;stroke-miterlimit:4;stroke-opacity:1;stroke-dasharray:none"/>
    <path d="m166.971 76.994 2.363 3.35c-20.062 21.454-38.804 52.453-54.77 82.78-21.552 40.94-36.606 82.349-39.788 124.11l-4.203-.65c2.108-36.478 10.61-64.623 29.321-103.926 15.422-32.39 36.6-76.338 67.077-105.664z" style="fill:#e6e6e6;stroke:#000;stroke-width:1.61765635;stroke-linecap:butt;stroke-linejoin:miter;stroke-miterlimit:4;stroke-opacity:1;stroke-dasharray:none"/>
    <path d="M164.951 80.37c-28 16.259-50.486 29.595-66.313 42.845-2.483 21.874-5.932 43.168-6.593 65.042l3.823.17c-.263-6.516 2.757-8.765 7.079-9.323-2.316-8.012 4.28-27.687 19.683-30.215-2.652-11.788 1.01-27.696 18.474-29.697-1.185-20.528 7.919-22.817 16.575-25.899 1.82-4.257 4.238-8.777 7.272-12.924z" style="fill:#e6e6e6;stroke:#000;stroke-width:1.07843757px;stroke-linecap:butt;stroke-linejoin:round;stroke-opacity:1"/>
    <path d="m106.75 272.557.6-163.552c.006-2-4.08-2.19-4.144 0l-4.701 159.73c2.114 1.642 5.353 2.737 8.245 3.822z" style="fill:#e6e6e6;stroke:#000;stroke-width:1.40197003;stroke-linecap:butt;stroke-linejoin:miter;stroke-miterlimit:4;stroke-opacity:1;stroke-dasharray:none"/>
    <path d="m97.465 97.825 15.582-.086c.185.103-.076 8.013-2.072 9.928-1.654 1.587-9.877 1.776-11.525-.043-2.31-2.551-1.869-6.563-1.985-9.798z" style="fill:#e6e6e6;stroke:#000;stroke-width:1.07843757px;stroke-linecap:butt;stroke-linejoin:miter;stroke-opacity:1"/>
    <path d="M71.387 283.83c-8.811-20.433-3.765-31.936 11.186-37.217-10.853-12.99-6.438-27.126 9.793-35.015-3.9-5.668-4.14-16.392 8.323-21.449.303-7.437.24-9.62.488-16.745.623-17.97.982-39.066 1.423-54.615-67.68 40.772-88.674 121.67-31.213 165.041z" style="fill:#e6e6e6;stroke:#000;stroke-width:1.61765635;stroke-linecap:butt;stroke-linejoin:miter;stroke-miterlimit:4;stroke-opacity:1;stroke-dasharray:none"/>
    <path d="M321.792 84.142a4.443 4.896 0 1 1-8.886 0 4.443 4.896 0 1 1 8.886 0z" transform="matrix(.85958 0 0 .78284 -200.313 222.927)" style="fill:#e6e6e6;fill-opacity:1;stroke:#000;stroke-width:1.84053099;stroke-linecap:butt;stroke-linejoin:round;stroke-miterlimit:4;stroke-opacity:1;stroke-dasharray:none"/>
    <path d="M321.792 84.142a4.443 4.896 0 1 1-8.886 0 4.443 4.896 0 1 1 8.886 0z" transform="matrix(1.0205 0 0 1.01705 -152.926 -8.5)" style="fill:#e6e6e6;fill-opacity:1;stroke:#000;stroke-width:1.05856085;stroke-linecap:butt;stroke-linejoin:round;stroke-miterlimit:4;stroke-opacity:1;stroke-dasharray:none"/>
    <path d="M204.92 89.28 174.428 236.6" style="fill:none;stroke:#000;stroke-width:1.61765635;stroke-linecap:round;stroke-linejoin:miter;stroke-miterlimit:4;stroke-opacity:1;stroke-dasharray:none"/>
    <path d="m191.261 229.909 10.057-63.15M209.563 165.896l8.2 56.977" style="fill:none;stroke:#000;stroke-width:1.61765635;stroke-linecap:butt;stroke-linejoin:miter;stroke-miterlimit:4;stroke-opacity:1;stroke-dasharray:none"/>
    <path d="M235.938 219.674 210.253 88.89" style="fill:none;stroke:#000;stroke-width:1.61765635;stroke-linecap:round;stroke-linejoin:miter;stroke-miterlimit:4;stroke-opacity:1;stroke-dasharray:none"/>
    <path d="M202.613 149.364c.117 2.857-1.603 9.64 3.41 10.661 4.137.843 2.348-7.123 5.914-10.942 3.2 2.242 6.314 16.589-7.252 18.086-7.639.843-10.924-9.847-2.072-17.805z" style="fill:#e6e6e6;stroke:#000;stroke-width:1.61765635;stroke-linecap:butt;stroke-linejoin:miter;stroke-miterlimit:4;stroke-opacity:1;stroke-dasharray:none"/>
    <path d="M204.884 89.458c1.549 1.377 5.642.492 5.555-.183" style="fill:none;stroke:#000;stroke-width:1.61765635;stroke-linecap:butt;stroke-linejoin:miter;stroke-miterlimit:4;stroke-opacity:1;stroke-dasharray:none"/>
    <path d="M273.982 48.577c-2.63-2.25-7.692 6.87-5.643 7.46 8.133 1.198 11.899-1.258 13.638-2.534 2.326-1.706 5.08-6.818 3.515-6.012-3.252 1.674-7.93 4.148-11.51 1.086z" style="fill:#e6e6e6;stroke:#000;stroke-width:1.07843757px;stroke-linecap:butt;stroke-linejoin:miter;stroke-opacity:1"/>
    <path d="M272.813 46.377c-3.361 1.61-5.317 5.508-5.731 8.666-2.697 2.035-13.19 1.558-18.46-.105 9.871-.283 8.93-1.496 11.72-2.716-2.874.555-7.136.349-9.034-.886 14.583-.243 14.357-5.227 21.505-4.959zM281.646 54.17c4.783-2.83 3.596-6.782 7.23-5.81 1.82.485 1.863 1.394.825 3.668-1.383 3.03-2.219-1.254-8.055 2.143z" style="fill:#e6e6e6;stroke:none"/>
    <path d="m84.231 248.08 18.708-139.177" style="fill:none;stroke:#000;stroke-width:1.61765635;stroke-linecap:butt;stroke-linejoin:miter;stroke-miterlimit:4;stroke-opacity:1;stroke-dasharray:none"/>
    <path d="m107.954 111.595 10.857 136.342" style="fill:#f2f2f2;stroke:#000;stroke-width:1.61765635;stroke-linecap:butt;stroke-linejoin:miter;stroke-miterlimit:4;stroke-opacity:1;stroke-dasharray:none"/>
    <path d="m107.054 206.716.304.22 5.933 39.172M100.49 206.996l-.649-.14-8.35 37.965" style="fill:none;stroke:#000;stroke-width:1.61765635;stroke-linecap:butt;stroke-linejoin:round;stroke-miterlimit:4;stroke-opacity:1;stroke-dasharray:none"/>
    <path d="m91.458 244.812-3.133 17.278M113.276 246.093l3.216 28.48M118.858 248.301l2.28 27.297" style="fill:none;stroke:#f2f2f2;stroke-width:1.61765635;stroke-linecap:butt;stroke-linejoin:miter;stroke-miterlimit:4;stroke-opacity:1;stroke-dasharray:none"/>
    <path d="M100.412 181.404c-.83 3.475 6.107 9.088 6.73.21.437-6.241 4.764-.172 4.752 3.049-.016 4.537-3.188 8.01-9.533 7.623-3.621-.22-5.692-4.115-6.145-7.957-.51-4.323 4.754-5.261 4.196-2.925z" style="fill:#f2f2f2;stroke:#000;stroke-width:1.61765635;stroke-linecap:butt;stroke-linejoin:miter;stroke-miterlimit:4;stroke-opacity:1;stroke-dasharray:none"/>
    <path style="fill:#e6e6e6;fill-opacity:1;stroke:#000;stroke-width:1.4902277;stroke-linejoin:round;stroke-miterlimit:4;stroke-opacity:1;stroke-dasharray:none" d="M200.168 223.477h8.974v13.813h-8.974z"/>
    <path transform="rotate(.18) skewX(.025)" style="fill:#f2f2f2;stroke:#000;stroke-width:1.2592243;stroke-linecap:round;stroke-linejoin:round;stroke-miterlimit:4;stroke-opacity:1;stroke-dasharray:none" d="M100.195 229.885h7.382v12.604h-7.382z"/>
</svg>
