<svg xmlns="http://www.w3.org/2000/svg" width="400" height="500" viewBox="30.5 31.5 400 500" xml:space="preserve">
    <path d="M230.44 531.14C156.12 477.22 105.18 409.12 74.7 322.98c-27.64-78.1-38.73-172.75-33.91-289.35l.02-.46h379.82l.02.46c4.81 116.6-6.28 211.24-33.91 289.35-30.48 86.14-81.42 154.24-155.74 208.16l-.28.2-.28-.2z" style="fill:#32ac60"/>
    <path d="M419.96 33.21c9.07 219.45-36.26 385.95-189.46 497.1C77.31 419.16 31.99 252.66 41.06 33.21h378.9m.92-.95H40.14l-.04.92c-4.82 116.66 6.28 211.36 33.93 289.52 30.51 86.24 81.51 154.41 155.91 208.39l.56.41.56-.41c74.4-53.98 125.4-122.15 155.91-208.39 27.65-78.16 38.75-172.86 33.93-289.52l-.04-.92z"/>
    <path style="fill:#ffe000;fill-opacity:1;stroke:#000;stroke-width:.97789216;stroke-linecap:round;stroke-linejoin:round;stroke-opacity:1" d="M62.766 106.086c-1.21-1.543-.109-3.374.993-4.394 7.505-6.954 19.849-15.263 28.468-23.306 1.236-1.154 2.321-1.349 3.754.288l8.544 9.763c4.678 5.345 7.031-8.25 8.552-7.064 6.398 4.989 9.212 7.64 9.026 13.989-.206 7.028-3.364 15.593 8.22 29.123 11.057 12.913 27.817 36.072 32.263 30.196 3.756-4.966 4.08-16.787 5.996-13.901 3.69 5.558 14.464 12.398 11.717 16.622-3.758 5.775-4.356 9.35-4.8 15.903-.732 10.773 17.658 31.025 32.604 51.722 1.561 2.162-6.478 8.493-14.894 15.125-9.162 7.22-18.882 14.628-20.026 13.076-10.025-13.604-13.085-19.667-26.022-26.406-9.268-4.827-19.22-3.118-21.157-5.187-4.603-4.92-12.08-12.227-7.907-12.537 5.361-.399 8.823-1.327 12.02-2.426 2.326-.8 4.1-3.927 1.87-7.127-7.018-10.074-23.017-28.71-27.08-32.323-3.704-3.294-8.006-6.668-13.268-4.984-1.157.37-16.182-16.564-14.163-18.425 3.527-3.252 8.278-8.418 5.409-12.077z"/>
    <path style="fill:#ffe000;fill-opacity:1;stroke:#000;stroke-linecap:round;stroke-linejoin:round;stroke-opacity:1" d="M247.35 221.694c7.58-12.405 16.361-19.798 20.5-29.487 2.182-5.107.542-9.94-1.514-12.274-1.694-1.922 12.155-18.983 14.41-17.144 2.685 2.189 4.488 4.425 7.303 4.05 3.632-.483 17.242-17.66 25.227-30.315 2.5-3.962 8.698-11.86 1.557-25.836-2.155-4.218 8.198-17.379 9.617-14.995 5.23 8.785 11.76 13.375 16.483 7.28l18.628-25.83c1.895-2.629 13.66 7.02 19.4 12.012 6.013 5.23 17.259 15.62 15.285 18.388-13.666 19.168-31.685 37.393-37.217 51.068-.75 1.853 3.99 3.233 5.88 5.457 2.202 2.59-11.125 21.362-14.822 19.425-7.145-3.745-6.599-1.507-8.065.15-10.718 12.117-30.295 32.693-24.705 34.12l13.746 3.51c3.487.89-4.998 14.153-9.957 13.573-6.766-.792-14.334-1.988-19.804 1.708-7.487 5.058-11.284 7.946-16.556 15.635-1.822 2.657-9.665-6.139-18.92-13.59-8.552-6.886-18.827-13.057-16.476-16.905zM205.294 271.84c.14-3.664 12.503-2.273 23.945-2.4 11.21-.124 21.13-1.16 21.53 1.4 2.25 14.429.81 22.059 2.289 31.776 1.147 7.535 5.611 7.345 8.327 9.344 2.548 1.876 3.901 15.162.787 14.582-3.523-.655-9.331 1.199-9.623 3.571-1.645 13.36-.499 30.701-1.147 47.18-.149 3.78 10.409 10.444 10.97 14.47 1.124 8.07 2.229 17.405-1.745 13.879-4.737-4.205-5.078-4.011-8.225-.821-3.11 3.153-.68 30.239-1.261 48.23-.14 4.302-11.207 3.56-22.366 3.726-12.154.18-23.116 1.115-23.428-3.519-.46-6.823-.05-16.696-.147-24.414-.058-4.63-7.572-6.331-12.292-6.125-3.192.139-3.198-4.045-2.78-9.519.286-3.74 14.419-6.924 14.502-27.669l.265-66.046c.035-8.644-1.523-12.623-8.597-6.98-3.834 3.06-4.715-14.07-2.841-14.994 14.701-7.239 11.65-20.76 11.837-25.67z"/>
</svg>
