<svg xmlns="http://www.w3.org/2000/svg" xml:space="preserve" viewBox="30.5 31.5 400 500" height="500" width="400">
    <path style="fill:#0085ca;fill-opacity:1" d="M230.44 531.14C156.12 477.22 105.18 409.12 74.7 322.98c-27.64-78.1-38.73-172.75-33.91-289.35l.02-.46h379.82l.02.46c4.81 116.6-6.28 211.24-33.91 289.35-30.48 86.14-81.42 154.24-155.74 208.16l-.28.2z"/>
    <path style="fill:#fff;fill-rule:evenodd;stroke:none;stroke-width:1px;stroke-linecap:butt;stroke-linejoin:miter;stroke-opacity:1" d="M102.38 385.954c11.842-22.613 31.638-53.429 49.218-69.827 22.976-21.431 56.16-31.469 76.76-52.417 20.948-20.6 23.868-50.192 45.978-72.516 22.325-22.11 50.165-24.79 70.517-45.979 24.386-25.39 33.661-65.955 56.422-92.327 5.773-6.689 11.875-13.377 17.831-20.066l-30.183.03c-23.19 19.58-35.609 70.94-60.07 96.363-20.37 21.172-48.192 23.868-70.517 45.979-22.11 22.324-25.03 51.916-45.978 72.516-20.6 20.948-53.784 30.986-76.76 52.417-15.625 14.575-33 40.538-44.986 62.01z"/>
    <path d="M388.923 32.852c-23.19 19.58-35.609 70.94-60.07 96.363-20.37 21.172-48.192 23.868-70.517 45.979-22.11 22.324-25.03 51.916-45.978 72.516-20.6 20.948-53.784 30.986-76.76 52.417-15.625 14.575-33 40.538-44.986 62.01m11.768 23.817c11.842-22.613 31.638-53.429 49.218-69.827 22.976-21.431 56.16-31.469 76.76-52.417 20.948-20.6 23.868-50.192 45.978-72.516 22.325-22.11 50.165-24.79 70.517-45.979 24.386-25.39 33.661-65.955 56.422-92.327 5.773-6.689 11.875-13.377 17.831-20.066" style="fill:none;fill-rule:evenodd;stroke:#000;stroke-width:1px;stroke-linecap:butt;stroke-linejoin:miter;stroke-opacity:1"/>
    <path style="fill:#fff;fill-rule:evenodd;stroke:none;stroke-width:1px;stroke-linecap:butt;stroke-linejoin:miter;stroke-opacity:1" d="m352.125 32.7-24.771-.038c-10.247 20.732-19.374 44.83-34.501 60.553-20.37 21.172-48.192 23.868-70.517 45.979-22.11 22.324-25.03 51.916-45.978 72.516-20.6 20.948-53.784 30.986-76.76 52.417-10.352 9.656-21.472 24.311-31.284 39.347l9.008 27.128c11.27-18.629 25.37-38.437 38.276-50.475 22.976-21.431 56.16-31.469 76.76-52.417 20.948-20.6 23.868-50.192 45.978-72.516 22.325-22.11 50.146-24.807 70.517-45.979 19.25-20.007 28.782-53.577 43.272-76.515"/>
    <path d="M327.354 32.662c-10.247 20.732-19.374 44.83-34.501 60.553-20.37 21.172-48.192 23.868-70.517 45.979-22.11 22.324-25.03 51.916-45.978 72.516-20.6 20.948-53.784 30.986-76.76 52.417-10.352 9.656-21.472 24.311-31.284 39.347m9.008 27.128c11.27-18.629 25.37-38.437 38.276-50.475 22.976-21.431 56.16-31.469 76.76-52.417 20.948-20.6 23.868-50.192 45.978-72.516 22.325-22.11 50.146-24.807 70.517-45.979 19.25-20.007 28.782-53.577 43.272-76.515" style="fill:none;fill-rule:evenodd;stroke:#000;stroke-width:1px;stroke-linecap:butt;stroke-linejoin:miter;stroke-opacity:1"/>
    <path d="M421.327 109.227c-13.006 22.826-22.507 53.314-40.474 71.988-20.37 21.172-48.192 23.868-70.517 45.979-22.11 22.324-25.03 51.916-45.978 72.516-20.6 20.948-53.784 30.986-76.76 52.417-19.505 18.194-41.74 54.136-52.809 76.932-.72 1.8-1.376 3.162-2.101 5.086-4.533-6.043-10.273-14.226-14.015-20.39 11.07-22.795 33.42-59.434 52.925-77.628 22.976-21.431 56.16-31.469 76.76-52.417 20.948-20.6 23.868-50.192 45.978-72.516 22.325-22.11 50.146-24.807 70.517-45.979 24.461-25.424 33.232-72.748 56.422-92.327" style="fill:#fff;fill-rule:evenodd;stroke:none;stroke-width:1px;stroke-linecap:butt;stroke-linejoin:miter;stroke-opacity:1;fill-opacity:1"/>
    <path style="fill:none;fill-rule:evenodd;stroke:#000;stroke-width:1px;stroke-linecap:butt;stroke-linejoin:miter;stroke-opacity:1" d="M421.327 109.227c-13.006 22.826-22.507 53.314-40.474 71.988-20.37 21.172-48.192 23.868-70.517 45.979-22.11 22.324-25.03 51.916-45.978 72.516-20.6 20.948-53.784 30.986-76.76 52.417-19.505 18.194-41.74 54.136-52.809 76.932-.72 1.8-1.376 3.162-2.101 5.086-4.533-6.043-10.273-14.226-14.015-20.39 11.07-22.795 33.42-59.434 52.925-77.628 22.976-21.431 56.16-31.469 76.76-52.417 20.948-20.6 23.868-50.192 45.978-72.516 22.325-22.11 50.146-24.807 70.517-45.979 24.461-25.424 33.232-72.748 56.422-92.327"/>
    <path d="M419.96 33.21c9.07 219.45-36.26 385.95-189.46 497.1C77.31 419.16 31.99 252.66 41.06 33.21h378.9m.92-.95H40.14l-.04.92c-4.82 116.66 6.28 211.36 33.93 289.52 30.51 86.24 81.51 154.41 155.91 208.39l.56.41.56-.41c74.4-53.98 125.4-122.15 155.91-208.39 27.65-78.16 38.75-172.86 33.93-289.52l-.04-.92z"/>
</svg>
