<svg xmlns="http://www.w3.org/2000/svg" xml:space="preserve" viewBox="30.5 31.5 400 500" height="500" width="400">
    <path d="M230.44 531.14C156.12 477.22 105.18 409.12 74.7 322.98c-27.64-78.1-38.73-172.75-33.91-289.35l.02-.46h379.82l.02.46c4.81 116.6-6.28 211.24-33.91 289.35-30.48 86.14-81.42 154.24-155.74 208.16l-.28.2-.28-.2z" fill="#32ac60"/>
    <path d="M419.96 33.21c9.07 219.45-36.26 385.95-189.46 497.1C77.31 419.16 31.99 252.66 41.06 33.21h378.9m.92-.95H40.14l-.04.92c-4.82 116.66 6.28 211.36 33.93 289.52 30.51 86.24 81.51 154.41 155.91 208.39l.56.41.56-.41c74.4-53.98 125.4-122.15 155.91-208.39 27.65-78.16 38.75-172.86 33.93-289.52l-.04-.92z"/>
    <path d="M191.96 234.08c2.14 2.05 7.89 6.8 8.1 6.62 12.5-12.21 19.09-62.47 15.14-65.41-7.34-5.47-21.59-14.88-30.7-17.13-3.38-9.83-5.99-18.84-12.91-27.45-41.88-52.15-79-69.4-99.7-79.12-5.39-2.53-7.92 4.85-6.16 7.5 5.41 8.13 13.52 19.28 18.92 37.06-1.21.3-11.55-9.68-17.49-12.28-1.71-.75-4.44.29-4.22-2.53.8-10.64-4.39-9.71-6.5-5.99-2.12 3.73-4.2 7.86-2.93 10.37 3.64 7.21 21.7 17.4 35.16 50.02 13.46 32.62 17.32 59.03 21.18 95.05-6.55 4.75-19.51 20.85-22.76 31.47 2.53 4.4 13.65 16.88 15.65 16.31 1.98-9.21 4.37-14.68 9.9-21.15-.8 25.68 1.6 46.31 10.5 72.1-2.91 4.43-7.15 16.95-8.95 23.98 2.07 4.13 18.97 27.41 24.58 27.15.45-3.92-.85-7.81 1.82-12.23 5.13 5.22 10.19 10.52 15.87 15.19 0 0-2.13 14.55.99 30.52 2.44 12.51 12.88 27.11 22.93 36.93-2.82-17.23 16.62-21.88 8.46-43.25 18.35 1.63 19.91-17.44 30.59-21.01-14.63-12.37-31.91-16.56-47.79-19.48-2.73-.5-2.56-8.61-3.49-16.71 3.89 2.06 7.82 7.09 10.38 9.97 2-1.9 4.14-9.1 4.13-12.25-6.13-5.45-12.21-11.21-18.73-13.56-3.26-49.5 16.1-65.81 28.04-100.71z" style="fill:#fff;stroke-linecap:round;stroke-linejoin:round;stroke-miterlimit:4;stroke:#000"/>
    <circle cx="103.32" cy="91.48" r="5.64" style="fill:none;stroke-linecap:round;stroke-linejoin:round;stroke-miterlimit:4;stroke:#000"/>
    <circle r="2.49" cy="91.48" cx="103.32"/>
    <path d="m84.65 96.14 3.98 18.11c.48 2.2 3.44 1.85 4.18-.23 1.5-4.18 1.8-8.54 1.9-12.92M87.55 132.95c7.7 2.71 17.36 4.26 23.81 2.28 7.78-2.39 10.54-11.57 18.39-19.46M111.13 144.81c2.78 8.49 2.63 18.71 1.37 24.47 5.61 4.23 11.87 9.91 18.7 13.07 2.58-6.98-.3-23.79-3.34-33.14" style="fill:none;stroke-linecap:round;stroke-miterlimit:4;stroke:#000"/>
    <path d="M269.04 234.08c-2.14 2.05-7.89 6.8-8.1 6.62-12.5-12.21-19.09-62.47-15.14-65.41 7.34-5.47 21.59-14.88 30.7-17.13 3.38-9.83 5.99-18.84 12.91-27.45 41.88-52.15 79-69.4 99.7-79.12 5.39-2.53 7.92 4.85 6.16 7.5-5.41 8.13-13.52 19.28-18.92 37.06 1.21.3 11.55-9.68 17.49-12.28 1.71-.75 4.44.29 4.22-2.53-.8-10.64 4.39-9.71 6.5-5.99 2.12 3.73 4.2 7.86 2.93 10.37-3.64 7.21-21.7 17.4-35.16 50.02-13.46 32.62-17.32 59.03-21.18 95.05 6.55 4.75 19.51 20.85 22.76 31.47-2.53 4.4-13.65 16.88-15.65 16.31-1.98-9.21-4.37-14.68-9.9-21.15.8 25.68-1.6 46.31-10.5 72.1 2.91 4.43 7.15 16.95 8.95 23.98-2.07 4.13-18.97 27.41-24.58 27.15-.45-3.92.85-7.81-1.82-12.23-5.13 5.22-10.19 10.52-15.87 15.19 0 0 2.13 14.55-.99 30.52-2.44 12.51-12.88 27.11-22.93 36.93 2.82-17.23-16.62-21.88-8.46-43.25-18.35 1.63-19.91-17.44-30.59-21.01 14.63-12.37 31.91-16.56 47.79-19.48 2.74-.5 2.56-8.61 3.49-16.71-3.89 2.06-7.82 7.09-10.38 9.97-2-1.9-4.14-9.1-4.13-12.25 6.13-5.45 12.21-11.21 18.73-13.56 3.26-49.5-16.1-65.81-28.04-100.71z" style="fill:#fff;stroke-linecap:round;stroke-linejoin:round;stroke-miterlimit:4;stroke:#000"/>
    <circle transform="scale(-1 1)" r="5.64" cy="91.48" cx="-357.68" style="fill:none;stroke-linecap:round;stroke-linejoin:round;stroke-miterlimit:4;stroke:#000"/>
    <path d="m376.35 96.14-3.98 18.11c-.48 2.2-3.44 1.85-4.18-.23-1.5-4.18-1.8-8.54-1.9-12.92M373.45 132.95c-7.7 2.71-17.36 4.26-23.81 2.28-7.78-2.39-10.54-11.57-18.39-19.46M349.87 144.81c-2.78 8.49-2.63 18.71-1.37 24.47-5.61 4.23-11.87 9.91-18.7 13.07-2.58-6.98.3-23.79 3.34-33.14" style="fill:none;stroke-linecap:round;stroke-miterlimit:4;stroke:#000"/>
    <circle cx="357.68" cy="91.48" r="2.49"/>
</svg>
