<svg xmlns="http://www.w3.org/2000/svg" width="400" height="500" viewBox="30.5 31.5 400 500" xml:space="preserve">
    <path d="M230.44 531.14C156.12 477.22 105.18 409.12 74.7 322.98c-27.64-78.1-38.73-172.75-33.91-289.35l.02-.46h379.82l.02.46c4.81 116.6-6.28 211.24-33.91 289.35-30.48 86.14-81.42 154.24-155.74 208.16l-.28.2-.28-.2z" style="fill:#32ac60"/>
    <path d="M419.96 33.21c9.07 219.45-36.26 385.95-189.46 497.1C77.31 419.16 31.99 252.66 41.06 33.21h378.9m.92-.95H40.14l-.04.92c-4.82 116.66 6.28 211.36 33.93 289.52 30.51 86.24 81.51 154.41 155.91 208.39l.56.41.56-.41c74.4-53.98 125.4-122.15 155.91-208.39 27.65-78.16 38.75-172.86 33.93-289.52l-.04-.92z"/>
    <path style="fill:#ffe000;fill-opacity:1;stroke:#000;stroke-linecap:round;stroke-linejoin:round;stroke-opacity:1" d="M61.199 192.271c3.884 3.268 8.521 6.984 19.097 11.36 11.605 4.802 14.998 7.328 32.17 5.187 7.543-.94 11.969 2.659 10.472 5.055-3.478.28-9.6 2.163-13.784 1.41-4.337-.781-6.222 3.411-5.97 4.967 2.077 12.866 34.944-7.563 43.47 26.715-11.787-.22-14.025-4.711-22.931-8.726-1.295 5.33 1.788 14.124 5.072 17.29 8.838 8.522 28.61 9.196 33.409 33.491-4.623-3.21-9.664-3.377-13.563-6.536-5.388-4.367-5.912-7.417-6.635 3.286-1.045 15.472 28.303 14.047 33.438 38.936-12.966-.939-16.437 1.584-19.882 7.575-3.238 5.63-2.323 5.431 1.4 4.796 15.26-2.604 31.935 11.2 29.156 22.094-11.102-1.964-22.045.854-27.62 14.001-2.5 5.892-3.086 8.065 3.643 5.68 28.943-10.264 30.654 32.728 30.56 38.156-.092 5.428 3.746 5.821 4.946 4.764 11.833-10.427 14.606-4.486 19.764 5.048 3.79 7.005 8.95 13.908 15.847 13.258 5.85-.552 9.385-11.254 12.302-13.519 8.044-6.244 4.603-18.168 16.928-6.237 1.102 1.068 6.157-.682 5.75-3.522-5.966-41.528 15.913-43.878 24.129-39.78 10.689 5.333 9.482 1.922 8.538-1.706-1.762-6.777-.282-19.023-28.503-16.382 13.61-24.046 22.687-20.832 27.795-20.333 5.02.148 10.224 3 2.924-7.808-3.6-5.717-13.186-11.025-18.388-6.337 3.024-21.486 25.92-25.662 32.017-37.237 3.695-7.014-.2-4.869-4.541-4.576-5.91.672-16.51 6.31-15.813 3.058 5.992-27.961 38.142-12.967 36.451-42.274-.595-10.322-20.084 8.033-19.56.822.748-10.293 18.71-22.23 34.353-20.408 13.38 1.56 18.747.726 5.842-8.536-3.758-2.697-13.756-2.338-17.473-2.012 1.976-11.078 35.969.339 60.636-19.786 5.018-4.093-2.552-10.185-6.96-6.743-4.237 3.308-7.906 6.554-10.158 2.331-1.803-3.383 3.313-5.273 8.682-10.651 2.534-2.537-4.002-9.323-5.805-8.422-4.836 2.415-11.336 10.678-14.33 7.563-4.667-4.857 2.997-7.668 7.033-13.65 1.969-2.919-5.773-11.025-8.4-6.719-3.873 6.349-8.764 11.62-11.976 9.57-4.135-2.64 2.638-11.019 3.905-14.687 1.515-4.386-6.66-7.172-8.322-4.18-3.421 6.157-4.952 13.192-9.817 11.264-3.598-1.426.671-7.52 2-14.968.752-4.222-9.105-6.242-9.704-2.754-1.226 7.13-1.444 14.21-6.098 13.733-4.557-.467-2.715-7.997-2.365-15.382.143-3-9.072-2.974-9.03-.464.124 7.639 1.803 15.833-3.57 15.407-3.81-.302-3.46-7.846-4.342-14.654-.512-3.954-9.032-1.697-8.972 1.609.107 5.928 2.02 12.44-2.635 13.56-3.015.726-5.242-7.864-5.714-11.849-.358-3.022-8.346-2.24-8.253 2.874.421 23.109 27.501 41.978 21.72 47.558-5.397-6.803-20.302-9.558-24.263-3.723 16.43 17.107 19.832 40.806 14.231 38.575-7.24-2.884-10.87-8.186-11.618-16.235-.554-5.97-3.286-6.02-6.32-.684-7.945 13.973 10.335 35.669 6.873 44.051-2.978-4.143-9.984-7.477-15.972-7.628-3.051-.077 4.991 24.2 4.543 39.285-8.616-6.108-10.212-4.61-9.473 2.314 3.543 33.213-7.27 59.446-16.322 70.326-2.25-17.388.208-31.391 1.796-34.06 3.813-6.406 3.336-6.799 6.351-13.474 4.662-10.32 6.263-14.535-9.385-5.193.73-25.92 7.146-30.5 15.89-35.71.785-5.033-.75-7.944-4.677-8.176-7.182-.423-17.026 2.874-11.663-5.236 5.816-8.757 16.553-23.154 18.326-32.974 2.263-12.573.65-13.557-7.987-5.787-5.212 3.584-6.865 5.828-11.248 6.947-2.518-22.12 21.996-36.922 25.422-40.444 9.515-9.782-19.15-6.205-23.046 2.772-.81-18.424 27.182-21.11 26.375-32.07-.356-4.833-1.588-3.33-3.167-3.843-6.27-2.035-17.254 9.19-19.14 4.966-4.916-11.01 32.01-16.086 44.53-47.54 2.065-5.185-6.352-5.736-7.356-4.082-4.741 7.813-10.003 14.533-12.54 12.654-3.276-2.425 3.163-10.512 5.74-18.403 1.362-4.169-5.254-8.365-7.595-3.789-3.633 7.101-7.849 17.177-10.743 15.905-2.776-1.22.165-11.937 3.465-18.7 1.79-3.67-5.537-6.646-7.617-3.012-3.834 6.698-5.158 17.163-9.071 15.36-2.332-1.073-.683-9.845 1.923-17.462.97-2.838-8.42-7.003-9.412-1.67-1.48 7.96-1.056 18.017-4.373 17.536-3.257-.472-1.68-10.736-1.216-17.777.327-4.958-9.54-4.385-9.865-.658-.565 6.47 1.371 17.979-2.249 18.002-4.231.027-2.864-9.428-4.46-18.148-.538-2.94-10.93-2.466-10.369 1.895.968 7.511 5.385 17.149 1.561 18.235-3.83 1.088-4.791-8.558-8.672-14.875-2.527-4.114-10.434.316-9.06 3.179 3.55 7.4 7.109 15.95 4.388 17.24-4.003 1.901-5.844-8.788-10.309-15-3.02-4.203-10.591 2.967-9.013 5.58 3.757 6.222 10.446 14.02 6.954 15.726-5.46 2.668-6.364-4.86-11.413-11.365-2.731-3.52-8.908.808-7.695 4.219 12.68 35.667 52.634 32.33 42.131 47.656-2.658 1.663-10.538-1.491-17.045-7.093-1.966-1.692-5.52-3.327-5.656.615-.446 12.933 34.16 23.166 32.009 40.199-.56 4.437-9.472-.984-19.98-11.118-2.392-2.306-4.63-2.773-4.804 7.4-.174 10.173 30.856 20.019 25.817 42.317-4.035-1.652-10.25-8.412-15.107-9.421-3.675-.052-6.116-4.813-5.116 4.62 1.375 12.964 26.214 20.107 19.66 39.51-5.233-2.093-5.276.426-10.21-7.52-4.722-7.607-7.728-8.915-8.265 4.229-.393 9.633 25.63 29.085 18.811 49.18-3.543-4.244-4.706-5.177-7.925-7.413-2.972-2.063-5.247.168-5.169 1.416 1 16.074 18.729 27.23 11.31 55.704-5.963-17.041-15.006-29.923-18.315-45.589-1.103-5.225 1.375-20.464.248-26.371-1.362-7.145-3.749-2.7-8.662.83-6.295-20.611 1.774-32.524 1.656-38.498-5.128.436-7.876 2.181-11.693 7.861-6.762-23.915 1.649-22.63 5.488-32.63 2.269-5.908-5.893-22.315-9.075-12.346-1.882 5.898-4.07 13.01-9.849 15.102-11.882-29.332-.395-37.073 11.867-36.647 1.38.048-1.125-4.03-3.809-5.164-6.993-2.955-18.77 10.384-19.205 8.597-3.408-14.01 18.37-8.715 20.572-48.61.28-5.068-7.014-6.413-7.687-2.069-1.342 8.653-3.406 13.484-7.276 12.38-3.859-1.102.247-6.434.719-15.341.207-3.898-9.138-4.817-9.232-1.273-.193 7.212-.39 14.365-4.937 13.386-2.715-.584-2.454-7.202-2.343-14.304.072-4.691-10.138-3.125-9.739.273.876 7.457 2.85 15.066-1.38 15.96-3.367.712-4.183-8.835-6.241-15.765-1.044-3.515-11.127.302-10.287 2.921 2.512 7.831 7.299 15.428 3.28 17.051-3.812 1.54-7.41-6.861-11.46-13.992-1.633-2.876-10.768 3.08-9.409 5.904 3.196 6.636 10.755 13.936 7.38 17.01-3.37 3.07-8.592-6.343-13.902-12.67-1.997-2.379-10.386 5.046-8.37 7.155 4.97 5.198 14.446 11.042 10.743 15.274-3.841 4.392-11.95-6.359-17.492-10.294-3.089-2.194-8.082 5.914-6.926 6.967 6.008 5.475 15.571 9.242 12.121 13.614-2.523 3.198-8.396-.057-16.105-5.535-2.199-1.562-7.147 5.706-4.535 7.903z"/>
</svg>
