<svg width="471.58" height="685.35" viewBox="0 0 36.36 52.843" xmlns="http://www.w3.org/2000/svg">
    <path d="M18.18 52.843c3.246 0 6.215-.722 8.819-2.14a17.276 17.276 0 0 0 5.206-4.381c2.598-3.252 4.155-7.553 4.155-11.506h-1.068c0 .352-.016.71-.039 1.063l-.71.006c.026-.359.043-.717.043-1.07h-.857c0 3.372-1.335 7.059-3.577 9.86-2.023 2.526-5.741 5.54-11.972 5.54-6.236 0-9.953-3.014-11.972-5.54-2.242-2.801-3.583-6.488-3.583-9.86h-.852c0 .353.012.711.039 1.07l-.706-.006c-.027-.353-.038-.711-.038-1.064H0c0 3.953 1.552 8.254 4.158 11.506a17.248 17.248 0 0 0 5.198 4.383c2.61 1.417 5.579 2.139 8.824 2.139" fill="#0061ad"/>
    <path d="M28.626 14.084a12.73 12.73 0 0 0-.579-.293c-.143-.065-.703-.328-.847-.393-.142-.06-.716-.304-.863-.359-.114-.04-.483-.178-.723-.262-.07-.03-.13-.047-.161-.06-.13-.047-.65-.202-.846-.262h-.024l-.025-.012c-.147-.041-1.74-.454-2.395-.573a24.45 24.45 0 0 0-1.742-.25l-.935-.078c-.096-.006-.186-.006-.275-.006a.82.82 0 0 1-.131-.012h-.06a24.087 24.087 0 0 0-1.879 0h-.065a.728.728 0 0 1-.125.012c-.083 0-.18 0-.274.006l-.937.078a27.61 27.61 0 0 0-1.74.25c-.656.12-2.248.532-2.397.573-.155.048-.752.227-.895.274-.154.054-.738.27-.876.322-.15.055-.728.299-.87.359l-.854.393c-.095.042-.363.179-.578.293zM9.488 9.154c-.07-.376-.195-1.001-.315-1.597-.12-.614-.244-1.24-.327-1.675l-.054-.273c-.048-.245-.078-.417-.089-.471-.041-.232-.203-.387-.435-.387-.035 0-.077 0-.125.012a.417.417 0 0 0-.363.435c0 .042 0 .09.012.131.012.066.065.304.137.638.024.119.054.25.083.387.119.565.304 1.37.458 2.06.078.352.18.757.233 1.001zm17.272-.078c.195.066.57.197.785.262.036-.167.082-.38.142-.625.167-.738.393-1.728.536-2.389.042-.202.083-.38.12-.536l.1-.488c.012-.041.012-.09.012-.132a.418.418 0 0 0-.363-.434c-.047-.012-.088-.012-.126-.012-.23 0-.391.154-.434.387-.011.054-.04.227-.088.47l-.054.276c-.042.22-.09.48-.149.774-.155.84-.351 1.876-.481 2.447m-9.1-1.377c.281-.006.566-.006.846 0a1248.16 1248.16 0 0 1 .047-4.241c0-.28-.166-.483-.464-.483-.31 0-.47.21-.47.483l.011 1.132c0 .232.007.482.013.738.005.792.018 1.853.018 2.37m11.386 6.383h3.374v20.775c0 3.466-1.7 8.376-5.682 11.402-4.978 3.854-12.998 3.538-17.344-.12-3.877-3.037-5.534-7.864-5.534-11.282V14.081h3.262l-.292-1.056-.025-.1-.012-.025.126-.066a.357.357 0 0 1 .041-.018c.078-.042.18-.096.293-.148l-.245-.968-.036.018c-.125.06-.233.113-.28.138l-.101.047-.03-.107-.323-1.181-.022-.072.07-.036c.072-.035.22-.113.364-.184l-2.01-7.525-.017-.082.077-.03c.186-.078.364-.156.549-.228.16-.071.322-.131.483-.19.024-.012.048-.018.072-.03l.1-.037.025.102.25 1.027c.15-.054.292-.114.44-.167.108-.042.21-.078.318-.114l.154-.053-.226-1.056-.018-.078.077-.024c.185-.066.382-.13.567-.19.191-.066.382-.131.578-.186l.096-.024.017.096.203 1.031c.054-.017.107-.028.156-.047.101-.03.201-.06.31-.09.083-.03.173-.053.261-.077.072-.018.144-.041.216-.06l-.18-1.055-.018-.084.084-.018c.197-.06.387-.107.584-.155.101-.024.192-.048.287-.072.095-.023.19-.048.292-.071l.095-.024.019.101.494 3.336a33.826 33.826 0 0 1 4.257-.728L15.058.233l-.005-.09.088-.01c.203-.012.997-.072 1.199-.079l.095-.006.007.096.042 1.056c.059 0 .136-.006.226-.006.25-.012.572-.025.75-.025L17.45.102V.007h.393c.095 0 .196-.006.298-.006.095 0 .196.006.298.006h.387v.095l-.012 1.067c.18 0 .49.013.74.025.095 0 .185.006.25.006L19.84.144l.006-.096.095.006c.203.007.996.067 1.2.078l.088.012-.006.089-.19 3.288c1.483.156 2.897.405 4.203.71L25.73.884l.018-.102.096.023.293.073.292.071c.196.048.387.096.584.155l.084.018-.019.084-.18 1.055c.074.018.145.042.216.06.09.025.18.048.262.077.107.03.204.06.305.09.048.018.1.03.154.049l.203-1.033.018-.095.095.023c.198.054.388.12.58.186.184.06.38.125.565.19l.079.024-.019.083-.228 1.051.157.054c.107.035.208.071.315.114.15.052.299.112.447.165l.251-1.025.024-.101.102.035c.023.011.048.018.07.03.162.06.322.12.485.19.178.072.356.15.542.228l.078.03-.019.084-2.01 7.516c.155.072.31.143.46.221l.071.036-.024.071-.358 1.29-.1-.048c-.055-.025-.161-.078-.281-.138l-.102-.054-.261 1.039c.106.053.207.101.273.13l.127.06-.037.132-.292 1.05z" fill="#0061ad"/>
    <g fill="#ebebeb">
        <path d="M18.159 8.924c-.172 0-.833.018-1 .023l-.47.018h-.03a60.1 60.1 0 0 0-.993.083c-.334.037-1.298.162-1.459.185a26.07 26.07 0 0 0-1.506.287c-.32.07-1.292.314-1.452.363-.161.047-.797.237-.959.292-.155.047-.78.268-.94.321-.155.06-.768.304-.923.369-.155.066-.761.328-.917.393-.094.048-.38.192-.613.298a2.546 2.546 0 0 1-.202.101l-.285-1.042c.095-.048.19-.09.29-.136.037-.019.072-.036.114-.06.15-.072.768-.352.922-.412.162-.064.787-.328.942-.387.16-.06.958-.345.964-.345.16-.053.802-.262.964-.31.16-.047.816-.226.988-.274a26.107 26.107 0 0 1 4.012-.703c.166-.011.85-.066 1.018-.077.166-.006.321-.018.488-.024h.03c.166-.006.339-.011.506-.011h.256c.083-.007.172-.007.255-.007.077 0 .161 0 .25.007h.25c.173 0 .345.005.512.011.173.006.346.018.512.024.172.011.85.066 1.018.077 1.375.132 2.714.37 4.024.703.161.042.816.227.981.274.162.048.804.25.965.31.095.03.804.286.964.345.143.054.661.269.883.358.022.012.046.018.058.03a25.713 25.713 0 0 1 1.327.607l-.292 1.042c-.052-.023-.125-.059-.202-.095-.226-.112-.511-.256-.614-.304l-.909-.393c-.15-.065-.769-.31-.929-.369-.155-.053-.786-.274-.941-.321-.16-.055-.797-.245-.952-.292a44.425 44.425 0 0 0-1.453-.363c-.5-.108-1.006-.204-1.512-.287a67.316 67.316 0 0 0-1.453-.185 66.58 66.58 0 0 0-.992-.083l-.501-.018a58.394 58.394 0 0 0-.994-.023"/>
        <path d="M18.083 11.347c-.155 0-.78.011-.94.018-.066.007-.126.007-.191.012-.089 0-.19.005-.286.012-.155.011-.779.06-.94.077-.59.06-1.173.143-1.75.25-.667.12-2.262.53-2.417.578-.154.041-.75.233-.898.28-.156.055-.744.269-.887.322-.15.059-.733.297-.876.363-.148.06-.714.328-.856.393-.125.06-.554.28-.762.393l-.286-1.047.81-.4c.148-.071.731-.334.874-.393.149-.066.75-.305.893-.358.155-.06.762-.28.91-.327a51.662 51.662 0 0 1 1.394-.417c.304-.084.619-.154.934-.226.423-.096.851-.185 1.274-.256.149-.024.304-.048.458-.066.06-.012.113-.018.173-.025.321-.046.636-.088.958-.118a57.16 57.16 0 0 1 1.447-.107c.166-.006.804-.018.964-.018.155 0 .803.012.964.018.16.006 1.291.09 1.446.107.323.03.643.072.965.118.053.007.113.013.167.025.155.018.303.042.458.066.428.07.851.16 1.274.256.315.072.624.142.94.226.15.042 1.233.363 1.386.417.15.053.757.267.905.327.155.053.75.292.893.358.155.059.738.322.881.393.138.065.62.304.816.4l-.292 1.047a41.13 41.13 0 0 0-.761-.393c-.143-.065-.71-.333-.858-.393a35.72 35.72 0 0 0-.869-.363c-.149-.053-.744-.267-.887-.322a46.129 46.129 0 0 0-.85-.268c-.019-.005-.038-.012-.05-.012-.153-.048-1.754-.458-2.415-.578a21.928 21.928 0 0 0-2.697-.327 4.17 4.17 0 0 0-.286-.012c-.06-.005-.124-.005-.184-.012a45.24 45.24 0 0 0-.946-.018M12.715 35.155l-.72-.697L25.05 21.39a.585.585 0 0 1 .44-.179v.03a.57.57 0 0 1-.167.418zM18.611 18.117a.918.918 0 0 0 .125-.136c.054-.078-.036-.144-.095-.066 0 0-.006 0-.006.005-.107.155-.286.263-.488.263s-.387-.108-.494-.268v-.007c-.06-.083-.15-.005-.083.079 0 .005.005.005.005.011a.367.367 0 0 0 .078.094c-.292.418-.494 1.264-.494 2.092a3.389 3.389 0 0 0 .232 1.28c.066.197.125.37.148.519-.095 0-.25 0-.393-.006-.077 0-.143-.006-.196-.006h-.048c-.154-.238-.47-.84-.583-1.347-.096-.428-.13-.934-.16-1.405a8.1 8.1 0 0 0-.096-.912c-.047-.255-.213-.583-.452-.583.239.233.011.655-.358.637a1.27 1.27 0 0 1-.362-.06c-.167-.047-.31-.195-.412-.386-.172-.328-.166-.733.06-1.03.196-.263.519-.418.864-.418.756 0 1.285.68 1.315 1.394.083-.435.22-.745.44-.976.525-.555 1.453-.537 1.983-.007.22.22.398.554.398.978l-.006-.007c.126-.626.43-1.024.774-1.227.43-.25.988-.232 1.34.136.137.144.231.34.25.561 0 .023.006.054.006.083 0 .31-.131.602-.322.775-.226.202-.564.285-.821.1a.401.401 0 0 1-.107-.548c-.262-.017-.411.323-.459.578a8.468 8.468 0 0 0-.095.912c-.03.47-.066.977-.166 1.405-.12.525-.4 1.079-.56 1.347-.077 0-.25 0-.405-.006-.077 0-.155-.007-.208-.007h-.012c.024-.137.071-.29.124-.464.072-.238.155-.518.19-.804.02-.16.025-.327.025-.495 0-.809-.202-1.65-.476-2.078M18.044 16.269h-3.577v-1.018h7.162v1.018z"/>
        <g stroke-width=".82">
            <path d="M9.656 9.105c-.15-.757-.47-2.383-.643-3.252-.071-.387-.13-.674-.143-.745-.053-.292-.268-.524-.595-.524a.71.71 0 0 0-.155.018.584.584 0 0 0-.5.595c0 .054.006.114.018.167.018.09.107.494.22 1.025.196.916.548 2.447.69 3.097l-.172.078-.357.154c-.143.065-.28.12-.34.142a35.24 35.24 0 0 0-.505.227l-.37.161L4.829 2.81c.162-.065.328-.138.488-.202.161-.066.322-.126.476-.186l.263 1.049.018.077.077-.03c.173-.065.357-.136.535-.202.108-.042.21-.077.316-.113.078-.03.155-.053.232-.084l.06-.017-.012-.066-.233-1.071c.168-.06.334-.114.507-.167.166-.055.327-.114.494-.162l.209 1.061.01.077.078-.024c.083-.023.167-.047.25-.078.102-.029.203-.059.31-.088.084-.024.167-.048.255-.071.102-.03.204-.06.299-.085l.065-.017-.012-.066-.184-1.078c.172-.047.339-.09.518-.131l.285-.071c.071-.018.148-.035.22-.054l1.137 7.553c-.238.06-.774.209-.922.25-.149.048-.703.214-.911.292M27.665 9.475c.143-.638.506-2.186.703-3.11.112-.529.201-.935.22-1.024a.82.82 0 0 0 .018-.167c0-.28-.167-.53-.5-.596a.74.74 0 0 0-.155-.017c-.327 0-.543.232-.595.524-.012.072-.071.358-.143.745-.174.87-.494 2.495-.643 3.246a15.81 15.81 0 0 0-.823-.256c-.17-.048-.825-.227-.993-.268-.006 0-.012-.006-.018-.006L25.873.987l.22.053.287.073c.178.04.345.082.518.13l-.185 1.079-.012.066.065.017c.095.024.196.054.298.083.09.024.172.048.256.072.107.03.208.06.31.09.083.029.166.052.249.076l.078.025.011-.077.209-1.061c.168.048.327.107.494.16.172.054.34.107.506.167l-.233 1.072-.011.066.06.019c.077.028.154.052.232.082.107.036.208.072.315.114.18.065.363.137.536.202l.077.03.018-.077.262-1.05c.155.06.315.12.476.185l.488.203-1.976 7.433a34.621 34.621 0 0 0-.844-.375c-.22-.089-.746-.31-.887-.364-.006 0-.02-.005-.025-.005M21.314 44.608a1.285 1.285 0 0 0-.798-.28c-.535 0-.993.333-1.185.798a1.288 1.288 0 0 0-1.255-1.031 1.29 1.29 0 0 0-1.256 1.031 1.284 1.284 0 0 0-1.185-.798c-.273 0-.53.089-.738.239v-1.508h6.417z"/>
        </g>
        <path d="m17.944 28.321-.363.363-.256-.261-5.684-5.897.369-.37 5.684 5.91z"/>
        <g stroke-width=".82">
            <path d="M15.891 42.266h4.595c.59 0 .828.107.828.327 0 .226-.239.328-.828.328h-4.684c-.595 0-.827-.102-.827-.328 0-.22.232-.327.827-.327zM18.667 7.717c.006-.99.054-3.998.06-4.241v-.012c0-.346-.233-.637-.63-.637-.418 0-.638.298-.638.649 0 .131.012.966.024 1.87.012.822.012 1.883.012 2.377-.292.011-.578.024-.87.048-.154.012-.725.047-.958.07l-.435-7.54c.245-.017.81-.059 1.055-.071l.04 1.077v.072l.072-.005c.06 0 .179-.007.322-.013.31-.005.714-.023.846-.023h.071v-.072L17.626.182c.071 0 .148 0 .226-.005h.59c.077.005.154.005.225.005l-.006 1.084v.072h.066c.13 0 .518.012.828.023.148.006.279.013.344.013l.072.005v-.072L20.007.23c.25.012.815.054 1.06.071l-.424 7.54c-.244-.023-.785-.058-.94-.07a29.227 29.227 0 0 0-1.036-.054M20.256 42.154h-4.245c-.534 0-.75-.1-.75-.328 0-.22.216-.32.75-.32h4.245c.53 0 .75.1.75.32 0 .227-.22.328-.75.328"/>
        </g>
        <path d="m16.138 31.656 2.06-2.21.374.375 1.488 1.542.382 9.995h-4.643z"/>
        <g stroke-width=".82">
            <path d="M11.017 4.383a31.31 31.31 0 0 1 4.239-.727l.238 4.188c-1.322.13-2.613.356-3.864.679zM18.27 29.361l.352-.375.416.416 3.727 3.872a1.66 1.66 0 0 0-.191.167c-.065.066-.126.125-.178.19l-3.746-3.883zM21.037 3.661c1.478.143 2.888.405 4.186.71l-.613 4.132a26.062 26.062 0 0 0-3.81-.66z"/>
        </g>
        <path d="m13.865 25.029-2.096 2.026-.916-.954.631-.607.547.571.388-.374-.555-.573.692-.667-.37-.38-.69.673-.554-.572-.38.37.547.57-.631.609-.917-.96 2.095-2.025zM19.472 22.121c.543 0 .703.125.703.339 0 .16-.09.262-.359.31h-3.368c-.268-.048-.363-.15-.363-.31 0-.214.167-.339.703-.339zM19.866 26.408l-1.833 1.835-.251-.257-1.475-1.53.124-3.586 3.298.007z"/>
        <g stroke-width=".82">
            <path d="M19.514 10.163a7.92 7.92 0 0 0-.458-.03c-.16-.006-.809-.023-.97-.023a56.1 56.1 0 0 0-.97.023c-.054 0-.203.011-.387.023l-.03-1.011h.006c.155-.013.31-.02.465-.025.165-.006.826-.018.994-.018.16 0 .821.012.987.018l.392.019zM27.922 12.195c-.155-.071-.298-.13-.363-.16-.149-.06-.744-.304-.899-.358-.156-.06-.762-.274-.916-.327a6.02 6.02 0 0 0-.346-.108l.166-1.036c.18.053.34.107.412.131.16.048.785.267.934.322.162.06.774.297.928.364.06.022.198.082.346.148zM10.841 11.219c-.203.059-.369.113-.423.13-.15.049-.762.27-.916.328-.143.054-.75.298-.9.358-.053.024-.16.071-.285.131l-.25-.965c.179-.077.345-.15.416-.179.15-.065.762-.303.917-.363.155-.054.78-.275.934-.322.06-.024.197-.066.345-.107zM26.459 33.22a1.13 1.13 0 0 0-.197.16c-.03.031-.06.055-.083.084-.321-.237-.701-.374-.988-.374-.142 0-.268.017-.386.053a1.065 1.065 0 0 0-.453.256c-.126.125-.185.357-.077.477.005-.167.101-.286.255-.286.084 0 .19.065.21.226.005.024.005.042.005.06 0 .148-.107.256-.256.298a.446.446 0 0 1-.16.023c-.163 0-.322-.071-.393-.203a.707.707 0 0 1-.09-.345c0-.37.315-.703.798-.846.155-.054.333-.077.511-.077.394 0 .912.185 1.304.494M22.716 37.853c.066-.041.13-.095.195-.16.03-.03.06-.054.085-.084.32.238.701.376.987.376.143 0 .267-.019.387-.055a1.08 1.08 0 0 0 .453-.256c.124-.124.184-.356.077-.475-.005.165-.101.285-.256.285-.083 0-.19-.066-.209-.226-.005-.024-.005-.042-.005-.06 0-.148.107-.256.255-.298a.461.461 0 0 1 .161-.024c.16 0 .322.072.393.203.065.12.09.239.09.345 0 .37-.316.703-.798.846a1.584 1.584 0 0 1-.513.077c-.392 0-.91-.184-1.302-.494M19.202 45.631c-.5.036-.922.357-1.102.8a1.29 1.29 0 0 0-1.19-1.031v-.024c0-.637.523-1.162 1.161-1.162a1.167 1.167 0 0 1 1.131 1.417M21.649 45.846a1.3 1.3 0 0 0-1.111.804 1.292 1.292 0 0 0-1.186-1.02v-.023c0-.637.525-1.161 1.161-1.161a1.166 1.166 0 0 1 1.136 1.4M24.077 46.067a1.283 1.283 0 0 0-1.1.804 1.293 1.293 0 0 0-1.19-1.03v-.025c0-.637.524-1.162 1.16-1.162.637 0 1.16.525 1.16 1.162 0 .09-.011.173-.03.251M15.571 46.833v.084a1.28 1.28 0 0 0-1.185 1.017 1.291 1.291 0 0 0-1.112-.803.376.376 0 0 1-.018-.12v-.007c-.006-.035-.006-.07-.006-.105 0-.638.524-1.162 1.16-1.162.59 0 1.084.446 1.155 1.017 0 .025 0 .05.006.079"/>
            <path d="M18.005 46.6v.084c-.59.03-1.078.464-1.19 1.03a1.29 1.29 0 0 0-1.102-.798c-.012-.042-.018-.084-.024-.132v-.03c-.006-.03-.006-.059-.006-.088 0-.638.524-1.162 1.161-1.162A1.17 1.17 0 0 1 18 46.523c0 .023 0 .047.006.077M25.402 47.004a1.3 1.3 0 0 0-1.173-.941v-.022c0-.638.525-1.163 1.162-1.163.637 0 1.16.525 1.16 1.163a.888.888 0 0 1-.023.22c-.359.267-.732.512-1.126.743"/>
            <path d="M18.826 48.853a18.618 18.618 0 0 1-1.518-.007c-.244-.213-.399-.53-.399-.875 0-.636.524-1.161 1.161-1.161s1.161.525 1.161 1.16c0 .353-.16.669-.405.883M9.59 46.127l.006-.084c0-.637.524-1.161 1.16-1.161.566 0 1.048.423 1.144.959-.583.035-1.071.47-1.184 1.03-.203-.13-.477-.291-.715-.453-.137-.095-.274-.179-.411-.291M16.77 45.4c-.59.035-1.072.47-1.185 1.03a1.297 1.297 0 0 0-1.119-.799v-.023c0-.637.524-1.162 1.161-1.162a1.17 1.17 0 0 1 1.143.954M20.579 46.917c.107-.53.583-.942 1.142-.942.637 0 1.161.525 1.161 1.162a1.285 1.285 0 0 0-1.125.797 1.286 1.286 0 0 0-1.178-1.017M14.343 45.631a1.295 1.295 0 0 0-1.185 1.02 1.299 1.299 0 0 0-1.124-.804v-.024c0-.638.524-1.162 1.16-1.162.571 0 1.054.429 1.149.97"/>
            <path d="M18.185 46.553c.13-.436.517-.763.988-.81.041-.007.077-.007.118-.007.59 0 1.084.446 1.155 1.019 0 .023 0 .048.006.078v.083c-.506.029-.934.351-1.118.798a1.292 1.292 0 0 0-1.179-1.03.5.5 0 0 1 .023-.096c0-.012.007-.023.007-.035M16.621 48.807a14.908 14.908 0 0 1-2.13-.352 1.166 1.166 0 0 1 1.136-1.405c.637 0 1.16.524 1.16 1.162 0 .214-.059.416-.166.595"/>
            <path d="M21.638 48.495c-.667.15-1.375.262-2.113.322a1.188 1.188 0 0 1-.172-.607c0-.637.524-1.161 1.16-1.161a1.166 1.166 0 0 1 1.125 1.446M10.826 46.969a1.166 1.166 0 0 1 1.149-1.007c.59 0 1.083.447 1.154 1.02 0 .022 0 .047.006.076v.084c-.393.018-.744.22-.964.524-.471-.21-.923-.44-1.345-.697M24.026 47.714a1.288 1.288 0 0 0-.995-.572c.008-.036.012-.065.025-.095 0-.013.006-.018.006-.03.13-.435.524-.775.993-.821.042-.008.078-.008.121-.008.541 0 1.005.382 1.13.889-.405.233-.834.447-1.28.637M12.168 35.668c-.827.888-1.47 1.328-1.863 1.501a.719.719 0 0 0-.303-.292c.16-.41.577-1.066 1.428-1.912z"/>
        </g>
        <path d="m11.383 34.032.435.429 1.363 1.304-.375.387-1.798-1.74zM29.342 47.323c.137-.12.158-.224.05-.344-.054-.064-.168-.13-.32.007l-.321.288.293.325zm-1.013-.052.62-.564c.325-.293.603-.114.694-.011.12.136.157.309.07.461.142-.049.23-.065.434.164.162.173.201.217.272.19l.033.027-.288.26a1.08 1.08 0 0 1-.245-.218c-.151-.162-.216-.216-.406-.048l-.266.244.429.468-.25.228zM23.9 47.746c-.66.28-1.363.512-2.114.697v-.036c0-.637.524-1.161 1.161-1.161.393 0 .744.202.953.5M6.483 46.279l-.58-.657-.257.228.533.603-.212.19-.538-.602-.314.276.613.69-.217.19-.835-.94 1.21-1.08.813.912zM14.35 48.405a12.855 12.855 0 0 1-2.078-.703 1.15 1.15 0 0 1 .917-.453c.637 0 1.161.525 1.161 1.156M8.974 48.462l-.705-.515-.207.27.657.48-.174.232-.651-.478-.244.343.737.538-.168.234-1.015-.74.956-1.313.988.716zM1.1 39.201l1.536-.536.119.31-.816 1.018 1.036-.369.101.316-1.536.535-.118-.327.826-.995-1.047.37zM2.403 42.56l1.477-.698.5 1.073-.239.113-.369-.762-.356.173.303.642-.239.12-.309-.655-.637.303z"/>
        <g stroke-width=".82">
            <path d="m4.006 44.918.173.25c.13.185.345.239.648.036.172-.119.25-.238.274-.34.042-.118.036-.226-.083-.38l-.13-.19zm-.435-.119 1.346-.94.41.577c.196.28.155.72-.291 1.03-.43.298-.857.196-1.047-.089zM33.608 41.867c.38.19.429.51.244.88-.07.142-.201.326-.412.386-.131.038-.26.01-.408-.06l-.965-.478.156-.32.945.472c.2.103.353.027.423-.12.104-.211.05-.347-.13-.44l-.954-.472.156-.32zM23.32 10.68a21.67 21.67 0 0 0-1.215-.244l-.463-.072c-.03-.005-.06-.005-.095-.011l.07-1.02c.221.031.394.055.453.06.465.078.916.162 1.375.256zM14.689 10.349a1.772 1.772 0 0 1-.172.024l-.46.071c-.386.066-.773.143-1.148.227l-.119-.995c.476-.102.959-.197 1.441-.274.054-.006.196-.03.38-.053zM34.32 41.032l.12-.315c.098-.266-.131-.45-.386-.543-.445-.168-.565.038-.613.18l-.12.308zm-1.372-.176.254-.69c.196-.52.674-.466.961-.363.327.125.75.429.56.939l-.25.674z"/>
        </g>
        <path d="m31.365 46.447-.228.26-1.004-.879-.33.374-.219-.19.885-1.015.218.19-.326.38zM32.988 44.257l-.184.293-1.128-.711-.266.424-.244-.153.717-1.145.243.152-.266.43z"/>
        <g stroke-width=".82">
            <path d="M35.012 38.836c.044-.179 0-.46-.444-.57-.44-.109-.614.12-.657.299-.044.184 0 .466.444.575.44.108.614-.12.657-.304m-1.377-.356c.05-.211.282-.75 1.02-.565.74.185.69.765.635.978-.048.211-.282.748-1.02.57-.738-.185-.69-.766-.635-.983M18.597 22.002h-.917c-.018-.179-.089-.375-.16-.583-.077-.233-.168-.483-.197-.745a4.332 4.332 0 0 1-.03-.489c0-.803.203-1.614.464-2 .006.005.012.005.018.011a.698.698 0 0 0 .37.102c.13 0 .249-.036.35-.102.251.394.453 1.21.453 2.001 0 .161-.012.323-.029.483-.03.268-.108.53-.186.78a3.663 3.663 0 0 0-.136.542M28.174 49.128c.15-.108.303-.353.043-.722-.267-.375-.543-.315-.694-.206-.152.108-.305.352-.044.722.26.375.542.315.695.206m-.827-1.142c.178-.126.705-.386 1.145.238.439.624.016 1.032-.164 1.157-.18.13-.7.386-1.14-.239-.44-.625-.022-1.032.159-1.156M14.744 51.471c-.093.418-.39.538-.798.451-.147-.033-.364-.12-.471-.31-.067-.114-.072-.25-.04-.412l.235-1.048.341.075-.228 1.033c-.048.218.06.342.217.38.234.048.354-.038.396-.229l.234-1.047.342.076z"/>
        </g>
        <path d="m3.017 43.871 1.457-.738.15.303-1.458.738zM.838 38.403l.1.328 1.555-.49-.096-.32zM22.203 37.294a2.11 2.11 0 0 1-.417-1.222c0-.184.023-.363.071-.524.155-.494.5-.822.87-.822.119 0 .239.03.368.108.12.072.191.22.191.375 0 .06-.011.113-.025.167a.463.463 0 0 1-.106.185.306.306 0 0 1-.382.03c-.071-.048-.107-.12-.107-.173 0-.156.131-.25.3-.257-.251-.07-.347-.023-.467.042a1.17 1.17 0 0 0-.296.494c-.035.126-.06.256-.06.4 0 .274.12.619.334.935-.096.072-.191.16-.274.262M26.97 33.787c.285.387.416.84.416 1.22 0 .186-.024.365-.07.526-.155.494-.501.821-.87.821a.702.702 0 0 1-.369-.106.437.437 0 0 1-.19-.377c0-.059.011-.111.023-.165a.471.471 0 0 1 .107-.185.306.306 0 0 1 .382-.03c.07.047.107.119.107.173 0 .155-.131.25-.299.256.251.07.346.023.465-.041.12-.114.238-.292.298-.496.035-.125.058-.256.058-.398 0-.275-.118-.62-.332-.936.096-.071.19-.161.274-.262M22.917 51.146l.407-.12-.376-.559zm-.031.674-.352.102.124-1.727.384-.108 1.005 1.4-.358.104-.195-.293-.585.168zM9.275 50.14l-.298-.174.667-1.157-.433-.25.145-.249 1.167.679-.146.25-.434-.256zM32.291 45.358l-.207.276-1.302-.966.207-.277zM26.459 50.374l-.303.169-.777-1.428 1.036-.565.142.255-.733.396.173.321.642-.348.135.255-.64.349zM20.624 52.273l-.342.043-.158-1.33-.493.06-.038-.289 1.34-.157.033.288-.498.06zM15.518 51.703c-.01.087.016.266.315.298.163.016.352 0 .37-.168.015-.13-.105-.174-.278-.234l-.168-.065c-.26-.086-.51-.18-.472-.532.021-.179.158-.483.689-.424.505.055.602.397.586.592l-.331-.038c0-.07-.01-.244-.308-.277-.132-.016-.294.012-.31.158-.017.124.087.169.158.189l.384.142c.223.082.419.195.386.484-.054.488-.565.472-.711.456-.597-.071-.663-.424-.641-.62zM12.803 51.187c-.108.326-.336.429-.652.32-.52-.173-.411-.5-.315-.792l.31.103c-.08.24-.108.364.07.424.169.06.218-.044.256-.164l.369-1.091.331.109zM16.172 30.084l.095-2.59.964 1.006.262.261zM17.83 52.402l-.348-.005.033-1.336-.5-.01.006-.289 1.346.028-.006.287-.5-.01zM19.907 27.623l.096 2.615-.876-.911-.416-.423z"/>
        <g stroke-width=".82">
            <path d="M22.357 34.252a.216.216 0 0 1-.054-.143c0-.142.114-.357.357-.59.232-.226.446-.339.596-.339.059 0 .107.018.148.06a.206.206 0 0 1 .054.142c0 .144-.114.363-.357.596-.232.22-.446.333-.59.333a.223.223 0 0 1-.154-.059M28.052 12.264l.268-1.024c.18.077.352.155.417.184.066.03.22.102.375.18l-.256 1.042c-.173-.084-.34-.167-.41-.203-.066-.03-.228-.108-.394-.18M7.948 11.277l.25.964c-.19.084-.38.173-.458.208-.06.03-.196.096-.339.168l-.244-.971c.178-.09.363-.179.434-.214.06-.03.203-.09.357-.155M24.422 10.938l.148-1.013c.214.055.399.102.459.12.065.018.225.066.393.113l-.168 1.03c-.303-.088-.666-.202-.832-.25M24.429 9.907l-.15 1.012c-.262-.071-.528-.13-.796-.19l.124-1.024c.173.035.519.119.822.202M11.975 10.891l-.143-.977c.286-.077.62-.161.822-.209l.119.996c-.268.059-.536.124-.798.19M11.697 9.951l.143.977c-.108.03-.488.149-.833.25l-.161-.99c.19-.058.386-.118.463-.135.055-.018.204-.054.388-.102M26.123 34.074a.187.187 0 0 1-.054-.137c0-.119.09-.286.273-.465.185-.179.347-.256.465-.256.06 0 .108.018.149.06a.209.209 0 0 1 .053.143c0 .113-.082.28-.268.458-.183.178-.35.263-.47.263a.182.182 0 0 1-.148-.066M23.057 37.011a.188.188 0 0 1 .052.137c0 .119-.087.286-.273.464-.185.179-.345.257-.464.257a.199.199 0 0 1-.15-.06.217.217 0 0 1-.052-.143c0-.113.082-.28.267-.459.184-.179.352-.262.47-.262.06 0 .107.018.15.066M20.608 10.244l.041-1.02c.179.019.53.06.845.102l-.077 1.019c-.274-.035-.535-.071-.809-.101M15.609 9.233l.042 1c-.268.03-.536.066-.81.102l-.077-1c.292-.037.63-.079.845-.102M9.748 37.888c-.256 0-.465-.21-.465-.465s.215-.47.465-.47a.467.467 0 1 1 0 .936M20.511 9.217l-.054 1.012c-.15-.011-.489-.036-.798-.054l.03-1.03c.161.012.583.047.822.072M15.785 10.22l-.053-1.001c.178-.017.595-.053.821-.071l.03 1.018-.798.054M25.677 37.063a.372.372 0 1 1 0-.744c.21 0 .369.16.369.368s-.166.376-.369.376M23.147 34.388a.373.373 0 0 1 .369-.357h.017a.38.38 0 0 1 .363.376v.01a.374.374 0 0 1-.374.365h-.012a.385.385 0 0 1-.363-.382z"/>
        </g>
        <path d="m21.345 50.518.305 1.597.341-.065-.309-1.596zM11.226 21.973a.254.254 0 0 1-.256-.256c0-.143.113-.256.256-.256s.255.113.255.256a.253.253 0 0 1-.255.256M11.909 22.088l-.345.346-.173-.364a.484.484 0 0 0 .167-.16zM18.797 50.779l.077 1.623.34-.016-.07-1.618zM16.756 48.812c.06-.113.107-.232.131-.357.06.142.143.268.244.38-.125-.005-.25-.017-.375-.023M19.018 48.846c.107-.113.19-.244.25-.388.024.131.07.25.136.363-.13.012-.256.02-.386.025"/>
    </g>
</svg>
