<svg xmlns="http://www.w3.org/2000/svg" xml:space="preserve" viewBox="30.5 31.5 400 500" height="500" width="400">
    <path d="M230.44 531.14C156.12 477.22 105.18 409.12 74.7 322.98c-27.64-78.1-38.73-172.75-33.91-289.35l.02-.46h379.82l.02.46c4.81 116.6-6.28 211.24-33.91 289.35-30.48 86.14-81.42 154.24-155.74 208.16l-.28.2-.28-.2z" fill="#0085ca"/>
    <path d="M419.96 33.21c9.07 219.45-36.26 385.95-189.46 497.1C77.31 419.16 31.99 252.66 41.06 33.21h378.9m.92-.95H40.14l-.04.92c-4.82 116.66 6.28 211.36 33.93 289.52 30.51 86.24 81.51 154.41 155.91 208.39l.56.41.56-.41c74.4-53.98 125.4-122.15 155.91-208.39 27.65-78.16 38.75-172.86 33.93-289.52l-.04-.92z"/>
    <path d="M111.58 57.96c-6.84-1.49-12.93 7.47-1.22 10.79 9.85 2.79 7.38 10.3 2.71 9.12-1.94-.49-4.59-4.41-7.91-2.92-2.45 1.1-4.93 4.03.74 8.01 19.41 13.66 29.48 45.68 29.9 71.89.52 32.63-11.35 58.96-24.99 62.61-5.44 1.46-11.13-19.83-10.05-30.85.99-10.04 12.42 2.32 13.03-1.68-5.05-13.11-11.41-23.85-16.93-37-4.53-10.77-8.92-21.9-15.47-28.03-8.31-7.28-.37 10.43.79 24.49 1.41 17.19-.45 35.94-.89 53.14-1.05 41.06 11.74 78.2 22.03 75.59 13.84-3.51 37.89-21.84 47.8-51.7 5.8-17.49 7.14-40.48 5.16-68.58-1.28-18.23-1.94-39.13-6.17-62.91-.77-4.33-9.77-6.52-12.26-8.13-3.29-2.13-1.81-6.77 1.83-5.33 3.82 1.51 6.57-5.3.44-7.64zM205.58 129.96c-6.84-1.49-12.93 7.47-1.22 10.79 9.85 2.79 7.38 10.3 2.71 9.12-1.94-.49-4.59-4.41-7.91-2.92-2.45 1.1-4.93 4.03.74 8.01 19.41 13.66 29.48 45.68 29.9 71.89.52 32.63-11.35 58.96-24.99 62.61-5.44 1.46-11.13-19.83-10.05-30.85.99-10.04 12.42 2.32 13.03-1.68-5.05-13.11-11.41-23.85-16.93-37-4.53-10.77-8.92-21.9-15.47-28.03-8.31-7.28-.37 10.43.79 24.49 1.41 17.19-.45 35.94-.89 53.14-1.05 41.06 11.74 78.2 22.03 75.59 13.84-3.51 37.89-21.84 47.8-51.7 5.8-17.49 7.14-40.48 5.16-68.58-1.28-18.23-1.94-39.13-6.17-62.91-.77-4.33-9.77-6.52-12.26-8.13-3.29-2.13-1.81-6.77 1.83-5.33 3.82 1.51 6.57-5.3.44-7.64zM299.58 201.96c-6.84-1.49-12.93 7.47-1.22 10.79 9.85 2.79 7.38 10.3 2.71 9.12-1.94-.49-4.59-4.41-7.91-2.92-2.45 1.1-4.93 4.03.74 8.01 19.41 13.66 29.48 45.68 29.9 71.89.52 32.63-11.35 58.96-24.99 62.61-5.44 1.46-11.13-19.83-10.05-30.85.99-10.04 12.42 2.32 13.03-1.68-5.05-13.11-11.41-23.85-16.93-37-4.53-10.77-8.92-21.9-15.47-28.03-8.31-7.28-.37 10.43.79 24.49 1.41 17.19-.45 35.94-.89 53.14-1.05 41.06 11.74 78.2 22.03 75.59 13.84-3.51 37.89-21.84 47.8-51.7 5.8-17.49 7.14-40.48 5.16-68.58-1.28-18.23-1.94-39.13-6.17-62.91-.77-4.33-9.77-6.52-12.26-8.13-3.29-2.13-1.81-6.77 1.83-5.33 3.82 1.51 6.57-5.3.44-7.64z" style="fill:#fff;stroke-miterlimit:4;stroke:#000"/>
</svg>
