<svg xmlns="http://www.w3.org/2000/svg" width="400" height="500" viewBox="30.5 31.5 400 500" xml:space="preserve">
    <path fill="#0085ca" d="M230.56 531.14c74.32-53.92 125.26-122.02 155.74-208.16 27.64-78.1 38.73-172.75 33.91-289.35l-.02-.46H40.37l-.02.46c-4.81 116.6 6.28 211.24 33.91 289.35 30.48 86.14 81.42 154.24 155.74 208.16l.28.2.28-.2z"/>
    <path d="M41.04 33.21C31.97 252.66 77.3 419.16 230.5 530.31c153.19-111.15 198.51-277.65 189.44-497.1H41.04m-.92-.95H420.86l.04.92c4.82 116.66-6.28 211.36-33.93 289.52-30.51 86.24-81.51 154.41-155.91 208.39l-.56.41-.56-.41c-74.4-53.98-125.4-122.15-155.91-208.39C46.38 244.54 35.28 149.84 40.1 33.18l.04-.92z"/>
    <ellipse cx="93.61" cy="143.94" rx="4.89" ry="3.14" style="fill-rule:evenodd;fill:#fff;stroke-linecap:round;stroke-linejoin:round;stroke-miterlimit:4;stroke-width:.97;stroke:#000"/>
    <path d="M177.85 121.79c2.9-.39 5.32-1.35 11.51-.39 8.26-31.11 45.23-39.96 63.77-21.88-.95-19.1-34.04-24.58-48.75-15.44-10.92 4.55-22.37 21.85-26.62 37.71Z" style="fill:#fff;stroke-miterlimit:4;stroke:#000"/>
    <path d="M238.14 68.32c13.34 11.99 30.88 19.69 34.85 35.74 16.2 12.91 19.41 36.65 14.09 49.64-9.92 24.24-24.61 31.1-46.75 37.3 44.17 10.92 67.78-21.87 68.91-57.74.92-29.36-31.19-66.21-71.1-64.95z" style="fill:#fff;stroke-miterlimit:4;stroke:#000"/>
    <path d="M85.96 146.89c2.51-1.55 6-1.97 9-2.05 2.05-.05 3.54.01 3.17-1.49-.2-.82-1.27-1.19-3.1-.89-2.32.38-6.26 2.69-9.06 4.43-3.19-7.35.79-9.83 13.37-13.22 2.51-.68 5.61-2.42 8.61-5.03 6-5.32 23.19-6.17 23.56-8.91 1.06-7.91 13.23-8.65 22.66-13.82 8.9-23.31 32.01-46.87 62.37-46.87 29.11 0 54.86 22.77 60.83 50.14 5.92 27.17-6.48 49.36-25.43 62.71-14.7 10.35-37.44 11.95-53.59 1.41 57.25.97 57.7-42.64 56.63-56.01-1.75-21.85-21.24-35.41-37.68-34.58-18.27.92-30.35 12.36-36.73 37.6 16.18.05 15.47 6.36 36.43 4.56-3.19 9.28-14.7 17.42-28.24 16.83-1.84-.08-7.21-1.41-7.5-.06-1.55 7.93-8.14 52.55 3.75 55.16 8.12 1.84 15.6.73 20.21 2.14 10.87 3.34 20.12 14.1 35.01 10.62 39.74-9.19 43.38-8.28 58.05-6.28 17.03 2.32 29.43 12.61 38.26 18.18 7.35 4.45 37.04-4.64 40.81-23.11 5.9 11.6 4.64 22.14-5.71 28.62 5.32 2.22 13.25-1.06 17.7-2.03-4.45 13.54-12.86 16.44-31.72 13.73 1.74 3.29 8.12 7.45 12.57 9.09-9.28 5.22-20.79 2.32-28.53-6.38-6 11.51-1.35 22.72 5.61 28.53 6.29 5.32 9.77 9.19 7.83 19.34-6.38-7.54-10.15-10.06-21.37-9.57 14.12 15.38 14.41 26.01 6.96 37.13-1.74-12.09-7.06-15.86-12.47-19.63-5.91 17.36 4.81 26.4 13.98 38.14.43.55.01 2.15-.34 2.76-11 19.29-28.96 37.72-24.7 50.3-1.93 5.13-16.63 1.06-14.41 15.09.48 3.19-23.4 2.13-23.11.29.77-5.13 3.58-7.06 4.25-8.03-1.93-.29-5.42 1.55-7.25 1.84-1.45.19 1.93-12.96 18.18-13.73 6.19-3 17.05-20.33 18.53-33.86.93-8.51-4.78-16.44-9.71-20.98-2.8 4.45-1.46 14.32-.4 20.41-7.74-2.41-16.57-14.11-14.74-31.84-11.98 13.14-6.13 23.7 2.04 31.82 3.13 3.12-23.86 19.47-25.7 43.16-.39 3.87-11.01-.27-8.8 10.83.6 3.01-23.72 2.83-23.68.9.12-5.9 6.09-8.8 4.74-8.8-2.42 0-5.51 1.64-7.25 2.13-2.68.77.78-10.95 13.72-12.79 10.64-1.84 23.98-27.97 22.39-36.28-1.54-8.07-9.55-25.49-15.15-32.57-1.16 2.8-1.13 22.79-17.18 26.76 2.23-4.43 5.13-8.27 4.84-13.78-.39-5.61 1.48-9.79-2.88-15.31-.48 4.45-2.99 14.47-12.27 21.15 1.55-17.02-15.29-23.76-15.29-23.76 1.16 3.38 3.15 13.5 4.02 18.34.87 4.84-.89 6.32-.85 12.22.05 7.35 3.36 11.32 6.45 22.54 1.74 6.48 4.16 9.28 5.71 13.73 1.26 3.38 2.42 3.96 2.03 7.45-.39 4.93-14.02 6.77-13.05 18.08.39 3.19-21.8 2.91-22.09 1.46-.68-4.35 2.75-7.07 4.88-8.62-3.96.29-6.02 1.84-8.05 2.9-1.35.68 1.19-10.73 15.02-14.22 7.75-4.77 2.19-36.14-7.37-43.25-12.48-9.27-16.08-29.19-21.02-32.38 0 0 0 4.84 1.84 18.47.68 5.22-3.19 9.77-2.32 14.31 1.35 7.25 1.41 13.84 4.7 24.09 1.45 4.45 5.13 8.7 7.06 12.57.87 1.84.68 3.67.68 5.22.29 6.58-15.67 6.67-12.38 19.34.87 3-22.92 3.09-23.01 1.16-.19-5.8 5.61-8.41 4.54-8.41-5.51-.1-7.74 5.42-8.03 2.71-.58-5.42 7.54-12.09 13.15-13.54 6.87-1.64 9.09-9.93 4.17-30.92-2.81-11.99-12.4-10.71-14.75-21.56-2.84-13.08-5.29-27.33-11-26.85 0 0-.54 4.75-1.74 7.05-2.42 4.62-1.1 9.15 3.55 19.69-10.43-1.19-23.57-18.37-13.74-33.16-4.45 2.08-10.39 10.03-13.48 18.25-4.64-12.96-2.02-22.05 7.82-29.96-4.42 2.55-13.53 5.07-23.2.72 11.35-3.58 17.97-9.03 19.1-16.72.48-2.32-.29-2.13-2.42-5.42-6.96-10.64-.68-26.98 4.35-41 4.45-12.28 8.82-24.07 10.54-32.01 1.57-7.25 1.16-12.28-5.42-24.18-1.55 10.06-3.48 21.66-10.25 28.14-6.48 6.09-20.31 12.96-14.02 41.58-12.96-7.06-12.96-19.53-7.45-32.88-2.8 1.26-14.31 7.25-12.86 21.76-12.86-14.22 2.61-35.1 10.54-38.87-13.54 1.64-21.17-3.79-21.08-12.38 9.5 4.11 24.9 6.24 32.27-5.63 1.6-2.58 2.41-5.99 2.61-8.29-2.38-.1-7.45-1.74-11-1.72-2.9-.48-7.79-3.92-6.36-5.51-1.86-2.56-2.36-7.02-.14-8.47z" style="fill:#fff;stroke-linecap:round;stroke-linejoin:round;stroke-miterlimit:4;stroke:#000"/>
    <path d="M137 129.02c3.79-1.75 3.89-4.02 9.73-4.32 3.32-.18 6.47 2.57 9.77 3.85.45.17.21.87-.27 1.1-1.76.84-4.92 2.2-9.73 2.16-2.79-.02-7.42-1.14-9.05-1.72-.61-.22-.81-.89-.44-1.06z" style="fill:none;stroke-miterlimit:4;stroke:#000"/>
    <path d="M144.57 124.99c3-.78 2.38 6.29-.26 6.69" style="fill:none;stroke-miterlimit:4;stroke:#000"/>
    <path d="m86.09 155.36 10.97-1.73" style="fill:none;stroke-linecap:round;stroke-miterlimit:4;stroke:#000"/>
    <path d="M137.98 128.53c-.62.82-.09 1.3.26 1.84" style="fill:none;stroke-width:.99;stroke:#000"/>
    <path d="M154.47 130.4c1.83-.56 2.04-1.86.26-2.68" style="fill:none;stroke-linecap:round;stroke-width:.99;stroke:#000"/>
</svg>
