<svg xmlns="http://www.w3.org/2000/svg" width="400" height="500" viewBox="30.5 31.5 400 500" xml:space="preserve">
    <path fill="#0085ca" d="M230.44 531.14C156.12 477.22 105.18 409.12 74.7 322.98c-27.64-78.1-38.73-172.75-33.91-289.35l.02-.46h379.82l.02.46c4.81 116.6-6.28 211.24-33.91 289.35-30.48 86.14-81.42 154.24-155.74 208.16l-.28.2-.28-.2z"/>
    <path d="M419.96 33.21c9.07 219.45-36.26 385.95-189.46 497.1C77.31 419.16 31.99 252.66 41.06 33.21h378.9m.92-.95H40.14l-.04.92c-4.82 116.66 6.28 211.36 33.93 289.52 30.51 86.24 81.51 154.41 155.91 208.39l.56.41.56-.41c74.4-53.98 125.4-122.15 155.91-208.39 27.65-78.16 38.75-172.86 33.93-289.52l-.04-.92z"/>
    <path d="M170.97 109.02c.66-7.84-2.48-13.45-7.24-21.25-4.64 18.47-14.36 17.84-18.64 29.73-1.88 5.23 1.54 9.85 4.16 12.17 2.05 1.82-2.35 8.21-5.7 11.4-3.67 3.5-8.44 4.98-12.03 4.44-4.04-.61-6.81-3.74-4.52-8.41 1.55-3.13 4.84-6.77 5.31-10.05.82-5.74-3.34-8.17-3.23-11.4.31-9.54 10.32-13.22 11.4-22.49 1.97-16.96-8.4-25.76-19.87-29.57 2.14 9.24 1.5 18.3-5.24 24.18-10.31 8.99-16.02 17.47-16.94 27.88-.53 6.01 2.81 6.74 7.35 8.73 3.63 1.59-3.39 17.94-17.67 12.22-3.15-1.26-3.47-6.23.31-8.93 4.07-2.92 5.74-7.1 2.84-8.9-5.37-3.33-7.11-8.05-7.25-13.26-.14-5.55 7.33-8.02 8.87-15.73 1.27-6.37.62-12.71-4.05-21-2.45 11.48-6.52 17.98-13.59 24.16-8.21 7.16-17.49 9.32-17.93 21.18-.34 9.15 7.96 8.93 6.6 11.96-.93 2.07-2.16 3.08-3.23 4.69-9.78 14.72-4.35 23.56-.6 29.09 9.83 14.53 19 13.82 39.44 18.07 6.87 1.43 7.8 6.9 10.77 12.12 4.8-3.43 8.74-6.92 14.26-6.99 17.03-.2 23.81-4 30.63-10.52 7.07-6.77 12.32-18.04 15.18-24.85 2.19-5.15-1.18-7.27-4.93-9.4-2.53-1.43-3.61-5.57-.62-10.55 3.95-6.59 5.59-11.94 6.16-18.71zM265.23 198.97c.66-7.84-2.48-13.45-7.24-21.25-4.64 18.47-14.36 17.84-18.64 29.73-1.88 5.23 1.54 9.85 4.16 12.17 2.05 1.82-2.35 8.21-5.7 11.4-3.67 3.5-8.44 4.98-12.03 4.44-4.04-.61-6.81-3.74-4.52-8.41 1.55-3.13 4.84-6.77 5.31-10.05.82-5.74-3.34-8.17-3.23-11.4.31-9.54 10.32-13.22 11.4-22.49 1.97-16.96-8.4-25.76-19.87-29.57 2.14 9.24 1.5 18.3-5.24 24.18-10.31 8.99-16.02 17.47-16.94 27.88-.53 6.01 2.81 6.74 7.35 8.73 3.63 1.59-3.39 17.94-17.67 12.22-3.15-1.26-3.47-6.23.31-8.93 4.07-2.92 5.74-7.1 2.84-8.9-5.37-3.33-7.11-8.05-7.25-13.26-.14-5.55 7.33-8.02 8.87-15.73 1.27-6.37.62-12.71-4.05-21-2.45 11.48-6.52 17.98-13.59 24.16-8.21 7.16-17.49 9.32-17.93 21.18-.34 9.15 7.96 8.93 6.6 11.96-.93 2.07-2.16 3.08-3.23 4.69-9.78 14.72-4.35 23.56-.6 29.09 9.83 14.53 19 13.82 39.44 18.07 6.87 1.43 7.8 6.9 10.77 12.12 4.8-3.43 8.74-6.92 14.26-6.99 17.03-.2 23.81-4 30.63-10.52 7.07-6.77 12.32-18.04 15.18-24.85 2.19-5.15-1.18-7.27-4.93-9.4-2.53-1.43-3.61-5.57-.62-10.55 3.95-6.59 5.59-11.94 6.16-18.71zM358.26 292.61c.66-7.84-2.48-13.45-7.24-21.25-4.64 18.47-14.36 17.84-18.64 29.73-1.88 5.23 1.54 9.85 4.16 12.17 2.05 1.82-2.35 8.21-5.7 11.4-3.67 3.5-8.44 4.98-12.03 4.44-4.04-.61-6.81-3.74-4.52-8.41 1.55-3.13 4.84-6.77 5.31-10.05.82-5.74-3.34-8.17-3.23-11.4.31-9.54 10.32-13.22 11.4-22.49 1.97-16.96-8.4-25.76-19.87-29.57 2.14 9.24 1.5 18.3-5.24 24.18-10.31 8.99-16.02 17.47-16.94 27.88-.53 6.01 2.81 6.74 7.35 8.73 3.63 1.59-3.39 17.94-17.67 12.22-3.15-1.26-3.47-6.23.31-8.93 4.07-2.92 5.74-7.1 2.84-8.9-5.37-3.33-7.11-8.05-7.25-13.26-.14-5.55 7.33-8.02 8.87-15.73 1.27-6.37.62-12.71-4.05-21-2.45 11.48-6.52 17.98-13.59 24.16-8.21 7.16-17.49 9.32-17.93 21.18-.34 9.15 7.96 8.93 6.6 11.96-.93 2.07-2.16 3.08-3.23 4.69-9.78 14.72-4.35 23.56-.6 29.09 9.83 14.53 19 13.82 39.44 18.07 6.87 1.43 7.8 6.9 10.77 12.12 4.8-3.43 8.74-6.92 14.26-6.99 17.03-.2 23.81-4 30.63-10.52 7.07-6.77 12.32-18.04 15.18-24.85 2.19-5.15-1.18-7.27-4.93-9.4-2.53-1.43-3.61-5.57-.62-10.55 3.95-6.59 5.59-11.94 6.16-18.71z" style="fill-rule:evenodd;fill:#fff;stroke:#000"/>
</svg>
