<svg xmlns="http://www.w3.org/2000/svg" xml:space="preserve" viewBox="30.5 31.5 400 500" height="500" width="400">
    <path d="M230.44 531.14C156.12 477.22 105.18 409.12 74.7 322.98c-27.64-78.1-38.73-172.75-33.91-289.35l.02-.46h379.82l.02.46c4.81 116.6-6.28 211.24-33.91 289.35-30.48 86.14-81.42 154.24-155.74 208.16l-.28.2z" fill="#0085ca"/>
    <path d="M419.96 33.21c9.07 219.45-36.26 385.95-189.46 497.1C77.31 419.16 31.99 252.66 41.06 33.21h378.9m.92-.95H40.14l-.04.92c-4.82 116.66 6.28 211.36 33.93 289.52 30.51 86.24 81.51 154.41 155.91 208.39l.56.41.56-.41c74.4-53.98 125.4-122.15 155.91-208.39 27.65-78.16 38.75-172.86 33.93-289.52l-.04-.92z"/>
    <path d="m257 264.5 26.5 53 26.5-53 26.5 53 26.5-53 26.5 49.14c11.01-33.84 19.56-71.17 24.29-107.93L389.5 156.5l-26.5 53-26.5-53-26.5 53-26.5-53-26.5 53-26.5-53-26.5 53-26.5-53-26.5 53-26.5-53-26.5 53-26.5-53-24.29 49.21c4.73 36.76 13.28 74.09 24.29 107.93L98 264.5l26.5 53 26.5-53 26.5 53 26.5-53 26.5 53z" style="fill-rule:evenodd;fill:#ffe000;stroke:#000"/>
</svg>
