<svg xmlns="http://www.w3.org/2000/svg" xml:space="preserve" viewBox="30.5 31.5 400 500" height="500" width="400">
    <path d="M230.45 531.13c-74.32-53.92-125.26-122.02-155.74-208.16-27.64-78.1-38.73-172.75-33.91-289.35l.02-.46h379.82l.02.46c4.81 116.6-6.28 211.24-33.91 289.35-30.48 86.14-81.42 154.24-155.74 208.16l-.28.2-.28-.2z" fill="#e00e00"/>
    <path d="m137.89 222.28 160.8 164.66c3.62 3.71-4.87 12-8.51 8.31l-15.33-15.56c-12.98-13.18-20.47-17.03-27.82-9.86-7.35 7.18-3.67 14.75 9.19 28.04l15.19 15.69c3.61 3.73-4.88 12.02-8.51 8.31L102.12 257.21c-15.88-16.26-21.65-35.55-20.77-57.05 21.52-.36 40.66 5.85 56.54 22.12z" style="fill-rule:evenodd;fill:#ffe000;stroke:#000"/>
    <path d="M419.96 33.21c9.07 219.45-36.25 385.95-189.45 497.1C146.04 469.02 94.36 390.9 66.52 296.34a557.24 557.24 0 0 1-5.87-21.54c-11.45-45.69-17.77-95.02-19.88-147.94-1.2-30.06-1.05-61.28.29-93.65h378.9m.92-.95H40.14l-.04.92c-4.82 116.66 6.28 211.36 33.93 289.52 30.51 86.24 81.51 154.41 155.91 208.39l.56.41.56-.41c74.4-53.98 125.4-122.15 155.91-208.39 27.65-78.16 38.75-172.86 33.93-289.52l-.04-.92z"/>
    <path d="m141.38 101.11 212.08 215.21c3.64 3.7-4.81 12.03-8.47 8.35l-15.4-15.49c-13.04-13.12-20.54-16.94-27.86-9.73-7.32 7.21-3.6 14.77 9.32 28l15.26 15.63c3.63 3.71-4.83 12.04-8.47 8.35L105.77 136.2c-15.96-16.19-21.8-35.45-21.03-56.95 21.51-.46 40.69 5.67 56.64 21.86z" style="fill-rule:evenodd;fill:#ffe000;stroke:#000"/>
    <path d="m120.57 264.66 54.38 55.69c3.5 3.58 8.51-1.31 5.01-4.89l-31.5-32.26c-8.33-8.53-21.85-23.78-17.78-32.52 8.84-3.86 23.76 10.01 32.09 18.55l31.5 32.26c3.5 3.58 8.51-1.31 5.01-4.89l-54.38-55.69c-13.84-14.17-28.7-26.49-52.78-29.71 2.65 24.14 14.61 39.3 28.45 53.47z" style="fill-rule:evenodd;fill:#e00e00;stroke:#000"/>
    <path d="M242.54 84.04 379.35 224.7c3.62 3.72-4.87 12-8.51 8.31l-15.33-15.56c-12.98-13.18-20.47-17.03-27.82-9.86-7.35 7.18-3.67 14.75 9.19 28.04l15.19 15.69c3.61 3.73-4.89 12.03-8.51 8.31L206.77 118.98c-15.85-16.29-21.64-35.55-20.77-57.05 21.52-.36 40.69 5.82 56.54 22.12z" style="fill-rule:evenodd;fill:#ffe000;stroke:#000"/>
    <path d="m148.47 119.7 54.64 55.44c3.52 3.57-1.47 8.48-4.99 4.91l-31.65-32.12c-8.37-8.5-23.36-22.3-32.18-18.4-4.03 8.76 9.56 23.95 17.93 32.44l31.65 32.12c3.52 3.57-1.47 8.48-4.99 4.91l-54.63-55.44c-13.9-14.1-25.93-29.2-28.69-53.33 24.09 3.11 39.01 15.36 52.91 29.47ZM225.22 126.42l54.38 55.69c3.5 3.58 8.51-1.31 5.01-4.89l-31.5-32.26c-8.33-8.53-21.85-23.78-17.78-32.52 8.84-3.86 23.76 10.01 32.09 18.55l31.5 32.26c3.5 3.58 8.51-1.31 5.01-4.89l-54.38-55.69c-13.84-14.17-28.7-26.49-52.78-29.71 2.65 24.14 14.61 39.3 28.45 53.47z" style="fill-rule:evenodd;fill:#e00e00;stroke:#000"/>
</svg>
