<svg xmlns="http://www.w3.org/2000/svg" version="1.0" width="390" height="565">
    <path style="fill:#008df0;fill-opacity:1;stroke:none" d="M74.749 77.378h231.197v34.912H74.749z"/>
    <path d="m1.698 109.914 387.207.006.059 400.9c.004 28.65-24.882 53.173-48.574 53.173-96.448 0-192.896 0-289.345-.002-18.06 0-49.294-21.896-49.293-51.04.003-134.35-.04-403.052-.04-403.052l-.014.015z" style="fill:#008df0;fill-opacity:1;stroke:none"/>
    <path d="M107.222 329.974h-14.69c-2.193 0-1.295 23.875 0 23.87h10.487c2.152-.096 2.201 5.158.156 5.166l-10.527.001c-1.477 0-1.729 24.438-.078 24.458l10.405.116c1.971.001 1.99 4.714-.038 4.652a287.697 287.697 0 0 0-10.364-.117c-2.168.001-1.606 24.65-.038 24.645l38.208-.195 2.284-5.205c.325-.687 2.279-.097 2.02.6-5.798 14.96-12.29 24.923-19.082 39.31.776.49 2.06 1.185 3.184 1.852.377.23.735.442 1.05.652-8.497 14.426-16.369 29.792-27.768 43.2-8.998 10.583-28.774 15.896-31.62 33.52 1.595 0 34.972.174 37.445.116.425-3.417.582-6.461-.716-10.354-1.555-4.665-3.02-7.295-3.833-9.503-.677-1.835 4.348-4.48 4.948-2.8l6.04 16.892c3.355.619 6.623-.61 8.242-2.693-2.421-6.474-7.672-18.432-7.263-19.422 10.906-26.376 35.45-60.346 53.704-90.255l7.966-.058c1.2 0 1.327 2.131.02 2.136h-6.85l-5.343 8.722 8.603 27.124 5.142 5.224 9.542 40.03c2.684 5.876-21.314 17.028-27.033 35.215 2.137.14 33.648.096 35.732.001.63-3.259.08-7.026-.96-9.976-1.744-4.908-5.032-10.586-5.408-11.33-.67-1.327 3.7-3.354 4.244-2.245l6.896 14.036c2.117.139 3.515-.934 4.406-2.203l-20.933-101.723 84.097-.001 16.648 26.93c-13.955 20.049-32.672 54.777-47.169 60.96-4.26 1.818-17.407 10.825-23.389 25.613h37.28c.598-2.17 1.042-6.769.233-10.061-.78-3.172-1.859-4.085-4.423-9.837-.609-1.363 3.288-3.57 3.758-2.539l6.867 15.078c2.922.058 4.243-.834 5.788-2.145-2.029-4.896-4.325-9.645-4.733-15.425l50.842-63.817-20.004-28.998h-5.672c-.64 0-.6-2.217.002-2.217l10.95.001 29.181 23.512c3.126 21.928 8.514 43.855 9.35 65.784.231 6.089-24.744 15.728-26.98 30.602l35.883-.117c1.118-6.568-1.309-12.492-3.906-18.24-.429-1.035 3.65-3.61 4.148-2.37l5.857 14.6c1.925.231 5.926-.456 7.617-1.5-8.14-20.654-14.786-68.117-11.887-98.33.118-1.353-11.772-13.696-17.658-20.543-3.521-16 9.301-48.605 6.827-49.582-2.856-1.128-5-1.802-9.539-3.16-1.893-.569-.902-4.02.288-3.694 22.255 6.095 21.048-7.231 21.467-12.003-11.715.173-24.041-1.575-24.02 4.072l-4.325-.088H168.742c-3.756-18.296-4.993-37.589-14.364-54.023-1.012-1.776-.138-3.943 1.143-2.286 7.08 9.132 13.726 12.35 21.626 7.1 3.158-2.098 3.876-5.956.326-6.773l-11.343-2.366c-.521-1.077 80.727 2.6 117.842-2.204 18.036-2.335 24.002-69.75 44.23-86.178l15.041-13.753c1.788-1.47-5.24-9.481-6.757-8.162-6.065 4.387-10.493 12.466-18.046 14.48-6.823.302-12.103-6.392-15.441-11.565-1.712-3.05-1.85-5.973.416-8.483 4.639-5.136 9.482-10.767 13.398-14.852 2.108-2.2-5.727-9.319-7.369-7.571-4.59 4.884-9.008 9.768-13.884 14.653-3.027 3.22-7.14 3.503-9.792.98l-14.542-14.59c-1.098-1.541-9.08 7.244-7.74 8.513 14.477 13.702 32.926 30.272 39.584 43.943 1.19 2.442-11.841 61.852-27.257 70.672-5.993 3.43-115.095 8.254-119.31 8.814-1.017.139-2.718-3.005-1.469-3.102l92.38-7.124c19.74-1.523 20.08-48.245 24.646-52.937l19.749-19.588c1.274-1.309-5.734-9.142-7.129-7.664-6.407 6.79-14.206 16.058-20.175 16.153-7.974.117-15.078-10.318-21.17-18.118-2.468-3.158-1.198-7.239-.327-8.16l15.392-16.275c.883-1.462-7.141-8.81-8.54-6.911l-16.15 15.324c-1.665 1.953-6.761 2.198-9.38-.62l-22.376-20.313c-2.091-2.152-11.3 6.366-9.769 7.997l23.437 20.876-9.944 7.858c-3.464 2.999 5.321 11.472 7.399 9.973 9.402-6.778 14.396-8.502 22.262.057 0 0 14.894 15.763 19.96 21.699 2.198 2.574 1.01 16.575-1.39 25.96-2.559 10-10.907 15.558-20.038 16.32l-87.974 7.345c-8.605-19.926-67.432-44.259-70.322-73.446-1.112-11.223-.984-20.861-.996-31.191-.001-2.452-12.445-2.814-12.525.02l.278 21.707c-.079 3.885-1.099 4.509-4.295 4.676l-12.626.286c-1.854-.25-2.008 12.725.552 12.666 4.68-.117 12.096-.822 13.104.978 15.125 27.017 42.355 34.586 68.224 61.533l-43.754-12.378c-28.642-8.103-29.3-33.451-32.629-39.362-1.212-2.154-10.384.456-9.442 2.355 14.329 24.102-1.91 32.887.21 50.224 2.452 8.031 6.293 7.97 8.463 16.065.347 6.75-4.555 11.596-4.127 13.617.58 2.741 10.97-1.173 13.71-5.224 14.976-22.131 21.859-24.371 29.518-23.34l37.564 5.06c2.071.286 2.975 3.667 1.794 3.673-16.558.079-18.094 7.536-44.884 8.731-5.257.234-7.157 6.56-6.69 10.936.919 8.632 6.507 7.02 6.243 18.595 3.316.096 12.514.039 38.103.448-5.392 5.865-10.065 13.86-14.152 22.332h-.001z" style="fill:#fff;stroke:none"/>
    <path d="m34.133 2.358 62.526.001.032 38.266 21.33-.09.032-38.363 62.744.008-.026 38.38 27.652-.062-.071-38.38h61.968v39.063h15.939l-.035-39.042 62.107.247-35.52 93.153-249.727.605L34.141 2.308z" style="fill:#008df0;fill-opacity:1;stroke:none"/>
    <path d="m88.471 10.613-.002 38.226 37.844-.004-.002-38.855 46.246-.004.002 38.889h44.08V9.964l45.438.002.002 39.52 32.38.002.029-39.544 42.193.002L307.12 87.31l-237.953.656L45.322 10.6l43.151.003z" style="fill:#fff;stroke:none"/>
    <path style="fill:#fff;fill-opacity:1;stroke:none" d="M82.754 95.477h215.101v14.446H82.754z"/>
    <path d="M377.06 501.592c-.183 28.774-18.411 50.168-45.821 50.167 0 0-181.97-.003-272.956 0-19.648 0-44.953-18.125-44.953-48.235.001-126.755-.447-380.192-.447-380.192l364.119.021.059 378.239z" style="fill:none;stroke:#fff;stroke-width:7.99477959;stroke-miterlimit:4;stroke-opacity:1;stroke-dasharray:none"/>
    <path d="M89.348 286.89c-.007-1.171.028-1.686-.013-2.91h-4.968c-.024 3.027 1.543 2.91 4.98 2.91zM85.72 298.366c-.458-.01-.538 1.724.047 1.746l15.621-.001c.39 0 .36-1.755 0-1.755-5.228-.046-11.811.095-15.668.01zM129.085 278.075c-.966-2.721-10.35-3.3-12.19-.76-.022 5.679 13.026 3.848 12.19.76z" style="fill:#008df0;fill-opacity:1;stroke:none"/>
</svg>
