<svg xmlns="http://www.w3.org/2000/svg" xml:space="preserve" viewBox="30.5 31.5 400 500" height="500" width="400">
    <path d="M230.45 531.13c-74.32-53.92-125.26-122.02-155.74-208.16-27.64-78.1-38.73-172.75-33.91-289.35l.02-.46h379.82l.02.46c4.81 116.6-6.28 211.24-33.91 289.35-30.48 86.14-81.42 154.24-155.74 208.16l-.28.2z" fill="#e00e00"/>
    <path d="M419.96 33.21c9.07 219.45-36.25 385.95-189.45 497.1C146.04 469.02 94.36 390.9 66.52 296.34a557.24 557.24 0 0 1-5.87-21.54c-11.45-45.69-17.77-95.02-19.88-147.94-1.2-30.06-1.05-61.28.29-93.65h378.9m.92-.95H40.14l-.04.92c-4.82 116.66 6.28 211.36 33.93 289.52 30.51 86.24 81.51 154.41 155.91 208.39l.56.41.56-.41c74.4-53.98 125.4-122.15 155.91-208.39 27.65-78.16 38.75-172.86 33.93-289.52l-.04-.92z"/>
    <path d="m216.09 249.66-.04 4.54c-.08 8.89-4.32 7.8-4.1 16.61l3.27 128.69c.16 6.17 2.6 9.21 4.4 12.31 2.89 4.97 5.29 9.63 6.66 16.37 2.33 11.38 1.26 15.04 4.22 14.86 2.83-.16 6.95-4.55 8.51-7.83 7.34-15.45 11.41-35.42 11.41-97.86v-79.99c0-3.39-4.71-5.38-7.66-7.71 6.82 0 8.47 0 8.71-1.74.18-1.28.21-2.58.31-3.87 4.4-55.87 6.29-107.83.06-164.92h-16.16V69.5H225.3v9.62h-16.16c-6.21 56.85-4.49 110.06-.11 165.75.12 1.52.09 1.43.29 2.95.24 1.84 3.95 1.84 6.75 1.84z" style="fill-rule:evenodd;fill:#fff;stroke-linejoin:round;stroke:#000"/>
    <path d="M216.09 249.66h26.68M208.24 236.68h44.3M207.42 95.42h46.15M230.5 443.04c3.05-11.87 5.84-20.58 5.84-38.53V278.17c0-8.41 4.13-10.06 6.64-10.02l7.44.11" style="fill:none;stroke:#000"/>
    <path d="m139.11 250.16-.04 4.54c-.08 8.89-4.39 7.81-4.1 16.61l3.27 96.69c.21 6.17 2.6 9.21 4.4 12.31 2.89 4.97 5.29 9.63 6.66 16.37 2.33 11.38 1.26 13.04 4.22 12.86 6.72-2.03 13.28-18.95 14.25-22.09 1.86-6.34 5.67-19.02 5.67-49.59v-79.99c0-3.39-4.71-5.38-7.66-7.71 6.82 0 8.47 0 8.71-1.74.18-1.28.21-2.58.31-3.87 4.4-55.87 6.29-107.83.06-164.92H158.7v-9.62h-10.38v9.62h-16.16c-6.21 56.85-4.49 110.06-.11 165.75.12 1.52.09 1.43.29 2.95.24 1.84 3.95 1.84 6.75 1.84z" style="fill-rule:evenodd;fill:#fff;stroke-linejoin:round;stroke:#000"/>
    <path d="M139.11 250.16h26.68M131.27 237.18h44.3M130.45 95.92h46.15M153.53 409.54c3.05-11.87 5.84-20.58 5.84-38.53v-92.34c0-8.41 4.13-10.06 6.64-10.02l7.44.11" style="fill:none;stroke:#000"/>
    <path d="m293.11 250.16-.04 4.54c-.08 8.89-4.39 7.81-4.1 16.61l3.27 96.69c.21 6.17 2.6 9.21 4.4 12.31 2.89 4.97 5.29 9.63 6.66 16.37 2.33 11.38 1.26 13.04 4.22 12.86 8.13-4.89 12.64-13.94 15.56-21.76 2.54-6.87 4.36-18.38 4.36-49.93v-79.99c0-3.39-4.71-5.38-7.66-7.71 6.82 0 8.47 0 8.71-1.74.18-1.28.21-2.58.31-3.87 4.4-55.87 6.29-107.83.06-164.92H312.7V70h-10.38v9.62h-16.16c-6.21 56.85-4.49 110.06-.11 165.75.12 1.52.09 1.43.29 2.95.24 1.84 3.95 1.84 6.75 1.84z" style="fill-rule:evenodd;fill:#fff;stroke-linejoin:round;stroke:#000"/>
    <path d="M293.11 250.16h26.68M285.27 237.18h44.3M284.45 95.92h46.15M307.53 409.54c3.05-11.87 5.84-20.58 5.84-38.53v-92.34c0-8.41 4.13-10.06 6.64-10.02l7.44.11" style="fill:none;stroke:#000"/>
</svg>
