<svg xmlns="http://www.w3.org/2000/svg" xml:space="preserve" width="400" height="500" viewBox="30.5 31.5 400 500">
    <path fill="#0085ca" d="M230.45 531.13c-74.32-53.92-125.26-122.02-155.74-208.16-27.64-78.1-38.73-172.75-33.91-289.35l.02-.46h379.82l.02.46c4.81 116.6-6.28 211.24-33.91 289.35-30.48 86.14-81.42 154.24-155.74 208.16l-.28.2z"/>
    <path d="M419.96 33.21c9.07 219.45-36.25 385.95-189.45 497.1C146.04 469.02 94.36 390.9 66.52 296.34a557.24 557.24 0 0 1-5.87-21.54c-11.45-45.69-17.77-95.02-19.88-147.94-1.2-30.06-1.05-61.28.29-93.65h378.9m.92-.95H40.14l-.04.92c-4.82 116.66 6.28 211.36 33.93 289.52 30.51 86.24 81.51 154.41 155.91 208.39l.56.41.56-.41c74.4-53.98 125.4-122.15 155.91-208.39 27.65-78.16 38.75-172.86 33.93-289.52l-.04-.92z"/>
    <path fill="#fff" fill-rule="evenodd" stroke="#000" stroke-linecap="round" stroke-linejoin="round" d="M227.626 221.871c3.765 11.18-2.986 16.698-14.05 16.336-11.927-.39-23.756-13.121-21.89-29.95 1.633-14.736 15.695-31.16 38.814-32.781 30.299-2.124 53.865 25.451 53.976 49.553.15 32.364-21.634 73.267-74.93 72.752-36.426-.353-77.649-28.545-79.285-81.063-1.558-49.984 44.527-102.198 100.239-103.974 53.527-1.707 110.992 43.955 115.292 103.756 4.221 58.697-29.8 130.337-115.292 140.745-72.06 8.773-157.998-40.787-158.106-140.745C72.284 115.33 157.48 63.276 230.5 63.276c107.369 1.856 156.272 95.89 153.17 153.224-.779 14.395-2.988 31.448-8.865 43.679 1.194-11.309 1.3-19.134 1.3-29.995.002-72.864-54.58-144.669-143.215-145.393-82.773-.677-139.379 65.913-135.483 134.793 4.373 77.332 69.721 110.272 115.19 108.764 80.4-2.667 104.843-61.715 104.843-99.035 0-50.911-39.624-85.82-83.062-85.82-41.564 0-72.606 31.326-72.606 69.702 0 33.021 26.494 54.043 52.712 54.309 24.845.252 41.53-20.29 41.53-36.303 0-20.289-13.194-28.752-23.233-28.752-12.408 0-20.048 7.078-20.33 14.666-.145 3.906 2.588 8.568 8.132 8.568 2.87 0 5.53-1.31 7.043-3.812z"/>
</svg>
