<svg xmlns="http://www.w3.org/2000/svg" width="400" height="500" viewBox="30.5 31.5 400 500" xml:space="preserve">
    <path d="M230.45 531.13c-74.32-53.92-125.26-122.02-155.74-208.16-27.64-78.1-38.73-172.75-33.91-289.35l.02-.46h379.82l.02.46c4.81 116.6-6.28 211.24-33.91 289.35-30.48 86.14-81.42 154.24-155.74 208.16l-.28.2-.28-.2z" fill="#32ac60"/>
    <path d="M419.96 33.21c9.07 219.45-36.25 385.95-189.45 497.1C146.04 469.02 94.36 390.9 66.52 296.34a557.24 557.24 0 0 1-5.87-21.54c-11.45-45.69-17.77-95.02-19.88-147.94-1.2-30.06-1.05-61.28.29-93.65h378.9m.92-.95H40.14l-.04.92c-4.82 116.66 6.28 211.36 33.93 289.52 30.51 86.24 81.51 154.41 155.91 208.39l.56.41.56-.41c74.4-53.98 125.4-122.15 155.91-208.39 27.65-78.16 38.75-172.86 33.93-289.52l-.04-.92z"/>
    <path d="M233.33 178.03c-1.5 25.71-2.44 46.79-45.75 64.96-5.34-11.64-12.49-33.27-16.01-34.92l-12.35-5.79c-8.45 7.93-12.99 13.32-26.53 21.65-6.29 3.87-8.73 12.62-21.2 19.37l.84-6.64c-2.56 3.89-7.05 7.1-11.21 9.39l3.81-9.91c-3.39 5.1-7.06 7.58-14.11 10.22l3.59-9.3c-5.05 6.73-8.54 8.7-15.32 10.21l3.58-9.6c-2.34 1.59-4.67 2.47-7.01 3.04 5.51-11.82 13.13-23.53 15.09-34.61 2.38-13.38 10.45-20.64 28.67-32.02l-2.13-19.21c-.88-7.96-17.56-9.03-24.32-18.99l-8.15.08c-.49-2.55 2.62-4.09 4.95-6.02 4.38-3.65 2.05-8.18 16.84-12.88 4.14-1.32 11.2-.31 17.28 4.36 4.51 3.46 5.69 10.43 12.61 14.86 5.27 3.37 9.48 4.22 16.16 3.96 3.51-3.75 6.51-10.94 7.01-20.89 1.26-24.69 5.54-23.53 17.08-38.43l25.93-31.89c.9 3.81.83 8.39-.3 12.2 3.95-3.17 7.85-7.92 12.2-12.35 1.2 4.82 1.43 8.04.76 12.12l6.4-6.1c1.56 4.8 2.04 10.22.99 15.1l5.41-6.48c.22 7.11-.17 10.42-3.2 16.32l5.49-4.88c-.65 5.02-2.1 10.25-4.73 14.49l6.18-3.43c-1.86 14.16-10.29 29.34-24.02 48.42-1.94 2.7 1.7 17.57-14.03 34.92 2.59 3.2 6.45 9.47 10.37 9.61 10.74.38 19.16-.09 29.13-.91z" style="fill-rule:evenodd;fill:#fff;stroke-linecap:round;stroke-linejoin:round;stroke-miterlimit:4;stroke:#000"/>
    <path d="M119.42 174.07c10.28 12.79 25.03 21.5 39.8 28.21M206.14 202.12l-7.71 8.79c-7.97.16-20.55.26-27.53-3.16" style="fill:none;stroke-miterlimit:4;stroke:#000"/>
    <path d="M98.41 127.12c.15-.79.36-1.39 1.9-2.46.97-.67 2.98-.51 3.29.44.31.96-.13 1.5-2.4 2.2-1.05.33-3 .93-2.79-.19z" style="fill-rule:evenodd;fill:#000"/>
    <path d="M383.33 174.03c-1.5 25.71-2.44 46.79-45.75 64.96-5.34-11.64-12.49-33.27-16.01-34.92l-12.35-5.79c-8.45 7.93-12.99 13.32-26.53 21.65-6.29 3.87-8.73 12.62-21.2 19.37l.84-6.64c-2.56 3.89-7.05 7.1-11.21 9.39l3.81-9.91c-3.39 5.1-7.06 7.58-14.11 10.22l3.59-9.3c-5.05 6.73-8.54 8.7-15.32 10.21l3.58-9.6c-2.34 1.59-4.67 2.47-7.01 3.04 5.51-11.82 13.13-23.53 15.09-34.61 2.38-13.38 10.45-20.64 28.67-32.02l-2.13-19.21c-.88-7.96-17.56-9.03-24.32-18.99l-8.15.08c-.49-2.55 2.62-4.09 4.95-6.02 4.38-3.65 2.05-8.18 16.84-12.88 4.14-1.32 11.2-.31 17.28 4.36 4.51 3.46 5.69 10.43 12.61 14.86 5.27 3.37 9.48 4.22 16.16 3.96 3.51-3.75 6.51-10.94 7.01-20.89 1.26-24.69 5.54-23.53 17.08-38.43l25.93-31.89c.9 3.81.83 8.39-.3 12.2 3.95-3.17 7.85-7.92 12.2-12.35 1.2 4.82 1.43 8.04.76 12.12l6.4-6.1c1.56 4.8 2.04 10.22.99 15.1l5.41-6.48c.22 7.11-.17 10.42-3.2 16.32l5.49-4.88c-.65 5.02-2.1 10.25-4.73 14.49l6.18-3.43c-1.86 14.16-10.29 29.34-24.02 48.42-1.94 2.7 1.7 17.57-14.03 34.92 2.59 3.2 6.45 9.47 10.37 9.61 10.74.38 19.16-.09 29.13-.91z" style="fill-rule:evenodd;fill:#fff;stroke-linecap:round;stroke-linejoin:round;stroke-miterlimit:4;stroke:#000"/>
    <path d="M269.42 170.07c10.28 12.79 25.03 21.5 39.8 28.21M356.14 198.12l-7.71 8.79c-7.97.16-20.55.26-27.53-3.16" style="fill:none;stroke-miterlimit:4;stroke:#000"/>
    <path d="M248.41 123.12c.15-.79.36-1.39 1.9-2.46.97-.67 2.98-.51 3.29.44.31.96-.13 1.5-2.4 2.2-1.05.33-3 .93-2.79-.19z" style="fill-rule:evenodd;fill:#000"/>
    <path d="M311.19 361.26c-1.5 25.71-2.44 46.79-45.75 64.96-5.34-11.64-12.49-33.27-16.01-34.92l-12.35-5.79c-8.45 7.93-12.99 13.32-26.53 21.65-6.29 3.87-8.73 12.62-21.2 19.37l.84-6.64c-2.56 3.89-7.05 7.1-11.21 9.39l3.81-9.91c-3.39 5.1-7.06 7.58-14.11 10.22l3.59-9.3c-5.05 6.73-8.54 8.7-15.32 10.21l3.58-9.6c-2.34 1.59-4.67 2.47-7.01 3.04 5.51-11.82 13.13-23.53 15.09-34.61 2.38-13.38 10.45-20.64 28.67-32.02l-2.13-19.21c-.88-7.96-17.56-9.03-24.32-18.99l-8.15.08c-.49-2.55 2.62-4.09 4.95-6.02 4.38-3.65 2.05-8.18 16.84-12.88 4.14-1.32 11.2-.31 17.28 4.36 4.51 3.46 5.69 10.43 12.61 14.86 5.27 3.37 9.48 4.22 16.16 3.96 3.51-3.75 6.51-10.94 7.01-20.89 1.26-24.69 5.54-23.53 17.08-38.43l25.92-31.87c.9 3.81.83 8.39-.3 12.2 3.95-3.17 7.85-7.92 12.2-12.35 1.2 4.82 1.43 8.04.76 12.12l6.4-6.1c1.56 4.8 2.04 10.22.99 15.1l5.41-6.48c.22 7.11-.17 10.42-3.2 16.32l5.49-4.88c-.65 5.02-2.1 10.25-4.73 14.49l6.18-3.43c-1.86 14.16-10.29 29.34-24.02 48.42-1.94 2.7 1.7 17.57-14.03 34.92 2.59 3.2 6.45 9.47 10.37 9.61 10.74.38 19.16-.09 29.13-.91z" style="fill-rule:evenodd;fill:#fff;stroke-linecap:round;stroke-linejoin:round;stroke-miterlimit:4;stroke:#000"/>
    <path d="M197.28 357.29c10.28 12.79 25.03 21.5 39.8 28.21M283.99 385.34l-7.71 8.79c-7.97.16-20.55.26-27.53-3.16" style="fill:none;stroke-miterlimit:4;stroke:#000"/>
    <path d="M176.26 310.35c.15-.79.36-1.39 1.9-2.46.97-.67 2.98-.51 3.29.44.31.96-.13 1.5-2.4 2.2-1.05.33-3 .93-2.79-.19z" style="fill-rule:evenodd;fill:#000"/>
</svg>
