<svg xmlns="http://www.w3.org/2000/svg" width="799.906" height="900.783" viewBox="0 0 211.642 238.332">
    <g style="display:inline">
        <path style="fill:#2471b5;fill-opacity:1;stroke-width:.99999994" d="M247.498 28.324c-142.884-.015-244.302.109-245.23.332l-2.25.541L0 140.93c-.018 105.957.543 135.56 3.12 164.23a2480.37 2480.37 0 0 1 1.937 23c.496 6.325 1.345 15.55 1.888 20.5.543 4.95 1.247 11.475 1.56 14.5.607 5.834 1.366 10.951 4.604 31 3.414 21.135 3.777 23.323 4.8 29a3663.9 3663.9 0 0 1 1.609 9c.718 4.062 1.735 8.737 4.02 18.5.9 3.85 2.026 8.8 2.503 11 2.137 9.857 5.157 22.377 6.393 26.5a455.69 455.69 0 0 1 2.447 8.5c4.25 15.5 5.523 19.909 7.807 27 1.416 4.4 2.908 8.9 3.316 10 .408 1.1 1.983 5.825 3.5 10.5s3.154 8.927 3.637 9.45c.482.522.877 1.895.877 3.05 0 1.155.371 2.528.826 3.05.454.523 1.432 2.975 2.174 5.45.741 2.475 1.94 5.625 2.664 7 .723 1.375 2.848 6.325 4.722 11 16.194 40.393 38.98 83.765 61.994 118 7.04 10.471 27.967 39.132 30.686 42.026.788.838 2.986 3.538 4.883 6 13.303 17.26 52.215 57.635 69.05 71.648 4.676 3.891 11.594 9.821 15.374 13.178 10.321 9.165 34.797 27.335 56.078 41.63 10.423 7.002 19.648 13.02 20.5 13.374.852.354 7.174 4.012 14.049 8.129 6.875 4.116 23.3 12.982 36.5 19.7 13.2 6.72 24.9 12.238 26 12.26 4.505.096 52.486-25.115 78.5-41.248 45.878-28.451 78.764-54.29 115.85-91.023 30.158-29.872 52.994-57.178 75.411-90.174 8.665-12.753 25.739-39.893 25.739-40.912 0-.232 1.981-3.776 4.404-7.873 4.32-7.306 19.988-38.4 26.31-52.215 12.161-26.57 27.365-68.288 36.077-99 1.092-3.85 2.702-9.475 3.578-12.5 2.547-8.796 4.794-17.3 5.285-20 .571-3.14 1.586-7.635 4.857-21.5 3.485-14.771 4.12-17.812 5.43-26 .616-3.85 1.538-9.25 2.05-12 .876-4.697 2.961-17.009 4.995-29.5.492-3.025 1.365-9.325 1.94-14 1.02-8.306 1.258-10.54 2.988-28 .463-4.675 1.34-13.45 1.95-19.5 4.498-44.59 5.296-75.061 4.954-189l-.318-106-397.5-.273c-54.657-.038-106.892-.058-154.52-.063zM448.004 64.87c9.88-.001 12.604.269 11.074.91-4.526 1.899-22.45 16.923-32.398 27.155-17.297 17.79-25.732 29.303-34.229 46.726-12.902 26.456-18.09 53.465-15.494 80.647 2.932 30.703 11.706 54.296 30.086 80.89 12.711 18.393 22.884 29.818 60.059 67.463 41.355 41.879 50.161 51.64 65.855 73 51.692 70.353 71.941 163.315 52.715 242-9.449 38.67-29.3 77.467-57.047 111.488-8.76 10.742-24.539 26.904-33.98 34.809-17.085 14.304-48.127 33.508-85.473 52.875-4.59 2.38-8.865 4.316-9.5 4.3-.635-.014-5.654-2.396-11.154-5.292s-13.375-7.045-17.5-9.22c-18.08-9.536-45.168-26.68-68.5-43.354-52.802-37.734-106.256-92.344-139.99-143.018-3.634-5.458-7.282-10.484-8.106-11.168-2.103-1.745-.053-2.885 5.22-2.904 6.386-.024 27.783-3.883 38.876-7.012 47.259-13.33 88.756-42.228 112.615-78.426 16.586-25.164 24.24-50.646 25.56-85.078 1.103-28.77-4.244-52.368-22.091-97.5-14.873-37.61-26.007-75.19-28.592-96.5-.4-3.3-1.317-10.725-2.035-16.5-.719-5.775-1.306-18.825-1.305-29 .002-30.31 4.415-50.686 17.33-80 17.66-40.086 52.497-80.692 91.152-106.25 16.862-11.148 14.69-10.614 44.479-10.953 4.99-.057 9.08-.087 12.373-.088z" transform="matrix(.26458 0 0 .26458 0 -7.494)"/>
    </g>
</svg>
