<svg xmlns="http://www.w3.org/2000/svg" xml:space="preserve" viewBox="30.5 31.5 410 500" height="500" width="410">
    <path style="fill:#0085ca;fill-rule:evenodd;stroke:none;stroke-width:10;stroke-linecap:butt;stroke-linejoin:miter;stroke-miterlimit:4;stroke-dasharray:none;stroke-opacity:1;fill-opacity:1" d="M433.5 36.8c4.364 194.521-37.277 372.362-198 488.5C74.777 409.162 33.136 231.321 37.5 36.8h198z"/>
    <path style="fill:#000;fill-rule:evenodd;stroke:none;stroke-width:.5;stroke-linecap:butt;stroke-linejoin:miter;stroke-miterlimit:4;stroke-dasharray:none;stroke-opacity:1" d="M207.128 144.59c.284-1.782 9.067-3.171 20.732-5.992 14.493-3.504 32.365-7.826 44.904-10.709 4.502-1.035 7.192 3.478 10.776 5.242l21.044 10.358c.555.273 1.57.77-1.803 2.885-1.367.857-.645 3.752-1.134 6.433-.318 1.74-3.787.581-3.664 1.232l3.743 19.769 1.226 7.716c3.71-1.956 7.07-1.634 10.529-1.947 2.505-.227 4.795 2.08 4.904 3.534.342 4.562.183 7.543-1.833 8.52-2.965 1.435-2.906 2.872-2.834 6.518 0 0-.646 18.9.65 28.597.66 4.944 1.775 10.445.847 11.638l-.997 1.283s.461 1.92.728 3.623c.291 1.852-.202 5.622-.202 5.622 1.336 6.435 5.208 9.221 9.338 11.578 8.057 4.599 18.905 4.311 25.703 13.49 5.521 7.455 4.297 8.549 8.552 10.958 15.126 8.566 14.05 14.537 21.057 17.74 2.738 1.251 5.24 3.63 6.49 3.894 1.251.264 5.222 3.11 5.383 4.464l-52.041-5.185-47.38 11.899-57.26-13.486-56.322 13.342-48.389-12.693-44.712 8.726-5.483-3.023c.343-3.27 1.533-7.771 4.437-10.267 7.925-6.811 11.629-6.426 15.758-9.787 6.407-5.214 4.937-10.8 7.268-16.217 2.926-6.802 7.814-7.098 12.366-8.801 9.126-3.415 11.74-6.811 18.809-12.443 2.061-1.643 5.37-3.322 7.22-4.394 0 0-.09-5.467.712-7.938 1.382-4.25 4.172-8.768 5.409-16.802l.433-12.981c.153-4.6-.178-6.183 1.442-8.798-1.993-2.041-3.479-2.986-3.462-4.014.063-3.669.714-7.063 3.232-10.695 3.583-5.17 7.241-3.415 11.097-5.292.726-.354 1.26.456 2.21.445 1.528-.017 1.625-2.133 5.213-2.234 2.503-.521 6 .337 9.758.91 2.128.324 4.563-3.498 10.765-4.517 2.019-.332 3.904.348 5.389.118 2.5-.389 3.224-1.857 6.276-1.925 1.242-.027 3.144 1.029 3.44-.663l2.823-16.159c.164-.94-1.385-1.39-1.374-1.934l.157-7.589c.025-1.212-2.278-.588-2.266-1.943z"/>
    <path d="M120.027 81.76h24.885l-19.173 16.522 9.28 29.372-24.519-17.031-24.52 17.031 9.281-29.372-19.173-16.521h24.885l9.527-23.05ZM370.027 81.76h24.885l-19.173 16.522 9.28 29.372-24.519-17.031-24.52 17.031 9.281-29.372-19.173-16.521h24.885l9.527-23.05Z" style="fill:#fff;fill-rule:evenodd;stroke:#000;stroke-width:2.5;stroke-linecap:butt;stroke-linejoin:miter;stroke-opacity:1;stroke-miterlimit:4;stroke-dasharray:none"/>
    <path style="fill:#fff;fill-rule:evenodd;stroke:#000;stroke-width:1px;stroke-linecap:butt;stroke-linejoin:miter;stroke-opacity:1" d="M180.5 451.5c-11.508 0-21.36-3.973-31.461-7.346l15.038 16.892c5.215 1.44 10.608 2.454 16.423 2.454 20 0 35-12 55-12s35 12 55 12c5.815 0 11.208-1.014 16.423-2.454l15.038-16.892c-10.101 3.373-19.954 7.346-31.461 7.346-20 0-35-12-55-12s-35 12-55 12zM290.5 339.5c20 0 35-12 55-12 14.71 0 26.716 6.492 39.995 9.926l-4.323 10.774c-11.619-3.553-22.573-8.7-35.672-8.7-20 0-35 12-55 12s-35-12-55-12-35 12-55 12-35-12-55-12c-13.099 0-24.053 5.147-35.672 8.7l-4.323-10.774c13.28-3.434 25.285-9.926 39.995-9.926 20 0 35 12 55 12s35-12 55-12 35 12 55 12zM290.5 368c20 0 35-12 55-12 10.529 0 19.672 3.326 28.888 6.475l-4.972 10.305c-7.576-2.543-15.28-4.78-23.916-4.78-20 0-35 12-55 12s-35-12-55-12-35 12-55 12-35-12-55-12c-8.636 0-16.34 2.237-23.916 4.78l-4.972-10.305c9.216-3.15 18.36-6.475 28.888-6.475 20 0 35 12 55 12s35-12 55-12 35 12 55 12zM290.5 396.5c20 0 35-12 55-12 5.794 0 11.168 1.007 16.366 2.438l-7.083 10.39c-2.993-.519-6.074-.828-9.283-.828-20 0-35 12-55 12s-35-12-55-12-35 12-55 12-35-12-55-12c-3.21 0-6.29.309-9.283.828l-7.083-10.39c5.198-1.43 10.572-2.438 16.366-2.438 20 0 35 12 55 12s35-12 55-12 35 12 55 12zM290.5 425c20 0 35-12 55-12l-8.638 12.72C320.92 428.308 307.521 437 290.5 437c-20 0-35-12-55-12s-35 12-55 12c-17.02 0-30.42-8.691-46.362-11.28L125.5 413c20 0 35 12 55 12s35-12 55-12 35 12 55 12zM290.5 480l-12.407 10.552C263.76 487.36 251.163 480 235.5 480c-15.663 0-28.26 7.36-42.593 10.552L180.5 480c20 0 35-12 55-12s35 12 55 12zM253.935 511.531l10.19-8.645c-9.127-3.123-18.196-6.386-28.625-6.386-10.429 0-19.498 3.263-28.625 6.386l10.19 8.645c5.842-1.738 11.869-3.031 18.435-3.031 6.566 0 12.593 1.293 18.435 3.031z"/>
    <path style="fill:#fff;fill-opacity:1;fill-rule:evenodd;stroke:none;stroke-width:1px;stroke-linecap:butt;stroke-linejoin:miter;stroke-opacity:1" d="M258.617 249.056c-3.4 1.39-8.962-.827-13.486.502-4.968 1.46-9.553 1.447-14.3 2.096-3.31.452-2.045-1.598-2.936-1.433-2.094.388-4.655 1.38-5.963.81l-1.737-.759c-1.21-.528-4.048 2.472-3.723 1.07.4-1.723 11.6-3.398 17.644-5.251 3.358-1.03 4.318-2.89 6.476-4.335 3.158-2.113 16.225-1.682 16.828-2.6.36-.547-2.802-.865-6.824-.621-3.196.194-7.228.783-9.698 1.691-5.776 2.124-9.791 4.787-16.93 5.763-10.132 1.384-14.43 1.393-20.499 3.62-3.677 1.35-4.765.502-5.048-.51-.138-.494 1.939-.62 3.794-1.21 2.202-.7 4.479-1.455 5.946-2.104 3.56-1.578 5.817-3.477 7.649-5.66-1.608.432-4.003 1.285-3.621-.307.229-.952 2.562-.65 4.641-1.737 2.25-1.175 5.248-4.283 7.291-3.617 4.433 1.444 3.952-1.787 7.7-.612 2.933.92 3.467-.676 10.658-6.629 2.842-2.352 11.853-5.32 21.723-5.048 4.18.115 5.775.967 9.332 3.06.868.51.89 2.915-1.734 1.682-2.871-1.35-5.665-2.77-5.303-1.785.769 2.094 12.027 5.596 18.357 7.496 1.44.433 3.08 1.642 2.754 2.754-.24.82-5.686-.95-4.793-.204 4.887 4.084 12.995 1.81 17.235 3.366-2.561-2.623-7.091-2.399-10.198-5.1-1.347-1.662-1.984-4.327-4.284-4.59-1.947-.221-3.829.16-5.609-1.784-2.63-2.874-5.181-6.722-7.547-7.496-2.314-.757-4.85-.008-7.292.102-1.611.073-2.629-2.156-5.405-1.836-.52.06-1.579.255-3.213.97-1.374.6-2.85-1.685-4.181-1.072-9.728 4.486-16.862 11.376-25.293 14.075 0 0-4.438 1.892-6.884 1.835-.894-.02-2.652-1.02-2.652-1.02-3.407-.868-6.409 5.848-9.484 8.261-3.66 2.871-4.819 2.933-6.528 4.13-1.346.945-3.941 2.317-5.764 1.842-9.62-2.51-9.759.954-13.94.684-3.875-.251-7.282 1.448-10.53 1.207l-5.908-.44c-2.815-.21-8.323 4.166-13.756 2.587l-4.674-1.326c-4.414-1.253-11.477 5.955-15.927 10.056-5.837 3.03-11.377 6.125-17.62 8.073-3.874 2.178-7.08 5.206-7.302 10.766-.728 3.13-1.484 6.23-3.01 8.56-2.183 3.46-6.057 5.04-9.356 7.258l-7.19 3.924c-3.415 2.215-5.808 5.212-5.93 8.434 1.25 2.583 2.243-.233 3.364-.36 1.18-.134.53-1.585 1.299-1.803 2.128-.606 3.378-1.543 3.894-2.885.2-.52-1.787-.217-1.53-1.01.697-2.157 1.162-1.578 2.395-2.38 2.14-1.389 5.108-.131 6.775-1.517 2.485-2.065 3.361-1.788 6.09-3.114 1.716-.834-.513-1.172-.698-1.697-.297-.838 1.808-1.087 2.689-1.532 1.276-.644 1.722-1.822 2.084-2.918.559-1.692 3.114-3.552 5.687-3.567 4.333-.026 5.895-5.083 9.609-4.693 1.927.203 1.703-1.6 1.01-1.803-2.304-.67-5.187.192-6.271 1.587-2.443 3.141-6.9 4.212-7.143 3.066-.654-3.077.26-6.135.721-6.744.482-.637.743-.35 1.122-.382.241-.02 3.426-3.785 1.907-3.8-.711-.008-2.382.851-1.947-.29.786-2.064 7.7-3.149 11.565-3.957 3.361-.703.809-.5 3.507-1.956 2.383-1.285 4.021-3.264 7.03-4.391 5.702-2.136 2.49-4.17 4.37-4.73l2.302-.686c1.045-.312.967-2.397 3.437-2.45 4.68-.102 8.284 2.645 12.356 1.224 4.778-1.668 8.786-2.438 12.765-3.173 1.392.782 2.44 1.552 4.831 1.226 3.59-.49 6.427-1.92 9.52-3.03-.24.833-.879 2.234 0 2.02 1.874-.457 4.466-1.334 6.491-1.574 2.299-.272 4.035-.592 5.12.492.455.456-1.187 2.7-2.625 1.717-.847-.578-3.535 4.558-5.614 6.319-3.602 3.05-7.263 4.851-8.132 4.8-.807-.046-1.947-.4-2.308 1.227-1.108 4.998-4.575 10.013-8.399 14.231-4.056 4.474-18.676 6.695-27.887 9.838-.42.143.677 1.264.677 1.264l-9.259 2.393c-1.856 3.193-5.12 6.168-8.847 7.758l4.533 1.583c4.183-1.658 11.405-2.903 12.548-4.976-2.862-.18-2.819-.735-2.331-1.13 1.501-1.218 3.444-.708 5.639-1.71 3.09-1.411 6.118-4.166 8.435-4.818 3.03-.852 4.352-.102 6.272-.05 3.65.096 10.154-6.033 12.902-9.435l5.354-6.629c2.711-3.357 4.636-2.006 9.689-9.077 3.11-4.292 6.89-6.232 10.555-6.629 0 0 6.461-1.098 10.709-2.192 4.313-1.112 5.53 2.143 10.25.968 0 0 1.028-.507 1.53-.357 3.423 1.025 9.182-.138 10.684-.222 2.716-.152 3.2 1.404 4.452.642 3.014-1.834 8.696-.449 14.25-2.367 2.235-.772 4.069-1.308 7.022-.755.308.057.107.677-.738.955-1.556.511-2.96.403-3.651 1.83-.521 1.077 2.651-.925 8.01-1.46.94-.093 2.73 1.27 3.53.246.814-1.039 1.482-1.2 2.946-1.367 3.915-.45 9.042-2.4 14.487-4.815 1.253-.555 1.42 1.602.589 1.908-3.032 1.117-5.676 3.039-8.753 5.354-2.185 1.645-5.424 1.46-6.272 2.244-3.278 3.031-10.726 3.913-8.975 4.284 1.801.38 3.655-1.356 4.335-.232 1.066 1.764-7.82 3.312-12.618 5-1.313.462-4.567 2.218-4.567 2.218-1.646.778-2.914-.675-3.366 0-2.762 4.126-7.561 5.269-7.72 6.108-.317 1.664-2.006.862-2.427 2.05l-1.089 3.074c-.462 1.306-3.195 1.09-3.775 1.673-3.33 3.346-4.9 4.242-8.01 9.465-2.262 3.8-5.825 6.184-9.818 9.348-.982.777 2.073.626 1.122 1.274-2.068 1.41-3.922 2.387-3.876 2.652.277 1.595 5.487-1.028 8.87-2.198 2.776-.96 6.148-2.035 7.295-6.012.695-2.41 1.106-5.928 2.907-6.833 4.789-2.409 6.104-6.993 9.23-9.434 9.314-7.273 26.746-9.546 35.102-6.748 3.468 1.16 7.74 3.147 10.714 2.254 2.355-.708 3.713-1.3 5.425-2.41 1.898-1.23 8.6.8 7.589-.408-.708-.844-3.221-1.898-4.79-1.418-2.06.63-3.1 1.12-6.362.571-3.627-.609-4.867.278-6.982-.138-4.508-.887-13.24-4.871-13.24-4.871-.884-.337-1.024-2.094 1.66-2.283 5.719-.402 4.36-2.097 6.579-3.06 5.613-2.435 8.824-2.282 10.965-3.995l7.545-6.04c1.256-1.005 2.514-.126 4.539-2.968.5-.703.048-1.076 3.019-1.53 3.675-.564 4.607.29 5.286-.402.664-.677 2.96-1.395 4.986-.91 3.583.856 6.21 3.307 10.3 3.029.164-1.09.428-3.398.03-5.61-.207-1.156-5.74-3.105-7.019-2.747-2.72.76 2.666.904 5.274 3.836.443.498.441 1.05-.322.952-.865-.111-2.336-1.054-3.965-1.54-2.429-.723-5.167-1.044-6.43-1.045-7.514-.005-6.977 1.38-9.02.975-1.021-.202-1.588-1.054-3.28-.627-1.711.433-3.297 1.148-5.132 1.642-2.673.411-6.598-1.772-8.019-.786-3.884 2.696-5.208 2.952-8.7 3.56M214.638 150.362c1.848.858 1.966.7 2.352-1.417.316-1.732.577-3.528.361-5.173-.15-1.137-3.156-.155-3.037.51.643 3.59-1.575 5.2.324 6.08zM220.421 142.912c-1.47.839-.979 4.45-1.462 6.677-.155.714 2.191-.304 3.29-.408 2.892-.273 2.784-.495 3.102-1.642.667-2.403.708-3.685.906-6.111.084-1.024-3.776.31-5.836 1.484zM232.52 140.369c-.164 1.827-.336 3.585-.494 5.278-.07.746 2.433.766 3.001-.872.632-1.82.505-3.64.641-5.459.048-.631-3.042-.116-3.147 1.053zM238.228 138.904c-1.096 2.226-.517 3.595-.861 5.772-.244 1.54 4.74-.71 6.585-1.501 1.748-.75 1.952-3.709 1.918-5.746-.022-1.29-3.057-.096-4.757.393-.986.284-2.22-.266-2.885 1.082zM252.148 135.298c.04 2.693-1.393 4.473-.434 5.589.838.976 2.345.997 2.74-.505.486-1.845.358-3.562.388-5.408.01-.611-2.714-1.112-2.694.324zM257.042 134.74c.134 2.023-.75 4.322-.18 5.496.415.858 4.91-.99 6.679-2.306 1.571-1.17.016-3.465.53-5.388.182-.68-1.723-.235-3.58.306-1.64.478-3.553.33-3.45 1.891zM277.315 137.642c1.878.192 1.415-2.645 2.005-4.847.247-.92-2.537-2.4-2.654-.814-.171 2.335-.598 5.533.649 5.66zM285.049 136.484c-.752 1.676-.195 5.026.615 5.135 1.39.187 1.112-2.683 1.411-3.855.398-1.561-1.516-2.417-2.026-1.28zM289.466 137.894c-.814.293-.876 1.677-.827 2.848.025.61-1.034.955-1.119.329-.134-.999-.373-1.676.105-3.379.377-1.345 2.27.048 1.841.202zM279.964 133.73c-.254 1.737-.82 3.85-.208 4.334.513.405 1.359-2.253 1.905-3.652.238-.608-1.6-1.342-1.697-.682zM160.43 195.148c1.423-.094 4.058-.039 4.189-.594.412-1.751 2.512-8.015 1.993-11.922l-2.211-.445c-2.569.801-5.94 1.235-7.69 2.412-4.539 4.192-2.59 8.7-2.81 11.571-.149 1.941 2.734-.77 6.53-1.022zM185.603 179.923c-1.604 1.145-.411.743-.95 9.16-.015.237.328.32.623.792.166.266-.261 1.234.154 1.063 3.045-1.25 9.42-2.258 9.525-3.289l.875-8.621c.144-1.418-1.547-2.137-3.136-2.044-2.698.157-4.842 1.334-7.091 2.94zM216.218 174.226c-2.099 3.44-1.425 6.778-1.02 9.908.295 2.286 3.028 2.1 3.824.867 1.105-1.712 6.428-1.882 6.556-3.407.24-2.855.343-3.86 1.283-6.145.47-1.142-1.894-3.231-3.41-3.074-2.333.243-6.607.823-7.233 1.85zM211.832 164.705c-.842.226-.24 2.305-1.284 4.072-.471.797-.073 3.986.416 4.16.601.213 1.691.642 2.47.255 2.745-1.361 4.808-3.577 7.877-2.737 1.382.378 1.278-5.118 1.609-7.658.303-2.333-7.477.939-11.088 1.908zM212.546 162.258c.097 1.125.993.195 2.954-.467 1.653-.558 3.982-.853 4.338-2.44.315-1.406.964-3.702.085-3.77-3.467-.27-4.235 2.134-6.572 3.264-1.174.568-.907 2.236-.805 3.413zM223.42 154.894c.503-.9 4.508-1.209 7.053-2.273.9-.376.926 2.293.95 4.282.013 1.046-4.512 2.4-8.082 3.275-1.11.272-1.253-2.9.079-5.284zM227.961 160.624c-2.684.121-3.11 3.62-3.098 5.486.006.985-.389 1.831-.958 3.062-.618 1.337 3.646 1.86 5.775 2.672 1.939.74 3.403-4.172 5.915-4.232 1.07-.025 1.492-2.426 1.69-4.148.203-1.784.47-5.253-.772-5.184-3.106.173-5.566 2.21-8.552 2.344zM237.012 156.232c-.877.082-.544.587-2.386 1.181-1.442.466-.68-2.546-.663-4.028.014-1.14 3.273-2.559 5.047-2.902 2.296-.445 7.228-1.836 7.321-1.4.247 1.153.35 3.76-.185 4.039l-5.748 3.001c-2.67 1.394-2.939.068-3.386.11zM174.506 190.293c1.17-.283 3.683-.22 6.68.164.444.057.029 1.152-.686 1.182-1.539.065-3.722.82-5.836.768-.744-.019-.888-1.938-.158-2.114zM203.87 184.667c2.763-.537 3.01-.022 4.674-.018.987.003 1.332 1.679.51 1.764-1.963.204-5.883 1.181-6.031.023-.087-.675.017-1.608.846-1.769zM236.81 178.54c-1.124.007-1.937 3.262 0 2.179 2.562-1.433 8.505-1.285 7.199-2.143-2.37-.914-4.696-.052-7.2-.036zM250.658 168.461c-.536 2.75.843 5.371-1.068 6.749-1.684 1.214 2.449 2.613 4.354 2.45 2.825-.244 5.058-1.707 7.586-1.926 2.382-.207 4.441.344 5.118-.618 1.434-2.036 1.176-4.599 1.042-8.838-.025-.802-.546-2.368-3.08-1.726-1.208.306-4.256 1.042-7.583 1.93-2.892.771-6.198 1.107-6.369 1.98zM271.48 163.815c-.12-1.663 6.267 1.427 9.422 2.317.75.211.934 5.946.092 10.426-.16.854-5.88.296-8.684-1.705-2.036-1.453-.549-7.16-.83-11.038zM284.017 169.083c.037-1.08 4.258-.647 6.753.314 1.243.479-1.36 1.498-2.601 2.345-.454.31-.077 6.696-1.122 6.834-.922.121-1.814 1.077-2.685.753-.463-.171-.54-.436-.704-1.002-.126-.434-.889.136-1.278.069-.331-.057-.392-.65.435-1.911 1.214-1.853 1.11-4.704 1.202-7.402zM239.725 159.306c-.495 2.752-.925 5.503-.51 8.255.28 1.85 4.031 1.733 7.407.17 1.55-.718 3.983-2.133 5.995-2.711 2.406-.692 4.655-.636 6.327-1.069 1.953-.505 3.09-1.466 2.336-1.85-2.127-1.087-.447-4.5-.806-6.98-.324-2.241-.986-1.888-2.187-1.89-3.749-.003-3.465 1.547-4.691 2.602-.574.493-1.468.443-1.068 2.933l.51 3.616c.304 2.163-2.38 1.855-2.451.845-.204-2.907.905-8.86-.612-8.72-2.477.228-1.97 1.975-3.588 1.45-1.4-.452-6.372 1.74-6.662 3.349zM247.968 153.168c-.37 1.883 6.155-.654 8.492-.611.957.017.896-1.465 1.05-2.654.121-.938-1.25-3.456-1.788-3.34l-7 1.506c-1.899.409-.424 3.42-.754 5.1zM258.054 146.589c2.598-2.093 6.259-2.408 9.641-2.918 1.432-.216 2.622 1.486 2.218 3.646-.192 1.03.199 2.422-3.063 2.998l-6.042 1.067c-1.373.468-1.148-.97-1.735-1.995-.715-1.248-1.519-2.396-1.02-2.798zM270.73 143.186c-.226 1.71 1.174.737 1.274 1.326l-.076 3.672c-.038 1.816 5.345 2.056 5.38 1.478.135-2.294.018-3.69-.154-6.042-.053-.74-1.629-1.05-3.313-1.161-1.428-.095-2.998-.134-3.112.727zM280.367 145.073c2.55.571 6.178 2.14 5.853 3.227-.217.73-.536.846-.51 1.453.027.59 1.13 2.772.332 2.703-2.208-.191-3.977.241-6.644-1.927-.704-.572-.35-5.751.97-5.456zM288.271 148.388c1.995.55 5.59 1.161 4.666 3.136-.553 1.18-1.215 1.093-.943 2.167.22.873.795 2.438 0 2.371-1.437-.12-2.438-1.134-4.13-1.963-.695-.34-.305-5.908.407-5.711zM263.33 162.655c-1.094.14-.394-.928-.098-2.014.153-.56-.858-1.43-.737-2.194.294-1.844-.035-3.883 1.01-5.48.812-1.242 4.213-2.337 5.625-2.164.635.078 1.067 1.353 1.658 1.37.593.018.216-2.351 1.875-1.659 1.361.569 2.526 1.504 3.69 1.712.735.132 2.916-.745 3.161.55.689 3.63.437 6.005-.36 9.71-.186.864-1.72.394-2.797-.794-.47-.516-2.524.69-3.694.36-1.206-.338-.438-3.009-.414-4.38.01-.592-1.28-1.34-1.404-.154-.203 1.965-.944 3.455-1.947 4.298-1.325 1.114-3.576.583-5.569.84zM283.793 154.068c-.472-.564-2.044-.418-1.881.977.374 3.215-2.039 7.552-.433 9.356l2.723 3.06c.426.48 2.035.566 2.604-.94.894-2.364 1.878-4.063 1.901-6.709.02-2.235-3.266-3.773-4.914-5.744zM290.739 157.188c-.036-.418 2.26-.027 2.405 1.187l1.226 10.313c.22 1.855-3.146-.58-4.96-1.1-1.7-.488 1.684-6.277 1.329-10.4zM298.074 159.274c1.296 3.75 2.375 7.538 2.787 11.288.262 2.39-5.206.488-5.12-.937l.216-3.606-.938-6.057c-.048-.315 2.394-2.6 3.055-.688zM296.606 171.644c.973.371 2.273.976 3.173 1.731.34.285 1.33.047 1.33.047 1.009 3.935.431 9.791-.254 9.722-1.994-.202-7.742-.003-6.259-2.992l.884-1.783c1.047-2.11-.26-7.253 1.126-6.725zM237.068 170.519c-.936.207-1.61-.039-2.362.905-.846 1.063-1.336 3.066.212 3.66.788.303 1.58.485 2.337-.75 1.259-2.052-.302-2.135.147-2.927.516-.91 2.18.9 1.362 3.076-.618 1.646-1.08 2.644-3.264 2.523-2.031-.113-3.497-1.823-3.228-3.432.456-2.72 2.043-3.811 3.691-3.997 1.856-.208 1.566.84 1.105.942zM200.5 182.232c1.753 1.462 4.61 1.599 5.552-.293.548-1.102 1.635-2.45 1.125-4.696-.31-1.364-2.054-2.172-3.709-2.043-2.64.206-4.153 2.114-4.205 3.88-.037 1.254.508 2.544 1.237 3.152z"/>
    <path style="fill:#000;fill-opacity:1;fill-rule:evenodd;stroke:none;stroke-width:1px;stroke-linecap:butt;stroke-linejoin:miter;stroke-opacity:1" d="M203.356 177.093c-1.42.059-2.068 2.096-1.89 2.977.374 1.867 2.11 1.735 2.758 1.217 1.117-.894 1.178-4.278-.868-4.194z"/>
    <path style="fill:#fff;fill-opacity:1;fill-rule:evenodd;stroke:none;stroke-width:1px;stroke-linecap:butt;stroke-linejoin:miter;stroke-opacity:1" d="M171.65 180.743c-2.674.434-2.687 2.08-2.704 3.824-.011 1.115.44 2.738 1.424 3.553 2.326 1.927 4.859.84 6.366-.345 1.138-.895 1.076-3.596.543-5-.526-1.385-2.415-2.678-5.63-2.032z"/>
    <path style="fill:#000;fill-opacity:1;fill-rule:evenodd;stroke:none;stroke-width:1px;stroke-linecap:butt;stroke-linejoin:miter;stroke-opacity:1" d="M173.463 182.055c-1.626-.07-2.573 2.445-2.276 3.504.635 2.268 2.391 1.968 3.166 1.43 1.793-1.245.389-4.877-.89-4.934z"/>
    <path style="fill:#fff;fill-opacity:1;fill-rule:evenodd;stroke:none;stroke-width:1px;stroke-linecap:butt;stroke-linejoin:miter;stroke-opacity:1" d="M303.313 182.224c.123 1.544.697 2.277 1.849 3.354.985.922.433-1.725.5-3.743.036-1.132-2.453-.902-2.35.389zM313.913 180.082l-.288 7.909c-.07 1.934 2.954.48 2.954.48l1.388-5.745c-.011-1.4-2.975-3.13-4.054-2.644zM150.428 239.649c-2.76-.06-2.074 2.28-2.02 3.462.085 1.796.468 3.522 1.01 5.264.457 1.47 5.175 1.097 5.373-.54l.973-8.042c.058-.474-3.523-.104-5.336-.144z"/>
    <path style="fill:#fff;fill-opacity:1;fill-rule:evenodd;stroke:none;stroke-width:1px;stroke-linecap:butt;stroke-linejoin:miter;stroke-opacity:1" d="M160.957 238.567c-1.371.942-2.478.6-3.354 4.616-.47 2.155-.87 3.818-.252 4.687 1.42 2 4.557-1.379 7.933-1.55 1.372-.07 2.68-.204 4.327 0 1.175.145 1.646-5.187 1.694-6.995.028-1.048-3.284-.317-3.425-1.118-.203-1.15.758-2.34 2.74-1.947 2.901.575 5.066.308 7.32.144 2.116-.155 2.881-5.903 3.209-9.123.075-.737-3.56-.407-3.822-.036-.329.464-.726.735-1.154.793-.469.064-.404-.59-1.01-.937-.52-.299-3.377.848-6.418 1.803-1.578.495-.403 3.163-.937 5.408-.13.548.675 2.57-2.921 3.189-2.735.47-.829-1.732.469-2.828.385-.325.286-4.566.36-5.048.297-1.913-9.253.55-14.64 1.514-1.393.25-.675 3.244-1.297 6.022-.283 1.262 13.505-.193 11.178 1.406z"/>
    <path style="fill:#fff;fill-opacity:1;fill-rule:evenodd;stroke:none;stroke-width:1px;stroke-linecap:butt;stroke-linejoin:miter;stroke-opacity:1" d="M180.356 236.656c-1.885 2.47-6.883.912-6.96 2.596-.199 4.397-2.03 7.41-.829 7.32 4.061-.305 5.636-1.385 8.438-2.091 2.166-.547 6.645-.033 6.49-1.659-.209-2.188.772-5.946-.577-5.77-4.452.584-6.03-1.093-6.562-.396zM189.154 243.11c-.49 1.32 1.071.8 3.245.683 1.61-.087 3.726.129 4.832.471 1.196.371.794-.59 3.056-2.483.984-.824.184-3.954.874-5.341.598-1.203-6.478-.589-9.7-.757-1.91-.1-1.394 4.967-2.307 7.428zM198.457 225.442c-.086 3.903-2.274 8.69-4.4 8.87-3.412.29-5.702.396-10.672.65-1.924.098-1.024-4.132-.325-6.455.335-1.112 3.952-2.333 3.75-3.786-.063-.45-6.742.594-10.24.974-.888.096-.582-6.027 1.406-8.69.64-.858 5.808-.886 8.365-2.668.886-.618 4.04.907 6.563.72.958-.07.256 2.064-.33 4.094-.485 1.677-.764 3.283-1.076 3.515-4.252 3.157-2.196 3.574-1.55 3.497 2.555-.304 8.536-1.952 8.509-.72z"/>
    <path style="fill:#fff;fill-opacity:1;fill-rule:evenodd;stroke:none;stroke-width:1px;stroke-linecap:butt;stroke-linejoin:miter;stroke-opacity:1" d="M205.38 223.135c-.052 2.34-3.724.56-5.052 5.442-.455 1.67-2.023 4.641-1.33 5.123 2.087 1.45 11.019-2.317 11.033-.073.014 2.187-6.282.426-6.67 1.767-.986 3.406-.81 6.267-.073 6.202 4.225-.372 7.543-5.963 11.972-10.348 1.09-1.08 1.767-6.944 1.442-8.113-.432-1.556-4.063.432-6.094.649-.808.086-2.86 1.028-3.858-1.154.975-.46 2.755-.534 2.813-1.442.202-3.218-.47-6.771.649-8.835.973-1.794-3.997 1.092-4.94.361-.698-.54-1.186-1.137-2.056-.974-1.077.203-1.13 1.092-3.209 1.767-.997-.334-1.648-.086-2.632.938-1.623 1.688-2.545 4.99-3.822 8.581-.905 2.545 11.85-.973 11.827.109zM173.469 226.055c-3.273.637-11.43 3.042-11.575.794-.19-2.96.026-5.904 2.164-8.618.783-.995 2.091-.42 3.137-.613l4.064-.241c.787-.047 2.453-.766 2.318-1.562-.734-4.328.612-8.451 1.623-8.69 1.324-.313 3.758.565 2.704-1.154l-7.933 1.154c-1.31.19-3.265.486-3.173-2.452.07-2.232.413-5.497 1.659-5.877 3.564-1.088 6.753-1.726 10.24-2.488 2.074-.454 2.499 1.4 2.272 2.2-.631 2.22-.437 4.966-2.2 6.02-.706.424.406 2.055 1.154 2.02 2.932-.138 1.936-1.47 1.839-2.38-.26-2.438-.524-4.195.685-5.553-.974-3.13.657-2.71 1.587-2.848 2.086-.31 1.348-.866 2.498-1.176 4.484-1.206 10.624-2.594 10.915-1.24.55 2.553-.669 4.477-1.082 6.635-.266 1.39-7.224 2.652-10.889 3.822-3.583 1.143-2.085 3.415.216 1.803.743-.52 2.657-1.69 2.38-.577-.291 1.171-.144 3.798-.216 5.697-.115 3.012-4.576 4.033-8.221 3.966-1.745-.032-3.138.307-4.472 1.226-.518.358-.682.554-.654.976.028.41.615 1.053.402 1.909-.673 2.711-.467 7.058-1.442 7.247z"/>
    <path style="fill:#fff;fill-opacity:1;fill-rule:evenodd;stroke:none;stroke-width:1px;stroke-linecap:butt;stroke-linejoin:miter;stroke-opacity:1" d="M189.983 211.849c-.242 2.606 3.394.503 11.43-.686 1.943-.287 1.878-5.291 2.2-8.076.147-1.272-1.615-.052-3.173.613-2.326.992-1.12-1.516-2.993-1.154-2.494.48-4.466 1.797-6.058 2.92-1.817 1.283-1.165 3.793-1.406 6.383zM206.534 210.803c-2.053.521-2.095-2.125-1.37-3.534l.72-3.173c.197-.863 1.76-1.795 3.743-2.66 1.373-.6 2.153-1.299 4.407-1.378.67-.024.758 1.022 1.406.72 1.285-.596 4.148-1.336 4.147-.54-.002 1.294.034 2.639.468 3.75.497 1.272.444 2.894.18 4.363-.205 1.144-6.504.534-8.87 1.514-2.146.89-4.831.938-4.831.938zM221.966 207.158c.105 1.53 9.703.622 11.938-.152 1.136-.394 2.76-.963 2.943-1.967.404-2.212 1.639-7.472.772-7.319-2.739.483-4.627.036-7.354-.11-2.792-.15-4.848 1.526-7.145 2.16-.848.233-1.322 4.925-1.154 7.388zM225.572 209.577c-4.717-.677-6.288.043-9.159.54-.963.168-1.157 1.885-1.91 2.236-.58.27-1.318.555-1.695.83-1.025.746-1.023 1.474-1.803 8.185-.089.763 1.804.015 4.648-.127 2.792-.139 4.618-.785 6.097-1.46.387-.177 1.11 2.26.144 2.128-2.055-.282-3.098 1.517-3.57 3.173-.566 1.989-1.974 4.694.037 5.625 3.962 1.833 6.887-.833 11.754-2.2.78-.219 2.54-1.04 2.416-2.127-.22-1.939-.484-2.997.541-4.796.402-.704-4.712-1.147-4.566-.314.234 1.332-.663.267-4.088.71-1.218.159-1.379-2.297-.504-2.451l1.225-.217c.879-.155.247-2.484.714-4.818.56-2.795 1.846-4.612-.28-4.917z"/>
    <path style="fill:#fff;fill-opacity:1;fill-rule:evenodd;stroke:none;stroke-width:1px;stroke-linecap:butt;stroke-linejoin:miter;stroke-opacity:1" d="M235.813 225.947c-1.501 1.02-2.063-.247-1.515-2.884.317-1.524 1.155-1.726 1.947-2.02 1.62-.6 5.668-.68 4.76-1.803-.48-.593-13.129.934-13.233-.432-.261-3.41.758-6.343 2.055-8.15.75-1.044 2.873-1.618 4.58-2.415 2.21-1.034 5.073-1.476 5.66-.83l.721.794c.765.84 7.997-1.905 7.645-1.01-2.152 5.46-1.616 9.329-2.236 9.23-1.878-.297-1.517.401-1.478 1.047.04.664 1.37.42 1.767 1.226.15.306-2.068.942-4.73 2.627-2.051 1.298-4.396 3.569-5.944 4.62zM248.499 217.068c1.26.975 2.262-.202 3.784-.872 1.438-.632 3.674.012 4.36-.081 1.665-.227 2.481-.934 4.212-.845 1.797.094 2.556 1.732 4.848 1.811 2.498.087 5.534-1.071 5.59-1.951l.6-9.394c.08-1.268-2.203-.522-4.326-.92-.422-.08-1.083.674-1.937.67-1.665-.008-3.92-.699-5.587-.669-2.978.055-5.958.22-8.933.734-.702.121-.881 3.258-1.64 4.938-1.627 3.607-2.213 5.619-.971 6.58zM273.673 206.188l-.658 9.7c-.05.753 4.133 1.91 4.124.637l-.077-10.41c-.008-1.034-3.349-.717-3.389.072zM198.998 201.392c.789 1.421 1.494-.989 10.384-1.298 3.512-.123 3.091-6.045 3.39-9.664.092-1.12-8.524-.21-13.09 2.524-.434.26.413 1.428.433 2.056.093 2.85-2.19 4.45-1.117 6.382zM165.356 198.435c.798-.09-.613 4.868-.217 8.113.082.665-5.365 1.414-9.122 1.695-.847.063-1.601-1.898-1.334-2.92.405-1.554.976-2.998 1.01-4.977.014-.85 6.442-1.548 9.663-1.91zM172.099 208.64c.52-1.27-12.91.735-17.056 1.658-.44.098-.67 1.663-1.06 2.498-.613 1.307-1.12 2.608-.598 3.848-.862 2.271 4.538-1.541 14.567-.969 1.329.076 4.088-.228 3.966-.798-.444-2.079-.616-4.293.18-6.238z"/>
    <path style="fill:#fff;fill-rule:evenodd;stroke:none;stroke-width:1px;stroke-linecap:butt;stroke-linejoin:miter;stroke-opacity:1;fill-opacity:1" d="m161.39 218.88-8.222.288-1.226 3.678-.865 6.418 8.798-1.802z"/>
    <path style="fill:#fff;fill-opacity:1;fill-rule:evenodd;stroke:none;stroke-width:1px;stroke-linecap:butt;stroke-linejoin:miter;stroke-opacity:1" d="M213.853 198.075c-.13.606 1.804.086 4.35-.164 3.223-.317 6.743.26 9.677-1.64 1.235-.799 1.814-1.264 2.848-7.752.179-1.119-.768-.776-.973-1.839-.325-1.677-2.807 1.003-7.572 1.262-3.084.168-3.623.645-5.625 1.298-1.48.483-2.054 5.814-2.705 8.835zM232.17 186.86c.277.457.554.866.83 1.227.772 1.007-1.672 7.398-.649 7.536 3.988.537 6.311-.535 9.555-1.587 1.246-.404 1.577.766 1.01 1.334-1.435 1.438-3.345 1.574-3.678 4.219-.254 2.019-.32 3.66-.252 5.445.07 1.866 8.547-.215 13.233-.433 2.287-.107 2.337-2.17 4.146-2.74.729-.23.19-7.049-.504-7.032-1.365.034-3.13.164-4.617.086-2.996-.156-5.577-.453-5.624-1.06-.086-1.12 1.493-1.363 2.452-2.956l.938-7.897c.117-.988-4.32.5-8.895 1.542-4.436 1.012-5.523-.187-6.077.42-.348.38-.463 1.221-.828 1.305-.743.172-1.266.217-1.04.592z"/>
    <path style="fill:#fff;fill-opacity:1;fill-rule:evenodd;stroke:none;stroke-width:1px;stroke-linecap:butt;stroke-linejoin:miter;stroke-opacity:1" d="M250.091 191.62c.862-2.002.764-5.266 1.01-8.077.096-1.097.003-1.972 2.596-2.307 4.746-.615 9.235-1.396 14.447-3.067 1.288-.412.63 1.2 1.42.975 1.125-.321 1.183-.201 1.08.505-.547 3.756.524 9.868-.683 10.173-3.08.779-3.7 2.029-11.288 1.942-2.86-.032-9.42 1.803-8.582-.144zM259.485 194.309c3.462-.462 6.296-1.254 8.924-1.925 2.64-.673 2.337.33 2.315 2.46l-.08 8.026c-.01 1.067-4.101-.541-5.799-.127-2.638.645-7.511.933-6.965.055 2.348-3.778-.968-8.146 1.605-8.49zM272.952 202.942c-.295.719 1.517 1.304 3.584 1.82 2.579.646 5.568 1.069 5.515.194l-.157-2.59c-.081-1.344.366-2.679.592-4.018.256-1.51-1.943-2.654-.88-2.761 2.433-.247 5.102-.952 5.993 1.667.489 1.435-1.942-1.256-3.18.64l.576 9.52-2.957.072c-1.283.03-3.009 2.342-3.033 3.049-.09 2.623-.316 6.308 1.014 8.417.9 1.427-2.57.221-3.847-.013-1.22-.224-1.964.774-.73 1.396 1.571.793 2.838 2.001 3.788 3.364 2.94 4.221 6.526 2.57 10.02 4.844 1.037.675 2.268 3.179 2.767 2.473l.847-1.199c.337-.477 1.34.57 1.344-.412 0 0-.525-3.164.094-4.518.733-1.602-.182-2.406-.64-2.927-.393-.446.89-.617 1.934-.772 1.78-.265 6.684.25 5.337-.794-.784-.607-1.743-1.25-1.71-1.947l.21-4.477c.04-.877-.843-1.54-1.732-2.233-.442-.345-.192-1.198-.288-1.799-.089-.551-4.464-.633-5.223.007-2.316 1.955-1.53 4.238-1.43 6.13.155 2.974-1.81 1.1-2.042.454-.448-1.245 0-1.754.536-4.43.378-1.895 1.268-3.209-2.732-4.177-.6-.145-.578-1.673.204-1.302 3.904 1.85 3.274.294 6.388 1.294 1.302.418.084-5.263.23-8.123.033-.644-.89-1.883-1.557-1.783-.793.12-1.886.051-2.635-.39-.48-.283-.332-.512-.504-1.364-.09-.444 1.457-.278 1.54-.74.354-1.992.206-4.655.06-7.126-.05-.819 1.866-1.277 1.848-.849l-.314 7.322c-.097 2.27 1.49 2.762 2.083 2.876l3.165.607c.647.125 1.682.018 1.73-.937l.276-5.468c.056-1.091 2.064-.349 1.969.474-.224 1.93-.295 3.89-.433 5.553-.115 1.393 1.396 1.393 2.849 1.444 1.373.049 2.805.05 2.687-.6-.452-2.491-.746-4.83-1.175-7.376-.212-1.259.064-1.904.388-2.867.441-1.314-3.607-1.166-5.326-.985-1.2.126-.376.973-1.862 1.094-.483.04-.608-1.776-.551-2.265.136-1.164-4.089-1.556-5.277-1.764-.817-.143-.243 2.119-1.846 1.96-1-.1-1.286-1.776-1.554-2.338-.73-1.533-5.021-2.298-9.115-2.66-.818-.073-1.146 1.852-1.226 2.732-.315 3.462-.55 6.486.692 9.489.828 2.001-2.913.289-4.353.204-1.04-.062-2.914-.072-2.384 2.706.4 2.093 1.404 4.748.433 6.202"/>
    <path style="fill:#fff;fill-opacity:1;fill-rule:evenodd;stroke:none;stroke-width:1px;stroke-linecap:butt;stroke-linejoin:miter;stroke-opacity:1" d="m271.857 180.752.012 9.226c.003 2.174 4.45 3.606 4.614 2.928.764-3.175-.103-5.254-.125-8.23-.01-1.425.392-2.423.612-3.609.039-.208-1.253-.895-2.548-1.02-1.281-.125-2.565.31-2.565.705zM310.593 189.95c-.174 3.092 1.785.771 1.5 3.677-.212 2.178.63 5.526.09 5.854-.869.527-2.445 1.46-3.174 1.4-.84-.788-1.662-4.358-1.802-7.025-.042-.796-.247-2.413.225-3.532.578-1.371 3.224-1.487 3.161-.374zM297.471 199.553c-1.065-.367-1.96.462-1.947 1.154l.144 7.428c.006.313 1.406.241 2.637.82 1.817.856 4.61 1.357 4.398.347-.49-2.32-.792-5.031-.371-8.106.122-.896-3.244-1.086-4.86-1.643z"/>
    <path style="fill:#fff;fill-opacity:1;fill-rule:evenodd;stroke:none;stroke-width:1px;stroke-linecap:butt;stroke-linejoin:miter;stroke-opacity:1" d="M307.038 200.617c-1.498-.436-2.368.555-2.606 1.922-1.244 7.14 1.19 4.923.364 7.988-.373 1.387-2.072 1.188-3.286 1.862-.923.513-.725 1.801-.505 3.03.288 1.442.256 4.547.61 4.658.703.22 1.689 3.146 2.474 2.782.996-.463 1.568-1.246 3.109-1.267.525-.007.247-4.535.36-8.27.03-.94-.835-1.231-.597-2.446.16-.818 1.844.729 3.087.98.571.114 1.959.281 2.199-.156.466-.85.344-1.237.372-2.047.04-1.124.562-2.89.476-3.942-.128-1.56-1.539-2.262-1.558-3.197-.026-1.292-2.746-1.387-4.5-1.897z"/>
    <path style="fill:#000;fill-opacity:1;fill-rule:evenodd;stroke:none;stroke-width:1px;stroke-linecap:butt;stroke-linejoin:miter;stroke-opacity:1" d="M291.561 218.952c-3.67-.466-6.555-1.1-8.973-.78-1.607.213-1.029 2.2.172 2.078 3.807-.385 5.58.367 8.365.865 2.373.425 1.427-2.037.436-2.163z"/>
    <path style="fill:#fff;fill-opacity:1;fill-rule:evenodd;stroke:none;stroke-width:1px;stroke-linecap:butt;stroke-linejoin:miter;stroke-opacity:1" d="M299.418 222.278c-1.7-.778-2.345.352-2.812.797-1.695 1.612.044 4.76.072 7.271.005.464.81.888 2.1 1.332.698.241.722.348.628.899-.195 1.135 3.238.176 3.363-.637.281-1.828-.17-4.655-.093-7.185.018-.594-2.155-1.973-3.258-2.477zM306.15 223.779c-.537-.053-1.639 1.746-1.573 3.004.123 2.35.015 6.615.751 6.69 3.03.309 8.981 1.58 8.96.274-.046-2.689-.502-4.282-.735-6.718-.109-1.136-2.268-2.746-3.678-2.885zM312.827 222.927c-2.101-.655-4.816-.276-4.178-2.029.945-2.596.188-7.59 1.081-7.894 1.04-.353 2.595 1.393 3.636 2.482-.111 2.463.383 7.728-.539 7.441z"/>
    <path style="fill:#fff;fill-rule:evenodd;stroke:none;stroke-width:1px;stroke-linecap:butt;stroke-linejoin:miter;stroke-opacity:1" d="M311.665 237.99c-2.107-1.654-4.007-1.708-11.047-2.503-.785-.088-.546 1.188-.161 1.234 1.775.209 3.147.738 4.408.892 1.682.206 3.086.044 4.211.445 2.691.96 3.685.831 2.589-.068zM295.091 239c-2.203-.185-3.153-.067-5.033.488-.845.25 2.554 1.386 5.874 1.315.83-.018 1.405-1.615-.84-1.803zM303.358 238.826c-.581-.037-1.736.556-2.158 1.001-.542.571 6.375 1.083 5.095-.243-.876-.907-.841-.625-2.937-.758zM359.636 291.135c.038 1.02 1.248 1.987 2.44 2.045 2.162.701 4.46.72 6.099 3.073 5.012 7.196 14.22 11.215 17.926 11.112 2.408-.066-1.596-1.177-4.255-3.317-1.751-1.41-4.256-2.207-6.85-4.471l-4.76-6.346c-3.276-4.368-8.486-6.082-11.9-8.293l-10.528-13.414c-5.673-5.842-15.506-6.726-23.726-11.034-3.758-2.331-7.745-5.12-9.087-10.6l-2.38-.361c.422 1.947-.1 3.894 1.515 5.841 2.77 2.064 6.427 3.596 8.293 6.202 2.383 3.33 4.046 3.26 6.202 4.832.698.509 2.006-.027 2.596.433 3.98 3.098 7.404 3.435 11.322 5.048.749.308 3.166 2.745 1.01 2.163 0 0-2.832-1.296-4.4-1.37-.998-.047-3.1.649-3.1.649-3.816.651-9.418-5.9-12.692-4.904l-4.976 1.515c-6.101 1.856-13.247-.383-19.904-3.823-.986-.509-4.904-.503 5.625 4.111 5.254 2.302 8.4 3.18 11.25 3.173 3.051-.008 6.879-.874 10.024.433 4.38 1.82 9.177 3.162 12.98 2.812 1.73-.159 3.414-.022 5.12 1.154 1.945 1.34 5.258 4.299 8.366 4.615.558.057.308 2.644 1.803 2.885 1.925.311 2.671 1.475 3.378 2.396.747.973 4.163.455 3.617 2.075"/>
    <path style="fill:#fff;fill-rule:evenodd;stroke:none;stroke-width:1px;stroke-linecap:butt;stroke-linejoin:miter;stroke-opacity:1" d="M341.39 284.433c-3.31.445-5.662-.523-8.546.396-2.709.864-5.755.53-7.356 1.731-.653.49-.805.947-1.403 2.139-.357.712-.342-1.36-3.212.24-2.603 1.452.337-1.525 2.415-2.703 5.656-3.044 11.618-3.325 17.524-4.111.45-.06 1.559 2.176.577 2.308zM313.12 291.644c-2.206-.205-4.423.508-6.634 1.226-.641.208-.616 1.887 0 1.659 5.336-1.977 10.169-1.27 7.445-2.254-.581-.21-.222-.576-.81-.63zM299.905 294.204c1.024.038 2.852 1.297-.342 1.407-6.054.208-15.812.802-25.313.72-1.8-.015-9.448 4.538-14.279 6.563-1.05.44-3.861-1.92-2.02-2.163 5.95-.786 13.85-6.6 15.506-6.563l9.807.217c2.99.066 2.429-.995 3.426-.938 0 0 2.604.32 3.911.412 3.096.22 9.304.345 9.304.345zM251.786 284.757c4.036-.598 5.858-.66 8.257-1.767 1.525-.703 3.469-2.577 4.291-2.091 1.411.834 2.668 1.524 4.003 1.803.584.122.927 1.42-.613 1.262-1.556-.16-2.673-2.068-5.049-1.442-1.83.482-.22 2.488-3.1 3.245-.927.243-3.715.983-5.53.706-2.238-.343-3.71-1.5-2.259-1.716zM225.825 260.941c1.065-.446-2.612-1.597-3.985-1.082-4.257 1.6-6.716 2.868-11.971 5.607-1.03.537 5.71-.16 6.166-.378 4.67-2.237 5.938-2.534 9.79-4.147zM202.657 269.108c.588.788-1.72 1.336-2.235 1.316l-2.813-.108c-.688-.026 4.115-2.46 5.048-1.208z"/>
    <path style="fill:#fff;fill-opacity:1;fill-rule:evenodd;stroke:none;stroke-width:1px;stroke-linecap:butt;stroke-linejoin:miter;stroke-opacity:1" d="M173.469 282.522c-2.016.38-1.01 2.385.469 2.488 7.92.546 7.721-4.174 16.766-3.786 5.962.255 9.481-.18 12.368-1.984 1.316-.822 2.975-3.727 1.37-2.884-5.33 2.8-10.767 1.265-16.91 2.524-3.386.694-6.534 2.731-9.798 3.826-3.194 1.072-2.88-.445-4.265-.184z"/>
    <path style="fill:#fff;fill-rule:evenodd;stroke:none;stroke-width:1px;stroke-linecap:butt;stroke-linejoin:miter;stroke-opacity:1" d="m207.976 277.221 3.534 2.74c.369.287-.723.949-3.967-1.117-3.034-1.933-.498-2.345.433-1.623zM184.502 290.815c3.652-.45-.26 2.435-1.117 2.272-3.052-.582-6.303-.324-9.448-.577-3.095-.25 1.147-1.5 2.38-1.84.771-.211 5.221.51 8.185.145zM167.303 274.12c1.925-.21.797 1.88-.746 1.837-2.671-.073-6.08 1.598-5.62 1.094 2.155-2.36 4.37-2.713 6.366-2.93zM154.37 260.668c.08.887 3.043.192 5 .039 1.376-.108 1.374-1.824-.297-1.552-1.435.233-4.757.918-4.704 1.513zM107.88 295.284c-2.689.673-5.403 1.13-8.03 2.43-1.056.523-1.173 2.472-.336 2.151 8.7-3.329 10.105-5.016 8.366-4.58zM146.403 268.351c-1.667.056-4.828.015-5.206.505-1.64 2.126 2.805 1.117 4.773 1.021 2.668-.13.862-1.54.433-1.526zM149.995 268.279l4.4-.65c1.227-.18 1.006 1.58-.556 1.646-4.655.195-5.493-.753-3.844-.996zM148.408 267.98c2.584-.664 1.362-1.303.716-1.327-.54-.02-.769-.205-.978.12-.248.388-.201 1.326.262 1.207zM258.406 225.842c-.133-.061-.682-1.07.564-.67 1.62.517 5.522 1.05 8.501 2.362 1.518.668.804 3.169-.072 2.596-2.98-1.95-6.043-2.935-8.993-4.288z"/>
    <path d="M207.128 144.59c.284-1.782 9.067-3.171 20.732-5.992 14.493-3.504 32.365-7.826 44.904-10.709 4.502-1.035 7.192 3.478 10.776 5.242l21.044 10.358c.555.273 1.57.77-1.803 2.885-1.367.857-.645 3.752-1.134 6.433-.318 1.74-3.787.581-3.664 1.232l3.743 19.769 1.226 7.716c3.71-1.956 7.07-1.634 10.529-1.947 2.505-.227 4.795 2.08 4.904 3.534.342 4.562.183 7.543-1.833 8.52-2.965 1.435-2.906 2.872-2.834 6.518 0 0-.646 18.9.65 28.597.66 4.944 1.775 10.445.847 11.638l-.997 1.283s.461 1.92.728 3.623c.291 1.852-.202 5.622-.202 5.622 1.336 6.435 5.208 9.221 9.338 11.578 8.057 4.599 18.905 4.311 25.703 13.49 3.611 4.876 5.058 6.598 6.318 8.18.667.836 1.623 2.451 3.135 3.21 14.694 7.376 13.149 14.105 20.156 17.308 2.738 1.251 5.24 3.63 6.49 3.894 1.251.264 5.222 3.11 5.383 4.464l-52.041-5.185-47.38 11.899-57.26-13.486-56.322 13.342-48.389-12.693-44.712 8.726-5.483-3.023c.343-3.27 1.533-7.771 4.437-10.267 7.925-6.811 11.629-6.426 15.758-9.787 6.407-5.214 4.937-10.8 7.268-16.217 2.926-6.802 7.814-7.098 12.366-8.801 9.126-3.415 11.74-6.811 18.809-12.443 2.061-1.643 5.37-3.322 7.22-4.394 0 0-.09-5.467.712-7.938 1.382-4.25 4.172-8.768 5.409-16.802l.433-12.981c.153-4.6-.178-6.183 1.442-8.798-1.993-2.041-3.479-2.986-3.462-4.014.063-3.669.714-7.063 3.232-10.695 3.583-5.17 7.241-3.415 11.097-5.292.726-.354 1.26.456 2.21.445 1.528-.017 1.625-2.133 5.213-2.234 2.503-.521 6 .337 9.758.91 2.128.324 4.563-3.498 10.765-4.517 2.019-.332 3.904.348 5.389.118 2.5-.389 3.224-1.857 6.276-1.925 1.242-.027 3.144 1.029 3.44-.663l2.823-16.159c.164-.94-1.385-1.39-1.374-1.934l.157-7.589c.025-1.212-2.278-.588-2.266-1.943z" style="fill:none;fill-rule:evenodd;stroke:#000;stroke-width:.5;stroke-linecap:butt;stroke-linejoin:miter;stroke-miterlimit:4;stroke-dasharray:none;stroke-opacity:1"/>
    <path style="fill:#fff;fill-rule:evenodd;stroke:#000;stroke-width:1px;stroke-linecap:butt;stroke-linejoin:miter;stroke-opacity:1" d="M290.5 323c20 0 35-12 55-12 16.945 0 30.301 8.614 46.15 11.246l4.56-11.427C378.29 309.317 364.045 299 345.5 299c-20 0-35 12-55 12s-35-12-55-12-35 12-55 12-35-12-55-12c-18.545 0-32.79 10.317-50.71 11.819l4.56 11.427C95.2 319.614 108.555 311 125.5 311c20 0 35 12 55 12s35-12 55-12 35 12 55 12z"/>
    <path d="M433.5 36.8c4.364 194.521-37.277 372.362-198 488.5C74.777 409.162 33.136 231.321 37.5 36.8h198z" style="fill:none;fill-rule:evenodd;stroke:#000;stroke-width:5;stroke-linecap:butt;stroke-linejoin:miter;stroke-miterlimit:4;stroke-dasharray:none;stroke-opacity:1"/>
</svg>
