<svg xmlns="http://www.w3.org/2000/svg" width="420" height="480">
    <path d="M1.36 1.355h417.39c-.01 114.254-20.563 347.881-208.814 476.892C23.612 349.178 1.447 115.633 1.36 1.355z" style="color:#000;fill:#fff;fill-opacity:1;fill-rule:nonzero;stroke:gray;stroke-width:2.49001861;stroke-miterlimit:4;stroke-opacity:1;stroke-dasharray:none;marker:none;visibility:visible;display:inline;overflow:visible;enable-background:accumulate"/>
    <path d="M155.878 211.264c10.693-6.838 22.799-11.635 35.795-15.147l1.155-11.683 29.818.068 1.087 11.75c12.322 3.537 24.525 7.913 36.338 15.012l9.17-7.676 20.988 21.464-6.724 9.102c6.113 11.3 12.135 22.667 14.74 36.474l10.867 1.427.064 29.886-10.935 1.154c-3.273 13.234-8.053 25.527-15.418 36.203l7.131 8.762-21.463 21.26-8.287-7.131c-10 7.122-22.203 12.41-36.814 15.69l-1.426 10.663-29.14-.204-1.018-11.003c-14.102-2.934-26.419-8.01-36.679-15.554l-9.237 7.336-20.784-20.989 7.404-9.78c-8.466-12.023-12.648-24.046-14.468-36.068l-11.818-1.29.136-29.818 11.411-1.563c3.053-14.3 7.947-26.327 15.351-35.252l-8.286-9.577 21.463-21.192 9.577 7.675zM259.046 43.372c9.45-6.101 20.15-10.381 31.636-13.514l1.02-10.424 26.353.06.96 10.484c10.891 3.156 21.676 7.06 32.117 13.393l8.104-6.848 18.55 19.15-5.944 8.121c5.404 10.083 10.725 20.224 13.027 32.543l9.605 1.273.057 26.665-9.664 1.03c-2.893 11.807-7.118 22.775-13.627 32.3l6.303 7.818-18.97 18.969-7.323-6.363c-8.839 6.354-19.624 11.072-32.536 13.999l-1.261 9.514-25.753-.182-.9-9.817c-12.463-2.619-23.35-7.147-32.417-13.878l-8.164 6.545-18.37-18.726 6.544-8.727c-7.482-10.726-11.178-21.453-12.786-32.18l-10.445-1.15.12-26.605 10.086-1.394c2.697-12.76 7.023-23.49 13.567-31.452l-7.324-8.545 18.97-18.908 8.464 6.848zM67.463 43.372c9.541-6.101 20.342-10.381 31.938-13.514l1.03-10.424 26.604.06.97 10.484c10.994 3.156 21.881 7.06 32.422 13.393l8.18-6.848 18.727 19.15-6 8.121c5.455 10.083 10.827 20.224 13.15 32.543l9.697 1.273.058 26.665-9.757 1.03c-2.92 11.807-7.185 22.775-13.756 32.3l6.363 7.818-19.15 18.969-7.394-6.363c-8.922 6.354-19.81 11.072-32.846 13.999l-1.272 9.514-25.998-.182-.91-9.817c-12.581-2.619-23.57-7.147-32.725-13.878l-8.241 6.545-18.544-18.726 6.605-8.727c-7.553-10.726-11.284-21.453-12.908-32.18l-10.544-1.15.122-26.605 10.18-1.394c2.724-12.76 7.09-23.49 13.697-31.452l-7.393-8.545 19.15-18.908 8.545 6.848z" style="fill:#f9423a;fill-opacity:1;stroke:none"/>
    <path d="M101.037 51.19c-21.034 4.018-41.99 21.668-46.36 46.3l34.118-.243.059-10.363 12.362-.058-.182-35.634zM127.322 51.19c21.034 4.018 41.99 21.668 46.36 46.3l-34.119-.243-.058-10.363-12.362-.058.182-35.634zM127.322 169.953c21.034-4.019 41.99-21.669 46.36-46.3l-34.119.242-.058 10.363-12.362.058.182 35.634zM54.98 121.958c4.018 21.034 21.668 41.99 46.3 46.36l-.243-34.118-10.363-.058-.058-12.363-35.634.182zM106.644 101.668h17.207v15.883h-17.207zM291.037 51.19c-21.034 4.018-41.99 21.668-46.36 46.3l34.118-.243.059-10.363 12.362-.058-.182-35.634zM317.322 51.19c21.034 4.018 41.99 21.668 46.36 46.3l-34.119-.243-.058-10.363-12.362-.058.182-35.634zM317.322 169.953c21.034-4.019 41.99-21.669 46.36-46.3l-34.119.242-.058 10.363-12.362.058.182 35.634zM244.98 121.958c4.018 21.034 21.668 41.99 46.3 46.36l-.243-34.118-10.363-.058-.058-12.363-35.634.182zM296.644 101.668h17.207v15.883h-17.207zM193.507 220.026c-23.575 4.504-47.062 24.286-51.96 51.893l38.24-.272.064-11.614 13.857-.065-.204-39.939zM222.967 220.026c23.575 4.504 47.063 24.286 51.962 51.893l-38.241-.272-.065-11.614-13.856-.065.204-39.939zM222.967 353.137c23.575-4.505 47.063-24.286 51.962-51.894l-38.241.272-.065 11.615-13.856.065.204 39.938zM141.886 299.344c4.504 23.575 24.286 47.062 51.893 51.961l-.272-38.24-11.615-.065-.065-13.856-39.938.203zM199.792 276.602h19.286v17.802h-19.286z" style="fill:#fff;fill-opacity:1;stroke:none"/>
</svg>
