<svg xmlns="http://www.w3.org/2000/svg" xml:space="preserve" viewBox="30.5 31.5 400 500" height="500" width="400">
    <path d="M230.56 531.14c74.32-53.92 125.26-122.02 155.74-208.16 27.64-78.1 38.73-172.75 33.91-289.35l-.02-.46H40.37l-.02.46c-4.81 116.6 6.28 211.24 33.91 289.35 30.48 86.14 81.42 154.24 155.74 208.16l.28.2.28-.2z" fill="#e00e00"/>
    <path d="m380.98 70.19-1.75 16.97c-7.4 1.77-11.14 7.35-12.08 12.75-.98 5.59 1.55 12.32 6.78 15.38-7.65 51.77-13.79 79.67-30.13 110.06-14.48 26.93-50.97 59.01-88.7 56.6-75.82-4.84-75.94-97.27-51-205.57l-144.84.88c16.44 133.91 66.36 269.8 178.67 277.13 66.97 4.37 126.74-70.1 139.42-139.75 5.35-29.38 6.44-74.2 9.43-97.28 8.74-3.35 10.93-9.68 11.14-14.65.21-4.84-2.33-11.35-9.55-14.78.12-5.09.45-11.95.67-17.83z" style="fill:#ffe000;stroke-miterlimit:4;stroke:#000"/>
    <path d="M41.04 33.21C31.97 252.66 77.3 419.16 230.5 530.31c153.19-111.15 198.51-277.65 189.44-497.1H41.04m-.92-.95H420.86l.04.92c4.82 116.66-6.28 211.36-33.93 289.52-30.51 86.24-81.51 154.41-155.91 208.39l-.56.41-.56-.41c-74.4-53.98-125.4-122.15-155.91-208.39C46.38 244.54 35.28 149.84 40.1 33.18l.04-.92z"/>
    <path d="m72.24 113.62 5.01 8.25 4.32-8.16M91.5 113.62l5.01 8.25 4.32-8.16M112.03 113.62l5.01 8.25 4.32-8.16M134.93 113.62l5.01 8.25 4.32-8.16M155.27 113.62l5.01 8.25 4.32-8.16M176.59 113.62l5.01 8.25 4.32-8.16" style="fill:none;stroke-linecap:round;stroke-linejoin:round;stroke-miterlimit:4;stroke:#000"/>
</svg>
