<svg xmlns="http://www.w3.org/2000/svg" xml:space="preserve" viewBox="30.5 31.5 400 500" height="500" width="400">
    <path d="M230.44 531.14C156.12 477.22 105.18 409.12 74.7 322.98c-27.64-78.1-38.73-172.75-33.91-289.35l.02-.46h379.82l.02.46c4.81 116.6-6.28 211.24-33.91 289.35-30.48 86.14-81.42 154.24-155.74 208.16l-.28.2-.28-.2z" style="fill:#ffe000;stroke-linecap:round;stroke-linejoin:round"/>
    <path d="M419.96 33.21c9.07 219.45-36.26 385.95-189.46 497.1C77.31 419.16 31.99 252.66 41.06 33.21h378.9m.92-.95H40.14l-.04.92c-4.82 116.66 6.28 211.36 33.93 289.52 30.51 86.24 81.51 154.41 155.91 208.39l.56.41.56-.41c74.4-53.98 125.4-122.15 155.91-208.39 27.65-78.16 38.75-172.86 33.93-289.52l-.04-.92z" style="stroke-linecap:round;stroke-linejoin:round"/>
    <path d="m230.5 530.31 8-5.722V360.005h16v-83h82v-186h-254v84h78v102h78v18h-16v229.659z" style="fill:#000;fill-rule:evenodd;stroke:#000;stroke-width:1px;stroke-linecap:butt;stroke-linejoin:miter;stroke-opacity:1"/>
    <path style="fill:#ffe000;fill-opacity:1;fill-rule:evenodd;stroke:#000;stroke-width:2;stroke-linecap:butt;stroke-linejoin:miter;stroke-miterlimit:4;stroke-dasharray:none;stroke-opacity:1" d="M98.5 141.005v18h62v-18zM98.5 107.005v18h62v-18zM176.5 141.005v18h62v-18zM176.5 107.005v18h62v-18zM176.5 175.005v18h62v-18zM176.5 209.005v18h62v-18zM176.5 243.005v18h62v-18zM254.5 261.005h66v-18h-66zM254.5 227.005h66v-18h-66zM254.5 193.005h66v-18h-66zM254.5 159.005h66v-18h-66zM254.5 125.005h66v-18h-66z"/>
</svg>
