<svg xmlns="http://www.w3.org/2000/svg" version="1" width="420" height="500">
    <path d="M4.45 1.5h411.09V302.415c0 108.649-92.027 196.713-205.54 196.713-113.513 0-205.55-88.074-205.55-196.713V1.5z" style="fill:#004899;fill-opacity:1;fill-rule:nonzero"/>
    <path d="M4.45 1.5h411.09V302.415c0 108.649-92.027 196.713-205.54 196.713-113.513 0-205.55-88.074-205.55-196.713V1.5z" style="fill:none;stroke:#000;stroke-width:1.02142417"/>
    <path style="fill:none;stroke:#fff;stroke-width:12.10532379;stroke-miterlimit:4;stroke-dasharray:none;stroke-opacity:1" d="M25.1 26.497H394.89V297.18c0 97.734-82.78 176.95-184.89 176.95-102.109 0-184.898-79.225-184.898-176.95V26.497z"/>
    <path d="M212.815 47.15c-6.457-.369-15.048 4.479-13.29 10.747.59 5.539.943 12.939-1.28 13.221-20.181 2.565-46.8 16.075-66.726 40.52-26.49 32.5-32.357 65.74-42.797 107.287-3.143 12.507-3.542 20.714-4.382 33.206-.42 6.237 13.254-1.937 27.843-8.197 14.983-6.429 31.928-12.002 53.144-14.26 2.845-.304 1.891 13.53-.504 13.588-26.679.654-94.777 28.816-96.816 40.152-2.34 13.012-2.502 34.258 4.3 45.534 23.898 39.62 67.648 54.418 114.712 59.799 1.743 9.347 16.77 25.434 22.858 25.524 6.406.095 19.805-13.145 22.675-26.11 36.035-.003 67.522-15.342 83.64-24.428 22.227-12.53 33.477-31.045 36.154-50.81 1.695-12.514 4.25-29.796-1.474-33.115-18.02-10.452-40.598-21.063-62.74-27.75-5.714-1.726-20.794-6.729-29.98-9.074-2.791-.713-2.024-12.73 1.286-12.025 28.494 6.074 50.043 15.122 74.863 27.638 5.545 2.795 5.855-17.828 4.692-27.553-4.934-41.264-17.112-72.106-34.722-104.621-10.762-19.872-32.402-39.552-61.49-51.351-10.5-4.26-16.807-5.43-22.623-5.292-1.584.038-2.375-1.803-.246-1.924 6.85-.39 8.171-.308 7.755-10.936-.212-5.395-8.455-9.407-14.852-9.77z" style="fill:#ffe000;fill-opacity:1;fill-rule:evenodd;stroke:#000;stroke-width:1px;stroke-linecap:butt;stroke-linejoin:miter;stroke-opacity:1"/>
    <path d="M192.85 299.876c.62-9.269-9.33-19.546-22.381-15.876-32.305 9.086-50.755 14.523-82.242 32.012-5.585 3.102 1.68 10.573 5.205 16.657 5.958 10.279 26.577 23.744 47.352 32.922 23.325 10.305 46.707 14.462 47.122 8.258zM229.974 300.657c-.61-17.113 19.577-17.255 23.423-16.396 28.158 6.287 52.14 18.042 77.297 30.19 5.1 2.462 1.222 15.294-3.123 19.519-32.82 31.912-94.81 44.725-94.994 39.559z" style="fill:#004899;fill-opacity:1;fill-rule:evenodd;stroke:#000;stroke-width:1px;stroke-linecap:butt;stroke-linejoin:miter;stroke-opacity:1"/>
    <path d="m187.906 373.74-.887 15.007M232.577 373.529l-.025 14.632" style="fill:none;fill-rule:evenodd;stroke:#000;stroke-width:1px;stroke-linecap:butt;stroke-linejoin:miter;stroke-opacity:1"/>
    <path d="M208.91 351.82c-3.175-4.066-1.326-3.815 0-3.68 5.681.576 13.516 2.896 13.32 14.998-.154 9.553-10.535 14.901-16.01 13.895-1.812-.334.944-2.446 2.414-4.601 2.265-3.32 4.83-14.782.276-20.611zM209.415 252.596c-3.578-3.718-1.006-3.505.327-3.463 5.68.18 12.862 3.046 12.666 13.582-.178 9.552-10.229 13.355-16.664 13.894-2.013.168-.952-2.345 1.651-4.492 2.994-2.468 6.79-14.563 2.02-19.521zM271.653 257.87c-3.794-3.497-1.327-3.816 0-3.681 5.68.576 12.1 4.64 11.686 14.998-.382 9.546-12.825 13.266-18.626 11.388-1.753-.567.015-1.628 3.504-2.748 5.765-1.852 9.406-14.455 3.436-19.958zM327.511 282.166c-2.639-4.434-2.735-4.313-1.416-4.117 5.354.794 10.657 9.975 7.327 15.87-3.12 5.524-8.852 6.794-12.633 5.286-3.083-1.23-3.09-1.95.344-1.986 5.625-.059 9.666-9.531 6.378-15.053zM148.713 261.353c-4.11-3.118-.787-2.957.544-3.027 5.681-.295 11.01.717 12.34 11.185 1.204 9.478-5.632 12.94-11.652 12.804-1.842-.04-1.683-.888.344-2.53 4.771-3.865 3.521-14.563-1.576-18.432zM90.945 283.019c-4.142-3.076-1.333-3.689 0-3.681 5.354.031 10.5.363 12.994 7.697 2.22 6.527-4.325 13.506-9.8 14.657-1.803.38-.455-1.453.998-3.62 2.592-3.864.58-11.512-4.192-15.053zM208.039 174.816c-3.347-3.926-.286-3.338 1.04-3.203 5.682.576 12.497 6.188 12.17 13.214-.374 8.078-11.249 13.048-15.9 12.586-1.834-.182.498-2.12 2.631-3.62 3.328-2.34 4.285-14.019.059-18.977zM210 99.378c-4.016-3.238-1.333-3.003 0-3.026 4.373-.078 11.35 2.9 11.032 12.274-.303 8.899-8.03 13.593-13.504 12.586-1.813-.333 1.002-1.247 2.472-3.402 2.265-3.32 4.662-14.672 0-18.432zM190.287 233.643c.037 1.99-7.985 2.853-8.097.736-2.395-45.026 2.504-91.651 6.106-136.538.15-1.858 8.039-1.274 7.88.56-3.8 43.757-6.78 88.027-5.89 135.242zM234.27 232.28c-.06 2.206 8.287 2.622 8.465.552 3.628-42.061-2.394-86.757-5.104-134.608-.129-2.272-8.623-2.255-8.514-.218 2.4 44.939 6.403 88.83 5.153 134.274z" style="fill:#004899;fill-opacity:1;fill-rule:evenodd;stroke:#000;stroke-width:1px;stroke-linecap:butt;stroke-linejoin:miter;stroke-opacity:1"/>
    <path d="M120.724 335.588c-1.973-1.17-8.23 4.312-6.626 5.89 18.66 18.343 53.846 30.64 68.341 31.278 2.83.124 4.58-10.945 2.2-11.242-24.726-3.084-43.623-13.89-63.915-25.926zM132.594 333.932c11.955 9.648 34.547 19.194 50.704 21.134 3.324.399 4.384-9.994 2.485-10.214-20.471-2.37-35.127-9.983-46.748-17.729-2.04-1.36-8.028 5.529-6.441 6.81zM154.77 317.737c11.174 6.931 20.022 10.036 31.135 10.372 2.957.089 2.294 10.096.278 10.056-14.632-.295-31.057-7.837-36.567-12.882-1.73-1.585 3.144-8.792 5.153-7.546zM299.848 335.78c1.238-.793 8.886 6.06 7.43 7.118-18.32 13.32-46.865 24.293-69.284 28.25-2.79.493-3.653-9.739-1.284-10.114 24.84-3.936 41.08-11.126 63.138-25.254zM289.632 334.036c-13.079 11.257-38.29 19.806-51.906 20.934-3.336.277-4.629-11.377-1.155-11.624 14.793-1.051 31.635-6.245 45.444-17.03 1.932-1.509 9.074 6.467 7.617 7.72zM269.378 317.69c-9.566 4.813-20.067 8.368-32.595 8.265-3.223-.027-2.827 10.566-.524 10.73 11.568.826 29.3-5.212 38.623-11.755 1.653-1.16-3.704-8.146-5.504-7.24z" style="fill:#ffe000;fill-opacity:1;fill-rule:evenodd;stroke:#000;stroke-width:1px;stroke-linecap:butt;stroke-linejoin:miter;stroke-opacity:1"/>
    <path d="M297.852 224.342c-1.162-.111-2.208 1.887 0 2.76 6.949 2.75 14.277 6.743 20.612 10.95 2.222 1.476 2.59-2.477.644-4.324-4.943-4.693-12.691-8.564-21.256-9.386zM295.092 208.148c-1.162.112-2.205 1.876 0 2.76 8.697 3.486 13.264 6.098 20.611 10.95 2.226 1.47 1.439-3.673-.736-5.245-7.377-5.332-15.629-8.875-19.875-8.465zM293.092 192.148c-1.165-.078-2.29 2.127 0 2.76 6.948 1.922 12.068 3.246 19.415 8.097 2.226 1.47 3.906-2.27 1.748-3.864-6.598-4.877-14.347-6.54-21.163-6.993zM288.908 175.964c-1.167-.007-2.138 2.994.184 3.496 6.764 1.462 12.712 1.405 20.06 6.257 2.225 1.47 2.671-2.22.551-3.864-6.241-4.843-12.517-5.84-20.795-5.89zM282.724 161.712c-1.16.135-2.368 2.577 0 2.76 6.493.503 13.61 2.546 20.151 6.165 2.392 1.324 4.34-3.151 2.024-4.508-8.37-4.908-16.916-5.03-22.175-4.417zM276.908 147.62c-1.167.027-2.373 2.649 0 2.76 7.593.358 14.552 1.13 21.991 4.877 2.383 1.2 3.855-2.538 1.473-3.772-8.347-4.325-15.176-4.056-23.464-3.865zM273.092 134.448c-1.165.066-2.357 2.468 0 2.76 5.108.634 10.044.026 16.93 3.681 2.357 1.25 3.758-2.447 1.289-3.496-7.795-3.313-13.243-3.227-18.22-2.945zM127.055 223.644c1.166-.048 2.301 2.17 0 2.76-8.263 2.121-12.327 2.837-21.31 8.628-2.241 1.445-4.223-2.193-1.932-3.589 10.258-6.245 14.904-7.455 23.242-7.799zM128.597 207.974c1.166.05 2.358 2.472 0 2.76-9.345 1.145-12.65 2.249-20.919 8.107-2.177 1.542-4.169-2.106-1.932-3.588 8.975-5.948 13.784-7.659 22.851-7.279zM133.106 189.857c1.167.02 2.29 2.13 0 2.76-8.496 2.34-10.58 1.837-21.7 9.017-2.24 1.448-4.192-2.141-1.932-3.588 10.589-6.781 17.272-8.296 23.632-8.19zM135.898 175.852c1.157.155 2.635 3.592.26 3.541-6.774-.145-11.777 1.311-20.528 5.634-2.392 1.182-2.405-3.238-.111-4.63 6.52-3.952 14.275-5.365 20.379-4.545zM141.657 160.698c1.138.26 2.374 2.704 0 2.76-7.283.174-13.519 1.397-20.139 4.854-2.364 1.235-3.324-2.732-1.021-4.11 7.078-4.232 15.304-4.84 21.16-3.504zM147.568 146.3c1.148.21 2.245 2.057-.13 2.109-6.691.148-10.684.989-18.837 4.853-2.41 1.143-2.99-2.698-.631-3.979 7.599-4.126 12.208-4.344 19.598-2.984zM152.472 134.792c1.052.507 1.792 3.825-.52 3.28-4.349-1.023-10.033-1.483-15.063.3-2.515.89-1.985-2.118.41-3.329 5.281-2.67 11.056-2.238 15.173-.251z" style="fill:#004899;fill-opacity:1;fill-rule:evenodd;stroke:#000;stroke-width:1px;stroke-linecap:butt;stroke-linejoin:miter;stroke-opacity:1"/>
</svg>
