<svg xmlns="http://www.w3.org/2000/svg" xmlns:xlink="http://www.w3.org/1999/xlink" height="622.617" width="400">
    <defs>
        <linearGradient id="b">
            <stop offset="0" style="stop-color:#d9d9d9;stop-opacity:1"/>
            <stop offset="1" style="stop-color:#e6e6e6;stop-opacity:1"/>
        </linearGradient>
        <linearGradient id="c">
            <stop offset="0" style="stop-color:#fff;stop-opacity:1"/>
            <stop offset="1" style="stop-color:#ccc;stop-opacity:1"/>
        </linearGradient>
        <linearGradient id="a">
            <stop offset="0" style="stop-color:#fff;stop-opacity:1"/>
            <stop offset="1" style="stop-color:#ccc;stop-opacity:1"/>
        </linearGradient>
        <linearGradient gradientTransform="matrix(.98332 0 0 1.00302 1.49 -.858)" gradientUnits="userSpaceOnUse" xlink:href="#a" id="o" y2="77.376" x2="235.459" y1="77.376" x1="193.554"/>
        <linearGradient gradientTransform="matrix(.98332 0 0 1.00302 1.49 -.858)" gradientUnits="userSpaceOnUse" xlink:href="#a" id="n" y2="115.016" x2="239.508" y1="115.016" x1="179.534"/>
        <linearGradient gradientTransform="matrix(.98332 0 0 1.00302 1.49 -.858)" gradientUnits="userSpaceOnUse" xlink:href="#a" id="p" y2="182.296" x2="249.665" y1="182.296" x1="166.154"/>
        <linearGradient spreadMethod="pad" gradientTransform="matrix(.98332 0 0 1.00302 1.49 -.858)" gradientUnits="userSpaceOnUse" xlink:href="#a" id="h" y2="98.836" x2="151.301" y1="98.836" x1="120.199"/>
        <linearGradient gradientTransform="matrix(.98332 0 0 1.00302 1.49 -.858)" gradientUnits="userSpaceOnUse" xlink:href="#a" id="i" y2="135.78" x2="156.493" y1="135.78" x1="111.643"/>
        <linearGradient gradientTransform="matrix(.98332 0 0 1.00302 1.49 -.858)" gradientUnits="userSpaceOnUse" xlink:href="#a" id="g" y2="187.182" x2="176.714" y1="187.182" x1="94.995"/>
        <linearGradient gradientTransform="matrix(.98332 0 0 1.00302 1.49 -.858)" gradientUnits="userSpaceOnUse" xlink:href="#a" id="q" y2="117.465" x2="307.552" y1="117.465" x1="257.775"/>
        <linearGradient gradientTransform="matrix(.98332 0 0 1.00302 1.49 -.858)" gradientUnits="userSpaceOnUse" xlink:href="#a" id="x" y2="161.352" x2="306.751" y1="161.352" x1="227.901"/>
        <linearGradient gradientTransform="matrix(.98332 0 0 1.00302 1.49 -.858)" gradientUnits="userSpaceOnUse" xlink:href="#a" id="A" y2="143.709" x2="316.81" y1="143.709" x1="255.766"/>
        <linearGradient gradientTransform="matrix(.98332 0 0 1.00302 1.49 -.858)" gradientUnits="userSpaceOnUse" xlink:href="#b" id="t" y2="240.131" x2="353.122" y1="240.131" x1="84.564"/>
        <linearGradient gradientTransform="matrix(.98332 0 0 1.00302 1.49 -.858)" gradientUnits="userSpaceOnUse" xlink:href="#a" id="m" y2="165.291" x2="376.829" y1="165.291" x1="320.127"/>
        <linearGradient gradientTransform="matrix(.98332 0 0 1.00302 1.49 -.858)" gradientUnits="userSpaceOnUse" xlink:href="#a" id="l" y2="171.981" x2="391.263" y1="171.981" x1="354.823"/>
        <linearGradient gradientUnits="userSpaceOnUse" xlink:href="#a" id="w" y2="152.554" x2="43.382" y1="152.554" x1="4.252"/>
        <linearGradient gradientUnits="userSpaceOnUse" xlink:href="#c" id="f" y2="200.112" x2="88.605" y1="200.112" x1="49.07"/>
        <linearGradient gradientUnits="userSpaceOnUse" xlink:href="#c" id="y" y2="240.473" x2="310.898" y1="240.473" x1="83.714"/>
        <linearGradient gradientUnits="userSpaceOnUse" xlink:href="#b" id="D" y2="250.064" x2="147.345" y1="250.064" x1="124.899"/>
        <linearGradient gradientUnits="userSpaceOnUse" xlink:href="#a" id="E" y2="244.494" x2="294.594" y1="244.494" x1="271.058"/>
        <linearGradient gradientUnits="userSpaceOnUse" xlink:href="#a" id="C" y2="252.659" x2="225.105" y1="252.659" x1="195.495"/>
        <linearGradient gradientUnits="userSpaceOnUse" xlink:href="#b" id="r" y2="53.568" x2="213.608" y1="53.568" x1="185.427"/>
        <linearGradient gradientUnits="userSpaceOnUse" xlink:href="#b" id="j" y2="74.751" x2="141.892" y1="74.751" x1="113.078"/>
        <linearGradient gradientUnits="userSpaceOnUse" xlink:href="#b" id="s" y2="76.279" x2="282.223" y1="76.279" x1="258.994"/>
        <linearGradient gradientUnits="userSpaceOnUse" xlink:href="#c" id="u" y2="224.806" x2="317.622" y1="224.806" x1="178.27"/>
        <linearGradient gradientUnits="userSpaceOnUse" xlink:href="#b" id="v" y2="231.913" x2="154.054" y1="231.913" x1="98.97"/>
        <linearGradient gradientUnits="userSpaceOnUse" xlink:href="#b" id="e" y2="213.68" x2="101.114" y1="213.68" x1="56.411"/>
        <linearGradient gradientUnits="userSpaceOnUse" xlink:href="#a" id="d" y2="179.909" x2="59.173" y1="179.909" x1="15.274"/>
        <linearGradient gradientUnits="userSpaceOnUse" xlink:href="#c" id="k" y2="208.008" x2="241.161" y1="208.008" x1="232.812"/>
        <linearGradient gradientUnits="userSpaceOnUse" xlink:href="#c" id="F" y2="231.553" x2="339.07" y1="231.553" x1="308.925"/>
        <linearGradient gradientUnits="userSpaceOnUse" xlink:href="#c" id="z" y2="199.896" x2="345.642" y1="199.896" x1="328.962"/>
        <radialGradient gradientTransform="matrix(.98332 0 0 .34856 1.49 96.506)" gradientUnits="userSpaceOnUse" xlink:href="#a" id="B" fy="148.769" fx="284.765" r="28.341" cy="148.769" cx="284.765"/>
    </defs>
    <path d="M43.283 31.14c-.304-2.502-.67-5.233-.946-7.788 2.479-.637 5.831-3.151 9.112-2.344 1.143 2.541 3.076 5.006 3.554 7.901.968-.253 2.086-.782 3.176-.831.079-2.458.911-5.614.265-8.28 2.808-.38 5.964-.955 8.923-1.21 1.84 5.373 4.862 10.468 5.595 16.332-1.355 3.992-1.787 8.449-4.121 12.135 7.845-1.715 16.823-2.828 24.727-5.406-2.72-3.27-4.578-7.356-8.205-9.867-.916-5.64-3.059-11.247-2.8-17.23 3.105-.322 6.336-.869 9.518-.988 1.409 2.224 2.628 4.553 4.198 6.629.404-.008.948.202 1.363-.027-.062-2.502.322-5.067-.187-7.565 2.093-.736 5.983-2.745 8.288-2.913 1.421 2.607 1.24 7.186 4.839 8.874.527-3.161 1.95-6.545 1.657-9.944 1.577-.115 3.144-.631 4.759-.347 1.604 2.792 5.61 5.524 5.493 9.562 1.309-3.136 2.16-6.597 4.008-9.602 2.117-.193 5.295-3.412 8.09-.737 1.804 2.417 1.491 7.415 5.668 7.593.087-2.862.835-5.894.267-8.821 3.458-.285 6.99-1.62 10.373-.855.895 6.982 3.192 14.028 2.727 21.277-2.763 3.233-4.204 8.45-8.94 10.462 8.97-.276 21.599-1.747 31.91-.983-2.666-3.164-4.885-6.816-8.09-9.602-1.097-2.604-3.557-5.395-3.651-8.671-.17-4.745-.183-9.573-.508-14.274 3.825-.053 7.74-.303 11.63-.16 1.123 1.97.613 7.675 4.01 7.03.64-2.418 1.808-4.845 1.978-7.458 2.84-.071 5.716.118 8.555-.214.525 2.45 1.382 4.928 1.604 7.484.53.021 1.394.275 2.031.08.879-2.435 1.936-4.98 2.7-7.484 1.66-.143 3.306-.355 4.973-.428.841 2.571 2.892 5.484 2.807 8.58.855.175 1.72.506 2.62.535.786-2.458 3.86-4.992 2.674-8.366 2.475.045 5.062-.865 7.463.135.313 2.52 1.085 5.245.983 7.901 1.198.013 2.42.081 3.63.038.594-2.763 1.763-5.512 1.814-8.43 3.014.23 6.912-.97 9.906.756.339 5.767 1.619 12.005 1.058 17.994-2.527 4.071-3.956 9.065-7.675 12.362 8.473.881 17.451 1.929 26.164 2.722-1.588-4.836-7.262-9.651-7.292-15.576-.007-1.384-.028-2.828.75-4.347.816-4.157 2.056-8.546 2.534-12.91 3.22.382 6.46 1.18 9.735 1.154.202 2.574.807 5.31.624 7.976.89.12 1.886.273 2.817.378.548-1.889.937-4.085 1.74-5.992 2.363-.325 6.263-4.652 9.621-1.323 1.285 3.1-.102 9.706 4.103 9.905 2.406-2.557 2.124-11.926 8.185-8.695.306 2.935 1.495 6.367 1.002 9.602 1.18.485 2.365 1.495 3.724 1.53.677-2.883.087-6.57 2.117-9.015 2.227.296 4.61.273 6.825.907.75 2.805 3.431 5.771 2.46 9.193.642.005 1.41.036 2.098.014 1.552-2.04 1.063-7.198 5.29-6.958 2.75.703 5.422 2.481 8.432 2.155-1.308 5.898-2.03 12.236-4.008 18.07-3.803 3.026-7.074 5.929-10.926 8.695 8.927 1.488 18.7 4.242 28.129 4.687-1.303-2.784-2.815-6.416-4.386-9.375.625-3.665.564-7.38 1.872-10.982 1.232-2.838 1.715-6.105 3.743-8.619 3.594.786 7.316 1.074 10.813 2.363-.318 2.24-.635 4.544-.964 6.786.834.175 1.706.685 2.609.548 1.476-2.236 2.47-5.092 4.593-6.956 3.335 1.087 7.364.533 10.152 3.308-.336 1.867-.45 3.966-1.038 5.767.463.695.68 1.644 1.39 2.085 1.361-1.94 6.095-3.803 5.4-7.698 2.199.97 4.216 2.744 6.79 2.994-1.79 4.87-2.361 11.908-6.095 16.573-3.222 2.245-6.327 6.018-10.586 7.378-2.195 7.056-4.553 12.88-6.684 21.491-3.386 9.862-7.522 20.089-10.426 30.367-.33.488-1.247.993-1.323 1.96-1.504 2.23-4.35 3.759-4.666 6.914-.089 1.58-2.267 5.176-.428 7.592-1.427 4.281-2.807 8.677-4.384 13.151-4.537-.07-9.253-1.023-13.902-.213-46.502.346-96.978.498-145.435.855-31.24-.272-63.41.803-94.443-1.382-3.05-7.907-6.636-17.055-9.83-25.48-1.495-1.547-3.031-2.572-4.235-4.385-.21-2.955-1.107-6.378-.68-9.602-3.72-12.034-8.902-23.736-11.192-36.216-4.336-3.029-8.186-6.091-12.552-8.77-2.257-6.25-6.8-11.791-6.881-19.053 2.272-.35 5.046-1.655 7.864-1.21.929 1.7 2.68 3.58 3.1 5.671 1.158-.634 2.647-.597 3.857-.87z" style="fill:#ffbf00;fill-opacity:1;stroke:#000;stroke-width:1px;stroke-linecap:butt;stroke-linejoin:miter;stroke-opacity:1"/>
    <path style="fill:#000;fill-opacity:1;stroke-width:1" d="M72.785 131.974c0-1.005-1.204-3.357-2.676-5.229-1.472-1.87-2.677-4.586-2.677-6.033 0-3.856-3.746-13.824-5.839-15.538-2.366-1.937-6.476-12.668-5.473-14.29.43-.695-1.695-9.116-4.722-18.714-5.463-17.328-5.545-17.478-11.719-21.392-4.944-3.135-6.831-5.454-9.222-11.33-4.892-12.022-4.897-12.081-1.12-13.802 5.502-2.506 8.51-1.938 9.444 1.783.462 1.84 1.376 3.345 2.033 3.345 1.498 0 1.49-.382-.103-4.571-1.46-3.84-.027-5.101 7.67-6.754 4.013-.861 4.535-.575 6.428 3.521l2.06 4.46-.697-4.298c-.803-4.956-.397-5.34 6.861-6.5l5.382-.861 3.273 10.168c2.879 8.945 3.064 10.664 1.537 14.293-1.717 4.084-1.698 4.118 1.924 3.4 2.012-.398 6.067-1.125 9.01-1.615 7.665-1.275 8.099-1.857 3.889-5.213-3.005-2.396-4.203-5.067-5.95-13.267-1.204-5.646-1.835-10.473-1.402-10.726.433-.253 3.353-.885 6.489-1.404 5.51-.911 5.77-.793 7.749 3.526L96.98 19.4l-.508-4.463c-.424-3.72.027-4.667 2.709-5.687 5.93-2.254 8.24-1.5 9.575 3.126l1.256 4.348.12-4.911c.107-4.321.6-5.016 4.103-5.786 5.072-1.114 6.14-.396 7.416 4.983l1.038 4.376.808-4.637c.658-3.78 1.597-4.862 5.08-5.858 5.627-1.609 8.44-.38 8.44 3.684 0 1.82.69 3.735 1.533 4.256 1.062.656 1.285-.044.725-2.274-1.204-4.795.745-6.759 7.46-7.515l6.034-.68 1.211 12.533c1.114 11.524 1 12.775-1.413 15.538-1.444 1.653-2.303 3.328-1.91 3.721.394.394 5.43.246 11.191-.329l10.476-1.045-4.272-4.86c-4.058-4.616-4.272-5.405-4.272-15.791V1.198l7.018.405c6.593.38 7.07.647 7.871 4.418.825 3.884.858 3.852 1.011-1.003.155-4.89.288-5.018 5.244-5.018 5.886 0 8.225 1.828 8.473 6.623.136 2.652.36 2.368 1.003-1.271.755-4.27 1.27-4.72 5.846-5.098 4.937-.409 5.018-.338 5.018 4.348 0 5.962 2.359 6.297 2.926.416.397-4.112.711-4.349 5.772-4.349 5.09 0 5.388.23 6.061 4.683l.708 4.683.931-4.348c.9-4.206 1.153-4.349 7.656-4.349h6.724v12.504c0 10.804-.364 12.832-2.676 14.925-1.472 1.332-2.677 2.93-2.677 3.553 0 .621 4.285 1.13 9.522 1.13h9.52l-2.41-3.68c-2.446-3.73-2.608-6.721-1.125-20.738.78-7.367.976-7.694 4.61-7.694 7.236 0 10.645 2.199 10.838 6.991l.176 4.382.827-4.683c.729-4.122 1.36-4.734 5.264-5.109 5.617-.539 8.24 1.626 8.414 6.945l.137 4.185 1.046-4.416c1.374-5.803 1.634-5.976 6.897-4.573 4.161 1.109 4.473 1.566 4.194 6.155-.18 2.949.228 4.631 1.004 4.152.717-.444 1.305-2.212 1.305-3.93 0-3.978 3.227-5.214 8.806-3.373 4.082 1.347 4.342 1.786 3.776 6.392-.544 4.424-.457 4.6.819 1.672 2.62-6.012 3.638-6.558 9.683-5.2 3.085.694 5.793 1.443 6.016 1.667.224.223-.597 4.971-1.823 10.551-1.964 8.936-2.79 10.545-6.934 13.492-4.618 3.286-4.645 3.359-1.483 4.031 11.547 2.458 17.737 3.465 18.234 2.968.314-.315-.392-2.437-1.57-4.716-2.005-3.875-1.96-4.748.7-13.506 1.565-5.15 3.258-9.618 3.762-9.93.504-.311 3.82.053 7.369.81 6.19 1.32 6.42 1.533 5.676 5.251-.952 4.76.11 5.067 1.834.531 1.4-3.681 5.229-4.343 11.45-1.979 3.096 1.178 3.483 1.918 2.796 5.352-1.026 5.13.78 5.164 2.71.052 1.439-3.809 1.641-3.886 6.398-2.426 5.52 1.694 5.534 2.009.684 14.777-1.856 4.886-4.15 8.028-7.671 10.507-3.952 2.783-5.636 5.35-7.9 12.042-11.734 34.7-15.49 44.711-17.113 45.62-2.402 1.343-5.22 9.87-4.168 12.61.97 2.525-4.61 15.035-6.738 15.114-.842.03-1.23-1.293-.894-3.049.584-3.057.264-3.145-21.931-6.002-78.29-10.076-131.391-10.138-209.87-.247-20.044 2.527-19.463 2.332-18.046 6.058.98 2.578.823 3.295-.722 3.295-1.086 0-1.974-.822-1.974-1.827zm28.264-12.137c75.816-9.53 140.063-9.127 210.258 1.32 16.219 2.413 18.409 2.417 18.409.036 0-2.7-6.106-4.37-26.764-7.322-37.656-5.38-50.633-6.162-102.37-6.162-51.525 0-62.187.641-101.695 6.112-21.144 2.928-27.44 4.62-27.44 7.372 0 2.435-.877 2.475 29.602-1.356zm230.725-10.455c1.22-4.942-2.349-5.036-4.588-.121-1.294 2.839-1.272 3.774.108 4.627 2.169 1.34 3.322.18 4.48-4.506zm-257.65 3.098c0-3.202-2.817-8.116-4.651-8.116-2.186 0-2.481 1.566-1.197 6.356.778 2.904 5.847 4.43 5.847 1.76zm20.327-2.277c.508-.3.272-2.412-.523-4.694-1.417-4.065-1.583-4.133-8.181-3.351-8.245.976-9.45 2.048-7.645 6.795 1.356 3.566 1.632 3.656 8.413 2.741 3.857-.52 7.427-1.191 7.936-1.491zm228.645-1.341c1.663-4.375 1.48-4.553-6.18-5.984-7.486-1.399-8.611-.857-8.611 4.148 0 4.015 1.43 4.777 9.735 5.184 2.866.141 4.02-.623 5.056-3.348zm-209.153-1.09c.19-.167-.036-2.207-.501-4.532-.764-3.816-1.318-4.226-5.697-4.21-5.944.023-10.873 1.26-10.873 2.727 0 .603.609 2.695 1.352 4.651 1.298 3.413 1.635 3.518 8.364 2.612 3.856-.52 7.166-1.08 7.355-1.248zm189.535-.172c2.107-5.49.992-6.974-5.964-7.93-3.727-.513-6.98-.72-7.23-.46-.25.26-.662 2.248-.918 4.42-.384 3.259.119 4.11 2.88 4.883 5.93 1.66 10.384 1.298 11.232-.913zm-173.369-1.735c.985-.624 1.587-2.571 1.338-4.328-.386-2.733-1.298-3.254-6.32-3.614-6.896-.494-8.843.95-7.657 5.675.736 2.934 1.602 3.44 5.857 3.422 2.746-.01 5.798-.53 6.782-1.155zm154.635-.94c2.126-5.542 1.025-6.89-6.214-7.6-8.431-.829-9.032-.548-9.032 4.22 0 4.988.748 5.495 8.109 5.495 4.532 0 6.554-.6 7.137-2.116zm-134.85-.246c.854-.559 1.218-2.886.844-5.39-.659-4.402-.665-4.406-6.855-3.58-9.023 1.204-9.175 1.309-8.507 5.856.58 3.946.894 4.137 6.812 4.117 3.412-.01 6.88-.463 7.706-1.004zm115.59-3.492c0-3.988-.49-4.614-4.183-5.352-8.992-1.799-10.538-1.248-10.538 3.753 0 4.923 1.085 5.543 10.371 5.932 4.084.171 4.35-.093 4.35-4.333zm-95.012-1.506v-4.683h-8.029c-7.023 0-8.029.322-8.029 2.567 0 5.754 1.36 6.8 8.841 6.8h7.217zm75.464 2.567c2.067-5.385.977-6.883-5.542-7.618-7.674-.865-8.365-.515-8.365 4.238 0 4.923.776 5.496 7.44 5.496 3.922 0 5.904-.648 6.467-2.116zM80.145 99.814c16.378-2.764 44.765-5.724 72.93-7.606 51.258-3.424 141.103 1.367 177.165 9.448 3.587.804 6.737 1.247 7 .984.262-.263.85-2.344 1.307-4.625.781-3.907.53-4.231-4.335-5.584-5.955-1.657-37.482-6.119-58.023-8.213-22.87-2.331-103.362-3.156-131.223-1.344-36.63 2.382-79.474 7.851-84.154 10.743-1.024.633-1 2.153.08 5.253 1.218 3.494 2.088 4.225 4.365 3.67 1.565-.381 8.264-1.608 14.888-2.726zm109.316-1.47-.547-4.684h-14.427v9.366h15.52zm18.48 0V93.66H193.76l.547 4.683c.541 4.64.608 4.683 7.09 4.683h6.545zm19.823.334c-.414-4.3-.506-4.353-8.114-4.75l-7.694-.401v9.5h16.228zm119.476-26.76 6.472-18.398h-3.942c-4.803 0-7.276 4.29-12.617 21.888-3.877 12.775-3.717 16.007.76 15.336 2.367-.355 3.964-3.58 9.327-18.826zM66.742 85.534c-.497-2.261-2.854-9.938-5.237-17.06-3.924-11.725-4.67-12.987-7.9-13.37-2.336-.277-3.57.21-3.57 1.41 0 1.444 6.846 22.98 10 31.46.342.92 2.195 1.672 4.116 1.672 3.204 0 3.42-.34 2.59-4.112zm10.058.931c0-2.635-3.32-5.03-5.705-4.114-3.223 1.236-1.23 5.957 2.515 5.957 1.817 0 3.19-.793 3.19-1.843zm253.926-.497c.799-2.426-3.72-3.775-5.14-1.534-.65 1.027-1.191 2.36-1.202 2.964-.033 1.73 5.73.43 6.342-1.43zm-244.645-.254c1.592-1.008 1.621-1.577.17-3.325-1.771-2.134-5.625-2.813-7.174-1.264-1.218 1.218 1.531 5.85 3.457 5.825.894-.01 2.49-.568 3.547-1.236zm235.377-1.854c.374-1.972-.265-2.358-3.322-2.007-2.387.274-3.958 1.337-4.25 2.876-.374 1.972.265 2.358 3.323 2.007 2.386-.274 3.957-1.337 4.25-2.876zm-223.693-.067c.123-.093.659-8.748 1.191-19.235l.968-19.066H96.54c-3.617 0-25.44 3.922-26.237 4.716-.816.811 13.382 25.683 17.54 30.728 3.075 3.73 4.587 4.595 6.825 3.908 1.58-.485 2.975-.958 3.098-1.05zm213.216.797c0-.573 3.699-6.744 8.219-13.714 4.52-6.97 9.008-14.541 9.972-16.825l1.754-4.152-11.216-2.203c-18.213-3.578-16.758-4.766-16.758 13.685 0 20.67.717 24.251 4.851 24.251 1.748 0 3.178-.469 3.178-1.042zm-203.649-3.975c-.597-5.19-5.602-5.19-6.2 0-.367 3.19.046 3.68 3.1 3.68 3.054 0 3.467-.49 3.1-3.68zm193.244 2.933c1.573-1.573-.73-5.944-3.133-5.944-2.465 0-3.553 3.874-1.628 5.798 1.086 1.086 3.74 1.167 4.761.146zm-182.293-2.49c0-4.121-1.495-5.729-4.75-5.106-3.114.595-4.46 4.04-2.387 6.112 1.686 1.686 7.137.919 7.137-1.005zm172.626-.634c0-2.503-2.441-4.158-6.132-4.158-1.132 0-1.897 1.35-1.897 3.345 0 2.825.624 3.345 4.014 3.345 3.047 0 4.015-.61 4.015-2.532zm-153.647.504c.768-.768-2.216-20.346-4.687-30.753-1.546-6.514-1.727-6.701-6.883-7.122-6.527-.532-8.747 1.977-8.747 9.89 0 4.675 2.851 20.884 4.75 27.003.508 1.637 14.057 2.492 15.567.982zm143.551-7.003c.505-4.232 1.78-11.092 2.83-15.246 2.66-10.502 2.434-14.008-1.061-16.456-3.938-2.758-8.155-2.636-10.824.314-3.584 3.96-9.18 34.126-6.988 37.672.48.775 4.078 1.41 7.998 1.41h7.127zm-134.428 2.248c0-3.494-.45-4.043-3.01-3.68-2.157.307-3.132 1.473-3.435 4.108-.365 3.168.054 3.68 3.01 3.68 2.942 0 3.435-.59 3.435-4.108zm11.138 3.104c1.27-2.157-1.782-7.025-4.404-7.025-2.13 0-2.72.871-2.72 4.014 0 3.364.53 4.014 3.267 4.014 1.797 0 3.532-.451 3.857-1.003zm92.999-2.676c.344-2.423-.216-3.01-2.868-3.01-3.303 0-5.628 3.123-4.129 5.549 1.502 2.43 6.551.598 6.997-2.54zm10.664.837c.434-2.28-3.102-4.395-5.19-3.104-.67.414-1.218 1.963-1.218 3.442 0 2.022.745 2.584 2.997 2.263 1.648-.235 3.183-1.406 3.411-2.6zm72.606.052c1.872-3.497 1.697-3.652-5.667-5.028-5.17-.965-6.279-.772-7.585 1.319-2.333 3.736-1.87 4.932 2.15 5.541 7.928 1.2 9.629.92 11.102-1.832zm-259.225.094c4.199-.03 6.467-1.865 5.48-4.435-.992-2.586-3.278-2.769-10.285-.823-4.506 1.251-4.878 1.679-3.577 4.11.873 1.631 2.256 2.406 3.467 1.941 1.107-.425 3.32-.782 4.915-.793zm94.567.666c0-.38 1.165-6.251 2.59-13.046 1.424-6.794 2.986-15.514 3.47-19.377l.882-7.025-12.504.02c-6.877.011-13.26.501-14.185 1.088-1.275.81.005 5.647 5.31 20.05 6.701 18.193 7.146 18.982 10.714 18.982 2.048 0 3.723-.311 3.723-.692zm10.706-2.746c0-2.8-.56-3.359-3.011-3.01-1.935.274-3.164 1.503-3.439 3.438-.348 2.452.21 3.01 3.011 3.01 2.8 0 3.439-.638 3.439-3.438zm10.036-.576c0-2.45-.806-3.46-3.011-3.772-2.574-.366-3.01.182-3.01 3.772s.436 4.138 3.01 3.773c2.205-.313 3.01-1.323 3.01-3.773zm19.71-13.714c.364-9.751.128-19.16-.524-20.911-1.054-2.83-1.791-3.101-6.668-2.447-3.015.404-6.162 1.413-6.993 2.242-1.578 1.574-3.012 33.407-1.664 36.921.516 1.344 2.916 1.923 7.963 1.923h7.224zm9.382 14.415c.765-4 .175-4.715-3.89-4.715-2.379 0-3.122.744-3.122 3.122 0 3.718.989 4.906 4.081 4.906 1.382 0 2.55-1.32 2.931-3.313zm9.169-.366c-.542-2.024-1.845-3.68-2.896-3.68-1.09 0-2.093 1.581-2.334 3.68-.361 3.138.064 3.68 2.895 3.68 2.967 0 3.214-.39 2.335-3.68zm13.259 1.678c0-1.101 1.196-5.467 2.658-9.7 3.155-9.14 7.952-27.578 7.343-28.225-.236-.25-6.565-.793-14.064-1.206l-13.635-.752.81 3.883c.446 2.135 2.049 10.505 3.562 18.6 3.79 20.267 3.4 19.401 8.732 19.401 3.186 0 4.594-.613 4.594-2.001zm58.88-5.4c0-3.755-.578-4.07-9.702-5.292-6.14-.822-6.356-.735-6.356 2.55 0 3.51 1.174 4.122 10.036 5.227 2.208.276 4.466.592 5.018.702.552.11 1.004-1.324 1.004-3.187zm-186.918.726c1.757-.01 2.316-.853 2.007-3.025-.815-5.74-14.478-4.027-14.478 1.814 0 2.588.515 2.8 5.018 2.055 2.76-.456 6.114-.836 7.453-.844zM68.77 66.979c0-3.036-2.035-4.625-4.643-3.624-2.69 1.032-.919 6.221 2.123 6.221 1.603 0 2.52-.945 2.52-2.597zm85.418.537c.244-.212-.246-1.674-1.088-3.247-1.287-2.404-2.533-2.796-7.803-2.456-5.777.372-6.306.703-6.706 4.192l-.434 3.789 7.794-.946c4.287-.52 7.993-1.119 8.237-1.332zm107.95-1.954c0-3.056-.566-3.38-6.562-3.761-6.806-.432-8.767.793-8.807 5.5-.018 2.089 1.002 2.355 7.674 2.008 7.209-.376 7.695-.613 7.695-3.747zm75.366.321c.498-3.493-3.02-4.213-4.3-.88-1.361 3.548-.922 4.79 1.53 4.323 1.288-.245 2.534-1.795 2.77-3.443zm-262.043.512c0-1.014-.903-2.593-2.007-3.509-2.128-1.766-2.612-.456-1.195 3.236 1 2.603 3.202 2.791 3.202.273zm254.135-1.167c1.442-3.833-.986-4.962-3.443-1.601-2.342 3.202-2.263 4.611.26 4.611 1.128 0 2.56-1.355 3.183-3.01zm-140.39-1.074c0-2.471-.7-2.705-7.012-2.341-5.42.312-7.114.936-7.458 2.746-.381 2.003.632 2.341 7.013 2.341 6.629 0 7.458-.305 7.458-2.746zm37.45 1.074c-.048-3.847-2.332-5.186-8.142-4.77-4.934.353-5.958.91-6.317 3.432-.4 2.813.062 3.01 7.026 3.01 5.081 0 7.446-.532 7.432-1.672zM103.89 59.54c-.352-1.84-.87-3.345-1.153-3.345-.282 0-.513 1.506-.513 3.345 0 1.84.519 3.345 1.153 3.345s.864-1.505.513-3.345zm9.04-1.48c0-2.31-.746-3.203-2.677-3.203-1.912 0-2.676.892-2.676 3.122 0 1.717.36 3.482.8 3.922 1.666 1.666 4.552-.77 4.552-3.842zm187.324 1.146c-.015-2.867-.306-3.237-1.317-1.673-1.692 2.618-1.692 5.352 0 5.352.736 0 1.329-1.655 1.317-3.68zm-5.573-.67c-.335-2.357-1.298-3.01-4.442-3.01-3.145 0-4.108.653-4.443 3.01-.376 2.65.158 3.011 4.443 3.011 4.284 0 4.818-.361 4.442-3.01zm-226.598-.975c1.31-2.118-1.864-6.718-4.634-6.718-3.23 0-4.12 1.441-3.157 5.12.794 3.035 6.216 4.147 7.791 1.598zm74.084.126c2.292-1.453 1.48-6.032-1.151-6.492-3.285-.574-5.29 1.545-4.462 4.714.815 3.116 2.606 3.683 5.613 1.778zm199.544-1.404c1.947-3.636 1.863-3.784-2.684-4.783-6.195-1.36-11.644 4.878-5.632 6.449 4.855 1.269 6.973.844 8.316-1.666zM149.45 54.858c-.385-1.472-.93-2.676-1.213-2.676-.282 0-.513 1.204-.513 2.676 0 1.472.546 2.676 1.213 2.676s.898-1.204.513-2.676zm30.39-1.338c0-2.207-.533-4.014-1.186-4.014-.652 0-1.451 1.807-1.775 4.014-.402 2.74-.026 4.014 1.186 4.014 1.08 0 1.776-1.57 1.776-4.014zm9.122-.346c.34-2.952-.116-3.668-2.342-3.668-2.195 0-2.765.848-2.765 4.112 0 3.194.523 4.013 2.342 3.668 1.412-.267 2.51-1.9 2.765-4.112zm64.812.983c.888-4.642-1.37-5.616-3.012-1.3-1.713 4.505-1.694 4.677.515 4.677 1.018 0 2.142-1.52 2.497-3.377zm10.372.188c0-3.699-4.718-5.745-5.935-2.574-1.536 4-.743 5.763 2.59 5.763 2.632 0 3.345-.68 3.345-3.189zm-44.83-1.494c0-1.924-1.032-2.795-3.68-3.1-3.19-.366-3.68.047-3.68 3.1 0 3.054.49 3.467 3.68 3.1 2.648-.305 3.68-1.175 3.68-3.1zm4.26.418c-.427-1.067-.744-.75-.808.809-.058 1.41.258 2.2.703 1.756.444-.445.492-1.599.105-2.565zm75.668-5.018c-.46-4.125-.379-4.06-6.161-4.998-4.688-.76-4.85-.65-4.85 3.304 0 4.346 1.865 5.545 8.03 5.163 2.708-.167 3.276-.828 2.981-3.47zm-241.847.78c5.402-1.422 6.605-2.255 6.244-4.323-.725-4.16-1.867-4.474-9.264-2.54-9.33 2.44-9.999 2.929-8.311 6.081 1.632 3.05 2.492 3.11 11.33.782zm56.304-2.395 2.176-4.208-4.316.863c-2.374.475-5.446.863-6.826.863-1.784 0-2.509.967-2.509 3.345 0 2.926.582 3.345 4.65 3.345 3.86 0 5.018-.714 6.825-4.208zm242.609 2.29c2.04-1.056 4.464-2.827 5.385-3.936 1.424-1.716.909-2.221-3.443-3.38-2.814-.748-7.663-1.762-10.774-2.25-5.266-.829-5.752-.641-7.026 2.708-2.062 5.424-1.864 5.707 4.989 7.135 3.496.729 6.536 1.396 6.757 1.483.22.087 2.07-.705 4.112-1.76zm-314.29-1.412c-.91-1.096-2.252-1.623-2.983-1.17-.808.498-.617 1.272.486 1.971 2.887 1.829 4.303 1.374 2.497-.801zm101.266-.166c2.546-.682 2.733-1.196 1.458-3.996-1.002-2.198-2.558-3.205-4.93-3.191-5.484.032-7.371 1.783-5.563 5.161 1.555 2.905 3.844 3.418 9.035 2.026zm124.213-3.202c2.987-3.3 2.831-3.445-4.942-4.573-5.421-.786-6.465-.55-7.694 1.748-1.89 3.53-1.82 3.871.92 4.587 5.328 1.392 9.418.777 11.716-1.762zm69.507-2.194c1.003-3.993-.745-5.773-5.702-5.805l-3.097-.02 2.978 5.297c3.266 5.81 4.468 5.919 5.821.528zM69.242 39.018c-2.856-.64-3.538.46-2.437 3.929l.954 3.008 1.751-3.242c1.49-2.76 1.45-3.309-.268-3.695zm121.575 2.452 2.28-4.006h-6.486c-4.68 0-6.711.59-7.297 2.117-1.788 4.658-.895 5.911 4.206 5.903 4.169-.007 5.403-.686 7.297-4.014zm31.844 3.44c0-.32-.587-2.126-1.305-4.014-.925-2.433-2.288-3.432-4.683-3.432-2.862 0-3.379.614-3.379 4.014 0 3.696.372 4.014 4.684 4.014 2.576 0 4.683-.262 4.683-.582zM48.456 40.155c.235-.008.235-1.37 0-3.025-.52-3.664-4.157-4.4-11.705-2.368l-5.463 1.471 2.015 3.896 2.015 3.897 6.355-1.929c3.496-1.06 6.548-1.934 6.783-1.942zm63.638-.035c4.576-.033 6.59-1.963 5.53-5.302-.881-2.774-1.471-2.917-8.507-2.06-8.848 1.077-9.756 1.692-8.666 5.862.692 2.643 1.423 2.995 4.807 2.319 2.196-.44 5.272-.808 6.836-.82zm-16.293-4.262c-.754-.754-2.063-.945-2.907-.423-1.062.656-.789 1.498.887 2.733 2.659 1.96 4.353.022 2.02-2.31zm203.859 1.44c1.14-3.594-.53-4.632-9.083-5.645-7.912-.937-9.036-.464-9.036 3.798 0 2.587.814 3.283 4.35 3.721 10.764 1.336 12.84 1.053 13.769-1.875zm67.992.878c.926-2.412.039-2.985-8.607-5.552-7.555-2.243-7.471-2.257-8.126 1.403-.368 2.063.751 2.912 5.56 4.217 8.24 2.235 10.294 2.222 11.173-.068zM62.65 37.036c8.53-1.773 9.823-3.01 7.074-6.77-1.603-2.19-2.505-2.26-10.055-.775-8.2 1.613-9.24 2.613-7.482 7.195.95 2.473.351 2.453 10.463.35zm77.505-.903c.621-.583.904-2.178.63-3.544-.427-2.12-1.727-2.464-8.89-2.35-9.39.149-11.215 1.182-10.037 5.686.77 2.946 1.21 3.052 8.99 2.183 4.498-.503 8.686-1.392 9.307-1.975zm167.403.62c1.429-1.08 2.23-1.965 1.782-1.965-.448 0-1.689-.335-2.756-.745-1.213-.465-2.21.288-2.66 2.007-.845 3.228.063 3.403 3.634.703zm-30.646-2.132c1.013-3.192-1.08-5.132-5.573-5.164-1.564-.011-4.726-.397-7.026-.857-3.953-.79-4.182-.613-4.182 3.247 0 4.531 1.282 5.212 10.281 5.462 4.605.128 5.757-.349 6.5-2.688zm69.937-2.103c.33-2.23-.696-3.006-5.611-4.243-8.565-2.157-11.106-1.908-11.91 1.167-.543 2.074.104 2.863 2.855 3.484 1.955.44 5.362 1.284 7.57 1.874 5.299 1.414 6.61.993 7.096-2.282zM150.4 29.228c0-1.52-5-1.447-5.948.087-.414.67-.375 2.201.087 3.403.77 2.008 1.042 2.001 3.35-.086 1.38-1.25 2.51-2.781 2.51-3.403zm27.608 1.1c-.449-1.787-1.992-3.556-3.43-3.931-4.207-1.1-4.405.574-.542 4.605 4.066 4.244 5.16 4.058 3.972-.675zm20.316.123c-.482-4.99-2.399-5.738-11.282-4.406-4.948.742-5.864 1.354-5.864 3.92 0 4.376.896 4.823 9.675 4.823h7.89zm21.411-.011-.42-4.349h-16.058l-.419 4.349-.419 4.348h17.736zm36.38 1.094c0-2.12-.968-3.563-2.776-4.137-3.984-1.264-4.542.018-1.704 3.913 3.128 4.293 4.48 4.36 4.48.224zm-218.582-.09c.797-2.564-1.645-4.583-4.607-3.808-1.78.465-2.963 1.816-2.963 3.383 0 2.042.778 2.517 3.577 2.186 1.967-.233 3.764-1.026 3.993-1.762zM370.409 27.9c-.388-.627-1.874-1.14-3.303-1.14-2.93 0-3.689 4.72-.925 5.755 1.936.725 5.275-2.92 4.228-4.615zM99.48 30.664c6.41-1.375 6.71-1.63 5.899-5.018-.47-1.963-1.035-3.783-1.254-4.044-.656-.783-15.992 1.267-17.79 2.377-1.054.652-1.336 2.329-.77 4.58 1.018 4.058 3.238 4.394 13.915 2.105zm129.202-1.228c2.351-2.597 2.337-2.676-.462-2.676-1.586 0-2.883.252-2.883.56 0 .308-.366 1.512-.813 2.676-1.136 2.962 1.263 2.639 4.158-.56zm86.219-3.452c.052-.794-4.098-2.344-9.22-3.444-9.957-2.137-10.759-1.822-10.759 4.233 0 2.015 1.42 2.63 7.695 3.338 4.232.478 8.296 1.031 9.032 1.23 1.317.357 3.068-2.527 3.252-5.357zm-262.435-.227c-.354-3.069-.98-3.605-3.77-3.23-4.337.584-5.643 1.917-4.584 4.678.533 1.387 2.354 2.231 4.817 2.231 3.53 0 3.914-.399 3.537-3.68zm68.952 1.64c7.233-.903 7.57-1.117 7.57-4.805 0-4.304-1.709-4.675-13.865-3.009-5.64.773-6.208 1.18-6.208 4.46 0 4.088 1.156 5.75 3.4 4.888.843-.323 4.94-1.013 9.103-1.534zm236.968-.192c1.097-2.857-.305-4.205-5.44-5.232-3.453-.69-4.239-.358-4.872 2.063-.556 2.125.012 3.196 2.152 4.059 4.542 1.83 7.23 1.537 8.16-.89zm-67.478-2.978c0-4.437-.842-4.906-11.103-6.188-7.345-.917-7.527-.86-8.408 2.652-1.112 4.428.122 5.723 6.129 6.429 12.503 1.469 13.382 1.279 13.382-2.893zM66.132 25.402c3.626-1.94 1.808-5.332-2.857-5.332-2.862 0-3.872.64-3.872 2.453 0 4.29 2.273 5.263 6.73 2.879zm81.345-1.303c4.05-.013 4.401-.337 4.015-3.694-.42-3.649-.497-3.676-9.122-3.217-4.784.255-9.069.692-9.522.972-.453.28-.521 2.093-.15 4.03.616 3.225 1.082 3.455 5.507 2.723 2.659-.44 6.832-.806 9.272-.814zm119.344-3.36c0-4.03-.44-4.683-3.158-4.683-1.738 0-5.953-.383-9.368-.85l-6.208-.852v4.17c0 4.374.783 4.842 10.036 5.996 8.87 1.107 8.698 1.182 8.698-3.78zm74.905 2.07c1.24-2.318.851-2.715-3.445-3.521-3.459-.649-5.178-.38-6.015.94-1.717 2.71-1.485 3.589 1.13 4.272 4.864 1.27 6.974.842 8.33-1.69zm-158.206-.906c2.24-.6 3.01-1.795 3.01-4.665 0-3.817-.083-3.858-7.92-3.858-4.355 0-8.871.366-10.036.812-2.104.808-2.928 5.959-1.224 7.662 1.107 1.107 12.098 1.14 16.17.049zm49.847-2.996c0-3.397-.578-3.934-5.018-4.668-2.76-.456-7.277-.836-10.037-.844-4.664-.014-5.018.263-5.018 3.918 0 4.213 1.064 4.581 15.055 5.208 4.685.21 5.018-.03 5.018-3.614zm-143.52 1.658c1.815-.487 3.01-1.842 3.01-3.412 0-2.132-.787-2.528-4.348-2.185-3.334.321-4.45 1.122-4.777 3.43-.448 3.15.797 3.592 6.115 2.167zm119.433-3.17V13.38h-18.735v8.028h18.735zm107.054.824c0-2.415-.891-3.36-3.672-3.89-4.476-.856-5.695-.207-5.695 3.033 0 2.713 1.718 3.778 6.356 3.94 2.31.082 3.011-.636 3.011-3.083zm-210.336-3.166c.31-2.181-.243-3.005-2.007-2.99-3.82.032-5.961 1.966-4.986 4.505 1.285 3.351 6.461 2.23 6.993-1.515zm194.278.477c0-3.097-2.197-4.826-6.131-4.826-2.365 0-2.56 6.2-.225 7.142 4.108 1.658 6.356.839 6.356-2.316zm-181.316.514c1.461-2.365-.762-6.678-3.443-6.678-1.818 0-2.587.928-2.587 3.122 0 1.717.402 3.523.893 4.014 1.331 1.332 4.188 1.077 5.137-.458zm16.504-2.003c.253-.253.063-1.709-.422-3.236-1.044-3.292-7.062-3.854-8.246-.77-1.495 3.897.597 6.376 4.544 5.385 2.016-.506 3.872-1.126 4.124-1.379zm150.555-.948c.774-2.96-1.245-5.402-3.809-4.606-.736.23-1.528 2.026-1.761 3.993-.332 2.798.144 3.576 2.186 3.576 1.567 0 2.918-1.182 3.384-2.963zm-135.62-3.058c0-2.81-.63-3.345-3.935-3.345-4.409 0-5.835 1.407-4.624 4.562.486 1.267 2.384 2.128 4.688 2.128 3.237 0 3.872-.548 3.872-3.345zm107.72.681c1.197-3.771-.216-5.364-4.758-5.364-3.27 0-3.936.547-3.936 3.234 0 5.023 7.215 6.791 8.694 2.13zm15.393-.766c0-3.063-.464-3.385-4.349-3.01-3.333.321-4.449 1.122-4.777 3.43-.374 2.64.161 3.01 4.35 3.01 4.234 0 4.776-.39 4.776-3.43zm-97.907-1.06c.672-3.544-1.703-5.355-5.704-4.351-2.57.645-3.443 1.727-3.443 4.268 0 3.034.473 3.359 4.338 2.985 2.962-.286 4.487-1.206 4.809-2.903zm57.762-.05c0-3.263-2.203-4.826-6.8-4.826-1.798 0-2.567.936-2.567 3.122 0 4.052.97 4.906 5.575 4.906 3.107 0 3.792-.578 3.792-3.202zM190.545 7.36c0-2.825-.625-3.345-4.015-3.345-3.39 0-4.014.52-4.014 3.345s.624 3.345 4.014 3.345 4.015-.52 4.015-3.345zm12.044 0c0-2.453-.714-3.345-2.677-3.345-1.962 0-2.676.892-2.676 3.345 0 2.453.714 3.345 2.676 3.345 1.963 0 2.677-.892 2.677-3.345zm14.72 0c0-2.676-.67-3.345-3.346-3.345s-3.345.669-3.345 3.345.669 3.345 3.345 3.345c2.677 0 3.346-.67 3.346-3.345zM116.276 132.366c21.946-3.672 99.6-5.116 137.164-2.551 42.537 2.905 30.516 3.692-56.204 3.682-51.509-.007-84.892-.473-80.96-1.13z"/>
    <path style="fill:#15b0ef;fill-opacity:1;stroke:#000;stroke-width:2.98619;stroke-miterlimit:4;stroke-dasharray:none;stroke-opacity:1" d="m1.493 131.849 397.014-.012c-.015 275.255-.02 279.315-.02 279.327 1.019 279.943-396.987 279.949-396.99 0z"/>
    <path style="fill:none;stroke:#000;stroke-width:1px;stroke-linecap:butt;stroke-linejoin:miter;stroke-opacity:1" d="M245.59 270.002c4.006 13.48 12.379 23.672 21.04 33.36M243.928 271.006c2.338 10.77 8.95 22.556 18.235 35.064"/>
    <path style="fill:none;stroke:#000;stroke-width:.695184;stroke-linecap:butt;stroke-linejoin:miter;stroke-miterlimit:4;stroke-dasharray:none;stroke-opacity:1" d="M42.194 282.475c11.482-6.36 21.076-14.85 29.174-24.414"/>
    <path style="fill:none;stroke:#000;stroke-width:.893;stroke-linecap:butt;stroke-linejoin:miter;stroke-miterlimit:4;stroke-dasharray:none;stroke-opacity:1" d="M136.132 348.966c-8.364 5.795-17.508 11.171-34.91 12.115"/>
    <path style="fill:none;stroke:#000;stroke-width:.893;stroke-linecap:butt;stroke-linejoin:miter;stroke-miterlimit:4;stroke-dasharray:none;stroke-opacity:1" d="M135.95 348.874c-5.565 5.316-13.864 12.704-21.58 15.074"/>
    <path style="fill:none;stroke:#000;stroke-width:.993121px;stroke-linecap:butt;stroke-linejoin:miter;stroke-opacity:1" d="M238.864 217.833c5.038 10.143 15.37 22.061 28.072 29.087"/>
    <path style="fill:none;stroke:#000;stroke-width:.993121px;stroke-linecap:butt;stroke-linejoin:miter;stroke-opacity:1" d="M232.517 252.974c29.56-.801 50.1-30.28 54.585-41.984"/>
    <path style="fill:none;stroke:#000;stroke-width:.993121px;stroke-linecap:butt;stroke-linejoin:miter;stroke-opacity:1" d="M289.162 214.741c-6.38 18.155-32.458 40.604-52.293 44.707M218.735 186.576c-24.338 20.243-49.18 41.18-69.2 48.893"/>
    <path style="fill:none;stroke:#000;stroke-width:.893808;stroke-linecap:butt;stroke-linejoin:miter;stroke-miterlimit:4;stroke-dasharray:none;stroke-opacity:1" d="m177.025 372.224-25.87-157.385M149.31 220.539l22.32 151.64"/>
    <path style="fill:url(#d);fill-opacity:1;stroke:#000;stroke-width:.993121px;stroke-linecap:butt;stroke-linejoin:miter;stroke-opacity:1" d="M16.133 301.463c.128-.523 2.051-2.027 2.051-2.027 16.566 8.9 25.294 19.4 41.964 28.968l-6.155 1.831c-15.661-10.184-25.91-18.362-37.86-28.772Z"/>
    <path style="fill:url(#e);fill-opacity:1;stroke:#000;stroke-width:.993121px;stroke-linecap:butt;stroke-linejoin:miter;stroke-opacity:1" d="M103.174 361.197c-19.049-6.695-32.747-23.823-39.037-29.986l-5.803 3.976c7.855 12.854 23.714 26.75 39.352 32.552 2.736-2.265 3.688-4.276 5.488-6.542z"/>
    <path style="fill:url(#f);fill-opacity:1;stroke:#000;stroke-width:.993121px;stroke-linecap:butt;stroke-linejoin:miter;stroke-opacity:1" d="m50.808 330.656 39.534.555c-.36 5.224-13.487 9.131-24.21 9.247-13.129.14-15.46-9.78-15.324-9.802z"/>
    <path style="fill:#ececec;stroke:#000;stroke-width:1.09516px;stroke-linecap:butt;stroke-linejoin:miter;stroke-opacity:1" d="M104.153 328.934c6.062.14 5.843 3.794.204 3.66l-53.477-1.268c-7.45-.176-10.29-3.86-4.096-3.717z"/>
    <path style="fill:url(#g);fill-opacity:1;stroke:#000;stroke-width:.794496;stroke-linecap:butt;stroke-linejoin:miter;stroke-miterlimit:4;stroke-dasharray:none;stroke-opacity:1" d="M109.196 357.765c1.297-9.848 7.296-13.335 19.491-13.078 20.416.43 29.793 2.616 50.651 11.77-4.966-9.24-34.335-36.26-13.72-70.23l-51.677 9.416c-11.743 10.956-27.248 35.065-4.745 62.122z"/>
    <path style="fill:none;stroke:#000;stroke-width:.595872;stroke-linecap:butt;stroke-linejoin:miter;stroke-miterlimit:4;stroke-dasharray:none;stroke-opacity:1" d="M114.1 295.715c-15.135 19.44-12.63 48.409-4.536 61.574"/>
    <path style="fill:none;stroke:#000;stroke-width:.695184;stroke-linecap:butt;stroke-linejoin:miter;stroke-miterlimit:4;stroke-dasharray:none;stroke-opacity:1" d="M42.104 275.724c31.24-17.358 68.291-43.345 98.29-68.433"/>
    <path style="fill:url(#h);fill-opacity:1;stroke:#000;stroke-width:.794496;stroke-linecap:butt;stroke-linejoin:miter;stroke-miterlimit:4;stroke-dasharray:none;stroke-opacity:1" d="M127.278 248.334c.504-3.825 2.934-9.316 9.201-10.182 8.726-1.205 11.212 4.85 17.224 4.664-3.932-3.9-9.052-15.629-.82-28.943l-22.077 5.933c-6.91 2.712-11.348 22.347-3.528 28.528z"/>
    <path style="fill:url(#i);fill-opacity:1;stroke:#000;stroke-width:.794;stroke-linecap:butt;stroke-linejoin:miter;stroke-miterlimit:4;stroke-dasharray:none;stroke-opacity:1;marker-end:none" d="M120.384 292.75c.664-5.044 4.319-13.385 12.613-14.281 10.192-1.102 15.622.784 25.944 6.028-3.632-6.12-15.048-20.977-4.67-39.024l-30.55 6.118c-4.927 6.259-16.042 27.763-3.337 41.16z"/>
    <path style="fill:none;stroke:#000;stroke-width:.695184;stroke-linecap:butt;stroke-linejoin:miter;stroke-miterlimit:4;stroke-dasharray:none;stroke-opacity:1" d="M85.002 249.025c13.728-3.83 28.304-10.59 40.43-22.152"/>
    <path style="fill:none;stroke:#000;stroke-width:.595872;stroke-linecap:butt;stroke-linejoin:miter;stroke-miterlimit:4;stroke-dasharray:none;stroke-opacity:1" d="M123.505 234.687c-6.086 8.778-71.708 52.598-81.038 53.891"/>
    <path style="fill:none;stroke:#000;stroke-width:.993121px;stroke-linecap:butt;stroke-linejoin:miter;stroke-opacity:1" d="m242.128 325.662-.77-51.233M242.4 272.857l2.992 51.88"/>
    <path style="fill:url(#j);fill-opacity:1;stroke:#000;stroke-width:.794496;stroke-linecap:butt;stroke-linejoin:miter;stroke-miterlimit:4;stroke-dasharray:none;stroke-opacity:1" d="M116.365 211.776c6.382-1.997 8.903-1.27 12.649-1.249 7.559.043 7.133-4.639 16.094-2.08l-.317-5.457c-4.092-1.66-8.354-.658-12.196 1.665-6.702 4.053-11.538 1.163-16.23 7.12z"/>
    <path style="fill:#ececec;stroke:#000;stroke-width:.724;stroke-linecap:butt;stroke-linejoin:miter;stroke-miterlimit:4;stroke-dasharray:none;stroke-opacity:1" d="M121.143 250.574c-3.947.71-3.552 3.365.103 2.61l34.372-7.104c1.967-.406 5.577-3.842 1.581-3.01l-36.056 7.504z"/>
    <path style="fill:#ececec;stroke:#000;stroke-width:.7;stroke-linecap:butt;stroke-linejoin:miter;stroke-miterlimit:4;stroke-dasharray:none;stroke-opacity:1" d="M128.577 218.059c-3.947.71-3.204 3.689.42 2.794l22.223-5.485c2.227-.55 5.357-4.38 1.4-3.38z"/>
    <path style="fill:#ececec;stroke:#000;stroke-width:.794496;stroke-linecap:butt;stroke-linejoin:miter;stroke-miterlimit:4;stroke-dasharray:none;stroke-opacity:1" d="M138.998 372.927c-.134 4.236 5.667 2.137 5.692.082l2.088-171.031-2.3-1.964-5.48 172.913z"/>
    <path style="fill:#ececec;stroke:#000;stroke-width:1.20718px;stroke-linecap:butt;stroke-linejoin:miter;stroke-opacity:1" d="M138.626 348.007c-3.121-.287-2.74 5.967-.601 6.487 2.693.654 6.677.468 9.476-.433 1.433-.461 1.978-6.502-.652-6.3-3.11.237-5.67.481-8.223.246z"/>
    <path style="fill:#ececec;stroke:#000;stroke-width:1.98624;stroke-linecap:butt;stroke-linejoin:miter;stroke-miterlimit:4;stroke-dasharray:none;stroke-opacity:1" d="M321.801 416.41c1.411-18.542 16.414-41.383 19.731-46.11 2.029-2.891 6.072-2.467 9.231-1.985 4.778.728.167 8.083-3.15 7.6-2.27-.33-4.808.472-6.11 3.203-2.82 5.917-5.28 8.95-6.96 14.053 9.213 4.17 1.895 21.462-.116 26.535l-5.897-1.592c-.231-2.057 4.057-13.748 2.495-14.324-1.367-.505-3.245 8.881-4.262 14.22z"/>
    <path style="fill:url(#k);fill-opacity:1;stroke:#000;stroke-width:.993121px;stroke-linecap:butt;stroke-linejoin:miter;stroke-opacity:1" d="M241.675 363.578c.453 0 5.168-.278 5.168-.278l-.635-39.303c-4.033-1.282-7.839 2.324-6.71 7.676l2.63 1.017z"/>
    <path style="fill:url(#l);fill-opacity:1;stroke:#000;stroke-width:.993121px;stroke-linecap:butt;stroke-linejoin:miter;stroke-opacity:1" d="M360.464 322.323c8.338-.922 9.224-7.092 14.426-7.193 6.009-.117 7.29 6.057 11.22 5.166 3.746-.85 6.334-2.362 9.554.915-.062-12.3-2.194-15.12-6.54-18.898-4.372-3.489-1.885-11.494-11.733-11.901-19.96-.826-17.846 22.557-16.927 31.91z"/>
    <path style="fill:#f2f2f2;fill-opacity:1;stroke:#000;stroke-width:1.2;stroke-linecap:butt;stroke-linejoin:miter;stroke-miterlimit:4;stroke-dasharray:none;stroke-opacity:1" d="M202.861 605.75c38.432.57 59.808-16.194 93.898-10.354-59.772 33.47-136.506 31.674-191.875 1.141 48.723-5.737 48.106 8.473 97.977 9.213z"/>
    <path style="fill:#ececec;stroke:#000;stroke-width:.993121px;stroke-linecap:butt;stroke-linejoin:miter;stroke-opacity:1" d="M325.265 402.591c-1.44 3.901-2.537 9.533-2.34 13.307-7.065 1.009-10.983-2.877-11.54-5.656 6.163 1.561 12.939-4.77 13.88-7.65z"/>
    <path style="fill:#f2f2f2;fill-opacity:1;stroke:#000;stroke-width:1.2;stroke-linecap:butt;stroke-linejoin:miter;stroke-miterlimit:4;stroke-dasharray:none;stroke-opacity:1" d="M203.045 480.86c32.95-.76 42.866-11.953 77.332-12.18 38.964-.258 48.394 24.867 106.708 16.116-2.693 11.07-8.802 24.837-12.682 31.955-51.151 4.55-55.563-18.014-95.83-17.93-38.383.082-39.228 13.217-78.786 12.941-39.56-.276-46.456-11.232-86.576-11.3-42.013-.07-52.364 19.003-87.785 15.241-4.183-7.662-9.614-19.04-12.987-33.058 44.01 9.074 63.565-12.632 103.449-13.084 44.402-.5 40.154 12.384 87.157 11.299zM199.915 544.49c32.95-.761 36.931-11.54 71.397-11.767 26.395-.174 46.72 14.502 80.893 18.05-7.024 9.037-20.048 21.61-26.795 26.351-18.687-6.627-31.855-12.849-52.467-13-38.382-.28-38.203 11.93-73.335 12.374-34.871.442-49.407-12.338-89.527-12.406-16.482-.027-28.884 3.446-41.417 7.406-9.6-8.462-18.266-17.51-23.032-24.573 19.478-8.716 42.958-14.632 59.302-15.038 44.391-1.104 47.978 13.688 94.981 12.603z"/>
    <path style="fill:#e6e6e6;stroke:#000;stroke-width:.993121px;stroke-linecap:butt;stroke-linejoin:miter;stroke-opacity:1" d="M354.653 322.24c-4.825 1.588-2.202 7.205 2.131 6.381 2.67-.508 4.99-3.492 2.856-6.15 2.316-14.214 9.758-32.55 16.707-47.59-6.467-.34-2.471.257-4.738-.082-6 17.24-13.388 35.14-16.956 47.441z"/>
    <path style="fill:url(#m);fill-opacity:1;stroke:#000;stroke-width:.993121px;stroke-linecap:butt;stroke-linejoin:miter;stroke-opacity:1" d="M373.377 273.874c.458-.756.833-1.861.725-2.728-2.902-2.946 1.16-8.894 4.942-6.473 5.648 3.615-1.997 7.719-3.083 11.051-8.266-.62-6.664 5.306-1.995 6.242 2.042.41 1.295 4.419-1.45 3.514-5.208-1.715-9.13 5.328-1.836 5.734-.636 1.95-2.776 3.261-3.151 4.277-.748 2.027-1.076 3.46-1.134 6.358-.048 2.39-1.762 2.817-3.752 3.416-3.872 1.165-7.942 6.074-1.733 7.866 1.71.494.944 3.33-.816 2.913-6.4-1.514-7.082 9.442-7.232 15.375l-20.514 3.421c-17.394-19.539-4.477-67.078 41.03-60.966z"/>
    <path style="fill:#ececec;fill-opacity:1;stroke:#000;stroke-width:.993121px;stroke-linecap:butt;stroke-linejoin:miter;stroke-opacity:1" d="M395.664 320.884c-3.665-14.109-7.818-9.312-11.477-16.544-3.83-7.569-9.166-7.575-13.34-4.745-3.538 2.398-4.714 4.976-6.946 5.398-.345 1.42-.712 2.885-1.1 4.392 3.492 1.42 7.923-2.776 12.795-2.364 6.525.553 3.856 4.004 8.912 6.278 3.294 1.482 5.915.272 11.156 7.585z"/>
    <path style="fill:#e6e6e6;stroke:#000;stroke-width:.993121px;stroke-linecap:butt;stroke-linejoin:miter;stroke-opacity:1" d="M345.54 303.93c4.78-3.275 13.75-2.965 20.72-1.78.138-1.768.3-5.52 1.835-7.445-4.63-2.327-17.2-1.28-22.192.44 1.236-8.872 7.39-16.444 13.242-21.36-5.53 1.152-11.231 2.893-14.031 4.568-3.754 4.128-6.225 12.35-6.238 19.01-5.58 1.66-10.79 5.268-13.29 8.642-.38 3.304-.878 7.19-.553 10.238 4.238-4.844 7.654-6.853 11.576-8.568-2.766 8.717-1.608 22.09.658 25.408l10.087-1.734c-4.912-7.683-4.175-18.912-1.813-27.42z"/>
    <path style="fill:url(#n);fill-opacity:1;stroke:#000;stroke-width:.993121px;stroke-linecap:butt;stroke-linejoin:miter;stroke-opacity:1" d="M191.805 276.649c-.37-5.31 3.16-11.4 7.798-13.78 11.838-6.071 30.738-1.17 42.978 2.682-17.939-19.71-11.36-33.64-5.803-46.7l-44.43 13.593c-11.121 14.746-13.304 33.937-.543 44.205z"/>
    <path style="fill:url(#o);fill-opacity:1;stroke:#000;stroke-width:.998421px;stroke-linecap:butt;stroke-linejoin:miter;stroke-opacity:1" d="M202.977 226.2c1.36-5.991 6.372-9.157 10.77-10.033 14.865-2.961 16.62.25 24.747-1.849-2.583-6.097-4.522-15.999-2.658-22.468l-35.655 10.263c-2.783 4.577-5.997 21.23 2.796 24.086z"/>
    <path style="fill:#d9d9d9;fill-opacity:1;stroke:#000;stroke-width:.794496;stroke-linecap:square;stroke-linejoin:miter;stroke-miterlimit:4;stroke-dasharray:none;stroke-opacity:1" d="M148.407 199.34a2.981 2.845 0 1 1-5.963 0 2.981 2.845 0 1 1 5.963 0z"/>
    <path style="fill:url(#p);fill-opacity:1;stroke:#000;stroke-width:.993121px;stroke-linecap:butt;stroke-linejoin:miter;stroke-opacity:1" d="m245.211 269.25-62.746 12.947c-24.789 35.392-8.2 72.22 3.537 82.49.54-8.035 1.155-19.594 18.588-24.784 22.067-6.568 35.705 7.884 48.238 20.16-20.581-25.19-17.36-44.034-17.668-52.331-.303-8.164 1.984-24.666 10.051-38.481z"/>
    <path style="fill:url(#q);fill-opacity:1;stroke:#000;stroke-width:.993121px;stroke-linecap:butt;stroke-linejoin:miter;stroke-opacity:1" d="M268.605 272.487c2.855-4.688 4.807-10.284 15.414-13.409 7.106-2.093 21.49-.863 27.202 2.59-12.819-13.14-9.843-24.714-5.888-33.618l-36.728 11.515c-9.612 13.282-7.914 28.1 0 32.922z"/>
    <path style="fill:#ececec;stroke:#000;stroke-width:.7;stroke-linecap:butt;stroke-linejoin:miter;stroke-miterlimit:4;stroke-dasharray:none;stroke-opacity:1" d="M267.758 237.126c-5.837 1.958-4.639 4.888.716 3.092l37.357-12.53c3.503-1.175 2.971-4.333-1.387-2.87z"/>
    <path style="fill:none;stroke:#000;stroke-width:.695184;stroke-linecap:butt;stroke-linejoin:miter;stroke-miterlimit:4;stroke-dasharray:none;stroke-opacity:1" d="M191.6 276.186c-6.24-11.858-3.857-35.192-.589-41.846"/>
    <path style="fill:none;stroke:#000;stroke-width:.993121px;stroke-linecap:butt;stroke-linejoin:miter;stroke-opacity:1" d="M182.759 282.171c-5.895 20.994-10.04 53.014 2.973 81.887"/>
    <path style="fill:#ececec;stroke:#000;stroke-width:.8;stroke-linecap:butt;stroke-linejoin:miter;stroke-miterlimit:4;stroke-dasharray:none;stroke-opacity:1" d="M183.267 279.359c-9.34 1.963-7.715 5.215 1.133 3.338l60.13-12.75c6.35-1.348 7.285-5.172-.16-3.607z"/>
    <path style="fill:none;stroke:#000;stroke-width:.595872;stroke-linecap:butt;stroke-linejoin:miter;stroke-miterlimit:4;stroke-dasharray:none;stroke-opacity:1" d="M121.425 288.924c-4.21-7.027-4.077-19.668-2.687-28.92M126.453 224.195c-2.31 8.103-.156 16.037 2.54 18.954"/>
    <path style="fill:none;stroke:#000;stroke-width:.993121px;stroke-linecap:butt;stroke-linejoin:miter;stroke-opacity:1" d="M268.33 271.71c-3.438-6.124-3.608-20.236-.496-31.012"/>
    <path style="fill:url(#r);fill-opacity:1;stroke:#000;stroke-width:.8;stroke-linecap:butt;stroke-linejoin:miter;stroke-miterlimit:4;stroke-dasharray:none;stroke-opacity:1" d="M202.035 184.674c4.797.698 6.2-1.719 7.245-2.42 1.913-1.283 4.328-2.215 9.233-.915l.064 5.689c-8.25-2.158-7.367 3.325-13.977 2.158-4.25-1.13-6.851-1.832-13.913.588 1.289-2.728 5.766-5.913 11.348-5.1z"/>
    <path style="fill:url(#s);fill-opacity:1;stroke:#000;stroke-width:.8;stroke-linecap:butt;stroke-linejoin:miter;stroke-miterlimit:4;stroke-dasharray:none;stroke-opacity:1" d="M266.156 207.29c8.75.694 8.194-2.524 12.377-1.572 4.061.925 6.572-1.007 10.337.047.189 1.9.045 5.872.045 5.872-2.015-.726-3.482-2.008-6.437-.74-4.067 1.745-5.235-.867-8.07-.878-2.836-.012-5.142 1.15-8.252-2.728z"/>
    <path style="fill:none;stroke:#000;stroke-width:.595999;stroke-linecap:butt;stroke-linejoin:miter;stroke-miterlimit:4;stroke-dasharray:none;stroke-opacity:1" d="M49.358 330.47c-.291 11.47 11.394 20.3 16.14 24.415M87.803 364.225c-6.422-.612-16.627-4.905-19.974-7.351-2.897-2.118-1.266-6.212-1.425-16.23"/>
    <path style="fill:none;stroke:#000;stroke-width:.696;stroke-linecap:butt;stroke-linejoin:miter;stroke-miterlimit:4;stroke-dasharray:none;stroke-opacity:1" d="M87.35 368.664c-14.903-2.053-17.902-10.995-21.309-12.947"/>
    <path style="fill:none;stroke:#000;stroke-width:.793;stroke-linecap:butt;stroke-linejoin:miter;stroke-miterlimit:4;stroke-dasharray:none;stroke-opacity:1" d="M88.891 379.854c-11.093-5.274-17.593-16.617-22.85-24.692"/>
    <path style="fill:#d9d9d9;fill-opacity:1;stroke:#000;stroke-width:.595872;stroke-linecap:square;stroke-linejoin:miter;stroke-miterlimit:4;stroke-dasharray:none;stroke-opacity:1" d="M68.419 354.103a4.488 4.774 0 1 1-8.976 0 4.488 4.774 0 1 1 8.976 0z"/>
    <path style="fill:#ececec;stroke:#000;stroke-width:.7;stroke-linecap:butt;stroke-linejoin:miter;stroke-miterlimit:4;stroke-dasharray:none;stroke-opacity:1" d="M194.245 229.467c-6.922 2.033-6.268 4.783.289 2.844l44.56-13.176c4.707-1.392 5.197-4.367-.32-2.746zM200.418 200.443c-4.827 1.417-4.185 3.454.15 2.172l33.846-10.008c3.575-1.057 3.947-3.317-.244-2.086z"/>
    <path style="fill:#ececec;stroke:#000;stroke-width:.8;stroke-linecap:butt;stroke-linejoin:miter;stroke-miterlimit:4;stroke-dasharray:none;stroke-opacity:1" d="M112.937 293.656c-5.975 1.055-5.761 4.906-.2 3.948l53.41-9.208c2.992-.516 8.444-5.766 2.391-4.553z"/>
    <path style="fill:none;stroke:#000;stroke-width:.49656;stroke-linecap:round;stroke-linejoin:miter;stroke-miterlimit:4;stroke-dasharray:none;stroke-opacity:1" d="M122.534 255.02c3.262 6.238 7.087 12.845 14.731 21.213"/>
    <path style="fill:none;stroke:#000;stroke-width:.49656;stroke-linecap:round;stroke-linejoin:miter;stroke-miterlimit:4;stroke-dasharray:none;stroke-opacity:1" d="M139.396 271.008c-4.761-.254-8.67-3.39-12.377-7.63"/>
    <path style="fill:#ececec;stroke:#000;stroke-width:.665901;stroke-linecap:butt;stroke-linejoin:miter;stroke-miterlimit:4;stroke-dasharray:none;stroke-opacity:1" d="M128.613 266.861c1.57.758 3.648-.641 2.87-2.342-.367-.806-1.964-2.567-3.032-2.867-1.308-.368-2.75.599-2.385 2.225.296 1.32 1.828 2.637 2.547 2.984z"/>
    <path style="fill:none;stroke:#000;stroke-width:.49656;stroke-linecap:round;stroke-linejoin:miter;stroke-miterlimit:4;stroke-dasharray:none;stroke-opacity:1" d="M128.74 221.114c4.022 3.812 5.104 9.688 10.656 14.983"/>
    <path style="fill:none;stroke:#000;stroke-width:.49656;stroke-linecap:round;stroke-linejoin:miter;stroke-miterlimit:4;stroke-dasharray:none;stroke-opacity:1" d="M142.479 231.936c-5.078-.74-10.337-5.78-10.337-5.78"/>
    <path style="fill:#ececec;fill-opacity:1;stroke:#000;stroke-width:.537024px;stroke-linecap:butt;stroke-linejoin:miter;stroke-opacity:1" d="M132.736 228.206c1.11.514 2.453-.677 1.832-1.965-.294-.61-1.477-1.904-2.221-2.087-.911-.223-1.843.6-1.507 1.85.273 1.014 1.388 1.966 1.896 2.202z"/>
    <path style="fill:#ececec;stroke:#000;stroke-width:.9;stroke-linecap:butt;stroke-linejoin:miter;stroke-miterlimit:4;stroke-dasharray:none;stroke-opacity:1" d="M216.282 371.162c-.06 4.238 5.704 2.138 5.693.082l-1.086-192.116-1.847-.207-2.76 192.24z"/>
    <path style="fill:url(#t);fill-opacity:1;stroke:#000;stroke-width:.993121px;stroke-linecap:butt;stroke-linejoin:miter;stroke-opacity:1" d="m152.543 368.756.091 5.087c9.47 1.204 26.824 1.66 37.901.277.717-4.259 1.628-8.277 7.345-8.23 30.134.244 84.067.924 128.03-16.369.103-3.462 1.776-7.822 6.891-15.351l23.212-3.607c2.612 1.708.49 12.471-2.63 13.502-3.39 1.12-5.682 18.05-9.339 23.027-8.03 10.927-14.183 23.062-19.585 37.546-1.354 3.63-9.658 6.426-13.42 6.843-67.947 7.538-133.484 20.926-202.744-1.48l-17.681-26.356c-3.89-5.797-4.011-17.712-2.176-25.246 18.294 5.053 41.433 8.687 64.105 10.357z"/>
    <path style="fill:#d9d9d9;fill-opacity:1;stroke:#000;stroke-width:.994114;stroke-linecap:square;stroke-linejoin:miter;stroke-miterlimit:4;stroke-dasharray:none;stroke-opacity:1" d="M222.713 178.462a2.981 2.845 0 1 1-5.963 0 2.981 2.845 0 1 1 5.963 0z"/>
    <path style="fill:#e3dedb;stroke:#000;stroke-width:.993121px;stroke-linecap:butt;stroke-linejoin:miter;stroke-opacity:1" d="M154.333 370.059c4.058 2.13 30.752 2.964 34.88 1.242l1.09 3.858c-10.179 1.454-26.673.955-35.905-1.177l-.065-3.662v-.261z"/>
    <path style="fill:url(#u);fill-opacity:1;stroke:#000;stroke-width:.993121px;stroke-linecap:butt;stroke-linejoin:miter;stroke-opacity:1" d="M325.282 344.426c0 .327-2.453 6.015-2.453 6.015-55.167 21.605-111.24 11.702-128.103 17.787-2.317.836-1.095 4.168-2.18 6.212-3.062 5.773-9.728 1.965-9.168-2.877.742-6.42 5.036-8.522 11.333-10.168 13.678-3.575 68.25 6.616 130.57-16.969z"/>
    <path style="fill:url(#v);fill-opacity:1;stroke:#000;stroke-width:.993121px;stroke-linecap:butt;stroke-linejoin:miter;stroke-opacity:1" d="M149.687 371.392c-.08 4.957 8.478 6.146 7.753-1.34-1.02-10.531-41.064-5.682-55.447-9.087 4.757 3.612 25.292 5.212 35.925 6.515 8.37 1.025 11.808 1.466 11.77 3.912z"/>
    <path style="fill:none;stroke:#000;stroke-width:.993121px;stroke-linecap:butt;stroke-linejoin:miter;stroke-opacity:1" d="M89.605 353.937a49.938 49.938 0 0 0-1.473 5.838"/>
    <path style="fill:#ececec;stroke:#000;stroke-width:.993121px;stroke-linecap:butt;stroke-linejoin:miter;stroke-opacity:1" d="M40.174 266.26c.005-1.318 3.346-1.723 3.317-.13l-.892 48.995c-.033 1.824-2.633 1.272-2.628.24z"/>
    <path style="fill:url(#w);fill-opacity:1;stroke:#000;stroke-width:.794496;stroke-linecap:butt;stroke-linejoin:miter;stroke-miterlimit:4;stroke-dasharray:none;stroke-opacity:1" d="M12.114 286.821c2.275-5.513 7.63-4.91 13.106-8.595 5.24-3.526 11.01-9.644 16.781-9.95 2.744-.144 2.659 3.904.064 3.892-2.881-.014-2.452 2.95.193 3.04 2.314.079 2.466 3.984 0 3.793-2.53-.195-4.301 13.017-.866 12.98 2.533-.027 2.432 3.95-.192 3.76-1.9-.137-2.043 1.77.449 3.63 3.078 2.296 1.29 7.525-1.12 5.419-3.906-3.414-9.087-4.36-12.93-3.672-12.113 2.166-12.504-3.786-22.875-1.119 1.624-8.668 4.085-5.17 7.39-13.178z"/>
    <path style="fill:#d9d9d9;fill-opacity:1;stroke:#000;stroke-width:1.03583;stroke-linecap:square;stroke-linejoin:miter;stroke-miterlimit:4;stroke-dasharray:none;stroke-opacity:1" d="M45.209 264.582a3.318 3.574 42.737 1 1-6.527-1.685 3.318 3.574 42.737 1 1 6.527 1.685z"/>
    <path style="fill:#d9d9d9;fill-opacity:1;stroke:#000;stroke-width:.794496;stroke-linecap:butt;stroke-linejoin:miter;stroke-miterlimit:4;stroke-dasharray:none;stroke-opacity:1" d="m23.664 279.295 5.724-3.882c-1.285 4.305-1.467 7.053-1.414 8.67 4.815-1.429 8.078-2.976 12.296-3.153.253 1.024-1.229 2.762 1.25 2.747 1.66-.01 1.43 3.04-.705 3.335-3.351.462-6.896 1.3-12.438 3.661-1.169 3.403-1.093 6.976-.32 10.398l-5.483.36c-.687-2.329-.872-5.905-.256-9.918-2.85.649-10.177 3.664-17.586 8.445 1.114-4.743 16.57-12.966 17.808-13.57.023-1.922.389-5.047 1.124-7.093zM36.947 317.534c-1.066 2.528 2.297 5.1 3.912 3.716 1.23-1.053 2.168-2.698 2.874-4.088.996-1.96-2.285-4.512-4.146-3.233-1.172.806-2.11 2.35-2.64 3.605z"/>
    <path style="fill:#d9d9d9;fill-opacity:1;stroke:#000;stroke-width:.794497;stroke-linecap:square;stroke-linejoin:miter;stroke-miterlimit:4;stroke-dasharray:none;stroke-opacity:1" d="M20.325 298.192a2.884 3.633 40.197 1 1-5.501 4.66 2.884 3.633 40.197 1 1 5.5-4.66z"/>
    <path style="fill:none;stroke:#000;stroke-width:.595872;stroke-linecap:butt;stroke-linejoin:miter;stroke-miterlimit:4;stroke-dasharray:none;stroke-opacity:1" d="M111.015 299.768c13.616 16.382 21.679 31.386 37.448 28.067"/>
    <path style="fill:none;stroke:#000;stroke-width:.595872;stroke-linecap:round;stroke-linejoin:miter;stroke-miterlimit:4;stroke-dasharray:none;stroke-opacity:1" d="M118.586 309.432c4.048 3.201 14.084 11.032 28.761 8.054 2.43 5.308 8.687 8.231 11 7.714M147.919 327.373c2.642 2.606 6.536 4.573 14.462 4.485"/>
    <path style="fill:#ececec;fill-opacity:1;stroke:#000;stroke-width:.794496;stroke-linecap:butt;stroke-linejoin:miter;stroke-miterlimit:4;stroke-dasharray:none;stroke-opacity:1" d="M121.453 314.02c1.96.71 4.057-1.54 2.812-3.65-.59-1-2.79-3.034-4.079-3.23-1.578-.241-3.035 1.314-2.278 3.402.615 1.697 2.648 3.154 3.545 3.479z"/>
    <path style="fill:none;stroke:#000;stroke-width:.595872;stroke-linecap:round;stroke-linejoin:miter;stroke-miterlimit:4;stroke-dasharray:none;stroke-opacity:1" d="M192.258 233.832c4.882 10.689 12.653 18.856 21.943 26.17"/>
    <path style="fill:none;stroke:#000;stroke-width:.595999;stroke-linecap:round;stroke-linejoin:miter;stroke-miterlimit:4;stroke-dasharray:none;stroke-opacity:1" d="M216.196 254.362c-7.17-2.415-13.005-5.641-16.633-9.666"/>
    <path style="fill:none;stroke:#000;stroke-width:.595872;stroke-linecap:butt;stroke-linejoin:miter;stroke-miterlimit:4;stroke-dasharray:none;stroke-opacity:1" d="m212.569 216.26-4.443-7.767M203.501 202.852l11.97 12.392M181.99 284.764c3.358 6.377 15.311 23.652 27.462 33.708"/>
    <path style="fill:none;stroke:#000;stroke-width:.595872;stroke-linecap:butt;stroke-linejoin:miter;stroke-miterlimit:4;stroke-dasharray:none;stroke-opacity:1" d="M210.427 311.235c-8.796-2.535-13.937-7.844-19.029-12.337"/>
    <path style="fill:none;stroke:#000;stroke-width:.595999;stroke-linecap:round;stroke-linejoin:miter;stroke-miterlimit:4;stroke-dasharray:none;stroke-opacity:1" d="M271.415 240.536c2.305 6.59 8.735 13.718 13.51 17.525"/>
    <path style="fill:none;stroke:#000;stroke-width:.595872;stroke-linecap:butt;stroke-linejoin:miter;stroke-miterlimit:4;stroke-dasharray:none;stroke-opacity:1" d="M288.734 251.957c-9.726-.567-9.827-2.834-13.51-4.531"/>
    <path style="fill:none;stroke:#000;stroke-width:.993121px;stroke-linecap:butt;stroke-linejoin:miter;stroke-opacity:1" d="M174.305 221.902c.328 10.646 5.335 21.607 9.474 27.964"/>
    <path style="fill:none;stroke:#000;stroke-width:.993121px;stroke-linecap:butt;stroke-linejoin:miter;stroke-opacity:1" d="M174.14 221.706c1.795 6.518 3.16 13.476 11.952 21.28M329.718 331.026c-17.552-2.717-26.633-12.708-32.098-20.9"/>
    <path style="fill:none;stroke:#000;stroke-width:.993121px;stroke-linecap:butt;stroke-linejoin:miter;stroke-opacity:1" d="M294.492 311.374c4.757 8.414 13.327 20.006 34.682 26.125M291.528 215.361c1.341 3.47 4.828 8.727 7.5 11.165"/>
    <path style="fill:none;stroke:#000;stroke-width:.595872;stroke-linecap:butt;stroke-linejoin:miter;stroke-miterlimit:4;stroke-dasharray:none;stroke-opacity:1" d="M119.833 257.668c-21.39 22.491-46.105 45.758-69.66 63.832"/>
    <path style="fill:none;stroke:#000;stroke-width:.595872;stroke-linecap:butt;stroke-linejoin:miter;stroke-miterlimit:4;stroke-dasharray:none;stroke-opacity:1" d="M43.101 315.304c17.725-8.001 42.778-22.395 71.606-42.518M114.904 281.86c-19.907 14.415-41.397 32.993-60.075 43.49"/>
    <path style="fill:none;stroke:#000;stroke-width:.595872;stroke-linecap:butt;stroke-linejoin:miter;stroke-miterlimit:4;stroke-dasharray:none;stroke-opacity:1" d="M51.896 322.98c5.592-4.349 12.476-5.971 19.693-8.49"/>
    <path style="fill:#ececec;stroke:#000;stroke-width:.993121px;stroke-linecap:butt;stroke-linejoin:miter;stroke-opacity:1" d="m230.642 341.95 83.888-103.263c2.596-3.196 7.14-3.364 2.585 1.988L233.86 338.49z"/>
    <path style="fill:none;stroke:#000;stroke-width:.993121px;stroke-linecap:butt;stroke-linejoin:miter;stroke-opacity:1" d="M291.517 208.509c1.546 4.757 6.982 11.993 12.131 16.61"/>
    <path style="fill:url(#x);fill-opacity:1;stroke:#000;stroke-width:.993121px;stroke-linecap:butt;stroke-linejoin:miter;stroke-opacity:1" d="M253.825 324.737c7.318-1.389 6.5-5.32 9.34-8.323 9.115-9.639 18.561-7.964 25.206-5.086 7.135 3.09 13.51-3.478 13.148-14.242-.99-14.997-.065-9.517-.294-16.126-.316-9.122 10.754-14.456 8.998-31.962l-78.34 92.847c6.576-.687 17.546-16.273 21.942-17.108z"/>
    <path style="fill:none;stroke:#000;stroke-width:.993121px;stroke-linecap:butt;stroke-linejoin:miter;stroke-opacity:1" d="m133.634 376.37 6.278-90.166"/>
    <path style="fill:url(#y);fill-opacity:1;stroke:#000;stroke-width:.993121px;stroke-linecap:butt;stroke-linejoin:miter;stroke-opacity:1" d="M87.576 371.346c87.326 30.794 164.772 13.05 230.808-1.665v-4.069c-66.211 16.257-149.32 32.213-229.856 1.11-2.8-1.082-2.672 4.017-.952 4.624z"/>
    <path style="fill:none;stroke:#000;stroke-width:.993121px;stroke-linecap:butt;stroke-linejoin:miter;stroke-opacity:1" d="m141.104 286.096-2.128 91.441M143.931 378.841l.06-93.683M145.107 284.81l5.38 77.271M150.615 360.904l-1.154 18.833M203.158 378.408l.921-19.528M210.092 359.172l-.912 18.833M211.185 358.727l-.613 19.686M216.874 358.973l-.87 19.603M217.867 358.727l.182 19.464M224.264 359.244l-2.405 19.212M225.599 359.313l1.826 18.2M230.894 357.757l-1.97 19.379M230.887 357.896l-8.72-89.325M221.783 267.263l3.054 91.949M210.627 357.896l6.411-90.894M216.14 266.479l-11.668 91.94M210.265 309.733c4.78 1.098 11.06 1.746 15.944-.75M211.985 300.437c4.024.949 9.915.557 13.773-.216M213.125 291.804c3.18.794 7.887.735 11.295.001M209.831 317.809c5.118 1.237 11.314 1.211 16.825-.456M207.934 329.516c6.664 1.63 15.497 1.563 20.245-.533M206.676 341.24c6.54 2.272 15.5 2.404 22.729.135M137.792 312.449c7.245 1.635 9.425-.262 9.425-.262M137.792 318.726c.973 1.313 9.803 1.263 10.002.589M136.894 327.097c4.831 2.05 8.07 1.085 11.797 1.046M136.573 335.663c4.138 1.035 8.216 1.292 12.182.065M135.612 351.291c.738 2.948 13.307 2.1 14.362.327M136.381 343.51c3.046.755 6.258 1.437 12.823.654"/>
    <path style="fill:#ececec;stroke:#000;stroke-width:.995;stroke-linecap:butt;stroke-linejoin:miter;stroke-miterlimit:4;stroke-dasharray:none;stroke-opacity:1" d="M215.914 265.069c-2.749-.222-2.414 4.601-.53 5.002 2.371.504 5.88.361 8.343-.334 1.262-.355 1.742-5.014-.574-4.859-2.739.184-4.991.372-7.24.19z"/>
    <path style="fill:#ececec;stroke:#000;stroke-width:.723866px;stroke-linecap:butt;stroke-linejoin:miter;stroke-opacity:1" d="M217.543 217.876c-2.007-.16-1.762 3.338-.387 3.628 1.731.366 4.293.262 6.092-.242.921-.258 1.272-3.637-.419-3.524-2 .133-3.645.27-5.286.138z"/>
    <path style="fill:#ececec;stroke:#000;stroke-width:.751291px;stroke-linecap:butt;stroke-linejoin:miter;stroke-opacity:1" d="M141.873 241.178c-2.068-.168-1.816 3.488-.398 3.792 1.784.382 4.424.273 6.28-.253.949-.27 1.31-3.8-.433-3.683-2.061.14-3.757.282-5.449.144z"/>
    <path style="fill:#ececec;stroke:#000;stroke-width:.957761px;stroke-linecap:butt;stroke-linejoin:miter;stroke-opacity:1" d="M139.777 282.686c-2.634-.214-2.313 4.45-.507 4.838 2.273.488 5.635.35 7.997-.322 1.21-.344 1.67-4.85-.55-4.7-2.625.178-4.785.36-6.94.184z"/>
    <path style="fill:#ececec;stroke:#000;stroke-width:1.09862px;stroke-linecap:butt;stroke-linejoin:miter;stroke-opacity:1" d="M215.492 345.777c-2.85-.26-2.503 5.412-.55 5.883 2.46.594 6.098.425 8.653-.392 1.309-.418 1.807-5.898-.595-5.715-2.84.216-5.177.437-7.508.224z"/>
    <path style="fill:none;stroke:#000;stroke-width:.993121px;stroke-linecap:butt;stroke-linejoin:miter;stroke-opacity:1" d="m202.47 379.423.005 10.376M203.415 379.498l.736 10.374M208.61 379.55s.069 10.334-.252 10.334M210.216 379.032l.792 10.925M216.081 379.794l.528 9.798M218.067 379.338l1.117 9.962M222.175 379.673c0 .261 1.018 9.088 1.018 9.088M226.848 378.56l.385 9.481M228.563 378.626l.08 10.462M133.39 378.093l-1.102 6.63M138.612 378.614l-1.625 6.405M143.534 379.875c-.129 1.635-1.01 6.243-1.01 6.243M149.332 379.083l-1.33 8.348M278.557 372.315c.064.458.801 9.645.801 9.645M280.064 372.413l1.282 8.24M285.546 370.942l.93 9.318M291.54 369.863l.706 10.528M297.984 369.143l-.353 10.528"/>
    <path style="fill:#ececec;stroke:#000;stroke-width:.993121px;stroke-linecap:butt;stroke-linejoin:miter;stroke-opacity:1" d="M320.841 365.35c-3.67-.3 4.786-26.625 10.643-30.276 8.945-5.574 25.986-4.767 25.839-2.223-.341 5.88-3.72 10.247-6.86 10.92-6.746 1.448-16.007-.105-20.39-1.177l-7.052 20.599z"/>
    <path style="fill:#000;stroke:none;stroke-width:1" d="m330.523 352.076-1.956 3.695 20.196.261 1.058-3.989-19.298.033z"/>
    <path style="fill:#000;stroke:#000;stroke-width:.993121px;stroke-linecap:butt;stroke-linejoin:miter;stroke-opacity:1" d="m332.895 340.436 17.6-.13 4.231-4.84c3.106-3.551-11.551-3.444-16.413-1.111-2.295 1.101-4.16 3.038-5.418 6.081z"/>
    <path style="fill:url(#z);fill-opacity:1;stroke:none;stroke-width:1" d="M338.039 334.846c-1.03.43-1.406 2.855 4.21 2.584 4.436-.213 11.776.665 12.285-2.911.161-1.133-10.008-2.384-16.495.327z"/>
    <path style="fill:#000;stroke:none;stroke-width:1" d="m338.28 345.24-1.218 2.878h-1.923l1.122-2.845 2.02-.032zM334.246 345.24l-1.219 2.878h-1.923l1.122-2.845 2.02-.032zM342.316 345.24l-1.219 2.878h-1.923l1.122-2.845 2.02-.032zM346.35 345.24l-1.218 2.878h-1.923l1.122-2.845 2.02-.032zM350.386 345.24l-1.219 2.878h-1.923l1.122-2.845 2.02-.032z"/>
    <path style="fill:none;stroke:#000;stroke-width:.993121px;stroke-linecap:butt;stroke-linejoin:miter;stroke-opacity:1" d="M153.725 275.779c9.559-1.325 19.932-6.328 29.733-15.291"/>
    <path style="fill:url(#A);fill-opacity:1;stroke:#000;stroke-width:.993121px;stroke-linecap:butt;stroke-linejoin:miter;stroke-opacity:1" d="M259.99 274.244c3.468 10.845 14.118 14.72 33.006 11.93 22.728-3.356 25.955-15.325 27.564-18.68z"/>
    <path style="fill:#ececec;stroke:#000;stroke-width:.8;stroke-linecap:butt;stroke-linejoin:miter;stroke-miterlimit:4;stroke-dasharray:none;stroke-opacity:1" d="M262.792 272.481c-8.546.932-7.257 3.214.839 2.32l55.022-6.075c5.812-.641 6.867-3.202.055-2.46l-55.916 6.215z"/>
    <path style="fill:url(#B);fill-opacity:1;stroke:#000;stroke-width:.993121px;stroke-linecap:butt;stroke-linejoin:miter;stroke-opacity:1" d="M260.807 277.296c13.087 11.81 37.219 12.746 55.854-4.439 1.365.828-5.71 19.112-27.02 19.236-18.25.105-30.507-7.334-28.834-14.797z"/>
    <path style="fill:#ececec;stroke:#000;stroke-width:.9;stroke-linecap:butt;stroke-linejoin:miter;stroke-miterlimit:4;stroke-dasharray:none;stroke-opacity:1" d="m285.667 355.524 6.424-1.32-.549-150.734-2.245-.162z"/>
    <path style="fill:none;stroke:#000;stroke-width:.993121px;stroke-linecap:butt;stroke-linejoin:miter;stroke-opacity:1" d="M282.478 318.634c2.068 1.203 10.379 1.591 12.784-.185M282.886 310.218c2.89 1.586 8.298 2.147 11.606 1.295"/>
    <path style="fill:#ccc;fill-opacity:1;stroke:#000;stroke-width:.904408px;stroke-linecap:butt;stroke-linejoin:miter;stroke-opacity:1" d="M263.135 277.916c.25-1.936-1.469-3.168-3.525-2.17-1.035.502-2.59 2.315-2.482 3.527.132 1.484 1.718 3.085 3.647 1.921 1.568-.946 2.246-2.39 2.36-3.278z"/>
    <path style="fill:#ececec;fill-opacity:1;stroke:#000;stroke-width:.379564;stroke-linecap:square;stroke-linejoin:miter;stroke-miterlimit:4;stroke-dasharray:none;stroke-opacity:1" d="M218.852 358.81a1.79 1.76 0 1 1-3.581 0 1.79 1.76 0 1 1 3.58 0z"/>
    <path style="fill:#ececec;fill-opacity:1;stroke:#000;stroke-width:.472764;stroke-linecap:square;stroke-linejoin:miter;stroke-miterlimit:4;stroke-dasharray:none;stroke-opacity:1" d="M230.342 378.096a2.288 2.138 0 1 1-4.576 0 2.288 2.138 0 1 1 4.576 0z"/>
    <path style="fill:#ececec;fill-opacity:1;stroke:#000;stroke-width:.451762;stroke-linecap:square;stroke-linejoin:miter;stroke-miterlimit:4;stroke-dasharray:none;stroke-opacity:1" d="M224.097 378.723a2.202 2.029 0 1 1-4.404 0 2.202 2.029 0 1 1 4.404 0z"/>
    <path style="fill:#ececec;fill-opacity:1;stroke:#000;stroke-width:.504359;stroke-linecap:square;stroke-linejoin:miter;stroke-miterlimit:4;stroke-dasharray:none;stroke-opacity:1" d="M219.214 379.377a2.336 2.383 0 1 1-4.672 0 2.336 2.383 0 1 1 4.672 0z"/>
    <path style="fill:#ececec;fill-opacity:1;stroke:#000;stroke-width:.423075;stroke-linecap:square;stroke-linejoin:miter;stroke-miterlimit:4;stroke-dasharray:none;stroke-opacity:1" d="M211.562 378.821a2.025 1.934 0 1 1-4.05 0 2.025 1.934 0 1 1 4.05 0z"/>
    <path style="fill:#ececec;fill-opacity:1;stroke:#000;stroke-width:.460513;stroke-linecap:square;stroke-linejoin:miter;stroke-miterlimit:4;stroke-dasharray:none;stroke-opacity:1" d="M205.003 378.821a2.07 2.242 0 1 1-4.14 0 2.07 2.242 0 1 1 4.14 0z"/>
    <path style="fill:url(#C);fill-opacity:1;stroke:#000;stroke-width:1.12196px;stroke-linecap:butt;stroke-linejoin:miter;stroke-opacity:1" d="M202.99 388.062c-2.913.058-2.12 4.347-.102 4.256 7.835-.35 16.824-.728 26.623-1.475 1.55-.118.503-4.33-.379-4.248-8.817.83-17.883 1.302-26.142 1.467z"/>
    <path style="fill:#ececec;fill-opacity:1;stroke:#000;stroke-width:.49656;stroke-linecap:square;stroke-linejoin:miter;stroke-miterlimit:4;stroke-dasharray:none;stroke-opacity:1" d="M206.588 358.746a2.5 2.158 0 1 1-5.001 0 2.5 2.158 0 1 1 5 0z"/>
    <path style="fill:#ececec;fill-opacity:1;stroke:#000;stroke-width:.397843;stroke-linecap:square;stroke-linejoin:miter;stroke-miterlimit:4;stroke-dasharray:none;stroke-opacity:1" d="M212.857 358.583a1.942 1.784 0 1 1-3.883 0 1.942 1.784 0 1 1 3.883 0z"/>
    <path style="fill:#ececec;fill-opacity:1;stroke:#000;stroke-width:.422003;stroke-linecap:square;stroke-linejoin:miter;stroke-miterlimit:4;stroke-dasharray:none;stroke-opacity:1" d="M226.822 358.779a2.122 1.837 0 1 1-4.244 0 2.122 1.837 0 1 1 4.244 0z"/>
    <path style="fill:#e6e6e6;fill-opacity:1;stroke:#000;stroke-width:.388851;stroke-linecap:square;stroke-linejoin:miter;stroke-miterlimit:4;stroke-dasharray:none;stroke-opacity:1" d="M232.737 359.367a1.85 1.789 0 1 1-3.7 0 1.85 1.789 0 1 1 3.7 0z"/>
    <path style="fill:#ececec;fill-opacity:1;stroke:#000;stroke-width:.514222;stroke-linecap:square;stroke-linejoin:miter;stroke-miterlimit:4;stroke-dasharray:none;stroke-opacity:1" d="M135.87 377.334a2.504 2.31 0 1 1-5.008 0 2.504 2.31 0 1 1 5.008 0z"/>
    <path style="fill:#ececec;fill-opacity:1;stroke:#000;stroke-width:.468382;stroke-linecap:square;stroke-linejoin:miter;stroke-miterlimit:4;stroke-dasharray:none;stroke-opacity:1" d="M140.82 378.892a2.125 2.26 17.797 1 1-3.845-1.822 2.125 2.26 17.797 1 1 3.844 1.822z"/>
    <path style="fill:#ececec;fill-opacity:1;stroke:#000;stroke-width:.428386;stroke-linecap:square;stroke-linejoin:miter;stroke-miterlimit:4;stroke-dasharray:none;stroke-opacity:1" d="M145.603 379.612a1.894 2.12 2.518 1 1-3.574-1.366 1.894 2.12 2.518 1 1 3.574 1.366z"/>
    <path style="fill:#e6e6e6;fill-opacity:1;stroke:#000;stroke-width:.41089;stroke-linecap:square;stroke-linejoin:miter;stroke-miterlimit:4;stroke-dasharray:none;stroke-opacity:1" d="M150.93 379.553a1.831 2.017 0 1 1-3.664 0 1.831 2.017 0 1 1 3.663 0z"/>
    <path style="fill:url(#D);fill-opacity:1;stroke:#000;stroke-width:.993121px;stroke-linecap:butt;stroke-linejoin:miter;stroke-opacity:1" d="M130.066 383.366c-1.123-.219-2.218 3.613-.802 4.087 5.696 1.908 12.16 2.468 19.684 2.78 2.041.083 2.194-4.447.449-4.35-7.04.393-13.021-1.288-19.331-2.517z"/>
    <path style="fill:#d9d9d9;fill-opacity:1;stroke:#000;stroke-width:.526024;stroke-linecap:square;stroke-linejoin:miter;stroke-miterlimit:4;stroke-dasharray:none;stroke-opacity:1" d="M153.013 363.023a2.464 2.457 0 1 1-4.929 0 2.464 2.457 0 1 1 4.929 0z"/>
    <path style="fill:#d9d9d9;fill-opacity:1;stroke:#000;stroke-width:.411163;stroke-linecap:square;stroke-linejoin:miter;stroke-miterlimit:4;stroke-dasharray:none;stroke-opacity:1" d="M146.305 361.982a1.9 1.948 0 1 1-3.799 0 1.9 1.948 0 1 1 3.799 0z"/>
    <path style="fill:#d9d9d9;fill-opacity:1;stroke:#000;stroke-width:.444202;stroke-linecap:square;stroke-linejoin:miter;stroke-miterlimit:4;stroke-dasharray:none;stroke-opacity:1" d="M141.709 361.15a2.087 2.07 0 1 1-4.173 0 2.087 2.07 0 1 1 4.173 0z"/>
    <path style="fill:#d9d9d9;fill-opacity:1;stroke:#000;stroke-width:.492354;stroke-linecap:square;stroke-linejoin:miter;stroke-miterlimit:4;stroke-dasharray:none;stroke-opacity:1" d="M136.562 360.595a2.38 2.23 0 1 1-4.76 0 2.38 2.23 0 1 1 4.76 0z"/>
    <path style="fill:#ececec;fill-opacity:1;stroke:#000;stroke-width:.861122px;stroke-linecap:butt;stroke-linejoin:miter;stroke-opacity:1" d="M193.346 303.13c1.804.78 3.925-1.17 2.884-3.205-.493-.964-2.438-2.988-3.642-3.253-1.474-.323-2.947 1.025-2.366 3.009.473 1.61 2.298 3.09 3.124 3.448z"/>
    <path style="fill:#ececec;fill-opacity:1;stroke:#000;stroke-width:.595872;stroke-linecap:butt;stroke-linejoin:miter;stroke-miterlimit:4;stroke-dasharray:none;stroke-opacity:1" d="M200.18 248.758c1.875.679 3.887-1.457 2.7-3.467-.563-.953-2.663-2.893-3.897-3.083-1.51-.233-2.908 1.243-2.188 3.232.585 1.615 2.527 3.007 3.386 3.318z"/>
    <path style="fill:#ececec;stroke:#000;stroke-width:.670122px;stroke-linecap:butt;stroke-linejoin:miter;stroke-opacity:1" d="M209.069 211.452c1.377.718 3.2-.608 2.519-2.22-.323-.763-1.724-2.43-2.662-2.715-1.147-.349-2.413.567-2.093 2.107.26 1.252 1.605 2.5 2.236 2.828z"/>
    <path style="fill:#e6e6e6;fill-opacity:1;stroke:#000;stroke-width:.904408px;stroke-linecap:butt;stroke-linejoin:miter;stroke-opacity:1" d="M276.954 251.558c1.812.635 3.69-1.859 2.507-4.014-.56-1.02-2.618-3.04-3.804-3.173-1.452-.163-3.12 1.237-2.385 3.397.597 1.755 2.853 3.5 3.682 3.79z"/>
    <path style="fill:#ececec;fill-opacity:1;stroke:#000;stroke-width:.595872;stroke-linecap:butt;stroke-linejoin:miter;stroke-miterlimit:4;stroke-dasharray:none;stroke-opacity:1" d="M64.657 315.055c-1.474 1.758-.121 4.814 2.434 4.345 1.21-.221 4.072-1.71 4.78-2.972.866-1.544-.067-3.664-2.405-3.694-1.9-.025-4.133 1.516-4.809 2.321z"/>
    <path style="fill:none;stroke:#000;stroke-width:.993121px;stroke-linecap:butt;stroke-linejoin:miter;stroke-opacity:1" d="M279.43 371.689v-18.31"/>
    <path style="fill:#ececec;fill-opacity:1;stroke:#000;stroke-width:.595873;stroke-linecap:square;stroke-linejoin:miter;stroke-miterlimit:4;stroke-dasharray:none;stroke-opacity:1" d="M281.7 371.415a2.531 2.616 0 1 1-5.063 0 2.531 2.616 0 1 1 5.062 0z"/>
    <path style="fill:none;stroke:#000;stroke-width:.993121px;stroke-linecap:butt;stroke-linejoin:miter;stroke-opacity:1" d="M285.601 353.84c0 .463-.317 14.612-.317 14.612"/>
    <path style="fill:#ececec;fill-opacity:1;stroke:#000;stroke-width:.595872;stroke-linecap:square;stroke-linejoin:miter;stroke-miterlimit:4;stroke-dasharray:none;stroke-opacity:1" d="M287.662 369.311a2.193 2.525 0 1 1-4.385 0 2.193 2.525 0 1 1 4.385 0z"/>
    <path style="fill:none;stroke:#000;stroke-width:.993121px;stroke-linecap:butt;stroke-linejoin:miter;stroke-opacity:1" d="M291.604 367.805c0-5.272-.045-14.936-.045-14.936"/>
    <path style="fill:#ececec;fill-opacity:1;stroke:#000;stroke-width:.595872;stroke-linecap:square;stroke-linejoin:miter;stroke-miterlimit:4;stroke-dasharray:none;stroke-opacity:1" d="M293.882 369.08a2.383 2.164 0 1 1-4.765 0 2.383 2.164 0 1 1 4.765 0z"/>
    <path style="fill:none;stroke:#000;stroke-width:.993121px;stroke-linecap:butt;stroke-linejoin:miter;stroke-opacity:1" d="m296.72 351.556.396 15.813M297.944 351.371l.842 15.905"/>
    <path style="fill:#ececec;fill-opacity:1;stroke:#000;stroke-width:.595873;stroke-linecap:square;stroke-linejoin:miter;stroke-miterlimit:4;stroke-dasharray:none;stroke-opacity:1" d="M300.447 368.063a2.328 2.385 0 1 1-4.657 0 2.328 2.385 0 1 1 4.657 0z"/>
    <path style="fill:url(#E);fill-opacity:1;stroke:#000;stroke-width:1.04483px;stroke-linecap:butt;stroke-linejoin:miter;stroke-opacity:1" d="M279.863 385.471c6.166-.824 12.59-1.966 20.904-4.377 1.96-.569.142-4.773-1.059-4.376-7.769 2.563-14.285 3.181-20.455 4.504-1.59.629-.043 4.283.61 4.25z"/>
    <path style="fill:#ececec;fill-opacity:1;stroke:#000;stroke-width:.595872;stroke-linecap:square;stroke-linejoin:miter;stroke-miterlimit:4;stroke-dasharray:none;stroke-opacity:1" d="M287.414 354.05a1.904 1.925 0 1 1-3.808 0 1.904 1.925 0 1 1 3.808 0zM293.712 353.172a2.05 2.026 0 1 1-4.1 0 2.05 2.026 0 1 1 4.1 0zM299.144 351.335a2.216 2.064 0 1 1-4.432 0 2.216 2.064 0 1 1 4.432 0z"/>
    <path style="fill:none;stroke:#000;stroke-width:.993121px;stroke-linecap:butt;stroke-linejoin:miter;stroke-opacity:1" d="m297.257 349.336-5.984-83.97"/>
    <path style="fill:#ececec;stroke:#000;stroke-width:.959805px;stroke-linecap:butt;stroke-linejoin:miter;stroke-opacity:1" d="M285.755 338.27c-2.59-.451-2.294 4.465-.505 4.886 2.095.492 5.426.353 7.952-.326 1.209-.325 1.577-5.378-.547-4.747-2.433.723-4.69.571-6.9.186z"/>
    <path style="fill:none;stroke:#000;stroke-width:.993121px;stroke-linecap:butt;stroke-linejoin:miter;stroke-opacity:1" d="M283.566 303.837c2.71 1.152 7.15 1.39 10.699.416M279.166 353.384l7.936-88.295M284.2 297.41c3.213.92 6.399.835 9.521-.093M305.796 227.853c.623 5.764-.802 13.011 3.52 17.26M325.003 310.126c-9.302-9.554-6.938-24.735-8.523-35.79M284.631 291.468c.938.929 7.154 1.289 8.5.116M284.926 286.359c1.196.075 5.443 1.054 7.526-.185M285.894 278.984c2.335 1.202 4.241.86 6.267.093M286.154 273.505c1.33.94 5.349.726 5.889.346M327.633 298.381c-5.55-3.982-8.362-14.963-9.43-23.582M310.54 248.536c.131 6.642 6.598 11.65 7.753 17.593M314.598 266.384c.059-1.196-2.539-4.315-4.21-5.372"/>
    <path style="fill:#ccc;fill-opacity:1;stroke:#000;stroke-width:.893173px;stroke-linecap:butt;stroke-linejoin:miter;stroke-opacity:1" d="M319.157 274.478c1.58-1.08 1.33-4.03-.921-4.436-1.067-.193-4.088.019-4.926.906-1.025 1.087-.435 3.516 1.361 3.93 1.677.386 3.762.095 4.486-.4z"/>
    <path style="fill:#ececec;stroke:#000;stroke-width:.813741px;stroke-linecap:butt;stroke-linejoin:miter;stroke-opacity:1" d="M286.956 261.528c-2.099-.194-1.843 4.034-.405 4.385 1.81.442 4.126.224 6.007-.385.964-.312 1.693-4.303-.075-4.167-2.091.161-3.811.326-5.527.167z"/>
    <path style="fill:url(#F);fill-opacity:1;stroke:#000;stroke-width:.993121px;stroke-linecap:butt;stroke-linejoin:miter;stroke-opacity:1" d="m340.428 372.279-2.872 4.439c-6.518.784-20.03-1.067-20.177-8.62-.09-4.629 10.619-11.366 29.905-8.802l-1.648 4.417c-5.556-1.156-17.834-1.215-20.05 3.142-2.124 4.174 5.782 5.01 14.842 5.424z"/>
    <path style="fill:none;stroke:#000;stroke-width:.993121px;stroke-linecap:butt;stroke-linejoin:miter;stroke-opacity:1" d="M280.483 341.013c3.573 1.732 9.957 3.2 16.185.093M280.12 346.1c5.04 1.63 11.659 1.789 17.137-.278M281.57 325.754c2.79 1.469 10.584 1.09 14.236.185M281.072 332.69c1.875 2.01 13.294 2.002 15.097.509"/>
    <path style="fill:#d9d9d9;fill-opacity:1;stroke:#000;stroke-width:.843384;stroke-linecap:square;stroke-linejoin:miter;stroke-miterlimit:4;stroke-dasharray:none;stroke-opacity:1" d="M292.66 203.376a2.53 2.413 0 1 1-5.06 0 2.53 2.413 0 1 1 5.06 0z"/>
    <path style="fill:#ececec;stroke:#000;stroke-width:.619551px;stroke-linecap:butt;stroke-linejoin:miter;stroke-opacity:1" d="M288.333 223.672c-1.592-.294-1.864 2.892-.502 3.28 1.157.33 3.032.234 4.886-.22 1.083-.266 1.051-3.636-.56-3.22-1.557.403-2.413.42-3.824.16z"/>
    <path style="fill:#f2f2f2;fill-opacity:1;stroke:#000;stroke-width:1.3;stroke-linecap:butt;stroke-linejoin:miter;stroke-miterlimit:4;stroke-dasharray:none;stroke-opacity:1" d="M200.648 414.478c32.951-.76 43.604-11.975 78.07-12.203 42.27-.28 61.57 35.024 118.71 12.7.218 6.976-.446 21.094-1.497 26.972-49.847 25.938-72.962-9.164-119.755-9.507-38.382-.28-43.654 12.496-78.786 12.94-34.871.441-46.456-11.232-86.576-11.3-42.013-.07-60.365 25.253-105.995 14.838-1.647-7.56-2.698-24.499-2.309-36.29 26.741 20.478 77.618-10.3 106.286-11.014 44.392-1.104 44.85 13.95 91.852 12.864z"/>
    <path style="fill:#ececec;fill-opacity:1;stroke:#000;stroke-width:.595872;stroke-linecap:square;stroke-linejoin:miter;stroke-miterlimit:4;stroke-dasharray:none;stroke-opacity:1" d="M281.37 354.692a2.21 2.172 0 1 1-4.421 0 2.21 2.172 0 1 1 4.42 0z"/>
    <path style="fill:none;stroke:#000;stroke-width:.993121px;stroke-linecap:butt;stroke-linejoin:miter;stroke-opacity:1" d="M205.275 351.204c6.703 2.565 17.846 2.697 25.075.102"/>
</svg>
