<svg xmlns="http://www.w3.org/2000/svg" xml:space="preserve" viewBox="30.5 31.5 420 500" height="500" width="420">
    <path style="fill:#0085ca;fill-opacity:1;fill-rule:evenodd" d="M41 32.7c-2.09 102.46 3.38 187.49 43.93 296.59 28.05 75.48 74.21 144.77 155.57 201.59 81.36-56.82 127.52-126.11 155.57-201.59C436.62 220.19 442.09 135.16 440 32.7c-133 .29-266 0-399 0z"/>
    <path style="fill:#fff;fill-rule:evenodd;stroke:none;stroke-width:1px;stroke-linecap:butt;stroke-linejoin:miter;stroke-opacity:1" d="M45.791 168.754h229.721l36.063-35.709h31.113v-18.738H41.593c.99 17.969 1.809 36.012 4.198 54.447z"/>
    <path d="M45.791 168.754h229.721l36.063-35.709h31.113v-18.738H41.593" style="fill:none;fill-rule:evenodd;stroke:#000;stroke-width:1px;stroke-linecap:butt;stroke-linejoin:miter;stroke-opacity:1"/>
    <path d="M68.044 278.754h173.469l36.062-35.709h31.113v-18.738H54.653c3.643 18.499 9.234 39.371 13.391 54.447z" style="fill:#fff;fill-rule:evenodd;stroke:none;stroke-width:1px;stroke-linecap:butt;stroke-linejoin:miter;stroke-opacity:1"/>
    <path style="fill:none;fill-rule:evenodd;stroke:#000;stroke-width:1px;stroke-linecap:butt;stroke-linejoin:miter;stroke-opacity:1" d="M68.044 278.754h173.469l36.062-35.709h31.113v-18.738H54.653"/>
    <path style="fill:#fff;fill-rule:evenodd;stroke:none;stroke-width:1px;stroke-linecap:butt;stroke-linejoin:miter;stroke-opacity:1" d="M110.883 386.754h94.63l36.062-35.709h31.113v-18.738H86.178c7.532 20.09 17.19 40.432 24.705 54.447z"/>
    <path d="M110.883 386.754h94.63l36.062-35.709h31.113v-18.738H86.178" style="fill:none;fill-rule:evenodd;stroke:#000;stroke-width:1px;stroke-linecap:butt;stroke-linejoin:miter;stroke-opacity:1"/>
    <path style="fill:none;stroke:#000" d="M41 32.7c-2.09 102.46 3.38 187.49 43.93 296.59 28.05 75.48 74.21 144.77 155.57 201.59 81.36-56.82 127.52-126.11 155.57-201.59C436.62 220.19 442.09 135.16 440 32.7c-133 .29-266 0-399 0z"/>
</svg>
