<svg xmlns="http://www.w3.org/2000/svg" width="400" height="500" viewBox="30.5 31.5 400 500" xml:space="preserve">
    <path style="fill:#e00e00;fill-opacity:1" d="M230.44 531.14C156.12 477.22 105.18 409.12 74.7 322.98c-27.64-78.1-38.73-172.75-33.91-289.35l.02-.46h379.82l.02.46c4.81 116.6-6.28 211.24-33.91 289.35-30.48 86.14-81.42 154.24-155.74 208.16l-.28.2-.28-.2z"/>
    <path d="M230.052 60.325c3.134 12.006 3.996 24.79 3.721 38.153-.477 23.166-18.226 39.292-18.68 62.097-.332 16.624 4.308 27.215 4.06 41.803-.434 25.521-12.137 34.884-11.866 61.509.186 18.356 8.602 20.528 7.9 46.052-.428 15.584-13.767 28.563-15.53 48.516-1.635 18.504 3.655 20.53 5.253 34.674 1.591 14.079-2.738 32.304-13.091 43.578 3.874-13.24.953-31.694-3.262-38.373-11.786-18.678-21.406-28.051-20.08-43.798 1.312-15.566 4.784-27.839 3.415-45.744-2.303-30.142-15.756-30.392-15.058-60.218.375-15.977 5.19-19.316 5.432-38.347.325-25.495-12.512-56.614-27.647-69.302 5.034 13.377 7.053 30.495 6.891 45.59-.317 29.718-15.394 37.135-18.256 63.578-1.512 13.97 5.2 31.298 8.6 47.184 7.326 34.241-5.535 39.213-4.681 62.584.8 21.86 5.708 21.569 5.827 36.512.132 16.406-10.37 18.557-11.372 21.935 26.78 41.522 67.533 83.438 108.872 112.618 49.594-36.734 81.348-71.202 108.785-112.561-5.452-5.198-13.999-8.992-14.323-27.407-.346-19.65 14.1-30.226 14.169-59.91.045-19.275-11.294-41.853-10.413-63.851 1.184-29.606 9.03-36.913 9.38-59.563.309-19.946-12.66-49.171-30.766-66.055 7.667 28.955 9.61 39.068 8.639 53.484-2.427 36-26.964 49.965-18.217 87.792 3.3 14.271 3.844 25.755 2.724 36.745-2.791 27.38-23.43 38.83-21.9 65.894.976 17.273-1.06 32.74-13.672 51.213 0 0 1.12-18.473-1.323-27.107-5.754-20.34-12.582-28.146-13.263-47.692-.576-16.53 9.827-31.107 9.37-48.756-.64-24.628-14.176-40.902-14.142-62.044.03-18.672 6.917-30.769 6.609-49.695-.226-13.848-6.57-28.965-7.23-43.3-.802-17.44 8.24-27.394 6.333-45.832-1.998-19.324-12.879-42.534-21.208-51.956Z" style="fill:#ffe000;fill-opacity:1;stroke:none;stroke-linejoin:round;stroke-opacity:1"/>
    <path d="M419.96 33.21c9.07 219.45-36.26 385.95-189.46 497.1C77.31 419.16 31.99 252.66 41.06 33.21h378.9m.92-.95H40.14l-.04.92c-4.82 116.66 6.28 211.36 33.93 289.52 30.51 86.24 81.51 154.41 155.91 208.39l.56.41.56-.41c74.4-53.98 125.4-122.15 155.91-208.39 27.65-78.16 38.75-172.86 33.93-289.52l-.04-.92z"/>
    <path style="fill:none;fill-opacity:1;stroke:#000;stroke-linejoin:round;stroke-opacity:1" d="M339.285 418.365c-5.452-5.198-13.999-8.992-14.323-27.407-.346-19.65 14.1-30.226 14.169-59.91.045-19.275-11.294-41.853-10.413-63.851 1.184-29.606 9.03-36.913 9.38-59.563.309-19.946-12.66-49.171-30.766-66.055 7.667 28.955 9.61 39.068 8.639 53.484-2.427 36-26.964 49.965-18.217 87.792 3.3 14.271 3.844 25.755 2.724 36.745-2.791 27.38-23.43 38.83-21.9 65.894.976 17.273-1.06 32.74-13.672 51.213 0 0 1.12-18.473-1.323-27.107-5.754-20.34-12.582-28.146-13.263-47.692-.576-16.53 9.827-31.107 9.37-48.756-.64-24.628-14.176-40.902-14.142-62.044.03-18.672 6.917-30.769 6.609-49.695-.226-13.848-6.57-28.965-7.23-43.3-.802-17.44 8.24-27.394 6.333-45.832-1.998-19.324-12.879-42.534-21.208-51.956 3.134 12.006 3.996 24.79 3.721 38.153-.477 23.166-18.226 39.292-18.68 62.097-.332 16.624 4.308 27.215 4.06 41.803-.434 25.521-12.137 34.884-11.866 61.509.186 18.356 8.602 20.528 7.9 46.052-.428 15.584-13.767 28.563-15.53 48.516-1.635 18.504 3.655 20.53 5.253 34.674 1.591 14.079-2.738 32.304-13.091 43.578 3.874-13.24.953-31.694-3.262-38.373-11.786-18.678-21.406-28.051-20.08-43.798 1.312-15.566 4.784-27.839 3.415-45.744-2.303-30.142-15.756-30.392-15.058-60.218.375-15.977 5.19-19.316 5.432-38.347.325-25.495-12.512-56.614-27.647-69.302 5.034 13.377 7.053 30.495 6.891 45.59-.317 29.718-15.394 37.135-18.256 63.578-1.512 13.97 5.2 31.298 8.6 47.184 7.326 34.241-5.535 39.213-4.681 62.584.8 21.86 5.708 21.569 5.827 36.512.132 16.406-10.37 18.557-11.372 21.935"/>
</svg>
