<svg xmlns="http://www.w3.org/2000/svg" xml:space="preserve" viewBox="30.5 31.5 400 500" height="500" width="400">
    <path d="M230.44 531.14C156.12 477.22 105.18 409.12 74.7 322.98c-27.64-78.1-38.73-172.75-33.91-289.35l.02-.46h379.82l.02.46c4.81 116.6-6.28 211.24-33.91 289.35-30.48 86.14-81.42 154.24-155.74 208.16l-.28.2-.28-.2z" fill="#0085ca"/>
    <path d="M419.96 33.21c9.07 219.45-36.26 385.95-189.46 497.1C77.31 419.16 31.99 252.66 41.06 33.21h378.9m.92-.95H40.14l-.04.92c-4.82 116.66 6.28 211.36 33.93 289.52 30.51 86.24 81.51 154.41 155.91 208.39l.56.41.56-.41c74.4-53.98 125.4-122.15 155.91-208.39 27.65-78.16 38.75-172.86 33.93-289.52l-.04-.92z"/>
    <path d="M240.89 248.12h68.4c.17 33.81-3.84 66.55-18.19 98.56-9.51 21.23-24.95 44.44-54.02 68.29v13.5h11.11v49.06c0 11.4-9.54 18.11-17.68 18.11-8.15 0-17.68-6.71-17.68-18.11v-49.06h11.11v-13.5c-29.09-23.85-44.52-47.06-54.04-68.29-14.34-32.01-18.36-64.75-18.18-98.56h68.4V128.93l-80.17-33.18 100.94-36.82Z" style="fill-rule:evenodd;fill:#fff;stroke-miterlimit:4;stroke:#000"/>
    <path d="M223.03 476.51V437.4h14.94v39.11c0 5.34-2.87 8.03-7.47 8.16-4.6-.12-7.47-2.81-7.47-8.16z" style="fill-rule:evenodd;fill:#0085ca;stroke-width:.96;stroke:#000"/>
</svg>
