<svg xmlns="http://www.w3.org/2000/svg" width="400" height="500" viewBox="30.5 31.5 400 500" xml:space="preserve">
    <path fill="#32ac60" d="M230.44 531.14C156.12 477.22 105.18 409.12 74.7 322.98c-27.64-78.1-38.73-172.75-33.91-289.35l.02-.46h379.82l.02.46c4.81 116.6-6.28 211.24-33.91 289.35-30.48 86.14-81.42 154.24-155.74 208.16l-.28.2-.28-.2z"/>
    <path d="M419.96 33.21c9.07 219.45-36.26 385.95-189.46 497.1C77.31 419.16 31.99 252.66 41.06 33.21h378.9m.92-.95H40.14l-.04.92c-4.82 116.66 6.28 211.36 33.93 289.52 30.51 86.24 81.51 154.41 155.91 208.39l.56.41.56-.41c74.4-53.98 125.4-122.15 155.91-208.39 27.65-78.16 38.75-172.86 33.93-289.52l-.04-.92z"/>
    <path d="M176.234 51.815c-23.71.853-47.038 21.45-53.533 44.356-32.033 5.327-58.932 30.947-59.24 66.449-.285 32.77 25.967 70.165 69 69.155 40.837-.958 67.77-33.704 67.308-68.385-.507-38.016-29.655-61.902-57.604-66.691 4.431-15.357 15.215-26.726 31.11-26.797 24.57-.11 49.079 30.225 50.403 44.507.918 9.894.887 27.342-.71 38.935-3.752 27.262-5.239 43.72-4.242 63.189 1.287 25.132.758 44.391 2.774 70.575 2.433 31.595-7.45 60.22-12.171 87.82-.827 4.835-17.11-6.774-16.554-8.713 5.538-19.326 13.166-39.797 13.94-60.375.845-22.448-5.324-52.029-13.505-72.316-15.61 20.04-22.337 35.723-23.524 55.762-8.55-18.022-23.387-31.105-39.425-36.158.217 19.596-.356 34.55 10.237 51.84-18.545-26.145-33.585-39.399-55.326-46.395 2.196 35.4 31.228 64.348 41.604 73.187-9.424-4.045-22.804.847-27.881 2.396 6.65 13.64 24.673 24.593 45.524 30.06-10.474 3.065-19.586 8.897-22 18.296 14.512 5.64 27.883 6.153 42.04 3.05 13.469-2.953 17.82-1.567 23.306 4.574l14.594 16.336c4.737 5.303-1.12 7.555-3.703 9.366-4.742 3.326-16.753 3.532-14.158 10.02 5.497 13.746 2.391 23.147 4.792 23.524 3.05.48 6.099.036 9.148 0 .75 5.445-3.601 11.682-8.713 15.466-2.605 1.928 2.333 6.273 4.139 5.445 9.24-4.234 14.573-11.976 18.297-24.178.767-2.514 13.062-4.483 12.306-3.267-2.967 4.774-2.967 9.142-2.967 15.465 0 11.092-2.766 20.355-7.161 29.623-.864 1.823 4.705 5.812 7.161 5.01 6.013-5.793 9.825-13.167 10.416-20.257 1.27-15.243.795-22.9 3.987-31.802 1.779-4.962 19.142-10.208 18.95-6.643-.095 1.776 2.971 3.645 3.246 8.575.395 7.094 2.99 8.903 8.298 11.247 1.63.718 7.565-6.058 6.1-7.624-7.482-7.993-1.917-13.514-9.802-17.535l26.464-10.455c3.047-1.203 1.835-32.129-2.069-31.148l-42.474 10.673c11.883-10.942 18.848-19.917 29.405-32.02 11.338-12.997 34.939-12.465 52.712-14.375 13.566-1.458 27.734-7.507 33.326-13.07-3.961-5.167-11.144-9.196-20.039-9.801 15.277-14.72 29.014-26.258 35.069-44.435-13.66 2.527-22.199 6.199-42.475 18.732 13.694-18.7 25.058-40.01 28.534-59.9-17.856 6.845-39.315 25.805-53.365 45.742-1.589-16.475-4.874-33.768-12.851-49.445-9.672 16.199-12.079 37.505-13.07 57.94-7.473-21.804-12.408-43.843-27.227-64.256-12.807 42.962.875 80.087 8.495 108.691-4.099 6.45-11.22 19.367-21.128 28.317-2.361 2.132-2.718-2.426-2.502-4.793 2.743-29.993 1.96-63.885 0-94.097-3.31-51.015-4.093-100.723 0-149.412 1.459-17.352 19.654-48.003 44.225-47.893 15.895.07 24.679 7.44 29.11 22.797-27.949 4.789-57.097 28.675-57.604 66.691-.462 34.681 26.47 67.427 67.307 68.385 43.034 1.01 69.286-36.385 69.002-69.155-.309-35.502-27.208-61.122-59.241-66.449-4.317-26.391-27.823-39.503-51.533-40.356-22.199-.798-37.266 19.245-47.266 29.543-11.307-14.911-35.067-34.341-57.266-33.543Z" style="fill:#fff;fill-rule:evenodd;stroke:#000;stroke-width:1px;stroke-linecap:round;stroke-linejoin:round;stroke-opacity:1"/>
    <path d="M111.515 111.408c2.06-3.057-11.8 1.682-17.872 7.753-13.91 13.909-18.074 26.209-18.26 33.756-.348 14.182 16.765 6.982 18.574-1.695 1.67-8.014 3.148-13.887 6.462-21.295 2.786-6.231 5.971-10.913 11.096-18.52zM165.544 114.785c4.045 1.841 6.81 5.518 9.622 8.48 9.394 9.895 13.654 23.034 16.132 32.732 1.81 7.082-12.717 7.891-15.286-1.777-2.023-7.617-3.387-14.78-5.722-22.303-1.412-4.55-8.815-18.984-4.746-17.132zM141.863 110.253c4.75 2.333 8.169 6.17 10.836 9.235 8.982 10.32 10.235 20.048 10.567 30.656.348 11.1-19.641 11.232-21.409 2.156-1.56-8.01-1.874-14.056-2.156-22.55-.187-5.617-2.156-21.618 2.162-19.497zM127.234 109.565c-4.03-.44-8.84 7.849-11.107 11.867-4.047 7.168-10.534 19.252-10.79 28.866-.348 13.043 19.72 11.61 22.64 2.002 2.022-6.647 2.357-17.935 2.64-30.111.097-4.148-.535-12.313-3.383-12.624zM351.669 113.637c11.28-.153 27.384 33.808 27.647 43.203.348 12.466-13.216 8.199-15.596 1-3.106-9.393-4.97-16.537-7.782-26.308-1.432-4.978-8.15-17.843-4.27-17.895zM287.816 116.427c-14.534 11.357-20.779 28.118-22.86 40.027-1.835 10.493 14.164 8.249 15.805-.315 1.662-8.675 5.284-24.008 9.962-32.888 1.769-3.358 4.775-12.296-2.907-6.824zM315.551 108.939c-5.061-1.756-11.512 7.482-16.221 18.314-3.583 8.24-5.881 16.633-6.035 22.579-.348 13.458 18.022 12.494 20.947 1.155.98-3.8 2.319-10.142 2.953-17.128.996-10.955 2.483-23.488-1.644-24.92zM331.664 110.017c6.785-.254 11.567 12.63 13.787 19.429 2.323 7.113 3.048 14.11 3.232 21.002.347 13.043-17.332 13.38-20.254 3.773-1.446-4.756-1.397-12.303-1.46-21.02-.055-7.716-.177-23.001 4.695-23.184z" style="fill:#32ac60;fill-rule:evenodd;stroke:#000;stroke-width:1px;stroke-linecap:butt;stroke-linejoin:miter;stroke-opacity:1;fill-opacity:1"/>
</svg>
