<svg xmlns="http://www.w3.org/2000/svg" width="400" height="500" viewBox="30.5 31.5 400 500" xml:space="preserve">
    <path d="M230.55 531.13c74.32-53.92 125.26-122.02 155.74-208.16 27.64-78.1 38.73-172.75 33.91-289.35l-.02-.46H40.36l-.02.46c-4.81 116.6 6.28 211.24 33.91 289.35 30.48 86.14 81.42 154.24 155.74 208.16l.28.2z" fill="#0085ca"/>
    <path d="M41.04 33.21c-9.07 219.45 36.25 385.95 189.45 497.1 84.47-61.29 136.15-139.41 163.99-233.97a557.24 557.24 0 0 0 5.87-21.54c11.45-45.69 17.77-95.02 19.88-147.94 1.2-30.06 1.05-61.28-.29-93.65H41.04m-.92-.95H420.86l.04.92c4.82 116.66-6.28 211.36-33.93 289.52-30.51 86.24-81.51 154.41-155.91 208.39l-.56.41-.56-.41c-74.4-53.98-125.4-122.15-155.91-208.39C46.38 244.54 35.28 149.84 40.1 33.18l.04-.92z"/>
    <path d="M93.34 198.19c26.58 33.78 73.24 74.62 99.33 91.2l-36.3 23.43c3.63 16.26 39.78 45.63 70.31 43.1 85.39-7.06 82.33-121 54.79-239.95l-69.45-27.72-.63-37.8 167.9 23.1-.88 44.02c-14.53 3.7-26.62.6-27.27 37.04-2.58 146.1 40.41 193.72-149.23 294.09-67.87-68.82-111.68-146.93-108.57-250.51Z" style="fill:#fff;stroke-miterlimit:4;stroke:#000"/>
</svg>
