<svg xmlns="http://www.w3.org/2000/svg" xml:space="preserve" viewBox="30.5 31.5 400 500" height="500" width="400">
    <path d="M230.78 531.3c74.32-53.92 125.26-122.02 155.74-208.16 27.64-78.1 38.73-172.75 33.91-289.35l-.02-.46H40.59l-.02.46c-4.81 116.6 6.28 211.24 33.91 289.35 30.48 86.14 81.42 154.24 155.74 208.16l.28.2z" fill="#32ac60"/>
    <path d="M244.11 520.67c-1.09-25.02-2.71-48.04-5.28-78.56-.77-9.14 9.64-15.68 14.4-22.29 26.5-36.8 54.13-64.35 70.14-99.79 12.14-26.86 24.76-40.32 25.64-43.13 2.23-7.11.62-10.05-7.37-4.08l-3.31 2.47 1.74-42.23c1.35-5.45 4.79-6.8 8.36-7.12 30.17-2.7 44.65-6.68 47.78-16.84-1.95-.66-1.55-.77-4.33-.93 2.44-2.64 5.25-11.1 7.29-16.72-1.91-.58-5.36-1.8-8.04-2.01 2.67-4.83 4.59-15.75 4.95-25.06-3.09.02-7.74 1.17-10.83 2.47.29-6.34-.26-15.46-.93-20.1-3.89-.08-7.65.24-11.14 1.39-.04-3.96.37-9.06-.62-16.55-4.59.21-6.8.72-10.52 1.7-.23-5.35-1.69-13.29-2.63-16.7-2.59.16-4.84 1.13-7.73 2.01-.34-4.87-.56-11.51-2.32-17.17l-6.19 1.7c.62-3.38-.93-14.13-.93-14.13l-3.72.93c-.05-6.79-1.93-10.84-4.03-15.26-2.1 4.42-3.98 8.47-4.03 15.26l-3.72-.93s-1.55 10.75-.93 14.13l-6.19-1.7c-1.76 5.66-1.98 12.3-2.32 17.17-2.89-.88-5.14-1.85-7.73-2.01-.94 3.42-2.4 11.35-2.63 16.7-3.73-.98-5.93-1.49-10.52-1.7-.99 7.48-.57 12.59-.62 16.55-3.37-.57-7.16-1.03-11.14-1.39-1.47 6.56.82 14.99 2.35 18.36-3.09-1.3-7.74-2.45-10.83-2.47.36 9.31 1.19 21.98 3.86 26.8-2.6-.56-4.89-1.2-6.95-1.7.19 6.15.51 13.77 5.54 18.25-2.78.15-2.38.26-4.33.93 3.13 10.16 18.08 16.33 48.25 19.03 3.56.32 8.63 1.42 8.66 7.12.45 68.9-30.06 108.39-42.27 124.32l-.34-7.21c-.39-8.12-3.54-9.91-6.99-3.74-4.82 8.62-4.6 14.42-3.94 23.93-10.32 15.9-21.23 26.02-36.77 42.22-2.14 2.23-5.47.56-5.54-5.03l-.92-73.91c-.07-5.7 5.1-6.8 8.66-7.12 30.17-2.7 44.43-8.43 47.56-18.59-1.95-.66-1.55-.77-4.33-.93 2.44-2.64 6.78-8.91 8.82-14.54-1.91-.58-5.36-1.8-8.04-2.01 2.67-4.83 4.59-15.75 4.95-25.06-3.09.02-7.74 1.17-10.83 2.47.29-6.34-.26-15.46-.93-20.1-3.89-.08-7.65.24-11.14 1.39-.04-3.96.37-9.06-.62-16.55-4.59.21-6.8.72-10.52 1.7-.23-5.35-1.69-13.29-2.63-16.7-2.59.16-4.84 1.13-7.73 2.01-.34-4.87-.56-11.51-2.32-17.17l-6.19 1.7c.62-3.38-.93-14.13-.93-14.13l-3.72.93c-.05-6.79-1.93-10.84-4.03-15.26-2.1 4.42-3.98 8.47-4.03 15.26l-3.72-.93s-1.55 10.75-.93 14.13l-6.19-1.7c-1.76 5.66-1.98 12.3-2.32 17.17-2.89-.88-5.14-1.85-7.73-2.01-.94 3.42-2.4 11.35-2.63 16.7-3.73-.98-5.93-1.49-10.52-1.7-.99 7.48-.57 12.59-.62 16.55-3.48-1.15-7.24-1.47-11.14-1.39-.67 4.64-1.22 13.76-.93 20.1-3.09-1.3-7.12-.91-10.21-.93.36 9.31 1.66 18.69 4.34 23.51-2.68.21-6.14 1.43-8.04 2.01 2.04 5.63 6.37 11.9 8.82 14.54-2.78.15-2.38.26-4.33.93 3.13 10.16 15.64 15.24 45.81 17.93 3.56.32 8.73 1.42 8.66 7.12l-.92 75.91c-.07 5.58-3.4 7.26-5.54 5.03-15.55-16.2-24.71-27.66-35.03-43.56 2.2-11.67.88-19.31-3.94-27.93-3.45-6.17-7.1-7.25-8.99.65l-1.58 6.59c-10.27-17.16-43.07-46.4-39.03-116.61.33-5.69 5.21-8.05 8.77-8.43 30.11-3.14 43.71-9.02 47.05-17.72-.75-.55-1.98-.23-3.57-.38 2.44-2.64 4.16-8.53 6.2-14.16-2.02-1.46-3.83-3.11-6.84-3.98 2.67-8.65 4.15-17.14 4.52-26.42-3.09.02-7.74 1.17-10.83 2.47.29-6.34 1.92-13.06 1.26-17.7-3.89-.08-7.65.24-11.14 1.39-.04-3.96.37-9.06-.62-16.55-4.59.21-6.8.72-10.52 1.7-.23-5.35-1.69-13.29-2.63-16.7-2.59.16-4.84 1.13-7.73 2.01-.34-4.87-.56-11.51-2.32-17.17l-6.19 1.7c.62-3.38-.93-14.13-.93-14.13l-3.72.93c-.05-6.79-1.93-10.84-4.03-15.26-2.1 4.42-3.98 8.47-4.03 15.26l-3.72-.93s-1.55 10.75-.93 14.13l-6.19-1.7c-1.76 5.66-1.98 12.3-2.32 17.17-2.89-.88-5.14-1.85-7.73-2.01-.94 3.42-2.4 11.35-2.63 16.7-3.73-.98-5.93-1.49-10.52-1.7-.99 7.48-.57 12.59-.62 16.55-3.48-1.15-7.24-1.47-11.14-1.39-.67 4.64-1.22 13.76-.93 20.1-3.09-1.3-7.74-2.45-10.83-2.47.36 9.31 2.28 20.23 4.95 25.06-2.68.21-6.14 1.43-8.04 2.01 2.04 5.63 6.37 11.9 8.82 14.54-2.78.15-2.38.26-4.33.93 3.13 10.16 16.39 14.94 46.56 17.64 3.56.32 8.82 1.42 8.66 7.12l-1.08 38.61-3.31-2.47c-4.58-3.42-7.1-2.34-4.86 4.77.88 2.81 17.18 28.2 25.95 47.45 16.41 36.02 43.11 66.1 68.58 99.46 5.28 6.92 15.71 16.05 15.63 20.44-.52 27.79 2.16 58.98 1.56 86.18l6.49 4.82c4.9-3.66 9.05-6.69 13.61-10.25z" style="fill-rule:evenodd;fill:#fff;stroke:#000"/>
    <path d="M41.04 33.21c-9.07 219.45 36.25 385.95 189.45 497.1 84.47-61.29 136.15-139.41 163.99-233.97a557.24 557.24 0 0 0 5.87-21.54c11.45-45.69 17.77-95.02 19.88-147.94 1.2-30.06 1.05-61.28-.29-93.65H41.04m-.92-.95H420.86l.04.92c4.82 116.66-6.28 211.36-33.93 289.52-30.51 86.24-81.51 154.41-155.91 208.39l-.56.41-.56-.41c-74.4-53.98-125.4-122.15-155.91-208.39C46.38 244.54 35.28 149.84 40.1 33.18l.04-.92z"/>
</svg>
