<svg xmlns="http://www.w3.org/2000/svg" width="400" height="500" viewBox="30.5 31.5 400 500" xml:space="preserve">
    <path style="fill:#0085ca;fill-opacity:1" d="M230.45 531.13c-74.32-53.92-125.26-122.02-155.74-208.16-27.64-78.1-38.73-172.75-33.91-289.35l.02-.46h379.82l.02.46c4.81 116.6-6.28 211.24-33.91 289.35-30.48 86.14-81.42 154.24-155.74 208.16l-.28.2z"/>
    <path d="M419.96 33.21c9.07 219.45-36.25 385.95-189.45 497.1C146.04 469.02 94.36 390.9 66.52 296.34a557.24 557.24 0 0 1-5.87-21.54c-11.45-45.69-17.77-95.02-19.88-147.94-1.2-30.06-1.05-61.28.29-93.65h378.9m.92-.95H40.14l-.04.92c-4.82 116.66 6.28 211.36 33.93 289.52 30.51 86.24 81.51 154.41 155.91 208.39l.56.41.56-.41c74.4-53.98 125.4-122.15 155.91-208.39 27.65-78.16 38.75-172.86 33.93-289.52l-.04-.92z"/>
    <path d="M136.36 391.5c-.17-4.403 4.553-9.621 10.673-12.473 8.948-4.17 13.695-1.718 18.079-9.584 4.753-8.528 9.75-7.32 24.395-11.26 8.64-2.325 5.05-24.3 7.842-36.007 1.183-4.961 4.373-7.676 10.89-10.237 3.081-1.21 2.246-18.6 1.308-25.05-.614-4.219-7.503-6.744-11.64-10.415-2.445-2.169-3.135-8.843-.063-11.435 4.925-4.157 10.106-6.828 11.58-10.822 1.337-3.619 1.223-16.334-.125-18.079-3.16-4.091-7.542-3.298-10.207-5.881-3.746-3.63-.965-9.829-12.416-11.762-8.613-1.454-17.4-7.328-23.525-12.416-12.505-10.388-27.385-28.122-27.88-48.653l-.872-36.078c-.218-9.037-2.932-17.252-10.237-27.01L113.053 79.5h234.894l-11.109 14.838c-7.305 9.758-10.02 17.973-10.237 27.01l-.872 36.078c-.495 20.53-15.375 38.265-27.88 48.653-6.125 5.088-14.912 10.962-23.525 12.416-11.451 1.933-8.67 8.133-12.416 11.762-2.665 2.583-7.048 1.79-10.207 5.881-1.348 1.745-1.462 14.46-.126 18.08 1.475 3.993 6.656 6.664 11.581 10.82 3.072 2.593 2.382 9.267-.063 11.436-4.137 3.671-11.026 6.196-11.64 10.416-.938 6.45-1.773 23.838 1.307 25.049 6.518 2.561 9.708 5.276 10.891 10.237 2.791 11.708-.798 33.682 7.842 36.007 14.645 3.94 19.642 2.732 24.395 11.26 4.384 7.866 9.13 5.414 18.08 9.584 6.12 2.852 10.842 8.07 10.672 12.473H136.36z" style="fill:#fff;fill-rule:evenodd;stroke:#000;stroke-width:1px;stroke-linecap:butt;stroke-linejoin:round;stroke-opacity:1"/>
</svg>
