<svg xmlns="http://www.w3.org/2000/svg" height="500" width="382.735" version="1.0">
    <path style="fill:#e00e00;fill-opacity:1;fill-rule:evenodd;stroke:none;stroke-opacity:1" d="M381.094 1.433v249.169C363.288 394.462 190.972 499.267 191.5 499.267c.528 0-172.033-104.806-189.839-248.665V1.433"/>
    <path style="fill:#ffe000;fill-opacity:1;stroke:#000;stroke-linecap:round;stroke-linejoin:round;stroke-opacity:1" d="M204.286 288.498c3.486-.708 6.835-1.58 10.111-2.786l72.53 100.181L236.27 272.61c2.772-2.422 5.377-5.017 7.738-7.842l93.68 34.563-81.403-55.816c1.42-3.97 2.41-8.117 3.096-12.38l99.561-11.556-99.665-11.555c-.669-3.913-1.701-7.687-2.992-11.35l100.49-72.84-113.283 50.555a70.438 70.438 0 0 0-7.119-7.222l50.348-112.87-72.324 99.87c-3.384-1.247-6.813-2.275-10.42-2.992L191.39 29.33l-12.587 121.846c-3.607.717-7.036 1.745-10.42 2.992l-72.325-99.87 50.349 112.87a70.438 70.438 0 0 0-7.12 7.222L26.005 123.835l100.49 72.84c-1.29 3.662-2.322 7.436-2.992 11.349l-99.664 11.555 99.561 11.555c.686 4.264 1.676 8.41 3.095 12.38l-81.403 55.817 93.68-34.563c2.362 2.825 4.967 5.42 7.739 7.842L95.852 385.893l72.53-100.18c3.277 1.205 6.626 2.077 10.111 2.785l12.897 122.363z"/>
    <path d="M381.094 1.433v249.169c-11.367 91.964-89.55 182.437-189.594 248.665C91.457 433.039 13.273 342.567 1.906 250.602V1.433z" style="fill:none;fill-rule:evenodd;stroke:#000;stroke-width:1px;stroke-linecap:butt;stroke-linejoin:miter;stroke-opacity:1"/>
</svg>
