<svg xmlns="http://www.w3.org/2000/svg" xml:space="preserve" viewBox="30.5 31.5 430 500" height="500" width="430">
    <path d="M459 33c6.857 230.035-42.906 398.013-213.5 497.75C74.906 431.013 25.143 263.035 32 33c133 0 80.5.29 213.5 0 133 .29 80.5 0 213.5 0z" style="fill:#ffe000;fill-opacity:1;stroke:none"/>
    <path style="fill:#32ac60;fill-opacity:1;fill-rule:evenodd;stroke:none;stroke-width:1px;stroke-linecap:butt;stroke-linejoin:miter;stroke-opacity:1" d="M132.946 435.786c-32.36-40.828-57.117-85.831-75.107-147.126l17.722-37.094 29.086-61.096c1.652-3.47-2.013-6.7-5.386-3.54-9.005 8.442-13.993 13.552-22.622 17.545-6.982 3.23-16.766 5.002-22.777-7.695-3.917-8.274-3.34-24.187 0-34.01 2.397-7.051 9.025-14.72 20.93-9.388 8.942 4.005 15.802 11.667 23.392 18.006 4.214 3.52 8.407-1.684 5.386-4.925-8.826-9.468-19.547-19.573-20.16-31.394-.421-8.121 6.874-15.569 26.787-15.569 19.914 0 27.209 7.448 26.788 15.569-.614 11.821-11.334 21.926-20.16 31.394-3.022 3.24 1.172 8.444 5.386 4.925 7.59-6.339 14.45-14.001 23.392-18.006 11.905-5.332 18.532 2.337 20.93 9.388 3.34 9.823 3.916 25.736 0 34.01-6.011 12.697-15.795 10.926-22.777 7.695-8.629-3.993-13.617-9.103-22.622-17.544-3.373-3.162-7.039.07-5.387 3.54l29.086 61.095 27.466 57.692c1.652 3.47-2.014 6.702-5.387 3.54-9.005-8.442-13.993-13.55-22.622-17.544-6.982-3.231-16.766-5.002-22.776 7.695-3.917 8.274-3.34 24.187 0 34.01 2.397 7.05 9.024 14.72 20.93 9.388 8.942-4.005 15.801-11.667 23.391-18.006 4.214-3.52 8.408 1.684 5.386 4.925-8.826 9.467-19.546 19.572-20.16 31.394-.421 8.12 6.874 15.569 26.788 15.569 19.913 0 27.208-7.448 26.787-15.569-.613-11.822-11.334-21.927-20.16-31.394-3.021-3.24 1.172-8.444 5.386-4.925 7.59 6.339 14.45 14 23.392 18.006 11.905 5.332 18.532-2.337 20.93-9.388 3.34-9.823 3.917-25.736 0-34.01-6.01-12.697-15.795-10.926-22.777-7.695-8.629 3.993-13.617 9.102-22.622 17.544-3.373 3.162-7.038-.07-5.386-3.54l27.465-57.692 29.086-61.096c1.652-3.47-2.013-6.7-5.386-3.54-9.006 8.442-13.994 13.552-22.623 17.545-6.981 3.23-16.765 5.002-22.776-7.695-3.917-8.274-3.34-24.187 0-34.01 2.397-7.051 9.025-14.72 20.93-9.388 8.942 4.005 15.802 11.667 23.391 18.006 4.215 3.52 8.408-1.684 5.387-4.925-8.827-9.468-19.547-19.573-20.16-31.394-.422-8.121 6.874-15.569 26.787-15.569s27.209 7.448 26.787 15.569c-.613 11.821-11.333 21.926-20.16 31.394-3.02 3.24 1.172 8.444 5.387 4.925 7.59-6.339 14.45-14.001 23.391-18.006 11.905-5.332 18.533 2.337 20.93 9.388 3.34 9.823 3.917 25.736 0 34.01-6.01 12.697-15.795 10.926-22.776 7.695-8.63-3.993-13.617-9.103-22.623-17.544-3.373-3.162-7.038.07-5.386 3.54l29.086 61.095 27.465 57.692c1.652 3.47-2.013 6.702-5.386 3.54-9.005-8.442-13.993-13.55-22.622-17.544-6.982-3.231-16.766-5.002-22.777 7.695-3.917 8.274-3.34 24.187 0 34.01 2.398 7.05 9.025 14.72 20.93 9.388 8.942-4.005 15.802-11.667 23.392-18.006 4.214-3.52 8.407 1.684 5.386 4.925-8.826 9.467-19.547 19.572-20.16 31.394-.421 8.12 6.874 15.569 26.787 15.569 19.914 0 27.21-7.448 26.788-15.569-.614-11.822-11.334-21.927-20.16-31.394-3.022-3.24 1.172-8.444 5.386-4.925 7.59 6.339 14.45 14 23.392 18.006 11.905 5.332 18.532-2.337 20.93-9.388 3.34-9.823 3.916-25.736 0-34.01-6.011-12.697-15.795-10.926-22.777-7.695-8.629 3.993-13.617 9.102-22.622 17.544-3.373 3.162-7.039-.07-5.387-3.54l27.466-57.692 29.086-61.096c1.652-3.47-2.014-6.7-5.387-3.54-9.005 8.442-13.993 13.552-22.622 17.545-6.982 3.23-16.766 5.002-22.776-7.695-3.917-8.274-3.34-24.187 0-34.01 2.397-7.051 9.024-14.72 20.93-9.388 8.942 4.005 15.801 11.667 23.391 18.006 4.214 3.52 8.408-1.684 5.386-4.925-8.826-9.468-19.546-19.573-20.16-31.394-.421-8.121 6.874-15.569 26.788-15.569 19.913 0 27.208 7.448 26.787 15.569-.613 11.821-11.334 21.926-20.16 31.394-3.021 3.24 1.172 8.444 5.386 4.925 7.59-6.339 14.45-14.001 23.392-18.006 11.905-5.332 18.533 2.337 20.93 9.388 3.34 9.823 3.917 25.736 0 34.01-6.01 12.697-15.795 10.926-22.777 7.695-8.629-3.993-13.617-9.103-22.622-17.544-3.373-3.162-7.038.07-5.386 3.54l29.086 61.095 17.722 37.094c-17.99 61.295-42.748 106.298-75.107 147.126-33.428 40.16-69.158 69.68-112.554 94.964-43.396-25.283-79.126-54.804-112.554-94.964Z"/>
    <path d="m57.839 288.66 17.722-37.094 29.086-61.096c1.652-3.47-2.013-6.7-5.386-3.54-9.005 8.442-13.993 13.552-22.622 17.545-6.982 3.23-16.766 5.002-22.777-7.695-3.917-8.274-3.34-24.187 0-34.01 2.397-7.051 9.025-14.72 20.93-9.388 8.942 4.005 15.802 11.667 23.392 18.006 4.214 3.52 8.407-1.684 5.386-4.925-8.826-9.468-19.547-19.573-20.16-31.394-.421-8.121 6.874-15.569 26.787-15.569 19.914 0 27.209 7.448 26.788 15.569-.614 11.821-11.334 21.926-20.16 31.394-3.022 3.24 1.172 8.444 5.386 4.925 7.59-6.339 14.45-14.001 23.392-18.006 11.905-5.332 18.532 2.337 20.93 9.388 3.34 9.823 3.916 25.736 0 34.01-6.011 12.697-15.795 10.926-22.777 7.695-8.629-3.993-13.617-9.103-22.622-17.544-3.373-3.162-7.039.07-5.387 3.54l29.086 61.095 27.466 57.692c1.652 3.47-2.014 6.702-5.387 3.54-9.005-8.442-13.993-13.55-22.622-17.544-6.982-3.231-16.766-5.002-22.776 7.695-3.917 8.274-3.34 24.187 0 34.01 2.397 7.05 9.024 14.72 20.93 9.388 8.942-4.005 15.801-11.667 23.391-18.006 4.214-3.52 8.408 1.684 5.386 4.925-8.826 9.467-19.546 19.572-20.16 31.394-.421 8.12 6.874 15.569 26.788 15.569 19.913 0 27.208-7.448 26.787-15.569-.613-11.822-11.334-21.927-20.16-31.394-3.021-3.24 1.172-8.444 5.386-4.925 7.59 6.339 14.45 14 23.392 18.006 11.905 5.332 18.532-2.337 20.93-9.388 3.34-9.823 3.917-25.736 0-34.01-6.01-12.697-15.795-10.926-22.777-7.695-8.629 3.993-13.617 9.102-22.622 17.544-3.373 3.162-7.038-.07-5.386-3.54l27.465-57.692 29.086-61.096c1.652-3.47-2.013-6.7-5.386-3.54-9.006 8.442-13.994 13.552-22.623 17.545-6.981 3.23-16.765 5.002-22.776-7.695-3.917-8.274-3.34-24.187 0-34.01 2.397-7.051 9.025-14.72 20.93-9.388 8.942 4.005 15.802 11.667 23.391 18.006 4.215 3.52 8.408-1.684 5.387-4.925-8.827-9.468-19.547-19.573-20.16-31.394-.422-8.121 6.874-15.569 26.787-15.569s27.209 7.448 26.787 15.569c-.613 11.821-11.333 21.926-20.16 31.394-3.02 3.24 1.172 8.444 5.387 4.925 7.59-6.339 14.45-14.001 23.391-18.006 11.905-5.332 18.533 2.337 20.93 9.388 3.34 9.823 3.917 25.736 0 34.01-6.01 12.697-15.795 10.926-22.776 7.695-8.63-3.993-13.617-9.103-22.623-17.544-3.373-3.162-7.038.07-5.386 3.54l29.086 61.095 27.465 57.692c1.652 3.47-2.013 6.702-5.386 3.54-9.005-8.442-13.993-13.55-22.622-17.544-6.982-3.231-16.766-5.002-22.777 7.695-3.917 8.274-3.34 24.187 0 34.01 2.398 7.05 9.025 14.72 20.93 9.388 8.942-4.005 15.802-11.667 23.392-18.006 4.214-3.52 8.407 1.684 5.386 4.925-8.826 9.467-19.547 19.572-20.16 31.394-.421 8.12 6.874 15.569 26.787 15.569 19.914 0 27.21-7.448 26.788-15.569-.614-11.822-11.334-21.927-20.16-31.394-3.022-3.24 1.172-8.444 5.386-4.925 7.59 6.339 14.45 14 23.392 18.006 11.905 5.332 18.532-2.337 20.93-9.388 3.34-9.823 3.916-25.736 0-34.01-6.011-12.697-15.795-10.926-22.777-7.695-8.629 3.993-13.617 9.102-22.622 17.544-3.373 3.162-7.039-.07-5.387-3.54l27.466-57.692 29.086-61.096c1.652-3.47-2.014-6.7-5.387-3.54-9.005 8.442-13.993 13.552-22.622 17.545-6.982 3.23-16.766 5.002-22.776-7.695-3.917-8.274-3.34-24.187 0-34.01 2.397-7.051 9.024-14.72 20.93-9.388 8.942 4.005 15.801 11.667 23.391 18.006 4.214 3.52 8.408-1.684 5.386-4.925-8.826-9.468-19.546-19.573-20.16-31.394-.421-8.121 6.874-15.569 26.788-15.569 19.913 0 27.208 7.448 26.787 15.569-.613 11.821-11.334 21.926-20.16 31.394-3.021 3.24 1.172 8.444 5.386 4.925 7.59-6.339 14.45-14.001 23.392-18.006 11.905-5.332 18.533 2.337 20.93 9.388 3.34 9.823 3.917 25.736 0 34.01-6.01 12.697-15.795 10.926-22.777 7.695-8.629-3.993-13.617-9.103-22.622-17.544-3.373-3.162-7.038.07-5.386 3.54l29.086 61.095 17.722 37.094" style="fill:none;fill-rule:evenodd;stroke:#000;stroke-width:1px;stroke-linecap:butt;stroke-linejoin:miter;stroke-opacity:1"/>
    <path style="fill:none;fill-opacity:1;stroke:#000" d="M459 33c6.857 230.035-42.906 398.013-213.5 497.75C74.906 431.013 25.143 263.035 32 33c133 0 80.5.29 213.5 0 133 .29 80.5 0 213.5 0z"/>
</svg>
