<svg xmlns="http://www.w3.org/2000/svg" xml:space="preserve" viewBox="30.5 31.5 400 500" height="500" width="400">
    <path d="M230.44 531.14C156.12 477.22 105.18 409.12 74.7 322.98c-27.64-78.1-38.73-172.75-33.91-289.35l.02-.46h379.82l.02.46c4.81 116.6-6.28 211.24-33.91 289.35-30.48 86.14-81.42 154.24-155.74 208.16l-.28.2-.28-.2z" fill="#fff"/>
    <path d="M401.51 271.89c8.65-31.68 17.18-97.48 17.38-117.28-.33 15.58-12.62 23.72-23.16 23.72-10.54 0-22.83-8.14-23.68-23.72-.85 15.58-13.14 23.72-23.68 23.72s-22.83-8.14-23.68-23.72c-.85 15.58-13.14 23.72-23.68 23.72s-22.83-8.14-23.68-23.72c-.85 15.58-13.14 23.72-23.68 23.72s-22.83-8.14-23.17-23.72c-.34 15.59-12.63 23.72-23.17 23.72-10.54 0-22.83-8.14-23.68-23.72-.85 15.58-13.14 23.72-23.68 23.72s-22.83-8.14-23.68-23.72c-.85 15.58-13.14 23.72-23.68 23.72s-22.83-8.14-23.68-23.72c-.85 15.58-13.14 23.72-23.68 23.72S42.33 170.18 42 154.6c3.29 60.45 15.96 111.41 17.19 117.27 1.93-.52 4.14-.78 6.03-.78 10.54 0 22.83 8.14 23.68 23.72.85-15.58 13.14-23.72 23.68-23.72s22.83 8.14 23.68 23.72c.85-15.58 13.14-23.72 23.68-23.72s22.83 8.14 23.68 23.72c.85-15.58 13.14-23.72 23.68-23.72s22.83 8.14 23.17 23.72c.34-15.58 12.63-23.72 23.17-23.72 10.54 0 22.83 8.14 23.68 23.72.85-15.58 13.14-23.72 23.68-23.72s22.83 8.14 23.68 23.72c.85-15.58 13.14-23.72 23.68-23.72s22.83 8.14 23.68 23.72c.85-15.58 13.14-23.72 23.68-23.72 1.9 0 3.85.26 5.78.79" style="fill-rule:evenodd;fill:#0085ca"/>
    <path d="M419.96 33.21c9.07 219.45-36.26 385.95-189.46 497.1C77.31 419.16 31.99 252.66 41.06 33.21h378.9m.92-.95H40.14l-.04.92c-4.82 116.66 6.28 211.36 33.93 289.52 30.51 86.24 81.51 154.41 155.91 208.39l.56.41.56-.41c74.4-53.98 125.4-122.15 155.91-208.39 27.65-78.16 38.75-172.86 33.93-289.52l-.04-.92z"/>
    <path d="M419.08 154.47c-.33 15.58-12.81 23.86-23.35 23.86-10.54 0-22.83-8.14-23.68-23.72-.85 15.58-13.14 23.72-23.68 23.72s-22.83-8.14-23.68-23.72c-.85 15.58-13.14 23.72-23.68 23.72s-22.83-8.14-23.68-23.72c-.85 15.58-13.14 23.72-23.68 23.72s-22.83-8.14-23.17-23.72c-.34 15.59-12.63 23.72-23.17 23.72-10.54 0-22.83-8.14-23.68-23.72-.85 15.58-13.14 23.72-23.68 23.72s-22.83-8.14-23.68-23.72c-.85 15.58-13.14 23.72-23.68 23.72s-22.83-8.14-23.68-23.72c-.85 15.58-13.14 23.72-23.68 23.72s-23.02-8.15-23.35-23.73m17.58 117.2c1.87-.48 3.97-.71 5.77-.71 10.54 0 22.83 8.14 23.68 23.72.85-15.58 13.14-23.72 23.68-23.72s22.83 8.14 23.68 23.72c.85-15.58 13.14-23.72 23.68-23.72s22.83 8.14 23.68 23.72c.85-15.58 13.14-23.72 23.68-23.72s22.83 8.14 23.17 23.72c.34-15.58 12.63-23.72 23.17-23.72 10.54 0 22.83 8.14 23.68 23.72.85-15.58 13.14-23.72 23.68-23.72s22.83 8.14 23.68 23.72c.85-15.58 13.14-23.72 23.68-23.72s22.83 8.14 23.68 23.72c.85-15.58 13.14-23.72 23.68-23.72 1.9 0 3.85.26 5.78.79" style="fill:none;stroke-linecap:round;stroke-linejoin:round;stroke-miterlimit:4;stroke-width:1.03;stroke:#000"/>
    <path d="m42.55 154.61-.57-4.91.05 4.91z" fill="none"/>
    <path d="m42.43 154.69-.61-7.27.25 7.2zM418.55 154.74c.23-4.08.46-5.18.69-7.71l-.33 7.64z" style="fill-rule:evenodd;fill:#000"/>
</svg>
