<svg xmlns="http://www.w3.org/2000/svg" xml:space="preserve" viewBox="30.5 31.5 440 500" height="500" width="440">
    <path style="fill:#ffe000;fill-opacity:1;fill-rule:evenodd;stroke:none;stroke-width:1px;stroke-linecap:round;stroke-linejoin:round;stroke-opacity:1" d="M300.606 500h110.64c39.908 0 57.254-24.886 57.254-55.271V33.5h-436v411.229C32.5 475.114 49.846 500 89.754 500h110.64c29.82 0 42.713 18.77 50.106 30.3 7.393-11.53 20.286-30.3 50.106-30.3z"/>
    <path d="m396.486 325.92 1.645 9.786-148.472 3.352-79.954-12.027c13.99-12.61 21.981-10.06 31.252-10.746l46.434 9.76c1.957 4.184 10.466-2.28 16.157-4.165l-.678-6.581 72.13 4.069-.488 4.67 7.802-.186-.18 2.784zM180.5 471.5c-28 0-42 13-70 13s-42-13-70-13c-.813 0-1.614.01-2.403.032-2.169-3.958-3.37-8.302-4.23-12.783a87.702 87.702 0 0 1 6.633-.249c28 0 42 13 70 13s42-13 70-13 42 13 70 13 42-13 70-13 42 13 70 13 42-13 70-13c2.3 0 4.507.088 6.634.249-.861 4.48-2.062 8.825-4.23 12.783a89.13 89.13 0 0 0-2.404-.032c-28 0-42 13-70 13s-42-13-70-13-42 13-70 13-42-13-70-13zM180.5 433.5c-28 0-42 13-70 13s-42-13-70-13c-2.787 0-5.434.129-7.971.36l-.101-12.99a87.346 87.346 0 0 1 8.072-.37c28 0 42 13 70 13s42-13 70-13 42 13 70 13 42-13 70-13 42 13 70 13 42-13 70-13c2.824 0 5.505.132 8.072.37l-.1 12.99a87.367 87.367 0 0 0-7.972-.36c-28 0-42 13-70 13s-42-13-70-13-42 13-70 13-42-13-70-13zM180.5 395.5c-28 0-42 13-70 13s-42-13-70-13c-2.787 0-5.434.129-7.971.36l-.101-12.99a87.346 87.346 0 0 1 8.072-.37c28 0 42 13 70 13s42-13 70-13 42 13 70 13 42-13 70-13 42 13 70 13 42-13 70-13c2.824 0 5.505.132 8.072.37l-.1 12.99a87.367 87.367 0 0 0-7.972-.36c-28 0-42 13-70 13s-42-13-70-13-42 13-70 13-42-13-70-13z" style="fill:#e00e00;fill-opacity:1;fill-rule:evenodd;stroke:none;stroke-width:1px;stroke-linecap:butt;stroke-linejoin:miter;stroke-opacity:1"/>
    <path style="fill:none;fill-rule:evenodd;stroke:#000;stroke-width:1px;stroke-linecap:butt;stroke-linejoin:miter;stroke-opacity:1" d="M32.428 382.87a87.346 87.346 0 0 1 8.072-.37c28 0 42 13 70 13s42-13 70-13 42 13 70 13 42-13 70-13 42 13 70 13 42-13 70-13c2.824 0 5.505.132 8.072.37m-.1 12.99a87.367 87.367 0 0 0-7.972-.36c-28 0-42 13-70 13s-42-13-70-13-42 13-70 13-42-13-70-13-42 13-70 13-42-13-70-13c-2.787 0-5.434.129-7.971.36M32.428 420.87a87.346 87.346 0 0 1 8.072-.37c28 0 42 13 70 13s42-13 70-13 42 13 70 13 42-13 70-13 42 13 70 13 42-13 70-13c2.824 0 5.505.132 8.072.37m-.1 12.99a87.367 87.367 0 0 0-7.972-.36c-28 0-42 13-70 13s-42-13-70-13-42 13-70 13-42-13-70-13-42 13-70 13-42-13-70-13c-2.787 0-5.434.129-7.971.36M33.866 458.749a87.702 87.702 0 0 1 6.634-.249c28 0 42 13 70 13s42-13 70-13 42 13 70 13 42-13 70-13 42 13 70 13 42-13 70-13c2.3 0 4.507.088 6.634.249m-4.23 12.783a89.13 89.13 0 0 0-2.404-.032c-28 0-42 13-70 13s-42-13-70-13-42 13-70 13-42-13-70-13-42 13-70 13-42-13-70-13c-.813 0-1.614.01-2.403.032"/>
    <path style="fill:none;fill-rule:evenodd;stroke:#000;stroke-width:6;stroke-linecap:round;stroke-linejoin:miter;stroke-miterlimit:4;stroke-dasharray:none;stroke-opacity:1" d="m58.175 287.998 102.616 31.997"/>
    <path style="fill:#e00e00;fill-opacity:1;fill-rule:evenodd;stroke:#000;stroke-width:1.5;stroke-linecap:butt;stroke-linejoin:miter;stroke-miterlimit:4;stroke-dasharray:none;stroke-opacity:1" d="M137.507 314.976c3.221 6.884 2.314 14.565 3.486 23.632 1.34 10.372 6.203 13.395 9.55 19.798l38.202-2.858 43.71 8.644 40.083 1.325 40.573-9.316 46.079 2.205 33.95 5.647 16.242-5.507c1.114-4.237 2.038-13.358 1.813-21.89-.283-10.676-.276-13.822-2.719-19.38-2.113-4.804-12.795 1.397-11.725 8.268.294 1.883 1.83 7.426 1.338 7.487-47.636 2.436-95.456 5.47-139.284 3.277-22.127-1.158-41.396-.972-66.156-6.483l-20.356-4.532c-11.751-2.616-23.097-6.4-34.786-10.317z"/>
    <path style="fill:#e00e00;fill-opacity:1;fill-rule:evenodd;stroke:#000;stroke-width:1.29999995;stroke-linecap:butt;stroke-linejoin:miter;stroke-miterlimit:4;stroke-dasharray:none;stroke-opacity:1" d="M141.805 312.243c15.534-27.797 33.641-56.88 50.575-85.377l52.152-86.756c-5.114 21.1-9.457 44.517-13.802 67.926-4.972 26.788-6.476 52.654-5.718 86.855-30.945-2.076-60.573 2.8-83.207 17.351z"/>
    <path style="fill:#000;fill-opacity:1;fill-rule:evenodd;stroke:none;stroke-width:.60000002;stroke-linecap:butt;stroke-linejoin:miter;stroke-miterlimit:4;stroke-dasharray:none;stroke-opacity:1" d="m205.615 204.971 20.496 34.438c3.852-32.387 11.008-64.302 17.288-96.342-11.412 17.088-25.041 40.826-37.784 61.904z"/>
    <path style="fill:#e00e00;fill-opacity:1;fill-rule:evenodd;stroke:#000;stroke-width:1.29999995;stroke-linecap:butt;stroke-linejoin:miter;stroke-miterlimit:4;stroke-dasharray:none;stroke-opacity:1" d="M195.14 158.644 64.71 286.216c16.49-4.998 31.879-8.18 45.744-8.282 10.549-.078 21.098 2.539 31.646 4.93 5.999-21.66 10.749-42.927 23.07-67.73 9.99-20.11 19.98-37.663 29.97-56.49z"/>
    <path style="fill:none;fill-rule:evenodd;stroke:#000;stroke-width:1.79999995;stroke-linecap:butt;stroke-linejoin:miter;stroke-miterlimit:4;stroke-dasharray:none;stroke-opacity:1" d="m142.1 282.864 35.59 37.758"/>
    <path style="fill:none;fill-rule:evenodd;stroke:#000;stroke-width:1.79999995;stroke-linecap:round;stroke-linejoin:miter;stroke-miterlimit:4;stroke-dasharray:none;stroke-opacity:1" d="m225.012 294.891 22.38 31.154"/>
    <path style="fill:none;fill-rule:evenodd;stroke:#000;stroke-width:1.7;stroke-linecap:butt;stroke-linejoin:miter;stroke-miterlimit:4;stroke-dasharray:none;stroke-opacity:1" d="m269.672 97.717 37.266 5.521-36.674-22.478 61.912 4.535"/>
    <path style="fill:#e00e00;fill-opacity:1;fill-rule:evenodd;stroke:#000;stroke-width:1.29999995;stroke-linecap:butt;stroke-linejoin:miter;stroke-miterlimit:4;stroke-dasharray:none;stroke-opacity:1" d="M252.462 296.712c16.927-6.124 50.127-18.028 84.35-19.66 13.426-.64 35.3-.72 52.424 6.693-14.963-18.29-34.094-49.509-41.688-87.557-7.825-39.208-10.67-79.795-8.784-118.092-21.081 13.129-46.966 32.49-70.548 47.125.963 6.456 7.233 19.194-1.882 21.68 3.475.586 5.56 3.09 5.438 6.484-.113 3.111-3.026 3.86-6.274 3.903 2.797 2.436 4.568 4.95 4.53 10.875-.014 2.471-1.807 6.516-6.413 9.62 3.185 4.908 5.175 8.82 4.81 15.755-.332 6.337-3.217 11.313-8.016 15.616 5.564 2.923 7.294 9.297 5.158 16.94-2.206 7.896-5.419 11.784-8.644 15.406 1.593 4.008 4.044 11.068 4.183 18.404.168 8.862-3.147 11.123-6.274 13.663 2.694 2.365 4.83 5.294 4.6 10.039-.257 5.318-4.216 9.599-6.97 13.106z"/>
    <path style="fill:#000;fill-rule:evenodd;stroke:#000;stroke-width:1px;stroke-linecap:butt;stroke-linejoin:miter;stroke-opacity:1" d="m250.407 329.48 24.885-282.83c.113-1.287-2.762-1.37-2.86-.395l-27.9 279.395z"/>
    <path style="fill:none;fill-rule:evenodd;stroke:#000;stroke-width:1.79999995;stroke-linecap:round;stroke-linejoin:miter;stroke-miterlimit:4;stroke-dasharray:none;stroke-opacity:1" d="M193.984 160.155c28.205-28.98 50.854-50.997 75.885-76.043M244.138 140.948l24.548-41.26"/>
    <path style="fill:none;fill-rule:evenodd;stroke:#000;stroke-width:1.79999995;stroke-linecap:butt;stroke-linejoin:miter;stroke-miterlimit:4;stroke-dasharray:none;stroke-opacity:1" d="M342.232 75.634c26.59 65.887 46.27 134.078 49.294 207.821"/>
    <path style="fill:#e00e00;fill-opacity:1;fill-rule:evenodd;stroke:#000;stroke-width:1.29999995;stroke-linecap:round;stroke-linejoin:round;stroke-miterlimit:4;stroke-dasharray:none;stroke-opacity:1" d="M359.386 120.49c6.862-1.733 15.269-1.4 21.788 2.071 9.975 5.31 16.958 9.894 26.717 5.62-7.716-10.486-15.25-22.704-16.267-36.576-10.437-4.804-14.703-3.509-22.182-3.944-10.39-.604-9.594-11.055-25.435-7.788z"/>
    <path style="fill:none;fill-rule:evenodd;stroke:#000;stroke-width:2.4000001;stroke-linecap:butt;stroke-linejoin:miter;stroke-miterlimit:4;stroke-dasharray:none;stroke-opacity:1" d="M351.006 99.196c17.152.386 34.353 8.652 44.956 8.971"/>
    <path style="fill:none;fill-rule:evenodd;stroke:#000;stroke-width:2.4000001;stroke-linecap:butt;stroke-linejoin:miter;stroke-miterlimit:4;stroke-dasharray:none;stroke-opacity:1" d="M371.241 87.982c4.821 12.523 7.708 22.91 9.933 34.58"/>
    <path style="fill:none;fill-rule:evenodd;stroke:#000;stroke-width:1.79999995;stroke-linecap:butt;stroke-linejoin:miter;stroke-miterlimit:4;stroke-dasharray:none;stroke-opacity:1" d="M348.739 93.478c8.047.407 14.36 2.052 20.605 3.746l-3.845-10.376"/>
    <path style="fill:none;fill-rule:evenodd;stroke:#000;stroke-width:1.79999995;stroke-linecap:round;stroke-linejoin:round;stroke-miterlimit:4;stroke-dasharray:none;stroke-opacity:1" d="m376.343 88.056 4.535 12.422c4.272 1.21 8.544 2.074 12.817 2.76"/>
    <path style="fill:none;fill-rule:evenodd;stroke:#000;stroke-width:1.79999995;stroke-linecap:butt;stroke-linejoin:miter;stroke-miterlimit:4;stroke-dasharray:none;stroke-opacity:1" d="M399.043 114.502a122.573 122.573 0 0 0-15.306-3.18c2.316 5.549 3.419 10.188 4.732 14.985"/>
    <path style="fill:none;fill-rule:evenodd;stroke:#000;stroke-width:1.79999995;stroke-linecap:butt;stroke-linejoin:round;stroke-miterlimit:4;stroke-dasharray:none;stroke-opacity:1" d="M374.076 119.8c-.346-3.105-1.693-8.1-2.86-11.435-4.633-2.343-12.163-3.155-17.646-3.155"/>
    <path style="fill:none;fill-rule:evenodd;stroke:#000;stroke-width:2.20000005;stroke-linecap:round;stroke-linejoin:miter;stroke-miterlimit:4;stroke-dasharray:none;stroke-opacity:1" d="m252.601 298.385 142.49-15.337"/>
    <path style="fill:none;fill-rule:evenodd;stroke:#000;stroke-width:1.79999995;stroke-linecap:butt;stroke-linejoin:miter;stroke-miterlimit:4;stroke-dasharray:none;stroke-opacity:1" d="M278.255 315.534c-4.286-65.004 6.149-129.87-10.039-190.313"/>
    <path style="fill:#000;fill-opacity:1;fill-rule:evenodd;stroke:#000;stroke-width:1px;stroke-linecap:round;stroke-linejoin:round;stroke-opacity:1" d="m307.255 150.526 11.572-5.019c-1.089-17.962-.883-35.924.767-53.887l-12.967 8.575c-2.232 14.927-1.708 42.489.628 50.331zM322.94 174.089c-4.299 2.366-9.288 4.582-12.897 6.971 1.005 9.447 1.044 41.001 19.52 66.156 6.926.25 12.536-1.842 16.87-4.53-12.465-21.38-20.525-44.2-23.493-68.597z"/>
    <path style="fill:none;fill-rule:evenodd;stroke:#000;stroke-width:1.5;stroke-linecap:butt;stroke-linejoin:miter;stroke-miterlimit:4;stroke-dasharray:none;stroke-opacity:1" d="M139.808 323.48c81.43 26.412 193.535 22.09 258.49 15.198"/>
    <path style="fill:none;fill-rule:evenodd;stroke:#000;stroke-width:1.29999995;stroke-linecap:butt;stroke-linejoin:miter;stroke-miterlimit:4;stroke-dasharray:none;stroke-opacity:1" d="M398.159 345.649c-61.822 6.933-176.886 14.791-257.236-12.409"/>
    <path style="fill:none;fill-rule:evenodd;stroke:#000;stroke-width:1.20000005;stroke-linecap:butt;stroke-linejoin:miter;stroke-miterlimit:4;stroke-dasharray:none;stroke-opacity:1" d="M141.063 340.909c41.352 11.182 73.566 12.917 109.437 17.985 48.607-1.455 96.194-.222 145.846-5.856"/>
    <path style="fill:none;fill-rule:evenodd;stroke:#000;stroke-width:1px;stroke-linecap:butt;stroke-linejoin:miter;stroke-opacity:1" d="M143.084 347.043c10.583 3.418 16.584 3.625 22.726 4.88"/>
    <path style="fill:none;fill-rule:evenodd;stroke:#000;stroke-width:1.79999995;stroke-linecap:butt;stroke-linejoin:miter;stroke-miterlimit:4;stroke-dasharray:none;stroke-opacity:1" d="M384.216 283.466c-1.075 14.838-4.227 28.753-8.644 42.106"/>
    <path style="fill:none;fill-rule:evenodd;stroke:#000;stroke-width:4;stroke-linecap:round;stroke-linejoin:round;stroke-miterlimit:4;stroke-dasharray:none;stroke-opacity:1" d="m413.635 325.712-55.351-1.116"/>
    <path d="M396.276 357.71c2.011-7.888 4.487-20.367.21-31.79" style="fill:none;fill-rule:evenodd;stroke:#000;stroke-width:1.5;stroke-linecap:butt;stroke-linejoin:miter;stroke-miterlimit:4;stroke-dasharray:none;stroke-opacity:1"/>
    <path d="m162.822 321.54 11.075 2.917" style="fill:none;fill-rule:evenodd;stroke:#000;stroke-width:2;stroke-linecap:round;stroke-linejoin:miter;stroke-miterlimit:4;stroke-dasharray:none;stroke-opacity:1"/>
    <path d="m348.314 325.583-2.09-9.004c1.172-3.21 4.09-6.152 7.668-8.992-2.66-2.64-2.56-3.65-2.266-5.473-.386-1.227-1.33-3-1.08-4.148-1.063-1.949 7.782-1.238 11.572-1.952l2.58 2.72-2.162 2.16-3.069 6.5 5.718 8.628c.463 3.351-1.054 5.845-2.51 8.365-4.41 1.784-6.449 6.54-14.361 1.196zM180.5 357.5c-28 0-42 13-70 13s-42-13-70-13c-2.787 0-5.434.129-7.971.36l-.101-12.99a87.346 87.346 0 0 1 8.072-.37c28 0 42 13 70 13s42-13 70-13 42 13 70 13 42-13 70-13 42 13 70 13 42-13 70-13c2.824 0 5.505.132 8.072.37l-.1 12.99a87.367 87.367 0 0 0-7.972-.36c-28 0-42 13-70 13s-42-13-70-13-42 13-70 13-42-13-70-13z" style="fill:#e00e00;fill-opacity:1;fill-rule:evenodd;stroke:none;stroke-width:1px;stroke-linecap:butt;stroke-linejoin:miter;stroke-opacity:1"/>
    <path d="M32.428 344.87a87.346 87.346 0 0 1 8.072-.37c28 0 42 13 70 13s42-13 70-13 42 13 70 13 42-13 70-13 42 13 70 13 42-13 70-13c2.824 0 5.505.132 8.072.37m-.1 12.99a87.367 87.367 0 0 0-7.972-.36c-28 0-42 13-70 13s-42-13-70-13-42 13-70 13-42-13-70-13-42 13-70 13-42-13-70-13c-2.787 0-5.434.129-7.971.36" style="fill:none;fill-rule:evenodd;stroke:#000;stroke-width:1px;stroke-linecap:butt;stroke-linejoin:miter;stroke-opacity:1"/>
    <path d="M300.606 500h110.64c39.908 0 57.254-24.886 57.254-55.271V33.5h-436v411.229C32.5 475.114 49.846 500 89.754 500h110.64c29.82 0 42.713 18.77 50.106 30.3 7.393-11.53 20.286-30.3 50.106-30.3z" style="fill:none;fill-rule:evenodd;stroke:#000;stroke-width:1px;stroke-linecap:round;stroke-linejoin:round;stroke-opacity:1"/>
    <path d="m268.216 125.221 75.846-51.168" style="fill:none;fill-rule:evenodd;stroke:#000;stroke-width:2;stroke-linecap:round;stroke-linejoin:miter;stroke-miterlimit:4;stroke-dasharray:none;stroke-opacity:1"/>
    <path d="M276.573 174.418c4.958 2.264 4.945 30.086 5.324 44.463.157 5.946 2.02 15.072.986 17.055-1.214 2.325-3.288 2.275-5.127 2.958" style="fill:none;fill-rule:evenodd;stroke:#000;stroke-width:1.8;stroke-linecap:butt;stroke-linejoin:round;stroke-miterlimit:4;stroke-dasharray:none;stroke-opacity:1"/>
    <path d="M173.792 324.666c2.257-3.348 6.479-6.863 15.023-7.808 10.013-1.107 19.901-.434 27.817 1.793 9.723 2.735 17.819 6.329 25.929 6.802 6.855.4 6.37 5.609 5.608 10.158" style="fill:none;fill-rule:evenodd;stroke:#000;stroke-width:2;stroke-linecap:butt;stroke-linejoin:miter;stroke-miterlimit:4;stroke-dasharray:none;stroke-opacity:1"/>
    <path d="M180.944 327.13c2.644-3.257 6.483-5.715 13.309-6.409 13.563-1.38 24.922 3.61 37.266 5.915 2.212.413 3.602 1.923 2.958 3.352l-2.268 5.028" style="fill:none;fill-rule:evenodd;stroke:#000;stroke-width:2;stroke-linecap:butt;stroke-linejoin:round;stroke-miterlimit:4;stroke-dasharray:none;stroke-opacity:1"/>
    <path d="M238.124 335.805c1.674-6.098 2.149-11.16 7.803-9.51" style="fill:none;fill-rule:evenodd;stroke:#000;stroke-width:2;stroke-linecap:butt;stroke-linejoin:miter;stroke-miterlimit:4;stroke-dasharray:none;stroke-opacity:1"/>
    <path d="m249.659 335.608.748-6.128c.341-2.8 7.745-5.535 13.14-7.6-1.369-4.376-2.215-7.761.905-7.531 11.461.843 18.388 1.549 27.5 2.429 15.623 1.508 29.963 2.39 43.048 2.59l-.488 4.67 7.802-.186-1.166 11.164" style="fill:none;fill-rule:evenodd;stroke:#000;stroke-width:2;stroke-linecap:butt;stroke-linejoin:round;stroke-miterlimit:4;stroke-dasharray:none;stroke-opacity:1"/>
    <path d="M251.053 335.956c.576-1.441 4.116-4.243 7.421-4.535 3.812-.337 3.13 2.961 4.001 4.975" style="fill:none;fill-rule:evenodd;stroke:#000;stroke-width:2;stroke-linecap:butt;stroke-linejoin:round;stroke-miterlimit:4;stroke-dasharray:none;stroke-opacity:1"/>
    <path d="M277.761 336.762c.185-1.97-.26-5.528-7.793-5.887-8.397-.399-7.434 4.156-7.493 5.521M285.446 337.086c-.629-1.535-.066-5.697 2.891-6.664 5.18-1.693 5.927.199 24.065-.828 8.782-.497 9.846 3.89 9.916 6.507M330.402 335.706c-.087-1.973.668-7.534 5.173-7.579 3.47-.035 5.04 4.848 5.329 7.656" style="fill:none;fill-rule:evenodd;stroke:#000;stroke-width:2;stroke-linecap:butt;stroke-linejoin:miter;stroke-miterlimit:4;stroke-dasharray:none;stroke-opacity:1"/>
    <path d="M341.838 329.298c6.44.64 12.91.529 19.323 1.972 3.327.748 4.854 3.323 7.03 3.05l5.462-.684c4.922-.617.053-5.532-1.842-6.118-3.839-1.189-6.822-1.492-12.802-1.773-2.716-.127-6.085-6.195-1.687-10.654" style="fill:none;fill-rule:evenodd;stroke:#000;stroke-width:1.89999998;stroke-linecap:butt;stroke-linejoin:miter;stroke-miterlimit:4;stroke-dasharray:none;stroke-opacity:1"/>
    <path d="M357.322 315.09c-1.941 2.29-2.902 9.485 3.708 9.107 1.132-.065 4.275-1.469 4.492-5.94.15-3.131-1.217-6.15-4.361-8.972-1.363-1.17-2.894-1.49-4.732-1.578-3.192-.152-5.47 1.278-7.748 4.055-3.383 4.123-4.054 12.462 2.615 14.141" style="fill:none;fill-rule:evenodd;stroke:#000;stroke-width:1.89999998;stroke-linecap:round;stroke-linejoin:miter;stroke-miterlimit:4;stroke-dasharray:none;stroke-opacity:1"/>
    <path d="M358.598 300.708c-2.371.048-4.388-.08-6.58-.122-2.332-.043-2.186-3.632 1.242-3.508 3.485.126 4.597-1.184 7.15-1.482 1.665-.194 4.156 1.43 4.043 3.207-.167 2.619-2.887 1.844-5.855 1.905z" style="fill:none;fill-rule:evenodd;stroke:#000;stroke-width:1.89999998;stroke-linecap:butt;stroke-linejoin:miter;stroke-miterlimit:4;stroke-dasharray:none;stroke-opacity:1"/>
    <path d="M351.919 303.183c-.082 1.737 1.879 4.134 4.65 4.002 3.403-.163 5.166-2.126 5.112-3.834-.06-1.83-1.545-3.01-5.223-2.42-1.871.3-4.43-.08-4.54 2.252z" style="fill:none;fill-rule:evenodd;stroke:#000;stroke-width:1.89999998;stroke-linecap:butt;stroke-linejoin:miter;stroke-miterlimit:4;stroke-dasharray:none;stroke-opacity:1"/>
    <path d="M263.548 321.88c16.576 2.41 50.359 3.426 70.964 2.158" style="fill:none;fill-rule:evenodd;stroke:#000;stroke-width:2;stroke-linecap:butt;stroke-linejoin:miter;stroke-miterlimit:4;stroke-dasharray:none;stroke-opacity:1"/>
    <path d="m351.296 325.903-8.127-.302" style="fill:none;fill-rule:evenodd;stroke:#000;stroke-width:2;stroke-linecap:round;stroke-linejoin:miter;stroke-miterlimit:4;stroke-dasharray:none;stroke-opacity:1"/>
    <path d="M356.691 323.887c2.505.57 5.067.682 7.674.432" style="fill:none;fill-rule:evenodd;stroke:#000;stroke-width:2;stroke-linecap:butt;stroke-linejoin:miter;stroke-miterlimit:4;stroke-dasharray:none;stroke-opacity:1"/>
    <path d="M407.435 315.931c-4.19-2.276-13.108 5.376-10.95 9.99" style="fill:none;fill-rule:evenodd;stroke:#000;stroke-width:1;stroke-linecap:butt;stroke-linejoin:miter;stroke-miterlimit:4;stroke-dasharray:none;stroke-opacity:1"/>
    <path d="m65.548 285.698-3.957 2.09" style="fill:none;fill-rule:evenodd;stroke:#000;stroke-width:1.39999998;stroke-linecap:butt;stroke-linejoin:miter;stroke-miterlimit:4;stroke-dasharray:none;stroke-opacity:1"/>
    <path d="m155.41 197.986 9.76 17.148c13.29-26.974 19.913-36.695 28.814-54.979-4.232 3.816-25.614 23.932-38.574 37.83z" style="fill:#000;fill-opacity:1;fill-rule:evenodd;stroke:none;stroke-width:.60000002;stroke-linecap:butt;stroke-linejoin:miter;stroke-miterlimit:4;stroke-dasharray:none;stroke-opacity:1"/>
</svg>
