<svg xmlns="http://www.w3.org/2000/svg" xml:space="preserve" viewBox="30.5 31.5 400 500" height="500" width="400">
    <path d="M230.44 531.14C156.12 477.22 105.18 409.12 74.7 322.98c-27.64-78.1-38.73-172.75-33.91-289.35l.02-.46h379.82l.02.46c4.81 116.6-6.28 211.24-33.91 289.35-30.48 86.14-81.42 154.24-155.74 208.16l-.28.2-.28-.2z" style="fill:#e00e00"/>
    <path d="M419.96 33.21c9.07 219.45-36.26 385.95-189.46 497.1C77.31 419.16 31.99 252.66 41.06 33.21h378.9m.92-.95H40.14l-.04.92c-4.82 116.66 6.28 211.36 33.93 289.52 30.51 86.24 81.51 154.41 155.91 208.39l.56.41.56-.41c74.4-53.98 125.4-122.15 155.91-208.39 27.65-78.16 38.75-172.86 33.93-289.52l-.04-.92z"/>
    <path style="fill:#ffe000;fill-opacity:1;stroke:#000;stroke-opacity:1" d="M196.1 108.58c-54.125 6.712-43.307-30.083-76.1-20.4 3.7-23.6 27.5-13.4 35.4-3.7 10.1 12.4 13.3 16.1 38.7 15.1 1.4 3.2 2.2 6.8 2 9z"/>
    <path style="fill:#ffe000;fill-opacity:1;stroke:#000;stroke-opacity:1" d="M176.5 111.28c.8 4.4 4.3 8.8 8.3 7 7.5-3.4 5.8-11.6 4.9-16.7-3.1-19.4-20.9-11.7-22.2-17.7-1.8-6.4.9-11.2 12.8-10.8 3.5.1 9.8 4 16.8 5.5 8 1.6 16.8.7 21-.8 16.6-5.9 24.8-4.8 35.5-2.8 19.2 3.6 22.4 2.9 40.5-.6l27.4-6.4c4.5-1.1 32.4 17.2 34.1 26.6-11.4-.6-15.6 8.9-44.3 5.1 2.9 2.1 11.8 7.6 25.6 7.4 12.1-.1 11.8-4 17.8-5.2 7 2.2 13.5 9.5 16.5 17.8-2.8 4.2-18.9 7.3-28.1 7.1 6.9 7 16.7 6.5 25.2 3.6 7 9.7 8.9 21.2 7.2 29.1l-15.5-2c4.3 9.1 16.8 9.9 17.2 14.7 3.3 38.4-6.9 116.2-81.3 117.6-33.6.7-53.5-15.4-64-25.7-2.4-1.2-6.3-3.8-21.6-2 0 0-13.4-12.9-13.9-17.2-.4-3.9 10.8-2.5 16.6-4.3 0 0-3.1-7.2-28.9-6.5 0 0-24.5-18.6-20-22.5 16.2-13.9 42.7.2 54.8 9.2-6.3-14.5-17.2-29.3-41.1-29.6-18.7-.3-45.2 10.9-43 49.7 1 16.9 11.9 51.7 57 63.3 42.9 11 46.2-3.2 80.8 9 7.5-7.8 20.4-8.4 27.1-7.7 19.1 2.1 27.1 15.7 27.4 20.4-14.6-4.2-24.8-1-29.1 8.1 18.9 12.8 26.1 72.2-41.8 72.8-22.2.2-40.4-12-53.3-9.2-14.6 4.4-19.2 20.4-9.4 31.9 9.9 9.7 32 14.4 46.5 1.2 16.6-15.1 47.5-20.8 57.1-.2-26.1-.3-31.6 17.8-34.6 23.1-4.2-4.9-10.4-.8-7.9 3.8 11.6 21-16.2 40.7-32.2 30.9 21.3-13.5 10.8-29.3-.8-29.7-33.5-1-57.3-14.4-57.6-45.2-.3-26.4 19.9-38.7 40.1-39.5 27.1-1 51.5 22.7 70.4.4 9.1-11.1 4.2-26.9-12.5-26.3-9.4.3-20.7 9.6-20.4 22.1-9.5-3.5-15.9-22.1-10-29.5-42 1.2-76.1-6.1-95-20.5-55.6-42.5-53.7-106.7-36-133-5.2 2.1-10.7 5.9-15.3 12.7 3-33.6 25.8-55.1 69.5-55.1 111 .1 85.2 100.5 145 103.6 35.8 1.8 39.5-37.5 39.6-51.7.3-36-28.6-57.8-57.6-70.9 12.3 10 28.8 29.5 34.8 48.4-11.7-3.9-25.6-5.1-37.9-5.1-6.7-19.9-16.4-32.5-32-39.7-23.6 5.1-22.8-1.4-37.4-.8-8.7-.5-8.9 3.1-25 2.4-18.9-1.5-16.031-17.16-12.612-19.584 2.41-1.708 4.312-2.616 4.812-.016Z"/>
    <path style="fill:#e00e00;fill-opacity:1;stroke:#000;stroke-linecap:round;stroke-linejoin:round;stroke-opacity:1" d="M255.92 96.5s-1.413 5.461-10.934 4.634c-7.759-.673-10.32-10.794-8.894-11.634 3.51-1.477 8.92-.858 11.576 1.096 3.372 2.48 5.884 5.56 8.253 5.903z"/>
    <path d="M231.017 91.487c1.253-1.286 8.02-4.507 13.264-2.49 5.309 2.044 7.945 6.462 11.244 7.394 6.49 1.833 9.395.308 9.395.308" style="fill:none;fill-rule:evenodd;stroke:#000;stroke-width:1px;stroke-linecap:round;stroke-linejoin:round;stroke-opacity:1"/>
</svg>
