<svg xmlns="http://www.w3.org/2000/svg" width="400" height="500" viewBox="30.5 31.5 400 500" xml:space="preserve">
    <path d="M230.44 531.14C156.12 477.22 105.18 409.12 74.7 322.98c-27.64-78.1-38.73-172.75-33.91-289.35l.02-.46h379.82l.02.46c4.81 116.6-6.28 211.24-33.91 289.35-30.48 86.14-81.42 154.24-155.74 208.16l-.28.2-.28-.2z" style="fill:#32ac60"/>
    <path d="M419.96 33.21c9.07 219.45-36.26 385.95-189.46 497.1C77.31 419.16 31.99 252.66 41.06 33.21h378.9m.92-.95H40.14l-.04.92c-4.82 116.66 6.28 211.36 33.93 289.52 30.51 86.24 81.51 154.41 155.91 208.39l.56.41.56-.41c74.4-53.98 125.4-122.15 155.91-208.39 27.65-78.16 38.75-172.86 33.93-289.52l-.04-.92z"/>
    <path d="M195.796 92.483c-.14 13.441 8.868 29.622 27.156 34.04.68 11.375-8.985 22.123-16.474 22.255l-73.86 1.31c-4.034.071-4.83 5.442-.437 5.782 8.004.62 13.364.367 19.256.6 31.696 1.25 56.023 5.51 56.023 5.51 4.48.34 9.574 3.572 12.11 8.51 3.068 5.972 3.476 19.07 4.255 28.802 1 12.506 1.926 26.329 3.273 40.04.211 2.154 1.935 4.893 3.402 5.454 1.467-.56 3.19-3.3 3.402-5.455 1.347-13.71 2.272-27.533 3.273-40.04.78-9.732 1.187-22.829 4.255-28.802 2.536-4.937 7.63-8.169 12.11-8.51 0 0 24.327-4.258 56.023-5.51 5.892-.232 11.252.02 19.256-.6 4.394-.34 3.597-5.71-.436-5.781l-73.86-1.31c-7.49-.132-17.155-10.88-16.475-22.256 18.288-4.417 27.296-20.598 27.156-34.039-.206-19.726-16.246-34.704-34.704-34.704-18.458 0-34.498 14.978-34.704 34.704z" style="fill:#ffe000;fill-rule:evenodd;stroke:#000;stroke-width:1px;stroke-linecap:round;stroke-linejoin:round;stroke-opacity:1;fill-opacity:1"/>
    <circle r="25.85" cy="92.483" cx="230.5" style="fill:#32ac60;fill-opacity:1;fill-rule:evenodd;stroke:#000;stroke-width:1;stroke-linecap:round;stroke-linejoin:round;stroke-miterlimit:4;stroke-dasharray:none;stroke-opacity:1"/>
    <path style="fill:#ffe000;fill-rule:evenodd;stroke:#000;stroke-width:1px;stroke-linecap:round;stroke-linejoin:round;stroke-opacity:1;fill-opacity:1" d="M149.852 356.956c8.2-1.336 23.684-9.251 36.41-20.098 14.776-12.596 27.172-31.11 25.007-36.595l-56.703-143.642c-2.078-.143-4.157-.165-6.238-.193L91.605 300.264c-2.356 5.973 8.685 23.843 23.462 36.439 12.725 10.847 26.584 18.917 34.785 20.253"/>
    <path style="fill:#32ac60;fill-rule:evenodd;stroke:#000;stroke-width:1px;stroke-linecap:round;stroke-linejoin:round;stroke-opacity:1;fill-opacity:1" d="M205.609 302.034c2.073 0 1.238-1.858.981-2.513l-55.038-140.145L96.515 299.52c-.257.655-1.092 2.513.981 2.513 39.074-.072 61.175-.016 108.113 0z"/>
    <path d="M311.148 356.956c-8.2-1.336-23.684-9.251-36.41-20.098-14.776-12.596-27.172-31.11-25.007-36.595l56.703-143.642c2.078-.143 4.157-.165 6.238-.193l56.723 143.836c2.356 5.973-8.685 23.843-23.462 36.439-12.725 10.847-26.584 18.917-34.785 20.253" style="fill:#ffe000;fill-rule:evenodd;stroke:#000;stroke-width:1px;stroke-linecap:round;stroke-linejoin:round;stroke-opacity:1;fill-opacity:1"/>
    <path d="M255.391 302.034c-2.073 0-1.238-1.858-.981-2.513l55.038-140.145 55.037 140.145c.257.655 1.092 2.513-.981 2.513-39.074-.072-61.175-.016-108.113 0z" style="fill:#32ac60;fill-rule:evenodd;stroke:#000;stroke-width:1px;stroke-linecap:round;stroke-linejoin:round;stroke-opacity:1;fill-opacity:1"/>
    <path d="m148.6 157.097.71-1.99c1.606-.52 3.205-.988 4.527.272l.655 2.455c-1.964.345-3.928.225-5.892-.737zM312.522 157.397l-.75-2.127c-1.388-2.157-2.92-1.634-4.527.273l-.737 2.373z" style="fill:#ffe000;fill-opacity:1;fill-rule:evenodd;stroke:none;stroke-width:1px;stroke-linecap:butt;stroke-linejoin:miter;stroke-opacity:1"/>
</svg>
