<svg xmlns="http://www.w3.org/2000/svg" xml:space="preserve" viewBox="30.5 31.5 400 500" height="500" width="400">
    <path fill="#e00e00" d="M230.45 531.13c-74.32-53.92-125.26-122.02-155.74-208.16-27.64-78.1-38.73-172.75-33.91-289.35l.02-.46h379.82l.02.46c4.81 116.6-6.28 211.24-33.91 289.35-30.48 86.14-81.42 154.24-155.74 208.16l-.28.2-.28-.2z"/>
    <path d="M419.96 33.21c9.07 219.45-36.25 385.95-189.45 497.1C146.04 469.02 94.36 390.9 66.52 296.34a557.24 557.24 0 0 1-5.87-21.54c-11.45-45.69-17.77-95.02-19.88-147.94-1.2-30.06-1.05-61.28.29-93.65h378.9m.92-.95H40.14l-.04.92c-4.82 116.66 6.28 211.36 33.93 289.52 30.51 86.24 81.51 154.41 155.91 208.39l.56.41.56-.41c74.4-53.98 125.4-122.15 155.91-208.39 27.65-78.16 38.75-172.86 33.93-289.52l-.04-.92z"/>
    <path style="fill:#ffe000;fill-opacity:1;stroke:#000;stroke-opacity:1" d="M75.155 196.946c1.751-2.4-1.582-4.725-3.659-3.272-4.486 3.14-6.47 7.854-6.324 12.398.253 7.911 7.036 15.966 15.495 15.766 7.085-.168 13.665-3.782 15.694-12.858 10.96-1.265 26.72-1.84 43.778-2.256 17.5-.426 33.574-.503 51.477 6.542-6.053 28.731-17.486 60.814-27.449 85.883 11.724-5.035 18.938-15.565 24.437-28.522 6.97-16.423 11.842-34.333 18.336-54.724l33.98 7.968c1.698 36.923-25.095 74.034-59.878 88.922 16.203 11.753 43.333 15.276 65.82 14.92 4.389-.07 8.772-7.37 13.158-11.165 74.333-6.305 98.994-21.709 99.353-40.186.233-11.998-11.448-15.22-23.165-17.356l-1.11-33.522 16.834-1.675.103-15.503-15.526-.713L359.72 98.562c9.421-6.02 21.4-9.454 44.923-9.123 7.251.102 7.32-9.058.754-11.172-7.868-2.532-17.878-3.118-25.289-2.636-17.041 1.108-29.39 7.99-41.83 17.916-22.428 17.896-115.6 102.945-115.6 102.945l-10.587-2.855 3.407-11.747c.981-3.383-9.05-6.845-10.018-4.345l-5.403 13.945c-27.066-.474-83.577 2.49-109.225 8.972.782 8.64-5.123 13.84-10.525 13.633-4.353-.166-8.469-3.526-8.43-8.675.018-2.465.97-5.34 3.257-8.474z"/>
    <path style="fill:#e00e00;fill-opacity:1;stroke:#000;stroke-opacity:1" d="M266.126 242.2c-7.01-1.671-5.83-10.816 3.49-11.465l48.912-3.406 1.21 27.649zM250.547 203.759l-8.816-.3c-1.432-.048-2.94-2.631-1.177-4.199l98.815-88.173-20.37 95.61-51.865-2.092-.992-7.899c-.207-1.65-12.13-2.643-13.066-.024z"/>
</svg>
