<svg xmlns="http://www.w3.org/2000/svg" width="400" height="500" viewBox="30.5 31.5 400 500" xml:space="preserve">
    <path d="M230.55 531.13c74.32-53.92 125.26-122.02 155.74-208.16 27.64-78.1 38.73-172.75 33.91-289.35l-.02-.46H40.36l-.02.46c-4.81 116.6 6.28 211.24 33.91 289.35 30.48 86.14 81.42 154.24 155.74 208.16l.28.2.28-.2z" fill="#0085ca"/>
    <path d="M40.33 133.35c2.11 32.59 4.76 65.39 10.87 99.68 57.36 38.79 145.08 27.24 179.31-15.9 34.22 43.14 121.94 54.7 179.31 15.9 6.1-34.29 8.75-67.09 10.87-99.68-53.18 52.19-164.28 45.81-190.19-12.22-25.91 58.03-137.01 64.41-190.17 12.22Z" style="fill-rule:evenodd;fill:#fff"/>
    <path d="M365.73 371.53c15.65-31.02 23.69-58.43 32.52-87.7-48.51 21.62-133.92 24.52-167.75-22.57-33.83 47.09-119.47 44.31-167.97 22.68 8.28 30.58 18.07 59.09 32.74 87.92 43.51 21.88 120.14 14.02 135.23-24.65 15.09 38.66 91.72 46.2 135.23 24.32z" style="fill-rule:evenodd;fill:#fff"/>
    <path d="M41.04 33.21c-9.07 219.45 36.25 385.95 189.45 497.1 84.47-61.29 136.15-139.41 163.99-233.97a557.24 557.24 0 0 0 5.87-21.54c11.45-45.69 17.77-95.02 19.88-147.94 1.2-30.06 1.05-61.28-.29-93.65H41.04m-.92-.95H420.86l.04.92c4.82 116.66-6.28 211.36-33.93 289.52-30.51 86.24-81.51 154.41-155.91 208.39l-.56.41-.56-.41c-74.4-53.98-125.4-122.15-155.91-208.39C46.38 244.54 35.28 149.84 40.1 33.18l.04-.92z"/>
    <path d="M51.19 233.03c57.37 38.8 145.09 27.24 179.31-15.9 34.22 43.14 121.94 54.7 179.31 15.9m10.87-99.68c-53.17 52.19-164.27 45.81-190.18-12.22-25.91 58.03-137.01 64.41-190.17 12.22" style="fill:none;stroke:#000"/>
    <path d="M398.25 283.83c-48.5 21.62-133.92 24.52-167.75-22.57-33.83 47.09-119.47 44.3-167.97 22.68m32.74 87.92c43.51 21.88 120.14 14.02 135.23-24.65 15.09 38.66 91.72 46.2 135.23 24.32" style="fill:none;stroke:#000"/>
</svg>
