<svg xmlns="http://www.w3.org/2000/svg" width="420" height="500" viewBox="30.5 31.5 420 500" xml:space="preserve">
    <path d="M440 32.7c2.09 102.46-3.38 187.49-43.93 296.59-28.05 75.48-74.21 144.77-155.57 201.59-81.36-56.82-127.52-126.11-155.57-201.59C44.38 220.19 38.91 135.16 41 32.7c133 .29 266 0 399 0z" style="fill-rule:evenodd;fill:#e00e00"/>
    <path d="M120.18 403.5C61.17 299.67 35.86 173.34 41.03 32.66L438.61 133.5l-384.28 90 347.59 90-281.74 90" style="fill-rule:evenodd;fill:#ffe000"/>
    <path d="M41.03 32.66 438.61 133.5l-384.28 90 347.59 90-281.74 90" style="fill:none;stroke-linejoin:bevel;stroke:#000"/>
    <path d="M440 32.7c2.09 102.46-3.38 187.49-43.93 296.59-28.05 75.48-74.21 144.77-155.57 201.59-81.36-56.82-127.52-126.11-155.57-201.59C44.38 220.19 38.91 135.16 41 32.7c133 .29 266 0 399 0z" style="fill:none;stroke:#000"/>
</svg>
