<svg xmlns="http://www.w3.org/2000/svg" width="804.487" height="951.963" viewBox="0 0 212.854 251.874">
    <path style="color:#000;font-style:normal;font-variant:normal;font-weight:400;font-stretch:normal;font-size:medium;line-height:normal;font-family:sans-serif;font-variant-ligatures:normal;font-variant-position:normal;font-variant-caps:normal;font-variant-numeric:normal;font-variant-alternates:normal;font-feature-settings:normal;text-indent:0;text-align:start;text-decoration:none;text-decoration-line:none;text-decoration-style:solid;text-decoration-color:#000;letter-spacing:normal;word-spacing:normal;text-transform:none;writing-mode:lr-tb;direction:ltr;text-orientation:mixed;dominant-baseline:auto;baseline-shift:baseline;text-anchor:start;white-space:normal;shape-padding:0;clip-rule:nonzero;display:inline;overflow:visible;visibility:visible;opacity:1;isolation:auto;mix-blend-mode:normal;color-interpolation:sRGB;color-interpolation-filters:linearRGB;solid-color:#000;solid-opacity:1;vector-effect:none;fill:#00564d;fill-opacity:1;fill-rule:nonzero;stroke:none;stroke-width:.99999994px;stroke-linecap:butt;stroke-linejoin:miter;stroke-miterlimit:4;stroke-dasharray:none;stroke-dashoffset:0;stroke-opacity:1;color-rendering:auto;image-rendering:auto;shape-rendering:auto;text-rendering:auto;enable-background:accumulate" d="M1200.61-.354 398.53-.035l-.023.48c-5.676 145.193 5.022 268.454 30.709 374.703 7.15 29.574 14.233 58.18 23.267 85.211 32.285 96.601 78.212 175.404 126.778 244.856 44.013 62.942 91.38 119.345 138.181 167.687 27.878 28.796 55.43 53.457 82.256 78.418l.319.29.332-.268c29.97-23.77 36.583-28.85 55.039-47.014 20.16-19.84 52.695-51.45 74.44-76.152 62.288-70.767 90.569-109.465 146.5-203.688 49.648-83.64 92.504-197.34 112.3-353.068v-.016c9.002-91.183 15.286-181.959 11.996-271.277z" transform="matrix(.26458 0 0 .26458 -105.046 .094)"/>
    <path style="opacity:1;vector-effect:none;fill:#fff;fill-opacity:1;stroke:none;stroke-width:.03380102;stroke-linecap:butt;stroke-linejoin:miter;stroke-miterlimit:4;stroke-dasharray:none;stroke-dashoffset:0;stroke-opacity:1" d="M208.985 132.167c-5.956 5.332-11.418 11.23-17.044 16.918-7.97 8.247-15.793 17.141-20.093 27.924-1.767 4.309-2.597 8.929-2.53 13.58-.256 19.785-.134 39.581-.173 59.362 9.808 12.04 21.111 22.782 32.699 33.083-.776-67.228-.58-102.878-.617-126.533-.012-7.6 3.647-17.63 7.732-22.68.22-.36.923-1.613.026-1.654zm44.437-94.289c-.017 14.867.065 29.734-.052 44.6-.111 3.54-1.098 7.066-2.733 10.204-.054.28-.52.698-.214.938.62-.14 1.007-.793 1.489-1.174 2.273-2.283 4.671-4.687 5.633-7.855 1.134-3.69 1.232-7.584 1.262-11.414.108-11.766.05-23.533.072-35.299-.62-.189-1.388-.023-2.063-.08h-3.314l-.067.068zm-10.736-.003c-.174 4.775-.08 9.556-.122 14.333-.044 13.294.052 26.59-.167 39.882.007 2.096-.213 4.18-.768 6.203-.548 2.286-1.537 4.422-2.56 6.528.12.302.575.012.734-.138 2.913-2.378 5.839-5.126 7.029-8.804.81-2.562 1.145-5.255 1.32-7.928.122-8.268.009-16.539.009-24.808l-.084-25.265c-.621-.189-1.388-.024-2.064-.08h-3.248l-.068.066zm-6.886-.02c-1.34.011-2.68.04-4.02.06-.186.622-.024 1.388-.08 2.064-.043 21 0 42.002-.13 63.003.03 3.376-.601 6.778-1.904 9.89-.48 1.215-1.207 2.322-1.749 3.499.316.327.73-.175 1.005-.345 2.468-2.08 4.94-4.368 6.32-7.344 1.214-2.736 1.384-5.781 1.611-8.726.237-6.704.148-13.415.21-20.122.036-13.877.123-27.754.026-41.63.125-.554-.597-.288-.9-.35l-.389.002zm-12.22.027c-.88.014-1.76.02-2.64.047-.178.646-.032 1.422-.087 2.117-.138 23.238-.17 46.478-.387 69.716-.087 2.72.035 5.465-.34 8.162-.633 4.12-2.486 7.998-5.137 11.203-.127.154-.522.624-.113.678.939-.412 1.637-1.242 2.433-1.872 2.767-2.49 5.586-5.138 7.076-8.628 1.363-3.128 1.908-6.57 1.846-9.97.088-18.31.031-36.622.052-54.933l.002-16.477c-.59-.183-1.325-.006-1.97-.053l-.736.01z" transform="translate(-95.219 -35.508)"/>
</svg>
