<svg xmlns="http://www.w3.org/2000/svg" viewBox="0 0 103.862 136.758" height="516.879" width="392.549">
    <g style="fill:#fff;fill-opacity:1">
        <path style="fill:#fff;fill-opacity:1;stroke:#000;stroke-width:.661458;stroke-linecap:butt;stroke-linejoin:miter;stroke-miterlimit:4;stroke-dasharray:none;stroke-opacity:1" d="M-365.264 8.722c-1.51 60.131 12.07 105.735 53.31 136.02 46.324-32.283 51.222-81.695 49.493-135.885z" transform="translate(365.707 -8.39)"/>
    </g>
    <path d="m-333.452 8.445 18.52 70.162-16.12-.092-18.31-70.025-1.783.074-.156.017.033.149 25.764 97.412c-.047 0-.066.003-.155.004-.321.004-.965.008-2.256.008-2.58 0-7.74-.017-18.064-.084l-.109.037-.016.145.586 1.464 3.93 6.204 3.642 5.177 5.11 6.53 7.14 7.4 5.559 5.322 8.183 6.393 9.327-7.149 6.505-5.984 5.346-5.748 4.871-6.22 3.455-4.874 4.424-7.828 2.22-4.422 1.73-3.431 1.632-4.616-.125-.043.002-.132-28.46-.329L-277.5 8.593l-2.068-.054-17.103 63.502-14.043-.047 17.34-63.405z" style="color:#000;font-style:normal;font-variant:normal;font-weight:400;font-stretch:normal;font-size:medium;line-height:normal;font-family:sans-serif;font-variant-ligatures:normal;font-variant-position:normal;font-variant-caps:normal;font-variant-numeric:normal;font-variant-alternates:normal;font-feature-settings:normal;text-indent:0;text-align:start;text-decoration:none;text-decoration-line:none;text-decoration-style:solid;text-decoration-color:#000;letter-spacing:normal;word-spacing:normal;text-transform:none;writing-mode:lr-tb;direction:ltr;text-orientation:mixed;dominant-baseline:auto;baseline-shift:baseline;text-anchor:start;white-space:normal;shape-padding:0;clip-rule:nonzero;display:inline;overflow:visible;visibility:visible;opacity:1;isolation:auto;mix-blend-mode:normal;color-interpolation:sRGB;color-interpolation-filters:linearRGB;solid-color:#000;solid-opacity:1;vector-effect:none;fill:#0aa9ed;fill-opacity:1;fill-rule:nonzero;stroke:none;stroke-width:.26458332px;stroke-linecap:butt;stroke-linejoin:miter;stroke-miterlimit:4;stroke-dasharray:none;stroke-dashoffset:0;stroke-opacity:1;color-rendering:auto;image-rendering:auto;shape-rendering:auto;text-rendering:auto;enable-background:accumulate" transform="translate(365.707 -8.39)"/>
    <path d="M-365.264 8.722c-1.51 60.131 12.07 105.735 53.31 136.02 46.324-32.283 51.222-81.695 49.493-135.885z" style="fill:none;stroke:#000;stroke-width:.66145831;stroke-linecap:butt;stroke-linejoin:miter;stroke-miterlimit:4;stroke-dasharray:none;stroke-opacity:1" transform="translate(365.707 -8.39)"/>
</svg>
