<svg xmlns="http://www.w3.org/2000/svg" width="400" height="500" viewBox="30.5 31.5 400 500" xml:space="preserve">
    <path style="fill:#e00e00" d="M230.45 531.13c-74.32-53.92-125.26-122.02-155.74-208.16-27.64-78.1-38.73-172.75-33.91-289.35l.02-.46h379.82l.02.46c4.81 116.6-6.28 211.24-33.91 289.35-30.48 86.14-81.42 154.24-155.74 208.16l-.28.2z"/>
    <path d="M419.96 33.21c9.07 219.45-36.25 385.95-189.45 497.1C146.04 469.02 94.36 390.9 66.52 296.34a557.24 557.24 0 0 1-5.87-21.54c-11.45-45.69-17.77-95.02-19.88-147.94-1.2-30.06-1.05-61.28.29-93.65h378.9m.92-.95H40.14l-.04.92c-4.82 116.66 6.28 211.36 33.93 289.52 30.51 86.24 81.51 154.41 155.91 208.39l.56.41.56-.41c74.4-53.98 125.4-122.15 155.91-208.39 27.65-78.16 38.75-172.86 33.93-289.52l-.04-.92z"/>
    <circle style="fill:#fff;fill-opacity:1;fill-rule:evenodd;stroke:#000;stroke-width:1;stroke-linecap:round;stroke-linejoin:round;stroke-miterlimit:4;stroke-dasharray:none;stroke-opacity:1" cx="230.5" cy="208.565" r="142.583"/>
    <circle r="12.268" cy="208.565" cx="230.5" style="fill:#e00e00;fill-opacity:1;fill-rule:evenodd;stroke:#000;stroke-width:1.08466816;stroke-linecap:round;stroke-linejoin:round;stroke-miterlimit:4;stroke-dasharray:none;stroke-opacity:1"/>
    <path d="M216.381 178.33c1.669-.86 5.162-2.042 7.007-2.354v-94.84c-21.494 1.065-44.113 8.177-63.496 21.057zM201.443 192.266c.826-1.685 2.923-4.61 4.217-5.961l-56.606-76.04c-16.555 13.63-29.477 31.254-37.941 53.048zM197.358 212.312c-.317-1.85-.33-5.448-.073-7.302l-90.414-28.486c-5.22 20.797-5.591 42.214.147 64.455zM205.428 230.543c-1.32-1.335-3.315-4.354-4.166-6.02l-89.885 29.84c7.636 20.268 20.76 38.42 37.28 52.204zM222.836 241.05c-2.198-.469-4.962-1.526-6.394-2.19l-55.489 76.706c17.716 11.507 37.544 18.712 62.435 20.542zM244.507 178.346c-1.668-.86-5.162-2.042-7.007-2.354v-94.84c21.494 1.065 44.113 8.177 63.496 21.057zM259.445 192.282c-.826-1.685-2.923-4.61-4.217-5.961l56.606-76.04c16.556 13.63 29.477 31.254 37.942 53.048zM263.53 212.328c.318-1.85.33-5.448.073-7.302l90.415-28.486c5.22 20.797 5.59 42.214-.148 64.455zM255.46 230.559c1.32-1.335 3.315-4.354 4.166-6.02l89.885 29.84c-7.636 20.268-20.76 38.42-37.28 52.204zM238.053 241.066c2.197-.469 4.961-1.526 6.394-2.19l55.488 76.706c-16.636 11.121-38.7 19.175-62.435 20.465Z" style="fill:#e00e00;fill-rule:evenodd;stroke:#000;stroke-width:1px;stroke-linecap:butt;stroke-linejoin:miter;stroke-opacity:1;fill-opacity:1"/>
</svg>
