<svg xmlns="http://www.w3.org/2000/svg" height="500" width="430">
    <path d="M340.38 393.462c61.903-66.263 83.811-135.413 84.501-242.062.286-44.24-8.017-98.666-17.653-144.528H22.772C13.136 52.734 4.832 107.16 5.12 151.4 5.809 258.05 27.717 327.2 89.62 393.462c30.424 32.566 77.48 74.895 125.38 103.4 47.9-28.505 94.956-70.834 125.38-103.4Z" style="fill:#e00e00;fill-opacity:1;stroke:#000;stroke-width:1.02081037;stroke-opacity:1"/>
    <path style="fill:#fff;stroke:#000;stroke-opacity:1" d="M218.606 450.256c48.614-16.498 44.796-45.889 104.38-75.593-5.235-26.197-34.107-21.646-51.902-47.543-2.558-3.723 14.694-2.47 23.979 2.546 16.2 8.752 42.804-18.434 44.575-26.912 3.43-16.418-42.702-11.09-52.861-6.812-24.173 10.177-35.595 2.681-35.595 2.681s10.39-27.21 22.506-25.816c19.11 2.2 83.27-21.593 75.427-32.788-1.765-2.52-21.592 4.882-19.58-2.134 7.88-27.465 13.675-63.094 21.406-84.113 15.919-43.278 51.503-63.686 40.115-63.648-20.129.07-32.729 20.984-33.473 9.388-1.03-28.382 14.923-47.418 7.577-44.028-31.994 14.765-33.428 68.083-36.186 101.856-14.05-17.414-38.1-39.182-39.774-74.162-.72-15.033 3.414-25.01 20.751-47.408 4.04-5.22-17.007-9.599-22.528-5.82-16.38 11.21-27.673 49.692-27.019 75.382-13.56-9.287-45.732-6.503-54.163-18.587-15.038-21.555-20.872-33.675-10.51-53.697 2.811-5.432-6.417-10.277-13.922-5.656-27.865 17.153-17.808 58.34-11.396 66.957-13.707.022-39.308 3.698-42.112 3.004C112.94 75.145 95.406 47.9 82.574 29.933c-3.149-4.408-8.388-5.805-9.16.89-1.758 15.236-3.45 50.84 13.462 71.318-22.834 6.58-54.814 11.077-61.834 25.322 13.355 2.963 65.182 7.284 85.127.94 88.528-24.07 131.194-3.268 163.893 14.55 62.411 34.007 52.396 119.336-40.786 118.707-67.19-.454-115.194-66.926-139.4-92.656-2.369-2.518-12.827 5.925-9.058 8.52 8.21 5.651 3.87 10.327.468 11.921-2.654 1.244-1.858 9.285.935 10.42 10.863 4.417 11.497 21.171-.374 31.825-3.338 2.995-2.946 11.078.468 13.33 6.763 4.462 19.033 18.378-.468 31.636-2.022 1.375-8.287-.786-7.951 7.98.111 2.912-.115 6.6-4.584 9.763-4.586 3.245-.372 11.347 2.713 8.707 16.742-14.33 32.656-26.293 50.977-30.606 38.76-9.125 81.158 4.376 86.178 22.908.626-.652-2.87-2.284-4.32 3.52-27.369-1.717-123.155 15.978-125.539 21.31-4.393 9.828-4.453 36.671 7.203 33.303 11.648-3.366 12.883-9.816 25.211-6.619 3.502.909 7.157 4.15 5.753 6.525-4.413 7.463-23.7 2.855-30.402 2.91-8.194.067-3.95 17.149 3.928 14.739 14.026-4.291 26.266-5.848 37.232-.845 18.584 8.477 42.813 16.554 59.138 5.515z"/>
    <path style="fill:none;stroke:#000;stroke-width:1.5;stroke-linecap:round;stroke-linejoin:miter;stroke-miterlimit:4;stroke-dasharray:none;stroke-opacity:1" d="M168.577 324.396c12.513-.925 10.438-9.373 20.087-10.444 5.528-.614 7.234 3.912 20.19 2.389"/>
    <path style="fill:none;stroke:#000;stroke-width:1.5;stroke-linecap:round;stroke-linejoin:round;stroke-miterlimit:4;stroke-dasharray:none;stroke-opacity:1" d="M176.197 322.437c11.684.872 11.215 13.202 17.635 7.62 7.245-6.3 6.545-8.33 11.507-13.297"/>
    <path style="fill:none;stroke:#000;stroke-width:1.5;stroke-linecap:round;stroke-linejoin:miter;stroke-miterlimit:4;stroke-dasharray:none;stroke-opacity:1" d="M102.997 329.323c-4.144-1.988-6.525-3.9-11.357-1.786-4.084 1.786-1.7 6.32.255 9.825 1.733 3.103 3.812.021 5.487-1.276 2.63-2.036-.304-3.645-2.17-4.721"/>
    <path style="fill:#000;fill-opacity:1;stroke:#000;stroke-width:2;stroke-linecap:round;stroke-linejoin:round;stroke-miterlimit:4;stroke-dasharray:none;stroke-opacity:1" d="M182.116 321.484c.323-4.003 9.684-3.105 13.91-5.04-6.264 6.119-.858 10.589-3.345 10.83-2.806.272-2.334-5.153-10.565-5.79z"/>
</svg>
