<svg xmlns="http://www.w3.org/2000/svg" xml:space="preserve" viewBox="30.5 31.5 400 500" height="500" width="400">
    <path d="M230.45 531.13c-74.32-53.92-125.26-122.02-155.74-208.16-27.64-78.1-38.73-172.75-33.91-289.35l.02-.46h379.82l.02.46c4.81 116.6-6.28 211.24-33.91 289.35-30.48 86.14-81.42 154.24-155.74 208.16l-.28.2-.28-.2z" fill="#32ac60"/>
    <path d="M419.96 33.21c9.07 219.45-36.25 385.95-189.45 497.1C146.04 469.02 94.36 390.9 66.52 296.34a557.24 557.24 0 0 1-5.87-21.54c-11.45-45.69-17.77-95.02-19.88-147.94-1.2-30.06-1.05-61.28.29-93.65h378.9m.92-.95H40.14l-.04.92c-4.82 116.66 6.28 211.36 33.93 289.52 30.51 86.24 81.51 154.41 155.91 208.39l.56.41.56-.41c74.4-53.98 125.4-122.15 155.91-208.39 27.65-78.16 38.75-172.86 33.93-289.52l-.04-.92z"/>
    <path d="m302.35 316.67-62.38-.31-.62-123.83c13.44-5.43 18.27-12.62 22.8-19.41 6.82-10.23 8.37-30.81 2.31-30.81h-67.94c-6.06 0-4.5 20.58 2.31 30.81 4.52 6.79 9.36 13.97 22.8 19.41l-.62 123.83-62.38.31c1.07 48.52 29.51 99.18 71.85 121.83 42.34-22.66 70.78-73.31 71.85-121.83z" style="fill-rule:evenodd;fill:#fff;stroke:#000"/>
    <path d="M255.07 158.93c.22-2.52-1.9-4.14-4-4.16-13.77-.23-27.53-.1-41.29 0-2.1.02-4.22 1.64-4 4.16 1.3 15.07 14.24 21.57 24.65 21.57 10.41 0 23.35-6.5 24.65-21.57z" style="fill-rule:evenodd;fill:#32ac60;stroke:#000"/>
    <path d="m391.72 200.22-53.14-.26-.53-105.5c11.45-4.63 15.57-10.75 19.42-16.54 5.81-8.72 7.14-26.25 1.97-26.25h-57.88c-5.16 0-3.83 17.53 1.97 26.25 3.85 5.78 7.97 11.91 19.42 16.54l-.53 105.5-53.14.26c.91 41.34 25.14 84.5 61.22 103.8 36.07-19.3 60.31-62.46 61.22-103.8z" style="fill-rule:evenodd;fill:#fff;stroke-miterlimit:4;stroke:#000"/>
    <path d="M351.43 66.13c.19-2.15-1.62-3.53-3.41-3.54-11.73-.19-23.45-.09-35.18 0-1.79.01-3.6 1.39-3.41 3.54 1.11 12.84 12.13 18.08 21 18.08s19.89-5.24 21-18.08z" style="fill-rule:evenodd;fill:#32ac60;stroke-miterlimit:4;stroke:#000"/>
    <path d="m191.72 200.22-53.14-.26-.53-105.5c11.45-4.63 15.57-10.75 19.42-16.54 5.81-8.72 7.14-26.25 1.97-26.25h-57.88c-5.16 0-3.83 17.53 1.97 26.25 3.85 5.78 7.97 11.91 19.42 16.54l-.53 105.5-53.14.26c.91 41.34 25.14 84.5 61.22 103.8 36.07-19.3 60.31-62.46 61.22-103.8z" style="fill-rule:evenodd;fill:#fff;stroke-miterlimit:4;stroke:#000"/>
    <path d="M151.43 66.13c.19-2.15-1.62-3.53-3.41-3.54-11.73-.19-23.45-.09-35.18 0-1.79.01-3.6 1.39-3.41 3.54 1.11 12.84 12.13 18.08 21 18.08s19.89-5.24 21-18.08z" style="fill-rule:evenodd;fill:#32ac60;stroke-miterlimit:4;stroke:#000"/>
</svg>
