<svg xmlns="http://www.w3.org/2000/svg" xml:space="preserve" viewBox="30.5 31.5 400 500" height="500" width="400">
    <path fill="#32ac60" d="M230.44 531.14C156.12 477.22 105.18 409.12 74.7 322.98c-27.64-78.1-38.73-172.75-33.91-289.35l.02-.46h379.82l.02.46c4.81 116.6-6.28 211.24-33.91 289.35-30.48 86.14-81.42 154.24-155.74 208.16l-.28.2-.28-.2z"/>
    <path d="M419.96 33.21c9.07 219.45-36.26 385.95-189.46 497.1C77.31 419.16 31.99 252.66 41.06 33.21h378.9m.92-.95H40.14l-.04.92c-4.82 116.66 6.28 211.36 33.93 289.52 30.51 86.24 81.51 154.41 155.91 208.39l.56.41.56-.41c74.4-53.98 125.4-122.15 155.91-208.39 27.65-78.16 38.75-172.86 33.93-289.52l-.04-.92z"/>
    <path style="fill:#ffe000;fill-opacity:1;stroke:#000;stroke-linejoin:round;stroke-opacity:1" d="M110.373 349.728c-.793-3.951 13.113 13.558 24.363 7.179 9.182-5.208 15.962-8.297 28.95-9.596 8.635-.865 19.377 3.336 32.918-.007 10.678-2.637 17.303-18.885 17.625-49.821.156-14.989 2.446-50.56.437-50.868-5.488-.839-17.315-3.272-18.158.101-2.045 8.183-4.596 11.947-19.745 10.157-2.473-.292-4.784 5.111-11.223 5.183-7.424.083-9.617-4.252-13.013-5.483-2.14-.777-4.444 2.617-9.508 3.351-6.202.9-17.064-1.906-14.942-7.265 1.01-2.553-1.593-1.738-4.324-2.802-2.408-.938-2.915-2.337-3.157-5.285-.251-3.067-6.672-2.5-6.699-8.692-.026-6.123 4.884-12.356 13.139-15.013 6.883-2.215 8.846-.392 13.5-.68 3.089-.19 6.267-4.176 17.257-3.306 9.42.746 12.3 6.389 15.11 5.934 7.184-1.162 9.715-.455 14.18 1.594 5.911 2.713 10.982 9.222 9.982 12.267-.773 2.356 8.541 1.369 13.895 1.743 6.583.46 6.961-3.632 7.183-6.229l2.505-29.41c1.446-16.97-18.516-23.859-35.02-25.933-5.425 9.059-15.216 16.9-32.94 9.84-3.905-1.556-9.623 1.352-18.3 2.793-16.448 2.732-20.42-8.924-25.241-8.684-10.56.525-19.501-3.492-21.028-11.438-1.684-8.76.64-21.322 12.884-25.307 4.271-1.39 4.702-12.29 12.355-15.58 9.037-3.883 15.337-8.357 26.37-4.045 4.193 1.639 2.226-6.79 11.488-9.594 3.615-1.095-3.832-4.916-6.224-8.447-6.421-9.48-2.11-24.793 11.525-26.148 3.059-.304 4.483-7.445 10.932-11.026 4.427-2.458 9.63-5.029 15.636-1.686 3.837 2.136 3.46-9.097 15.762-8.898 2.546.041 3.938-4.35 8.186-5.417 3.928-.988 9.644 1.178 11.136 4.908 5.43 1.805 7.491-6.568 19.189-6.354 12.907.237 12.433 9.15 16.84 9.787 4.46.645 8.535-9.623 22.07-8.466 15.775 1.348 17.2 11.254 20.824 11.1 3.166-.134 15.046-5.107 25.178-.765 6.239 2.674 12.218 8.939 13.502 14.457.313 1.347 8.049-.807 21.004 6.265 4.605 2.515 11.26 9.252 8.978 16.815-1.12 3.713 14.395 12.652 4.543 25.149-3.647 4.625-10.532 3.721-17.086 2.879-8.347-1.073-4.857 9.577-20.575 12.465-11.585 2.128-16.615-.525-21.235-5.22-2.29-2.326-5.18 5.47-15.453 6.915-6.385.898-13.438.813-19.484-.758-3.16-.82-9.155-3.04-10.28-1.479-3.494 4.857-11.62 13.946-18.234 16.382-1.539.567-2 27.558.164 27.711 2.733.193 11.296-1.199 13.24-1.979 3.706-6.594 8.826-13.865 17.448-16.197 9.053-2.45 12.973 2.998 15.892-.527 3.426-4.137 7.781-9.183 15.716-9.431 5.173-.162 13.971.5 18.626 5.998 2.807 3.315 4.724-2.078 15.117.563 7.525 1.912 12.538 9.704 11.884 16.142-.776 7.635-2.63 15.242-17.45 13.603-2.853-.315-5.943 4.466-10.886 6.648-3.917 1.728-8.493 1.334-11.94-.184-4.377-1.927-6.575 5.04-10.517 5.636-13.056 1.973-14.72-2.174-22.117-10.375-3.94-4.369-14.602 7.982-20.402-6.038-5.144.693-11.397 2.55-13.157 2.987-1.49.37-2.267 12.067-2.415 18.178-.404 16.628.316 39.425 1.634 39.663 3.459.625 8.507.428 12.039.218.862-5.156 7.9-12.087 14.43-14.316 4.048-1.382 6.663.82 11.885.096 2.256-.313 7.038-6.725 14.532-7.335 8.36-.681 9.785.381 15.069 3.486 3.15 1.85 4.682-2.8 10.48-4.254 5.495-1.379 11.273-1.75 15.428.536 6.912 3.802 10.066 13.975-1.503 19.481-3.367 1.603.402 6.762-4.291 9.524-5.04 2.966-12.595 4.01-21.025-.373-5.403-2.81-4.074 3.02-12.524 3.706-7.473.605-7.769-.764-11.372-3.198-3.966-2.678-1.237 4.494-11.847 6.232-6.545 1.072-16.233-1.967-19.389-8.973-2.882.057-8.41.178-11.35 0-1.69-.101-3.46 27.7-3.834 52.39-.295 19.494-.922 33.556 6.867 32.672 26.007-7.008 58.09 15.923 62.084 18.699 5.35 3.717 10.86 6.671 16.393 6.947 11.903.155 14.237-7.018 15.772-4.764 1.322 1.941-3.176 6.262-10.61 8.923-7.141 2.556-14.967-2.187-13.3 5.988 3.255 15.953-5.462 29.731-5.218 25.312.365-6.59 2.168-12.175 1.634-17.327-3.243-31.267-42.92-39.748-58.837-28.944 23.64 6.391 16.122 33.203 28.07 45.115 1.944 1.939 9.109 5.094 6.071 5.568-3.399.532-10.526-2.404-13.699-6.442-8.578-10.918-6.757-34.244-22.984-36.978-1.758-.296-7.43 4.077-6.43 5.522 16.955 24.475 9.118 35.61 5.649 48.504-1.078 4.007 3.038 9.671 9.51 13.763 4.17 2.637 10.146 3.834 16.902 3.012 13.33-1.624 23.166-6.75 17.535-1.012-2.629 2.678-5.722 4.461-9.147 5.497-11.52 3.483-25.9-.64-29.08 1.82-2.34 1.812 2.083 9.2 3.54 17.056 1.438 7.75.11 16.692-1.923 12.873-2.691-5.056-1.82-8.531-3.457-12.896-5.497-14.65-14.718-29.891-10.09-44.199 3.993-12.344 1.723-33.7-7.047-33.922-11.014-.279-4.764 19.942-21.066 40.133 1.573 6.489 1.616 14.74-1.853 31.672-1.084 5.29 9.997 10.255 17.84 15.863 5.847 4.18 7.093 12.427 6.732 15.933-.466 4.53-4.894-7.476-7.792-10.096-5.073-4.586-10.61-6.594-14.206-4.493-3.536 2.065-4.293 8.94-3.741 16.573.307 4.252 5.373 15.36 2.222 13.27-5.112-3.39-8.51-17.141-8.819-25-.295-7.532.566-10.922-.46-15.913-1.497-7.272 9.254-24.009 1.344-33.996-7.834 1.217-25.18 13.417-20.211 31.006 1.33 4.71 1.768 13.725.18 10.599-27.642-54.422 41.874-37.398 30-84.716-9.21 13.535-31.241 24.751-45.982 29.96-19.987 7.063-9.262 28.527-12.274 26.753-7.803-4.598-3.131-13.805-5.575-20.957-2.787-8.157-10.696-4.671-14.655-13.746-1.419-3.253 10.575 5.403 20.393 5.375 10.095-.03 57.812-25.718 48.432-36.61-7.65-8.883-17.954 11.998-27.458 12.203l-29.364.636c.987-3.81 10.388-6.319 22.5-6.102 10.129.182 15.391-5.644 15-13.983-.2-4.236-15.874-10.223-30.782-9.391-14.043.783-25.54 7.087-28.399 23.384-.581 3.315 1.176 13.039-.983 11.068-4.839-4.417-5.398-15.218-1.943-22.483-11.256.128-20.555-5.576-22.427-14.908z"/>
    <path style="fill:#32ac60;fill-opacity:1;stroke:#000;stroke-linejoin:round;stroke-opacity:1" d="M205.287 142.615c-2.212 3.547-13.131 10.902-19.179 11.108 3.433 2.327 3.349 9.286 2.958 13.919 7.04 4.355 26.6 11.539 30.687 10.307 4.826-1.453 3.46-14.513 3.25-21.883-3.485-4.122-14.218-10.672-17.716-13.45zM231.086 131.724c-3.026 1.19-8.753-2.335-10.512-.258-1.745 2.061-4.86 5.085-8.001 6.045 4.604 5.66 8.579 10.862 13.53 10.223 5.443-.703 4.774-11.306 4.983-16.01zM244.356 129.511c3.907-.844 2.932 2.347 7.582 2.35 4.183.003 5.47-.746 7.37 3.121 2.06 4.188-5.457 12.812-13.756 14.912-3.865.977-4.556-4.332-4.442-10.185.092-4.696.616-9.599 3.246-10.198z"/>
</svg>
