<svg xmlns="http://www.w3.org/2000/svg" width="400" height="500" viewBox="30.5 31.5 400 500" xml:space="preserve">
    <path d="M230.44 531.14C156.12 477.22 105.18 409.12 74.7 322.98c-27.64-78.1-38.73-172.75-33.91-289.35l.02-.46h379.82l.02.46c4.81 116.6-6.28 211.24-33.91 289.35-30.48 86.14-81.42 154.24-155.74 208.16l-.28.2-.28-.2z" style="fill:#0085ca;fill-opacity:1"/>
    <path style="fill:#ffe000;fill-opacity:1;fill-rule:evenodd;stroke:none;stroke-width:1px;stroke-linecap:butt;stroke-linejoin:miter;stroke-opacity:1" d="M238.59 524.877V369.153c0-30.732 16.137-74.889 15.556-133.22l-.77-77.318c-.096-9.644-2.342-19.115-12.469-19.115h-20.814c-10.127 0-12.373 9.471-12.469 19.115l-.77 77.319c-.581 58.33 15.556 102.487 15.556 133.219v155.724l8.084 5.99z"/>
    <path d="M238.59 524.877V369.153c0-30.732 16.137-74.889 15.556-133.22l-.77-77.318c-.096-9.644-2.342-19.115-12.469-19.115h-20.814c-10.127 0-12.373 9.471-12.469 19.115l-.77 77.319c-.581 58.33 15.556 102.487 15.556 133.219v155.724" style="fill:none;fill-rule:evenodd;stroke:#000;stroke-width:1px;stroke-linecap:butt;stroke-linejoin:miter;stroke-opacity:1"/>
    <path style="fill:#ffe000;fill-opacity:1;fill-rule:evenodd;stroke:none;stroke-width:1px;stroke-linecap:butt;stroke-linejoin:miter;stroke-opacity:1" d="M122.41 419.265v-98.112c0-30.732-16.137-74.889-15.556-133.22l.77-77.318c.096-9.644 2.342-19.115 12.469-19.115h20.814c10.127 0 12.373 9.471 12.469 19.115l.77 77.319c.581 58.33-15.556 102.487-15.556 133.219v121.213c-5.321-7.276-11.729-16.116-16.18-23.101z"/>
    <path d="M122.41 419.265v-98.112c0-30.732-16.137-74.889-15.556-133.22l.77-77.318c.096-9.644 2.342-19.115 12.469-19.115h20.814c10.127 0 12.373 9.471 12.469 19.115l.77 77.319c.581 58.33-15.556 102.487-15.556 133.219v121.213" style="fill:none;fill-rule:evenodd;stroke:#000;stroke-width:1px;stroke-linecap:butt;stroke-linejoin:miter;stroke-opacity:1"/>
    <path d="M338.59 419.265v-98.112c0-30.732 16.137-74.889 15.556-133.22l-.77-77.318c-.096-9.644-2.342-19.115-12.469-19.115h-20.814c-10.127 0-12.373 9.471-12.469 19.115l-.77 77.319c-.581 58.33 15.556 102.487 15.556 133.219v121.213c5.321-7.276 11.729-16.116 16.18-23.101z" style="fill:#ffe000;fill-opacity:1;fill-rule:evenodd;stroke:none;stroke-width:1px;stroke-linecap:butt;stroke-linejoin:miter;stroke-opacity:1"/>
    <path style="fill:none;fill-rule:evenodd;stroke:#000;stroke-width:1px;stroke-linecap:butt;stroke-linejoin:miter;stroke-opacity:1" d="M338.59 419.265v-98.112c0-30.732 16.137-74.889 15.556-133.22l-.77-77.318c-.096-9.644-2.342-19.115-12.469-19.115h-20.814c-10.127 0-12.373 9.471-12.469 19.115l-.77 77.319c-.581 58.33 15.556 102.487 15.556 133.219v121.213"/>
    <path d="M419.96 33.21c9.07 219.45-36.26 385.95-189.46 497.1C77.31 419.16 31.99 252.66 41.06 33.21h378.9m.92-.95H40.14l-.04.92c-4.82 116.66 6.28 211.36 33.93 289.52 30.51 86.24 81.51 154.41 155.91 208.39l.56.41.56-.41c74.4-53.98 125.4-122.15 155.91-208.39 27.65-78.16 38.75-172.86 33.93-289.52l-.04-.92z"/>
</svg>
