<svg xmlns="http://www.w3.org/2000/svg" height="500" width="520">
    <path d="M65 553.862C26.098 605.801 1.309 669.656 2 737.1c.861 84.046 34.484 143.384 63 176.982 58.684 69.142 126.841 108.236 195 136.78 68.159-28.544 136.316-67.638 195-136.78 28.516-33.598 62.139-92.936 63-176.982.691-67.444-24.098-131.3-63-183.238H65z" style="fill:#0085ca;fill-opacity:1;fill-rule:evenodd;stroke:#000;stroke-width:1px;stroke-linecap:butt;stroke-linejoin:miter;stroke-opacity:1" transform="translate(0 -552.362)"/>
    <path d="M317.573 572.352c24.323.275 39.688 8.474 50.833 26.366 22.55-24.811 57.292-29.827 86.594-8.164 27.785 20.541 35.405 59.744 10.088 91.727 24.87 12.314 35.626 36.293 33.996 61.577-1.53 23.719-12.538 40.671-34.791 50.334 12.444 17.757 14.571 45.762 2.65 66.439-15.206 26.375-37.853 32.418-58.537 32.546 4.797 31.46-6.39 54.49-25.921 66.766-17.527 11.015-39.724 12.433-59.313 6.416-4.535 30.632-30.536 52.336-63.172 52.336-32.636 0-58.637-21.704-63.172-52.336-19.59 6.017-41.786 4.6-59.313-6.416-19.532-12.275-30.718-35.306-25.92-66.766-20.685-.128-43.332-6.17-58.538-32.546-11.921-20.677-9.794-48.682 2.65-66.44-22.253-9.662-33.261-26.614-34.79-50.333-1.631-25.284 9.125-49.263 33.995-61.577C29.595 650.298 37.215 611.095 65 590.554c29.302-21.663 64.044-16.647 86.594 8.164 11.145-17.892 26.51-26.091 50.833-26.366 28.565-.322 49.97 17.775 57.573 36.943 7.602-19.168 29.008-37.265 57.573-36.943z" style="fill:#fff;fill-rule:evenodd;stroke:#000;stroke-width:1;stroke-linecap:butt;stroke-linejoin:miter;stroke-miterlimit:4;stroke-dasharray:none;stroke-opacity:1" transform="translate(0 -552.362)"/>
    <path d="M204.811 596.845c-32.266-.224-44.662 21.89-51.203 38.09-13.854-28.134-48.69-47.946-77.116-27.163-25.452 18.61-20.676 56.935 8.742 80.55-20.858 7.506-44.942 24.143-43.398 54.326 1.16 22.655 20.069 35.632 42.461 43.397-12.905 13.896-24.605 32.096-16.235 57.76 11.062 33.915 46.501 33.912 67.75 28.41-10.755 19.08-13.153 50.47 4.683 65.565 22.177 18.77 49.402 16.678 71.117-.312 0 30.253 12.2 60.57 48.388 60.57s48.388-30.317 48.388-60.57c21.715 16.99 48.94 19.082 71.117.312 17.836-15.096 15.438-46.485 4.683-65.564 21.249 5.501 56.688 5.504 67.75-28.412 8.37-25.663-3.33-43.863-16.235-57.759 22.392-7.765 41.301-20.742 42.46-43.397 1.545-30.183-22.539-46.82-43.397-54.325 29.418-23.616 34.194-61.942 8.742-80.55-28.426-20.784-63.262-.972-77.116 27.162-6.54-16.2-18.937-38.314-51.203-38.09-27.305.189-46.085 21.3-55.189 45.895-9.104-24.595-27.884-45.706-55.189-45.895z" style="fill:#0085ca;fill-opacity:1;fill-rule:evenodd;stroke:#000;stroke-width:1px;stroke-linecap:butt;stroke-linejoin:miter;stroke-opacity:1" transform="translate(0 -552.362)"/>
    <path style="fill:#fff;fill-rule:evenodd;stroke:#000;stroke-width:1px;stroke-linecap:butt;stroke-linejoin:miter;stroke-opacity:1" d="M347.182 839.012c23.17-25.792 43.255-54.586 42.149-88.642-1.352-41.61-31.413-71.86-59.53-78.648-31.622-7.634-60.103 18.472-63.005 37.369-2.44 15.892-1.951 32.486-1.086 39.541.752 6.14 4.549 8.081 6.83 8.256 10.14-.015 13.902-7.499 23.464-7.17 5.475.189 12.384 4.406 12.384 11.95 0 7.543-6.91 11.76-12.384 11.949-9.562.329-13.329-6.885-23.464-7.17-5.202-.146-9.499 1.25-7.93 7.279 2.212 8.5 8.384 12.849 8.473 21.617.077 7.518-3.437 15.969-13.083 15.969s-13.16-8.45-13.083-15.969c.09-8.768 6.26-13.117 8.473-21.617 1.569-6.03-2.728-7.425-7.93-7.279-10.135.285-13.902 7.499-23.464 7.17-5.475-.188-12.384-4.406-12.384-11.95 0-7.543 6.91-11.76 12.384-11.949 9.562-.329 13.325 7.155 23.464 7.17 2.281-.175 6.078-2.116 6.83-8.256.865-7.055 1.355-23.65-1.086-39.541-2.902-18.897-31.383-45.003-63.006-37.37-28.116 6.788-58.177 37.038-59.529 78.65-1.106 34.055 18.979 62.85 42.149 88.641 27.175 27.043 56.535 48.26 87.182 66.048 30.647-17.787 60.007-39.005 87.182-66.048z" transform="translate(0 -552.362)"/>
</svg>
