<svg xmlns="http://www.w3.org/2000/svg" height="603.343" width="400" version="1">
    <path d="M215.713.805c-4.968-.016-9.946.414-14.776.336-7.829-.862-15.55.4-23.292.598-.355 4.63.574 9.107.869 13.789 3.244-.528 6.609-.215 9.935-.324-.221 4.56-1.942 9.412-2.767 13.41-8.186.055-16.35.578-24.487.867-1.695-4.009-2.742-8.485-3.965-12.27 3.008-.605 6.41-1.243 9.23-1.79-.307-4.726-.5-9.142-.759-13.846-15.674 1.028-31.61 4.024-46.637 6.19-.057 4.827 2.082 9.811 2.985 14.062 2.955-.588 5.983-.98 8.959-1.467.422.16.525-.094.597-.107.217 4.519-.906 9.6-1.302 13.789-8.125.33-16.041 3.319-23.617 4.886-1.946-4.293-4.19-8.087-6.3-12.162 3.11-1.229 6.602-2.381 9.774-3.527-.19-4.629-2.387-9.129-3.422-13.086-5.424 1.519-10.924 2.246-16.416 3.537-12.543 2.95-24.388 8.077-36.465 12.969.887 4.425 3.714 8.16 5.485 12.053 1.461.467 2.854-.152 4.072-.217 4.579 12.23 10.656 24.817 15.69 36.539-1.642 1.46.231 3.122.326 4.396-.31 1.986 2.052 1.972 2.715 2.608 2.927 6.26 6.128 13.535 8.85 19.545 23.867.422 47.89.336 71.61.543 16.062-.28 32.746-.436 49.028-.436 21.242.202 43.416.188 64.879.055 11.758.185 23.535.144 35.29.217 2.724-6.59 5.384-13.736 7.874-20.088 2.323.609 2.76-2.629 3.474-3.31 2.261-1.386-.133-3.303-.164-4.073 4.793-11.506 10.076-25.06 14.823-36.865 1.032-.269 2.17-.16 3.253-.239 2.748-3.475 3.393-8.603 4.875-12.36-16.164-6.605-33.826-10.047-50.695-14.765-1.53 4.25-1.809 8.936-2.66 13.14 2.885 1.118 6.106 2.441 8.688 3.474-1.646 3.634-3.443 7.405-5.05 10.86-8.086-1.086-16.564-2.973-24.214-4.345-1.848-3.693-1.052-8.53-1.574-12.76 3.32-.045 6.873.59 10.152.87.335-4.44 1.703-9.12 2.443-13.084-15.18-4.425-31.054-4.435-46.636-6.625-.789 4.198-.56 10.14-.762 13.79 3.23.583 6.614 1.072 9.719 1.575-1.067 4.173-3.012 8.469-4.344 12.217-8.182.17-16.56-.885-24.377-1.303-1.14-4.104-1.96-8.242-2.932-12.326 3.302-.958 6.722-.43 10.153-.65.8-4.413.513-9.131.761-13.575-2.938-.536-5.915-.705-8.896-.715zm-14.615 20.387c.554.02 1.193.137 1.933.402.449.375 3 2.45 1.287 1.045 1.855 2.474.906 4.474-.27 5.46-1.506 1.263-3.061 1.605-5.064.396-1.87-1.129-2.19-5.706-1.015-6.276.568-.275 1.466-1.087 3.129-1.027zm55.474 3.186c.554.02 1.193.136 1.934.402.448.375 3 2.45 1.287 1.045 1.855 2.473.906 4.476-.27 5.46-1.506 1.264-3.062 1.606-5.064.397-1.87-1.128-2.19-5.707-1.016-6.277.568-.276 1.467-1.087 3.13-1.027zm-111.38.107c.554.02 1.192.136 1.933.402.448.375 3 2.45 1.287 1.045 1.855 2.474.906 4.476-.27 5.461-1.506 1.264-3.062 1.604-5.064.395-1.87-1.129-2.19-5.706-1.015-6.276.567-.275 1.466-1.087 3.128-1.027zm55.484 9.422c1.509.04 3.048.633 4.062.896 2.481 6.077 6.26 14.092 8.578 21.01-8.063 0-16.198.113-24.27 0 1.627-7.11 5.654-13.947 8.253-20.36.741-1.018 1.713-1.432 2.734-1.527a5.45 5.45 0 0 1 .643-.02zM313.12 35.78c.554.02 1.193.136 1.934.402.448.375 3 2.45 1.287 1.045 1.855 2.474.905 4.476-.27 5.461-1.507 1.263-3.062 1.603-5.064.395-1.87-1.129-2.188-5.706-1.014-6.276.568-.275 1.464-1.087 3.127-1.027zm-224.664.236c.554.02 1.193.137 1.934.403.448.374 3 2.45 1.287 1.045 1.855 2.473.905 4.475-.27 5.46-1.507 1.264-3.064 1.606-5.066.397-1.87-1.129-2.188-5.708-1.014-6.277.568-.276 1.466-1.088 3.129-1.028zm165.813.813c1.79-.011 3.684 1.01 4.923 1.611 2.018 7.5 4.235 14.669 5.973 22.205-8.104-1.233-16.432-1.866-24.27-3.691 2.836-6.688 7.055-12.64 10.424-18.676.837-1.064 1.875-1.443 2.95-1.45zm-107.997.025c1.422-.063 2.97.371 4.065.688 3.454 6.2 7.908 12.753 10.865 19.502-7.815 1.132-15.989 2.291-23.842 3.455.634-7.475 3.862-14.705 5.606-21.346.59-1.675 1.885-2.235 3.306-2.299zm-51.02 10.358a5.208 5.208 0 0 1 2.364.511c4.65 5.844 9.515 11.858 14.172 17.809-8.38 2.445-16.431 3.85-24.379 7.113.705-7.588 1.752-15.642 2.553-22.803.618-1.15 2.903-2.603 5.29-2.63zm212.145.34c2.124.052 4.157 1.625 4.676 2.343.847 7.344 1.434 15.499 2.66 23.074-7.754-2.44-15.367-5.998-23.455-7.382 3.353-6.14 9.29-11.829 13.303-16.94.869-.828 1.851-1.12 2.816-1.096z" style="fill:#fc0;fill-opacity:1;stroke:#000;stroke-width:1px;stroke-linecap:butt;stroke-linejoin:miter;stroke-opacity:1"/>
    <path style="fill:#000;stroke-width:1" d="M85.95 92.807c-3.173-7.165-4.582-9.818-5.106-9.616-1.044.4-4.349-6.94-3.637-8.079.388-.62-1.312-5.025-6.93-17.955-4.095-9.422-7.522-17.23-7.615-17.35-.094-.119-.958.025-1.92.32l-1.75.538-3.458-7.312c-2.577-5.448-3.291-7.416-2.803-7.722 1.257-.789 21.518-8.162 27.454-9.991 6.612-2.038 16.016-4.49 23.06-6.016 3.35-.725 4.639-.83 4.781-.387.107.334.804 3.417 1.548 6.851s1.467 6.625 1.607 7.09c.201.668-.673 1.133-4.183 2.228-2.44.76-4.437 1.615-4.437 1.897 0 .283 1.058 2.62 2.35 5.195 2.064 4.108 2.493 4.649 3.513 4.423.639-.142 5.584-1.075 10.99-2.073 5.405-.999 9.909-1.898 10.01-1.998.1-.1.367-2.683.593-5.74.313-4.216.26-5.558-.215-5.558-.345 0-2.423.25-4.62.555-2.195.306-4.124.423-4.286.261-.161-.162-.916-3.672-1.676-7.801l-1.382-7.507 3.16-.573c14.643-2.658 27.466-4.39 36.722-4.963 2.72-.168 5.91-.424 7.091-.568l2.148-.264.359 7.178c.197 3.947.461 7.541.587 7.986.186.658-.6.911-4.212 1.359-2.443.303-4.594.703-4.782.89-.504.505 2.577 9.772 3.347 10.067.363.14 5.628.053 11.7-.191l11.04-.445.908-4.423c1.482-7.221 1.73-6.765-3.684-6.765h-4.639l-.317-4.033c-.174-2.218-.446-5.71-.604-7.76l-.289-3.727L179.926.4c4.494-.54 38.96-.53 43.006.014l3.027.407-.319 6.072c-.175 3.34-.435 6.834-.579 7.764l-.26 1.691h-4.66c-5.392 0-5.09-.509-3.704 6.245l.908 4.423 5.703.332c3.137.182 8.324.458 11.527.612l5.824.281 1.645-4.938c.905-2.717 1.515-5.07 1.356-5.228-.159-.16-2.31-.535-4.778-.834l-4.49-.544.284-2.906c.156-1.599.43-5.19.61-7.979l.327-5.072 1.903.24c1.046.133 4.244.376 7.106.541 13.576.783 39.815 4.859 39.804 6.182-.01 1.042-2.594 14.54-2.83 14.775-.126.127-2.246-.056-4.71-.406-2.465-.35-4.57-.547-4.678-.439-.326.326.374 10.198.768 10.836.317.512 22.305 4.453 22.653 4.06.404-.457 4.413-8.786 4.413-9.167 0-.252-1.99-.993-4.423-1.647s-4.425-1.331-4.426-1.505c-.002-.174.75-3.661 1.671-7.749l1.674-7.432 1.581.318c11.396 2.293 25.579 6.236 42.32 11.764 8.917 2.945 9.494 3.213 9.168 4.263-1.523 4.916-4.878 13.598-5.234 13.547-.243-.035-1.026-.2-1.742-.367-1.27-.296-1.477.124-8.823 17.981-4.946 12.023-7.307 18.356-6.895 18.493.945.315.777 1.209-.932 4.978-1.062 2.343-1.788 3.351-2.276 3.164-.706-.27-2.58 3.755-7.111 15.267l-1.69 4.293h-3.533c-2.639 0-4.607-.395-7.768-1.561-2.329-.859-4.452-1.561-4.719-1.561-.266 0-.485.702-.485 1.56 0 1.042-.26 1.562-.78 1.562-.503 0-.784-.51-.789-1.431-.004-.787-.202-1.738-.44-2.113-.362-.571-7.806-3.22-9.049-3.22-.214 0-.39 1.521-.39 3.382 0 3.01-.112 3.382-1.018 3.382-.902 0-1.035-.427-1.17-3.767l-.154-3.766-3.122-.833c-1.717-.459-3.883-.982-4.813-1.164l-1.691-.331v4.93c0 4.584-.074 4.931-1.041 4.931-.97 0-1.04-.347-1.04-5.142v-5.142l-2.212-.552c-1.217-.303-3.441-.712-4.944-.91l-2.732-.357v6.052c0 4.975-.136 6.051-.765 6.051-.622 0-.791-1.179-.91-6.359l-.146-6.358-3.903-.627c-6.346-1.02-5.724-1.706-5.724 6.319 0 6.678-.052 7.025-1.04 7.025-.992 0-1.042-.347-1.042-7.218v-7.218l-3.252-.348c-1.789-.192-4.013-.482-4.944-.646l-1.69-.297v7.864c0 7.516-.047 7.863-1.041 7.863-.995 0-1.041-.347-1.041-7.77 0-8.932.49-8.206-5.724-8.46l-3.903-.158-.143 8.194c-.12 6.81-.273 8.194-.911 8.194-.644 0-.767-1.336-.767-8.326v-8.326l-3.773-.007c-2.075-.004-4.3-.148-4.944-.32l-1.17-.315v8.647c0 8.3-.042 8.647-1.041 8.647-.999 0-1.041-.347-1.041-8.586v-8.586h-9.887v8.586c0 7.221-.122 8.586-.768 8.586-.639 0-.791-1.414-.91-8.456l-.143-8.456h-9.887l-.143 8.456c-.12 7.042-.272 8.456-.911 8.456-.644 0-.768-1.324-.768-8.24 0-4.53-.096-8.336-.214-8.455-.118-.12-2.343-.142-4.944-.05l-4.729.167v8.29c0 7.941-.043 8.288-1.04 8.288s-1.041-.347-1.041-8.066V86.6h-3.318c-1.824 0-4.049.146-4.943.325l-1.626.325v7.74c0 7.394-.047 7.741-1.041 7.741-.994 0-1.04-.347-1.04-7.701v-7.702l-4.814.546-4.814.547-.145 7.155c-.119 5.887-.28 7.155-.91 7.155-.637 0-.766-1.19-.766-7.048v-7.05l-1.691.276c-.93.152-3.081.513-4.78.804-1.697.291-3.161.53-3.252.53-.09 0-.164 2.81-.164 6.244 0 5.897-.058 6.244-1.04 6.244-.981 0-1.042-.347-1.042-5.984 0-6.866.528-6.403-5.724-5.024l-3.903.86-.148 5.075c-.12 4.039-.305 5.073-.911 5.073-.612 0-.762-.919-.762-4.683 0-5.333.293-5.099-4.878-3.9-5.279 1.225-5.009.956-5.009 4.996 0 3.24-.1 3.587-1.04 3.587-.922 0-1.041-.347-1.041-3.035 0-1.67-.128-3.163-.283-3.319-.156-.156-2.322.344-4.814 1.11l-4.53 1.392-.162 1.926c-.126 1.504-.383 1.926-1.17 1.926-.73 0-1.01-.36-1.01-1.3 0-.76-.299-1.302-.719-1.302-.395 0-2.274.586-4.174 1.301-2.462.927-4.464 1.297-6.957 1.287l-3.501-.014zm9.221 8.685c5.405-2.761 25.52-8.749 38.463-11.45 22.452-4.686 39.091-6.214 67.798-6.226 23.367-.01 33.138.595 50.216 3.11 19.96 2.939 43.133 8.872 54.798 14.031 1.558.689 3.136 1.253 3.508 1.253.645 0 2.135-3.478 1.683-3.93-.491-.491-11.871-4.51-17.51-6.184-20.658-6.131-43.643-10.156-66.937-11.722-10.07-.676-41.447-.676-51.517 0-23.414 1.574-48.369 5.972-67.388 11.877-5.4 1.676-16.692 5.662-17.046 6.017-.46.459 1.153 3.942 1.825 3.942.386 0 1.334-.323 2.107-.718zm.306-7.09c20.09-7.546 46.623-13.146 74.472-15.717 9.989-.922 53.12-.914 62.965.013 18.484 1.739 34.563 4.395 49.932 8.25 9.1 2.281 21.677 6.172 27.238 8.425l2.756 1.117.717-1.694c.644-1.522.619-1.798-.25-2.734-.532-.572-1.208-1.678-1.503-2.457-.667-1.758-2.831-2.437-4.107-1.287-1.611 1.451-3.36 1.478-7.876.12-5.405-1.626-6.493-2.317-7.122-4.526-.404-1.416-.785-1.765-2.067-1.892-1.065-.105-1.881.188-2.536.91-1.185 1.31-3.537 1.38-8.446.251-4.284-.985-5.797-1.895-6.5-3.91-.656-1.882-2.897-2.666-3.671-1.283-.278.496-1.308 1.238-2.289 1.648-1.562.652-2.379.642-6.581-.085-4.875-.843-6.755-1.846-7.426-3.961-.167-.527-.873-1.1-1.57-1.275-.985-.248-1.613.056-2.847 1.376l-1.583 1.695-5.313-.343c-5.595-.36-7.385-1.07-8.417-3.336-.275-.606-1.068-1.244-1.76-1.418-.995-.25-1.561.045-2.697 1.403l-1.438 1.718-5.486-.024c-6.045-.028-7.46-.487-8.873-2.878-1.207-2.044-3.137-2.059-4.184-.033-1.15 2.224-3.144 2.804-8.913 2.596-4.949-.178-5.053-.208-6.441-1.872-1.82-2.18-3.601-2.234-5.138-.155-1.421 1.922-3.846 2.62-9.117 2.624-3.834.003-4.165-.09-5.634-1.558-2.087-2.087-4.042-2.084-5.233.008-1.179 2.072-2.828 2.633-8.739 2.97l-4.944.281-1.56-1.587c-1.974-2.007-3.942-1.819-4.802.46-.714 1.89-2.64 2.725-8.262 3.577-3.702.56-4.418.536-5.854-.207-.9-.465-1.636-1.074-1.636-1.353 0-.279-.772-.507-1.716-.507-1.49 0-1.804.241-2.376 1.821-.81 2.243-1.427 2.582-7.123 3.91-4.793 1.117-6.054 1.019-7.84-.614-1.547-1.413-3.67-.832-4.1 1.122-.468 2.132-1.725 3.017-6.308 4.44-5 1.553-6.938 1.608-8.67.245-1.846-1.451-4.017-.675-4.017 1.436 0 .802-.373 1.992-.83 2.643-.698.997-.706 3.73-.011 3.73.099 0 2.676-.937 5.726-2.083zm-6.764-3.938c.487-1.268-1.117-3.831-2.414-3.858-.58-.011-.48.693.397 2.791.846 2.023 1.514 2.377 2.017 1.067zm228.228-4.256c.03-1.465-2.662-.224-3.257 1.502-.162.468.086 1.393.55 2.056l.845 1.206.924-2.057c.508-1.13.93-2.35.938-2.707zm-214.565.338c5.183-1.587 6.477-3.086 4.527-5.24-1.13-1.25-2.738-1.197-7.46.242-3.254.993-3.978 1.419-4.387 2.583-.386 1.098-.287 1.62.465 2.452 1.207 1.333 2.405 1.326 6.855-.037zm204.561-.336c1.662-2.176.06-3.726-5.48-5.303-4.006-1.141-4.326-1.161-5.565-.35-1.48.97-1.75 2.95-.54 3.955 1.273 1.056 8.233 3.084 9.634 2.807.715-.141 1.593-.64 1.951-1.109zm-215.27-.15c.554-.296 1.007-.981 1.007-1.521 0-2.135 2.366-3.957 6.668-5.136 5.111-1.4 6.874-1.42 8.564-.09 2.13 1.675 3.314 1.353 4.447-1.209 1.109-2.505 1.952-2.979 7.542-4.237 4.67-1.052 5.085-1.023 7.334.503 2.15 1.459 4.473 1.733 4.473.528 0-.424.644-1.489 1.43-2.365 1.22-1.357 2.086-1.708 5.855-2.372 5.213-.919 7.392-.644 8.768 1.106 1.441 1.832 3.474 1.708 4.499-.275 1.196-2.314 2.64-2.983 7.75-3.594 3.932-.47 4.886-.43 6.356.267.951.452 1.87 1.267 2.044 1.811.211.667.796.99 1.789.99 1.128 0 1.722-.419 2.528-1.785 1.316-2.23 3.458-2.89 9.395-2.895 4.313-.003 4.382.018 6.08 1.819 1.99 2.11 4.12 2.45 4.66.745.662-2.085 3.243-3.083 7.977-3.085 4.9-.002 7.4.865 8.32 2.885.867 1.901 2.896 1.68 4.994-.545l1.718-1.821h4.803c5.33 0 7.833.806 8.75 2.82.303.665 1.193 1.37 1.979 1.567 1.137.286 1.649.097 2.513-.925 1.904-2.25 2.935-2.488 8.21-1.89 5.15.583 6.946 1.371 7.711 3.384.275.723 1.075 1.409 1.879 1.61 1.133.285 1.588.093 2.39-1.008 1.35-1.852 3.543-2.149 8.96-1.214 4.64.8 6.23 1.65 6.857 3.66.7 2.244 2.667 2.494 4.58.582 1.604-1.605 3.742-1.675 9.044-.298 4.293 1.115 5.19 1.7 6.156 4.01.885 2.117 2.895 2.697 4.34 1.252.57-.57 1.602-1.177 2.294-1.351 1.18-.296 7.912 1.298 10.543 2.496 1.093.498 2.795 3.22 2.795 4.472 0 1.172 2.163 1.232 3.376.093.663-.623 2.176-1.263 3.362-1.422 1.616-.217 2.117-.5 1.997-1.128-.215-1.129-16.575-6.605-28.831-9.651-30.945-7.69-60.02-10.686-96.988-9.993-27.971.525-48.293 2.823-72.592 8.209-11.962 2.651-34.392 9.438-35.827 10.84-.243.237-.286.924-.095 1.525.244.77.78 1.093 1.815 1.093.808 0 2.022.46 2.697 1.023 1.432 1.193 1.732 1.243 3.084.52zm29.752-4.615c2.216-.525 4.382-1.249 4.814-1.607 1.108-.92.975-2.794-.279-3.928-1.031-.934-1.204-.935-5.594-.03-6.163 1.27-7.827 2.998-5.31 5.515 1.252 1.252 1.297 1.253 6.37.05zm166.027-.62c.287-.457.367-1.444.179-2.193-.274-1.09-.874-1.52-3-2.152-4.76-1.414-7.631-1.589-8.793-.537-2.204 1.994-.689 4.092 3.75 5.194 3.642.904 7.19.763 7.864-.312zM88.171 78.05c22.821-8.272 51.482-13.993 82.819-16.53 10.818-.876 49.805-.873 60.363.004 32.21 2.677 60.923 8.464 83.463 16.823 2.974 1.103 5.679 2.006 6.01 2.006.555 0 2.173-3.535 1.77-3.867-.537-.442-14.668-5.133-20.419-6.779-13.338-3.817-33.884-7.964-49.099-9.909-15.547-1.987-23.603-2.457-46.523-2.714-36.707-.41-57.222 1.495-88.637 8.23-16.207 3.475-38.254 10.24-38.254 11.738 0 1.025 1.159 3.3 1.681 3.3.26 0 3.332-1.035 6.826-2.302zm52.537-.345c2.059-.31 4.27-.902 4.914-1.313 2.171-1.385 1.008-4.92-1.599-4.858-.623.015-2.872.338-4.998.718-5.04.902-6.522 2.657-4.201 4.979 1.217 1.217 1.06 1.204 5.884.474zm126.175-.244c1.187-.831 1.493-2.536.683-3.814-.46-.727-6.296-2.086-9.113-2.121-2.753-.035-4.241 2.306-2.757 4.336.556.76 5.304 1.938 9.495 2.356.295.03 1.056-.311 1.692-.757zm-100.707-3.748c1.27-1.125 1.143-3.074-.26-3.974-.93-.598-2.023-.662-5.334-.314-5.145.54-5.912.833-6.305 2.398-.413 1.645.056 2.741 1.383 3.232 1.625.601 9.45-.397 10.516-1.342zm81.137.575c2.592-2.345.275-4.442-5.46-4.943-5.038-.44-6.597.19-6.597 2.663 0 1.817.561 2.228 3.642 2.668 4.535.647 7.419.514 8.415-.388zM83.131 72.975c1.67-.623 3.092-1.165 3.158-1.203.066-.039.61-4.973 1.211-10.965.718-7.165 1.359-11.31 1.872-12.11 1.473-2.29 5.921-3.369 8.334-2.019.622.348 3.994 4.379 7.496 8.958 3.5 4.58 6.44 8.418 6.533 8.53.193.235 5.976-.87 6.312-1.206.122-.123-1.057-2.64-2.622-5.594-1.564-2.955-5.598-10.758-8.964-17.34-3.367-6.584-6.184-12.045-6.262-12.137-.21-.25-34.762 10.797-35.15 11.237-.27.308 14.521 34.984 14.923 34.984.066 0 1.487-.51 3.159-1.135zm2.648-28.568c-1.49-.868-2.6-3.535-2.25-5.403.343-1.828 1.968-3.599 3.819-4.16 1.588-.482 4.621.58 5.584 1.954 2.287 3.265-.28 8.186-4.251 8.155-1.095-.01-2.401-.255-2.902-.546zm5.23-2.144c.343-.344.624-1.392.624-2.33 0-2.238-2-3.703-4.064-2.977-3.276 1.152-2.381 5.931 1.11 5.931.938 0 1.986-.28 2.33-.624zm238.486 13.936c3.998-9.695 7.192-17.858 7.099-18.14-.159-.474-34.179-10.503-34.46-10.158-.069.086-4.146 8.038-9.06 17.672l-8.935 17.516 2.643.567c1.454.311 2.927.566 3.272.566.346 0 3.313-3.535 6.593-7.857 3.281-4.322 6.53-8.303 7.222-8.847 2.683-2.11 8.11-.676 9.32 2.463.316.82.95 5.473 1.408 10.339 1.148 12.204.893 11.414 4.078 12.633 1.486.568 2.893.998 3.126.954.233-.044 3.695-8.013 7.694-17.708zm-19.866-12.751c-3.217-3.218-1.065-8.887 3.374-8.887 1.297 0 2.346.44 3.494 1.466 1.366 1.22 1.64 1.845 1.64 3.738 0 1.892-.274 2.518-1.64 3.738-2.262 2.02-4.813 2-6.868-.055zm5.764-1.602c2.614-2.614-.3-6.254-3.9-4.872-1.935.742-1.97 4.236-.055 5.515 1.058.707 2.906.406 3.955-.643zM185.295 73.125c1.853-.516 2.576-2.816 1.32-4.203-.82-.907-1.594-1.057-5.443-1.057-5.221 0-6.8.726-6.8 3.126 0 .885.376 1.724.91 2.036 1.015.591 7.996.659 10.013.098zm41.724-.397c1.294-1.171 1.198-3.07-.205-4.053-1.447-1.013-10.255-1.16-11.228-.186-.818.818-.802 3.265.026 3.95 1.571 1.3 10.052 1.515 11.407.289zm-20.5-.47c1.436-1.005 1.481-2.508.116-3.873-.873-.873-1.734-1.04-5.348-1.04-4.816 0-6.62.778-6.62 2.854 0 2.3 1.225 2.87 6.166 2.87 3.258 0 4.855-.228 5.686-.81zm-106.751-4.51c5.257-1.484 9.558-2.862 9.558-3.063 0-.201-2.754-3.958-6.12-8.35-5.06-6.602-6.375-8.013-7.6-8.154-1.812-.208-4.31.764-4.722 1.837-.222.577-2.373 19.518-2.373 20.892 0 .104.382.042.85-.137.467-.18 5.15-1.54 10.407-3.025zm213.69 1.89c-.062-.546-.48-4.856-.928-9.579-.448-4.722-.944-9.009-1.102-9.526-.344-1.128-2.236-1.922-4.581-1.922-1.594 0-2.121.533-7.559 7.626-3.215 4.194-5.953 7.908-6.086 8.253-.16.418 1.814 1.184 5.902 2.29 3.378.915 7.781 2.216 9.784 2.892 4.105 1.384 4.732 1.38 4.57-.034zm-190.687-7.78c.19-.167-.942-6.003-1.272-6.558-.19-.321-3.708.283-4.135.71-.113.114.55 1.652 1.472 3.42 1.393 2.667 1.854 3.159 2.718 2.897.573-.173 1.12-.385 1.217-.47zm160.988-2.562c.913-1.852 1.554-3.458 1.426-3.57-.129-.113-1.2-.353-2.38-.533l-2.145-.329-.312 1.948c-.172 1.07-.46 2.686-.642 3.589-.324 1.616-.082 1.882 1.998 2.2.217.033 1.142-1.454 2.055-3.305zm-156.707 1.786c.836-.447 1.007-1.11 1.007-3.903 0-1.85-.205-3.364-.455-3.364s-1.187.146-2.082.325c-1.833.367-1.93.808-1.062 4.853.585 2.73.908 2.99 2.592 2.089zm150.52-.632c.154-.644.436-2.259.628-3.589l.349-2.417-2.168-.366c-1.192-.202-2.218-.285-2.279-.185-.061.1-.026 1.75.078 3.665.19 3.491.375 3.784 2.519 4.002.327.033.72-.466.873-1.11zm-142.11-.72c.966-.272.96-.25 3.774-11.64 1.026-4.15 2.128-8.207 2.449-9.016.824-2.077 2.51-2.999 5.609-3.07 3.59-.081 4.1.495 10.02 11.306l4.843 8.847 3.115-.186c1.714-.101 3.218-.282 3.343-.4.125-.118-2.568-8.521-5.985-18.673l-6.21-18.459-1.562.03c-.858.018-6.244.66-11.968 1.427l-10.408 1.396-.374 5.724c-.206 3.148-.734 10.993-1.173 17.432-.439 6.44-.797 12.724-.796 13.966l.002 2.257 2.211-.344c1.217-.189 2.617-.458 3.111-.597zM142 32.013c-1.397-1.248-1.688-1.886-1.688-3.696 0-1.81.291-2.448 1.688-3.696 2.31-2.064 4.842-2.06 6.915.013 3.217 3.217 1.065 8.886-3.374 8.886-1.31 0-2.349-.442-3.541-1.507zm5.537-1.392c.45-.45.818-1.487.818-2.304 0-1.9-1.227-3.122-3.13-3.122-1.548 0-3.115 1.57-3.115 3.122 0 2.606 3.598 4.134 5.427 2.304zm124.67 29.308c.01-1.315-2.118-33.519-2.382-36.064l-.273-2.63-11.703-1.47c-6.437-.808-11.798-1.376-11.913-1.26-.344.344-12.33 36.957-12.148 37.108.092.077 1.507.271 3.143.432l2.974.293 5.032-9.138c2.767-5.025 5.468-9.574 6.001-10.107.686-.686 1.727-.97 3.548-.97 2.92 0 4.749.673 5.621 2.07.329.526 1.769 5.455 3.2 10.953 1.432 5.499 2.729 10.123 2.882 10.276.294.294 3.559.996 5.104 1.098.5.033.912-.233.915-.59zM253.36 32.013c-1.397-1.248-1.688-1.886-1.688-3.696 0-1.828.289-2.446 1.753-3.755 1.521-1.359 2.037-1.528 3.89-1.28 4.397.59 6.092 5.585 2.96 8.717-2.073 2.073-4.605 2.078-6.915.014zm5.537-1.392c.45-.45.817-1.487.817-2.304 0-1.9-1.226-3.123-3.13-3.123-1.548 0-3.114 1.57-3.114 3.123 0 2.606 3.597 4.134 5.427 2.304zm-107.25 26.88c4.244-.545 7.815-1.09 7.935-1.21.428-.429-9.304-17.615-10.265-18.13-1.267-.677-4.33-.094-5.276 1.005-.407.473-1.807 5.162-3.11 10.422l-2.372 9.563 2.686-.33c1.478-.181 6.158-.776 10.402-1.32zm111.71.715c0-1.693-4.69-18.679-5.32-19.27-1.247-1.167-4.324-1.37-5.51-.362-.595.506-3.118 4.634-5.606 9.171-3.306 6.032-4.347 8.36-3.87 8.655.36.222 2.44.56 4.625.753 2.185.193 5.963.662 8.396 1.043 6.184.97 7.285.97 7.285.01zm-89.504-6.482V48.09H171.8c-1.128 0-2.212.261-2.41.58-.197.32.082 1.959.62 3.643.88 2.756 1.121 3.062 2.41 3.062 1.425 0 1.43-.016 1.43-3.642zm5.646 2.731c.263-.5.644-2.14.847-3.642l.37-2.732H175.933v7.285h1.542c.94 0 1.73-.356 2.022-.91zm46.804-2.812.153-3.463-2.14-.361c-1.176-.2-2.256-.244-2.4-.1-.428.428.971 6.833 1.586 7.26.312.216 1.035.333 1.607.26.906-.116 1.061-.584 1.194-3.596zm6.189.37c.6-1.843.96-3.483.8-3.642-.16-.16-1.305-.29-2.545-.29h-2.255v3.643c0 3.64 0 3.642 1.455 3.642 1.33 0 1.549-.289 2.545-3.352zm-40.451-7.095C196.442 33.626 196.922 33 201.17 33c4.268 0 4.757.638 9.153 11.938l3.857 9.911 3.252.003c2.269.002 3.245-.193 3.23-.647-.014-.358-1.711-8.963-3.774-19.124l-3.75-18.473-11.671-.14c-6.42-.077-11.843.04-12.051.26-.209.22-1.932 8.48-3.83 18.353-1.9 9.875-3.576 18.363-3.726 18.864-.24.8.126.91 3.019.91h3.292zm5.709-16.05c-3.217-3.218-1.065-8.887 3.374-8.887 1.31 0 2.349.443 3.545 1.511 1.44 1.287 1.683 1.845 1.634 3.745-.048 1.806-.371 2.511-1.692 3.692-2.255 2.014-4.808 1.99-6.861-.062zm5.764-1.602c1.25-1.25 1.321-2.49.23-4.047-.961-1.374-3.402-1.553-4.616-.339-.45.45-.818 1.487-.818 2.304 0 2.913 3.124 4.162 5.204 2.082zm8.326 27.297c0-1.244-7.497-18.94-8.126-19.182-1.17-.449-4.511-.364-5.296.134-.528.334-7.913 18.164-7.913 19.103 0 .125 4.8.228 10.667.228 5.868 0 10.668-.127 10.668-.283zm-92.38-1.262c1.49-.346 2.185-.306 2.482.142.303.457.548.393.922-.24.306-.517 1.533-1.002 3.07-1.213l2.561-.352.173-3.391c.095-1.865.032-3.477-.14-3.582-.172-.106-1.795.083-3.606.42-2.565.477-3.34.473-3.504-.017-.115-.346-.45-.63-.742-.63-.293 0-.403.338-.245.752.224.582-.584.897-3.587 1.402-2.13.358-3.875.834-3.875 1.058 0 .224.634 1.7 1.41 3.281 1.489 3.037 1.727 3.147 5.082 2.37zm168.506-2.37c.775-1.58 1.41-3.069 1.41-3.308 0-.24-1.768-.738-3.929-1.108-2.906-.497-3.858-.855-3.659-1.374.148-.387.062-.703-.191-.703s-.55.267-.658.593c-.147.44-1.103.434-3.747-.026-1.952-.34-3.66-.508-3.795-.373-.134.135-.083 1.752.114 3.594l.359 3.349 5.541 1.051c3.048.579 5.902 1.08 6.344 1.116.486.038 1.357-1.07 2.211-2.81zm-107.032-5.19c.318-.095.739-1.188.936-2.429.197-1.24.498-2.816.669-3.5l.31-1.244-3.978.255c-3.118.2-3.977.103-3.977-.447 0-.386-.235-.703-.52-.703-.287 0-.521.352-.521.781 0 .624-.78.78-3.903.78-2.964 0-3.903.173-3.903.716 0 .599.6 2.555 1.807 5.901.17.47 1.803.56 6.366.347 3.376-.157 6.397-.363 6.714-.458zm54.378-2.115c1.53-4.344 1.5-4.391-2.631-4.391-2.878 0-3.735-.186-4.193-.911-.413-.652-.654-.726-.85-.26-.181.431-1.486.65-3.873.65-3.39 0-3.598.068-3.587 1.171.016 1.5.838 5.056 1.267 5.485.293.293 11.255 1.083 12.477.899.267-.04.893-1.23 1.39-2.643zM116.134 44.7c3.498-.504 3.554-.584 2.93-4.155-.301-1.717-.596-3.19-.655-3.274-.249-.351-9.604 1.624-9.604 2.028 0 .244.64 1.748 1.422 3.342 1.153 2.35 1.622 2.853 2.472 2.651.577-.137 2.123-.403 3.435-.592zm176.233-2.303c.93-1.693 1.69-3.283 1.69-3.532 0-.396-7.25-1.702-9.451-1.702-.592 0-.956.88-1.344 3.252-.293 1.79-.45 3.343-.35 3.452.163.178 5.913 1.411 7.243 1.554.286.03 1.281-1.33 2.212-3.024zm-166.286.432 2.88-.578.319-3.422c.175-1.882.243-3.498.15-3.591-.217-.217-8.209 1.304-8.527 1.622-.131.132-.074 1.659.127 3.393.413 3.555.347 3.521 5.051 2.576zm155.14-2.443c.24-1.519.318-3.07.173-3.447-.15-.394-1.556-.842-3.296-1.05-1.669-.2-3.56-.49-4.205-.642-1.092-.26-1.17-.109-1.163 2.25.011 4.18.316 4.712 3.033 5.292 4.463.952 4.962.733 5.458-2.403zM84.363 30.47c12.745-4.046 23.458-7.357 23.807-7.357.874 0 .784-1.048-.58-6.765l-1.18-4.943-1.794.14c-2.796.217-18.237 4.17-25.732 6.587-9.925 3.2-23.254 8.271-23.512 8.945-.34.886 4.606 11.204 5.254 10.962.31-.116 10.993-3.522 23.737-7.569zm88.968 5.424c0-.653-.144-2.243-.321-3.533l-.322-2.345-4.752.258c-2.613.143-4.834.33-4.935.418-.239.207 1.5 5.534 2.027 6.21.23.295 2.122.447 4.354.35 3.715-.161 3.95-.242 3.95-1.358zm8.358.749c1.526 0 1.52.013 2.35-4.814l.336-1.951h-9.619l.323 1.951c.177 1.074.325 2.745.328 3.714l.006 1.762 2.414-.331c1.328-.182 3.066-.331 3.862-.331zm56.84-2.792c1.264-3.797 1.08-3.954-4.644-3.965-4.805-.01-4.853.039-4.867 4.826l-.007 2.493 4.252-.151 4.25-.151zm-11.489-.46c.112-1.79.119-3.429.016-3.643-.175-.365-8.973-.586-8.973-.226 0 .628 1.19 6.417 1.382 6.73.133.215 1.846.39 3.807.39h3.565zm116.17-2.25c1.067-3.027 1.86-5.58 1.762-5.673-.424-.402-23.747-7.708-30.62-9.59-9.098-2.493-18.085-4.515-18.448-4.15-.495.493-2.548 10.857-2.217 11.188.322.321 45.861 13.57 47.003 13.674.32.029 1.453-2.423 2.52-5.45zM146.012 17.45l19.254-2.444.14-2.841c.077-1.563-.043-4.247-.265-5.964l-.406-3.122-2.596.141c-13.18.717-41.886 4.67-41.886 5.768 0 .185.469 2.795 1.041 5.8.573 3.003 1.04 5.515 1.04 5.582 0 .067.996-.013 2.213-.178 1.216-.164 10.875-1.398 21.465-2.742zm134.769-2.273c.512-2.933 1.025-5.584 1.14-5.89.47-1.26-20.644-4.378-41.56-6.138l-2.96-.249-.272 2.691c-.969 9.537-.982 9.142.314 9.423.657.142 9.86 1.335 20.449 2.65 10.59 1.314 19.488 2.474 19.774 2.577 1.927.696 2.18.283 3.115-5.064zM223.492 8.72c.244-3.768.177-5.728-.21-6.114-.754-.755-43.437-.8-44.139-.048-.272.293-.368 2.968-.218 6.115l.267 5.594h43.942z"/>
    <path style="fill:#0085ca;fill-opacity:1;fill-rule:evenodd;stroke:none;stroke-width:1px;stroke-linecap:butt;stroke-linejoin:miter;stroke-opacity:1" d="M399.25 101.846v397.526c0 54.014-32.113 65.332-67.562 67.38-39.283 2.267-70.935-1.17-106.13 9.9-19.37 6.09-24.214 17.128-25.558 26.586-1.344-9.458-6.189-20.495-25.557-26.587-35.196-11.07-66.848-7.632-106.13-9.9C32.862 564.704.75 553.386.75 499.371V101.847H200z"/>
    <path style="fill:#fff;fill-rule:evenodd;stroke:#000;stroke-width:1.5;stroke-linecap:butt;stroke-linejoin:miter;stroke-miterlimit:4;stroke-dasharray:none;stroke-opacity:1" d="M179.858 330.079c1.255-37.64-2.883-56.048-12.486-76.356-5.504-11.641-18.368-23.132-30.392-26.835-14.857-4.575-30.83-2.23-43.074 1.733-27.427 8.878-41.28 31.275-44.832 54.21-1.499 16.873-1.306 42.375 4.484 55.133 3.956 8.297 8.898 9.83 13.537 7.097 2.42 2.32 5.978 5.837 10.382 1.971 3.81 4.759 8.194 5.143 10.646 2.366 3.068 4.077 10.03 3.93 9.2-1.183-2.198-13.536-4.444-37.174.262-57.3 4.364-18.658 15.38-36.94 36.8-36.01 25.135 1.093 39.963 33.325 38.376 75.7z"/>
    <path style="fill:#fc0;fill-opacity:1;fill-rule:evenodd;stroke:#000;stroke-width:1.5;stroke-linecap:butt;stroke-linejoin:miter;stroke-miterlimit:4;stroke-dasharray:none;stroke-opacity:1" d="m5.062 416.095 54.804 6.374 21.488-14.851c1.239-3.018 2.475-7.209 2.91-10.584.533-4.138.625-10.964-1.661-14.518-.64-.995-2.785-4.257-10.383-7.36-16.76-6.844-25.623-8.867-53.556-11.499-3.423-.322-8.734 6.287-12.813 17.02-3.332 8.764-4.69 22.839-.789 35.418z"/>
    <path style="fill:#000;fill-rule:evenodd;stroke:#000;stroke-width:1px;stroke-linecap:butt;stroke-linejoin:miter;stroke-opacity:1" d="M96.797 404.99c3.238-20.133 10.134-33.009 19.188-44.158 14.78-18.2 31.867-26.391 48.365-30.227 21.607-5.024 45.223-.514 65.186 11.302 18.43 10.908 35.034 31.076 54.673 32.067 26.467 1.336 31.615-38.459 23.131-55.723-7.112-14.473-16.778-35.808-27.336-56.249-11.552 2.536-22.716.924-33.645-5.52-8.367-4.932-13.598-15.634-14.457-23.918 9.262 5.972 19.183 6.428 29.702-3.154 7.688-7.003 15.14-4.124 22.343-3.68 4.347-7.935 10.453-18.394 23.13-15.245 9.274 2.303 15.356-5.105 21.291-16.034.76 13.405 1.808 26.638-5.257 40.215-6.158 11.836-17.791 18.463-15.77 22.605 9.19 18.841 23.969 25.857 38.901 41.792 27.72 29.582 21.523 73.9-2.103 104.875l-138.26 33.119z"/>
    <path style="fill:none;fill-rule:evenodd;stroke:#000;stroke-width:1.5;stroke-linecap:round;stroke-linejoin:round;stroke-miterlimit:4;stroke-dasharray:none;stroke-opacity:1" d="M67.095 345.061c-8.037-13.061-6.945-30.932-6.572-45.21M77.477 347.032c-6.257-9.856-6.413-30.095-5.191-45.34M88.123 349.398c-7.521-13.956-5.432-30.446-4.929-45.078"/>
    <path style="fill:none;fill-rule:evenodd;stroke:#000;stroke-width:1.5;stroke-linecap:butt;stroke-linejoin:miter;stroke-miterlimit:4;stroke-dasharray:none;stroke-opacity:1" d="M2.5 404.464c5.6 2.583 11.512 4.61 17.282 5.782M2.433 396.841c8.857 3.829 21.582 7.49 29.768 9.66M4.01 387.642c17.788 4.468 35.581 8.937 52.965 13.405M6.902 377.917c17.643 3.513 35.888 7.644 61.638 16.033M71.695 387.773C38.34 376.766 25.43 374.618 9.53 372.003M12.488 367.469c24.246 2.031 45.932 7.867 62.492 15.573"/>
    <path style="fill:#fc0;fill-opacity:1;fill-rule:evenodd;stroke:#000;stroke-width:1.5;stroke-linecap:butt;stroke-linejoin:miter;stroke-miterlimit:4;stroke-dasharray:none;stroke-opacity:1" d="M33.778 365.3c-9.249 9.365-17.244 28.428-16.23 46.26l-5.837 1.906c-2.013-21.26 5.764-40.333 15.31-48.954zM47.835 402.821l6.511-1.183c-.505-6.682 6.34-19.73 14.194-27.73l-5.19-1.971c-6.464 4.79-14.787 19.682-15.515 30.884z"/>
    <path style="fill:none;fill-rule:evenodd;stroke:#000;stroke-width:1.5;stroke-linecap:butt;stroke-linejoin:miter;stroke-miterlimit:4;stroke-dasharray:none;stroke-opacity:1" d="M66.635 400.193c1.174-7.27 8.705-21.596 13.34-20.568"/>
    <path d="M72.945 425.178c-29.908 0-53.222 10.16-72.195 17.318v-25.22c18.973-7.159 42.287-17.319 72.195-17.319 51.139 0 73.18 28.248 127.055 28.248s75.916-28.248 127.055-28.248c29.908 0 53.222 10.16 72.195 17.318v25.221c-18.973-7.158-42.287-17.318-72.195-17.318-51.139 0-73.18 28.248-127.055 28.248s-75.916-28.248-127.055-28.248z" style="fill:#fff;fill-rule:evenodd;stroke:none;stroke-width:1px;stroke-linecap:butt;stroke-linejoin:miter;stroke-opacity:1"/>
    <path style="fill:#fff;fill-rule:evenodd;stroke:none;stroke-width:1px;stroke-linecap:butt;stroke-linejoin:miter;stroke-opacity:1" d="M72.945 475.62c-29.908 0-53.222 10.16-72.195 17.318v-25.22c18.973-7.159 42.287-17.319 72.195-17.319 51.139 0 73.18 28.248 127.055 28.248s75.916-28.248 127.055-28.248c29.908 0 53.222 10.16 72.195 17.318v25.221c-18.973-7.158-42.287-17.318-72.195-17.318-51.139 0-73.18 28.248-127.055 28.248S124.084 475.62 72.945 475.62z"/>
    <path style="fill:#fff;fill-rule:evenodd;stroke:none;stroke-width:1px;stroke-linecap:butt;stroke-linejoin:miter;stroke-opacity:1" d="M327.055 526.062c25.23 0 45.768 7.23 62.966 13.79 4.244-7.412 6.434-14.824 7.795-22.236-18.711-7.118-41.602-16.775-70.761-16.775-51.139 0-73.18 28.247-127.055 28.247s-75.916-28.247-127.055-28.247c-29.159 0-52.05 9.657-70.761 16.775 1.361 7.412 3.55 14.824 7.795 22.235 17.198-6.559 37.736-13.789 62.966-13.789 51.139 0 73.18 28.247 127.055 28.247s75.916-28.247 127.055-28.247z"/>
    <path style="fill:none;fill-rule:evenodd;stroke:#000;stroke-width:1.5;stroke-linecap:butt;stroke-linejoin:miter;stroke-miterlimit:4;stroke-dasharray:none;stroke-opacity:1" d="M.75 417.275c18.973-7.158 42.287-17.318 72.195-17.318 51.139 0 73.18 28.248 127.055 28.248s75.916-28.248 127.055-28.248c29.908 0 53.222 10.16 72.195 17.318m0 25.221c-18.973-7.158-42.287-17.318-72.195-17.318-51.139 0-73.18 28.248-127.055 28.248s-75.916-28.248-127.055-28.248c-29.908 0-53.222 10.16-72.195 17.318"/>
    <path d="M.75 467.717C19.723 460.56 43.037 450.4 72.945 450.4c51.139 0 73.18 28.248 127.055 28.248s75.916-28.248 127.055-28.248c29.908 0 53.222 10.16 72.195 17.318m0 25.221c-18.973-7.158-42.287-17.318-72.195-17.318-51.139 0-73.18 28.248-127.055 28.248S124.084 475.62 72.945 475.62c-29.908 0-53.222 10.16-72.195 17.318" style="fill:none;fill-rule:evenodd;stroke:#000;stroke-width:1.5;stroke-linecap:butt;stroke-linejoin:miter;stroke-miterlimit:4;stroke-dasharray:none;stroke-opacity:1"/>
    <path d="M9.98 539.851c17.197-6.559 37.735-13.789 62.965-13.789 51.139 0 73.18 28.247 127.055 28.247s75.916-28.247 127.055-28.247c25.23 0 45.768 7.23 62.966 13.79m7.795-22.236c-18.711-7.118-41.602-16.775-70.761-16.775-51.139 0-73.18 28.247-127.055 28.247s-75.916-28.247-127.055-28.247c-29.159 0-52.05 9.657-70.761 16.775" style="fill:none;fill-rule:evenodd;stroke:#000;stroke-width:1.5;stroke-linecap:butt;stroke-linejoin:miter;stroke-miterlimit:4;stroke-dasharray:none;stroke-opacity:1"/>
    <path d="M399.25 101.846v397.526c0 54.014-32.113 65.332-67.562 67.38-39.283 2.267-70.935-1.17-106.13 9.9-19.37 6.09-24.214 17.128-25.558 26.586-1.344-9.458-6.189-20.495-25.557-26.587-35.196-11.07-66.848-7.632-106.13-9.9C32.862 564.704.75 553.386.75 499.371V101.847H200z" style="fill:none;fill-rule:evenodd;stroke:#000;stroke-width:1.5;stroke-linecap:butt;stroke-linejoin:miter;stroke-miterlimit:4;stroke-dasharray:none;stroke-opacity:1"/>
</svg>
