<svg xmlns="http://www.w3.org/2000/svg" viewBox="0 0 227.779 266.646" height="1007.796" width="860.897">
    <path d="M98.686 282.604c-29.916-26.338-57.991-63.734-75.257-100.24C9.762 153.467.492 121.91-3.846 89.52c-2.182-16.293-3.036-40.547-2.85-54.301l.167-12.375 113.62.204c106.966.191 113.847.3 113.847.3s.141 12.938.117 26.017c-.036 19.851-.612 25.688-1.768 37.036-6.319 61.98-31.625 115.963-71.015 163.164-12.745 15.272-38.018 39.991-40.82 39.925-.533-.012-4.478-3.112-8.766-6.887z" style="fill:#fff;fill-opacity:1;stroke:#000;stroke-width:.78;stroke-miterlimit:4;stroke-dasharray:none;stroke-opacity:1" transform="translate(6.721 -22.845)"/>
    <path d="M218.374 90.459c-4.62-2.035-9.867-2.306-13.48-2.965-9.603-1.749-37.129 1.842-46.161 3.414-13.86 2.413-25.421 2.646-37.224 9.199-3.737 2.074-13.094 5.97-13.343 5.939-.248-.03-5.777-3.132-11.409-5.97-10.165-5.124-22.318-9.48-32.59-11.684-15.024-3.221-35.49-3.375-53.182-.399-4.537.705-8.868 1.12-13.288 2.018C2.57 126.73 13.825 161.85 31.4 194.322c4.145-1.043 7.527-1.134 11.542-1.425 20.388-1.416 37.038-5.866 54.368-14.529l10.966-5.48 10.067 5.1c18.034 9.139 46.945 14.275 57.412 14.463 5.846.263 6.986 0 9.824-.054 13.273-24.947 22.994-51.649 28.77-79.474 1.869-8.998 3.149-15.871 4.024-22.464z" style="fill:#76b568;stroke-width:.76110768" transform="translate(6.721 -22.845)"/>
    <path d="M98.686 282.604c-29.916-26.338-57.991-63.734-75.257-100.24C9.762 153.467.492 121.91-3.846 89.52c-2.182-16.293-3.036-40.547-2.85-54.301l.167-12.375 113.62.204c106.966.191 113.847.3 113.847.3s.141 12.938.117 26.017c-.036 19.851-.612 25.688-1.768 37.036-6.319 61.98-31.625 115.963-71.015 163.164-12.745 15.272-38.018 39.991-40.82 39.925-.533-.012-4.478-3.112-8.766-6.887zm19.47-3.971c18.472-16.596 36.703-38.212 51.33-60.52 6.97-10.99 14.376-23.871 19.43-34.291 7.594-15.719 18.886-49.4 18.886-49.4s-4.912 1.628-8.687 2.4c-15.105 3.085-31.18 2.455-43.9-1.72-8.011-2.63-19.237-8.87-28.906-16.07-4.9-3.65-10.988-8.065-13.526-9.811l-4.617-3.175 1.888-1.557c2.962-2.445 19.87-10.327 27.682-12.904 20.136-6.645 45.876-8.153 69.278-4.06 5.222.914 10.003 1.64 10.003 1.64s2.402-17.707 2.46-39.41c.035-12.435-.164-24.977-.164-24.977s-6.896-.362-111.54-.362c-97.653 0-112.425.24-112.425.24s-.535 4.987-.16 25.48c.264 14.47 1.502 29.459 1.758 31.836 2.325 21.554 7.779 42.732 11.38 54.54l2.009 6.584 2.461-.52c8.132-1.718 12.981-2.178 22.734-2.157 9.179.02 12.156.345 18.713 2.048 12.272 3.186 24.884 9.003 38.229 19.462 2.573 2.016 6.351 4.715 9.031 6.516a553.158 553.158 0 0 0 6.774 4.442s-22.07 11.561-33.91 15.209c-10.609 3.269-29.535 6.297-40.922 6.4-.75.007-1.831.1-1.831.1s10.24 18.472 15.49 26.304c6.076 9.065 16.16 22.364 22.788 30.054 13.193 15.305 35.372 36.477 37.786 36.068.772-.13 5.486-3.905 10.477-8.39z" style="fill:#2a3368;stroke-width:.77970129" transform="translate(6.721 -22.845)"/>
</svg>
