<svg xmlns="http://www.w3.org/2000/svg" width="500" height="607" viewBox="0 0 132.292 160.602">
    <g style="stroke-width:1.00008">
        <g style="stroke-width:1.00008">
            <path style="font-variation-settings:normal;opacity:1;vector-effect:none;fill:#d6d7d9;fill-opacity:1;stroke:#000;stroke-width:1.05841;stroke-linecap:butt;stroke-linejoin:miter;stroke-miterlimit:4;stroke-dasharray:none;stroke-dashoffset:0;stroke-opacity:1;stop-color:#000;stop-opacity:1" d="M75.01 38.51c-2.808.074-5.54.21-8.191.4l.39 7.822c-2.693.179-5.292.413-7.803.686l-1.234-7.678c-2.964.357-5.794.777-8.496 1.236l1.504 7.521c-3.01.464-5.846.976-8.488 1.514l-1.724-7.325a165.066 165.066 0 0 0-8.046 2.005l1.786 7.144a151.994 151.994 0 0 0-7.059 1.972l-2.89-6.606c-6.007 2.045-9.315 3.64-9.315 3.64L27.312 70.19s23.53-7.675 52.44-7.675c28.912 0 52.442 7.675 52.442 7.675l11.869-19.349s-3.309-1.595-9.317-3.64l-2.89 6.606a151.983 151.983 0 0 0-7.058-1.972l1.786-7.145a165.1 165.1 0 0 0-8.046-2.004l-1.724 7.325a180.302 180.302 0 0 0-8.488-1.514l1.504-7.52c-2.702-.46-5.532-.88-8.497-1.237l-1.234 7.678c-2.51-.273-5.109-.507-7.803-.686l.391-7.822c-2.651-.19-5.383-.326-8.192-.4l-.406 7.855c-1.426-.033-2.87-.052-4.336-.052-1.466 0-2.91.02-4.336.052z" transform="matrix(1.01658 0 0 1.01555 -14.93 -38.558)"/>
            <path style="font-variation-settings:normal;opacity:1;vector-effect:none;fill:none;fill-opacity:1;stroke:#000;stroke-width:1.05842;stroke-linecap:butt;stroke-linejoin:miter;stroke-miterlimit:4;stroke-dasharray:none;stroke-dashoffset:0;stroke-opacity:1;stop-color:#000;stop-opacity:1" d="M84.09 46.365c2.817.065 5.554.19 8.206.367m7.804.686c2.869.312 5.614.677 8.226 1.08m8.488 1.513c2.9.59 5.565 1.209 7.984 1.824m7.059 1.972c5.668 1.738 8.796 3.092 8.796 3.092M75.417 46.365c-2.817.065-5.555.19-8.207.367m-7.804.686c-2.869.312-5.614.677-8.226 1.08m-8.488 1.513a169.9 169.9 0 0 0-7.984 1.824m-7.059 1.972c-5.668 1.738-8.796 3.092-8.796 3.092" transform="matrix(1.01658 0 0 1.01555 -14.93 -38.558)"/>
            <path style="font-variation-settings:normal;opacity:1;vector-effect:none;fill:none;fill-opacity:1;stroke:#000;stroke-width:.793814;stroke-linecap:butt;stroke-linejoin:miter;stroke-miterlimit:4;stroke-dasharray:none;stroke-dashoffset:0;stroke-opacity:1;stop-color:#000;stop-opacity:1" d="M84.31 42.082c2.813.07 5.548.201 8.2.386m8.262.766c2.92.337 5.715.728 8.375 1.162m8.608 1.62a167.11 167.11 0 0 1 8.017 1.922m7.665 2.256c5.69 1.849 8.825 3.28 8.825 3.28M75.195 42.082c-2.812.07-5.547.201-8.199.386m-8.262.766c-2.92.337-5.715.728-8.375 1.162m-8.608 1.62a167.11 167.11 0 0 0-8.017 1.922m-7.665 2.256c-5.69 1.849-8.825 3.28-8.825 3.28m116.592 13.811s-23.577-8.47-54.083-8.47c-30.506 0-54.083 8.47-54.083 8.47m-1.905-2.909s23.813-8.666 55.988-8.666 55.988 8.666 55.988 8.666M21.96 61.452s23.13-9.43 57.792-9.43c34.663 0 57.792 9.43 57.792 9.43M20.958 59.817s23.532-9.91 58.795-9.91c35.263 0 58.795 9.91 58.795 9.91" transform="matrix(1.01658 0 0 1.01555 -14.93 -38.558)"/>
            <path style="font-variation-settings:normal;vector-effect:none;fill:none;fill-opacity:1;stroke:#000;stroke-width:.793814;stroke-linecap:butt;stroke-linejoin:miter;stroke-miterlimit:4;stroke-dasharray:none;stroke-dashoffset:0;stroke-opacity:1;stop-color:#000" d="m94.163 46.869-.316 3.573m-8.792-.45.162-3.69m25.247 2.41-.68 3.622m-8.333-1.167.367-3.447m24.379 4.394-1.044 3.446m-7.575-1.775.823-3.514m9.607 18.637 1.306-3.084m3.256-8.127 1.294-3.233m-40.788 4.689-.33 3.733m-8.238-.425.164-3.76m23.488 2.296-.673 3.59m-7.37-.85.407-3.833m22.078 4.082-1.083 3.577m-6.803-1.559.85-3.626M88.653 58.81l.171-2.651m7.796 3.23.284-2.905m7.424 3.868.396-2.734m7.133 3.898.567-2.835m6.875 4.465.709-3.048m6.024 4.749 1.133-3.048m4.465 4.607 1.418-2.764M65.343 46.869l.316 3.573m8.792-.45-.162-3.69m-25.247 2.41.68 3.622m8.333-1.167-.367-3.447M33.31 52.114l1.044 3.446m7.575-1.775-.823-3.514m-9.607 18.637-1.306-3.084m-3.256-8.127-1.294-3.233m40.788 4.689.33 3.733m8.238-.425-.164-3.76m-23.488 2.296.673 3.59m7.37-.85-.407-3.833m-22.078 4.082 1.083 3.577m6.803-1.559-.85-3.626m26.913-3.568-.171-2.651m-7.796 3.23-.284-2.905m-7.424 3.868-.396-2.734m-7.133 3.898-.567-2.835m-6.875 4.465-.708-3.048m-6.024 4.749-1.134-3.048m-4.465 4.607-1.418-2.764m53.295-7.932v3.104" transform="matrix(1.01658 0 0 1.01555 -14.93 -38.558)"/>
            <path style="font-variation-settings:normal;opacity:1;vector-effect:none;fill:none;fill-opacity:1;stroke:#000;stroke-width:.793814;stroke-linecap:butt;stroke-linejoin:miter;stroke-miterlimit:4;stroke-dasharray:none;stroke-dashoffset:0;stroke-opacity:1;stop-color:#000;stop-opacity:1" d="m87.196 46.331.211-4.281m2.877-3.557-.113 3.628m16.788-1.952-.559 3.723m-2.834-.425-.564 4.319m20.828-3.498-.638 2.977m-2.83-.821-.85 3.614m21.385-.454-1.293 2.834m-2.957-1.25-1.5 3.289M72.099 42.05l-.159-3.223m-2.605 3.294.13 4.156m-16.36-2.385.638 4.253m1.772-7.938.425 3.26m-17.434 0 .638 2.977m-2.83.82.85 3.615m-15.598-2.527 1.293 2.835m-2.957 1.251 1.5 3.29" transform="matrix(1.01658 0 0 1.01555 -14.93 -38.558)"/>
            <path style="color:#000;font-style:normal;font-variant:normal;font-weight:400;font-stretch:normal;font-size:medium;line-height:normal;font-family:sans-serif;font-variant-ligatures:normal;font-variant-position:normal;font-variant-caps:normal;font-variant-numeric:normal;font-variant-alternates:normal;font-variant-east-asian:normal;font-feature-settings:normal;font-variation-settings:normal;text-indent:0;text-align:start;text-decoration:none;text-decoration-line:none;text-decoration-style:solid;text-decoration-color:#000;letter-spacing:normal;word-spacing:normal;text-transform:none;writing-mode:lr-tb;direction:ltr;text-orientation:mixed;dominant-baseline:auto;baseline-shift:baseline;text-anchor:start;white-space:normal;shape-padding:0;shape-margin:0;inline-size:0;clip-rule:nonzero;display:inline;overflow:visible;visibility:visible;opacity:1;isolation:auto;mix-blend-mode:normal;color-interpolation:sRGB;color-interpolation-filters:linearRGB;solid-color:#000;solid-opacity:1;vector-effect:none;fill:#000;fill-opacity:1;fill-rule:nonzero;stroke:none;stroke-width:1.00008;stroke-linecap:butt;stroke-linejoin:miter;stroke-miterlimit:4;stroke-dasharray:none;stroke-dashoffset:0;stroke-opacity:1;color-rendering:auto;image-rendering:auto;shape-rendering:auto;text-rendering:auto;enable-background:accumulate;stop-color:#000;stop-opacity:1" d="m27.08 70.822.232-.632s23.625-7.712 52.441-7.712c28.816 0 52.441 7.712 52.441 7.712l.232.632s-23.67-6.831-52.673-6.831c-29.004 0-52.673 6.831-52.673 6.831z" transform="matrix(1.01658 0 0 1.01555 -14.93 -38.558)"/>
        </g>
        <g style="stroke-width:1.00008" transform="matrix(1.01658 0 0 1.01555 -14.93 -38.558)">
            <path style="font-variation-settings:normal;opacity:1;vector-effect:none;fill:#3287d4;fill-opacity:1;stroke:none;stroke-width:3.17526;stroke-linecap:butt;stroke-linejoin:miter;stroke-miterlimit:4;stroke-dasharray:none;stroke-dashoffset:0;stroke-opacity:1;stop-color:#000;stop-opacity:1" d="M32.411 70.647v77.709c0 19.881 8.788 22.962 22.112 29.482 13.324 6.52 19.692 8.954 25.23 15.757 5.538-6.803 11.906-9.237 25.23-15.757s22.111-9.6 22.111-29.482V70.647Z"/>
            <path style="opacity:1;fill:#d6d7d9;fill-opacity:1;stroke:#000;stroke-width:.793814;stroke-linecap:butt;stroke-miterlimit:4;stroke-dasharray:none" d="m126.928 152.811-.164-51.957h-6.426v-2.486h-6.425v2.486h-6.426v-2.486h-6.426v2.486h-6.425v-2.486H88.21v3.827c-2.72 0-3.807 2.28-3.807 5.849v44.767l-1.012 5.367c14.544.76 27.282 6.032 32.86 13.783 5.984-3.834 9.85-8.763 10.677-19.15z"/>
            <path style="opacity:1;fill:none;fill-opacity:1;stroke:#000;stroke-width:.793814;stroke-linecap:butt;stroke-miterlimit:4;stroke-dasharray:none" d="M83.392 158.178a118.796 118.796 0 0 0-7.277 0"/>
            <path style="font-variation-settings:normal;opacity:1;vector-effect:none;fill:none;fill-opacity:1;stroke:#000;stroke-width:.793814;stroke-linecap:butt;stroke-linejoin:miter;stroke-miterlimit:4;stroke-dasharray:none;stroke-dashoffset:0;stroke-opacity:1;stop-color:#000;stop-opacity:1" d="M84.403 152.811h42.63"/>
            <path style="opacity:1;fill:none;fill-opacity:1;stroke:#000;stroke-width:.793814;stroke-linecap:butt;stroke-miterlimit:4;stroke-dasharray:none" d="M126.764 104.68h-6.426v-2.485h-6.425v2.486h-6.426v-2.486h-6.426v2.486h-6.425v-2.486H88.21v2.486h-3.319"/>
            <g style="stroke-width:.661512;stroke-miterlimit:4;stroke-dasharray:none">
                <path style="font-variation-settings:normal;opacity:1;vector-effect:none;fill:none;fill-opacity:1;stroke:#000;stroke-width:.661512;stroke-linecap:butt;stroke-linejoin:miter;stroke-miterlimit:4;stroke-dasharray:none;stroke-dashoffset:0;stroke-opacity:1;stop-color:#000;stop-opacity:1" d="M91.851 108.044v3.439M84.403 111.487h41.782M84.403 114.931h41.782M84.403 118.375h41.782M84.403 121.818h41.782M84.403 125.262h41.782M84.403 128.706h41.782M84.403 132.15h41.782M84.403 135.593h41.782M84.403 139.037h41.782M84.403 142.48h41.782M84.403 145.924h41.782M84.403 149.368h41.782"/>
                <path style="font-variation-settings:normal;opacity:1;vector-effect:none;fill:none;fill-opacity:1;stroke:#000;stroke-width:2.50021;stroke-linecap:butt;stroke-linejoin:miter;stroke-miterlimit:4;stroke-dasharray:none;stroke-dashoffset:0;stroke-opacity:1;stop-color:#000;stop-opacity:1" d="M456.16 421.234v13.15m0 13.016v13.016m0 13.016v13.015m0 13.016v13.014m0 13.015v13.016m0 13.015v13.016" transform="scale(.26458)"/>
                <path style="font-variation-settings:normal;opacity:1;vector-effect:none;fill:none;fill-opacity:1;stroke:#000;stroke-width:.661512;stroke-linecap:butt;stroke-linejoin:miter;stroke-miterlimit:4;stroke-dasharray:none;stroke-dashoffset:0;stroke-opacity:1;stop-color:#000;stop-opacity:1" d="M87.36 111.451v3.48m0 3.443v3.444m0 3.444v3.444m0 3.443v3.444m0 3.443v3.444m0 3.444v3.443M116.202 108.044v3.439"/>
            </g>
            <path style="font-variation-settings:normal;opacity:1;vector-effect:none;fill:#3287d4;fill-opacity:1;stroke:#000;stroke-width:.793814;stroke-linecap:butt;stroke-linejoin:miter;stroke-miterlimit:4;stroke-dasharray:none;stroke-dashoffset:0;stroke-opacity:1;stop-color:#000;stop-opacity:1" d="M90.147 152.75v-32.648c0-5.82 5.744-12.058 12.827-12.058s12.827 6.237 12.827 12.058v32.648z"/>
            <path style="fill:none;fill-opacity:1;stroke:#000;stroke-width:.661512;stroke-linecap:butt;stroke-miterlimit:4;stroke-dasharray:none" d="m118.987 170.169 3.274-17.358m-6.956 17.934 3.382-17.934m-6.73 14.637 2.76-14.637m-6.234 12.279 2.315-12.279m-5.86 10.554 1.99-10.554m-5.515 8.99 1.695-8.99m-5.27 7.95 1.5-7.95m-5.075 6.914 1.304-6.914m-4.928 6.398 1.207-6.398m-4.782 5.367 1.012-5.367"/>
            <path style="font-variation-settings:normal;vector-effect:none;fill:none;fill-opacity:1;stroke:#000;stroke-width:.661512;stroke-linecap:butt;stroke-linejoin:miter;stroke-miterlimit:4;stroke-dasharray:none;stroke-dashoffset:0;stroke-opacity:1;stop-color:#000" d="M125.273 155.936h-3.588m-3.808 0h-3.807m-3.807 0h-3.808m-3.807 0H98.84m-3.807 0h-3.807m-3.808 0h-3.626m40.96 6.249h-4.247m-3.608 0h-4.009m-3.909 0h-3.909m16.071-3.125h-3.827m-3.827 0h-3.827m-3.827 0h-3.827m-3.827 0h-3.827m21.405 9.374h-2.774m7.06-3.125h-3.747m-4.01 0h-3.455"/>
            <path style="opacity:1;fill:#d6d7d9;fill-opacity:1;stroke:#000;stroke-width:.793814;stroke-linecap:butt;stroke-miterlimit:4;stroke-dasharray:none" d="M71.43 153.312v-51.716h-.52l2.356-3.724 2.357 3.724h-.52v51.716z"/>
            <path style="font-variation-settings:normal;opacity:1;vector-effect:none;fill:none;fill-opacity:1;stroke:#000;stroke-width:.793814;stroke-linecap:butt;stroke-linejoin:miter;stroke-miterlimit:4;stroke-dasharray:none;stroke-dashoffset:0;stroke-opacity:1;stop-color:#000;stop-opacity:1" d="M71.43 101.596h3.673"/>
            <path style="font-variation-settings:normal;opacity:1;vector-effect:none;fill:#d6d7d9;fill-opacity:1;stroke:#000;stroke-width:.793814;stroke-linecap:butt;stroke-linejoin:miter;stroke-miterlimit:4;stroke-dasharray:none;stroke-dashoffset:0;stroke-opacity:1;stop-color:#000;stop-opacity:1" d="M52.537 116.558c8.08-2.59 14.444-2.466 21.265-.992L64.02 98.841l-31.547.992v53.48h18.175V116.73z"/>
            <path style="font-variation-settings:normal;opacity:1;vector-effect:none;fill:none;fill-opacity:1;stroke:#000;stroke-width:.793814;stroke-linecap:butt;stroke-linejoin:miter;stroke-miterlimit:4;stroke-dasharray:none;stroke-dashoffset:0;stroke-opacity:1;stop-color:#000;stop-opacity:1" d="M33.073 116.558h19.464L64.02 98.841v-3.426"/>
            <path style="font-variation-settings:normal;vector-effect:none;fill:none;fill-opacity:1;stroke:#000;stroke-width:.661512;stroke-linecap:butt;stroke-linejoin:miter;stroke-miterlimit:4;stroke-dasharray:none;stroke-dashoffset:0;stroke-opacity:1;stop-color:#000" d="M33.073 149.186h17.259m-17.26-3.625h17.26m-17.26-3.626h17.26m-17.26-3.625h17.26m-17.26-3.625h17.26m-17.26-3.625h17.26m-17.26-3.626h17.26m-17.26-3.625h17.26m-17.26-3.625h17.26"/>
            <g style="stroke-width:.661512;stroke-miterlimit:4;stroke-dasharray:none">
                <path style="font-variation-settings:normal;opacity:1;vector-effect:none;fill:none;fill-opacity:1;stroke:#000;stroke-width:.661512;stroke-linecap:butt;stroke-linejoin:miter;stroke-miterlimit:4;stroke-dasharray:none;stroke-dashoffset:0;stroke-opacity:1;stop-color:#000;stop-opacity:1" d="m37.114 116.558-4.553-6.066m10.566 6.066L32.271 102.09m16.97 14.468-12.178-16.63-4.67 4.66m29.715-2.323-2.794-3.282-13.882 17.575m-14.082-5.31 11.048-11.667 11.82 14.576M38.7 116.558l15.218-17.303 5.613 6.794m-26.967 10.51 15.233-16.975 8.786 10.287"/>
            </g>
            <path style="opacity:1;fill:#d6d7d9;fill-opacity:1;stroke:#000;stroke-width:.793814;stroke-linecap:butt;stroke-miterlimit:4;stroke-dasharray:none" d="M48.904 153.312v-51.716h-.52l2.357-3.724 2.356 3.724h-.52v51.716z"/>
            <path style="font-variation-settings:normal;opacity:1;vector-effect:none;fill:none;fill-opacity:1;stroke:#000;stroke-width:.793814;stroke-linecap:butt;stroke-linejoin:miter;stroke-miterlimit:4;stroke-dasharray:none;stroke-dashoffset:0;stroke-opacity:1;stop-color:#000;stop-opacity:1" d="M48.904 101.596h3.674"/>
            <path style="opacity:1;fill:#d6d7d9;fill-opacity:1;stroke:#000;stroke-width:.793814;stroke-linecap:butt;stroke-miterlimit:4;stroke-dasharray:none" d="M60.332 92.695v-2.067l3.062.408-.408-3.062h2.067l-.408 3.062 3.062-.408v2.067l-3.062-.408.408 3.063h-2.067l.408-3.063z"/>
            <path style="font-variation-settings:normal;vector-effect:none;fill:none;fill-opacity:1;stroke:#000;stroke-width:.661512;stroke-linecap:butt;stroke-linejoin:miter;stroke-miterlimit:4;stroke-dasharray:none;stroke-dashoffset:0;stroke-opacity:1;stop-color:#000" d="M43.803 120.183v3.626m0 3.625v3.625m0 3.626v3.625m0 3.626v3.625m0 3.625v3.625M38.7 116.558v3.626m0 3.625v3.625m0 3.626v3.625m0 3.625v3.626m0 3.625v3.625"/>
            <path style="fill:none;fill-opacity:1;stroke:#000;stroke-width:.529209;stroke-linecap:butt;stroke-miterlimit:4;stroke-dasharray:none" d="M64.197 108.004c.217-.209.423-.662.423-1.44 0-1.124-.7-1.77-.7-1.77s-.701.646-.701 1.77c0 .778.206 1.231.423 1.44m1.219.894a.941.941 0 1 1-1.883 0 .941.941 0 0 1 1.883 0zm-1.378-.829c.006-.3-.168-.766-.719-1.317-.795-.795-1.747-.756-1.747-.756s-.039.952.756 1.747c.551.55 1.017.725 1.318.72m1.657.872c.301-.006.767.168 1.318.718.795.795.756 1.747.756 1.747s-.952.04-1.747-.756c-.55-.55-.725-1.016-.72-1.317m-.872 0c.006.3-.168.767-.719 1.318-.795.795-1.747.756-1.747.756s-.039-.952.756-1.747c.551-.55 1.017-.725 1.318-.72m1.657-.872c.301.006.767-.168 1.318-.719.795-.795.756-1.747.756-1.747s-.952-.039-1.747.756c-.55.55-.725 1.017-.72 1.317m-1.33.552c-.209-.217-.661-.424-1.44-.424-1.124 0-1.77.701-1.77.701s.646.7 1.77.7c.779 0 1.231-.205 1.44-.422m1.79-.555c.208-.217.66-.424 1.439-.424 1.124 0 1.77.701 1.77.701s-.646.7-1.77.7c-.779 0-1.231-.205-1.44-.422m-.617.617c.217.208.423.661.423 1.44 0 1.124-.7 1.77-.7 1.77s-.701-.646-.701-1.77c0-.779.206-1.232.423-1.44"/>
            <path style="opacity:1;fill:#d6d7d9;fill-opacity:1;stroke:#000;stroke-width:3.00024;stroke-linecap:butt;stroke-miterlimit:4;stroke-dasharray:none" d="m287.678 597.836-3.824-20.281H123.13c3.123 39.257 17.734 57.885 40.348 72.375 21.085-29.293 69.23-49.223 124.199-52.094z" transform="scale(.26458)"/>
            <path style="fill:none;fill-opacity:1;stroke:#000;stroke-width:.661512;stroke-linecap:butt;stroke-miterlimit:4;stroke-dasharray:none" d="m40.519 170.169-3.274-17.358m6.956 17.934-3.382-17.934m6.73 14.637-2.76-14.637m6.234 12.279-2.315-12.279m5.86 10.554-1.99-10.554m5.515 8.99-1.695-8.99m5.27 7.95-1.5-7.95m5.075 6.914-1.304-6.914m4.928 6.398-1.207-6.398m4.782 5.367-1.012-5.367"/>
            <path style="font-variation-settings:normal;vector-effect:none;fill:none;fill-opacity:1;stroke:#000;stroke-width:.661512;stroke-linecap:butt;stroke-linejoin:miter;stroke-miterlimit:4;stroke-dasharray:none;stroke-dashoffset:0;stroke-opacity:1;stop-color:#000" d="M37.821 155.936h3.808m3.807 0h3.807m3.808 0h3.807m3.808 0h3.807m3.807 0h3.808m-28.34 12.498H40.31m21.018-9.374H57.5m-3.827 0h-3.827m-3.827 0h-3.827m-3.827 0h-3.686m4.322 3.125h3.608m4.009 0h3.909m3.909 0h2.392m-9.609 3.124H43.21m-3.746 0h-2.58"/>
            <path style="font-variation-settings:normal;opacity:1;vector-effect:none;fill:none;fill-opacity:1;stroke:#000;stroke-width:3.17526;stroke-linecap:butt;stroke-linejoin:miter;stroke-miterlimit:4;stroke-dasharray:none;stroke-dashoffset:0;stroke-opacity:1;stop-color:#000;stop-opacity:1" d="M32.411 70.647v77.709c0 19.881 8.788 22.962 22.112 29.482 13.324 6.52 19.692 8.954 25.23 15.757 5.538-6.803 11.906-9.237 25.23-15.757s22.111-9.6 22.111-29.482V70.647Z"/>
            <path style="font-variation-settings:normal;opacity:1;vector-effect:none;fill:#000;fill-opacity:1;stroke:none;stroke-width:.264605;stroke-linecap:butt;stroke-linejoin:miter;stroke-miterlimit:4;stroke-dasharray:none;stroke-dashoffset:0;stroke-opacity:1;stop-color:#000;stop-opacity:1" d="m67.167 131.988 2.703-6.006c-.904-.772-.443-1.626.623-1.487.652-1.562.96-2.4 1.595-4.032.636-1.631-.594-3.285-2.63-2.883-2.038.403-1.95 2.37-1.32 3.079.63.708 1.402-.048 1.402-.048-.724-.148-1.135-1.466-.131-1.85 1.004-.383 2.128.622 1.322 2.338-.806 1.716-4.025 1.781-4.227-1.138-.102-1.483.571-2.414 1.259-2.97-.094-1.05 1.006-1.222 1.495-.78.174-.566 1.118-.871 1.672.028.41-.373 1.746-.426 1.631.897.637-.178 1.355.596.927 1.466.535.057.813 1.155.033 1.665.63.445.53 1.588-.5 1.743l-1.215 3.056c.9.385.741 1.87-.6 1.484l-2.8 6.403z"/>
            <path style="font-variation-settings:normal;opacity:1;vector-effect:none;fill:#d6d7d9;fill-opacity:1;stroke:#000;stroke-width:.793814;stroke-linecap:butt;stroke-linejoin:miter;stroke-miterlimit:4;stroke-dasharray:none;stroke-dashoffset:0;stroke-opacity:1;stop-color:#000;stop-opacity:1" d="M63.524 128.063c1.559 1.134 2.325 2.799 2.325 2.799 1.974 1.131 2.496 2.036 3.353 3.15.8-.995 1.109-1.517 1.633-1.609 0 0 1.627-2.376 2.194-4.36.567-1.985.638-5.269.638-5.269.425-.638 1.063-1.772 1.063-1.772s.425.071.85.284c.425.213.567.85.567.85s.567.071.78.567c.212.496.215 2.037-.284 3.97-.498 1.932-1.275 2.763-1.275 2.763-.939 4.799-1.494 7.313-2.55 10.483.266 1.427.296 2.208.347 3.37 1.403 3.308 1.938 9.522 1.938 9.522H52.578v-18.37s1.378-2.338 3.008-4.11c-.571-1.245-.765-2.073-.78-3.048.558-.446 1.16-.445 2.127-.141l.07-.78c-.78-.496-1.224-.844-1.63-2.268 0 0-.496-.708-.637-.992-.965-.928-1.557-1.689-1.276-3.614 0 0 1.7.354 4.465-.992 2.764-1.347 3.969-3.331 3.969-3.331s1.26.619 1.842 1.842c.583 1.224.142 2.197.142 2.197s.283.839.07 1.902c.339 1.294.798 1.84 1.064 2.976-.23.237-.467.294-.827.378 0 0 .236 1.808-.661 3.603z"/>
            <path style="font-variation-settings:normal;opacity:1;vector-effect:none;fill:none;fill-opacity:1;stroke:#000;stroke-width:.727663;stroke-linecap:butt;stroke-linejoin:miter;stroke-miterlimit:4;stroke-dasharray:none;stroke-dashoffset:0;stroke-opacity:1;stop-color:#000;stop-opacity:1" d="M55.586 130.33s1.413 1.772 4.37 3.096c2.958 1.323 5.954.992 5.954.992l-.071-.567-.103-.847s-2.393-.472-5.1-2.276c-2.705-1.804-3.703-3.586-3.703-3.586m8.803 5.862c.149-.475.2-1.116.113-2.142m-.766 3.556s-.2 2.842-3.23 7.389c-3.031 4.546-5.96 6.962-9.167 10.17m16.516-17.966c-.613 1.073-2.524 2.541-3.741 5.415-1.167.731-1.95 1.03-3.608 2.38m9.802-4.095s-.996 2.906-2.299 6.514c-1.302 3.608-3.708 8.42-3.708 8.42m-10.912-29.543s4.866-4.04 9.142-3.898m6.957 13.2s.863 2.227.82 5.307c.281.81.658 1.583 1.163 2.208"/>
            <path style="font-variation-settings:normal;opacity:1;vector-effect:none;fill:none;fill-opacity:1;stroke:#000;stroke-width:.529209;stroke-linecap:butt;stroke-linejoin:miter;stroke-miterlimit:4;stroke-dasharray:none;stroke-dashoffset:0;stroke-opacity:1;stop-color:#000;stop-opacity:1" d="M62.558 131.813s-.263-2.073-.263-3.632m1.441-.508s-.52.473-.803.473c-.283 0-2.551-.46-3.118-.674-.567-.212-1.205-2.41-1.205-2.41s-1.134-.637-1.063-1.77c.07-1.135 1.205-.639 1.205-.639l.212-.921.355-.142.354-1.488m-2.67 6.26.477-.528.852.15.4-.501m-1.894 27.054s-.579-1.156.425-3.118c.99-1.933 1.311-2.977 2.375-4.465m-6.785 2.98s3.451-2.113 7.015-6.415c3.565-4.301 3.91-7.016 3.91-7.016m-8.971-7.22s.845 2.387 4.299 4.23c3.454 1.841 5.599 2.054 6.804 2.905.383.762.503 1.47.623 2.942m1.654-2.105s-1.186-3.19-2.338-4.393m3.407 21.883s.3-1.604 1.203-4.811c.902-3.208 1.29-9.32 1.196-10.223m1.41 4.31c0 1.618-.373 2.559-.3 4.41.09 2.322.2 4.81-.201 6.414"/>
            <path style="color:#000;font-style:normal;font-variant:normal;font-weight:400;font-stretch:normal;font-size:medium;line-height:normal;font-family:sans-serif;font-variant-ligatures:normal;font-variant-position:normal;font-variant-caps:normal;font-variant-numeric:normal;font-variant-alternates:normal;font-variant-east-asian:normal;font-feature-settings:normal;font-variation-settings:normal;text-indent:0;text-align:start;text-decoration:none;text-decoration-line:none;text-decoration-style:solid;text-decoration-color:#000;letter-spacing:normal;word-spacing:normal;text-transform:none;writing-mode:lr-tb;direction:ltr;text-orientation:mixed;dominant-baseline:auto;baseline-shift:baseline;text-anchor:start;white-space:normal;shape-padding:0;shape-margin:0;inline-size:0;clip-rule:nonzero;display:inline;overflow:visible;visibility:visible;opacity:1;isolation:auto;mix-blend-mode:normal;color-interpolation:sRGB;color-interpolation-filters:linearRGB;solid-color:#000;solid-opacity:1;vector-effect:none;fill:#000;fill-opacity:1;fill-rule:nonzero;stroke:none;stroke-width:1.00008;stroke-linecap:butt;stroke-linejoin:miter;stroke-miterlimit:4;stroke-dasharray:none;stroke-dashoffset:0;stroke-opacity:1;color-rendering:auto;image-rendering:auto;shape-rendering:auto;text-rendering:auto;enable-background:accumulate;stop-color:#000;stop-opacity:1" d="M61.165 122.16s1.102-.823 2.778-.79l.012-.529c-1.843-.037-2.382.512-2.66.693-.277.182-.13.626-.13.626zm13.647.953c.039-.07.526-.937.743-1.91l-.516-.116c-.2.902-.73 1.864-.73 1.864l.066 1.347zm.794.068c.062-.118.433-.85.519-1.432l-.523-.076c-.06.408-.417 1.176-.486 1.313l-.067 1.382zm-12.469-1.17c-.429.195-.899.446-1.364.479.59.45 1.312.229 1.642.046zm13.55.332-.513-.129s-.425 1.701-.488 2.828c.576-.999 1.001-2.699 1.001-2.699zm-12.555 3.63-.177-.498c-.497.171-1.056.094-1.62.376 0 0 1.119.362 1.797.122zm-.259 6.47.53-.02c-.112-1.134-.362-2.47-1.257-3.179.427 1.109.655 2.092.727 3.2zm-11.582 7.733.504.078c-.09.225-.39.873-.39.873l.495.184s.447-1.216 1.178-2.641c.731-1.425 1.759-3.054 2.683-4.066-1.381.691-2.406 2.37-3.154 3.826-.475.926-.568 1.226-.765 1.715.41-2.51 1.313-5.04 1.313-5.04s-1.455 2.411-1.864 5.07zm5.092.65c-2.313 2.178-5.028 5.028-5.028 5.028l.395.351s2.583-2.653 4.994-4.994c2.411-2.342 3.177-3.095 3.828-5.204-1.148 1.7-1.876 2.642-4.19 4.82zm-4.973 3.29.483.218s2.516-5.44 5.371-8.277c-.518.397-.718.293-2.232 1.91-1.514 1.616-3.622 6.148-3.622 6.148zm13.527-5.034-.648.143c-1.16.987-1.865 2.337-3.002 5.109a182.32 182.32 0 0 0-1.81 4.565s1.16-1.589 2.298-4.364c.959-2.336 1.617-3.496 2.43-4.373-.33 1.579-.388 3.111.138 5.075-.065-2.52-.057-4.165.594-6.155zm-1.675-15.036c-.33.12-.714.027-.858.126 0 0 .206.45.607.551zm-5.53 1.437c.368-.092.685-.56.685-.56-.751.1-1.052-.375-1.102-.375zm.009-3.948c-.16.613-.637.585-1.065.945.175 0 1.076.173 1.076.173z"/>
            <path style="font-variation-settings:normal;opacity:1;vector-effect:none;fill:#d6d7d9;fill-opacity:1;stroke:#000;stroke-width:.793814;stroke-linecap:butt;stroke-linejoin:miter;stroke-miterlimit:4;stroke-dasharray:none;stroke-dashoffset:0;stroke-opacity:1;stop-color:#000;stop-opacity:1" d="M99.608 115.427c-.968-1.34-1.528-2.233-2.355-3.708 0 0 1.453.1 2.405.701-.123 1.063.6 1.15 1.554.952.954-.198.952-.936.601-1.553 0 0 .702-1.203 1.303-1.754.601.551 1.303 1.754 1.303 1.754-.35.617-.353 1.355.601 1.553.954.199 1.677.11 1.554-.952.952-.601 2.405-.701 2.405-.701-.827 1.475-1.387 2.369-2.355 3.708z"/>
            <path style="font-variation-settings:normal;opacity:1;vector-effect:none;fill:#d6d7d9;fill-opacity:1;stroke:#000;stroke-width:.793814;stroke-linecap:butt;stroke-linejoin:miter;stroke-miterlimit:4;stroke-dasharray:none;stroke-dashoffset:0;stroke-opacity:1;stop-color:#000;stop-opacity:1" d="M106.624 115.427s.802.802.802 2.405c0 1.604.857 2.37.5 3.358-.355.988-1.503 1.303-1.503 1.303l.15.914c.903.15 1.17.923 1.17.923.636.124 1.018.257 1.453.852 1.352.848 2.102.997 3.258 2.64 0 0 .662-.036 1.603 1.503.941 1.54 2.907 3.701 2.706 7.109-.2 3.408.502 5.52-.5 7.223-1.003 1.704-2.067 2.478-2.067 2.478.567 3.402.85 6.615.85 6.615H90.148V139.59s-.941-5.798-.147-9.095c.794-3.298 1.305-4.724 1.305-4.724-.231-.962-.66-1.446-1.276-1.808-.616-.361-.838-.755-1.031-1.41-.438-.751-.068-1.106.252-1.389-.127-.534.095-.857.375-1.205.32-.535.637-.687 1.22-.531 0 0 .109-.163.393-.223.285-.06.433.102.972.504.426.319.556.902.654 2.093.1 1.203.425 2.41.425 2.41.82.18.842.911.88 2.338.038 1.427.395 2.817.395 2.817s1.169-1.045 1.67-1.446c0 0 .35-1.153 1.553-1.554 0 0 .451-.902 1.353-.952.364-.373.515-.852 1.219-1.056 0 0 .063-.652.11-1.374-1.256-.175-2.274-1.009-1.262-2.898.928-1.732-.1-3.408.401-4.661 0 0 1.545-.4 3.508-.4s3.508.4 3.508.4z"/>
            <path style="color:#000;font-style:normal;font-variant:normal;font-weight:400;font-stretch:normal;font-size:medium;line-height:normal;font-family:sans-serif;font-variant-ligatures:normal;font-variant-position:normal;font-variant-caps:normal;font-variant-numeric:normal;font-variant-alternates:normal;font-variant-east-asian:normal;font-feature-settings:normal;font-variation-settings:normal;text-indent:0;text-align:start;text-decoration:none;text-decoration-line:none;text-decoration-style:solid;text-decoration-color:#000;letter-spacing:normal;word-spacing:normal;text-transform:none;writing-mode:lr-tb;direction:ltr;text-orientation:mixed;dominant-baseline:auto;baseline-shift:baseline;text-anchor:start;white-space:normal;shape-padding:0;shape-margin:0;inline-size:0;clip-rule:nonzero;display:inline;overflow:visible;visibility:visible;opacity:1;isolation:auto;mix-blend-mode:normal;color-interpolation:sRGB;color-interpolation-filters:linearRGB;solid-color:#000;solid-opacity:1;vector-effect:none;fill:#000;fill-opacity:1;fill-rule:nonzero;stroke:none;stroke-width:1.00008;stroke-linecap:butt;stroke-linejoin:miter;stroke-miterlimit:4;stroke-dasharray:none;stroke-dashoffset:0;stroke-opacity:1;color-rendering:auto;image-rendering:auto;shape-rendering:auto;text-rendering:auto;enable-background:accumulate;stop-color:#000;stop-opacity:1" d="M91.011 121.847c-.093.644.095 1.275.86.932-.485-.127-.443-.686-.387-1.078zM94.919 129.19l-.743.072c.363 2.126.186 3.073.79 5.415.588 2.282 1.465 4.655 1.465 4.655s-.269-2.489-.86-4.785c-.403-1.562-.283-2.708-.7-4.633.844 1.064 1.32 3.367 2.453 4.268-.667-1.36-.87-3.63-2.405-4.991zm-3.05 2.958-.726-.035s-.163 3.996.75 8.167c.913 4.172 1.065 7.172 3.688 10.486-1.856-3.69-2.348-8.19-2.975-10.893-.627-2.704-.635-5.374-.737-7.725zm20.675 4.883s.248-2.156 1.155-4.173c-1.644 1.81-1.775 4.128-1.775 4.128zm-3.206 2.643-.725-.072s-.24 2.386-.53 3.193c-.206-.939-.064-2.61-.678-3.18.088 1.646-.2 1.866.333 4.178-.596 1.817.05 3.36.05 3.36s.158-2.149.788-3.899.762-3.58.762-3.58z"/>
            <path style="color:#000;font-style:normal;font-variant:normal;font-weight:400;font-stretch:normal;font-size:medium;line-height:normal;font-family:sans-serif;font-variant-ligatures:normal;font-variant-position:normal;font-variant-caps:normal;font-variant-numeric:normal;font-variant-alternates:normal;font-variant-east-asian:normal;font-feature-settings:normal;font-variation-settings:normal;text-indent:0;text-align:start;text-decoration:none;text-decoration-line:none;text-decoration-style:solid;text-decoration-color:#000;letter-spacing:normal;word-spacing:normal;text-transform:none;writing-mode:lr-tb;direction:ltr;text-orientation:mixed;dominant-baseline:auto;baseline-shift:baseline;text-anchor:start;white-space:normal;shape-padding:0;shape-margin:0;inline-size:0;clip-rule:nonzero;display:inline;overflow:visible;visibility:visible;opacity:1;isolation:auto;mix-blend-mode:normal;color-interpolation:sRGB;color-interpolation-filters:linearRGB;solid-color:#000;solid-opacity:1;vector-effect:none;fill:#000;fill-opacity:1;fill-rule:nonzero;stroke:none;stroke-width:3.77984;stroke-linecap:butt;stroke-linejoin:miter;stroke-miterlimit:4;stroke-dasharray:none;stroke-dashoffset:0;stroke-opacity:1;color-rendering:auto;image-rendering:auto;shape-rendering:auto;text-rendering:auto;enable-background:accumulate;stop-color:#000;stop-opacity:1" d="M400.291 492.482c3.416-1.445 5-3.721 6.344-6.859-.334 2.277-.948 4.273-1.834 5.62-3.515 5.34-9.265 7.898-9.265 7.898s6.945-.741 10.933-6.8c2.563-3.893 3.1-10.54 1.826-16.679a29.405 29.405 0 0 0-1.39-7.701l-1.905.611c1.555 4.848 1.685 9.793.65 13.797-1.034 4.004-2.448 6.476-6.15 8.276-3.702 1.799-7.863 1.63-12.32-.24 2.51 5.133 9.695 3.523 13.111 2.077zm12.055 8.69c2.533-2.384 4.118-6.028 4.908-9.781.79-3.754.709-7.701-.518-10.971-2.322-6.193-5.062-9.447-5.062-9.447l-1.53 1.29s2.502 2.929 4.725 8.858c1.047 2.791 1.153 6.42.428 9.863-.725 3.444-2.242 6.733-4.37 8.778-4.302 4.134-5.432 5.358-5.732 8.658 1.9-2.986 3.388-3.707 7.15-7.248zm-35.899-16.049c-2.247-4.917.51-11.877.51-11.877l-1.662-1.115s-3.251 7.739-.693 13.752c2.558 6.013 5.54 7.085 8.684 10.275-1.941-4.142-4.591-6.118-6.839-11.035zm-5.748 2.01c-.856-3.34-.861-6.948.787-10.153l-1.896-.634c-1.713 3.665-2.021 8.583-.891 11.828 1.13 3.245 2.5 3.331 3.985 6.782.864-4.04-1.13-4.483-1.985-7.823zm-5.066-4.528-1.934-.515s-1.69 5.991 2.48 10.234c-1.892-4.47-.546-9.719-.546-9.719zm17.074 20.907-.053 2c3.497 0 7.141 1.122 12.613 1.14-3.898-1.455-8.376-3.36-12.56-3.14zm41.885 12.504c-2.843-6.027-6.648-10.928-6.648-10.928s2.356 6.118 6.233 13.604c5.537 3.011 8.993 8.99 11.403 14.206-1.174-6.395-3.703-12.458-9.7-15.496 2.783-1.471 5.557-2.543 8.139-.256-1.121-4.177-7.161-3.478-9.427-1.13zm-42.38-8.31-.495 1.94c3.143.016 9.51-.115 13.149-.716-4.183-.61-9.636-1.203-12.653-1.225zm.147 3.77.348 1.782c2.858-.408 8.459.239 11.756-1.382-3.865-.191-9.037-.86-12.104-.4z" transform="scale(.26458)"/>
            <path style="font-variation-settings:normal;opacity:1;vector-effect:none;fill:none;fill-opacity:1;stroke:#000;stroke-width:.529209;stroke-linecap:butt;stroke-linejoin:miter;stroke-miterlimit:4;stroke-dasharray:none;stroke-dashoffset:0;stroke-opacity:1;stop-color:#000;stop-opacity:1" d="M105.503 152.608s.36-1.366.283-4.82a56.787 56.787 0 0 1 .354-7.866M90.844 119.43c-.011.198-.033.433.071.705.105.271.29.507.638.866 0 0-.255.349-.43 1.326 0 0-.215.237-.61.115 0 0-.106.506-.566.506m-.697-1.782s.59.709 1.263 1.276m-.888-2.48s.676 1.204 1.597 1.7m16.17 13.795s1.581-.73 2.857-3.158c1.275-2.427 1.152-3.29 2.205-4.476"/>
            <path style="font-variation-settings:normal;opacity:1;vector-effect:none;fill:none;fill-opacity:1;stroke:#000;stroke-width:.727663;stroke-linecap:butt;stroke-linejoin:miter;stroke-miterlimit:4;stroke-dasharray:none;stroke-dashoffset:0;stroke-opacity:1;stop-color:#000;stop-opacity:1" d="M106.424 138.221s-.567 2.693-.071 7.016a136.592 136.592 0 0 0 1.063 7.513m2.126-.142s.709-1.488 1.701-5.67c.992-4.181 1.595-8.927 1.044-9.929-.552-1.002-1.554-.651-2.356-1.002-.802-.351-1.503-.067-1.503-.067-.621-.256-1.395-.607-2.232-1.562-.376-.428-1.428-1.103-1.552-1.15-.152-.057-1.486-.24-1.711-.274-.605-.091-1.165.145-1.37.436-.667.053-.856.666-.502 1.197 0 0 0 .45.15 1.002.161.588.61.887 1.604 1.053 1.189.197 1.788.622 3.007 1.052 1.22.43 3.153 1.945 3.153 1.945s.496-2.127-.567-3.686m-17.153-10.407c.455 1.074.601 2.299.711 2.839m1.323-4.173c-.047 1.227-.78 2.417-1.323 4.173-.522 1.689-.343 2.348-.46 3.746m-1.359 7.285c.355 1.182.622 3.664 1.536 5.835 0 0-.071 4.144 1.205 7.546m21.308-6.662c-.66-2.295-1.223-3.748-1.705-7.182M100.36 124.36c.21 1.38.907 3.132 2.852 3.845 1.579-1.318 3.358-2.137 3.363-4.798"/>
            <path style="font-variation-settings:normal;opacity:1;vector-effect:none;fill:none;fill-opacity:1;stroke:#000;stroke-width:.529209;stroke-linecap:butt;stroke-linejoin:miter;stroke-miterlimit:4;stroke-dasharray:none;stroke-dashoffset:0;stroke-opacity:1;stop-color:#000;stop-opacity:1" d="M99.725 118.158c.056.565-.097 1.507.501 2.731.61 1.249.652 2.105 1.203 2.656.551.552 2.155.401 2.756.301.601-.1.551-.551 1.153-1.052.601-.501 1.085-.301 1.085-.301"/>
            <path style="color:#000;font-style:normal;font-variant:normal;font-weight:400;font-stretch:normal;font-size:medium;line-height:normal;font-family:sans-serif;font-variant-ligatures:normal;font-variant-position:normal;font-variant-caps:normal;font-variant-numeric:normal;font-variant-alternates:normal;font-variant-east-asian:normal;font-feature-settings:normal;font-variation-settings:normal;text-indent:0;text-align:start;text-decoration:none;text-decoration-line:none;text-decoration-style:solid;text-decoration-color:#000;letter-spacing:normal;word-spacing:normal;text-transform:none;writing-mode:lr-tb;direction:ltr;text-orientation:mixed;dominant-baseline:auto;baseline-shift:baseline;text-anchor:start;white-space:normal;shape-padding:0;shape-margin:0;inline-size:0;clip-rule:nonzero;display:inline;overflow:visible;visibility:visible;opacity:1;isolation:auto;mix-blend-mode:normal;color-interpolation:sRGB;color-interpolation-filters:linearRGB;solid-color:#000;solid-opacity:1;vector-effect:none;fill:#000;fill-opacity:1;fill-rule:nonzero;stroke:none;stroke-width:1.00008;stroke-linecap:butt;stroke-linejoin:miter;stroke-miterlimit:4;stroke-dasharray:none;stroke-dashoffset:0;stroke-opacity:1;color-rendering:auto;image-rendering:auto;shape-rendering:auto;text-rendering:auto;enable-background:accumulate;stop-color:#000;stop-opacity:1" d="M105.648 115.44s.619.897.46 2.16c-.538-.246-1.036-.509-1.647-.467-.61.041-.88.289-.965.758 0 0 .509-.183 1.114-.154.605.03 1.005.15 1.504.36-.211 1.516-.405 2.586-.056 3.151.207-.427.332-1.625.614-3.14.302-1.626-.487-2.692-.487-2.692zm-5.694 2.805c.335-.496 1.506-.72 2.172-.291.059.613-.148.982-.207 1.592-.06.61.05 1.003.576 1.033.525.03.908.03 1.044-.424-.34-.082-.611.12-.861.095-.25-.026-.369-.2-.284-.718.085-.519.166-1.18.122-1.979-.473-.287-1.123-.391-1.655-.31-.533.08-.81.213-1.01-.23zm.583.146c.315.297.768.396 1.12.309.008-.267.012-.603-.136-.728-.416-.073-.746.17-.984.42zm3.612-.463c-.138.146-.13.602.038.739.305.137 1.037-.045 1.264-.272-.288-.33-.683-.463-1.301-.467zm-2.452 4.057s.326-.163.633-.183c.307-.02.88-.024 1.21 0 .327.023.757.209.757.209s-.327-.497-.578-.613c-.251-.117-1.437-.073-1.674.05-.238.123-.348.537-.348.537z"/>
            <path style="fill:#d6d7d9;fill-opacity:1;stroke:#000;stroke-width:.727663;stroke-linecap:butt;stroke-linejoin:miter;stroke-miterlimit:4;stroke-dasharray:none" d="M89.104 122.646v8.92H79.95v1.036h19.344v-1.036H90.14V123c-.341.058-.698-.133-1.036-.353z"/>
            <circle style="fill:#d6d7d9;fill-opacity:1;stroke:#000;stroke-width:.727663;stroke-linecap:butt;stroke-linejoin:miter;stroke-miterlimit:4;stroke-dasharray:none" cx="89.622" cy="132.084" r="1.016"/>
            <g style="stroke-width:1.00008">
                <g style="stroke-width:1.00008">
                    <path style="opacity:1;fill:#d6d7d9;fill-opacity:1;stroke:#000;stroke-width:.793814;stroke-linecap:butt;stroke-linejoin:miter;stroke-miterlimit:4;stroke-dasharray:none" d="M76.441 145.828h6.624s.373.284.373.638a.636.636 0 0 1-.638.638s-.708 1.417-3.047 1.417c-2.339 0-3.047-1.417-3.047-1.417a.636.636 0 0 1-.638-.638c0-.354.373-.638.373-.638z"/>
                    <path style="font-variation-settings:normal;opacity:1;vector-effect:none;fill:none;fill-opacity:1;stroke:#000;stroke-width:.529209;stroke-linecap:butt;stroke-linejoin:miter;stroke-miterlimit:4;stroke-dasharray:none;stroke-dashoffset:0;stroke-opacity:1;stop-color:#000;stop-opacity:1" d="M76.51 146.968h6.485"/>
                    <path style="opacity:1;fill:none;fill-opacity:1;stroke:#000;stroke-width:.727663;stroke-linecap:butt;stroke-linejoin:miter;stroke-miterlimit:4;stroke-dasharray:none" d="M79.753 132.658v13.418m-3.577 0 3.577-13.418m0 0 3.577 13.418"/>
                    <circle style="opacity:1;fill:#d6d7d9;fill-opacity:1;stroke:#000;stroke-width:.727663;stroke-linecap:butt;stroke-linejoin:miter;stroke-miterlimit:4;stroke-dasharray:none" cx="79.753" cy="132.084" r="1.016"/>
                </g>
                <g transform="translate(19.738)" style="stroke-width:1.00008">
                    <path style="opacity:1;fill:none;fill-opacity:1;stroke:#000;stroke-width:.793814;stroke-linecap:butt;stroke-linejoin:miter;stroke-miterlimit:4;stroke-dasharray:none" d="M76.441 145.828h6.624s.373.284.373.638a.636.636 0 0 1-.638.638s-.708 1.417-3.047 1.417c-2.339 0-3.047-1.417-3.047-1.417a.636.636 0 0 1-.638-.638c0-.354.373-.638.373-.638z"/>
                    <path style="font-variation-settings:normal;opacity:1;vector-effect:none;fill:none;fill-opacity:1;stroke:#000;stroke-width:.529209;stroke-linecap:butt;stroke-linejoin:miter;stroke-miterlimit:4;stroke-dasharray:none;stroke-dashoffset:0;stroke-opacity:1;stop-color:#000;stop-opacity:1" d="M76.51 146.968h6.485"/>
                    <path style="opacity:1;fill:none;fill-opacity:1;stroke:#000;stroke-width:.727663;stroke-linecap:butt;stroke-linejoin:miter;stroke-miterlimit:4;stroke-dasharray:none" d="M79.753 132.658v13.418m-3.577 0 3.577-13.418m0 0 3.577 13.418"/>
                    <circle style="opacity:1;fill:#d6d7d9;fill-opacity:1;stroke:#000;stroke-width:.727663;stroke-linecap:butt;stroke-linejoin:miter;stroke-miterlimit:4;stroke-dasharray:none" cx="79.753" cy="132.084" r="1.016"/>
                </g>
            </g>
            <path style="font-variation-settings:normal;vector-effect:none;fill:none;fill-opacity:1;stroke:#000;stroke-width:.793814;stroke-linecap:butt;stroke-linejoin:miter;stroke-miterlimit:4;stroke-dasharray:none;stroke-dashoffset:0;stroke-opacity:1;stop-color:#000" d="M84.403 108.044h41.782"/>
            <g style="stroke-width:.981578">
                <g style="stroke-width:.981578">
                    <path style="font-variation-settings:normal;opacity:1;vector-effect:none;fill:#d6d7d9;fill-opacity:1;stroke:#000;stroke-width:.779127;stroke-linecap:butt;stroke-linejoin:miter;stroke-miterlimit:4;stroke-dasharray:none;stroke-dashoffset:0;stroke-opacity:1;stop-color:#000;stop-opacity:1" d="M84.513 170.003c.753-1.409 2.456-2.735 4.888-1.993 2.432.742 3.728 2.498 4.11 4.11.383 1.614-.028 2.581-.531 3.226-.464.593-1.028 1.31-1.028 1.31 0 .678-.642 1.293-1.134 1.59-.492.295-1.134.191-1.134.191s-2.01 1.289-3.472 1.763c-1.366.443-2.802-.22-3.421-1.42-.329-.639 1.722-8.777 1.722-8.777z" transform="matrix(-1.01885 0 0 1.01885 161.279 -3.465)"/>
                    <path style="color:#000;font-style:normal;font-variant:normal;font-weight:400;font-stretch:normal;font-size:medium;line-height:normal;font-family:sans-serif;font-variant-ligatures:normal;font-variant-position:normal;font-variant-caps:normal;font-variant-numeric:normal;font-variant-alternates:normal;font-variant-east-asian:normal;font-feature-settings:normal;font-variation-settings:normal;text-indent:0;text-align:start;text-decoration:none;text-decoration-line:none;text-decoration-style:solid;text-decoration-color:#000;letter-spacing:normal;word-spacing:normal;text-transform:none;writing-mode:lr-tb;direction:ltr;text-orientation:mixed;dominant-baseline:auto;baseline-shift:baseline;text-anchor:start;white-space:normal;shape-padding:0;shape-margin:0;inline-size:0;clip-rule:nonzero;display:inline;overflow:visible;visibility:visible;opacity:1;isolation:auto;mix-blend-mode:normal;color-interpolation:sRGB;color-interpolation-filters:linearRGB;solid-color:#000;solid-opacity:1;vector-effect:none;fill:#000;fill-opacity:1;fill-rule:nonzero;stroke:none;stroke-width:.981578;stroke-linecap:butt;stroke-linejoin:miter;stroke-miterlimit:4;stroke-dasharray:none;stroke-dashoffset:0;stroke-opacity:1;color-rendering:auto;image-rendering:auto;shape-rendering:auto;text-rendering:auto;enable-background:accumulate;stop-color:#000;stop-opacity:1" d="M92.002 173.537c-.253.991-.498 1.278-.351 1.637.296-.747.587-.917.744-1.524.158-.608.26-1.643-.678-2.815-1.545-.868-1.633-.913-2.601-1.424-.968-.51-1.818-.525-2.52-.459a1.765 1.765 0 0 0-1.086.492s1.804-.399 3.363.426a49.838 49.838 0 0 0 2.634 1.308s.747 1.368.495 2.359zm-5.584.49c.457-.457 1.117-1.831 1.117-1.831-.276-.677-1.927-1.617-2.195-.75.66 0 1.092.336 1.658.865-.19.357-.469.916-.941 1.336-.472.42-.938.883-.948 1.353-.01.47.08.703.301.848.22.145.368.197.664.213.297.015.495-.13.727-.11-.015-.276-.25-.41-.455-.436-.205-.025-.472.044-.643-.102-.171-.145-.05-.271-.066-.494-.015-.222.324-.435.78-.892zm-1.161-1.848c.21.531.856.792 1.27.67.003-.753-.666-1.01-1.27-.67zm3.377 1.048c.716.174 1.234.866 1.742 1.101.127-.563-1.241-1.954-1.742-1.101zm-.466.724c.204.81.878.944 1.377 1.011-.09-1.284-.835-1.264-1.377-1.01zm-3.22 3.308c.352.177 1.144.498 1.144.498s-.388-.75-.862-.988c-.475-.238-.907-.083-.907-.083s.213.368.624.573zm5.07-.058c.376-.168.615-.42.894-.71-.527-.643-1.097.105-.895.71z" transform="matrix(-1.01885 0 0 1.01885 161.279 -3.465)"/>
                    <path style="font-variation-settings:normal;opacity:1;vector-effect:none;fill:#d6d7d9;fill-opacity:1;stroke:#000;stroke-width:.779127;stroke-linecap:butt;stroke-linejoin:miter;stroke-miterlimit:4;stroke-dasharray:none;stroke-dashoffset:0;stroke-opacity:1;stop-color:#000;stop-opacity:1" d="M75.522 170.003c-.753-1.409-2.456-2.735-4.888-1.993-2.431.742-3.728 2.498-4.11 4.11-.383 1.614.028 2.581.531 3.226.464.593 1.028 1.31 1.028 1.31 0 .678.642 1.293 1.134 1.59.492.295 1.134.191 1.134.191s2.01 1.289 3.472 1.763c1.366.443 2.802-.22 3.421-1.42.329-.639-1.722-8.777-1.722-8.777z" transform="matrix(-1.01885 0 0 1.01885 161.279 -3.465)"/>
                </g>
                <g style="stroke-width:.981578">
                    <path style="color:#000;font-style:normal;font-variant:normal;font-weight:400;font-stretch:normal;font-size:medium;line-height:normal;font-family:sans-serif;font-variant-ligatures:normal;font-variant-position:normal;font-variant-caps:normal;font-variant-numeric:normal;font-variant-alternates:normal;font-variant-east-asian:normal;font-feature-settings:normal;font-variation-settings:normal;text-indent:0;text-align:start;text-decoration:none;text-decoration-line:none;text-decoration-style:solid;text-decoration-color:#000;letter-spacing:normal;word-spacing:normal;text-transform:none;writing-mode:lr-tb;direction:ltr;text-orientation:mixed;dominant-baseline:auto;baseline-shift:baseline;text-anchor:start;white-space:normal;shape-padding:0;shape-margin:0;inline-size:0;clip-rule:nonzero;display:inline;overflow:visible;visibility:visible;opacity:1;isolation:auto;mix-blend-mode:normal;color-interpolation:sRGB;color-interpolation-filters:linearRGB;solid-color:#000;solid-opacity:1;vector-effect:none;fill:#000;fill-opacity:1;fill-rule:nonzero;stroke:none;stroke-width:.981578;stroke-linecap:butt;stroke-linejoin:miter;stroke-miterlimit:4;stroke-dasharray:none;stroke-dashoffset:0;stroke-opacity:1;color-rendering:auto;image-rendering:auto;shape-rendering:auto;text-rendering:auto;enable-background:accumulate;stop-color:#000;stop-opacity:1" d="m92.017 171.209-.415-.042c-.064-.235-.126-.47-.185-.706-1.245-.494-1.333-.54-2.301-1.05-.968-.51-1.818-.525-2.519-.459a1.765 1.765 0 0 0-1.086.492s1.804-.399 3.362.426 2.035.958 2.11.981c.079.315.131.503.216.796l.54.053c.088.108.516.846.263 1.837s-.498 1.278-.35 1.637c.296-.747.586-.917.743-1.524.158-.608.26-1.643-.378-2.441zm-5.562 2.773c.449-.449 1.098-1.8 1.098-1.8-.272-.664-1.894-1.587-2.157-.735.648 0 1.073.33 1.628.849-.185.35-.46.9-.924 1.313-.464.413-.922.867-.931 1.329-.01.462.079.69.296.833.217.142.36.194.652.209.292.015.487-.127.715-.107-.016-.272-.247-.404-.448-.429-.2-.024-.463.043-.631-.1-.169-.143-.05-.267-.065-.485-.015-.22.318-.428.767-.877zm-1.141-1.816c.206.522.842.779 1.248.66.003-.742-.654-.995-1.248-.66zm3.318 1.03c.704.17 1.212.85 1.712 1.082.125-.554-1.22-1.92-1.712-1.082zm-.458.711c.201.796.863.927 1.353.994-.087-1.262-.82-1.243-1.353-.994zm-2.916 2.755c-.437-.22-.861-.067-.861-.067s.209.36.613.563c.347.173 1.124.49 1.124.49s-.38-.739-.876-.987zm4.76.539c.376-.168.615-.42.895-.71-.528-.643-1.098.105-.895.71zm-6.226 1.551s.584-.16.605-.631c-.4.054-.605.631-.605.631zm1.263-.316c-.362.103-.473.842-.473.842s.626-.524.473-.842z" transform="translate(-1.773 -3.465) scale(1.01885)"/>
                </g>
                <g style="stroke-width:.981578">
                    <path style="font-variation-settings:normal;opacity:1;vector-effect:none;fill:#d6d7d9;fill-opacity:1;stroke:#000;stroke-width:.779127;stroke-linecap:butt;stroke-linejoin:miter;stroke-miterlimit:4;stroke-dasharray:none;stroke-dashoffset:0;stroke-opacity:1;stop-color:#000;stop-opacity:1" d="M82.791 178.78s.679-.595 1.082-2.112c.403-1.516 1.106-3.253 1.18-5.794.076-2.54-.443-5.179-5.035-5.179-4.593 0-5.112 2.638-5.037 5.179.075 2.54.778 4.278 1.181 5.794.403 1.517 1.082 2.111 1.082 2.111.683 1.074 1.193 1.873 2.774 1.873 1.58 0 2.09-.799 2.773-1.873z" transform="translate(-1.778 -3.465) scale(1.01885)"/>
                    <path style="color:#000;font-style:normal;font-variant:normal;font-weight:400;font-stretch:normal;font-size:medium;line-height:normal;font-family:sans-serif;font-variant-ligatures:normal;font-variant-position:normal;font-variant-caps:normal;font-variant-numeric:normal;font-variant-alternates:normal;font-variant-east-asian:normal;font-feature-settings:normal;font-variation-settings:normal;text-indent:0;text-align:start;text-decoration:none;text-decoration-line:none;text-decoration-style:solid;text-decoration-color:#000;letter-spacing:normal;word-spacing:normal;text-transform:none;writing-mode:lr-tb;direction:ltr;text-orientation:mixed;dominant-baseline:auto;baseline-shift:baseline;text-anchor:start;white-space:normal;shape-padding:0;shape-margin:0;inline-size:0;clip-rule:nonzero;display:inline;overflow:visible;visibility:visible;opacity:1;isolation:auto;mix-blend-mode:normal;color-interpolation:sRGB;color-interpolation-filters:linearRGB;solid-color:#000;solid-opacity:1;vector-effect:none;fill:#000;fill-opacity:1;fill-rule:nonzero;stroke:none;stroke-width:3.7099;stroke-linecap:butt;stroke-linejoin:miter;stroke-miterlimit:4;stroke-dasharray:none;stroke-dashoffset:0;stroke-opacity:1;color-rendering:auto;image-rendering:auto;shape-rendering:auto;text-rendering:auto;enable-background:accumulate;stop-color:#000;stop-opacity:1" d="M301.566 632.98c.043 1.4-.693 2.859 1.458 4.015-.083-1.766-.218-3.48-1.458-4.015zm-.87 3.811c-2.416.186-4.753-.289-6.079.71 1.47.851 5.452 1.513 6.078-.71zm3.464 0c.627 2.223 4.61 1.561 6.08.71-1.326-.999-3.665-.524-6.08-.71zm-16.276 8.532s2.217 1.467 3.711 1.388l-.828.97s.492 1.522 3.194 1.49c2.703-.033 3.22-1.507 3.22-1.507l-.94-.763c1.006-.108 2.171-.013 3.256-.021-.243-.613-.374-1.537-1.546-1.931-.88-.296-3.413-.473-6.24-.194-2.828.279-3.827.568-3.827.568zm19.023-.374c-1.172.394-1.304 1.318-1.546 1.93 1.084.01 2.25-.086 3.255.022l-.94.763s.518 1.474 3.22 1.506c2.702.033 3.195-1.49 3.195-1.49l-.829-.97c1.495.08 3.711-1.387 3.711-1.387s-.999-.29-3.827-.568c-2.829-.28-5.36-.102-6.24.194zm-5.925 1.19c-.725 2.85-.868 4.979-1.484 7.361-.615 2.382-1.575 4.72-.293 5.607 1.282.887 1.953 2.014 3.285 2.014s2.638-1.02 3.535-2.435c-1.631-.152-2.729.765-3.525.758-.796-.008-1.095-.791-1.827-.959-.732-.167-.094-1.87.427-4.126.52-2.255.53-5.303-.118-8.22zm-5.394 16.4c-1.646 1.624-1.94 2.763-2.113 5.67-.174 2.907.624 4.097.368 7.186 1.463-2.433.98-4.663 1.223-7.223.244-2.56.45-3.625.522-5.633zm13.682 0c.082 3.761.36 7.493 1.84 9.826.098-3.618.083-7.233-1.84-9.826zm-10.422 3.936c-.962-.05-2.214.43-2.592 2.04.836-.045 1.682-.177 2.488-.135.806.042 1.923.302 3.684.302 1.76 0 2.877-.26 3.683-.302.806-.042 1.654.09 2.49.136-.377-1.612-1.631-2.09-2.593-2.041-.962.05-1.944.205-3.58.205-1.637 0-2.618-.156-3.58-.205zm-1.108 6.539c-.4 2.291-.7 5.173 1.373 6.252-.32-2.7-.067-5.506-1.373-6.252zm9.375 0c-1.306.746-1.052 3.552-1.373 6.252 2.073-1.079 1.773-3.96 1.373-6.252zm-4.926.66c-.06 1.5-1.582 4.174.763 5.221-.471-2.545 1.248-3.641-.763-5.22z" transform="translate(-1.778 -3.465) scale(.26957)"/>
                </g>
            </g>
            <path style="opacity:1;fill:none;fill-opacity:1;stroke:#000;stroke-width:.793814;stroke-linecap:butt;stroke-linejoin:miter;stroke-miterlimit:4;stroke-dasharray:none" d="M79.753 162.366c14.742 0 18.542 4.113 18.542 9.22 0 3.606-1.899 6.713-8.195 8.23-.924.704-2.275 1.555-3.568 1.968-1.795.573-3.74-.325-3.74-.325s-1.305 1.109-3.039 1.109c-1.733 0-3.038-1.109-3.038-1.109s-1.946.898-3.74.325c-1.294-.413-2.644-1.264-3.568-1.967-6.297-1.518-8.196-4.625-8.196-8.23 0-5.108 3.8-9.22 18.542-9.22z"/>
        </g>
    </g>
</svg>
