<svg xmlns="http://www.w3.org/2000/svg" xml:space="preserve" viewBox="30.5 31.5 420 500" height="500" width="420">
    <path style="fill:#0085ca;fill-opacity:1;fill-rule:evenodd" d="M41 32.7c-2.09 102.46 3.38 187.49 43.93 296.59 28.05 75.48 74.21 144.77 155.57 201.59 81.36-56.82 127.52-126.11 155.57-201.59C436.62 220.19 442.09 135.16 440 32.7c-133 .29-266 0-399 0z"/>
    <path style="fill:none;stroke:#000" d="M41 32.7c-2.09 102.46 3.38 187.49 43.93 296.59 28.05 75.48 74.21 144.77 155.57 201.59 81.36-56.82 127.52-126.11 155.57-201.59C436.62 220.19 442.09 135.16 440 32.7c-133 .29-266 0-399 0z"/>
    <path style="fill:#fff;stroke:#000;stroke-opacity:1" d="M240.5 452.818c13.86-.987 4.709-27.187 10.455-28.866 11.621-3.395 17.384-4.93 16.316-17.308-.288-3.338-3.172-1.936-2.262-5.444 9.381-36.175 21.476-95.785 54.24-123.539 10.044-8.509 30.353-1.421 32.806 5.812 3.612 10.649-1.71 22.001-10.735 28.117-4.553 3.085-11.919-6.102-16.686-6.486-7.795-.63-14.15 3.476-15.689 10.64-.58 2.702 7.548 5.62 4.135 9.14 0 0-11.971 14.54-15.35 22.51-3.69 8.702-1.794 22.443 14.256 21.269 10.514-.77 26.198-23.195 28.967-21.18l5.883 4.282c6.783 4.936 10.365-9.926 8.94-17.935-1.59-8.939-11.816-12.429-6.683-18.069 8.265-9.08 11.26-13.016 11.075-28.29-.17-13.928-22.715-26.864-39.31-19.04-17.08 8.054-34.317 34.506-48.342 80.639-4.45 14.637-9.252 31.121-12.762 49.8-1.004 5.343-5.547 5.685-5.3 0 .801-18.492 2.67-37.657 9.446-60.23 10.823-36.049 27.945-73.112 50.4-88.085 4.276-2.852 9.453-8.934 14.072-8.347 11.92 1.517 8.376-3.615 13.605-8.278 3.364-3 10.952-2.489 16.642-.808 5.826 1.72 11.801-5.13 6.863-7.112-3.718-1.492-1.773-6.171 3.16-6.702 14.557-1.566 30.784-12.66 20.908-18.955-9.256-5.9 5.535-14.545 14.482-22.01 4.82-4.021 16.926-18.172 10.827-24.173-6.45-6.346-6.102-6.45 1.214-21 4.108-8.172-15.623-17.731-24.285-8.223-7.166 7.866-7.24 8.905-13.517 7.986-8.764-1.283-15.707 4.194-17.902 13.114-1.877 7.629.065 13.377-3.794 15.326-5.93 2.994-11.083-7.56-20.126-2.052-9.869 6.012 2.453 33.496-5.353 34.251-1.918.067-7.458-2.493-12.913.81-3.82 2.313-4.744 4.68-3.652 11.686 1.977 12.684 1.987 18.071-3.862 18.936-7.505 1.11-2.605 17.775-6.571 22.268-22.131 25.075-37.472 57.153-45.634 88.582-5.875 22.62-8.12 41.282-9.86 63.158-.39 4.91-4.104 4.776-4.415-.428-.626-10.462.362-22.438.422-36.516.095-22.546 1.098-43.935 1.092-47.226-.024-11.768 2.432-11.612 4.521-13.887 2.142-2.333 6.581-6.624 3.238-17.521-1.975-6.435 8.055-12.031 13.453-14.703 4.296-2.126 1.168-5.086-.784-4.733-5.16.936-12.778-2.944-3.513-11.374 18.496-16.83 43.71-37.64 32.916-53.36-5.805-8.453-10.555 2.642-15.823 2.819-2.696.09-5.019-3.347-2.437-7.253 4.096-6.195 12.841-14.582 17.531-20.96 7.489-10.184 13.49-26.406 8.076-40.755-2.122-5.623-7.048-10.526-10.491-11.766-8.144-2.934-4.272 9.026-7.605 13.405-1.668 2.192-6.699-.599-7.467-4.908-1.015-5.688 2.864-14.406 4.705-17.024 6.728-9.566 8.968-24.58.978-30.57-6.274-4.703-13.41 2.217-15.41 2.91-3.309 1.145-5.511 1.873-5.75-3.34-.654-14.226-6.104-28.393-21.341-28.615-22.422-.327-21.608 14.347-21.34 28.615.097 5.218-2.442 4.485-5.751 3.34-2-.693-9.136-7.613-15.41-2.91-7.99 5.99-5.75 21.004.978 30.57 1.841 2.618 2.325 9.176 1.31 14.864-.768 4.309-7.65 3.705-9.318 1.513-3.334-4.379-1.505-13.092-8.223-12.17-8.263 1.133-8.316 11.77-8.312 19.91.007 13.179 8.226 27.477 14.384 35.85 4.69 6.379 11.893 14.612 15.988 20.807 2.582 3.905.876 8.577-1.82 8.487-5.268-.177-7.714-12.126-14.588-4.516-7.091 7.851 8.727 38.324 26.435 55.983 7.365 7.344 1.466 9.253.036 10.448-1.522 1.273-5.08 2.608-.784 4.733 5.398 2.672 9.354 9.053 9.287 15.783-.103 10.435 3.41 13.182 5.552 15.515 2.09 2.275 6.397 3.045 6.373 14.813-.006 3.29.997 24.68 1.092 47.226.06 14.078 1.048 26.054.422 36.516-.31 5.204-4.025 5.338-4.416.428-1.739-21.876-3.984-40.538-9.859-63.158-8.162-31.429-20.23-65.253-45.197-90.11-4.248-4.228-.376-22.685-7.88-23.795-5.85-.865-6.778-6.48-4.736-19.155 1.128-6.994.43-23.576-7.143-26.96-5.822-2.603-2.708 17.582-7.676 17.738-11.168.352 1.752-37.788-13.779-45.957-5.069-2.666-6.35 11.107-13.228 7.21-3.761-2.13-3.192-7.491-3.794-15.325-1.321-17.213-8.876-17.175-16.374-12.46-4.958 3.12-6.504 5.154-13.517-2.093-8.945-9.243-22.559-.566-18.83 7.786 5.134 11.495 4.827 14 1.432 17.727-5.76 6.326 2.158 19.773 7.772 27.447 3.854 5.268 12.904 7.641 16.342 10.789 2.441 2.235 1.548 6.151-3.823 7.292-11.456 2.433 8.751 20.663 23.308 22.229 4.934.53 6.879 5.21 3.16 6.702-4.938 1.983 1.037 8.833 6.863 7.112 5.69-1.681 13.278-2.192 16.643.808 5.228 4.663 1.684 9.795 13.604 8.278 4.62-.588 9.142 6.804 13.418 9.656 22.454 14.973 37.176 51.818 47.999 87.866 6.777 22.574 8.645 41.739 9.446 60.231.247 5.685-4.296 5.343-5.3 0-3.51-18.679-8.312-35.163-12.762-49.8-14.025-46.133-31.262-72.585-48.342-80.639-8.702-4.103-19.04-2.497-26.93 1.967-19.685 13.601-12.95 29.449-3.454 39.826 5.149 5.627-6.173 8.667-7.763 17.606-1.424 8.01 6.689 19.302 10.792 16.237l5.112-3.818c2.743-2.05 15.83 19.792 26.344 20.562 16.05 1.174 17.173-12.104 13.484-20.806-3.38-7.969-14.27-18.035-14.27-18.035-3.413-3.519 5.178-8.29 4.598-10.992-1.539-7.163-7.277-11.732-15.072-11.103-4.767.385-13.069 9.875-16.994 6.024-8.787-5.924-12.967-21.967-.462-28.646 7.467-3.907 19.291-5.465 26.225.408 32.763 27.754 44.858 87.364 54.239 123.539.91 3.508-1.973 2.106-2.262 5.444-1.068 12.377 4.695 13.913 16.316 17.308 5.746 1.679-3.405 27.879 10.455 28.866"/>
</svg>
