<svg xmlns="http://www.w3.org/2000/svg" width="400" height="500" viewBox="30.5 31.5 400 500" xml:space="preserve">
    <path d="M230.44 531.14C156.12 477.22 105.18 409.12 74.7 322.98c-27.64-78.1-38.73-172.75-33.91-289.35l.02-.46h379.82l.02.46c4.81 116.6-6.28 211.24-33.91 289.35-30.48 86.14-81.42 154.24-155.74 208.16l-.28.2-.28-.2z" style="fill:#000"/>
    <path d="M419.96 33.21c9.07 219.45-36.26 385.95-189.46 497.1C77.31 419.16 31.99 252.66 41.06 33.21h378.9m.92-.95H40.14l-.04.92c-4.82 116.66 6.28 211.36 33.93 289.52 30.51 86.24 81.51 154.41 155.91 208.39l.56.41.56-.41c74.4-53.98 125.4-122.15 155.91-208.39 27.65-78.16 38.75-172.86 33.93-289.52l-.04-.92z"/>
    <path style="fill:#fff;stroke:#4b00aa;stroke-opacity:1" d="M346.304 322.518c7.697 5.386 7.8-6.639-4.146-15.95-20.958-16.335-59.886-53.948-50.738-108.524 8.984-53.59 39.91-85.168 60.874-104.444 12.526-11.517 26.522-23.12 20.268-23.12H277.83V53.726c0-4.445-11.128-4.445-11.128-.125v16.88l-146.231.921c-3.331.021-7.991 6.073-10.817 9.95-16.127 22.117-29.91 54.772-30.192 88.322-.142 16.772 5.441 40.147 8.211 49.67 1.675 5.758 5.92 16.476 11.849 21.206 3.818 3.047 9.56-14.174 13.567-18.679 27.795-31.246 113.302 26.445 152.63 45.596-.253 18.415 0 34.321 0 49.358 0 3.472-19.885 2.114-33.045 1.1-33.313-2.568-66.932-6.173-86.611-14.233-10.35-4.239-13.615-13.976-14.277-23.052-.406-5.567.307-11.307 7.74-15.569 5.48-3.141 4.997-12.252-2.213-11.635-2.617.224-9.168 2.04-9.622-.52-.574-3.238-.258-7.04-.399-12.973-.161-6.833-11.488-4.774-11.887-.826-3.835 37.932-5.098 99.472 1.208 128.038 2.37 10.739 11.646 15.717 18.965 20.248 17.583 10.885 110.451 25.99 157.841 25.368 20.122-.264 25.687-.648 25.14-14.37-.537-13.48 3.701-71.749.054-77.684-2.497-4.063-36.31 1.569-36.31-3.164v-39.818z"/>
</svg>
