<svg width="1000" height="1000" viewBox="0 0 264.581 264.581" xmlns="http://www.w3.org/2000/svg">
    <circle cx="132.29" cy="132.29" r="122.131" fill="#dc1e23" stroke="#bf9d23" stroke-width="19.791" style="paint-order:normal"/>
    <path d="M108.371 46.486c-2.24-.124-7.343 0-8.213.124-.873.125-.873 1.37-.873 1.37s.5 4.853.25 6.347c-.25 1.494-.747 2.986-.747 3.859 0 .87 0 1.368.497 1.617.5.248 2.74 2.489 3.735 3.11s1.992.997 2.116 1.62c.124.621.622 1.867.87 2.364.25.498 1.62 1.992 1.62 1.992v19.165c0 1.12.248 11.949.124 14.437-.125 2.489 1.368 10.58-.25 10.953-1.618.373-6.97.621-6.97.621s-4.978.622-4.978-.124v-6.098c0-.872.622-7.84-.248-8.09s-2.49-.25-4.73-.498c-2.24-.249-.746-.995-.746-1.493 0-.499.124-19.913.124-19.913s3.111-1.992 3.111-2.738 0-7.219.125-8.09c.124-.872 1.494-3.11-.747-3.235-2.24-.124-7.094 0-7.094 0s-2.49.25-2.365 1.12c.124.87.872 8.214.5 8.09-.376-.125-3.984-.374-3.984-.374V68.89s0-4.232-.622-4.605-9.584-.373-9.584-.373-.248 2.116-.248 3.235-.125 5.476-.125 5.476-4.48.373-4.48 0 .124-3.981.124-4.356c0-.374 0-4.355-.373-4.48-.373-.124-7.343-.124-7.343-.124l.126 4.978.122 3.982s-2.24.87-1.12 1.619c1.12.746 3.36 2.986 3.36 2.986l.374 6.844-.436 13.505-4.667.187-.124 14.436s-1.368 2.24-1.493 2.738c-.124.497 3.858 3.983 3.858 3.983l.373 5.227-5.6 6.098 3.858 3.857-.124 43.187-.995 5.351-6.566 6.224-2.24.84c.307.29 2.599 3.6 4.693 6.253 1.306 1.556 13.198 14.562 27.136 22.775 13.94 8.214 34.1 16.677 55.382 16.428 21.283-.25 42.44-8.463 53.765-16.677 11.325-8.216 28.126-23.212 29.122-24.954.995-1.743 2.8-5.29 2.8-5.29l-9.024-8.089-.496-45.177 5.228-3.36s-2.989-5.85-3.362-5.974c-.373-.125-3.11-1.493-3.11-1.493s0-4.854-.498-4.978c-.498-.125-1.868-1.121-1.868-1.121l1.619-3.858-.5-15.618-3.608-.56.124-22.154L206.441 72l-.374-2.365-.497-7.343-7.965.124-.124 8.09h-3.735s0-7.344-.496-7.592c-.5-.249-10.83 0-10.83 0l-.372 8.462h-5.103l-.498-8.587-7.094.373.249 9.335 3.235 4.106-.373 22.03-3.982 1.493-.746 12.446-12.197.622-.498-7.093-.497-24.643-.125-12.943 3.733-1.99.249-2.24 3.608-3.362 2.116-2.613-.621-12.071-10.33-.373-.498 6.844.373 4.73-5.85-.25-.124-10.952-11.948-.373-.373 5.6.498 6.347h-6.844l-1.868-11.574-10.08.249-.25 11.449-6.097-.124-.748-1.617.25-9.46z" fill="#fff"/>
    <path d="M212.25 195.115c-2.644-1.401-17.89-4.015-26.882-2.8-8.99 1.212-17.641 5.258-19.508 7.125-2.582-2.613-6.939-5.82-17.175-5.258-6.753.37-11.232 2.52-13.534 4.106-3.86-2.893-6.894-3.552-15.682-4.106-7.405-.468-9.46.653-20.815 4.759-2.552-1.959-7.437-5.039-22.03-4.852-14.591.186-24.548 2.238-24.548 2.238s12.537 13.161 17.922 17.922c5.383 4.761 18.606 12.602 34.07 16.71 15.464 4.106 34.66 4.106 46.67 2.24 12.01-1.867 29.807-8.868 39.39-16.429 9.583-7.56 22.237-21.54 22.121-21.654" fill="#bf9d23"/>
    <path d="M140.125 44.698c-.99 0-3.098.088-3.442.13-.07.01-.578.02-1.346.035-.229.003-.93.4-.955 1.037-.056 1.443-.159 4.168-.066 6.61.05 1.336.055 2.935.046 3.847-.01.897-.423.97-1.293 1.03-1.054.077-1.84-.221-3.142-.221-1.147 0-1.176-1.304-1.165-1.533.03-.898-.059-2.992-.093-4.678-.04-2.049-.094-4.218-.094-4.53 0-1.742-1.01-1.47-2.006-1.462-.39.002-4.168-.005-4.77.037-.601.043-3.138 0-3.612 0-.122 0-.903.026-2.003.064-.228.01-.886.466-.894 1.172-.025 2.28.366 7.374.296 9.897-.033 1.119-.52 1.258-1.09 1.258-1.585 0-2.704-.134-3.763-.14-.36-.001-.756-.954-.716-1.803.039-.85-.029-6.525 0-8.34.028-1.865-.5-1.806-1.505-1.772a105.2 105.2 0 0 1-1.553.05c-.431 0-6.066.172-6.882.26-.817.085-1.549.086-1.593.815-.042.734.086 2.884.13 4.304.042 1.419-.258 5.463-.3 6.02-.044.56-.647.948-.603 1.636.042.689.127 1.12 1.505 2.194 1.377 1.076 2.625 1.764 3.184 2.323.558.56 1.72 1.463 1.98 1.763.257.302.386.518.386.904 0 .387.343 1.16.688 1.634.344.474.86.774 1.074.99.218.214.517.602.517.99s.043 2.064.087 2.71c.044.646.13 9.549.043 10.41-.087.86-.26 3.528-.173 3.742.086.214.13.344 0 .732-.128.386-.127 10.617.124 16.424.186 4.298-.227 7.218-.241 8.277-.01.639-.461 1.344-2.292 1.343-2.536-.002-6.53 0-7.437-.192-.47-.1-.703-.728-.724-1.72.2-3.365.055-9.142.132-10.71.027-.616.192-1.726-1.651-1.737-1.43-.01-2.832-.002-4.29-.26-.511-.09-.138-7.21-.182-7.641-.042-.43.086-5.763.044-7.484-.044-1.72 0-3.57 0-4.174 0-.601.214-1.117.515-1.375.3-.258 1.592-1.505 1.851-1.765.256-.256.602-.516.558-1.29-.042-.773.086-1.375.086-2.108 0-.73.172-3.398.172-4.473 0-1.076.086-3.185.042-3.616-.042-.43.114-1.46-1.203-1.462-1.056 0-3.872.044-5.377-.084-.995-.086-3.722-.254-4.155.622-.664 1.34-.203 6.75-.234 7.62-.032.868-.244.982-1.356 1.01-1.734.047-1.609-.872-1.534-1.525.062-2.518.126-4.943.111-6.565-.005-.597-.775-.991-.934-1.015-1.926-.287-8.115-.147-10.18-.019-.613.039-.459 6.493-.336 8.404 0 .469-.633.496-1.82.505-1.469.01-1.356-.39-1.352-1.202.002-1.094-.08-2.077-.08-4.393 0-1.42.25-3.268-.357-3.281-1.747-.037-2.18-.044-3.049-.075h-5.156c-.186 0-.535-.018-.535.187s-.263 7.857-.22 8.202c.043.344-.172.472-.172.472s-.731.646-.773 1.335c-.044.688.255 2.02.643 2.537.436.585 2.367 1.893 2.753 2.193.388.301.431.731.388 1.119-.043.388-.13 2.365-.172 4.044-.042 1.677 0 4.343 0 5.333s.086 4.174.086 4.473c0 .302-.044 3.089-.057 3.334-.064.98-1.185.98-2.75.887-1.003-.06-1.936-.093-2.484.233-.421.252-.086 1.14-.044 1.915.044.773.087 7.182.044 8.171-.037.76.016 4.168.016 4.34 0 .302-.183.574-.232.607-.214.13-1.16.782-1.591 1.334-.3.388-.258 1.764 0 2.064.26.302 1.141 1.329 2.134 2.238 1.07.974 2.248 1.823 2.34 1.892.173.13.301.26.301.474 0 .16.16 2.456.075 3.523-.022.316-.247.52-.419.693-.172.172-4.511 4.468-5.29 5.247-.602.602-.69 1.205-.346 1.549.69.69 3.228 2.839 3.614 3.184.387.344.479.64.479.94 0 .302-.178 8.922-.178 10.374 0 .212 0 .592.002 1.099.012 3.602.063 13.567.213 15.375.174 2.065-.344 9.465-.172 10.668.103.743.136 5.286-.08 6.103-.386.388-.522 1.511-.436 1.899.086.386-.124.78-.338.953-.216.17-6.463 6.203-6.588 6.315-.15.132-1.355 1.45-1.355 1.45l1.215 1.837c.223-.039 1.077-1.418 1.39-1.694.502-.444 3.096-3.442 4.041-4.13.948-.69 2.497-1.893 2.926-2.237s1.634-.43 2.152-.43c.515 0 3.534-.087 5.958-.087 3.017 0 5.678.526 7.288.356 1.635-.172 8.262.161 9.553.42 1.29.259 5.59.431 7.484.171 1.893-.258 6.194-.172 8.087-.086 1.893.086 4.56.174 5.765.174 1.203 0 1.805.342 1.805 1.29 0 .837.203 4.906.07 11.43l2.425-.002v-8.676c0-1.291.174-5.679.086-7.486-.086-1.805 0-4.042-.257-5.935-.257-1.893.43-4.215.257-5.593-.172-1.377-.343-6.194-.257-6.882.085-.688.084-1.807.084-1.807s1.206-.172 2.065-.344c.862-.172.92.08.818.56-.092.44.604 2.537.172 5.203-.289 1.818-.042 2.926-.042 3.528 0 .603.172 4.044 0 5.335-.172 1.29.086 8.26 0 10.066-.086 1.805-.172 4.473-.258 6.279-.024.493-.046 1.07-.07 4.444l2.085.002c.006-3.689-.001-4.581-.038-5.048-.086-1.117 0-10.925.088-11.785.086-.862.086-7.228 0-8.088-.088-.861.269-2.84 0-4.043-.174-.776.258-1.032.344-1.808s-.086-2.924-.258-3.957c-.174-1.032.754-3.856 1.29-5.42 1.033-3.012 4.301-4.99 4.301-4.99s-1.805.258-3.269 1.291c-1.048.735-1.548 1.12-1.548 1.12s-.688-1.12-1.12-1.55c-.428-.43-.428-.775-.256-1.377.077-.27.397-1.48.79-2.814.481-1.632 1.066-3.462 1.447-3.983.688-.947 1.721-2.752 2.235-3.785.518-1.032 1.549-2.064 1.893-2.41.344-.343 1.635-2.408 2.323-3.096.69-.69 4.905-5.334 4.905-5.334s-.602 3.27 1.807 3.442c-.516-1.636.086-5.336 2.924-5.336-.601-2.752 2.237-3.786 3.7-3.786 1.462 0 3.872.174 3.872 3.615 2.494.43 3.612 2.924 2.667 5.507 1.031-.172 1.547-1.378 1.72-2.583 1.98 1.55.86 1.033 1.462 1.637.603.601 1.72 2.235 2.496 3.44.774 1.203 2.151 2.323 2.839 3.27.688.946 3.01 4.13 3.44 5.419.41 1.225 1.207 2.996 1.653 3.98.026.054.048.104.068.15.43.946 1.549 2.667 1.205 3.269-.344.602-1.12 1.635-1.12 1.635s-2.062-1.893-3.87-1.463c2.84 1.635 3.011 3.528 3.527 4.817.517 1.291.979 2.583.979 3.614 0 1.034.773 2.753.773 3.27 0 .516-.43 4.474-.516 5.851-.085 1.375.344 2.665.172 3.526-.172.862-.172 4.388-.344 5.765-.172 1.375.087 6.882-.085 8.345-.14 1.18-.11 5.333-.094 6.89l1.346.004c-.009-.64-.03-1.575-.08-2.42-.086-1.463.088-4.301.174-5.075.086-.776.43-2.84.343-4.302-.086-1.463-.086-7.4 0-8.949s-.086-5.593.086-6.538c.172-.948.43-3.01.344-4.044-.086-1.031 0-2.322 0-2.924 0-.602.258-.688.774-.688.517 0 .86-.174 1.46 0 .604.172.863.688.777 1.204-.086.515-.086 5.076-.172 6.366-.086 1.291.171 5.679.085 6.882-.086 1.205-.343 6.796-.43 8.605-.085 1.805-.085 9.893.086 10.666.07.317.012 1.985-.082 2.416l2.062.01v-1.908c0-.947.257-6.624.085-7.486-.172-.86-.257-1.72.688-1.633.948.086 4.13.342 5.593.086 1.463-.26 4.216-.26 6.796-.26s8.002.26 9.723-.172c1.719-.43 4.645.346 5.333.172.69-.172 1.031-.945 1.549-.687.516.258 1.893.343 2.409.343.517 0 3.957.086 6.624.086h9.895c1.463 0 2.236.344 2.666.861.43.516 2.151 3.097 2.925 3.613.775.515 1.548 2.065 2.064 2.58.241.242.77.695 1.409 1.222l1.245-2.394c-.635-.528-.905-.779-1.105-.978-.43-.43-1.892-2.839-2.408-3.44-.516-.602-1.807-2.237-2.237-2.497-.43-.258-1.032-1.203-1.377-1.719-.344-.516-.602-.69-1.032-.862-.43-.172-.43-.343-.515-.945-.088-.602.172-4.302.086-5.077-.086-.774-.086-2.15-.086-3.01 0-.86-.088-5.076-.344-5.677-.26-.604.344-1.808.256-2.841-.084-1.032.088-4.216.088-5.679 0-1.461-.088-2.752-.258-3.354-.172-.602.258-2.58.17-3.526-.017-.198-.028-.825-.033-1.701-.021-3.343.034-10.317.034-10.862 0-.688.172-1.204.687-1.547.516-.346 3.442-2.195 3.83-2.453.386-.258.816-.56.428-1.161-.386-.604-1.977-3.742-2.838-4.861-.86-1.118-1.85-2.11-2.237-2.839-.388-.731-1.161-1.85-1.333-2.023-.172-.172-.344-.56-.344-1.033 0-.472.042-.774.042-1.074 0-.302-.258-.56-.73-.731-.473-.172-.817-.258-.39-.776.432-.516 1.034-1.16 1.206-2.065.173-.901.346-1.849-.344-2.666-.236-.28-.43-.472-.472-.86-.044-.388-.13-1.032-.088-1.55.044-.515-.084-.944 0-1.504.088-.56-.17-2.839-.17-3.914 0-1.075.386-3.872.3-5.075-.086-1.205.236-1.015-.236-1.961-.473-.947-2.427-.808-2.862-.686-.435.126-.92-.278-.927-1.165-.007-.887-.018-5.74-.06-6.772-.044-1.032.084-5.85.084-6.882 0-1.033.215-4.818.173-5.161-.042-.346-.13-.688.302-1.12.43-.43 2.107-2.15 2.623-2.71.517-.558.947-1.634.903-2.15-.042-.517-.214-1.035-.472-1.205-.26-.172-.431-.388-.431-.775 0-.386.216-3.526.172-3.956-.042-.431-.048-2.21-.022-2.877.025-.67-.243-.82-.538-.82-.296 0-1.944-.012-2.279-.047-.612-.06-4.082.543-6.143.017-.794-.201-1.34.618-1.167 2.041.036.3.157 2.716.382 4.419.132.929-.14 1.49-.92 1.54-.814.05-1.562.108-1.608-.704-.047-.812-.327-3.57-.327-4.434 0-2.427-1.06-2.725-1.818-2.72-2.161.015-4.503.015-4.832.015-.602 0-1.463.256-1.807.172-.343-.086-1.547-.172-2.065-.086-.515.086-1.891-.382-1.893 1.474 0 1.059.114 3.111.112 4.763-.002 1.238-.064 1.322-.112 1.75-.022.212.234.699-2.324.613-1.632-.055-1.736-.231-1.631-1.09.186-1.537-.235-5.698-.194-5.987.194-1.377-.47-1.697-1.27-1.523-.929.2-4.473.256-5.247.342-.775.086-1.291-.086-1.893 0s-.602.603-.602.947.256 2.925.084 3.615c-.17.687 0 3.354-.084 4.043-.086.688-.26 1.548.084 1.98.344.429 2.583 2.494 2.841 2.838.258.344.43.775.43 1.289 0 .518.086 6.195 0 7.486s-.086 4.559-.086 4.99c0 .43-.05 3.038.086 4.584.08.93-.116 1.489-.094 2.74.017.89-1.002 1.165-1.54 1.145-1.477-.057-2.286.13-2.427 1.208-.098.767-.12 7.676-.415 11.104-.084.99-1.326 2.164-2.478 2.22-2.92.147-7.708-.353-8.166-.353-.31 0-.835-1.792-.885-3.438-.05-1.644-.188-18.4-.254-18.867-.088-.602.086-3.784.086-4.214 0-.43-.26-1.55-.26-2.239 0-.687.344-5.419.26-6.106-.086-.688 0-6.713 0-7.228 0-.516.084-1.378.688-1.634.601-.26 1.977-1.033 2.236-1.548.258-.516.688-1.162.516-1.42a.652.652 0 0 1 .042-.817c.216-.258 1.505-1.593 2.15-2.065.646-.474 1.594-1.635 1.937-1.937.344-.3 1.634-1.547 1.85-1.979.216-.43.172-1.117-.086-1.29-.258-.171-.474-.343-.516-.689-.044-.344.042-3.14.128-3.654.088-.517 0-1.463-.086-1.809-.086-.344.216-.688.216-1.117s0-3.614-.086-4.002c-.086-.388-.56-.815-1.291-.901-.36-.044-4.596-.114-9.311-.18-1.622-.024-2.519.393-2.089 3.18.095.617.02 3.748.045 5.268.008.403.421 3.045-.466 3.045-.446 0-1.753.194-2.957.196-.227 0-.463-.608-.633-1.277-.173-2.864-.046-8.237.022-8.897.157-1.493-1.192-1.635-1.739-1.617-1.085.035-1.787-.02-1.884-.02-.518 0-3.184-.044-4.174-.044zm22.075 1.918c.477.002.783.18.724 1.008-.086 1.204-.086 7.399-.172 7.828-.086.43.172 1.033-.775 1.033-.946 0-7.054.344-7.57.344-.518 0-1.12-.172-1.12-1.205 0-1.031.172-8.861.172-8.861s7.14 0 8.002-.086c.27-.027.522-.062.739-.061zm-36.786.493c.688 0 1.291.085 1.291 1.289 0 1.205.17 6.539.17 7.312 0 .776.088 1.98.088 1.98s-3.528.17-4.731.085c-1.205-.086-5.163 0-5.163 0s0-2.58-.086-3.698c-.086-1.12-.086-5.335-.172-6.109s.258-.774 1.118-.774c.861 0 6.798-.086 7.485-.086zm19.53.256c.601 0 1.119 0 1.119.775s.344 7.656.344 8.088c0 .43-.174.945-.688.945-.516 0-8.001.258-8.69.258-.689 0-1.205.174-1.29-.602-.087-.773 0-3.354.085-4.387.086-1.032.258-3.526.087-4.216-.172-.688-.172-.688.947-.776 1.117-.085 7.484-.085 8.085-.085zm-42.87.144c1.764 0 4.845.07 5.361.03 1.118-.088 1.72 0 1.547 1.031-.155.937-.171 6.624-.171 7.4 0 .773-.172 1.203-1.032 1.375-.861.172-5.947-.203-6.538-.086-.862.172-1.378 0-1.292-.516.13-.768.344-3.442.258-4.473-.086-1.032-.086-3.182-.086-3.7 0-.516.172-.945.774-1.031.15-.022.592-.03 1.18-.03zm58.48 10.583c1.466.016 2.652.609 1.597 1.662-1.203 1.205-2.667 1.033-3.872 1.12-1.203.085-8.345.259-9.033.345a.825.825 0 0 0-.21.057 21.018 21.018 0 0 0-1.84-.103c-1.743 0-5.849.248-5.849.248l-9.086.249-3.36-.249s-7.094.373-9.708.373c-2.613 0-5.724-.124-5.724-.124s-.172.026-.425.062c-.686-.22-1.307-.085-1.307-.085s-7.228 0-8.432-.258c-1.205-.256-2.496-1.376-3.011-1.807-.516-.43-.172-.774 1.463-.774.876 0 4.473 0 6.022-.086 1.55-.086 6.71.086 8.69.172 1.978.086 8.602.086 11.269 0 2.668-.086 6.71-.172 9.98-.086 3.27.086 9.463-.258 12.302-.344 2.84-.086 8.175-.171 9.894-.343.215-.022.43-.031.64-.03zm43.84 4.76s.257 5.59.17 6.194c-.085.602-.515.774-1.03.774s-3.615.258-4.217.172c-.601-.086-.773-.172-.773-.688s.086-6.194.086-6.194zm-46.174.191c-.446.699-1.145 1.636-1.145 1.874 0 .43.687.773.086 1.377-.604.602-1.205 1.032-2.924 1.118-1.721.085-7.83.085-10.238.257-2.41.172-8.863 0-10.84 0-1.98 0-7.916.172-10.325.344-2.409.174-8.26-.172-10.668-.258-2.409-.086-3.528-.086-4.302-.43-.775-.343-1.29-.43-1.463-.945-.172-.518.086-.776-.172-1.291a24.922 24.922 0 0 0-.617-1.083c1.004-.053 3.836-.198 4.78-.198 1.12 0 6.56-.146 7.557-.022.995.124 4.117.38 5.111.256.997-.124 4.81-.234 4.81-.234l4.577-.353 4.222.119 4.054-.037 3.806.037 3.226-.125c.622.205 3.05.056 5.43-.21zm33.352.063c.593-.001 1.144.267 1.206 1.38.086 1.548.344 4.904.344 5.42s-.948.947-1.635.947-8.604.087-8.604.087-.005-4.56-.086-5.164c-.258-1.893.344-2.494 1.032-2.58.69-.086 6.282.172 7.056 0 .218-.049.456-.09.687-.09zm-16.561.237c.278.001.48.009.56.025.43.086.688.431.688.861s.086 5.247.086 5.677c0 .43-.172.947-.688.947s-5.746.436-5.746.436.067-2.07.067-2.93c0-.862.172-3.356 0-4.044-.172-.688.086-.861.69-.861.489 0 3.136-.114 4.343-.11zm-84.74.884c.734-.001 1.59.054 1.59 1.033 0 1.12-.086 4.992-.086 5.507s-.258 1.548-1.376 1.462c-1.12-.086-5.249-.17-5.678-.17-.43 0-.775-.26-.775-.69s.172-4.56.087-5.247c-.086-.69 0-1.635 1.031-1.72 1.033-.087 4.13-.173 4.903-.173l.304-.002zm-31.533.174c.516 0 3.528.128 3.956.086.861-.086 1.205.258 1.12 1.117-.087.862-.087 4.648-.087 5.25 0 .601-.172.859-1.291.687-1.118-.172-2.58-.086-3.268-.086-.688 0-1.205-.086-1.291-.861-.086-.774.171-4.386.085-5.076-.086-.687.259-1.117.776-1.117zm13.4.392c1.23-.003 2.897.038 3.549.038h2.065c.343 0 1.29-.086 1.203 1.031-.086 1.12-.43 4.646-.43 5.078 0 .43.258 1.203-.43 1.119-.689-.088-6.108 0-6.97 0-.859 0-1.289-.088-1.289-.861 0-.776.172-4.904.086-5.507-.086-.602.172-.774.946-.86.242-.027.71-.037 1.27-.038zm59.528 3.714c.922-.005 1.662.152 2.092.368.86.43 2.065 1.806 2.323 3.184.258 1.375.688 4.042.688 4.042s.43-1.547.43-2.151c0-.602 0-3.097-.172-3.614-.17-.516.345-.688.775-.688.43 0 1.377-.086 1.979-.086s1.117.344 1.117 1.12c0 .773.172 3.442 0 3.957-.172.516-1.891 1.29-1.891 1.29s2.495.431 3.183.603c.687.172 2.752.086 2.752 2.15s-.086 3.011.086 3.441c.174.43.43 1.721-.86 1.807-1.29.086-6.452.516-6.452.516s2.537.388 2.796.903c.258.518.203 1.935.128 3.57-.128 2.71.172 3.185-1.289 3.442-1.463.258-2.926.688-2.926.688s3.7.516 4.99.516h2.238c.43 0 1.117.517 1.203 1.12.086.603.172 2.838.172 3.353 0 .518-.258.948-.946 1.12-.69.171-4.281-.193-4.258.793.026.984.063 1.72.063 1.72s.053 1.885.07 2.845c.017.962.142 7.122.142 7.122s-5.352-6.284-8.186-6.293c-2.067-.006-8.49 6.231-8.49 6.231s-.331-4.095-.291-6.03c.042-1.935 0-3.113-.01-3.985-.01-.874.75-2.043-.564-2.175-1.313-.131-2.254-.12-3.34-.157-1.084-.036-1.377-.587-1.29-1.19.085-.602.345-1.806.173-2.581-.174-.774.43-1.633 1.203-1.893.776-.258 3.528-.602 4.474-.688.947-.086 1.72-.344 1.72-.344s-2.236-.515-3.097-.86c-.86-.345-.946-1.033-.946-1.462s-.172-4.216.172-4.646c.346-.432 1.463-1.033 2.926-1.12-1.205-.687-3.356-.687-4.82-.601-1.46.086-1.892-.258-2.062-.861-.172-.602-.26-4.388 0-5.076.256-.687 1.204-.86 2.667-1.033 1.461-.17 3.01-.774 3.01-.774s-1.162-.322-1.635-.602c-.86-.517-.516-3.699-.516-4.559 0-.861.69-1.377 1.291-1.463.602-.086 1.805-.258 2.409-.086.602.172.86.602.602 1.118-.258.517-.258 4.905-.258 4.905s.913-5.443 3.236-6.305a9.429 9.429 0 0 1 3.189-.601zm21.415.357c.909.01.972.443.894 1.301-.086.946 0 7.485-.086 9.463-.086 1.98-.086 11.442-.086 12.905 0 1.464-.086 4.59-.086 5.366 0 .774-.344 1.204-1.031 1.118-.69-.086-3.7 0-4.474 0-.775 0-1.119-.43-1.205-1.206-.086-.773 0-2.523.086-3.385.086-.861.861-1.033 1.549-1.119.688-.086 1.216-.158 1.732-.33.516-.171 1.524-.089 1.524-.089v-.896l-9.536-.232s-.172-5.335-.087-6.109c.086-.775 1.55-.775 2.152-.861.601-.086 7.827-.258 7.827-.258l-.087-.785s-3.439.011-4.298-.075c-.862-.086-.947-.174-1.12-.775-.171-.602-.687-4.818-.172-5.334s1.367-.934 2.323-1.03c1.295-.134 3.268-.26 3.268-.26l-.09-.77s-1.675-.184-3.498.089c-1.939.289-4.486-.238-5.358-.18-1.29.087-1.377-.257-1.377-1.462 0-1.204.173-4.732.173-4.732s9.549-.257 10.754-.343c.113-.009.216-.012.31-.011zm-43.154.268c.688 0 2.323.172 4.474.344s5.247 0 5.247 0 .086 4.474 0 4.99c-.086.515-.172.86-.86.86-.687 0-8.296.624-8.296.624l.09.628s3.045.556 3.99.47c.946-.086 1.206.601 1.292 1.117.086.516.172 1.378.086 2.323-.086.947 0 1.807-.172 2.237-.174.431-.604.687-1.12.687s-4.345.425-4.345.425l.18 1.165s2.65.175 3.855.09c1.204-.087 2.72-.129 3.237-.043.516.084 1.204.256 1.547.256.344 0 .688.346.688 1.033s-.086 3.614-.086 4.044c0 .43-.687 1.12-1.375 1.204-.688.088-6.363.67-6.881.585-.516-.086-1.523-.09-1.523-.09l-.09.896s2.808.09 3.495.09c.69 0 2.676.325 2.676.325s.343 4.13.086 4.734c-.258.602-.43 1.64-1.721 1.64s-4.992.173-5.421.173c-.43 0-.602.085-.602-.43 0-.516.258-6.718.258-7.923 0-1.204-.115-2.226-.115-3s.086-2.889 0-3.405c-.086-.515.287-1.94.201-2.628s0-2.839.086-3.614c.086-.774-.104-5.105-.018-6.396.086-1.29.09-2.081.09-2.6 0-.515.36-.81 1.047-.81zm20.883 1.952c-3.332.092-2.845 4.077-2.762 4.993.086.947-.344 5.075-.344 8.087s.259 12.56.259 12.905 0 .688.515.688c.518 0 4.304 0 5.077-.086s.946-.344.946-.774-.086-2.839-.086-5.507c0-2.666.172-12.473.172-13.506 0-1.205 0-2.924-.344-4.56-.44-2.087-1.796-2.172-3.098-2.236a4.538 4.538 0 0 0-.335-.004zm73.887.417c.49.002.902.124.47.558-.604.601-1.378 1.547-1.378 1.547s-3.356.344-4.473.344c-1.12 0-8.002.344-10.754.258-2.753-.084-8.948 0-10.067.086-1.12.086-2.58 0-2.924-.259-.344-.257-1.979 0-2.58 0-.604 0-1.12-.687-1.464-1.031-.345-.344-.086-.518.516-.603.602-.086 5.505-.258 6.624-.258s2.58.085 3.872.171c1.29.086 5.593.087 8-.085 2.41-.17 4.905-.43 6.97-.43 2.065 0 6.022-.172 6.624-.258.17-.024.372-.041.564-.04zm-146.89 2.17c.075 0 .155.007.243.02.77.12 5.077.259 6.798.259 1.72 0 5.075-.258 6.452-.172 1.376.085 6.193.346 7.398.172 1.204-.172 4.302.086 5.507.174 1.203.084 4.042-.175 5.333-.346 1.291-.172 2.839.258 2.495.775-.344.514-1.032 1.461-2.409 1.461-1.377 0-7.743.172-10.064.086-2.325-.086-10.926-.343-13.335-.258-2.41.086-4.733.086-5.85 0-1.12-.085-2.239-.687-2.84-1.031-.555-.319-.599-1.147.273-1.14zm129.97 2.335c3.401-.018 5.46 2.068 6.379 4.568.084-.86.341-3.182-1.636-4.301a336.52 336.52 0 0 1 7.57-.086c1.117 0 2.065.086 1.979 1.033-.086.946.086 4.817-.086 6.192-.172 1.378 0 6.281.086 7.4.086 1.12-.086 5.68-.086 6.023s-.172.947-.688 1.033c-.515.086-4.947.244-5.378.33-.43.086-.622 1.139-.622 1.742 0 .469-.247 7.784-.216 9.337.03 1.553-.282 2.485-2.709 2.548-1.886.047-8.4.27-9.146.26-.748-.011-1.52-.322-1.507-1.754.012-1.43.195-6.713.073-9.237-.123-2.524-.993-2.96-2.174-2.968-.518 0-4.388.084-5.164-.088-.774-.17-.945-.344-.945-1.117 0-.776.43-3.615.258-4.302s-.258-8.26-.172-8.947c.086-.69.172-7.14.172-7.14s6.797-.086 7.483-.172c.69-.088 1.206-.088.776.601-.432.688-.688 2.064-.776 3.699 1.378-1.98 2.404-4.474 6.195-4.646.113-.005.224-.008.333-.008zM74.005 77.814c.101 0 .203.002.305.007 1.636.086 3.357.344 4.646 2.151 1.566 2.195 1.291 3.01 1.549 4.903.516-1.719.607-4.257-.172-5.85-.329-.66-.258-1.032.602-.86.86.172 3.872.258 5.077.086 1.203-.172 1.72 0 2.235.086.518.086 1.033.086.861 1.378-.172 1.29.086 8.172.086 10.065 0 1.893-.172 6.883-.086 7.485.086.603.344 1.119-.947.945-.768-.1-3.806.238-4.75.112-1.346-.181-2.862.248-2.986.746-.355 1.419-.436 9.61-.436 11.077 0 1.99-.803 2.305-8.444 2.1-1.906-.051-3.747-.25-3.866-1.829-.12-1.578-.006-9.71-.092-10.399-.086-.688-.086-1.375-.86-1.633-.775-.258-4.978-.516-5.495-.516-.514 0-.772-.26-.858-.861-.088-.602.256-5.333.17-6.539-.084-1.205-.084-4.645.086-5.505.174-.862.088-3.184.088-4.045V78.25s2.58.344 3.956.344c1.377 0 2.239-.086 2.926-.172s1.29.086.774.776c-.516.687-1.461 3.182-1.29 5.505.516-2.667 1.635-4.732 2.667-5.42 1.265-.847 2.728-1.467 4.254-1.47zm113.49.518c-2.982.042-4.361 3.258-4.611 5.34-.258 2.15-.172 8.69-.172 9.636 0 .947-.086 3.268-.086 3.268s2.58 0 3.87.088c1.291.086 4.216-.346 4.82-.346.601 0 .859-.172.859-.688 0-.515-.086-1.72 0-4.13.088-2.408.174-7.743-.086-9.808-.258-2.063-2.068-3.235-4.302-3.354a4.312 4.312 0 0 0-.293-.006zM74.58 79.452c-.119-.003-.238-.001-.356.004-1.891.086-2.15.604-3.097 1.205-.947.602-1.205.946-1.634 2.838-.43 1.893-.258 6.023-.258 7.572 0 1.548 0 3.097.171 5.162 2.667.602 8.604.085 8.604.085s.344-7.311.258-11.699c-.081-4.113-1.9-5.128-3.688-5.167zm130.497 19.57h.042c.323.007.565.175.565.737 0 .947.172 8.43.086 9.722-.086 1.291.258 2.237-1.635 2.409-1.893.171-5.848.086-6.366.086-.516 0-.774 0-.86-.688-.086-.687.344-4.044.258-5.421-.086-1.377-.086-6.02-.086-6.02s3.182-.432 4.302-.432c1.119 0 2.408-.086 3.012-.258.23-.066.47-.131.682-.135zm-150.037.221s4.903.344 6.109.43c1.205.086 2.15.174 2.838.258.688.086 1.12.086 1.12.947 0 .862.257 3.872.086 4.904-.172 1.033.343 3.442.171 4.215-.172.776-.257 1.463-.171 1.98.086.515.516 1.205-.518 1.119-1.031-.086-7.828-.26-8.69-.518-.859-.258-.945-.773-1.03-1.29-.087-.515-.173-5.764-.087-6.453.086-.688.173-5.591.173-5.591zm29.308.448c1.21 0 2.872.03 3.813.112 1.507.128 4.947.214 5.549.128.604-.084 1.12.13 1.075.947-.042.818-.042 11.228-.042 11.872 0 .645.172 1.12-1.033 1.12-1.203 0-7.14.085-8.775-.087-1.634-.172-2.838-.257-2.838-.257s.171-12.606.129-13.163c-.044-.56.3-.604.688-.648.145-.015.708-.025 1.434-.024zm92.684.098c.397 0 .699.017.86.058 1.033.256 1.981 0 1.981 1.375 0 1.378-.172 9.12-.258 9.98-.086.86.086 1.376-1.463 1.29-1.55-.086-6.367.172-7.484.172-1.12 0-1.895-.086-1.98-.688-.087-.601.259-9.894.171-10.496-.086-.601.174-1.031.69-1.117.435-.073 5.341-.575 7.483-.574zm-26.215.428c.783 0 1.374.017 1.611.06.946.172 1.29.172 1.29 1.117 0 .947-.085 9.809-.085 10.325s.242 1.752-.86 1.203c-.69-.344-2.238.088-3.012.088h-6.711c-.946 0-1.548 0-1.634-.69-.086-.687.342-4.73.256-6.194-.084-1.463-.084-3.527-.17-4.474-.086-.945.256-1.29 1.462-1.29 1.423 0 5.502-.145 7.853-.145zm-30.7.463c.654 0 1.165.188 1.165.888 0 .86-.171 2.922-.171 5.16s.085 4.475.085 5.077c0 .601-.343.945-.945.945-.604 0-9.723 0-10.325.086-.601.086-1.29-.086-1.463-.86-.172-.773.172-3.268.087-5.075-.086-1.807-.172-4.474-.258-4.991-.086-.516.172-.688.773-.774.604-.086 3.872.086 5.85 0 1.98-.086 3.873-.343 4.732-.43.162-.015.32-.026.47-.026zm12.148 7.372c.135-.003.26.015.373.053.518.172 2.668 1.892 3.356 2.582.688.688 4.302 3.784 4.903 4.042.604.26 1.807.432 2.323.346.518-.086 6.796 0 8.947-.086 2.153-.088 12.477-.346 13.938-.346 1.463 0 16.261.086 17.55-.086 1.292-.172 4.648-.516 5.593-.344.948.172 8.088-.515 9.38-.601 1.289-.086 1.805.086 3.354-.086 1.549-.172 1.807 0 2.494 0 .69 0 1.378.601.774 1.203-.602.603-.688 1.205-2.667 1.291-1.977.086-4.127.172-7.14.516-3.01.344-9.55.69-12.217.69-2.665 0-11.356.344-15.486.43-4.13.085-22.971.085-22.971.085s2.925 3.182 3.786 4.473c.86 1.292 4.388 5.85 4.388 5.85l-.862-5.162c-.086-.515.346-.86.862-.947.515-.086 3.526-.17 4.215-.17.688 0 1.118.344 1.118 1.031 0 .69.172 3.872.172 3.872s.775-3.872 3.012-4.474c2.237-.601 3.354-.26 4.044-.171.689.086 2.236.343 2.752 1.634.516 1.29.947 2.238.947 2.238s.257-2.583.17-3.185c-.085-.602.174-1.203.862-1.29.69-.087 1.979-.345 2.924.345.948.687 1.206 2.236 1.206 2.236s0-1.463 1.29-2.236c2.925-1.55 4.99.687 4.99.687s.773-1.29 3.182-1.29c2.41 0 3.357 2.064 3.357 2.064l.43-2.15s3.613-.517 6.624-.775c3.012-.26 9.034-.43 10.066-.601 1.031-.172 1.721 0 1.721.86s.172 2.925.086 3.355c-.086.43.086.774-.43 1.204-.516.432-3.354 2.15-4.388 2.668-1.033.514-1.463 1.032-2.236 1.29-.774.257-2.151 1.548-3.528 1.978-.774.242-3.356 2.409-4.903 3.097-1.55.69-4.13 2.41-5.506 3.098-1.379.688-5.97 4.093-7.487 4.56-1.117.343-2.752 1.635-3.354 1.893-.366.157-3.105 1.777-5.455 3.118-1.524.861-2.881 1.617-3.322 1.787-1.117.43-4.473 2.063-5.075 2.063-.602 0-1.032-.258-1.204-.688-.073-.183-.27-1.48-.63-3.162h-.001c-.488-2.286-1.278-5.28-2.467-7.162-2.065-3.27-1.29-3.184-1.633-3.7-.344-.515-.775-1.634-1.12-1.892-.343-.258-.43-1.376-.773-1.807-.346-.43-1.206-1.118-1.463-1.548-.258-.431-.172-.69-.688-1.463-.517-.775-3.958-5.42-5.249-6.882-1.291-1.463-3.612-4.216-4.56-4.991-.945-.774-2.666-2.667-3.783-3.354-1.12-.69-1.981-1.291-2.497-1.723-.492-.408-1.14-1.365-1.945-1.38-.04 0-.08 0-.12.005-.86.086-2.752 1.291-3.44 1.807-.69.516-3.184 2.838-4.044 3.356-.861.515-2.236 1.893-3.012 2.58-.773.688-3.786 3.614-4.817 4.732-1.032 1.117-5.333 6.538-5.765 7.314-.43.773-2.752 4.041-3.87 6.538-1.03 2.293-2.348 7.133-2.754 9.569h-.002c-.035.215-.064.409-.084.583a73.366 73.366 0 0 1-.516 3.613l-.687.258s-3.96-1.893-5.765-2.752c-.847-.404-1.94-1.072-2.933-1.696-1.123-.7-2.123-1.351-2.488-1.488-.688-.258-1.29-.69-1.893-1.204-.602-.517-3.183-1.205-3.698-1.723-.516-.515-2.925-1.89-4.216-2.838-1.291-.946-5.679-3.096-6.798-4.043-1.118-.946-2.839-1.464-3.182-1.894-.344-.43-2.323-2.064-3.443-2.322-1.117-.258-.43-.688-.859-.86-.43-.173-2.065-.518-2.323-.861-.258-.344-2.753-1.721-3.614-2.237-.862-.516-3.958-2.666-3.958-2.666s0-3.873-.085-4.388c-.086-.516.601-.602 1.033-.602.43 0 5.765.172 6.624.256.86.086 7.226.604 8.173.69.946.086 3.097.085 3.097.085l.258 2.323s.69-1.547 1.72-1.807c1.032-.258 2.498-.687 4.733.688 3.098-1.633 3.097-1.032 3.785-.946.688.086 1.893-.171 2.58 2.753.432-1.633 1.12-2.235 1.98-2.235s2.666.086 2.666.086-.601 1.29-.601 2.58.173 2.065.173 2.065.946-3.097 1.977-3.613c1.034-.516 3.099-1.118 3.958-.86s2.409.084 2.927.516c.515.43 2.062 2.15 2.15 4.473.516-3.182-.26-4.302-.947-5.247 1.893-.174 3.268.342 4.043.342.774 0 1.55-.17 2.065-.17s1.032.256.69 1.031c-.346.776-1.463 5.68-1.463 5.68s2.924-4.217 3.784-5.25c.861-1.031 3.957-4.731 3.957-4.731s-2.752.515-3.526.257c-.775-.258-5.85-.171-7.83-.171-1.978 0-8.603.601-12.474.171-3.872-.43-7.744-.257-9.55-.43-1.806-.171-10.238-.687-12.13-.515-1.893.172-4.99-.086-6.71-.516-1.721-.431-4.562-.086-5.507-.086-.946 0-3.096-.603-3.614-.775-.516-.172-1.633-.344-2.065-.86-.43-.516.087-1.377.775-1.463.688-.086 4.646.516 6.367.43 1.72-.086 8.517.258 10.582.258 2.065 0 6.624.172 9.722.346 3.096.172 7.828-.26 9.721-.086 1.893.171 3.7.515 6.108.515s9.465-.258 11.786-.344c2.323-.086 13.078-.171 13.078-.171s4.56-3.615 5.505-4.302c.948-.69 2.152-1.463 2.927-1.979.605-.404 1.209-.65 1.69-.656zm-.165 5.612c.241.002.482.086.71.292.862.774 3.367 2.908 4.304 3.784 1.461 1.377 4.99 4.733 6.279 6.54 1.29 1.806 2.496 1.98 2.84 2.58.344.603 1.033 2.668 2.063 3.527 1.033.862.947 1.807 1.549 2.84.603 1.032 2.754 4.216 3.27 5.85.327 1.049 1.55 2.152 1.721 3.097.126.697.997 3.173 1.553 4.667.2.528.358.938.426 1.097.258.604.258 2.323.258 2.323s-1.461-.258-1.893-.258c-.43 0-.775-.086-.86-1.461-.014-.194-.255-.876-.57-1.706h-.002c-.439-1.166-1.02-2.614-1.32-3.414-.518-1.377-1.722-4.26-2.325-4.947-.602-.688-1.633-3.098-2.063-3.7-.432-.602-.774-1.979-1.463-2.495-.69-.516-1.635-2.065-2.065-2.667-.43-.603-.948-1.893-1.98-2.065-.57-.097-.946-1.119-1.462-1.635-.518-.515-1.205-2.15-1.807-2.752-.602-.604-1.891-1.463-2.409-2.065-.516-.603-1.72-1.12-2.15-1.807s-1.292-1.29-1.721-1.807a1.002 1.002 0 0 0-.761-.36c-.389-.008-.83.183-1.217.618-.69.776-2.41 1.807-2.926 2.152-.516.342-4.044 3.698-5.247 5.076-1.205 1.375-3.872 4.214-4.905 5.247a25.22 25.22 0 0 0-2.409 2.839c-.43.603-1.549 3.012-2.065 3.614-.516.601-1.635 3.184-2.15 4.301-.412.893-1.425 4.028-1.862 5.871-.112.469-.185.854-.203 1.098-.086 1.205-.43 3.184-.43 3.184s-.86-.086-1.461-.086c-.604 0-1.378.172-1.378.172s.066-2.164.338-4.366c.169-1.365.417-2.745.78-3.636.947-2.323 1.635-3.87 1.72-4.302.087-.43.774-.86.774-.86l.174-.515s1.542-3.448 2.065-3.872c1.375-1.118 1.977-3.442 2.666-4.301.688-.862 7.033-7.099 7.656-8.003.948-1.377 7.572-6.022 8.174-6.624.442-.441 1.116-1.07 1.784-1.066zm-50.756 9.055c-.551-.037-1.092.201-1.664.737-1.308 1.228.328 2.698.735 2.943.408.245.573.573.083.9-.49.326-1.39 2.043-.49 2.86.897.817 1.878 1.47 3.595-.245.818.573 2.043 1.636 3.514.326 1.472-1.307-.326-2.86-.736-3.35.9-.818 2.698-2.125 1.063-3.596-1.118-1.006-2.698.328-3.84.9-.828-.92-1.552-1.426-2.26-1.474zm102.32.442c-.977-.024-1.844.77-2.272 1.127-.491.41-.737.163-1.227-.325-.49-.49-2.6-.9-3.27-.165-1.633 1.798 1.472 3.515 1.472 3.515s-2.37 1.798-1.062 3.269c1.307 1.472 3.14.025 3.35-.326.123-.205.368-.205.49-.042.247.327 1.83 1.676 2.943.778 1.716-1.39.613-2.903.205-3.31-.41-.409-.45-.613-.122-.859.327-.246.407-.327 1.062-1.144.653-.818-.051-2.135-1.145-2.453a1.704 1.704 0 0 0-.424-.065zm-83.89.516c-1.633-.086-3.01 1.807-3.354 3.012-.345 1.204-.345 6.795-.258 7.399.086.601-.26.86-.26 1.72s0 6.993.087 7.938c.086.948.345 1.12.86 1.377.517.258 1.574.962 2.066 1.118.598.192 1.93.962 2.661 1.178.76.223 1.254-.608 1.254-1.211 0-.602-.044-3.793-.044-4.567s.344-1.703.257-5.66c-.084-3.959.087-6.539.087-8.776 0-2.236-1.72-3.442-3.355-3.528zm65.015.504c-.34-.009-.684.012-1.006.012-2.581 0-3.011 2.237-3.185 3.526-.17 1.292-.258 6.157-.278 7.708-.027 2.167.194 5.973.194 7.178 0 1.204.02 4.117.104 4.89.086.775.705.882 1.136.538.43-.344 2.802-1.3 3.234-1.644.43-.344.515-.43 1.203-.687.69-.258.775-.602.86-1.292.086-.687.171-5.419.171-7.57 0-2.15.174-7.657-.171-10.324-.258-2-1.242-2.306-2.262-2.335zm-32.36.958c-.322.003-.694.068-1.123.191-1.145.327-1.226 1.635-1.145 2.043.082.41.005.689-.533.654-1.302-.088-2.04.57-2.123 1.798s.607 1.917 1.798 1.798c.532-.046.777.24.735.695-.102 1.094.043 2.166 2.086 2.33 2.042.163 1.96-1.962 1.878-2.535-.08-.57.287-.459.817-.49 1.432-.08 2.08-.894 1.88-2.085-.174-1.031-1.593-1.624-2.165-1.551-.655.082-.858-.122-.532-.695.185-.318.164-1.063-.326-1.635-.307-.358-.708-.524-1.246-.518zm76.512.884c.18 0 .387.126.614.408.687.86 1.549 1.548 1.807 2.15.258.602 1.203 2.495 1.203 2.495s-2.408 1.463-3.27 2.065c-.86.601-3.526 2.494-4.214 2.752-.688.258-2.324.69-3.098 1.378-.775.687-6.108 3.785-6.796 4.3-.69.517-3.442 2.066-3.872 2.152-.43.086-1.979.945-2.666 1.46-.434.328-1.553 1.07-2.515 1.658-.563.335-1.072.625-1.357.753-.773.344-5.42 3.183-5.936 3.528-.518.344-1.55.259-1.98.688-.429.43-2.58 1.291-3.182 1.72-.603.431-3.528 2.152-4.043 2.324-.516.172-4.104 2.306-4.648 2.58-1.031.516-4.128 2.495-4.128 2.495l-.345-.43s.174-1.463.174-1.892.086-1.096 0-1.612c-.088-.516.086-.945.86-.945.773 0 4.73-.172 4.73-.172s.087-1.807 0-2.41c-.085-.602.173-1.118.86-1.204.69-.086 4.905-.086 5.421-.258.516-.172.947-.086.947-.688 0-.601.086-3.614.086-3.614s4.99-.172 5.591-.086c.543.077 1.02-.266 1.17-.777.015-.059.028-.113.035-.17.086-.602 0-1.487 0-1.915 0-.431 0-.346.516-.346s4.603-.188 5.335-.256c.86-.087 1.203-.26 1.29-1.119.085-.861 0-2.409 0-2.409s0-.603.43-.603 3.87-.688 5.334-.172c.909.323.69-.43.69-.774s.085-1.807.085-2.322.343-.862 1.118-.946c.774-.088 3.872.084 4.645-.088.776-.172 1.118-.258 1.118-.86v-2.754c0-.43.258-.774.947-.774.688 0 6.109-.343 6.109-.343s.172-2.581.258-3.7c.058-.751.31-1.27.678-1.268zm-152.268.321s.3 2.753.172 3.528c-.088.516.43.946.86.86.43-.086 5.679.172 5.679.172s.144 2.58.172 3.182c.042.99-.13 1.378 1.291 1.12 1.268-.23 4.041.086 4.56 0 .515-.086.945.085.945.603 0 .516 0 1.891.086 2.493.086.604.086.82.688.82.603 0 5.637.127 5.637.127s-.045 2.409.041 2.925c.086.515.172 1.29 1.464 1.29s4.043-.085 4.56-.085c.515 0 .775.258.859.775.086.514 0 1.634 0 2.15 0 .173-.01.365.02.543h.002c.06.352.271.631 1.011.575 1.118-.086 3.443-.085 4.13-.085s1.376.257 1.29.773c-.084.518-.084 1.198 0 1.886.086.687.516 1.12 1.205 1.033.688-.086 3.354.172 4.302.172.945 0 1.289.601 1.203 1.29-.086.689.346 2.925.346 2.925s3.354.087 4.216.087c.86 0 1.03.257 1.203 1.203.172.947.258 3.793.258 3.793s-4.216-2.323-5.161-2.924c-.948-.602-5.507-3.097-6.539-3.7-1.033-.602-5.507-3.7-6.453-4.13-.947-.43-3.011-1.463-3.011-1.463s-.603-.602-1.032-.86c-.43-.258-.86-.086-1.291-.344a2.265 2.265 0 0 1-.3-.232c-.507-.44-1.308-1.28-1.937-1.489-.774-.257-3.269-1.635-4.13-1.978-.86-.344-3.44-2.237-3.44-2.237s-.344 0-.774-.258c-.432-.258-1.291-1.033-2.067-1.377-.774-.344-3.87-2.15-4.386-2.58-.517-.43-2.925-2.238-4.217-2.583-1.29-.344-1.031-1.118-1.633-1.461-.604-.344-2.582-1.721-2.926-1.98-.344-.257-.516-.343-.173-.773.344-.431 3.27-3.786 3.27-3.786zm32.09 5.741c-1.892 1.721-4.301.602-4.731.344-.43-.258-.43-.516-1.205-.086-.774.43-2.063 1.12-4.216-.172.432.86.432 1.72 1.979 2.15 1.549.43 2.322-.6 2.668-.6.344 0 .516.687 2.409.687s2.323-1.206 3.096-2.323zm92.229.343c-.344 0-.774.602-1.893.86-1.118.26-2.237-.258-2.667-.516-.43-.257-.667-.038-.257.432.301.344.724 1.204 2.194 1.462 2.182.387 2.88-.602 2.88-.602s1.442.913 2.667.646c1.98-.43 2.15-2.11 2.15-2.11s-1.46.818-2.666.646c-1.205-.172-2.065-.818-2.409-.818zm-124.575 3.035s3.44 1.98 4.302 2.409c.86.43 3.01 1.72 3.698 2.237.69.517 3.7 2.236 4.474 2.754.775.516 2.15.774 2.84 1.376.687.603 2.15 1.635 2.667 1.807.418.139 1.18.62 1.45.795.063.04.099.065.099.065s-3.786 0-4.991.087c-1.206.086-12.01.502-12.44.502-.43 0-.602 0-.602.518 0 .516.06.353.662.44.602.085 3.949.347 4.982.26 1.032-.085 3.096.087 3.096.087s.344 8.085.344 8.602c0 .516.086.86-.515.946-.602.086-7.484.344-7.916.43-.43.088-.386.69-.344.862.214.43 1.721.344 2.58.258.862-.086 5.078 0 6.023 0 .946 0 4.474-.086 5.163-.258.688-.172 1.548-.172 1.462.687-.086.86 0 6.71-.086 7.312-.086.604.431 1.377-.688 1.205-.699-.106-4.13-.43-5.075-.344-.948.086-5.163.602-6.282.602-1.118 0-2.142 0-2.572.172-.431.172-.333.673.126.732.444.055 1.586.044 2.19.214.6.173 3.533.32 4.308.234.774-.086 1.884.197 1.884.197s-.172 9.12-.172 9.465c0 .342 0 .774-.602.774-.601 0-8.345.17-9.119.17s-.945 0-1.033-.516c-.086-.516 0-5.937.088-6.882.086-.946.172-6.45.086-7.83-.086-1.375-.174-5.59-.26-6.538-.086-.946.174-4.042.174-4.99 0-.945.086-5.936-.088-6.71a4.562 4.562 0 0 1-.066-.757c-.036-1.21.086-3.23.154-3.974.085-.947 0-7.4 0-7.4zm151.075.776s.43 1.719.343 3.096c-.086 1.377.258 3.958.173 5.593a63.202 63.202 0 0 0-.06 1.906l.001.007c-.036 1.752-.053 3.89-.113 4.797-.088 1.29 0 2.925.086 4.044.086 1.118-.086 3.786-.086 5.419 0 1.635.086 11.615.086 12.389 0 .775.171 2.925.086 3.786-.086.86 0 2.323 0 2.752s-.172 1.204-.862.776c-.687-.432-1.807 0-2.58-.086-.774-.086-7.4-.086-7.4-.086l-.172-9.723s4.216-.515 5.679-.43c1.463.087 3.416-.219 3.416-.219v-1.077s-3.158-.253-4.535-.339c-1.375-.085-5.591-.171-7.14-.171-1.548 0-2.237-.087-2.753.085-.515.172-.688.087-.688-.689 0-.773-.26-7.398-.343-7.742-.088-.344.084-.687.43-.687.343 0 5.076.086 6.452.172 1.375.086 6.242-.008 6.846-.008.601 0 1.433.06 1.433.06v-.837s-2.43-.077-3.16-.207c-.732-.128-2.624-.557-3.27-.515-.645.044-.904 0-1.247 0s-.818-.172-.818-.688.216-8.775.216-8.775 4.775 0 5.848-.13c1.076-.128 2.431-.26 2.431-.26l.06-.895s-6.49-.533-8.383-.478c-2 .057-2.747-.113-3.237-.234-.25-.059-.432-.112-.677-.112-.274 0-.46.057-.71.108-.419.079-1.027.172-2.558.064a.837.837 0 0 1-.298-.06c-.137-.066-.085-.192.212-.37.43-.257 2.838-1.978 4.387-2.494 1.549-.516 3.182-1.893 3.957-2.323.774-.43 2.839-2.065 3.699-2.323.861-.258 5.249-3.096 5.249-3.096zm-70.721.17c.861.432 1.377.69 2.41 1.206s2.667 2.752 3.613 4.043c.947 1.291 1.722 4.044 2.066 4.99.344.947.43 2.236.43 2.236l1.29.086s-.344-.86-.344-1.633c0-.775-.344-1.464-1.118-4.216-.776-2.754-2.41-3.872-3.098-4.561-.688-.688-1.29-.86-1.893-1.032-.601-.171-.774-.43-1.203-.773-.43-.346-.862-.174-2.153-.346zm-7.914.001c-3.354.258-6.452 2.753-8.689 5.247-1.425 1.593-2.462 5.879-2.667 6.625-.258.947-.086 1.205.344.947.43-.258 1.291-.601 1.376-1.463.085-.86 2.066-5.419 3.613-7.312 1.55-1.893 2.925-2.754 6.023-4.043zm3.526 2.495c-2.752 0-3.913.474-5.333 1.205-1.419.732-3.442 3.097-4.301 4.516-.86 1.421-1.461 4.085-1.461 4.689 0 .602 0 .86-.69 1.205-.688.344-1.979.774-3.356 1.722-1.375.945-3.354 3.784-3.784 5.247-.432 1.463-1.033 5.505-.861 6.624s.43 7.226.344 9.808c-.086 2.581-.173 7.055-.173 8.518s.087 4.903-.085 6.796c-.172 1.893-.258 5.075-.258 5.075l3.098-.601s-.26-6.023-.086-6.755c.171-.73.172-3.913.172-3.913s4.387-.086 5.247-.172c.861-.086 1.59 0 1.979.388.387.386.13 1.419-.087 2.02-.215.602-.989 1.334-2.538 1.034.818.773 1.248.774 2.497.602 1.245-.174 1.89-1.55 2.106-2.583.214-1.032-.171-1.977-.171-1.977l2.838-1.12-2.708-.429s.127-1.033.041-2.28c-.086-1.246-1.59-2.537-3.01-2.451-1.419.086-2.022 1.375-2.022 1.375s1.031-.43 1.807-.472c.773-.044 1.462 1.032 1.548 1.805.086.776-.689 1.851-1.849 2.153-1.163.3-4.776.086-5.206.086-.43 0-.602-.086-.644-.346-.044-.258.086-4.817.256-7.14.174-2.323-.084-7.7-.084-8.046 0-.343 0-.643.643-.687.646-.042 5.292 0 5.594.044.3.042.903.172 1.075.43.172.257.086 1.463-.086 1.807-.172.343-.388 1.333-2.667 1.505.688.474 1.677.86 3.226.172 1.55-.688 1.42-3.312 1.334-4.344.817-.216 3.182-1.12 3.182-1.12s-1.849-.13-2.495-.213c-.643-.088-.773-.43-.515-1.291.258-.862-.43-2.151-.862-2.839-.43-.69-2.838-1.635-4.127.602.945-.688 2.58-.172 3.096.86.515 1.033-.43 2.064-1.55 2.324-1.117.256-5.764.084-5.764.084s.432-3.44.603-4.043c.172-.602.946-2.839 1.98-3.613 1.03-.775 3.182-1.205 3.785-1.377.602-.172 1.633.172 1.547-1.979-.106-2.666 1.098-6.485 2.583-7.742 2.237-1.892 4.99-2.152 4.99-2.152s0 6.712-.087 7.486c-.086.773 0 1.893.086 3.096.086 1.206-.257 3.7-.257 5.25 0 1.548.085 3.785.085 5.59 0 1.807-.085 5.593-.085 8.434 0 2.838 0 7.655.085 9.033.086 1.377.086 4.301.086 4.301s.086 1.721-.086 2.495c-.172.773 0 7.14 0 7.14l1.807 1.033s.086-5.205.128-6.452c.044-1.248-.343-4.947-.172-7.916.172-2.968 0-10.54.13-12.43.128-1.894-.258-8.003-.13-9.638.13-1.635.086-3.913.044-4.687-.044-.776.172-1.163.128-3.658-.042-2.495.258-6.924.258-9.077 2.28-.258 4.044.775 5.335 2.023 1.29 1.247 2.065 5.12 2.323 6.108.258.99-.044 2.451.172 3.01.214.56.344.69.602.733.258.043.69.085 1.978.387 1.292.3 2.411.945 3.528 2.624 1.12 1.677.99 6.107.99 6.107s-4.43-.086-4.903-.128c-.474-.042-1.508.172-2.067-.302-.558-.473-.3-2.236.086-2.538.388-.3.604-1.074 2.626-.43-1.549-1.461-3.012-1.247-4.217-.3-1.204.946-.818 2.709-.818 3.054 0 .344.13.516-.214.774s-2.539.472-2.539.472 1.764.775 2.325.947c.558.172.73.264.644.776-.3 1.763.371 3.354 1.72 3.828 1.85.645 2.324 0 2.753-.43-1.203.3-1.892-.302-2.58-1.161-.687-.862-.216-2.11.645-2.497.862-.388 6.495-.042 6.495-.042v8.26c0 2.708-.128 6.408-.214 7.527-.69.344-5.25.43-6.28.172-1.034-.258-1.12-2.323-.69-2.838.432-.518.948-1.206 2.84-.69-1.419-1.677-3.012-1.031-4.043-.172-1.032.862-.861 2.581-.688 2.927.172.342-.087.945-.689 1.031-.602.086-1.204.172-2.065.172.861.603 1.377 1.075 2.238 1.075.86 0 .628.468.602.646-.044.258-.442 1.666.172 2.58 1.317 1.965 3.098 1.85 4.258.904-1.893.344-2.28-.645-2.797-1.333-.515-.688.087-1.98.776-2.323.688-.344 5.42-.086 5.935 0 .517.086.69.344.603.687-.085.346-.172 2.669-.172 4.474 0 1.807.172 4.905.172 4.905h2.667s.086-11.012.258-12.563c.172-1.547 0-8.86 0-10.58 0-1.72-.172-4.56-.086-6.626.086-2.063-.258-4.731-.774-6.538-.518-1.805-2.58-3.355-3.871-4.472-1.292-1.12-2.581-1.206-2.581-1.206s-.346-1.377-.516-2.754c-.172-1.375-1.72-5.075-3.356-6.882-1.635-1.806-4.21-2.409-7.4-2.409zm55.47 9.654h.093c.113.002.221.01.318.025 1.635.258 5.075 0 6.41.044.515.014.86.17.86.86 0 .687.085 7.397.085 7.827 0 .432-.086.861-.517.774-.428-.084-5.161.088-6.021-.084-.861-.172-4.13-.173-4.13-.173s.086-2.926-.172-4.13c-.13-.597.457-2.732.172-3.096-.43-.56-.344-.775.172-1.033.516-.258.946-.603 1.377-.775.328-.13.88-.233 1.352-.24zm-116.859.127c2.682-.002 7.421.055 7.75.028.515-.044.643.17.557.601-.07.339.258 5.291.172 6.153-.086.86-.172 2.279-.172 2.279s-4.043.258-5.505.43c-.941.113-4.217-.086-4.647-.086-.43 0-.516-.172-.516-.516 0-.344.086-7.093.086-7.958 0-.69.044-.861.518-.903.197-.02.863-.027 1.757-.028zm10.562 1.478a.684.684 0 0 1 .24.055c.344.128 2.237 1.247 2.882 1.547.646.302.774.646 1.034.82.258.17.86.128 1.117.472s1.893 1.375 2.624 1.762c.732.388 3.958 2.153 4.302 2.453.344.302.904.732-.044.646-.945-.086-4.343-.216-5.29-.086-.946.13-3.785.258-4.776.044-.988-.216-2.493-.088-2.493-.088s.042-2.065.172-3.183c.128-1.119.086-3.484.042-3.957-.03-.34.028-.48.19-.485zm101.673.485s.258.388.216.818c-.044.43-.302 1.375-.388 2.02-.086.646.172.99.13 1.807-.044.818.086 2.41.086 2.41s-4.56.259-5.593.3c-1.033.043-3.182 0-3.614-.041-.43-.044-.688-.388-1.42-.26-.73.13-2.15-.086-2.15-.086s2.195-1.203 2.883-1.807c.687-.602 2.064-1.161 3.01-1.377.947-.214.903-.644 2.453-1.417 1.549-.776 4.387-2.367 4.387-2.367zm-26.429.906c.378.001.72.03.963.083.773.172 1.892 1.032 1.548 2.495-.345 1.463-.947 2.237-2.668 2.323-1.72.086-2.434-.253-2.839-.86-.687-1.033 0-3.184.69-3.614.473-.295 1.475-.428 2.306-.427zm-50.14 1.364c.06 0 .116.003.17.008.86.088 1.86.545 2.58 1.463.604.776.69 3.013-.601 3.357-1.291.343-2.925.343-3.7-.516-.774-.862-1.248-.867-1.032-2.41.18-1.3 1.686-1.902 2.582-1.902zm76.178 6.463c1.463 0 5.335.128 5.637.258.3.128.644.042.602.558-.044.516.042 5.377 0 6.238-.044.86-.13 1.592-.044 1.85.086.257.388.56-.13.689-.514.128-4.687-.13-5.935-.044-1.247.086-4.517.044-4.517.044l-.042-9.38s2.966-.213 4.43-.213zm-101.51.185c1.997 0 4.465.073 4.465.073l.086 9.376s-1.979-.086-3.484 0c-1.507.086-6.152-.042-6.624 0-.474.044-.69-.215-.69-.645 0-.43-.042-4.43 0-5.377.044-.946.086-3.182.086-3.182s2.625-.13 4.432-.216a39.389 39.389 0 0 1 1.73-.03zm10.564.035c.901 0 1.7.011 2.117.038 1.333.086 2.752.042 3.184.042.43 0 .472.257.472.515 0 .26.13 8.218.172 8.518.044.301-.128.302-.344.346-.214.042-4.775-.13-6.367 0-1.59.128-3.741.084-3.741.084l.042-9.505s2.48-.04 4.465-.038zm84.924.038.044 9.463s-3.313.172-4.56.128c-1.247-.042-2.239-.386-3.183-.3-.947.086-2.108.258-2.366.258-.26 0-.388-.258-.388-.474 0-.214.258-7.656.258-8.001 0-.342.172-.73.172-.73s2.495-.258 3.572-.302c1.073-.042 3.182.13 4.044.258.86.13 1.289-.214 1.677-.258.386-.042.73-.042.73-.042zm-77.394 1.13c.087-.001.22.047.394.117.43.172 2.624 1.591 2.796 1.893.172.3.258.602.216 1.162-.044.56.172 3.611.3 4.171.13.56.216.862-.386.948-.603.084-2.624.128-2.926.084-.3-.042-.388-.3-.388-.73s.044-6.71-.086-7.228c-.076-.306-.046-.415.08-.417zm65.263.245s0 1.937-.041 2.841c-.044.903.17 4.3.214 4.645.042.344-.13.602-.43.602-.302 0-2.636.123-3.237.123-.602 0-.688-.3-.602-.904.086-.602 0-2.237 0-2.753s.044-1.161-.042-1.59c-.086-.432 0-.776.341-.948a598.44 598.44 0 0 0 3.797-2.016zm-90.628 9.674c.092 0 .177.002.252.005 1.204.044 3.726.313 4.172.26.731-.086.861.084.817.516-.042.43.302 7.528.13 7.957-.172.43-.345.818-.345 1.032a.43.43 0 0 1-.428.432c-.26 0-3.185-.13-3.916-.172-.732-.044-.99.342-1.292.342-.3 0-.601-.17-.945-.214-.344-.042-3.656 0-3.656 0s-.174-5.291-.044-5.765c.13-.474.216-3.396.172-3.656-.042-.258-.128-.516.26-.516.362 0 3.446-.226 4.824-.22zm107.966.093c.3 0 .774.042.73.386-.042.344.171 2.023.171 3.01 0 .991-.043 5.12-.043 5.463 0 .346-.386.878-1.074.818-1.893-.172-3.486.301-4.216.345-.731.042-2.408-.216-2.924-.172-.517.042-1.162-.215-1.463-.173-.302.043-.602.085-.646-.472-.042-.56-.172-3.098-.43-4.302-.258-1.205-.043-2.882-.085-3.528-.044-.646.56-1.033 1.031-1.033.474 0 2.582-.128 3.184-.214.602-.086 5.463-.128 5.765-.128zm8.088 0c1.375 0 5.117.256 5.117.256s.044 3.442.13 4.603c.086 1.162.085 4.904.085 4.904s-4.517 0-5.592-.042c-1.076-.044-2.495-.086-3.398-.13-.904-.042-1.634-.086-1.678-1.032-.042-.945-.172-5.764-.042-6.194.128-.43.256-.99.214-1.292-.042-.3 0-.86 0-.86s3.784-.213 5.163-.213zm-103.915.026c.758 0 2.17.048 2.781.145.818.128 1.636 0 1.851.214.214.216.558-.086.73.044.172.128.732.474.69.99-.044.516-.086 3.871-.302 4.56-.216.687-.302 3.999-.302 3.999s-2.323.386-3.568.26c-1.25-.13-1.98-.174-2.41-.174s-2.626-.042-3.27.088c-.645.126-1.118.086-1.032-.604.086-.687.086-4.301.044-5.119-.044-.817-.044-2.365.086-2.71.128-.344.042-1.032 0-1.334-.044-.3.085-.3.471-.344.388-.042 2.71 0 2.969.173.257.171.56-.129.775-.173a4.23 4.23 0 0 1 .486-.015zm9.483.273c.522 0 1.086.018 1.49.076.836.119 2.323.076 3.227.118.903.044 2.749.12 2.749.12s.287 3.774.244 4.805c-.043 1.034-.173 2.667-.173 3.099 0 .43-.214.644-.644.73-.432.087-2.237.343-3.958.559-1.286.163-2.58.172-3.226.258-.646.088-1.807-.042-1.807-.042s.042-3.226 0-4.304c-.044-1.073-.044-3.955.128-4.557.172-.604.26-.776.732-.818a16.07 16.07 0 0 1 1.238-.044zm73.916.05c.534-.001.64.111.77.467.172.473.43 1.119.344 1.72-.086.602-.044 6.97-.044 6.97s-2.45-.087-3.182.043c-.549.095-.604.267-1.378.258-.607-.011-1.033-.56-3.182-.43-1.598.095-2.692-.174-2.692-.52 0-.343-.216-2.666-.216-3.44 0-.775.258-2.238.216-2.84-.044-.602 0-1.461 0-1.461s3.852.044 4.927-.17c1.077-.216 2.927-.501 3.744-.56.29-.021.515-.035.693-.035z"/>
    <path d="M201.382 204.735c-1.12 1.206-6.293 7.294-9.521 9.147-1.802-.9-4.346-2.105-6.136-2.85-1.35-.56-3.347-2.108-4.692-2.564-5.735-1.942-10.768-1.82-16.427-1.161.302-1.461 1.334-4.13 3.656-6.02 2.334-1.905 6.53-4.84 8.852-5.698 2.323-.862 6.393-2.24 8.028-2.24s3.996-.187 5.973-.187c1.979 0 4.527.03 6.16.373 1.635.344 4.527.516 6.162 1.12 1.635.601 5.314 1.05 6.346 1.307-1.29 1.633-3.362 4.022-4.48 5.227zm-30.055 19.79c-2.427-3.921-9.265-7.707-10.607-8.024-1.341-.316-6.786-3.754-7.773-3.493 1.038-.274 3.96-1.14 6.11-1.743 2.15-.602 5.765-1.375 6.968-1.461 1.206-.086 3.7-.086 5.851-.086 2.15 0 5.765.43 6.539.687.773.258 3.356.86 4.043 1.292.688.43 2.237 1.161 2.795 1.635.561.472 2.932 1.501 3.062 2.79-5.346 4.32-12.594 7.17-16.987 8.403m-33.853 8.649c-.88-2.025-2.024-6.57-5.102-9.521-4.306-4.126-6.908-5.974-9.493-7.212.904-1.53 6.109-3.491 10.239-3.491s10.672.384 13.254 1.245c2.581.86 5.34.829 6.285 1.43.947.604 3.946 1.6 4.978 2.117 1.033.517 5.22 3.246 6.597 4.107 1.375.86 4.605 4.48 4.605 4.48-6.721 2.613-21.128 6.788-31.362 6.845m-31.487-3.704c-2.367-.69-5.229-1.423-7.654-2.331-2.12-.796-4.048-2.03-6.069-2.896-7.485-3.2-11.666-5.227-15.213-7.934 2.32-1.209 5.364-2.783 7.756-3.237 5.34-1.01 11.27-1.893 16.088-1.12 4.82.776 9.809 2.153 12.391 3.185 2.581 1.033 7.828 4.13 9.206 4.991 1.375.86 7.469 5.381 8.758 7.446 1.292 2.063 1.992 5.818 1.992 5.818s-5.267-.165-11.293-.653c-4.926-.4-10.524-1.676-15.961-3.268M54.185 196.8s8.08-1.493 10.92-1.493c2.839 0 8.282-.18 10.175-.094 1.891.086 5.05.08 6.253-.093 1.205-.172 4.11-.07 5.227.187 1.12.26 6.967 1.702 7.654 1.96.688.258 2.356 1.868 2.356 1.868s-9.626 7.977-10.103 9.146c-1.476.606-8.705 2.937-10.458 4.454-1.582 1.053-2.143 2.267-5.69-.253-1.2-.861-16.334-15.681-16.334-15.681m47.697 2.706c.601-.172 1.732-1.128 2.333-1.212.602-.088 2.288-.706 5.04-1.308 2.754-.602 3.485-.869 4.948-1.212 1.463-.346 6.069-.727 7.186-.469 1.12.258 5.044.167 7.281 1.028 2.237.86 4.483 2.714 5.6 3.92 1.12 1.205 4.12 6.108 5.789 10.36-6.721-.839-12.508-1.118-21.512 3.057-1.95-1.3-12.144-3.497-14.685-3.93-2.54-.432-14.581-.619-14.581-.619s5.417-5.243 7.654-6.534c2.237-1.292 4.947-3.08 4.947-3.08m46.422-4.046c3.905-.249 5.78.428 7.155.686 1.377.258 7.557 2.125 9.534 4.364-1.117 1.203-1.884 5.172-2.315 6.463-.203.604-10.839 3.528-13.068 4.73-2.54-.728-6.736-.607-7.188-.81-.457-1.996-1.331-4.077-2.332-6.222-1.31-2.804-2.66-6.553-3.689-6.171 1.805-.675 7.998-2.79 11.903-3.04m65.129-2.178c-1.463-.086-5.25-.604-6.884-1.032-1.635-.43-6.109-.775-8-1.033-1.895-.258-3.528-.688-5.679-.947-2.152-.258-6.366.345-7.915.69-1.55.343-5.593 1.117-9.12 2.322-3.526 1.203-8.173 4.044-8.173 4.044s-4.388-2.669-8.775-4.044c-2.572-.807-6.54-.774-9.033-.86-2.497-.086-5.68.944-8.26 1.548-2.58.601-7.314 1.807-7.314 1.807s-1.633-.948-2.838-1.55-4.302-1.031-5.68-1.203c-1.375-.172-3.957-.516-6.538-.346-2.58.174-9.119 1.723-11.87 2.237-2.755.518-6.497 2.35-6.497 2.35s-1.215-.932-2.043-1.38c-1.438-.774-3.85-1.314-5.743-1.657s-7.916-1.204-11.012-1.55c-3.098-.342-15.315.518-19.273.688-3.956.174-13.969.85-13.969.85s9.926 12.23 13.022 15.153c3.099 2.927 6.885 5.68 8.432 7.226 1.549 1.55 11.701 7.486 14.884 8.777 3.184 1.292 12.303 5.506 18.67 7.314 6.366 1.806 16.776 3.527 22.11 3.784 5.334.26 14.454-.085 18.843-.687 4.386-.602 11.182-1.893 15.741-3.184 4.56-1.29 10.757-3.872 17.639-7.055 6.882-3.182 11.616-6.71 16.176-9.978 4.56-3.27 9.033-7.83 10.408-9.207 1.377-1.377 5.936-6.625 6.798-7.658.86-1.032 4.302-5.42 4.302-5.42s-.948.085-2.409 0" fill="#fff"/>
</svg>
