<svg xmlns="http://www.w3.org/2000/svg" xml:space="preserve" viewBox="30.5 31.5 400 500" height="500" width="400">
    <path style="fill:#32ac60" d="M230.44 531.14C156.12 477.22 105.18 409.12 74.7 322.98c-27.64-78.1-38.73-172.75-33.91-289.35l.02-.46h379.82l.02.46c4.81 116.6-6.28 211.24-33.91 289.35-30.48 86.14-81.42 154.24-155.74 208.16l-.28.2-.28-.2z"/>
    <path style="fill:#ffe000;fill-opacity:1;fill-rule:evenodd;stroke:#000;stroke-width:1;stroke-linecap:butt;stroke-linejoin:round;stroke-miterlimit:4;stroke-dasharray:none;stroke-opacity:1" d="m222.119 476.898-15.816-22.474 12.588-49.457-9.046.076-10.204 40.04h-4.886l-15.627-42.267 19.427-46.959h-8.638l-16.445 39.927h-5.647l-12.129-43.002 29.177-52.212h-10.12l-22.564 40.378h-5.538l-3.722-46.413 36.624-46.665h-10.081l-28.119 35.482-4.8.154 3.612-46.097 45.11-43.722-10.95-.072-33.863 32.449h-4.018l8.02-44.245 52.68-37.694h-14.186l-37.284 27.103h-4.018l17.746-42.801 52.203-39.29-12.816-.124-33.027 24.297h-4.496l31.743-45.456 30.738-.16v-12.87h13.506v12.87l30.738.16 31.743 45.456h-4.496L262.21 89.013l-12.816.123 52.203 39.29 17.746 42.802h-4.018l-37.284-27.103h-14.186l52.68 37.694 8.02 44.245h-4.018l-33.864-32.45-10.948.073 45.11 43.722 3.611 46.097-4.8-.154-28.119-35.482h-10.08l36.623 46.665-3.722 46.413h-5.538l-22.564-40.378h-10.12l29.177 52.212-12.13 43.002h-5.646l-16.445-39.927h-8.638l19.427 46.959-15.627 42.266h-4.886l-10.204-40.039-9.046-.076 12.588 49.457-15.816 22.474H222.12z"/>
    <path d="M419.96 33.21c9.07 219.45-36.26 385.95-189.46 497.1C77.31 419.16 31.99 252.66 41.06 33.21h378.9m.92-.95H40.14l-.04.92c-4.82 116.66 6.28 211.36 33.93 289.52 30.51 86.24 81.51 154.41 155.91 208.39l.56.41.56-.41c74.4-53.98 125.4-122.15 155.91-208.39 27.65-78.16 38.75-172.86 33.93-289.52l-.04-.92z"/>
</svg>
