<svg xmlns="http://www.w3.org/2000/svg" width="400" height="500" viewBox="30.5 31.5 400 500" xml:space="preserve">
    <path d="M230.44 531.14C156.12 477.22 105.18 409.12 74.7 322.98c-27.64-78.1-38.73-172.75-33.91-289.35l.02-.46h379.82l.02.46c4.81 116.6-6.28 211.24-33.91 289.35-30.48 86.14-81.42 154.24-155.74 208.16l-.28.2-.28-.2z" fill="#e00e00"/>
    <path d="M230.5 530.74c57.48-75.21 51.83-222.77 0-297 65.58 0 129.35 51.17 152.44 98.13-36.89 98.95-98.68 159.85-152.44 198.87ZM230.5 233.74c0 44.73-59.06 140.34-116.75 171.92-23.5-40.83-40.39-78.21-54.22-133.38 59.18 6.92 139.63-14.01 170.97-38.54Z" style="fill-rule:evenodd;fill:#fff"/>
    <path d="M230.5 233.74C163.22 219.98 57.12 154.97 41.06 33.21l157.3-.27c-16.7 76.29 8.64 162.88 32.14 200.8Z" style="fill-rule:evenodd;fill:#fff"/>
    <path d="M230.5 233.74c39.34-32.49 112.36-59.78 185.67-45.4 4.63-49.36 6.4-100.88 4.46-155.17-80.61 19-164.47 90.96-190.13 200.57Z" style="fill-rule:evenodd;fill:#fff"/>
    <path d="M59.53 272.28c59.18 6.92 139.63-14.01 170.97-38.54 0 44.73-59.06 140.34-116.75 171.92" style="fill:none;stroke:#000"/>
    <path d="M198.36 32.94c-16.7 76.29 8.64 162.88 32.14 200.8-67.28-13.76-173.38-78.77-189.44-200.53M420.63 33.17c-80.61 19-164.47 90.96-190.13 200.57 39.34-32.49 112.36-59.78 185.67-45.4M230.5 530.74c57.48-75.21 51.83-222.77 0-297 65.58 0 129.35 51.17 152.44 98.13" style="fill:none;stroke:#000"/>
    <path d="M419.96 33.21c9.07 219.45-36.26 385.95-189.46 497.1C77.31 419.16 31.99 252.66 41.06 33.21h378.9m.92-.95H40.14l-.04.92c-4.82 116.66 6.28 211.36 33.93 289.52 30.51 86.24 81.51 154.41 155.91 208.39l.56.41.56-.41c74.4-53.98 125.4-122.15 155.91-208.39 27.65-78.16 38.75-172.86 33.93-289.52l-.04-.92z"/>
</svg>
