<svg xmlns="http://www.w3.org/2000/svg" xml:space="preserve" viewBox="30.5 31.5 400 500" height="500" width="400">
    <path style="fill:#ffe000;fill-rule:evenodd;stroke:#000;stroke-width:1px;stroke-linecap:butt;stroke-linejoin:miter;stroke-opacity:1;fill-opacity:1" d="M419.5 33v380.9l-189 116.85-189-116.85V33h378z"/>
    <path d="m181.068 417.372-8.893-14.667 28.24-14.51c-13.738-3.21-26.126-8.493-39.318-15.604l-50.71-1.56v-16.695l29.021 1.248c-11.454-10.3-18.778-21.4-25.744-32.61l-42.128-28.085 8.737-12.795 22.202 15.208c-4.152-14.706-5.66-28.435-5.864-42.882l-22.267-45.816 13.107-7.333 12.482 25.57c3.695-13.412 8.704-26.09 16.851-40.393l2.497-50.241 15.759.468-1.093 28.241c9.28-9.436 19.535-17.505 30.894-24.028l29.022-44.78L207.28 105l-15.759 24.653c11.175-3.222 25.083-5.916 38.978-5.881L279.932 97.9l8.893 14.667-28.24 14.51c13.738 3.21 26.126 8.493 39.318 15.603l50.71 1.56v16.696l-29.021-1.248c11.454 10.3 18.778 21.4 25.744 32.61l42.128 28.085-8.737 12.794-22.202-15.207c4.152 14.706 5.66 28.435 5.864 42.881l22.267 45.816-13.107 7.334-12.482-25.57c-3.695 13.412-8.704 26.09-16.851 40.392l-2.497 50.242-15.759-.468 1.093-28.242c-9.28 9.436-19.535 17.506-30.894 24.029l-29.022 44.78-13.418-8.893 15.759-24.653c-11.175 3.222-25.083 5.915-38.978 5.881Z" style="fill:#e00e00;fill-rule:evenodd;stroke:#000;stroke-width:1px;stroke-linecap:round;stroke-linejoin:round;stroke-opacity:1;fill-opacity:1"/>
    <path d="m247.5 257.5-17-17-17 17 17 17zM191.802 249.5l-40.043-24c-4.15 9.509-6.524 24-6.257 32.092-.267 8.092 2.108 22.583 6.257 32.092l40.043-24c-1.068-4.083-1.11-12.152 0-16.184zM219.344 219.63l.383-46.34c-13.187 1.626-24.405 6.489-31.45 10.478-7.046 3.99-18.062 12.41-24.403 21.146l39.622 23.903c3.468-4.044 11.793-8.166 15.848-9.188zM219.296 295.536l.383 46.34c-13.188-1.627-24.405-6.49-31.45-10.479-7.046-3.989-18.063-12.409-24.403-21.146l39.62-23.903c2.918 3.603 11.795 8.166 15.85 9.188zM269.198 265.773l40.043 24c4.15-9.51 6.524-24 6.257-32.092.267-8.092-2.108-22.584-6.257-32.092l-40.043 24c1.068 4.083 1.11 12.152 0 16.184zM241.656 295.643l-.383 46.34c13.187-1.627 24.405-6.49 31.45-10.479 7.046-3.989 18.062-12.409 24.403-21.146l-39.622-23.902c-3.468 4.043-11.793 8.166-15.848 9.187zM241.704 219.737l-.383-46.34c13.188 1.627 24.405 6.49 31.45 10.478 7.046 3.99 18.063 12.41 24.403 21.146l-39.62 23.903c-2.918-3.602-11.795-8.166-15.85-9.187z" style="fill:#ffe000;fill-rule:evenodd;stroke:#000;stroke-width:1px;stroke-linecap:butt;stroke-linejoin:miter;stroke-opacity:1;fill-opacity:1"/>
</svg>
