<svg width="471.58" height="525.35" xmlns="http://www.w3.org/2000/svg">
    <g stroke="#ec1c24">
        <path d="M469.8 1.58c8.007 419.12-234.15 522-234.15 522C52.04 413.58-1.77 209.46 1.73 1.58h468.05z" fill="#ec1c24" fill-rule="evenodd" stroke-width="3.159"/>
        <path d="M116.42 81.126c-.087 4.61 2.72 8.026 5.535 9.706 2.188-.944 4.398-1.838 7.128-2.408 2.55-.532 6.084-1.1 9.375-.271l-5.952-8.498" fill="#ffe000" fill-rule="evenodd" stroke-width="2"/>
        <path d="M191.97 261.53c-.073-28.123-19.057-65.856-13.754-112.62.93-8.207 3.995-7.688 5.107-11.371 11.862-39.299 2.377-67.562-.257-70.972-.8-1.035 5.36-2.776 3.273-6.837-2.353-2.26-.07-4.46-.674-6.547-1.217-4.208-7.07-4.581-9.629-4.045-1.327.279-1.846 2.126-2.407 3.852-6.259-5.29-10.15-8.673-17.152-8.377-8.763.37-20.44 3.637-26.82 8.406-1.21.904-1.013 3.005-.69 4.224-11.178 1.44-22.251 10.43-16.963 13.608-.13 3.003.987 7.558 4.092 9.774 11.198 3.72 30.072-11.537 33.303 9.011.455 2.893-3.255 5.018-4.56 3.795-1.29-1.208-1.91-2.206-3.229-3.441-1.772-1.659-4.746-2.56-8.565-2.202-6.172.577-13.182 3.334-12.894 5.03.2 1.183 2.926 2.978 4.832 2.664 12.013-1.979 11.313 1.826 8.622 5.216-5.891 6.594-18.875 11.024-28.263 20.804L65.86 87.215c-1.546-1.342-4.637-29.67-7.586-41.97-1.51-6.294-22.889-9.757-24.397-.568 4.829.02 7.824 1.75 9.335 3.548 1.063 1.266 1.69 3.688 1.258 5.481-2.274-1.41-4.113-2.119-6.45-1.908-3.917.354-6.953 4.135-6.37 7.572 3.392-2.38 7.667-.322 10.37 1.269 1.688.992 2.5 2.842 1.681 4.92-6.142-.684-10.44 3.876-8.97 7.821 3.014-1.511 7.353-.818 10.292.568 4.446 2.096 7.195 6.015 5.55 10.572-1.255 3.474-4.96 8.557-1.84 12.921l23.688 33.131-27.72-.57c-2.575-.236-1.09-21.966-4.153-26.794-4.228-6.668-19.763-6.296-20.29.083 4.806.18 10.896 2.838 10.876 7.327-4.68-1.621-11.089 2.253-10.589 7.112 3.409-1.261 10.342-1.159 9.408 6.356-4.175-.32-8.923 2.734-8.516 7.643 8.807-4.799 8.927 4.153 13.426 4.09 7.921-.11 1.538 8.774-1.965 7.894.03 5.778 8.892 5.313 12.91 2.466 2.173-1.54 13.425 7.172 20.393 5.651 3.313.454 1.6 4.527 16.68 5.856 7.121 1.657 12.413 8.234 25.762 8.394.571 7.398 2.994 18.933 8.952 27.593 5.87 8.531 9.483 18.807 13.675 28.645-1.775 3.828-3.66 6.293-4.758 10.668-22.572-3.16-42.115 11-47.285 23.272-.431 1.024-7.22 1.957-12.974 2.817 1.01-4.695-1.211-9.49-1.609-11.922-.695-4.254 1.88-7.176.403-14.011-1.626-7.526-13.431-11.84-18.235-5.254 2.559-.038 5.056.986 6.593 2.881 1.185 1.46 1.924 3.421.633 5.694-4.462-2.784-10.756 2.305-10.087 6.097 8.452-2.33 11.166 2.914 10.572 6.567-3.385-5.176-10.168-.16-8.957 5.963 3.483-3.412 8.424-.34 7.554 3.075-.07.277-3.398 15.63 3.152 16.28l70.435 6.985c2.397 10.56 8.272 19.111 12.287 25.803 2.644 4.407 7.203 7.005 9.614 10.84.736 1.17 3.34 18.665 2.205 27.358-10.192-6.762-19.469-5.653-25.555-1.634-4.415 2.917-6.883 7.59-5.857 15.618 2.478-2.305 4.407-5.14 9.042-4.614.848 2.998.04 4.97 2.511 6.883 1.241-2.39 3.316-6.004 7.344-6.241.778 3.28 1.056 4.692 3.522 7.03 1.63-1.865 4.027-6.252 6.462-6.186 9.692.263 22.91 2.168 22.874-2.951-.251-36.627 7.043-38.19 10.793-49.807 3.023-7.872 4.43-15.365 3.877-21.704 8.706-1.61 6.162-13.36 6.144-20.3z" fill="#ffd420" stroke-linecap="round" stroke-linejoin="round" stroke-width="2"/>
        <g fill="none" stroke-width="2">
            <path d="M134.4 58.758c-.326 2.33 11.822 1.016 17.366 1.158" stroke-linecap="round" stroke-linejoin="round"/>
            <path d="M143.38 60.001c-.348 1.421-.354 3.723.822 4.301 1.065.523 4.171.74 5.468-.19 1.253-.897.692-4.23.692-4.23M177.66 56.142c.756-3.555 7.155.959 4.46 2.247-2.45 1.17-3.304 4.127-4.835 2.69-1.671-1.57-.09-2.75.375-4.937z"/>
        </g>
        <path d="M209.99 360.97V175.65h-13.926v-46.063h21.425v27.852h10.712v-27.852h21.425v46.063H235.7v72.844h25.71v-139.26h-40.707V44.96h32.137v37.493h18.211V44.96h49.277v37.493h18.211V44.96h32.137v64.274h-40.707v139.26h25.71V175.65h-13.926v-46.063h21.425v27.852h10.712v-27.852h21.425v46.063h-13.926v185.32H295.69z" fill="#ffd420" fill-rule="evenodd" stroke-width="2"/>
        <g fill="none" stroke-width="2">
            <path d="M115.63 67.884c-.684.086-3.062 1.325-3.624 2.976" stroke-linecap="round" stroke-linejoin="round"/>
            <path d="m121.8 90.37.688-8.993 6.428 6.974 3.258-8.284" stroke-linecap="round" stroke-linejoin="bevel"/>
            <path d="M126.7 281.44c-2.673-13.329-1.981-33.337-.195-48.444M158.22 121.68l-7.386 8.905H72.42"/>
            <path d="M108.64 166.09c5.403-.045 10.813-.503 14.932-1.19" stroke-linecap="round"/>
            <path d="M183.13 266.22c1.57 5.002 2.3 10.614 2.688 15.616" stroke-linecap="round" stroke-linejoin="round"/>
            <path d="m105.34 121.51-7.069 9.12"/>
        </g>
    </g>
</svg>
