<svg xmlns="http://www.w3.org/2000/svg" width="400" height="500" viewBox="30.5 31.5 400 500" xml:space="preserve">
    <path fill="#e00e00" d="M230.44 531.14C156.12 477.22 105.18 409.12 74.7 322.98c-27.64-78.1-38.73-172.75-33.91-289.35l.02-.46h379.82l.02.46c4.81 116.6-6.28 211.24-33.91 289.35-30.48 86.14-81.42 154.24-155.74 208.16l-.28.2-.28-.2z"/>
    <path d="M419.96 33.21c9.07 219.45-36.26 385.95-189.46 497.1C77.31 419.16 31.99 252.66 41.06 33.21h378.9m.92-.95H40.14l-.04.92c-4.82 116.66 6.28 211.36 33.93 289.52 30.51 86.24 81.51 154.41 155.91 208.39l.56.41.56-.41c74.4-53.98 125.4-122.15 155.91-208.39 27.65-78.16 38.75-172.86 33.93-289.52l-.04-.92z"/>
    <path d="M246.621 436.675c1.53-8.006.064-17.927-3.03-25.548-3.141-7.737-3.12-10.812-3.803-17.78 20.031-5.911 23.893-10.627 29.806-17.31 13.219-14.936 12.46-34.725 9.57-51.643-2.624-15.352-13.242-34.518-29.741-38.146-3.202-6.994-8.84-14.885-13.577-21.551-.903-1.27-3.277-.69-5.346-.431-1.375.255-2.877-.605-4.126 1.193-4.666 6.715-12.89 13.795-14.797 20.79-16.5 3.627-27.117 22.793-29.74 38.145-2.892 16.918-3.65 36.707 9.57 51.644 5.912 6.682 9.774 11.398 29.805 17.308-.683 6.969-.662 10.044-3.803 17.781-3.094 7.621-4.56 17.542-3.03 25.548H230.5z" style="fill:#ffe000;fill-opacity:1;fill-rule:evenodd;stroke:#000;stroke-width:1;stroke-linecap:butt;stroke-linejoin:miter;stroke-opacity:1;stroke-miterlimit:4;stroke-dasharray:none"/>
    <path d="M241.087 436.252c-.05-7.01-.19-15.203-3.886-21.03" style="fill:none;fill-rule:evenodd;stroke:#000;stroke-width:1;stroke-linecap:round;stroke-linejoin:miter;stroke-opacity:1;stroke-miterlimit:4;stroke-dasharray:none"/>
    <path d="M239.788 393.346c-.681-5.978 3.264-8.862 7.471-14.925 6.763-9.748 12.95-14.496 16-29.488 2.422-11.9.78-25.15-3.123-38.707-1.625-5.645-5.223-14.814-10.713-23.978" style="fill:none;fill-rule:evenodd;stroke:#000;stroke-width:1;stroke-linecap:butt;stroke-linejoin:miter;stroke-opacity:1;stroke-miterlimit:4;stroke-dasharray:none"/>
    <path style="fill:none;fill-rule:evenodd;stroke:#000;stroke-width:1;stroke-linecap:round;stroke-linejoin:miter;stroke-opacity:1;stroke-miterlimit:4;stroke-dasharray:none" d="M219.913 436.252c.05-7.01.19-15.203 3.886-21.03"/>
    <path style="fill:none;fill-rule:evenodd;stroke:#000;stroke-width:1;stroke-linecap:butt;stroke-linejoin:miter;stroke-opacity:1;stroke-miterlimit:4;stroke-dasharray:none" d="M221.212 393.346c.681-5.978-3.264-8.862-7.471-14.925-6.763-9.748-12.95-14.496-16-29.488-2.422-11.9-.78-25.15 3.123-38.707 1.625-5.645 5.223-14.814 10.713-23.978M249.423 286.248c-2.512 3.81-9.464 10.328-18.923 8.587V436.71"/>
    <circle r="2.207" cy="282.187" cx="229.814" style="opacity:1;fill:#000;fill-opacity:1;fill-rule:evenodd;stroke:none;stroke-width:3;stroke-linecap:round;stroke-linejoin:miter;stroke-miterlimit:4;stroke-dasharray:none;stroke-opacity:1"/>
    <circle style="opacity:1;fill:#000;fill-opacity:1;fill-rule:evenodd;stroke:none;stroke-width:3;stroke-linecap:round;stroke-linejoin:miter;stroke-miterlimit:4;stroke-dasharray:none;stroke-opacity:1" cx="238.263" cy="280.206" r="2.207"/>
    <path d="M230.5 264.266c3.965-.678 4.426 4.426 6.625 9.082" style="fill:none;fill-rule:evenodd;stroke:#000;stroke-width:.9894073px;stroke-linecap:round;stroke-linejoin:miter;stroke-opacity:1"/>
    <path style="fill:#ffe000;fill-opacity:1;fill-rule:evenodd;stroke:#000;stroke-width:1;stroke-linecap:butt;stroke-linejoin:miter;stroke-opacity:1;stroke-miterlimit:4;stroke-dasharray:none" d="M246.621 236.815c1.53-8.006.064-17.927-3.03-25.548-3.141-7.737-3.12-10.813-3.803-17.78 20.031-5.911 23.893-10.628 29.806-17.31 13.219-14.936 12.46-34.726 9.57-51.644-2.624-15.351-13.242-34.517-29.741-38.145-3.202-6.995-8.84-14.886-13.577-21.551-.903-1.27-3.277-.69-5.346-.431-1.375.255-2.877-.605-4.126 1.193-4.666 6.715-12.89 13.794-14.797 20.789-16.5 3.628-27.117 22.794-29.74 38.145-2.892 16.918-3.65 36.708 9.57 51.645 5.912 6.681 9.774 11.398 29.805 17.308-.683 6.968-.662 10.044-3.803 17.78-3.094 7.622-4.56 17.543-3.03 25.549H230.5z"/>
    <path style="fill:none;fill-rule:evenodd;stroke:#000;stroke-width:1;stroke-linecap:round;stroke-linejoin:miter;stroke-opacity:1;stroke-miterlimit:4;stroke-dasharray:none" d="M241.087 236.392c-.05-7.01-.19-15.204-3.886-21.03"/>
    <path style="fill:none;fill-rule:evenodd;stroke:#000;stroke-width:1;stroke-linecap:butt;stroke-linejoin:miter;stroke-opacity:1;stroke-miterlimit:4;stroke-dasharray:none" d="M239.788 193.486c-.681-5.978 3.264-8.862 7.471-14.926 6.763-9.747 12.95-14.495 16-29.487 2.422-11.9.78-25.15-3.123-38.707-1.625-5.645-5.223-14.815-10.713-23.978"/>
    <path d="M219.913 236.392c.05-7.01.19-15.204 3.886-21.03" style="fill:none;fill-rule:evenodd;stroke:#000;stroke-width:1;stroke-linecap:round;stroke-linejoin:miter;stroke-opacity:1;stroke-miterlimit:4;stroke-dasharray:none"/>
    <path d="M221.212 193.486c.681-5.978-3.264-8.862-7.471-14.926-6.763-9.747-12.95-14.495-16-29.487-2.422-11.9-.78-25.15 3.123-38.707 1.625-5.645 5.223-14.815 10.713-23.978M249.423 86.388c-2.512 3.81-9.464 10.327-18.923 8.587v141.874" style="fill:none;fill-rule:evenodd;stroke:#000;stroke-width:1;stroke-linecap:butt;stroke-linejoin:miter;stroke-opacity:1;stroke-miterlimit:4;stroke-dasharray:none"/>
    <circle style="opacity:1;fill:#000;fill-opacity:1;fill-rule:evenodd;stroke:none;stroke-width:3;stroke-linecap:round;stroke-linejoin:miter;stroke-miterlimit:4;stroke-dasharray:none;stroke-opacity:1" cx="229.814" cy="82.326" r="2.207"/>
    <circle r="2.207" cy="80.345" cx="238.263" style="opacity:1;fill:#000;fill-opacity:1;fill-rule:evenodd;stroke:none;stroke-width:3;stroke-linecap:round;stroke-linejoin:miter;stroke-miterlimit:4;stroke-dasharray:none;stroke-opacity:1"/>
    <path style="fill:none;fill-rule:evenodd;stroke:#000;stroke-width:1;stroke-linecap:round;stroke-linejoin:miter;stroke-opacity:1;stroke-miterlimit:4;stroke-dasharray:none" d="M230.5 64.406c3.965-.679 4.426 4.426 6.625 9.082"/>
    <path d="M151.423 319.133c1.51-7.908.063-17.706-2.993-25.234-3.103-7.641-3.081-10.679-3.756-17.561 19.784-5.838 23.598-10.496 29.438-17.096 13.056-14.753 12.308-34.298 9.452-51.008-2.591-15.162-13.078-34.093-29.374-37.676-3.162-6.908-8.732-14.702-13.41-21.285-.891-1.254-3.237-.681-5.28-.426-1.359.252-2.842-.598-4.076 1.178-4.608 6.633-12.731 13.625-14.614 20.533-16.296 3.583-26.783 22.514-29.374 37.676-2.856 16.71-3.604 36.255 9.452 51.008 5.84 6.6 9.654 11.258 29.438 17.096-.675 6.882-.653 9.92-3.756 17.561-3.056 7.527-4.503 17.326-2.993 25.234H135.5z" style="fill:#ffe000;fill-opacity:1;fill-rule:evenodd;stroke:#000;stroke-width:1;stroke-linecap:butt;stroke-linejoin:miter;stroke-opacity:1;stroke-miterlimit:4;stroke-dasharray:none"/>
    <path d="M145.957 318.715c-.049-6.923-.187-15.016-3.838-20.77" style="fill:none;fill-rule:evenodd;stroke:#000;stroke-width:1;stroke-linecap:round;stroke-linejoin:miter;stroke-opacity:1;stroke-miterlimit:4;stroke-dasharray:none"/>
    <path d="M144.674 276.338c-.673-5.905 3.223-8.753 7.379-14.742 6.68-9.628 12.79-14.317 15.804-29.125 2.391-11.754.768-24.84-3.086-38.23-1.605-5.576-5.159-14.632-10.581-23.683" style="fill:none;fill-rule:evenodd;stroke:#000;stroke-width:1;stroke-linecap:butt;stroke-linejoin:miter;stroke-opacity:1;stroke-miterlimit:4;stroke-dasharray:none"/>
    <path style="fill:none;fill-rule:evenodd;stroke:#000;stroke-width:1;stroke-linecap:round;stroke-linejoin:miter;stroke-opacity:1;stroke-miterlimit:4;stroke-dasharray:none" d="M125.043 318.715c.049-6.923.187-15.016 3.838-20.77"/>
    <path style="fill:none;fill-rule:evenodd;stroke:#000;stroke-width:1;stroke-linecap:butt;stroke-linejoin:miter;stroke-opacity:1;stroke-miterlimit:4;stroke-dasharray:none" d="M126.326 276.338c.673-5.905-3.223-8.753-7.379-14.742-6.68-9.628-12.79-14.317-15.804-29.125-2.39-11.754-.768-24.84 3.086-38.23 1.605-5.576 5.159-14.632 10.581-23.683M154.19 170.558c-2.481 3.763-9.347 10.2-18.69 8.481v140.128"/>
    <circle r="2.18" cy="166.547" cx="134.823" style="opacity:1;fill:#000;fill-opacity:1;fill-rule:evenodd;stroke:none;stroke-width:3;stroke-linecap:round;stroke-linejoin:miter;stroke-miterlimit:4;stroke-dasharray:none;stroke-opacity:1"/>
    <circle style="opacity:1;fill:#000;fill-opacity:1;fill-rule:evenodd;stroke:none;stroke-width:3;stroke-linecap:round;stroke-linejoin:miter;stroke-miterlimit:4;stroke-dasharray:none;stroke-opacity:1" cx="143.167" cy="164.59" r="2.18"/>
    <path d="M135.5 148.847c3.916-.67 4.372 4.372 6.544 8.97" style="fill:none;fill-rule:evenodd;stroke:#000;stroke-width:1;stroke-linecap:round;stroke-linejoin:miter;stroke-opacity:1;stroke-miterlimit:4;stroke-dasharray:none"/>
    <path style="fill:#ffe000;fill-opacity:1;fill-rule:evenodd;stroke:#000;stroke-width:1;stroke-linecap:butt;stroke-linejoin:miter;stroke-opacity:1;stroke-miterlimit:4;stroke-dasharray:none" d="M341.423 319.133c1.51-7.908.063-17.706-2.993-25.234-3.103-7.641-3.081-10.679-3.756-17.561 19.784-5.838 23.598-10.496 29.438-17.096 13.056-14.753 12.308-34.298 9.452-51.008-2.591-15.162-13.078-34.093-29.374-37.676-3.162-6.908-8.732-14.702-13.41-21.285-.891-1.254-3.237-.681-5.28-.426-1.359.252-2.842-.598-4.076 1.178-4.608 6.633-12.731 13.625-14.614 20.533-16.296 3.583-26.783 22.514-29.374 37.676-2.856 16.71-3.604 36.255 9.452 51.008 5.84 6.6 9.654 11.258 29.438 17.096-.675 6.882-.653 9.92-3.756 17.561-3.056 7.527-4.503 17.326-2.993 25.234H325.5z"/>
    <path style="fill:none;fill-rule:evenodd;stroke:#000;stroke-width:1;stroke-linecap:round;stroke-linejoin:miter;stroke-opacity:1;stroke-miterlimit:4;stroke-dasharray:none" d="M335.957 318.715c-.049-6.923-.187-15.016-3.838-20.77"/>
    <path style="fill:none;fill-rule:evenodd;stroke:#000;stroke-width:1;stroke-linecap:butt;stroke-linejoin:miter;stroke-opacity:1;stroke-miterlimit:4;stroke-dasharray:none" d="M334.674 276.338c-.673-5.905 3.223-8.753 7.379-14.742 6.68-9.628 12.79-14.317 15.804-29.125 2.39-11.754.768-24.84-3.086-38.23-1.605-5.576-5.159-14.632-10.581-23.683"/>
    <path d="M315.043 318.715c.049-6.923.187-15.016 3.838-20.77" style="fill:none;fill-rule:evenodd;stroke:#000;stroke-width:1;stroke-linecap:round;stroke-linejoin:miter;stroke-opacity:1;stroke-miterlimit:4;stroke-dasharray:none"/>
    <path d="M316.326 276.338c.673-5.905-3.223-8.753-7.379-14.742-6.68-9.628-12.79-14.317-15.804-29.125-2.39-11.754-.768-24.84 3.086-38.23 1.605-5.576 5.159-14.632 10.581-23.683M344.19 170.558c-2.481 3.763-9.347 10.2-18.69 8.481v140.128" style="fill:none;fill-rule:evenodd;stroke:#000;stroke-width:1;stroke-linecap:butt;stroke-linejoin:miter;stroke-opacity:1;stroke-miterlimit:4;stroke-dasharray:none"/>
    <circle style="opacity:1;fill:#000;fill-opacity:1;fill-rule:evenodd;stroke:none;stroke-width:3;stroke-linecap:round;stroke-linejoin:miter;stroke-miterlimit:4;stroke-dasharray:none;stroke-opacity:1" cx="324.823" cy="166.547" r="2.18"/>
    <circle r="2.18" cy="164.59" cx="333.167" style="opacity:1;fill:#000;fill-opacity:1;fill-rule:evenodd;stroke:none;stroke-width:3;stroke-linecap:round;stroke-linejoin:miter;stroke-miterlimit:4;stroke-dasharray:none;stroke-opacity:1"/>
    <path style="fill:none;fill-rule:evenodd;stroke:#000;stroke-width:.97722316px;stroke-linecap:round;stroke-linejoin:miter;stroke-opacity:1" d="M325.5 148.847c3.916-.67 4.372 4.372 6.544 8.97"/>
</svg>
