<svg xmlns="http://www.w3.org/2000/svg" version="1" width="400" height="500">
    <path style="fill:#32ac60;fill-opacity:1;fill-rule:nonzero" d="M396.865 1.323H3.135v301.14c0 108.73 88.14 196.86 196.86 196.86 108.72 0 196.87-88.14 196.87-196.86V1.323z"/>
    <path style="fill:none;stroke:#000" d="M396.865 1.323H3.135v301.14c0 108.73 88.14 196.86 196.86 196.86 108.72 0 196.87-88.14 196.87-196.86V1.323z"/>
    <path style="fill:#fff;stroke:#000;stroke-width:1;stroke-opacity:1;stroke-miterlimit:4;stroke-dasharray:none" d="M199.522 348.295h-68.115c-3.48 0-4.574-3.48-2.883-6.165 10.242-16.208 22.473-27.843 24.56-51.906 2.487-27.843-53.298-37.488-85.118-63.84-36.692-30.228-43.653-53.497-44.448-73.583-1.492-35.002 33.013-57.674 53.199-57.674 29.234-.1 39.377 24.96 39.278 43.653 23.765-6.563 49.32-11.634 83.527-11.336 75.075.498 72.082 21.298 112.553 23.486l5.877-11.454c3.281-4.971 62.148 6.166 57.574 17.303l-3.281 7.955c2.386.994 4.077 2.684 3.679 5.27-2.585 18.893-55.486 47.83-84.72 67.518-28.34 19.092-45.245 38.98-45.444 49.122-.298 21.677 16.11 37.587 25.258 55.884.894 1.79.298 5.668-3.68 5.668z"/>
    <path style="fill:#32ac60;fill-opacity:1;stroke:#000;stroke-width:1;stroke-miterlimit:4;stroke-dasharray:none;stroke-opacity:1" d="M174.416 166.816a9.72 6.534 0 0 1-19.438 0 9.72 6.534 0 1 1 19.438 0z"/>
    <path style="fill:#32ac60;fill-opacity:1;stroke:#000;stroke-width:1;stroke-opacity:1;stroke-miterlimit:4;stroke-dasharray:none" d="M89.246 148.227c1.492-6.066 2.685-13.921-3.182-18.993-11.038-9.645-20.285-1.69-23.268 3.978-5.171 9.546-1.69 21.379 8.452 21.28 6.364 0 13.822-4.376 17.998-6.265z"/>
    <path d="M89.246 148.227c5.272-2.614 21.902-8.14 26.749-9.447" style="fill:none;fill-rule:evenodd;stroke:#000;stroke-width:1px;stroke-linecap:butt;stroke-linejoin:miter;stroke-opacity:1"/>
    <path d="m308.95 156.424 3.125-5.494M371.088 167.808l1.157-3.074" style="fill:none;fill-rule:evenodd;stroke:#000;stroke-width:1px;stroke-linecap:round;stroke-linejoin:miter;stroke-opacity:1"/>
</svg>
