<svg xmlns="http://www.w3.org/2000/svg" width="400" height="500" viewBox="30.5 31.5 400 500" xml:space="preserve">
    <path style="fill:#fff" d="M230.45 531.13c-74.32-53.92-125.26-122.02-155.74-208.16-27.64-78.1-38.73-172.75-33.91-289.35l.02-.46h379.82l.02.46c4.81 116.6-6.28 211.24-33.91 289.35-30.48 86.14-81.42 154.24-155.74 208.16l-.28.2z"/>
    <path d="M419.96 33.21c9.07 219.45-36.25 385.95-189.45 497.1C146.04 469.02 94.36 390.9 66.52 296.34a557.24 557.24 0 0 1-5.87-21.54c-11.45-45.69-17.77-95.02-19.88-147.94-1.2-30.06-1.05-61.28.29-93.65h378.9m.92-.95H40.14l-.04.92c-4.82 116.66 6.28 211.36 33.93 289.52 30.51 86.24 81.51 154.41 155.91 208.39l.56.41.56-.41c74.4-53.98 125.4-122.15 155.91-208.39 27.65-78.16 38.75-172.86 33.93-289.52l-.04-.92z"/>
    <path style="fill:#e00e00;fill-rule:evenodd;stroke:#000;stroke-width:1;stroke-linecap:butt;stroke-linejoin:round;stroke-miterlimit:4;stroke-dasharray:none;stroke-opacity:1;fill-opacity:1" d="M279.511 347.249c40.492 0 58.858-38.993 58.858-62.013h38.013l8.896-33.56h-46.909v-38.353h52.836l4-33.559H338.37c0-23.02-18.366-62.013-58.858-62.013-28.894 0-41.658 13.066-49.011 25.547-7.353-12.481-20.117-25.547-49.011-25.547-40.492 0-58.858 38.993-58.858 62.013H65.795l4 33.56h52.836v38.353H75.722l8.896 33.559h38.013c0 23.02 18.366 62.013 58.858 62.013 28.894 0 41.658-13.066 49.011-25.547 7.353 12.481 20.117 25.547 49.011 25.547z"/>
    <path d="M205.404 163.7c-9 16.064-29.322 16.064-49.214 16.064 0-11.295 6.367-23.791 19.703-27.6 15.492-4.423 24.833 4.907 29.51 11.536z" style="fill:#fff;fill-rule:evenodd;stroke:#000;stroke-width:1;stroke-linecap:butt;stroke-linejoin:miter;stroke-miterlimit:4;stroke-dasharray:none;stroke-opacity:1"/>
    <path style="fill:#fff;fill-rule:evenodd;stroke:#000;stroke-width:1;stroke-linecap:butt;stroke-linejoin:round;stroke-miterlimit:4;stroke-dasharray:none;stroke-opacity:1" d="M205.404 301.3c-13.445-16.064-30.89-16.064-49.214-16.064 0 11.295 6.367 23.791 19.703 27.6 15.492 4.423 24.833-4.907 29.51-11.536z"/>
    <path style="fill:#fff;fill-rule:evenodd;stroke:#000;stroke-width:1;stroke-linecap:butt;stroke-linejoin:miter;stroke-miterlimit:4;stroke-dasharray:none;stroke-opacity:1" d="M255.596 163.7c9 16.064 29.322 16.064 49.214 16.064 0-11.295-6.367-23.791-19.703-27.6-15.492-4.423-24.833 4.907-29.51 11.536z"/>
    <path d="M255.596 301.3c13.445-16.064 30.89-16.064 49.214-16.064 0 11.295-6.367 23.791-19.703 27.6-15.492 4.423-24.833-4.907-29.51-11.536z" style="fill:#fff;fill-rule:evenodd;stroke:#000;stroke-width:1;stroke-linecap:butt;stroke-linejoin:round;stroke-miterlimit:4;stroke-dasharray:none;stroke-opacity:1"/>
    <path d="M304.81 251.677v-38.354c-30.63 0-57.385-5.318-74.31-21.945-16.925 16.627-43.68 21.945-74.31 21.945v38.354c30.63 0 57.385 5.318 74.31 21.945 16.925-16.627 43.68-21.945 74.31-21.945z" style="fill:#fff;fill-rule:evenodd;stroke:#000;stroke-width:1;stroke-linecap:butt;stroke-linejoin:miter;stroke-miterlimit:4;stroke-dasharray:none;stroke-opacity:1"/>
</svg>
