<svg xmlns="http://www.w3.org/2000/svg" xml:space="preserve" viewBox="30.5 31.5 420 500" height="500" width="420">
    <path style="fill:#0085ca;fill-opacity:1;stroke:none" d="M36.846 32.7c-6.56 239.76 37.97 376.005 203.654 498.18C406.183 408.705 450.715 272.46 444.154 32.7c-174.747.213-297.744.009-407.308 0Z"/>
    <path style="fill:#fff;fill-rule:evenodd;stroke:none;stroke-width:1.00400555px;stroke-linecap:butt;stroke-linejoin:round;stroke-opacity:.59393945" d="m320.669 460.63-24.075-9.77c-20.76-8.423-38.217-21.012-36.554-38.83 2.417-25.89 20.302-38.415 25.912-41.852 10.39 6.24 25.7 5.22 33.846-.74 6.114-4.475 10.912-13.784 14.131-24.083 4.853-15.525 10.036-33.555 14.47-47.886-28.075 11.11-49.676 15.24-61.504 23.314-15.459 10.553-14.916 27.474-8.5 42.046-5.394 5.288-13.696 13.017-20.01 17.102-1.79-20.911-2.364-36.83-1.038-57.031 1.135-17.315 23.075-36.58 29.626-38.03 8.588 3.62 20.05 8.12 32.666-.779 14.358-10.127 20.324-48.685 30.177-72.916-27.265 11.081-54.461 16.813-63.729 24.218-14.766 11.799-14.053 26.873-7.618 42.459-6.434 5.947-11.32 11.601-21.763 18.044-1.357-19.17-1.019-32.84-.032-51.715 1.046-20.007 21.308-39.273 29.097-44.919 11.444 6.866 29.82 5.736 37.842-3.695 10.816-12.717 17.058-45.945 25.585-68.929-21.935 8.993-52.604 14.908-64.673 25.083-12.457 10.504-11.865 25.685-6.17 40.954l-22.476 23.629c-11.23-13.928-9.266-41.04-10.88-63.7 13.336-4.896 26.173-16.662 24.26-31.734-2.493-19.628-19.961-43.087-28.892-66.918-8.93 23.831-26.4 47.29-28.891 66.918-1.914 15.072 10.923 26.838 24.258 31.734-1.613 22.66.352 49.772-10.88 63.7l-22.475-23.63c5.695-15.268 6.287-30.449-6.17-40.953-12.069-10.175-42.738-16.09-64.673-25.083 8.527 22.984 14.77 56.212 25.585 68.929 8.021 9.43 26.398 10.56 37.842 3.695 7.789 5.646 28.051 24.912 29.097 44.919.987 18.876 1.325 32.546-.032 51.715-10.443-6.443-15.33-12.097-21.763-18.044 6.435-15.586 7.148-30.66-7.618-42.46-9.268-7.404-36.464-13.136-63.729-24.217 9.853 24.23 15.819 62.79 30.177 72.916 12.615 8.899 24.078 4.4 32.666.78 6.55 1.45 28.49 20.714 29.626 38.029 1.326 20.2.753 36.12-1.038 57.031-6.314-4.086-14.616-11.814-20.01-17.102 6.416-14.573 6.958-31.493-8.5-42.046-11.829-8.074-33.43-12.203-61.504-23.315 4.434 14.332 9.617 32.362 14.47 47.887 3.219 10.3 8.016 19.608 14.13 24.082 8.147 5.962 23.457 6.98 33.847.741 5.61 3.437 23.495 15.962 25.912 41.853 1.663 17.817-15.427 30.423-36.193 38.83l-23.834 9.649c25.456 28.251 52.451 50.673 79.856 70.573 27.135-19.73 53.572-42.501 80.146-70.453z"/>
    <path d="m320.83 460.51-24.597-9.65c-20.856-8.18-37.856-21.012-36.193-38.83 2.417-25.89 20.302-38.415 25.912-41.852 10.39 6.24 25.7 5.22 33.846-.74 6.114-4.475 10.912-13.784 14.131-24.083 4.853-15.525 10.036-33.555 14.47-47.886-28.075 11.11-49.676 15.24-61.504 23.314-15.459 10.553-14.916 27.474-8.5 42.046-5.394 5.288-13.696 13.017-20.01 17.102-1.79-20.911-2.364-36.83-1.038-57.031 1.136-17.315 23.075-36.58 29.626-38.03 8.588 3.62 20.05 8.12 32.666-.779 14.358-10.127 20.324-48.685 30.177-72.916-27.265 11.081-54.461 16.813-63.729 24.218-14.766 11.799-14.053 26.873-7.618 42.459-6.434 5.947-11.32 11.601-21.763 18.044-1.357-19.17-1.019-32.84-.032-51.715 1.046-20.007 21.308-39.273 29.097-44.919 11.444 6.866 29.82 5.736 37.842-3.695 10.816-12.717 17.058-45.945 25.585-68.929-21.935 8.993-52.604 14.908-64.673 25.083-12.457 10.504-11.865 25.685-6.17 40.954l-22.476 23.629c-11.23-13.928-9.266-41.04-10.88-63.7 13.336-4.896 26.173-16.662 24.26-31.734-2.493-19.628-19.961-43.087-28.892-66.918-8.93 23.831-26.4 47.29-28.891 66.918-1.914 15.072 10.923 26.838 24.258 31.734-1.613 22.66.352 49.772-10.88 63.7l-22.475-23.63c5.695-15.268 6.287-30.449-6.17-40.953-12.069-10.175-42.738-16.09-64.673-25.083 8.527 22.984 14.77 56.212 25.585 68.929 8.021 9.43 26.398 10.56 37.842 3.695 7.789 5.646 28.051 24.912 29.097 44.919.987 18.876 1.325 32.546-.032 51.715-10.443-6.443-15.33-12.097-21.763-18.044 6.435-15.586 7.148-30.66-7.618-42.46-9.268-7.404-36.464-13.136-63.729-24.217 9.853 24.23 15.819 62.79 30.177 72.916 12.615 8.899 24.078 4.4 32.666.78 6.55 1.45 28.49 20.714 29.626 38.029 1.326 20.2.753 36.12-1.038 57.031-6.314-4.086-14.616-11.814-20.01-17.102 6.416-14.573 6.958-31.493-8.5-42.046-11.829-8.074-33.43-12.203-61.504-23.315 4.434 14.332 9.617 32.362 14.47 47.887 3.219 10.3 8.016 19.608 14.13 24.082 8.147 5.962 23.457 6.98 33.847.741 5.61 3.437 23.495 15.962 25.912 41.853 1.663 17.817-15.398 30.495-36.193 38.83l-24.075 9.649" style="fill:none;fill-rule:evenodd;stroke:#000;stroke-width:1;stroke-linecap:butt;stroke-linejoin:round;stroke-miterlimit:4;stroke-dasharray:none;stroke-opacity:1"/>
    <path d="M36.846 32.7c-6.56 239.76 37.97 376.005 203.654 498.18C406.183 408.705 450.715 272.46 444.154 32.7c-174.747.213-297.744.009-407.308 0Z" style="fill:none;fill-opacity:1;stroke:#000;stroke-opacity:1"/>
</svg>
