<svg xmlns="http://www.w3.org/2000/svg" width="400" height="500" viewBox="30.5 31.5 400 500" xml:space="preserve">
    <path d="M230.44 531.14C156.12 477.22 105.18 409.12 74.7 322.98c-27.64-78.1-38.73-172.75-33.91-289.35l.02-.46h379.82l.02.46c4.81 116.6-6.28 211.24-33.91 289.35-30.48 86.14-81.42 154.24-155.74 208.16l-.28.2-.28-.2z" style="fill:#0085ca;fill-opacity:1"/>
    <path d="M419.96 33.21c9.07 219.45-36.26 385.95-189.46 497.1C77.31 419.16 31.99 252.66 41.06 33.21h378.9m.92-.95H40.14l-.04.92c-4.82 116.66 6.28 211.36 33.93 289.52 30.51 86.24 81.51 154.41 155.91 208.39l.56.41.56-.41c74.4-53.98 125.4-122.15 155.91-208.39 27.65-78.16 38.75-172.86 33.93-289.52l-.04-.92z"/>
    <path style="fill:#fff;fill-opacity:1;stroke:#000;stroke-opacity:1;stroke-linejoin:round;stroke-linecap:round" d="M99.555 324.934c16.982-34.2 36.622-48.325 52.181-54.486l7.583 10.675-12.552 8.479c7.884 15.26 21.408 23.542 34.057 23.117l72.212 105.457c13.204-5.89 25.985-13.878 36.038-23.864l-70.947-103.839c4.966-12.844 2.773-30.761-9.704-41.968l-13.066 8.753c-.279-.047-23.722-29.341-30.679-42.005-7.36-13.399-4.373-24.623-9.928-35.694-21.859 19.824-28.453 38.294-26.238 57.914-11.583 5.364-42.779 48.237-28.957 87.46z"/>
    <path style="fill:#0085ca;fill-opacity:1;stroke:#000;stroke-opacity:1;stroke-linejoin:round;stroke-linecap:round" d="m199.894 263.802 7.836-6.038c4.662 6.32 6.43 15.008 3.57 22.652z"/>
    <path style="opacity:.98999999;fill:#0085ca;fill-opacity:1;fill-rule:evenodd;stroke:#000;stroke-opacity:1" d="M217.45 318.197a5.85 6.087 0 0 1-11.7 0 5.85 6.087 0 1 1 11.7 0zM259.337 379.04a5.85 6.087 0 1 1-11.701 0 5.85 6.087 0 1 1 11.7 0z"/>
    <path style="fill:#0085ca;fill-opacity:1;stroke:#000;stroke-opacity:1;stroke-linejoin:round;stroke-linecap:round" d="m163.658 287.462-7.688 5.048c4.344 6.543 11.235 12.252 19.397 12.18z"/>
    <path style="fill:#fff;fill-opacity:1;stroke:#000;stroke-opacity:1;stroke-linejoin:round;stroke-linecap:round" d="M182.555 199.384c16.982-34.2 36.622-48.325 52.181-54.486l7.583 10.675-12.552 8.479c7.884 15.26 21.1 23.156 33.749 22.731l72.52 105.843c13.204-5.89 25.985-13.878 36.038-23.864L301.05 165c4.966-12.844 2.85-30.838-9.627-42.045l-13.066 8.753c-.279-.047-23.722-29.342-30.679-42.005-7.36-13.399-4.373-24.623-9.928-35.694-21.859 19.824-28.453 38.294-26.238 57.914-11.583 5.364-42.779 48.237-28.957 87.46z"/>
    <path style="fill:#0085ca;fill-opacity:1;stroke:#000;stroke-opacity:1;stroke-linejoin:round;stroke-linecap:round" d="m282.97 138.252 7.76-6.038c4.662 6.32 6.739 15.47 3.879 23.115z"/>
    <path style="opacity:.98999999;fill:#0085ca;fill-opacity:1;fill-rule:evenodd;stroke:#000;stroke-opacity:1" d="M300.45 192.647a5.85 6.087 0 0 1-11.7 0 5.85 6.087 0 1 1 11.7 0zM342.337 253.49a5.85 6.087 0 0 1-11.701 0 5.85 6.087 0 1 1 11.7 0z"/>
    <path style="fill:#0085ca;fill-opacity:1;stroke:#000;stroke-opacity:1;stroke-linejoin:round;stroke-linecap:round" d="m246.658 161.912-7.688 5.048c4.344 6.543 11.081 12.02 19.243 11.949z"/>
</svg>
