<svg xmlns="http://www.w3.org/2000/svg" width="400" height="500" viewBox="30.5 31.5 400 500" xml:space="preserve">
    <path style="fill:#32ac60" d="M230.56 531.14c74.32-53.92 125.26-122.02 155.74-208.16 27.64-78.1 38.73-172.75 33.91-289.35l-.02-.46H40.37l-.02.46c-4.81 116.6 6.28 211.24 33.91 289.35 30.48 86.14 81.42 154.24 155.74 208.16l.28.2.28-.2z"/>
    <path d="M41.04 33.21C31.97 252.66 77.3 419.16 230.5 530.31c153.19-111.15 198.51-277.65 189.44-497.1H41.04m-.92-.95H420.86l.04.92c4.82 116.66-6.28 211.36-33.93 289.52-30.51 86.24-81.51 154.41-155.91 208.39l-.56.41-.56-.41c-74.4-53.98-125.4-122.15-155.91-208.39C46.38 244.54 35.28 149.84 40.1 33.18l.04-.92z"/>
    <path style="fill:#fff;stroke:#000;stroke-width:1;stroke-linecap:round;stroke-linejoin:round;stroke-miterlimit:4;stroke-dasharray:none;stroke-opacity:1" d="M181.703 416.406c2.67-3.246 1.76-8.014 9.865-16.185 6.045-6.095-2.733-18.849-1.439-32.591 1.255-13.324-2.02-36.583-4.996-45.992-2.961-9.357.14-23.121-2.486-33.074 0 0 5.928 2.526 6.866 5.052 1.547 4.165 6.467 19.59 6.563 27.435.05 4.085-.784 9.89.426 16.776 2.367 13.47 7.921 29.346 5.482 50.85-.04 15.246-4.717 10.754-10.05 20.768-.583 1.092-1.499 5.483-1.766 6.364-.795 2.62 4.789 3.558 7.623 3.92 4.577.587 13.48-.963 13.51-3.025.178-12.21 5.353-14.677 4.453-19.076-4.879-23.85 2.358-65.971-2.218-76.56 2.361-14.01 4.492-18.746 4.07-35.842 2.611-7.187 18.092.036 44.724-1.515-.248 7 1.289 12.363 1.289 12.363 3.651 10.021 3.784 16.23 4.437 22.033 1.309 11.609-.508 18.105.03 23.56 3.077 31.198-16.852 52.971-25.056 59.14-2.036 1.53-7.915 7.001-8.969 12.798-.158.871-.413 3.35.097 4.01 0 0 3.623 1.335 5.522 1.424 6.311.298 15.815-.998 18.718-2.992 2.655-1.824 1.17-8.096 8.073-12.568 8.577-5.557 2.878-13.879 7.995-29.527 5.349-16.355 13.416-28.571 14.96-36.905 2.209-11.936-3.482-13.594-2.476-38.095.159-3.878 2.487-14.909 1.277-18.183 2.507-.152 6.115-1.11 7.316-1.324 7.025 12.35 21.473 27.835 21.469 48.515-.007 21.245-2.83 31.824-9.171 57.399-1.245 7.188-9.058 13.599-14.964 18.12-3.792 2.903-8.782 10.404-9.401 13.066-.622 2.677 3.92 3.578 6.983 3.55 5.347-.05 14.526-.234 15.245-3.062 5.365-21.095 20.298-13.957 19.347-24.792-1.717-19.586 1.866-37.619 12.246-56.136 6.245-11.14 1.849-21.954.372-26.179-1.678-4.802-8.303-16.024-4.323-24.305 8.538-17.765 18.911-47.166 24.72-47.806 18.1-1.994 20.503-14.532 20.863-16.438.488-2.591-7.273-1.803-15.305-5.998-4.534-2.369-5.127-4.946-13.048-11.703-15.691-13.386-27-15.51-46.602-13.968-3.937.31-16.814 7.52-53.008 6.254-13.937-.488-25.543-2.545-34.308-5.016-13.226-3.73-17.814-9.426-38.613-10.885-8.052-.565-18.449-24.98-29.885-38.073 6.748 3.108 13.861 2.924 18.248.947 8.348-3.762 9.843-5.372 3.68-8.056-5.133-2.237-9.084-3.32-22.639-.077-.021-2.485 14.527-16.303 47.26 4.205 6.97 4.366 59.64 27.186 81.212 22.066 16.216-3.85 48.07-24.976 48.03-40.904-.134-4.212-2.696-5.399-4.375-1.046-2.46 6.374-8.607 16.247-16.694 18.398-2.1.558-4.474-2.571-5.218-6.46-.91-4.75-3.626-8.468-8.066-9.945-2.103-.7-2.903.346-.378 2.646 2.3 2.094 2.79 5.335 2.316 10.59-.25 2.773 2.104 5.352 1.1 7.444-2.073 4.318-13.564 14.184-21.146 11.09-11.53-4.706 2.263-18.04-1.037-26.426-3.679-6.14-7.872-8.982-6.74-3.728 2.442 11.346-1.114 12.065-3.212 19.574-.92 3.295-2.573 11.426-9.404 9.095-8.569-2.923-28.125-6.526-29.352-11.448-1.8-7.223 20.172-7.477 24.082-18.875.9-2.626-.829-3.9-3.478-.835-2.744 3.173-13.005 5.177-16.892 5.324-10.93.414-13.13 12.084-17.613 10.11-22.013-9.695-26.431-13.74-38.516-14.727 11.949-2.3 17.04-8.44 27.933-10.366 10.185-1.801 20.23-.065 23.696-.08 22.223-.095 44.446-.042 64.694-8.59 22.715-9.59 26.53-10.816 30.024-16.996 4.53-8.011 10.856-15.001 11.12-21.394.217-5.274-2.311-7.168-3.506-2.098-.754 5.045-9.187 10.463-12.236 15.3-6.479 10.28-13.714 10.027-14.682 7.42-2.589-6.974 8.333-17.035 8.852-25.427.198-3.195-2.332-1.802-3.528.04-3.011 4.632-5.263 6.87-9.196 12.243-3.02 4.125-3.966 12.399-6.862 18.873-3.79 8.477-40.644 13.026-42.588 10.183-2.709-5.707 1.103-12.675 3.83-20.37 1.36-3.838 2.164-9.498.944-12.938-.844-2.383-2.896-3.854-3.005-2.694-1.195 12.738-10.163 17.62-11.308 30.382-.235 2.625-1.875 7.686-10.5 7.383-6.267-.22-22.525.84-22.681-.576-1.15-10.432 14.393-19.492 11.8-30.872-.627-2.755-2.127-5.815-2.845-2.601-2.488 11.128-11.927 15.107-18.75 22.087-4.06 4.153-.401 13.638-12.414 16.037-14.344 2.864-26.109 15.715-33.83 12.004-9.397-4.516-23.221-23.854-17.544-43.505.686-2.373.557-6.638-2.487-3.25-8.435 9.384-9.47 27.202-2.293 40.169 0 0-15.064-15.68-14.067-33.48.104-1.856-1.997-1.51-2.39-.974-11.832 16.12 15.426 48.4 19.842 50.53-10.974-.462-22.966 1.505-26.435 1.016-9.75-1.376-13.721-4.552-18.164-2.242-3.607 1.875-8.518 6.161-7.154 11.516.473 1.854 4.083 2.2 3.579 3.705-.397 1.184-2.182 2.087-3.067 3.248-1.9 2.49-.883 5.958 1.322 8.636 2.996 3.64 6.463 3.906 11.913 5.534 5.065 1.514 8.66 8.443 19.65 10.181 3.256 1.815-2.404 17.41-8.296 27.744-2.617 4.59-2.818 14.497-1.944 15.91.65 1.053 6.562 1.427 7.27 3.575.776 2.354-2.123 17.903-.58 19.408 1.405 1.373 5.513 3.06 5.888 4.295.555 1.833 3.016 12.027 5.39 13.097 1.597.719 8.67-3.244 9.402-2.263 7.457 9.996 19.33 35.902 35.318 36.274 1.238 20.264 2.996 20.922 6.61 27.33 8.754 15.524 2.878 23.651 9.115 40.892 1.354 3.745 4.743 19.272 2.552 32.925-.79 4.919-8.378 11.565-11.071 15.953-8.13 13.243-5.275 14.85.539 15.244 3.909.265 12.167-.105 14.515-2.962z"/>
    <path style="fill:#000;fill-opacity:1;stroke:none;stroke-opacity:1" d="M122.675 137.912c-2.508 3.63-9.147 1.763-10.688-1.877-1.412-3.337 13.634-2.388 10.688 1.877z"/>
    <path d="M121.966 111.314c3.547 6.54 7.28 10.062 11.58 14.34M167.188 419.368c.86-3.65 2.033-5.766 4.118-8.599M197.79 419.73c-.194-2.995.21-5.282 1.49-8.386M239.68 419.04c.624-2.883 1.661-6.125 3.434-8.973M291.226 420.554c.861-3.092 2.502-6.925 4.238-9.21M262.33 283.71l7.903-.713M288.227 280.77a43.94 43.94 0 0 1-5.29.416" style="fill:none;fill-rule:evenodd;stroke:#000;stroke-width:1px;stroke-linecap:round;stroke-linejoin:miter;stroke-opacity:1"/>
</svg>
