<svg xmlns="http://www.w3.org/2000/svg" width="400" height="500" viewBox="30.5 31.5 400 500" xml:space="preserve">
    <path fill="#32ac60" d="M230.56 531.14c74.32-53.92 125.26-122.02 155.74-208.16 27.64-78.1 38.73-172.75 33.91-289.35l-.02-.46H40.37l-.02.46c-4.81 116.6 6.28 211.24 33.91 289.35 30.48 86.14 81.42 154.24 155.74 208.16l.28.2.28-.2z"/>
    <path style="fill:#ffe000;fill-opacity:1;fill-rule:evenodd;stroke:#000;stroke-width:1;stroke-linecap:butt;stroke-linejoin:round;stroke-opacity:1;stroke-miterlimit:4;stroke-dasharray:none" d="m329.107 259.847-3.565-31.76h-4.125l-.229-6.597 62.9 7.753c1.656.21 4.162-1.156 3.834-3.365l-18.184-122.184c-2.56-.558-14.527-2.008-17.765-2.247-2.238-18.048-16.98-33.952-36.473-33.952s-34.235 15.904-36.473 33.952c-3.238.24-15.204 1.69-17.765 2.247l-18.184 122.184c-.328 2.21 2.178 3.576 3.833 3.365l62.9-7.753-.228 6.598h-4.125l-3.565 31.759c-.41 3.66 9.902 10.29 13.607 12.21 3.705-1.92 14.017-8.55 13.607-12.21z"/>
    <path d="M295.37 100.326c.634-6.3 7.27-18.429 20.13-18.548 12.86.12 19.496 12.249 20.13 18.548-3.037-.135-17.163-.415-20.13-.437-2.967.022-17.093.302-20.13.437z" style="fill:#32ac60;fill-opacity:1;fill-rule:evenodd;stroke:#000;stroke-width:1;stroke-linecap:butt;stroke-linejoin:round;stroke-opacity:1;stroke-miterlimit:4;stroke-dasharray:none"/>
    <path d="m159.107 259.847-3.565-31.76h-4.125l-.229-6.597 62.9 7.753c1.656.21 4.162-1.156 3.834-3.365l-18.184-122.184c-2.56-.558-14.527-2.008-17.765-2.247-2.238-18.048-16.98-33.952-36.473-33.952s-34.235 15.904-36.473 33.952c-3.238.24-15.204 1.69-17.765 2.247L73.078 225.878c-.328 2.21 2.178 3.576 3.833 3.365l62.9-7.753-.228 6.598h-4.125l-3.565 31.759c-.41 3.66 9.902 10.29 13.607 12.21 3.705-1.92 14.017-8.55 13.607-12.21z" style="fill:#ffe000;fill-opacity:1;fill-rule:evenodd;stroke:#000;stroke-width:1;stroke-linecap:butt;stroke-linejoin:round;stroke-opacity:1;stroke-miterlimit:4;stroke-dasharray:none"/>
    <path style="fill:#32ac60;fill-opacity:1;fill-rule:evenodd;stroke:#000;stroke-width:1;stroke-linecap:butt;stroke-linejoin:round;stroke-opacity:1;stroke-miterlimit:4;stroke-dasharray:none" d="M125.37 100.326c.634-6.3 7.27-18.429 20.13-18.548 12.86.12 19.496 12.249 20.13 18.548-3.037-.135-17.163-.415-20.13-.437-2.967.022-17.093.302-20.13.437z"/>
    <path style="fill:#ffe000;fill-opacity:1;fill-rule:evenodd;stroke:#000;stroke-width:1;stroke-linecap:butt;stroke-linejoin:round;stroke-opacity:1;stroke-miterlimit:4;stroke-dasharray:none" d="m244.107 431.355-3.565-31.759h-4.125l-.229-6.598 62.9 7.753c1.656.21 4.162-1.156 3.834-3.364l-18.184-122.185c-2.56-.558-14.527-2.008-17.765-2.246-2.238-18.049-16.98-33.953-36.473-33.953s-34.235 15.904-36.473 33.953c-3.238.238-15.204 1.688-17.765 2.246l-18.184 122.185c-.328 2.208 2.178 3.575 3.833 3.364l62.9-7.753-.228 6.598h-4.125l-3.565 31.759c-.41 3.66 9.902 10.29 13.607 12.21 3.705-1.92 14.017-8.55 13.607-12.21z"/>
    <path d="M210.37 271.834c.634-6.299 7.27-18.428 20.13-18.548 12.86.12 19.496 12.25 20.13 18.548-3.037-.135-17.163-.415-20.13-.436-2.967.021-17.093.301-20.13.436z" style="fill:#32ac60;fill-opacity:1;fill-rule:evenodd;stroke:#000;stroke-width:1;stroke-linecap:butt;stroke-linejoin:round;stroke-opacity:1;stroke-miterlimit:4;stroke-dasharray:none"/>
    <path d="M41.04 33.21C31.97 252.66 77.3 419.16 230.5 530.31c153.19-111.15 198.51-277.65 189.44-497.1H41.04m-.92-.95H420.86l.04.92c4.82 116.66-6.28 211.36-33.93 289.52-30.51 86.24-81.51 154.41-155.91 208.39l-.56.41-.56-.41c-74.4-53.98-125.4-122.15-155.91-208.39C46.38 244.54 35.28 149.84 40.1 33.18l.04-.92z"/>
</svg>
