<svg xmlns="http://www.w3.org/2000/svg" xml:space="preserve" viewBox="30.5 31.5 400 500" height="500" width="400">
    <path d="M230.55 531.13c74.32-53.92 125.26-122.02 155.74-208.16 27.64-78.1 38.73-172.75 33.91-289.35l-.02-.46H40.36l-.02.46c-4.81 116.6 6.28 211.24 33.91 289.35 30.48 86.14 81.42 154.24 155.74 208.16l.28.2.28-.2z" fill="#32ac60"/>
    <path d="M41.04 33.21c-9.07 219.45 36.25 385.95 189.45 497.1 84.47-61.29 136.15-139.41 163.99-233.97a557.24 557.24 0 0 0 5.87-21.54c11.45-45.69 17.77-95.02 19.88-147.94 1.2-30.06 1.05-61.28-.29-93.65H41.04m-.92-.95H420.86l.04.92c4.82 116.66-6.28 211.36-33.93 289.52-30.51 86.24-81.51 154.41-155.91 208.39l-.56.41-.56-.41c-74.4-53.98-125.4-122.15-155.91-208.39C46.38 244.54 35.28 149.84 40.1 33.18l.04-.92z"/>
    <path d="M235.66 493.15v-17.56l6.62-4.31-1.85-19.41c-.56-5.88 2.73-11.17 7.24-15.71 16.4-16.52 31.35-35.08 44.82-53.91 3.69-5.16.65-8.47-2.46-8.47h-9.4c-5.31 0-7.58-3.88-4.47-6.62 21.82-19.22 41.66-40.02 53.14-64.07 2.82-5.92 2.13-16.31-9.55-13.55l-13.71 3.23c-4.63 1.09-7.07-3.67-4.93-7.7 16.28-30.63 41.8-55.02 48.67-92.1 2.43-13.13-3.19-24.67-16.33-19.71-7.72 2.91-14.11 7.92-20.64 12.01-7.89 4.95-13.85 2.51-11.09-10.32 3.16-14.7 11.53-27.2 14.79-43.43 2.9-14.45-11.68-27.5-29.42-23.1-5.95 1.47-10.77 4.45-16.02 7.86-.09-9.88-.47-20.59-5.39-27.42-3.01-4.18-9.03-5.65-15.71-6.47-1.59-.19-1.89-1.86-2.16-3.85-1.64-12.57-8.5-15.88-17.31-17.11-8.81 1.23-15.67 4.54-17.33 17.1-.26 1.99-.57 3.66-2.16 3.85-6.68.81-12.7 2.29-15.71 6.47-4.92 6.82-5.3 17.53-5.39 27.42-5.25-3.4-10.07-6.38-16.02-7.86-17.74-4.4-32.32 8.65-29.42 23.1 3.26 16.23 11.63 28.73 14.79 43.43 2.76 12.83-3.2 15.27-11.09 10.32-6.53-4.1-12.92-9.1-20.64-12.01-13.14-4.95-18.76 6.59-16.33 19.71 6.87 37.09 32.39 61.48 48.67 92.1 2.14 4.03-.29 8.79-4.93 7.7l-13.71-3.23c-11.68-2.76-12.37 7.64-9.55 13.55 11.48 24.06 31.32 44.85 53.14 64.07 3.12 2.75.85 6.62-4.47 6.62h-9.4c-3.11 0-6.16 3.31-2.46 8.47 13.47 18.83 28.42 37.39 44.82 53.91 4.51 4.54 7.8 9.84 7.24 15.71l-1.85 19.41 6.62 4.31v17.56h10.33z" style="fill-rule:evenodd;fill:#ffe000;stroke-linejoin:round;stroke:#000"/>
    <path d="M230.5 93.46v362.26M159.12 313.87l71.38 69.15M139.86 208.67l90.64 108.89 90.64-108.89M253.68 101.47l-23.18 32.35-23.18-32.35" style="fill:none;stroke-linecap:round;stroke:#000"/>
    <path d="m288.95 141.83-58.45 89.18-58.45-89.18" style="fill:none;stroke-linecap:round;stroke:#000"/>
    <path d="m301.88 313.87-71.38 69.15M262.15 394.11l-31.65 35.27-31.65-35.27" style="fill:none;stroke:#000"/>
</svg>
