<svg xmlns="http://www.w3.org/2000/svg" width="400" height="500" viewBox="30.5 31.5 400 500" xml:space="preserve">
    <path d="M230.55 531.13c74.32-53.92 125.26-122.02 155.74-208.16 27.64-78.1 38.73-172.75 33.91-289.35l-.02-.46H40.36l-.02.46c-4.81 116.6 6.28 211.24 33.91 289.35 30.48 86.14 81.42 154.24 155.74 208.16l.28.2.28-.2z" fill="#0085ca"/>
    <path d="M41.04 33.21c-9.07 219.45 36.25 385.95 189.45 497.1 84.47-61.29 136.15-139.41 163.99-233.97a557.24 557.24 0 0 0 5.87-21.54c11.45-45.69 17.77-95.02 19.88-147.94 1.2-30.06 1.05-61.28-.29-93.65H41.04m-.92-.95H420.86l.04.92c4.82 116.66-6.28 211.36-33.93 289.52-30.51 86.24-81.51 154.41-155.91 208.39l-.56.41-.56-.41c-74.4-53.98-125.4-122.15-155.91-208.39C46.38 244.54 35.28 149.84 40.1 33.18l.04-.92z"/>
    <path d="M230.33 531.17c74.32-53.92 125.26-122.02 155.74-208.16 27.64-78.1 38.73-172.75 33.91-289.35l-.02-.46H40.14l-.02.46c-4.81 116.6 6.28 211.24 33.91 289.35 30.48 86.14 81.42 154.24 155.74 208.16l.28.2.28-.2z" fill="#0085ca"/>
    <path d="M420.81 91.4c.57-18.36 0-38.1-.87-58.19l-58.53-.52c2.23 14.47-8.37 26.81-22.71 26.37 2.62 14.48-7.99 26.82-22.71 26.37 2.23 14.47-8.37 26.81-23.1 26.36 2.23 14.47-8.37 26.81-23.1 26.36 2.23 14.47-8.37 26.81-22.71 26.37 4.49 11.97-3.8 25.53-16.56 25.53-12.76 0-21.06-13.56-16.56-25.53-14.34.44-24.94-11.9-22.71-26.37-14.76.45-25.36-11.89-23.13-26.36-14.73.44-25.33-11.89-23.11-26.36-14.72.44-25.33-11.89-22.71-26.37-14.34.44-24.94-11.9-22.71-26.37l-58.76.56c-.95 20.39-2.21 41.04-1.22 59.19 1.51-.12 3.5 0 3.8.01 12.24.46 20.05 13.83 15.66 25.52 14.34-.44 24.94 11.9 22.71 26.37 14.73-.45 25.33 11.89 23.1 26.36 14.73-.45 25.33 11.89 23.1 26.36 14.73-.45 25.33 11.89 22.71 26.37 14.34-.44 24.94 11.9 22.71 26.37 24.54-.47 26.82 28.9 11.08 37.04 11.49 8.4 12.5 26.74 0 34.47 11.49 8.4 12.5 26.74 0 34.47 11.49 8.4 12.5 26.74 0 34.47 11.49 8.4 12.5 26.74 0 34.47 11.49 8.4 12.5 26.74 0 34.47 11.49 8.4 12.5 26.74 0 34.47 15 13.01 30.27 25.54 45.83 37.53 15.68-12.15 31.3-24.4 46.17-37.97-12.5-7.74-11.49-26.1 0-34.51-12.5-7.74-11.49-26.1 0-34.51-12.5-7.74-11.49-26.1 0-34.51-12.5-7.74-11.49-26.1 0-34.51-12.5-7.74-11.49-26.1 0-34.51-12.5-7.74-11.49-26.1 0-34.51-15.74-8.15-13.46-37.56 11.08-37.08-2.23-14.49 8.37-26.84 22.71-26.4-2.62-14.49 7.99-26.85 22.71-26.4-2.23-14.49 8.37-26.84 23.1-26.39-2.23-14.49 8.37-26.84 23.1-26.39-2.23-14.49 8.37-26.84 22.71-26.4-4.38-11.7 3.47-24.25 15.65-25.55" style="fill-rule:evenodd;fill:#fff"/>
    <path d="M40.82 33.25C31.75 252.7 77.07 419.2 230.27 530.35c84.47-61.29 136.15-139.41 163.99-233.97a557.24 557.24 0 0 0 5.87-21.54c11.45-45.69 17.77-95.02 19.88-147.94 1.2-30.06 1.05-61.28-.29-93.65H40.82m-.92-.95H420.64l.04.92c4.82 116.66-6.28 211.36-33.93 289.52-30.51 86.24-81.51 154.41-155.91 208.39l-.56.41-.56-.41c-74.4-53.98-125.4-122.15-155.91-208.39-27.65-78.16-38.75-172.86-33.93-289.52l.04-.92z"/>
    <path d="M361.41 32.69c2.23 14.47-8.37 26.81-22.71 26.37 2.62 14.48-7.99 26.82-22.71 26.37 2.23 14.47-8.37 26.81-23.1 26.36 2.23 14.47-8.37 26.81-23.1 26.36 2.23 14.47-8.37 26.81-22.71 26.37 4.49 11.97-3.8 25.53-16.56 25.53-12.76 0-21.06-13.56-16.56-25.53-14.34.44-24.94-11.9-22.71-26.37-14.76.45-25.36-11.89-23.13-26.36-14.73.44-25.33-11.89-23.11-26.36-14.72.44-25.33-11.89-22.71-26.37-14.34.44-24.94-11.9-22.71-26.37M39.67 92.44c1.51-.12 3.45 0 3.75.01 12.24.46 20.05 13.83 15.66 25.52 14.34-.44 24.94 11.9 22.71 26.37 14.73-.45 25.33 11.89 23.1 26.36 14.73-.45 25.33 11.89 23.1 26.36 14.73-.45 25.33 11.89 22.71 26.37 14.34-.44 24.94 11.9 22.71 26.37 24.54-.47 26.82 28.9 11.08 37.04 11.49 8.4 12.5 26.74 0 34.47 11.49 8.4 12.5 26.74 0 34.47 11.49 8.4 12.5 26.74 0 34.47 11.49 8.4 12.5 26.74 0 34.47 11.49 8.4 12.5 26.74 0 34.47 11.49 8.4 12.5 26.74 0 34.47m92-.45c-12.5-7.74-11.49-26.1 0-34.51-12.5-7.74-11.49-26.1 0-34.51-12.5-7.74-11.49-26.1 0-34.51-12.5-7.74-11.49-26.1 0-34.51-12.5-7.74-11.49-26.1 0-34.51-12.5-7.74-11.49-26.1 0-34.51-15.74-8.15-13.46-37.56 11.08-37.08-2.23-14.49 8.37-26.84 22.71-26.4-2.62-14.49 7.99-26.85 22.71-26.4-2.23-14.49 8.37-26.84 23.1-26.39-2.23-14.49 8.37-26.84 23.1-26.39-2.23-14.49 8.37-26.84 22.71-26.4-4.38-11.7 3.47-24.25 15.65-25.55.63-.07 2.78-.35 4.13-.01" style="fill:none;stroke-width:1.01;stroke:#000"/>
</svg>
