<svg xmlns="http://www.w3.org/2000/svg" xml:space="preserve" viewBox="30.5 31.5 400 500" height="500" width="400">
    <path fill="#e00e00" d="M230.44 531.14C156.12 477.22 105.18 409.12 74.7 322.98c-27.64-78.1-38.73-172.75-33.91-289.35l.02-.46h379.82l.02.46c4.81 116.6-6.28 211.24-33.91 289.35-30.48 86.14-81.42 154.24-155.74 208.16l-.28.2-.28-.2z"/>
    <path d="M419.96 33.21c9.07 219.45-36.26 385.95-189.46 497.1C77.31 419.16 31.99 252.66 41.06 33.21h378.9m.92-.95H40.14l-.04.92c-4.82 116.66 6.28 211.36 33.93 289.52 30.51 86.24 81.51 154.41 155.91 208.39l.56.41.56-.41c74.4-53.98 125.4-122.15 155.91-208.39 27.65-78.16 38.75-172.86 33.93-289.52l-.04-.92z"/>
    <path d="m189.76 298.93-6.62.46c-2.85.2-5.47-1.68-3.85-3.85 2.68-3.59 7.56-8.12 2.46-10.47-15.94-7.34-38.36-27.98-40.51-21.41l-1.16 3.54c-4.24 9.27-13.75 3.66-14.4-2.77-.43-4.24 4.65-7.52 2-9.55l-10.01-7.7c-2.11-1.62-4.25-7.82 1.69-5.24l11.71 5.08c.28-2.85 1.85-17.56 1.85-17.56-23.39-9.47-47.04-21.41-62.22-40.51-2.44-3.07.81-5.35 9.41-.42 3.32 1.9 8.1.83 8.46 3.35 1.83 12.82 23.35 24.11 45.59 31.57l2.46-9.7c-4.26-5.88-8.14-12.72-10.01-18.94-.37-1.23 1.26-4.68 3.39-1.85 8.13 10.81 17.55 24.66 32.19 30.03 33.55 12.32 65.53 18.37 93.03 35.73 5.42 3.42 7.67 9.26 4.16 14.17-2.69 3.76-6.84 7.97-6.93 11.4-.12 4.7 1.94 4.89 6.87 5.92 3.95.83 10.67.64 15 8.25 2.98 5.22.15 12.78.15 12.78s7.84 2.17 10.72 8.16c2.56 5.35-.71 13.25-.71 13.25 8.65 3.5 13.67 9.7 14.14 15.1.61 7.08-4.32 15.31-12.75 15.09l5.24 13.09c.65 1.63.28 3.68-2.16 4-35.95 4.86-26.71 36.15-38.51 54.83l-20.02 31.73c-1.93 3.05-9.61-4.5-8.16-6.93l7.7-12.94c2.56-4.3-7.88-14.02-12.01-26.8-2.79-8.61-4.05-22.68 6.01-26.95 3.97-1.69 2.36-5.25 1.69-7.7l-14.63-53.6c-.55-2.02-3.69-6.23-5.24-2.46l-2.77 6.78c-1.58 3.86-4.77 1.71-5.54-.62-1.61-4.85-2.66-8.05.15-18.02 2.22-7.86-2.49-18.7-7.86-18.33z" style="fill-rule:evenodd;fill:#ffe000;stroke:#000"/>
    <path d="M140.93 225.92c14.95 7.95 26.11 18.23 36.96 31.73 2.88 3.59 8.46 2.98 11.71 1.08 4.61-2.69-.04-10.35-2.77-11.86-15.9-8.76-29.77-17.27-43.97-28.19zM139.39 231.93l.46 18.64 25.88 12.63c8.03 3.92 8.31 2.99 4.62-2.46-4.76-7.05-14-19.63-30.96-28.8zM204.18 244.95c-2.76-.73-3.39.89-.81 2.49 9.21 5.7 15.14 17.93 19.34 23.15 3.4 4.23 11.82 2.49 10.37-5.11-2.76-14.46-20.42-18.28-28.91-20.53z" style="fill-rule:evenodd;fill:#e00e00;stroke:#000"/>
    <path d="M257.78 298.02c-.53-.95.55-2.4 2.68-2.17 4.66.48 7.73 1.85 9.66 6.03 1.83 3.95-3.58 10.33-5.57 7.33-2.93-4.4-4.5-7.09-6.77-11.19z" style="fill-rule:evenodd;fill:#e00e00;stroke-miterlimit:4;stroke:#000"/>
    <path d="M269.33 318.83c-.46-1.02.8-2.42 2.91-1.97 4.61.98 6.22 1.8 8.07 5.79 1.89 4.07-3.36 11.2-5.38 8.12-2.18-3.33-3.74-7.83-5.61-11.94zM279.36 341.36c-.43-1.04.55-2.47 2.69-2.26 4.72.48 9.9 4.31 10.58 9.41.59 4.45-4.32 9.79-6.67 6.95-2.57-3.1-4.97-10.19-6.59-14.11zM237.95 435.57c2.93-5.44 8.95-13.89 7.68-29.94-.84-10.58-17.23-12.12-17.6-.08-.27 8.59 4.12 13.72 4.26 27.62.07 7.16 3.71 6.01 5.66 2.4z" style="fill-rule:evenodd;fill:#e00e00;stroke:#000"/>
    <path d="M249.61 184.28c-2.54 1.32-5.64-.98-4.3-3.34 2.21-3.9 10.49-13.19 5.13-14.86-14.74-4.59-39.65-19.44-41.34-13.37-2.49 8.94-15.13 5.65-17.03-.05-1.35-4.04.64-7.68-2.3-9.26l-13.52-7.3c-2.34-1.27-5.24-7.07 1.02-5.41l15.8 4.19c-.09-2.86.57-13.86.57-13.86-24.4-6.45-59.4-22.5-76.87-39.54-2.81-2.74 2.75-3.25 11.9.56 3.53 1.47 10.52 1.88 11.74 4.1 6.51 11.87 34.57 21.88 55.13 26.84l3.3-9.96c-5.7-3.46-14.47-17.11-17.09-23.08-.52-1.18.75-4.88 3.13-2.26 12.2 13.4 25.29 23.03 40.49 26.52 34.83 8 63.41 15.49 91.08 29.6 8.78 4.48 9.54 8.07 5.29 13.84-2.74 3.73-6.71 6.45-6.37 9.87.47 4.68 2.54 4.61 7.56 5.01 4.02.32 14.21-.24 19.47 6.75 3.61 4.8.99 12.66.99 12.66s11.44 2.09 14.74 7.98c2.9 5.17 1.27 13.54 1.27 13.54 9.02 2.39 13.54 8.98 14.7 14.28 1.65 7.56-2.52 12.8-11.99 13.03l7 14.95c.74 1.59.36 2.82-1.64 4.24-27.37 19.6-19.71 33.28-22.35 54.11-1.76 13.84-6.08 25.46-14.79 35.23-2.4 2.69-4.68-1.7-3.27-4.15 1.78-3.08 2.97-9.21 3.08-15.96.11-6.51-11.01-16.22-19.14-25.85-5.84-6.92-7.18-16.9-3.13-23.8 2.18-3.72-3.5-15.64-4.37-18.02l-15.57-42.35c-.72-1.97-3.3-5.21-5.51-1.79l-4.36 6.76c-2.26 3.5-4.83 3.69-5.89 1.47-2.2-4.61-5.04-7.81-3.5-18.05 1.21-8.08-10.08-17.96-13.16-16.36z" style="fill-rule:evenodd;fill:#ffe000;stroke:#000"/>
    <path d="M204.05 114.86c20.8 4.65 33.99 12.09 43.85 23.05 3.08 3.42 6.5 2.12 9.48-.17 4.24-3.25-.99-10.36-3.37-11.16-13.22-4.43-26.88-10.57-47.12-20.23zM203.37 122.54l-.22 15.05c15.16 1.01 23.77 5.18 35.42 9.89 8.12 3.29 8.82 3.14 4.27-3.03-5.16-6.99-16.92-16.71-39.48-21.91zM267.8 123.77c-3.22.38-3.81.86-.49 2.57 10.46 5.38 15.69 12.59 20.97 18.97 4.63 5.59 12.17 1.16 11.23-6.51-1.32-10.73-20.68-16.33-31.71-15.03z" style="fill-rule:evenodd;fill:#e00e00;stroke:#000"/>
    <path d="M321.49 170.61c-.64-.88.24-2.45 2.38-2.49 4.68-.11 11.13 1.32 13.58 5.23 2.31 3.69-3.33 11.31-5.68 8.59-3.46-4-7.51-7.54-10.28-11.33z" style="fill-rule:evenodd;fill:#e00e00;stroke-miterlimit:4;stroke:#000"/>
    <path d="M338.03 190.87c-.59-.95.49-2.5 2.64-2.32 4.7.39 9.17 1.92 11.51 5.65 2.39 3.8-3.92 10.15-6.31 7.34-2.58-3.03-5.47-6.84-7.84-10.67zM350.97 209.65c-.56-.97 1.16-2.37 3.31-2.42 4.75-.12 11.29 5.65 12.6 10.63 1.15 4.34-3.52 9.48-6.21 6.97-2.94-2.75-7.6-11.48-9.7-15.17zM336.69 302.22c2.22-5.77 1.35-18.44-3.92-29.24-3.56-7.29-17.98-5.8-17.04 5.34.73 8.56 13.38 17.32 14.97 23.64 1.57 6.26 4.52 4.09 5.99.26z" style="fill-rule:evenodd;fill:#e00e00;stroke:#000"/>
</svg>
