<svg xmlns="http://www.w3.org/2000/svg" xml:space="preserve" viewBox="30.5 31.5 420 500" height="500" width="420">
    <path d="M440 32.7c2.09 102.46-3.38 187.49-43.93 296.59-28.05 75.48-74.21 144.77-155.57 201.59-81.36-56.82-127.52-126.11-155.57-201.59C44.38 220.19 38.91 135.16 41 32.7c133 .29 266 0 399 0z" style="fill-rule:evenodd;fill:#ffe000"/>
    <path d="M413.52 276.5H400v-50h-29v-50h-29v-50h-29v50h-29v50h-29v50h-29v-50h-29v-50h-29v-50h-29v50h-29v50H81v50H67.48c24.96 84.94 63.75 178.52 173.02 254.29 109.27-75.77 148.06-169.35 173.02-254.29Z" style="fill-rule:evenodd;fill:#000"/>
    <path d="M440 32.7c2.09 102.46-3.38 187.49-43.93 296.59-28.05 75.48-74.21 144.77-155.57 201.59-81.36-56.82-127.52-126.11-155.57-201.59C44.38 220.19 38.91 135.16 41 32.7c133 .29 266 0 399 0z" style="fill:none;stroke:#000"/>
</svg>
