<svg xmlns="http://www.w3.org/2000/svg" width="400" height="500" viewBox="30.5 31.5 400 500" xml:space="preserve">
    <path style="fill:#0085ca;fill-opacity:1" d="M230.45 531.13c-74.32-53.92-125.26-122.02-155.74-208.16-27.64-78.1-38.73-172.75-33.91-289.35l.02-.46h379.82l.02.46c4.81 116.6-6.28 211.24-33.91 289.35-30.48 86.14-81.42 154.24-155.74 208.16l-.28.2z"/>
    <path d="M419.96 33.21c9.07 219.45-36.25 385.95-189.45 497.1C146.04 469.02 94.36 390.9 66.52 296.34a557.24 557.24 0 0 1-5.87-21.54c-11.45-45.69-17.77-95.02-19.88-147.94-1.2-30.06-1.05-61.28.29-93.65h378.9m.92-.95H40.14l-.04.92c-4.82 116.66 6.28 211.36 33.93 289.52 30.51 86.24 81.51 154.41 155.91 208.39l.56.41.56-.41c74.4-53.98 125.4-122.15 155.91-208.39 27.65-78.16 38.75-172.86 33.93-289.52l-.04-.92z"/>
    <path d="M153.5 218.5c-17.814-21.318-38.133-43.854-43.285-56.713-9.26-23.113 4.457-39.603 17.869-51.608l50.02 55.883c.945-27.766-.076-60.008 4.662-73.026C191.281 69.638 212.5 66.5 230.5 66.5v75c21.318-17.814 43.854-38.133 56.713-43.285 23.113-9.26 39.603 4.457 51.608 17.869l-55.883 50.02c27.766.945 60.008-.076 73.026 4.662C379.362 179.281 382.5 200.5 382.5 218.5h-75c17.814 21.318 38.133 43.854 43.285 56.713 9.26 23.113-4.457 39.603-17.869 51.608l-50.02-55.883c-.945 27.766.076 60.008-4.662 73.026C269.719 367.362 248.5 370.5 230.5 370.5v-75c-21.318 17.814-43.854 38.133-56.713 43.285-23.113 9.26-39.603-4.457-51.608-17.869l55.883-50.02c-27.766-.945-60.008.076-73.026-4.662C81.638 257.719 78.5 236.5 78.5 218.5h75" style="fill:#fff;fill-rule:evenodd;stroke:#000;stroke-width:1px;stroke-linecap:butt;stroke-linejoin:miter;stroke-opacity:1"/>
    <path d="m230.5 200.5-18 18 18 18 18-18z" style="fill:#0085ca;fill-opacity:1;fill-rule:evenodd;stroke:#000;stroke-width:1px;stroke-linecap:round;stroke-linejoin:round;stroke-opacity:1"/>
</svg>
