<svg xmlns="http://www.w3.org/2000/svg" width="400" height="500" viewBox="30.5 31.5 400 500" xml:space="preserve">
    <path style="fill:#0085ca" d="M230.222 530.765c-74.32-53.92-125.26-122.02-155.74-208.16-27.64-78.1-38.73-172.75-33.91-289.35l.02-.46h379.82l.02.46c4.81 116.6-6.28 211.24-33.91 289.35-30.48 86.14-81.42 154.24-155.74 208.16l-.28.2-.28-.2z"/>
    <path d="M419.96 33.21c9.07 219.45-36.26 385.95-189.46 497.1C77.31 419.16 31.99 252.66 41.06 33.21h378.9m.92-.95H40.14l-.04.92c-4.82 116.66 6.28 211.36 33.93 289.52 30.51 86.24 81.51 154.41 155.91 208.39l.56.41.56-.41c74.4-53.98 125.4-122.15 155.91-208.39 27.65-78.16 38.75-172.86 33.93-289.52l-.04-.92z"/>
    <path style="fill:#fff;stroke:#000;stroke-width:1;stroke-miterlimit:4;stroke-dasharray:none" d="M205.748 492.003c10.157 4.67-2.07-13.21-11.18-30.637-71.479-136.787-71.541-277.512-69.534-364.197.228-9.983-15.454-17.983-9.522-23.334 6.59-5.93 42.126-5.522 53.21-9.6 4.058-1.497.82-6.246-3.952-7.733-6.545-2.054-19.505-2.514-35.125-.597-15.717 1.934-41.01 6.826-42.86 16.989C60.042 219.688 124.858 454.822 205.762 492ZM258.066 492.002c-10.157 4.67 2.07-13.21 11.18-30.637 71.48-136.787 71.542-277.511 69.534-364.196-.227-9.983 15.455-17.983 9.522-23.335-6.59-5.93-42.125-5.522-53.21-9.6-4.057-1.496-.82-6.245 3.953-7.732 6.545-2.054 19.504-2.514 35.124-.598 15.718 1.935 41.011 6.827 42.86 16.99C403.773 219.686 338.958 454.82 258.053 492Z" transform="translate(-1.407 -1.84)"/>
    <path style="fill:#fff;stroke:#000;stroke-width:1.04557085;stroke-opacity:1" d="M-333.138 278.213v73.99c8.68 5.28 13.45 10.14 13.31 17.65-.21 11.42-20.6 24.27-30.65 36.84-12.8 16.02-19.8 33.38-19.81 51.39-.01 23.12 6.12 45.62 19.81 69.97 19.59 34.83 41.02 90.5 45.51 133.74h9.91c4.49-43.24 25.92-98.91 45.51-133.74 13.7-24.35 19.83-46.85 19.81-69.97-.01-18.01-7.01-35.38-19.81-51.39-10.05-12.57-30.44-25.43-30.65-36.84-.14-7.51 4.63-12.36 13.31-17.65v-73.99c-8.17-4.09-20.6-7.43-33.12-7.43-12.52 0-24.95 3.34-33.13 7.43z" transform="matrix(.9563 0 0 .95653 517.403 -174.14)"/>
    <path style="fill:#0085ca;fill-opacity:1;stroke:#000;stroke-width:1.04557085;stroke-opacity:1" d="M-287.168 538.863c.18-5.89-4.61-11.24-11.14-14.71 2.77-31.01 4.65-46.72 7.46-65.62 1.13-7.61-2.5-13.03-9.16-13.03s-10.29 5.43-9.16 13.03c2.82 18.9 4.69 34.61 7.46 65.62-6.53 3.47-11.33 8.82-11.14 14.71.21 6.46 6.99 10.73 12.84 10.73s12.63-4.27 12.84-10.73z" transform="matrix(.9563 0 0 .95653 517.403 -174.14)"/>
    <path style="fill:none;stroke:#000;stroke-width:1.04557085;stroke-linecap:butt;stroke-linejoin:miter;stroke-miterlimit:4;stroke-dasharray:none;stroke-opacity:1" d="M-300.008 662.099V549.593" transform="matrix(.9563 0 0 .95653 517.403 -174.14)"/>
</svg>
