<svg width="471.58" height="599.53" xmlns="http://www.w3.org/2000/svg">
    <defs>
        <style>
            .a{fill:#d3001b}.b{fill:#ffd800}.c{fill:#0a3d51}
        </style>
    </defs>
    <g stroke-width="13.129">
        <path d="M4.854 0s-58.53 407.59 230.9 599.53C525.184 407.59 466.734 0 466.734 0zm201.31 41.642c10.477 6.092 19.522 12.993 29.565 19.334 10.043-6.341 19.088-13.242 29.59-19.334.027 11.776-1.297 22.77-1.743 34.257 10.437 5.488 20.96 9.86 31.463 15.872-10.424 6.092-20.934 10.549-31.437 16.129.407 11.448 1.718 22.405 1.718 34.129-6.17-3.597-11.854-7.42-17.539-11.359v35.847a10.503 10.503 0 0 0 8.949 10.359 85.848 85.848 0 0 1 68.259 46.771 157.54 157.54 0 0 1 11.744 71.951v42.027a27.715 27.715 0 0 0 11.821 26.026 30.34 30.34 0 0 0 13.436 4.103v27.668a57.858 57.858 0 0 1-26.309-7.283 53.644 53.644 0 0 1-26.591-50.566V295.29c.512-45.753-4.751-90.57-73.361-92.567-68.61 1.983-73.86 46.814-73.361 92.567v42.283a53.644 53.644 0 0 1-26.565 50.566 57.871 57.871 0 0 1-26.334 7.283v-27.668a30.34 30.34 0 0 0 13.436-4.154 27.701 27.701 0 0 0 11.821-26.026v-41.976a157.54 157.54 0 0 1 11.744-71.951 85.848 85.848 0 0 1 68.284-46.771 10.503 10.503 0 0 0 8.923-10.36V130.67c-5.724 3.873-11.355 7.775-17.539 11.359-.026-11.776 1.298-22.796 1.744-34.283-10.424-5.488-20.934-9.873-31.437-15.872 10.424-6.092 20.934-10.523 31.437-16.103-.407-11.448-1.718-22.405-1.718-34.13z" fill="#d3001b"/>
        <path d="M206.17 41.642c0 11.724 1.311 22.681 1.718 34.129-10.503 5.58-21.013 10.011-31.437 16.103 10.503 6 21.013 10.385 31.437 15.872-.446 11.488-1.77 22.507-1.744 34.283 6.184-3.584 11.815-7.486 17.54-11.359v35.847a10.503 10.503 0 0 1-8.924 10.359 85.848 85.848 0 0 0-68.284 46.771 157.54 157.54 0 0 0-11.744 71.951v41.976a27.701 27.701 0 0 1-11.821 26.026 30.34 30.34 0 0 1-13.436 4.154v27.668a57.871 57.871 0 0 0 26.334-7.282 53.644 53.644 0 0 0 26.565-50.566V295.29c-.499-45.753 4.751-90.585 73.361-92.567 68.61 1.995 73.873 46.814 73.361 92.567v42.283a53.644 53.644 0 0 0 26.591 50.566 57.858 57.858 0 0 0 26.309 7.282v-27.668a30.34 30.34 0 0 1-13.436-4.103 27.715 27.715 0 0 1-11.821-26.026v-42.027a157.54 157.54 0 0 0-11.744-71.95 85.848 85.848 0 0 0-68.259-46.772 10.503 10.503 0 0 1-8.949-10.359V130.67c5.685 3.939 11.369 7.762 17.539 11.36 0-11.725-1.311-22.682-1.718-34.13 10.503-5.58 21.013-10.037 31.437-16.129-10.503-6.013-21.025-10.385-31.463-15.872.446-11.488 1.77-22.48 1.744-34.257-10.503 6.092-19.547 12.993-29.591 19.334-10.043-6.34-19.088-13.242-29.565-19.334z" fill="#ffd800"/>
    </g>
</svg>
