<svg xmlns="http://www.w3.org/2000/svg" width="420" height="500" viewBox="30.5 31.5 420 500" xml:space="preserve">
    <path d="M41 32.7c-2.09 102.46 3.38 187.49 43.93 296.59 28.05 75.48 74.21 144.77 155.57 201.59 81.36-56.82 127.52-126.11 155.57-201.59C436.62 220.19 442.09 135.16 440 32.7c-133 .29-266 0-399 0z" style="fill:#e00e00;fill-opacity:1;fill-rule:evenodd"/>
    <path d="M227.789 313.538c-2.71 0-3.865-2.792-5.535-8.486 0 16.023 0 18.499 4.88 18.499H238.5v10.04c0 7.882-2.287 8.838-7.612 12.062-3.905 2.365-19.593 8.52-31.258.326-2.44-1.714-3.97-3.697-6.164-8.251-1.277-2.653-4.656-1.013-3.86 1.201 2.409 6.708 7.55 11.238 13.892 13.557.621 7.087 2.589 15.114 9.99 21.934-14.878 2.564-27.28 10.45-33.533 30.174l-42.16-41.34c4.797-12.455 12.306-17.09 21.65-20.841l-3.9-10.982c-15.945.809-23.426 7.854-30.34 16.709-2.807-5.815-8.472-17.265-8.472-17.265 5.348-6.84 14.561-15.361 28.755-14.854v-4.653c-16.754-.186-25.658 9.327-31.091 15.105l-7.453-11.624c9.63-13.283 20.428-17.867 31.073-17.678v-4.5c-10.094-.085-21.73 2.75-33.573 17.7-1.413-2.886-2.147-4.398-6.034-12.923 3.637-4.457 12.848-19.418 32.02-19.013v-4.592c-16.007.07-24.887 7.334-34.33 18.572-1.174-2.612-2.805-6.668-5.245-12.137 5.297-6.657 14.78-19.217 32.144-18.812v-4.584c-19.472.043-28.475 11.566-34.368 18.886a7661.044 7661.044 0 0 1-7.16-16.169c6.476-10.424 16.27-19.185 36.377-19.43l4.338-20.698 8.828-3.212-1.319-3.526-8.446 3.117c-.994-1.281-4.91-6.03-4.91-6.03l8.857-3.283-1.262-3.51-9.497 3.516-3.948-6.236 9.379-2.515-.983-3.611-10.232 2.66c-.6-1.179-2.975-6.092-2.975-6.092l9.826-2.086-.803-3.684-10.408 2.192-2.212-5.802 9.934-2.17-.8-3.632-10.139 2.15-1.352-6.134 9.5-1.21-.455-3.706-9.407 1.095-.554-5.88 8.998-.588-.261-3.662-8.633.485.105-5.765 8.722-.08-.012-3.74-8.277.027.62-5.595 7.64-.035.027-3.694-7.303-.1.922-5.555 6.379.01-.042-3.784-5.668-.062 1.16-5.649 4.525.077.01-3.768-5.724-.07-27.35-26.72 4.343-4.926 24.28 20.821-21.686-33.736 6.862-4.888L110 105.129l-4.888-29.61 6.683-1.241 6.796 33.549c12.361 11.956 25.173 27.955 32.214 32.26 5.02 3.084 20.342 12.23 26.931 12.71 14.457 1.061 19.373-12.56 62.764-12.56 43.39 0 48.306 13.621 62.764 12.56 6.589-.48 21.911-9.626 26.93-12.71 7.041-4.305 19.853-20.304 32.214-32.26l6.797-33.549 6.683 1.24-4.888 29.61 21.554-34.243 6.862 4.888-21.686 33.736 24.28-20.82 4.343 4.925-27.35 26.72-5.723.07.01 3.768 4.524-.077 1.16 5.649-5.667.062-.042 3.784 6.379-.01.921 5.555-7.303.1.028 3.694 7.64.035.62 5.595-8.277-.027-.012 3.74 8.722.08.105 5.765-8.633-.485-.262 3.662 8.998.589-.553 5.879-9.407-1.095-.456 3.706 9.5 1.21-1.352 6.134-10.139-2.15-.8 3.631 9.934 2.171-2.212 5.802-10.408-2.192-.802 3.684 9.825 2.086s-2.375 4.913-2.974 6.092l-10.232-2.66-.983 3.611 9.379 2.515-3.948 6.236-9.498-3.515-1.262 3.509 8.857 3.282s-3.915 4.75-4.91 6.03l-8.446-3.116-1.318 3.526 8.827 3.212 4.338 20.699c20.107.244 29.902 9.005 36.378 19.43a7661.044 7661.044 0 0 1-7.16 16.168c-5.894-7.32-14.896-18.843-34.368-18.886v4.584c17.364-.405 26.846 12.155 32.143 18.812-2.44 5.469-4.07 9.525-5.244 12.137-9.444-11.238-18.323-18.502-34.331-18.572v4.592c19.173-.405 28.384 14.556 32.02 19.013-3.886 8.525-4.62 10.037-6.033 12.923-11.844-14.95-23.479-17.785-33.574-17.7v4.5c10.645-.19 21.444 4.395 31.074 17.678l-7.453 11.624c-5.433-5.778-14.337-15.29-31.091-15.105v4.653c14.193-.507 23.407 8.015 28.755 14.854 0 0-5.665 11.45-8.473 17.265-6.913-8.855-14.395-15.9-30.339-16.709l-3.9 10.982c9.343 3.751 16.853 8.386 21.65 20.84l-42.16 41.341c-6.253-19.724-18.656-27.61-33.533-30.174 7.4-6.82 9.368-14.847 9.99-21.934 6.341-2.319 11.483-6.849 13.892-13.557.795-2.214-2.583-3.854-3.86-1.201-2.194 4.554-3.725 6.537-6.165 8.25-11.664 8.195-27.352 2.04-31.257-.325-5.326-3.224-7.612-4.18-7.612-12.061V323.55h11.365c4.88 0 4.88-2.476 4.88-18.499-1.67 5.694-2.825 8.486-5.534 8.486H240.5z" style="fill:#ffe000;fill-opacity:1;stroke:#000;stroke-linejoin:round;stroke-opacity:1"/>
    <path style="fill:#e00e00;fill-rule:evenodd;stroke:#000;stroke-width:1px;stroke-linecap:butt;stroke-linejoin:round;stroke-opacity:1;fill-opacity:1" d="m169.765 250.678-15.186 9.446c-2.643 1.644-4.776-1.767-2.458-3.192l22.852-14.049 9.245.06s24.183 7.485 35.268 11.339c1.808.628 2.768 1.015 2.768 3.12v8.726c-4.11 5.304-13.636 9.602-25.008 8.655-11.28-.94-24.155-8.312-27.481-24.105z"/>
    <path d="M188.574 268.557c-7.537-3.228-13.744-9.988-15.18-19.949 0 0 .86-.635 2.54-1.72l7.153-.045c11.575 3.856 25.187 7.086 35.3 11.37l-.027 6.784c-8.766 6.633-20.007 7.694-29.786 3.56z" style="fill:#ffe000;fill-rule:evenodd;stroke:#000;stroke-width:1;stroke-linecap:butt;stroke-linejoin:round;stroke-miterlimit:4;stroke-dasharray:none;stroke-opacity:1;fill-opacity:1"/>
    <path d="m311.235 250.678 15.186 9.446c2.643 1.644 4.775-1.767 2.458-3.192l-22.852-14.049-9.245.06s-24.183 7.485-35.269 11.339c-1.808.628-2.767 1.015-2.767 3.12v8.726c4.109 5.304 13.635 9.602 25.008 8.655 11.28-.94 24.154-8.312 27.48-24.105z" style="fill:#e00e00;fill-rule:evenodd;stroke:#000;stroke-width:1px;stroke-linecap:butt;stroke-linejoin:round;stroke-opacity:1;fill-opacity:1"/>
    <path style="fill:#ffe000;fill-rule:evenodd;stroke:#000;stroke-width:1;stroke-linecap:butt;stroke-linejoin:round;stroke-miterlimit:4;stroke-dasharray:none;stroke-opacity:1;fill-opacity:1" d="M292.425 268.557c7.537-3.228 13.745-9.988 15.18-19.949 0 0-.859-.635-2.539-1.72l-7.153-.045c-11.576 3.856-25.187 7.086-35.3 11.37l.027 6.784c8.766 6.633 20.007 7.694 29.785 3.56z"/>
    <path d="M41 32.7c-2.09 102.46 3.38 187.49 43.93 296.59 28.05 75.48 74.21 144.77 155.57 201.59 81.36-56.82 127.52-126.11 155.57-201.59C436.62 220.19 442.09 135.16 440 32.7c-133 .29-266 0-399 0z" style="fill:none;stroke:#000"/>
    <path style="fill:#e00e00;fill-opacity:1;stroke:#000;stroke-opacity:1" d="m328.822 184.23-5.264-4.089 27.477-28.5 18.273-38.296 2.34 1.165-17.39 42.235z"/>
    <path d="M291.909 248.977c4.048 16.96-19.794 23.477-25.795 8.252" style="fill:#e00e00;fill-opacity:1;fill-rule:evenodd;stroke:#000;stroke-width:1px;stroke-linecap:butt;stroke-linejoin:miter;stroke-opacity:1"/>
    <path style="fill:#ffe000;fill-opacity:1;fill-rule:evenodd;stroke:#000;stroke-width:1;stroke-linecap:butt;stroke-linejoin:miter;stroke-miterlimit:4;stroke-dasharray:none;stroke-opacity:1" d="M288.243 250.064c2.502 12.17-14.637 16.5-18.552 5.934"/>
    <path d="M264.954 371.416c4.85-4.701 7.69-10.382 8.55-17.837-14.563 2.092-27.391-3.794-33.004-10.484-5.613 6.69-18.442 12.576-33.005 10.484.86 7.455 3.7 13.136 8.55 17.837 6.209 6.019 17.103 8.391 24.455 8.391 7.351 0 18.246-2.373 24.454-8.39z" style="fill:#ffe000;fill-opacity:1;fill-rule:evenodd;stroke:#000;stroke-width:1px;stroke-linecap:butt;stroke-linejoin:miter;stroke-opacity:1"/>
    <path d="m152.177 184.23 5.264-4.089-27.476-28.5-18.274-38.296-2.34 1.165 17.39 42.235z" style="fill:#e00e00;fill-opacity:1;stroke:#000;stroke-opacity:1"/>
    <path style="fill:#e00e00;fill-opacity:1;fill-rule:evenodd;stroke:#000;stroke-width:1px;stroke-linecap:butt;stroke-linejoin:miter;stroke-opacity:1" d="M189.09 248.977c-4.048 16.96 19.814 23.439 25.815 8.213"/>
    <path d="M192.756 250.064c-2.502 12.17 14.715 16.54 18.63 5.973" style="fill:#ffe000;fill-opacity:1;fill-rule:evenodd;stroke:#000;stroke-width:1;stroke-linecap:butt;stroke-linejoin:miter;stroke-miterlimit:4;stroke-dasharray:none;stroke-opacity:1"/>
    <path d="M189.68 248.625c.898.193 1.774.844 2.661 1.09" style="fill:none;fill-rule:evenodd;stroke:#e00e00;stroke-width:1.10849559px;stroke-linecap:butt;stroke-linejoin:miter;stroke-opacity:1"/>
    <path style="fill:none;fill-rule:evenodd;stroke:#e00e00;stroke-width:1px;stroke-linecap:butt;stroke-linejoin:miter;stroke-opacity:1" d="M291.331 248.678c-.903.203-1.824.667-2.697.898"/>
    <path d="M269.123 255.733c-.905.23-1.788.663-2.662.973" style="fill:none;fill-rule:evenodd;stroke:#e00e00;stroke-width:1.0673393px;stroke-linecap:butt;stroke-linejoin:miter;stroke-opacity:1"/>
    <path style="fill:none;fill-rule:evenodd;stroke:#e00e00;stroke-width:1.05313921px;stroke-linecap:butt;stroke-linejoin:miter;stroke-opacity:1" d="M211.98 255.72c.872.233 1.733.65 2.575.964"/>
</svg>
