<svg xmlns="http://www.w3.org/2000/svg" width="400" height="500" viewBox="30.5 31.5 400 500" xml:space="preserve">
    <path style="fill:#0085ca;fill-opacity:1" d="M230.67 530.86C156.35 476.94 105.41 408.84 74.93 322.7 47.29 244.6 36.2 149.95 41.02 33.35l.02-.46h379.82l.02.46c4.81 116.6-6.28 211.24-33.91 289.35-30.48 86.14-81.42 154.24-155.74 208.16l-.28.2-.28-.2z"/>
    <path style="fill:#fff;fill-rule:evenodd;stroke:none;stroke-width:1px;stroke-linecap:butt;stroke-linejoin:miter;stroke-opacity:1" d="M359.134 384.876 218.028 270.93c-15.359-12.403-34.505-30.953-46.395-44-20.249-22.217-30.823-37.11-45.96-59.028-14.37-20.81-28.168-48.909-47.42-64.703-6.14-5.037-14.34-11.137-18.297-9.802-4.624 1.56 3.61 19.05 10.253 19.816l6.917.797c6.681.77 15.232 28.127 18.053 37.337 5.594 18.27 9.615 35.577 16.772 54.02 9.73 25.07 27.446 51.733 44.435 68.394 12.11 11.877 25.017 22.553 39.642 34.258l141.435 113.189c7.844-11.335 14.98-23.556 21.671-36.332z"/>
    <path d="m384.744 327.165-112.69-91c-15.359-12.403-34.504-30.953-46.395-44-20.249-22.217-30.823-37.11-45.96-59.028-14.37-20.81-28.168-48.909-47.42-64.703-6.14-5.036-14.34-11.137-18.297-9.802-4.624 1.56 3.61 19.051 10.254 19.816l6.917.797c6.68.77 15.232 28.127 18.052 37.338 5.594 18.268 9.615 35.577 16.772 54.019 9.73 25.07 27.446 51.733 44.435 68.395 12.11 11.876 25.017 22.552 39.643 34.257l117.771 94.252c6.409-13.447 12.14-26.894 16.918-40.341z" style="fill:#fff;fill-rule:evenodd;stroke:none;stroke-width:1px;stroke-linecap:butt;stroke-linejoin:miter;stroke-opacity:1"/>
    <path d="M419.96 33.21c9.07 219.45-36.26 385.95-189.46 497.1C77.31 419.16 31.99 252.66 41.06 33.21h378.9m.92-.95H40.14l-.04.92c-4.82 116.66 6.28 211.36 33.93 289.52 30.51 86.24 81.51 154.41 155.91 208.39l.56.41.56-.41c74.4-53.98 125.4-122.15 155.91-208.39 27.65-78.16 38.75-172.86 33.93-289.52l-.04-.92z"/>
    <path d="M359.134 384.876 218.028 270.93c-15.359-12.403-34.505-30.953-46.395-44-20.249-22.217-30.823-37.11-45.96-59.028-14.37-20.81-28.168-48.909-47.42-64.703-6.14-5.037-14.34-11.137-18.297-9.802-4.624 1.56 3.61 19.05 10.253 19.816l6.917.797c6.681.77 15.232 28.127 18.053 37.337 5.594 18.27 9.615 35.577 16.772 54.02 9.73 25.07 27.446 51.733 44.435 68.394 12.11 11.877 25.017 22.553 39.642 34.258l141.435 113.189" style="fill:none;fill-rule:evenodd;stroke:#000;stroke-width:1px;stroke-linecap:butt;stroke-linejoin:miter;stroke-opacity:1"/>
    <path style="fill:none;fill-rule:evenodd;stroke:#000;stroke-width:1px;stroke-linecap:butt;stroke-linejoin:miter;stroke-opacity:1" d="m384.744 327.165-112.69-91c-15.359-12.403-34.504-30.953-46.395-44-20.249-22.217-30.823-37.11-45.96-59.028-14.37-20.81-28.168-48.909-47.42-64.703-6.14-5.036-14.34-11.137-18.297-9.802-4.624 1.56 3.61 19.051 10.254 19.816l6.917.797c6.68.77 15.232 28.127 18.052 37.338 5.594 18.268 9.615 35.577 16.772 54.019 9.73 25.07 27.446 51.733 44.435 68.395 12.11 11.876 25.017 22.552 39.643 34.257l117.771 94.252"/>
</svg>
