<svg xmlns="http://www.w3.org/2000/svg" xml:space="preserve" viewBox="30.5 31.5 400 500" height="500" width="400">
    <path d="M230.45 531.13c-74.32-53.92-125.26-122.02-155.74-208.16-27.64-78.1-38.73-172.75-33.91-289.35l.02-.46h379.82l.02.46c4.81 116.6-6.28 211.24-33.91 289.35-30.48 86.14-81.42 154.24-155.74 208.16l-.28.2-.28-.2z" fill="#0085ca"/>
    <path d="M419.96 33.21c9.07 219.45-36.25 385.95-189.45 497.1C146.04 469.02 94.36 390.9 66.52 296.34a557.24 557.24 0 0 1-5.87-21.54c-11.45-45.69-17.77-95.02-19.88-147.94-1.2-30.06-1.05-61.28.29-93.65h378.9m.92-.95H40.14l-.04.92c-4.82 116.66 6.28 211.36 33.93 289.52 30.51 86.24 81.51 154.41 155.91 208.39l.56.41.56-.41c74.4-53.98 125.4-122.15 155.91-208.39 27.65-78.16 38.75-172.86 33.93-289.52l-.04-.92z"/>
    <path d="M219.14 426.03c3.1-10.38 17.37-24.18 17.59-27.6l.91-14.18c.17-2.7-4.02-4.99-3.94-9.1.11-6.08 4.77-6.38 5.23-9.4.56-3.67-1.11-4.56-2.65-6.67-1.54 4.18-3.38 8.25-6.52 11.83l-5.16-10.01-2.43 6.22c3.95 5.45.14 11.72-1.97 13.04-3.14 3.13-5.66 6.78-7.58 10.92 2.09 6.92-.47 14.16-3.49 18.28.44-4.45-.87-8.61-2.65-12.06-.99 8.48-3.25 17.8-6.07 23.81-4.65.16-8.27.69-9.93 8.8-2.96-2.8-4.5-8.2-1.06-12.44-2.48-1.91-5.03-6.14-7.43-5.16-3.06 1.24-4 3.64-5.61 6.67-2.33-6.81.16-10.63 3.49-14.71-.96-1.13-1.29-2.15-3.19-2.88-2.74-1.06-5.31.06-7.96 1.37 2.05-4.93 1.62-10.33 14.41-8.19 8.39 1.4 8.01-4.15 18.43-4.63 5.63-.26 9.05-8.09 11.22-11.91-1.95-1.86-3.76-6.77 1.97-10.01 2.42-1.37 3.08-7.13 3.19-10.01l-8.65 7.43c-19.12-14.34-45.57-16.94-64.38-36.1-10.25-10.43-18.63-36.91-18.88-55.36-.17-12.3.28-19.38-4.7-27.3-3.39-5.38-8.87-8.14-13.5-7.74-8.08.71-14.58 2.96-22.98 5.69-2.74.89-5.68-1.58-5.95-3.68-2.24.9-3.43 2.1-4.66 3.75-2.62-5.88 1.21-10.15 5.46-12.44 7.87-4.24 11.59-4.55 18.58-8.72 4.56-2.72 7.13-5.87 11.11-9.4 3.5-3.1 6.03-7.18 12.86-9.71 29.75-11.03 40 17.32 41.71 25.25 3.53 16.4 10.45 22.19 14.86 24.49 2.51-28.42-17.91-50.15-29.12-59.99-9.68-8.49-23.14-16.47-29.04-25.48-2.23-3.4-2-6.98-2.2-10.47-10.94-5.61-18.28-14.62-23.66-25.63-3.22-6.59-5.6-13.82-7.58-20.32-15.65-13.96-22.97-30.73-23.39-49.73 4.87 3.38 10.11 8.17 14.41 13.95.28-5.4.54-9.14 3.03-15.09 4.73 4.63 8.97 9.6 12.29 15.24 1.41-4.02 3.73-7.85 6.98-11.68 2.47 2.01 5.15 4.67 7.43 8.49 1.51-3.03 3.1-6.06 6.52-8.8 2.78 3.79 5.54 8.95 6.9 13.35 1.9-3.2 4.75-6.2 9.48-8.8 1.96 4.28 3.41 8.49 4.1 12.59 2.02-3.24 5.06-5.22 8.04-7.28 1.08 4.35 1.9 8.7 1.97 13.04 2.7-1.69 5.74-2.96 9.25-3.64.46 5.46.74 10.92 0 16.38 3.19-1.82 6.37-2.87 9.56-3.49.32 5.92.32 12.36-1.97 18.28 2.33-1.67 5.36-2.83 9.1-3.49l-2.58 16.46 7.74-1.37-1.52 11.22c2.31-1.07 5.09-1.68 8.42-1.74-.09 3.2-.64 6.23-1.74 9.02 2.26-.44 4.59-.6 7.05-.23-.06 3.04-.37 6.03-1.44 8.87 2.48-1.07 4.95-1.56 7.43-1.21.61 3.34.9 6.52.3 9.25 2.96-1.58 6.14-2.77 9.71-3.34.05 3.18.31 6.41-.61 9.4 3.29-1.54 6.83-2.7 10.92-3.03.14 2.76.53 5.93-.53 8.49 3.36-1.28 6.72-1.59 10.09-1.67-.59 2.84-.98 5.82-2.73 7.89 3.62-.45 5.81-1.25 11.68-.76-1.41 3.3-2.46 7.34-5.31 9.4 4.27-.35 8.54-.6 12.82.83-.25 2.66-.99 5.2-2.05 7.66 3.04-.15 5.96-.3 8.8-.46 7.49-14.31 7.05-30.31 13.2-46.41 3.59-9.39 10.34-16.37 15.62-16.08 11.09-20.23 28.94-35.15 49.44-43.53l14.11-5.76c23.15-22.38 47.59-22.82 69.62-22.45a83.728 83.728 0 0 1-18.05 13.04c4.79.88 9.56 2.82 13.95 6.37-4.82 4.69-10.45 8.35-16.68 11.22 5.12.7 9.99 2.95 14.71 7.28a65.218 65.218 0 0 1-16.99 6.83c4.5 2.58 8.97 5.18 12.29 8.95-6.81 2.23-13.62 4.42-20.63 5.46 2.82 2.6 5.37 5.24 6.98 8.04-5.91 2.02-11.94 3.28-18.05 4.1 3.42 2.31 4.9 5.16 6.52 7.89-5.16.68-10.31.47-15.47.15 2.11 2.1 3.65 4.29 4.85 6.52-3.94.91-7.89 1.06-11.83.76 2.7 2.08 4.13 5.13 4.7 7.74-4.51 1.01-9.15.39-13.8-.61 1.84 2.48 2.96 4.95 3.79 7.43-3.34 1.47-6.67 1.5-10.01 1.06 1.58 2.48 3.24 4.95 3.64 7.43-3.89.82-7.79.59-11.68 0 2.69 2.22 4.19 4.88 5.26 7.1-3.46 1.31-6.11 1.44-9.66 1.85 2.13 2.44 4.18 4.9 5.31 7.74-2.78 1.14-5.56 1.27-8.34 1.21 2.46 2.53 4.76 5.11 6.22 8.04-2.46 1.76-5.07 2.63-7.74 3.19 2.09 2.57 3.86 4.75 5.76 7.89-2.4 1.38-5.17 2.64-7.89 3.34 2.52 2.24 5.35 4.42 7.13 7.28-2.78 1.91-6.11 3.17-8.19 4.02 2.1 1.45 4.52 3.89 5.92 5.99-1.31 1.34-4.06 3.85-5.95 4.53 2.28 1.32 4.57 4.7 5.68 6.24-1.87 1.74-4.53 2.79-7.07 3.6 2.07 1.76 4.87 4.74 6.41 7.59-1.86 2.32-4.64 3.28-7.02 4.16 1.78 2 3.96 4.95 4.92 7.56-2.45 1.4-4.75 1.9-7.13 2.28 1.45 3.24 2.92 6.47 3.19 9.71-2.47.6-5.06.36-7.74-.46 1.12 3 2.19 8.18 1.85 11.52-2.16.25-5.17-.19-7-.6.52 3.76 1.08 7.55.61 10.92-1.88.01-4.03.2-6.14-.81.3 3.54.9 6.22-.08 9.76-2.34-.06-5.22-.88-7.27-2.65.11 4.4-.5 8.58-1.68 10.99 2.61 2.45 5.5 4.48 6.9 7.58l13.73.46 44.74 22.45c-7.4 2.25-15.31 3.91-24.12 4.55 4.85 3.19 13.87 9.14 16.23 13.8-12.02-.34-23.8-2.16-35.26-5.61 3.38 3.49 4.65 6.22 7.05 9.71-17.54-5.13-35.09-11.89-52.63-18.81-5.85 5.15-10.21 11.13-14.26 17.29l-3.64-6.22c-1.27 1.57-2.87 3.57-2.96 6.29-.06 1.91 4.39 4.15 4.32 9.02-.08 6.06-4.29 7.28-4.25 11.22l.15 14.26c.06 5.21 9.98 4.54 7.36 17.9-1.27-2.49-3.24-3.94-5.31-5.23l3.56 20.7c7.09-.04 1.5 12.55-1.21 14.41-.17-3.39-.54-6.78-2.12-10.16-2.13-4.54-6.94-6.25-8.95-2.12-1.43 2.94-2.1 6.07-5.01 8.65-2.65-2.98-4.31-8.72-3.79-14.11-4.78 1.67-9.17 3.99-10.96 10.65-3.98-3.11-5.98-11.65 2.62-14.37z" style="fill-rule:evenodd;fill:#fff;stroke-linecap:round;stroke-linejoin:round;stroke-miterlimit:4;stroke:#000"/>
    <path d="M190.17 403.36c2.23-2.37 7.82-6.18 10.92-6.6m35.41 15.92h0M236.5 412.68c-2.41 3.58-3.39 10.13-3.41 14.56M263.57 347.85c20.53.77 41.48 1.34 64.61.91" style="fill:none;stroke-linecap:round;stroke-miterlimit:4;stroke:#000"/>
    <path d="M309.15 356.95c-5.72-2.14-9.74-5.13-13.73-8.04" style="fill:none;stroke-miterlimit:4;stroke:#000"/>
    <path d="M286.93 313.72c-2.82.15-5.64.24-8.27-.61-.19 3.82-.62 7.61-2.81 11.22-3.49-.28-5.65-1.99-7.43-3.45-1.05 3.57-1.59 7.18-4.7 10.58-3.18-1.27-4.36-3.3-6.14-5.46-.25 4.03-.77 8.16-4.02 11.91-4.29-1.97-5.85-5.12-7.58-8.76-.2 4.17-1.07 8.22-4.25 12.1-5.88-7.87-11.02-16.32-15.47-25.33v-9.78" style="fill:none;stroke-linecap:round;stroke-linejoin:round;stroke-miterlimit:4;stroke:#000"/>
    <path d="M226.26 315.92c-4.46-1.25-8.78-2.98-13.04-4.93m122.4-146.66h0M335.62 164.33c-2.06-.24-4.12-1.32-5.29-2.12M341.84 155.83c-1.91-.19-4.55-1.05-5.72-1.89M350.94 148.7c-3.66-.29-6.88-.94-9.56-2.05M357.91 141.42c-5.32-.34-11.14-.59-13.95-2.05M366.86 133.38c-6.46.42-14.56-.35-19.05-2.41M377.93 121.25c-6.67 1.02-18.34 1.61-24.44-.12M386.28 106.84c-12.31 3.45-20.17 4.75-29.46 6.13M388.55 92.74c-10.68 4.91-21.43 8.06-32.05 9.94M391.28 75.14c-11.86 7.3-25.15 13.41-36.18 16.06M186.83 153.86l-1.82 2.55M181.22 145.21c-.95 1.55-3.55 3.98-5.32 5.73M174.54 137.93c-1.07 2.44-2.55 4.57-4.44 6.36M168.33 128.08c-1.93 4.02-4.12 6.59-6.37 8.82M161.8 115.11c-1.37 4.36-3.46 8.42-5.64 12.45M154.22 100.32c-1.49 6.32-3.36 12.48-6.53 18.13M144.97 87.58c-.12 8.26-1.9 16.13-4.14 23.9M134.96 81.82c.28 8.78-.11 17.51-2.29 26.12M121.38 78.02c2.17 9.47 2.73 18.94 2.6 28.41M107.96 73.47c4.17 10.6 5.55 20.6 5.51 29.85M93.55 76.66c4.92 7.99 8.74 16.2 10.38 24.84M78.23 76.51c7.11 8.5 13.78 17.08 17.98 26.07M78.88 240.96c12.03-4.72 26.51-7.9 32.88-7.65" style="fill:none;stroke-linecap:round;stroke-miterlimit:4;stroke:#000"/>
    <path d="m97.16 224.5 7.77 2.92-3.64 4.25 10.47 1.64-8.61 1.2 6.9 4.32m11.22-20.97 5.46-.34m-5.46.34 5.46-.34m-5.46.34 5.46-.34M121.27 217.86l5.46-.34c.86-1.78 2.96-2.55 5.25-2.71 2.6-.18 5.08 1.1 6.23 2.75.4 0 2.89.34 3.3.34" style="fill:none;stroke-linecap:round;stroke-linejoin:round;stroke-miterlimit:4;stroke:#000"/>
    <circle r="2.27" cy="218.96" cx="132.65"/>
    <path d="M126.73 217.52c-.79 3.33 2.27 6.81 5.8 7.01 4.01.23 6.64-3.74 5.69-6.98M178.79 254.19c7.08 2.96 14.97 3.82 18.44 8.29" style="fill:none;stroke-miterlimit:4;stroke:#000"/>
    <path d="M190.59 270.09c9.25-7.9 9.79-13.53 12.98-19.84 9.79.72 37.45-25.9 43.78-53.93" style="fill:none;stroke-miterlimit:4;stroke:#000"/>
    <path d="m263.57 347.85-14.75-.15" style="fill:none;stroke-linecap:round;stroke-miterlimit:4;stroke:#000"/>
</svg>
