<svg xmlns="http://www.w3.org/2000/svg" xml:space="preserve" viewBox="30.5 31.5 400 500" height="500" width="400">
    <path fill="#e00e00" d="M230.45 531.13c-74.32-53.92-125.26-122.02-155.74-208.16-27.64-78.1-38.73-172.75-33.91-289.35l.02-.46h379.82l.02.46c4.81 116.6-6.28 211.24-33.91 289.35-30.48 86.14-81.42 154.24-155.74 208.16l-.28.2-.28-.2z" style="fill-opacity:1;fill:#32ac60"/>
    <path d="M419.96 33.21c9.07 219.45-36.25 385.95-189.45 497.1C146.04 469.02 94.36 390.9 66.52 296.34a557.24 557.24 0 0 1-5.87-21.54c-11.45-45.69-17.77-95.02-19.88-147.94-1.2-30.06-1.05-61.28.29-93.65h378.9m.92-.95H40.14l-.04.92c-4.82 116.66 6.28 211.36 33.93 289.52 30.51 86.24 81.51 154.41 155.91 208.39l.56.41.56-.41c74.4-53.98 125.4-122.15 155.91-208.39 27.65-78.16 38.75-172.86 33.93-289.52l-.04-.92z"/>
    <path style="fill:#000;fill-rule:evenodd;stroke:none;stroke-width:.25;stroke-linecap:butt;stroke-linejoin:miter;stroke-opacity:1" d="M272.838 360.305c-4.799 9.854-11.535 30.795-11.384 38.397.087 4.352 7.357 15.218 7.357 15.218-3.87.233-7.74.323-11.608-2.902 1.562 18.609 2.5 32.464 1.6 45.02-.56 7.822-9.028-2.624-13.31-2.778-13.05-.471-18.084 4.881-20.117 9.66-.581 1.365-4.838 1.704-4.497.03.797-3.915.53-8.938-.979-11.925-1.366-2.706-5.278-5.674-6.012-6.748-3.761-5.504-16.232-.891-20.82 1.363-.189-3.403 1-10.373 15.57-16.757 29.071-12.738 33.506-17.09 35.985-22.055 6.738-13.497 8.254-31.97 9.985-49.66M221.85 341.88c-9.39 11.54-20 23.19-39.816 23.615-23.904.513-29.616-6.602-42.152-6.602-5.937 0-10.15 1.923-7.567 6.957 4.21-.336 7.726.642 10.208 3.048 2.41 2.335 5.204 8.24 5.078 10.004-.25 3.533-6.418 6.822-7.363 9.09-.89 2.137-1.619 7.832 2.488 5.486 2.616-1.495 5.247-1.987 9.65-1.32 4.206.636 14.495 6.756 14.32 18.536-.062 4.228-1.584 7.487-.558 13.051 10.543-11.188 22.072-23.482 30.623-41.237 1.907 2.37 4.151 6.649 7.77 6.805 4.755-24.995 19.138-35.69 28.491-40.882-3.884-2.03-7.6-4.237-11.173-6.551z"/>
    <path style="fill:#fff;fill-rule:evenodd;stroke:#000;stroke-width:1;stroke-linecap:round;stroke-linejoin:round;stroke-miterlimit:4;stroke-dasharray:none;stroke-opacity:1" d="M301.067 142.165c-16.625 34.19-35.457 87.247-74.727 88.51-9.287.3-19.614-13.088-19.153-25.827 1.306-36.082 74.001-52.12 74.001-103.021 0-14.946-15.593-47.883-40.628-47.883-8.314 0-17.051 3.993-26.698 6.31l.681 28.142c2.496 3.618 5.784 7.61 17.02 7.046 9.307-.466 24.81-1.546 24.958 14.946.115 12.865-34.418 29.22-50.35 44.545-17.41 16.748-37.566 39.95-38.826 55.756-.456 5.725-1.358 9.77-3.978 10.265-6.55-5.322-8.474-11.62-8.706-25.973-.221-13.612 7.742-38.548 4.062-43.675-21.422-29.844-38.047-60.466-46.432-99.83-13.646 5.505-13.383 22.696-11.608 41.355-5.55-2.98-23.669-26.395-28.44-35.115-9.826 16.165 7.051 40.667 13.93 47.303-11.38-2.515-20.92-9.5-29.6-18.573-.767 14.968 1.115 30.895 44.4 61.813-13.833.86-27.858-1.151-42.079-6.094.599 10.534 3.17 35.022 42.95 47.593-6.469 4.37-17.43 6.268-31.632 6.384 4.908 10.547 9.378 21.256 46.723 19.734-8.17 9.46-22.12 13.75-37.581 16.686 6.244 4.633 6.623 10.866 28.73 11.173-5.366 4.074-10.739 8.145-17.993 11.463 13.07 10.2 26.485 7.592 39.177 6.094-5.362 9.573-13.166 18.913-22.78 25.393 16.975 9.916 30.884.552 45.27-5.804-5.563 14.02-12.156 23.234-18.862 31.922 13.972 1.328 21.309-6.468 29.31-13.35 1.482 10.167-1.688 17.396-7.545 22.926 6.825 1.501 13.844-1.506 23.216-15.525 30.558 24.657 56.378 55.057 113.613 55.573 9.626.087 20.285-.039 30.181-7.69-5.551-3.104-9.564-6.428-9.722-10.302 15.355 1.292 19.88-2.83 25.538-6.385-6.794-1.505-12.837-.385-21.04-6.82 9.94-6.354 21.726 3.003 32.358-21.33-13.35-2.11-27.453 3.662-40.048-6.384 1.467-3.498 5.424-8.615 6.094-12.188-5.43-12.204-17.586-25.176-11.608-34.389 8.18 7.306 16.159 29.555 30.907 23.942-3.427-8.67-3.915-12.578-3.918-17.412 5.615 6.18 10.997 12.693 26.408 4.933-5.415-6.676-15.564-10.984-14.8-20.75 10.588 2.824 19.289 5.034 26.408 1.307-9.276-5.885-14.856-12.205-17.557-18.864 25.838.802 28.533-1.55 32.503-10.011-18.714-6.582-37.365-13.227-50.785-25.103 24.47-.147 53.241 3.098 60.797-22.055-27.103 3.3-26.502-1.12-31.197-4.063 29.478-7.06 34.389-17.947 34.389-29.6-11.913 5.056-29.843 14.78-38.017 9.286 11.182-9.213 44-19.375 43.82-53.107-9.657 3.04-16.48 10.406-27.568 9.867 0 0 18.573-19.443 20.894-32.212 2.322-12.769-2.902-12.769-2.902-12.769-9.706 23.326-58.03 51.801-91.558 81.837z"/>
    <path style="fill:#000;fill-rule:evenodd;stroke:none;stroke-width:.25;stroke-linecap:butt;stroke-linejoin:miter;stroke-opacity:1" d="M207.697 59.829c-5.483.308-5.748 1.67-14.176 4.17-8.172 2.423-23.68 5.891-26.873 10.684-2.096 3.147-.876 11.018 1.217 6.396 2.45-5.412 23.702-6.507 37.93-4.26-5.492 4.469-25.127 11.842-29.872 12.811-5.448 1.113-4.137 2.962 1.156 3.344 5.098.368 24.14-5.476 37.512-4.29l-.075-19.148c-.235-2.35 2.47-1.937 5.208-1.979 1.293-.02 3.16 3.74 6.188 3.74 3.725 0 4.27-2.115 5.235-3.918 1.361-2.544 5.852-1.816 6.09-3.446l-7.922.231c-1.795.053-5.118.42-6.253.42-.888 0-6.102.694-9.084.67l.062-5.523c-1.663-.11-4.013-.035-6.344.098z"/>
</svg>
