<svg xmlns="http://www.w3.org/2000/svg" xml:space="preserve" viewBox="30.5 31.5 400 500" height="500" width="400">
    <path d="M230.45 531.13c-74.32-53.92-125.26-122.02-155.74-208.16-27.64-78.1-38.73-172.75-33.91-289.35l.02-.46h379.82l.02.46c4.81 116.6-6.28 211.24-33.91 289.35-30.48 86.14-81.42 154.24-155.74 208.16l-.28.2z" style="fill:#0085ca"/>
    <path d="M419.96 33.21c9.07 219.45-36.25 385.95-189.45 497.1C146.04 469.02 94.36 390.9 66.52 296.34a557.24 557.24 0 0 1-5.87-21.54c-11.45-45.69-17.77-95.02-19.88-147.94-1.2-30.06-1.05-61.28.29-93.65h378.9m.92-.95H40.14l-.04.92c-4.82 116.66 6.28 211.36 33.93 289.52 30.51 86.24 81.51 154.41 155.91 208.39l.56.41.56-.41c74.4-53.98 125.4-122.15 155.91-208.39 27.65-78.16 38.75-172.86 33.93-289.52l-.04-.92z"/>
    <path style="fill:#fff;fill-opacity:1;stroke:#000;stroke-width:1;stroke-linecap:round;stroke-linejoin:round;stroke-miterlimit:4;stroke-dasharray:none;stroke-opacity:1" d="M84.3 148.966c4.11 3.828 11.206 4.062 17.736 5.566.261 14.75 1.005 24.652-2.52 30.906-3.935 6.984-13.805 4.236-14.185 5.38-.473 2.142 5.987 4.769 11.993 2.77 8.733-2.908 12.798-12.92 12.047-38.511 35.59 3.113 56.259 2.483 64.54 12.465 12.715 15.328 29.507 28.752 44.861 42.014 5.152 4.45-4.118 21.867-7.363 34.996-1.038 4.2-3.12 13.543-3.306 20.015-.178 6.185.956 7.546 5.394 7.307 9.544-.513 17.953-1.522 22.96-1.798 4.724-.26 3.736 1.82 2.499 4.503-8.373 18.164-12.997 26.396-14.425 44.303-.182 2.287.523 4.635 6.55 4.183 13.16-.988 17.523-3.094 17.262 3.746-.587 15.356-1.538 36.56-12.6 38.002-10.637 1.387-52.645 2.58-69.349 8.993-8.532 3.277-8.807 4.298-5.89 9.206 7.67 12.905 26.212 21.533 35.92 34.928 4.603 6.352 8.805 24.85 14.4 33.617 4.913 7.695 5.309 7.213 10.35 2.731 7.427-6.604 14.271-17.57 20.04-30.596 7.359-16.62 14.074-35.2 23.362-45.63 13.565-15.234 27.815-29.815 39.338-51.011 1.814-3.337 15.036-1.418 30.178-1.559 2.342-.022 2.593-1.054 3.032-2.002 7.274-15.694.974-42.409-2.743-62.743-.825-4.515 17.344-6.499 25.888-9.357 3.925-1.313 4.084-2.571 3.762-4.417-9.354-53.56-43.112-66.661-35.603-75.992 10.9-13.545 31.87-38.717 40.921-52.04 4.649-6.842 3.017-8.344 1.102-10.295-11.078-11.286-37.583-23.249-63.215-26.874-20.763-2.937-40.6-1.614-50.131-4.309-21.884-6.188-46.986-11.462-63.834-11.906-15.252-.402-29.83 1.36-43.227 4.26-44.636 9.658-76.181 33.256-76.091 45.996.026 3.654 2.23 3.222 3.323 3.238.602 1.987 1.7 3.98 3.141 5.395.758-2.13 1.579-3.884 3.142-5.395h4.185c.602 1.987 1.7 3.98 3.141 5.395.758-2.13 1.579-3.884 3.142-5.395h4.185c.602 1.987 1.7 3.98 3.142 5.395.757-2.13 1.578-3.884 3.14-5.395h4.186c.602 1.987 1.7 3.98 3.142 5.395.757-2.13 1.578-3.884 3.141-5.395h4.185c.602 1.987 1.7 3.98 3.142 5.395.757-2.13 1.578-3.884 3.141-5.395h4.185c3.082 0 6.441 5.244 6.223 9.056-8.622-2.09-23.484-3.483-37.885.759-5.268 1.552-14.595.06-18.645-.534-6.532-.957-12.915 2.188-13.667 3.938-.57 1.329 3.973-.73 10.777.322 5.086.786 12.99 3.539 21.148 2.593 5.418-.628 12.799-2.32 18.183-2.195 8.092.186 13.029 1.775 19.271 3.546-.981 4.012-5.637 7.23-8.992 7.23h-4.185c-1.563-1.512-2.384-3.266-3.141-5.396-1.441 1.414-2.54 3.408-3.142 5.395h-4.185c-1.563-1.511-2.384-3.265-3.141-5.395-1.441 1.414-2.54 3.408-3.142 5.395h-4.185c-1.563-1.511-2.384-3.265-3.142-5.395-1.44 1.414-2.54 3.408-3.141 5.395H90.44c-1.563-1.511-2.384-3.265-3.142-5.395-1.44 1.414-2.54 3.408-3.141 5.395l-1.948.067c-2.09.073.735 3.872 2.09 5.134z"/>
    <path style="opacity:1;fill:#fff;fill-opacity:1;stroke:#000;stroke-width:1;stroke-miterlimit:4;stroke-dasharray:none;stroke-opacity:1" d="M148.62 93.233a6.695 6.448 0 0 1-13.389 0 6.695 6.448 0 1 1 13.39 0z"/>
</svg>
