<svg width="524" height="640" xmlns="http://www.w3.org/2000/svg" xmlns:xlink="http://www.w3.org/1999/xlink">
    <defs>
        <path id="a" d="M58.99 0h522.02c0 273.51-10.74 388.83-260.54 640C69.73 388.83 58.99 272.91 58.99 0"/>
        <path id="b" d="M452.2 252.98c-13.06-14.1-28.01-21.06-40.3-19-21.65-11.17-39.96-12.45-54.65-3.95-15.3 8.85-26.12 28.19-32.4 57.75v-66.86c-.08-8.59 1.29-15.12 1.64-16.41v-.08c5.07-21.66 14.18-37.64 26.21-44.69 9.71-5.67 20.88-5.33 33.34.95.01.05.07.46.08.51.17 1.03 2.92 11.09 31.11 38.67 12.03 11.77 20.62 18.39 27.84 21.05 5.24 1.98 7.82 1.46 9.62.61 1.81-.86 2.84-1.9 2.84-1.9-3.09-3.09-27.84-33.85-32.57-41.5 8.68 3.27 18.48 7.39 26.81 8.68.23.03 2.09.31 2.32.34 12.81 1.98 20.37-2.49 20.63-2.75.26-.16 1.61-.99 4.03-2.49-2.42-1.49-3.77-2.32-4.03-2.49-.95-.6-24.32-14.95-41.77-22.26-17.18-7.21-33.25-7.3-43.73-.34-14.27-7.48-27.59-7.99-38.84-1.46-11 6.36-19.68 19.25-25.35 36.61 4.29-34.72 13.83-53.54 20.79-67.2 1.29-.34 10.91-3.95 35.92-33.69 10.91-12.97 16.93-22.16 19.25-29.81 1.72-5.59 1.2-8.25.34-10.14-.86-1.89-1.8-2.92-1.8-2.92-2.84 3.35-31.54 30.16-38.67 35.23 2.92-9.2 6.53-19.59 7.56-28.36.03-.25.23-2.24.26-2.49 1.55-13.58-2.92-21.31-3.09-21.57-.17-.28-1-1.68-2.5-4.21-1.39 2.63-2.16 4.09-2.32 4.38-.51 1.03-13.57 25.95-20.1 44.43-6.53 18.47-6.11 35.57 1.03 46.4-8.08 15.64-19.42 37.98-22.86 82.49-3.35-19.93-8.94-36.86-16.67-50.7-8.16-14.52-17.01-22.85-23.89-27.92.86-12.98-6.79-27.76-20.88-40.3-14.35-12.72-37.38-27.67-38.32-28.28-.27-.17-1.62-1.03-4.04-2.57-.11 2.99-.16 4.65-.17 4.98 0 .34-.35 9.45 7.39 20.45.13.2 1.23 1.78 1.37 1.98 4.98 7.13 12.98 14.26 19.85 20.79-8.68-.68-46.14-9.19-50.18-10.65 0 0-.35 1.46-.26 3.44.17 2.14.94 4.72 5.07 8.67 5.67 5.42 15.21 10.32 30.76 15.9 36.44 13.15 46.15 10.91 47.18 10.66.05-.02.46-.16.51-.18 6.28 4.82 14.27 12.55 21.57 25.61 7.65 13.66 13.06 30.59 16.33 50.53.43 3 .77 7.3.86 12.03v34.03c-5.67-24.32-15.73-46.32-31.28-56.12-14.35-9.1-31.37-7.04-50.44 6.02-12.12-4.3-28.19.6-43.22 13.4-14.61 12.38-32.91 33.34-33.69 34.2-.21.24-1.27 1.45-3.18 3.61 2.73.67 4.25 1.04 4.56 1.12.34.09 8.76 2.15 20.45-3.78.21-.1 1.93-.93 2.15-1.03 7.64-3.78 15.81-10.74 23.2-16.59-2.32 8.77-17.36 45.89-19.42 49.76 0 0 1.2.68 3.18.94 1.97.26 4.55-.08 9.02-3.52 6.1-4.81 12.54-13.66 20.71-28.7 15.89-29.05 18.47-41.16 18.82-45.11 17.44-11.95 32.74-14.01 45.37-5.93 16.07 10.22 24.66 33.94 28.95 52.07 2.24 9.28 3.87 19.42 4.82 29.56v44.94c-2.41-6.19-5.59-10.14-9.63-12.03-6.44-3.09-14.52-.43-23.97 7.82-12.38-3.44-28.1 2.75-42.28 16.58-13.75 13.49-30.5 35.75-31.28 36.7-.19.25-1.17 1.54-2.92 3.86 2.79.47 4.33.72 4.64.78.35.08 8.94 1.46 20.2-5.33.2-.12 1.85-1.09 2.06-1.21 7.39-4.38 15.04-11.85 22-18.3-1.72 8.94-14.18 47.09-15.99 51.13 0 0 1.29.6 3.27.69 2.06.08 4.55-.43 8.76-4.21 5.85-5.25 11.6-14.61 18.74-30.25 13.74-29.99 15.55-42.28 15.72-46.32 5.76-5.07 13.41-10.05 19.16-7.3 4.56 2.15 9.8 9.88 11.6 32.82v194.98c3.27.94 6.45.94 9.63 0V349.04c3.35-30.5 11.25-48.72 22.34-50.61 9.88-1.72 22.25 10.06 31.36 29.22-.01.03-.15.31-.17.34-.43.95-4.47 10.48.6 50.61 2.15 17.19 4.81 27.93 8.77 34.89 2.92 4.98 5.15 6.36 7.13 6.88 1.89.51 3.26.42 3.26.42-.51-4.46-1.03-44.76 0-53.79 4.73 8.34 9.8 18.05 15.47 24.58.16.19 1.47 1.7 1.63 1.89 8.68 10.14 17.19 11.6 17.62 11.69.31.05 1.86.31 4.64.77-.98-2.78-1.52-4.33-1.63-4.64-.43-1.12-9.71-27.76-18.74-45.11-8.93-17.02-21.31-27.84-33.51-29.48-10.31-22.17-24.75-35.31-37.12-33.17-7.3 1.21-15.81 7.74-21.57 28.27v-.08c4.13-46.83 15.73-76.13 34.72-87.13 12.8-7.39 28.96-6.36 48.12 3.09-.17 3.18.34 15.21 13.49 47.78 6.44 15.89 11.77 25.6 17.27 31.1 4.04 4.04 6.53 4.73 8.59 4.64 1.98 0 3.27-.51 3.27-.51-1.63-4.13-12.29-42.88-13.66-51.9 6.61 6.7 14 14.6 21.14 19.33.19.13 1.77 1.16 1.97 1.29 11 7.3 19.59 6.36 19.94 6.36l4.64-.6-2.84-4.04c-10.94-16.04-20.79-28.76-29.56-38.15z"/>
    </defs>
    <path fill="none" d="M-1-1h526v642H-1z"/>
    <use x="-58.011" y=".989" fill="#003057" xlink:href="#a"/>
    <use x="-58.011" y=".989" fill-opacity="0" stroke="#000" stroke-opacity="0" xlink:href="#a"/>
    <use x="-58.011" y=".989" fill="#C8C9C7" xlink:href="#b"/>
    <use x="-58.011" y=".989" fill-opacity="0" stroke="#000" stroke-opacity="0" xlink:href="#b"/>
</svg>
