<svg xmlns="http://www.w3.org/2000/svg" width="400" height="500" viewBox="30.5 31.5 400 500" xml:space="preserve">
    <path style="fill:#e00e00" d="M230.45 531.13c-74.32-53.92-125.26-122.02-155.74-208.16-27.64-78.1-38.73-172.75-33.91-289.35l.02-.46h379.82l.02.46c4.81 116.6-6.28 211.24-33.91 289.35-30.48 86.14-81.42 154.24-155.74 208.16l-.28.2z"/>
    <path d="M419.96 33.21c9.07 219.45-36.25 385.95-189.45 497.1C146.04 469.02 94.36 390.9 66.52 296.34a557.24 557.24 0 0 1-5.87-21.54c-11.45-45.69-17.77-95.02-19.88-147.94-1.2-30.06-1.05-61.28.29-93.65h378.9m.92-.95H40.14l-.04.92c-4.82 116.66 6.28 211.36 33.93 289.52 30.51 86.24 81.51 154.41 155.91 208.39l.56.41.56-.41c74.4-53.98 125.4-122.15 155.91-208.39 27.65-78.16 38.75-172.86 33.93-289.52l-.04-.92z"/>
    <path style="fill:#ffe000;fill-opacity:1;stroke:#000;stroke-width:1;stroke-miterlimit:4;stroke-dasharray:none;stroke-opacity:1" d="M217.78 218.132c-7.617-4.194-9.034-6.17-15.104-2.436-6.708 4.127-9.305 5.362-14.473 9.323-11.683 8.954-20.45 13.94-32.284 18.489-4.819 1.853-13.207 5.033-18.37 3.467l2.85-4.653c-7.536 1.923-22.13-.235-29.435-6.915l4.024-3.759c-5.968-2.622-15.418-11.443-17.322-17.82l5.201-2.735c-6.536-4.728-13.308-13.874-14.331-19.363l4.624-2.1c-6.37-4.119-12.07-13.877-13.885-18.787l5.19-1.28c-4.457-3.55-10.315-10.886-12.732-17.719l4.224-.453c-4.314-3.218-8.954-11.419-9.645-15.277l3.94-.421c-3.46-2.794-8.925-11.928-10.238-17.138 5.122-1.625 15.764-1.784 19.96-.311l-1.714-3.572c3.645-1.442 13.06-1.81 18.066.165l-1.837-3.83c7.082-1.54 16.403-.418 21.766 1.504l-1.642-5.087c5.131-1.04 16.429-1.326 23.283 1.924l-.647-5.038c5.206-2.017 16.546-1.07 24.007 2l-.411-5.862c6.425-1.735 18.898 1.66 24.268 5.356l1.079-5.4c9.524 2.698 19.038 13.974 21.368 21.394l2.457-4.87c4.048 3.565 5.756 12.371 6.716 17.444 2.358 12.458 1.513 23.842.045 38.488-.65 6.478-4.148 18.462-4.128 26.338.017 7.126.688 8.566 8.296 12.778 6.032 3.34 5.479-5.169 9.554-5.169s3.522 8.509 9.554 5.169c7.608-4.212 8.279-5.652 8.296-12.778.02-7.876-3.479-19.86-4.128-26.338-1.468-14.646-2.313-26.03.045-38.488.96-5.073 2.668-13.88 6.716-17.445l2.457 4.871c2.33-7.42 11.844-18.696 21.368-21.394l1.08 5.4c5.37-3.695 17.842-7.09 24.267-5.356l-.41 5.863c7.46-3.071 18.8-4.018 24.006-2l-.647 5.037c6.854-3.25 18.152-2.964 23.283-1.924l-1.642 5.087c5.363-1.922 14.684-3.044 21.766-1.505l-1.837 3.831c5.006-1.976 14.421-1.607 18.066-.165l-1.715 3.572c4.197-1.473 14.839-1.314 19.961.31-1.313 5.211-6.777 14.345-10.237 17.139l3.94.421c-.692 3.858-5.332 12.059-9.646 15.277l4.224.453c-2.417 6.833-8.275 14.168-12.731 17.719l5.19 1.28c-1.816 4.91-7.516 14.668-13.886 18.787l4.624 2.1c-1.023 5.489-7.795 14.635-14.331 19.363l5.201 2.735c-1.904 6.377-11.354 15.198-17.322 17.82l4.024 3.759c-7.305 6.68-21.9 8.838-29.436 6.915l2.85 4.653c-5.162 1.566-13.55-1.614-18.369-3.467-11.834-4.55-20.601-9.535-32.284-18.49-5.168-3.96-7.765-5.195-14.473-9.322-6.07-3.734-7.487-1.758-15.104 2.436-7.223 3.977 3.778 9.797.731 14.297-2.491 3.68-10.273-1.327-10.293 6.19-.025 9.483-.52 15.032 6.26 18.832 7.491 4.199 15.547 6.498 22.062 9.318 14.73 6.376 26.022 11.614 36.638 20.472 4.322 3.607 11.804 9.908 13.052 15.657l-5.945-.245c5.832 6.158 11.523 21.205 9.038 31.71l-5.717-1.84c.67 7.078-2.716 20.76-7.78 25.96l-5.366-3.503c-1.034 8.736-6.152 20.04-10.836 23.928l-4.455-3.29c-.543 8.255-6.812 18.864-10.526 23.2l-3.974-4.265c-1.016 6.13-4.894 15.603-10.12 21.532l-2.674-3.783c-.775 5.817-6.124 14.59-9.432 17.296l-2.492-3.529c-.825 4.779-6.625 14.832-10.891 18.849-4.266-4.017-10.066-14.07-10.89-18.849l-2.493 3.53c-3.308-2.707-8.657-11.48-9.432-17.297l-2.674 3.783c-5.226-5.929-9.104-15.403-10.12-21.532l-3.974 4.264c-3.714-4.335-9.983-14.944-10.526-23.198l-4.455 3.29c-4.684-3.888-9.802-15.193-10.836-23.93l-5.367 3.504c-5.063-5.2-8.45-18.882-7.78-25.96l-5.716 1.84c-2.485-10.505 3.206-25.552 9.038-31.71l-5.945.245c1.248-5.749 8.73-12.05 13.052-15.657 10.616-8.858 21.907-14.096 36.638-20.472 6.515-2.82 14.57-5.12 22.062-9.318 6.78-3.8 6.285-9.349 6.26-18.832-.02-7.517-7.802-2.51-10.293-6.19-3.047-4.5 7.954-10.32.731-14.297z"/>
</svg>
