<svg xmlns="http://www.w3.org/2000/svg" xml:space="preserve" viewBox="30.5 31.5 400 500" height="500" width="400">
    <path style="fill:#ffe000;fill-opacity:1" fill="#0085ca" d="M230.45 531.13c-74.32-53.92-125.26-122.02-155.74-208.16-27.64-78.1-38.73-172.75-33.91-289.35l.02-.46h379.82l.02.46c4.81 116.6-6.28 211.24-33.91 289.35-30.48 86.14-81.42 154.24-155.74 208.16l-.28.2-.28-.2z"/>
    <path d="M419.96 33.21c9.07 219.45-36.25 385.95-189.45 497.1C146.04 469.02 94.36 390.9 66.52 296.34a557.24 557.24 0 0 1-5.87-21.54c-11.45-45.69-17.77-95.02-19.88-147.94-1.2-30.06-1.05-61.28.29-93.65h378.9m.92-.95H40.14l-.04.92c-4.82 116.66 6.28 211.36 33.93 289.52 30.51 86.24 81.51 154.41 155.91 208.39l.56.41.56-.41c74.4-53.98 125.4-122.15 155.91-208.39 27.65-78.16 38.75-172.86 33.93-289.52l-.04-.92z"/>
    <path style="fill:#000;fill-opacity:1;stroke:none;stroke-width:.95732421;stroke-opacity:1" d="M210.995 87.565c-.967-6.311-31.048-8.103-42.411-8.477-2.001-.067-4.433-1.886-4.835-3.628l-9.506.555c12.914-11.354 32.965-4.069 50.188-8.405 9.228-9.487 16.334-9.458 23.485-9.248 21.856.642 22.538 13.269 30.512 22.526-1.953.68-3.695.23-5.409-.345.69 5.16.87 11.12.44 15.624-1.767-.212-3.701-.996-5.408-2.269-.173 5.186-.69 12.672-1.671 16.005-1.82-1.58-3.7-4.214-4.6-5.79-.805 4.97-1.926 10.302-3.318 13.677-2.175-1.245-3.687-3.092-5.037-4.882-13.125 16.963-21.226 33.882-21.159 49.515.105 23.675 25.733 19.625 44.267 40.419 1.302 1.455 3.6 1.33 4.537.526 40.218-34.665 93.058-82.078 116.522-85.556 16.13-2.39 23.684 22.712 22.242 38-5.61 59.463-35.452 133.98-51.87 199.05-6.395-24.976 10.605-77.473 6.881-80.584-3.408-2.853-9.702 28.058-15.992 45.29-5.85-18.897 6.334-61.011 4.563-62.677-4.787-4.5-9.43 25.46-14.58 42.53-8.127-18.803 4.46-50.99-1.323-56.56-1.695-1.638-19.122 47.624-36.852 71.815-3.666-.842-6.088-3.14-8.376-5.59-10.215 29.619 18.354 59.582 48.682 80.366 0 0-13.773-2.965-19.939-5.052 4.663 4.509 8.943 9.76 12.788 14.949l-20.638-8.142c4.542 6.184 10.627 12.777 13.342 19.006l-59.193-35.12c-9.42 6.184-12.646 14.867-11.526 22-17.385-14.456-8.845 19.26-.172 23.923-20.248 1.819-6.625 20.075 1.398 26.891-8.511-.306-15.662 7.467-16.064 13.623-1.877-7.104-8.731-16.62-19.903-6.634-4.5-13.623-9.391-13.633-16.236-11.699 49.982-31.477 32.683-83.69 30.03-87.308-6.69 9.42-19.94 5.265-21.472 17.988-7.879-17.241-21.702 10.933-14.666 24.44-16.246-.957-21.138 12.14-18.505 29.86-2.45-4.05-9.727-7.123-16.064-4.538 2.441-11.268-4.26-17.72-12.043-17.29 3.178-6.174 1.043-12.962-6.29-15.891 36.216 1.819 55.286-26.508 66.352-53.256-6.193-10.66-15.728-25.727-20.687-33.797l-5.15 11.97c-14.58-15.853-28.924-49.446-40.067-73.427-.21 24.976.452 63.96-5.857 74.997-4.2-12.47-5.841-26.35-7.883-32.065-1.116-3.125-3.135-3.98-3.096 1.352.045 5.924 6.126 30.975.85 48.347-7.222-14.407-9.725-36.054-12.534-44.191-1.089-3.156-3.465-2.335-3.36.603.304 8.43 8.34 42.069 2.282 66.114-27.35-82.515-32.214-145.218-40.092-214.228-6.016-26.584 16.782-29.346 33.468-13.966 19.36 17.843 47.977 49.75 69.613 60.52-.179-50.509 47.265-63.222 41.342-101.866z"/>
    <path style="fill:#ffe000;fill-opacity:1;stroke:none" d="M229.153 71.117c-.573 3.71-11.44 2.566-11.108-1.17.344-3.86 11.7-2.665 11.108 1.17z"/>
</svg>
