<svg xmlns="http://www.w3.org/2000/svg" xml:space="preserve" viewBox="30.5 31.5 400 500" height="500" width="400">
    <path d="M230.44 531.14C156.12 477.22 105.18 409.12 74.7 322.98c-27.64-78.1-38.73-172.75-33.91-289.35l.02-.46h379.82l.02.46c4.81 116.6-6.28 211.24-33.91 289.35-30.48 86.14-81.42 154.24-155.74 208.16l-.28.2-.28-.2z" style="fill:#e00e00;fill-opacity:1"/>
    <path style="fill:#ffe000;fill-rule:evenodd;stroke:#000;stroke-width:1px;stroke-linecap:round;stroke-linejoin:round;stroke-opacity:1;fill-opacity:1" d="M279.5 360.537c0-18.592-5.456-25.993-17-37.537l-19-19s8.134-8.532 12-12.5c10.795-11.08 25.356-30.59 27-33.695 2.28-4.307-2.22-8.652-6-6.305-2.219 1.377-19.253 12.253-33 26l-13 13-13-13c-13.747-13.747-30.781-24.623-33-26-3.78-2.347-8.28 1.998-6 6.305 1.644 3.105 16.205 22.615 27 33.695 3.866 3.968 12 12.5 12 12.5l-19 19c-11.544 11.544-17 18.945-17 37.537 0 25.864 18.6 50.963 49 50.963s49-25.099 49-50.963zm-49-57.037 2 2c2.576 2.576 3.294 5.562 3.294 7.51 0 1.325 0 3.75-2.294 6.49l18.107 19.163c6.778 6.942 10.288 14.145 10.232 23.106-.077 12.34-9.919 29.67-31.339 30.731-21.42-1.06-31.262-18.391-31.34-30.731-.055-8.961 3.455-16.164 10.233-23.106L227.5 319.5c-2.294-2.74-2.294-5.165-2.294-6.49 0-1.948.718-4.934 3.294-7.51l2-2"/>
    <path d="M419.96 33.21c9.07 219.45-36.26 385.95-189.46 497.1C77.31 419.16 31.99 252.66 41.06 33.21h378.9m.92-.95H40.14l-.04.92c-4.82 116.66 6.28 211.36 33.93 289.52 30.51 86.24 81.51 154.41 155.91 208.39l.56.41.56-.41c74.4-53.98 125.4-122.15 155.91-208.39 27.65-78.16 38.75-172.86 33.93-289.52l-.04-.92z"/>
    <path d="m230.5 290.5 13 13.5" style="fill:none;fill-rule:evenodd;stroke:#000;stroke-width:1px;stroke-linecap:butt;stroke-linejoin:miter;stroke-opacity:1"/>
    <path style="fill:none;fill-rule:evenodd;stroke:#000;stroke-width:1px;stroke-linecap:butt;stroke-linejoin:round;stroke-opacity:1" d="m217.5 304 6.86-7.124 6.14 6.624"/>
    <path d="M331.482 100.956c-16.176 9.166-19.925 17.561-24.278 33.296l-7.163 25.898s-11.433-2.871-16.792-4.278c-14.961-3.93-39.114-6.98-42.627-6.88-4.871.14-6.432 6.197-2.527 8.329 2.292 1.251 20.152 10.71 38.89 15.893l17.72 4.901-4.902 17.72c-5.183 18.737-6.248 38.92-6.352 41.529-.178 4.446 5.82 6.22 8.443 2.112 1.891-2.962 11.687-25.249 16.005-40.103 1.547-5.32 4.96-16.603 4.96-16.603l25.897 7.164c15.735 4.353 24.864 5.45 41.04-3.715 22.502-12.75 35.17-41.306 20.182-67.756-14.987-26.45-45.993-30.258-68.496-17.507zm-25.467 70.75.754-2.725c.97-3.512 3.215-5.608 4.91-6.569 1.152-.653 3.263-1.849 6.777-1.203l7.746-25.202c2.698-9.32 7.234-15.924 15.058-20.293 10.774-6.016 30.704-5.997 42.187 12.116 9.638 19.16-.589 36.266-11.286 42.417-7.77 4.466-15.766 4.963-25.148 2.488l-25.599-6.306c-1.252 3.346-3.363 4.542-4.516 5.195-1.694.96-4.646 1.808-8.157.837l-2.726-.754" style="fill:#ffe000;fill-rule:evenodd;stroke:#000;stroke-width:1px;stroke-linecap:round;stroke-linejoin:round;stroke-opacity:1;fill-opacity:1"/>
    <path style="fill:none;fill-rule:evenodd;stroke:#000;stroke-width:1px;stroke-linecap:butt;stroke-linejoin:miter;stroke-opacity:1" d="m294.704 178.115 5.337-17.965"/>
    <path d="m312.858 182.77-9.58-2.456 2.737-8.607" style="fill:none;fill-rule:evenodd;stroke:#000;stroke-width:1px;stroke-linecap:butt;stroke-linejoin:round;stroke-opacity:1"/>
    <path style="fill:#ffe000;fill-rule:evenodd;stroke:#000;stroke-width:1px;stroke-linecap:round;stroke-linejoin:round;stroke-opacity:1;fill-opacity:1" d="M129.475 100.956c16.175 9.166 19.924 17.561 24.277 33.296l7.163 25.898s11.433-2.871 16.792-4.278c14.961-3.93 39.114-6.98 42.627-6.88 4.871.14 6.432 6.197 2.527 8.329-2.292 1.251-20.152 10.71-38.89 15.893l-17.72 4.901 4.902 17.72c5.184 18.737 6.248 38.92 6.352 41.529.178 4.446-5.82 6.22-8.443 2.112-1.891-2.962-11.687-25.249-16.005-40.103-1.547-5.32-4.96-16.603-4.96-16.603l-25.897 7.164c-15.735 4.353-24.864 5.45-41.039-3.715-22.503-12.75-35.17-41.306-20.183-67.756 14.987-26.45 45.994-30.258 68.496-17.507Zm25.467 70.75-.755-2.725c-.97-3.512-3.215-5.608-4.91-6.569-1.152-.653-3.263-1.849-6.777-1.203l-7.746-25.202c-2.698-9.32-7.234-15.924-15.058-20.293-10.774-6.016-30.704-5.997-42.187 12.116-9.637 19.16.589 36.266 11.286 42.417 7.77 4.466 15.766 4.963 25.148 2.488l25.599-6.306c1.252 3.346 3.363 4.542 4.516 5.195 1.694.96 4.646 1.808 8.157.837l2.727-.754"/>
    <path d="m166.252 178.115-5.337-17.965" style="fill:none;fill-rule:evenodd;stroke:#000;stroke-width:1px;stroke-linecap:butt;stroke-linejoin:miter;stroke-opacity:1"/>
    <path style="fill:none;fill-rule:evenodd;stroke:#000;stroke-width:1px;stroke-linecap:butt;stroke-linejoin:round;stroke-opacity:1" d="m148.098 182.77 9.58-2.456-2.736-8.607"/>
</svg>
