<svg xmlns="http://www.w3.org/2000/svg" id="svg2" version="1.1" x="0" y="0" width="400" height="500" viewBox="30.5 31.5 400 500" xml:space="preserve">
    <defs id="defs6">
        <style id="style3999">
            .cls-1{fill:#3585c6}.cls-3{fill:#6d6e71}
        </style>
    </defs>
    <path style="fill:#0085ca;fill-opacity:1" id="path8" d="M230.45 531.13c-74.32-53.92-125.26-122.02-155.74-208.16-27.64-78.1-38.73-172.75-33.91-289.35l.02-.46h379.82l.02.46c4.81 116.6-6.28 211.24-33.91 289.35-30.48 86.14-81.42 154.24-155.74 208.16l-.28.2-.28-.2z"/>
    <path style="fill:#fff;stroke:#000;stroke-width:1.02413094;stroke-miterlimit:4;stroke-dasharray:none;stroke-opacity:1" d="M135.48 39.757c98.897 227.836 27.867 423.36 27.867 423.36s51.806-103.853 182.6-85.575c45.776-258.23-210.468-337.785-210.468-337.785Z" data-name="Path 87" id="Path_87"/>
    <path id="path10" d="M419.96 33.21c9.07 219.45-36.25 385.95-189.45 497.1C146.04 469.02 94.36 390.9 66.52 296.34a557.24 557.24 0 0 1-5.87-21.54c-11.45-45.69-17.77-95.02-19.88-147.94-1.2-30.06-1.05-61.28.29-93.65h378.9m.92-.95H40.14l-.04.92c-4.82 116.66 6.28 211.36 33.93 289.52 30.51 86.24 81.51 154.41 155.91 208.39l.56.41.56-.41c74.4-53.98 125.4-122.15 155.91-208.39 27.65-78.16 38.75-172.86 33.93-289.52l-.04-.92z"/>
</svg>
