<svg xmlns="http://www.w3.org/2000/svg" width="400" height="500" viewBox="30.5 31.5 400 500" xml:space="preserve">
    <path d="M230.55 531.13c74.32-53.92 125.26-122.02 155.74-208.16 27.64-78.1 38.73-172.75 33.91-289.35l-.02-.46H40.36l-.02.46c-4.81 116.6 6.28 211.24 33.91 289.35 30.48 86.14 81.42 154.24 155.74 208.16l.28.2.28-.2z" fill="#32ac60"/>
    <path d="M41.04 33.21c-9.07 219.45 36.25 385.95 189.45 497.1 84.47-61.29 136.15-139.41 163.99-233.97a557.24 557.24 0 0 0 5.87-21.54c11.45-45.69 17.77-95.02 19.88-147.94 1.2-30.06 1.05-61.28-.29-93.65H41.04m-.92-.95H420.86l.04.92c4.82 116.66-6.28 211.36-33.93 289.52-30.51 86.24-81.51 154.41-155.91 208.39l-.56.41-.56-.41c-74.4-53.98-125.4-122.15-155.91-208.39C46.38 244.54 35.28 149.84 40.1 33.18l.04-.92z"/>
    <path d="M239.26 252.04c1.76 16.55 21.67 27.15 29.19 28.97 14.64 3.54 20.19 17.46 19.6 25.92-.39 5.63-1.78 5.63-4.14 9.37-4.84 7.65 1.87 18.91-2.4 50.32-2.78 20.51-16.75 33.47-23.74 37.9-6.9 4.37-10.9 5.3-18.73 8.93-4.69 2.17-4.38 5.06-8.54 5.06-4.15 0-3.85-2.89-8.54-5.06-7.83-3.63-11.83-4.56-18.73-8.93-6.99-4.43-20.96-17.39-23.74-37.9-4.26-31.4 2.44-42.67-2.4-50.32-2.36-3.73-3.75-3.74-4.14-9.37-.59-8.46 4.96-22.38 19.6-25.92 7.52-1.82 27.42-12.42 29.19-28.97.61-5.71.65-17.21.65-17.21.1-8.97-2.06-12.54-6.9-18.58 0 0-7.77-8.08-12.4-11.46-13.44-9.82-34.67-2.2-41.07 2.14-12.46 8.46-26.5 3.21-32.37-2.9-3.9-4.07-2.98-5.1-4.15-9.36-2.41-8.72-15.26-11.33-35.65-35.59-13.32-15.85-13.53-34.9-12.11-43.05 1.4-8.05 3.4-11.63 5.98-19.87 1.54-4.93-.8-6.65 1.99-9.72 2.79-3.08 4.73-.91 9.48-2.92 7.95-3.36 11.33-5.7 19.2-7.87 7.98-2.2 26.96-3.83 44.02 7.89 26.12 17.95 29.96 30.48 38.87 32.04 4.35.76 5.29-.26 9.72 3.23 6.66 5.25 13.23 18.71 6.02 31.94-3.71 6.79-6.69 26.79 1.84 41.08 2.85 4.77 7.63 11.49 15.63 11.49s12.79-6.72 15.63-11.49c8.53-14.29 5.54-34.29 1.84-41.08-7.22-13.22-.64-26.69 6.02-31.94 4.43-3.49 5.36-2.47 9.72-3.23 8.91-1.56 12.75-14.09 38.87-32.04 17.06-11.72 36.04-10.09 44.02-7.89 7.88 2.17 11.25 4.51 19.2 7.87 4.76 2.01 6.69-.15 9.48 2.92 2.79 3.08.45 4.79 1.99 9.72 2.58 8.24 4.58 11.82 5.98 19.87 1.42 8.16 1.21 27.2-12.11 43.05-20.39 24.26-33.24 26.87-35.65 35.59-1.18 4.26-.25 5.29-4.15 9.36-5.87 6.12-19.91 11.36-32.37 2.9-6.4-4.35-27.63-11.96-41.07-2.14-4.64 3.39-12.4 11.46-12.4 11.46-4.83 6.04-7 9.61-6.9 18.58 0 0 .05 11.5.65 17.21z" style="fill-rule:evenodd;fill:#ffe000"/>
</svg>
