<svg xmlns="http://www.w3.org/2000/svg" width="400" height="500" viewBox="30.5 31.5 400 500" xml:space="preserve">
    <path style="fill:#32ac60" d="M230.56 531.14c74.32-53.92 125.26-122.02 155.74-208.16 27.64-78.1 38.73-172.75 33.91-289.35l-.02-.46H40.37l-.02.46c-4.81 116.6 6.28 211.24 33.91 289.35 30.48 86.14 81.42 154.24 155.74 208.16l.28.2.28-.2z"/>
    <path d="M41.04 33.21C31.97 252.66 77.3 419.16 230.5 530.31c153.19-111.15 198.51-277.65 189.44-497.1H41.04m-.92-.95H420.86l.04.92c4.82 116.66-6.28 211.36-33.93 289.52-30.51 86.24-81.51 154.41-155.91 208.39l-.56.41-.56-.41c-74.4-53.98-125.4-122.15-155.91-208.39C46.38 244.54 35.28 149.84 40.1 33.18l.04-.92z"/>
    <path style="fill:#ffe100;fill-opacity:1;stroke:#000;stroke-width:1;stroke-opacity:1;stroke-miterlimit:4;stroke-dasharray:none;stroke-linejoin:round;stroke-linecap:round" d="M255.43 208.492c2.914-1.316 7.895-11.091 9.305-11.937 1.88-1.034 14.38 1.128 16.542-.47 2.256-1.598 6.016-12.689 7.426-14.287 1.88-2.067 11.748-.751 12.876-2.161.94-1.128.564-14.569-.282-15.227-3.007-2.067-5.357-3.007-10.62-6.297 12.124.658 19.267 4.512 21.147 4.042 1.598-.376 8.835-5.358 8.93-7.332.093-1.88-6.486-12.5-8.46-12.688-13.159-1.598-36.186-1.128-54.044 1.316 16.26-13.535 32.05-13.817 46.149-12.407 2.35.188 11.56-9.869 10.527-10.997-4.982-5.263-10.057-10.433-12.689-10.057-10.715 1.316-35.998 10.245-56.77 26.411 10.34-19.737 22.746-31.862 36.656-32.238 1.222-.94 3.948-12.219 3.196-13.253-1.41-.751-11.279-5.92-13.159-5.075-15.226 6.673-28.478 24.531-35.904 41.45.846-13.16.94-29.137 2.914-42.014 1.786-11.843 5.358-21.054 5.452-22.087.188-3.102-11.467-13.441-13.629-13.441-1.974 0-13.816 10.245-13.628 13.44.094 1.034 3.665 10.245 5.45 22.088 1.88 12.877 2.069 28.855 2.915 42.013-7.426-16.918-20.772-34.776-35.904-41.449-1.88-.846-11.75 4.324-13.159 5.075-.752 1.034 1.974 12.313 3.196 13.253 13.91.376 26.317 12.595 36.656 32.238-20.772-16.166-46.055-25.095-56.77-26.41-2.726-.283-7.707 4.793-12.689 10.056-1.034 1.128 8.177 11.185 10.527 10.997 14.005-1.41 29.889-1.128 46.149 12.407-17.858-2.444-40.885-2.914-54.044-1.316-1.974.282-8.553 10.809-8.46 12.688.095 1.974 7.332 6.956 8.93 7.332 1.88.376 9.117-3.384 21.148-4.042-5.264 3.29-7.708 4.136-10.621 6.297-.846.564-1.222 14.005-.282 15.227 1.128 1.41 10.997.094 12.876 2.161 1.41 1.598 5.264 12.689 7.426 14.287 2.161 1.598 14.662-.658 16.542.47 1.41.846 6.485 10.62 9.305 11.936 2.255 1.034 10.62-1.033 17.952-2.82-1.598 6.486-2.82 12.971.188 17.389 6.767 10.057 14.004 10.527 21.711 13.252 5.264 1.88 9.305-14.756 5.264-15.226-10.34-1.222-17.858-6.391-13.535-15.602 7.237 1.598 15.32 3.947 17.576 2.914zM255.43 410.491c2.914-1.315 7.895-11.09 9.305-11.936 1.88-1.034 14.38 1.128 16.542-.47 2.256-1.598 6.016-12.689 7.426-14.287 1.88-2.067 11.748-.751 12.876-2.161.94-1.128.564-14.569-.282-15.227-3.007-2.067-5.357-3.007-10.62-6.297 12.124.658 19.267 4.512 21.147 4.042 1.598-.376 8.835-5.358 8.93-7.332.093-1.88-6.486-12.5-8.46-12.688-13.159-1.598-36.186-1.128-54.044 1.316 16.26-13.535 32.05-13.817 46.149-12.407 2.35.188 11.56-9.869 10.527-10.997-4.982-5.263-10.057-10.433-12.689-10.057-10.715 1.316-35.998 10.245-56.77 26.411 10.34-19.737 22.746-31.862 36.656-32.238 1.222-.94 3.948-12.219 3.196-13.253-1.41-.751-11.279-5.92-13.159-5.075-15.226 6.673-28.478 24.531-35.904 41.45.846-13.16.94-29.137 2.914-42.014 1.786-11.843 5.358-21.054 5.452-22.087.188-3.102-11.467-13.441-13.629-13.441-1.974 0-13.816 10.245-13.628 13.44.094 1.034 3.665 10.245 5.45 22.088 1.88 12.877 2.069 28.855 2.915 42.013-7.426-16.918-20.772-34.776-35.904-41.449-1.88-.846-11.75 4.324-13.159 5.075-.752 1.034 1.974 12.313 3.196 13.253 13.91.376 26.317 12.595 36.656 32.238-20.772-16.166-46.055-25.095-56.77-26.41-2.726-.283-7.707 4.793-12.689 10.056-1.034 1.128 8.177 11.185 10.527 10.997 14.005-1.41 29.889-1.128 46.149 12.407-17.858-2.444-40.885-2.914-54.044-1.316-1.974.282-8.553 10.809-8.46 12.688.095 1.974 7.332 6.956 8.93 7.332 1.88.376 9.117-3.384 21.148-4.042-5.264 3.29-7.708 4.136-10.621 6.297-.846.564-1.222 14.005-.282 15.227 1.128 1.41 10.997.094 12.876 2.161 1.41 1.598 5.264 12.689 7.426 14.287 2.161 1.598 14.662-.658 16.542.47 1.41.846 6.485 10.62 9.305 11.936 2.255 1.034 10.62-1.033 17.952-2.82-1.598 6.486-2.82 12.971.188 17.389 6.767 10.057 14.004 10.527 21.711 13.252 5.264 1.88 9.305-14.756 5.264-15.226-10.34-1.222-17.858-6.391-13.535-15.602 7.237 1.598 15.32 3.947 17.576 2.914z"/>
</svg>
