<svg xmlns="http://www.w3.org/2000/svg" width="400" height="500" viewBox="30.5 31.5 400 500" xml:space="preserve">
    <path d="M230.44 531.14C156.12 477.22 105.18 409.12 74.7 322.98c-27.64-78.1-38.73-172.75-33.91-289.35l.02-.46h379.82l.02.46c4.81 116.6-6.28 211.24-33.91 289.35-30.48 86.14-81.42 154.24-155.74 208.16l-.28.2-.28-.2z" fill="#0085ca" style="fill:#32ac60;fill-opacity:1"/>
    <path d="M419.96 33.21c9.07 219.45-36.26 385.95-189.46 497.1C77.31 419.16 31.99 252.66 41.06 33.21h378.9m.92-.95H40.14l-.04.92c-4.82 116.66 6.28 211.36 33.93 289.52 30.51 86.24 81.51 154.41 155.91 208.39l.56.41.56-.41c74.4-53.98 125.4-122.15 155.91-208.39 27.65-78.16 38.75-172.86 33.93-289.52l-.04-.92z"/>
    <path d="M78.487 174.074c25.422-12.966 59.758-1.141 80.32 11.035 29.74 17.612 39.298 25.94 67.68 48.845 2.063 3.185 7.261-5.112 11.708-7.686 4.624-2.678 18.551 13.738 16.35 16.057l-6.774 7.137c-2.255 2.375 4.639 4.738 10.291 4.55 4.14-.137 9.627 4.12 11.205 8.81 3.783 11.24 12.292 15.492 20.705 24.09 5.584 5.705 18.856 14.767 18.856 14.767 2.747 2.15 5.024 5.183 4.222 8.3-.868 3.379-2.466 7.155-2.105 9.418.594 3.73 4.946 6.193 11.233 1.476 7.53-5.65 22.718-16.6 18.704-21.903-18.569-24.533-41.858-49.12-63.842-72.19-2.484-2.606-4.519-2.723-12.285 1.124-21.657-22.312-42.162-38.88-61.654-55.669-22.56-19.43-53.454-40.76-82.787-41.638-28.858-.864-44.299 15.685-41.827 43.477z" style="fill:#ffe000;fill-opacity:1;fill-rule:evenodd;stroke:#000;stroke-width:1.22858977px;stroke-linecap:butt;stroke-linejoin:miter;stroke-opacity:1"/>
    <path style="fill:#ffe000;fill-opacity:1;fill-rule:evenodd;stroke:#000;stroke-width:1;stroke-linecap:butt;stroke-linejoin:miter;stroke-miterlimit:4;stroke-dasharray:none;stroke-opacity:1" d="M92.54 266.045c20.961-9.795 48.451.745 64.771 11.185 23.605 15.1 31.117 22.115 53.472 41.467 1.583 2.638 6.027-3.94 9.701-5.9 3.822-2.041 14.648 11.649 12.8 13.466l-5.688 5.593c-1.894 1.862 3.626 3.969 8.21 3.975 3.36.005 7.686 3.607 8.834 7.451 2.75 9.213 9.526 12.896 16.103 20.096 4.365 4.78 14.865 12.493 14.865 12.493 2.165 1.819 3.925 4.34 3.189 6.843-.798 2.713-2.198 5.728-1.97 7.571.378 3.04 3.835 5.157 9.061 1.51 6.26-4.366 18.871-12.815 15.767-17.224-14.36-20.396-32.543-40.968-49.71-60.274-1.94-2.182-3.586-2.333-9.986.567-16.924-18.683-33.075-32.68-48.4-46.828-17.735-16.374-42.171-34.518-65.913-36.05-23.358-1.506-36.331 11.472-35.105 34.06zM164.092 111.394c21.231-9.193 48.41 2.127 64.424 13.03 23.164 15.768 30.473 22.994 52.266 42.977 1.508 2.682 6.137-3.766 9.866-5.622 3.879-1.93 14.31 12.063 12.41 13.827l-5.846 5.429c-1.945 1.806 3.512 4.07 8.095 4.207 3.356.101 7.579 3.825 8.616 7.7 2.487 9.288 9.154 13.163 15.523 20.548 4.226 4.902 14.502 12.912 14.502 12.912 2.113 1.88 3.8 4.45 2.992 6.932-.875 2.689-2.36 5.663-2.184 7.512.29 3.048 3.685 5.264 9.014 1.768 6.38-4.186 19.229-12.271 16.252-16.767-13.772-20.798-31.36-41.88-47.97-61.669-1.876-2.236-3.517-2.435-9.996.281-16.384-19.158-32.13-33.61-47.043-48.19-17.261-16.874-41.17-35.71-64.858-37.918-23.305-2.172-36.644 10.43-36.063 33.043z"/>
</svg>
