<svg xmlns="http://www.w3.org/2000/svg" xml:space="preserve" viewBox="30.5 31.5 400 500" height="500" width="400">
    <path style="fill:#0085ca;fill-opacity:1" d="M230.45 531.13c-74.32-53.92-125.26-122.02-155.74-208.16-27.64-78.1-38.73-172.75-33.91-289.35l.02-.46h379.82l.02.46c4.81 116.6-6.28 211.24-33.91 289.35-30.48 86.14-81.42 154.24-155.74 208.16l-.28.2-.28-.2z"/>
    <path d="M419.96 33.21c9.07 219.45-36.25 385.95-189.45 497.1C146.04 469.02 94.36 390.9 66.52 296.34a557.24 557.24 0 0 1-5.87-21.54c-11.45-45.69-17.77-95.02-19.88-147.94-1.2-30.06-1.05-61.28.29-93.65h378.9m.92-.95H40.14l-.04.92c-4.82 116.66 6.28 211.36 33.93 289.52 30.51 86.24 81.51 154.41 155.91 208.39l.56.41.56-.41c74.4-53.98 125.4-122.15 155.91-208.39 27.65-78.16 38.75-172.86 33.93-289.52l-.04-.92z"/>
    <path d="M63.826 75.824c-1.478-.45-2.795 4.378-3.418 9.56-.68 5.648-.536 11.718 1.12 11.841 32.056 2.39 49.937 5.65 75.353 8.864l5.422 6.462c15.139 12.97 26.694 26.338 40.016 39.51 4.495 4.443 8.393 5.805 12.634 5.88 4.066.073 8.76.017 12.198.218-6.267 5.934-6.651 10-6.651 14.158V386.76l114.035.109c.206-37.171-13.825-82.98-23.316-104.118-18.34-40.844-35.48-60.836-56.187-74.494l10.455-16.336 43.708 18.587c-.699-28.166.54-68.936 1.162-106.586.176-10.636-9.856-17.84-16.021-20.212-4.993-1.92-13.441-3.044-19.247-2.31-5.562.705-7.515 4.168-9.504 7.48-6.112 10.173-8.92 15.244-13.326 25.218l-47.98-8.215c-.149-1.618-1.67-2.648-2.819-3.837-1.856-1.923-10.897-4.507-13.517-2.262l-2.074 1.557-6.365-1.037c1.057-2.438-2.547-6.1-7.517-6.386-2.24-.13-4.433-1.667-6.71-1.483-2.975.24-5.37-.852-6.426-.474-2.338.836-2.409 2.465-3.351 3.772-29.064-5.149-53.981-14.535-71.674-19.91Z" style="fill:#ffe000;fill-opacity:1;fill-rule:evenodd;stroke:#000;stroke-width:1px;stroke-linecap:butt;stroke-linejoin:round;stroke-opacity:1"/>
    <path d="M188.745 404.947c-3.31 1.19-3.696 4.27-3.376 6.644.545 4.04 17.567 1.57 20.148 1.525 4.842-.085 3.876-2.25 8.277-2.723 5.853-.63 1.883 2.5 13.723 2.505 4.107.002 6.503-1.225 6.317-3.92L230.5 386.76h-12.567l-2.505 8.93s-11.414 4.133-16.99 5.772c-3.294.969-9.693 3.485-9.693 3.485z" style="fill:#ffe000;fill-rule:evenodd;stroke:#000;stroke-width:1px;stroke-linecap:butt;stroke-linejoin:round;stroke-opacity:1;fill-opacity:1"/>
    <path d="M232.527 400.918c-4.923.959-14.089-1.66-17.1-5.228" style="fill:none;fill-rule:evenodd;stroke:#000;stroke-width:1px;stroke-linecap:butt;stroke-linejoin:miter;stroke-opacity:1"/>
    <path style="fill:#ffe000;fill-rule:evenodd;stroke:#000;stroke-width:1px;stroke-linecap:butt;stroke-linejoin:round;stroke-opacity:1;fill-opacity:1" d="M252.745 404.947c-3.31 1.19-3.696 4.27-3.376 6.644.545 4.04 17.567 1.57 20.148 1.525 4.842-.085 3.876-2.25 8.277-2.723 5.853-.63 1.883 2.5 13.723 2.505 4.107.002 6.503-1.225 6.317-3.92L294.5 386.76h-12.567l-2.505 8.93s-11.414 4.133-16.99 5.772c-3.294.969-9.693 3.485-9.693 3.485z"/>
    <path style="fill:none;fill-rule:evenodd;stroke:#000;stroke-width:1px;stroke-linecap:butt;stroke-linejoin:miter;stroke-opacity:1" d="M296.527 400.918c-4.923.959-14.089-1.66-17.1-5.228M245.487 191.921c13.24-18.881 15.14-30.81 17.368-40.785 1.565-7.002-.445-17.416-2.068-27.58-1.456-9.116 2.004-23.383-2.988-26.66l-12.214-8.017"/>
    <path d="m157.747 109.536 14.301 2.113 21.615 28.033z" style="fill:#0085ca;fill-rule:evenodd;stroke:#000;stroke-width:1px;stroke-linecap:round;stroke-linejoin:round;stroke-opacity:1;fill-opacity:1"/>
    <path d="m187.568 113.68 24.052 24.784 30.227.406 3.332-7.476c-9.953-3.435-16.965-5.442-14.626-11.7z" style="fill:#0085ca;fill-opacity:1;fill-rule:evenodd;stroke:#000;stroke-width:1px;stroke-linecap:butt;stroke-linejoin:round;stroke-opacity:1"/>
    <path d="m172.048 111.65 15.52 2.03M159.504 100.304c-2.42 3.75-2.836 7.18-1.757 9.232M135.5 95.733c-1.365 3.715-.557 7.053 1.381 10.356M165.87 101.341c-1.425 2.498-1.746 6.871.918 7.22l14.929 1.949c2.6.34 2.494-2.536 2.563-4.627" style="fill:none;fill-rule:evenodd;stroke:#000;stroke-width:1px;stroke-linecap:butt;stroke-linejoin:miter;stroke-opacity:1"/>
    <path d="M207.15 158.16c12.893.685 23.35 4.205 33.01 6.308M241.847 138.87l8.465.571" style="fill:none;fill-rule:evenodd;stroke:#000;stroke-width:1px;stroke-linecap:round;stroke-linejoin:miter;stroke-opacity:1"/>
    <path d="m193.663 139.682 17.957-1.218" style="fill:none;fill-rule:evenodd;stroke:#000;stroke-width:1px;stroke-linecap:butt;stroke-linejoin:miter;stroke-opacity:1"/>
</svg>
