<svg xmlns="http://www.w3.org/2000/svg" width="400" height="500" viewBox="30.5 31.5 400 500" xml:space="preserve">
    <path style="fill:#0085ca;fill-opacity:1" d="M230.45 531.13c-74.32-53.92-125.26-122.02-155.74-208.16-27.64-78.1-38.73-172.75-33.91-289.35l.02-.46h379.82l.02.46c4.81 116.6-6.28 211.24-33.91 289.35-30.48 86.14-81.42 154.24-155.74 208.16l-.28.2-.28-.2z"/>
    <path style="fill:#fff;fill-opacity:1;fill-rule:evenodd;stroke:none;stroke-width:1px;stroke-linecap:butt;stroke-linejoin:miter;stroke-opacity:1" d="M394.38 296.69c9.45-28.82 15.25-58.74 18.9-89.31H47.74c3.65 30.56 9.45 60.48 18.9 89.31h327.75z"/>
    <path d="M419.96 33.21c9.07 219.45-36.25 385.95-189.45 497.1C146.04 469.02 94.36 390.9 66.52 296.34a557.24 557.24 0 0 1-5.87-21.54c-11.45-45.69-17.77-95.02-19.88-147.94-1.2-30.06-1.05-61.28.29-93.65h378.9m.92-.95H40.14l-.04.92c-4.82 116.66 6.28 211.36 33.93 289.52 30.51 86.24 81.51 154.41 155.91 208.39l.56.41.56-.41c74.4-53.98 125.4-122.15 155.91-208.39 27.65-78.16 38.75-172.86 33.93-289.52l-.04-.92z"/>
    <path style="fill:#fff;fill-opacity:1;fill-rule:evenodd;stroke:#000;stroke-width:1px;stroke-linecap:butt;stroke-linejoin:miter;stroke-opacity:1" d="M239.51 418.14h7.24c.88 11.79 2.72 18.53 5.39 22.18 5.5 7.52 15.66 5.84 18.48-.31.97-2.12.8-6.24-.8-8.9 0 0-3.38 4.84-8.29 4.61-9.3-.44-8.94-7.81-9.94-17.58h2.7c1.91 0 1.51-1.3 1.54-6.78.02-3.39.35-3.39-3.7-3.39 1.47-12.68 8.23-21.13 13.25-20.95 4.71.17 6.24 5.98 7.04 9.57 7.28-5.37 16.06-16.16 15.9-24.97-.1-5.76-1.72-10.07-9.39-11.89-7.07-1.68-12.99 5.59-17.07 10.91-8.42 11.01-11.89 22.25-14.98 37.33h-6.93l4.16-32.04c.44-6.54.13-14.11-1.31-21.15-1.88-9.18-7.34-17.34-12.32-21.29-4.98 3.95-10.44 12.11-12.32 21.29-1.44 7.03-1.75 14.61-1.31 21.15l4.16 32.04h-6.93c-3.09-15.08-6.55-26.32-14.98-37.33-4.07-5.32-9.99-12.59-17.07-10.91-7.66 1.82-9.28 6.12-9.39 11.89-.16 8.8 8.62 19.59 15.9 24.97.8-3.59 2.33-9.4 7.04-9.57 5.02-.18 11.78 8.26 13.25 20.95-4.05 0-3.72 0-3.7 3.39.03 5.48-.37 6.78 1.54 6.78h2.7c-1 9.77-.64 17.14-9.94 17.58-4.91.23-8.29-4.61-8.29-4.61-1.6 2.66-1.77 6.78-.8 8.9 2.82 6.15 12.98 7.83 18.48.31 2.67-3.65 4.51-10.39 5.39-22.18h7.24c-.83 28.79-2.08 42.2 9.01 53.91 11.09-11.71 9.84-25.12 9.01-53.91zM154.51 139.14h7.24c.88 11.79 2.72 18.53 5.39 22.18 5.5 7.52 15.66 5.84 18.48-.31.97-2.12.8-6.24-.8-8.9 0 0-3.38 4.84-8.29 4.61-9.3-.44-8.94-7.81-9.94-17.58h2.7c1.91 0 1.51-1.3 1.54-6.78.02-3.39.35-3.39-3.7-3.39 1.47-12.68 8.23-21.13 13.25-20.95 4.71.17 6.24 5.98 7.04 9.57 7.28-5.37 16.06-16.16 15.9-24.97-.1-5.76-1.72-10.07-9.39-11.89-7.07-1.68-12.99 5.59-17.07 10.91-8.42 11.01-11.89 22.25-14.98 37.33h-6.93l4.16-32.04c.44-6.54.13-14.11-1.31-21.15-1.86-9.17-7.32-17.33-12.3-21.28-4.98 3.95-10.44 12.11-12.32 21.29-1.44 7.03-1.75 14.61-1.31 21.15l4.16 32.04h-6.93c-3.09-15.08-6.55-26.32-14.98-37.33-4.07-5.32-9.99-12.59-17.07-10.91-7.66 1.82-9.28 6.12-9.39 11.89-.16 8.8 8.62 19.59 15.9 24.97.8-3.59 2.33-9.4 7.04-9.57 5.02-.18 11.78 8.26 13.25 20.95-4.05 0-3.72 0-3.7 3.39.03 5.48-.37 6.78 1.54 6.78h2.7c-1 9.77-.64 17.14-9.94 17.58-4.91.23-8.29-4.61-8.29-4.61-1.6 2.66-1.77 6.78-.8 8.9 2.82 6.15 12.98 7.83 18.48.31 2.67-3.65 4.51-10.39 5.39-22.18h7.24c-.83 28.79-2.08 42.2 9.01 53.91 11.09-11.71 9.84-25.12 9.01-53.91zM324.51 139.14h7.24c.88 11.79 2.72 18.53 5.39 22.18 5.5 7.52 15.66 5.84 18.48-.31.97-2.12.8-6.24-.8-8.9 0 0-3.38 4.84-8.29 4.61-9.3-.44-8.94-7.81-9.94-17.58h2.7c1.91 0 1.51-1.3 1.54-6.78.02-3.39.35-3.39-3.7-3.39 1.47-12.68 8.23-21.13 13.25-20.95 4.71.17 6.24 5.98 7.04 9.57 7.28-5.37 16.06-16.16 15.9-24.97-.1-5.76-1.72-10.07-9.39-11.89-7.07-1.68-12.99 5.59-17.07 10.91-8.42 11.01-11.89 22.25-14.98 37.33h-6.93l4.16-32.04c.44-6.54.13-14.11-1.31-21.15-1.86-9.17-7.32-17.33-12.3-21.28-4.98 3.95-10.44 12.11-12.32 21.29-1.44 7.03-1.75 14.61-1.31 21.15l4.16 32.04h-6.93c-3.09-15.08-6.55-26.32-14.98-37.33-4.07-5.32-9.99-12.59-17.07-10.91-7.66 1.82-9.28 6.12-9.39 11.89-.16 8.8 8.62 19.59 15.9 24.97.8-3.59 2.33-9.4 7.04-9.57 5.02-.18 11.78 8.26 13.25 20.95-4.05 0-3.72 0-3.7 3.39.03 5.48-.37 6.78 1.54 6.78h2.7c-1 9.77-.64 17.14-9.94 17.58-4.91.23-8.29-4.61-8.29-4.61-1.6 2.66-1.77 6.78-.8 8.9 2.82 6.15 12.98 7.83 18.48.31 2.67-3.65 4.51-10.39 5.39-22.18h7.24c-.83 28.79-2.08 42.2 9.01 53.91 11.09-11.71 9.84-25.12 9.01-53.91z"/>
    <path d="M66.22 296.69h328.72m18.81-89.29H47.46" style="fill:#00f;fill-rule:evenodd;stroke:#000;stroke-width:1px;stroke-linecap:butt;stroke-linejoin:miter;stroke-opacity:1"/>
</svg>
