<svg xmlns="http://www.w3.org/2000/svg" width="400" height="500" viewBox="30.5 31.5 400 500" xml:space="preserve">
    <path style="fill:#ffe000;stroke-linecap:round;stroke-linejoin:round" d="M230.44 531.14C156.12 477.22 105.18 409.12 74.7 322.98c-27.64-78.1-38.73-172.75-33.91-289.35l.02-.46h379.82l.02.46c4.81 116.6-6.28 211.24-33.91 289.35-30.48 86.14-81.42 154.24-155.74 208.16l-.28.2-.28-.2z"/>
    <path style="fill-rule:evenodd;fill:#32ac60" d="M197.5 201.5v-32l-22-22v-33l22 22v-33l-22-22v-33l22 22V32.7h66v37.8l22-22v33l-22 22v33l22-22v33l-22 22v32h32l22-22h33l-22 22h33l22-22h33l-22 22h20.02c-3.09 26.11-7.43 46.65-11.86 66h-8.16l6.46 6.46c-.83 4.37-3.92 15.54-3.92 15.54H383.5l-22-22h-33l22 22h-33l-22-22h-32v32l22 22v33l-22-22v33l22 22v33l-22-22v106.2c-6.24 5.79-27.65 22.64-33 26.24-13.53-10.07-21.89-16.55-33-26.16V398.51l-22 22v-33l22-22v-33l-22 22v-33l22-22v-32h-32l-22 22h-33l22-22h-33l-22 22H64c-1.34-5.16-3.2-11.96-4.02-15.49l6.52-6.52h-8.12c-5-20.96-9.01-43.77-11.78-66h19.9l-22-22h33l22 22h33l-22-22h33l22 22h32"/>
    <path style="stroke-linecap:round;stroke-linejoin:round" d="M419.96 33.21c9.07 219.45-36.26 385.95-189.46 497.1C77.31 419.16 31.99 252.66 41.06 33.21h378.9m.92-.95H40.14l-.04.92c-4.82 116.66 6.28 211.36 33.93 289.52 30.51 86.24 81.51 154.41 155.91 208.39l.56.41.56-.41c74.4-53.98 125.4-122.15 155.91-208.39 27.65-78.16 38.75-172.86 33.93-289.52l-.04-.92z"/>
    <path style="fill:none;stroke:#000;stroke-linecap:round;stroke-linejoin:round" d="M197.5 201.5v-32l-22-22v-33l22 22v-33l-22-22v-33l22 22V32.7h66v37.8l22-22v33l-22 22v33l22-22v33l-22 22v32h32l22-22h33l-22 22h33l22-22h33l-22 22h20.02l-11.86 66h-8.16l6.46 6.46-3.92 15.54H383.5l-22-22h-33l22 22h-33l-22-22h-32v32l22 22v33l-22-22v33l22 22v33l-22-22v106.2m-66 .08V398.51l-22 22v-33l22-22v-33l-22 22v-33l22-22v-32h-32l-22 22h-33l22-22h-33l-22 22H64m-4.01-15.5 6.51-6.51h-8.12m-11.78-66h19.9l-22-22h33l22 22h33l-22-22h33l22 22h32"/>
</svg>
