<svg xmlns="http://www.w3.org/2000/svg" xml:space="preserve" viewBox="30.5 31.5 400 500" height="500" width="400">
    <path style="fill:#ffe000;fill-opacity:1" d="M230.56 531.14c74.32-53.92 125.26-122.02 155.74-208.16 27.64-78.1 38.73-172.75 33.91-289.35l-.02-.46H40.37l-.02.46c-4.81 116.6 6.28 211.24 33.91 289.35 30.48 86.14 81.42 154.24 155.74 208.16l.28.2.28-.2z"/>
    <path d="M41.04 33.21C31.97 252.66 77.3 419.16 230.5 530.31c153.19-111.15 198.51-277.65 189.44-497.1H41.04m-.92-.95H420.86l.04.92c4.82 116.66-6.28 211.36-33.93 289.52-30.51 86.24-81.51 154.41-155.91 208.39l-.56.41-.56-.41c-74.4-53.98-125.4-122.15-155.91-208.39C46.38 244.54 35.28 149.84 40.1 33.18l.04-.92z"/>
    <path d="M104.299 70.636c11.999 34.214 33.927 47.289 67.293 44.812l4.027-11.194 27.503-.156 5.557 12.675c19.106 6.697 27.797 8.043 27.815 10.727-.018 2.684-8.71 4.03-27.815 10.727l-5.557 12.675-27.503-.156-4.027-11.194c-33.366-2.477-55.294 10.598-67.293 44.812-26.747-10.81-39.552-38.122-39.552-56.864 0-18.742 12.805-46.054 39.551-56.864z" style="fill:#000;fill-rule:evenodd;stroke:#000;stroke-width:1.01171243px;stroke-linecap:butt;stroke-linejoin:round;stroke-opacity:1"/>
    <path style="fill:#000;fill-rule:evenodd;stroke:#000;stroke-width:1.012;stroke-linecap:butt;stroke-linejoin:round;stroke-opacity:1;stroke-miterlimit:4;stroke-dasharray:none" d="M169.298 162.636c12 34.214 33.928 47.289 67.294 44.812l4.027-11.194 27.503-.156 5.557 12.675c19.106 6.697 27.797 8.043 27.815 10.727-.018 2.684-8.71 4.03-27.815 10.727l-5.557 12.675-27.503-.156-4.027-11.194c-33.366-2.477-55.294 10.598-67.294 44.812-26.746-10.81-39.551-38.122-39.551-56.864 0-18.742 12.805-46.054 39.551-56.864zM234.298 254.636c12 34.214 33.928 47.289 67.294 44.812l4.027-11.194 27.503-.156 5.557 12.675c19.106 6.697 27.797 8.043 27.815 10.727-.018 2.684-8.71 4.03-27.815 10.727l-5.557 12.675-27.503-.156-4.027-11.194c-33.366-2.477-55.294 10.598-67.293 44.812-26.747-10.81-39.552-38.122-39.552-56.864 0-18.742 12.805-46.054 39.551-56.864z"/>
</svg>
