<svg xmlns="http://www.w3.org/2000/svg" xml:space="preserve" viewBox="30.5 31.5 420 500" height="500" width="420">
    <path style="fill-rule:evenodd;fill:#fff" d="M440 32.7c2.09 102.46-3.38 187.49-43.93 296.59-28.05 75.48-74.21 144.77-155.57 201.59-81.36-56.82-127.52-126.11-155.57-201.59C44.38 220.19 38.91 135.16 41 32.7c133 .29 266 0 399 0z"/>
    <path style="fill:none;stroke:#000" d="M440 32.7c2.09 102.46-3.38 187.49-43.93 296.59-28.05 75.48-74.21 144.77-155.57 201.59-81.36-56.82-127.52-126.11-155.57-201.59C44.38 220.19 38.91 135.16 41 32.7c133 .29 266 0 399 0z"/>
    <path style="fill:#000;stroke:#000;stroke-opacity:1;stroke-linejoin:round;stroke-linecap:round" d="m308.5 240.46-4.9-.4c17.9-21.6 50.855-6.038 48.817 24.26-1.762 26.202-23.889 35.182-41.389 25.682 10.429 37.169 77.587 21.51 77.306-39.725-.07-15.2-6.334-25.818-15.034-33.318 9.1-.7 9.7-13.3 2.8-16.5 9.4-1.3 10.46-12.748 1.4-16.1 10.715-1.97 4.411-20.217-4.7-17.5 8.6-5.7 2.5-15.8-4.8-14 6-6.3.5-12.8-6.4-12.2 18.9-58.4-39.276-75.352-59.6-74.243-35.228 1.924-51.845 34.462-37.9 52.643 15.7-29.1 54.92-19.226 56.195 8.523.742 16.168-7.695 39.477-26.095 47.977l-32.1.1-74.1-56.3c-2.737-2.08 12.14-8.997 18.197-13.126l.103-13.71c.044-5.87 14.017-8.524 17.817-7.824-.9-6.4-7.926-13.46-18.738-12.054-21.4-1.9-28.157-9.6-63.457 4.9l-25.39 111.694 28.568-12.98 1 4.1-40 18.4c-11.6 5.3-15.702 22.854-10.152 32.109l41.637 72.983 92.752 43.151-19.546 33.383-17.9.1c-3.196-7.282-9.755-11.226-17.771-11.392-13.212-.275-29.378 17.424-12.829 25.992-.584-9.778 6.593-14.358 12.538-14.144 6.126.22 11.809 4.666 12.062 13.344l60.4-.1c-1.1-17.3 24.7-16.9 22.2.6 14.4-14.6-12.4-34.6-26.8-14.3l-13.2-.1 9.809-18.926 2.7 8.3 8.9-16.5 72.1 32.3-9.7-30.3-33.2-15.8 1.8-3.6 29.9 14.1-10.2-32.5-31.4-15 1.7-3.8 28.1 13.3-11.6-34.5-30.4-14.5 1.8-3.7 29.8 14 15-16.7-5.4-1z"/>
    <path style="fill:#e00e00;fill-opacity:1;stroke:#000;stroke-opacity:1" d="M203.1 65.06c.7-6.682-16.194-11.626-28.994-11.626-5.4 0-15.132-.07-16.275 5.106-2.047 9.274-.1 11.417-2.931 21.92-2.9 7.2 8.299-4.918 27.7-6.2 15.399-1.018 25.669 12.443 26.169 8.043.5-5.1-5.669-4.753-5.669-17.144z"/>
    <circle r="4.063" cy="82.849" cx="186.926" style="opacity:1;fill:#fff;fill-opacity:1;fill-rule:evenodd;stroke:none;stroke-width:1;stroke-linecap:round;stroke-linejoin:round;stroke-miterlimit:4;stroke-dasharray:none;stroke-opacity:1"/>
</svg>
