<svg xmlns="http://www.w3.org/2000/svg" width="420" height="500" viewBox="30.5 31.5 420 500" xml:space="preserve">
    <path d="M440 32.7c2.09 102.46-3.38 187.49-43.93 296.59-28.05 75.48-74.21 144.77-155.57 201.59-81.36-56.82-127.52-126.11-155.57-201.59C44.38 220.19 38.91 135.16 41 32.7c133 .29 266 0 399 0z" style="fill-rule:evenodd;fill:#0085ca"/>
    <path d="M440 32.7c2.09 102.46-3.38 187.49-43.93 296.59-28.05 75.48-74.21 144.77-155.57 201.59-81.36-56.82-127.52-126.11-155.57-201.59C44.38 220.19 38.91 135.16 41 32.7c133 .29 266 0 399 0z" style="fill:none;stroke:#000"/>
    <path d="M168.51 81.98c-12.59 17.79-29.97 32.62-51.81 43.94-14.83 7.7-37.27 2.6-17.97-26.23 6.77-10.12 22.54-27.77 53.46-35.23 1.48-.36.45-1.67-.11-1.79-34.34-7.16-64.44 25.05-81.37 43.9-7.98-9.71-15.67-21.5-14.52-47.99.04-.84-2.38-1.38-2.76.09-11.23 43.33 8.18 64.05 11.49 71.85.41 24.99 15.69 58.83 47.74 75.12 39.01 19.82 80.75 35.02 139.47 43.4 2.38.34 1.84 8.65-.45 8.37-29.26-3.61-58.73-8.95-88.12-7.59-14.69.68-29.15.41-42.44-6.15-15.03-7.42-17.53 3.71-20.91 5.6-5.23 2.93-6.34 14.76-1.66 17.36 1.32.73 3.59 3.69 1.66 5.13-3.98 2.97-6.14 14.11 2.05 17.99 10.48 4.97 13.02 6.3 19.01 11.12 13.04 10.49 24.85 32.19 39.6 54.36 15.24 22.9 46.02 38.21 52.87 55.49 4.83 12.19 4.84 25.51 7.25 41.17 0 0 8.97-8.07 12.5-17.18l.78 38.16s9.17-8.28 13.5-16.62l.22 33.03c39.96-37.34 89.95-88.33 119.34-155.34-14.31-.03-39.96-9.62-41.97-23.75 14.05-1.61 38.62 3.73 56.18-13.38-5.32-.46-11.45-3.61-14.1-5.99-9.14-8.22-24.68-18.36-43.84-11.91-7.77 2.62-12.48 4.23-24.96-.51-4.05-1.54-19.67-15.96 6.92-26 20.88-7.88 47.33-6.54 73.08-30.01 19.5-17.77 35.26-41.7 28.12-70.74-6.3-25.63-6.55-29.21.89-39.72 10.78-15.23 16.18-38.47 7.14-53.33-.65-1.07-2.44.83-2.39 1.87.71 15.82-7.33 36.87-19.39 41.28-4.15 1.52-9.92-3.82-14.81-9.01-26.04-27.6-59.37-36.82-78.04-31.74-2.12.58-.39 1.99.88 2.02 15.17.39 37.19 9.87 50.6 24.59 7.52 8.25 16.44 26.53-19.64 22.31-26.32-3.07-48.04-14.79-63.52-26.62-.67-.51-2.74.89-2.08 1.96 27.43 44.73 84.25 27.71 114.03 56.57 12.43 12.05 3.59 57.99-40.17 37.49-9.32-4.37-23.74-14.04-32.65-33.73-.21-.45-2.14.23-1.99 1.43 3.18 25.59 15.63 39.39 51.71 55.95 11.54 5.3-14.6 24.34-34.81 15.06-20.01-9.19-31.84-25.41-39.51-48.09-.23-.69-2.3.66-2.49 1.86-2.22 14.36 3.11 31.43 19.79 49.91 4.33 4.8-2.83 7.75-8.77 8.57-23.72 3.29-50.81 2.7-71.26-5.24-12.23-4.75-9.72-5.87 3.94-24.98 9.35-13.08 12.75-33.99 3.89-47.05-.35-.52-1.58-.2-1.6.6-.8 38.34-18.87 46.11-36.94 54.66-16.08 7.61-43.81-5.2-32.08-17.13 7.35-7.47 36.79-25.87 36.37-58.02-.01-.51-.94-1.57-2.07.47-12.85 23.22-29.32 47.02-61.06 48.52-16.93.8-50.64-24.9-13.42-42.07 26.32-15.03 50.45-32.96 53.9-58.66.15-1.14-1.3-1.44-2.75.6z" style="fill:#fff;stroke-width:.99;stroke:#000"/>
    <path d="M110.02 256.87c1.42-2.17 7.12-1.61 5.97 2.45-.72 2.55 2.55 4.09 3.91 1.71 1.71-3 .26-8.07-3.63-10.23-2.35-1.31-7.3-.12-9.11 3.27-2.43 4.55.9 5.81 2.87 2.8z"/>
    <path d="M228.31 279.72c1.88 2.59 3.33 5.58 8.05 7.09 3.14 1 6.58 1.63 10.96-.79 1.44-.8 4.25-1.53 6.2-.89.73.24 1.69-1.06.69-1.88-1.5-1.24-3.4-2.66-4.03-4.81-1.33-4.5-4.51-6.1-7.83-7.05-4.32-1.24-9.2.25-12.62 3.02-1.87 1.51-6.78.32-6.87 1.99-.14 2.61 3.79 1.03 5.46 3.32z" style="fill:#0085ca;stroke-linejoin:round;stroke-miterlimit:4;stroke-width:.88;stroke:#000"/>
    <path d="M231.4 273.59c-1.12.34-3.74 1.95-5.82 1.81-2.6-.19-4.3.92-1.84 2.7 2.6.16 5.59 2.32 6.55 3.66-3.86-5.57-2.34-4.98 1.11-8.16zM249.52 277.88c.71.81 2.07 3.44 3.64 4.2 1.97.94 2.85 2.76.47 3.42-1.96-.97-5.82-.48-6.97.4 4.57-3.05 4.49-2.96 2.85-8.03z" style="fill-rule:evenodd;fill:#000"/>
</svg>
