<svg xmlns="http://www.w3.org/2000/svg" width="400" height="500" viewBox="30.5 31.5 400 500" xml:space="preserve">
    <path style="fill:#0085ca;fill-opacity:1" d="M230.44 531.14C156.12 477.22 105.18 409.12 74.7 322.98c-27.64-78.1-38.73-172.75-33.91-289.35l.02-.46h379.82l.02.46c4.81 116.6-6.28 211.24-33.91 289.35-30.48 86.14-81.42 154.24-155.74 208.16l-.28.2-.28-.2z"/>
    <path d="m332.927 427.607-65.328-70.301c-15.03-16.175-24.911-21.816-46.174-34.022-6.216-3.569-17.464-12.47-25.753-21.562 0 0-26.249-27.347-38.86-41.484-21.296-23.872-62.54-72.818-62.54-72.818-5.246-5.914-3.27-13.469-2.05-15.804 4.313-8.244 10.672-16.56 10.672-16.56s8.906-5.503 17.537-8.977c2.445-.984 10.159-2.2 15.523 3.607 0 0 44.615 45.894 66.257 69.451 12.817 13.951 37.427 42.783 37.427 42.783 8.225 9.15 15.967 21.225 18.902 27.764 10.038 22.368 14.67 32.76 29.275 49.32l59.23 67.162c-4.31 7.017-8.221 13.412-14.118 21.44zM378.606 343.351l-58.388-62.834c-15.031-16.175-24.912-21.815-46.174-34.022-6.217-3.568-17.464-12.47-25.753-21.562 0 0-26.25-27.347-38.86-41.484-21.296-23.872-62.54-72.817-62.54-72.817-5.246-5.914-3.271-13.47-2.05-15.805 4.313-8.244 10.672-16.56 10.672-16.56s8.905-5.503 17.537-8.977c2.444-.984 10.158-2.2 15.523 3.607 0 0 44.614 45.894 66.257 69.452 12.817 13.95 37.426 42.782 37.426 42.782 8.226 9.15 15.968 21.225 18.902 27.765 10.038 22.368 14.67 32.76 29.276 49.32l47.965 54.388c-2.107 7.117-5.925 17.301-9.793 26.747z" style="fill:#fff;fill-rule:evenodd;stroke:none;stroke-width:1px;stroke-linecap:butt;stroke-linejoin:miter;stroke-opacity:1"/>
    <path d="M419.96 33.21c9.07 219.45-36.26 385.95-189.46 497.1C77.31 419.16 31.99 252.66 41.06 33.21h378.9m.92-.95H40.14l-.04.92c-4.82 116.66 6.28 211.36 33.93 289.52 30.51 86.24 81.51 154.41 155.91 208.39l.56.41.56-.41c74.4-53.98 125.4-122.15 155.91-208.39 27.65-78.16 38.75-172.86 33.93-289.52l-.04-.92z"/>
    <path d="m378.606 343.351-58.388-62.834c-15.031-16.175-24.912-21.815-46.174-34.022-6.217-3.568-17.464-12.47-25.753-21.562 0 0-26.25-27.347-38.86-41.484-21.296-23.872-62.54-72.817-62.54-72.817-5.246-5.914-3.271-13.47-2.05-15.805 4.313-8.244 10.672-16.56 10.672-16.56s8.905-5.503 17.537-8.977c2.444-.984 10.158-2.2 15.523 3.607 0 0 44.614 45.894 66.257 69.452 12.817 13.95 37.426 42.782 37.426 42.782 8.226 9.15 15.968 21.225 18.902 27.765 10.038 22.368 14.67 32.76 29.276 49.32l47.965 54.388M332.927 427.607l-65.328-70.301c-15.03-16.175-24.911-21.816-46.174-34.022-6.216-3.569-17.464-12.47-25.753-21.562 0 0-26.249-27.347-38.86-41.484-21.296-23.872-62.54-72.818-62.54-72.818-5.246-5.914-3.27-13.469-2.05-15.804 4.313-8.244 10.672-16.56 10.672-16.56s8.906-5.503 17.537-8.977c2.445-.984 10.159-2.2 15.523 3.607 0 0 44.615 45.894 66.257 69.451 12.817 13.951 37.427 42.783 37.427 42.783 8.225 9.15 15.967 21.225 18.902 27.764 10.038 22.368 14.67 32.76 29.275 49.32l59.23 67.162" style="fill:none;fill-rule:evenodd;stroke:#000;stroke-width:1px;stroke-linecap:butt;stroke-linejoin:miter;stroke-opacity:1"/>
</svg>
