<svg xmlns="http://www.w3.org/2000/svg" xml:space="preserve" viewBox="30.5 31.5 400 500" height="500" width="400">
    <path d="M230.45 531.13c-74.32-53.92-125.26-122.02-155.74-208.16-27.64-78.1-38.73-172.75-33.91-289.35l.02-.46h379.82l.02.46c4.81 116.6-6.28 211.24-33.91 289.35-30.48 86.14-81.42 154.24-155.74 208.16l-.28.2-.28-.2z" style="fill:#0085ca;fill-opacity:1"/>
    <circle r="120.836" cy="219.5" cx="230.5" style="opacity:.98999999;fill:#ffe000;fill-opacity:1;fill-rule:evenodd;stroke:none;stroke-width:.99999994;stroke-linecap:round;stroke-linejoin:round;stroke-miterlimit:4;stroke-dasharray:none;stroke-opacity:1"/>
    <circle r="98.972" cy="219.5" cx="230.5" style="opacity:.98999999;fill:#0085ca;fill-opacity:1;fill-rule:evenodd;stroke:none;stroke-width:1;stroke-linecap:round;stroke-linejoin:round;stroke-miterlimit:4;stroke-dasharray:none;stroke-opacity:1"/>
    <path style="fill:#ffe000;fill-opacity:1;fill-rule:evenodd;stroke:none;stroke-width:1px;stroke-linecap:butt;stroke-linejoin:miter;stroke-opacity:1" d="M239.75 193.132v-9.71c0-3.625 3.915-3.96 3.915-9.083v-38.696c0-5.122-3.915-5.458-3.915-9.083v-7.71c-6.292-.5-12.415-.327-18.5 0v7.71c0 3.625-3.915 3.961-3.915 9.083v38.696c0 5.122 3.915 5.458 3.915 9.084v9.71z"/>
    <path d="M221.25 120.85v5.71c0 3.625-3.915 3.961-3.915 9.083v38.696c0 5.122 3.915 5.458 3.915 9.084v9.71h18.5v-9.71c0-3.626 3.915-3.962 3.915-9.084v-38.696c0-5.122-3.915-5.458-3.915-9.083v-5.71" style="fill:none;fill-opacity:1;fill-rule:evenodd;stroke:#000;stroke-width:1px;stroke-linecap:butt;stroke-linejoin:miter;stroke-opacity:1"/>
    <path style="fill:#ffe000;fill-opacity:1;fill-rule:evenodd;stroke:none;stroke-width:1px;stroke-linecap:butt;stroke-linejoin:miter;stroke-opacity:1" d="M256.868 210.25h9.71c3.625 0 3.96-3.915 9.083-3.915h38.696c5.122 0 5.458 3.915 9.083 3.915h7.71v18.5h-7.71c-3.625 0-3.961 3.915-9.083 3.915H275.66c-5.122 0-5.458-3.915-9.084-3.915h-9.71z"/>
    <path d="M329.15 228.75h-5.71c-3.625 0-3.961 3.915-9.083 3.915H275.66c-5.122 0-5.458-3.915-9.084-3.915h-9.71v-18.5h9.71c3.626 0 3.962-3.915 9.084-3.915h38.696c5.122 0 5.458 3.915 9.083 3.915h5.71" style="fill:none;fill-opacity:1;fill-rule:evenodd;stroke:#000;stroke-width:1px;stroke-linecap:butt;stroke-linejoin:miter;stroke-opacity:1"/>
    <path style="fill:#ffe000;fill-opacity:1;fill-rule:evenodd;stroke:none;stroke-width:1px;stroke-linecap:butt;stroke-linejoin:miter;stroke-opacity:1" d="M204.132 210.25h-9.71c-3.625 0-3.96-3.915-9.083-3.915h-38.696c-5.122 0-5.458 3.915-9.083 3.915h-7.71c-.537 6.346-.339 12.446 0 18.5h7.71c3.625 0 3.961 3.915 9.083 3.915h38.696c5.122 0 5.458-3.915 9.084-3.915h9.71z"/>
    <path d="M419.96 33.21c9.07 219.45-36.25 385.95-189.45 497.1C146.04 469.02 94.36 390.9 66.52 296.34a557.24 557.24 0 0 1-5.87-21.54c-11.45-45.69-17.77-95.02-19.88-147.94-1.2-30.06-1.05-61.28.29-93.65h378.9m.92-.95H40.14l-.04.92c-4.82 116.66 6.28 211.36 33.93 289.52 30.51 86.24 81.51 154.41 155.91 208.39l.56.41.56-.41c74.4-53.98 125.4-122.15 155.91-208.39 27.65-78.16 38.75-172.86 33.93-289.52l-.04-.92z"/>
    <path d="M240.667 99.298v-19.87c0-9.438-4.949-12.138-10.167-12.138s-10.167 2.7-10.167 12.137v19.87M240.667 339.702v19.87c0 9.438-4.949 12.138-10.167 12.138s-10.167-2.7-10.167-12.137v-19.87" style="fill:#ffe000;fill-opacity:1;fill-rule:evenodd;stroke:#000;stroke-width:1px;stroke-linecap:butt;stroke-linejoin:miter;stroke-opacity:1"/>
    <path d="M239.75 245.868v9.71c0 3.625 3.915 3.96 3.915 9.083v38.696c0 5.122-3.915 5.458-3.915 9.083v7.71c-6.282.693-12.426.557-18.5 0v-7.71c0-3.625-3.915-3.961-3.915-9.083V264.66c0-5.122 3.915-5.458 3.915-9.084v-9.71z" style="fill:#ffe000;fill-opacity:1;fill-rule:evenodd;stroke:none;stroke-width:1px;stroke-linecap:butt;stroke-linejoin:miter;stroke-opacity:1"/>
    <path style="fill:none;fill-opacity:1;fill-rule:evenodd;stroke:#000;stroke-width:1px;stroke-linecap:butt;stroke-linejoin:miter;stroke-opacity:1" d="M221.25 318.15v-5.71c0-3.625-3.915-3.961-3.915-9.083V264.66c0-5.122 3.915-5.458 3.915-9.084v-9.71h18.5v9.71c0 3.626 3.915 3.962 3.915 9.084v38.696c0 5.122-3.915 5.458-3.915 9.083v5.71"/>
    <path style="fill:#ffe000;fill-opacity:1;fill-rule:evenodd;stroke:#000;stroke-width:1px;stroke-linecap:butt;stroke-linejoin:miter;stroke-opacity:1" d="M350.702 229.667h19.87c9.438 0 12.138-4.949 12.138-10.167s-2.7-10.167-12.137-10.167h-19.87M110.298 229.667h-19.87c-9.438 0-12.138-4.949-12.138-10.167s2.7-10.167 12.137-10.167h19.87M138.895 140.992l-14.312-13.784c-6.797-6.546-5.31-11.984-1.69-15.742 3.62-3.758 8.998-5.45 15.795 1.097L153 126.347M322.105 140.992l14.312-13.784c6.797-6.546 5.31-11.984 1.69-15.742-3.62-3.758-8.998-5.45-15.795 1.097L308 126.347M153 312.65l-13.784 14.312c-6.546 6.797-11.984 5.31-15.742 1.69-3.759-3.62-5.45-8.998 1.096-15.795l13.785-14.312M308 312.65l13.784 14.312c6.546 6.797 11.984 5.31 15.742 1.69 3.759-3.62 5.45-8.998-1.096-15.795l-13.785-14.312"/>
    <path style="fill:none;fill-rule:evenodd;stroke:#000;stroke-width:1px;stroke-linecap:butt;stroke-linejoin:miter;stroke-opacity:1" d="M221.25 126.56h18.5M239.75 183.423h-18.5M194.423 210.25v18.5M137.56 210.25v18.5M266.577 210.25v18.5M323.44 210.25v18.5M221.25 255.577h18.5M239.75 312.44h-18.5"/>
    <path d="M131.85 228.75h5.71c3.625 0 3.961 3.915 9.083 3.915h38.696c5.122 0 5.458-3.915 9.084-3.915h9.71v-18.5h-9.71c-3.626 0-3.962-3.915-9.084-3.915h-38.696c-5.122 0-5.458 3.915-9.083 3.915h-5.71" style="fill:none;fill-opacity:1;fill-rule:evenodd;stroke:#000;stroke-width:1px;stroke-linecap:butt;stroke-linejoin:miter;stroke-opacity:1"/>
    <circle r="30.087" cy="219.5" cx="230.5" style="opacity:1;fill:#ffe000;fill-opacity:1;fill-rule:evenodd;stroke:#000;stroke-width:1;stroke-linecap:round;stroke-linejoin:round;stroke-miterlimit:4;stroke-dasharray:none;stroke-opacity:1"/>
    <circle style="opacity:.98999999;fill:none;fill-opacity:1;fill-rule:evenodd;stroke:#000;stroke-width:1;stroke-linecap:round;stroke-linejoin:round;stroke-miterlimit:4;stroke-dasharray:none;stroke-opacity:1" cx="230.5" cy="219.5" r="11.866"/>
    <circle style="opacity:.98999999;fill:none;fill-opacity:1;fill-rule:evenodd;stroke:#000;stroke-width:.99999994;stroke-linecap:round;stroke-linejoin:round;stroke-miterlimit:4;stroke-dasharray:none;stroke-opacity:1" cx="230.5" cy="219.5" r="120.836"/>
    <circle style="opacity:.98999999;fill:none;fill-opacity:1;fill-rule:evenodd;stroke:#000;stroke-width:1.0418973;stroke-linecap:round;stroke-linejoin:round;stroke-miterlimit:4;stroke-dasharray:none;stroke-opacity:1" cx="230.5" cy="219.5" r="98.951"/>
</svg>
