<svg xmlns="http://www.w3.org/2000/svg" width="400" height="500" viewBox="30.5 31.5 400 500" xml:space="preserve">
    <path d="M230.44 531.14C156.12 477.22 105.18 409.12 74.7 322.98c-27.64-78.1-38.73-172.75-33.91-289.35l.02-.46h379.82l.02.46c4.81 116.6-6.28 211.24-33.91 289.35-30.48 86.14-81.42 154.24-155.74 208.16l-.28.2-.28-.2z" style="fill:#32ac60"/>
    <path d="M419.96 33.21c9.07 219.45-36.26 385.95-189.46 497.1C77.31 419.16 31.99 252.66 41.06 33.21h378.9m.92-.95H40.14l-.04.92c-4.82 116.66 6.28 211.36 33.93 289.52 30.51 86.24 81.51 154.41 155.91 208.39l.56.41.56-.41c74.4-53.98 125.4-122.15 155.91-208.39 27.65-78.16 38.75-172.86 33.93-289.52l-.04-.92z"/>
    <path d="m133.158 254.147 87.08-36.07v15.711L184.09 248.76l9.67 24.719 26.476-10.967v12.107h20.49v-20.594l87.08-36.07v17.225l-33.69 13.955 9.872 24.904 23.817-9.866v10.446h20.49v-18.933l36.18-14.986-10.119-24.802-26.061 10.795V209.47l43.917-18.192-9.545-24.77-34.372 14.237v-15.71l49.773-20.617-9.014-25.2-40.76 16.884V97.386l-20.489 7.171v40.03l-87.08 36.07v-16.193l47.87-19.828-10.08-24.887-37.79 15.653V97.386l-20.489 7.171v39.332l-87.08 36.07v-16.426l45.2-18.722-9.75-24.767-35.45 14.684V97.386l-20.489 7.171v38.658l-48.267 19.993 8.975 25.087 39.292-16.275v16.426l-42.045 17.416 10.124 24.868 31.921-13.222V233.7l-35.913 14.876 9.615 24.95 26.298-10.893v11.985h20.49z" style="fill:#fff;fill-rule:evenodd;stroke:#000;stroke-width:1;stroke-linecap:butt;stroke-linejoin:miter;stroke-opacity:1;stroke-miterlimit:4;stroke-dasharray:none"/>
    <path d="m133.158 209.02 87.08-36.069v16.193l-87.08 36.07zM240.727 209.59l87.08-36.07v16.194l-87.08 36.07z" style="fill:#32ac60;fill-opacity:1;fill-rule:evenodd;stroke:#000;stroke-width:1;stroke-linecap:butt;stroke-linejoin:miter;stroke-opacity:1;stroke-miterlimit:4;stroke-dasharray:none"/>
</svg>
