<svg xmlns="http://www.w3.org/2000/svg" xml:space="preserve" viewBox="30.5 31.5 400 500" height="500" width="400">
    <path style="fill:#e00e00" d="M230.45 531.13c-74.32-53.92-125.26-122.02-155.74-208.16-27.64-78.1-38.73-172.75-33.91-289.35l.02-.46h379.82l.02.46c4.81 116.6-6.28 211.24-33.91 289.35-30.48 86.14-81.42 154.24-155.74 208.16l-.28.2-.28-.2z"/>
    <path d="M303.235 188v-29.348l-28.207.064c1.157 2.364 1.343 4.83 1.323 7.187-.033 3.858-4.033 8.931-9.636 8.917-5.057-.013-8.089-3.495-9.273-6.377-.961-2.342-.991-6.125.078-7.942-1.976 1.15-3.887 1.429-6.293 1.16-3.57-.398-8.614-3.71-8.614-10.274 0-6.563 5.044-9.876 8.614-10.274 2.406-.269 4.317.009 6.293 1.16-1.07-1.817-1.04-5.6-.078-7.942 1.184-2.883 4.216-6.364 9.273-6.377 5.603-.015 9.603 5.059 9.636 8.917.02 2.357-.166 4.823-1.323 7.187l28.207.064-.064-28.207c-2.364 1.157-4.83 1.343-7.187 1.323-3.858-.033-8.932-4.033-8.917-9.636.013-5.057 3.495-8.089 6.377-9.273 2.342-.961 6.125-.991 7.942.078-1.151-1.976-1.429-3.887-1.16-6.293.398-3.57 3.71-8.614 10.274-8.614 6.563 0 9.876 5.043 10.274 8.614.269 2.406-.01 4.317-1.16 6.293 1.817-1.07 5.6-1.04 7.942-.078 2.882 1.184 6.364 4.216 6.377 9.273.015 5.603-5.059 9.603-8.917 9.636-2.357.02-4.823-.166-7.187-1.323l-.064 28.207 28.207-.064c-1.157-2.364-1.343-4.83-1.323-7.187.033-3.858 4.033-8.932 9.636-8.917 5.057.013 8.089 3.494 9.273 6.377.961 2.342.991 6.125-.078 7.942 1.976-1.151 3.887-1.429 6.293-1.16 3.57.398 8.614 3.71 8.614 10.274 0 6.563-5.044 9.876-8.614 10.274-2.406.269-4.317-.01-6.293-1.16 1.07 1.817 1.04 5.6.078 7.942-1.184 2.882-4.216 6.364-9.273 6.377-5.603.014-9.603-5.059-9.636-8.917-.02-2.357.166-4.823 1.323-7.187l-28.207-.064-.313 29.348L359.6 384.037c-29.698 57.358-74.118 107.104-129.1 146.89Z" style="fill:#ffe000;fill-opacity:1;fill-rule:evenodd;stroke:none;stroke-width:.83448553px;stroke-linecap:butt;stroke-linejoin:round;stroke-opacity:1"/>
    <path d="M157.765 188v-29.348l28.207.064c-1.157 2.364-1.343 4.83-1.323 7.187.033 3.858 4.033 8.931 9.636 8.917 5.057-.013 8.089-3.495 9.273-6.377.961-2.342.991-6.125-.078-7.942 1.976 1.15 3.887 1.429 6.293 1.16 3.57-.398 8.614-3.71 8.614-10.274 0-6.563-5.044-9.876-8.614-10.274-2.406-.269-4.317.009-6.293 1.16 1.07-1.817 1.04-5.6.078-7.942-1.184-2.883-4.216-6.364-9.273-6.377-5.603-.015-9.603 5.059-9.636 8.917-.02 2.357.166 4.823 1.323 7.187l-28.207.064.064-28.207c2.364 1.157 4.83 1.343 7.187 1.323 3.858-.033 8.932-4.033 8.917-9.636-.013-5.057-3.495-8.089-6.377-9.273-2.342-.961-6.125-.991-7.942.078 1.151-1.976 1.429-3.887 1.16-6.293-.398-3.57-3.71-8.614-10.274-8.614-6.563 0-9.876 5.043-10.274 8.614-.269 2.406.01 4.317 1.16 6.293-1.817-1.07-5.6-1.04-7.942-.078-2.882 1.184-6.364 4.216-6.377 9.273-.015 5.603 5.059 9.603 8.917 9.636 2.357.02 4.823-.166 7.187-1.323l.064 28.207-28.207-.064c1.157-2.364 1.343-4.83 1.323-7.187-.033-3.858-4.033-8.932-9.636-8.917-5.057.013-8.089 3.494-9.273 6.377-.961 2.342-.991 6.125.078 7.942-1.976-1.151-3.887-1.429-6.293-1.16-3.57.398-8.614 3.71-8.614 10.274 0 6.563 5.044 9.876 8.614 10.274 2.406.269 4.317-.01 6.293-1.16-1.07 1.817-1.04 5.6-.078 7.942 1.184 2.882 4.216 6.364 9.273 6.377 5.603.014 9.603-5.059 9.636-8.917.02-2.357-.166-4.823-1.323-7.187l28.207-.064.313 29.348L101.4 384.037c29.698 57.358 74.118 107.104 129.1 146.89z" style="fill:#ffe000;fill-opacity:1;fill-rule:evenodd;stroke:none;stroke-width:.83448553px;stroke-linecap:butt;stroke-linejoin:round;stroke-opacity:.60606061"/>
    <path style="fill:none;fill-rule:evenodd;stroke:#000;stroke-width:1;stroke-linecap:butt;stroke-linejoin:round;stroke-miterlimit:4;stroke-dasharray:none;stroke-opacity:1" d="M230.5 530.926 157.765 188v-29.348l28.207.064c-1.157 2.364-1.343 4.83-1.323 7.187.033 3.858 4.033 8.931 9.636 8.917 5.057-.013 8.089-3.495 9.273-6.377.961-2.342.991-6.125-.078-7.942 1.976 1.15 3.887 1.429 6.293 1.16 3.57-.398 8.614-3.71 8.614-10.274 0-6.563-5.044-9.876-8.614-10.274-2.406-.269-4.317.009-6.293 1.16 1.07-1.817 1.04-5.6.078-7.942-1.184-2.883-4.216-6.364-9.273-6.377-5.603-.015-9.603 5.059-9.636 8.917-.02 2.357.166 4.823 1.323 7.187l-28.207.064.064-28.207c2.364 1.157 4.83 1.343 7.187 1.323 3.858-.033 8.932-4.033 8.917-9.636-.013-5.057-3.495-8.089-6.377-9.273-2.342-.961-6.125-.991-7.942.078 1.151-1.976 1.429-3.887 1.16-6.293-.398-3.57-3.71-8.614-10.274-8.614-6.563 0-9.876 5.043-10.274 8.614-.269 2.406.01 4.317 1.16 6.293-1.817-1.07-5.6-1.04-7.942-.078-2.882 1.184-6.364 4.216-6.377 9.273-.015 5.603 5.059 9.603 8.917 9.636 2.357.02 4.823-.166 7.187-1.323l.064 28.207-28.207-.064c1.157-2.364 1.343-4.83 1.323-7.187-.033-3.858-4.033-8.932-9.636-8.917-5.057.013-8.089 3.494-9.273 6.377-.961 2.342-.991 6.125.078 7.942-1.976-1.151-3.887-1.429-6.293-1.16-3.57.398-8.614 3.71-8.614 10.274 0 6.563 5.044 9.876 8.614 10.274 2.406.269 4.317-.01 6.293-1.16-1.07 1.817-1.04 5.6-.078 7.942 1.184 2.882 4.216 6.364 9.273 6.377 5.603.014 9.603-5.059 9.636-8.917.02-2.357-.166-4.823-1.323-7.187l28.207-.064.313 29.348L101.4 384.037"/>
    <path d="M419.96 33.21c9.07 219.45-36.25 385.95-189.45 497.1C146.04 469.02 94.36 390.9 66.52 296.34a557.24 557.24 0 0 1-5.87-21.54c-11.45-45.69-17.77-95.02-19.88-147.94-1.2-30.06-1.05-61.28.29-93.65h378.9m.92-.95H40.14l-.04.92c-4.82 116.66 6.28 211.36 33.93 289.52 30.51 86.24 81.51 154.41 155.91 208.39l.56.41.56-.41c74.4-53.98 125.4-122.15 155.91-208.39 27.65-78.16 38.75-172.86 33.93-289.52l-.04-.92z"/>
    <path style="fill:none;fill-rule:evenodd;stroke:#000;stroke-width:.83448553px;stroke-linecap:butt;stroke-linejoin:round;stroke-opacity:1" d="M230.5 530.926 303.235 188v-29.348l-28.207.064c1.157 2.364 1.343 4.83 1.323 7.187-.033 3.858-4.033 8.931-9.636 8.917-5.057-.013-8.089-3.495-9.273-6.377-.961-2.342-.991-6.125.078-7.942-1.976 1.15-3.887 1.429-6.293 1.16-3.57-.398-8.614-3.71-8.614-10.274 0-6.563 5.044-9.876 8.614-10.274 2.406-.269 4.317.009 6.293 1.16-1.07-1.817-1.04-5.6-.078-7.942 1.184-2.883 4.216-6.364 9.273-6.377 5.603-.015 9.603 5.059 9.636 8.917.02 2.357-.166 4.823-1.323 7.187l28.207.064-.064-28.207c-2.364 1.157-4.83 1.343-7.187 1.323-3.858-.033-8.932-4.033-8.917-9.636.013-5.057 3.495-8.089 6.377-9.273 2.342-.961 6.125-.991 7.942.078-1.151-1.976-1.429-3.887-1.16-6.293.398-3.57 3.71-8.614 10.274-8.614 6.563 0 9.876 5.043 10.274 8.614.269 2.406-.01 4.317-1.16 6.293 1.817-1.07 5.6-1.04 7.942-.078 2.882 1.184 6.364 4.216 6.377 9.273.015 5.603-5.059 9.603-8.917 9.636-2.357.02-4.823-.166-7.187-1.323l-.064 28.207 28.207-.064c-1.157-2.364-1.343-4.83-1.323-7.187.033-3.858 4.033-8.932 9.636-8.917 5.057.013 8.089 3.494 9.273 6.377.961 2.342.991 6.125-.078 7.942 1.976-1.151 3.887-1.429 6.293-1.16 3.57.398 8.614 3.71 8.614 10.274 0 6.563-5.044 9.876-8.614 10.274-2.406.269-4.317-.01-6.293-1.16 1.07 1.817 1.04 5.6.078 7.942-1.184 2.882-4.216 6.364-9.273 6.377-5.603.014-9.603-5.059-9.636-8.917-.02-2.357.166-4.823 1.323-7.187l-28.207-.064-.313 29.348L359.6 384.037"/>
</svg>
