<svg xmlns="http://www.w3.org/2000/svg" width="400" height="500" viewBox="30.5 31.5 400 500" xml:space="preserve">
    <path d="M230.44 531.14C156.12 477.22 105.18 409.12 74.7 322.98c-27.64-78.1-38.73-172.75-33.91-289.35l.02-.46h379.82l.02.46c4.81 116.6-6.28 211.24-33.91 289.35-30.48 86.14-81.42 154.24-155.74 208.16l-.28.2-.28-.2z" fill="#0085ca"/>
    <path d="M230.2 71.57c-2.67.23-7.28 2.81-10.56 9.26-7.34 14.39-21.18 19.83-55.44 26.87-23.42 4.81-30.22 3.97-43.37-5.43-3.01-2.16-6.07-3.29-7.35-2.01-2.73 2.73 5.5 57.07 14.99 96.09 5.79 23.8 8.87 30.03 23.95 48.2 17.22 20.75 38.93 58.92 45.88 80.7 10.59 33.16 12.83 54.01 8.15 76.37-4.95 23.66-5.77 37.2-2.41 40.55 1.15 1.15 12.84 2.07 26.16 2.11h.6c13.32-.05 25.01-.96 26.16-2.11 3.35-3.35 2.54-16.89-2.41-40.55-4.68-22.36-2.44-43.21 8.15-76.37 6.96-21.78 28.66-59.95 45.88-80.7 15.08-18.17 18.16-24.39 23.95-48.2 9.49-39.02 17.72-93.36 14.99-96.09-1.28-1.28-4.33-.14-7.35 2.01-13.15 9.4-19.95 10.24-43.37 5.43-34.27-7.04-48.1-12.47-55.44-26.87-3.29-6.44-7.89-9.03-10.56-9.26h-.6z" style="fill-rule:nonzero;fill:#fff;stroke-linejoin:round;stroke-miterlimit:10.9;stroke:#000"/>
    <path d="M419.96 33.21c9.07 219.45-36.26 385.95-189.46 497.1C77.31 419.16 31.99 252.66 41.06 33.21h378.9m.92-.95H40.14l-.04.92c-4.82 116.66 6.28 211.36 33.93 289.52 30.51 86.24 81.51 154.41 155.91 208.39l.56.41.56-.41c74.4-53.98 125.4-122.15 155.91-208.39 27.65-78.16 38.75-172.86 33.93-289.52l-.04-.92z"/>
</svg>
