<svg xmlns="http://www.w3.org/2000/svg" fill="none" height="505.929" width="400">
    <path style="fill:#046cb4;fill-opacity:1;stroke-width:.999999" fill="#006EB6" d="M400 0H0v305.93c0 127.074 89.526 199.999 200 199.999s200-74.704 200-200Z"/>
    <path style="fill:#fbfbfb;fill-opacity:1;stroke-width:.999999" fill="#fff" d="M156.324 42.885a347.42 347.42 0 0 1 6.324 62.846c1.384 100.396-37.747 191.897-102.371 258.893 27.47-4.743 132.213-16.205 164.229 56.72 25.89-45.06 40.514-97.431 39.723-153.162-1.185-89.526-43.083-171.344-107.905-225.297Zm-48.616 229.447a346.668 346.668 0 0 0 35.968-113.834C130.039 131.423 108.3 108.3 88.538 95.257c.79 4.94 1.58 9.881 2.174 15.02 6.917 63.24-13.242 123.122-51.186 168.379 18.774-4.743 46.838-8.102 68.182-6.324zM268.775 80.83c3.36 15.218 5.534 32.806 5.336 50 0 18.577-2.372 36.561-6.72 53.755 7.906 26.878 12.253 54.94 12.45 83.597a305.064 305.064 0 0 1-6.916 69.763c22.134 4.347 41.7 16.007 48.814 38.142 15.218-33.004 23.518-69.763 23.715-108.498.396-73.123-28.853-138.735-76.68-186.759z"/>
</svg>
