<svg xmlns="http://www.w3.org/2000/svg" xml:space="preserve" viewBox="30.5 31.5 400 500" height="500" width="400">
    <path style="fill:#fff;fill-opacity:.98823529" d="M230.45 531.13c-74.32-53.92-125.26-122.02-155.74-208.16-27.64-78.1-38.73-172.75-33.91-289.35l.02-.46h379.82l.02.46c4.81 116.6-6.28 211.24-33.91 289.35-30.48 86.14-81.42 154.24-155.74 208.16l-.28.2-.28-.2z"/>
    <path d="M419.96 33.21c9.07 219.45-36.25 385.95-189.45 497.1C146.04 469.02 94.36 390.9 66.52 296.34a557.24 557.24 0 0 1-5.87-21.54c-11.45-45.69-17.77-95.02-19.88-147.94-1.2-30.06-1.05-61.28.29-93.65h378.9m.92-.95H40.14l-.04.92c-4.82 116.66 6.28 211.36 33.93 289.52 30.51 86.24 81.51 154.41 155.91 208.39l.56.41.56-.41c74.4-53.98 125.4-122.15 155.91-208.39 27.65-78.16 38.75-172.86 33.93-289.52l-.04-.92z"/>
    <path style="fill:#0085ca;fill-opacity:1;stroke:#000;stroke-width:.97612333;stroke-linejoin:round;stroke-miterlimit:4;stroke-dasharray:none;stroke-opacity:1" d="M75.611 192.83c24.244 12.482 78.096 11.78 102.892-3.83l-11.744-33.688c-19.005 3.43-26.948-6.854-26.425-11.12.57-4.666 6.093-3.339 8.936.638 2.056-.326 3.06-1.705 3.191-3.957 23.666 1.817 26.642-6.199 42.426-8.547 8.08-1.202 18.37-.919 38.892 2.93 3.777.709 1.25-18.827-2.043-24.255-2.118-3.492-14.362-3.952-19.63-3.064-20.38 3.44-27.655 9.65-44.93 9.064-7.178-.243-13.256-2.967-13.485-7.276-5.142-.324-15.804-7.578-14.611-13.029l-39.623.203c-3.166.016.677 7.432-.67 7.419-2.378-.024-5.959-1.185-5.99.079l-.747 29.702c.002 2.018 6.809-.047 6.984 1.375 2.939 16.599-14.883 45.623-23.423 57.356zM241.611 192.83c24.244 12.482 78.096 11.78 102.892-3.83l-11.744-33.688c-19.005 3.43-26.948-6.854-26.425-11.12.57-4.666 6.093-3.339 8.936.638 2.056-.326 3.06-1.705 3.191-3.957 22.286 1.711 27.645-5.297 41.048-8.082 8.116-1.686 17.41-1.822 40.27 2.465 3.777.709 1.25-18.827-2.043-24.255-2.118-3.492-14.362-3.952-19.63-3.064-20.38 3.44-27.655 9.65-44.93 9.064-7.178-.243-13.256-2.967-13.485-7.276-5.142-.324-15.804-7.578-14.611-13.029l-39.623.203c-3.166.016.677 7.432-.67 7.419-2.378-.024-5.959-1.185-5.99.079l-.747 29.702c.002 2.018 6.809-.047 6.984 1.375 2.939 16.599-14.883 45.623-23.423 57.356z"/>
    <path style="fill:#0085ca;fill-opacity:1;stroke:#000;stroke-width:1.1481334;stroke-linejoin:round;stroke-miterlimit:4;stroke-dasharray:none;stroke-opacity:1" d="M159.658 370.346c21.304 14.683 82.391 18.712 112.008-1.451L257.4 324.312c-14.24 5.388-25.385-2.333-24.77-9.104.5-5.507 7.166-3.928 10.51.75 0 0 2.766-3.395 3.754-4.654 26.79 2.939 34.805-4.082 47.8-8.184 9.07-2.863 21.84-3.986 39.719-.66 4.444.828 1.789-17.363-2.084-23.747-2.492-4.108-22.472-3.533-28.668-2.488-23.972 4.045-21.212 5.896-42.009 8.27-8.393.959-13.043-.62-13.311-5.69-6.207-1.814-14.445-6.681-17.186-15.324l-46.606.24c-2.607.012.797 8.74-.786 8.725-2.798-.028-7.008-1.394-7.048.093l-.877 32.867c-.043 1.608 8.008-.056 8.214 1.617-1.502 20.425-14.35 49.523-24.395 63.323z"/>
</svg>
