<svg xmlns="http://www.w3.org/2000/svg" version="1" width="400" height="646.554">
    <path d="M217.82 80.225c.154-7.09.165-16.784.533-24.634-5.457-2.232-10.27-10.367-18.4-7.527-5.651 2.662-17.418-.045-19.691 9.276-.783 7.82.724 15.93 1.064 23.417 10.648 3.678 29.777-.434 36.494-.532zM37.4 30.881c1.998 3.816 2.652 8.005 5.931 11.329 2.232-1.015 4.851-1.278 6.69-3.041-.289-2.828-.963-8.422-1.292-12.621 8.594-2.52 17.322-6.348 26.459-7.755 1.64 3.713 3.129 7.933 5.17 11.708 1.947-.602 5.135-1.268 7.375-2.28-.329-4.248.47-8.661-.989-12.774 4.94-1.111 9.933-3.426 15.206-3.421 2.286 9.905 4.249 24.381 8.212 35.582 10.278-1.81 19.56-2.921 29.347-5.17-.452-4.566-.102-9.89-1.444-14.598-.328-7.237-1.15-14.492-.989-21.82 6.942-.69 14.74-2.826 22.201-2.205.645 3.48.736 8.537 2.281 12.317 2.477-.043 6.174.43 8.972-.152.413-4.162 1.546-8.652 1.292-13.002 18.009.028 37.867-4.141 56.153.087 3.314 4.383-3.53 18.54 10 13.225.694-3.07 3.024-8.064 2.795-12.365 7.218 1.097 15.13-.867 21.935 3.333-.1 11.028-6.579 26.69-.323 35.806 6.969.514 24.03 9.522 28.386 2.096 2.626-10.609 3.65-22.096 8.01-32.364 3.451 1.068 7.352 1.291 10.592 3.28.03 3.307-1.06 8.396.107 12.15 2.57.62 5.164 2.525 8.01 1.935 1.692-3.503.71-8.457 5.27-10.914 8.382 2.573 17.81 3.665 25.751 7.903 2.27 4.586-6.22 18.722 7.58 15.322 1.643-3.403 3.52-7.217 5.216-10.806 4.273 1.65 10.888 2.982 15.59 6.021-6.972 21.99-15.524 45.28-21.61 68.16-2.741 10.73-7.325 23.545-8.972 35.126-18.79-.048-45.307 1.23-59.608-.152-35.269.199-71.716.91-108.115.609-18.318 0-37.06-.13-54.017-.136-10.044-.256-19.349-.22-29.883-.06-13-.44-27.48-.18-40.41-.793-1.354-5.374-2.108-15.256-5.653-22.434-.696-1.625-10.253-5.982-4.516-10.537-6.902-23.22-13.35-46.652-20.967-70.535 5.01-1.545 9.594-4.074 14.258-6.054z" style="fill:#ffbf00;fill-opacity:1;stroke:#000;stroke-width:.999999px;stroke-linecap:butt;stroke-linejoin:miter;stroke-opacity:1"/>
    <path d="M50.782 136.981c.236-5.957.026-8.326-1.862-13.374-.797-2.128-1.595-3.28-2.614-3.77-1.69-.812-2.393-2.08-3.897-7.03-.923-3.036-.982-3.847-.4-5.527.79-2.28 1.28-.474-7.738-28.55C28.568 60.974 21.83 38.17 21.83 36.624c0-.421 1.054-1.303 2.341-1.96 2.308-1.177 13.496-5.47 14.257-5.47.499 0 1.817 3.118 3.335 7.887 1.312 4.124 1.787 4.388 5.267 2.934 1.713-.715 1.92-1.028 1.92-2.905 0-1.157-.499-3.414-1.108-5.016-.608-1.601-1.106-3.628-1.106-4.504 0-1.516.276-1.695 5.673-3.686 10.93-4.032 19.312-6.332 23.076-6.332 1.687 0 2.17.789 3.384 5.535 1.11 4.34 1.98 5.534 4.027 5.534 1 0 2.292-.347 2.872-.771 1.025-.75 1.028-.91.106-5.72-1.189-6.199-1.186-7.184.02-7.807 2.054-1.06 12.527-3.484 15.491-3.584l3.114-.105.476 2.213c.262 1.218 1.078 6.345 1.815 11.395.736 5.049 1.566 9.78 1.843 10.515.277.735.798 3.086 1.157 5.225.359 2.138.847 4.203 1.085 4.589.341.551 2.955.282 12.286-1.263 6.518-1.08 12.438-2.098 13.154-2.262 1.286-.295 1.298-.362.93-5.393-.206-2.802-.852-10.325-1.437-16.717-.584-6.393-1.064-12.164-1.067-12.824-.004-1.037.534-1.324 3.94-2.098 2.17-.494 7.831-1.131 12.582-1.418 7.282-.438 8.763-.395 9.436.278.532.533.904 2.588 1.116 6.172.312 5.283.344 5.382 1.87 5.889 2.2.73 5.232.027 6.13-1.422.606-.975.643-2.072.187-5.474-.792-5.916-.188-6.803 4.96-7.29 8.714-.824 32.396-1.036 43.347-.388 13.065.773 13.465.917 12.642 4.576-.28 1.252-.39 3.792-.241 5.646.148 1.854.283 3.547.299 3.761.049.638 3.69 1.13 5.47.738 1.649-.362 1.655-.378 2.341-6.167.506-4.27.922-5.922 1.573-6.25 1.243-.628 17.118.78 20.651 1.83 4.854 1.444 4.625-.203 2.625 18.838-1.523 14.504-1.672 17.112-1.016 17.768.423.423 2.635 1.031 4.917 1.352 2.282.32 7.94 1.324 12.574 2.23 4.634.907 8.548 1.649 8.697 1.649.774 0 1.493-2.943 3.05-12.48 2.028-12.427 3.204-18.658 4.005-21.217l.586-1.872 3.392.34c1.865.187 5.26.947 7.543 1.688 4.75 1.541 4.438.697 3.607 9.777l-.434 4.74 2.445.933c4.316 1.648 4.224 1.733 6.507-5.985 1.701-5.75 1.291-5.518 7.3-4.112 5.321 1.245 16.905 5.04 21.732 7.118 2.35 1.013 2.643 1.317 2.31 2.398a16.24 16.24 0 0 0-.52 2.622c-.077.76-.408 1.883-.736 2.494-.328.611-.683 2.197-.788 3.524-.162 2.056.015 2.561 1.193 3.413.761.55 2.177 1.16 3.146 1.354 2.277.46 3.293-.983 4.131-5.868.68-3.962 1.68-5.471 3.622-5.471 1.893 0 16.854 6.204 17.212 7.138.165.43-.477 3.048-1.427 5.816-.951 2.769-3.51 10.886-5.688 18.04a1537.738 1537.738 0 0 1-8.04 25.46c-5.422 16.552-6.536 20.949-5.707 22.508.351.66.509 1.905.35 2.767-.56 3.045-3.27 8.781-4.845 10.254-1.15 1.075-2.064 3.003-3.278 6.918-1.526 4.923-1.632 5.735-1.136 8.748.301 1.826.549 3.756.55 4.289.003.92-7.471.968-149.239.968l-149.08-1.194Zm291.337 3.566c3.984-1.107 2.483-2.045-6.199-4.47-23.905-6.674-57.075-12.367-89.107-15.292-1.827-.167-5.812-.537-8.856-.821-31.533-2.95-70.897-1.94-108.629 2.789-20.118 2.52-46.371 7.18-59.624 10.58a240.419 240.419 0 0 1-9.004 2.085c-5.011 1.039-5.947 1.595-5.43 3.225.297.935 1.03 1.126 5.385 1.408 4.352.282 5.959.11 11.75-1.265 18.827-4.467 39.863-8.058 61.501-10.498 34.552-3.896 77.101-4.42 112.63-1.39 26.414 2.254 65.717 8.716 78.868 12.969 1.827.59 4.296.869 5.21.99 3.487.463 9.516.242 11.505-.31zm-61.933.152c-.96-.96-27.646-4.619-44.996-6.169-14.016-1.252-60.873-1.43-74.44-.282-16.598 1.403-44.59 4.806-47.48 5.772-.64.214 68.266.699 119.66.842 26.153.073 47.419 0 47.256-.163zm-174.623-2.723c35.68-5.996 74.297-8.64 109.425-7.49 15.53.508 31.63 1.467 41.246 2.838 2.467.352 5.076.775 5.845.87.19.023 34.334 5.829 41.819 6.715.9.106 1.129-.011 1.16-.077.028-.062.144-.219-.558-.38-7.095-1.636-48.76-7.863-59.071-8.824-37.353-3.483-77.432-2.996-112.63 1.368-14.286 1.771-39.217 6.052-40.68 6.985-.593.379-.391.437.708.203.846-.18 6.577-1.173 12.736-2.208zm239.081-6.806c.773-1.75 1.773-4.84 2.223-6.865l.819-3.682-6.713-2.612c-3.693-1.437-8.457-2.932-10.588-3.324-2.13-.392-6.489-1.612-9.685-2.711-8.297-2.854-20.747-5.867-37.636-9.108-8.066-1.548-16.41-3.19-18.54-3.648-17.025-3.66-60.01-5.728-87.725-4.222-30.726 1.669-53.142 4.758-81.082 11.175-17.404 3.997-27.044 6.496-34.038 8.827-7.96 2.652-10.62 3.893-10.275 4.791.164.426.788 2.748 1.389 5.16 1.054 4.237 2.332 7.388 3.217 7.935.235.145 4.533-.71 9.551-1.9 5.019-1.189 13.053-2.905 17.854-3.814 4.802-.908 10.156-2.013 11.9-2.454 6.912-1.752 31.1-5.116 48-6.677 33.536-3.097 71.136-3.291 103.774-.535 28.906 2.44 63.398 8.297 87.447 14.848 3.805 1.037 7.32 1.91 7.812 1.942.579.037 1.386-1.062 2.296-3.126zm7.908-17.555c.441-1.055.802-2.141.802-2.413 0-.853-15.508-6.513-28.503-10.405-55.074-16.491-116.633-21.612-178.572-14.854-28.892 3.152-60.988 9.916-85.983 18.119-7.61 2.497-14.136 4.886-14.501 5.308-.69.795-.402 3.809.452 4.745.287.315 4.986-.93 11.965-3.17 59.182-18.988 123.155-25.42 188.047-18.907 33.192 3.332 71.704 11.748 98.24 21.47 6.724 2.463 7.067 2.468 8.053.107zm1.356-11.62c0-1.775-.09-1.836-7.61-5.174-13.072-5.803-25.8-10.02-46.11-15.281-10.21-2.645-11.953-2.96-12.628-2.285-.473.472-.886 2.397-1.044 4.857l-.262 4.075 12.934 2.694c16.76 3.492 25.68 5.919 40.606 11.047l12.176 4.184.969-1.161c.533-.639.969-1.97.969-2.957zm-296.192-.289c16.956-5.439 35.51-10.243 51.838-13.423l3.874-.754-.036-4.006c-.03-3.304-.24-4.21-1.202-5.17l-1.165-1.166-8.761 2.077c-4.818 1.142-13.466 3.427-19.216 5.079-14.882 4.274-37.647 12.635-38.633 14.19-.473.746-.029 4.004.753 5.517.275.533.887.969 1.36.969.473 0 5.508-1.49 11.188-3.313zm298.739-7.53c1.475-3.53 1.147-4.18-3.244-6.436-4.881-2.508-6.325-2.925-7.307-2.11-.809.67-2.278 5.97-1.79 6.458.71.71 10.642 4.512 11.08 4.241.268-.165.835-1.134 1.26-2.152zm-308.556-.803c6.582-2.714 6.627-2.76 5.773-5.998-.397-1.505-.875-2.984-1.063-3.287-.56-.905-8.76 1.915-11.197 3.85-1.168.928.566 7.119 1.995 7.119.225 0 2.247-.758 4.492-1.684zm293.573-5.361c1.566-3.75 1.07-4.622-3.615-6.364-8.63-3.21-22.253-7.685-29.122-9.567-7.938-2.176-8.112-2.142-8.834 1.708-.678 3.613-1.268 3.308 18.585 9.617 10.198 3.241 18.915 6.048 19.371 6.238 1.9.788 2.767.397 3.615-1.632zM68.3 85.676c3.905-1.537 7.437-2.798 7.849-2.801 1.26-.01 14.403-3.798 17.492-5.041 1.86-.749 2.9-1.496 2.892-2.074-.023-1.586-.988-5.172-1.54-5.724-.882-.881-24.45 6.047-36.22 10.647-2.855 1.116-3.183 1.41-3.183 2.846 0 .88.375 2.497.832 3.592.782 1.872.951 1.973 2.806 1.672 1.085-.177 5.167-1.579 9.072-3.117zm213.03.66c.58-1.083 3.704-16.398 5.647-27.689 1.095-6.359 1.16-7.45.475-8.08-.92-.846-12.947-3.377-20.113-4.233-3.724-.445-5.03-.43-5.334.061-1.013 1.639-4.286 36.188-3.505 37.002.126.132 5.02 1.036 10.874 2.01l11.04 1.835c.219.036.63-.371.916-.905zm-150.264-1.638 10.443-1.511-.35-4.72c-1.505-20.253-2.726-31.91-3.419-32.634-.649-.678-1.555-.694-6.172-.107-7.652.972-18.293 3.047-18.94 3.693-.558.56 4.484 33.033 5.519 35.537.283.685.955 1.247 1.495 1.249.539.002 5.68-.676 11.424-1.507zm230.025-2.312c.55-1.991.236-4.487-.564-4.487-.25 0-5.42-2.095-11.49-4.657-9.853-4.158-16.687-6.64-21.302-7.737-1.406-.334-1.636-.158-2.616 2.001-1.365 3.007-1.418 5.334-.13 5.792.532.189 6.073 2.329 12.314 4.755 6.24 2.425 13.712 5.224 16.604 6.218 5.885 2.024 6.122 1.961 7.184-1.885zM55.868 78.458c16.22-5.983 15.774-5.772 15.774-7.466 0-2-1.456-5.269-2.346-5.269-1.608 0-12.26 3.614-21.592 7.326l-9.824 3.907v2.686c0 1.951.304 2.989 1.112 3.797 1.063 1.062 1.206 1.072 3.183.209 1.139-.497 7.3-2.833 13.693-5.19zm197.302 2.347c.33-1.141.745-3.227.925-4.635.52-4.069-.226-4.49-10.072-5.682-9.504-1.15-23.61-2.039-24.128-1.52-.714.716-1.135 10.463-.47 10.874.351.217 7.155.865 15.12 1.44 7.965.575 14.855 1.141 15.312 1.258 2.22.567 2.726.302 3.313-1.735zm-97.125.951c3.348-.283 9.478-.763 13.622-1.067 4.143-.304 7.942-.709 8.44-.9.726-.278.906-1.158.906-4.413 0-4.41-.777-6.884-2.164-6.889-1.712-.005-25.267 1.69-27.595 1.987-3.522.45-4.228 1.83-3.412 6.674.351 2.087.728 4.107.837 4.487.23.804 1.15.816 9.366.121zm59.619-10.913c.958-9.97.68-14.386-1.028-16.273-.523-.578-2.533-1.83-4.466-2.781-3.376-1.662-3.807-1.733-10.844-1.785-7.177-.053-7.402-.018-10.93 1.718-2.036 1.002-4.172 2.544-4.913 3.547-1.301 1.76-1.31 1.86-.998 12.34.173 5.812.485 11.003.694 11.536.35.89 1.637.968 15.987.968h15.606zm81.362 2.863c1.54-4.291 1.624-4.165-3.931-5.823-2.291-.684-2.478-.655-3.442.535-1.32 1.632-1.951 4.928-1.106 5.787.71.722 6.106 2.544 6.96 2.35.297-.069.981-1.35 1.519-2.85zm-189.008.794 3.605-1.114-.265-2.766c-.402-4.185-1.017-4.547-5.99-3.53-7.074 1.45-6.607 1.211-6.607 3.366 0 1.07.373 2.836.828 3.926.787 1.882.927 1.962 2.826 1.606 1.098-.206 3.62-.876 5.603-1.488zm256.407-3.77c.994-3.576.835-3.842-3.46-5.811-2.208-1.012-4.828-2.013-5.823-2.224-1.728-.368-1.856-.277-2.846 2.013-1.952 4.515-1.95 4.736.061 5.779 1.005.52 3.695 1.637 5.978 2.48 4.681 1.73 5.023 1.605 6.09-2.237zm-320.598.196c3.669-2.052 3.788-2.298 2.926-6.018-.81-3.497-1.606-3.734-6.458-1.924-2.303.86-4.674 2.003-5.27 2.542-1.114 1.008-1.111 1.1.157 5.935l.562 2.14 2.31-.37c1.272-.203 3.87-1.24 5.773-2.305zM96.23 65.77c1.85-.584 5.454-1.443 8.01-1.909 2.556-.466 4.856-1.055 5.11-1.31.46-.458-.31-6.66-.9-7.248-.831-.832-27.382 5.816-32.803 8.214-2.264 1.002-2.435 1.216-2.085 2.617.21.84.85 2.287 1.423 3.217l1.042 1.69 8.42-2.105c4.632-1.157 9.934-2.582 11.783-3.166zm225.249 2.899c1.186-3.482 1.113-4.53-.363-5.175-2.834-1.241-19.609-6.131-23.974-6.99-5.324-1.045-5.695-.904-6.288 2.395-.788 4.386-.497 4.66 7.398 6.957 6.272 1.824 19.95 5.193 21.705 5.346.352.03 1.037-1.11 1.522-2.533zm-66.694-1.922c.697-1.999.777-4.328.181-5.264-.484-.762-5.245-1.649-11.67-2.175-3.655-.3-4.726-.218-5.111.389-.59.93-.647 5.507-.08 6.363.372.562 10.203 2.178 14.327 2.355 1.488.064 1.834-.181 2.353-1.668zm93.483-.07c1.145-2.397 1.378-4.99.547-6.102-1.3-1.742-28.285-10.519-37.847-12.31-3.082-.578-4.978-.707-5.322-.362-.295.294-.668 1.996-.83 3.781l-.294 3.247 4.077 1.03c5.308 1.344 25.994 8.167 32.026 10.565 2.588 1.029 5.2 1.829 5.807 1.779.606-.05 1.432-.783 1.836-1.628zm-285.204-2.89c5.784-1.934 14.252-4.548 18.818-5.809 4.566-1.26 8.613-2.392 8.993-2.514.38-.122.692-.833.692-1.58 0-2.46-1.283-6.979-1.982-6.979-1.169 0-24.57 7.028-32.387 9.727-4.08 1.408-7.76 2.886-8.177 3.284-.642.613-.557 1.29.551 4.38.984 2.743 1.519 3.575 2.143 3.332.458-.177 5.565-1.906 11.349-3.84zm92.428 2.719c2.435-.2 4.74-.612 5.12-.917.714-.573.948-4.64.356-6.185-.24-.627-1.067-.873-2.906-.866-2.926.011-12.483 1.384-13.345 1.916-.753.466-.726 2.998.056 5.241.62 1.777.66 1.794 3.459 1.485 1.558-.171 4.825-.475 7.26-.674zm78.882-1.65c.297-.78.54-2.496.54-3.812 0-2.264-.097-2.41-1.799-2.716-3.887-.697-9.262-1.032-11.089-.689-1.883.354-1.926.422-2.195 3.53-.151 1.744-.184 3.271-.074 3.395.158.176 6.133.91 13.372 1.641.388.04.948-.567 1.245-1.348zm-56.328-.064c.228-.133.415-1.845.415-3.806v-3.565h-4.074c-2.24 0-5.23.159-6.641.352l-2.568.352V65.816l6.226-.392c3.425-.215 6.413-.5 6.642-.632zm189.44-3.902c.475-1.136.79-2.817.7-3.736-.154-1.572-.56-1.84-6.898-4.552-6.633-2.839-27.29-10.124-28.706-10.124-.729 0-1.551 2.075-2.123 5.359-.298 1.708-.22 1.79 2.578 2.709 1.586.521 6.37 2.313 10.633 3.981 9.62 3.766 22.001 8.384 22.546 8.41.224.01.796-.91 1.27-2.047zM42.67 58.873c4.823-1.941 11.974-4.724 15.889-6.184l7.119-2.654-.332-2.417c-.43-3.14-1.236-4.587-2.554-4.587-1.205 0-9.735 2.983-20.598 7.202-10.75 4.176-10.89 4.247-11.258 5.71-.467 1.863 1.52 6.315 2.878 6.45.047.005 4.032-1.579 8.856-3.52zm118.612-3.685c6.534-.598 13.23-1.088 14.882-1.088 2.725 0 3.22-.2 5.366-2.179 3.736-3.443 7.066-4.843 13.4-5.634 9.316-1.162 16.459.506 21.11 4.93 2.169 2.063 2.59 2.229 6.583 2.588 2.345.212 9.495.985 15.888 1.719 6.392.734 12.811 1.336 14.265 1.339 2.33.004 2.707-.163 3.182-1.415.759-1.995.672-5.534-.152-6.196-.654-.525-9.197-1.713-20.893-2.904-2.892-.295-12.045-.828-20.34-1.186-21.183-.914-43.842.094-65.81 2.928-4.982.643-5.074.682-5.397 2.294-.46 2.3-.411 3.426.22 5.084.51 1.343.724 1.418 3.182 1.124 1.45-.174 7.98-.805 14.514-1.404zm-57.678-2.53 4.013-.883-.008-2.85c-.004-1.567-.33-3.472-.724-4.233-.611-1.182-1.06-1.368-3.085-1.274-1.304.06-3.967.64-5.918 1.29-3.434 1.143-3.548 1.241-3.548 3.062 0 1.034.41 2.905.911 4.158 1.024 2.56.316 2.498 8.36.73zm197.621.737c.322-.388.753-1.968.958-3.51.339-2.553.248-2.903-1.006-3.89-.758-.595-2.414-1.425-3.68-1.843-1.992-.657-2.412-.65-3.12.06-.841.84-2.125 7.082-1.572 7.64.336.34 6.199 2.13 7.21 2.203.344.025.888-.272 1.21-.66zm70.322-3.89c.731-1.93.71-2.22-.257-3.5-1.019-1.346-6.93-4.195-10.19-4.911-1.835-.404-3.872 1.198-3.872 3.044 0 1.494-1.022 1.407-6.641-.568-5.397-1.897-6.295-2.75-5.859-5.564.184-1.184.032-2.337-.376-2.865-.376-.485-2.925-1.538-5.665-2.34a691.923 691.923 0 0 1-10.478-3.181l-5.498-1.724-1.99 2.31c-1.093 1.27-2.415 2.31-2.936 2.31-2.03 0-9.575-2.36-10.23-3.2-.38-.487-.692-1.808-.692-2.934 0-1.875-.188-2.124-2.225-2.939-1.224-.49-3.31-.89-4.635-.89-2.214 0-2.436.13-2.73 1.596a75.67 75.67 0 0 1-.656 2.94c-.27 1.079-.053 1.473 1.106 2.001.794.362 2.02.658 2.724.658 3.715 0 48.77 14.374 61.486 19.616 7.321 3.018 8.516 3.036 9.614.141zM40.207 47.53c14.428-5.94 34.407-12.113 54.818-16.935l8.717-2.06-.008-2.575c-.013-4.08-.274-4.248-5.456-3.516-2.45.347-5.335.999-6.413 1.449-1.833.766-1.959.98-1.959 3.318 0 2.999-.705 3.515-5.787 4.234-1.903.27-3.854.642-4.336.827-.63.242-1.206-.31-2.049-1.96-1.376-2.699-.372-2.764-13.01.842-11.855 3.383-11.346 3.123-11.346 5.803 0 2.958-1.777 4.618-6.509 6.08-4.532 1.4-4.807 1.386-5.56-.266-.343-.753-1.262-1.529-2.042-1.725-1.829-.459-8.81 1.76-10.729 3.41-1.376 1.184-1.404 1.322-.68 3.365 1.025 2.892 1.725 3.651 3.07 3.331.628-.149 4.803-1.779 9.28-3.622zm40.306-1.461c5.623-1.678 13.121-3.647 16.664-4.375 3.542-.728 6.967-1.605 7.61-1.95 1.322-.707 1.528-2.713.562-5.485-.723-2.071-1.272-2.128-8.525-.886-8.562 1.467-27.535 7.007-29.217 8.532-.92.835 1.131 7.215 2.32 7.215.2 0 4.963-1.373 10.586-3.051zm246.85.242c1.842-3.61 1.366-4.923-2.235-6.177-4.755-1.655-28.324-7.623-28.84-7.304-.803.496-1.683 4.693-1.327 6.318.313 1.423.661 1.616 4.047 2.243 2.037.377 6.195 1.426 9.239 2.33 4.095 1.218 16.307 4.517 17.838 4.82.07.014.645-.99 1.278-2.23zm-70.422-1.176c.386-.386.664-2.236.664-4.417 0-4.278.613-3.84-6.802-4.848-2.372-.323-5.781-.586-7.577-.586h-3.264l-.358 2.384c-.196 1.312-.274 3.118-.172 4.013.175 1.54.365 1.652 3.506 2.082 1.827.25 5.189.779 7.472 1.176 5.518.96 5.76.967 6.53.196zm-106.51-.794c1.87-.497 4.894-1.058 6.72-1.245l3.321-.34.165-2.525c.09-1.388-.09-3.194-.402-4.013-.651-1.713-1.358-1.799-7.788-.943-2.283.304-5.33.694-6.773.867-3.538.424-4.49 1.463-4.146 4.522.514 4.556 2.506 5.379 8.902 3.677zm85.05-2.729c.296-.78.539-2.617.539-4.081 0-3.273 1.1-2.983-16.11-4.241-11.403-.834-15.365-.871-33.224-.317-11.153.347-20.884.86-21.624 1.142-1.27.483-1.333.713-1.11 4.023.131 1.93.434 3.721.674 3.979.24.257 6.501.158 13.915-.22 13.387-.684 40.962-.386 50.284.543 2.283.227 4.593.453 5.133.503.593.054 1.196-.473 1.522-1.33zm138.132-1.101c.642-2.56-3.967-5.752-9.61-6.654-1.9-.304-2.333-.186-2.846.77-.671 1.256-.28 2.867.697 2.876.348.004 2.75.997 5.337 2.208 2.587 1.211 5.01 2.205 5.385 2.208.375.003.841-.63 1.037-1.408zM33.435 38.742c5.293-2.21 5.816-2.88 3.997-5.127-.944-1.166-1.095-1.189-2.629-.396-.895.462-2.682 1.124-3.97 1.471-3.42.92-5.394 2.783-4.925 4.649.498 1.988 1.53 1.906 7.527-.597zm117.79-6.5c14.013-1.525 28.365-2.494 36.945-2.494 9.755 0 9.862-.054 9.552-4.862l-.168-2.61-15.497.041c-19.453.051-39.216 1.856-41.116 3.756-.64.64-.663 1.321-.13 3.886.754 3.632-.15 3.434 10.415 2.284zm107.244-.972c.529-2.391.435-4.872-.209-5.516-.634-.634-22.884-2.943-36.14-3.75-10.17-.62-19.865-.259-20.545.766-.223.337-.41 1.89-.415 3.452l-.008 2.838 8.717.377c9.075.391 33.544 2.231 40.265 3.027 7.518.891 7.885.838 8.335-1.194zm88.244-2.089v-2.162l-6.227-1.926c-7.41-2.292-14.84-4.2-16.36-4.2-1.558 0-2.2 2.741-.87 3.714.537.392 1.489.717 2.116.722.626.005 5.498 1.472 10.825 3.261 5.327 1.789 9.872 3.14 10.1 3.003.229-.138.416-1.223.416-2.412zM64.25 27.787c4.914-1.661 9.46-3.02 10.1-3.02.905 0 1.164-.34 1.157-1.522-.017-3.1-.45-3.205-6.716-1.63-5.513 1.388-17.903 5.457-18.534 6.088-.168.168-.132 1.098.081 2.067.377 1.714.448 1.752 2.682 1.4 1.262-.2 6.315-1.722 11.23-3.383zm89.304-7.152c16.696-1.6 28.16-2.128 46.214-2.133 18.874-.004 30.632.576 48.675 2.404 5.767.584 10.618.93 10.78.767.162-.162.3-1.711.307-3.443l.012-3.149-4.428-.633a210.53 210.53 0 0 0-8.717-1.026l-4.289-.393v1.632c0 1.71-1.174 3.117-3.044 3.648-.609.173-3.224.005-5.811-.374l-4.705-.688-.588-2.416c-.423-1.736-.968-2.57-1.937-2.96-1.721-.694-39.991-1.144-47.01-.553l-5.258.443-.172 2.084c-.25 3.03-1.887 3.9-7.785 4.14-2.625.107-5.108-.035-5.52-.315-.41-.28-.922-1.35-1.136-2.379l-.39-1.87-5.505.192c-3.027.105-7.248.479-9.379.83l-3.874.638-.171 2.697c-.254 3.992.035 4.406 2.806 4.012 1.29-.184 6.207-.704 10.925-1.155zM97.162 19.24c4.749-1.491 5.063-1.737 4.597-3.595l-.388-1.544-4.125.349c-4.657.393-9 2.036-9 3.403 0 .494.272 1.407.606 2.03.708 1.325 2.478 1.188 8.31-.643zm210.472.223c.884-2.303.378-3.489-1.74-4.077-4.388-1.219-7.333-.527-7.333 1.722 0 .712.938 1.273 3.46 2.072 4.266 1.352 5.185 1.398 5.613.283zM148.85 10.626c8.887-.997 10.376-1.429 9.867-2.861-.962-2.708-1.181-2.749-10.264-1.925-4.652.422-8.77 1.023-9.15 1.336-.73.6-.952 3.31-.323 3.939.519.519 1.167.487 9.87-.49zm111.972-.636c.403-2.828-.453-3.253-8.03-3.995-8.387-.822-10.314-.435-10.029 2.014.174 1.494.225 1.511 6.54 2.206 3.5.385 6.739.805 7.195.933.457.128 1.577.193 2.49.146 1.256-.066 1.703-.384 1.834-1.304zm-33.13-2.073c1.25-1.506.475-3.273-1.634-3.728-5.265-1.134-26.046-1.72-38.702-1.092-7.082.351-13.102.778-13.377.948-.275.17-.5 1.206-.5 2.301V8.34l15.635-.302c12.675-.245 30.207.032 36.738.58.647.055 1.476-.26 1.84-.7z" style="fill:#000;stroke-width:.999999"/>
    <path d="M399.5 141.4H.5v305.164c0 110.182 89.32 199.49 199.495 199.49 110.175 0 199.505-89.318 199.505-199.49v-.092z" style="fill:#0085ca;fill-opacity:1;fill-rule:nonzero;stroke-width:1"/>
    <path d="M399.5 141.4H.5v305.164c0 110.182 89.32 199.49 199.495 199.49 110.175 0 199.505-89.318 199.505-199.49v-.092z" style="fill:none;stroke:#000;stroke-width:1"/>
    <path style="fill:#fff;fill-rule:evenodd;stroke:#000;stroke-width:1;stroke-linecap:round;stroke-linejoin:round;stroke-miterlimit:4;stroke-dasharray:none;stroke-opacity:1" d="M129.644 410.233c-3.444 2.604-5.881 9.326-7.954 11.67-2.672 3.02-6.522 6.463-9.004 8.731-1.496 1.368-.812 5.897.606 5.105l14.927-8.34c3.67-2.05 18.028.62 25.687-.074 8.398-.76 28.825.912 40.243.753 12.205-.17 25.924-.864 34.746-3.632 1.847-.58 9.73 3.792 12.156 4.833 8.79 3.768 16.049 2.153 24.019 1.675 1.75.036.85-1.658-1.875-2.603-2.477-.858-.778-3.147-2.64-3.419-2.036-.297-6.588-.86-5.972-3.135.601-2.225-6.719 4.108-9.792 3.214-1.567-.456-8.685-4.606-7.587-5.134 4.826-2.321 10.138-3.976 10.138-3.976.197.262 33.718 10.898 46.13 16.218 1.156-2.83.143-9.692-2.447-11.15 1.585-2.32-3.887-10.316-6.71-11.252.575-2.26-4.929-9.692-8.368-10.271.458-2.205-4.543-6.933-7.391-6.464-.335-2.505-2.983-4.798-4.633-4.186-1.952.724-13.866 7.254-18.896 8.216-4.04.773-12.963-2.251-17.85-4.066 16.513-18.318 34.49-36.956 50.715-46.562 32.027 19.847 64.426 53.361 104.76 81.752 1.8 1.267 2.613.096 1.651-1.29-15.63-32.964-50.54-71.377-82.519-96.681l-45.46-1.681c-17.332 8.626-34.996 21.578-58.53 37.11-16.487-13.502-29.335-23.467-45.303-33.198-7.817-5.583-34.742-4.31-39.276-1.522-26.854 16.516-89.872 72.739-99.313 90.59-1.354 2.56-.947 3.346 1.53 1.878 36.221-21.478 120.508-74.236 120.508-74.236 14.631 9.753 22.93 23.81 37.626 39.725l-3.452 3.975c-19.88 5.835-33.123 11.871-40.47 17.427z"/>
    <path style="fill:none;fill-rule:evenodd;stroke:#000;stroke-width:1;stroke-linecap:round;stroke-linejoin:round;stroke-miterlimit:4;stroke-dasharray:none;stroke-opacity:1" d="m113.292 435.739 15.364-13.14 3.784.327"/>
    <path style="fill:none;fill-rule:evenodd;stroke:#000;stroke-width:1;stroke-linecap:round;stroke-linejoin:miter;stroke-miterlimit:4;stroke-dasharray:none;stroke-opacity:1" d="M135.938 417.621c1.35-1.37 3.913-1.797 6.291-1.586"/>
    <circle style="opacity:1;fill:#000;fill-opacity:1;fill-rule:evenodd;stroke:#000;stroke-width:1;stroke-linecap:round;stroke-linejoin:round;stroke-miterlimit:4;stroke-dasharray:none;stroke-opacity:1" cx="138.957" cy="417.62" r="1.097"/>
    <path style="fill:none;fill-rule:evenodd;stroke:#000;stroke-width:1;stroke-linecap:round;stroke-linejoin:miter;stroke-miterlimit:4;stroke-dasharray:none;stroke-opacity:1" d="m170.114 392.806-8.341 10.776"/>
    <path style="fill:none;fill-rule:evenodd;stroke:#000;stroke-width:1;stroke-linecap:butt;stroke-linejoin:miter;stroke-miterlimit:4;stroke-dasharray:none;stroke-opacity:1" d="M173.566 388.831c8.076-7.745 18.489-20.164 24.228-23.236"/>
    <path style="fill:none;fill-rule:evenodd;stroke:#000;stroke-width:1;stroke-linecap:round;stroke-linejoin:round;stroke-miterlimit:4;stroke-dasharray:none;stroke-opacity:1" d="M176.605 406.61c18.515-23.33 44.854-45.988 77.491-68.106h10.897l12.9 7.88M227.176 392.946l-11.825 14.269-14.53 5.297-14.53-5.297"/>
    <path style="fill:none;fill-rule:evenodd;stroke:#000;stroke-width:1;stroke-linecap:butt;stroke-linejoin:miter;stroke-miterlimit:4;stroke-dasharray:none;stroke-opacity:1" d="M256.366 392.988c11.637 6.343 13.783 21.112 10.898 29.664M291.025 420.969l-22.55-4.522M284.316 409.717l-16.144.373M275.947 399.446l-10.348 3.682M268.556 392.982l-7.65 3.941"/>
    <path style="fill:none;fill-rule:evenodd;stroke:#000;stroke-width:1;stroke-linecap:round;stroke-linejoin:miter;stroke-miterlimit:4;stroke-dasharray:none;stroke-opacity:1" d="M18.142 418.868c29.038-29.796 61.067-56.974 96.561-81.121 1.779-1.21 6.134-.889 7.416.151l13.82 11.208"/>
    <path d="M114.953 291.814c-2.701 3.053-6.59 6.532-9.1 8.824-1.511 1.382-.82 5.958.613 5.158l15.084-8.427c3.709-2.072 18.218.626 25.958-.075 8.486-.769 35.052-2.04 46.591-2.201 12.333-.172 26.197-.873 35.112-3.67 1.866-.586 9.832 3.832 12.284 4.883 8.883 3.809 16.218 2.176 24.272 1.694 1.77.036.858-1.677-1.895-2.63-2.503-.868-.786-3.181-2.667-3.456-2.058-.3-6.658-.87-6.036-3.168.608-2.248-6.79 4.15-9.895 3.247-1.584-.46-8.776-4.654-7.667-5.188 4.878-2.345 10.246-4.017 10.246-4.017.198.264 34.072 11.013 46.615 16.389 1.168-2.86.144-9.795-2.473-11.268 1.602-2.344-3.927-10.425-6.78-11.37.581-2.285-4.981-9.794-8.456-10.38.462-2.228-4.591-7.006-7.47-6.532-.338-2.531-3.014-4.849-4.682-4.23-1.972.732-14.012 7.33-19.094 8.302-4.083.781-13.1-2.274-18.039-4.109 16.688-18.51 34.854-33.419 51.25-43.126 32.365 20.056 63.848 46.786 104.608 75.476 1.819 1.28 2.64.097 1.668-1.303-15.796-33.312-49.816-64.992-82.132-90.563l-45.939-1.7c-17.514 8.718-42.239 22.932-66.02 38.628-16.662-13.645-32.234-27.253-48.122-37.482-8.162-5.255-27.848-4.914-32.43-2.096-27.136 16.69-85.932 74.342-95.473 92.38-1.368 2.588-.956 3.383 1.546 1.9 36.603-21.705 111.167-69.155 111.167-69.155 8.503 6.366 21.077 18.336 35.929 34.42l-3.489 4.016c-20.09 5.896-27.648 11.053-33.1 15.176-5.452 4.123-9.89 13.285-11.984 15.653z" style="fill:#fff;fill-rule:evenodd;stroke:#000;stroke-width:1;stroke-linecap:round;stroke-linejoin:round;stroke-miterlimit:4;stroke-dasharray:none;stroke-opacity:1"/>
    <path d="m106.466 305.796 16.711-13.87 4.613.133" style="fill:none;fill-rule:evenodd;stroke:#000;stroke-width:1;stroke-linecap:round;stroke-linejoin:round;stroke-miterlimit:4;stroke-dasharray:none;stroke-opacity:1"/>
    <path d="M131.128 285.119c1.364-1.385 3.954-1.816 6.357-1.604" style="fill:none;fill-rule:evenodd;stroke:#000;stroke-width:1;stroke-linecap:round;stroke-linejoin:miter;stroke-miterlimit:4;stroke-dasharray:none;stroke-opacity:1"/>
    <circle cy="285.117" cx="134.179" style="opacity:1;fill:#000;fill-opacity:1;fill-rule:evenodd;stroke:#000;stroke-width:1;stroke-linecap:round;stroke-linejoin:round;stroke-miterlimit:4;stroke-dasharray:none;stroke-opacity:1" r="1.109"/>
    <path d="m160.037 260.985-5.218 5.026" style="fill:none;fill-rule:evenodd;stroke:#000;stroke-width:1;stroke-linecap:round;stroke-linejoin:miter;stroke-miterlimit:4;stroke-dasharray:none;stroke-opacity:1"/>
    <path d="M163.526 256.969c8.16-7.828 24.096-17.141 27.382-19.967" style="fill:none;fill-rule:evenodd;stroke:#000;stroke-width:1;stroke-linecap:butt;stroke-linejoin:miter;stroke-miterlimit:4;stroke-dasharray:none;stroke-opacity:1"/>
    <path d="M176.37 273.398c18.71-23.575 45.326-42.546 78.308-64.898h11.012l13.035 7.964M227.474 259.59l-11.95 14.42-14.683 5.353-14.682-5.353" style="fill:none;fill-rule:evenodd;stroke:#000;stroke-width:1;stroke-linecap:round;stroke-linejoin:round;stroke-miterlimit:4;stroke-dasharray:none;stroke-opacity:1"/>
    <path d="M256.972 259.633c11.758 6.41 13.928 21.334 11.012 29.977M291.995 287.909l-22.788-4.57M285.215 276.539l-16.314.377M276.759 266.159l-10.458 3.721M269.29 259.627l-7.73 3.983" style="fill:none;fill-rule:evenodd;stroke:#000;stroke-width:1;stroke-linecap:butt;stroke-linejoin:miter;stroke-miterlimit:4;stroke-dasharray:none;stroke-opacity:1"/>
    <path d="M19.17 287.182c29.343-30.11 49.423-51.99 85.291-76.391 1.798-1.223 6.155-.841 7.495.153l15.64 11.605" style="fill:none;fill-rule:evenodd;stroke:#000;stroke-width:1;stroke-linecap:round;stroke-linejoin:miter;stroke-miterlimit:4;stroke-dasharray:none;stroke-opacity:1"/>
    <path d="M136.578 529.115c-3.099 2.343-5.292 8.392-7.157 10.5-2.405 2.72-5.87 5.818-8.103 7.859-1.346 1.23-.73 5.306.545 4.593l13.433-7.504c3.302-1.845 16.223.557 23.116-.067 7.557-.685 25.94.82 36.215.677 10.983-.153 23.328-.777 31.268-3.268 1.661-.521 8.755 3.413 10.939 4.349 7.91 3.391 14.442 1.938 21.614 1.508 1.576.032.765-1.493-1.687-2.343-2.23-.772-.7-2.832-2.375-3.076-1.833-.268-5.929-.774-5.375-2.821.541-2.003-6.046 3.696-8.812 2.891-1.41-.41-7.815-4.145-6.827-4.62 4.343-2.088 9.123-3.577 9.123-3.577.177.235 30.343 9.807 41.512 14.594 1.04-2.547.129-8.722-2.202-10.034 1.426-2.088-3.497-9.284-6.037-10.125.517-2.035-4.437-8.722-7.531-9.244.411-1.983-4.089-6.239-6.652-5.816-.301-2.255-2.684-4.318-4.17-3.767-1.755.651-12.477 6.527-17.004 7.393-3.635.695-16.97-.49-21.369-2.123 14.861-16.484 24.28-25.545 37.206-35.586 28.82 17.86 52.087 38.206 88.385 63.755 1.62 1.14 2.35.086 1.485-1.16-14.066-29.666-33.03-50.37-61.808-73.141l-37-5.283c-15.597 7.762-39.259 19.534-53.329 33.117-14.837-12.15-23.31-19.148-37.68-27.905-7.034-5.024-30.427-1.923-34.507.586-24.166 14.862-58.029 56.054-66.524 72.117-1.219 2.304-.852 3.012 1.376 1.691 32.596-19.328 85.598-57.402 85.598-57.402 10.514 7.381 25.242 17.748 32.603 25.368l-1.85 2.181c-17.89 5.25-29.807 10.683-36.419 15.683z" style="fill:#fff;fill-rule:evenodd;stroke:#000;stroke-width:1;stroke-linecap:round;stroke-linejoin:round;stroke-miterlimit:4;stroke-dasharray:none;stroke-opacity:1"/>
    <path d="m121.863 552.067 13.827-11.823 3.405.293" style="fill:none;fill-rule:evenodd;stroke:#000;stroke-width:1;stroke-linecap:round;stroke-linejoin:round;stroke-miterlimit:4;stroke-dasharray:none;stroke-opacity:1"/>
    <path d="M142.243 535.764c1.214-1.233 3.52-1.618 5.66-1.428" style="fill:none;fill-rule:evenodd;stroke:#000;stroke-width:1;stroke-linecap:round;stroke-linejoin:miter;stroke-miterlimit:4;stroke-dasharray:none;stroke-opacity:1"/>
    <circle cy="535.762" cx="144.959" style="opacity:1;fill:#000;fill-opacity:1;fill-rule:evenodd;stroke:#000;stroke-width:1;stroke-linecap:round;stroke-linejoin:round;stroke-miterlimit:4;stroke-dasharray:none;stroke-opacity:1" r=".987"/>
    <path d="m172.998 513.432-7.507 9.698" style="fill:none;fill-rule:evenodd;stroke:#000;stroke-width:1;stroke-linecap:round;stroke-linejoin:miter;stroke-miterlimit:4;stroke-dasharray:none;stroke-opacity:1"/>
    <path d="M174.847 511.251c7.268-6.97 13.97-11.69 19.134-14.455" style="fill:none;fill-rule:evenodd;stroke:#000;stroke-width:1;stroke-linecap:butt;stroke-linejoin:miter;stroke-miterlimit:4;stroke-dasharray:none;stroke-opacity:1"/>
    <path d="M178.839 525.854c16.662-20.994 31.79-30.462 61.16-50.366h9.806l6.443 4.02M219.042 515.093l-7.71 12.422-10.143 4.767-13.773-2.393" style="fill:none;fill-rule:evenodd;stroke:#000;stroke-width:1;stroke-linecap:round;stroke-linejoin:round;stroke-miterlimit:4;stroke-dasharray:none;stroke-opacity:1"/>
    <path d="M249.918 513.317c10.471 5.708 13.101 19.277 10.504 26.974M281.805 538.776l-20.293-4.07M275.768 528.65l-14.529.336M268.237 519.407l-9.313 3.314M261.585 513.59l-6.883 3.547" style="fill:none;fill-rule:evenodd;stroke:#000;stroke-width:1;stroke-linecap:butt;stroke-linejoin:miter;stroke-miterlimit:4;stroke-dasharray:none;stroke-opacity:1"/>
    <path d="M59.086 539.26c26.13-26.815 32.106-41.87 64.047-63.599 1.6-1.089 5.52-.8 6.674.136l12.437 10.086" style="fill:none;fill-rule:evenodd;stroke:#000;stroke-width:1;stroke-linecap:round;stroke-linejoin:miter;stroke-miterlimit:4;stroke-dasharray:none;stroke-opacity:1"/>
</svg>
