<svg xmlns="http://www.w3.org/2000/svg" xml:space="preserve" viewBox="30.5 31.5 400 500" height="500" width="400">
    <path d="M230.44 531.14C156.12 477.22 105.18 409.12 74.7 322.98c-27.64-78.1-38.73-172.75-33.91-289.35l.02-.46h379.82l.02.46c4.81 116.6-6.28 211.24-33.91 289.35-30.48 86.14-81.42 154.24-155.74 208.16l-.28.2-.28-.2z" style="fill:#e00e00;fill-opacity:1"/>
    <path d="M419.96 33.21c9.07 219.45-36.26 385.95-189.46 497.1C77.31 419.16 31.99 252.66 41.06 33.21h378.9m.92-.95H40.14l-.04.92c-4.82 116.66 6.28 211.36 33.93 289.52 30.51 86.24 81.51 154.41 155.91 208.39l.56.41.56-.41c74.4-53.98 125.4-122.15 155.91-208.39 27.65-78.16 38.75-172.86 33.93-289.52l-.04-.92z"/>
    <path style="fill:#fff;fill-rule:evenodd;stroke:#000;stroke-width:1px;stroke-linecap:butt;stroke-linejoin:round;stroke-opacity:1" d="M326.74 309.756c-21.274-15.139-32.178-29.219-48.888-45.29-4.17-4.01.246-12.881 7.575-9.554l61.51 27.93c11.185 5.078 20.207-1.684 22.053-9.893 1.658-7.37-4.316-15.39-15.12-20.336 12.551 1.655 22.762-1.942 25.283-11.965 2.155-8.567-2.537-16.976-10.163-20.232 15.98-1.584 21.98-11.529 22.079-20.218.123-10.795-10.224-18.273-17.734-18.834 10.78-2.997 17.8-13.311 17.527-22.334-.218-7.211-6.858-15.276-11.635-16.554 9.113-5.198 15.413-16.631 13.186-25.049-1.81-6.839-8.634-11.513-18.195-10.455 6.034-5.759 12.593-14.263 9.276-22.717-2.352-5.994-11.832-10.02-21.76-5.175-30.094 14.685-55.112 35.544-84.228 58.604-10.696 8.471-20.382 17.27-20.04 25.92.289 7.272-.216 13.601 3.922 20.475 1.668 2.772 4.46 3.48 7.188 3.486 9.95.02 7.518 7.344 6.752 15.683-.708 7.71-.146 22.57-7.624 24.395-8.78 1.408-14.016-7.748-21.83-19.949-5.731-8.949-19.064-20.355-16.299-26.946l18.36-43.755c4.559-10.862 5.017-18.528 3.324-23.922-.663-2.114 1.317-2.516 3.876-3.632 7.643-3.332 11.528-4.224 18.582-8.283 6.37-3.666 12.986-8.971 14.803-19.101 1.126-6.28-4.094-17.874-8.426-15.635-4.114 2.126 1.897 5.192 1.986 11.098.197 12.99-11.008 22.223-32.574 26.295-7.715 1.457-8.802-5.235-24.712-4.9-6.018.126-12.761 2.164-20.024 10.785-5.977 7.095-14.202 3.949-23.386 6.587-2.574.74-8.298 1.948-8.213 6.088 8.878 1.466 12.085 1.43 16.128 2.035 8.918 1.337 12.556 2.974 14.52 8.341 3.806 10.393 2.548 24.949-10.327 33.687-10.974 7.448-19.334 16.285-29.108 27.982-8.647 10.349-12.11 22.083-12.74 33.645-4.876-2.305-10.57-7.247-8.197-18.908 2.046-10.06 11.36-18.035 17.812-25.05 6.631-7.208 9.15-15.868 9.952-24.639.798-8.734-3.95-14.97-13.054-23.907l-57.52-56.468c-7.176-7.045-20.353-10.687-27.662-1.743-8.564 10.48 1.254 26.324 10.237 35.287-8.687 2.213-12.617 6.957-13.691 12.75-2.945 15.886 17.398 34.02 27.94 39.691-10.268-4.247-23.772-1.337-26.447 8.766-2.926 11.053 7.144 22.956 22.871 26.792-12.3.146-24.58 9.532-23.306 22.111 1.022 10.105 14.053 17.004 25.256 15.609-12.926 5.613-16.964 16.337-13.486 26.491 2.8 8.18 12.498 12.279 21.556 11.59-3.671 2.892-4.685 12.253 1.633 19.276 4.103 4.561 15.365 6.016 22.11.98l33.4-24.936c11.194 14.954 28.981 31.112 53.073 35.828.16 5.01 1.771 12.57.478 15.03-7.068 13.442-17.479 27.335-27.487 40.513-2.847 3.749-7.378 2.325-9.802 0-9.467-9.078-8.773-9.413-16.783-10.387-3.352-.407-5.605 1.287-7.237 3.853 3.195-.483 5.62-1.557 7.736.1 2.559 8.145 9.932 5.821 12.416 11.391.7 4.36-.71 6.355-3.157 7.19-4.651 1.588-13.35-2.4-18.846 2.186-3.27 1.483-4.939 4.089-4.837 7.31 2.693-1.958 3.193-3.857 6.21-3.59 5.849 3.31 10.736-2.303 19.972-.728 2.922.498 1.579 2.816.435 4.792-1.562 2.7-3.51 5.648-3.986 7.927-1.052 5.029-3.402 9.051 1.467 13.377.221-3.237.394-6.494 2.614-8.93 3.214-.89 5.692-7.424 5.71-11.847.01-2.425 1.86-4.447 2.68-4.88 2.959-1.56 8.466-.574 9.328-4.695 2.474-11.828 7.988-19.825 16.554-30.059 6.2-7.405 12.777-14.738 20.693-22.87 2.468-2.536 3.298-6.102 2.221-8.931l-2.68-7.045c8.225 3.698 13.255 5.802 22.677 5.956 3.546.058 13.22 12.926 13.7 18.297 1.656 18.478 6.56 35.751 11.168 52.962.734 2.741-2.905 9.455-6.572 9.334-16.689-.551-15.094-6.157-24.3-2.088-3.205.54-5.251 1.962-6.599 4.702 3.651-1.194 6.379-.848 9.622 0 5.86 4.69 8.112 2.062 13.218 1.742 4.431-.278 6.846 3.439 5.228 5.01-9.98 9.686-14.466 6.867-16.337 15.465-2.836 3.703-2.313 7.406-1.96 11.109 2.612-3.936 5.261-7.575 8.277-8.277 3.844-.612 6.98-2.71 7.842-6.753.72-3.38 4.555-6.247 7.841-8.277 3.031-1.872 4.304 3.427 3.214 5.754-2.433 5.197-3.915 9.794-2.343 13.632-.182 4.366 1.961 6.988 3.268 10.237.653-3.575 1.307-6.78 1.96-11.108 3.43-1.037 4.436-2.812 4.41-5.047-.048-3.983-1.954-7.764-1.578-14.121 1.73-1.917 2.889-3.275 3.368-5.945.43-2.398-.213-3.531-.845-6.046-.356-1.418 6.105-2.791 3.576-6.742-3.878-6.057-6.692-19.14-9.956-28.954-3.835-11.528-4.348-25.085-5.292-37.045-.356-4.516-1.705-8.74-4.356-11.326-3.466-3.38-6.68-5.255-10.02-11.327-3.443-6.26 2.46-15.671 6.1-10.89 14.524 19.079 28.906 38.432 40.806 58.837 2.639 4.525 2.865 9.405 9.753 14.222 6.312 4.413 15.307-.313 24.37-10.11 6.216-6.72 16.575-14.548 14.376-21.564-3.368-10.745-13.332-10.374-25.696-19.173z"/>
    <path style="fill:none;fill-rule:evenodd;stroke:#000;stroke-width:1px;stroke-linecap:round;stroke-linejoin:miter;stroke-opacity:1" d="m373.335 181.364-46.602 8.597M379.227 142.476l-57.504 24.614M374.218 106.972l-61.86 35.069M368.99 220.416l-44.217-6.06M353.87 252.613l-39.553-11.9M103.905 276.435l26.138-14.159M95.835 238.354l27.02-7.661M93.885 200.634l25.05 3.485M97.46 165.076l26.92 13.558M83.212 112.635l52.277 40.95"/>
    <circle style="opacity:.98000004;fill:#000;fill-opacity:1;stroke:none;stroke-width:1;stroke-linecap:round;stroke-linejoin:round;stroke-miterlimit:4;stroke-dasharray:none;stroke-opacity:1" cx="224" cy="119.34" r="3.234"/>
    <path style="fill:none;fill-rule:evenodd;stroke:#000;stroke-width:1px;stroke-linecap:round;stroke-linejoin:miter;stroke-opacity:1" d="M218.5 119.34h-3.703M233.203 119.34H229.5"/>
    <path style="fill:none;fill-rule:evenodd;stroke:#000;stroke-width:1px;stroke-linecap:butt;stroke-linejoin:miter;stroke-opacity:1" d="M151.644 228.063c-.03 9.497.062 15.513 1.66 24.202 1.544 8.4 5.158 16.217 7.744 19.49M214.121 307.583c6.909.597 10.457-1.537 13.698-.293"/>
</svg>
