<svg xmlns="http://www.w3.org/2000/svg" width="1782" height="2056" viewBox="0 0 471.488 543.983">
    <g style="display:inline">
        <path transform="scale(.26458)" d="M0 0v.666h1782L891.066.268Zm1782 .666L891.467.934l-890.533.4.798 89.732c2.534 278.934 22.402 520 59.602 725.6 60.267 332.267 165.465 581.067 335.332 792 96.133 119.467 212.933 229.735 388 366.135 41.867 32.666 104.533 79.865 106 79.865 1.867 0 69.068-50.667 116.135-87.467 160.533-125.6 269.066-227.066 362.533-339.199 206.267-247.467 322.8-550.666 376.666-980.533 20.133-161.334 32.267-355.866 34.4-552.133z" style="display:inline;fill:#fff;fill-opacity:1;stroke:none;stroke-width:1"/>
        <path style="display:inline;fill:#3761a5;fill-opacity:1;stroke:none;stroke-width:1" d="M0 0v.666h1782L891.066.268Zm1782 .666L891.467.934l-890.533.4.798 89.732c2.534 278.934 22.402 520 59.602 725.6 60.267 332.267 165.465 581.067 335.332 792 96.133 119.467 212.933 229.735 388 366.135 41.867 32.666 104.533 79.865 106 79.865 1.867 0 69.068-50.667 116.135-87.467 160.533-125.6 269.066-227.066 362.533-339.199 206.267-247.467 322.8-550.666 376.666-980.533 20.133-161.334 32.267-355.866 34.4-552.133zM720.637 79.136c.911.01 1.814.03 2.697.063 28.667 1.067 51.867 18.134 88 65.334 43.867 57.2 67.732 84.667 77.332 88.934 10.667 4.933 21.067 2.533 45.334-10 28.667-14.8 35.6-17.334 49.334-17.334 10.133-.134 13.066.401 18.666 3.201 14 6.8 24.667 21.2 29.467 40 2.666 10.267 3.2 35.465 1.334 73.332-1.467 29.733-.4 35.868 6.933 43.201 6.267 6.4 16.4 9.466 26.8 8.133 4.132-.533 15.865-3.733 26.132-7.066 17.2-5.734 19.733-6.268 32-6.268 15.6 0 20.535 2 32.135 12.934 14.4 13.6 20.666 28.266 20.666 48 .133 22.666-8 45.2-31.334 88C1130.666 538 1128 544.267 1128 552.533c0 4.934.8 6.268 6.4 11.735 8.4 8.133 13.733 11.199 34.8 20.265 29.333 12.4 42 22.534 50.8 40.4 6.4 12.8 9.468 26.934 10.268 46.401 1.2 29.467-2.669 37.065-36.135 71.332-24.8 25.2-28.799 31.467-29.865 46.533-.8 12.667 3.065 21.201 13.865 30.268 23.2 19.333 31.066 30.8 34.533 50.8 4.667 26.134 1.734 32.8-29.2 66.133-9.866 10.667-21.599 24.267-26.132 30.4-9.467 12.8-20.134 33.867-23.867 47.2-1.334 5.067-2.8 8.4-3.2 7.334-.4-1.067-2.533-10.8-4.933-21.6-29.6-140.133-128.4-363.201-272.4-615.068-36.534-63.867-89.602-151.066-91.202-149.6-.8.8 10.401 30.533 17.334 45.6 3.2 7.333 17.868 37.867 32.268 68 50.533 105.067 78.265 165.068 105.865 229.602 76.8 179.2 119.602 321.065 130.135 430.398 2.267 24.4 2.667 67.068.533 85.734-6.4 58.934-27.734 102.266-63.201 128.666-9.6 7.2-35.465 20.934-39.332 20.934-.8 0 1.466-3.466 5.066-7.732 20.4-23.867 29.2-46.4 28-72-1.066-23.067-9.733-41.068-28.933-60.4C936 1090.4 926.8 1084.665 898.4 1072.132c-38.4-17.067-52.4-25.067-66.267-38-7.6-7.2-13.467-17.599-13.467-23.865 0-6.134 6.4-23.335 14-37.602 10.533-19.867 14.268-31.2 14.268-43.732.133-9.334-.4-11.333-4.934-20.666-3.867-7.867-7.733-12.935-16.533-21.735-17.334-17.333-34.134-27.6-89.467-54.666-63.733-31.333-74.8-36.933-94.934-48.933-46.933-27.734-74.132-56.4-84.798-89.6-7.734-23.867-7.202-48.134 1.332-62.8 4.4-7.467 8.133-10.8 16.533-15.067 10.133-5.067 21.068-7.2 50.135-9.467 36.933-2.8 47.865-6.8 54.798-19.732C681.466 581.6 682 578.533 682 568c0-11.333-.4-13.467-3.867-20.533-4.934-10-19.2-25.2-34-36-6.267-4.534-23.066-15.866-37.2-25.2-39.866-26.4-54-42.001-54-59.601 0-12.933 6.668-24.8 18.401-32.533 9.333-6.267 20.534-10.4 44.934-16.934 24-6.266 31.866-9.465 37.066-15.332 5.6-6.4 6.933-12.133 7.6-33.6.933-26-.668-36.666-13.735-91.466-15.2-64-16.4-90.934-4.666-114.801 9.2-18.667 33.6-35.2 60.666-41.467 4.2-.933 11.056-1.458 17.438-1.396zm406.426 1187.616c26.095.11 54.988 1.782 78.271 4.715 94.667 11.733 213.333 47.599 309.066 93.199l17.733 8.533-2.266 4.4c-1.2 2.4-8 14.534-14.933 27.067-105.067 187.467-244.134 342.667-466.934 521.467-54.267 43.6-154.666 120.533-157.066 120.533-1.467 0-61.334-45.2-104.934-79.2-227.467-176.932-368.533-322.398-476-490.665-25.6-40.134-56.533-94.135-54-94.135.8 0 4.4 1.467 8 3.334 17.867 9.067 52.934 21.067 77.334 26.533 81.6 18.134 166.267 10.668 284.533-25.199 15.467-4.667 61.2-19.601 101.467-33.201 40.4-13.733 85.6-28.667 100.666-33.467 104.8-32.933 180.667-48 266-53.066 9.917-.625 21.2-.898 33.063-.848zm-57.44 178.715c-8.987-.001-16.857.25-20.957.8-39.467 5.067-82.133 20.534-160 58-93.6 45.067-127.065 59.733-165.332 72.133-72.8 23.734-132.667 26.533-188.533 8.8-13.867-4.4-40.668-16.667-53.602-24.667-4.4-2.666-8.398-4.4-8.931-3.867-1.734 1.733-.8 14.801 1.6 20.668 5.866 14.8 19.998 29.866 41.331 44.266 30.534 20.4 65.067 32.4 97.867 34l16.4.8 3.2 6.133c14 27.6 58.534 51.201 100.4 53.201l15.067.666 1.734 4.133c7.2 17.067 36.133 37.734 60.133 42.801 27.2 5.733 81.6-1.734 128.666-17.734 20.4-7.067 30.268-11.067 69.602-28.4 37.733-16.667 58.532-24.934 73.332-29.067 51.6-14.533 96.4-6.4 146.267 26.533l12.533 8.135-3.734-6.4c-22.533-39.067-62.932-66-111.865-74.534-18.667-3.333-44.668-2-65.735 3.467-26.933 6.8-41.599 12.8-111.732 45.732-30.933 14.4-47.068 20.935-66.135 26.801-30.8 9.2-58.533 10.934-82.133 4.934-11.2-2.934-21.066-6.534-20.132-7.467.266-.4 7.467-1.601 15.867-2.668C829.334 1707.866 870.667 1696 908 1680c10.667-4.533 41.867-19.2 69.334-32.666 53.733-26.267 75.733-35.6 97.467-41.867 25.2-7.2 35.732-8.666 61.199-8.666 25.733 0 39.334 2.266 62.934 10 17.333 5.6 52 22.933 71.066 35.467 8.8 5.733 16.934 11.065 17.867 11.732 5.2 3.2-20.4-27.466-33.6-40.133-36.666-35.466-79.733-57.467-127.466-65.334-14.8-2.4-45.335-2.666-57.602-.533-38.933 6.667-59.732 14.666-137.199 52.666-92.4 45.333-121.333 56.4-164.666 62.8-28.4 4.268-72.533.535-92-7.599-3.867-1.6-3.467-1.733 8-3.467 76.8-11.466 127.6-29.067 242.666-83.734 83.6-39.733 121.6-53.733 166.8-61.6 16.4-2.8 60.133-3.199 75.866-.666 44.8 7.334 86 24.8 131.867 55.733 16.267 11.067 16.667 10.8 7.334-5.6-17.733-30.8-48.668-57.334-91.201-77.867-34.933-16.933-65.866-26.132-105.066-31.332-8.917-1.167-27-1.866-41.977-1.867z" transform="scale(.26458)"/>
    </g>
</svg>
