<svg xmlns="http://www.w3.org/2000/svg" width="400" height="500" viewBox="30.5 31.5 400 500" xml:space="preserve">
    <path d="M230.45 531.13c-74.32-53.92-125.26-122.02-155.74-208.16-27.64-78.1-38.73-172.75-33.91-289.35l.02-.46h379.82l.02.46c4.81 116.6-6.28 211.24-33.91 289.35-30.48 86.14-81.42 154.24-155.74 208.16l-.28.2-.28-.2z" fill="#32ac60"/>
    <path d="M419.96 33.21c9.07 219.45-36.25 385.95-189.45 497.1C146.04 469.02 94.36 390.9 66.52 296.34a557.24 557.24 0 0 1-5.87-21.54c-11.45-45.69-17.77-95.02-19.88-147.94-1.2-30.06-1.05-61.28.29-93.65h378.9m.92-.95H40.14l-.04.92c-4.82 116.66 6.28 211.36 33.93 289.52 30.51 86.24 81.51 154.41 155.91 208.39l.56.41.56-.41c74.4-53.98 125.4-122.15 155.91-208.39 27.65-78.16 38.75-172.86 33.93-289.52l-.04-.92z"/>
    <path d="M258 88.84c10.61 1.19 8.48 15.81 11.71 16.94 26.73 9.37 87.91 55.52 88.54 126.15.44 49.67-11.93 74.03-44.03 129.52l-33.27-12.32 5.54-17.25c1.03-3.2 3.71-6.71 8.16-6.47 7.05.38 11.21-2.17 12.01-5.85 7.61-34.83 14.84-62.14 9.24-93.95-7.06-40.07-35.77-72.7-85.41-72.7-49.64 0-78.35 32.63-85.41 72.7-5.6 31.81 1.64 59.12 9.24 93.95.8 3.68 4.96 6.23 12.01 5.85 4.45-.24 7.13 3.27 8.16 6.47l5.54 17.25-33.27 12.32c-32.1-55.49-44.47-79.85-44.03-129.52.63-70.63 61.81-116.78 88.54-126.15 3.22-1.13 1.1-15.75 11.71-16.94 0 0 12.5-3.09 27.5-3.08 15 .01 27.5 3.08 27.5 3.08z" style="fill-rule:evenodd;fill:#fff;stroke:#000"/>
    <path d="M125.72 245.39c5.53 0 6.45-1.59 6.45-6.72v-13.18c0-5.13-.92-6.72-6.45-6.72h-3.77c-5.53 0-6.45 1.59-6.45 6.72v13.18c0 5.13.92 6.72 6.45 6.72h3.77z" style="fill-rule:evenodd;fill:#32ac60;stroke-width:.87;stroke:#000"/>
    <path d="M134.32 196.83c5.11 2.21 6.6 1.11 8.65-3.63 1.76-4.06 3.52-8.12 5.27-12.19 2.05-4.74 1.84-6.58-3.28-8.8-1.16-.5-2.32-1.01-3.48-1.51-5.11-2.21-6.6-1.11-8.65 3.63-1.76 4.06-3.52 8.12-5.27 12.19-2.05 4.74-1.84 6.58 3.28 8.8 1.16.5 2.32 1.01 3.48 1.51zM159.49 155.15c3.58 4.26 5.4 3.95 9.35.63 3.39-2.84 6.77-5.68 10.16-8.52 3.96-3.32 4.59-5.05 1.01-9.32-.81-.97-1.62-1.94-2.44-2.91-3.58-4.26-5.4-3.95-9.35-.63-3.39 2.84-6.77 5.68-10.16 8.52-3.96 3.32-4.59 5.05-1.01 9.32.81.97 1.62 1.94 2.44 2.91zM134.81 298.16c5.4-1.29 5.92-3.05 4.73-8.06-1.02-4.29-2.04-8.57-3.07-12.86-1.19-5.01-2.46-6.34-7.86-5.05-1.23.29-2.45.58-3.68.88-5.4 1.29-5.92 3.05-4.73 8.06 1.02 4.29 2.04 8.57 3.07 12.86 1.19 5.01 2.46 6.34 7.86 5.05 1.23-.29 2.45-.58 3.68-.88z" style="fill-rule:evenodd;fill:#32ac60;stroke-width:.88;stroke:#000"/>
    <path d="M335.28 245.39c-5.53 0-6.45-1.59-6.45-6.72v-13.18c0-5.13.92-6.72 6.45-6.72h3.77c5.53 0 6.45 1.59 6.45 6.72v13.18c0 5.13-.92 6.72-6.45 6.72h-3.77z" style="fill-rule:evenodd;fill:#32ac60;stroke-width:.87;stroke:#000"/>
    <path d="M326.68 196.83c-5.11 2.21-6.6 1.11-8.65-3.63-1.76-4.06-3.52-8.12-5.27-12.19-2.05-4.74-1.84-6.58 3.28-8.8 1.16-.5 2.32-1.01 3.48-1.51 5.11-2.21 6.6-1.11 8.65 3.63 1.76 4.06 3.52 8.12 5.27 12.19 2.05 4.74 1.84 6.58-3.28 8.8-1.16.5-2.32 1.01-3.48 1.51zM301.51 155.15c-3.58 4.26-5.4 3.95-9.35.63-3.39-2.84-6.77-5.68-10.16-8.52-3.96-3.32-4.59-5.05-1.01-9.32.81-.97 1.62-1.94 2.44-2.91 3.58-4.26 5.4-3.95 9.35-.63 3.39 2.84 6.77 5.68 10.16 8.52 3.96 3.32 4.59 5.05 1.01 9.32-.81.97-1.62 1.94-2.44 2.91zM326.19 298.16c-5.4-1.29-5.92-3.05-4.73-8.06 1.02-4.29 2.04-8.57 3.07-12.86 1.19-5.01 2.46-6.34 7.86-5.05 1.23.29 2.45.58 3.68.88 5.4 1.29 5.92 3.05 4.73 8.06-1.02 4.29-2.04 8.57-3.07 12.86-1.19 5.01-2.46 6.34-7.86 5.05-1.23-.29-2.45-.58-3.68-.88z" style="fill-rule:evenodd;fill:#32ac60;stroke-width:.88;stroke:#000"/>
</svg>
