<svg xmlns="http://www.w3.org/2000/svg" width="425" height="500" viewBox="30.5 31.5 425 500" xml:space="preserve">
    <path d="M243.06 532.45c78.81-53.92 132.82-122.03 165.14-208.17 29.3-78.1 41.06-172.75 35.95-289.35l-.02-.46H41.4l-.02.46c-5.1 116.6 6.66 211.24 35.96 289.36 32.32 86.14 86.33 154.24 165.13 208.16l.3.2.3-.2z" fill="#fff"/>
    <path d="M243 266.1c-1.86 0-3.29.41-3.29.41l-39.21-98.17c4.84-3.07 6.72-7.94 6.72-11.97s-1.87-8.9-6.72-11.97l39.21-96.17s1.43.41 3.29.41 3.29-.41 3.29-.41l39.21 96.17c-4.84 3.07-6.72 7.94-6.72 11.97s1.87 8.9 6.72 11.97l-39.21 98.17s-1.43-.41-3.29-.41M343.5 265.75c-1.86 0-3.29.41-3.29.41L301 168.14c4.84-3.07 6.72-7.93 6.72-11.95s-1.87-8.89-6.72-11.95l39.21-96.02s1.43.41 3.29.41 3.29-.41 3.29-.41L386 144.24c-4.84 3.07-6.72 7.93-6.72 11.95s1.87 8.89 6.72 11.95l-39.21 98.02s-1.43-.41-3.29-.41" style="fill-rule:evenodd;fill:#0085ca;stroke-width:.99;stroke:#000"/>
    <path d="m430.86 242.35-30.13-73.99c4.84-3.07 6.71-7.95 6.71-11.97 0-4.03-1.87-8.9-6.71-11.97l39.17-96.19s1.43.41 3.28.41c.57 0 1.09-.04 1.55-.09.86 43.66 2.02 120.1-13.88 193.81z" style="fill-rule:evenodd;fill:#0085ca"/>
    <path d="M142.5 265.99c-1.86 0-3.29.41-3.29.41L100 168.28c4.84-3.07 6.72-7.94 6.72-11.97s-1.87-8.9-6.72-11.97l39.21-96.13s1.43.41 3.29.41 3.29-.41 3.29-.41L185 144.35c-4.84 3.07-6.72 7.94-6.72 11.97s1.87 8.9 6.72 11.97l-39.21 98.12s-1.43-.41-3.29-.41" style="fill-rule:evenodd;fill:#0085ca;stroke-width:.99;stroke:#000"/>
    <path d="M41.28 48.54c.45.05.98.09 1.54.09 1.86 0 3.28-.41 3.28-.41l39.17 96.19c-4.84 3.07-6.71 7.95-6.71 11.97 0 4.03 1.87 8.9 6.71 11.97L55.11 242.4C43.52 185.12 38.7 121.65 41.28 48.54Z" style="fill-rule:evenodd;fill:#0085ca"/>
    <path d="M293.25 388.72c-1.86 0-3.29.41-3.29.41l-39.21-97.64c4.84-3.05 6.72-7.9 6.72-11.91s-1.87-8.85-6.72-11.91l39.21-97.64s1.43.41 3.29.41 3.29-.41 3.29-.41l39.21 97.64c-4.84 3.05-6.72 7.9-6.72 11.91s1.87 8.85 6.72 11.91l-39.21 97.64s-1.43-.41-3.29-.41M192.75 388.91c-1.86 0-3.29.41-3.29.41l-39.21-97.66c4.84-3.05 6.72-7.9 6.72-11.91s-1.87-8.85-6.72-11.91l39.21-97.65s1.43.41 3.29.41 3.29-.41 3.29-.41l39.21 97.65c-4.84 3.05-6.72 7.9-6.72 11.91s1.87 8.85 6.72 11.91l-39.21 97.66s-1.43-.41-3.29-.41" style="fill-rule:evenodd;fill:#0085ca;stroke-width:.99;stroke:#000"/>
    <path d="M41.28 48.54c.45.05.98.09 1.54.09 1.86 0 3.28-.41 3.28-.41l39.17 96.19c-4.84 3.07-6.71 7.95-6.71 11.97 0 4.03 1.87 8.9 6.71 11.97l-30.35 74.44" style="fill:none;stroke-width:.99;stroke:#000"/>
    <path d="m56.79 250.82 32.21-81s1.43.63 3.28.63c1.86 0 3.28-.41 3.28-.41l39.19 97.84c-4.84 3.06-6.71 7.92-6.71 11.93s1.87 8.87 6.71 11.93l-33.66 82.36c-22.94-43.47-34.14-79.72-44.3-123.28ZM351.24 291.72c4.84-3.06 6.71-7.92 6.71-11.93 0-4.02-1.87-8.87-6.71-11.94l39.19-97.87s1.43.41 3.28.41c1.86 0 3.28-.41 3.28-.41l32.2 80.78c-10.06 45.95-26 89.44-44.28 123.36zM321.21 463.6l-20.12-49.08c4.83-3.05 6.7-7.88 6.7-11.88 0-4-1.87-8.83-6.7-11.88l39.11-97.39s1.43.41 3.28.41c1.85 0 3.28-.41 3.28-.41l34.91 87.14c-17.04 30.59-36.37 57.64-60.46 83.09z" style="fill-rule:evenodd;fill:#0085ca"/>
    <path d="M243 509.99c-1.86 0-3.29.41-3.29.41l-39.22-95.43c4.84-3.05 6.72-7.88 6.72-11.88 0-4-1.87-8.83-6.72-11.88l39.22-97.41s1.43.41 3.29.41 3.29-.41 3.29-.41l39.22 97.41c-4.84 3.05-6.72 7.88-6.72 11.88 0 4 1.87 8.83 6.72 11.88l-39.22 95.43s-1.43-.41-3.29-.41" style="fill-rule:evenodd;fill:#0085ca;stroke-width:.99;stroke:#000"/>
    <path d="m104.2 380.91 35.04-87.39s1.43.41 3.28.41c1.85 0 3.28-.41 3.28-.41l39.11 97.3c-4.83 3.04-6.7 7.87-6.7 11.87 0 3.99 1.87 8.82 6.7 11.87l-20.11 49c-30.89-33.49-43.68-53.66-60.61-82.65zM393.75 142.3c-1.84 0-3.26.41-3.26.41l-38.85-96.23c4.8-3.07 6.66-7.95 6.66-11.98v-.52c0-.41-.01-1.27-.01-1.27l70.95.12c-.01.03-.02 1.43-.02 1.67 0 4.03 1.86 8.91 6.66 11.98l-38.86 96.23s-1.42-.41-3.26-.41M88.99 142.89 50.14 46c4.8-3.03 6.66-7.84 6.66-11.81 0-.16 0-1.08-.01-1.24l70.97.08c-.01.16-.05 1.01-.05 1.16 0 3.97 1.86 8.78 6.66 11.81l-38.86 96.78s-1.14-.35-2.98-.35-3.53.46-3.53.46zM257.07 520.51c-.02-.08-.05-.16-.07-.24-.9-2.87-2.8-5.72-6-7.77l38.82-96.13s1.42.41 3.25.41c1.84 0 3.25-.41 3.25-.41l20.73 51.33c-20.79 21.41-41.06 38.75-59.99 52.81M168.99 468.68l20.68-52.09s1.42.4 3.25.4c1.84 0 3.25-.4 3.25-.4L235 512.65c-3.23 2.02-5.13 4.85-6.02 7.69-23.35-16.59-42.73-34.04-59.99-51.66zM293.25 142.37c-1.84 0-3.26.41-3.26.41l-38.86-96.8c4.8-3.03 6.66-7.83 6.66-11.8-.02.01.01-1.25.01-1.25l70.93-.03-.02 1.28c0 3.97 1.86 8.78 6.66 11.8l-38.86 96.8s-1.42-.41-3.26-.41" style="fill-rule:evenodd;fill:#0085ca"/>
    <path d="M293.25 142.37c-1.84 0-3.26.41-3.26.41l-38.86-96.8c4.8-3.03 6.66-7.83 6.66-11.8-.02.01-.03-1.17-.03-1.17m70.96-.03-.02 1.2c0 3.97 1.86 8.78 6.66 11.8l-38.86 96.8s-1.42-.41-3.26-.41" style="fill:none;stroke-width:.98;stroke:#000"/>
    <path d="m385.03 374.38-33.79-82.66c4.84-3.06 6.71-7.92 6.71-11.93 0-4.02-1.87-8.87-6.71-11.94l39.19-97.87s1.43.41 3.28.41c1.86 0 3.28-.41 3.28-.41l32.4 81.16M431.02 242.7l-30.29-74.34c4.84-3.07 6.71-7.95 6.71-11.97 0-4.03-1.87-8.9-6.71-11.97l39.17-96.19s1.43.41 3.28.41c.57 0 1.09-.04 1.55-.09M393.75 142.3c-1.84 0-3.26.41-3.26.41l-38.85-96.23c4.8-3.07 6.66-7.95 6.66-11.98 0-.69-.13-1.48-.13-1.48m71.1-.07s-.06 1.31-.06 1.56c0 4.03 1.86 8.91 6.66 11.98l-38.86 96.23s-1.42-.41-3.26-.41" style="fill:none;stroke-width:.99;stroke:#000"/>
    <path d="M192.75 142.3c-1.84 0-3.26.4-3.26.4l-38.86-96.47c4.8-3.02 6.66-7.81 6.66-11.76 0-.23-.01-1.41-.02-1.65l70.99.19c-.01.25-.06 1.21-.06 1.45 0 3.96 1.86 8.75 6.66 11.76l-38.85 96.48s-1.42-.4-3.26-.4" style="fill-rule:evenodd;fill:#0085ca"/>
    <path d="M192.75 142.3c-1.84 0-3.26.4-3.26.4l-38.86-96.47c4.8-3.02 6.66-7.81 6.66-11.76 0-.23-.04-1.45-.06-1.68m71.03.16c-.01.25-.06 1.29-.06 1.53 0 3.96 1.86 8.75 6.66 11.76l-38.85 96.46s-1.42-.4-3.26-.4M127.71 32.91c-.01.16-.01 1.12-.01 1.28 0 3.97 1.86 8.78 6.66 11.81l-38.85 96.78s-1.14-.35-2.98-.35-3.53.46-3.53.46L50.14 46c2.98-1.88 4.83-4.45 5.8-7.07.59-1.61.86-3.23.86-4.74 0-.16 0-1-.01-1.16" style="fill:none;stroke-width:.98;stroke:#000"/>
    <path d="M56.63 251.31 89 169.81s1.43.63 3.28.63c1.86 0 3.28-.41 3.28-.41l39.19 97.84c-4.84 3.06-6.71 7.92-6.71 11.93s1.87 8.87 6.71 11.93l-33.83 82.67" style="fill:none;stroke-width:.99;stroke:#000"/>
    <path d="m104.2 380.91 35.04-87.39s1.43.41 3.28.41c1.85 0 3.28-.41 3.28-.41l39.11 97.3c-4.83 3.04-6.7 7.87-6.7 11.87 0 3.99 1.87 8.82 6.7 11.87l-20.26 49.31" style="fill:none;stroke-width:.98;stroke:#000"/>
    <path d="m168.87 468.91 20.8-52.31s1.42.4 3.25.4c1.84 0 3.25-.4 3.25-.4L235 512.66c-3.23 2.02-5.21 5.08-6.1 7.91" style="fill:none;stroke-width:.97;stroke:#000"/>
    <path d="m321.32 463.83-20.24-49.31c4.83-3.05 6.7-7.88 6.7-11.88 0-4-1.87-8.83-6.7-11.88l39.11-97.39s1.43.41 3.28.41c1.85 0 3.28-.41 3.28-.41l35.07 87.56M257.07 520.51c-.02-.08-.05-.16-.07-.24-.9-2.87-2.8-5.72-6-7.77l38.82-96.13s1.42.41 3.25.41c1.84 0 3.25-.41 3.25-.41l20.73 51.33" style="fill:none;stroke-width:.99;stroke:#000"/>
    <path d="M42.11 33.2C32.5 252.65 80.56 419.16 243 530.31 405.43 419.16 453.48 252.65 443.87 33.2H42.11m-.97-.95h403.72l.04.92c5.09 116.66-6.67 211.36-35.99 289.53-32.35 86.24-86.43 154.41-165.32 208.39l-.59.41-.59-.41C163.52 477.11 109.44 408.94 77.09 322.7 47.77 244.53 36.01 149.83 41.12 33.17l.04-.92z"/>
</svg>
