<svg xmlns="http://www.w3.org/2000/svg" height="500" width="400" version="1">
    <path d="M396.64 1.45H2.91v301.14c0 108.73 88.14 196.86 196.86 196.86 108.72 0 196.87-88.14 196.87-196.86V1.45z" style="fill-rule:nonzero;fill:#0085ca"/>
    <path d="M396.64 1.45H2.91v301.14c0 108.73 88.14 196.86 196.86 196.86 108.72 0 196.87-88.14 196.87-196.86V1.45z" style="fill:none;stroke:#000"/>
    <path d="m277.84 39.44-20.88 113.11 115.83-17.96 1.84 152.44-113.89-19.52 17.19 171.95H121.71l17.09-171.95-113.89 19.52 1.84-152.44 115.84 17.96-20.88-113.11h156.03z" style="fill:#ffe000;stroke-width:.97;stroke:#000"/>
</svg>
