<svg xmlns="http://www.w3.org/2000/svg" width="400" height="500" viewBox="30.5 31.5 400 500" xml:space="preserve">
    <path fill="#e00e00" d="M230.45 531.13c-74.32-53.92-125.26-122.02-155.74-208.16-27.64-78.1-38.73-172.75-33.91-289.35l.02-.46h379.82l.02.46c4.81 116.6-6.28 211.24-33.91 289.35-30.48 86.14-81.42 154.24-155.74 208.16l-.28.2-.28-.2z"/>
    <path d="M62.49 167.52c-1.14-14.98-1.72-25.73 3.23-36.69 7.39-16.38 17.7-22.12 30.17-22.15l.94-10.77c.37-4.29 13.88-13.29 27.45-22.5 14.26-9.67 24.98-20.35 35.13-17.18 15.88 4.97 27.39 21.44 52.6 78.26 3.94 8.87-9.89 11.42 5.71 37.6l73.37 123.11c4.12 6.91 8.73 7.44 18.4 15.03 69.79 54.81-19.19 128.18-47.93 68.55-10.33-21.43 1.02-44.2-7.43-55.42-18.99-25.2-52.32-81.41-81.07-118.97-14.18-18.29-23.92-13.15-27.35-17.3l-46.28-56.06c-5.43-6.91-15.58-3.9-19.76 2.4-12.25 18.45-14.21 28.57-17.18 32.09z" style="fill:#ffe000"/>
</svg>
