<svg width="471.58" height="582.11" viewBox="21.38 50.91 471.58 582.11" xml:space="preserve" xmlns="http://www.w3.org/2000/svg">
    <style>
        .st2{fill:#2b2523}.st3{fill:#13110c;stroke:#13110c;stroke-miterlimit:10}
    </style>
    <path d="M37.026 89.46v.01c17.17-13.29 15.56-34.59 15.56-38.56l-31.17.01c0 3.73-1.55 25.27 15.62 38.56z" style="fill:#0091d3" transform="translate(-301.29 -717.44) scale(15.092)"/>
    <path d="M47.996 62.68s.64.94.11 2.13c-.69 1.55-1.65 3.86-1.65 3.86l-8.99-13.95v-.22c.1.1.23.15.37.15.29 0 .53-.24.53-.53s-.24-.53-.53-.53c-.15 0-.28.06-.38.16l-.08-.11c.09-.1.15-.22.15-.37 0-.29-.24-.53-.53-.53s-.53.24-.53.53c0 .14.06.27.15.37l-.08.11a.529.529 0 1 0-.38.9c.15 0 .28-.06.37-.16v.23l-8.99 13.95s-.37-.88-1.65-3.82c-.52-1.19.12-2.13.12-2.13l-2.2-1.06s2.51 8.56 3.76 11.2c.88 1.84 2.37 3.27 4.32 3.27h10.21c1.97 0 3.53-1.41 4.36-3.27 1.2-2.71 3.75-11.2 3.75-11.2zm-10.16-8.9c.19 0 .34.15.34.34s-.15.34-.34.34-.34-.15-.34-.34a.35.35 0 0 1 .34-.34zm-1.68.67c-.19 0-.34-.15-.34-.34s.15-.34.34-.34.34.15.34.34-.15.34-.34.34zm-.12 16.09h-2.44c-4.82-.04-5.45-1.27-5.45-1.27l8.5-13.86zm.96-16.93c-.19 0-.34-.15-.34-.34s.15-.34.34-.34.34.15.34.34-.15.34-.34.34zm3.38 16.93h-2.45l-.61-15.14 8.5 13.87c.01 0-.62 1.22-5.44 1.27z" style="fill:#fff" transform="translate(-301.29 -717.44) scale(15.092)"/>
</svg>
