<svg xmlns="http://www.w3.org/2000/svg" xml:space="preserve" viewBox="30.5 31.5 400 500" height="500" width="400">
    <path d="M230.55 531.13c74.32-53.92 125.26-122.02 155.74-208.16 27.64-78.1 38.73-172.75 33.91-289.35l-.02-.46H40.36l-.02.46c-4.81 116.6 6.28 211.24 33.91 289.35 30.48 86.14 81.42 154.24 155.74 208.16l.28.2z" fill="#0085ca"/>
    <path d="M402.84 265.83c-11.85 51.3-25.79 83.78-39.39 110.64-45.87-17.4-103.55-65.96-132.95-99.97-29.4 34.01-87.08 82.57-132.95 99.97-13.6-26.86-27.54-59.34-39.39-110.64 76.88-34.88 135.71-96.61 172.34-189.33 36.63 92.72 95.46 154.45 172.34 189.33z" style="fill-rule:evenodd;fill:#fff"/>
    <path d="M58.16 265.83c76.88-34.88 135.71-96.61 172.34-189.33 36.63 92.72 95.46 154.45 172.34 189.33m-39.39 110.64c-45.87-17.4-103.55-65.96-132.95-99.97-29.4 34.01-87.08 82.57-132.95 99.97" style="fill:none;stroke:#000"/>
    <path d="M41.04 33.21c-9.07 219.45 36.25 385.95 189.45 497.1 84.47-61.29 136.15-139.41 163.99-233.97a557.24 557.24 0 0 0 5.87-21.54c11.45-45.69 17.77-95.02 19.88-147.94 1.2-30.06 1.05-61.28-.29-93.65H41.04m-.92-.95H420.86l.04.92c4.82 116.66-6.28 211.36-33.93 289.52-30.51 86.24-81.51 154.41-155.91 208.39l-.56.41-.56-.41c-74.4-53.98-125.4-122.15-155.91-208.39C46.38 244.54 35.28 149.84 40.1 33.18l.04-.92z"/>
</svg>
