<svg xmlns="http://www.w3.org/2000/svg" xmlns:xlink="http://www.w3.org/1999/xlink" width="400" height="500" viewBox="30.5 31.5 400 500" xml:space="preserve">
    <path style="fill:#0085ca;fill-opacity:1" fill="#32ac60" d="M230.56 531.14c74.32-53.92 125.26-122.02 155.74-208.16 27.64-78.1 38.73-172.75 33.91-289.35l-.02-.46H40.37l-.02.46c-4.81 116.6 6.28 211.24 33.91 289.35 30.48 86.14 81.42 154.24 155.74 208.16l.28.2.28-.2z"/>
    <path d="M41.04 33.21C31.97 252.66 77.3 419.16 230.5 530.31c153.19-111.15 198.51-277.65 189.44-497.1H41.04m-.92-.95H420.86l.04.92c4.82 116.66-6.28 211.36-33.93 289.52-30.51 86.24-81.51 154.41-155.91 208.39l-.56.41-.56-.41c-74.4-53.98-125.4-122.15-155.91-208.39C46.38 244.54 35.28 149.84 40.1 33.18l.04-.92z"/>
    <path style="fill:#fff;stroke:#000;stroke-opacity:1" d="M232.957 455.89c23.736-15.43 41.051-41.023 59.005-67.7-14.17-10.334-28.824-18.014-42.394-31.653 10.934-3.125 13.705-11.513 25.609-15.371-10.54-17.706-32.09-1.39-31.011-6.494 2.555-12.08 30.711-28.334 67.563-19.83 8.096 1.868 19.414-2.07 25.233-11.44 2.49-4.01-2.884-7.315-5.084-4.895-12.32 13.552-41.929 2.562-37.864-3.787 16.77-26.194 50.392-7.902 67.482-47.886 1.823-4.265-3.987-4.576-6.101-2.034-7.902 9.5-15.573 19.167-23.772 20.974-7.193 1.586-19.195 1.043-8.644-12.457 14.446-18.484 46.909-37.153 44.238-56.62-.29-2.108-5.513-1.198-5.794.288-2.573 13.633-15.85 23.544-15.944 19.594-.17-7.144.611-19.534-5.211-26.313-1.87-2.177-6.339.302-5.212 3.05 4.32 10.54 4.054 26.278 2.034 32.289-4.7 13.978-19.212 12.331-23.852 1.488-4.141-9.677 4.862-15.066 1.606-38.353-.365-2.61-6.169-1.468-5.975.89 2.54 30.853-7.872 29.52-23.771 13.22-1.75-1.794-5.2 1.234-2.415 5.594 5.857 9.169 12.077 17.189 17.725 21.652 5.714 4.515 5.88 15.208 4.648 28.305-1.989 21.145-29.852 50.906-76.526 52.5-31.172 1.065-50.448-40.486-53.62-69.45-.495-4.527-7.652-.569-7.044 2.14 3.324 14.798 6.846 24.709-.607 25.234-8.456.596-12.72-14.394-17.67-26.95-1.59-4.035-4.936-1.115-4.957 1.145-.067 7.17 7.378 21.63 4.576 22.754-5.915 2.376-11.746-1.614-18.662-1.964-6.315-.32-7.146 4.412-3.587 5.475 8.463 2.528 25.626 11.607 24.835 19.118-.511 4.857-25.094-6.067-37.162-12.46-3.808-2.016-5.322.637-4.83 2.416 1.915 6.938 10.766 10.012 17.56 12.538 10.882 4.048-.884 12.396-5.23 11.233l-10.932-2.924c-2.467-.572-2.941 4.294-1.526 5.34 14.413 10.642 35.455-.46 53.39-.382 10.96.048 34.487 10.75 42.966 23.136-19.848 4.692-49.932-2.523-60.254-5.594-10.693-3.18-10.43 10.418-6.483 16.399 3.512 5.322 12.12 7.661 19.357 12.184 2.844 1.778.72 6.104-.41 5.8-7.486-2.006-18.427-9.169-19.935-4.568-.454 1.387-.266 6.428 2.328 7.332 22.37 7.796 35.404 13.738 67.409 36.188 12.738 8.936 10.204 33.32 24.915 60.85z"/>
    <path style="fill:#fff;stroke:#000;stroke-opacity:1" d="M226.27 294.669c24.913-8.24 34.423-35.15 52.377-61.828-16.283-15.802-22.485-17.775-34.877-30.737 16.296-4.426 11.046-12.44 22.949-16.298-12.305-20.516-31.348 7.156-31.997-3.421-.484-7.89 22.17-20.687 62.984-17.728 8.287.6 22.955-1.158 28.774-8.064 3.042-3.61-2.194-7.512-5.085-5.983-24.017 12.698-29.653-1.384-27.754-3.258 23.695-23.384 56.609-3.573 63.69-42.226.836-4.562-5.067-4.037-6.493-1.054-6.35 13.284-14.934 17.968-26.647 19.929-4.526.758-17.491-1.53-6.002-14.242 14.532-16.076 50.19-24.458 41.876-57.48-.52-2.062-3.936-1.84-3.941-.328-.042 13.825-6.779 27.682-14.454 25.693-6.918-1.792-.92-17.433-6.743-24.213-1.87-2.177-6.687-3.68-6.258-.74 1.78 12.19 1.501 11.122.857 16.258-2.203 17.574-21.71 25.781-26.27 8.351-2.665-10.182 2.04-11.797 2.353-28.559.05-2.634-5.319-2.256-6.105-.025-2.656 7.542-3.75 20.589-9.562 20.886-4.948.254-14.9-8.312-20.605-17.498-1.323-2.13-5.379.868-3.592 5.724 4.289 11.652 21.302 26.256 26.95 30.72 5.714 4.514 8.902 13.653 6.647 26.613-2.936 16.869-28.253 49.53-77.152 39.365-46.442-9.654-45.428-43.07-51.53-72.234-1.481-7.083-6.606 1.26-6.26 5.276 1.306 15.111 3.894 21.988-3.277 24.087-9.676 2.832-11.806-13.755-15.896-27.884-1.206-4.166-4.74-1.105-4.958 1.144-.661 6.83 3.498 15.856 2.42 17.966-2.9 5.676-8.404 2.027-15.32 1.676-6.315-.32-10.348 5.099-6.772 6.105 9.987 2.809 29.278 9.518 26.594 19.199-1.306 4.706-24.116 1.663-38.014-9.173-3.398-2.65-5.321.636-4.83 2.415 1.915 6.938 9.156 8.892 15.95 11.419 10.883 4.047 5.05 14.512-.576 13.249l-10.904-2.447c-2.47-.555-2.886 4.223-1.525 5.339 16.678 13.679 26.311-4.052 58.263-2.996 10.955.362 35.936 12.814 40.755 29.121-23.77 1.294-56.599-8.667-66.921-11.737-10.693-3.18-10.738 12.574-6.791 18.555 3.512 5.322 12.861 6.424 20.098 10.947 2.845 1.778.063 6.354-1.069 6.051-7.485-2.006-18.594-9.75-20.1-5.15-.455 1.387 2.855 8.629 5.464 9.49 22.57 7.445 35.913 15.233 66.847 39.556 12.232 9.618 7.721 22.64 22.432 50.169z"/>
    <path style="fill:none;stroke:#000;stroke-width:2.5;stroke-linecap:round;stroke-linejoin:miter;stroke-miterlimit:4;stroke-dasharray:none;stroke-opacity:1" id="a" d="M146.427 173.35c-9.629-7.223-14.71 5.83-3.51 8.215"/>
    <use style="stroke:#000;stroke-opacity:1" xlink:href="#a" height="480" width="390" transform="translate(6.837 156.34)"/>
    <path style="fill:#000;fill-opacity:1;stroke:none;stroke-opacity:1" d="M190.484 190.23c7.308-4.278 19.93-2.606 23.102 6.462-7.18 4.688-19.837 3.166-23.102-6.462z"/>
    <path style="fill:#ececec;fill-opacity:1;stroke:#000;stroke-opacity:1" d="M204.598 193.28a2.549 2.582 0 1 1-5.098 0 2.549 2.582 0 1 1 5.098 0z"/>
    <path d="M190.92 340.027c7.309-4.277 19.931-2.606 23.103 6.462-7.18 4.689-19.837 3.166-23.103-6.462z" style="fill:#000;fill-opacity:1;stroke:none;stroke-opacity:1"/>
    <path d="M205.034 343.076a2.549 2.582 0 1 1-5.098 0 2.549 2.582 0 1 1 5.098 0z" style="fill:#ececec;fill-opacity:1;stroke:#000;stroke-opacity:1"/>
</svg>
