<svg xmlns="http://www.w3.org/2000/svg" width="420" height="500" viewBox="30.5 31.5 420 500" xml:space="preserve">
    <path d="M440 32.7c2.09 102.46-3.38 187.49-43.93 296.59-28.05 75.48-74.21 144.77-155.57 201.59-81.36-56.82-127.52-126.11-155.57-201.59C44.38 220.19 38.91 135.16 41 32.7c133 .29 266 0 399 0z" style="fill:#e00e00;fill-opacity:1;fill-rule:evenodd"/>
    <path style="fill:#ffe000;fill-opacity:1;fill-rule:evenodd;stroke:none;stroke-width:1px;stroke-linecap:butt;stroke-linejoin:miter;stroke-opacity:1" d="M40.55 53.767c2.936 3.077 6.373 6.155 9.95 9.233 19.093 18.438 43.832 13.503 70 38.774 19.838 19.157 10.733 39.189 34 61.658 19.093 18.437 43.832 13.503 70 38.773 19.838 19.158 10.733 39.19 34 61.658 19.093 18.438 43.832 13.503 70 38.774 19.838 19.158 10.733 39.189 34 61.658 4.472 4.319 9.255 7.355 14.292 9.798l-7.286 14.103c-6.784-2.801-13.16-6.255-19.006-11.901-23.267-22.47-14.162-42.5-34-61.658-26.168-25.27-50.907-20.336-70-38.774-23.267-22.469-14.162-42.5-34-61.658-26.168-25.27-50.907-20.336-70-38.773-23.267-22.47-14.162-42.5-34-61.658-25.185-24.32-49.045-20.665-67.823-36.79"/>
    <path style="fill:#ffe000;fill-opacity:1;fill-rule:evenodd;stroke:none;stroke-width:1px;stroke-linecap:butt;stroke-linejoin:miter;stroke-opacity:1" d="M68.862 32.684c1.993 2.276 4.2 4.501 6.638 6.816 19.244 18.28 43.832 13.503 70 38.774 19.838 19.157 10.733 39.189 34 61.658 19.093 18.437 43.832 13.503 70 38.773 19.838 19.158 10.733 39.19 34 61.658 19.093 18.438 43.832 13.503 70 38.774 19.838 19.158 10.733 39.189 34 61.658a50.328 50.328 0 0 0 3.04 2.708l-6.75 15.777a50.882 50.882 0 0 1-8.29-6.485c-23.267-22.47-14.162-42.5-34-61.658-26.168-25.27-50.907-20.336-70-38.774-23.267-22.469-14.162-42.5-34-61.658-26.168-25.27-50.907-20.336-70-38.773-23.267-22.47-14.162-42.5-34-61.658-26.168-25.27-50.516-20.75-70-38.774-6.781-6.273-10.303-12.512-14.131-18.82M40.917 96.832c16.215 7.535 34.999 9.53 54.583 28.442 19.838 19.157 10.733 39.189 34 61.658 19.093 18.437 43.832 13.503 70 38.773 19.838 19.158 10.733 39.19 34 61.658 19.093 18.438 43.832 13.503 70 38.774 19.838 19.158 10.733 39.189 34 61.658 7.354 7.102 15.547 10.736 24.336 13.965l-8.287 13.336c-10.2-3.618-19.668-7.208-28.049-15.301-23.267-22.47-14.162-42.5-34-61.658-26.168-25.27-50.907-20.336-70-38.774-23.267-22.469-14.162-42.5-34-61.658-26.168-25.27-50.907-20.336-70-38.773-23.267-22.47-14.162-42.5-34-61.658-14.705-14.2-28.959-18.863-42.013-23.495Z"/>
    <path d="M440 32.7c2.09 102.46-3.38 187.49-43.93 296.59-28.05 75.48-74.21 144.77-155.57 201.59-81.36-56.82-127.52-126.11-155.57-201.59C44.38 220.19 38.91 135.16 41 32.7c133 .29 266 0 399 0z" style="fill:none;stroke:#000"/>
    <path d="M40.917 96.832c16.215 7.535 34.999 9.53 54.583 28.442 19.838 19.157 10.733 39.189 34 61.658 19.093 18.437 43.832 13.503 70 38.773 19.838 19.158 10.733 39.19 34 61.658 19.093 18.438 43.832 13.503 70 38.774 19.838 19.158 10.733 39.189 34 61.658 7.354 7.102 15.547 10.736 24.336 13.965m-8.287 13.336c-10.2-3.618-19.668-7.208-28.049-15.301-23.267-22.47-14.162-42.5-34-61.658-26.168-25.27-50.907-20.336-70-38.774-23.267-22.469-14.162-42.5-34-61.658-26.168-25.27-50.907-20.336-70-38.773-23.267-22.47-14.162-42.5-34-61.658-14.705-14.2-28.959-18.863-42.013-23.495" style="fill:none;fill-opacity:1;fill-rule:evenodd;stroke:#000;stroke-width:1px;stroke-linecap:butt;stroke-linejoin:miter;stroke-opacity:1"/>
    <path d="M40.55 53.767c2.936 3.077 6.373 6.155 9.95 9.233 19.093 18.438 43.832 13.503 70 38.774 19.838 19.157 10.733 39.189 34 61.658 19.093 18.437 43.832 13.503 70 38.773 19.838 19.158 10.733 39.19 34 61.658 19.093 18.438 43.832 13.503 70 38.774 19.838 19.158 10.733 39.189 34 61.658 4.472 4.319 9.255 7.355 14.292 9.798m-7.286 14.103c-6.784-2.801-13.16-6.255-19.006-11.901-23.267-22.47-14.162-42.5-34-61.658-26.168-25.27-50.907-20.336-70-38.774-23.267-22.469-14.162-42.5-34-61.658-26.168-25.27-50.907-20.336-70-38.773-23.267-22.47-14.162-42.5-34-61.658-25.185-24.32-49.045-20.665-67.823-36.79" style="fill:none;fill-opacity:1;fill-rule:evenodd;stroke:#000;stroke-width:1px;stroke-linecap:butt;stroke-linejoin:miter;stroke-opacity:1"/>
    <path d="M68.862 32.684c1.993 2.276 4.2 4.501 6.638 6.816 19.244 18.28 43.832 13.503 70 38.774 19.838 19.157 10.733 39.189 34 61.658 19.093 18.437 43.832 13.503 70 38.773 19.838 19.158 10.733 39.19 34 61.658 19.093 18.438 43.832 13.503 70 38.774 19.838 19.158 10.733 39.189 34 61.658a50.328 50.328 0 0 0 3.04 2.708m-6.75 15.777a50.882 50.882 0 0 1-8.29-6.485c-23.267-22.47-14.162-42.5-34-61.658-26.168-25.27-50.907-20.336-70-38.774-23.267-22.469-14.162-42.5-34-61.658-26.168-25.27-50.907-20.336-70-38.773-23.267-22.47-14.162-42.5-34-61.658-26.168-25.27-50.516-20.75-70-38.774-6.781-6.273-10.303-12.512-14.131-18.82" style="fill:none;fill-opacity:1;fill-rule:evenodd;stroke:#000;stroke-width:1px;stroke-linecap:butt;stroke-linejoin:miter;stroke-opacity:1"/>
</svg>
