<svg xmlns="http://www.w3.org/2000/svg" width="400" height="500" viewBox="30.5 31.5 400 500" xml:space="preserve">
    <path d="M230.22 531.3C155.9 477.38 104.96 409.28 74.48 323.14c-27.64-78.1-38.73-172.75-33.91-289.35l.02-.46h379.82l.02.46c4.81 116.6-6.28 211.24-33.91 289.35-30.48 86.14-81.42 154.24-155.74 208.16l-.28.2z" fill="#0085ca"/>
    <path d="M419.96 33.21c9.07 219.45-36.26 385.95-189.46 497.1C77.31 419.16 31.99 252.66 41.06 33.21h378.9m.92-.95H40.14l-.04.92c-4.82 116.66 6.28 211.36 33.93 289.52 30.51 86.24 81.51 154.41 155.91 208.39l.56.41.56-.41c74.4-53.98 125.4-122.15 155.91-208.39 27.65-78.16 38.75-172.86 33.93-289.52l-.04-.92z"/>
    <path d="m110.81 300.33-.07-17.22c-.01-3.04-4.11-.92-7.71.39-.91.33-7.45-6.98-6.96-7.77 1.48-2.39 7.04-3.87 5.34-5.14-3.87-2.89-5.26-1.22-8.88-.89-.65-9.9-7.86-27.49-2.5-29.82 12.47-5.42 28.31 2.98 45.67 6.63l-12.17-25.88c-17.63 1.37-43.3-.61-47.63 6.14-8.48 13.23 6.88 32.19 11.06 57.66 1.41 8.6 23.86 19.98 23.84 15.89zM253.39 253.87c12.43-8.57 22.38-4.86 27.56 4.46-8.41 9.59-19.72 30.42-24.48 32.13L231 298.41l-1.6 4.72c-.23.67-2.39.25-2.74 1.29-.82 2.41-1.35 5.29-2.7 3.11-1.89-3.03-.65-4.4-2.55-3.87-3.63 1.02-6.55 3.22-4.34 13l-17.57 12.16c-1.13-5.24 3.09-9.56 2.17-14.52-1.26-6.79 5.02-15.59 13.66-19.54 15.77-7.22 38.24-12.37 38.07-40.87z" style="fill:#fff;stroke:#000"/>
    <path d="M304.04 358.53c7.01.18 22.2 0 22.2 0 4.06-8.35-.97-11.86 1.29-15.58 1.42-2.35 5.27-.96 7.14 1.04 1.79-.38 3.33-4.03 1.74-6.31 1.63-.26 3.82.83 4.83-.85-10.79-25.9-4.8-35.55-3.89-52.52.48-8.89-12.39-13.84-12.59-26.57-.28-18.24 7.91-26.86 9.64-41.44.62-5.22 2.44-16.35 1.4-21.66-2.35-12.06 10.37-15.38 18.04-12.85 14.84 4.89 16.08 22.21 9.56 34.8-4.52 8.75-12.43 17.69-10.4 38.86.75 7.85 2.84 16.1 1.83 28.74 1.74-3.71 3.39-6.79 3.14-12.46-.71-15.88-.32-31.19 5.34-34.91-3.4 16.87-.04 24.52 1.57 35.03.57 3.75.82 7.18-.11 10.9 6.7-8.43 1.91-17.49 2.25-25.48.41-9.55 4.9-18.17 8.92-20.34-4 14.32-2.66 19.22-1.26 23.14 1.82 5.08 1.84 8.87 3.7 11.79-1.85-41.3 18.66-44.83 18.89-66.4.55-51.69-51.31-54.51-69.52-23.12-44.36-32.61-70.02 6.99-117.84-10.19-5.36-1.92-10.57-10.42-9.03-14.92 1.95-5.7 6.72-12.94 7.79-19.53 3.24-19.83-1.13-45.92-19.35-55.39-12.05-6.26-42.54-4.3-76.39 2.34-8.3 1.63-20.41 2.52-30.67 4.82-6.89 1.55-7.42 9.6-6.18 15.17 16.16-1.5 15.1 2.92 14.9 5.66-.32 4.54-5.67 3.26-11.45 3.22.36 3.27 1.42 5.75 4.66 6.54 8.39-.1 15.73-2.23 24.3-.67 4.8 7.27 13.18 11.22 21.55 9.14-7.6 14.13-9.37 35.35-7.52 53.1 2.8 26.78-6.55 57.83 18.38 69.56 2.01 14.67 9.47 25.87 14.03 46.59.55 2.48 2.74 3.91 3.04 6.8.71 7.01 2.66 18.94 1.19 24.67-2.12 8.33-9.54 13.06-11.23 15.57-.92 1.36.15 2.65-1.41 4.12-3.27 3.08-5.05 6.81-5.43 9.61h24.75c-.39-3-.45-7.15-1.73-10.35-1.35-3.4 4.23-8.63 5.69-7.02.37.41 3.2 3.28 3.77 2.96.87-.49-1.71-3.48-1.36-5.09.44-2.01 4.45-1.31 3.29-3.67-1.31-2.68-3.47-5.84-5.5-7.47-3.59-39.08 2.9-37.05 2.24-66.07-.03-1.25 1.27-4.39 2.44-4.01 27.15 8.72 53.78.79 77.74-4.1 3.18-.65 6.69 2.91 9.76 2.24 2.49-.54 4.93-4.38 7.33-4.83 19.28 15.51 45.62 28.24 48.33 35.59 5.84 15.82 8.08 31.42 4.7 43.42-1.58 5.62-4.69 7.25-8.47 11.07-2.07 2.1-2.27 5.55-3.47 7.83-1.77 3.35-5.55 3.61-6.55 9.51z" style="fill:#fff;stroke-linejoin:round;stroke-miterlimit:4;stroke:#000"/>
    <path d="M150.31 82.14c.93-4.94.97-9.93 4.3-13.44 3.92 1.81 6.92 7.52 7.75 11.77" style="fill:#fff;stroke-miterlimit:4;stroke:#000"/>
    <path d="M150.13 78.87c-4.84-8.02-31.12-10.09-38.11 1.57 4.48.12 7.07.41 10.26.47-6.05 3.42-7.6 3.48-11.54 14.36 5.33-3.56 11.22-6.38 16.52-8.49-1.54 4.24-3.26 14.15-1.48 18.23 8.27-13.77 28.31-19.56 24.35-26.14z" style="fill:#fff;stroke-linejoin:round;stroke-miterlimit:4;stroke:#000"/>
    <path d="M83.92 98.8a1.94 3.38 38.6 0 1-2.85-2.63 1.94 3.38 38.6 1 1 2.85 2.63zM162 80.12c17.52 4.9 27.91 22.24 32.99 40.71 3.48 12.66 3.91 26 5.69 36.76" style="fill:none;stroke:#000"/>
</svg>
