<svg xmlns="http://www.w3.org/2000/svg" xml:space="preserve" viewBox="30.5 31.5 400 500" height="500" width="400">
    <path d="M230.44 531.14C156.12 477.22 105.18 409.12 74.7 322.98c-27.64-78.1-38.73-172.75-33.91-289.35l.02-.46h379.82l.02.46c4.81 116.6-6.28 211.24-33.91 289.35-30.48 86.14-81.42 154.24-155.74 208.16l-.28.2-.28-.2z" fill="#32ac60"/>
    <path d="M419.96 33.21c9.07 219.45-36.26 385.95-189.46 497.1C77.31 419.16 31.99 252.66 41.06 33.21h378.9m.92-.95H40.14l-.04.92c-4.82 116.66 6.28 211.36 33.93 289.52 30.51 86.24 81.51 154.41 155.91 208.39l.56.41.56-.41c74.4-53.98 125.4-122.15 155.91-208.39 27.65-78.16 38.75-172.86 33.93-289.52l-.04-.92z"/>
    <path d="M246.29 466.2c3.83-24.74 8.14-59.49 8.78-91.33 1.05-51.97-6.7-98.81-8.79-155.9-.06-1.52 3.24-2.67 4.28-3.85 1.85-2.12 3.14-7.56 2.97-13.98-.14-5.19-.31-9.76-2.29-11.66-2.17-2.09-4.51-2.34-4.95-4.32l.46-13.13c26.34-1.46 51.09-3.33 77.03-8.04 4.01-.73 9.07-6.22 9.6-11.44 1.67-16.64 1.31-33.69.09-50.91-.26-3.71-2.72-10.31-9.7-11.55-25.61-4.55-51.24-6.99-76.86-9.7.07-8 .09-10.92-3.23-12.71-3.59-1.93-8.53-1.93-13.18-1.93s-9.59 0-13.17 1.93c-3.33 1.79-3.3 4.7-3.23 12.71-25.62 2.71-51.25 5.15-76.86 9.7-6.99 1.24-9.44 7.84-9.7 11.55-1.22 17.22-1.58 34.27.09 50.91.53 5.22 5.59 10.72 9.6 11.44 25.93 4.71 50.68 6.57 77.03 8.04l.46 13.13c-.44 1.99-2.77 2.24-4.95 4.32-1.98 1.9-2.16 6.47-2.29 11.66-.17 6.43 1.12 11.86 2.97 13.98 1.03 1.18 4.33 2.33 4.28 3.85-2.09 57.08-9.84 103.93-8.79 155.9.64 31.84 4.96 66.6 8.78 91.33.55 3.54 8.98 3.54 15.79 3.54 6.81 0 15.24 0 15.79-3.54z" style="fill-rule:evenodd;fill:#ffe000;stroke:#000"/>
</svg>
