<svg xmlns="http://www.w3.org/2000/svg" xmlns:xlink="http://www.w3.org/1999/xlink" xml:space="preserve" viewBox="30.5 31.5 400 500" height="500" width="400">
    <path style="fill-opacity:1;fill:#ffe000" fill="#fff" d="M230.44 531.14C156.12 477.22 105.18 409.12 74.7 322.98c-27.64-78.1-38.73-172.75-33.91-289.35l.02-.46h379.82l.02.46c4.81 116.6-6.28 211.24-33.91 289.35-30.48 86.14-81.42 154.24-155.74 208.16l-.28.2-.28-.2z"/>
    <path d="M419.96 33.21c9.07 219.45-36.26 385.95-189.46 497.1C77.31 419.16 31.99 252.66 41.06 33.21h378.9m.92-.95H40.14l-.04.92c-4.82 116.66 6.28 211.36 33.93 289.52 30.51 86.24 81.51 154.41 155.91 208.39l.56.41.56-.41c74.4-53.98 125.4-122.15 155.91-208.39 27.65-78.16 38.75-172.86 33.93-289.52l-.04-.92z"/>
    <g id="a">
        <path style="fill-opacity:1;fill:#0085ca;stroke:#000" d="M29.66 90.69c19.04-6.67 40.79-7.65 59.18.27-1.85-19.94 5.81-40.32 18.03-56.37 12.22 16.05 19.88 36.43 18.03 56.37 18.39-7.92 40.14-6.93 59.18-.27-11.48 16.58-28.5 30.16-48.03 34.57 13.21 15.05 19 36.03 18.54 56.2-19.32-5.8-37.5-17.78-47.72-35-10.23 17.22-28.4 29.2-47.72 35-.46-20.17 5.33-41.16 18.54-56.2-19.53-4.41-36.55-17.99-48.03-34.57Z" transform="matrix(1.03333 0 0 1.03333 32.067 35.613)"/>
        <path style="fill:none;stroke-miterlimit:4;stroke-width:5.80645011;stroke:#000;stroke-dasharray:none" d="M93.25 111.35c-8.83 4.66-4.68 17.43 5.2 16.01 1.7 9.84 15.13 9.84 16.84 0 9.88 1.42 14.03-11.35 5.2-16.01 4.4-8.96-6.46-16.85-13.62-9.9-7.16-6.96-18.02.94-13.62 9.9z" transform="matrix(1.03333 0 0 1.03333 32.067 35.613)"/>
        <path style="fill:none;stroke-miterlimit:4;stroke-width:3.87096674;stroke:#ffe000;stroke-dasharray:none" d="M93.25 111.35c-8.83 4.66-4.68 17.43 5.2 16.01 1.7 9.84 15.13 9.84 16.84 0 9.88 1.42 14.03-11.35 5.2-16.01 4.4-8.96-6.46-16.85-13.62-9.9-7.16-6.96-18.02.94-13.62 9.9z" transform="matrix(1.03333 0 0 1.03333 32.067 35.613)"/>
    </g>
    <use transform="translate(-.258)" xlink:href="#a" x="176.26" width="100" height="100"/>
    <use transform="translate(-.129 -.21)" xlink:href="#a" y="197.68" x="88.13" width="100" height="100"/>
</svg>
