<svg xmlns="http://www.w3.org/2000/svg" width="400" height="500" viewBox="30.5 31.5 400 500" xml:space="preserve">
    <path style="fill:#e00e00" d="M230.45 531.13c-74.32-53.92-125.26-122.02-155.74-208.16-27.64-78.1-38.73-172.75-33.91-289.35l.02-.46h379.82l.02.46c4.81 116.6-6.28 211.24-33.91 289.35-30.48 86.14-81.42 154.24-155.74 208.16l-.28.2-.28-.2z"/>
    <path d="M419.96 33.21c9.07 219.45-36.25 385.95-189.45 497.1C146.04 469.02 94.36 390.9 66.52 296.34a557.24 557.24 0 0 1-5.87-21.54c-11.45-45.69-17.77-95.02-19.88-147.94-1.2-30.06-1.05-61.28.29-93.65h378.9m.92-.95H40.14l-.04.92c-4.82 116.66 6.28 211.36 33.93 289.52 30.51 86.24 81.51 154.41 155.91 208.39l.56.41.56-.41c74.4-53.98 125.4-122.15 155.91-208.39 27.65-78.16 38.75-172.86 33.93-289.52l-.04-.92z"/>
    <path style="fill:#ffe000;fill-opacity:1;fill-rule:evenodd;stroke:#000;stroke-width:1px;stroke-linecap:butt;stroke-linejoin:miter;stroke-opacity:1" d="M294.273 142.5c3.132 0 3.463-.02 4.952-2.74 10.385-18.976 17.467-38.891 29.46-58.995.72-1.37-.131-2.086-1.142-2.043-12.885.544-26.82 5.957-38.032 16.447-1.254 1.173-.572 2.331.876 2.331h11.59c1.697 0 2.2.461 1.85 1.833-2.505 17.723-13.69 31.721-34.56 31.692-13.218-.019-27.077-12.152-26.538-33.525h14.503c1.917 0 2.252-1.112 1.47-2.178-8.193-11.169-16.83-20.196-28.202-24.467-11.372 4.27-20.01 13.298-28.202 24.467-.782 1.066-.447 2.178 1.47 2.178h14.503c.539 21.373-13.32 33.506-26.538 33.525-20.87.03-32.055-13.97-34.56-31.692-.35-1.372.154-1.833 1.85-1.833h11.59c1.448 0 2.13-1.158.876-2.33-11.211-10.49-25.147-15.904-38.032-16.448-1.01-.043-1.862.673-1.143 2.043 11.994 20.104 19.076 40.02 29.461 58.995 1.489 2.72 1.82 2.74 4.952 2.74H230.5zM294.273 232.5c3.132 0 3.463-.02 4.952-2.74 10.385-18.976 17.467-38.891 29.46-58.995.72-1.37-.131-2.085-1.142-2.043-12.885.544-26.82 5.957-38.032 16.447-1.254 1.173-.572 2.331.876 2.331h11.59c1.697 0 2.2.461 1.85 1.833-2.505 17.723-13.69 31.721-34.56 31.692-13.218-.019-27.077-12.152-26.538-33.525h14.503c1.917 0 2.252-1.112 1.47-2.178-8.193-11.169-16.83-20.196-28.202-24.467-11.372 4.27-20.01 13.298-28.202 24.467-.782 1.066-.447 2.178 1.47 2.178h14.503c.539 21.373-13.32 33.506-26.538 33.525-20.87.03-32.055-13.97-34.56-31.692-.349-1.372.154-1.833 1.85-1.833h11.59c1.448 0 2.13-1.158.876-2.33-11.211-10.49-25.147-15.904-38.032-16.448-1.01-.043-1.862.673-1.143 2.043 11.994 20.104 19.076 40.02 29.461 58.995 1.489 2.72 1.82 2.74 4.952 2.74H230.5zM294.273 322.5c3.132 0 3.463-.02 4.952-2.74 10.385-18.976 17.467-38.891 29.46-58.995.72-1.37-.131-2.086-1.142-2.043-12.885.544-26.82 5.957-38.032 16.447-1.254 1.173-.572 2.331.876 2.331h11.59c1.697 0 2.2.461 1.85 1.833-2.505 17.723-13.69 31.721-34.56 31.692-13.218-.019-27.077-12.152-26.538-33.525h14.503c1.917 0 2.252-1.112 1.47-2.178-8.193-11.169-16.83-20.196-28.202-24.467-11.372 4.27-20.01 13.298-28.202 24.467-.782 1.066-.447 2.178 1.47 2.178h14.503c.539 21.373-13.32 33.506-26.538 33.525-20.87.03-32.055-13.97-34.56-31.692-.349-1.372.154-1.833 1.85-1.833h11.59c1.448 0 2.13-1.158.876-2.33-11.211-10.49-25.147-15.904-38.032-16.448-1.01-.043-1.862.673-1.143 2.043 11.994 20.104 19.076 40.02 29.461 58.995 1.489 2.72 1.82 2.74 4.952 2.74H230.5zM294.273 412.5c3.132 0 3.463-.02 4.952-2.74 10.385-18.976 17.467-38.891 29.46-58.995.72-1.37-.131-2.086-1.142-2.043-12.885.544-26.82 5.957-38.032 16.447-1.254 1.173-.572 2.331.876 2.331h11.59c1.697 0 2.2.461 1.85 1.833-2.505 17.723-13.69 31.721-34.56 31.692-13.218-.019-27.077-12.152-26.538-33.525h14.503c1.917 0 2.252-1.112 1.47-2.178-8.193-11.169-16.83-20.196-28.202-24.467-11.372 4.27-20.01 13.298-28.202 24.467-.782 1.066-.447 2.178 1.47 2.178h14.503c.539 21.373-13.32 33.506-26.538 33.525-20.87.03-32.055-13.97-34.56-31.692-.349-1.372.154-1.833 1.85-1.833h11.59c1.448 0 2.13-1.158.876-2.33-11.211-10.49-25.147-15.904-38.032-16.448-1.01-.043-1.862.673-1.143 2.043 11.994 20.104 19.076 40.02 29.461 58.995 1.489 2.72 1.82 2.74 4.952 2.74H230.5z"/>
</svg>
