<svg xmlns="http://www.w3.org/2000/svg" xml:space="preserve" viewBox="30.5 31.5 400 500" height="500" width="400">
    <path d="M230.56 531.14c74.32-53.92 125.26-122.02 155.74-208.16 27.64-78.1 38.73-172.75 33.91-289.35l-.02-.46H40.37l-.02.46c-4.81 116.6 6.28 211.24 33.91 289.35 30.48 86.14 81.42 154.24 155.74 208.16l.28.2.28-.2z" fill="#32ac60"/>
    <path style="fill:#fff;stroke:#000;stroke-width:1;stroke-opacity:1;stroke-miterlimit:4;stroke-dasharray:none" d="M369.132 231.65c-29.568-58.162-85.56-90.709-95.125-98.29-7.643-6.65-15.902-14.719-15.714-19.732.225-6.008-3.564-12.31-11.536-21.724-.722-.826 3.773-6.41 4.495-7.132 1.857-2.166-4.462-9.311-11.684-19.835-5.572-8.15-7.9-11.336-10.582-10.407-3.405 1.238-9.092 3.92-13.012 6.087l-6.526-5.494s-.748.045-6.113 4.275l-6.339 6.977 2.992 8.15c-17.023 14.445-32.992 27.655-54.1 47.125-19.53 18.012-36.627 31.708-35.917 34.272 5.197 15.011 14.575 23.964 29.307 37.193 15.6 14.008 32.191 21.035 39.431 21.789 3.29.342 6.68-6.765 15.863-20.074 8.666-12.587 19.325-29.03 17.63-32.24-11.91-25.953-10.63-45.038 1.444-55.023 1.69-1.398 3.61-1.135 7.222-1.238 1.34-.103 5.797 1.025 8.17 4.74 39.205 62.108 67.75 40.733 123.064 128.345 2.826 4.476 17.75-4.919 17.03-7.764z"/>
    <path d="M41.04 33.21C31.97 252.66 77.3 419.16 230.5 530.31c153.19-111.15 198.51-277.65 189.44-497.1H41.04m-.92-.95H420.86l.04.92c4.82 116.66-6.28 211.36-33.93 289.52-30.51 86.24-81.51 154.41-155.91 208.39l-.56.41-.56-.41c-74.4-53.98-125.4-122.15-155.91-208.39C46.38 244.54 35.28 149.84 40.1 33.18l.04-.92z"/>
    <path d="M344.63 359.963c-29.214-50.206-56.863-60.671-66.46-68.278-7.669-6.672-19.126-14.768-18.938-19.799.226-6.028-3.575-12.351-11.574-21.797-.725-.828 3.785-6.43 4.51-7.155 1.863-2.174-4.478-9.343-11.724-19.902-5.59-8.178-7.926-11.375-10.617-10.443-3.416 1.242-9.123 3.934-13.057 6.108l-6.547-5.513s-.75.046-6.134 4.29l-6.36 7 3.002 8.179c-17.08 14.492-33.104 27.748-54.283 47.282-19.595 18.073-36.75 31.816-36.038 34.388 5.215 15.062 14.624 24.045 29.406 37.319 15.653 14.055 32.3 21.106 39.564 21.862 3.302.344 6.703-6.787 15.917-20.141 8.695-12.63 19.39-29.128 17.688-32.35-11.948-26.04-10.665-45.19 1.45-55.208 1.696-1.403 3.623-1.139 7.246-1.242 1.346-.104 5.816 1.029 8.197 4.755 35.715 50.997 40.805 16.868 97.665 98.435 3.038 4.358 17.81-4.935 17.087-7.79z" style="fill:#fff;stroke:#000;stroke-width:1;stroke-opacity:1;stroke-miterlimit:4;stroke-dasharray:none"/>
</svg>
