<svg xmlns="http://www.w3.org/2000/svg" xml:space="preserve" viewBox="30.5 31.5 420 500" height="500" width="420">
    <path style="fill:#32ac60;fill-opacity:1;fill-rule:evenodd" d="M41 32.7c-2.09 102.46 3.38 187.49 43.93 296.59 28.05 75.48 74.21 144.77 155.57 201.59 81.36-56.82 127.52-126.11 155.57-201.59C436.62 220.19 442.09 135.16 440 32.7c-133 .29-266 0-399 0z"/>
    <path style="fill:#ffe000;fill-opacity:1;fill-rule:evenodd;stroke:none;stroke-width:1px;stroke-linecap:butt;stroke-linejoin:miter;stroke-opacity:1" d="M89.494 341.123 439.966 32.757h-398.9c-3.447 109.63 7.238 205.74 48.428 308.366z"/>
    <path style="fill:none;stroke:#000" d="M41 32.7c-2.09 102.46 3.38 187.49 43.93 296.59 28.05 75.48 74.21 144.77 155.57 201.59 81.36-56.82 127.52-126.11 155.57-201.59C436.62 220.19 442.09 135.16 440 32.7c-133 .29-266 0-399 0z"/>
    <path style="fill:#ffe000;fill-opacity:1;fill-rule:evenodd;stroke:#000;stroke-width:1;stroke-linecap:round;stroke-linejoin:round;stroke-miterlimit:4;stroke-dasharray:none;stroke-opacity:1" d="m275.7 384.873-7.638-1.836 11.866-16.028c-7.182-.548-17.137-3.358-23.68-7.016l-19.486 6.919-7.597-4.461 19.555-7.412c-5.903-4.361-12.554-11.961-16.37-16.96l-23.227-5.58.574-7.095 18.451 4.312c-3.112-6.863-5.319-16.761-5.683-23.525l-17.131-17.96 3.288-5.805 14.237 14.305c.275-8.18 4.035-17.013 7.638-24.168l-7.161-24.333 6.63-.812 5.33 17.606c3.858-5.213 12.375-13.436 19.208-17.05l3.547-23.347 6.692 1.326-3.205 18.617c5.153-2.543 17.045-5.434 23.636-5.12l15.976-17.749 5.91 3.093-13.28 15.163c6.612.325 16.613 3.589 23.287 7.41l22.156-9.04 4.22 5.325-19.32 8.04c6.776 4.5 13.574 12.606 16.292 17.43l27.468 4.56-2.38 7.252-20.651-3.369c3.27 6.784 5.711 16.84 5.447 24.074l19.488 14.269-2.895 8.161-16.908-12.655c-.952 6.436-2.49 13.255-6.302 20.711l9.124 23.705-6.08 4.897-8.079-19.963c-3.97 5.338-11.056 12.625-16.617 15.792l-3.704 23.741-7.87 2.13 3.127-21.052c-5.388 2.824-17.516 6.465-24.815 5.984z"/>
    <path style="fill:none;fill-opacity:1;fill-rule:evenodd;stroke:#000;stroke-width:1;stroke-linecap:butt;stroke-linejoin:miter;stroke-miterlimit:4;stroke-dasharray:none;stroke-opacity:1" d="m296.86 303.479-10.377-10.36-10.36 10.376 10.377 10.36z"/>
    <path d="m290.334 285.312.08-28.8c5.842.723 12.819 2.014 19.763 6.095 5.495 3.229 11.263 8.663 15.547 14.678l-24.753 14.79c-2.551-3.34-6.316-5.613-10.637-6.763zM284.178 256.405c-5.8.415-13.32 1.79-20.36 5.703-5.571 3.096-12.121 8.7-16.05 14.55l24.6 14.89c3.36-3.774 7.763-6 12.116-6.44zM283.323 350.57c-5.517-.364-12.905-1.946-19.906-5.93-5.538-3.153-11.15-8.068-15.74-14.242l24.475-15.337c2.885 3.803 7.612 6.038 11.377 6.68zM290.06 350.535c6.455-.541 13.342-2.409 20.278-6.43 5.513-3.195 11.398-8.574 15.022-14.043l-24.32-15.286c-2.32 3.537-7.827 6.527-11.634 6.958zM244.206 324.891c-2.289-5.422-4.926-13.291-4.855-21.346.056-6.373 1.517-14.573 5.056-21.403l24.957 14.515c-1.768 3.728-1.99 8.842-.262 13.258zM328.497 324.964c2.468-5.066 4.891-11.973 5.088-20.026.155-6.371-1.234-15.617-4.876-22.378L303.92 297.28c1.67 4.407 1.083 10.157-.335 13.348z" style="fill:#32ac60;fill-opacity:1;fill-rule:evenodd;stroke:#000;stroke-width:1;stroke-linecap:butt;stroke-linejoin:miter;stroke-miterlimit:4;stroke-dasharray:none;stroke-opacity:1"/>
    <path d="M89.494 341.123 439.966 32.757" style="fill:none;fill-rule:evenodd;stroke:#000;stroke-width:1px;stroke-linecap:butt;stroke-linejoin:miter;stroke-opacity:1"/>
    <path d="M149 185.624v6.876h-2.5v8H144v8h40.425v-8h-2.5v-8h-2.5v-6.876" style="fill:#32ac60;fill-opacity:1;fill-rule:evenodd;stroke:#000;stroke-width:1px;stroke-linecap:butt;stroke-linejoin:miter;stroke-opacity:1"/>
    <path d="M118 185.624s2.396 6.985 2.31 11.982c-.057 3.313 3.29 6.81 3.528 10.973l-23.85-.079c.054-3.36 4.166-7.172 4-10.398-.243-4.737.958-8.576 3.115-12.478-6.05 0-8.948.002-8.922-2.446.076-7.095 4.26-10.28 8.487-14.155 4.354-3.99 5.528-7.906 5.484-16.35-.035-6.637-4.052-12.887-9.332-12.887H85.38l-.119-19.268-8.155 6.023-7.786-8.866 94.893-70.071 94.894 70.07-7.786 8.867-8.156-6.023-.118 19.268h-17.441c-5.28 0-9.297 6.25-9.332 12.887-.044 8.444 1.13 12.36 5.484 16.35 4.227 3.874 8.41 7.06 8.487 14.155.026 2.448-2.872 2.446-8.922 2.446 2.157 3.902 3.358 7.74 3.115 12.478-.166 3.226 4.057 7.038 4.112 10.398l-23.85.079c.237-4.164 3.473-7.66 3.416-10.973-.086-4.997 2.31-11.982 2.31-11.982h-46.213z" style="fill:#32ac60;fill-opacity:1;fill-rule:evenodd;stroke:#000;stroke-width:1px;stroke-linecap:round;stroke-linejoin:round;stroke-opacity:1"/>
    <path d="M151.368 176.891v-36.994h25.69v36.994h-25.69zM158.589 111.68V89.795c0-2.393 2.777-4.333 5.623-4.333 2.847 0 5.624 1.94 5.624 4.333v21.885h-11.247z" style="fill:#ffe000;fill-opacity:1;fill-rule:evenodd;stroke:#000;stroke-width:1px;stroke-linecap:butt;stroke-linejoin:miter;stroke-opacity:1"/>
    <path d="M150.47 96.227v15.453h-7.94V96.227c0-1.69 1.96-3.059 3.97-3.059 2.01 0 3.97 1.37 3.97 3.06zM185.896 111.68V96.227c0-1.69-1.961-3.059-3.971-3.059s-3.97 1.37-3.97 3.06v15.452h3.97z" style="fill:#ffe000;fill-opacity:1;fill-rule:evenodd;stroke:#000;stroke-width:1;stroke-linecap:butt;stroke-linejoin:miter;stroke-miterlimit:4;stroke-dasharray:none;stroke-opacity:1"/>
    <path d="M149 192.5h30.425M181.925 200.5H146.5M107.103 185.624H118M210.425 185.624h10.897" style="fill:none;fill-rule:evenodd;stroke:#000;stroke-width:1px;stroke-linecap:butt;stroke-linejoin:miter;stroke-opacity:1"/>
</svg>
