<svg xmlns="http://www.w3.org/2000/svg" version="1" width="400" height="500">
    <path d="M396.64 1.45H2.91v301.14c0 108.73 88.14 196.86 196.86 196.86 108.72 0 196.87-88.14 196.87-196.86v-.09z" style="fill:#32ac60;fill-opacity:1;fill-rule:nonzero"/>
    <path d="M396.64 1.45H2.91v301.14c0 108.73 88.14 196.86 196.86 196.86 108.72 0 196.87-88.14 196.87-196.86V1.45z" style="fill:none;stroke:#000"/>
    <path style="fill:#fff;fill-rule:evenodd;stroke:#000;stroke-width:1px;stroke-linecap:round;stroke-linejoin:round;stroke-opacity:1" d="M209 293.437c1.49-.07 3.262 2.527 6.796 3.101 2.231 9.826 5.611 19.373 10.249 28.35 3.958 8.739 2.432 18.295 10.947 25.998 1.701 1.54-1.448 12.309-1.378 18.463-4.568-.685-6.82 2.32-4.403 4.734l13.2 13.183c4.751 4.745 2.436 12.961 2.103 18.978-.231 4.179 3.82 4.565 5.993 2.778.712-.585 1.225-2.368 1.804-3.75 2.886 5.239 7.642 12.694 6.4 17.195-1.29 4.674-1.263 8.912-1.664 13.23-.14 1.495-1.263 6.87 4.4 7.243 4.499.296 2.872-1.109 16.048-1.854 4.502-.255 12.173 2.79 19.152 2.71 5.417-.061 15.228-1.17 15.228-1.17 4.73-.034 7.656-7.008-1.315-9.175-6.965-1.683-12.97-3.862-19.817-8.867-4.035-2.95-8.36-10.845-12.723-9.249-1.543-3.532-1.855-8.869-2.861-13.878 1.651.34 3.08-.464 3.17-1.93.156-2.563-1.676-6.85-2.545-10.717 3.509-.027.727-5.24.097-9.743l-.945-6.758c-.374-2.671.97-5.49 2.005-8.328.84-2.305-4.431-2.232-8.018-1.387-2.816-7.159-7.425-10.465-7.173-22.053 1.781-15.12-.327-30.674-3.206-46.741 1.847.137 3.585-.046 3.283-.99-2.522-7.876-3.407-17.897-4.857-27.604-1.56-10.44-1.528-20.524-4.491-31.133-2.384-8.536-5.36-12.932-9.389-18.602-1.214-1.708-1.576-4.165-2.159-6.322-1.545-5.722-3.267-11.816-8.559-20.434-1.95-3.176-1.387-7.378-2.005-10.72 1.51.356 2.994-9.465 1.157-9.637 1.536-4.35 3.99-8.57 6.395-12.487 2.544 10.615 2.791 22.76 6.868 32.227 4.04 9.382 12.341 16.188 21.975 20.125 1.343.549 4.37.458 4.241-1.773-.427-7.461-3.07-20.653-5.657-29.104l2.821-31.233c1.09-4.531-1.326-7.139-3.314-11.769.984.07 2.435-.08 2.163-1.861-.373-2.446-1.661-3.483-2.258-6.534 2.98-.856.48-7.14-2.237-10.989 3.195-4.227-4.39-11.567-10.328-17.652-1.367-1.4-7.676-.632-11.415-.583l-.21-1.375c-4.032-.372-9.886-.891-14.827-.321l-.463 1.31-9.017-1.355c-1.708-4.027-3.438-9.265-3.166-14.959 1.528.577 2.109.933 5.938 1.047 4.429.132 4.634-4.29 3.972-6.948-.318-1.276-.707-2.62-.001-2.827 1.737-.508 1.744-2.494.643-3.486 1.814-.303 1.664-2.559.489-4.498 2.96-.141 3.506-1.02 3.696-2.87.338-3.288-2.446-6.193-2.32-10.07.07-2.124-.57-4.05.537-6.158.998-1.898.776-4.146-.848-6.555 1.885-.456 2.792-1.803 2.853-3.238.123-2.875-1.285-6.98-5.414-7.788-2.734-.535-3.997-1.995-6.289-2.741-1.802-.587-4.805-1.148-7.635-.694-5.258.844-7.567.042-10.795.193-2.624.124-5.901.318-8.954-.536-3.747-1.048-7.524-.067-9.79.644-2.368.743-3.623 3.75-5.817 4.51-4.626 1.6-6.48 3.537-5.414 6.412.5 1.346.968 2.782 2.853 3.238-1.624 2.409-1.845 4.657-.848 6.555 1.107 2.107.632 4.197.7 6.322.127 3.877-2.47 6.426-2.35 9.729.083 2.329 1.169 4.303 4.438 3.057-1.082 2.21-1.519 3.35.296 4.652-1.98 1.352 1.62 3.03-.04 6.15-1.252 2.352.41 7.136 3.972 6.947 3.826-.203 4.41-.47 5.938-1.047.272 5.694-1.458 10.932-3.166 14.959l-9.017 1.356-.463-1.311c-4.94-.57-10.795-.051-14.828.32l-.21 1.376c-3.738-.049-10.047-.818-11.414.583-5.938 6.085-13.523 13.425-10.328 17.652-2.718 3.848-5.217 10.133-2.237 10.989-.597 3.05-1.885 4.088-2.258 6.534-.272 1.78 1.179 1.932 2.163 1.861-1.928 4.008-6.61 9.88-3.778 11.537l.52 2.198 2.765 29.267c-2.586 8.45-5.23 21.643-5.657 29.104-.128 2.23 2.898 2.322 4.24 1.773 9.635-3.937 17.937-10.743 21.976-20.125 4.077-9.466 4.324-21.612 6.868-32.227 2.405 3.916 4.86 8.136 6.395 12.487-1.837.172-.353 9.993 1.157 9.638-.618 3.34-.055 7.543-2.005 10.719-5.292 8.618-7.014 14.712-8.56 20.434-.582 2.157-.944 4.614-2.158 6.322-4.029 5.67-7.005 10.066-9.389 18.602-2.963 10.61-2.93 20.693-4.49 31.133-1.451 9.707-2.336 19.728-4.858 27.605-.302.943 1.436 1.126 3.283.989-2.879 16.067-4.987 31.621-3.206 46.74.252 11.589-4.357 14.895-7.173 22.054-3.587-.845-8.858-.918-8.018 1.387 1.035 2.837 2.379 5.657 2.005 8.328l-.945 6.758c-.63 4.503-3.412 9.716.097 9.743-.869 3.867-2.701 8.154-2.545 10.717.09 1.466 1.519 2.27 3.17 1.93-1.006 5.009-1.318 10.346-2.861 13.878-4.363-1.596-8.688 6.299-12.723 9.249-6.847 5.005-12.852 7.184-19.817 8.867-8.971 2.167-6.045 9.141-1.315 9.176 0 0 9.811 1.108 15.228 1.17 6.979.08 14.65-2.966 19.152-2.711 13.176.745 11.55 2.15 16.048 1.854 5.663-.372 4.54-5.748 4.4-7.243-.4-4.318-.374-8.556-1.664-13.23-1.242-4.5 3.514-11.956 6.4-17.195.579 1.382 1.092 3.165 1.804 3.75 2.173 1.787 6.224 1.4 5.993-2.778-.333-6.017-2.648-14.233 2.102-18.978l13.201-13.183c2.417-2.414.165-5.419-4.403-4.734.07-6.154-3.08-16.924-1.378-18.463 8.515-7.703 6.99-17.26 10.947-25.998 4.638-8.977 8.018-18.524 10.249-28.35 3.534-.574 5.307-3.171 6.797-3.101 1.004.047 4.662 2.915 8.999 2.915 4.337 0 7.995-2.868 9-2.915z"/>
    <path d="M56.865 237.153c3.516.064 8.536-2.914 8.19-7.572l-3.09-41.567c-.136-1.823-4.027-4.206-6.954-2.163l-6.645 4.635c-5.164-5.058-5.398-17.232-2.008-22.715 3.97 2.813 15.371 10.4 15.452 4.954l2.009-135.837c.132-8.924 2.901-15.613 6.644-19.933 3.744 4.32 6.411 11.012 6.645 19.933l3.539 135.181c.142 5.445 10.936-1.485 14.906-4.298 3.39 5.483 2.718 17.329-2.446 22.387l-5.99-4.307c-2.896-2.085-6.069.335-6.079 2.163l-.221 41.567c-.025 4.671 4.674 7.636 8.19 7.572.855 5.583-5.473 11.9-16.071 13.289-10.598-1.389-16.926-7.706-16.07-13.29z" style="fill:#ffe000;fill-opacity:1;fill-rule:evenodd;stroke:#000;stroke-width:1px;stroke-linecap:butt;stroke-linejoin:miter;stroke-opacity:1"/>
    <path d="M166.476 168.358c7.042-1.517 14.906-2.782 23.976-3.677 1.973-.195 3.37-8.036 9.548-8.036s7.575 7.84 9.548 8.036c9.07.895 16.934 2.16 23.976 3.677M139.456 293.8c7.343.352 10.075-3.172 11.515-3.104 1.441.067 3.866 4.092 10.422 4.172 5.9.072 8.194-2.426 9.271-2.472.94-.041 3.667 4.034 9.194 4.094l4.346.048M154.91 215.471c2.338 1.264 1.872 2.478 1.16 4.375-4.794 12.772-7.435 23.96-9.657 37.781-1.513 9.409-1.747 19.015 3.785 19.857 7.684 1.169 9.544-7.54 11.358-16.38l8.576-41.799c.65-3.167 4.962-2.96 4.327.696l-7.263 41.799c-1.306 7.518-1.591 17.133 4.868 17.538 7.024.441 10.508-7.77 11.435-15.761l5.099-43.963c.333-2.87 4.743-3.145 4.636.927-.345 13.112-2.903 29.472-3.245 42.727-.224 8.661 1.858 16.225 10.011 16.225 8.153 0 10.235-7.564 10.011-16.225-.342-13.255-2.9-29.615-3.245-42.727-.107-4.072 4.303-3.798 4.636-.927l5.1 43.963c.926 7.991 4.41 16.202 11.434 15.761 6.46-.405 6.174-10.02 4.868-17.538L225.54 220c-.635-3.656 3.677-3.862 4.327-.695l8.576 41.8c1.814 8.838 3.674 17.548 11.358 16.379 5.532-.842 5.298-10.448 3.785-19.857-2.222-13.82-4.863-25.009-9.657-37.781-.712-1.897-1.178-3.11 1.16-4.375" style="fill:none;fill-rule:evenodd;stroke:#000;stroke-width:1px;stroke-linecap:butt;stroke-linejoin:miter;stroke-opacity:1"/>
    <path d="M154.139 225.1c1.224 4.346 6.663 7.703 13.83 4.018M172.99 228.345c1.227 4.742 10.1 6.024 14.372 1.7" style="fill:none;fill-rule:evenodd;stroke:#000;stroke-width:1.20000005;stroke-linecap:butt;stroke-linejoin:miter;stroke-miterlimit:4;stroke-dasharray:none;stroke-opacity:1"/>
    <path d="M193.002 229.195c.762 2.514 5.35 3.786 6.998 3.786 1.648 0 6.236-1.272 6.998-3.786" style="fill:none;fill-rule:evenodd;stroke:#000;stroke-width:1.20000005;stroke-linecap:round;stroke-linejoin:round;stroke-miterlimit:4;stroke-dasharray:none;stroke-opacity:1"/>
    <path d="M122.841 401.457c.964.002 1.656-1.119 1.86-2.207 1.47.065 2.52.088 3.555-.232 2.903-.899 4.7-5.434 4.79-8.035.078-2.261-1.372-5.012 1.082-6.259 3.24-1.646 9.587 3.959 9.04 5.64-.738 2.265-1.226 4.415-.928 6.259.662 4.086 2.168 6.115 3.449 8.649" style="fill:none;fill-rule:evenodd;stroke:#000;stroke-width:1px;stroke-linecap:butt;stroke-linejoin:miter;stroke-opacity:1"/>
    <path d="M132.969 392.219c1.622 1.03 3.245.787 4.867.85-1.395 1.529-2.92 2.541-4.635 2.781M143.4 400.409c-1.623-1.03-3.555-1.252-5.177-1.314 1.395-1.53 2.301-2.233 4.017-2.472" style="fill:none;fill-rule:evenodd;stroke:#000;stroke-width:1px;stroke-linecap:round;stroke-linejoin:round;stroke-opacity:1"/>
    <path d="M129.077 362.594c1.74-.076 1.145 4.549 2.038 5.442 1.208 1.208 3.024.683 3.863 3.013l.695 1.931c.695 1.93 20.85 3.986 21.634 2.86 3.01-4.333 4.339-5.461 7.08-6.491" style="fill:none;fill-rule:evenodd;stroke:#000;stroke-width:1px;stroke-linecap:butt;stroke-linejoin:miter;stroke-opacity:1"/>
    <path d="M147.108 108.433c-.74 2.638-4.245 7.482-11.63 6.527M133.242 125.949c1.217.1 1.537-.836 2.2-1.136.948-.43 2.395-.037 3.167-.463 1.306-.722.233-1.945.309-2.82" style="fill:none;fill-rule:evenodd;stroke:#000;stroke-width:1px;stroke-linecap:round;stroke-linejoin:miter;stroke-opacity:1"/>
    <path d="M133.147 134.344c4.834-.361 8.073-4.429 12.338-6.131 1.253-.5 2.855.595 3.709 2.472 2.303 5.064 3.976 9.707 5.679 14.37" style="fill:none;fill-rule:evenodd;stroke:#000;stroke-width:1px;stroke-linecap:butt;stroke-linejoin:miter;stroke-opacity:1"/>
    <path d="m140.232 114.923 2.086 2.048.85-1.893M135.596 134.007l3.631 2.975.464-5.06M140.927 131.11l3.477 2.781.154-4.983" style="fill:none;fill-rule:evenodd;stroke:#000;stroke-width:1px;stroke-linecap:round;stroke-linejoin:round;stroke-opacity:1"/>
    <path d="M157.222 96.725c6.283 16.315 8.553 35.048 2.86 59.146" style="fill:none;fill-rule:evenodd;stroke:#000;stroke-width:1px;stroke-linecap:butt;stroke-linejoin:miter;stroke-opacity:1"/>
    <path d="m161.17 150.503-6.993.193c1.658-13.094 5.931-29.48-9.117-52.19" style="fill:none;fill-rule:evenodd;stroke:#000;stroke-width:1px;stroke-linecap:round;stroke-linejoin:round;stroke-opacity:1"/>
    <path d="m155.993 136.75 7.147.232M156.032 126.281l6.992-.27M153.521 115.464l8.498-.733M149.58 105.807l10.392-1.39" style="fill:none;fill-rule:evenodd;stroke:#000;stroke-width:1px;stroke-linecap:butt;stroke-linejoin:miter;stroke-opacity:1"/>
    <path d="m162.787 117.698 4.99-.019.11 2.022h8.632l-3.797-23.362" style="fill:none;fill-rule:evenodd;stroke:#000;stroke-width:1px;stroke-linecap:round;stroke-linejoin:round;stroke-opacity:1"/>
    <path d="M175.371 112.926 200 112.49" style="fill:none;fill-rule:evenodd;stroke:#000;stroke-width:1px;stroke-linecap:butt;stroke-linejoin:miter;stroke-opacity:1"/>
    <path d="M187.596 46.611c-1.655-2.302-6.467-3.022-9.274-2.633M179.25 46.847c1.476-.125 3.105.25 5.487 2.47-.674 2.31-2.456 3.266-4.792 3.38" style="fill:none;fill-rule:evenodd;stroke:#000;stroke-width:1px;stroke-linecap:round;stroke-linejoin:round;stroke-opacity:1"/>
    <path d="M180.6 47.073c-.741.878-.401 4.051.193 5.243" style="fill:none;fill-rule:evenodd;stroke:#000;stroke-width:1px;stroke-linecap:butt;stroke-linejoin:miter;stroke-opacity:1"/>
    <path d="M174.739 63.323c2.479-1.889 3.113-1.742 4.154-1.796 1.182-.06 1.66-1.34.837-2.173M175.035 67.975c5.105-.199 5.683-1.246 6.5-.278" style="fill:none;fill-rule:evenodd;stroke:#000;stroke-width:1px;stroke-linecap:round;stroke-linejoin:miter;stroke-opacity:1"/>
    <path d="M172.8 37.66c2.607-.077 3.508-2.14 5.213-2.124 1.75.018 4.581 2.727 9.426 4.057 2.358.647 5.606 1.093 6.18 2.086 1.041 1.796.653 5.132.155 9.271-.651 5.42.671 10.209 0 16.38-.812 7.47 3.099 8.448 6.226 8.421" style="fill:none;fill-rule:evenodd;stroke:#000;stroke-width:1px;stroke-linecap:butt;stroke-linejoin:miter;stroke-opacity:1"/>
    <path d="M199.607 44.03s.7 3.68.492 5.552c-.185 1.663-.671 3.256-.806 4.923-.184 2.263.862 3.749.864 6.02.001 1.47-.488 3.285-.551 4.754-.07 1.598.394 4.542.394 4.542" style="fill:none;fill-rule:evenodd;stroke:#000;stroke-width:1px;stroke-linecap:round;stroke-linejoin:round;stroke-opacity:1"/>
    <path d="m181.74 94.984.406 6.797c.167 2.798 2.965 4.535 4.35 4.535H200" style="fill:none;fill-rule:evenodd;stroke:#000;stroke-width:1px;stroke-linecap:butt;stroke-linejoin:miter;stroke-opacity:1"/>
    <path d="M122.216 388.81c3.037.813 2.868-5.168 3.8-7.022" style="fill:none;fill-rule:evenodd;stroke:#000;stroke-width:1px;stroke-linecap:round;stroke-linejoin:miter;stroke-opacity:1"/>
    <path d="M124.084 388.394c1.096-.124 1.551-.056 2.047-.425.58-.43-.484-2.575-.811-3.67" style="fill:none;fill-rule:evenodd;stroke:#000;stroke-width:1px;stroke-linecap:round;stroke-linejoin:round;stroke-opacity:1"/>
    <path style="fill:none;fill-rule:evenodd;stroke:#000;stroke-width:1px;stroke-linecap:butt;stroke-linejoin:miter;stroke-opacity:1" d="M232.367 177.996c-5.621-1.99-13.557-4.648-17.83-5.037-2.161-.196-2.586-.405-1.976.53l2.472 3.785c.79 1.21-5.341 4.75-6.644 2.86l-3.94-5.718c-.803-1.164-1.6-2.318-4.449-2.318-2.85 0-3.646 1.154-4.449 2.318l-3.94 5.717c-1.303 1.89-7.435-1.649-6.644-2.859l2.472-3.786c.61-.934.185-.725-1.976-.529-4.273.389-12.209 3.047-17.83 5.037M260.544 293.8c-7.343.352-10.075-3.172-11.515-3.104-1.441.067-3.866 4.092-10.422 4.172-5.9.072-8.194-2.426-9.271-2.472-.94-.041-3.667 4.034-9.194 4.094l-4.346.048"/>
    <path style="fill:none;fill-rule:evenodd;stroke:#000;stroke-width:1.20000005;stroke-linecap:butt;stroke-linejoin:miter;stroke-miterlimit:4;stroke-dasharray:none;stroke-opacity:1" d="M245.861 225.1c-1.224 4.346-6.663 7.703-13.83 4.018M227.01 228.345c-1.227 4.742-10.1 6.024-14.372 1.7"/>
    <path style="fill:none;fill-rule:evenodd;stroke:#000;stroke-width:1px;stroke-linecap:butt;stroke-linejoin:miter;stroke-opacity:1" d="M277.159 401.457c-.964.002-1.656-1.119-1.86-2.207-1.47.065-2.52.088-3.555-.232-2.903-.899-4.7-5.434-4.79-8.035-.078-2.261 1.372-5.012-1.082-6.259-3.24-1.646-9.587 3.959-9.04 5.64.738 2.265 1.226 4.415.928 6.259-.662 4.086-2.168 6.115-3.449 8.649"/>
    <path style="fill:none;fill-rule:evenodd;stroke:#000;stroke-width:1px;stroke-linecap:round;stroke-linejoin:round;stroke-opacity:1" d="M267.031 392.219c-1.622 1.03-3.245.787-4.867.85 1.395 1.529 2.92 2.541 4.635 2.781M256.6 400.409c1.623-1.03 3.555-1.252 5.177-1.314-1.395-1.53-2.301-2.233-4.017-2.472"/>
    <path style="fill:none;fill-rule:evenodd;stroke:#000;stroke-width:1px;stroke-linecap:butt;stroke-linejoin:miter;stroke-opacity:1" d="M270.923 362.594c-1.74-.076-1.145 4.549-2.038 5.442-1.208 1.208-3.024.683-3.863 3.013l-.695 1.931c-.695 1.93-20.85 3.986-21.634 2.86-3.01-4.333-4.339-5.461-7.08-6.491"/>
    <path style="fill:none;fill-rule:evenodd;stroke:#000;stroke-width:1px;stroke-linecap:round;stroke-linejoin:miter;stroke-opacity:1" d="M252.892 108.433c.74 2.638 4.245 7.482 11.63 6.527M266.758 125.949c-1.217.1-1.537-.836-2.2-1.136-.948-.43-2.395-.037-3.167-.463-1.306-.722-.233-1.945-.309-2.82"/>
    <path style="fill:none;fill-rule:evenodd;stroke:#000;stroke-width:1px;stroke-linecap:butt;stroke-linejoin:miter;stroke-opacity:1" d="M266.853 134.344c-4.834-.361-8.073-4.429-12.338-6.131-1.253-.5-2.855.595-3.709 2.472-2.303 5.064-3.976 9.707-5.679 14.37"/>
    <path style="fill:none;fill-rule:evenodd;stroke:#000;stroke-width:1px;stroke-linecap:round;stroke-linejoin:round;stroke-opacity:1" d="m259.768 114.923-2.086 2.048-.85-1.893M264.404 134.007l-3.631 2.975-.464-5.06M259.073 131.11l-3.477 2.781-.154-4.983M254.94 98.505c-15.048 22.712-10.774 39.097-9.117 52.191l-6.993-.193"/>
    <path style="fill:none;fill-rule:evenodd;stroke:#000;stroke-width:1px;stroke-linecap:butt;stroke-linejoin:miter;stroke-opacity:1" d="M242.778 96.725c-6.283 16.315-8.553 35.048-2.86 59.146M244.007 136.75l-7.147.232M243.968 126.281l-6.992-.27M246.479 115.194l-8.267-.232M250.42 105.807l-10.547-.928"/>
    <path style="fill:none;fill-rule:evenodd;stroke:#000;stroke-width:1px;stroke-linecap:round;stroke-linejoin:round;stroke-opacity:1" d="m237.252 117.698-5.03-.019-.109 2.022h-8.632l3.797-23.361"/>
    <path style="fill:none;fill-rule:evenodd;stroke:#000;stroke-width:1px;stroke-linecap:butt;stroke-linejoin:miter;stroke-opacity:1" d="M224.629 112.926 200 112.49M205.398 144.668c1.56 0 2.058-1.192 1.693-2.13l-2.185-5.628c-.342-.88.355-1.456 1.257-1.038l3.77 1.748c1.277.593 2.547.098 2.567-1.803l.11-10.161c.014-1.33-1.372-1.146-1.858-.875l-4.207 2.35c-1.236.69-1.769.354-1.257-1.093l1.858-5.245c.405-1.143.131-2.15-1.639-2.185l-5.507-.11-5.507.11c-1.77.035-2.044 1.042-1.639 2.185l1.858 5.245c.512 1.447-.02 1.783-1.257 1.093l-4.207-2.35c-.486-.27-1.872-.455-1.857.875l.109 10.161c.02 1.901 1.29 2.396 2.568 1.803l3.77-1.748c.9-.418 1.598.158 1.256 1.038l-2.185 5.627c-.365.939.134 2.13 1.693 2.13H200z"/>
    <path style="fill:none;fill-rule:evenodd;stroke:#000;stroke-width:1px;stroke-linecap:round;stroke-linejoin:round;stroke-opacity:1" d="M213.308 47.554c1.55-2.435 5.855-5.63 8.37-4.803M219.94 46.47c-2.285.602-4.59 2.253-4.559 3.476.03 1.181 2.698 2.064 4.475 2.592"/>
    <path style="fill:none;fill-rule:evenodd;stroke:#000;stroke-width:1;stroke-linecap:butt;stroke-linejoin:miter;stroke-miterlimit:4;stroke-dasharray:none;stroke-opacity:1" d="m219.39 46.777-.111 5.676"/>
    <path style="fill:none;fill-rule:evenodd;stroke:#000;stroke-width:1px;stroke-linecap:round;stroke-linejoin:miter;stroke-opacity:1" d="M226.136 63.313c-2.167.107-2.38-1.555-3.768-1.914-1.19-.308-3.92-.39-2.412-1.819M225.483 67.975c-5.105-.199-5.769-1.073-6.586-.104"/>
    <path style="fill:none;fill-rule:evenodd;stroke:#000;stroke-width:1px;stroke-linecap:butt;stroke-linejoin:miter;stroke-opacity:1" d="M227.2 37.66c-2.607-.077-3.508-2.14-5.213-2.124-1.75.018-4.581 2.727-9.426 4.057-2.358.647-5.606 1.093-6.18 2.086-1.041 1.796-.653 5.132-.155 9.271.651 5.42-.671 10.209 0 16.38.812 7.47-3.099 8.448-6.226 8.421M218.26 94.984l-.406 6.797c-.167 2.798-2.965 4.535-4.35 4.535H200"/>
    <path style="fill:none;fill-rule:evenodd;stroke:#000;stroke-width:1px;stroke-linecap:round;stroke-linejoin:miter;stroke-opacity:1" d="M277.784 388.81c-3.037.813-2.868-5.168-3.8-7.022"/>
    <path style="fill:none;fill-rule:evenodd;stroke:#000;stroke-width:1px;stroke-linecap:round;stroke-linejoin:round;stroke-opacity:1" d="M275.916 388.394c-1.096-.124-1.551-.056-2.047-.425-.58-.43.484-2.575.811-3.67"/>
    <path d="m129.369 145.881-7.333 12.078c-.86 1.417-3.308 1.197-5.215 3.554-6.99 8.637-13.61 16.458-20.668 26.462-3.26 4.62-7.098 10.144-11.319 12.092-1.61.743-3.58-5.918-6.026-6.76-3.974-1.37-10.589 1.534-16.505 1.081-1.841-.141-3.678-.422-3.197 2.356.284 1.64 1.275 2.318 1.275 2.318-1.145 1.157-2.245 1.69-2.28 4.211-.023 1.703.655 3.007 1.333 3.553-.577.404-.946.54-.908 2.821.05 2.967 1.5 4.343 1.662 4.559.677.909-1.055.577-.966 3.902.053 1.97.495 4.066 1.854 4.48-.806 1.887-.557 3.9.155 5.1.686 1.16 3.364 1.959 7.455 1.507 3.862-.427 4.407-1.89 6.53-3.013 1.589.947 2.863 1.768 5.292 1.622 3.811-.23 14.15-13.12 21.71-19.625 8.217-7.067 25.806-19.779 25.806-19.779 4.509-3.456 7.724-9.79 10.894-16.07.725-1.436 1.013-7.185-.538-12.49-1.683-5.758-5.38-11.144-9.011-13.959z" style="fill:#fff;fill-rule:evenodd;stroke:#000;stroke-width:1px;stroke-linecap:butt;stroke-linejoin:miter;stroke-opacity:1"/>
    <path d="M61.076 222.589c4.68.817 9.255.503 13.115-1.14M60.188 214.206c4.39 2.276 9.692.95 13.636.772M59.434 206.826c1.333.62 9.139 1.16 13.555.334" style="fill:none;fill-rule:evenodd;stroke:#000;stroke-width:1px;stroke-linecap:butt;stroke-linejoin:miter;stroke-opacity:1"/>
    <path d="M60.38 199.062c5.597 2.725 9.89 1.437 12.177 2.57.163 2.562.278 4.199.432 5.528-.12 1.315 1.75 7.458.835 7.818 1.041.317 1.45 6.083.367 6.471" style="fill:none;fill-rule:evenodd;stroke:#000;stroke-width:1;stroke-linecap:round;stroke-linejoin:round;stroke-miterlimit:4;stroke-dasharray:none;stroke-opacity:1"/>
    <path d="M74.191 221.45c2.094.774 1.427 4.224 1.024 4.732" style="fill:none;fill-rule:evenodd;stroke:#000;stroke-width:1px;stroke-linecap:butt;stroke-linejoin:miter;stroke-opacity:1"/>
    <path style="fill:#ffe000;fill-opacity:1;fill-rule:evenodd;stroke:#000;stroke-width:1px;stroke-linecap:butt;stroke-linejoin:miter;stroke-opacity:1" d="M333.203 224.104h17.341c.26 1.442 1.947 3.01 3.477 3.715l-17.264 37.478c-1.395 5.915 1.79 13.267 6.665 18.138 8.224 8.218 18.039 5.193 25.35.656 4.883-3.03 9.252-11.311 8.741-17.155l-15.008-38.95c3.48-1.783 3.727-4.84 3.645-7.198-.152-4.41-4.575-8.07-8.491-7.958-2.743.078-4.853 1.128-6.588 3.298H333.35c-.524-2.413-3.221-5.367-5.553-6.775V94.952h9.91v-10.49h-28.045v10.49h9.692v114.401c-2.332 1.408-5.029 4.362-5.553 6.775h-17.72c-1.736-2.17-3.846-3.22-6.589-3.298-3.916-.113-8.34 3.547-8.491 7.958-.082 2.359.165 5.415 3.645 7.198l-15.008 38.95c-.511 5.844 3.858 14.125 8.741 17.155 7.312 4.537 17.126 7.562 25.35-.656 4.875-4.871 8.06-12.223 6.665-18.138L293.13 227.82c1.53-.706 3.217-2.273 3.477-3.715h17.34c.644 3.162 4.494 6.926 9.629 6.884 5.135.042 8.984-3.722 9.627-6.884z"/>
    <path style="fill:#32ac60;fill-opacity:1;fill-rule:evenodd;stroke:#000;stroke-width:1px;stroke-linecap:round;stroke-linejoin:round;stroke-opacity:1" d="M368.302 265.297c-7.347.156-14.692.077-22.039 0l11.692-28.19zM278.85 265.297c7.346.156 14.691.077 22.038 0l-11.691-28.19Z"/>
    <path d="M130.463 203.89c5.878-4.384 10.097-17.652 8.455-31.56" style="fill:none;fill-rule:evenodd;stroke:#000;stroke-width:1px;stroke-linecap:round;stroke-linejoin:miter;stroke-opacity:1"/>
    <path d="M281.687 160.84c8.955-9.605 16.074-19.146 26.989-28.3 1.584-1.33.413-8.109-.328-13.877-.65-5.056 2.459-10.192 4.152-11.473 2.433-1.842 4.505-3.015 6.854-3.169 7.589-.497 10.266 1.18 16.092.492 4.187-.495 3.736 1.42 3.715 2.458-.04 1.96-1.216 4.197-2.022 4.48 1.735.21 2.483 2.32 2.568 3.715.104 1.703-.087 3.695-1.202 3.77.985.49 1.694 5.549.164 5.79 1.8 1.465 1.787 6.867.055 7.24 1.46.682 1.055 5.708-1.148 5.927-4.962.495-9.779.901-14-1.202-.58-.288-.83-3.047 0-4.152-.96-.287-1.975-.609-2.881-1.53-1.452-1.475-.982-3.059-1.341-4.589v16.445c-1.229.747-3.314 1.306-4.505 3.496-6.028 11.09-10.373 22.263-18.083 33.272-3.969 5.666-8.442 10.736-13.932 14.368-2.14 1.417-5.727.41-7.703-1.53-5.355-5.255-10.797-10.411-15.024-16.936.656-12.625 4.884-24.79 9.56-35.129 4.49 6.467 8.55 13.239 12.02 20.433z" style="fill:#fff;fill-rule:evenodd;stroke:#000;stroke-width:1px;stroke-linecap:round;stroke-linejoin:round;stroke-opacity:1"/>
    <path d="M268.778 204.676c-7.852-9.36-9.275-18.452-8.67-29.14" style="fill:none;fill-rule:evenodd;stroke:#000;stroke-width:1px;stroke-linecap:round;stroke-linejoin:miter;stroke-opacity:1"/>
    <path d="m196.247 112.683 3.753 5.816M203.753 112.683 200 118.499" style="fill:none;fill-rule:evenodd;stroke:#000;stroke-width:1px;stroke-linecap:butt;stroke-linejoin:miter;stroke-opacity:1"/>
    <path d="M314.303 123.525c1.588.84 1.653 2.42 5.16 2.158 2.984-.223 3.148-7.913 4.113-12.074.53-2.288 5.6-.127 13.563-2.158" style="fill:none;fill-rule:evenodd;stroke:#000;stroke-width:1px;stroke-linecap:round;stroke-linejoin:round;stroke-opacity:1"/>
    <path d="M338.505 118.936c-4.948 1.082-15.645 2.248-15.652-1.148M338.67 124.727c-5.363 2.776-14.997 1.534-17.704.246M338.724 131.966c-5.05.291-12.617.726-15.148.573" style="fill:none;fill-rule:evenodd;stroke:#000;stroke-width:1px;stroke-linecap:butt;stroke-linejoin:miter;stroke-opacity:1"/>
    <path d="M322.06 125.382c-1.33-.222-2.492 1.013-2.512 1.94" style="fill:none;fill-rule:evenodd;stroke:#000;stroke-width:.89999998;stroke-linecap:butt;stroke-linejoin:miter;stroke-miterlimit:4;stroke-dasharray:none;stroke-opacity:1"/>
</svg>
