<svg xmlns="http://www.w3.org/2000/svg" xml:space="preserve" viewBox="30.5 31.5 400 500" height="500" width="400">
    <path d="M230.45 531.13c-74.32-53.92-125.26-122.02-155.74-208.16-27.64-78.1-38.73-172.75-33.91-289.35l.02-.46h379.82l.02.46c4.81 116.6-6.28 211.24-33.91 289.35-30.48 86.14-81.42 154.24-155.74 208.16l-.28.2-.28-.2z" fill="#0085ca"/>
    <path d="m205.5 511.77 25 19.4C389.77 415.53 429.07 242.89 419.96 33.21l-164.46-.1v38.4l-50-10v50l50-10v50l-50-10v50l50-10v50l-50-10v50l50-10v50l-50-10v50l50-10v50l-50-10v50l50-10v56l-50-14v48.27" style="fill-rule:evenodd;fill:#fff"/>
    <path d="M419.96 33.21c9.07 219.45-36.25 385.95-189.45 497.1C146.04 469.02 94.36 390.9 66.52 296.34a557.24 557.24 0 0 1-5.87-21.54c-11.45-45.69-17.77-95.02-19.88-147.94-1.2-30.06-1.05-61.28.29-93.65h378.9m.92-.95H40.14l-.04.92c-4.82 116.66 6.28 211.36 33.93 289.52 30.51 86.24 81.51 154.41 155.91 208.39l.56.41.56-.41c74.4-53.98 125.4-122.15 155.91-208.39 27.65-78.16 38.75-172.86 33.93-289.52l-.04-.92z"/>
    <path d="M255.5 33v38.5l-50-10v50l50-10v50l-50-10v50l50-10v50l-50-10v50l50-10v50l-50-10v50l50-10v50l-50-10v50l50-10v56l-50-14v48.27" style="fill:none;stroke:#000"/>
</svg>
