<svg xmlns="http://www.w3.org/2000/svg" viewBox="0 0 209.656 244.664" height="924.715" width="792.402">
    <g style="stroke-width:1.08793">
        <path style="fill:#ee2d24;fill-opacity:1;stroke:#1a1a1a;stroke-width:.870369;stroke-linecap:butt;stroke-linejoin:miter;stroke-miterlimit:4;stroke-dasharray:none;stroke-opacity:1" d="M51.983 165.23C34.152 124.084 25.04 72.44 24.067 9.785H240.4c-.975 62.654-10.085 114.3-27.917 155.445-16.005 35.896-40.455 63.105-80.25 98.84-39.796-35.735-64.246-62.944-80.251-98.84Z" transform="translate(-16.715 -3.594) scale(.91915)"/>
        <path style="fill:#e6e6e6;fill-opacity:1;stroke:none;stroke-width:1.64477;stroke-linecap:round;stroke-linejoin:miter;stroke-miterlimit:4;stroke-dasharray:none;stroke-opacity:1" d="M797.137 74.62c-80.905-.252-149.418 22.905-209.79 61.439-1.947 1.324-1.76 2.273-2.472 4.064-16.182 42.433-38.6 80.59-85.111 102.209-26.494-31.958-54.248-53.931-87.526-31.53l-25.265-2.849c-7.968-.426-12.886 3.434-15.653 6.553-2.47 2.714-.393 3.283 4.166 3.275l3.975 5.39c1.681 2.296 2.588 2.04 3.623.839 1.145-1.33 1.914-.1 3.621.84l23.053 10.109a261.866 261.866 0 0 0 20.078 40.09l-.104-.106c-25.714 2.402-49.44-4.64-71.386-20.142-2.156-1.477-3.693-1.242-6.362-.354-57.84 21.235-115.678 48.07-173.517 114.854-1.945 2.096-.592 4.898 2.472 4.594l163.624-18.024c3.036-.343 4.882-.385 7.775 0L522.7 369.248c15.307 10.336 30.428 19.033 44.418 26.365 2.788 5.02 19.533 50.49 19.875 49.668 33.508-3.554 58.376-16.412 73.508-39.756l-60.078-33.927c-.817-.468-1.345-1.393-1.59-2.473-2.694-15.536-12.196-31.316-19.084-47.002l-.13-.023 80.528-117.659c1.125-1.422 2.278-2.1 3.534-3.003L844.975 80.574c1.37-1.244.731-2.925-1.59-3.357-15.86-1.703-31.266-2.551-46.248-2.598z" transform="matrix(.2432 0 0 .2432 -16.715 -3.594)"/>
        <g style="stroke-width:1.08793">
            <path d="M113.7 72.746c-6.804.635-13.081-1.228-18.888-5.33-.57-.391-.977-.329-1.683-.094-15.303 5.619-30.606 12.719-45.91 30.389-.515.555-.156 1.296.655 1.215l43.292-4.768c.803-.091 1.291-.102 2.057 0l45.255 3.553" style="fill:none;stroke:#1a1a1a;stroke-width:.652778;stroke-linecap:butt;stroke-linejoin:miter;stroke-miterlimit:4;stroke-dasharray:none;stroke-opacity:1" transform="translate(-16.715 -3.594) scale(.91915)"/>
            <path d="M130.67 64.798c13.374-5.572 19.62-16.034 24.078-27.724.188-.474.14-.725.654-1.075 18.932-12.084 40.889-18.452 67.744-15.569.614.115.783.56.42.889L175.6 53.297c-.332.239-.637.418-.935.795l-23.422 34.222M153.127 106.25c-14.41-7.162-35.12-19.97-44.712-44.084l-6.099-2.675c-.452-.248-.655-.573-.958-.222-.274.318-.514.386-.959-.222l-1.052-1.426" style="fill:none;stroke:#1a1a1a;stroke-width:.652778;stroke-linecap:round;stroke-linejoin:miter;stroke-miterlimit:4;stroke-dasharray:none;stroke-opacity:1" transform="translate(-16.715 -3.594) scale(.91915)"/>
            <path d="m108.415 62.166 2.737-1.693c.347-.224.393-.606.187-.935l-2.267-3.763" style="fill:none;stroke:#1a1a1a;stroke-width:.652778;stroke-linecap:butt;stroke-linejoin:miter;stroke-miterlimit:4;stroke-dasharray:none;stroke-opacity:1" transform="translate(-16.715 -3.594) scale(.91915)"/>
            <path d="m111.433 60.076-10.075-2.758c-1.025-.333-1.256-.365-2.01.303-1.207.002-1.756-.148-1.103-.866.732-.825 2.033-1.847 4.141-1.734l6.686.754c8.804-5.928 16.147-.114 23.162 8.345M150.073 104.677l5.236 13.137c8.865-.94 15.445-4.343 19.449-10.519l-15.896-8.976c-.216-.124-.356-.37-.42-.655-.713-4.11-3.228-8.285-5.05-12.436" style="fill:none;stroke:#1a1a1a;stroke-width:.652778;stroke-linecap:butt;stroke-linejoin:miter;stroke-miterlimit:4;stroke-dasharray:none;stroke-opacity:1" transform="translate(-16.715 -3.594) scale(.91915)"/>
            <path d="M119.324 58.869c-.915-2.466-3.748-2.416-3.892-1.033-.086 1.449 1.628 1.456 2.194.682.346-.485 1.079-.75 1.492-.104" style="fill:#1a1a1a;stroke:#1a1a1a;stroke-width:.652778;stroke-linecap:round;stroke-linejoin:miter;stroke-miterlimit:4;stroke-dasharray:none;stroke-opacity:1" transform="translate(-16.715 -3.594) scale(.91915)"/>
        </g>
        <g style="stroke-width:1.05682">
            <path style="fill:#e6e6e6;fill-opacity:1;stroke:none;stroke-width:.422724;stroke-linecap:round;stroke-linejoin:miter;stroke-miterlimit:4;stroke-dasharray:none;stroke-opacity:1" d="M193.356 113.632c-17.32-.054-31.988 4.903-44.912 13.153-.417.283-.377.487-.53.87-3.464 9.084-8.263 17.253-18.22 21.881-5.673-6.842-11.614-11.546-18.738-6.75l-5.41-.61c-1.705-.092-2.758.735-3.35 1.403-.529.581-.085.703.892.701l.85 1.154c.36.492.555.437.776.18.245-.285.41-.02.776.18l4.935 2.164a56.068 56.068 0 0 0 4.298 8.582l-.02-.021c-5.506.514-10.585-.994-15.284-4.312-.461-.317-.79-.266-1.361-.075-12.383 4.546-24.765 10.291-37.147 24.588-.417.45-.127 1.05.529.984l35.029-3.859c.65-.071 1.045-.082 1.664 0l36.472 2.864c3.277 2.213 6.514 4.075 9.509 5.644.597 1.075 4.182 10.81 4.255 10.633 7.173-.76 12.497-3.513 15.737-8.51l-12.862-7.264c-.175-.1-.288-.298-.34-.53-.577-3.325-2.611-6.703-4.086-10.062l-.028-.006 17.24-25.188c.24-.305.487-.45.756-.643l38.812-25.875c.293-.266.156-.626-.34-.719a95.444 95.444 0 0 0-9.902-.556z" transform="matrix(.94624 0 0 .94624 -10.5 -8.264)"/>
            <g style="stroke-width:1.30612">
                <path d="M113.7 72.746c-6.804.635-13.081-1.228-18.888-5.33-.57-.391-.977-.329-1.683-.094-15.303 5.619-30.606 12.719-45.91 30.389-.515.555-.156 1.296.655 1.215l43.292-4.768c.803-.091 1.291-.102 2.057 0l45.255 3.553" style="fill:none;stroke:#1a1a1a;stroke-width:.783662;stroke-linecap:butt;stroke-linejoin:miter;stroke-miterlimit:4;stroke-dasharray:none;stroke-opacity:1" transform="matrix(.76563 0 0 .76563 10.985 84.144)"/>
                <path d="M130.67 64.798c13.374-5.572 19.62-16.034 24.078-27.724.188-.474.14-.725.654-1.075 18.932-12.084 40.889-18.452 67.744-15.569.614.115.783.56.42.889L175.6 53.297c-.332.239-.637.418-.935.795l-23.422 34.222M153.127 106.25c-14.41-7.162-35.12-19.97-44.712-44.084l-6.099-2.675c-.452-.248-.655-.573-.958-.222-.274.318-.514.386-.959-.222l-1.052-1.426" style="fill:none;stroke:#1a1a1a;stroke-width:.783662;stroke-linecap:round;stroke-linejoin:miter;stroke-miterlimit:4;stroke-dasharray:none;stroke-opacity:1" transform="matrix(.76563 0 0 .76563 10.985 84.144)"/>
                <path d="m108.415 62.166 2.737-1.693c.347-.224.393-.606.187-.935l-2.267-3.763" style="fill:none;stroke:#1a1a1a;stroke-width:.783662;stroke-linecap:butt;stroke-linejoin:miter;stroke-miterlimit:4;stroke-dasharray:none;stroke-opacity:1" transform="matrix(.76563 0 0 .76563 10.985 84.144)"/>
                <path d="m111.433 60.076-10.075-2.758c-1.025-.333-1.256-.365-2.01.303-1.207.002-1.756-.148-1.103-.866.732-.825 2.033-1.847 4.141-1.734l6.686.754c8.804-5.928 16.147-.114 23.162 8.345M150.073 104.677l5.236 13.137c8.865-.94 15.445-4.343 19.449-10.519l-15.896-8.976c-.216-.124-.356-.37-.42-.655-.713-4.11-3.228-8.285-5.05-12.436" style="fill:none;stroke:#1a1a1a;stroke-width:.783662;stroke-linecap:butt;stroke-linejoin:miter;stroke-miterlimit:4;stroke-dasharray:none;stroke-opacity:1" transform="matrix(.76563 0 0 .76563 10.985 84.144)"/>
                <path d="M119.324 58.869c-.915-2.466-3.748-2.416-3.892-1.033-.086 1.449 1.628 1.456 2.194.682.346-.485 1.079-.75 1.492-.104" style="fill:#1a1a1a;stroke:#1a1a1a;stroke-width:.783662;stroke-linecap:round;stroke-linejoin:miter;stroke-miterlimit:4;stroke-dasharray:none;stroke-opacity:1" transform="matrix(.76563 0 0 .76563 10.985 84.144)"/>
            </g>
        </g>
    </g>
</svg>
