<svg xmlns="http://www.w3.org/2000/svg" width="400" height="500" viewBox="30.5 31.5 400 500" xml:space="preserve">
    <path style="fill:#e00e00;fill-opacity:1" d="M230.67 530.86C156.35 476.94 105.41 408.84 74.93 322.7 47.29 244.6 36.2 149.95 41.02 33.35l.02-.46h379.82l.02.46c4.81 116.6-6.28 211.24-33.91 289.35-30.48 86.14-81.42 154.24-155.74 208.16l-.28.2-.28-.2z"/>
    <path d="M393.233 301.844c-6.79-5.349-14.193-11.235-19.333-15.483-15.344-12.679-37.598-32.498-43.924-38.042-7.54-6.607-9.45-16.047-13.45-23.446-1.203-2.223-25.513-20.11-38.27-30.164-3.708-2.923 2.459-6.357-.15-9.422l-3.099-3.642c-2.931-3.445-2.755-9.262 5.118-19.264 10.393-13.204 21.532-25.127 33.338-36.18 18.618-17.43 43.256-37.083 60.516-47.41 2.842-1.701 1.612-6.287-.646-6.318-13.01-.174-55.317 16.442-78.25 29.439-23.231 13.167-44.085 28.305-64.484 44.584l-4.577-4.508c-3.195-3.148-22.062 21.05-33.016 35.101-10.955 14.05-29.822 38.25-25.99 40.58l5.489 3.34c-10.813 23.753-20.407 47.669-27.51 73.41-7.012 25.41-12.808 70.492-9.466 83.067.58 2.183 5.328 2.257 6.284-.914 5.806-19.258 18.857-47.945 31.22-70.252 7.84-14.145 16.685-27.856 26.956-41.155 7.78-10.075 13.378-11.664 17.434-9.662l4.288 2.117c3.61 1.782 5.435-5.035 9.175-2.152 12.862 9.92 36.137 29.133 38.586 29.757 8.151 2.075 17.773 1.626 26.018 7.326 6.92 4.782 31.568 21.531 47.606 33.32 9.235 6.787 24.795 18.873 32.401 24.808 6.391-15.011 13.147-32.721 17.736-48.835z" style="fill:#ffe000;fill-opacity:1;fill-rule:evenodd;stroke:none;stroke-width:.98065841px;stroke-linecap:butt;stroke-linejoin:round;stroke-opacity:1"/>
    <path d="M419.96 33.21c9.07 219.45-36.26 385.95-189.46 497.1C77.31 419.16 31.99 252.66 41.06 33.21h378.9m.92-.95H40.14l-.04.92c-4.82 116.66 6.28 211.36 33.93 289.52 30.51 86.24 81.51 154.41 155.91 208.39l.56.41.56-.41c74.4-53.98 125.4-122.15 155.91-208.39 27.65-78.16 38.75-172.86 33.93-289.52l-.04-.92z"/>
    <path style="fill:none;fill-opacity:1;fill-rule:evenodd;stroke:#000;stroke-width:.98065841px;stroke-linecap:butt;stroke-linejoin:round;stroke-opacity:1" d="M393.233 301.844c-6.79-5.349-14.193-11.235-19.333-15.483-15.344-12.679-37.598-32.498-43.924-38.042-7.54-6.607-9.45-16.047-13.45-23.446-1.203-2.223-25.513-20.11-38.27-30.164-3.708-2.923 2.459-6.357-.15-9.422l-3.099-3.642c-2.931-3.445-2.755-9.262 5.118-19.264 10.393-13.204 21.532-25.127 33.338-36.18 18.618-17.43 43.256-37.083 60.516-47.41 2.842-1.701 1.612-6.287-.646-6.318-13.01-.174-55.317 16.442-78.25 29.439-23.231 13.167-44.085 28.305-64.484 44.584l-4.577-4.508c-3.195-3.148-22.062 21.05-33.016 35.101-10.955 14.05-29.822 38.25-25.99 40.58l5.489 3.34c-10.813 23.753-20.407 47.669-27.51 73.41-7.012 25.41-12.808 70.492-9.466 83.067.58 2.183 5.328 2.257 6.284-.914 5.806-19.258 18.857-47.945 31.22-70.252 7.84-14.145 16.685-27.856 26.956-41.155 7.78-10.075 13.378-11.664 17.434-9.662l4.288 2.117c3.61 1.782 5.435-5.035 9.175-2.152 12.862 9.92 36.137 29.133 38.586 29.757 8.151 2.075 17.773 1.626 26.018 7.326 6.92 4.782 31.568 21.531 47.606 33.32 9.235 6.787 24.795 18.873 32.401 24.808"/>
</svg>
