<svg xmlns="http://www.w3.org/2000/svg" width="400" height="500" viewBox="30.5 31.5 400 500" xml:space="preserve">
    <path d="M230.44 531.14C156.12 477.22 105.18 409.12 74.7 322.98c-27.64-78.1-38.73-172.75-33.91-289.35l.02-.46h379.82l.02.46c4.81 116.6-6.28 211.24-33.91 289.35-30.48 86.14-81.42 154.24-155.74 208.16l-.28.2-.28-.2z" fill="#32ac60"/>
    <path d="M332.46 428.37c-9.34-2.45-18.46-10.36-34.74-23.18-17.16-13.51-27.51-33.18-27.68-66.73-22.37 3.1-40.32 3.32-58.26-8.12-18.41-11.74-27.51-29.18-27.68-62.73-22.37 3.1-40.32 3.32-58.26-8.12-18.41-11.74-27.51-29.18-27.68-62.73-20.13 2.79-36.68 3.25-52.87-5.03-.25 1.24-3.68-29.16-5.04-65.85 11.29 9.38 24.76 15.82 33.65 20.76 18.61 10.34 35.89 11.21 58.26 8.12.17 33.55 9.26 51 27.68 62.73 17.95 11.44 35.89 11.21 58.26 8.12.17 33.55 9.26 51 27.68 62.73 17.95 11.44 35.89 11.21 58.26 8.12.1 20.81 4.05 34.84 11.18 45.66 12.38 16.58 15.79 25.79 45.36 40.11-8.06 15.82-18.37 32.14-28.12 46.14zM61.65 32.91l62.97-.11c4.6 10.05 11.48 17.36 20.71 23.24 17.95 11.44 35.89 11.21 58.26 8.12.17 33.55 9.26 51 27.68 62.73 17.95 11.44 35.89 11.21 58.26 8.12.17 33.55 9.26 51 27.68 62.73 17.95 11.44 35.89 11.21 58.26 8.12-.71 33.88 7.05 53.47 25.68 66.73-4.33 18.43-9.42 34.94-14.9 50.47 0 0-4.38.79-17.75-7.6-18.5-11.6-26.86-34.05-27.03-67.6-22.37 3.1-40.32 3.32-58.26-8.12-18.41-11.74-27.51-29.18-27.68-62.73-22.37 3.1-40.32 3.32-58.26-8.12-18.41-11.74-27.51-29.18-27.68-62.73-22.37 3.1-40.32.71-58.26-8.12-19.59-9.64-43.41-32.89-49.68-65.13" style="fill-rule:evenodd;fill:#fff"/>
    <path d="M40.24 125.89c11.29 9.38 24.76 15.82 33.65 20.76 18.61 10.34 35.89 11.21 58.26 8.12.17 33.55 9.26 51 27.68 62.73 17.95 11.44 35.89 11.21 58.26 8.12.17 33.55 9.26 51 27.68 62.73 17.95 11.44 35.89 11.21 58.26 8.12.1 20.81 4.05 34.84 11.18 45.66 12.38 16.58 15.79 25.79 45.36 40.11m-28.12 46.14c-9.34-2.45-18.46-10.36-34.74-23.18-17.16-13.51-27.51-33.18-27.68-66.73-22.37 3.1-40.32 3.32-58.26-8.12-18.41-11.74-27.51-29.18-27.68-62.73-22.37 3.1-40.32 3.32-58.26-8.12-18.41-11.74-27.51-29.18-27.68-62.73-20.13 2.79-36.68 3.25-52.87-5.03M124.63 32.8c4.6 10.05 11.48 17.36 20.71 23.24 17.95 11.44 35.89 11.21 58.26 8.12.17 33.55 9.26 51 27.68 62.73 17.95 11.44 35.89 11.21 58.26 8.12.17 33.55 9.26 51 27.68 62.73 17.95 11.44 35.89 11.21 58.26 8.12-.71 33.88 7.05 53.47 25.68 66.73m-14.9 50.47s-4.38.79-17.75-7.6c-18.5-11.6-26.86-34.05-27.03-67.6-22.37 3.1-40.32 3.32-58.26-8.12-18.41-11.74-27.51-29.18-27.68-62.73-22.37 3.1-40.32 3.32-58.26-8.12-18.41-11.74-27.51-29.18-27.68-62.73-22.37 3.1-40.32.71-58.26-8.12-19.6-9.64-43.42-32.89-49.69-65.13" style="fill:none;stroke:#000"/>
    <path d="M419.96 33.21c9.07 219.45-36.26 385.95-189.46 497.1C77.31 419.16 31.99 252.66 41.06 33.21h378.9m.92-.95H40.14l-.04.92c-4.82 116.66 6.28 211.36 33.93 289.52 30.51 86.24 81.51 154.41 155.91 208.39l.56.41.56-.41c74.4-53.98 125.4-122.15 155.91-208.39 27.65-78.16 38.75-172.86 33.93-289.52l-.04-.92z"/>
</svg>
