<svg xmlns="http://www.w3.org/2000/svg" xml:space="preserve" viewBox="30.5 31.5 400 500" height="500" width="400">
    <path d="M230.45 531.13c-74.32-53.92-125.26-122.02-155.74-208.16-27.64-78.1-38.73-172.75-33.91-289.35l.02-.46h379.82l.02.46c4.81 116.6-6.28 211.24-33.91 289.35-30.48 86.14-81.42 154.24-155.74 208.16l-.28.2-.28-.2z" fill="#ffe000"/>
    <path d="M398.13 253.13c-6.15-15.13-6.33-24.65-3.83-35.6 4.82-21.23-8.21-43.57-33.8-51.03 9.7 15.2 7.91 33.54-.32 45.77-8.5 12.62-17.67 20.72-18.05 37.09-.2 8.82 4.82 22.15 8.36 27.15-12.28-3.67-21.34-11-26.37-23.37-6.15-15.13-2.33-24.65.17-35.6 4.83-21.24-8.2-43.58-33.79-51.04 9.7 15.2 7.91 33.54-.32 45.77-8.5 12.62-17.67 20.72-18.05 37.09-.2 8.82 4.82 22.15 8.36 27.15-12.28-3.67-21.34-11-26.37-23.37-6.15-15.13-2.33-24.65.17-35.6 4.83-21.24-8.2-43.58-33.79-51.04 9.7 15.2 7.91 33.54-.32 45.77-8.5 12.62-17.67 20.72-18.05 37.09-.2 8.82 4.82 22.15 8.36 27.15-12.28-3.67-21.34-11-26.37-23.37-6.15-15.13-2.33-24.65.17-35.6 4.83-21.24-8.2-43.58-33.79-51.04 9.7 15.2 7.91 33.54-.32 45.77-8.5 12.62-17.67 20.72-18.05 37.09-.2 8.82 4.82 22.15 8.36 27.15-12.28-3.67-21.34-11-26.37-23.37-6.15-15.13-2.33-24.65.17-35.6 4.83-21.22-8.2-43.57-33.72-51.03 9.78 15.2 7.99 33.54-.24 45.77-8.5 12.62-19.43 22.52-22.2 38.86-.84 4.93-1.25 9.9-1.25 9.9 24.47 113.43 85.17 206.6 173.62 269.82 81.57-59.93 145.48-142.61 173.2-268.06-1.63-2.38-4.38-6.75-5.57-9.67z" style="fill-rule:evenodd;fill:#0085ca"/>
    <path d="M403.7 262.8c-1.63-2.38-4.38-6.75-5.57-9.67-6.15-15.13-6.33-24.65-3.83-35.6 4.82-21.23-8.21-43.57-33.8-51.03 9.7 15.2 7.91 33.54-.32 45.77-8.5 12.62-17.67 20.72-18.05 37.09-.2 8.82 4.82 22.15 8.36 27.15-12.28-3.67-21.34-11-26.37-23.37-6.15-15.13-2.33-24.65.17-35.6 4.83-21.24-8.2-43.58-33.79-51.04 9.7 15.2 7.91 33.54-.32 45.77-8.5 12.62-17.67 20.72-18.05 37.09-.2 8.82 4.82 22.15 8.36 27.15-12.28-3.67-21.34-11-26.37-23.37-6.15-15.13-2.33-24.65.17-35.6 4.83-21.24-8.2-43.58-33.79-51.04 9.7 15.2 7.91 33.54-.32 45.77-8.5 12.62-17.67 20.72-18.05 37.09-.2 8.82 4.82 22.15 8.36 27.15-12.28-3.67-21.34-11-26.37-23.37-6.15-15.13-2.33-24.65.17-35.6 4.83-21.24-8.2-43.58-33.79-51.04 9.7 15.2 7.91 33.54-.32 45.77-8.5 12.62-17.67 20.72-18.05 37.09-.2 8.82 4.82 22.15 8.36 27.15-12.28-3.67-21.34-11-26.37-23.37-6.15-15.13-2.33-24.65.17-35.6 4.83-21.22-8.2-43.57-33.72-51.03 9.78 15.2 7.99 33.54-.24 45.77-8.5 12.62-19.43 22.52-22.2 38.86-.84 4.93-1.25 9.9-1.25 9.9" style="fill:none;stroke:#000"/>
    <path d="M419.96 33.21c9.07 219.45-36.25 385.95-189.45 497.1C146.04 469.02 94.36 390.9 66.52 296.34a557.24 557.24 0 0 1-5.87-21.54c-11.45-45.69-17.77-95.02-19.88-147.94-1.2-30.06-1.05-61.28.29-93.65h378.9m.92-.95H40.14l-.04.92c-4.82 116.66 6.28 211.36 33.93 289.52 30.51 86.24 81.51 154.41 155.91 208.39l.56.41.56-.41c74.4-53.98 125.4-122.15 155.91-208.39 27.65-78.16 38.75-172.86 33.93-289.52l-.04-.92z"/>
</svg>
