<svg xmlns="http://www.w3.org/2000/svg" width="400" height="500" viewBox="30.5 31.5 400 500" xml:space="preserve">
    <path fill="#0085ca" d="M230.44 531.14C156.12 477.22 105.18 409.12 74.7 322.98c-27.64-78.1-38.73-172.75-33.91-289.35l.02-.46h379.82l.02.46c4.81 116.6-6.28 211.24-33.91 289.35-30.48 86.14-81.42 154.24-155.74 208.16l-.28.2-.28-.2z"/>
    <path d="M419.96 33.21c9.07 219.45-36.26 385.95-189.46 497.1C77.31 419.16 31.99 252.66 41.06 33.21h378.9m.92-.95H40.14l-.04.92c-4.82 116.66 6.28 211.36 33.93 289.52 30.51 86.24 81.51 154.41 155.91 208.39l.56.41.56-.41c74.4-53.98 125.4-122.15 155.91-208.39 27.65-78.16 38.75-172.86 33.93-289.52l-.04-.92z"/>
    <circle r="53.09" cy="123.5" cx="130.5" style="fill:#fff;stroke-linecap:round;stroke-linejoin:round;stroke-miterlimit:4;stroke-width:1.08;stroke:#000"/>
    <circle r="7.39" cy="123.5" cx="116.6"/>
    <circle cx="144.4" cy="123.5" r="7.39"/>
    <circle r="13.9" cy="123.5" cx="130.5" style="fill:#0085ca;stroke-linecap:round;stroke-linejoin:round;stroke-miterlimit:4;stroke-width:1.07;stroke:#000"/>
    <circle cx="211.5" cy="218.5" r="53.09" style="fill:#fff;stroke-linecap:round;stroke-linejoin:round;stroke-miterlimit:4;stroke-width:1.08;stroke:#000"/>
    <circle cx="197.6" cy="218.5" r="7.39"/>
    <circle r="7.39" cy="218.5" cx="225.4"/>
    <circle cx="211.5" cy="218.5" r="13.9" style="fill:#0085ca;stroke-linecap:round;stroke-linejoin:round;stroke-miterlimit:4;stroke-width:1.07;stroke:#000"/>
    <circle r="53.09" cy="313.5" cx="292.5" style="fill:#fff;stroke-linecap:round;stroke-linejoin:round;stroke-miterlimit:4;stroke-width:1.08;stroke:#000"/>
    <circle r="7.39" cy="313.5" cx="278.6"/>
    <circle cx="306.4" cy="313.5" r="7.39"/>
    <circle r="13.9" cy="313.5" cx="292.5" style="fill:#0085ca;stroke-linecap:round;stroke-linejoin:round;stroke-miterlimit:4;stroke-width:1.07;stroke:#000"/>
</svg>
