<svg xmlns="http://www.w3.org/2000/svg" width="235.328" height="283.566" viewBox="0 0 62.264 75.027">
    <path style="fill:#ced1d4;stroke-width:.26458332" d="m351.288 215.104 62.236.047c-.486 10.193.119 23.669-4.767 38.657-3.732 11.446-12.198 22.709-26.317 36.323-20.215-15.432-25.296-31.243-28.947-47.826-.471-2.139-.735-4.44-.958-6.65-.68-6.753-.855-13.713-1.247-20.551z" transform="translate(-351.266 -215.104)"/>
    <path style="fill:#0094da;fill-opacity:1;stroke:none;stroke-width:.26623121px;stroke-linecap:butt;stroke-linejoin:miter;stroke-opacity:1" d="M352.566 235.99c19.901-11.38 40.012-10.058 60.168-2.595.476-3.093.846-6.744.79-18.06l-62.236-.047c-.14 6.832.428 13.781 1.278 20.703zm.088.689c.117 1.317.14 1.332.396 3.07l2.794-1.24.012-3.46zm54.293-3.827.024 5.398 4.913 2.173c.334-1.882.563-3.8.756-5.729zm-8.264-1.985.095 4.548 6.877 2.457.06-5.221zm-8.372 2.339.036-3.827 7.02 1.205.036 4.488zm-8.36-4.17-.035 3.438c3 .028 4.923.357 7.187.59l-.012-3.732c-2.335-.144-4.558-.398-7.14-.296zm-8.562.662-.012 3.177c2.621-.193 5.343-.429 7.367-.366l.036-3.425c-2.49-.01-4.945.272-7.391.614zm-8.133 4.996-.114-3.281c2.37-.545 4.394-1.387 7.11-1.634l.025 3.262c-2.665.443-4.713 1.091-7.02 1.653zm-8.38 3.229.034-3.274 7.12-2.857.051 3.308z" transform="translate(-351.266 -215.104)"/>
    <path style="fill:#0094da;fill-opacity:1;stroke:none;stroke-width:.26596689px;stroke-linecap:butt;stroke-linejoin:miter;stroke-opacity:1" d="m36.54 141.84-.334 12.805 2.693 1.207-.31-13.349c10.743 3.346 18.518 7.758 26.853 13.325-3.884 12.709-10.812 26.562-26.329 36.33-18.142-11.3-26.045-30.9-28.974-47.832 11.948-4.414 19.086-3.349 26.4-2.485zm2.838 2.432.286 11.413 2.477-.87-.506-9.824zm-18.404 22.222c.79 2.098 1.84 3.71 3.032 5.154 10.735.193 27.72-1.952 36.115-6.992-10.244 2.732-20.84 4.462-39.147 1.838zm-1.001-3.02.59 1.94c24.212 3.574 36.685-.917 39.857-2.108-7.346 1.126-22.14 2.792-40.447.167zm-.76-3.454.47 2.065c15.087 2.653 39.053 1.629 42.339-.325-11.356.975-29.931.007-42.81-1.74z" transform="translate(-7.938 -117.13)"/>
</svg>
