<svg xmlns="http://www.w3.org/2000/svg" xml:space="preserve" viewBox="30.5 31.5 400 500" height="500" width="400">
    <path d="M230.67 530.86C156.35 476.94 105.41 408.84 74.93 322.7 47.29 244.6 36.2 149.95 41.02 33.35l.02-.46h379.82l.02.46c4.81 116.6-6.28 211.24-33.91 289.35-30.48 86.14-81.42 154.24-155.74 208.16l-.28.2-.28-.2z" style="fill:#e00e00;fill-opacity:1"/>
    <path d="M419.96 33.21c9.07 219.45-36.26 385.95-189.46 497.1C77.31 419.16 31.99 252.66 41.06 33.21h378.9m.92-.95H40.14l-.04.92c-4.82 116.66 6.28 211.36 33.93 289.52 30.51 86.24 81.51 154.41 155.91 208.39l.56.41.56-.41c74.4-53.98 125.4-122.15 155.91-208.39 27.65-78.16 38.75-172.86 33.93-289.52l-.04-.92z"/>
    <path style="fill:#ffe000;fill-opacity:1;stroke:#000;stroke-width:1;stroke-linecap:round;stroke-linejoin:round;stroke-opacity:1;stroke-miterlimit:4;stroke-dasharray:none" d="M151.796 161.64c-2.279 4.444-4.228 9.721-4.775 13.546-11.804-7.83-23.794-15.225-36.487-20.981-4.987-2.262-13.215 2.89-14.27 10.323-2.89 20.367-3.37 28.076-10.42 49.835-1.952 6.026 2.947 20.783 5.427 33.195.553 2.768 11.336-13.174 9.927-16.09-3.115-6.448-8.341-11.211.599-14.658 1.876-.723.858-6.127-.492-9.216-2.87-6.572.03-20.603 7.1-33.447 2.143-3.895 14.53 9.72 21.514 17.114-5.104-1.007-9.118-1.595-14.415-4.145-5.056-2.434-10.608 2.845-9.278 7.255 4.084 13.534 8.789 28.637 8.964 43.557.12 10.205 7.4 21.739 13.023 30.266 2.003 3.037 5.287-17.436 2.957-18.925-3.53-2.257-7.577-5.281-5.688-7.267 3.11-3.268 4.03-3.424 3.16-5.72-2.165-5.711-9.415-18.566-5.126-25.425 1.291-2.064 5.701 6.208 8.258 9.587 5.661 7.482 11.206 14.756 22.241 14.471 1.257-.033 2.279 1.71 2.972 2.51 12.006 13.852 24.596 27.896 41.56 38.933 4.489 2.92 13.858 6.743 14.468 9.42 3.939 17.31 11.86 25.12 21.463 34.535 11.695 11.463 25.57 17.135 32.613 35.707 2.756 7.266 4.796 12.805 6.027 25.635.34 3.55-1.978 8.834.344 13.613 3.805 7.827 8.836 17.239 14.079 26.868 2.945-3.9 3.945-14.985 3.942-23.525 0-5.186-10.835-7.324-8.805-9.33 2.564-2.536 5.39-4.666 3.87-7.356-14.553-25.73-4.453-27.192-9.59-41.766-1.694-4.805-8.973-12.066-10.922-21.745 7.984 9.696 28.251 16.155 32.046 48.104.533 4.48-2.346 13.132-.87 15.743l11.414 20.19c2.041 3.611 7.544-13.277 4.96-17.26-1.193-1.84-6.154-5.363-4.901-6.824 3.327-3.876 4.004-5.594 3.062-7.3-14.781-26.771-8.176-37.835-13.77-47.288-4.292-7.257-13.47-9.575-16.39-20.96-1.53-5.971-3.216-17.8.24-17.951l5.536-.244c1.874-.082 4.002-3.128 2.628-3.877-15.387-8.386-8.761-22.098-28.102-36.946-17.767-13.64-25.255-21.393-32.552-30.274-7.732-9.41-9.543-16.475-14.463-30.55-4.9-14.016 2.959-33.11-.81-48.376l1.253-1.777s3.273 5.768 8.22 7.479c2.939-4.237 1.95-9.967 1.27-16.244 8.384 12.958 15.165 15.3 27.68 25.029 9.662 7.51 15.846 9.638 16.504 12.627 1.646 7.486 4.721 11.639 8.352 17.09 2.458 3.69 8.248.402 7.536-1.771-1.283-3.911-1.855-5.232-3.191-9.151-.846-2.482 5.935.057 10.113.727 4.238.68 9.93-.55 10.228 1.497 1.159 7.962 6.308 12.962 12.55 17.38 3.392 2.399 7.596-2.633 5.73-5.384-3.165-4.666-6.493-6.252-8.173-11.76-.838-2.75 8.452-3.623 12.65 1.132 7.514 8.508 17.492 14.805 27.799 14.171 3.55-.218 5.606-5.929 1.54-7.352-6.443-2.257-14.815-3.897-20.925-11.788-1.177-1.52 4.674-7.064 6.608-5.095 2.34 2.382 3.966 4.609 8.077 5.812 5.6 1.638 9.12-3.797 5.22-6.98-2.543-2.076-7.497-4.324-5.794-6.184l4.821-5.267c2.066-2.257-.754-7.036-3.614-4.877-14.3 10.794-30.36 17.112-48.069 16.523-18.15-.604-35.04-7.893-46.268-24.07-1.296-1.868.388-2.135 3.059-1.985 19.226 1.08 29.68-1.03 45.349-9.948 7.186 2.44 20.898 3.448 28.803-5.318 4.305-4.774.109-8.34-2.186-6.62-5.88 4.409-11.236 6.629-17.812 5.756 11.719-18.387 11.17-15.596 16.904-18.265 3.342-1.554 2.827-9.41-1.205-8.027-2.613.896-8.508 3.299-8.237.59.339-3.402.73-7.96-.597-12.746-.602-2.175-2.018-2.67-2.236.124-1.093 14.013-6.764 25.933-17.256 33.713-10.83 8.03-26.073 12.91-42.325 11.557-16.657-1.386-23.915-20.814-23.182-27.827.544-5.198 2.705-9.64 4.33-14.168 1.676-4.672 4.499-10.178 11.415-15.16 2.043-1.472-.879-8.4-4.057-6.307-3.645 1.457-5.607 3.476-8.083 5.323-2.453 1.83-4.526-4.416-6.365-5.982-1.69-1.439-7.183.653-3.636 6.396 4.1 6.637 3.845 13.536 1.002 18.66-2.2 3.963-5.06 7.678-5.445 5.13-.28-1.847-.004-4.951-.132-8.347-.138-3.651-1.038-8.408-1.566-12.09-1.151-8.015-4.84-13.087-7.975-11.947-2.842 1.034-3.443 3.445-5.437 2.974-6.608-1.56-7.355.98-6.572 3.575.895 2.967 6.011 7.025 9.657 12.403 4.338 6.398 6.785 12.4 4.367 12.18-2.924-.267-8.1-3.814-15.6-8.375-6.582-4.002-13.598-9.032-18.707-14.109-5.456-5.422-14.674 4.25-11.383 8.596l6.278 5.547c.939 1.368.51 6.446-2.084 5.204l-6.846-3.323c-2.663-1.293-3.756 6.884-1.809 8.893 2.769 2.858 8.672 5.139 8.926 10.102.475 9.269 4.875 6.515 4.146 13.34-.556 5.21-4.38 9.844-9.527 11.283-7.389 2.066-16.162 4.011-19.064 12.1 3.306-1.548 6.152-3.477 10.112-2.374-.879 5.792-8.12 7.096-13.174 10.767-2.11 1.533-3.353 4.037-4.575 7.04 2.279-.98 6.116-2.37 9.35-2.193-2.889 2.651-7.825 6.71-8.218 11.707 1.994-1.538 5.851-2.88 9.208-2.576z"/>
    <path style="fill:none;stroke:#000;stroke-width:1;stroke-linecap:round;stroke-linejoin:round;stroke-miterlimit:4;stroke-dasharray:none;stroke-opacity:1" d="M175.67 70.455c-3.054 2.403 2.187 7.127 4.508 5.112M200.512 91.641c-1.427 6.306 2.091 9.723 7.441 10.095 1.285-6.173-1.84-9.583-7.44-10.095z"/>
    <path style="fill:none;stroke:#000;stroke-width:1;stroke-linecap:round;stroke-linejoin:round;stroke-miterlimit:4;stroke-dasharray:none;stroke-opacity:1" d="M201.4 98.463c-1.346-1.786 3.273-5.7 4.984-4.122 2.374 2.19-2.79 7.035-4.985 4.122z"/>
    <path d="M224.807 124.059c-1.228-3.603-2.85-6.81-4.973-9.518M215.317 132.824c-2.908-4.56-4.182-9.283-4.105-14.14M266.036 318.414a23.073 23.073 0 0 0-2.2-3.567" style="fill:none;fill-rule:evenodd;stroke:#000;stroke-width:1px;stroke-linecap:round;stroke-linejoin:miter;stroke-opacity:1"/>
</svg>
