<svg xmlns="http://www.w3.org/2000/svg" xml:space="preserve" viewBox="30.5 31.5 400 500" height="500" width="400">
    <path d="M230.44 531.14C156.12 477.22 105.18 409.12 74.7 322.98c-27.64-78.1-38.73-172.75-33.91-289.35l.02-.46h379.82l.02.46c4.81 116.6-6.28 211.24-33.91 289.35-30.48 86.14-81.42 154.24-155.74 208.16l-.28.2-.28-.2z" style="fill:#e00e00;fill-opacity:1"/>
    <path d="m98.922 32.818 35.994-.006 260.901 260.901-8.786 27.214zM40.744 32.878 40.21 46.21l325.65 325.65c3.975-8.174 7.887-16.37 11.254-24.746L66.152 36.152l-3.346-3.456ZM353.903 394.668 39.482 80.248l.35 36.35 300.214 300.214Z" style="fill:#ffe000;fill-opacity:1;fill-rule:evenodd;stroke:none;stroke-width:1;stroke-linecap:butt;stroke-linejoin:miter;stroke-miterlimit:4;stroke-dasharray:none;stroke-opacity:1"/>
    <path d="m419.96 33.21.534 13.332L95.21 371.827c-4.183-8.31-8.803-18.649-11.302-24.699L394.552 36.484l3.346-3.455ZM361.782 33.15l-35.994-.005L65.203 293.73c2.121 8.633 6.352 20.445 8.741 27.259zM107.092 394.71l314.13-314.13-.35 36.35-299.946 299.947c-3.361-4.73-10.036-15.683-13.834-22.166z" style="fill:#ffe000;fill-opacity:1;fill-rule:evenodd;stroke:none;stroke-width:1;stroke-linecap:butt;stroke-linejoin:miter;stroke-miterlimit:4;stroke-dasharray:none;stroke-opacity:1"/>
    <path d="m73.944 320.989 120.573-120.573m17.905-17.905L361.366 33.567l.825-.798m-35.994-.006-.803.776-130.895 130.895m-18.02 18.02L65.202 293.73M107.092 394.71 247.99 253.814m17.943-17.944L421.223 80.58m-.351 36.35L283.933 253.87m-18.059 18.058L120.926 416.877" style="fill:none;fill-opacity:1;fill-rule:evenodd;stroke:#000;stroke-width:1;stroke-linecap:butt;stroke-linejoin:miter;stroke-miterlimit:4;stroke-dasharray:none;stroke-opacity:1"/>
    <path d="M377.114 347.114 248.562 218.562m-18.098-18.098L66.152 36.152l-3.346-3.456M40.21 46.21l172.177 172.177m18.175 18.175L365.86 371.86" style="fill:none;fill-opacity:1;fill-rule:evenodd;stroke:#000;stroke-width:1;stroke-linecap:butt;stroke-linejoin:miter;stroke-miterlimit:4;stroke-dasharray:none;stroke-opacity:1"/>
    <path style="fill:none;fill-opacity:1;fill-rule:evenodd;stroke:#000;stroke-width:1;stroke-linecap:butt;stroke-linejoin:miter;stroke-miterlimit:4;stroke-dasharray:none;stroke-opacity:1" d="M83.908 347.128s39.784-39.852 93.208-93.323m17.854-17.868a299803.96 299803.96 0 0 1 53.461-53.488m18.078-18.08c46.488-46.489 93.116-93.077 128.043-127.885 1.295-1.29 3.891-3.864 3.891-3.864m22.051 13.922-135.96 135.961m-17.97 17.97-53.42 53.419m-18.02 18.02L95.21 371.827M353.903 394.668 248.528 289.294m-18.024-18.024-53.443-53.443m-17.982-17.982L39.482 80.248m.35 36.35L141.04 217.806m18.136 18.136 53.328 53.328m18.024 18.024 109.518 109.518M387.031 320.927l-84.96-84.959m-17.86-17.861-53.639-53.638m-18.097-18.098L98.922 32.818m35.994-.006 95.598 95.598m18.058 18.059 53.42 53.42m17.97 17.97 75.855 75.854"/>
    <path d="M419.96 33.21c9.07 219.45-36.26 385.95-189.46 497.1C77.31 419.16 31.99 252.66 41.06 33.21h378.9m.92-.95H40.14l-.04.92c-4.82 116.66 6.28 211.36 33.93 289.52 30.51 86.24 81.51 154.41 155.91 208.39l.56.41.56-.41c74.4-53.98 125.4-122.15 155.91-208.39 27.65-78.16 38.75-172.86 33.93-289.52l-.04-.92z"/>
</svg>
