<svg xmlns="http://www.w3.org/2000/svg" version="1" width="400" height="500">
    <path d="M396.64 1.45H2.91v301.14c0 108.73 88.14 196.86 196.86 196.86 108.72 0 196.87-88.14 196.87-196.86V1.45z" style="fill-rule:nonzero;fill:#ffe000"/>
    <path d="M396.64 1.45H2.91v301.14c0 108.73 88.14 196.86 196.86 196.86 108.72 0 196.87-88.14 196.87-196.86V1.45z" style="fill:none;stroke:#000"/>
    <path d="M70.1 132.72c2.87.46 5.66.51 8.71 0L60.42 273.47c-1.88 14.41 5.91 26.56 14.15 34.29l100.04 95.36 55.95 6.96c.16 6.81-5.51 19-10.01 24.21h-30.48c-2.58-3.55-12.31-6.9-20.26-2.3-10.1 5.85-8.8 15.45-5.64 20.11 1.83-4.53 6.2-10.19 13.61-10.12 7.24.06 11.19 5.93 11.86 10.12h71.08c-.23-4.74 5.29-10.62 11.54-10.67 6.5-.05 10.34 4.17 11.43 10.67 2.82-2.98 4.23-15.51-4.07-20.6-7.72-4.74-17.84-1.95-22.53 2.79h-7.8c1.04-17.5 9.4-35.33 22.64-51.21l52.9 7.4c-3.77-19.23-13.41-38.46-25.69-57.69-4.26-6.67.61-19.27 9.14-20.9l47.9-9.15c2.53-60.45-.68-123.16-10.01-181.36-4.64-28.95-38.38-64.85-70.1-73.8-21.78-6.15-44.54-5.13-64.44 4.14l-16.12 164.82-46.8-5.96C133.54 157.13 131.7 98.44 99.45 52.99c-2.07-2.91-7.19-3.24-11.01-1.86-7.09-10.25-12.69-17.87-20.43-17.68-9.06.23-15.05 5.29-18.94 9.29 10.44.38 16.82 3.36 19.9 11.12-6.42-.37-14.44-2.33-17.24-3.08 1.58 8.58 8.28 14.92 11.94 21.05-6.27 2.42-10.93 6.47-14.71 9.44 3.3 2.24 4.75 2.96 8.3 4.43-4 3.78-6.62 6.85-9.36 11.43 3.26 1.78 5.38 2.38 9.04 3.16-3.3 3.15-4.94 6.58-6.53 10.01 4.1.71 8.74 1.16 12.85.71-2.39 4.12-3.67 8.24-4.46 12.36 3.59.27 7.89.62 11.48.16-.38 3.07-.64 6.13-.16 9.2z" style="fill-rule:evenodd;fill:#000"/>
</svg>
