<svg xmlns="http://www.w3.org/2000/svg" xml:space="preserve" viewBox="30.5 31.5 400 500" height="500" width="400">
    <path d="M230.45 531.13c-74.32-53.92-125.26-122.02-155.74-208.16-27.64-78.1-38.73-172.75-33.91-289.35l.02-.46h379.82l.02.46c4.81 116.6-6.28 211.24-33.91 289.35-30.48 86.14-81.42 154.24-155.74 208.16l-.28.2-.28-.2z" style="fill:#08f;fill-opacity:1"/>
    <path d="M133.72 51.482v4.82c-7.134 1.639-6.942 11.086 0 13.304l-1.35 76.833c-16.967 2.024-26.704 14.171-28.246 27.475-.868 7.712.578 16.581 3.181 22.558 2.7 6.17-1.639 6.073-2.314 8.773-.482 1.831 1.06 1.928 2.121 1.542 7.23-2.603 8.387 9.062 8.484 15.232.193 17.256-8.29 25.74-12.822 21.69-1.446-1.35-3.374 0-2.796 2.892.193.964 2.507 2.507 1.543 5.881-3.663 13.4-6.652 17.256-6.17 28.632.482 11.568 4.82 20.92 14.846 29.981 6.46 5.784 17.256 7.423 29.403 7.423 12.147 0 22.944-1.639 29.403-7.423 10.026-9.062 14.364-18.413 14.846-29.981.482-11.376-2.41-15.136-6.17-28.632-.964-3.374 1.35-4.917 1.543-5.88.578-2.893-1.254-4.242-2.796-2.893-4.531 4.05-13.014-4.338-12.822-21.69.097-6.267 1.157-17.835 8.484-15.232 1.157.386 2.603.29 2.12-1.542-.674-2.7-5.012-2.603-2.313-8.773 2.603-5.977 4.049-14.846 3.181-22.558-1.542-13.304-11.279-25.354-28.246-27.475l-1.35-76.833c6.942-2.218 7.134-11.665 0-13.304v-4.82h-11.76z" style="fill:#a00;fill-opacity:1;stroke:none"/>
    <path d="M315.42 51.482v4.82c-7.134 1.639-6.942 11.086 0 13.304l-1.35 76.833c-16.967 2.024-26.704 14.171-28.246 27.475-.868 7.712.578 16.581 3.181 22.558 2.7 6.17-1.639 6.073-2.314 8.773-.482 1.831 1.06 1.928 2.121 1.542 7.23-2.603 8.387 9.062 8.484 15.232.193 17.256-8.29 25.74-12.822 21.69-1.446-1.35-3.374 0-2.796 2.892.193.964 2.507 2.507 1.543 5.881-3.663 13.4-6.652 17.256-6.17 28.632.482 11.568 4.82 20.92 14.846 29.981 6.46 5.784 17.256 7.423 29.403 7.423 12.147 0 22.944-1.639 29.403-7.423 10.026-9.062 14.364-18.413 14.846-29.981.482-11.376-2.41-15.136-6.17-28.632-.964-3.374 1.35-4.917 1.543-5.88.578-2.893-1.254-4.242-2.796-2.893-4.531 4.05-13.014-4.338-12.822-21.69.097-6.267 1.157-17.835 8.484-15.232 1.157.386 2.603.29 2.12-1.542-.674-2.7-5.012-2.603-2.313-8.773 2.603-5.977 4.049-14.846 3.181-22.558-1.542-13.304-11.279-25.354-28.246-27.475l-1.253-76.737c6.941-2.217 7.134-11.665 0-13.303v-4.917h-11.858z" style="fill:red;fill-opacity:1;stroke:none"/>
    <path d="M419.96 33.21c9.07 219.45-36.25 385.95-189.45 497.1C146.04 469.02 94.36 390.9 66.52 296.34a557.24 557.24 0 0 1-5.87-21.54c-11.45-45.69-17.77-95.02-19.88-147.94-1.2-30.06-1.05-61.28.29-93.65h378.9m.92-.95H40.14l-.04.92c-4.82 116.66 6.28 211.36 33.93 289.52 30.51 86.24 81.51 154.41 155.91 208.39l.56.41.56-.41c74.4-53.98 125.4-122.15 155.91-208.39 27.65-78.16 38.75-172.86 33.93-289.52l-.04-.92z"/>
    <path d="m227.51 217.224-7.943-.003c-.555 1.6-2.273 2.549-3.83 2.153-1.625-.41-2.537-1.858-2.6-2.975-.102-1.709 1.235-3.716 3.448-3.57.962.064 2.393.802 2.915 1.968l7.913-.046M227.51 229.9l-7.943-.002c-.555 1.6-2.273 2.55-3.83 2.153-1.625-.41-2.537-1.857-2.6-2.975-.102-1.708 1.235-3.716 3.448-3.57.962.064 2.393.802 2.915 1.968l7.913-.046M227.51 242.578l-7.943-.003c-.555 1.6-2.273 2.55-3.83 2.154-1.625-.41-2.537-1.858-2.6-2.975-.102-1.71 1.235-3.717 3.448-3.57.962.063 2.393.801 2.915 1.968l7.913-.046" style="fill:#ffe000;fill-opacity:1;fill-rule:evenodd;stroke:#000;stroke-width:1.05643237;stroke-miterlimit:4;stroke-dasharray:none"/>
    <path style="fill:#ffe000;fill-opacity:1;fill-rule:evenodd;stroke:#000;stroke-width:1.0564326;stroke-miterlimit:4;stroke-dasharray:none" d="m232.935 259.111 7.944-.003c.555 1.6 2.272 2.55 3.83 2.154 1.625-.41 2.536-1.858 2.6-2.975.101-1.709-1.235-3.716-3.449-3.57-.961.063-2.392.802-2.914 1.968l-7.913-.046M232.935 246.434l7.944-.003c.555 1.6 2.272 2.55 3.83 2.154 1.625-.41 2.536-1.858 2.6-2.975.101-1.71-1.235-3.716-3.449-3.57-.961.063-2.392.802-2.914 1.968l-7.913-.046M232.935 233.757l7.944-.003c.555 1.6 2.272 2.55 3.83 2.154 1.625-.41 2.536-1.858 2.6-2.975.101-1.71-1.235-3.717-3.449-3.57-.961.063-2.392.801-2.914 1.967l-7.913-.045M232.935 221.08l7.944-.003c.555 1.6 2.272 2.549 3.83 2.153 1.625-.41 2.536-1.857 2.6-2.975.101-1.708-1.235-3.716-3.449-3.57-.961.064-2.392.802-2.914 1.968l-7.913-.046"/>
    <path style="fill:#ffe000;fill-opacity:1;fill-rule:evenodd;stroke:#000;stroke-width:1.05643237;stroke-miterlimit:4;stroke-dasharray:none" d="m227.51 255.255-7.943-.003c-.555 1.6-2.273 2.55-3.83 2.154-1.625-.41-2.537-1.858-2.6-2.975-.102-1.709 1.235-3.716 3.448-3.57.962.063 2.393.802 2.915 1.968l7.913-.046"/>
    <path d="M224.62 195.482v4.82c-7.134 1.639-6.942 11.087 0 13.304l-1.35 76.833c-16.967 2.024-26.704 14.171-28.246 27.475-.868 7.712.578 16.581 3.181 22.558 2.7 6.17-1.639 6.073-2.314 8.773-.482 1.831 1.06 1.928 2.121 1.542 7.23-2.603 8.387 9.062 8.484 15.232.192 17.256-8.291 25.74-12.822 21.69-1.446-1.35-3.374 0-2.796 2.892.193.964 2.507 2.507 1.543 5.881-3.663 13.4-6.652 17.256-6.17 28.632.482 11.568 4.82 20.92 14.846 29.981 6.46 5.784 17.256 7.423 29.403 7.423 12.147 0 22.944-1.639 29.403-7.423 10.026-9.062 14.364-18.413 14.846-29.981.482-11.376-2.41-15.136-6.17-28.632-.964-3.374 1.35-4.917 1.543-5.88.578-2.893-1.254-4.242-2.796-2.893-4.531 4.05-13.014-4.338-12.822-21.69.097-6.267 1.157-17.835 8.484-15.232 1.157.386 2.603.29 2.12-1.542-.674-2.7-5.012-2.603-2.313-8.773 2.603-5.977 4.049-14.846 3.181-22.558-1.542-13.304-11.279-25.354-28.246-27.475l-1.35-76.833c6.942-2.217 7.134-11.665 0-13.304v-4.82h-11.857z" style="fill:#ffe000;fill-opacity:1;stroke:#000;stroke-width:.964;stroke-opacity:1;stroke-miterlimit:4;stroke-dasharray:none"/>
    <path d="M217.582 365.826c2.314 1.157-.868 2.024.193 4.049.771 1.542 3.856 1.639 3.663-1.64-.096-1.927-1.253-4.144-3.952-4.24-7.327-.29-7.423 10.796-7.905 19.28-.675 14.267-2.7 16.87-4.242 17.93-2.217 1.64-5.495-2.216-3.953-2.988.579-.385 1.446-1.06 1.157-2.603-.289-1.831-4.724-2.699-4.916 1.928-.097 2.603 2.217 5.11 5.591 5.399 3.567.29 6.459-3.567 7.52-8.676 1.06-4.724 1.253-7.809 1.446-11.665.482-8.098.867-10.99 1.156-13.014.482-3.375 2.7-4.531 4.05-3.857zM243.418 365.826c-2.314 1.157.868 2.024-.193 4.049-.771 1.542-3.856 1.639-3.663-1.64.096-1.927 1.253-4.144 3.952-4.24 7.327-.29 7.423 10.796 7.905 19.28.675 14.267 2.7 16.87 4.242 17.93 2.217 1.64 5.495-2.216 3.953-2.988-.579-.385-1.446-1.06-1.157-2.603.289-1.831 4.724-2.699 4.916 1.928.097 2.603-2.217 5.11-5.591 5.399-3.567.29-6.459-3.567-7.52-8.676-1.06-4.724-1.253-7.809-1.445-11.665-.482-8.098-.868-10.99-1.157-13.014-.482-3.375-2.7-4.531-4.05-3.857z" style="fill:#08f;fill-opacity:1;stroke:#000;stroke-width:.96402889;stroke-opacity:1"/>
    <path style="fill:#ffe000;fill-opacity:1;fill-rule:evenodd;stroke:#000;stroke-width:1.05643249;stroke-miterlimit:4;stroke-dasharray:none" d="m136.61 73.224-7.943-.004c-.555 1.601-2.273 2.55-3.83 2.154-1.625-.41-2.537-1.858-2.6-2.975-.102-1.709 1.235-3.716 3.448-3.57.962.063 2.393.802 2.915 1.968l7.913-.046M136.61 85.9l-7.943-.002c-.555 1.6-2.273 2.549-3.83 2.153-1.625-.41-2.537-1.858-2.6-2.975-.102-1.709 1.235-3.716 3.448-3.57.962.064 2.393.802 2.915 1.968l7.913-.046M136.61 98.578l-7.943-.003c-.555 1.6-2.273 2.55-3.83 2.153-1.625-.41-2.537-1.857-2.6-2.975-.102-1.708 1.235-3.716 3.448-3.57.962.064 2.393.802 2.915 1.968l7.913-.046M142.035 115.111l7.944-.003c.555 1.6 2.272 2.55 3.83 2.154 1.625-.41 2.536-1.858 2.6-2.975.101-1.709-1.235-3.716-3.449-3.57-.961.063-2.392.802-2.914 1.968l-7.913-.046M142.035 102.434l7.944-.003c.555 1.6 2.272 2.55 3.83 2.154 1.625-.41 2.536-1.858 2.6-2.975.101-1.71-1.235-3.716-3.449-3.57-.961.063-2.392.802-2.914 1.968l-7.913-.046M142.035 89.757l7.944-.003c.555 1.6 2.272 2.549 3.83 2.153 1.625-.41 2.536-1.857 2.6-2.975.101-1.709-1.235-3.716-3.449-3.57-.961.064-2.392.802-2.914 1.968l-7.913-.046M142.035 77.08l7.944-.003c.555 1.6 2.272 2.549 3.83 2.153 1.625-.41 2.536-1.858 2.6-2.975.101-1.709-1.235-3.716-3.449-3.57-.961.063-2.392.802-2.914 1.968l-7.913-.046M136.61 111.255l-7.943-.003c-.555 1.6-2.273 2.55-3.83 2.154-1.625-.41-2.537-1.858-2.6-2.975-.102-1.709 1.235-3.716 3.448-3.57.962.063 2.393.802 2.915 1.968l7.913-.046"/>
    <path style="fill:#ffe000;fill-opacity:1;stroke:#000;stroke-width:.96402889;stroke-opacity:1" d="M133.72 51.482v4.82c-7.134 1.639-6.942 11.086 0 13.304l-1.35 76.833c-16.967 2.024-26.704 14.171-28.246 27.475-.868 7.712.578 16.581 3.181 22.558 2.7 6.17-1.639 6.073-2.314 8.773-.482 1.831 1.06 1.928 2.121 1.542 7.23-2.603 8.387 9.062 8.484 15.232.193 17.256-8.29 25.74-12.822 21.69-1.446-1.35-3.374 0-2.796 2.892.193.964 2.507 2.507 1.543 5.881-3.663 13.4-6.652 17.256-6.17 28.632.482 11.568 4.82 20.92 14.846 29.981 6.46 5.784 17.256 7.423 29.403 7.423 12.147 0 22.944-1.639 29.403-7.423 10.026-9.062 14.364-18.413 14.846-29.981.482-11.376-2.41-15.136-6.17-28.632-.964-3.374 1.35-4.917 1.543-5.88.578-2.893-1.254-4.242-2.796-2.893-4.531 4.05-13.014-4.338-12.822-21.69.097-6.267 1.157-17.835 8.484-15.232 1.157.386 2.603.29 2.12-1.542-.674-2.7-5.012-2.603-2.313-8.773 2.603-5.977 4.049-14.846 3.181-22.558-1.542-13.304-11.279-25.354-28.246-27.475l-1.35-76.833c6.942-2.218 7.134-11.665 0-13.304v-4.82h-11.857z"/>
    <path style="fill:#08f;fill-opacity:1;stroke:#000;stroke-width:.96402889;stroke-opacity:1" d="M126.682 221.826c2.314 1.157-.868 2.024.193 4.049.771 1.542 3.856 1.639 3.663-1.64-.096-1.927-1.253-4.144-3.952-4.24-7.327-.29-7.423 10.796-7.905 19.28-.675 14.267-2.7 16.87-4.242 17.93-2.217 1.64-5.495-2.216-3.953-2.988.579-.385 1.446-1.06 1.157-2.603-.289-1.831-4.724-2.699-4.916 1.928-.097 2.603 2.217 5.11 5.591 5.399 3.567.29 6.459-3.567 7.52-8.676 1.06-4.724 1.253-7.809 1.446-11.665.481-8.098.867-10.99 1.156-13.014.482-3.374 2.7-4.531 4.05-3.856zM152.518 221.826c-2.314 1.157.868 2.024-.193 4.049-.771 1.542-3.856 1.639-3.663-1.64.096-1.927 1.253-4.144 3.952-4.24 7.327-.29 7.423 10.796 7.905 19.28.675 14.267 2.7 16.87 4.242 17.93 2.217 1.64 5.495-2.216 3.953-2.988-.579-.385-1.446-1.06-1.157-2.603.289-1.831 4.724-2.699 4.916 1.928.097 2.603-2.217 5.11-5.591 5.399-3.567.29-6.459-3.567-7.52-8.676-1.06-4.724-1.253-7.809-1.445-11.665-.482-8.098-.868-10.99-1.157-13.014-.482-3.374-2.7-4.531-4.05-3.856z"/>
    <path d="m318.31 73.224-7.943-.004c-.555 1.601-2.273 2.55-3.83 2.154-1.625-.41-2.537-1.858-2.6-2.975-.102-1.709 1.235-3.716 3.448-3.57.962.063 2.393.802 2.915 1.968l7.913-.046M318.31 85.9l-7.943-.002c-.555 1.6-2.273 2.549-3.83 2.153-1.625-.41-2.537-1.858-2.6-2.975-.102-1.709 1.235-3.716 3.448-3.57.962.063 2.393.802 2.915 1.968l7.913-.046M318.31 98.578l-7.943-.003c-.555 1.6-2.273 2.55-3.83 2.153-1.625-.41-2.537-1.857-2.6-2.975-.102-1.708 1.235-3.716 3.448-3.57.962.064 2.393.802 2.915 1.968l7.913-.046" style="fill:#ffe000;fill-opacity:1;fill-rule:evenodd;stroke:#000;stroke-width:1.05643237;stroke-miterlimit:4;stroke-dasharray:none"/>
    <path style="fill:#ffe000;fill-opacity:1;fill-rule:evenodd;stroke:#000;stroke-width:1.05643249;stroke-miterlimit:4;stroke-dasharray:none" d="m323.735 115.111 7.944-.003c.555 1.6 2.272 2.55 3.83 2.154 1.625-.41 2.536-1.858 2.6-2.975.101-1.709-1.235-3.716-3.449-3.57-.961.063-2.392.802-2.914 1.968l-7.913-.046M323.735 102.434l7.944-.003c.555 1.6 2.272 2.55 3.83 2.154 1.625-.41 2.536-1.858 2.6-2.975.101-1.71-1.235-3.716-3.449-3.57-.961.063-2.392.802-2.914 1.968l-7.913-.046M323.735 89.757l7.944-.003c.555 1.6 2.272 2.549 3.83 2.153 1.625-.41 2.536-1.857 2.6-2.975.101-1.709-1.235-3.716-3.449-3.57-.961.064-2.392.802-2.914 1.968l-7.913-.046M323.735 77.08l7.944-.003c.555 1.6 2.272 2.549 3.83 2.153 1.625-.41 2.536-1.858 2.6-2.975.101-1.709-1.235-3.716-3.449-3.57-.961.063-2.392.802-2.914 1.968l-7.913-.046"/>
    <path style="fill:#ffe000;fill-opacity:1;fill-rule:evenodd;stroke:#000;stroke-width:1.05643237;stroke-miterlimit:4;stroke-dasharray:none" d="m318.31 111.255-7.943-.003c-.555 1.6-2.273 2.55-3.83 2.154-1.625-.41-2.537-1.858-2.6-2.975-.102-1.709 1.235-3.716 3.448-3.57.962.063 2.393.802 2.915 1.968l7.913-.046"/>
    <path d="M315.42 51.482v4.82c-7.134 1.639-6.942 11.086 0 13.304l-1.35 76.833c-16.967 2.024-26.704 14.171-28.246 27.475-.868 7.712.578 16.581 3.181 22.558 2.7 6.17-1.639 6.073-2.314 8.773-.482 1.831 1.06 1.928 2.121 1.542 7.23-2.603 8.387 9.062 8.484 15.232.193 17.256-8.29 25.74-12.822 21.69-1.446-1.35-3.374 0-2.796 2.892.193.964 2.507 2.507 1.543 5.881-3.663 13.4-6.652 17.256-6.17 28.632.482 11.568 4.82 20.92 14.846 29.981 6.46 5.784 17.256 7.423 29.403 7.423 12.147 0 22.944-1.639 29.403-7.423 10.026-9.062 14.364-18.413 14.846-29.981.482-11.376-2.41-15.136-6.17-28.632-.964-3.374 1.35-4.917 1.543-5.88.578-2.893-1.254-4.242-2.796-2.893-4.531 4.05-13.014-4.338-12.822-21.69.097-6.267 1.157-17.835 8.484-15.232 1.157.386 2.603.29 2.12-1.542-.674-2.7-5.012-2.603-2.313-8.773 2.603-5.977 4.049-14.846 3.181-22.558-1.542-13.304-11.279-25.354-28.246-27.475l-1.35-76.833c6.942-2.218 7.134-11.665 0-13.304v-4.82h-11.857z" style="fill:#ffe000;fill-opacity:1;stroke:#000;stroke-width:.96402889;stroke-opacity:1"/>
    <path d="M308.382 221.826c2.314 1.157-.868 2.024.193 4.049.771 1.542 3.856 1.639 3.663-1.64-.096-1.927-1.253-4.144-3.952-4.24-7.327-.29-7.423 10.796-7.905 19.28-.675 14.267-2.7 16.87-4.242 17.93-2.217 1.64-5.495-2.216-3.953-2.988.579-.385 1.446-1.06 1.157-2.603-.289-1.831-4.724-2.699-4.916 1.928-.097 2.603 2.217 5.11 5.591 5.399 3.567.29 6.459-3.567 7.52-8.676 1.06-4.724 1.253-7.809 1.445-11.665.482-8.098.868-10.99 1.157-13.014.482-3.374 2.7-4.531 4.05-3.856zM334.218 221.826c-2.314 1.157.868 2.024-.193 4.049-.771 1.542-3.856 1.639-3.663-1.64.096-1.927 1.253-4.144 3.952-4.24 7.327-.29 7.423 10.796 7.905 19.28.675 14.267 2.7 16.87 4.242 17.93 2.217 1.64 5.495-2.216 3.953-2.988-.579-.385-1.446-1.06-1.157-2.603.29-1.831 4.724-2.699 4.916 1.928.097 2.603-2.217 5.11-5.59 5.399-3.568.29-6.46-3.567-7.52-8.676-1.06-4.724-1.254-7.809-1.446-11.665-.482-8.098-.868-10.99-1.157-13.014-.482-3.374-2.7-4.531-4.05-3.856z" style="fill:#08f;fill-opacity:1;stroke:#000;stroke-width:.96402889;stroke-opacity:1"/>
</svg>
