<svg xmlns="http://www.w3.org/2000/svg" width="440" height="500" version="1.0">
    <path d="M8.314 1.5 5 186.738c-1.782 99.589 21.247 127.498 39.556 160.564C59.309 373.947 129.623 463.562 220 499.21c90.377-35.648 160.69-125.263 175.444-151.908 18.31-33.066 41.338-60.975 39.556-160.564L431.686 1.5H220Z" style="fill:#e00e00;fill-opacity:1;fill-rule:evenodd;stroke:#000;stroke-width:1px;stroke-linecap:butt;stroke-linejoin:miter;stroke-opacity:1"/>
    <path d="M139.724 51.51c4.259 9.345 4.46 18.055 12.674 18.406 18.294.78 26.777 1.657 28.7-1.094 9.559-13.67 13.87-18.561 19.297-30.467 3.368-7.386 3.353-14.89.614-21.631-.686-1.69 4.886-1.811 5.917-.152 5.164 8.313 5.998 27.806 3.26 40.183-5.663 25.61-16.702 43.274-21.564 69.32-2.597 13.912-2.119 19.36 7.61 28.748 2.23 2.152 13.69 12.818 16.109 11.46 13.555-7.615 35.122-33.2 29.168-50.542-5.46-15.9-25.178-24.516-21.509-72.842 1.023-13.471.65-18.92 9.9-28.864 2.598-2.792 4.817.403 4.569 1.696-4.415 22.963 12.307 37.94 21.443 53.403 2.421 4.1 33.805 2.634 35.625-.58 4.864-8.586 7.135-12.236 12.638-20.501 4.896-7.356 6.77-16.678 8.348-25.319.917-5.02-.355-10.906 1.95-9.631 13.69 7.57 8.916 22.431 7.18 38.885-.794 7.522 1.423 12.7 2.158 18.24 1.07 8.075 26.238 3.115 34.434 3.48 7.557.336 11.43-14.54 27.443-24.846 11.41-7.344 16.822-12.583 22.722-30.24 1-2.99 4.954-4.705 5.065-.955.592 20.1-7.394 30.465-18.845 46.824-4.413 6.304-15.401 18.519-16.978 28.374-2.816 17.587-3.98 23.872 11.428 21.097 5.04-.908 12.08-2.735 16.723-5.462 5.065-2.974 12.56-2.45 4.625 6.667-8.485 9.749-20.298 19.185-29.403 20.462-5.616.788-1.293 14.867-1.749 21.539-1.195 17.477 6.928 18.653 19.099 17.185 7.218-.87 21.19-6.266 17.242-.343-9.668 14.508-24.916 18.774-41.495 19.767-25.555 1.53-52.064-5.599-72.774-20.702-16.725-12.197-47.563-19.246-55.392-15.94-4.856 2.05-20.196 13.133-18.202 15.398 2.294 2.606 18.126 12.764 23.225 10.464 12.014-5.42 27.593-7.1 42.755-2.244 13.473 4.315 50.198 27.533 16.461 24.287-17.847-2.24-33.284-8.69-49.371-14.018-8.341-2.763-9.728 4.872-4.428 8.76 20.554 5.208 38.91 13.227 54.6 24.245 31.23 21.93 59.344 50.252 80.049 71.566-11.675 21.12-120.535 134.155-162.017 175.984-15.7 15.83-16.087-30.079-16.062-43.885.057-30.284 1.192-62.68 1.852-93.325.345-15.978-2.328-31.53-.37-46.33 1.907-14.4-4.04-8.791-20.74-8.046-10.594.474-7.019-3.215-7.96 10.326-.684 9.854-9.845 8.879-10.276 3.03-8.035 8.693-18.685 4.717-15.895-1.606-8.129 4.715-15.222 3.123-14.76 1.615.575-1.884 6.155-4.507 10.003-9.322 10.333-12.927-3.47-14.68-14.528-14.328-10.163.323-12.307 3.126-32.798 11.21-10.037 4.098-13.134 14.134-18.867 24.108-1.408 2.451-18.346 4.18-16.863.21 3.25-8.706 5.804-11.507 4.26-14.805-.909-1.943-3.745-1.303-7.573 6.797-1.957 4.14-2.847 9.117-6.616 9.895-13.18 2.72-24.351.67-26.593-10.667-1.916-9.69-5.926-15.715 1.21-32.951.531-1.283-1.68-7.675 2.588-16.51 5.218-10.803 19.432-23.68 25.552-25.202 19.636-7.565 47.472-12.69 64.314-26.078 16.819-7.965-1.53-18.527 36.668-22.296 13.874-1.369 41.85 4.182 19.335-11.408-21.323-14.766-45.82-4.272-64.03 8.373-14.764 10.253-29.678 26.493-49.003 27.326-8.82.38-19.14-1.595-28.5-4.958-7.34-2.637-25.017-12.853-15.844-13.845 21.07-2.28 31.729-4.7 45.695-38.224 6.176-14.824-10.876-4.502-40-30.096-8.406-7.387-16.746-23.236 1.533-12.474 17.254 10.16 33.146 6.852 36.972 4.87 5.594-2.898-3.644-16.626-3-22.926.573-5.605-12.772-11.51-29.411-28.605-4.307-4.426-18.498-29.377-12.064-32.871 2.488-1.351 29.292 19.937 42.787 31.616 7.05 6.101 20.053 13.285 27.57 14.246 11.455 1.463 15.117 1.844 23.34.175-7.052-24.564-1.042-35.14 8.696-49.082 1.897-2.717 5.532 1.74 5.532 1.74-1.602 8.803 1.753 28.115 4.542 34.235z" style="font-style:normal;font-variant:normal;font-weight:400;font-stretch:normal;letter-spacing:normal;word-spacing:normal;text-anchor:start;fill:#ffe000;fill-opacity:1;fill-rule:nonzero;stroke:#000;stroke-width:1;stroke-linecap:round;stroke-linejoin:round;stroke-miterlimit:10.43299961;stroke-dasharray:none;stroke-dashoffset:0;stroke-opacity:1"/>
    <circle r="3.744" cy="198.882" cx="145.461" style="opacity:1;fill:#000;fill-opacity:1;fill-rule:evenodd;stroke:#000;stroke-width:.95079011;stroke-linecap:round;stroke-linejoin:round;stroke-miterlimit:10.43299961;stroke-dasharray:none;stroke-opacity:1"/>
    <path d="M141.717 198.882c2.558-8.296 11.482-.635 16.823-2.522" style="fill:none;fill-rule:evenodd;stroke:#000;stroke-width:1px;stroke-linecap:round;stroke-linejoin:round;stroke-opacity:1"/>
</svg>
