<svg xmlns="http://www.w3.org/2000/svg" width="400" height="500" viewBox="30.5 31.5 400 500" xml:space="preserve">
    <path style="fill:#e00e00;fill-opacity:1" d="M230.67 530.86C156.35 476.94 105.41 408.84 74.93 322.7 47.29 244.6 36.2 149.95 41.02 33.35l.02-.46h379.82l.02.46c4.81 116.6-6.28 211.24-33.91 289.35-30.48 86.14-81.42 154.24-155.74 208.16l-.28.2-.28-.2z"/>
    <path d="M419.96 33.21c9.07 219.45-36.26 385.95-189.46 497.1C77.31 419.16 31.99 252.66 41.06 33.21h378.9m.92-.95H40.14l-.04.92c-4.82 116.66 6.28 211.36 33.93 289.52 30.51 86.24 81.51 154.41 155.91 208.39l.56.41.56-.41c74.4-53.98 125.4-122.15 155.91-208.39 27.65-78.16 38.75-172.86 33.93-289.52l-.04-.92z"/>
    <path d="M230.5 118.219c28.722-2.462 55.976 7.382 66.605 22.616" style="fill:#e00e00;fill-rule:evenodd;stroke:#9700ff;stroke-width:1px;stroke-linecap:butt;stroke-linejoin:miter;stroke-opacity:1;fill-opacity:1"/>
    <path d="m238.113 382.512-.415-26.928c6.087-.79 9.687-3.918 9.824-8.178.286-8.895-1.502-14.763-4.867-31.535h111.686c.232-11.353-2.524-19.008-7.055-24.168-2.84-3.233-11.11-6.61-15.93-11.68-13.285-13.975-17.207-30.898-20.312-45.462-4.514-21.17-4.848-76.705-11.796-90.016-6.872-13.166-24.694-21.96-40.095-24.681.557-4.148 1.535-11.04 1.846-15.328.829-11.431 1.219-14.27-6.206-17.245-6.803-2.725-13.417-4.061-24.293-4.061s-17.49 1.336-24.293 4.061c-7.425 2.975-7.035 5.814-6.206 17.245.311 4.288 1.29 11.18 1.846 15.328-15.4 2.721-33.223 11.515-40.095 24.681-6.948 13.311-7.282 68.846-11.796 90.016-3.105 14.564-7.027 31.487-20.312 45.462-4.82 5.07-13.09 8.447-15.93 11.68-4.531 5.16-7.287 12.815-7.055 24.168h111.686c-3.365 16.772-5.153 22.64-4.867 31.535.137 4.26 3.737 7.389 9.824 8.178l-.415 26.928h15.226z" style="fill:#ffe000;fill-rule:evenodd;stroke:#000;stroke-width:1px;stroke-linecap:butt;stroke-linejoin:round;stroke-opacity:1;fill-opacity:1"/>
    <path d="M249.624 118.112c.603-4.093 1.113-8.107.984-12.727-.2-7.181-2.095-12.131-10.362-12.476-7.139-.298-5.822 3.369-5.822 10.63v14.225zM211.376 118.112c-.603-4.093-1.113-8.107-.984-12.727.2-7.181 2.095-12.131 10.362-12.476 7.139-.298 5.822 3.369 5.822 10.63v14.225z" style="fill:#e00e00;fill-opacity:1;fill-rule:evenodd;stroke:#000;stroke-width:1px;stroke-linecap:butt;stroke-linejoin:round;stroke-opacity:1"/>
</svg>
