<svg xmlns="http://www.w3.org/2000/svg" xml:space="preserve" viewBox="30.5 31.5 400 500" height="500" width="400">
    <path d="M230.56 531.14c74.32-53.92 125.26-122.02 155.74-208.16 27.64-78.1 38.73-172.75 33.91-289.35l-.02-.46H40.37l-.02.46c-4.81 116.6 6.28 211.24 33.91 289.35 30.48 86.14 81.42 154.24 155.74 208.16l.28.2.28-.2z" fill="#0085ca"/>
    <path d="m377.4 346.5-50.9-185-48 182-48-182-48 182-48-182-50.9 185c30.87 72.87 78.26 135.34 146.9 184.4 68.64-49.06 116.03-111.53 146.9-184.4z" style="fill-rule:evenodd;fill:#fff"/>
    <path d="M41.04 33.21C31.97 252.66 77.3 419.16 230.5 530.31c153.19-111.15 198.51-277.65 189.44-497.1H41.04m-.92-.95H420.86l.04.92c4.82 116.66-6.28 211.36-33.93 289.52-30.51 86.24-81.51 154.41-155.91 208.39l-.56.41-.56-.41c-74.4-53.98-125.4-122.15-155.91-208.39C46.38 244.54 35.28 149.84 40.1 33.18l.04-.92z"/>
    <path d="m377.4 346.5-50.9-185-48 182-48-182-48 182-48-182-50.9 185" style="fill:none;stroke:#000"/>
</svg>
