<svg xmlns="http://www.w3.org/2000/svg" width="400" height="500" viewBox="30.5 31.5 400 500" xml:space="preserve">
    <path fill="#32ac60" d="M230.44 531.14C156.12 477.22 105.18 409.12 74.7 322.98c-27.64-78.1-38.73-172.75-33.91-289.35l.02-.46h379.82l.02.46c4.81 116.6-6.28 211.24-33.91 289.35-30.48 86.14-81.42 154.24-155.74 208.16l-.28.2-.28-.2z"/>
    <path d="M419.96 33.21c9.07 219.45-36.26 385.95-189.46 497.1C77.31 419.16 31.99 252.66 41.06 33.21h378.9m.92-.95H40.14l-.04.92c-4.82 116.66 6.28 211.36 33.93 289.52 30.51 86.24 81.51 154.41 155.91 208.39l.56.41.56-.41c74.4-53.98 125.4-122.15 155.91-208.39 27.65-78.16 38.75-172.86 33.93-289.52l-.04-.92z"/>
    <path style="fill:#ffe000;stroke:#000;stroke-linejoin:round;stroke-miterlimit:4" d="M285.095 156.007c-8.42.38-15.245-3.927-15.245-3.927.17.11 4.95-2.96 4.95-2.96s-8.66.69-16.8-2.72l3.35-1.46c-5.6-1.96-10.17-5.08-13.72-8.73l4.16-.83c-4.84-1.95-8.82-6.47-12.81-10.96l4.14.03c-.62.37-8.4-11.88-7.52-12.85l3.17.42s-6.92-9.6-6.54-15.05l4.68 2.19c-2.69-4-3.55-9.04-4.27-13.76l3.8 1.63s-2.37-10.95-1.31-13.03l2.93 2.59s.95-12.84 1.71-14.93c2.41-.27 12.36 3.81 12.36 3.81l.57-3.6c5.18.27 14.4 9.91 13.73 10.16l-.15-4.34c3.51.71 10.97 10.53 10.97 10.53l.66-3.68c3.77 2.71 6.81 17.1 6.81 17.1l2.14-3.36c3.5 4.53 3.5 12.32 3.38 15.44l2.74-2.93c1.73 2 .84 15.86.84 15.86l3.22-3.54.09 13.84 4.38.05-.03-13.58 3.68 1.51c-2.71-4.05-3.31-10.12-2.84-14.27l3.83 3.31c.01-6.92 3.38-16.72 7.13-19.86l1.96 4.86s4.44-13.92 10.83-17.97c.01.16 1.28 6.39 1.28 6.39 3.66-5.93 11.83-12.67 18.1-14.97l-.76 6.06c3.9-4.38 14.48-8.62 19.6-10.33l-1.35 6.4c4.47-3.05 11.76-6.51 18.14-7.52l-.45 7.74s13.38-5.61 19.74-5.14c-.22 9.56-1.8 14.96-5.59 21.69.02 0 5.22-1.6 5.22-1.6-.33 5.24-3.16 14.98-5.37 18.36l4.3-.82c.34 5.02-4.96 14.22-8.09 16.11l5.37.45s-3.19 8.17-9.85 14.43l4.47.74c-.15 4.2-17.01 11.97-17.01 11.97l3.99 2.51c-9.45 3.5-15.66 3.38-20.29 3.14l1.57 4.45s-12.09.8-15.28-.52c.28 3.88.36 3.64.36 3.64l-13.17.14-.07 4 13.37.12-1.67 5.24c3.06.78 16.53 1.45 16.53 1.45-1.29 1.29-4.56 3.91-4.56 3.91 6.44 2.04 13.96 7.28 18.47 13.45.63.76-6.46 1.23-6.46 1.23 7.89 5.22 14.72 13.84 14.25 13.56l-5.06.83s9.71 10.51 9.3 17.19l-3.63-1.11s5.59 11.48 4.84 18.21c-5.55 2.06-17.36.56-17.36.56l1.81 2.34c-4.84 2.39-16.95-.04-16.95-.04l1.74 3.01c0 .96-14.39-1.13-17.92-4.68l.72 3.94c-6.86-2.3-9.9-5.69-12.64-7.28 0 0-.84 3.7-.57 3.24-5.37-.57-12.32-7.61-13.62-9.64l-2.71 3.21c-2.14-3.82-4.08-11.34-3.3-14.73l-3.72 4.05c-2.39-5.37-2.78-14.52-1.62-18.95l-4.15 3.12c-.37-3.81-.48-12.46 2.18-15.51l-3.95 2.39s-4.42-13.275-1.19-19.675c-19.08 11.16-34.09 40.705-44.76 79.795-6.51 23.83-7.27 53.03-8.24 79.77 8.63-77 29.73-96.92 51.95-96.45 18.67.4 29.91 20.18 31.22 35.68 7.28-19.54 18.69-18.26 27.07-14.87-5.24 3.37-9.69 5.1-11.86 9.8 10.07-.73 19.02 4.23 20.27 10.38-5.85-1.07-14.09-2.26-20.64.43 7.94 4.87 15.71 13.93 17 25.28 1.01 8.96-3.69 18.23-8.46 25.17-10.05 14.63-11.02 31.34-24.4 33.61-5.46.93-15.12.01-18.69-1.67-8.9-4.19-11.46-23.57-20.28-33.15-12.11-13.17-14.78-41 8.65-48.52-3.6-3.06-10.24-1.33-15.7.35 1.28-5.57 10.14-12.31 14.92-13.25-1.92-1.7-8.35-2.53-12.18-2.71 4.85-10.91 24.53-6.26 32.92 11.8-.61-14.21-7.83-28.16-20.28-27.9-20.11.43-39.95 34.88-42.98 131.18 9.23-11.43 21.81-17.74 30.11-31.49 10.92 24.38-1.77 39.42-14.42 53.21 22.32-4.41 31.28 9.71 44.66 6.2-8.57 18.02-30.72 25.47-49.31 19.31 8.77 8.53 13.39 21.95 9.61 30.77-8.26-8.62-17.39-13.42-27.05-14.87 10.09 21.2 1.7 31.81-11.68 44.58-13.37-12.77-21.77-23.38-11.68-44.58-9.66 1.44-18.79 6.24-27.05 14.87-3.78-8.82.84-22.24 9.61-30.77-18.59 6.17-40.74-1.29-49.31-19.31 13.38 3.51 22.34-10.61 44.66-6.2-12.65-13.79-25.34-28.83-14.42-53.21 8.3 13.76 20.87 20.07 30.11 31.49-3.03-96.29-22.87-130.75-42.98-131.18-12.45-.26-23.67 11.68-24.28 25.9 8.39-18.06 28.06-20.71 32.92-9.8-4.5-1.14-11.14.57-13.73 3.37 4.77.94 11.41 3.48 12.69 9.05-5.46-1.68-12.1-.76-15.7 2.3 22.73 3.23 20.04 33.53 10.65 48.52-6.91 11.04-8.95 24.77-17.85 28.96-3.57 1.68-13.25 2.75-18.69 1.67-9.19-1.83-17.44-15.45-27.49-30.08-4.77-6.94-7.05-16.65-6.04-25.61 1.29-11.34 8.62-18.86 16.56-23.73-6.55-2.7-12.81-1.73-18.66-.65 1.25-6.15 8.44-11.11 18.5-10.38-2.16-4.7-6.4-7.76-11.64-11.12 8.38-3.4 19.79-4.67 27.07 14.87 1.31-15.5 16.55-33.28 35.22-33.68 22.23-.48 41.32 19.45 49.95 96.45-.97-26.74-1.73-55.94-8.24-79.77-10.67-39.09-30.663-67.544-49.434-84.046 3.23 6.4 1.484 23.926 1.484 23.926l-3.95-2.39c2.67 3.05 2.55 11.7 2.18 15.51l-4.15-3.12c1.16 4.43.77 13.58-1.62 18.95l-3.72-4.05c.78 3.39-1.16 10.91-3.3 14.73l-2.71-3.21c-1.3 2.03-8.25 9.08-13.62 9.64.27.46-.57-3.24-.57-3.24-2.74 1.59-5.78 4.97-12.64 7.28l.72-3.94c-3.53 3.55-17.92 5.64-17.92 4.68l1.74-3.01s-12.11 2.43-16.95.04l1.81-2.34s-11.81 1.5-17.36-.56c-.76-6.72 4.84-18.21 4.84-18.21l-3.63 1.11c-.41-6.68 9.3-17.19 9.3-17.19l-5.06-.83c-.47.27 6.36-8.34 14.25-13.56 0 0-7.09-.46-6.46-1.23 4.52-6.16 12.04-11.4 18.47-13.45 0 0-3.28-2.62-4.56-3.91 0 0 13.47-.67 16.53-1.45l-1.67-5.24 13.37-.12-.07-4-13.17-.14s.08.24.36-3.64c-3.19 1.32-15.28.52-15.28.52l1.57-4.45c-4.63.24-10.84.36-20.29-3.14l3.99-2.51s-16.86-7.77-17.01-11.97l4.47-.74c-6.66-6.26-9.85-14.43-9.85-14.43l5.37-.45c-3.1-1.89-8.4-11.09-8.06-16.11l4.3.82c-2.21-3.38-5.04-13.12-5.37-18.36 0 0 5.19 1.6 5.22 1.6-3.78-6.72-5.37-12.13-5.59-21.69 6.35-.47 19.74 5.14 19.74 5.14l-.45-7.74c6.38 1.02 13.67 4.47 18.14 7.52l-1.35-6.4c5.12 1.71 15.7 5.94 19.6 10.33l-.76-6.06c6.27 2.29 14.44 9.04 18.1 14.97 0 0 1.26-6.24 1.28-6.39 6.38 4.04 10.83 17.97 10.83 17.97l1.96-4.86c3.75 3.13 7.11 12.94 7.13 19.86l3.83-3.31c.46 4.16-.13 10.23-2.84 14.27l3.68-1.51-.03 13.58 4.38-.05.09-13.84 3.22 3.54s-.88-13.86.84-15.86l2.74 2.93c-.12-3.12-.12-10.91 3.38-15.44l2.14 3.36s3.03-14.39 6.81-17.1l.66 3.68s7.46-9.82 10.97-10.53l-.15 4.34c-.67-.25 8.54-9.89 13.73-10.16l.57 3.6s9.95-4.08 12.36-3.81c.75 2.1 1.71 14.93 1.71 14.93l2.93-2.59c1.06 2.08-1.31 13.03-1.31 13.03l3.8-1.63c-.72 4.73-1.59 9.76-4.27 13.76l4.68-2.19c.38 5.45-6.54 15.05-6.54 15.05l3.17-.42c.88.97-6.89 13.22-7.52 12.85l4.14-.03c-3.99 4.49-7.98 9.01-12.81 10.96l4.16.83c-3.55 3.65-8.12 6.77-13.72 8.73l3.35 1.46c-8.13 3.41-16.8 2.72-16.8 2.72s4.78 3.08 4.95 2.96c0 0-7.47 2.78-15.9 2.4 28.386 28.426 44.33 61.434 51.408 94.585 3.732 17.48 4.432 34.695 7.842 69.155 3.41-34.46 1.712-48.839 8.198-75.032 6.222-25.13 18.31-59.32 46.377-87.2z"/>
    <path style="fill:none;stroke-linecap:round;stroke:#000" d="m218.94 327.33 2.44 34.96M230.5 318.22v31.75M240.06 327.33l-2.44 34.96"/>
</svg>
