<svg xmlns="http://www.w3.org/2000/svg" xml:space="preserve" viewBox="30.5 31.5 400 500" height="500" width="400">
    <path d="M230.44 531.14C156.12 477.22 105.18 409.12 74.7 322.98c-27.64-78.1-38.73-172.75-33.91-289.35l.02-.46h379.82l.02.46c4.81 116.6-6.28 211.24-33.91 289.35-30.48 86.14-81.42 154.24-155.74 208.16l-.28.2-.28-.2z" style="fill:#0085ca;fill-opacity:1;stroke-linecap:round;stroke-linejoin:round"/>
    <path d="M419.96 33.21c9.07 219.45-36.26 385.95-189.46 497.1C77.31 419.16 31.99 252.66 41.06 33.21h378.9m.92-.95H40.14l-.04.92c-4.82 116.66 6.28 211.36 33.93 289.52 30.51 86.24 81.51 154.41 155.91 208.39l.56.41.56-.41c74.4-53.98 125.4-122.15 155.91-208.39 27.65-78.16 38.75-172.86 33.93-289.52l-.04-.92z" style="stroke-linecap:round;stroke-linejoin:round"/>
    <path style="fill:#ffe000;fill-opacity:1;stroke:#000;stroke-width:1.02100003;stroke-linecap:round;stroke-linejoin:round;stroke-miterlimit:4;stroke-dasharray:none;stroke-opacity:1" d="M230.5 424.424c-6.303.282-9.395-9.11-5.812-14.255 2.164-3.107 1.9-11.991-2.841-5.77-4.668 6.126-7.372-1.085-4.363-5.19 2.668-3.641-.05-12.451-4.811-5.964-4.139 5.641 1.027 18.403-3.579 24.225-4.235 5.354-11.92.914-8.544-5.202 4.603-8.342-2.156-13.475-3.85-3.59-1.791 10.464-12.953 5.447-6.33-3.435 6.132-8.224-2.672-6.784-4.457-2.828-8.362 18.543-18.55-3.68-5.826-5.832 4.223-.714 4.849-4.898-.958-4.485-7.814.556-2.858-8.448 4.238-6.324 3.026.905 6.482 2.96 8.819 2.411 2.903-.68 4.943-4.435-2.366-5.87-8.285-1.629-1.286-7.364 3.756-7.49 10.694-.267 1.967-10.24-4.926-4.792-9.023 7.132-18.842 6.692-23.33 1.31-11.604-1.233-8.327-10.768-1.83-12.616-1.058-10.11 8.294-4.242 13.294-5.546 9.193-2.397 1.736-10.775-6.331-9.635-8 1.13-11.452 6.726-21.593 6.86-5.908.077-10.442-1.772-8.64-5.087.936-1.723-3.974-1.662-4.447-4.538-1.19-7.241 4.934-3.91 6.682-6.521.94-1.405-1.693-3.475 2.66-6.152 1.095-.673 3.359.312 9.756 1.445 6.18 1.095 5.541-4.896.521-6.424-10.52-3.201-19.382 1.18-25.371-1.298-11.475-4.75-7.149-8.976-12.634-15.144-1.578-1.773 2.61-6.015 6.697-3.258 1.508 1.017.821-3.11 2.744-4.047 2.757-1.346 7.98 1.648 10.166 3.774 5.663 5.505 7.248-1.337 4.611-3.459-7.54-6.065-17.906-8.694-10.403-17.962 2.36-2.915-2.46-3.902-1.376-8.075.414-1.595 3.162-2.562 5.528-2.282 3.235.382.645-9.736 6.905-9.961 4.433.234 2.747 6.777 11.189 11.987 2.906 1.793-2.328 11.61.47 19.497 1.553 4.379 5.29 1.833 5.843-.618l.69-3.058c.572-2.539 4.291-1.205 6.662-1.932 1.789-.547 1.686-3.92 4.177-4.45 4.747-1.012 4.058 5.569 7.967 9.23 2.916 2.73-2.3 13.877-1.119 23.482.901 7.33 7.067 5.366 6.728 2.626-.525-4.238-.146-8.936 1.776-8.155 4.732 1.923 2.862-6.067 6.618-5.912 3.17.13 3.078 6.254 5.18 6.457 3.936.38 7.296 2.45 6.978 4.794-1.668 12.296.222 29.047 4.117 34.134 4.458 5.821 7.341 6.212 7.474-.241 1.43-69.668-15.863-109.819-30.103-135.403-19.87 7.537-28.244-3.055-28.28-22.78-.014-7.171-4.51-5.585-4.45-.074.141 13.264-1.558 24.29-11.871 28.52-14.607 5.992-61.287-21.821-57.688-49.447 1.48-11.37 16.358-13.913 25.887-16.068 2.602-.588 3.98-3.653-.947-3.419-7.77.37-19.321 2.885-24.573-.83-19.95-14.114 12.284-75.375 45.993-70.77 8.811 1.205 12.313 13.911 13.076 26.88.426 7.247 4.344 6.83 4.537-.195.333-12.174 2.555-29.685 15.144-30.636 29.805-2.252 58.766 39.792 48.594 56.22-4.934 7.967-10.245 8.581-20.894 9.342-6.3.45-7.228 3.76.7 4.123 9.66.443 13.854-.63 22.023 6.2 11.017 9.209 8.343 33.476-14.572 54.614 17.87 33.379 29.822 76.971 30.915 120.852 1.093-43.88 13.046-87.473 30.915-120.852-22.915-21.138-25.59-45.405-14.572-54.614 8.17-6.83 12.364-5.757 22.023-6.2 7.928-.363 7-3.673.7-4.123-10.649-.76-15.96-1.375-20.894-9.343-10.172-16.427 18.79-58.471 48.594-56.219 12.589.951 14.81 18.462 15.144 30.636.193 7.025 4.111 7.442 4.537.195.763-12.969 4.265-25.675 13.076-26.88 33.709-4.605 65.942 56.656 45.993 70.77-5.252 3.715-16.803 1.2-24.573.83-4.927-.234-3.549 2.831-.947 3.42 9.529 2.154 24.406 4.697 25.887 16.067 3.599 27.626-43.081 55.439-57.688 49.447-10.313-4.23-12.012-15.256-11.87-28.52.059-5.511-4.437-7.097-4.45.074-.037 19.725-8.412 30.317-28.28 22.78-14.24 25.584-31.534 65.735-30.104 135.403.133 6.453 3.016 6.062 7.474.24 3.895-5.086 5.785-21.837 4.117-34.133-.318-2.343 3.042-4.415 6.979-4.794 2.1-.203 2.009-6.326 5.179-6.457 3.756-.155 1.886 7.835 6.618 5.912 1.922-.78 2.301 3.917 1.776 8.155-.339 2.74 5.827 4.705 6.728-2.626 1.18-9.605-4.034-20.752-1.12-23.482 3.91-3.661 3.221-10.242 7.968-9.23 2.491.53 2.388 3.903 4.177 4.45 2.37.727 6.09-.607 6.662 1.932l.69 3.058c.552 2.451 4.29 4.997 5.843.618 2.798-7.887-2.436-17.704.47-19.497 8.442-5.21 6.756-11.753 11.189-11.987 6.26.225 3.67 10.343 6.905 9.96 2.366-.28 5.114.688 5.528 2.283 1.084 4.173-3.736 5.16-1.376 8.075 7.503 9.268-2.863 11.897-10.403 17.962-2.637 2.122-1.052 8.964 4.611 3.459 2.187-2.126 7.41-5.12 10.166-3.774 1.923.938 1.236 5.064 2.744 4.047 4.088-2.757 8.275 1.485 6.697 3.258-5.485 6.168-1.16 10.394-12.634 15.144-5.989 2.479-14.851-1.903-25.371 1.298-5.02 1.528-5.66 7.52.521 6.424 6.397-1.133 8.66-2.118 9.755-1.445 4.354 2.677 1.72 4.747 2.661 6.152 1.748 2.61 7.873-.72 6.682 6.52-.473 2.877-5.383 2.816-4.446 4.54 1.801 3.314-2.733 5.163-8.641 5.085-10.14-.133-13.593-5.728-21.593-6.859-8.067-1.14-15.524 7.238-6.33 9.635 4.999 1.304 14.35-4.564 13.293 5.546 6.497 1.848 9.774 11.383-1.83 12.616-4.488 5.382-14.307 5.822-23.33-1.31-6.893-5.449-15.62 4.525-4.926 4.792 5.042.126 12.04 5.861 3.756 7.49-7.31 1.435-5.27 5.19-2.366 5.87 2.337.549 5.793-1.506 8.819-2.411 7.096-2.124 12.052 6.88 4.238 6.324-5.807-.413-5.18 3.771-.958 4.485 12.725 2.152 2.536 24.375-5.826 5.832-1.785-3.956-10.59-5.396-4.457 2.828 6.623 8.882-4.539 13.9-6.33 3.435-1.694-9.885-8.453-4.752-3.85 3.59 3.375 6.116-4.309 10.556-8.544 5.202-4.606-5.822.56-18.584-3.579-24.225-4.76-6.487-7.479 2.323-4.811 5.963 3.009 4.107.305 11.317-4.363 5.19-4.74-6.22-5.005 2.664-2.841 5.771 3.583 5.146.491 14.537-5.812 14.255"/>
    <path d="M199.585 205.535c-3.32 3.082-7.487 6.339-12.68 8.32" style="fill:none;fill-rule:evenodd;stroke:#000;stroke-width:1px;stroke-linecap:butt;stroke-linejoin:miter;stroke-opacity:1"/>
    <circle r="11.113" cy="146.425" cx="148.207" style="opacity:1;fill:#0085ca;fill-opacity:1;stroke:#000;stroke-width:.96399999;stroke-linecap:round;stroke-linejoin:round;stroke-miterlimit:4;stroke-dasharray:none;stroke-opacity:1"/>
    <circle r="3.595" cy="124.891" cx="145.444" style="opacity:1;fill:#0085ca;fill-opacity:1;stroke:#000;stroke-width:.96399999;stroke-linecap:round;stroke-linejoin:round;stroke-miterlimit:4;stroke-dasharray:none;stroke-opacity:1"/>
    <circle style="opacity:1;fill:#0085ca;fill-opacity:1;stroke:#000;stroke-width:.96399999;stroke-linecap:round;stroke-linejoin:round;stroke-miterlimit:4;stroke-dasharray:none;stroke-opacity:1" cx="159.553" cy="127.872" r="3.595"/>
    <circle r="3.595" cy="139.857" cx="168.487" style="opacity:1;fill:#0085ca;fill-opacity:1;stroke:#000;stroke-width:.96399999;stroke-linecap:round;stroke-linejoin:round;stroke-miterlimit:4;stroke-dasharray:none;stroke-opacity:1"/>
    <circle style="opacity:1;fill:#0085ca;fill-opacity:1;stroke:#000;stroke-width:.96399999;stroke-linecap:round;stroke-linejoin:round;stroke-miterlimit:4;stroke-dasharray:none;stroke-opacity:1" cx="169.686" cy="153.04" r="3.595"/>
    <circle r="3.595" cy="163.063" cx="162.495" style="opacity:1;fill:#0085ca;fill-opacity:1;stroke:#000;stroke-width:.96399999;stroke-linecap:round;stroke-linejoin:round;stroke-miterlimit:4;stroke-dasharray:none;stroke-opacity:1"/>
    <circle style="opacity:1;fill:#0085ca;fill-opacity:1;stroke:#000;stroke-width:.96399999;stroke-linecap:round;stroke-linejoin:round;stroke-miterlimit:4;stroke-dasharray:none;stroke-opacity:1" cx="150.619" cy="167.53" r="3.595"/>
    <circle r="3.595" cy="165.678" cx="138.199" style="opacity:1;fill:#0085ca;fill-opacity:1;stroke:#000;stroke-width:.96399999;stroke-linecap:round;stroke-linejoin:round;stroke-miterlimit:4;stroke-dasharray:none;stroke-opacity:1"/>
    <circle style="opacity:1;fill:#0085ca;fill-opacity:1;stroke:#000;stroke-width:.96399999;stroke-linecap:round;stroke-linejoin:round;stroke-miterlimit:4;stroke-dasharray:none;stroke-opacity:1" cx="129.047" cy="157.398" r="3.595"/>
    <circle r="3.595" cy="143.016" cx="127.195" style="opacity:1;fill:#0085ca;fill-opacity:1;stroke:#000;stroke-width:.96399999;stroke-linecap:round;stroke-linejoin:round;stroke-miterlimit:4;stroke-dasharray:none;stroke-opacity:1"/>
    <circle style="opacity:1;fill:#0085ca;fill-opacity:1;stroke:#000;stroke-width:.96399999;stroke-linecap:round;stroke-linejoin:round;stroke-miterlimit:4;stroke-dasharray:none;stroke-opacity:1" cx="133.078" cy="130.923" r="3.595"/>
    <path style="fill:none;fill-rule:evenodd;stroke:#000;stroke-width:1px;stroke-linecap:butt;stroke-linejoin:miter;stroke-opacity:1" d="M261.415 205.535c3.32 3.082 7.487 6.339 12.68 8.32"/>
    <circle transform="scale(-1 1)" style="opacity:1;fill:#0085ca;fill-opacity:1;stroke:#000;stroke-width:.96399999;stroke-linecap:round;stroke-linejoin:round;stroke-miterlimit:4;stroke-dasharray:none;stroke-opacity:1" cx="-312.793" cy="146.425" r="11.113"/>
    <circle transform="scale(-1 1)" style="opacity:1;fill:#0085ca;fill-opacity:1;stroke:#000;stroke-width:.96399999;stroke-linecap:round;stroke-linejoin:round;stroke-miterlimit:4;stroke-dasharray:none;stroke-opacity:1" cx="-315.556" cy="124.891" r="3.595"/>
    <circle transform="scale(-1 1)" r="3.595" cy="127.872" cx="-301.447" style="opacity:1;fill:#0085ca;fill-opacity:1;stroke:#000;stroke-width:.96399999;stroke-linecap:round;stroke-linejoin:round;stroke-miterlimit:4;stroke-dasharray:none;stroke-opacity:1"/>
    <circle transform="scale(-1 1)" style="opacity:1;fill:#0085ca;fill-opacity:1;stroke:#000;stroke-width:.96399999;stroke-linecap:round;stroke-linejoin:round;stroke-miterlimit:4;stroke-dasharray:none;stroke-opacity:1" cx="-292.513" cy="139.857" r="3.595"/>
    <circle transform="scale(-1 1)" r="3.595" cy="153.04" cx="-291.314" style="opacity:1;fill:#0085ca;fill-opacity:1;stroke:#000;stroke-width:.96399999;stroke-linecap:round;stroke-linejoin:round;stroke-miterlimit:4;stroke-dasharray:none;stroke-opacity:1"/>
    <circle transform="scale(-1 1)" style="opacity:1;fill:#0085ca;fill-opacity:1;stroke:#000;stroke-width:.96399999;stroke-linecap:round;stroke-linejoin:round;stroke-miterlimit:4;stroke-dasharray:none;stroke-opacity:1" cx="-298.505" cy="163.063" r="3.595"/>
    <circle transform="scale(-1 1)" r="3.595" cy="167.53" cx="-310.381" style="opacity:1;fill:#0085ca;fill-opacity:1;stroke:#000;stroke-width:.96399999;stroke-linecap:round;stroke-linejoin:round;stroke-miterlimit:4;stroke-dasharray:none;stroke-opacity:1"/>
    <circle transform="scale(-1 1)" style="opacity:1;fill:#0085ca;fill-opacity:1;stroke:#000;stroke-width:.96399999;stroke-linecap:round;stroke-linejoin:round;stroke-miterlimit:4;stroke-dasharray:none;stroke-opacity:1" cx="-322.801" cy="165.678" r="3.595"/>
    <circle transform="scale(-1 1)" r="3.595" cy="157.398" cx="-331.953" style="opacity:1;fill:#0085ca;fill-opacity:1;stroke:#000;stroke-width:.96399999;stroke-linecap:round;stroke-linejoin:round;stroke-miterlimit:4;stroke-dasharray:none;stroke-opacity:1"/>
    <circle transform="scale(-1 1)" style="opacity:1;fill:#0085ca;fill-opacity:1;stroke:#000;stroke-width:.96399999;stroke-linecap:round;stroke-linejoin:round;stroke-miterlimit:4;stroke-dasharray:none;stroke-opacity:1" cx="-333.805" cy="143.016" r="3.595"/>
    <circle transform="scale(-1 1)" r="3.595" cy="130.923" cx="-327.922" style="opacity:1;fill:#0085ca;fill-opacity:1;stroke:#000;stroke-width:.96399999;stroke-linecap:round;stroke-linejoin:round;stroke-miterlimit:4;stroke-dasharray:none;stroke-opacity:1"/>
</svg>
