<svg xmlns="http://www.w3.org/2000/svg" width="400" height="500" viewBox="30.5 31.5 400 500" xml:space="preserve">
    <path style="fill:#0085ca;fill-opacity:1" d="M230.45 531.13c-74.32-53.92-125.26-122.02-155.74-208.16-27.64-78.1-38.73-172.75-33.91-289.35l.02-.46h379.82l.02.46c4.81 116.6-6.28 211.24-33.91 289.35-30.48 86.14-81.42 154.24-155.74 208.16l-.28.2-.28-.2z"/>
    <path d="M419.96 33.21c9.07 219.45-36.25 385.95-189.45 497.1C146.04 469.02 94.36 390.9 66.52 296.34a557.24 557.24 0 0 1-5.87-21.54c-11.45-45.69-17.77-95.02-19.88-147.94-1.2-30.06-1.05-61.28.29-93.65h378.9m.92-.95H40.14l-.04.92c-4.82 116.66 6.28 211.36 33.93 289.52 30.51 86.24 81.51 154.41 155.91 208.39l.56.41.56-.41c74.4-53.98 125.4-122.15 155.91-208.39 27.65-78.16 38.75-172.86 33.93-289.52l-.04-.92z"/>
    <path style="fill:#fff;stroke:#000;stroke-width:1;stroke-linecap:round;stroke-linejoin:round;stroke-miterlimit:4;stroke-dasharray:none;stroke-opacity:1" d="M244.97 408.583c-5.493 13.147-15.985 17.82-28.936 40.484l5.328.847.236 5.706 5.503.98.51 6.336 6.588.462.847 5.98 6.722-.387 1.83 5.13c3.167-1.78 5.241-4.164 7.478-10.615 2.383-6.871 6.261-18.007 17.343-36.478 14.815-24.626 35.615-54.647 46.8-76.428 9.712-18.936 11.38-41.501 10.89-64.655-1.276-63.87-36.988-107.04-86.436-151.287-19.819-17.66-27.275-37.086-40.912-58.082-9.42-14.619-22.86-21.977-48.663-12.853-9.713 3.434-18.642 7.162-30.022 5.396-7.36-1.226-8.245 13.363-5.835 19.901.481 1.305 1.306 2.884 1.812 3.58 1.415 1.947 3.238 2.813 3.238 2.813-1.374 13.54 20.897 18.445 26.98 31.69 5.789 12.754-8.045 28.452-5.592 48.565.981 8.34 3.041 13.735 8.437 22.467-5.788-.294-15.992-5.788-20.014-1.962-8.242 7.75-17.936 20.164-19.211 35.665l8.173-4.163 3.431 4.312 7.48-4.468 3.49 4.864 5.998-4.108 3.982 5.125 6.3-4.283 3.56 5.404 5.773-2.307.969 5.848 5.846-.11c-9.124 9.125-18.033 14.831-25.195 25.525-5.396 8.045-14.431 36.96-14.235 54.423l4.816-3.797 5.416 3.23 6.287-7.072 3.723 2.909 6.644-11.257 3.3 2.58 5.928-10.994 3.532 2.944s1.713-4.671 3.638-12.17c1.24-4.828 6.821-6.104 11.895-5.68 4.738.397 10.458 1.576 16.187 11.242 17.196 29.014 38.816 33.318 56.972 54.486 19.131 22.369 1.668 44.052-16.483 48.172-15.925 3.67-31.6-.38-43.4 4.682l3.715 3.454-4.592 5.488 3.246 3.245-4.017 4.52 3.407 3.602-4.471 4.737s7.653 4.611 14.03 2.845c31.2-8.83 39.931-16.679 39.931-16.679z"/>
    <path style="fill:#000;stroke:none" d="M156.052 79.706c1.962-3.63.973-7.67-1.087-8.258-3.827-.393-8.97.207-11.373 3.248-2.404 3.042 11.282 7.267 12.46 5.01zM123.394 72.529c-2.115.062-3.125-.612-3.766-1.018-1.601-1.014 1.125-2.033 1.125-2.033-10.201-3.668-8.903 16.792-6.22 18.917 0-6.18 3.505-9.268 7.037-10.936 2.649-1.276 3.308-4.974 1.824-4.93z"/>
    <path style="fill:none;stroke:#000;stroke-width:1;stroke-linecap:round;stroke-linejoin:miter;stroke-miterlimit:4;stroke-dasharray:none;stroke-opacity:1" d="m119.29 95.413 19.623 9.713M132.634 96.689c5.2 6.573 8.34 10.89 10.694 14.618M136.754 90.115c10.695 3.532 17.562 10.989 21.977 15.796M137.54 84.915c8.731.883 17.66 3.729 26.293 10.008M142.988 75.816c3.09-3.495 6.52-4.854 11.977-4.368 4.484.398 8.948 3.64 11.051 5.707"/>
    <path style="fill:none;stroke:#000;stroke-width:1;stroke-linecap:round;stroke-linejoin:miter;stroke-miterlimit:4;stroke-dasharray:none;stroke-opacity:1" d="M166.016 77.155c-4.104 1.96-7.884 2.828-11.045 2.71-4.953-.184-8.959-1.882-11.983-4.05"/>
</svg>
