<svg xmlns="http://www.w3.org/2000/svg" xml:space="preserve" viewBox="30.5 31.5 420 500" height="500" width="420">
    <path style="fill:#000;fill-opacity:1;fill-rule:evenodd" d="M41 32.7c-2.09 102.46 3.38 187.49 43.93 296.59 28.05 75.48 74.21 144.77 155.57 201.59 81.36-56.82 127.52-126.11 155.57-201.59C436.62 220.19 442.09 135.16 440 32.7c-133 .29-266 0-399 0z"/>
    <path style="fill:none;stroke:#000" d="M41 32.7c-2.09 102.46 3.38 187.49 43.93 296.59 28.05 75.48 74.21 144.77 155.57 201.59 81.36-56.82 127.52-126.11 155.57-201.59C436.62 220.19 442.09 135.16 440 32.7c-133 .29-266 0-399 0z"/>
    <path style="fill:#ffe000;fill-opacity:1;fill-rule:evenodd;stroke:#020000;stroke-width:.5;stroke-linecap:round;stroke-linejoin:round;stroke-miterlimit:4;stroke-dasharray:none;stroke-opacity:1" d="M173.358 151.251c5.005 2.25 17.235 8.254 28.684 14.252 10.939 5.73 21.361 11.291 26.746 20.392 9.256 15.642 7.493 39.358 7.462 62.359h-1.566c-3.84-16.034-11.38-23.707-27.748-31.446-29.436-13.918-39.64-19.876-33.578-65.557zM161.735 210.34c5.93 2.667 20.42 9.78 33.985 16.886 12.96 6.789 25.309 13.378 31.69 24.16 10.966 18.534 8.876 46.632 8.84 73.884h-1.855c-4.55-18.997-13.484-28.088-32.877-37.257-34.875-16.49-46.966-23.55-39.783-77.673zM155.278 280.328c6.444 2.898 22.19 10.627 36.93 18.349 14.083 7.377 27.502 14.538 34.435 26.255 11.917 20.139 9.647 50.672 9.607 80.286h-2.016c-4.944-20.644-14.652-30.523-35.725-40.486-37.898-17.92-51.037-25.59-43.231-84.404z"/>
    <path style="fill:#ffe000;fill-opacity:1;fill-rule:evenodd;stroke:#020000;stroke-width:.5;stroke-linecap:butt;stroke-linejoin:miter;stroke-miterlimit:4;stroke-dasharray:none;stroke-opacity:1" d="M262.299 142.457c.083-19.086-14.606-36.502-21.799-55.964-7.193 19.462-21.882 36.878-21.799 55.964.085 19.602 10.739 27.218 21.799 41.839 11.06-14.621 21.714-22.237 21.799-41.84z"/>
    <path d="M307.642 151.251c-5.005 2.25-17.235 8.254-28.684 14.252-10.939 5.73-21.361 11.291-26.746 20.392-9.256 15.642-7.493 39.358-7.462 62.359h1.566c3.84-16.034 11.38-23.707 27.748-31.446 29.436-13.918 39.64-19.876 33.578-65.557zM319.265 210.34c-5.93 2.667-20.42 9.78-33.985 16.886-12.96 6.789-25.309 13.378-31.69 24.16-10.966 18.534-8.876 46.632-8.84 73.884h1.855c4.55-18.997 13.484-28.088 32.877-37.257 34.875-16.49 46.966-23.55 39.783-77.673zM325.722 280.328c-6.444 2.898-22.19 10.627-36.93 18.349-14.083 7.377-27.502 14.538-34.435 26.255-11.917 20.139-9.647 50.672-9.607 80.286h2.016c4.944-20.644 14.652-30.523 35.725-40.486 37.898-17.92 51.037-25.59 43.231-84.404z" style="fill:#ffe000;fill-opacity:1;fill-rule:evenodd;stroke:#020000;stroke-width:.5;stroke-linecap:round;stroke-linejoin:round;stroke-miterlimit:4;stroke-dasharray:none;stroke-opacity:1"/>
</svg>
