<svg xmlns="http://www.w3.org/2000/svg" width="390" height="480">
    <path d="M.512.505H389.5c-.01 114.728-19.165 349.326-194.605 478.872C21.249 349.773.593 115.257.512.505z" style="fill:#e0e0e0;fill-opacity:1;stroke:#999;stroke-width:.99999905;stroke-opacity:1"/>
    <path d="M43.092 264.572c28.685 38.885 61.83 50.516 107.701 42.476-43.65-18.285-73.418-49.93-67.483-115.939 42.65 64.046 76.465 76.166 119.957 60.004-48.46-11.525-72.97-76.72-65.682-121.787 26.094 44.915 64.57 74.328 118.276 64.453-53.37-29.438-72.684-71.644-64.481-121.533 17.925 34.668 56.512 76.013 117.556 65.851-44.88-15.078-73.33-73.023-65.082-122.93 26.056 47.611 65.02 79.198 119.237 67.63-31.026-11.852-60.333-54.563-69.677-81.79L388.998.99c-.166 163.118-38.95 362.768-194.102 477.798-90.6-68.034-129.908-153.956-151.804-214.215z" style="fill:#008c31;fill-opacity:1;stroke:none"/>
</svg>
