<svg version="1.1" id="Layer_1" xmlns="http://www.w3.org/2000/svg" x="0" y="0" viewBox="0 0 1024 1280" style="enable-background:new 0 0 1024 1280" xml:space="preserve">
    <style>
        .st0{fill:#fff}.st1{fill:#09c}
    </style>
    <path class="st0" d="M38 257.7c0 128.7.8 237.1 1.7 255.8 6.3 121.2 31.7 222.1 81.6 324.6 34 70.1 71.8 127.2 124 187.7 25.4 29.2 77.9 81.3 106.3 105 47.7 39.7 101.5 76.9 146.7 101.3l12 6.5 15.9-8.2c65.4-33.9 149.2-98.5 214.4-165.7 128.8-132.2 207.9-290 233.6-465.6 8.2-56.1 8.3-63.7 8.3-322.2V34.6H38v223.1z"/>
    <path class="st1" d="M376.1 4628.9c0-1286.6 8.3-2371.3 16.7-2558.2 63.4-1211.5 317.1-2221.1 816-3245.7 340.4-700.9 717.6-1271.6 1239.9-1877.3 253.6-292 779.3-812.7 1063-1049.6 477.3-397.2 1014.6-769.3 1466.8-1012.9l120.1-65.1 158.5 81.8C5911.2-4759.3 6749-4113.5 7401.4-3441 8689.8-2119.5 9480.7-540.9 9737.7 1214.6c81.8 560.7 83.4 637.5 83.4 3222.3v2423h-9445v-2231zM4235.9 5550c328.7-85.1 550.7-318.7 620.8-652.5 50.1-237 21.7-585.7-75.1-952.9-108.5-405.5-272-807.7-629.1-1548.6-315.4-654.1-358.8-755.9-423.9-1004.6-93.4-363.8-80.1-659.2 38.4-844.4 43.4-68.4 90.1-111.8 118.5-111.8 5 0 45.1 61.7 88.4 138.5 206.9 362.1 502.3 764.3 1024.6 1396.7 727.6 881.1 937.8 1216.5 1012.9 1610.3 16.7 85.1 21.7 175.2 15 252-16.7 208.6-56.7 298.7-275.3 622.4-111.8 165.2-201.9 312.1-201.9 327.1s15 56.7 33.4 91.8l33.4 66.7h171.9c507.3-1.7 814.3-232 931.2-700.9 50.1-195.2 38.4-560.7-23.4-809.3-121.8-477.3-385.5-1064.7-964.5-2144.3-230.4-432-332.2-640.6-332.2-689 0-20 13.3-20 96.8-1.7 675.8 161.9 1458.5 223.6 1880.7 150.2 300.4-53.4 524-165.2 620.8-313.7 41.7-61.7 46.7-86.8 51.7-237 20-532.3-173.5-1118.1-522.3-1582-136.8-181.9-462.2-493.9-655.8-630.8-350.4-247-782.6-440.5-1196.5-535.7-287-65.1-725.9-60.1-1002.9 11.7-140.2 35-532.3 195.2-704.2 285.4-343.8 180.2-695.9 452.2-934.5 724.2-577.5 654.2-786.1 1433.5-627.5 2348 103.5 600.7 393.8 1206.5 966.2 2022.5 609.1 867.7 755.9 1163.1 772.6 1543.6 11.7 292-16.7 370.5-262 734.2l-198.6 293.7 33.4 81.8c28.4 68.4 41.7 83.4 86.8 90.1 88.4 11.7 330.4-5 432.2-31.7z" transform="matrix(.1 0 0 -.1 0 721)"/>
    <path class="st1" d="M3963.9 5373.1c0-8.3 68.4-115.1 150.2-235.3 190.2-278.7 218.6-358.8 230.3-657.5 6.7-185.2 1.7-238.6-28.4-362.1-88.4-347.1-240.3-625.8-722.6-1318.3-327.1-472.3-499-745.9-630.8-1004.6-200.2-390.5-323.7-762.6-375.5-1126.4-33.4-235.3-31.7-652.5 1.7-852.7 108.5-635.8 473.9-1204.8 1049.6-1632 73.4-55.1 135.2-96.8 136.8-95.1 3.3 3.3-20 60.1-51.7 128.5-138.5 298.7-183.6 524-183.6 899.5 0 380.5 55.1 647.5 225.3 1061.3 20 51.7 18.4 53.4-75.1 145.2-262 257-297 719.2-100.1 1313.3 53.4 161.9 125.2 318.7 445.6 984.6 665.8 1385.1 807.7 2154.4 470.6 2548.2-71.8 83.4-258.7 181.9-372.1 196.9-43.4 5-98.5 13.4-123.5 16.7-26.7 4.9-46.7-.1-46.7-10.2z" transform="matrix(.1 0 0 -.1 0 721)"/>
    <path class="st1" d="M5816.2 4730.7c0-5 65.1-105.1 143.5-220.3 163.5-235.3 206.9-327.1 247-499 50.1-220.3 26.7-465.6-65.1-722.6-126.8-347.1-335.4-657.5-936.2-1386.7-458.9-557.4-664.2-826-866.1-1133.1-201.9-305.4-262-408.8-247-423.9 20-20 333.7-10 473.9 15 76.8 13.3 240.3 53.4 363.8 88.4l223.6 63.4L5192 632c55.1 170.2 110.1 283.7 345.4 722.6 614.1 1151.4 826 1623.7 956.2 2127.7 41.7 158.5 46.7 213.6 48.4 423.9 0 282-25 395.5-126.8 550.7-78.4 121.8-203.6 208.6-360.4 252-110.1 30.1-238.6 41.8-238.6 21.8zM6792.4 573.8c-360.4-16.7-779.3-73.4-1188.1-163.5-290.4-63.4-278.7-55.1-265.3-180.2 15-146.8 90.1-292 198.6-387.1 297-258.7 932.8-390.5 1894-392.2h303.7l16.7 41.7c38.4 98.5 86.8 397.2 95.1 575.7 8.3 156.9 5 201.9-16.7 245.3-33.4 63.4-165.2 150.2-292 188.6-165.3 51.7-499 83.4-746 71.7z" transform="matrix(.1 0 0 -.1 0 721)"/>
    <path class="st1" d="M4906.7 233.4c-300.4-88.4-512.3-111.8-876.1-93.4-56.7 3.3-58.4 1.7-113.5-126.8-135.2-312.1-203.6-752.6-170.2-1084.7 43.4-443.9 173.5-740.9 425.5-976.2 156.9-146.8 308.7-226.9 555.7-290.4 176.9-46.7 220.3-51.7 462.2-53.4 201.9-1.7 302 6.7 408.8 30 382.1 81.8 831 280.3 1151.4 507.3 198.6 140.2 530.7 468.9 655.8 649.1 96.8 138.5 245.3 398.8 245.3 432.2 0 13.3-136.8 21.7-437.2 28.4-242 5-534 21.7-649.1 35C5651-597.6 5203.7-313.9 5138.7 198.4c-13.4 103.4-5 101.8-232 35z" transform="matrix(.1 0 0 -.1 0 721)"/>
    <path class="st0" d="m-943-400 62 82 18 25z"/>
</svg>
