<svg xmlns="http://www.w3.org/2000/svg" width="400" height="500" viewBox="30.5 31.5 400 500" xml:space="preserve">
    <path d="M230.55 531.13c74.32-53.92 125.26-122.02 155.74-208.16 27.64-78.1 38.73-172.75 33.91-289.35l-.02-.46H40.36l-.02.46c-4.81 116.6 6.28 211.24 33.91 289.35 30.48 86.14 81.42 154.24 155.74 208.16l.28.2.28-.2z" fill="#0085ca"/>
    <path d="M41.04 33.21c-9.07 219.45 36.25 385.95 189.45 497.1 84.47-61.29 136.15-139.41 163.99-233.97a557.24 557.24 0 0 0 5.87-21.54c11.45-45.69 17.77-95.02 19.88-147.94 1.2-30.06 1.05-61.28-.29-93.65H41.04m-.92-.95H420.86l.04.92c4.82 116.66-6.28 211.36-33.93 289.52-30.51 86.24-81.51 154.41-155.91 208.39l-.56.41-.56-.41c-74.4-53.98-125.4-122.15-155.91-208.39C46.38 244.54 35.28 149.84 40.1 33.18l.04-.92z"/>
    <path d="M189.96 69.59h48.5V47.3h5.71v22.29h65.62c-9.17 8.49-12.63 37.52-10.16 46.18-8.86-7.64-40.15-12.37-55.46-11.77v19.79h57.42C262 235.34 302.85 284.9 328.8 343.65c-26.24-10.25-53.23-18.11-82.03-22.65v30.49c36.87 1.53 68.73 3.2 102.35 1.07-9.75 18.61-21.19 36.22-37.63 50.82-65.86.97-138.39 4.05-191.84-15.67-6.77-24.36 1.3-84.22 9.28-98.95 2-3.7 5.73-2.65 8.37.16-4.98 11.17-4.33 28.87-2.5 43.69 36.42 18.64 64.1 16.58 100.54 18.39v-31.21c-15.6-1.64-30.97-3.67-47.07 13.86-24.59-64.97-58.05-135.98-11.5-209.85h61.7v-19.79c-25.82-1.01-51.33 1.05-57.94 6.94-5.09-9.89 3.92-36 9.44-41.36z" style="fill-rule:evenodd;fill:#fff;stroke:#000"/>
</svg>
