<svg xmlns="http://www.w3.org/2000/svg" width="400" height="500" viewBox="30.5 31.5 400 500" xml:space="preserve">
    <path style="fill:#fff" fill="#e00e00" d="M230.44 531.14C156.12 477.22 105.18 409.12 74.7 322.98c-27.64-78.1-38.73-172.75-33.91-289.35l.02-.46h379.82l.02.46c4.81 116.6-6.28 211.24-33.91 289.35-30.48 86.14-81.42 154.24-155.74 208.16l-.28.2-.28-.2z"/>
    <path d="M419.96 33.21c9.07 219.45-36.26 385.95-189.46 497.1C77.31 419.16 31.99 252.66 41.06 33.21h378.9m.92-.95H40.14l-.04.92c-4.82 116.66 6.28 211.36 33.93 289.52 30.51 86.24 81.51 154.41 155.91 208.39l.56.41.56-.41c74.4-53.98 125.4-122.15 155.91-208.39 27.65-78.16 38.75-172.86 33.93-289.52l-.04-.92z"/>
    <path style="fill:#0085ca;fill-opacity:1;stroke:#000;stroke-opacity:1" d="M51.284 111.942c4.05-3.4 6.057 9.016 11.296 9.26 11.657.546 23.13 3.673 34.547 7.554-.781-12.075-21.897-24.696-36.517-28.767-6.284-1.75-5.722-13.638 7.09-13.414 70.868 1.227 130.876 12.376 172.476 42.903 14.974 18.924 33.89 19.11 55.958 31l-7.619 66.336-7.619 3.153c2.356 28.154 6.506 50.003 14.45 78.157 7.162 2.653 16.944 12.999 18.193 15.566.11.225-5.315 1.573-11.231 2.693.909 5.54 7.635 14.283 11.165 14.318l53.463.526c-26.4 21.517-48.831 47.77-60.425 86.958-6.82-19.766-10.831-39.826-13.136-60.03-.42-3.685-17.57-25.554-23.513-23.513-9.871 3.39-24.762 5.322-24.3 4.86-2.655-15.433-3.423-29.45-4.204-43.48-10.47-15.367-20.664-30.79-28.767-46.631l-5.123 5.517c-9.804-10.084-20.525-24.276-18.128-42.166-17.476-14.09-29.365-37.094-48.251-52.974-30.13-25.333-72.51-32.83-86.39-42.129-4.219-2.826-5.7-13.778-3.415-15.697Z"/>
    <path style="fill:none;stroke:#000;stroke-width:1;stroke-linecap:round;stroke-linejoin:round;stroke-miterlimit:4;stroke-dasharray:none;stroke-opacity:1" d="M112.302 107.262a4.455 4.5 0 1 1-8.911 0 4.455 4.5 0 1 1 8.91 0z"/>
    <path d="M97.653 114.873c5.19 3.582 10.199 9.249 11.783 13.862 1.276 3.717-3.269 3.387-6.854 3.62M123.617 152.17c9.337-3.549 17.235-7.106 21.347-15.14 3.05-5.96 1.858-13.466.653-23.633M149.211 148.902c12.152 3.225 18.086 6.526 22.871 13.287 2.001 2.827-6.282 6.303-12.416 5.663-3.316-.346-9.066-5.703-13.178-10.02" style="fill:none;fill-rule:evenodd;stroke:#000;stroke-width:1px;stroke-linecap:round;stroke-linejoin:miter;stroke-opacity:1"/>
</svg>
