<svg xmlns="http://www.w3.org/2000/svg" xml:space="preserve" viewBox="30.5 31.5 400 500" height="500" width="400">
    <path style="fill:#ffe000;fill-opacity:1" d="M230.56 531.14c74.32-53.92 125.26-122.02 155.74-208.16 27.64-78.1 38.73-172.75 33.91-289.35l-.02-.46H40.37l-.02.46c-4.81 116.6 6.28 211.24 33.91 289.35 30.48 86.14 81.42 154.24 155.74 208.16l.28.2.28-.2z"/>
    <path d="M41.04 33.21C31.97 252.66 77.3 419.16 230.5 530.31c153.19-111.15 198.51-277.65 189.44-497.1H41.04m-.92-.95H420.86l.04.92c4.82 116.66-6.28 211.36-33.93 289.52-30.51 86.24-81.51 154.41-155.91 208.39l-.56.41-.56-.41c-74.4-53.98-125.4-122.15-155.91-208.39C46.38 244.54 35.28 149.84 40.1 33.18l.04-.92z"/>
    <path style="fill:#000;stroke:#000;stroke-opacity:1" d="M132.952 299.058c3.719-2.408-19.977-5.568-19.383-11.491 1.413-14.084 74.844-57.052 116.989-78.833 55.01 24.566 112.74 70.915 114.372 79.12.908 4.565-4.549 6.519-22.783 6.494-6.874-.009 16.218 13.36 29.053 12.956 13.997-.44 15.474-6.646 15.263-19.776-.45-27.941-65.47-77.535-106.53-96.364 13.736-11.433 28.06-12.818 28.298-23.898.254-11.81-2.231-10.318-7.801-10.327-10.076-7.935-25.194-21.887-35.584-26.211 1.08-6.09-10.083-8.877-9.916-11.312.812-11.831 26.111-18.51 24.086-37.498-2.403-22.535-38.14-26.277-57.309-27.872-12.57-1.047-27.99-1.48-38.09 3.771-5.481 2.85-18.009 16.634-18.508 26.167-.262 4.991 18.942 11.413 22.416 4.411 4.883-9.838 6.26-16.759 33.806-14.178 15.494 1.451 30.59 3.759 30.689 8.987.178 9.396-24.975 21.153-24.714 37.324.072 4.45 5.068 9.048 3.087 11.634-6.551 8.549-39.381 21.227-38.445 31.98.746 8.569 19.27 19.303 28.8 25.46-44.298 21.686-98.488 60.036-111.322 96.337-4.917 13.908 12.324 21.527 23.516 20.264 8.77-.989 13.407-2.87 20.01-7.145z"/>
    <path style="fill:#ffe000;fill-opacity:1;stroke:#000;stroke-opacity:1" d="M208.802 162.825c7.56-6.83 20.256-15.61 22.734-14.618 7.865 3.152 24.625 14.427 23.151 15.794-5.043 4.679-21.989 17.326-23.753 16.051-7.804-5.638-24.087-15.46-22.132-17.227z"/>
    <path d="M168.028 409.194c2.675-1.797-16.164-3.156-15.336-10.365 1.155-10.055 68.103-51.73 78.785-46.706 47.428 22.308 74.614 39.864 75.184 42.75.656 3.32-.532 5.976-14.723 10.895-4.725 1.638 11.797 9.671 21.136 9.426 12.184-.32 13.896-4.834 13.881-14.387-.028-18.323-35.441-48.54-65.313-62.238 9.994-8.318 13.471-5.314 13.645-13.375.184-8.592-1.624-7.507-5.676-7.513-7.33-5.773-20.18-17.003-27.74-20.15.786-4.43-4.403-4.914-4.282-6.686.59-8.607 21.156-14.854 19.683-28.668-1.748-16.395-30.061-20.969-44.007-22.13-9.146-.76-23.14.622-30.489 4.441-3.987 2.073-13.101 12.102-13.465 19.037-.19 3.631 13.781 8.303 16.309 3.21 3.552-7.158 4.554-12.193 24.594-10.316 11.272 1.057 22.254 2.735 22.326 6.539.13 6.836-18.17 15.389-17.98 27.153.053 3.238 3.874 6.742 2.246 8.464-3.514 3.718-31.172 14.007-30.746 22.341.319 6.25 19.732 14.808 16.324 16.362-34.336 15.665-56.51 33.959-69.108 58.978-6.158 12.23 10.034 20.218 20.194 18.137 7.533-1.544 9.929-2.088 14.558-5.199z" style="fill:#000;stroke:#000;stroke-width:1;stroke-miterlimit:4;stroke-dasharray:none;stroke-opacity:1"/>
    <path d="M215.705 319.705c8.97-4.855 14.817-9.357 16.946-7.914 7.615 5.16 13.846 9.208 12.369 10.874-3.32 3.744-12.057 8.937-14.56 7.357-5.922-3.74-16.87-9.172-14.755-10.317z" style="fill:#ffe000;fill-opacity:1;stroke:#000;stroke-width:.72751468;stroke-opacity:1"/>
</svg>
