<svg xmlns="http://www.w3.org/2000/svg" width="400" height="500" viewBox="30.5 31.5 400 500" xml:space="preserve">
    <path d="M230.45 531.13c-74.32-53.92-125.26-122.02-155.74-208.16-27.64-78.1-38.73-172.75-33.91-289.35l.02-.46h379.82l.02.46c4.81 116.6-6.28 211.24-33.91 289.35-30.48 86.14-81.42 154.24-155.74 208.16l-.28.2-.28-.2z" fill="#e00e00"/>
    <path d="M419.96 33.21c9.07 219.45-36.25 385.95-189.45 497.1C146.04 469.02 94.36 390.9 66.52 296.34a557.24 557.24 0 0 1-5.87-21.54c-11.45-45.69-17.77-95.02-19.88-147.94-1.2-30.06-1.05-61.28.29-93.65h378.9m.92-.95H40.14l-.04.92c-4.82 116.66 6.28 211.36 33.93 289.52 30.51 86.24 81.51 154.41 155.91 208.39l.56.41.56-.41c74.4-53.98 125.4-122.15 155.91-208.39 27.65-78.16 38.75-172.86 33.93-289.52l-.04-.92z"/>
    <path d="M124.59 178.77c-20.54 0-50.64-13.99-63.99-38.52-7.07-12.99-9.12-29.72-8.12-43.97h14.48c.23 18.9 1.89 35.3 21.1 45.28 16.64 8.65 19.19 11.22 50.47 11.22h183.93c31.28 0 33.82-2.57 50.47-11.22 19.22-9.99 20.87-26.39 21.1-45.28h14.48c1.01 14.25-1.04 30.98-8.12 43.97-13.34 24.51-43.45 38.52-63.99 38.52H124.57zM135.84 278.38c-18.35 0-45.26-12.51-57.19-34.42-6.31-11.61-8.15-26.56-7.25-39.3h12.94c.2 16.89 1.69 31.55 18.86 40.47 14.88 7.73 17.15 10.03 45.1 10.03h164.38c27.96 0 30.23-2.3 45.1-10.03 17.17-8.93 18.65-23.58 18.86-40.47h12.94c.9 12.74-.93 27.69-7.25 39.3-11.92 21.91-38.83 34.42-57.19 34.42H135.83zM155.99 366.54c-14.45 0-35.63-9.85-45.01-27.1-4.97-9.13-6.41-20.9-5.71-30.94h10.18c.16 13.3 1.33 24.84 14.84 31.86 11.71 6.09 13.5 7.89 35.51 7.89h129.39c22.01 0 23.8-1.8 35.51-7.89 13.52-7.03 14.68-18.57 14.84-31.86h10.18c.71 10.03-.74 21.8-5.71 30.94-9.38 17.25-30.56 27.1-45.01 27.1H155.98z" style="fill:#ffe000;stroke-miterlimit:4;stroke:#000"/>
</svg>
