<svg width="471.58" height="617.22" version="1.0" xmlns="http://www.w3.org/2000/svg">
    <g fill="#fcd205" stroke="#231f20" stroke-linecap="square" stroke-miterlimit="2" stroke-width=".04">
        <path d="M322.91 51.031a541.631 541.631 0 0 1-9.645-2.944c-.982 3.28-2.621 8.677-3.28 10.794a508.877 508.877 0 0 0-9.477-2.62c1.033-4.08 1.743-6.805 2.776-10.95-3.267-.813-9-1.963-11.285-2.453-.491 2.453-6.379 35.327-6.379 35.327l26.005 7.515zM251.31 37.405c-2.905-.052-6.83-.155-10.084-.284a2259.41 2259.41 0 0 1-.297 11.285 418.779 418.779 0 0 0-9.84-.013c-.09-4.222-.128-7.037-.219-11.31-3.37.09-9.193.49-11.53.632.18 2.492 3.202 35.753 3.202 35.753l27.077.362zM148.88 51.031a511.093 511.093 0 0 0 9.658-2.944 1053.1 1053.1 0 0 0 3.267 10.794 538.112 538.112 0 0 1 9.477-2.62 149.688 149.688 0 0 0-2.776-10.95c3.267-.813 9-1.963 11.285-2.453.491 2.453 6.379 35.327 6.379 35.327L160.165 85.7zM337.45 98.788l-8.186 16.024s-39.575-20.93-93.535-20.93c-53.972 0-93.392 21.098-93.392 21.098l-7.683-15.856S175.87 75.559 235.73 75.895c61.81.336 101.721 22.893 101.721 22.893" stroke-width=".51648"/>
        <path d="M137.6 117.43c-1.175-2.53-.542-4.584 2.079-5.888 3.047-1.536 42.08-21.912 96.052-21.912 54.618 0 92.592 20.104 95.51 21.473 3.706 1.743 3.913 4.364 2.944 6.327-.981 1.963-3.163 3.034-6.223 1.627-9.44-4.339-44.805-20.93-91.585-20.93-51.351 0-89.416 19.355-92.566 20.93-3.267 1.64-5.088.8-6.211-1.627M112.52 51.795l20.608 43.617 27.915-11.13-15.055-45.786z" stroke-width=".51648"/>
        <path d="M153.18 87.234s-8.56-23.06-9.865-26.663c-1.317-3.603-5.913-5.565-9.98-3.874-4.262 1.795-6.056 5.294-4.249 9.555 1.369 3.24 11.337 26.095 11.337 26.095zM106.61 55.532c14.72-7.605 32.293-14.306 46.354-18.567-2.608-9.155-6.21-20.337-7.192-23.604-2.93.982-7.954 2.454-10.575 3.435.981 2.944 2.634 7.721 3.293 10.007-2.699.93-6.727 2.401-9.336 3.383-1.149-3.112-2.814-7.205-3.796-9.904-2.866 1.072-7.992 3.164-10.6 4.39 1.64 3.926 3.085 7.309 4.054 9.594-2.195 1.072-6.856 3.112-8.91 4.016-1.846-3.99-2.918-6.379-4.39-9.659-3.59 1.64-6.843 3.19-10.032 4.907 2.298 4.26 11.13 22.002 11.13 22.002M174.39 30.095l10.304 47.594 37.948-5.062-2.621-49.233zM359.28 51.795l-20.608 43.617-27.915-11.13 15.042-45.786z" stroke-width=".51648"/>
        <path d="M318.6 87.234s8.56-23.06 9.865-26.663 5.913-5.565 9.98-3.874c4.249 1.795 6.044 5.294 4.249 9.555-1.369 3.24-11.337 26.095-11.337 26.095zM365.18 55.532c-14.72-7.605-32.293-14.306-46.367-18.567 2.621-9.155 6.21-20.337 7.205-23.604 2.944.982 7.954 2.454 10.575 3.435-.994 2.944-2.647 7.721-3.306 10.007 2.699.93 6.74 2.401 9.349 3.383 1.149-3.112 2.814-7.205 3.796-9.904 2.853 1.072 7.992 3.164 10.6 4.39-1.64 3.926-3.085 7.309-4.067 9.594 2.208 1.072 6.87 3.112 8.922 4.016a626.113 626.113 0 0 0 4.378-9.659c3.602 1.64 6.843 3.19 10.032 4.907-2.285 4.26-11.117 22.002-11.117 22.002M297.4 30.095l-10.304 47.594-37.948-5.062 2.621-49.233zM211.44 73.692s-2.453-24.12-2.892-27.929c-.452-3.796-4.08-7.32-9.71-6.52-5.772.826-8.483 5.449-7.954 8.935.517 3.473 4.739 27.76 4.739 27.76z" stroke-width=".51648"/>
        <path d="M260.34 73.692s2.453-24.12 2.892-27.929c.452-3.796 4.093-7.32 9.71-6.52 5.759.826 8.483 5.449 7.967 8.935-.53 3.473-4.765 27.76-4.765 27.76zM167.95 32.91c19.665-4.687 38.426-7.308 58.763-8.005-.452-9.517-.646-21.215-.84-24.624-3.086.284-10.768.452-13.544.814.284 3.086.813 8.109.93 10.497-2.841.284-8.42.62-11.183.982-.4-3.293-.93-7.644-1.265-10.498-3.021.375-10.95 1.408-13.777 2.002.697 4.196 1.162 7.85 1.601 10.29-2.402.543-8.716 1.434-10.91 1.847-.892-4.3-1.382-6.714-2.067-10.24-3.873.775-10.006 2.028-13.505 2.97 1.149 4.997 5.797 23.965 5.797 23.965M303.83 32.91c-19.665-4.687-38.426-7.308-58.763-8.005.452-9.517.633-21.215.84-24.624 3.099.284 10.768.452 13.532.814-.272 3.086-.801 8.109-.904 10.497 2.827.284 8.393.62 11.169.982.413-3.293.93-7.644 1.265-10.498 3.034.375 10.95 1.408 13.777 2.002-.697 4.196-1.162 7.85-1.588 10.29 2.389.543 8.69 1.434 10.898 1.847.89-4.3 1.381-6.714 2.066-10.24 3.873.775 10.006 2.028 13.505 2.97-1.149 4.997-5.797 23.965-5.797 23.965" stroke-width=".51648"/>
        <path d="M129.42 101.4c-1.11-2.285-.607-4.83 2.621-6.21 2.957-1.279 45.36-23.552 103.683-23.552 58.556 0 100.043 21.77 103.361 23.332 3.977 1.846 3.925 4.467 2.944 6.43s-3.15 3.034-6.21 1.64c-9.452-4.339-46.458-22.906-99.436-22.906-56.813 0-97.163 21.33-100.752 23.01-3.306 1.561-5.088.58-6.211-1.744" stroke-width=".51648"/>
    </g>
    <g stroke="#231f20" stroke-linecap="square">
        <path d="M236.01 616.42c-18.322-35.314-36.838-29.71-64.224-27.515C94.159 595.154 53.228 554.378 53.64 481.14V243.147c-.194-38.943-43.875-68.098-52.707-74.025 34.953-33.015 52.991-49.93 52.991-49.93l364.829-.052s44.92 42.52 51.893 49.492c-8.716 5.681-52.41 35.327-51.997 74.567.336 33.158-.103 237.438-.103 237.438-.194 73.96-42.287 114.904-117.293 107.04-27.773-2.904-46.496-6.571-65.244 28.743" fill="#fff" stroke-miterlimit="10" stroke-width="1.174992"/>
        <g stroke-width=".04">
            <path d="M140.76 247.06c-6.379 3.228-12.318 8.186-16.682 15.159 5.345 0 13.635-1.42 23.332-4.48-3.706 4.48-6.65 9.283-8.613 14.073 4.042-.542 12.977-3.266 17.328-5.23-2.505 2.945-6.094 10.137-7.411 15.263 3.822-.762 11.337-3.81 16.243-7.412-2.389 3.383-5.991 12.306-5.875 17.987 4.674-1.64 12.202-7.85 16.024-12.86-.323 3.382-1.2 10.678-.323 14.59 1.963-1.188 6.87-4.894 11.543-10.781-1.962 6.43-2.827 12.757-1.523 20.271 4.48-3.473 10.032-12.524 13.196-20.478 0 4.028 1.885 11.272 1.885 11.272-2.402 4.7-9.49 20.169-11.014 23.771-8.173 2.712-15.481 8.496-17.121 9.374-2.725-.116-6.65.104-7.85 8.625 0 0 10.148-6.559 20.271-9.167-2.066 5.565-2.828 9.27-2.828 10.355s2.183 7.954 9.594 8.613c-3.809-4.907-3.15-8.729-2.944-10.136.22-1.42 3.047-7.412 5.023-10.136 2.182-.116 7.089-.542 14.823 1.51-1.963-4.028-7.192-7.191-10.136-8.057 1.846-3.602 4.467-8.392 7.192-10.91l-.026-.052c27.425 98.35-25.566 99.823-37.832 69.893-13.57 19.794-3.099 45.799 19.136 45.799 29.426 0 45.14-53.495 49.71-70.164 4.752 17.173 20.285 70.164 49.725 70.164 22.234 0 32.706-26.005 19.135-45.8-12.266 29.93-65.14 28.665-37.728-69.66 2.737 2.505 5.345 7.296 7.192 10.885-2.944.891-8.174 4.055-10.136 8.083 7.747-2.079 12.653-1.652 14.835-1.536 1.963 2.737 4.79 8.728 5.01 10.149s.878 5.229-2.944 10.136c7.412-.646 9.594-7.515 9.594-8.613s-.762-4.803-2.828-10.355c10.136 2.608 20.272 9.141 20.272 9.141-1.188-8.496-5.126-8.702-7.85-8.599-1.627-.878-8.935-6.65-17.122-9.387-1.523-3.59-8.612-19.071-11-23.758.425-1.64 2.388-6.65 2.504-12.757 1.524 3.163 6.327 15.598 13.842 22.247 1.097-4.364.555-14.397-1.085-20.827 1.64 2.389 7.85 8.51 11.234 10.575.542-2.505.645-8.186-.555-14.939 3.163 3.925 10.69 12.434 15.92 14.603-.207-3.809-2.724-13.402-5.346-19.29 3.164 2.285 9.168 6.43 14.836 7.85-.542-4.144-2.84-10.574-6.546-15.481 3.486 1.42 11.233 4.467 16.902 5.01-1.085-2.931-3.164-8.173-7.85-13.945 4.144 1.51 15.584 5.216 22.466 5.01-1.962-3.926-6.65-10.15-15.159-15.495 10.136.775 29.595 2.738 38.323-1.084-5.462-3.383-21.576-7.812-32.706-10.55-.994-5.164 20.543-.62 27.632.362 7.153.994 26.908 3.654 30.717-4.248l-54.385-6.753c.542-6.792 23.126-2.208 31.518-1.227s29.879 4.855 32.564-3.899c0 0-49.478-6.61-59.937-8.457 1.085-7.735 17.392-2.893 31.673-1.02 15.275 2.001 31.544 5.836 34.746-4.984-91.998-15.043-105.917-28.097-132.167 8.844-14.384-2.582-16.837-7.773-28.949-2.815-2.44-6.791-5.965-19.122-7.605-27.14s2.79-16.205 3.951-23.823c1.885-12.357-11.388-19.626-11.388-19.626-12.667-5.165-18.051 2.698-18.4 4.7-4.054.361-9.774.555-11.982 6.288 5.152-.491 8.586.361 10.743 1.213-.246 6.65 5.99 10.007 10.407 13.92 1.226 7.54-.104 14.216-1.976 20.065-1.136 3.86-6.624 17.302-6.3 24.571-10.795-5.694-17.703 1.162-27.84 2.957-25.19-38.594-45.088-24.416-131.96-9.916 4.623 9.826 22.829 6.378 30.188 5.487 14.888-1.794 35.87-6.843 37.02.853-16.192 2.285-53.392 7.037-60.429 7.863 2.944 9.477 17.896 6.107 26.082 5.204 17.819-1.963 36.309-6.392 38.271.477-11.607 1.627-50.808 6.095-55.715 6.482 5.178 9.232 18.89 6.469 24.159 5.953 6.546-.659 35.365-6.908 36.024-2.002 0 0-27.49 5.888-35.004 10.627 11.93 5.72 40.285 1.575 40.285 1.575" fill="#231f20" stroke-width=".51648"/>
            <path d="M229.35 146.88c-1.82.607-4.016 3.267-5.049 2.84-.697-.296-2.827-3.653-2.053-5.72.607-1.613 13.855-5.345 16.373 5.282-4.803-3.706-8.29-2.725-9.271-2.402" fill="#ed1c24" stroke-linejoin="round" stroke-miterlimit="2" stroke-width=".51648"/>
            <path d="M228.08 151.67a3.389 3.389 0 1 1 6.779 0 3.389 3.389 0 1 1-6.779 0" fill="#fff" stroke-miterlimit="2" stroke-width=".51648"/>
        </g>
    </g>
    <g fill="#17ae65" stroke="#231f20" stroke-linecap="square" stroke-miterlimit="2" stroke-width=".04">
        <path d="M324.04 410.88h6.314c-3.047 4.803-25.062 38.71-25.062 38.71l-5.023-1.962zM335.81 410.99c2.066 0 4.57.426 6.314.426-3.047 4.803-27.038 41.112-27.038 41.112l-5.01-1.963zM346.72 411.65c2.079 0 3.925.646 5.668.646-3.047 4.803-27.915 41.77-27.915 41.77l-5.45-1.098zM356.53 413.39c2.066 0 4.364 1.743 6.107 1.743-3.06 4.803-26.818 39.369-26.818 39.369h-7.205zM365.91 416.66c1.86.439 3.706 1.524 5.668 2.415-3.047 4.79-21.369 32.37-21.369 32.37l-9.387 2.621zM375.61 420.8c1.846.646 3.486 1.524 5.242 2.621-3.06 4.79-14.177 21.047-14.177 21.047l-10.033 4.57zM398.26 453.78c-.439 1.524-1.524 3.602-2.518 5.023-8.935-2.402-32.758-8.122-32.758-8.122l5.837-3.654zM388.99 465.88c-1.743 1.743-3.047 2.957-4.907 3.938-10.897-5.462-30.588-15.326-30.588-15.326l6.275-2.557zM376.45 475.06c-1.085 1.085-2.828 2.285-4.674 3.267-10.265-7.85-25.36-20.995-25.36-20.995l5.837-2.13zM365.22 481.15c-1.524.878-3.267 1.627-5.126 2.415-9.594-10.472-20.763-24.495-20.763-24.495l5.178-1.252zM352.9 485.94c-1.963.659-4.145.775-5.991 1.098-6.766-11.983-15.107-26.883-15.107-26.883l4.751-.814zM339.82 487.59c-1.743.426-4.364.323-6.21.22-4.804-11.996-10.743-28.187-10.743-28.187l4.958.27zM325.76 487.29c-1.524-.22-3.925-.542-5.785-.659-2.414-13.131-5.061-27.967-5.061-27.967l4.958.71zM314.31 485.65c-1.524-.22-3.925-.555-5.785-1.098-.878-10.936-2.233-28.406-2.233-28.406l5.397 1.588zM304.06 483.68c-1.524-.22-3.706-.981-5.565-1.524-.452-10.949-.917-28.187-.917-28.187l5.397 1.576zM332.32 314.33c2.737 0 3.925-.22 6.546 0-3.06 4.803-20.284 29.543-20.284 29.543l-4.145-2.609zM344.54 314.56c2.402-.22 3.383 0 5.991.22-3.047 4.79-23.112 33.584-23.112 33.584l-5.023-2.725zM355.77 315.54c1.86.103 3.602.439 5.126.749-3.047 4.816-24.43 35.87-24.43 35.87l-5.01-1.95zM365.15 317.28c1.524.22 3.486 1.085 4.57 1.627-3.046 4.803-22.789 34.578-22.789 34.578l-5.668-.439zM373.97 320.88c1.42.323 3.602 1.304 4.584 1.846-3.06 4.804-19.73 29.233-19.73 29.233l-6.985 1.408zM382.7 324.8c1.86.659 3.267 1.627 4.687 2.621-3.047 4.79-12.537 18.645-12.537 18.645l-8.29 3.267zM327.09 385.53c-2.066-.22-4.029-1.085-5.785-1.86-.865-5.551-6.21-34.771-6.21-34.771l5.888 2.944zM337.01 387.22c-2.182 0-3.383-.116-5.139-.865-.207-1.098-6.96-33.042-6.96-33.042l4.675 2.17zM349.99 387.44c-1.846.207-3.047.542-5.126.323-3.706-8.82-11.453-31.402-11.453-31.402l4.7 1.536zM362.63 385.04c-1.963.542-3.383.981-5.126 1.098-4.042-7.09-15.262-27.916-15.262-27.916l5.888.323zM374.79 380.88c-1.42.749-3.383 1.627-5.23 2.079-7.088-8.742-18.696-24.598-18.696-24.598l5.5-.826zM384.53 373.21c-1.317 1.2-2.724 2.621-4.364 3.602-8.174-7.204-21.525-19.794-21.525-19.794l6.25-1.794zM392.7 363.78c-.981 1.524-2.066 3.163-3.706 4.145-8.393-4.79-22.725-13.351-22.725-13.351l5.397-2.13zM398.2 353.53c-.439 1.524-1.304 3.163-2.285 4.57-8.948-2.375-22.738-6.145-22.738-6.145l4.738-3.215z" stroke-width=".51648"/>
    </g>
    <path d="M287.73 327.2c10.136 2.621 20.285 9.155 20.285 9.155s22.13 14.513 32.164 16.036 22.776-1.084 35.65-7.205c.439 1.085 2.065 2.622 2.724 3.706-10.472 7.412-23.087 9.981-32.048 10.252-21.072.62-47.438-20.284-56.05-21.911-.104-2.35-.646-4.468-2.725-10.033" fill="#df6e3a" stroke="#231f20" stroke-linecap="square" stroke-width=".51648"/>
    <g fill="#17ae65" stroke="#231f20" stroke-linecap="square" stroke-miterlimit="2" stroke-width=".04">
        <path d="M287.51 499.09c2.298-.22 5.23-.646 7.631-.646-3.047 4.79-14.384 20.608-14.384 20.608l-7.192.426zM300.38 498.33c2.285-.22 5.449 0 6.985.22-3.06 4.79-14.835 22.13-14.835 22.13l-6.327-1.523zM312.37 499.09c1.42 0 4.584.439 6.107.646-3.499 4.803-16.798 23.448-16.798 23.448l-5.23-1.524zM322.62 500.18c1.846 0 4.364.439 5.888.646-3.706 5.242-17.87 25.85-17.87 25.85l-5.023-1.537zM332.21 502.15c1.846 0 4.145.646 5.888 1.304-3.706 5.23-18.542 26.496-18.542 26.496l-5.01-1.744zM341.37 504.77c1.86.426 4.145 1.085 5.668 1.963-3.705 5.216-17.663 25.178-17.663 25.178l-5.669-.878zM350.31 508.47c2.079.426 4.364 1.524 5.668 2.389-3.705 5.23-14.164 20.168-14.164 20.168l-7.644 1.098zM359.04 512.83c1.627.439 3.486 1.963 4.364 2.828a2171.25 2171.25 0 0 1-8.509 11.892l-7.411 2.182zM377.66 535.45c-1.085 1.743-2.84 3.602-4.041 4.57-8.936-2.388-27.09-6.145-27.09-6.145l8.238-2.996zM365.77 545.92c-1.085 1.085-2.84 2.724-4.687 3.706-10.898-5.45-26.005-13.351-26.005-13.351l7.14-1.692zM352.36 553.99c-1.653.955-3.719 2.066-5.565 2.621-8.496-8.948-19.02-20.117-19.02-20.117l5.617-.607zM340.69 558.13c-1.524.865-3.925 1.2-5.785 1.524-6.753-9.594-15.959-24.908-15.959-24.908l6.702 1.15zM326.84 560.34c-1.743.22-4.584.103-6.43 0-4.145-11.556-10.743-28.187-10.743-28.187l6.056 1.808zM313.92 560.18c-1.524-.22-4.145-.555-6.004-.659-2.402-13.118-5.5-29.71-5.5-29.71l5.177 1.588zM302.47 558.75c-1.743 0-3.706-.103-5.785-.439-.878-10.936-2.66-30.795-2.66-30.795l5.385 1.588zM290.27 557.22c-1.524-.207-3.5-.542-5.346-1.085-.451-10.949.168-30.356.168-30.356l5.398 1.137zM279.94 555.32c-1.524 0-3.267-.336-5.565-.22.207-11.168-.052-29.052-.052-29.052l5.617-.167zM147.82 410.67h-6.327c3.06 4.79 25.075 38.697 25.075 38.697l5.023-1.962zM136.04 410.77c-2.066 0-4.57.439-6.314.439 3.047 4.79 27.038 41.099 27.038 41.099l5.01-1.963zM125.14 411.42c-2.079 0-3.925.659-5.668.659 3.047 4.803 27.915 41.757 27.915 41.757l5.45-1.085zM115.32 413.18c-2.066 0-4.364 1.743-6.107 1.743 3.06 4.79 26.818 39.356 26.818 39.356h7.205zM105.95 416.45c-1.846.439-3.706 1.524-5.668 2.402 3.047 4.79 21.369 32.37 21.369 32.37l9.387 2.621zM96.245 420.59c-1.86.646-3.486 1.524-5.23 2.621 3.048 4.79 14.178 21.034 14.178 21.034l10.02 4.57zM73.595 453.57c.439 1.524 1.524 3.602 2.505 5.01 8.935-2.389 32.77-8.122 32.77-8.122l-5.836-3.654zM82.862 465.67c1.743 1.743 3.047 2.944 4.907 3.912a20447.354 20447.354 0 0 0 30.588-15.313l-6.275-2.557zM95.399 474.82c1.085 1.085 2.828 2.298 4.687 3.28 10.252-7.85 25.36-20.995 25.36-20.995l-5.837-2.13zM106.63 480.94c1.524.865 3.267 1.627 5.126 2.389 9.594-10.459 20.763-24.481 20.763-24.481l-5.178-1.253zM118.95 485.73c1.963.646 4.145.749 5.991 1.085 6.766-11.996 15.107-26.883 15.107-26.883l-4.738-.814zM132.03 487.37c1.743.439 4.364.323 6.21.22 4.804-11.983 10.743-28.187 10.743-28.187l-4.958.27zM146.1 487.07c1.524-.22 3.925-.542 5.785-.659 2.414-13.118 5.061-27.967 5.061-27.967l-4.958.71zM157.55 485.43c1.524-.22 3.925-.542 5.785-1.085.89-10.949 2.233-28.406 2.233-28.406l-5.397 1.575zM167.8 483.46c1.524-.207 3.706-.968 5.552-1.524.465-10.936.93-28.174.93-28.174l-5.397 1.576zM139.53 314.11c-2.724 0-3.925-.207-6.533 0 3.034 4.79 20.271 29.543 20.271 29.543l4.145-2.609zM127.32 314.33c-2.402-.22-3.383 0-5.991.22 3.047 4.79 23.112 33.584 23.112 33.584l5.01-2.725zM116.09 315.32c-1.86.116-3.602.426-5.126.762 3.06 4.803 24.43 35.87 24.43 35.87l5.01-1.963zM106.71 317.07c-1.524.207-3.486 1.085-4.584 1.627 3.06 4.803 22.79 34.552 22.79 34.552l5.668-.426zM97.878 320.66c-1.42.323-3.602 1.304-4.584 1.86 3.06 4.79 19.743 29.22 19.743 29.22l6.972 1.407zM89.156 324.59c-1.86.646-3.267 1.627-4.687 2.621 3.047 4.79 12.537 18.632 12.537 18.632l8.29 3.28zM144.77 385.31c2.066-.22 4.029-1.085 5.785-1.846.865-5.565 6.21-34.772 6.21-34.772l-5.888 2.918zM134.84 387c2.182 0 3.383-.103 5.126-.865.22-1.098 6.973-33.042 6.973-33.042l-4.688 2.182zM121.87 387.22c1.86.22 3.047.542 5.126.323 3.706-8.832 11.453-31.402 11.453-31.402l-4.7 1.536zM109.22 384.83c1.963.542 3.383.981 5.126 1.085 4.042-7.09 15.262-27.916 15.262-27.916l-5.888.336zM97.061 380.66c1.42.762 3.383 1.627 5.23 2.066C109.378 374.01 121 358.14 121 358.14l-5.514-.826zM87.332 372.99c1.304 1.2 2.724 2.621 4.364 3.602 8.174-7.192 21.525-19.78 21.525-19.78l-6.263-1.796zM79.154 363.56c.981 1.524 2.079 3.163 3.706 4.145 8.393-4.79 22.738-13.351 22.738-13.351l-5.397-2.13zM73.647 353.31c.439 1.524 1.304 3.163 2.285 4.584 8.948-2.402 22.738-6.16 22.738-6.16l-4.738-3.214z" stroke-width=".51648"/>
    </g>
    <path d="M184.12 326.98c-10.136 2.621-20.272 9.168-20.272 9.168s-22.131 14.5-32.164 16.01c-10.032 1.537-22.79-1.084-35.65-7.179-.439 1.085-2.078 2.609-2.737 3.706 10.472 7.412 23.1 9.968 32.06 10.24 21.06.62 47.426-20.273 56.039-21.912.116-2.337.658-4.468 2.724-10.033" fill="#df6e3a" stroke="#231f20" stroke-linecap="square" stroke-width=".51648"/>
    <g fill="#17ae65" stroke="#231f20" stroke-linecap="square" stroke-miterlimit="2" stroke-width=".04">
        <path d="M184.34 498.87c-2.298-.22-5.23-.659-7.631-.659 3.047 4.804 14.384 20.621 14.384 20.621l7.205.426zM171.47 498.11c-2.285-.207-5.449 0-6.985.22 3.06 4.79 14.835 22.13 14.835 22.13l6.327-1.523zM159.48 498.87c-1.407 0-4.57.439-6.107.659 3.486 4.803 16.798 23.435 16.798 23.435l5.23-1.537zM149.23 499.96c-1.846 0-4.364.439-5.888.659 3.706 5.242 17.883 25.85 17.883 25.85l5.023-1.537zM139.64 501.92c-1.846 0-4.145.659-5.888 1.317 3.706 5.242 18.542 26.495 18.542 26.495l5.01-1.743zM130.48 504.53c-1.86.439-4.145 1.085-5.668 1.963 3.705 5.242 17.663 25.204 17.663 25.204l5.669-.891zM121.54 508.24c-2.079.439-4.364 1.524-5.668 2.415 3.705 5.229 14.164 20.155 14.164 20.155l7.644 1.098zM112.81 512.61c-1.627.439-3.486 1.963-4.364 2.84a2874.01 2874.01 0 0 0 8.509 11.88l7.411 2.182zM94.201 535.23c1.085 1.756 2.828 3.602 4.029 4.584 8.948-2.402 27.102-6.16 27.102-6.16l-8.238-2.995zM106.08 545.7c1.085 1.085 2.84 2.724 4.687 3.706 10.898-5.45 26.005-13.351 26.005-13.351l-7.14-1.692zM119.5 553.76c1.653.968 3.719 2.079 5.565 2.621 8.496-8.948 19.02-20.117 19.02-20.117l-5.617-.594zM131.16 557.91c1.524.878 3.925 1.2 5.785 1.524 6.753-9.581 15.972-24.908 15.972-24.908l-6.715 1.15zM145.01 560.12c1.743.22 4.584.103 6.43 0 4.145-11.556 10.743-28.187 10.743-28.187l-6.056 1.808zM157.93 559.96c1.524-.22 4.145-.542 6.004-.659 2.402-13.118 5.5-29.71 5.5-29.71l-5.177 1.588zM169.38 558.53a37.7 37.7 0 0 0 5.785-.426c.878-10.95 2.66-30.795 2.66-30.795l-5.398 1.575zM181.59 557.02c1.524-.22 3.486-.555 5.346-1.098.451-10.949-.168-30.356-.168-30.356l-5.398 1.137zM191.91 555.1c1.524 0 3.267-.323 5.552-.22-.194-11.168.065-29.064.065-29.064l-5.617-.142z" stroke-width=".51648"/>
    </g>
    <path d="M235.89 346.72c13.893-16.192 28.187-19.303 28.187-19.303 7.734-2.066 12.408-1.498 14.823-1.524 1.962 2.737 4.803 8.728 5.023 10.149 0 0-18.981-6.766-39.692 20.272l1.743 98.79c4.584-4.378 14.397-14.178 28.781-14.617 14.397-.44 37.07 13.286 57.575 13.286 13.519 0 25.514-6.533 35.753-10.884.878 1.097 1.537 3.047 1.976 4.35-13.093 8.07-26.393 13.74-40.79 13.74-21.369 0-37.07-10.253-53.636-10.02-12.667.155-24.649 16.992-29.22 23.977l.22 54.747c5.668-4.158 19.846-11.414 32.267-11.57 17.005-.219 36.205 10.214 43.836 11.996 10.252 2.402 20.711 0 32.706-3.486.659 1.085 1.098 3.486 1.524 4.57-12.422 4.585-21.137 6.25-30.085 5.902-13.3-.53-32.06-11.776-50.59-10.692-13.738.8-23.55 12.641-29.22 20.066l.97 52.37c-2.131 2.002-8.536 10.175-12.022 17.587-3.06-6.766-9.27-14.836-12.111-17.883l.89-52.294c-5.668-7.424-15.494-19.252-29.22-20.065-18.54-1.085-37.302 10.162-50.601 10.678-8.948.362-17.651-1.304-30.085-5.888.439-1.084.878-3.486 1.523-4.57 11.996 3.486 22.467 5.887 32.72 3.486 7.604-1.782 26.817-12.215 43.823-11.996 12.434.168 26.611 7.425 32.28 11.557l.206-54.734c-4.57-6.973-16.553-23.823-29.22-23.99-16.566-.22-32.267 10.032-53.636 10.032-14.397 0-27.696-5.656-40.776-13.739.426-1.304 1.084-3.266 1.962-4.364 10.253 4.364 22.235 10.91 35.754 10.91 20.517 0 43.177-13.738 57.574-13.299s24.21 10.24 28.781 14.617l1.743-98.777c-20.71-27.05-39.678-20.298-39.678-20.298.22-1.407 3.047-7.411 5.01-10.136 2.427.04 7.088-.542 14.823 1.524 0 0 14.048 3.163 28.109 19.523" fill="#df6e3a"/>
    <path d="M235.89 346.72c13.893-16.192 28.187-19.303 28.187-19.303 7.734-2.066 12.408-1.498 14.823-1.524 1.962 2.737 4.803 8.728 5.023 10.149 0 0-18.981-6.766-39.692 20.272l1.743 98.79c4.584-4.378 14.397-14.178 28.781-14.617 14.397-.44 37.07 13.286 57.575 13.286 13.519 0 25.514-6.533 35.753-10.884.878 1.097 1.537 3.047 1.976 4.35-13.093 8.07-26.393 13.74-40.79 13.74-21.369 0-37.07-10.253-53.636-10.02-12.667.155-24.649 16.992-29.22 23.977l.22 54.747c5.668-4.158 19.846-11.414 32.267-11.57 17.005-.219 36.205 10.214 43.836 11.996 10.252 2.402 20.711 0 32.706-3.486.659 1.085 1.098 3.486 1.524 4.57-12.422 4.585-21.137 6.25-30.085 5.902-13.3-.53-32.06-11.776-50.59-10.692-13.738.8-23.55 12.641-29.22 20.066l.97 52.37c-2.131 2.002-8.536 10.175-12.022 17.587-3.06-6.766-9.27-14.836-12.111-17.883l.89-52.294c-5.668-7.424-15.494-19.252-29.22-20.065-18.54-1.085-37.302 10.162-50.601 10.678-8.948.362-17.651-1.304-30.085-5.888.439-1.084.878-3.486 1.523-4.57 11.996 3.486 22.467 5.887 32.72 3.486 7.604-1.782 26.817-12.215 43.823-11.996 12.434.168 26.611 7.425 32.28 11.557l.206-54.734c-4.57-6.973-16.553-23.823-29.22-23.99-16.566-.22-32.267 10.032-53.636 10.032-14.397 0-27.696-5.656-40.776-13.739.426-1.304 1.084-3.266 1.962-4.364 10.253 4.364 22.235 10.91 35.754 10.91 20.517 0 43.177-13.738 57.574-13.299s24.21 10.24 28.781 14.617l1.743-98.777c-20.71-27.05-39.678-20.298-39.678-20.298.22-1.407 3.047-7.411 5.01-10.136 2.427.04 7.088-.542 14.823 1.524 0 0 14.048 3.163 28.109 19.523z" fill="none" stroke="#231f20" stroke-linecap="square" stroke-miterlimit="10" stroke-width=".51648"/>
</svg>
