<svg xmlns="http://www.w3.org/2000/svg" xml:space="preserve" viewBox="30.5 31.5 430 500" height="500" width="430">
    <path d="M459 33v278.528c0 90.282.986 137.212-41.797 176.832C375.15 527.303 340.627 530 288.135 530h-85.27c-52.492 0-87.016-2.697-129.068-41.64C31.014 448.74 32 401.81 32 311.528V33h427z" style="fill:#e00e00;fill-rule:evenodd;stroke:none;stroke-width:1px;stroke-linecap:butt;stroke-linejoin:miter;stroke-opacity:1;fill-opacity:1"/>
    <path style="fill:#ffe000;fill-opacity:1;fill-rule:evenodd;stroke:none;stroke-width:1px;stroke-linecap:round;stroke-linejoin:round;stroke-opacity:1" d="M180.638 279.32c27.529-19.37 50.636-41.126 70.847-66.443 35.967-45.052 62.065-94.968 82.022-117.952 29.524-34.003 54.923-53.22 64.58-61.746l-20.479-.265C362.838 43.71 329.98 76.48 329.98 76.48s-.71-19.703-1.961-43.456l-16.66.076-.34 10.343-20.337 24.194-.575-34.314-21.725.316s-20.12 13.97-25.707 17.16l-.683-17.2-15.856-.075.627 38.545-28.054-22.435-.454-16.01-16.674-.358-34.55 21.552-.304-21.785-14.317.157-.01 5.25-49.446 30.473.398-35.809-24.708-.083-2.072 90.943-24.77-22.08v31.596l25.724 33.572-5.746 192.345-19.01 20.052c.073 14.634 4.692 47.093 5.556 47.543 45.426-68.844 87.853-109.354 142.313-147.672Z"/>
    <path style="fill:#ffe000;fill-opacity:1;fill-rule:evenodd;stroke:#000;stroke-width:1px;stroke-linecap:butt;stroke-linejoin:miter;stroke-opacity:1" d="M57.269 470.042c29.507-57.191 48.59-80.846 77.67-109.012 37.83-36.642 77.873-62.153 113.376-95.575 30.973-29.157 59.536-80.858 93.772-134.378 27.378-42.8 60.58-70.987 91.735-98.007l-21.345-.043c-16.85 14.072-46.768 39.06-72.31 71.564-35.635 45.35-59.015 96.475-102.54 141.32-42.5 43.79-74.194 54.875-129.253 111.209-24.843 25.417-48.414 57.976-64.022 88.988 3.313 8.83 7.649 16.554 12.917 23.934z"/>
    <path style="fill:none;fill-opacity:1;fill-rule:evenodd;stroke:none;stroke-width:1px;stroke-linecap:round;stroke-linejoin:round;stroke-opacity:1" d="M180.638 279.32c27.529-19.37 50.636-41.126 70.847-66.443 35.967-45.052 62.065-94.968 82.022-117.952 29.524-34.003 54.923-53.22 64.58-61.746l-20.479-.265C362.838 43.71 329.98 76.48 329.98 76.48s-.71-19.703-1.961-43.456l-16.66.076-.34 10.343-20.337 24.194-.575-34.314-21.725.316s-20.12 13.97-25.707 17.16l-.683-17.2-15.856-.075.627 38.545-28.054-22.435-.454-16.01-16.674-.358-34.55 21.552-.304-21.785-14.317.157-.01 5.25-49.446 30.473.398-35.809-24.708-.083-2.072 90.943-24.77-22.08v31.596l25.724 33.572-5.746 192.345-19.01 20.052c.073 14.634 4.692 47.093 5.556 47.543 45.426-68.844 87.853-109.354 142.313-147.672Z"/>
    <path d="M365.803 342.372c1.433-.65 3.227 1.682 7.17 8.468 3.944 6.786 5.251 9.323 3.98 10.253l-12.413 9.08c2.787 7.604 4.35 16.97 3.778 26.024l14.392 5.322c1.477.546 1.109 3.467-.866 11.063s-2.832 10.319-4.389 10.084l-15.208-2.286c-3.373 7.363-8.896 14.994-15.674 21l6.354 14.082c.647 1.435-1.69 3.224-8.486 7.15-6.795 3.927-9.335 5.228-10.262 3.955l-9.049-12.435c-7.611 2.767-16.923 4.192-25.737 3.626l-5.099 14.55c-.543 1.477-3.464 1.118-11.065-.835-7.602-1.954-10.327-2.803-10.097-4.36l2.244-15.215c-7.373-3.697-15.02-8.853-20.993-15.676l-13.955 6.46c-1.428.664-3.243-1.652-7.25-8.401-4.006-6.749-5.337-9.274-4.075-10.215l12.328-9.195c-2.857-7.578-4.392-16.872-3.905-25.932l-14.53-5.316c-1.479-.541-1.124-3.463.818-11.067 1.942-7.605 2.787-10.331 4.344-10.103l15.563 2.278c3.341-7.378 8.775-14.852 15.527-20.911l-6.566-13.234c-.7-1.41 1.625-3.258 8.34-7.32 6.715-4.064 9.228-5.416 10.18-4.162l9.126 12.02c7.554-2.921 17.065-4.42 26.129-4.01l5.29-14.403c.542-1.478 3.464-1.117 11.064.842 7.6 1.958 10.325 2.809 10.094 4.366l-2.253 15.214c7.37 3.356 15.014 8.862 21.06 15.628z" style="fill:#ffe000;fill-opacity:1;fill-rule:evenodd;stroke:#000;stroke-width:1px;stroke-linecap:butt;stroke-linejoin:miter;stroke-opacity:1"/>
    <circle r="46.915" cy="392.45" cx="303.004" style="opacity:.98999999;fill:#e00e00;fill-opacity:1;fill-rule:evenodd;stroke:#000;stroke-width:1;stroke-linecap:round;stroke-linejoin:round;stroke-miterlimit:4;stroke-dasharray:none;stroke-opacity:1"/>
    <circle style="opacity:.98999999;fill:#ffe000;fill-opacity:1;fill-rule:evenodd;stroke:#000;stroke-width:1;stroke-linecap:round;stroke-linejoin:round;stroke-miterlimit:4;stroke-dasharray:none;stroke-opacity:1" cx="303.004" cy="392.45" r="34.052"/>
    <path style="fill:#ffe000;fill-opacity:1;fill-rule:evenodd;stroke:#000;stroke-width:1;stroke-linecap:butt;stroke-linejoin:miter;stroke-miterlimit:4;stroke-dasharray:none;stroke-opacity:1" d="M412.36 234.526c.807-.842 2.684.269 7.265 3.853 4.582 3.583 6.18 4.97 5.561 5.959l-6.042 9.665c4.011 4.465 7.665 10.48 9.765 16.867l11.368-.3c1.166-.031 1.717 2.08 2.45 7.85.732 5.77.892 7.88-.244 8.147l-11.094 2.614c-.294 5.995-1.993 12.767-5.004 18.765l8.25 7.94c.84.81-.276 2.684-3.87 7.257-3.596 4.573-4.985 6.167-5.973 5.546l-9.65-6.065c-4.476 4-10.49 7.544-16.711 9.581l.497 11.415c.033 1.166-2.076 1.723-7.844 2.472-5.768.748-7.877.915-8.148-.22l-2.645-11.088c-6.09-.514-12.772-1.956-18.76-5.006l-7.824 8.287c-.8.85-2.687-.244-7.302-3.785-4.614-3.54-6.225-4.912-5.616-5.907l5.951-9.72c-4.052-4.429-7.667-10.401-9.826-16.77l-11.462.343c-1.166.035-1.726-2.073-2.484-7.84-.757-5.767-.926-7.876.208-8.148l11.336-2.717c.268-5.997 1.949-12.635 4.927-18.664l-8.161-7.298c-.87-.778.22-2.689 3.723-7.333 3.501-4.645 4.858-6.267 5.859-5.666l9.589 5.758c4.393-4.09 10.525-7.74 16.875-9.952l-.326-11.367c-.033-1.167 2.077-1.723 7.845-2.467 5.77-.745 7.878-.91 8.148.225l2.638 11.089c5.996.28 12.77 1.964 18.793 4.956z"/>
    <circle r="32.408" cy="286.2" cx="382.917" style="opacity:.98999999;fill:#e00e00;fill-opacity:1;fill-rule:evenodd;stroke:#000;stroke-width:1;stroke-linecap:round;stroke-linejoin:round;stroke-miterlimit:4;stroke-dasharray:none;stroke-opacity:1"/>
    <circle style="opacity:.98999999;fill:#ffe000;fill-opacity:1;fill-rule:evenodd;stroke:#000;stroke-width:1;stroke-linecap:round;stroke-linejoin:round;stroke-miterlimit:4;stroke-dasharray:none;stroke-opacity:1" cx="382.917" cy="286.2" r="19.957"/>
    <circle r="11.337" cy="286.2" cx="382.917" style="opacity:.98999999;fill:#e00e00;fill-opacity:1;fill-rule:evenodd;stroke:#000;stroke-width:1;stroke-linecap:round;stroke-linejoin:round;stroke-miterlimit:4;stroke-dasharray:none;stroke-opacity:1"/>
    <path d="M454.302 33.007c-42.657 26.584-69.866 65.389-88.428 90.325-34.211 45.958-51.384 84.98-82.509 123.536-39.452 48.871-90.143 78.984-132.46 119.247-39.9 37.963-62.482 75.115-78.072 121.284 2.005 2.485 21.484 18.625 22.431 18.152 8.877-46.59 38.483-85.118 65.226-116.39 34.243-40.043 66.156-59.06 104.8-94.689 22.055-20.334 38.907-37.909 55.147-65.067 19.9-32.03 40.17-68.736 67.164-103.899 24.219-31.547 46.857-59.648 71.388-73.033L459 33Z" style="fill:#ffe000;fill-opacity:1;fill-rule:evenodd;stroke:none;stroke-width:1px;stroke-linecap:butt;stroke-linejoin:miter;stroke-opacity:1"/>
    <path d="m84.256 133.082.215 41.901 18.93-20.595zM124.592 153.029l7.085 6.57.132-17.377zM132.255 47.977c-20.96 15.859-49.058 40.137-49.058 40.137l.278 26.114 30.607 28.89 17.86-19.616zM148.962 68.049l.51 31.255 32.8 22.236-.59-77.587zM149.677 112.21l3.65 162.768 28.162-20.17c-.758-128.119-.363-114.457-.363-114.457zM225.758 119.739l-23.248 22.835 2.798 90.987c8.187-6.532 16.054-13.598 22.985-22.224zM249.044 184.813l-3.558-69.42 25.54 18.85.391 20.669c-6.461 10.963-14.241 20.608-22.373 29.9zM268.692 48.414l-24.193 19.894.584 39.556 25.53 11.677zM310.827 57.903l-19.783 26.753.801 38.14 18.878-22.593zM199.341 61.757l26.514 30.161-.058 14.432-24.165 17.358zM115.106 167.094l-29.71 44.065-.488 116.748c14.586-13.015 28.95-26.701 43.536-38.456l2.183-104.931z" style="fill:#e00e00;fill-opacity:1;fill-rule:evenodd;stroke:#000;stroke-width:1px;stroke-linecap:butt;stroke-linejoin:miter;stroke-opacity:1"/>
    <path d="m132.398 38.44-.143 9.537M131.942 121.502l-.133 20.72M124.592 153.029l-9.486 14.065M114.082 143.117l-10.68 11.271M83.475 114.228l.781 18.854M225.797 106.35l-.04 13.389M245.083 107.864l.403 7.53M268.381 33.64l.31 14.774M311.019 43.443l-.192 14.46M198.708 49.634l.633 12.123M181.58 33.266l.102 10.687M149.473 99.304l.204 12.905" style="fill:none;fill-rule:evenodd;stroke:#000;stroke-width:1px;stroke-linecap:butt;stroke-linejoin:miter;stroke-opacity:1"/>
    <path style="fill:none;fill-opacity:1;fill-rule:evenodd;stroke:#000;stroke-width:1px;stroke-linecap:butt;stroke-linejoin:miter;stroke-opacity:1" d="M95.264 505.55c9.071-46.225 38.643-85.304 65.226-116.389 34.243-40.043 66.156-59.06 104.8-94.689 22.055-20.334 38.907-37.909 55.147-65.067 19.9-32.03 40.17-68.736 67.164-103.899 24.219-31.547 46.857-59.648 71.388-73.033m-4.687-19.466c-42.657 26.584-69.866 65.389-88.428 90.325-34.211 45.958-51.384 84.98-82.509 123.536-39.452 48.871-90.143 78.984-132.46 119.247-39.9 37.963-62.482 75.115-78.072 121.284"/>
    <path style="fill:none;fill-rule:evenodd;stroke:#000;stroke-width:1px;stroke-linecap:butt;stroke-linejoin:miter;stroke-opacity:1" d="M459 33v278.528c0 90.282.986 137.212-41.797 176.832C375.15 527.303 340.627 530 288.135 530h-85.27c-52.492 0-87.016-2.697-129.068-41.64C31.014 448.74 32 401.81 32 311.528V33h427z"/>
    <path d="m58.643 33.021-2.072 90.943-24.77-22.08v31.596l25.724 33.572-5.746 192.345-19.01 20.052m5.556 47.543c45.426-68.844 87.853-109.354 142.313-147.672 27.529-19.37 50.636-41.126 70.847-66.443 35.967-45.052 62.065-94.968 82.022-117.952 29.524-34.003 54.923-53.22 64.58-61.746m-20.479-.265C362.838 43.71 329.98 76.48 329.98 76.48s-.71-19.703-1.961-43.456m-16.66.076-.34 10.343-20.337 24.194-.575-34.314m-21.725.316s-20.12 13.97-25.707 17.16l-.683-17.2m-15.856-.075.627 38.545-28.054-22.435-.454-16.01m-16.674-.358-34.55 21.552-.304-21.785m-14.317.157-.01 5.25-49.446 30.473.398-35.809" style="fill:none;fill-opacity:1;fill-rule:evenodd;stroke:#000;stroke-width:1px;stroke-linecap:round;stroke-linejoin:round;stroke-opacity:1"/>
    <circle r="14.342" cy="392.45" cx="303.004" style="opacity:.98999999;fill:#e00e00;fill-opacity:1;fill-rule:evenodd;stroke:#000;stroke-width:1;stroke-linecap:round;stroke-linejoin:round;stroke-miterlimit:4;stroke-dasharray:none;stroke-opacity:1"/>
    <circle style="opacity:.98999999;fill:#ffe000;fill-opacity:1;fill-rule:evenodd;stroke:#000;stroke-width:1;stroke-linecap:round;stroke-linejoin:round;stroke-miterlimit:4;stroke-dasharray:none;stroke-opacity:1" cx="303.004" cy="392.45" r="4.679"/>
    <circle style="opacity:.98999999;fill:#ffe000;fill-opacity:1;fill-rule:evenodd;stroke:#000;stroke-width:1;stroke-linecap:round;stroke-linejoin:round;stroke-miterlimit:4;stroke-dasharray:none;stroke-opacity:1" cx="382.917" cy="286.2" r="4.633"/>
</svg>
