<svg xmlns="http://www.w3.org/2000/svg" xml:space="preserve" viewBox="30.5 31.5 400 500" height="500" width="400">
    <path d="M230.45 531.13c-74.32-53.92-125.26-122.02-155.74-208.16-27.64-78.1-38.73-172.75-33.91-289.35l.02-.46h379.82l.02.46c4.81 116.6-6.28 211.24-33.91 289.35-30.48 86.14-81.42 154.24-155.74 208.16l-.28.2-.28-.2z" style="fill:#e00e00"/>
    <path d="M419.96 33.21c9.07 219.45-36.25 385.95-189.45 497.1C146.04 469.02 94.36 390.9 66.52 296.34a557.24 557.24 0 0 1-5.87-21.54c-11.45-45.69-17.77-95.02-19.88-147.94-1.2-30.06-1.05-61.28.29-93.65h378.9m.92-.95H40.14l-.04.92c-4.82 116.66 6.28 211.36 33.93 289.52 30.51 86.24 81.51 154.41 155.91 208.39l.56.41.56-.41c74.4-53.98 125.4-122.15 155.91-208.39 27.65-78.16 38.75-172.86 33.93-289.52l-.04-.92z"/>
    <path d="M265.696 437.766c-10.306-8.512-28.739-21.88-28.739-37.84v-28.802c6.853 9.716 15.22 19.533 24.002 24.438 6.985 3.9 23.99 5.018 32.294-.437 20.09-13.198 32.79-33.673 44.949-51.058 25.548-36.53 37.073-83.823 47.785-127.865 10.372-42.64 13.679-96.367 15.274-142.266-9.723 10.474-25.143 29.17-32.948 38.621-2.155 31.295-7.137 71.396-13.965 103.427-9.958 46.72-26.164 91.632-55.422 130.047-2.718 3.568-9.823-.684-6.764-5.019 27.502-38.982 36.361-69.816 44.294-97.535 10.674-37.298 15.604-79.343 16.801-109.973-6.582 6.325-22.572 24.17-29.64 32.35-4.49 25.747-4.251 43.92-13.345 76.314-7.512 26.761-17.617 51.275-38.185 81.17-2.949 4.287-8.948-1.367-6.11-5.455 17.1-24.63 25.72-46.706 33.005-73.26 5.645-20.579 8.754-43.788 10.24-59.1-10 11.614-22.222 25.06-34.953 41.589-4.605 22.372-12.134 47.349-18.273 59.66-4.366 8.756-10.47 11.483-14.457 8.855-5.593-3.688-4.63-12.79-4.582-18.111l1.091-119.137 29.675-37.748V64.553l-29.675 33.821V84.41h-15.096v13.964l-29.675-33.82v56.077l29.675 37.748 1.09 119.137c.05 5.322 1.013 14.423-4.581 18.11-3.987 2.629-10.09-.098-14.457-8.854-6.14-12.311-13.668-37.288-18.273-59.66-12.73-16.529-24.952-29.975-34.953-41.59 1.486 15.313 4.595 38.522 10.24 59.102 7.285 26.553 15.905 48.63 33.004 73.259 2.839 4.088-3.16 9.742-6.11 5.455-20.567-29.895-30.672-54.409-38.184-81.17-9.094-32.394-8.856-50.567-13.346-76.314-7.067-8.18-23.057-26.025-29.64-32.35 1.198 30.63 6.128 72.675 16.802 109.973 7.933 27.719 16.792 58.553 44.294 97.535 3.059 4.335-4.046 8.587-6.764 5.019-29.258-38.415-45.464-83.327-55.422-130.047-6.828-32.031-11.81-72.132-13.965-103.427-7.805-9.452-23.225-28.147-32.948-38.62 1.595 45.898 4.902 99.624 15.274 142.265 10.712 44.042 22.237 91.336 47.785 127.865 12.16 17.385 24.86 37.86 44.95 51.058 8.302 5.455 25.308 4.337 32.293.437 8.782-4.905 17.149-14.722 24.002-24.438v28.802c0 15.96-18.433 29.328-28.74 37.84 14.992 14.026 28.43 31.182 35.197 55.55 6.767-24.368 20.205-41.524 35.196-55.55z" style="fill:#ffe000;fill-opacity:1;fill-rule:evenodd;stroke:#000;stroke-width:1px;stroke-linecap:butt;stroke-linejoin:miter;stroke-opacity:1"/>
</svg>
