<svg xmlns="http://www.w3.org/2000/svg" xml:space="preserve" viewBox="30.5 31.5 420 500" height="500" width="420">
    <path style="fill-rule:evenodd;fill:#ffe000;fill-opacity:1" d="M440 32.7c2.09 102.46-3.38 187.49-43.93 296.59-28.05 75.48-74.21 144.77-155.57 201.59-81.36-56.82-127.52-126.11-155.57-201.59C44.38 220.19 38.91 135.16 41 32.7c133 .29 266 0 399 0z"/>
    <path style="fill:none;stroke:#000" d="M440 32.7c2.09 102.46-3.38 187.49-43.93 296.59-28.05 75.48-74.21 144.77-155.57 201.59-81.36-56.82-127.52-126.11-155.57-201.59C44.38 220.19 38.91 135.16 41 32.7c133 .29 266 0 399 0z"/>
    <path d="M212.766 259.005c11.26 19.767 29.404 41.077 52.502 63.785-24.933-4.137-59.286-18.347-76.12-42.681-17.668 13.085-44.921 24.615-72.077 25.512 40.054-40.43 64.824-59.086 107.864-87.217l-.024-7.364 14.814-12.165-.467-5.584 7.063-6.166 5.864 1.002 187.89-152.16.245 48.117-169.53 128.892v4.386l-7.269 5.757-4.405-1.272-15.091 12.176-7.438-2.166z" style="fill:#000;fill-rule:evenodd;stroke:#000;stroke-width:.30000001;stroke-linecap:round;stroke-linejoin:round;stroke-miterlimit:4;stroke-dasharray:none;stroke-opacity:1"/>
    <circle r="4.994" cy="181.85" cx="285.597" style="opacity:1;fill:#ffe000;fill-opacity:1;fill-rule:evenodd;stroke:none;stroke-width:.27060524;stroke-linecap:round;stroke-linejoin:round;stroke-miterlimit:4;stroke-dasharray:none;stroke-opacity:1"/>
    <path style="fill:#000;fill-rule:evenodd;stroke:#000;stroke-width:.3;stroke-linecap:round;stroke-linejoin:round;stroke-miterlimit:4;stroke-dasharray:none;stroke-opacity:1" d="m315.572 32.8-97.727 74.3v4.386l-7.269 5.757-4.405-1.272-15.09 12.177-7.438-2.166-23.822 27.148c11.26 19.767 29.404 41.076 52.502 63.784-24.933-4.137-59.285-18.346-76.12-42.68-17.668 13.084-44.92 24.614-72.077 25.512 40.054-40.43 64.824-59.086 107.865-87.217l-.025-7.365L186.78 93l-.467-5.584 7.063-6.165 5.865 1.001 61.082-49.466z"/>
    <circle style="opacity:1;fill:#ffe000;fill-opacity:1;fill-rule:evenodd;stroke:none;stroke-width:.27060524;stroke-linecap:round;stroke-linejoin:round;stroke-miterlimit:4;stroke-dasharray:none;stroke-opacity:1" cx="235.309" cy="73.317" r="4.994"/>
    <path style="fill:#000;fill-rule:evenodd;stroke:#000;stroke-width:.3;stroke-linecap:round;stroke-linejoin:round;stroke-miterlimit:4;stroke-dasharray:none;stroke-opacity:1" d="m421.38 247.183-96.56 73.412v4.386l-7.268 5.757-4.405-1.272-15.091 12.176-7.438-2.166-23.821 27.148c11.26 19.767 29.404 41.077 52.502 63.785-24.933-4.137-59.286-18.347-76.121-42.681-17.668 13.084-44.92 24.614-72.076 25.512 40.054-40.43 64.824-59.086 107.864-87.217l-.024-7.364 14.814-12.165-.467-5.584 7.063-6.166 5.864 1.002 125.605-101.72c-2.835 17.862-6.297 35.585-10.442 53.157z"/>
    <circle style="opacity:1;fill:#ffe000;fill-opacity:1;fill-rule:evenodd;stroke:none;stroke-width:.27060524;stroke-linecap:round;stroke-linejoin:round;stroke-miterlimit:4;stroke-dasharray:none;stroke-opacity:1" cx="340.513" cy="289.468" r="4.994"/>
</svg>
