<svg xmlns="http://www.w3.org/2000/svg" width="400" height="500" viewBox="30.5 31.5 400 500" xml:space="preserve">
    <path style="fill:#e00e00;fill-opacity:1" d="M230.45 531.13c-74.32-53.92-125.26-122.02-155.74-208.16-27.64-78.1-38.73-172.75-33.91-289.35l.02-.46h379.82l.02.46c4.81 116.6-6.28 211.24-33.91 289.35-30.48 86.14-81.42 154.24-155.74 208.16l-.28.2-.28-.2z"/>
    <path d="M419.96 33.21c9.07 219.45-36.25 385.95-189.45 497.1C146.04 469.02 94.36 390.9 66.52 296.34a557.24 557.24 0 0 1-5.87-21.54c-11.45-45.69-17.77-95.02-19.88-147.94-1.2-30.06-1.05-61.28.29-93.65h378.9m.92-.95H40.14l-.04.92c-4.82 116.66 6.28 211.36 33.93 289.52 30.51 86.24 81.51 154.41 155.91 208.39l.56.41.56-.41c74.4-53.98 125.4-122.15 155.91-208.39 27.65-78.16 38.75-172.86 33.93-289.52l-.04-.92z"/>
    <path d="M191.284 406.127c1.252-6.176 9.224-6.834 12.719-10.37 3.421-3.46 4.94-9.43 9.647-14.562 3.962-4.319 6.73-4.562 6.764-9.938.02-3.371-4.913-9.227-8.73-14.68 3.726-5.323 8.072-10.26 8.305-16.295-9.741-2.56-17.633-10.865-21.115-18.759-3.73-8.457-6.487-25.805-6.487-43.973 0-14.69-3.039-27.698-10.068-41.05H278.68c-7.028 13.352-10.067 26.36-10.067 41.05 0 18.168-2.756 35.516-6.487 43.973-3.482 7.894-11.374 16.2-21.115 18.759.233 6.034 4.58 10.972 8.306 16.295-3.818 5.453-8.752 11.309-8.73 14.68.033 5.376 2.801 5.62 6.763 9.938 4.707 5.131 6.226 11.101 9.647 14.562 3.495 3.536 11.467 4.194 12.719 10.37H230.5zM96.284 261.127c1.252-6.176 9.224-6.834 12.719-10.37 3.421-3.46 4.94-9.43 9.647-14.562 3.962-4.319 6.73-4.562 6.764-9.938.02-3.371-4.913-9.227-8.73-14.68 3.726-5.323 8.072-10.26 8.305-16.295-9.741-2.56-17.633-10.865-21.115-18.759-3.73-8.457-6.487-25.805-6.487-43.973 0-14.69-3.039-27.698-10.068-41.05H183.68c-7.028 13.352-10.067 26.36-10.067 41.05 0 18.168-2.756 35.516-6.487 43.973-3.482 7.894-11.374 16.2-21.115 18.759.233 6.034 4.58 10.972 8.306 16.295-3.818 5.453-8.752 11.309-8.73 14.68.033 5.376 2.801 5.62 6.763 9.938 4.707 5.131 6.226 11.101 9.647 14.562 3.495 3.536 11.467 4.194 12.719 10.37H135.5zM286.284 261.127c1.252-6.176 9.224-6.834 12.719-10.37 3.421-3.46 4.94-9.43 9.647-14.562 3.962-4.319 6.73-4.562 6.764-9.938.02-3.371-4.913-9.227-8.73-14.68 3.726-5.323 8.072-10.26 8.305-16.295-9.741-2.56-17.633-10.865-21.115-18.759-3.73-8.457-6.487-25.805-6.487-43.973 0-14.69-3.039-27.698-10.068-41.05H373.68c-7.028 13.352-10.067 26.36-10.067 41.05 0 18.168-2.756 35.516-6.487 43.973-3.482 7.894-11.374 16.2-21.115 18.759.233 6.034 4.58 10.972 8.306 16.295-3.818 5.453-8.752 11.309-8.73 14.68.033 5.376 2.801 5.62 6.763 9.938 4.707 5.131 6.226 11.101 9.647 14.562 3.495 3.536 11.467 4.194 12.719 10.37H325.5z" style="fill:#fff;fill-rule:evenodd;stroke:#000;stroke-width:1px;stroke-linecap:butt;stroke-linejoin:round;stroke-opacity:1"/>
</svg>
