<svg xmlns="http://www.w3.org/2000/svg" xml:space="preserve" viewBox="30.5 31.5 420 500" height="500" width="420">
    <path style="fill:#0085ca;fill-opacity:1;fill-rule:evenodd" d="M440 32.7c2.09 102.46-3.38 187.49-43.93 296.59-28.05 75.48-74.21 144.77-155.57 201.59-81.36-56.82-127.52-126.11-155.57-201.59C44.38 220.19 38.91 135.16 41 32.7c133 .29 266 0 399 0z"/>
    <path d="M83.5 32.75c0 19.566 0 38.21-4.961 48.576-5.404 11.291-17.875 24.981-37.02 29.714.198 14.329 1.989 33.398 3.385 49.684 5.761 11.602 18.68 26.615 38.596 30.776 0 18.343 0 35.822-4.961 45.54-2.989 5.855-8.14 12.732-15.385 18.473-.373.296-1.137.878-1.137.878 6.814 29.112 23.871 76.442 29.707 90.064 20.29-4.239 33.224-19.695 38.815-31.379 4.961-10.366 4.961-29.01 4.961-48.576-20.29-3.974-33.448-18.506-39.04-29.46-4.96-9.718-4.96-27.197-4.96-45.54 20.29-4.239 33.448-19.74 39.04-31.424 4.96-10.366 4.96-29.01 4.96-48.576-20.29-4.239-33.448-18.49-39.04-30.174-4.96-10.366-4.96-29.01-4.96-48.576M397.5 32.75c0 19.566 0 38.21 4.961 48.576 5.404 11.291 17.875 24.981 37.02 29.714-.198 14.329-1.989 33.398-3.385 49.684-5.761 11.602-18.68 26.615-38.596 30.776 0 18.343 0 35.822 4.961 45.54 2.989 5.855 8.14 12.732 15.385 18.473.373.296 1.137.878 1.137.878-6.814 29.112-23.871 76.442-29.707 90.064-20.29-4.239-33.224-19.695-38.815-31.379-4.961-10.366-4.961-29.01-4.961-48.576 20.29-3.974 33.448-18.506 39.039-29.46 4.961-9.718 4.961-27.197 4.961-45.54-20.29-4.239-33.448-19.74-39.039-31.424-4.961-10.366-4.961-29.01-4.961-48.576 20.29-4.239 33.448-18.49 39.039-30.174C389.5 70.96 389.5 52.316 389.5 32.75M295.5 32.75c0 19.566 0 38.21 4.961 48.576 5.591 11.684 18.75 25.935 39.039 30.174 0 19.566 0 38.21-4.961 48.576-5.591 11.684-18.75 27.185-39.039 31.424 0 18.343 0 35.822 4.961 45.54 5.591 10.954 18.75 25.486 39.039 29.46 0 19.566 0 38.21-4.961 48.576-5.591 11.684-18.75 27.185-39.039 31.424 0 18.343 0 35.822 4.961 45.54 5.591 10.954 18.776 25.353 39.039 29.46 2.524.511 6.093 1.166 8.966 1.337-16.187 23.06-31.148 43.691-67.915 76.693 0 0-.65-.238-.972-.362-15.825-6.074-26.291-19.006-31.118-29.092-4.961-10.366-4.961-29.01-4.961-48.576 20.29-3.974 33.448-18.506 39.039-29.46 4.961-9.718 4.961-27.197 4.961-45.54-20.29-4.239-33.448-19.74-39.04-31.424-4.96-10.366-4.96-29.01-4.96-48.576 20.29-3.974 33.448-18.506 39.039-29.46 4.961-9.718 4.961-27.197 4.961-45.54-20.29-4.239-33.448-19.74-39.04-31.424-4.96-10.366-4.96-29.01-4.96-48.576 20.29-4.239 33.448-18.49 39.039-30.174C287.5 70.96 287.5 52.316 287.5 32.75M185.5 32.75c0 19.566 0 38.21-4.961 48.576-5.591 11.684-18.75 25.935-39.039 30.174 0 19.566 0 38.21 4.961 48.576 5.591 11.684 18.75 27.185 39.039 31.424 0 18.343 0 35.822-4.961 45.54-5.591 10.954-18.75 25.486-39.039 29.46 0 19.566 0 38.21 4.961 48.576 5.591 11.684 18.75 27.185 39.039 31.424 0 18.343 0 35.822-4.961 45.54-5.591 10.954-18.776 25.353-39.039 29.46-2.524.511-6.093 1.166-8.966 1.337 16.187 23.06 31.148 43.691 67.915 76.693 0 0 .65-.238.972-.362 15.825-6.074 26.291-19.006 31.118-29.092 4.961-10.366 4.961-29.01 4.961-48.576-20.29-3.974-33.448-18.506-39.04-29.46-4.96-9.718-4.96-27.197-4.96-45.54 20.29-4.239 33.448-19.74 39.04-31.424 4.96-10.366 4.96-29.01 4.96-48.576-20.29-3.974-33.448-18.506-39.04-29.46-4.96-9.718-4.96-27.197-4.96-45.54 20.29-4.239 33.448-19.74 39.04-31.424 4.96-10.366 4.96-29.01 4.96-48.576-20.29-4.239-33.448-18.49-39.04-30.174-4.96-10.366-4.96-29.01-4.96-48.576" style="fill:#fff;fill-rule:evenodd;stroke:none;stroke-width:1px;stroke-linecap:butt;stroke-linejoin:miter;stroke-opacity:1"/>
    <path style="fill:none;stroke:#000" d="M440 32.7c2.09 102.46-3.38 187.49-43.93 296.59-28.05 75.48-74.21 144.77-155.57 201.59-81.36-56.82-127.52-126.11-155.57-201.59C44.38 220.19 38.91 135.16 41 32.7c133 .29 266 0 399 0z"/>
    <path style="fill:none;fill-rule:evenodd;stroke:#000;stroke-width:1px;stroke-linecap:butt;stroke-linejoin:miter;stroke-opacity:1" d="M185.5 32.75c0 19.566 0 38.21-4.961 48.576-5.591 11.684-18.75 25.935-39.039 30.174 0 19.566 0 38.21 4.961 48.576 5.591 11.684 18.75 27.185 39.039 31.424 0 18.343 0 35.822-4.961 45.54-5.591 10.954-18.75 25.486-39.039 29.46 0 19.566 0 38.21 4.961 48.576 5.591 11.684 18.75 27.185 39.039 31.424 0 18.343 0 35.822-4.961 45.54-5.591 10.954-18.776 25.353-39.039 29.46-2.524.511-6.093 1.166-8.966 1.337m67.915 76.693s.65-.238.972-.362c15.825-6.074 26.291-19.006 31.118-29.092 4.961-10.366 4.961-29.01 4.961-48.576-20.29-3.974-33.448-18.506-39.04-29.46-4.96-9.718-4.96-27.197-4.96-45.54 20.29-4.239 33.448-19.74 39.04-31.424 4.96-10.366 4.96-29.01 4.96-48.576-20.29-3.974-33.448-18.506-39.04-29.46-4.96-9.718-4.96-27.197-4.96-45.54 20.29-4.239 33.448-19.74 39.04-31.424 4.96-10.366 4.96-29.01 4.96-48.576-20.29-4.239-33.448-18.49-39.04-30.174-4.96-10.366-4.96-29.01-4.96-48.576M83.5 32.75c0 19.566 0 38.21-4.961 48.576-5.404 11.291-17.875 24.981-37.02 29.714m3.385 49.684c5.761 11.602 18.68 26.615 38.596 30.776 0 18.343 0 35.822-4.961 45.54-2.989 5.855-8.14 12.732-15.385 18.473-.373.296-1.137.878-1.137.878m29.707 90.064c20.29-4.239 33.224-19.695 38.815-31.379 4.961-10.366 4.961-29.01 4.961-48.576-20.29-3.974-33.448-18.506-39.04-29.46-4.96-9.718-4.96-27.197-4.96-45.54 20.29-4.239 33.448-19.74 39.04-31.424 4.96-10.366 4.96-29.01 4.96-48.576-20.29-4.239-33.448-18.49-39.04-30.174-4.96-10.366-4.96-29.01-4.96-48.576M295.5 32.75c0 19.566 0 38.21 4.961 48.576 5.591 11.684 18.75 25.935 39.039 30.174 0 19.566 0 38.21-4.961 48.576-5.591 11.684-18.75 27.185-39.039 31.424 0 18.343 0 35.822 4.961 45.54 5.591 10.954 18.75 25.486 39.039 29.46 0 19.566 0 38.21-4.961 48.576-5.591 11.684-18.75 27.185-39.039 31.424 0 18.343 0 35.822 4.961 45.54 5.591 10.954 18.776 25.353 39.039 29.46 2.524.511 6.093 1.166 8.966 1.337M280.55 499.53s-.65-.238-.972-.362c-15.825-6.074-26.291-19.006-31.118-29.092-4.961-10.366-4.961-29.01-4.961-48.576 20.29-3.974 33.448-18.506 39.039-29.46 4.961-9.718 4.961-27.197 4.961-45.54-20.29-4.239-33.448-19.74-39.04-31.424-4.96-10.366-4.96-29.01-4.96-48.576 20.29-3.974 33.448-18.506 39.039-29.46 4.961-9.718 4.961-27.197 4.961-45.54-20.29-4.239-33.448-19.74-39.04-31.424-4.96-10.366-4.96-29.01-4.96-48.576 20.29-4.239 33.448-18.49 39.039-30.174C287.5 70.96 287.5 52.316 287.5 32.75M397.5 32.75c0 19.566 0 38.21 4.961 48.576 5.404 11.291 17.875 24.981 37.02 29.714m-3.385 49.684c-5.761 11.602-18.68 26.615-38.596 30.776 0 18.343 0 35.822 4.961 45.54 2.989 5.855 8.14 12.732 15.385 18.473.373.296 1.137.878 1.137.878m-29.707 90.064c-20.29-4.239-33.224-19.695-38.815-31.379-4.961-10.366-4.961-29.01-4.961-48.576 20.29-3.974 33.448-18.506 39.039-29.46 4.961-9.718 4.961-27.197 4.961-45.54-20.29-4.239-33.448-19.74-39.039-31.424-4.961-10.366-4.961-29.01-4.961-48.576 20.29-4.239 33.448-18.49 39.039-30.174C389.5 70.96 389.5 52.316 389.5 32.75"/>
</svg>
