<svg xmlns="http://www.w3.org/2000/svg" width="400" height="500" viewBox="30.5 31.5 400 500" xml:space="preserve">
    <path d="M230.55 531.13c74.32-53.92 125.26-122.02 155.74-208.16 27.64-78.1 38.73-172.75 33.91-289.35l-.02-.46H40.36l-.02.46c-4.81 116.6 6.28 211.24 33.91 289.35 30.48 86.14 81.42 154.24 155.74 208.16l.28.2.28-.2z" fill="#0085ca"/>
    <path d="M41.04 33.21c-9.07 219.45 36.25 385.95 189.45 497.1 84.47-61.29 136.15-139.41 163.99-233.97a557.24 557.24 0 0 0 5.87-21.54c11.45-45.69 17.77-95.02 19.88-147.94 1.2-30.06 1.05-61.28-.29-93.65H41.04m-.92-.95H420.86l.04.92c4.82 116.66-6.28 211.36-33.93 289.52-30.51 86.24-81.51 154.41-155.91 208.39l-.56.41-.56-.41c-74.4-53.98-125.4-122.15-155.91-208.39C46.38 244.54 35.28 149.84 40.1 33.18l.04-.92z"/>
    <path d="M290.32 79.71c-1.59 4.74-3.55 10.48-6.17 10.96-1.04 4.08-4.25 9.71-5.72 11.55-.53.66-6.23.12-5.99-.56.9-2.5 1.84-6.06 2.29-9.65-14.7.86-14.34 15.34-5.97 17.31 1 .6 2.37-4.28 2.97-5.77.15-.38 5.3-.02 5.23.59-.31 2.91-3.25 7.89-2.7 8.37 1.95 1.68-4.44 6.45-7.58 6.37-10.25-.26-26.08 12.29-20.11 22.05 17.53 43.39 90.11 42.74 71.57 135.31-4.53 22.63-15.02 40.8-23.18 61.77-1.01 2.61-.36 5.57.32 8.59 7.49 33.16 15.31 83.72-10.97 109.55-13.24 13.04-38.5 24.03-47.76 23.64-7.94-.28-23.65-39.17-18.06-53.9 4.67-12.3 11.31-18.35 18.14-23.93 11.37-9.28 33.54-37 28.42-51.99-2.77-8.1-11.24-11.44-13.83.04-.89 3.96.32 7.92-3.96 9.11-63.19 19.94-59.09 31.04-64.82 38.07-4.14 5.08-3.85-6.82-5.14-11-.7-2.29-6.62-1.02-11.13 1.58-3.58 2.09-4.73-1.82-.67-10.75 1.36-3 2.25-5.34-4.37-4.95-4.97.29-8.42 1.29-6.87-1.85 2.74-5.55 12.15-10.44 25.19-13.33 16.35-1.99 45.34-1.9 36.58-12.71-1.45-1.79.02-3.49-20.62-3.47-16.59.01-22.72-2.36-50.71 15.72-4.9 3.16-4.15 1.37-3.83-4.02.2-3.33 1.84-7.58 2-9.6.14-1.68-1.6-2.31-4.7-1.68-7.9 1.62-9.15 8.09-10.35 2.82-.23-2.64.15-8.67 5.1-15.31 2.14-2.87-.38-3.09-3.54-3.03-4.64.08-11 1.11-8.93-1.83 6.62-9.46 19.64-12.6 39.47-6.77 6.7 1.97 14.93 3.89 24.18 6.24 4.99 1.27-6.04-13.3-9-20.07-9.22-21.07-12.15-47.57 20.69-66.29-17.68-26.06-15.28-41.79-21.55-41.79-22-.1-26.04-8.62-42.36-11.52-20.28-3.61-17.5 11.02-20.58 8.53-5.87-3.51-1.72-11.38-4.51-10.49-5.36.64-5.09 5.33-7.35 7.15-4.82-1.03-4.51-7.76-3.53-10.39-.2-1.83-5.11 4.62-5.71 2.13-1-4.38 7.56-19.12 25.87-18.03 16.55.98 33.06-2.18 37.61-9.08-16.82-4.81-31.43-35.09-42.68-38.27-3.44-.97-10.02 6.08-10.7 6.18-2.47.38-1.21-6.6-1.35-7.69-.34-2.65-7.08 3.82-8.34 3.31-4.11-1.65 3.3-10.08 3.03-11.16-.31-1.2-6.82 1.18-5.52-1.31.15-4.58 12.99-10.17 25.77-6.32 18.68 5.64 26.07 16.98 44.8 17.47 24.56.64 30.72-35.86 49.92-51.15 15.04-11.97 28.01-13.57 43.55-11.4 12.06 1.68 27.46 10.83 36.02 17.4 4.93.92 5.19 7.07 1.92 8.91z" style="fill:#fff;stroke-miterlimit:4;stroke:#000"/>
    <path d="M259.94 69.34a1.97 1.97 0 0 1-3.94 0 1.97 1.97 0 1 1 3.94 0z"/>
    <path d="M232.02 63.22c-11.74 2.57-12.9 7.98-6.63 16.76M205.98 243.38c-10.41 8.15-23.71 19.57-23.92 39.78-.18 17.42 22.44 44.12 35.01 62.55" style="fill:none;stroke-linecap:round;stroke-miterlimit:4;stroke:#000"/>
    <path d="M284.15 90.67c-2.11.4-7.83 1.21-9.42 1.34M268.76 109.32c2.63 1.26 5.06 2.79 5.79 3.44" style="fill:none;stroke-miterlimit:4;stroke:#000"/>
</svg>
