<svg xmlns="http://www.w3.org/2000/svg" width="400" height="500" viewBox="30.5 31.5 400 500" xml:space="preserve">
    <path d="M230.56 531.14c74.32-53.92 125.26-122.02 155.74-208.16 27.64-78.1 38.73-172.75 33.91-289.35l-.02-.46H40.37l-.02.46c-4.81 116.6 6.28 211.24 33.91 289.35 30.48 86.14 81.42 154.24 155.74 208.16l.28.2.28-.2z" style="fill:#fff;fill-opacity:1"/>
    <path d="M41.04 33.21C31.97 252.66 77.3 419.16 230.5 530.31c153.19-111.15 198.51-277.65 189.44-497.1H41.04m-.92-.95H420.86l.04.92c4.82 116.66-6.28 211.36-33.93 289.52-30.51 86.24-81.51 154.41-155.91 208.39l-.56.41-.56-.41c-74.4-53.98-125.4-122.15-155.91-208.39C46.38 244.54 35.28 149.84 40.1 33.18l.04-.92z"/>
    <path style="fill:#32ac60;fill-opacity:1;fill-rule:evenodd;stroke:#000;stroke-width:1;stroke-linecap:butt;stroke-linejoin:miter;stroke-miterlimit:4;stroke-dasharray:none;stroke-opacity:1" d="M209.506 255.675c-6.162 16.238 6.732 5.301 5.839 14.258-.71 7.132-14.753 12.228-18.19 20.32-1.567 3.688-2.126 9.572 2.19 10.228 4.839.736 8.757 1.543 7.224 5.806-2.573 7.152-11.112 10.37-14.35 18.18-2.49 6.007-3.356 19.565 3.943 19.264 7.7-.317 9.846 3.478 9.318 8.47-.391 3.698-5.998 18.044 4.176 17.278 3.76-.283 6.017 1.117 7.95 4.222 2.876 4.623 6.255 14.998 12.894 14.998 6.64 0 10.018-10.375 12.895-14.998 1.932-3.105 4.188-4.505 7.949-4.222 10.174.766 4.567-13.58 4.176-17.279-.528-4.99 1.618-8.786 9.318-8.469 7.3.3 6.433-13.257 3.943-19.264-3.238-7.81-11.777-11.028-14.35-18.18-1.533-4.263 2.385-5.07 7.224-5.806 4.316-.656 3.757-6.54 2.19-10.228-3.437-8.092-17.48-13.188-18.19-20.32-.893-8.957 12.001 1.98 5.839-14.258-2.633-6.937-13.127-25.073-20.994-25.073-7.867 0-18.361 18.136-20.994 25.073zM254.472 237.354c13.181 11.273 7.255-4.538 15.372-.675 6.462 3.075 6.512 17.993 12.957 23.955 2.937 2.717 8.279 5.229 10.352 1.394 2.325-4.3 4.406-7.71 7.895-4.83 5.854 4.832 5.995 13.944 12.243 19.623 4.805 4.368 17.255 9.759 19.436 2.798 2.301-7.345 6.593-8.08 11.105-5.9 3.344 1.616 14.935 11.728 17.65 1.908 1.002-3.63 3.08-5.278 6.65-6.046 5.316-1.143 16.208-.817 18.449-7.057 2.24-6.24-6.37-12.917-9.743-17.18-2.266-2.865-2.82-5.458-1.285-8.897 4.154-9.303-11.222-8.877-14.83-9.757-4.87-1.189-7.712-4.487-4.815-11.617 2.747-6.758-10.288-10.52-16.774-10.208-8.434.407-14.34 7.346-21.93 7.35-4.525.002-3.96-3.953-3.018-8.749.84-4.278-4.88-5.739-8.874-5.511-8.765.499-18.295 11.976-25.237 10.237-8.72-2.184 5.911-10.61-11.43-10.3-7.408.132-27.996 3.873-30.652 11.267-2.655 7.394 10.848 23.379 16.48 28.195zM206.528 237.354c-13.181 11.273-7.255-4.538-15.372-.675-6.462 3.075-6.512 17.993-12.957 23.955-2.937 2.717-8.279 5.229-10.352 1.394-2.325-4.3-4.406-7.71-7.895-4.83-5.854 4.832-5.995 13.944-12.243 19.623-4.805 4.368-17.255 9.759-19.436 2.798-2.301-7.345-6.593-8.08-11.105-5.9-3.344 1.616-14.935 11.728-17.65 1.908-1.002-3.63-3.08-5.278-6.65-6.046-5.316-1.143-16.208-.817-18.449-7.057-2.24-6.24 6.37-12.917 9.743-17.18 2.266-2.865 2.82-5.458 1.285-8.897-4.154-9.303 11.222-8.877 14.83-9.757 4.87-1.189 7.712-4.487 4.815-11.617-2.747-6.758 10.288-10.52 16.774-10.208 8.434.407 14.34 7.346 21.93 7.35 4.525.002 3.96-3.953 3.018-8.749-.84-4.278 4.88-5.739 8.874-5.511 8.765.499 18.295 11.976 25.237 10.237 8.72-2.184-5.911-10.61 11.43-10.3 7.408.132 27.996 3.873 30.652 11.267 2.655 7.394-10.848 23.379-16.48 28.195zM271.406 182.408c14.772-8.941-2.025-8.275 4.161-14.742 4.925-5.15 19.044-.539 26.692-4.77 3.486-1.928 7.529-6.194 4.55-9.352-3.338-3.54-5.913-6.572-2.1-8.971 6.396-4.026 15.053-1.314 22.374-5.448 5.629-3.178 14.613-13.265 8.713-17.5-6.225-4.47-5.58-8.756-2.11-12.341 2.572-2.657 15.751-10.457 7.314-16.09-3.118-2.082-4.027-4.56-3.638-8.176.579-5.382 4.288-15.576-.911-19.643-5.2-4.067-14.201 1.988-19.285 3.846-3.415 1.248-6.04.962-8.812-1.563-7.498-6.832-11.896 7.837-13.855 10.973-2.644 4.232-6.649 5.89-12.485.924-5.532-4.706-13.158 6.442-14.888 12.671-2.249 8.1 2.468 15.85.101 23.028-1.41 4.278-4.973 2.51-9.213.121-3.783-2.13-6.95 2.821-7.981 6.668-2.265 8.442 5.61 21.036 1.798 27.056-4.788 7.561-8.186-8.902-13.307 7.589-2.188 7.045-5.08 27.676 1.082 32.496 6.16 4.819 25.488-2.956 31.8-6.776zM189.594 182.408c-14.772-8.941 2.025-8.275-4.161-14.742-4.925-5.15-19.044-.539-26.692-4.77-3.486-1.928-7.529-6.194-4.55-9.352 3.338-3.54 5.913-6.572 2.1-8.971-6.396-4.026-15.053-1.314-22.374-5.448-5.629-3.178-14.613-13.265-8.713-17.5 6.225-4.47 5.58-8.756 2.11-12.341-2.572-2.657-15.751-10.457-7.314-16.09 3.118-2.082 4.027-4.56 3.638-8.176-.579-5.382-4.288-15.576.911-19.643 5.2-4.067 14.201 1.988 19.285 3.846 3.415 1.248 6.04.962 8.812-1.563 7.498-6.832 11.896 7.837 13.855 10.973 2.644 4.232 6.649 5.89 12.485.924 5.532-4.706 13.158 6.442 14.888 12.671 2.249 8.1-2.468 15.85-.101 23.028 1.41 4.278 4.973 2.51 9.213.121 3.783-2.13 6.95 2.821 7.981 6.668 2.265 8.442-5.61 21.036-1.798 27.056 4.788 7.561 8.186-8.902 13.307 7.589 2.188 7.045 5.08 27.676-1.082 32.496-6.16 4.819-25.489-2.956-31.8-6.776z"/>
</svg>
