<svg xmlns="http://www.w3.org/2000/svg" width="400" height="500" viewBox="30.5 31.5 400 500" xml:space="preserve">
    <path fill="#ffe000" d="M230.55 531.13c74.32-53.92 125.26-122.02 155.74-208.16 27.64-78.1 38.73-172.75 33.91-289.35l-.02-.46H40.36l-.02.46c-4.81 116.6 6.28 211.24 33.91 289.35 30.48 86.14 81.42 154.24 155.74 208.16l.28.2.28-.2z"/>
    <path d="M41.04 33.21c-9.07 219.45 36.25 385.95 189.45 497.1 84.47-61.29 136.15-139.41 163.99-233.97a557.24 557.24 0 0 0 5.87-21.54c11.45-45.69 17.77-95.02 19.88-147.94 1.2-30.06 1.05-61.28-.29-93.65H41.04m-.92-.95H420.86l.04.92c4.82 116.66-6.28 211.36-33.93 289.52-30.51 86.24-81.51 154.41-155.91 208.39l-.56.41-.56-.41c-74.4-53.98-125.4-122.15-155.91-208.39C46.38 244.54 35.28 149.84 40.1 33.18l.04-.92z"/>
    <path style="fill:#000;stroke:none" d="M117.262 200.166c8.72-5.61 20.23 8 21.75 9.4 1.29 1.2 8.25-.14 9.75 1.39 2.89 2.94 5.24 6.86 7.86 11.25 2.82 5.21 4.55 12.09 1.06 15.61-12.12 12.2-16.71 16.84-25.46 24.3-6.94 5.92-6.6 18.65-6.67 18.93 1.41 8.9 1 21.67 4.55 26.71 1.68 2.39 3.92 2.78 6.32 3.46 2.6.73 2-2.49.85-2.66-4.34-.65-6.19-5.84-4.91-7.78.3-.45 2-.93 2.04-.2.19 3.15 3.5 6.69 5.59 6.03.4-.13 1.62-.93.68-1.85-1.66-1.62-2.9-3.24-3.09-4.86-.3-2.59 1.45-2.5 2.41-1.4.93 1.07.84 1.88 4.78 1.71 1.69-.07 2.12-1.96 1.39-2.33-4.08-2.07-5.83-3.84-4.7-7.14 3.74-12.5 32.64-4.32 53.52-26.17 2.33-2.43-2.53 13.41-4.28 20.25-1.92 7.5-.926 14.523-8.676 15.083-8.2.59-15.95 2.35-19.03 9.37-1.15 2.63 1.39 4.6 3.53 1.51 1.33-1.92 2.8-4.87 5.98-5.76.98-.27 3.08.65 1.72 1.47-2.7 1.64-4.03 2.79-4.82 4.89-.5 1.33.34 4.43 3.07 1 1.51-1.9 2.61-2.65 5.14-3.29.55-.14 2.75 0 1.51 1.26-.93.94-2.61 2.47-2.4 3.57.25 1.33 1.98.81 2.49.33l1.1-1.06c2.39-2.29 1.78 1.81 3.59 1.81h15.71c5.55 0 4.68-5.28 7.59-8.26 8.38-8.58 20.766-24.833 25.116-35.213 1.7-4.08 3.05-4.7 8.62-5.73 10.8-1.99 28.54-5.52 29.22-2.69 2.34 9.75 8.96 12.18 7.14 16.71-3.11 7.74-5.16 22.233-9.92 22.383-3.8.11-7.13.17-10.7 1.03-7.77 1.86-10.78 4.48-11.21 7.62-.28 2.01 2.5 3.13 2.92 1.98 1.14-3.2 3.44-5.13 7.08-6.02.69-.17 3.48.34 1.53 1.21-2.53 1.13-4.45 1.26-5.62 4.38-.41 1.1.42 2.73 1.42 1.64 2.42-2.63 3.49-3.2 5.94-3.85 1.51-.4 2.57.73.84 1.03-1.34.23-2.02 1.37-3.03 2.8-.68.96.88 1.39 2 .7 1.54-.94 3.61-2.89 3.66-.68.02.99-.19.96.86.96h19.55c6.11 0 18.45-21.843 27.31-32.593 2.3-2.8-2.6-22.24.46-19.76 9.32 7.52 13.26 10.23 22.73 16.04 3.47 2.13.815 22.233-1.655 22.043-12.66-.96-21.49 6.32-23.09 10.14-1.3 3.1 2.14 3.02 2.96 1.53 1.75-3.17 3.69-4.56 6.71-5.65 1.28-.46 2.07.67 1.29 1.06-1.93.97-3.71 1.31-5.05 3.85-1.16 2.2 1.27 3.61 2.1 1.98.71-1.42 1.16-1.9 2.73-2.16 2.7-.44-.57 1.21-.91 2.2-.68 2 1.75 1.33 2.7 1.32h29.49c2.54 0 7.805-22.093 11.735-33.863 1.11-3.31-9.58-12.28-6.44-11.95 5.2.54 8.47.9 5.9-3.03-2.49-3.8-7.92-9.02-4.5-8.38 2.34.44 7.51 2.43 5.74-1.16-2.41-4.9-6.38-11.7-3.88-9.93 4.86 3.42 7.12 4.76 8.3 1.63 4.05-10.64 8.74-34.77 5.04-48.66-3.67-13.81-19.94-33.67-33.99-42.69-15.57-9.99-42.4-9.16-61.78-9.47-16.21-.26-22.96-6.54-30.89-11.64-11.18-7.19-12.8-14.44-36.71-12.73-17.38 1.24-27.31 10.95-39.44 8.28-23.08-5.07-28.07 5.26-32.06-.36-1.84-2.59-6.26-7.75-13.49-6.63-5 .77-10.19 6.89-7.62 13.81 1.27 3.42-16.13 14.74-21.57 21.38-3.12 2.99.6 7.03-1.24 9-6.66 6.53-14.01 12.38-21.58 18.01 2.68 3 6.08 5.35 8.54 5.67 2.63.34 4.92-.3 7.45-1.79 7.02-4.1 13.96-6.6 23.13-3.49 2.51.85 3.69 4.5 1.16 6.13l-16.84 10.87c6.97 4.56 15.56.28 21.9-3.79z"/>
    <path style="fill:#ffe000;fill-opacity:1;stroke:none" d="M98.282 164.756c.17 1.51 2.08 2.32 5.46 1.28 1.83-.56 1.78-5.87-1.29-5.59-3.54.33-4.49 1.54-4.17 4.3z"/>
    <path style="fill:#000;stroke:none" d="M108.332 193.156c-7.26 1.54-10.55 2.41-15.14 7.34-7.27 7.81-17.21 10.04-22.23 3.88 18.98-2.12 17.06-11.46 27.13-12.85 2.56-.35 5.93-.73 10.25 1.62z"/>
</svg>
