<svg xmlns="http://www.w3.org/2000/svg" width="400" height="500" viewBox="30.5 31.5 400 500" xml:space="preserve">
    <path style="fill:#32ac60;fill-opacity:1" d="M230.44 531.14C156.12 477.22 105.18 409.12 74.7 322.98c-27.64-78.1-38.73-172.75-33.91-289.35l.02-.46h379.82l.02.46c4.81 116.6-6.28 211.24-33.91 289.35-30.48 86.14-81.42 154.24-155.74 208.16l-.28.2-.28-.2z"/>
    <path d="M419.96 33.21c9.07 219.45-36.26 385.95-189.46 497.1C77.31 419.16 31.99 252.66 41.06 33.21h378.9m.92-.95H40.14l-.04.92c-4.82 116.66 6.28 211.36 33.93 289.52 30.51 86.24 81.51 154.41 155.91 208.39l.56.41.56-.41c74.4-53.98 125.4-122.15 155.91-208.39 27.65-78.16 38.75-172.86 33.93-289.52l-.04-.92z"/>
    <path d="M50.68 93.133c7.915-1.45 12.283-5.58 25.113-7.585 15.37-2.402 31.595 4.389 41.543 16.995 4.006 5.077 7.577 10.993 8.5 17.84.238 1.763 13.183 10.979 22.062 14.88.363-2.704 1.574-7.32.27-7.836-17.063-6.738-26.674-34.455-18.235-67.539 8.578 13.201 26.305 15.664 33.094 38.992 2.608 8.962 2.52 22.736-6.858 28.313-.43 2.15-1.437 8.82.138 9.976 10.313 7.56 23.367 16.061 36.569 26.273 7.73 5.98 13.648 14.227 23.522 19.572 1.47.796 3.203-5.117 2.958-11.43-.218-5.621-2.005-11.56-6.944-13.363-12.067 2.597-26.476-6.202-35.148-21.978-4.677-8.509-7.827-19.128-3.63-30.899 10.803 10.645 29.169 15.165 35.256 28.681 2.04 4.529 5.784 8.716 5.484 15.93-.08 1.918 1.304 2.439 4.048 4.402 1.494 1.069 1.523-14.42.8-21.88-16.472-13.453-18.429-34.166-13.36-46.407 4.698-11.343 15.043-17.68 19.278-29.037 4.587 10.858 13.98 17.818 19.49 27.21 3.678 6.27 6.017 14.544 2.936 22.45-3.408 8.745-8.763 18.086-16.857 25.644-1.339 6.05-1.27 14.695.833 21.843.506 1.719 2.844-1.383 4.68-4.778.733-6.149 1.145-12.5 2.983-16.825 9.87-23.217 33.654-22.052 37.287-32.4.05 4.61.598 11.619 1.354 14.803 4.6 19.354-17.358 44.822-38.565 42.935-3.83 1.757-6.434 7.13-6.654 13.999-.214 6.667 1.942 12.289 4.556 10.168 4.805-3.9 5.951-7.856 9.099-11.32 19.97-21.972 35.097-24.17 49.16-38.226 2.11-2.109 3.498-7.209-.946-10.139-7.626-5.026-9.249-14.959-5.928-24.523 3.605-10.384 12.718-20.478 17.809-27.246 6.578-8.746 12.53-8.195 18.526-13.066 12.217 63.473-15.819 64.856-18.362 68.798-.347.538-.506 3.45.47 3.032 4.537-1.941 14.783-4.954 21.61-9.037 2.018-18.255 16.622-27.157 30.869-31.183 13.217-3.734 29.422-2.359 47.449 3.09-7.087 9.403-14.455 20.93-22.834 29.774-4.233 4.468-7.585 6.747-14.867 7.85-9.233 1.4-15.962 8.585-34.146-.425-.298-.579-17.242 6.658-20.708 11.511-.825 1.155.981 1.184 3.128 1.35 1.22.096 3.715-1.913 6.164-2.524 19.143-4.772 46.214 9.604 50.005 16.514 4.504 8.211 12.578 15.636 15.188 23.937-18.285-1.96-25.584 2.88-41.077-.805-16.281-3.874-31.456-13.665-36.088-29.63-1.495-2.074-10.403-2.693-11.11-.89-7.328 18.701-9.895 2.717-26.969 19.292 3.655.574 6.34-.756 9.962-1.092 7.32-.68 16.55-4.896 26.967-.042 17.758 8.275 40.968 26.091 44.015 42.869-7.234-2.487-17.514-2.979-25.572-2.341-32.374 2.561-53.827-7.18-53.95-29.254-.016-3.03-2.44-3.51-6.892-2.977-6.775.812-13.89 14.346-17.107 26.98-.972 3.817-.574 17.533.825 28.399.767 5.963 3 9.417 1.764 12.404-1.436 3.466 17.99 13.915 37.234 11.126 5.737-26.111 67.501-7.018 72.561 4.487 5.375 12.22-3.807 24.518-16.696 27.731-7.633 1.903-17.107 2.089-27.375-.732-2.126-.585-11.368-3.499-18.827-6.662-7.308-3.099-12.878-5.439-11.027-16.688-20.674 2.519-34.457-7.346-41.982-13.175-2.359-1.827-3.603-1.38-3.103-.237 7.722 17.64 40.704 21.712 55.875 47.28 14.644-7.465 34.276-.134 45.395 11.57 7.044 7.415 11.894 20.646 10.819 25.61-2.8 12.92-8.44 17.688-17.865 21.53-10.39 4.236-26.553-2.558-42.133-13.156-12.444-8.465-15.056-31.966-2.86-40.063-8.524-15.552-22.085-22.21-35.387-29.69-6.767-3.806-14.772-8.867-18.748-16.684-2.02-3.973-7.274-7.285-6.514-1.83 1.825 13.092-5.106 21.628 10.7 31.426 11.31-3.718 21.393-.914 32.452 17.663 4.571 7.68.655 27.185-19.652 28.012-13.19.536-25.98-26.72-19.723-38.66 1.669-3.185-3.047-7.053-5.126-8.898-3.492-3.099-7.896 23.988-5.806 34.029 1.352 6.494 18.232 19.255 28.569 32.661 19.207-16.79 43.401 4.47 49.576 18.918 20.279 47.448-21.463 46.663-43.239 27.065-16.063-14.457-22.5-25.674-11.902-38.473-5.937-11.207-12.23-18.406-20.563-25.193-3.059-2.492 8.136 42.093 5.03 63.25 13.781-.644 21.295 6.099 25.052 14.963 4.669 11.012 5.613 20.69 1.43 32.754-8.859 25.558-5.992 26.154-25.6 33.176-19.56 7.005-33.612-20.468-38.572-35.273-4.745-14.162 6.813-36.285 15.37-43.057 3.768-2.982 8.996-4.009 14.277-3.317 1.938-15.636-4.425-39.473-5.623-55.193-.511-6.711-4.35-.644-13.963 8.995-2.674 2.681 3.569 9.847 4.183 14.144 2.55 17.836-13.068 31.626-23.275 39.516-19.89 15.375-61.962 6.861-30.624-38.285 1.739-2.504 11.248-16.826 26.567-19.642 4.377-.805 12.464.09 16.796-1.543 5.248-1.978 18.918-14.374 18.372-17.974-2.447-16.13-1.342-30.513 4.723-47.821 1.237-3.53-6.904 3.663-12.308 11.989 7.59 10.194.536 22.858-5.962 31.831-15.502 21.408-35.335 1.909-23.127-20.369 3.815-6.961 8.565-18.074 21.115-14.917 4.784-7.67 14.507-13.829 17.614-18.013 3.279-4.416 2.699-4.87 2.973-12.251.137-3.677-.562-4.034-1.632-2.196-16.468 28.288-30.199 18.099-54.552 46.745 15.25 22.633-4.744 40.518-17.455 48.659-22.467 14.39-41.07-3.488-42.986-16.814-1.715-11.93 6.317-26.018 21.459-36.265 8.425-5.702 16.463-8.509 33.58-1.663 14.148-21.365 39.685-24.662 51.372-41.739 1.136-1.66.558-4.154-.492-3.155-6.683 6.356-14.71 9.815-21.045 11.535-13.91 3.777-23.476-.302-23.767 2.184-1.1 9.385-18.812 22.153-40.626 22.079-16.176-.055-28.61-8.23-32.208-16.246-2.402-5.35-2.14-11.029.067-16.207 2.927-6.866 15.814-12.031 34.439-13.46 8.35-.64 19.953-2.239 28.118 1.906 8.445 4.288 5.877 9.745 12.395 12.883 11.47 5.52 35.006-5.02 33.692-8.238-1.258-2.786-3.258-3.018-1.609-6.524 2.184-4.642 3.702-14.66 3.758-23.46.051-8.005-2.006-16.766-5.644-23.374-2.426-4.408-9.349-11.42-10.707-12.47-.705-.545-8.124-2.576-8.652 2.124-2.191 19.524-9.473 21.043-18.867 24.555-15.049 5.625-36.169.76-55.664 3.071 4.927-19.944 32.723-43.166 67.974-36.62 2.671.497 4.626-.452 4.961-2.39-7.332-12.208-24.11-3.333-24.775-18.391-2.227-1.589-3.23-3.28-9.06-.409.93 11.431-5.31 18.558-23.48 25.906-12.357 4.997-27.67 9.127-53.633 3.537 20.914-25.068 34.336-48.566 67.575-35.464 2.976-.29 5.67.497 8.066-2.112l-16.554-10.661c-3.36-2.165-7.4.66-9.89 1.222-17.415 3.942-26.754 2.411-35.082-1.994-17.02-9.002-22.312-29.75-31.133-38.513Z" style="fill:#fff;stroke:#000;stroke-linecap:round;stroke-linejoin:round;stroke-opacity:1"/>
</svg>
