<svg xmlns="http://www.w3.org/2000/svg" width="400" height="500" viewBox="30.5 31.5 400 500" xml:space="preserve">
    <path d="M230.45 531.13c-74.32-53.92-125.26-122.02-155.74-208.16-27.64-78.1-38.73-172.75-33.91-289.35l.02-.46h379.82l.02.46c4.81 116.6-6.28 211.24-33.91 289.35-30.48 86.14-81.42 154.24-155.74 208.16l-.28.2-.28-.2z" fill="#0085ca"/>
    <path d="M419.96 33.21c9.07 219.45-36.25 385.95-189.45 497.1C146.04 469.02 94.36 390.9 66.52 296.34a557.24 557.24 0 0 1-5.87-21.54c-11.45-45.69-17.77-95.02-19.88-147.94-1.2-30.06-1.05-61.28.29-93.65h378.9m.92-.95H40.14l-.04.92c-4.82 116.66 6.28 211.36 33.93 289.52 30.51 86.24 81.51 154.41 155.91 208.39l.56.41.56-.41c74.4-53.98 125.4-122.15 155.91-208.39 27.65-78.16 38.75-172.86 33.93-289.52l-.04-.92z"/>
    <path d="M279.76 192.35c11.52.24 14.36 8.05 27.22 8.15 6.92.05 14.47.17 24.62-1.18-.24-3.53-1.26-10.65-2.4-13.5 10.41-1.54 22.41-4.47 30.93-10.46-4.63-7.79-9.72-16.2-15.68-21.56 4.63-4.15 8.58-8.63 12.42-14.59-6.47-2.45-11.47-3.86-16.34-4.79 6.81-13.48 9.51-26.66 10.89-44-17.34 1.38-30.52 4.08-44 10.89-.93-4.87-2.34-9.87-4.79-16.34-5.96 3.84-10.44 7.79-14.59 12.42-5.36-5.96-13.77-11.05-21.56-15.68-5.99 8.52-8.92 20.52-10.46 30.93-2.85-1.14-9.97-2.16-13.5-2.4-1.35 10.15-1.23 17.7-1.18 24.62.1 12.86 7.91 15.7 8.15 27.22-.04 9.99-7.84 19.42-18.99 19.42-11.15 0-18.95-9.43-18.99-19.42.24-11.52 8.05-14.36 8.15-27.22.05-6.92.17-14.47-1.18-24.62-3.53.24-10.65 1.26-13.5 2.4-1.54-10.41-4.47-22.41-10.46-30.93-7.79 4.63-16.2 9.72-21.56 15.68-4.15-4.63-8.63-8.58-14.59-12.42-2.45 6.47-3.86 11.47-4.79 16.34-13.48-6.81-26.66-9.51-44-10.89 1.38 17.34 4.08 30.52 10.89 44-4.87.93-9.87 2.34-16.34 4.79 3.84 5.96 7.79 10.44 12.42 14.59-5.96 5.36-11.05 13.77-15.68 21.56 8.52 5.99 20.52 8.92 30.93 10.46-1.14 2.85-2.16 9.97-2.4 13.5 10.15 1.35 17.7 1.23 24.62 1.18 12.86-.1 15.7-7.91 27.22-8.15 9.99.04 19.42 7.84 19.42 18.99 0 11.15-9.43 18.95-19.42 18.99-11.52-.24-14.36-8.05-27.22-8.15-6.92-.05-14.47-.17-24.62 1.18.24 3.53 1.26 10.65 2.4 13.5-10.41 1.54-22.41 4.47-30.93 10.46 4.63 7.79 9.72 16.2 15.68 21.56-4.63 4.15-8.58 8.63-12.42 14.59 6.47 2.45 11.47 3.86 16.34 4.79-6.81 13.48-9.51 26.66-10.89 44 17.34-1.38 30.52-4.08 44-10.89.93 4.87 2.34 9.87 4.79 16.34 5.96-3.84 10.44-7.79 14.59-12.42 5.36 5.96 13.77 11.05 21.56 15.68 5.99-8.52 8.92-20.52 10.46-30.93 2.85 1.14 9.97 2.16 13.5 2.4 1.35-10.15 1.23-17.7 1.18-24.62-.1-12.86-7.91-15.7-8.15-27.22.04-9.99 7.84-19.42 18.99-19.42 11.15 0 18.95 9.43 18.99 19.42-.24 11.52-8.05 14.36-8.15 27.22-.05 6.92-.17 14.47 1.18 24.62 3.53-.24 10.65-1.26 13.5-2.4 1.54 10.41 4.47 22.41 10.46 30.93 7.79-4.63 16.2-9.72 21.56-15.68 4.15 4.63 8.63 8.58 14.59 12.42 2.45-6.47 3.86-11.47 4.79-16.34 13.48 6.81 26.66 9.51 44 10.89-1.38-17.34-4.08-30.52-10.89-44 4.87-.93 9.87-2.34 16.34-4.79-3.84-5.96-7.79-10.44-12.42-14.59 5.96-5.36 11.05-13.77 15.68-21.56-8.52-5.99-20.52-8.92-30.93-10.46 1.14-2.85 2.16-9.97 2.4-13.5-10.15-1.35-17.7-1.23-24.62-1.18-12.86.1-15.7 7.91-27.22 8.15-9.99-.04-19.42-7.84-19.42-18.99 0-11.15 9.43-18.95 19.42-18.99z" style="fill-rule:evenodd;fill:#fff;stroke:#000"/>
    <circle cx="230.5" cy="211.5" r="20.29" style="fill:#fff;stroke:#000"/>
</svg>
