<svg xmlns="http://www.w3.org/2000/svg" width="420" height="500" viewBox="30.5 31.5 420 500" xml:space="preserve">
    <path style="fill-rule:evenodd;fill:#ffe000" d="M440 32.7c2.09 102.46-3.38 187.49-43.93 296.59-28.05 75.48-74.21 144.77-155.57 201.59-81.36-56.82-127.52-126.11-155.57-201.59C44.38 220.19 38.91 135.16 41 32.7c133 .29 266 0 399 0z"/>
    <path style="fill:none;stroke:#000" d="M440 32.7c2.09 102.46-3.38 187.49-43.93 296.59-28.05 75.48-74.21 144.77-155.57 201.59-81.36-56.82-127.52-126.11-155.57-201.59C44.38 220.19 38.91 135.16 41 32.7c133 .29 266 0 399 0z"/>
    <path style="fill:#000;stroke:#000;stroke-width:.95300001;stroke-linecap:round;stroke-linejoin:round;stroke-miterlimit:4;stroke-dasharray:none;stroke-opacity:1" d="M56.502 115.557c-2.237-1.773-3.123-16.576-.68-17.197 9.61-2.44 19.867 3.993 25.64 3.649 4.479-.267 9.833-4.986 19.114-5.3 11.797-.397 19.152 6.34 24.889 9.097 4.995 2.4 4.42-3.062 12.755-3.503 5.7-.302 12.37 2.593 15.747 5.697 2.277 2.093-6.088 7.864-4.961 8.958 2.18 2.115 9.128 3.622 13.143 3.733 0 0-1.206 4.04-1.99 5.638 10.231 1.617 13.899-1.315 13.899-1.315.924 2.995-1.48 8.568-1.48 8.568.501-.01 1.71-.072 2.205-.11 30.017-2.32 51.872-9.75 75.877-19.107 12.846-5.008 26.593-10.181 43.043-13.232 4.642-.86 10.542-1.757 15.842-1.913 0 0-1.885 4.15-2.31 6.045-.4 1.78 8.644-2.405 18.526.661 0 0-4.11 3.114-3.942 5.13 5.707-.616 13.138-.59 17.377 1.2 0 0-4.928 3.772-4.535 6.524 5.44.06 13.437-.375 17.947 3.393-2.391 1.785-4.803 3.326-5.662 6.5 6.146 1.094 13.244 1.946 16.842 5.325-6.095 4.565-4.932 6.713.666 8.318 8.395 2.406 25.192 3.025 29.468 4.277 14.613 4.276 18.56 13.974 19.088 23.592.396 7.194-.006 13.068 6.606 20.808-1.659.44-7.912 1.067-10.083-.01 3.682 8.899 7.39 19.194 7.713 31.202-1.98-.014-4.705-.356-7.684-2.493.03 9.433-2.739 10.913-4.896 16.845-1.866 5.132-2.77 14.08-2.136 19.852-5.067-1.445-9.169-7.245-9.86-11.785-1.115 2.094-2.01 3.698-3.746 4.56-.945-10.92-4.46-15.531-7.347-19.093-1.715 2.216-.952 4.34-.815 6.148-6.585-1.08-12.749-7.466-14.567-14.555-1.97-7.681.365-11.984-3.801-18.306-10.29 8.348-8.66 19.966-4.524 28.92 5.02 10.87 13.708 16.777 21.154 21.171 1.426.842-.676 3.898-4.53 5.79 5.907 3.242 15.367 7.412 15.876 8.304.468.821-3.635 3.515-6.32 3.4-.642.788 4.744 4.613 7.844 7.947 1.862 2.002 2.503 4.283.719 5.553-12.916 9.194-18.426 13.867-22.591 20.412-1.932 3.037-3.704 6.905-4.278 10.97-.514 3.648.244 7.253.859 11.181-3.042-.586-4.022-1.107-5.51-2.072-.861-.557-3.048-2.845-3.214-2.377-.681 1.912-.084 6.225 1.606 8.88-2.14.847-4.417-.056-6.337-.845-2.804-1.151-4.565-4.482-4.944-3.52-.727 1.84.05 5.35 1.492 8.368-2.904.186-6.086-.74-8.05-2.481-2.926-2.593-3.28-4.428-4.067-4.08-.962.425-1.433 5.09-.242 8.619-10.045-.02-14.186-9.474-15.143-18.923-.546-5.402-.264-6.53 3.922-8.966 3.914-2.276 10.612-8.353 13.452-13.856 2.368-4.59 1.285-20.38-6.961-29.43-9.257-10.162-11.112-.912-12.548 8.985-1.089 7.505.423 14.835.884 16.384-2.975.006-6.04-.8-8.065-2.18-1.836-1.25-2.733-3.097-3.506-2.878-2.453.694-1.72 12.643-.643 15.757-2.748.238-7.291-1.093-9.461-3.463-.76 4.61 1.441 14.46-.855 14.777-15.241 2.11-25.836 9.008-31.63 21.615-3.896-2.833-4.862-7.045-5.25-10.014-2.48 2.624-3.837 5.696-4.519 9.037-3.266-1.72-4.99-5.424-5.74-10.38-2.732 2.583-4.124 5.299-5.25 8.06-3.332-2.552-4.59-6.221-5.618-10.014-2.476 1.062-4.407 2.996-5.984 5.496-3.52-3.061-2.323-19.978.143-24.165 2.25-3.818 7.097-3.529 12.63-4.94 7.247-1.847 15.991-5.89 24.84-18.645 4.37-6.3 5.603-13.303 4.048-18.999-2.01-7.36-8.09-12.641-11.986-12.508-2.018.07-10.522 4.423-14.435 10.118-3.54 5.151-6.042 11.465-6.684 16.938-2.577-.316-5.17-1.21-6.674-3.497.072 8.4-1.75 14.813-2.473 17.9l-5.435-1.669s-.978 3.398-.81 5.116c.164 1.681 1.746 4.756 1.746 4.756-3.813 2.153-8.313-1.774-10.339 1.139-2.504 3.602-2.209 9.991-2.965 13.514-.56 2.607-2.295 5.468-9.3 6.491-5.443.795-13.468.992-22.743 5.878-4.859 2.56-13.34 11.6-12.985 19.84-4.714-1.988-6.041-6.688-5.518-10.428-3.21.414-5.446 4.228-6.248 8.883-4.269-1.681-5.65-7.255-5.383-10.332-2.773.923-4.84 4.726-5.476 6.235-3.52-1.427-4.176-7.863-3.714-10.922-3.066.742-4.6 2.57-6.252 4.41-1.987-5.112-2.443-12.259-1.077-18.107 1.35-5.78 2.97-8.836 9.672-10.317 2.426-.535 5.949-.935 9.79-2.523 13.168-5.44 31.083-19.085 28.852-30.249-2.577-12.894-6.343-16.024-11.198-16.269-6.302-.317-11.74 6.528-15.847 13.871-2.093-1.619-2.117-4.15-1.852-6.772.188-1.859-2.467-1.32-3.165-.33-3.426 4.855-2.923 12.766-5.5 16.85-2.216-2.195-3.226-6.392-3.965-6.064-4.418 1.962-3.313 6.231-7.097 9.132-6.667-2.94-17.06-5.142-24.887-4.619-8.134.543-13.992 4.66-19.436 8.081-.98-2.784-.062-7.071.408-10.647-2.813.5-4.348 3.289-6.536 4.593-.947-5.384.607-10.011 3.777-13.384-4.503-1.059-6.682 2.22-8.756 3.542-.548-4.022 1.744-9.364 4.77-13.356-3.068-.797-7.364 3.122-8.463 3.995.4-6.484 4.332-14.317 9.532-18.127 2.424-1.776 11.785-3.278 16.2-3.562 8.072-.519 13.078 1.696 16.405 1.464 5.205-.361 6.238-2.883 8.14-8.302 1.398-3.982 3.135-8.483 3.211-13.351.143-9.193-2.254-19.414-7.879-28.58-2.347-3.825-5.837 1.689-8.066 3.777-1.97-3.176-3.353-6.834-3.167-14.32.046-1.864-2.073-3.37-2.832-2.365-.742.981-2.935 2.638-4.289 3.03-2.147-5.762-3.376-11.677-7.395-13.357-.624 1.624-2.27 4.6-4.084 6.068-2.487-7.577-9.534-14.988-19.657-22.241-2.68-1.92-7.01-3.642-10.905-4.986-3.123-1.077-4.578-7.23-3.552-12.28l2.843 1.93 3.358-1.608 2.798 2.937 3.334-1.726 2.59 2.643 3.28-1.163 2.618 2.456 3.328-1.543 2.229 2.396c2.214 2.38 3.402-13.58-.2-14.268l-3.476 1.735-2.616-3.327-3.631 1.286-2.272-3.067-3.87 1.597-2.268-2.924-4.037 1.417-2.288-4.127c-2.114-1.021-2.97-.565-4.78-2z"/>
    <path style="fill:#ffe000;fill-opacity:1;stroke:none;stroke-width:.95313483;stroke-opacity:1" d="M92.777 112.722c-2.138-.998.532-5.237 6.114-4.483 3.146.425 6.853 2.894 6.744 5.808-.064 1.734-7.42 1.212-12.858-1.325z"/>
</svg>
