<svg xmlns="http://www.w3.org/2000/svg" width="400" height="500" viewBox="30.5 31.5 400 500" xml:space="preserve">
    <path d="M230.55 531.13c74.32-53.92 125.26-122.02 155.74-208.16 27.64-78.1 38.73-172.75 33.91-289.35l-.02-.46H40.36l-.02.46c-4.81 116.6 6.28 211.24 33.91 289.35 30.48 86.14 81.42 154.24 155.74 208.16l.28.2.28-.2z" fill="#32ac60"/>
    <path d="M41.04 33.21c-9.07 219.45 36.25 385.95 189.45 497.1 84.47-61.29 136.15-139.41 163.99-233.97a557.24 557.24 0 0 0 5.87-21.54c11.45-45.69 17.77-95.02 19.88-147.94 1.2-30.06 1.05-61.28-.29-93.65H41.04m-.92-.95H420.86l.04.92c4.82 116.66-6.28 211.36-33.93 289.52-30.51 86.24-81.51 154.41-155.91 208.39l-.56.41-.56-.41c-74.4-53.98-125.4-122.15-155.91-208.39C46.38 244.54 35.28 149.84 40.1 33.18l.04-.92z"/>
    <path d="M372.69 73.12c-106.21-34.77-179.63-11.17-207.33 1.33l-11.22-11.24-31.64 18.72 4.35 9.46c-7.8 4.2-56.53 29.36-63.79 34.02-5.02 3.22 4.23 16.55 12.09 30.53 7.97 14.17 15.26 27.24 19.55 24.24 6.59-4.61 59.49-41.68 59.49-41.68l65.49 117.47c24.76 47.57 45.91 97.01 60.5 138.66 2.2 6.1 25.71-2.19 41.4-13.1 17.63-12.25 27.06-26.67 23.85-29.54-15.22-14.9-38.39-40.72-56.72-66.85-12.48-17.78-21.98-36.09-32.64-52.22-33.6-51.1-66.84-113.83-66.84-113.83 37.4-24.99 75.82-41.61 183.46-45.96z" style="fill:#fff;stroke:#000"/>
</svg>
