<svg xmlns="http://www.w3.org/2000/svg" width="400" height="500" viewBox="30.5 31.5 400 500" xml:space="preserve">
    <path d="M230.56 531.14c74.32-53.92 125.26-122.02 155.74-208.16 27.64-78.1 38.73-172.75 33.91-289.35l-.02-.46H40.37l-.02.46c-4.81 116.6 6.28 211.24 33.91 289.35 30.48 86.14 81.42 154.24 155.74 208.16l.28.2.28-.2z" fill="#e00e00"/>
    <path d="M42.82 166.58c1.75 20.9 4.43 43.78 7.55 60.92h40.52c-1.01-23.93 21.22-49.9 55.28-50.66 36.59-.81 60.41 24.96 60.01 50.66h48.65c-.4-25.7 23.42-51.47 60.01-50.66 34.06.76 56.29 26.73 55.28 50.66h40.39c3.58-19.62 5.73-40.14 7.7-60.78-50.57-28.14-110.87-40.22-187.71-40.22S93.38 138.44 42.82 166.58zM249.82 358.5c-.26-22.27 19.36-38.62 44.77-39.09 18.18-.34 44.56 12.16 44.59 39.09h32.93c6.04-14.07 11.58-27.94 16.19-41.4-42.35-26.48-86.29-37.6-157.8-37.6s-115.45 11.12-157.8 37.6c4.55 14.5 10.45 27.88 16.19 41.4h32.93c.03-26.92 26.41-39.42 44.59-39.09 25.41.47 45.03 16.82 44.77 39.09h38.64z" style="fill-rule:evenodd;fill:#fff"/>
    <path d="M41.04 33.21C31.97 252.66 77.3 419.16 230.5 530.31c153.19-111.15 198.51-277.65 189.44-497.1H41.04m-.92-.95H420.86l.04.92c4.82 116.66-6.28 211.36-33.93 289.52-30.51 86.24-81.51 154.41-155.91 208.39l-.56.41-.56-.41c-74.4-53.98-125.4-122.15-155.91-208.39C46.38 244.54 35.28 149.84 40.1 33.18l.04-.92z"/>
    <path d="M50.37 227.5h40.52c-1.01-23.93 21.22-49.9 55.28-50.66 36.59-.81 60.41 24.96 60.01 50.66h48.65c-.4-25.7 23.42-51.47 60.01-50.66 34.06.76 56.29 26.73 55.28 50.66h40.39m7.69-60.78c-50.56-28.14-110.86-40.22-187.7-40.22-76.84 0-137.12 11.94-187.68 40.08M388.3 317.1c-42.35-26.48-86.29-37.6-157.8-37.6s-115.45 11.12-157.8 37.6m16.19 41.4h32.93c.03-26.92 26.41-39.42 44.59-39.09 25.41.47 45.03 16.82 44.77 39.09h38.64c-.26-22.27 19.36-38.62 44.77-39.09 18.18-.34 44.56 12.16 44.59 39.09h32.93" style="fill:none;stroke:#000"/>
</svg>
