<svg xmlns="http://www.w3.org/2000/svg" width="400" height="500" viewBox="30.5 31.5 400 500" xml:space="preserve">
    <path d="M230.45 531.13c-74.32-53.92-125.26-122.02-155.74-208.16-27.64-78.1-38.73-172.75-33.91-289.35l.02-.46h379.82l.02.46c4.81 116.6-6.28 211.24-33.91 289.35-30.48 86.14-81.42 154.24-155.74 208.16l-.28.2z" fill="#0085ca"/>
    <path d="M419.96 33.21c9.07 219.45-36.25 385.95-189.45 497.1C146.04 469.02 94.36 390.9 66.52 296.34a557.24 557.24 0 0 1-5.87-21.54c-11.45-45.69-17.77-95.02-19.88-147.94-1.2-30.06-1.05-61.28.29-93.65h378.9m.92-.95H40.14l-.04.92c-4.82 116.66 6.28 211.36 33.93 289.52 30.51 86.24 81.51 154.41 155.91 208.39l.56.41.56-.41c74.4-53.98 125.4-122.15 155.91-208.39 27.65-78.16 38.75-172.86 33.93-289.52l-.04-.92z"/>
    <circle transform="scale(-1 1)" r="151.35" cy="226.5" cx="-230.5" style="fill:#fff;stroke-linecap:round;stroke-linejoin:round;stroke-miterlimit:4;stroke:#000"/>
    <path d="M311.18 194.48c16.68-10.69 31.14-25.83 40.15-41.1-7.02-12.68-26.57-35.81-47.71-47.71-15.27 9.01-30.41 23.47-41.1 40.15C246.84 170.3 237.91 199.1 237 220c20.9-.91 49.7-9.84 74.18-25.52zM311.18 258.52c16.68 10.69 31.14 25.83 40.15 41.1-7.02 12.68-26.57 35.81-47.71 47.71-15.27-9.01-30.41-23.47-41.1-40.15C246.84 282.7 237.91 253.9 237 233c20.9.91 49.7 9.84 74.18 25.52zM149.82 194.48c-16.68-10.69-31.14-25.83-40.15-41.1 7.02-12.68 26.57-35.81 47.71-47.71 15.27 9.01 30.41 23.47 41.1 40.15C214.16 170.3 223.09 199.1 224 220c-20.9-.91-49.7-9.84-74.18-25.52zM157.38 347.34c15.27-9.01 30.41-23.47 41.1-40.15C214.16 282.7 223.09 253.9 224 233c-20.9.91-49.7 9.84-74.18 25.52-16.68 10.69-31.14 25.83-40.15 41.1 7.02 12.68 26.57 35.81 47.71 47.71" style="fill-rule:evenodd;fill:#0085ca"/>
    <circle transform="scale(-1 1)" cx="-230.5" cy="226.5" r="141.39" style="fill:none;stroke-linecap:round;stroke-linejoin:round;stroke-miterlimit:4;stroke:#000"/>
    <path d="M303.62 105.66c-15.27 9.01-30.41 23.47-41.1 40.15C246.84 170.3 237.91 199.1 237 220c20.9-.91 49.7-9.84 74.18-25.52 16.68-10.69 31.14-25.83 40.15-41.1M303.62 347.34c-15.27-9.02-30.41-23.48-41.1-40.16C246.84 282.7 237.91 253.9 237 233c20.9.91 49.7 9.84 74.18 25.52 16.68 10.69 31.14 25.83 40.15 41.1M157.38 347.34c15.27-9.01 30.41-23.47 41.1-40.15C214.16 282.7 223.09 253.9 224 233c-20.9.91-49.7 9.84-74.18 25.52-16.68 10.69-31.14 25.83-40.15 41.1M157.38 105.66c15.27 9.01 30.41 23.47 41.1 40.15C214.16 170.3 223.09 199.1 224 220c-20.9-.91-49.7-9.84-74.18-25.52-16.68-10.69-31.14-25.83-40.15-41.1" style="fill:none;stroke:#000"/>
</svg>
