<svg xmlns="http://www.w3.org/2000/svg" xml:space="preserve" viewBox="30.5 31.5 400 500" height="500" width="400">
    <path style="fill:#fff;fill-opacity:1" d="M230.44 531.14C156.12 477.22 105.18 409.12 74.7 322.98c-27.64-78.1-38.73-172.75-33.91-289.35l.02-.46h379.82l.02.46c4.81 116.6-6.28 211.24-33.91 289.35-30.48 86.14-81.42 154.24-155.74 208.16l-.28.2-.28-.2z"/>
    <path d="M419.96 33.21c9.07 219.45-36.26 385.95-189.46 497.1C77.31 419.16 31.99 252.66 41.06 33.21h378.9m.92-.95H40.14l-.04.92c-4.82 116.66 6.28 211.36 33.93 289.52 30.51 86.24 81.51 154.41 155.91 208.39l.56.41.56-.41c74.4-53.98 125.4-122.15 155.91-208.39 27.65-78.16 38.75-172.86 33.93-289.52l-.04-.92z"/>
    <path style="fill:#0085ca;fill-opacity:1;stroke:#000;stroke-linecap:round;stroke-linejoin:round;stroke-opacity:1" d="M211.393 67.148c3.14 2.38 5.717.098 8.498-3.062 1.673-1.901-4.734-5.993-6.67-7.902-1.48-1.459 2.99-6.616 4.814-5.55 1.994 1.167 10.447 8.234 11.322 12.338.907 4.253-2.823 6.828-5.77 9.45-6.789 6.038-22.275 18.085-16.326 18.12 18.874.114 19.152-6.782 40.436-8.617 16.935-1.46 34.146 12.175 43.347 16.631 20.338 9.85 60.846 29.28 78.248 36.988l-2.02 27.719c-.61 8.397.535 16.52 16.059 21.235-3.192 18.429-4.632 37.708-5.873 58.022l-8.908 8.652c-.762-18.076-.3-38.169-.183-55.366-12.47-7.646-24.954-11.913-35.954-21.168l12.796 25.167c-14.355 14.48-25.974 28.507-39.645 41.89l-10.106-.045c8.407-17.233 31.366-37.26 29.893-40.893-7.564-18.655-30.244-21.11-32.781-34.314-12.102 1.199-21.695 2.622-38.266 2.927-.9 22.205-.654 45.186-.187 69.67l-9.078 5.85c-6.198-25.174-6.211-49.123-9.766-75.665-.372-2.774-28.668-5.97-28.407-3.308l2.239 33.915-9.245 10.06-5.065-49.005c-.652-6.312.804-7.035 6.886-8.237 8.622-1.705 21.476-1.78 29.549-3.46-9.563-6.361-18.893-15.634-25.841-23.66-3.055 1.71-6.965 5.989-9.32 6.054-3.564.098-5.723-11.944-11.083-12.21-5.814-.287-15.468-.5-16.43-.334-2.262.39-2.275 5.282-3.64 5.512-4.587.77-12.19-.82-14.198-3.025-2.29-2.517.953-11.693 5.214-14.922 6.986-5.292 21.646-6.186 33.043-14.383-11.754-3.214-16.864-5.967-19.348-12.988-.78-2.202 1.748-5.333 3.15-3.025 1.52 2.503 1.247 2.267 3.25 3.804 3.844 2.948 5.774.95 5.466-2.945l-.261-3.296c-.199-2.505 5.025-3.957 5.267-2.01l.807 6.498c.293 2.358 5.49 4.153 7.98 4.6 3.635.654 5.34-1.387 9.36-7.297 3.175-4.669-4.316-6.259-7.17-10.468-1.154-1.703 4.372-7.34 6.118-5.076 1.746 2.265 4.524 4.647 7.8 7.129zM147.425 225.887c3.14 2.38 6.95-1.753 9.732-4.913 1.673-1.901-4.734-5.993-6.67-7.902-1.48-1.459 2.99-6.616 4.813-5.55 1.995 1.167 10.448 8.234 11.323 12.338.906 4.253-3.903 10.223-6.85 12.844-6.789 6.039-20.887 17.931-14.938 17.967 18.874.113 18.381-7.091 39.665-8.926 16.935-1.46 33.374 11.095 42.575 15.55 20.338 9.85 60.229 27.12 77.63 34.829l-2.48 34.199c-.61 8.397 19.106 12.134 17.754 16.914-4.762 16.845-4.425 31.448-4.33 52.931l-10.76 9.424c-.761-18.077-1.38-36.318-1.262-53.515-12.47-7.646-24.182-9.445-35.183-18.7l11.716 25.167c-14.355 14.48-25.51 25.422-39.181 38.805l-10.106-.045c8.407-17.233 28.535-35.214 26.807-38.733-8.027-16.34-18.365-15.556-24.45-36.629-12.102 1.2-24.627 1.697-41.197 2.002-.9 22.205-2.352 49.352-1.884 73.835l-9.079 5.85c-6.197-25.174-5.44-50.665-8.995-77.208-.371-2.773-27.125-3.655-26.864-.993l1.777 33.452-9.245 10.06-6.917-51.01c-.852-6.288.804-7.035 6.887-8.238 8.621-1.704 18.698.225 26.771-1.453-9.563-6.362-16.579-14.555-23.527-22.58-3.055 1.71-9.588 6.605-11.942 6.67-3.564.098-5.57-13.332-10.93-13.598-5.813-.288-15.775-1.117-16.738-.951-2.261.389-2.275 5.282-3.64 5.511-4.587.771-10.183.261-12.192-1.945-2.29-2.516 1.107-12.31 5.369-15.538 6.986-5.293 25.348-5.415 36.745-13.613-11.754-3.213-23.035-7.046-25.52-14.068-.778-2.201 3.292-5.023 4.693-2.716 1.52 2.504 3.36 4.602 5.72 5.501 3.689 1.406 5.262-.59 5.002-4.487l-.26-3.914c-.168-2.507 5.024-3.956 5.266-2.009l.808 6.498c.292 2.357 5.489 4.153 7.98 4.6 3.634.653 5.34-1.388 9.36-7.298 3.175-4.668-4.317-6.258-7.17-10.468-1.154-1.702 4.371-7.34 6.117-5.075 1.746 2.265 4.524 4.647 7.8 7.128z"/>
</svg>
