<svg xmlns="http://www.w3.org/2000/svg" xml:space="preserve" viewBox="30.5 31.5 400 500" height="500" width="400">
    <path d="M230.44 531.14C156.12 477.22 105.18 409.12 74.7 322.98c-27.64-78.1-38.73-172.75-33.91-289.35l.02-.46h379.82l.02.46c4.81 116.6-6.28 211.24-33.91 289.35-30.48 86.14-81.42 154.24-155.74 208.16l-.28.2-.28-.2z" fill="#0085ca"/>
    <path d="m212.5 64.5-27.13 5.44c-1.4 100.14-5.89 148.82-58.72 194.01-18.95 16.21-44.41 22.74-63.04 24.9 13.23 46.15 32.4 91.07 60.55 133.74 25.5.29 47.69-9.42 60.77-21.35 22.68-20.68 27.57-47.23 27.57-74.49ZM248.5 64.5l27.13 5.44c1.4 100.14 5.89 148.82 58.72 194.01 18.95 16.21 44.41 22.74 63.04 24.9-13.23 46.15-32.4 91.07-60.55 133.74-25.5.29-47.69-9.42-60.77-21.35-22.68-20.68-27.57-47.23-27.57-74.49Z" style="fill-rule:evenodd;fill:#fff"/>
    <path d="M124.16 422.59c25.5.29 47.69-9.42 60.77-21.35 22.68-20.68 27.57-47.23 27.57-74.49V64.5l-27.13 5.44c-1.4 100.14-5.89 148.82-58.72 194.01-18.95 16.21-44.41 22.74-63.04 24.9M336.84 422.59c-25.5.3-47.7-9.42-60.77-21.35-22.68-20.68-27.57-47.23-27.57-74.49V64.5l27.13 5.44c1.4 100.14 5.89 148.82 58.72 194.01 18.95 16.21 44.41 22.74 63.04 24.9" style="fill:none;stroke:#000"/>
    <path d="M419.96 33.21c9.07 219.45-36.26 385.95-189.46 497.1C77.31 419.16 31.99 252.66 41.06 33.21h378.9m.92-.95H40.14l-.04.92c-4.82 116.66 6.28 211.36 33.93 289.52 30.51 86.24 81.51 154.41 155.91 208.39l.56.41.56-.41c74.4-53.98 125.4-122.15 155.91-208.39 27.65-78.16 38.75-172.86 33.93-289.52l-.04-.92z"/>
</svg>
