<svg xmlns="http://www.w3.org/2000/svg" width="400" height="500" viewBox="30.5 31.5 400 500" xml:space="preserve">
    <path fill="#0085ca" d="M230.44 531.14C156.12 477.22 105.18 409.12 74.7 322.98c-27.64-78.1-38.73-172.75-33.91-289.35l.02-.46h379.82l.02.46c4.81 116.6-6.28 211.24-33.91 289.35-30.48 86.14-81.42 154.24-155.74 208.16l-.28.2-.28-.2z"/>
    <path d="M419.96 33.21c9.07 219.45-36.26 385.95-189.46 497.1C77.31 419.16 31.99 252.66 41.06 33.21h378.9m.92-.95H40.14l-.04.92c-4.82 116.66 6.28 211.36 33.93 289.52 30.51 86.24 81.51 154.41 155.91 208.39l.56.41.56-.41c74.4-53.98 125.4-122.15 155.91-208.39 27.65-78.16 38.75-172.86 33.93-289.52l-.04-.92z"/>
    <path d="M272.73 241.897c.738-5.604 9.178-9.496 16.448-16.17 2.56-2.35.405-10.253-.55-11.586-4.39-6.122-14.098-10.01-19.138-13.44-14.865-10.112-19.286-17.367-22.835-29.469l-12.035-41.04c-2.81-9.586-12.444-14.11-18.978-17.744 8.779-7.239 17.75-11.875 27.001-11.726 15.807.254 18.544 13.949 23.915 23.76 12.68 23.164 35.984 20.065 44.899 21.601 32.369 5.58 50.401 33.584 88.1 49.682-3.618 6.168-11.231 7.814-19.75 7.251-12.598-.833-23.225-2.305-30.395 3.549-9.23 7.536-10.285 19.33-12.189 31.784-4.036 10.622-10.39 18.123-17.28 17.743-.088-2.595-.15-4.563 1.814-7.568-4.166 2.202-6.586 2.993-10.752 2.42-.086-4.011.272-6.495 3.575-10.18-2.314.83-5.283.685-7.598-.101 3.83-5.748 8.35-6.963 14.35-11.726 2.03-1.613 1.96-7.702.596-8.942-2.201-2-10.495-2.024-13.36.783-5.043 4.94-4.857 11.968-7.952 20.08-2.37 6.213-7.313 11.24-12.912 12.491-.358-2.712-.012-4.566.79-6.988-2.645 2.198-6.92 4.063-11.759 3.821-.065-3.28 1.463-8.046 3.183-10.147-1.88 1.05-3.619 2.22-7.188 1.862" style="fill:#fff;fill-rule:evenodd;stroke:#000;stroke-width:1px;stroke-linecap:round;stroke-linejoin:round;stroke-opacity:1"/>
    <path d="M232.5 108.684c4.755-3.248 8.585-1.723 10.399-.763" style="fill:none;fill-rule:evenodd;stroke:#000;stroke-width:1px;stroke-linecap:round;stroke-linejoin:miter;stroke-opacity:1"/>
    <ellipse ry="1.555" rx="2.114" cy="108.575" cx="235.466" style="opacity:1;fill:#000;fill-opacity:1;fill-rule:evenodd;stroke:none;stroke-width:.5;stroke-linecap:round;stroke-linejoin:round;stroke-miterlimit:4;stroke-dasharray:none;stroke-opacity:1"/>
    <path style="fill:#fff;fill-rule:evenodd;stroke:#000;stroke-width:1px;stroke-linecap:round;stroke-linejoin:round;stroke-opacity:1" d="M117.227 241.024c.738-5.604 9.178-9.495 16.448-16.17 2.56-2.35.405-10.252-.55-11.586-4.39-6.122-14.098-10.01-19.138-13.439-14.865-10.113-19.286-17.367-22.835-29.47l-12.035-41.04c-2.81-9.586-12.444-14.11-18.977-17.744 8.778-7.238 17.75-11.875 27-11.726 15.807.254 18.545 13.949 23.916 23.76 12.679 23.164 35.983 20.065 44.898 21.601 32.369 5.58 50.401 33.584 88.1 49.682-3.618 6.168-11.23 7.815-19.75 7.251-12.598-.833-23.225-2.304-30.395 3.549-9.23 7.536-10.285 19.33-12.189 31.784-4.036 10.622-10.39 18.123-17.28 17.743-.088-2.595-.15-4.562 1.814-7.568-4.166 2.202-6.586 2.993-10.752 2.42-.086-4.011.272-6.495 3.575-10.18-2.314.83-5.283.685-7.597-.1 3.83-5.749 8.35-6.963 14.349-11.727 2.03-1.613 1.96-7.702.596-8.942-2.201-2-10.495-2.024-13.36.783-5.042 4.94-4.857 11.969-7.952 20.08-2.37 6.213-7.313 11.24-12.912 12.491-.357-2.712-.012-4.566.79-6.988-2.645 2.198-6.92 4.063-11.758 3.821-.065-3.28 1.462-8.046 3.182-10.147-1.88 1.05-3.619 2.22-7.188 1.862"/>
    <path style="fill:none;fill-rule:evenodd;stroke:#000;stroke-width:1px;stroke-linecap:round;stroke-linejoin:miter;stroke-opacity:1" d="M76.997 107.811c4.756-3.248 8.585-1.723 10.399-.763"/>
    <ellipse style="opacity:1;fill:#000;fill-opacity:1;fill-rule:evenodd;stroke:none;stroke-width:.5;stroke-linecap:round;stroke-linejoin:round;stroke-miterlimit:4;stroke-dasharray:none;stroke-opacity:1" cx="79.964" cy="107.702" rx="2.114" ry="1.555"/>
    <path d="M193.415 417.838c.738-5.604 9.178-9.496 16.448-16.17 2.56-2.35.405-10.253-.55-11.586-4.39-6.122-14.098-10.01-19.138-13.44-14.865-10.112-19.286-17.367-22.835-29.469l-12.035-41.04c-2.81-9.586-12.444-14.11-18.977-17.744 8.778-7.238 17.75-11.875 27-11.726 15.807.254 18.544 13.949 23.915 23.76 12.68 23.164 35.984 20.065 44.899 21.601 32.369 5.58 50.401 33.584 88.1 49.682-3.618 6.168-11.231 7.814-19.75 7.251-12.598-.833-23.225-2.305-30.395 3.549-9.23 7.536-10.285 19.33-12.189 31.784-4.036 10.622-10.39 18.123-17.28 17.743-.088-2.595-.15-4.563 1.814-7.568-4.166 2.202-6.586 2.993-10.752 2.42-.086-4.011.272-6.495 3.575-10.18-2.314.83-5.283.685-7.598-.101 3.83-5.748 8.351-6.963 14.35-11.726 2.03-1.613 1.96-7.702.596-8.942-2.201-2-10.495-2.024-13.36.783-5.043 4.94-4.857 11.969-7.952 20.08-2.37 6.213-7.313 11.24-12.912 12.491-.358-2.712-.012-4.566.79-6.988-2.645 2.198-6.92 4.063-11.759 3.821-.065-3.28 1.463-8.046 3.183-10.147-1.88 1.05-3.619 2.22-7.188 1.862" style="fill:#fff;fill-rule:evenodd;stroke:#000;stroke-width:1px;stroke-linecap:round;stroke-linejoin:round;stroke-opacity:1"/>
    <path d="M153.185 284.625c4.755-3.248 8.585-1.723 10.399-.763" style="fill:none;fill-rule:evenodd;stroke:#000;stroke-width:1px;stroke-linecap:round;stroke-linejoin:miter;stroke-opacity:1"/>
    <ellipse ry="1.555" rx="2.114" cy="284.516" cx="156.151" style="opacity:1;fill:#000;fill-opacity:1;fill-rule:evenodd;stroke:none;stroke-width:.5;stroke-linecap:round;stroke-linejoin:round;stroke-miterlimit:4;stroke-dasharray:none;stroke-opacity:1"/>
</svg>
