<svg xmlns="http://www.w3.org/2000/svg" width="400" height="500" viewBox="30.5 31.5 400 500" xml:space="preserve">
    <path style="fill:#0085ca;fill-opacity:1" d="M230.67 530.86C156.35 476.94 105.41 408.84 74.93 322.7 47.29 244.6 36.2 149.95 41.02 33.35l.02-.46h379.82l.02.46c4.81 116.6-6.28 211.24-33.91 289.35-30.48 86.14-81.42 154.24-155.74 208.16l-.28.2-.28-.2z"/>
    <path style="fill:#fff;fill-rule:evenodd;stroke:none;stroke-width:1px;stroke-linecap:butt;stroke-linejoin:round;stroke-opacity:1" d="M138.315 300.623c-3.183.494-6.367.58-9.55-.154.508-14.714 4.75-33.355 14.786-44.512 5.048-5.612 11.998-9.277 18.637-9.396l103.81-.847 2.464 10.166c3.393.035 7.76-3.959 7.778-9.01 27.031-1.363 58.76-.63 80.861.615l-41.354 25.49c-9.764 6.02-22.563 5.2-28.34 3.697-6.637-1.725-7.677-9.969-10.55-10.242-1.99-.19-4.793 1.585-4.467 4.313l24.104 201.767c-19.376 21.721-44.003 41.853-65.978 58.389-24.814-18.02-45.474-36.37-65.402-57.388l32.435-174.046c1.078-5.786-2.897-5.418-5.983-4.432-3.765 1.202-.896 12.894-1.426 19.529-.536 6.723-14.663 7.387-14.863.23-.143-5.14.564-9.938.616-16.894.027-3.544-5.747-3.338-8.93-2.666-5.826 1.23-5.719 2.654-11.783 8.24-3.304 3.043-7.298 4.124-11.83 4.164-2.127-1.57-4.216-5.114-5.035-7.013z"/>
    <path d="M419.96 33.21c9.07 219.45-36.26 385.95-189.46 497.1C77.31 419.16 31.99 252.66 41.06 33.21h378.9m.92-.95H40.14l-.04.92c-4.82 116.66 6.28 211.36 33.93 289.52 30.51 86.24 81.51 154.41 155.91 208.39l.56.41.56-.41c74.4-53.98 125.4-122.15 155.91-208.39 27.65-78.16 38.75-172.86 33.93-289.52l-.04-.92z"/>
    <circle r="4.914" cy="259.345" cx="230.573" style="opacity:.98000004;fill:#0085ca;fill-opacity:1;stroke:#000;stroke-width:1;stroke-linecap:round;stroke-linejoin:round;stroke-miterlimit:4;stroke-dasharray:none;stroke-opacity:1"/>
    <path d="m165.114 473.511 32.435-174.046c.608-3.265-.209-4.81-3.018-4.666-1.335.068-2.31.279-3.58 1.312-3.067 2.493-.281 11.816-.81 18.45-.537 6.724-14.664 7.388-14.864.232-.143-5.14.564-9.939.616-16.895.027-3.544-5.735-3.28-8.93-2.666-5.826 1.12-5.719 2.654-11.783 8.24-3.304 3.043-7.298 4.124-11.83 4.164-2.127-1.57-4.216-5.114-5.035-7.013-3.183.494-6.367.58-9.55-.154.508-14.714 4.75-33.355 14.786-44.512 5.048-5.612 11.998-9.277 18.637-9.396l103.81-.847 2.464 10.166c3.393.035 7.76-3.959 7.778-9.01 27.031-1.363 58.76-.63 80.861.615l-41.354 25.49c-9.764 6.02-22.563 5.2-28.34 3.697-6.637-1.725-7.677-9.969-10.55-10.242-1.99-.19-4.793 1.585-4.467 4.313l24.104 201.767" style="fill:none;fill-rule:evenodd;stroke:#000;stroke-width:1px;stroke-linecap:butt;stroke-linejoin:round;stroke-opacity:1"/>
    <path d="M134.002 233.624c-22.585-3.285-39.7-10.742-53.535-37.289-10.939-20.987-18.91-45.825-18.228-74.121.16-6.64 13.105-6.022 13.336.499.571 16.138 4.827 28.693 9.613 34.516 2.186 2.66 6.002 2.98 4.918-1.848-2.663-11.865-3.016-22.082-2.645-33.095.773-22.998 5.569-42.045 6.793-44.611 2.606-5.464 15.686-2.12 13.782 6.113-2.023 8.75-3.889 32.14-2.107 46.8 1.62 13.331 5.006 22.388 8.99 31.506 2.096 4.797 9.03 4.602 8.775.797-1.704-25.414 6.073-46.893 19.316-60.031 4.902-4.864 15.95 2.772 11.822 10.266-7.361 13.365-11.348 28.501-9.305 45.478.488 4.052 7.506 7.287 8.806.627 2.14-10.967 6.012-20.762 11.551-26.645 4.814-5.113 13.733 2.303 11.86 7.393-6.927 18.824-10.396 35.359-6.123 54.959 2.865 13.146 16.746 24.714 32.307 27.134 7.83 1.218 19.203 2.464 26.572 2.464s18.742-1.246 26.572-2.464c15.56-2.42 29.442-13.988 32.307-27.134 4.273-19.6.804-36.135-6.123-54.96-1.873-5.089 7.046-12.505 11.86-7.392 5.539 5.883 9.41 15.678 11.551 26.645 1.3 6.66 8.318 3.425 8.806-.627 2.043-16.977-1.944-32.113-9.305-45.478-4.128-7.494 6.92-15.13 11.822-10.266 13.243 13.138 21.02 34.617 19.316 60.03-.255 3.806 6.679 4.001 8.775-.796 3.984-9.118 7.37-18.175 8.99-31.505 1.782-14.661-.084-38.051-2.107-46.801-1.904-8.233 11.176-11.577 13.782-6.113 1.224 2.566 6.02 21.613 6.793 44.611.371 11.013.018 21.23-2.645 33.095-1.084 4.828 2.732 4.507 4.918 1.848 4.786-5.823 9.042-18.378 9.613-34.516.23-6.521 13.176-7.139 13.336-.5.682 28.297-7.29 53.135-18.228 74.122-13.835 26.547-30.95 34.004-53.535 37.289-33.49 4.87-68.031 8.163-96.498 8.163s-63.008-3.293-96.498-8.163z" style="fill:#fff;fill-rule:evenodd;stroke:#000;stroke-width:1px;stroke-linecap:butt;stroke-linejoin:miter;stroke-opacity:1"/>
</svg>
