<svg xmlns="http://www.w3.org/2000/svg" xml:space="preserve" viewBox="30.5 31.5 400 500" height="500" width="400">
    <path fill="#fff" d="M230.44 531.14C156.12 477.22 105.18 409.12 74.7 322.98c-27.64-78.1-38.73-172.75-33.91-289.35l.02-.46h379.82l.02.46c4.81 116.6-6.28 211.24-33.91 289.35-30.48 86.14-81.42 154.24-155.74 208.16l-.28.2-.28-.2z" style="fill-opacity:1;fill:#32ac60"/>
    <path d="M419.96 33.21c9.07 219.45-36.26 385.95-189.46 497.1C77.31 419.16 31.99 252.66 41.06 33.21h378.9m.92-.95H40.14l-.04.92c-4.82 116.66 6.28 211.36 33.93 289.52 30.51 86.24 81.51 154.41 155.91 208.39l.56.41.56-.41c74.4-53.98 125.4-122.15 155.91-208.39 27.65-78.16 38.75-172.86 33.93-289.52l-.04-.92z"/>
    <path d="M52.99 101.01c-4.19 1.15 3.71 23.68 8.01 21.72l54.83-24.95c3.19-1.45 8.52-4.21 11.21-1.79 1.7 1.53 1.96 3.75 6.35 3.63v75.01c0 4.95 2.79 9.89 2.77 14.63l-.62 186.67c-.02 4.65 16.45 4.44 16.33-.31 0 0-1.64-53.18-2.16-79.78-1.01-52.16-1.72-139.87-1.85-148.49-.09-6.01 3.18-11.96 6.86-17.29.91-1.32 2.4-3.23 2.84-5.34.39-1.91-.63-3.34-1.33-4.53l-.69-12.52 3.54-.76c2.41-.52.52-10.74-.38-20.92-.88-9.91-1.01-20.17-3.22-19.45l-2.69.88-.62-3.08c-.51-2.54-19.64 1.64-19.41 5.55l.31 5.08c-27.04 11.52-52.97 18.58-80.08 26.04Z" style="fill-opacity:1;fill-rule:evenodd;fill:#ffe000;stroke:#000"/>
    <path d="M133.39 99.63c17.81-4.68 20.37 2.77 22.16 8.06m-22.47-32.71 19.72-7.55m-19.72 7.55 19.72-7.55m-19.72 7.55 19.72-7.55M133.08 74.98l19.72-7.55" style="fill:none;stroke:#000"/>
    <path d="M162.98 190.39c-4.19 1.15 3.71 23.68 8.01 21.72l54.83-24.95c3.19-1.45 8.52-4.21 11.21-1.79 1.7 1.53 1.96 3.75 6.35 3.63v75.01c0 4.95 2.79 9.89 2.77 14.63l-.62 186.67c-.02 4.65 16.45 4.44 16.33-.31 0 0-1.64-53.18-2.16-79.78-1.01-52.16-1.72-139.87-1.85-148.49-.09-6.01 3.18-11.96 6.86-17.29.91-1.32 2.4-3.23 2.84-5.34.39-1.91-.63-3.34-1.33-4.53l-.69-12.52 3.54-.76c2.41-.52.52-10.74-.38-20.92-.88-9.91-1.01-20.17-3.22-19.45l-2.69.88-.62-3.08c-.51-2.54-19.64 1.64-19.41 5.55l.31 5.08c-27.04 11.5-52.97 18.57-80.09 26.03z" style="fill-opacity:1;fill-rule:evenodd;fill:#ffe000;stroke:#000"/>
    <path d="M243.38 189c17.81-4.68 20.37 2.77 22.16 8.06m-22.47-32.7 19.72-7.55m-19.72 7.55 19.72-7.55m-19.72 7.55 19.72-7.55M243.07 164.36l19.72-7.55" style="fill:none;stroke:#000"/>
    <path d="M240.99 101.01c-4.19 1.15 3.71 23.68 8.01 21.72l54.83-24.95c3.19-1.45 8.52-4.21 11.21-1.79 1.7 1.53 1.96 3.75 6.35 3.63v75.01c0 4.95 2.79 9.89 2.77 14.63l-.62 186.67c-.02 4.65 16.45 4.44 16.33-.31 0 0-1.64-53.18-2.16-79.78-1.01-52.16-1.72-139.87-1.85-148.49-.09-6.01 3.18-11.96 6.86-17.29.91-1.32 2.4-3.23 2.84-5.34.39-1.91-.63-3.34-1.33-4.53l-.69-12.52 3.54-.76c2.41-.52.52-10.74-.38-20.92-.88-9.91-1.01-20.17-3.22-19.45l-2.69.88-.62-3.08c-.51-2.54-19.64 1.64-19.41 5.55l.31 5.08c-27.03 11.52-52.96 18.58-80.08 26.04Z" style="fill-opacity:1;fill-rule:evenodd;fill:#ffe000;stroke:#000"/>
    <path d="M321.39 99.63c17.81-4.68 20.37 2.77 22.16 8.06m-22.47-32.71 19.72-7.55m-19.72 7.55 19.72-7.55m-19.72 7.55 19.72-7.55M321.08 74.98l19.72-7.55" style="fill:none;stroke:#000"/>
</svg>
