<svg xmlns="http://www.w3.org/2000/svg" width="400" height="500" viewBox="30.5 31.5 400 500" xml:space="preserve">
    <path style="fill:#0085ca;fill-opacity:1" d="M230.56 531.14c74.32-53.92 125.26-122.02 155.74-208.16 27.64-78.1 38.73-172.75 33.91-289.35l-.02-.46H40.37l-.02.46c-4.81 116.6 6.28 211.24 33.91 289.35 30.48 86.14 81.42 154.24 155.74 208.16l.28.2.28-.2z"/>
    <path d="M41.04 33.21C31.97 252.66 77.3 419.16 230.5 530.31c153.19-111.15 198.51-277.65 189.44-497.1H41.04m-.92-.95H420.86l.04.92c4.82 116.66-6.28 211.36-33.93 289.52-30.51 86.24-81.51 154.41-155.91 208.39l-.56.41-.56-.41c-74.4-53.98-125.4-122.15-155.91-208.39C46.38 244.54 35.28 149.84 40.1 33.18l.04-.92z"/>
    <path d="M207.642 268.097c-7.38-11.92-25.738-31.205-22.294-35.295 2.332-2.769 23.174 9.578 40.702 18.302-20.158-17.335-50.174-31.363-52.533-47.838-3.21-22.416 5.57-39.892 23.433-48.738 20.023-9.917 38.235-8.024 56.987-14.58 7.193-2.514-79.918-6.43-86.372.818l-13.845 15.55-5.764-26.18c-1.944-8.832 40.484-37.16 67.977-52.963-43.977 3.027-96.739 36.438-103.607 47.647 8.04 7.79 14.71 18.28 10.436 37.927-19.387 1.172-26.403 2.77-30.54 18.134l2.237 7.175c8.425-3.249 19.021-2.044 23.96 1.877 28.024 22.256 57.476 45.064 89.223 78.164z" style="fill:#fff;fill-rule:evenodd;stroke:#000;stroke-width:1px;stroke-linecap:round;stroke-linejoin:round;stroke-opacity:1"/>
    <path d="m82.347 193.842 12.112-5.786-2.237-7.175z" style="fill:#e00e00;fill-opacity:1;fill-rule:evenodd;stroke:#000;stroke-width:1px;stroke-linecap:round;stroke-linejoin:miter;stroke-opacity:1"/>
    <path style="fill:#fff;fill-rule:evenodd;stroke:#000;stroke-width:1px;stroke-linecap:round;stroke-linejoin:round;stroke-opacity:1" d="M353.642 264.097c-7.38-11.92-25.738-31.205-22.294-35.295 2.332-2.769 23.174 9.578 40.702 18.302-20.158-17.335-50.174-31.363-52.533-47.838-3.21-22.416 5.57-39.892 23.433-48.738 20.023-9.917 38.235-8.024 56.987-14.58 7.193-2.514-79.918-6.43-86.372.818l-13.845 15.55-5.764-26.18c-1.944-8.832 40.484-37.16 67.977-52.963-43.977 3.027-96.739 36.438-103.607 47.647 8.04 7.79 14.71 18.28 10.436 37.927-19.387 1.172-26.403 2.77-30.54 18.134l2.237 7.175c8.425-3.249 19.021-2.044 23.96 1.877 28.024 22.256 57.476 45.064 89.223 78.164z"/>
    <path style="fill:#e00e00;fill-opacity:1;fill-rule:evenodd;stroke:#000;stroke-width:1px;stroke-linecap:round;stroke-linejoin:miter;stroke-opacity:1" d="m228.347 189.842 12.112-5.786-2.237-7.175z"/>
    <path d="M277.708 443.893c-7.38-11.919-25.738-31.205-22.293-35.295 2.331-2.769 23.174 9.579 40.701 18.302-20.157-17.334-50.173-31.362-52.533-47.838-3.21-22.416 5.57-39.892 23.434-48.738 20.022-9.916 38.235-8.024 56.987-14.58 7.192-2.514-79.918-6.43-86.372.818l-13.845 15.55-5.764-26.18c-1.944-8.832 40.483-37.16 67.977-52.963-43.978 3.027-96.739 36.439-103.607 47.647 8.04 7.79 14.709 18.28 10.436 37.927-19.387 1.172-26.404 2.77-30.54 18.135l2.237 7.174c8.425-3.249 19.02-2.044 23.959 1.878 28.025 22.255 57.476 45.063 89.223 78.163z" style="fill:#fff;fill-rule:evenodd;stroke:#000;stroke-width:1px;stroke-linecap:round;stroke-linejoin:round;stroke-opacity:1"/>
    <path d="m152.414 369.638 12.112-5.786-2.238-7.175z" style="fill:#e00e00;fill-opacity:1;fill-rule:evenodd;stroke:#000;stroke-width:1px;stroke-linecap:round;stroke-linejoin:miter;stroke-opacity:1"/>
</svg>
