<svg xmlns="http://www.w3.org/2000/svg" width="400" height="500" viewBox="30.5 31.5 400 500" xml:space="preserve">
    <path style="fill:#e00e00;fill-opacity:1" d="M230.67 530.86C156.35 476.94 105.41 408.84 74.93 322.7 47.29 244.6 36.2 149.95 41.02 33.35l.02-.46h379.82l.02.46c4.81 116.6-6.28 211.24-33.91 289.35-30.48 86.14-81.42 154.24-155.74 208.16l-.28.2-.28-.2z"/>
    <path d="M419.96 33.21c9.07 219.45-36.26 385.95-189.46 497.1C77.31 419.16 31.99 252.66 41.06 33.21h378.9m.92-.95H40.14l-.04.92c-4.82 116.66 6.28 211.36 33.93 289.52 30.51 86.24 81.51 154.41 155.91 208.39l.56.41.56-.41c74.4-53.98 125.4-122.15 155.91-208.39 27.65-78.16 38.75-172.86 33.93-289.52l-.04-.92z"/>
    <path d="M211.217 282.34v-5.754h-44.969c-.785 0-.641 8.995 0 9.01h5.072v8.478h15.217v-6.36l8.403-.075v6.89h6.814v9.538h-6.814v6.89l-8.403-.077v-6.359H171.32v8.48h-5.072c-.64-.075-.683 8.94 0 9.008h44.969v-5.754h12.247v82.795c-4.28-3.768-8.07-5.96-14.544-5.94-13.959.045-22.617 13.156-24.889 25.483-2.699 14.651 2.819 32.293 15.679 41.804 9.89 7.315 19.96 8.328 30.7 8.328 10.74 0 20.809-1.013 30.699-8.328 12.86-9.511 18.377-27.153 15.678-41.804-2.271-12.327-10.93-25.438-24.888-25.483-6.475-.02-10.264 2.172-14.545 5.94v-75.073l-.151-63.44c-.003-1.39-13.739-1.44-13.739 0v21.844z" style="fill:#ffe000;fill-opacity:1;fill-rule:evenodd;stroke:#000;stroke-width:1;stroke-linecap:round;stroke-linejoin:round;stroke-opacity:1;stroke-miterlimit:4;stroke-dasharray:none"/>
    <path d="M230.485 457.37c11.934.072 22.69-2.743 30.321-14.233 6.138-9.244 7.198-21.08 3.028-28.617-3.84-6.94-12.861-11.757-19.229-6.965-3.424 2.578-4.58 5.142-4.466 8.706.066 2.085 4.104 6.076 6.907 9.829 2.704 3.62-7.539 11.167-9.692 8.113l-4.47-6.34c-1.343-1.41-4.17-1.044-4.95 0l-4.47 6.34c-2.152 3.054-12.395-4.493-9.692-8.113 2.804-3.753 6.842-7.744 6.908-9.829.113-3.564-1.042-6.128-4.467-8.706-6.367-4.792-15.389.025-19.229 6.965-4.17 7.537-3.11 19.373 3.029 28.617 7.63 11.49 18.386 14.305 30.32 14.232" style="fill:#e00e00;fill-opacity:1;fill-rule:evenodd;stroke:#000;stroke-width:1;stroke-linecap:butt;stroke-linejoin:miter;stroke-opacity:1;stroke-miterlimit:4;stroke-dasharray:none"/>
    <path style="fill:#ffe000;fill-opacity:1;fill-rule:evenodd;stroke:#000;stroke-width:1;stroke-linecap:round;stroke-linejoin:round;stroke-opacity:1;stroke-miterlimit:4;stroke-dasharray:none" d="m207.293 209.357 3.451 4.588 35.86-26.973c.626-.47-4.884-7.557-5.403-7.184l-4.045 3.043-5.086-6.762-12.134 9.127 3.814 5.072-6.656 5.1-4.132-5.493-5.433 4.086-5.722-7.606 5.434-4.087-4.133-5.494 6.747-4.98 3.814 5.071 12.135-9.127-5.086-6.761 4.045-3.043c.554-.324-4.818-7.539-5.404-7.184l-35.86 26.973 3.451 4.588-9.766 7.346-49.662-66.024c5.674.437 10.01-.087 15.162-3.987 11.104-8.408 10.144-24.057 4.562-35.25-6.636-13.302-21.618-24.061-37.578-23.932-12.274.099-20.911 5.331-29.476 11.773-8.564 6.442-15.987 13.29-19.486 25.055-4.55 15.298 1.631 32.676 12.572 42.74 9.205 8.468 23.974 13.73 35.132 5.393 5.176-3.867 6.882-7.888 8.035-13.46l45.03 59.866 38.174 50.5c.836 1.106 11.82-7.093 10.955-8.241l-13.102-17.42z"/>
    <path style="fill:#e00e00;fill-opacity:1;fill-rule:evenodd;stroke:#000;stroke-width:1;stroke-linecap:butt;stroke-linejoin:miter;stroke-opacity:1;stroke-miterlimit:4;stroke-dasharray:none" d="M86.943 81.338c-9.56 7.1-16.45 15.797-15.642 29.537.649 11.052 6.904 21.127 14.75 24.636 7.224 3.231 17.308 1.661 19.51-5.98 1.186-4.11.57-6.847-1.66-9.621-1.303-1.623-6.916-2.384-11.403-3.695-4.327-1.265-.686-13.428 2.862-12.283l7.368 2.375c1.917.317 3.951-1.669 3.948-2.97l-.24-7.737c-.114-3.726 12.581-3.851 12.596.657.016 4.674-.81 10.278.387 11.98 2.048 2.912 4.507 4.263 8.784 4.264 7.952.003 12.257-9.25 11.156-17.087-1.195-8.511-9.14-17.315-19.579-21.004-12.977-4.586-23.243-.38-32.716 6.837"/>
    <path d="m280.258 232.337-3.692 4.408 34.451 28.854c.601.503 6.263-6.48 5.78-6.902l-3.885-3.255 5.44-6.496-11.658-9.763-4.08 4.872-6.486-5.334 4.42-5.278-5.22-4.372 6.12-7.307 5.22 4.371 4.42-5.278 6.39 5.45-4.08 4.872 11.657 9.764 5.44-6.496 3.886 3.254c.443.467 6.26-6.41 5.78-6.902l-34.45-28.853-3.692 4.408-9.383-7.858 53.124-63.43c.861 5.633 2.357 9.743 7.331 13.882 10.723 8.923 25.768 4.433 35.418-3.554 11.469-9.492 18.561-26.548 14.811-42.086-2.883-11.95-9.948-19.187-18.176-26.078-8.228-6.89-16.592-12.576-28.862-13.318-15.955-.964-31.502 9.011-38.835 21.968-6.17 10.901-7.948 26.501 2.717 35.491 4.948 4.17 9.257 4.922 14.954 4.782l-48.169 57.515-40.59 48.7c-.889 1.067 9.602 9.918 10.526 8.815l14.016-16.736z" style="fill:#ffe000;fill-opacity:1;fill-rule:evenodd;stroke:#000;stroke-width:1;stroke-linecap:round;stroke-linejoin:round;stroke-opacity:1;stroke-miterlimit:4;stroke-dasharray:none"/>
    <path d="M377.8 85.881c-9.096-7.713-19.143-12.457-32.361-8.55-10.634 3.142-19.04 11.53-20.681 19.98-1.512 7.78 2.31 17.26 10.262 17.674 4.277.222 6.808-1 9.008-3.804 1.287-1.64.754-7.288 1.015-11.962.25-4.508 12.94-3.718 12.63.003l-.644 7.725c.126 1.942 2.525 3.475 3.793 3.177l7.493-1.99c3.609-.959 6.613 11.396 2.22 12.434-4.556 1.077-10.21 1.543-11.6 3.098-2.373 2.658-3.133 5.364-2.163 9.536 1.803 7.757 11.806 9.855 19.2 7.002 8.03-3.099 14.814-12.847 16.041-23.867 1.527-13.698-4.907-22.757-14.097-30.358" style="fill:#e00e00;fill-opacity:1;fill-rule:evenodd;stroke:#000;stroke-width:1;stroke-linecap:butt;stroke-linejoin:miter;stroke-opacity:1;stroke-miterlimit:4;stroke-dasharray:none"/>
</svg>
