<svg xmlns="http://www.w3.org/2000/svg" width="400" height="500" viewBox="30.5 31.5 400 500" xml:space="preserve">
    <path d="M230.44 531.14C156.12 477.22 105.18 409.12 74.7 322.98c-27.64-78.1-38.73-172.75-33.91-289.35l.02-.46h379.82l.02.46c4.81 116.6-6.28 211.24-33.91 289.35-30.48 86.14-81.42 154.24-155.74 208.16l-.28.2-.28-.2z" style="fill:#32ac60"/>
    <path d="M419.96 33.21c9.07 219.45-36.26 385.95-189.46 497.1C77.31 419.16 31.99 252.66 41.06 33.21h378.9m.92-.95H40.14l-.04.92c-4.82 116.66 6.28 211.36 33.93 289.52 30.51 86.24 81.51 154.41 155.91 208.39l.56.41.56-.41c74.4-53.98 125.4-122.15 155.91-208.39 27.65-78.16 38.75-172.86 33.93-289.52l-.04-.92z"/>
    <path d="M242.752 74.807c6.123 3.721 9.354 8.305 9.358 14.915.005 8.132-3.45 11.5-8.975 17.656-2.481 2.766-.852 5.765 1.174 7.813 2.048 2.026 5.047 3.655 7.813 1.174 6.157-5.525 9.524-8.98 17.656-8.975 6.61.004 11.194 3.235 14.915 9.358 2.413 3.969 5.076 9.49 11.532 12.252-6.456 2.763-9.12 8.283-11.532 12.252-3.721 6.123-8.305 9.354-14.915 9.358-8.132.005-11.5-3.45-17.656-8.975-2.766-2.481-5.765-.852-7.813 1.174-2.026 2.048-3.655 5.047-1.174 7.813 5.525 6.157 8.98 9.524 8.975 17.656-.004 6.61-3.235 11.194-9.358 14.915-3.969 2.413-9.49 5.076-12.252 11.532-2.763-6.456-8.283-9.12-12.252-11.532-6.123-3.721-9.354-8.305-9.358-14.915-.005-8.132 3.45-11.5 8.975-17.656 2.481-2.766.852-5.765-1.174-7.813-2.048-2.026-5.047-3.655-7.813-1.174-6.157 5.525-9.524 8.98-17.656 8.975-6.61-.004-11.194-3.235-14.915-9.358-2.413-3.969-5.076-9.49-11.532-12.252 6.456-2.763 9.12-8.283 11.532-12.252 3.721-6.123 8.305-9.354 14.915-9.358 8.132-.005 11.5 3.45 17.656 8.975 2.766 2.481 5.765.852 7.813-1.174 2.026-2.048 3.655-5.047 1.174-7.813-5.525-6.157-8.98-9.524-8.975-17.656.004-6.61 3.235-11.194 9.358-14.915 3.969-2.413 9.49-5.076 12.252-11.532 2.763 6.456 8.283 9.12 12.252 11.532zM156.527 184.807c6.123 3.721 9.354 8.305 9.358 14.915.005 8.132-3.45 11.5-8.975 17.656-2.482 2.766-.853 5.765 1.173 7.813 2.05 2.026 5.048 3.655 7.814 1.174 6.156-5.525 9.523-8.98 17.656-8.975 6.61.004 11.193 3.235 14.915 9.358 2.413 3.969 5.076 9.49 11.532 12.252-6.456 2.763-9.12 8.283-11.532 12.252-3.722 6.123-8.306 9.354-14.915 9.358-8.133.005-11.5-3.45-17.656-8.975-2.766-2.481-5.765-.852-7.814 1.174-2.026 2.048-3.655 5.047-1.173 7.813 5.525 6.157 8.98 9.524 8.975 17.656-.004 6.61-3.235 11.194-9.358 14.915-3.969 2.413-9.49 5.076-12.252 11.532-2.763-6.456-8.284-9.12-12.253-11.532-6.122-3.721-9.353-8.305-9.357-14.915-.005-8.132 3.45-11.5 8.974-17.656 2.482-2.766.853-5.765-1.173-7.813-2.049-2.026-5.047-3.655-7.813-1.174-6.157 5.525-9.524 8.98-17.656 8.975-6.61-.004-11.194-3.235-14.916-9.358-2.412-3.969-5.075-9.49-11.532-12.252 6.457-2.763 9.12-8.283 11.532-12.252 3.722-6.123 8.306-9.354 14.916-9.358 8.132-.005 11.5 3.45 17.656 8.975 2.766 2.481 5.764.852 7.813-1.174 2.026-2.048 3.655-5.047 1.173-7.813-5.524-6.157-8.98-9.524-8.974-17.656.004-6.61 3.235-11.194 9.357-14.915 3.97-2.413 9.49-5.076 12.253-11.532 2.763 6.456 8.283 9.12 12.252 11.532zM328.978 184.807c6.122 3.721 9.353 8.305 9.357 14.915.005 8.132-3.45 11.5-8.974 17.656-2.482 2.766-.853 5.765 1.173 7.813 2.049 2.026 5.047 3.655 7.813 1.174 6.157-5.525 9.524-8.98 17.656-8.975 6.61.004 11.194 3.235 14.916 9.358 2.412 3.969 5.075 9.49 11.532 12.252-6.457 2.763-9.12 8.283-11.532 12.252-3.722 6.123-8.306 9.354-14.916 9.358-8.132.005-11.5-3.45-17.656-8.975-2.766-2.481-5.764-.852-7.813 1.174-2.026 2.048-3.655 5.047-1.173 7.813 5.524 6.157 8.98 9.524 8.974 17.656-.004 6.61-3.235 11.194-9.357 14.915-3.97 2.413-9.49 5.076-12.253 11.532-2.763-6.456-8.283-9.12-12.252-11.532-6.123-3.721-9.354-8.305-9.358-14.915-.005-8.132 3.45-11.5 8.975-17.656 2.482-2.766.853-5.765-1.173-7.813-2.05-2.026-5.048-3.655-7.814-1.174-6.156 5.525-9.523 8.98-17.656 8.975-6.61-.004-11.193-3.235-14.915-9.358-2.413-3.969-5.076-9.49-11.532-12.252 6.456-2.763 9.12-8.283 11.532-12.252 3.722-6.123 8.306-9.354 14.915-9.358 8.133-.005 11.5 3.45 17.656 8.975 2.766 2.481 5.765.852 7.814-1.174 2.026-2.048 3.655-5.047 1.173-7.813-5.525-6.157-8.98-9.524-8.975-17.656.004-6.61 3.235-11.194 9.358-14.915 3.969-2.413 9.49-5.076 12.252-11.532 2.763 6.456 8.284 9.12 12.253 11.532zM242.752 294.932c6.123 3.722 9.354 8.306 9.358 14.915.005 8.133-3.45 11.5-8.975 17.656-2.481 2.766-.852 5.765 1.174 7.814 2.048 2.026 5.047 3.655 7.813 1.173 6.157-5.525 9.524-8.98 17.656-8.975 6.61.004 11.194 3.235 14.915 9.358 2.413 3.969 5.076 9.49 11.532 12.252-6.456 2.763-9.12 8.284-11.532 12.253-3.721 6.122-8.305 9.353-14.915 9.357-8.132.005-11.5-3.45-17.656-8.974-2.766-2.482-5.765-.853-7.813 1.173-2.026 2.049-3.655 5.047-1.174 7.813 5.525 6.157 8.98 9.524 8.975 17.656-.004 6.61-3.235 11.194-9.358 14.916-3.969 2.412-9.49 5.075-12.252 11.532-2.763-6.457-8.283-9.12-12.252-11.532-6.123-3.722-9.354-8.306-9.358-14.916-.005-8.132 3.45-11.5 8.975-17.656 2.481-2.766.852-5.764-1.174-7.813-2.048-2.026-5.047-3.655-7.813-1.173-6.157 5.524-9.524 8.98-17.656 8.974-6.61-.004-11.194-3.235-14.915-9.357-2.413-3.97-5.076-9.49-11.532-12.253 6.456-2.763 9.12-8.283 11.532-12.252 3.721-6.123 8.305-9.354 14.915-9.358 8.132-.005 11.5 3.45 17.656 8.975 2.766 2.482 5.765.853 7.813-1.173 2.026-2.05 3.655-5.048 1.174-7.814-5.525-6.156-8.98-9.523-8.975-17.656.004-6.61 3.235-11.193 9.358-14.915 3.969-2.413 9.49-5.076 12.252-11.532 2.763 6.456 8.283 9.12 12.252 11.532z" style="fill:#fff;fill-rule:evenodd;stroke:#000;stroke-width:1px;stroke-linecap:butt;stroke-linejoin:miter;stroke-opacity:1"/>
</svg>
