<svg xmlns="http://www.w3.org/2000/svg" width="400" height="500" viewBox="30.5 31.5 400 500" xml:space="preserve">
    <path style="fill:#e00e00" d="M230.45 531.13c-74.32-53.92-125.26-122.02-155.74-208.16-27.64-78.1-38.73-172.75-33.91-289.35l.02-.46h379.82l.02.46c4.81 116.6-6.28 211.24-33.91 289.35-30.48 86.14-81.42 154.24-155.74 208.16l-.28.2z"/>
    <path d="M419.96 33.21c9.07 219.45-36.25 385.95-189.45 497.1C146.04 469.02 94.36 390.9 66.52 296.34a557.24 557.24 0 0 1-5.87-21.54c-11.45-45.69-17.77-95.02-19.88-147.94-1.2-30.06-1.05-61.28.29-93.65h378.9m.92-.95H40.14l-.04.92c-4.82 116.66 6.28 211.36 33.93 289.52 30.51 86.24 81.51 154.41 155.91 208.39l.56.41.56-.41c74.4-53.98 125.4-122.15 155.91-208.39 27.65-78.16 38.75-172.86 33.93-289.52l-.04-.92z"/>
    <path d="m209.062 307.311 6.802-6.455M251.936 307.311l-6.802-6.455" style="fill:none;fill-rule:evenodd;stroke:#000;stroke-width:1px;stroke-linecap:round;stroke-linejoin:miter;stroke-opacity:1"/>
    <path d="M219.1 215.115c3.308 7.058 6.4 15.425 6.4 30.023v37.465c-4.115-6.332-8.804-11.58-16.438-18.166-19.545-16.124-27.845-17.148-37.671-17.324-11.597-.207-20.265 7.27-20.436 15.374-.256 12.128 7.987 11.408 7.987 23.387 0 11.98-8.243 11.26-7.987 23.387.171 8.105 8.839 15.58 20.436 15.374 9.826-.176 18.126-1.2 37.671-17.324-16.124 19.545-17.148 27.845-17.324 37.672-.206 11.597 7.27 20.264 15.375 20.435 12.127.256 11.407-7.986 23.386-7.986 11.98 0 11.26 8.242 23.387 7.986 8.105-.17 15.58-8.838 15.374-20.435-.175-9.827-1.2-18.127-17.324-37.672 19.545 16.124 27.845 17.148 37.672 17.324 11.597.207 20.264-7.27 20.435-15.374.256-12.128-7.986-11.408-7.986-23.387 0-11.98 8.242-11.26 7.986-23.387-.17-8.105-8.838-15.58-20.435-15.374-9.827.176-18.127 1.2-37.672 17.324-7.633 6.587-12.323 11.834-16.438 18.166v-37.465c0-14.598 3.093-22.965 6.4-30.023 3.956-8.439 20.822-19.251 29.283-24.004l32.404-18.805c-3.411 6.737-5.595 13.427-7.46 23.335-4.135 24.998-.855 32.69 3.926 41.278 5.643 10.133 16.46 13.877 23.555 9.957 10.617-5.866 5.857-12.634 16.218-18.647 10.36-6.013 13.875 1.478 24.236-4.831 6.924-4.217 9.039-15.466 3.039-25.392-5.084-8.41-10.137-15.075-33.893-23.886 24.998 4.135 32.69.854 41.278-3.927 10.133-5.642 13.877-16.459 9.957-23.555-5.866-10.617-12.634-5.857-18.647-16.217-6.013-10.361 1.478-13.876-4.831-24.236-4.217-6.924-15.466-9.04-25.392-3.04-8.41 5.085-15.075 10.137-23.886 33.894 4.135-24.998.854-32.691-3.927-41.278-5.642-10.134-16.459-13.878-23.555-9.957-10.617 5.866-5.857 12.633-16.217 18.646-10.361 6.014-13.876-1.477-24.236 4.832-6.924 4.216-9.04 15.466-3.04 25.392 5.085 8.41 10.137 15.075 33.894 23.886 9.528 3.296 16.42 4.718 23.962 5.098l-32.403 18.806C260.536 185.346 239.591 200 230.5 200c-9.091 0-30.036-14.654-35.663-17.536l-32.403-18.806c7.542-.38 14.434-1.802 23.962-5.098 23.757-8.811 28.81-15.476 33.893-23.886 6-9.926 3.885-21.176-3.039-25.392-10.36-6.309-13.875 1.182-24.236-4.832-10.36-6.013-5.6-12.78-16.217-18.646-7.096-3.92-17.913-.177-23.555 9.957-4.781 8.587-8.062 16.28-3.927 41.278-8.81-23.757-15.475-28.81-23.886-33.893-9.926-6-21.175-3.885-25.392 3.039-6.309 10.36 1.182 13.875-4.831 24.236-6.013 10.36-12.78 5.6-18.647 16.217-3.92 7.096-.176 17.913 9.957 23.555 8.587 4.781 16.28 8.062 41.278 3.927-23.756 8.81-28.809 15.475-33.893 23.886-6 9.926-3.885 21.175 3.04 25.392 10.36 6.309 13.874-1.182 24.235 4.831 10.36 6.013 5.6 12.78 16.218 18.647 7.096 3.92 17.912.176 23.555-9.957 4.78-8.587 8.061-16.28 3.926-41.278-1.865-9.908-4.049-16.598-7.46-23.335l32.403 18.805c8.46 4.753 25.326 15.565 29.281 24.004z" style="fill:#fff;fill-rule:evenodd;stroke:#000;stroke-width:1px;stroke-linecap:round;stroke-linejoin:round;stroke-opacity:1"/>
    <path d="m209.062 307.311 2.59-2.552M251.936 307.311l-2.589-2.552M127.794 174.12l3.53-.869M149.315 137.039l.869 3.53M311.685 137.039l-.869 3.53M333.206 174.12l-3.53-.869" style="fill:none;fill-rule:evenodd;stroke:#000;stroke-width:1px;stroke-linecap:round;stroke-linejoin:miter;stroke-opacity:1"/>
</svg>
