<svg xmlns="http://www.w3.org/2000/svg" xml:space="preserve" viewBox="30.5 31.5 400 500" height="500" width="400">
    <path d="M230.44 531.14C156.12 477.22 105.18 409.12 74.7 322.98c-27.64-78.1-38.73-172.75-33.91-289.35l.02-.46h379.82l.02.46c4.81 116.6-6.28 211.24-33.91 289.35-30.48 86.14-81.42 154.24-155.74 208.16l-.28.2-.28-.2z" fill="#0085ca"/>
    <path d="M230.5 530.73C143.77 468.74 95.92 390.01 69.03 306c2.31-18.54 15.82-32.95 33.16-37.2 16.18-3.96 36.97 2.04 47.68 20.31-1.92-34.5 24.4-83.45 80.62-83.45 56.22 0 82.54 48.95 80.62 83.45 10.72-18.27 31.51-24.27 47.68-20.31 17.34 4.25 30.86 18.66 33.16 37.2-26.89 84.01-74.73 162.74-161.47 224.73" style="fill-rule:evenodd;fill:#ffe000"/>
    <path d="M419.96 33.21c9.07 219.45-36.26 385.95-189.46 497.1C77.31 419.16 31.99 252.66 41.06 33.21h378.9m.92-.95H40.14l-.04.92c-4.82 116.66 6.28 211.36 33.93 289.52 30.51 86.24 81.51 154.41 155.91 208.39l.56.41.56-.41c74.4-53.98 125.4-122.15 155.91-208.39 27.65-78.16 38.75-172.86 33.93-289.52l-.04-.92z"/>
    <path d="M69.03 306c2.31-18.54 15.82-32.95 33.16-37.2 16.18-3.96 36.97 2.04 47.68 20.31-1.92-34.5 24.4-83.45 80.62-83.45 56.22 0 82.54 48.95 80.62 83.45 10.72-18.27 31.51-24.27 47.68-20.31 17.34 4.25 30.86 18.66 33.16 37.2" style="fill:none;stroke-linejoin:round;stroke:#000"/>
</svg>
