<svg xmlns="http://www.w3.org/2000/svg" width="400" height="500" viewBox="30.5 31.5 400 500" xml:space="preserve">
    <path d="M230.56 531.14c74.32-53.92 125.26-122.02 155.74-208.16 27.64-78.1 38.73-172.75 33.91-289.35l-.02-.46H40.37l-.02.46c-4.81 116.6 6.28 211.24 33.91 289.35 30.48 86.14 81.42 154.24 155.74 208.16l.28.2.28-.2z" style="fill:#ffe000;fill-opacity:1"/>
    <path d="M41.04 33.21C31.97 252.66 77.3 419.16 230.5 530.31c153.19-111.15 198.51-277.65 189.44-497.1H41.04m-.92-.95H420.86l.04.92c4.82 116.66-6.28 211.36-33.93 289.52-30.51 86.24-81.51 154.41-155.91 208.39l-.56.41-.56-.41c-74.4-53.98-125.4-122.15-155.91-208.39C46.38 244.54 35.28 149.84 40.1 33.18l.04-.92z"/>
    <path style="fill:#000;fill-opacity:1;stroke:#000;stroke-width:1;stroke-linecap:round;stroke-linejoin:round;stroke-miterlimit:4;stroke-dasharray:none;stroke-opacity:1" d="m84.11 54.497-.032 16.116c13.68 13.273 26.426 26.28 34.35 39.308 15.827 2.328 47.331 17.41 60.26 34.386 13.601 17.857 16.754 30.512 16.256 113.14-.324 53.76 1.551 81.556-32.662 78.879-24.584-1.924-38.01-26.05-42.785-38.362l18.952.032-68.987-72.391c6.81 22.816 28.477 151.214 98.234 148.339 47.16-1.944 58.235-33.96 54.63-129.782-2.253-59.875 7.188-99.536-16.086-119.354-26.832-22.846-70.508-46.915-122.13-70.311ZM376.891 54.494l.032 16.116c-13.68 13.273-26.426 26.28-34.35 39.31-15.827 2.327-47.333 17.41-60.263 34.386-13.6 17.857-16.753 30.512-16.255 113.141.324 53.762-1.551 81.558 32.662 78.881 24.585-1.923 38.01-26.05 42.787-38.362l-18.953.032 68.989-72.393c-6.81 22.817-28.478 151.217-98.236 148.342-47.162-1.944-58.237-33.961-54.631-129.784 2.252-59.876-7.189-99.539 16.086-119.357 26.832-22.846 70.509-46.915 122.132-70.312z"/>
</svg>
