<svg xmlns="http://www.w3.org/2000/svg" xml:space="preserve" viewBox="30.5 31.5 400 500" height="500" width="400">
    <path d="M230.45 531.13c-74.32-53.92-125.26-122.02-155.74-208.16-27.64-78.1-38.73-172.75-33.91-289.35l.02-.46h379.82l.02.46c4.81 116.6-6.28 211.24-33.91 289.35-30.48 86.14-81.42 154.24-155.74 208.16l-.28.2-.28-.2z" style="fill:#e00e00"/>
    <path d="M419.96 33.21c9.07 219.45-36.25 385.95-189.45 497.1C146.04 469.02 94.36 390.9 66.52 296.34a557.24 557.24 0 0 1-5.87-21.54c-11.45-45.69-17.77-95.02-19.88-147.94-1.2-30.06-1.05-61.28.29-93.65h378.9m.92-.95H40.14l-.04.92c-4.82 116.66 6.28 211.36 33.93 289.52 30.51 86.24 81.51 154.41 155.91 208.39l.56.41.56-.41c74.4-53.98 125.4-122.15 155.91-208.39 27.65-78.16 38.75-172.86 33.93-289.52l-.04-.92z"/>
    <path style="fill:#fff;stroke:#000;stroke-linecap:round;stroke-linejoin:round;stroke-opacity:1" d="M103.002 80.473c-3.675 3.523 2.355 5.656 6.28 4.175 6.706-2.53 8.496 10.75 8.828 14.162 1.305 13.397.402 24.925-.579 38.322-11.305-20.74-20.776-40.798-32.162-43.63-6.696-1.664-14.481 4.92-15.475 9.902-.77 3.86 5.914 1.397 7.822-.392 8.686-8.15 18.978 16.093 32.367 37.274-17.578-8.693-33.887-21.08-46.418-19.1-5.713.903-10.315 3.977-8.519 13.555.897 4.778 6.58.508 6.95-2.964.52-4.885 14.888-.665 20.392 2.565l25.784 15.282c7.358 4.361-15.242 33.686-19.237 36.84-4.818 3.58-10.434 4.203-11.765-.253-1.46-4.887-7.805-5.477-7.477-2.17.478 4.825 4.395 11.943 12.4 12.828 12.408 1.372 25.054-21.354 34.004-38.84 20.368 19.528 35.436 53.228 51.351 76.318 2.365-6.375 3.149-18.789 7.65-23.32-18.485-19.31-39.072-40.064-51.616-63.83 2.48-19.98 2.822-45.747 2.225-59.647-.359-8.341-12.256-17.19-22.805-7.077z"/>
    <path style="fill:#fff;stroke:#000;stroke-linecap:round;stroke-linejoin:round;stroke-opacity:1" d="M168.342 105.394c2.706-.406 4.322-1.121 6.065-2.352-6.687-3.388-12.851-9.416-16.608-15.534-.817 14.962 2.886 22.977 5.548 25.984.525-2 .81-3.722 2.043-5.368 10.51 15.182 38.331.216 46.314 19.523-6.376 6.177-11.03 7.593-15.203 5.512l-6.557 23.375c11.63-6.985 17.888-18.994 26.938-20.952 5.903-1.277 13.572 2.886 7.127 12.4-4.99 7.364-24.188 14.422-23.945 25.37-14.544 6.78-22.088 16.466-21.95 33.351-13.84 15.733-17.774 34.013-4.418 48.46-3.298 12.368 1.423 21.6 11.26 26.653-1.081 3.442-.357 7.638 1.43 9.984 0 0-2.84 2.72-4.444 5.66-3.025 5.257-1.983 13.337-7.39 25.974-13.303-19.099-38.439-45.45-39.496-59.36-1.04-13.703-.968-21.174-9.464-52.835-2.176-8.107-19.065-9.521-23.561.643-.734 1.659-.395 4.648 4.9 1.757 5.19-2.835 10.42-.224 12.569 4.877 4.298 10.199 6.637 27.702 9.576 44.463-14.86-13.112-40.907-42.779-51.962-18.886-1.598 3.453 2.818 5.317 5.521 2.757 2.348-2.224 4.12-5.913 12.122-2.135 12.7 5.997 24.622 18.677 28 22.734-11.129-2.262-19.111-2.592-29.675-1.798-8.559.644-13.06 9.5-9.165 19.123.602 1.488 4.118-.105 4.445-4.987.847-12.66 33.932-5.064 38.066-4.136 3.248.728-.23 47.326-15.586 40.518-2.733-1.212-9.746-1.69-7.479 2.336 28.661 22.683 29.298-19.463 31.414-30.326l39.062 67.466c5.816 10.046 8.205-15.518 14.435-19.44 10.955-6.895 20.016-3.768 27.258-18.868.116 5.939 6.632 17.95 18.544 16.818-.19 5.971 5.76 13.514 14.322 13.027.374 5.334 3.285 13.084 11.613 13.933l1.264 7.545c1.476 8.542 1.163 13.5 1.31 21.655-.245 21.877-14.826 36.054-32.748 38.836-10.945 1.699-28.727-7.868-30.822-22.235-.952-6.535 1.096-15.817 9.148-21.949 13.033-9.926 35.467-5.288 54.421 5.348-.095-6.269.263-11.54-1.309-21.655-16.367-9.055-38.057-13.967-59.008-8.217-18.327 5.03-32.692 22.894-33.485 43.51-.875 22.773 12.393 42.138 33.588 51.126 11.457 4.859 25.627 7.075 40.273 4.674 16.984-2.785 32.327-13.594 42.944-33.003 19.057-34.834 21.487-91.747-18.107-143.794 14.58-9.617 38.588-12.042 53.519 3.99 11.468-16.321 27.284-21.35 46.25-15.25-9.749-22.493-2.874-44.191 20.24-52.165-19.673-20.07-14.306-58.83 13.824-73.26-26.169-30.022-20.394-61.419 4.561-93.64-55.957-.288-145.525 74.093-126.707 100.482 12.302 17.252 3.181 28.066-5.701 38.197-8.135 5.628-17.45 10.666-25.706 15.943-6.285-10.707 2.587-22.928 7.89-36.61 5.267-13.59 16.13-22.18 6.413-48.601 16.154-26.13 1.36-27.754 6.347-34.413 3.784-5.055 7.027-9.194 6.515-14.238-4.775 3.477-9.321 3.407-11.593 6.261-3.559 4.472-4.176 7.595-6.542 8.896-1.23-4.989-1.217-9.977.305-14.966-7.006 4.661-8.832 11.02-7.859 18.386-7.14.895-16.975-9.833-22.804-8.409-2.358.576-3.07 2.093-3.279 4.134-5.546.09-12.044.499-19.24 1.14-5.227-4.522-10.453-7.568-15.679-7.697 2.903 6.365 7.03 10.037 7.411 21.95l29.076 9.834c2.663.9 5.54 4.941 1.853 7.982l-5.793 3.326c-12.937-20.516-43.95-7.885-52.44-18.834z"/>
    <path style="fill:#fff;stroke:#000;stroke-linecap:round;stroke-linejoin:round;stroke-opacity:1" d="M297.126 393.195c14.453-6.578 28.72-20.391 35.992-47.6.21-.784 1.127-2.97 3.357-.875l4.818 4.525c2.401-5.876-.539-33.39-23.503-47.88 1.975 17.749-4.13 34.315-11.28 50.543 4.71.19 8.643-3.012 13.963-6.647 1.948-1.33 3.398-1.813 3.13-.375-2.542 14.856-18.136 27.098-24.681 28.907-.142 6.753-.832 12.443-1.796 19.402z"/>
    <path style="fill:none;stroke:#000;stroke-width:1;stroke-linecap:round;stroke-linejoin:miter;stroke-miterlimit:4;stroke-dasharray:none;stroke-opacity:1" d="M226.64 92.063c5.227-.128 5.295 3.688 10.937 4.765"/>
    <path style="fill:none;stroke:#000;stroke-width:1;stroke-linecap:round;stroke-linejoin:miter;stroke-miterlimit:4;stroke-dasharray:none;stroke-opacity:.94117647" d="M234.374 96.036c.046 1.431-.683 3.349-2.04 3.524-1.988.257-4-3.391-.699-5.285"/>
    <path d="M247.76 207.253c-4.89 3.062-9.27 6.279-11.437 8.106M186.386 291.8c3.909-3.564 6.583-5.27 9.86-7.473M215.532 317.337l1.775-4.582" style="fill:none;fill-rule:evenodd;stroke:#000;stroke-width:1px;stroke-linecap:round;stroke-linejoin:miter;stroke-opacity:1"/>
</svg>
