<svg xmlns="http://www.w3.org/2000/svg" width="400" height="500">
    <path d="M400 0c2.4 233.5-59.4 395.1-200 500C59.4 395.1-2.4 233.5 0 0h400z" style="fill:#0085ca;fill-opacity:1;stroke:none"/>
    <path d="m192.18 58.53-19.45-35.64h-8.56l28.79 54.46-123.87 232.8h261.82L207.04 77.35l28.79-54.46h-8.56l-19.45 35.64 7.78-35.64h-7.16L200 56.97l-8.44-34.08h-7.16z" style="fill:#fce300;fill-opacity:1;stroke:none"/>
    <path d="m154.82 312.15 20.85-113.73h48.66l20.85 113.73" style="fill:none;stroke:#0085ca;stroke-width:2;stroke-linecap:butt;stroke-linejoin:round;stroke-miterlimit:4;stroke-opacity:1;stroke-dasharray:none"/>
    <path d="M192.33 131.2 200 96.18l7.67 35.01h-15.34zM172.61 131.2 192 96.18l-6.2 35.01zM227.39 131.2 208 96.18l6.2 35.01z" style="fill:#0085ca;fill-opacity:1;stroke:none"/>
</svg>
