<svg xmlns="http://www.w3.org/2000/svg" width="400" height="500" viewBox="30.5 31.5 400 500" xml:space="preserve">
    <path style="fill:#0085ca;fill-opacity:1" d="M230.33 530.86c74.32-53.92 125.26-122.02 155.74-208.16 27.64-78.1 38.73-172.75 33.91-289.35l-.02-.46H40.14l-.02.46c-4.81 116.6 6.28 211.24 33.91 289.35 30.48 86.14 81.42 154.24 155.74 208.16l.28.2.28-.2z"/>
    <path d="M41.04 33.21C31.97 252.66 77.3 419.16 230.5 530.31c153.19-111.15 198.51-277.65 189.44-497.1H41.04m-.92-.95H420.86l.04.92c4.82 116.66-6.28 211.36-33.93 289.52-30.51 86.24-81.51 154.41-155.91 208.39l-.56.41-.56-.41c-74.4-53.98-125.4-122.15-155.91-208.39C46.38 244.54 35.28 149.84 40.1 33.18l.04-.92z"/>
    <path style="fill:#ffe000;fill-opacity:1;fill-rule:evenodd;stroke:#000;stroke-width:1px;stroke-linecap:butt;stroke-linejoin:miter;stroke-opacity:1" d="M169.553 363.925c-9.773 0-22 3.366-22 15.102v8.495h-13.722l-2.614-36.226-4.735-93.655c-.139-2.752-6.922-1.897-10.383-2.846-4.311-1.181 7.57-41.548 11.127-63.003.394-2.372-7.076-4.446-6.464-6.84 2.378-9.293 5.098-18.572 6.208-28.1.515-4.421.195-13.352.195-13.352.04-2.715-1.958-6.553-6.839-8.865-8.248 4.036-25.523-.888-22.051-3.135l9.963-6.45c1.47-.951-18.35-6.734-20.123-5.514-.897.617-6.74 4.929-10.263 6.93l-6.029-3.276 4.67-6.233c-11.447-1.484-26.125-10.405-19.552-22.51 6.34 8.165 17.22 10.88 27.159 13.053l9.734-12.476c-6.335-3.499-15.474-7.387-18.536-16.21C72 69.32 78.38 58.799 85.858 57.533c-1.509 9.69 3.964 18.21 11.649 22.379 16.201 8.788 33.552 13.34 49.215 25.965 15.086 12.16 20.842 39.697 30.331 61.475 2.064 4.736 1.431 5.48-7.464 9.9 2.825 3.589 7.085 7.702 15.402 7.702H223.355c-2.797-3.93-5.781-6.26-5.815-13.507-.042-8.787 4.387-15.009 7.224-22.513-2.958-1.794-5.701-4.398-6.746-8.433l-25.485 3v-15l26.465 3c1.353-3 3.82-4.672 6.278-6.046l-.07-9.904c-1.268-.566-2.966-2.4-3.715-4.05l-23.621 2v-14l24.178 2c.893-1.32 2.49-2.626 3.523-3.317l-2.76-20.943h15.379l-2.761 20.943c1.034.69 2.63 1.998 3.523 3.317l24.178-2v14l-23.621-2c-.749 1.65-2.447 3.484-3.715 4.05l-.07 9.904c2.458 1.374 4.925 3.046 6.278 6.046l26.465-3v15l-25.485-3c-1.045 4.035-3.788 6.64-6.746 8.433 2.837 7.504 7.266 13.726 7.224 22.513-.034 7.246-3.018 9.577-5.815 13.507H276.01c8.317 0 12.577-4.113 15.402-7.701-8.895-4.42-9.528-5.165-7.464-9.901 9.489-21.778 15.245-49.314 30.331-61.475 15.663-12.625 33.014-17.177 49.215-25.965 7.685-4.169 13.158-12.688 11.65-22.379 7.476 1.266 13.856 11.787 10.56 21.283-3.063 8.822-12.202 12.71-18.537 16.209L376.9 107.5c9.939-2.174 20.819-4.888 27.159-13.053 6.573 12.105-8.105 21.026-19.552 22.51l4.67 6.233-6.029 3.276c-3.523-2.001-9.366-6.313-10.263-6.93-1.774-1.22-21.593 4.563-20.123 5.515l9.963 6.449c3.472 2.247-13.803 7.17-22.051 3.135-4.881 2.312-6.878 6.15-6.839 8.865 0 0-.32 8.93.195 13.352 1.11 9.528 3.83 18.807 6.208 28.1.612 2.394-6.858 4.468-6.464 6.84 3.558 21.455 15.438 61.822 11.127 63.003-3.461.949-10.244.094-10.383 2.846l-4.735 93.654-2.614 36.227h-13.723v-8.495c0-11.736-12.226-15.102-22-15.102z"/>
    <circle transform="scale(-1 1)" r="7.242" cy="137.303" cx="-230.5" style="opacity:.98000004;fill:#0085ca;fill-opacity:1;stroke:#000;stroke-width:1;stroke-linecap:round;stroke-linejoin:round;stroke-miterlimit:4;stroke-dasharray:none;stroke-opacity:1"/>
    <circle transform="scale(-1 1)" r="5.372" cy="107.026" cx="-230.5" style="opacity:.98000004;fill:#0085ca;fill-opacity:1;stroke:#000;stroke-width:1;stroke-linecap:round;stroke-linejoin:round;stroke-miterlimit:4;stroke-dasharray:none;stroke-opacity:1"/>
    <path style="fill:#0085ca;fill-opacity:1;fill-rule:evenodd;stroke:#000;stroke-width:1px;stroke-linecap:butt;stroke-linejoin:miter;stroke-opacity:1" d="M127.872 105.445c6.613.722 13.938 5.62 16.612 10.674 4.126 7.8-5.948 9.451-7.784 5.537-2.495-5.316-5.804-11.77-8.828-16.21z"/>
    <path style="fill:#0085ca;fill-opacity:1;fill-rule:evenodd;stroke:#000;stroke-width:1.05747664px;stroke-linecap:butt;stroke-linejoin:miter;stroke-opacity:1" d="M218.43 351.296v-22.397c0-8.237 3.617-13.343 12.07-13.343s12.07 5.106 12.07 13.343v22.397h-24.14zM255.43 351.296v-22.397c0-8.237 3.617-13.343 12.07-13.343s12.07 5.106 12.07 13.343v22.397h-24.14zM292.43 351.296v-22.397c0-8.237 3.617-13.343 12.07-13.343s12.07 5.106 12.07 13.343v22.397h-24.14zM181.43 351.296v-22.397c0-8.237 3.617-13.343 12.07-13.343s12.07 5.106 12.07 13.343v22.397h-24.14zM144.43 351.296v-22.397c0-8.237 3.617-13.343 12.07-13.343s12.07 5.106 12.07 13.343v22.397h-24.14z"/>
    <path style="fill:#0085ca;fill-opacity:1;fill-rule:evenodd;stroke:#000;stroke-width:1px;stroke-linecap:butt;stroke-linejoin:miter;stroke-opacity:1" d="M94.7 110.5s5.438-10.455 12.146-8.197c12.99 4.37 16.175 15.944 16.787 19.44-7.669-5.21-21.3-9.686-28.933-11.243ZM333.128 105.445c-6.613.722-13.938 5.62-16.612 10.674-4.126 7.8 5.948 9.451 7.784 5.537 2.495-5.316 5.804-11.77 8.828-16.21zM366.3 110.5s-5.438-10.455-12.146-8.197c-12.99 4.37-16.175 15.944-16.787 19.44 7.669-5.21 21.3-9.686 28.933-11.243Z"/>
</svg>
