<svg xmlns="http://www.w3.org/2000/svg" version="1" width="400" height="500">
    <path style="fill:#000;fill-rule:nonzero" d="M396.64 1.45H2.91v301.14c0 108.73 88.14 196.86 196.86 196.86 108.72 0 196.87-88.14 196.87-196.86V1.45z"/>
    <path style="fill:none;stroke:#000" d="M396.64 1.45H2.91v301.14c0 108.73 88.14 196.86 196.86 196.86 108.72 0 196.87-88.14 196.87-196.86V1.45z"/>
    <path style="fill:#fff;stroke:none" d="M189.275 23.55v6.5h-5.7l-129.8 370.7h20.7l112.7-315.3h2.1v315.7h21V85.45h2.1l112.7 315.3h20.7l-129.8-370.7h-5.7v-6.5h-21z"/>
    <path style="fill:#fff;stroke:none" d="M82.175 366.95h238l-4-8.5h-230.9zM25.075 259.95h40.3l13.7 35.7h13.7l-4 9.5h-14.1l-14.1-37.7h-35.3zM373.075 341.85h-40.3l-13.7-34.9h-13.7l4-9.3h14.1l14.1 36.8h35.3zM277.975 312.45l3.4-6h12.7l-3.8-10.7h-11.2l-3-7.3h-152.6l-3 7.3h-11.2l-3.8 10.7h12.7l3.4 6h156.3z"/>
</svg>
