<svg xmlns="http://www.w3.org/2000/svg" viewBox="0 0 335.542 441.021" height="1666.851" width="1268.189">
    <path style="fill:#fff;fill-opacity:1;stroke:#0074bd;stroke-width:1.08817;stroke-opacity:1" d="M-417.063 228.083c-57.598-62.74-91.71-115.323-121.223-186.86-14.028-34.001-22.49-74.573-26.79-128.436-1.262-15.797-2.09-103.174-.99-104.278.3-.3 75.533-.905 167.185-1.343l166.64-.797.813 16.211c.447 8.917.522 31.147.167 49.401-.648 33.374-1.828 46.875-7.246 82.957-14.558 96.944-51.915 176.501-117.402 250.022-9.435 10.593-41.481 42.415-42.729 42.43-.381.004-8.673-8.683-18.425-19.307z" transform="translate(566.579 193.631)"/>
    <path d="M-817.668 131.549c-57.597-62.741-91.71-115.324-121.223-186.86-14.027-34.002-22.49-74.573-26.79-128.436-1.26-15.798-2.09-103.174-.989-104.278.3-.3 75.533-.905 167.185-1.343l166.64-.798.813 16.212c.447 8.916.522 31.147.167 49.4-.648 33.375-1.828 46.875-7.246 82.957-14.559 96.945-51.916 176.502-117.402 250.022-9.435 10.593-41.482 42.415-42.729 42.43-.382.005-8.673-8.683-18.426-19.306zm9.148-6.801 5.008-3.809.034-24.34.033-24.341-3.633 2.77c-10.56 8.055-21.72 15.611-28.804 19.502-7.929 4.356-7.947 4.376-5.938 6.684a29501.8 29501.8 0 0 1 9.584 11.02c13.35 15.357 15.966 17.934 17.37 17.11.735-.434 3.591-2.501 6.346-4.596zm-40.332-45.518c11.268-5.12 40.15-23.999 44.222-28.905.85-1.024 1.138-8.749.935-25.073l-.294-23.593-8.086 6.126C-832.363 23.158-858.11 38-874.393 43.707l-8.378 2.936 1.841 2.871c2.228 3.473 18.125 25.64 21.33 29.743 1.26 1.613 2.67 2.96 3.131 2.992.462.033 3.89-1.325 7.617-3.02zm-33.726-54.504c21.547-7.993 43.089-20.285 67.436-38.479l11.697-8.74v-48.814l-5.713 4.6c-33.658 27.104-66.41 46.012-97.934 56.54-4.04 1.349-7.346 2.671-7.346 2.939 0 .907 19.732 36.217 20.24 36.217.07 0 5.3-1.918 11.62-4.263zm-19.346-58.064c26.971-11.003 57.666-29.57 86.078-52.066l12.401-9.819v-22.706c0-14.577.232-24.328-.496-24.778-.624-.386-4.812 3.307-8.527 6.532-34.422 29.875-76.113 55.934-112.851 70.538-6.284 2.499-11.784 4.872-12.22 5.275-.853.785 2.768 10.107 9.858 25.38l4.4 9.48 7.414-2.586c4.078-1.423 10.352-3.785 13.943-5.25zm241.778-26.426c11.242-33.724 22.589-94.308 25.36-135.409 1.211-17.975 1.445-67.644.388-82.533l-.707-9.96h-168.34v144.499l10.61 9.133c48.36 41.632 79.513 62.222 118.882 78.576 5.087 2.114 9.709 3.708 10.27 3.543.56-.165 2.152-3.697 3.537-7.85z" style="fill:#0074bd;fill-opacity:1;stroke-width:1.08816564" transform="translate(967.183 290.166)"/>
</svg>
