<svg xmlns="http://www.w3.org/2000/svg" xml:space="preserve" viewBox="30.5 31.5 450 500" height="500" width="450">
    <path style="fill:#000;fill-rule:evenodd;stroke:#000;stroke-width:1px;stroke-linecap:butt;stroke-linejoin:miter;stroke-opacity:1" d="M477.5 34.5v381.273c0 32.64-1.544 45.447-15.833 60.726-17.274 18.47-41.987 24.005-71.971 24.005H320.03c-36.395 0-54.645 17.179-64.531 30.996-9.886-13.817-28.136-30.996-64.531-30.996h-69.665c-29.984 0-54.697-5.535-71.971-24.005C35.043 461.22 33.5 448.414 33.5 415.773V34.5h444z"/>
    <path style="fill:none;fill-rule:evenodd;stroke:#000;stroke-width:1px;stroke-linecap:butt;stroke-linejoin:miter;stroke-opacity:1" d="M255.5 117.5v35.675"/>
    <path d="M255.5 34.5h-222v164.37c19.137-6.616 66.802-27.012 83.374-34.632 34.348-15.793 35.105-20.345 72.296-39.494l66.33-.955 66.33.955c37.19 19.149 37.948 23.7 72.296 39.494 16.572 7.62 64.237 28.016 83.374 34.632V34.5h-222" style="fill:#e00e00;fill-opacity:1;fill-rule:evenodd;stroke:#000;stroke-width:1px;stroke-linecap:butt;stroke-linejoin:miter;stroke-opacity:1"/>
    <path style="fill:#fff;fill-rule:evenodd;stroke:#000;stroke-width:1.5;stroke-linecap:butt;stroke-linejoin:miter;stroke-miterlimit:4;stroke-dasharray:none;stroke-opacity:1" d="m179.475 118.16-5.81 14.005h-37.482l-5.89 14.643h-25.147L93.05 174.85l120.326 2.518 42.124 34.06 42.124-34.06 120.326-2.518-12.096-28.04h-25.148l-5.889-14.644h-37.482l-5.81-14.006h-152.05z"/>
    <path style="fill:none;fill-rule:evenodd;stroke:#000;stroke-width:1.5;stroke-linecap:butt;stroke-linejoin:miter;stroke-miterlimit:4;stroke-dasharray:none;stroke-opacity:1" d="m223.88 118.16-10.504 59.207M255.5 118.16v93.268"/>
    <path style="fill:#fff;fill-rule:evenodd;stroke:none;stroke-width:1px;stroke-linecap:butt;stroke-linejoin:miter;stroke-opacity:1" d="M299.9 407.802c22.2 0 22.2-8.154 44.4-8.154s22.2 8.154 44.4 8.154 22.2-8.154 44.4-8.154 22.2 8.154 44.4 8.154v-82c-22.2 0-22.2-8.154-44.4-8.154s-22.2 8.154-44.4 8.154-22.2-8.154-44.4-8.154-22.2 8.154-44.4 8.154-22.2-8.154-44.4-8.154-22.2 8.154-44.4 8.154-22.2-8.154-44.4-8.154-22.2 8.154-44.4 8.154-22.2-8.154-44.4-8.154-22.2 8.154-44.4 8.154v82c22.2 0 22.2-8.154 44.4-8.154s22.2 8.154 44.4 8.154 22.2-8.154 44.4-8.154 22.2 8.154 44.4 8.154 22.2-8.154 44.4-8.154 22.2 8.154 44.4 8.154z"/>
    <path d="m287.12 118.16 10.504 59.207" style="fill:none;fill-rule:evenodd;stroke:#000;stroke-width:1.5;stroke-linecap:butt;stroke-linejoin:miter;stroke-miterlimit:4;stroke-dasharray:none;stroke-opacity:1"/>
    <path d="m255.5 168.772 36.94-20.596 51.023-1.368-5.957-14.296-47.317 3.06-34.689 17.603-34.689-17.604-47.317-3.059-5.957 14.296 51.024 1.368 36.939 20.596" style="fill:#000;fill-rule:evenodd;stroke:#000;stroke-width:1.5;stroke-linecap:butt;stroke-linejoin:miter;stroke-miterlimit:4;stroke-dasharray:none;stroke-opacity:1"/>
    <path style="fill:none;fill-rule:evenodd;stroke:#000;stroke-width:1.5;stroke-linecap:butt;stroke-linejoin:miter;stroke-miterlimit:4;stroke-dasharray:none;stroke-opacity:1" d="M167.537 146.808h-37.243M343.463 146.808h37.243"/>
    <path d="M33.5 407.802c22.2 0 22.2-8.154 44.4-8.154s22.2 8.154 44.4 8.154 22.2-8.154 44.4-8.154 22.2 8.154 44.4 8.154 22.2-8.154 44.4-8.154 22.2 8.154 44.4 8.154 22.2-8.154 44.4-8.154 22.2 8.154 44.4 8.154 22.2-8.154 44.4-8.154 22.2 8.154 44.4 8.154m0-82c-22.2 0-22.2-8.154-44.4-8.154s-22.2 8.154-44.4 8.154-22.2-8.154-44.4-8.154-22.2 8.154-44.4 8.154-22.2-8.154-44.4-8.154-22.2 8.154-44.4 8.154-22.2-8.154-44.4-8.154-22.2 8.154-44.4 8.154-22.2-8.154-44.4-8.154-22.2 8.154-44.4 8.154" style="fill:none;fill-rule:evenodd;stroke:#000;stroke-width:1px;stroke-linecap:butt;stroke-linejoin:miter;stroke-opacity:1"/>
    <path d="M477.5 34.5v381.273c0 32.64-1.544 45.447-15.833 60.726-17.274 18.47-41.987 24.005-71.971 24.005H320.03c-36.395 0-54.645 17.179-64.531 30.996-9.886-13.817-28.136-30.996-64.531-30.996h-69.665c-29.984 0-54.697-5.535-71.971-24.005C35.043 461.22 33.5 448.414 33.5 415.773V34.5h444z" style="fill:none;fill-rule:evenodd;stroke:#000;stroke-width:1px;stroke-linecap:butt;stroke-linejoin:miter;stroke-opacity:1"/>
</svg>
