<svg xmlns="http://www.w3.org/2000/svg" xml:space="preserve" viewBox="30.5 31.5 400 500" height="500" width="400">
    <path style="fill:#fff;fill-opacity:1" d="M230.45 531.13c-74.32-53.92-125.26-122.02-155.74-208.16-27.64-78.1-38.73-172.75-33.91-289.35l.02-.46h379.82l.02.46c4.81 116.6-6.28 211.24-33.91 289.35-30.48 86.14-81.42 154.24-155.74 208.16l-.28.2-.28-.2z"/>
    <path d="M419.96 33.21c9.07 219.45-36.25 385.95-189.45 497.1C146.04 469.02 94.36 390.9 66.52 296.34a557.24 557.24 0 0 1-5.87-21.54c-11.45-45.69-17.77-95.02-19.88-147.94-1.2-30.06-1.05-61.28.29-93.65h378.9m.92-.95H40.14l-.04.92c-4.82 116.66 6.28 211.36 33.93 289.52 30.51 86.24 81.51 154.41 155.91 208.39l.56.41.56-.41c74.4-53.98 125.4-122.15 155.91-208.39 27.65-78.16 38.75-172.86 33.93-289.52l-.04-.92z"/>
    <path style="fill:#000;fill-opacity:1;stroke:#000;stroke-width:1.04400003;stroke-linecap:round;stroke-linejoin:round;stroke-miterlimit:4;stroke-dasharray:none;stroke-opacity:1" d="M250.647 131.372c4.903-1.048 14.39-.482 20.845-2.12 3.426-.87 8.9-3.123 10.206-3.065 29.362 1.299 34.483-2.96 40.545-6.034 2.702-1.37 2.837-3.373 1.62-3.38-4.239-.026-12.388.978-11.987-2.7.554-5.076 21.956.38 19.726-17.377-.703-5.6-4.813-3.706-19.893-5.645-9.44-1.214-26.527-6.86-26.568-9.463-.1-6.366 20.236.521 22.945-10.866-5.557 2.237-16.534 2.375-23.255.322-4.412-1.349 7.55-4.637 7.456-11.479-5.481 3.527-10.197 3.176-18.529 4.23-6.735.852-5.344 5.918-14.162 6.464-.923-4.026-.08-14.07 5.623-20.1-11.962-.825-19.726 11.936-23.195 19.36-9.376-2.283-10.84-8.158-21.564-8.267-11.766-.12-13.062 6.04-23.744 7.192-4.872.526-11.63-.075-21.47-3.708 3.802 7.264 14.42 13.684 23.577 12.027 9.722-1.759 15.174-1.294 18.036.195 3.64 1.892 2.788 7.924.275 9.225-3.065 1.588-11.325 4.274-19.42 3.238-6.695-.857-15.804-6.325-25.123-7.029-4.338-.328-12.184 1.987-17.315 7.63-3.659 4.024-5.468 5.185-7.862 8.213 7.43-.772 15.804-7.087 21.102-6.37 3.784.512 9.525 3.11 13.638 5.074 7.982 3.813 17.754 1.918 17.89 7.33.052 2.046.255 3.569-1.623 4.238-15.983 5.699-17.192-2.918-32.346-2.6-6.464.136-21.538 14.138-19.61 26.616 3.52-5.472 10.267-18.75 16.77-16.574 18.203 6.792 26.414.667 29.104 5.97 1.67 3.292-7.702 8.95-25.363 10.781-11.384 1.18-8.707 21.233-3.078 28.43-.487-13.015 2.129-17.707 7.46-19.603 6.71-2.387 13.845-3.855 15.764-1.507 3.198 3.914-10.52 35.33-19.058 36.157-3.88.375-18.111-18.335-33.412-24.728-8.705-3.637-2.262-14.612-16.48-17.118-5.703-1.005-11.706 2.969-18.616 17.123-7.307 14.966-31.186 31.77-35.242 54.72-1.156 6.54 1.856 12.095 1.186 17.923-.332 2.885-2.175 6.337-2.507 9.116-.76 6.387.49 12.171 3.278 16.226 1.918 2.79 21.403-21.34 19.804-23.261-2.782-3.342-6.88-4.339-9.41-7.113-2.08-2.278 4.03-5.1 4.418-6.842 1.171-5.259-4.868-2.801-5.784-12.275-1.182-12.226 20.985-17.202 29.974-24.533 7.664-6.251 10.692-14.29 15.525-14.228 2.635.034 8.856 34.02 27.458 44.672 4.365 2.499 2.654 6.277-1.281 5.912-7.917-.732-10.998 4.995-21.769 6.296-5.152.622-13.422-.74-18.716.929-7.597 2.395-4.603 18.587-4.151 29.567.845 20.567-1.787 35.782 1.752 49.373 5.064 19.446 26.434 29.713 31.543 28.31 3.512-.964-5.294-30.687-7.759-28.285-2.054 2.002-3.436 5.004-5.193 5.663-.44.165-3.082-.52-3.502-1.952-.467-1.592.327-3.363-.906-5.953-1.737-3.648-4.815 3.802-7.242-8.157-1.215-5.98.169-14.43 3.353-22.284 3.159-7.792 6.442-15.443 5.828-25.271 11.92 3.519 18.572 3.261 30.78 6.861 7.856 2.317 17.157 3.335 18.351 5.637 8.343 16.085 16.342 19.813 28.829 24.21 12.602 4.438 23.894 6.432 24.804 10.447 1.728 7.614-55.588 17.956-54.51 35.34.799 12.905 10.989 26.09 44.12 46.664 1.163.722 2.133 3.04-.02 5.537-10.099 11.708-19.954 18.708-28.784 26.896-2.926 2.714-5.794 7.03-8.954 9.455-8.328 6.387-9.596 2.572-16.292 7.722-1.73 1.332-2.659 4.084-4.164 7.785-1.1 2.704-4.03 4.777-3.327 8.421h29.058s-.163-2.177-.458-3.22c-.425-1.502-1.865-4.295-1.865-4.295-1.825-4.205 3.856-7.092 8.028-5.997 1.168.307 4.257-1.192 2.987-4.596-1.216-3.262 10.98-13.707 16.361-17.674 13.269-9.784 29.013-10.526 37.356-14.735 3.337-1.684 4.364-6.07 2.863-9.751-2.293-5.627-23.199-9.918-29.312-39.135-2.024-9.675 44.498-13.082 41.82-5.37-3.428 9.87-9.552 24.07-8.007 29.51 1.976 6.956 19.852 17.33 41.69 33.4-1.557 5.22-5.105 15.255-10.784 25.38-4.406 7.855-10.387 15.471-15.855 22.8-5.673 7.604-9.756 7.768-16.466 11.343-3.04 1.619-4.987 5.338-7.226 9.373-2.12 3.82-5.054 6.633-4.802 9.291h30.907c-1.097-7.676-4.699-4.408-3.471-10.7.613-3.141 12.2-.463 11.732-3.931-1.316-9.735 11.055-22.493 16.203-29.201 17.616-22.953 31.745-15.6 37.07-30.572 1.154-3.245-7.846-7.49-15.31-14.722-8.666-8.396-15.747-20.855-14.4-27.149 3.786-17.685 33.196-10.28 45.202-49.34 1.193-3.883 7.412-8.32 10.437-9.018 8.85-2.041 18.695-12.978 20.695-25.894 1.272-8.213-2.781-8.89-5.171-25.902-2.473-17.605 1.658-33.537 21.53-37.31-4.516-4.317-15.921-1.66-19.948.64-4.113 2.348-7.991 1.06-7.536-2.543 1.937-15.317 29.149-6.384 20.32-42.407-1.621 10.666-4.895 15.255-7.8 17.621-4.412 3.593-9.284 2.906-15.116 6.977-2.38 1.662-7.898 6.027-8.761 3.169-2.631-8.708 6.657-13.277 13.536-19.745 6.313-5.936 9.26-12.73 4.81-26.478-.97 15.662-12.467 16.98-21.252 22.556-4.214 2.673-5.263 3.917-6.79 6.804-1.92 3.636-6.533 4.549-7.273 1.409-.63-2.666-.61-6.67 1.355-10.223 8.275-14.968 29.155-11.737 20.621-43.355-2.226 22.69-13.155 23.215-21.525 26.71-7.484 3.125-16.628 11.165-22.197 24.642-1.907 9.66-8.483 26.836-6.18 35.109 4.866 15.628 7.875 28.964 17 34.224 6.523 3.76 27.983 4.055 32.394 31.547.717 4.474-5.213 17.03-11.97 14.896-7.687-2.428-8.833-13.004-16.518-18.1-19.688-13.058-41.368-13.648-53.876-33.493-10.334-16.395-12.796-44.94-30.538-68.205-3.896-5.11-5.184-11.109-2.07-17.184 3.893-7.598 6.182-20.356 8.102-20.766z"/>
    <path style="fill:#fff;fill-opacity:1;stroke:none" d="M269.188 93.413c.04-4.78 12.7-7.325 14.884-1.638 2.674 6.961-10.886 6.136-14.884 1.638zM315.867 101.354c.21-4.157 7.078-3.999 8.662-.579 1.32 2.852-8.778 2.865-8.662.58z"/>
</svg>
