<svg xmlns="http://www.w3.org/2000/svg" xml:space="preserve" viewBox="30.5 31.5 400 500" height="500" width="400">
    <path style="fill:#32ac60;fill-opacity:1" fill="#fff" d="M230.44 531.14C156.12 477.22 105.18 409.12 74.7 322.98c-27.64-78.1-38.73-172.75-33.91-289.35l.02-.46h379.82l.02.46c4.81 116.6-6.28 211.24-33.91 289.35-30.48 86.14-81.42 154.24-155.74 208.16l-.28.2-.28-.2z"/>
    <path d="M419.96 33.21c9.07 219.45-36.26 385.95-189.46 497.1C77.31 419.16 31.99 252.66 41.06 33.21h378.9m.92-.95H40.14l-.04.92c-4.82 116.66 6.28 211.36 33.93 289.52 30.51 86.24 81.51 154.41 155.91 208.39l.56.41.56-.41c74.4-53.98 125.4-122.15 155.91-208.39 27.65-78.16 38.75-172.86 33.93-289.52l-.04-.92z"/>
    <path style="fill:#ffe000;fill-opacity:1;stroke:#000;stroke-opacity:1" d="M119.262 359.92c-1.882 2.058 20.524 3.097 23.017.438 16.65-17.756 31.27-40.61 45.022-48.137 3.482-1.905 7.67-2.044 10.222-1.999 5.658.1 8.878.78 8.878.78 4.06-.312-2.734-6.445 1.903-6.896 16.891-1.644 32.57 6.793 38.016 16.726 1.102 2.011 4.41 4.393-.471 4.822-24.916 2.187-32.086 27.03-23.9 40.492 17.984 29.577 49.157 18.134 82.424 35.457.665-17.998 11.492-48.9 11.208-73.436-.824-25.775-17.856-37.674-35.033-38.102-12.485-.31-25.913 8.212-24.515 23.482.26 2.835-3.407 3.92-4.46 2.74-9.888-11.088-23.944-19.142-41.754-17.92-1.047.072-1.55-2.608.537-5.088 10.058-11.957 28.894-37.112 41.882-34.614 6.186 1.598.82-6.995 5.76-10.458 21.385-14.993 42.794-25.676 61.645-31.997 1.616-.542 8.23-.456 6.984 4.314-5.037 19.276 12.977 26.443 25.417 20.358 43.914-21.48 34.806-53.271 49.146-85.974-40.483.736-59.19-18.534-80.29-9.4-33.084 14.324-28.769 54.553-6.125 61.94 2.027.661 4.64 2.398 1.96 3.305-26.5 8.968-49.217 21.346-67.147 34.108-1.078.767-7.432-1.757-7.054-3.045 8.088-27.604 12.834-65.578 1.63-86.96-2.006-3.83.362-5.659 5.275-5.156 27.196 2.782 32.032-25.064 21.052-45.855-14.098-26.692-38.999-17.684-64.384-33.649-8.976 33.39-30.921 57.951-19.977 82.831 15.798 35.915 44.577 17.699 47.466 6.685.769-2.93 2.915-2.243 3.303-1.279 11.244 27.941 4.942 63.443-2.91 81.586-2.191 5.063-7.267.79-9.813 4.718-3.068 4.732-4.299 9.07-8.558 14.305-13.467 16.551-27.39 32.58-42.876 46.824-2.303 2.118-7.242 1.674-7.041-3.963 1.205-33.792 5.315-52.405-15.851-73.367-3.425-3.392.295-8.571 7.343-8.901 17.48-.819 24.88-29.968 5.794-45.972-18-15.093-41.767-16.828-75.42-16.425 2.306 17.689 1.627 27.118 1.338 40.453-.308 14.202-1.349 27.873 1.65 38.63 6.513 23.359 33.901 29.304 49.181-1.272.812-1.625 4.465-.785 6.035.404 22.724 17.2 13.296 55.673 12.335 77.95-4.497-1.402-11.385-1.084-10.494.7 1.043 2.085 6.206 8.015 1.775 12.862z"/>
</svg>
