<svg xmlns="http://www.w3.org/2000/svg" width="400" height="500" viewBox="30.5 31.5 400 500" xml:space="preserve">
    <path d="M230.55 531.13c74.32-53.92 125.26-122.02 155.74-208.16 27.64-78.1 38.73-172.75 33.91-289.35l-.02-.46H40.36l-.02.46c-4.81 116.6 6.28 211.24 33.91 289.35 30.48 86.14 81.42 154.24 155.74 208.16l.28.2.28-.2z" fill="#32ac60"/>
    <path d="M41.04 33.21c-9.07 219.45 36.25 385.95 189.45 497.1 84.47-61.29 136.15-139.41 163.99-233.97a557.24 557.24 0 0 0 5.87-21.54c11.45-45.69 17.77-95.02 19.88-147.94 1.2-30.06 1.05-61.28-.29-93.65H41.04m-.92-.95H420.86l.04.92c4.82 116.66-6.28 211.36-33.93 289.52-30.51 86.24-81.51 154.41-155.91 208.39l-.56.41-.56-.41c-74.4-53.98-125.4-122.15-155.91-208.39C46.38 244.54 35.28 149.84 40.1 33.18l.04-.92z"/>
    <path d="M227.7 100.6c-2.37 3.65-.3 6.41-.79 10.75-.39 3.35-2.47 6.41-1.78 13.61 9.96 1.58 16.57-7.1 25.44-11.64-6.61-8.28-12.72-13.61-22.88-12.62z" style="fill:#ffe000;stroke-miterlimit:4;stroke-width:.99;stroke:#000"/>
    <path d="M256.69 75.45c4.54-4.04 8.48-7.79 19.03-9.47 8.68-1.38 11.83-9.17 22.78-10.36 2.66 1.68 3.94 3.45 2.86 5.52-5.92 1.87-14.3 3.25-15.48 7.1-1.28 4.14-3.06 5.72-5.42 8.88" style="fill:#ffe000;stroke-linecap:round;stroke-linejoin:round;stroke-miterlimit:4;stroke-width:.99;stroke:#000"/>
    <path d="M98.26 127.86c4.73 1.18 7.71 2.43 9.88 4.7 1.68 1.78 6.26.22 4.98-2.44-1.78-3.94-10.92-6.3-14.96-2.16z" style="fill:#ffe000;stroke-linejoin:round;stroke-miterlimit:4;stroke-width:.99;stroke:#000"/>
    <path d="m165.76 177.13-35.01-18.24c-3.94-2.07-5.13-6.71-4.54-11.05.89-6.41-1.68-9.66-4.04-12.72-1.87-2.37-9.27-9.07-13.51-4.24-3.35 3.75-1.97 5.52-2.47 9.47-3.75 8.09 4.24 10.85-.3 13.71-5.03 2.27-.79 21.11 2.96 23.77 37.67 25.44 71.5 36 94.97 54.24-9.76-20.12-13.02-41.72-37.87-54.83z" style="fill:#ffe000;stroke-miterlimit:4;stroke-width:.99;stroke:#000"/>
    <path d="M219.51 105.04c-1.58-2.17-4.93.1-4.34 2.86 2.07 11.34 19.72 3.63 25.84 12.9l.3-10.14c-9.57-6.02-16.17 2.37-21.8-5.62z" style="fill:#e00e00;stroke-miterlimit:4;stroke-width:.99;stroke:#000"/>
    <path d="M111.46 280.31c2.49-2.68 7.34-4.89 13.78-.7 3.77 2.41-2.58 6.52-4.58 4.54-.93-.85-3.46-3.53-9.18-3.74z" style="fill:#ffe000;stroke-linejoin:round;stroke-miterlimit:4;stroke-width:.99;stroke:#000"/>
    <path d="M232.73 331.38c5.82-20.91 15.98-43.39 15.38-65.98-15.68 2.76-32.13 1.06-47.34 7.59-9.38 4.03-10.09 5.9-15.88 16.67-7 11.54-17.26 38.56-19.63 37.38-5.33-2.56-14.99-11.05-16.96-15.68-4.64-11.05-2.66-30.97-22.29-31.46-3.94-.1-7.4.39-6.31 9.86.59 4.73 1.38 9.37.59 14.3-.69 4.44 1.08 8.97 2.86 11.44 11.54 17.16 24.95 31.36 40.73 43.2 2.96 2.27 6.9 2.66 9.47-.1 10.26-11.14 33.14-31.26 59.37-27.32zM107.97 52.47c4.46 1.38 6.4 3.69 8.28 5.76 1.58 1.48 4.34-.26 4.14-2.63-.3-3.65-9.69-5.76-12.43-3.13z" style="fill:#ffe000;stroke-miterlimit:4;stroke-width:.99;stroke:#000"/>
    <path d="M134.5 87.58c-.39 7.2 37.57 39.65 55.82 57.89 4.54 4.44 17.36-8.97 40.73-6.9l11.05-4.54-12.33-.99c-9.66 0-9.7-14.61-5.46-14.61 3.45 0 4.93 2.86 9.47 1.78 1.58-.39 6.84-.77 7.43-10.14.2-3.35-3.25-5.82-9.96-5.82-4.64-.1-7.2-2.58-7-5.64l.19-5.63c-1.08-1.78-.89-2.93-.39-4.71.99-3.65 7.1-3.25 10.85-6.31 3.06-2.47 6.51-6.51 11.74-7.59 7.1-1.48 22.09-.2 22.09-.2 9.47 3.45 23.47 8.78 28.4 24.85 4.64 15.09.69 24.56-3.25 37.38-5.23 17.16-17.36 33.43-17.55 45.76-.39 25.44 9.47 54.64 28.4 77.32 18.94 22.78 7.99 43.29 30.38 52.86 4.93 2.07 8.09-.89 11.93-3.25l7.99 15.38c-14.5 11.83-33.56 8.58-41.06-5.62-.99-1.87-.32-5.47.13-9.57-1.28 8.09-.2 9.17-8.58 16.27-14 11.83-27.91 27.52-31.16 44.58-2.96 15.58.1 24.56 8.78 39.45 4.54 7.79 2.17 14.3-.69 20.61-5.23 11.74-9.27 21.2-16.27 30.67-3.94 5.33-7.5 12.62-18.84 13.12-10.26.39-10.45-.79-14.1-2.76-4.54-2.37-10.06 1.18-14.4-.3-5.13-1.78-5.72-.2-8.09-3.16-3.85-4.73-1.08-10.06 2.56-14.5 2.47-2.96 3.75-4.83 11.05-5.62 4.93-.59 14 .39 18.64-2.47 4.64-2.96 13.75-22.77 11.34-26.53-12.25-19.08-26.13-35.41-35.41-56.51-1.58-3.45-4.24-19.53-.2-29.19 7.89-18.74 16.47-37.18 26.83-54.83 1.68-2.76-.39-5.82-3.94-9.27-22.58-22.78-35.9-21.8-45.46-43.59l-13.24-29.97c-4.14-9.47-16.57-8.68-18.64-12.03-17.95-29.09-36.29-58.09-51.78-87.28-1.18-2.27-4.14-10.45.1-14.89 1.08-4.83-1.28-10.06 1.97-13.02 1.58-1.38 1.97-2.76.89-5.13-1.78-3.65 1.18-9.17 6.31-8.58 6.9.89 8.68 4.54 12.03 9.47 3.55 6.02.99 15.19.79 23.67z" style="fill:#ffe000;stroke-linejoin:round;stroke-miterlimit:4;stroke-width:.99;stroke:#000"/>
    <path d="M265.27 78.71c5.13-3.06 8.28-4.83 21.8-6.61 6.51-.89 11.64-7 20.71-9.47l6.82 6.74s-20.92-.03-21.71 7.96c-.89 10.06-4.24 18.94-4.24 18.94" style="fill:#ffe000;stroke-linecap:round;stroke-linejoin:round;stroke-miterlimit:4;stroke-width:.99;stroke:#000"/>
    <path d="M343.4 311.46c5.48.23 8.1 9.05 7.41 15.86 7.2-3.45 9.54-9 9.33-16.67-1.38 1.78-3.43 2.58-4.81 2.87 1.08-2.66 2-5.75 1.11-8.91-1.28 2.56-3.2 4.29-5.37 5.17.89-3.16.38-5.1-.21-8.25-2.27 4.65-5.1 8.67-7.5 9.9zM297.62 55.73c2.47 1.78 3.16 3.55 3.55 5.52 1.87-.3 3.55-.99 5.72-1.48-1.38-1.58-2.86-1.78-4.34-2.37l2.86-2.17c-2.47-.49-5.33-.2-7.89.49zM307.58 62.73c2.56-.79 3.94-.49 6.61-.2l-2.07 1.87 5.52.39c-1.28.99-1.87 1.68-2.66 2.37 1.78.59 3.45 1.28 4.64 2.07l-8.58.3c.79-2.07-1.38-4.44-3.35-6.8z" style="fill:#000;stroke-width:.99;stroke:#000"/>
    <path d="M243.08 117.76c-1.87 14.3-9.27 21.2-17.75 27.81 7-.79 13.91-4.44 17.95-10.65.1 3.94-2.66 6.9-5.42 9.86 5.13-1.28 12.62-5.72 14.5-13.81.49 3.94-1.48 7.69-2.86 9.86 4.93-1.48 11.54-8.88 10.75-16.17" style="fill:#ffe000;stroke-linecap:round;stroke-linejoin:round;stroke-miterlimit:4;stroke-width:.99;stroke:#000"/>
    <path d="M116.67 79.63c-.3-1.87-2.69-3.6-4.17-4.28-2.36-1.09-6.45-.72-8.32.17 3.64 1.96 6.07 4.25 7.05 5.79 1.58 1.43 5.64.68 5.44-1.68zM105.5 62.24c3.58 2.17 6.42 4.16 8.79 6.63 1.48 1.58 4.34-1.3 3.55-3.47-1.18-3.45-8.79-5.23-12.34-3.15z" style="fill:#ffe000;stroke-miterlimit:4;stroke-width:.99;stroke:#000"/>
    <path d="M240.96 83.53c1.56-.2 7.93-.83 9-.78.58.02-.44.27-2.46.71-1.75.38-.17 2.82-3.67 3.01-2.09.11-3.12-2.56-2.33-2.17-1.38-.3-.93-.71-.54-.76z" style="fill:none;stroke-miterlimit:4;stroke-width:.99;stroke:#000"/>
    <path d="M282.33 75.95c-9.27 4.73-9.27 8.58-7.2 11.64" style="fill:none;stroke-linecap:round;stroke-miterlimit:4;stroke-width:.99;stroke:#000"/>
    <path d="M96.84 149.61c6.02 2.27 5.91 2.28 8.47 4.45 3.85 2.96 6.75-2.45 1.39-5.78-4.32-2.69-7.42-1.09-9.92 1.27zM96.82 137.99c3.94 1.08 6.12 1.66 8.79 3.34 1.68 1.08 6.61 1.13 5.72-1.53-.39-1.38-2.45-3.57-6.2-4.26-3.16-.59-6.63.18-8.31 2.45z" style="fill:#ffe000;stroke-linejoin:round;stroke-miterlimit:4;stroke-width:.99;stroke:#000"/>
    <path d="M118.92 146.17c-1.28-3.85-5.23-6.02-8.97-5.82-4.78.2-4.79 2.52-4.76 4.89" style="fill:#ffe000;stroke-linecap:round;stroke-linejoin:round;stroke-miterlimit:4;stroke-width:.99;stroke:#000"/>
    <path d="M110.75 291.5c2.47-2.76 7.4-5.01 13.02-2.55 3.94 1.68.58 6.04-2.08 5.15-3.79-1.87-7.33-2.43-10.93-2.6zM112.18 305.44c3.5-3.5 8.83-4.21 13.69-1.38 3.7 2.15-1.23 5.87-3.62 4.36-2.19-1.38-5.12-2.09-10.07-2.98z" style="fill:#ffe000;stroke-miterlimit:4;stroke-width:.99;stroke:#000"/>
    <path d="M228.52 478.52c2.96-5.92 6.36-7.07 6.55-8.84.3-2.17.68-3.65.09-5.82-2.96 1.18-3.1 1.53-5.17 4-2.87 3.44-3.45 7.7-1.48 10.66zM213.89 477.93c-2.76-3.75-.93-7.1.45-9.47.99-1.78 2.86-3.16 6.41-4.83 1.08-.49 1.43 5.03-.55 6.61-3.85 3.06-4.64 4.83-6.31 7.69zM203.29 474.51c-.44-5.22.95-9.46 5.74-13.39-.63 3.34.45 5.01 1.69 6.85-3.06 1.48-5.76 4.37-7.43 6.54z" style="fill:#ffe000;stroke-linejoin:round;stroke-miterlimit:4;stroke-width:.99;stroke:#000"/>
    <path d="M224.94 455.94c-5.72 4.44-8.57 15.88-2.36 15.29l5.68-1.05M238.55 458.5c-3.45 3.94-6.11 8.28-4.83 13.02.89 3.45 7.34 2.29 10.2 2.49M120.62 299.71c-.05-1.85-.52-4.98-.03-6.26 1.68-4.24 11.05-2.11 14.11 1.34M122.92 315.1c-.89-1.48-2.32-4.24-2.03-6.21.59-3.94 10.45-5.13 14.79-.59" style="fill:#ffe100;stroke-linecap:round;stroke-miterlimit:4;stroke-width:.99;stroke:#000"/>
    <path d="M127 72.5c-2.37-1.97-5.23-6.02-9.76-5.33-3.45.49-4.54 2.86-4.44 6.21M121.97 84.43c-.89-2.86-3.55-3.75-7-3.55-4.83.2-4.44 3.85-4.54 6.02" style="fill:#ffe000;stroke-linecap:round;stroke-miterlimit:4;stroke-width:.99;stroke:#000"/>
    <path d="M118.62 158.99c-1.08-4.14-5.4-7.59-12.21-5.92-3.75.89-2.76 9.47-2.76 9.47" style="fill:#ffe000;stroke-linecap:round;stroke-linejoin:round;stroke-miterlimit:4;stroke-width:.99;stroke:#000"/>
    <path d="m229.4 91.13-4.96 1.86" style="fill:none;stroke-linecap:round;stroke-width:.99;stroke:#000"/>
    <path d="M242.02 83.45c-.11 1.57.19 2.62 1.6 2.5 1.87-.16 2.15-1.16 1.87-2.96l3.3-.6c-2.83 1.22-1.4 4.76-4.98 4.64-2.82-.09-3.03-2.82-3.17-3.57z"/>
</svg>
