<svg xmlns="http://www.w3.org/2000/svg" width="420" height="500" viewBox="30.5 31.5 420 500" xml:space="preserve">
    <path d="M440 32.7c2.09 102.46-3.38 187.49-43.93 296.59-28.05 75.48-74.21 144.77-155.57 201.59-81.36-56.82-127.52-126.11-155.57-201.59C44.38 220.19 38.91 135.16 41 32.7c133 .29 266 0 399 0z" style="fill:#0085ca;fill-opacity:1;fill-rule:evenodd"/>
    <path style="fill:#fff;fill-rule:evenodd;stroke:none;stroke-width:1;stroke-linecap:butt;stroke-linejoin:miter;stroke-miterlimit:4;stroke-dasharray:none;stroke-opacity:1" d="M42.477 131.068c2.252 30.754 4.53 50.936 8.584 74.934 62.72-27.44 129.565-39.502 189.439-39.502 59.874 0 126.72 12.062 189.439 39.502 4.054-23.998 6.332-44.18 8.584-74.934C370.859 104.873 302.47 94 240.5 94c-61.971 0-130.36 10.873-198.023 37.068ZM392.69 338.055c8.316-21.546 15.895-43.62 23.233-69.59C362.054 240.179 298.647 226.5 240.5 226.5c-58.147 0-121.554 13.678-175.423 41.966 7.338 25.97 14.917 48.043 23.233 69.59C101.59 331.2 157.788 299 240.5 299s138.91 32.2 152.19 39.055zM324.573 454.372c17.627-21.18 30.555-40.832 40.923-59.122-25.102-16.03-69.174-35.977-125.132-36.114-55.958-.136-100.03 19.812-125.133 35.841 10.368 18.29 23.296 37.942 40.923 59.123 21.212-12.702 48.317-22.873 84.21-22.736 35.894.136 62.997 10.307 84.21 23.008z"/>
    <path d="M440 32.7c2.09 102.46-3.38 187.49-43.93 296.59-28.05 75.48-74.21 144.77-155.57 201.59-81.36-56.82-127.52-126.11-155.57-201.59C44.38 220.19 38.91 135.16 41 32.7c133 .29 266 0 399 0z" style="fill:none;stroke:#000"/>
    <path style="fill:none;fill-rule:evenodd;stroke:#000;stroke-width:1;stroke-linecap:butt;stroke-linejoin:miter;stroke-miterlimit:4;stroke-dasharray:none;stroke-opacity:1" d="M156.154 454.1c21.212-12.702 48.317-22.873 84.21-22.736 35.894.136 62.997 10.307 84.21 23.008m40.922-59.122c-25.102-16.03-69.174-35.977-125.132-36.114-55.958-.136-100.03 19.812-125.133 35.841M88.31 338.055C101.59 331.2 157.788 299 240.5 299s138.91 32.2 152.19 39.055m23.233-69.59C362.054 240.179 298.647 226.5 240.5 226.5c-58.147 0-121.554 13.678-175.423 41.966M51.061 206.002c62.72-27.44 129.565-39.502 189.439-39.502 59.874 0 126.72 12.062 189.439 39.502m8.584-74.934C370.859 104.873 302.47 94 240.5 94c-61.971 0-130.36 10.873-198.023 37.068"/>
</svg>
