<svg xmlns="http://www.w3.org/2000/svg" version="1.0" width="165.91" height="239.916" viewBox="0 0 162.912 239.916" xml:space="preserve">
    <path d="m40.58 29.188.03.14c-2.66.51-4.19.86-4.19.86l-.44.17-2.48-6.57.25-.1s2.09-.51 5.66-1.23l.01.06 1.16 6.67z" style="fill:#fdda0c"/>
    <path d="m66.75 18.527.33 7.13c-11.25.92-21.14 2.63-26.47 3.67l-.03-.14-1.16-6.67-.01-.06c5.95-1.2 16.03-2.979 27.34-3.93z" style="fill:#fdda0c"/>
    <path d="M95.58 18.467v.05l-.5 7v.02c-4.431-.33-9.05-.53-13.66-.52-4.87.01-9.72.26-14.34.64l-.33-7.13c4.79-.41 9.81-.67 14.83-.67 4.73 0 9.46.23 14 .61z" style="fill:#fdda0c"/>
    <path d="M81.58 17.857c-5.02 0-10.04.26-14.83.67-11.31.95-21.39 2.73-27.34 3.93-3.57.72-5.66 1.23-5.66 1.23l-.25.1-.92-2.43s3.48-1.39 12-2.84c9.31-1.57 22.42-3.24 35.61-3.31 11.081-.06 22.129 1.03 30.94 2.31 11.42 1.67 18.95 4 18.95 4l-.71 2.31-.45-.14s-2.03-.5-5.489-1.21c-6-1.22-16.32-3.07-27.851-4.01-4.54-.38-9.27-.61-14-.61z" style="fill:#fdda0c"/>
    <path d="m129.37 23.828-1.93 6.3-.36-.11s-1.841-.4-5-.98v-.02l1.34-6.5.011-.04c3.459.71 5.489 1.21 5.489 1.21l.45.14z" style="fill:#fdda0c"/>
    <path d="m123.431 22.478-.011.04-1.34 6.5v.02c-5.72-1.05-15.771-2.68-27-3.5v-.02l.5-7v-.05c11.53.94 21.851 2.789 27.851 4.01z" style="fill:#fdda0c"/>
    <path d="M67.08 25.658c4.62-.38 9.47-.63 14.34-.64 4.61-.01 9.229.19 13.66.52 11.229.82 21.28 2.45 27 3.5 3.16.58 5 .98 5 .98l.36.11-2.4 7.8v.43l-86.29-.67-2.77-7.33.44-.17s1.53-.35 4.19-.86c5.33-1.04 15.22-2.75 26.47-3.67z" style="fill:#fdda0c"/>
    <path d="M32.58 21.357s3.48-1.39 12-2.84c9.31-1.57 22.42-3.24 35.61-3.31 11.081-.06 22.129 1.03 30.94 2.31 11.42 1.67 18.95 4 18.95 4" style="fill:none;stroke:#000"/>
    <path d="M33.75 23.688s2.09-.51 5.66-1.23c5.95-1.2 16.03-2.98 27.34-3.93 4.79-.41 9.81-.67 14.83-.67 4.729 0 9.46.23 14 .61 11.53.94 21.851 2.79 27.851 4.01 3.459.71 5.489 1.21 5.489 1.21M36.42 30.188s1.53-.35 4.19-.86c5.33-1.04 15.22-2.75 26.47-3.67 4.62-.38 9.47-.63 14.34-.64 4.61-.01 9.229.19 13.66.52 11.229.82 21.28 2.45 27 3.5 3.16.58 5 .98 5 .98M40.58 29.188l-1.16-6.67" style="fill:none;stroke:#000;stroke-width:.75"/>
    <path style="fill:none;stroke:#000;stroke-width:.75" d="M67.08 25.688v-.03l-.33-7.131v-.009M95.08 25.518l.5-7M122.08 29.018l1.34-6.5"/>
    <path style="fill:none;stroke:#000;stroke-width:.60000002" d="m32.58 21.357.92 2.431 2.48 6.569 2.77 7.331M130.08 21.518l-.71 2.31-1.93 6.299-2.4 7.801M38.75 37.688l86.29.669h.04"/>
    <path d="m40.58 29.188.03.14c-2.66.51-4.19.86-4.19.86l-.44.17-2.48-6.57.25-.1s2.09-.51 5.66-1.23l.01.06 1.16 6.67z" style="fill:none;stroke:#000;stroke-width:.60000002"/>
    <path d="m66.75 18.527.33 7.13c-11.25.92-21.14 2.63-26.47 3.67l-.03-.14-1.16-6.67-.01-.06c5.95-1.2 16.03-2.979 27.34-3.93z" style="fill:none;stroke:#000;stroke-width:.60000002"/>
    <path d="M95.58 18.467v.05l-.5 7v.02c-4.431-.33-9.05-.53-13.66-.52-4.87.01-9.72.26-14.34.64l-.33-7.13c4.79-.41 9.81-.67 14.83-.67 4.73 0 9.46.23 14 .61z" style="fill:none;stroke:#000;stroke-width:.60000002"/>
    <path d="M81.58 17.857c-5.02 0-10.04.26-14.83.67-11.31.95-21.39 2.73-27.34 3.93-3.57.72-5.66 1.23-5.66 1.23l-.25.1-.92-2.43s3.48-1.39 12-2.84c9.31-1.57 22.42-3.24 35.61-3.31 11.081-.06 22.129 1.03 30.94 2.31 11.42 1.67 18.95 4 18.95 4l-.71 2.31-.45-.14s-2.03-.5-5.489-1.21c-6-1.22-16.32-3.07-27.851-4.01-4.54-.38-9.27-.61-14-.61z" style="fill:none;stroke:#000;stroke-width:.60000002"/>
    <path d="m129.37 23.828-1.93 6.3-.36-.11s-1.841-.4-5-.98v-.02l1.34-6.5.011-.04c3.459.71 5.489 1.21 5.489 1.21l.45.14z" style="fill:none;stroke:#000;stroke-width:.60000002"/>
    <path d="m123.431 22.478-.011.04-1.34 6.5v.02c-5.72-1.05-15.771-2.68-27-3.5v-.02l.5-7v-.05c11.53.94 21.851 2.789 27.851 4.01z" style="fill:none;stroke:#000;stroke-width:.60000002"/>
    <path d="M67.08 25.658c4.62-.38 9.47-.63 14.34-.64 4.61-.01 9.229.19 13.66.52 11.229.82 21.28 2.45 27 3.5 3.16.58 5 .98 5 .98l.36.11-2.4 7.8v.43l-86.29-.67-2.77-7.33.44-.17s1.53-.35 4.19-.86c5.33-1.04 15.22-2.75 26.47-3.67zM32.58 21.357s3.48-1.39 12-2.84c9.31-1.57 22.42-3.24 35.61-3.31 11.081-.06 22.129 1.03 30.94 2.31 11.42 1.67 18.95 4 18.95 4" style="fill:none;stroke:#000;stroke-width:.60000002"/>
    <path d="M33.75 23.688s2.09-.51 5.66-1.23c5.95-1.2 16.03-2.98 27.34-3.93 4.79-.41 9.81-.67 14.83-.67 4.729 0 9.46.23 14 .61 11.53.94 21.851 2.79 27.851 4.01 3.459.71 5.489 1.21 5.489 1.21M36.42 30.188s1.53-.35 4.19-.86c5.33-1.04 15.22-2.75 26.47-3.67 4.62-.38 9.47-.63 14.34-.64 4.61-.01 9.229.19 13.66.52 11.229.82 21.28 2.45 27 3.5 3.16.58 5 .98 5 .98M40.58 29.188l-1.16-6.67" style="fill:none;stroke:#000;stroke-width:.60000002"/>
    <path style="fill:none;stroke:#000;stroke-width:.60000002" d="M67.08 25.688v-.03l-.33-7.131v-.009M95.08 25.518l.5-7M122.08 29.018l1.34-6.5M32.58 21.357l.92 2.431 2.48 6.569 2.77 7.331M130.08 21.518l-.71 2.31-1.93 6.299-2.4 7.801M38.75 37.688l86.29.669h.04"/>
    <path d="m146.431 12.004.58-2.22 3.35.87c-.271 1.07-.961 3.74-1.35 5.29-.07.28-.141.55-.191.77l-2.85-.73-13.25-3.42-3.05-.79 1.511-5.91 3.35.83-.561 2.2 2.35.59.556-2.19 2.761.69-.521 2.17 2.24.58.567-2.2 2.812.7-.549 2.2 2.245.57zM138.44 25.395l2.91.73.01-.04c.59-2.35.449-4.4-.312-4.59l-.158-.04c-.762-.19-1.852 1.55-2.438 3.9v.01l-.012.03zm7.53-9.411-5.13 26.08-2.78 1.04c-2.959-.85-8.34-2.3-15.209-3.8l2.189-1.38 7.68-25.36 13.25 3.42zm-9.09 24.56c1.32-5.3.78-9.99-1.21-10.49-1.989-.49-4.67 3.4-5.989 8.71l7.069 1.76v.01l.13.02v-.01zm-1.18-15.79c.58-2.35.449-4.41-.311-4.6l-.17-.04c-.75-.19-1.855 1.56-2.435 3.91l-.015.04 2.91.72.021-.03z" style="fill:#fdda0c"/>
    <path d="M141.05 21.494c.76.19.9 2.24.311 4.59l-.01.04-2.91-.73.015-.03v-.01c.59-2.35 1.681-4.09 2.438-3.9l.156.04zM135.67 30.054c1.99.5 2.53 5.19 1.21 10.49v.01l-.13-.02v-.01l-7.069-1.76c1.319-5.31 4-9.2 5.989-8.71zM135.39 20.154c.76.19.891 2.25.312 4.6l-.012.03-2.91-.72.012-.04c.58-2.35 1.682-4.1 2.432-3.91l.166.04z"/>
    <path d="m110.33 4.924 2.29.3.29-2.25 2.88.35-.279 2.25 2.309.29.312-2.28 3.42.46c-.13 1.1-.488 3.83-.688 5.42-.041.29-.07.56-.102.79l-2.789-.37-13.58-1.77-3.24-.43.781-6.06 3.438.42-.29 2.25 2.392.3.278-2.24 2.83.35-.252 2.22z" style="fill:#fdda0c"/>
    <path d="m111.72 19.604 2.99.26v-.04c.21-2.41-.24-4.42-1.02-4.48l-.17-.01v-.01c-.78-.07-1.58 1.83-1.791 4.24v.01l-.009.03zm6.25-9.72-.99 26.34-.35 1.82c-4.92-.95-10.35-1.84-16.04-2.52l.2-1.64 3.6-25.77 13.58 1.77zm-5.28 25.59c.47-5.34-.812-9.81-2.854-9.99-2.04-.18-4.065 4.01-4.54 9.36l7.264.63h.13zm-4-16.14c.209-2.41-.24-4.41-1.021-4.48l-.17-.02v.01c-.779-.07-1.59 1.81-1.8 4.23v.05l2.989.26v-.05h.002z" style="fill:#fdda0c"/>
    <path d="M113.69 15.344c.779.06 1.229 2.07 1.02 4.48v.04l-2.99-.26.01-.03v-.01c.211-2.41 1.016-4.31 1.791-4.24v.01l.169.01zM109.84 25.484c2.04.18 3.32 4.65 2.851 9.99h-.131l-7.26-.63c.471-5.35 2.5-9.54 4.54-9.36zM107.67 14.854c.78.07 1.229 2.07 1.021 4.48v.05l-2.985-.26v-.05c.21-2.42 1.021-4.3 1.8-4.23v-.01l.164.02z"/>
    <path d="m87.569 3.024.021-2.3 3.47.04c-.01 1.11-.02 3.86-.029 5.47v.78l-2.938-.03-13.68-.1-3.16-.03.04-6.1h3.46l-.02 2.26h2.42V.764H80l.02 2.24 2.31.01.021-2.27h2.899v2.27l2.319.01z" style="fill:#fdda0c"/>
    <path d="M85.21 32.174c0-5-1.66-9.03-3.71-9.03s-3.71 4.05-3.71 9.05h7.29v-.01l.13-.01zm.87-14.489v-.04c0-2.42-.63-4.38-1.41-4.38v.01h-.17v-.01c-.78 0-1.42 1.96-1.42 4.38v.04h3zm2.01-10.701 1.33 25.83-.101 1.69a145.931 145.931 0 0 0-16.149-.11l-.09-1.75 1.33-25.76 13.68.1zm-8.05 10.75v-.04c0-2.42-.63-4.38-1.41-4.38h-.17c-.78 0-1.42 1.96-1.42 4.38v.04h3z" style="fill:#fdda0c"/>
    <path d="M86.08 17.654v.03h-3v-.04c0-2.42.64-4.38 1.42-4.38v.01h.17v-.01c.78 0 1.41 1.96 1.41 4.38v.01zM85.21 32.174l-.13.01v.01h-7.29c0-5 1.66-9.05 3.71-9.05s3.71 4.03 3.71 9.03zM80.04 17.694v.04h-3v-.04c0-2.42.64-4.38 1.42-4.38h.17c.78 0 1.41 1.96 1.41 4.38z"/>
    <path d="m51.87 19.104-.01-.03v-.01c-.21-2.41-1.02-4.31-1.79-4.24v.01l-.17.01c-.78.06-1.24 2.07-1.03 4.48v.01l.01.03 2.99-.26zm10.34 14.03.22 2.1c-5.76.62-11.24 1.47-16.19 2.39l-.36-2.04-.85-26.7 13.62-1.3 3.56 25.55zm-12.08 1.6 7.28-.77c-.39-5.5-2.37-9.78-4.41-9.56-2.05.21-3.39 4.83-3 10.33v.01l.13-.01zm7.26-16.109-.01-.04c-.21-2.42-1.02-4.31-1.79-4.24l-.17.021v-.01c-.78.07-1.24 2.08-1.02 4.49v.04l2.99-.261z" style="fill:#fdda0c"/>
    <path d="m50.41 4.424 2.31-.22-.18-2.22 2.84-.25.2 2.24 2.4-.21-.2-2.26 3.44-.3.56 6.08-3.13.3-13.62 1.3-2.93.28c-.02-.22-.04-.49-.07-.78-.15-1.59-.4-4.33-.5-5.44l3.45-.34.22 2.29 2.31-.21-.2-2.26 2.9-.25.2 2.25z" style="fill:#fdda0c"/>
    <path d="m57.41 33.964-7.28.77-.13.01v-.01c-.39-5.5.95-10.12 3-10.33 2.04-.219 4.02 4.06 4.41 9.56zM57.38 18.584l.01.04-2.99.26v-.04c-.22-2.41.24-4.42 1.02-4.49v.01l.17-.021c.77-.069 1.58 1.822 1.79 4.241zM51.86 19.074l.01.03-2.99.26-.01-.03v-.01c-.21-2.41.25-4.42 1.03-4.48l.17-.01v-.01c.77-.07 1.58 1.83 1.79 4.24v.01z"/>
    <path d="m25.43 25.294-.01-.03c-.7-2.32-1.89-4.01-2.63-3.78v.01l-.16.05h-.01v-.01c-.74.23-.77 2.29-.07 4.6v.01l.02.03 2.86-.88zm1.45 15.141v-.01l7.02-2.36c-1.4-5.08-4.14-8.66-6.11-8-1.97.67-2.44 5.31-1.04 10.4l.13-.03zm1.06-16.071 2.87-.88-.01-.03v-.01c-.71-2.31-1.9-4-2.64-3.77h-.01l-.15.05h-.01c-.74.25-.77 2.3-.06 4.6h-.01l.02.04zm10.81 13.321.3 1.38c-8.09 1.76-13.91 3.46-15.89 4.06l-.45-1.51-6.28-25.08 13.06-4.1 9.26 25.25z" style="fill:#fdda0c"/>
    <path d="m33.9 38.064-7.02 2.36v.01l-.13.03c-1.4-5.09-.93-9.73 1.04-10.4 1.97-.66 4.71 2.92 6.11 8z"/>
    <path d="M29.49 12.424v.01l-13.06 4.1-2.8.88c-.07-.21-.15-.48-.23-.75-.48-1.53-1.3-4.17-1.63-5.22l3.3-1.05.7 2.2 2.21-.69-.65-2.17 2.77-.85.68 2.16 2.2-.69-.63-2.14 2.73-.83.65 2.15 2.31-.71-.68-2.16 3.32-1.01 1.82 5.83-3.01.94z" style="fill:#fdda0c"/>
    <path d="m30.8 23.454.01.03-2.87.88-.02-.04h.01c-.71-2.3-.68-4.35.06-4.6H28l.15-.05h.01c.74-.23 1.93 1.46 2.64 3.77v.01zM25.42 25.264l.01.03-2.86.88-.02-.03v-.01c-.7-2.31-.67-4.37.07-4.6v.01h.01l.16-.05v-.01c.74-.23 1.93 1.46 2.63 3.78z"/>
    <path d="M22.42 43.354s.25-.08.74-.23c1.98-.6 7.8-2.3 15.89-4.06 2.24-.48 4.64-.97 7.19-1.44 4.95-.92 10.43-1.77 16.19-2.39 3.49-.37 7.09-.67 10.74-.84a145.931 145.931 0 0 1 16.149.11c3.82.22 7.601.57 11.271 1.02 5.69.68 11.12 1.57 16.04 2.52 2.18.41 4.26.84 6.221 1.26 6.869 1.5 12.25 2.95 15.209 3.8 1.631.47 2.521.75 2.521.75" style="fill:none;stroke:#000;stroke-width:4.30000019"/>
    <path style="fill:none;stroke:#000;stroke-width:1.5" d="m88.09 6.984 1.33 25.83M74.41 6.884l-1.33 25.761"/>
    <path style="fill:none;stroke:#000" d="M70.92 6.854h.33l3.16.03 13.68.1 2.94.03h.39"/>
    <path style="fill:none;stroke:#000" d="M71.29.514v.24l-.04 6.1v.5M91.06.284v.48c-.01 1.11-.02 3.86-.029 5.47v1.26M70.81.754H75.25"/>
    <path style="fill:none;stroke:#000" d="M87.58.724h.01l3.47.04h.36M84.92 3.014h.33l2.319.01h.371M79.54 3.004h.48l2.31.01h.25M74.42 3.014h2.91M81.94.744h3.7M76.67.764h3.7M74.73 3.524v-.51l.02-2.26v-.19"/>
    <path style="fill:none;stroke:#000" d="M80.02 3.344v-.34L80 .764v-.47M82.33 3.524v-.51l.021-2.27v-.49M87.56 3.524l.009-.5.021-2.3.011-.47M85.25 3.524V.254M77.15.274v3.25"/>
    <path style="fill:none;stroke:#000;stroke-width:1.5" d="m145.97 15.984-5.13 26.08M132.72 12.564l-7.68 25.36"/>
    <path style="fill:none;stroke:#000" d="m129.351 11.694.319.08 3.05.79 13.25 3.42 2.849.73.381.1"/>
    <path style="fill:none;stroke:#000" d="m131.181 5.864-1.511 5.91-.12.49M131.24 5.634l-.059.22M150.479 10.185s-.039.17-.119.47c-.271 1.07-.961 3.74-1.35 5.29-.07.28-.146.55-.191.77-.049.19-.09.35-.109.44v.03M130.72 5.744l.461.11v.01l3.349.83.5.12"/>
    <path style="fill:none;stroke:#000" d="m147.011 9.784 3.349.87.35.09M146.989 9.774h.022M143.86 11.354l.321.081 2.25.569.359.09M138.64 10.034l.47.12 2.241.58.239.06M133.67 8.814l.3.081 2.349.589.181.04M141.521 8.435l.399.099 2.809.7.381.09M139.64 7.984l.349.09M136.399 7.174l.471.12 2.76.69"/>
    <path style="fill:none;stroke:#000" d="m133.851 9.375.119-.48.56-2.201.05-.18M139.03 10.484l.08-.33.52-2.17h.01l.11-.47M141.229 11.214l.122-.48.569-2.2.12-.49M146.3 12.484l.131-.48.58-2.22v-.01l.119-.46M144.06 11.924l.121-.489.548-2.201.122-.49M136.989 6.804l-.119.49-.551 2.19-.119.48"/>
    <path style="fill:none;stroke:#000;stroke-width:1.5" d="m16.43 16.534 6.28 25.08M29.49 12.435l9.26 25.25"/>
    <path style="fill:none;stroke:#000" d="m29.49 12.435-13.06 4.099-2.8.881-.37.119"/>
    <path style="fill:none;stroke:#000;stroke-width:1.5" d="M29.49 12.424v.011"/>
    <path style="fill:none;stroke:#000" d="m32.81 11.384-.31.1-3.01.94"/>
    <path style="fill:none;stroke:#000" d="m30.61 5.435.07.219 1.82 5.83.15.48M11.63 10.984s.05.17.14.46c.33 1.05 1.15 3.69 1.63 5.22.08.27.16.54.23.75.06.19.1.35.13.44l.01.02"/>
    <path style="fill:none;stroke:#000" d="m31.13 5.514-.45.14-3.32 1.011-.47.149M15.09 10.395h-.02l-3.3 1.049-.34.11M18.3 11.804l-.32.1-2.21.69-.35.11M23.44 10.214l-.46.14-2.2.69-.24.081M28.34 8.734l-.3.09-2.31.71-.17.05M17.32 9.734l-.37.11M20.49 8.764l-.39.12-2.77.85M25.54 7.244l-.46.14-2.73.83-.35.11"/>
    <path style="fill:none;stroke:#000" d="m28.19 9.304-.15-.48-.68-2.159-.05-.171M23.08 10.685l-.1-.331-.63-2.14-.14-.46M20.93 11.524l-.15-.48-.68-2.16-.15-.48M15.92 13.054l-.15-.46-.7-2.199-.14-.451M18.13 12.384l-.15-.48-.65-2.17h-.01l-.14-.48M24.93 6.904l.15.48.65 2.15.15.48"/>
    <path style="fill:none;stroke:#000;stroke-width:1.5" d="m117.97 9.884-.991 26.34M104.39 8.114l-3.6 25.77"/>
    <path style="fill:none;stroke:#000" d="m100.819 7.645.33.04 3.241.429 13.58 1.77 2.791.37.388.05"/>
    <path style="fill:none;stroke:#000" d="m101.96 1.395-.029.23-.782 6.06-.059.489M121.62 3.564s-.02.18-.07.48c-.13 1.1-.49 3.83-.689 5.42-.041.29-.065.56-.1.79-.021.2-.041.35-.051.44v.03"/>
    <path style="fill:none;stroke:#000" d="m101.46 1.564.471.061 3.439.419.5.06M118.11 3.584h.02l3.42.46.36.05M115.19 5.534l.321.04 2.308.29.362.051M109.851 4.864l.479.06 2.29.3.24.03M105.08 4.294l2.39.3.179.02M104.771 4.254l.298.04M112.511 2.924l.399.05 2.88.35.391.051M107.271 2.294l.479.06 2.83.35.37.05"/>
    <path style="fill:none;stroke:#000" d="m105.011 4.794.058-.5h.011l.29-2.25.02-.18M110.29 5.254l.04-.33.25-2.22.06-.48M112.56 5.714l.06-.49.29-2.25.06-.5M117.75 6.354l.069-.49.311-2.28.06-.47M115.45 6.074l.061-.5.279-2.25.061-.5M107.81 1.864l-.06.49-.28 2.24-.06.49"/>
    <path style="fill:none;stroke:#000;stroke-width:1.5" d="m45.03 8.884.85 26.7M58.65 7.584l3.56 25.55"/>
    <path style="fill:none;stroke:#000" d="m62.12 7.254-.34.03-3.13.3-13.62 1.3-2.93.281-.39.039"/>
    <path style="fill:none;stroke:#000" d="m61.2.974.02.23.56 6.08.05.5M41.48 2.454s.02.18.05.49c.1 1.11.35 3.85.5 5.44.03.29.05.56.07.78.02.2.03.36.04.45v.03"/>
    <path style="fill:none;stroke:#000" d="m61.7 1.165-.48.039-3.44.3-.51.04M44.99 2.604h-.01l-3.45.34-.36.03M47.84 4.654l-.33.031-2.31.21-.37.029M53.2 4.165l-.48.039-2.31.22-.24.02M58.3 3.734l-.32.03-2.4.21-.18.02M50.21 2.174l-2.9.25-.39.03M50.61 2.134l-.4.031M55.86 1.694l-.48.04-2.84.25-.37.03"/>
    <path style="fill:none;stroke:#000" d="m58.03 4.264-.05-.5-.2-2.26-.02-.18M52.75 4.544l-.03-.34-.18-2.22-.04-.48M50.46 4.924l-.05-.5-.2-2.25v-.009l-.05-.5M45.25 5.384l-.05-.489-.22-2.291-.05-.479M47.55 5.174l-.04-.489-.2-2.261-.04-.5M55.34 1.234l.04.5.2 2.24.04.5"/>
    <path d="M27.75 54.354s-.52-.366.496-.833c1.016-.467 2.551-1.084 4.623-1.683.619-.179 1.276-.363 1.968-.551a139.203 139.203 0 0 1 10.582-2.417c.335-.064.676-.126 1.018-.189a238.405 238.405 0 0 1 16.656-2.427c5.553-.615 11.388-1.013 17.269-1.013 10.317-.002 20.675 1.2 29.76 2.728a436.895 436.895 0 0 1 2.261.388l.39.069c4.465.801 9.09 1.622 12.955 2.394.502.101.994.206 1.476.314 2.991.678 5.396 1.465 7.179 2.163a12.57 12.57 0 0 1 1.555.73c.758.423 1.022.814 1.271 1.045.224.21-1.282-.717-1.282-.717" style="fill:none;stroke:#000;stroke-width:2"/>
    <path d="M22.917 53.854s.184-2.201 3.996-3.511c9.803-3.372 30.755-7.939 52.004-8.154.574-.006 1.147-.008 1.722-.008l.516.001.763.005c23.962.201 47.188 5.763 55.996 8.863 2.403.846 3.17 2.971 3.17 2.971" style="fill:none;stroke:#000;stroke-width:2"/>
    <path d="M26.75 47.354s10.893-3.525 25.786-6.047c8.733-1.48 18.819-2.651 28.847-2.655 15.058-.005 29.981 2.514 40.466 4.825 8.752 1.931 14.401 3.711 14.401 3.711" style="fill:none;stroke:#000;stroke-width:6.5"/>
    <circle cx="140.646" cy="43.917" r="2.062"/>
    <circle cx="22.375" cy="43.396" r="2.062"/>
    <circle cx="140.229" cy="43.708" r=".896" style="fill:#fdda0c"/>
    <circle cx="27.333" cy="47.062" r="3.25"/>
    <circle cx="136.333" cy="47.062" r="3.25"/>
    <circle cx="128.375" cy="44.688" r="2.625" style="fill:#fdda0c"/>
    <circle cx="122.25" cy="43.438" r="2.625" style="fill:#fdda0c"/>
    <circle cx="115.375" cy="41.812" r="2.625" style="fill:#fdda0c"/>
    <circle cx="108.625" cy="40.938" r="2.625" style="fill:#fdda0c"/>
    <circle cx="101.75" cy="40.062" r="2.625" style="fill:#fdda0c"/>
    <circle cx="95.125" cy="39.438" r="2.625" style="fill:#fdda0c"/>
    <circle cx="88.25" cy="39.062" r="2.625" style="fill:#fdda0c"/>
    <circle cx="81.625" cy="38.938" r="2.625" style="fill:#fdda0c"/>
    <circle cx="68" cy="39.188" r="2.625" style="fill:#fdda0c"/>
    <circle cx="61.125" cy="39.938" r="2.625" style="fill:#fdda0c"/>
    <circle cx="75" cy="39.062" r="2.625" style="fill:#fdda0c"/>
    <circle cx="54.5" cy="40.688" r="2.625" style="fill:#fdda0c"/>
    <circle cx="48" cy="41.688" r="2.625" style="fill:#fdda0c"/>
    <circle cx="41.375" cy="43.062" r="2.625" style="fill:#fdda0c"/>
    <circle cx="34.875" cy="44.438" r="2.625" style="fill:#fdda0c"/>
    <circle cx="28.75" cy="46.188" r="2.625" style="fill:#fdda0c"/>
    <circle cx="135.125" cy="46.438" r="2.625" style="fill:#fdda0c"/>
    <path d="M22.583 43.188s4.852-1.529 12.609-3.329c11.109-2.577 28.175-5.7 45.506-5.725 11.749-.018 23.709 1.396 33.764 3.16 15.089 2.647 25.85 6.457 25.85 6.457" style="fill:none;stroke:#fdda0c;stroke-width:1.79999995"/>
    <circle cx="22.771" cy="43.125" r=".896" style="fill:#fdda0c"/>
    <path d="M24.417 54.188s.277-1.088 2.517-1.999c1.521-.619 3.622-1.357 6.403-2.094 8.331-2.209 21.042-4.819 34.826-5.896 4.223-.33 8.536-.517 12.827-.507 3.301.007 6.588.129 9.826.337 10.24.658 19.963 2.126 28.006 3.742 3.687.739 7.021 1.394 9.875 2.041 4.209.952 7.293 2.203 9.061 3.058 1.119.544 1.166 1.485 1.166 1.485" style="fill:none;stroke:#fdda0c;stroke-width:1.79999995"/>
    <path d="M1.084 54.798c.507-.549-.279 1.386-.279 2.128 0 .997.221 2.101.279 3.195.111 2.089-.001 4.15.053 6.054.092 3.268.341 7.53.479 11.247.159 4.276-1.03 8.373-.812 12.775.213 4.303.491 8.57.546 12.775.111 8.57.135 16.984-.265 25.286-.212 4.396.577 8.209.531 12.509-.045 4.207-.798 8.338-.798 12.775 0 8.732-.122 17.51.266 25.816.401 8.604-2.154 17.139 1.065 25.299 1.916 4.854 4.533 2.203 8.517.727 4.055-1.503 8.882-1.758 13.314-1.544 8.679.418 17.615 3.37 26.284 1.276 4.519-1.092 9.261-1.438 13.912-2.075 4.785-.657 9.356-2.173 14.087-2.661 9.355-.966 18.454.003 26.888 3.406 8.302 3.352 19.14 1.332 27.945.001 5.021-.759 9.75-.474 14.9-.474 2.438 0 4.656-.029 6.92.526.977.241 4.979 2.316 5.652 2.074.137.104.273.117.423.021.133-4.166 1.106-8.224 1.106-12.748 0-4.447.271-8.793.271-13.033-.007-8.744-.163-17.307-.271-26.082-.103-8.618.442-17.529 0-26.084-.229-4.396-1.229-8.596-.598-12.84.618-4.158.764-7.873.538-12.178-.448-8.551.474-17.271.06-25.817-.221-4.535-.049-8.875-.006-13.313.021-2.067.358-3.952.271-6.116-.129-3.231-.236-2.799-2.869-3.254-8.372-1.446-16.842.786-25.609.326-8.146-.427-16.627-1.28-24.754-.532-8.85.814-18.338.252-27.413.325-8.86.071-18.084-1.542-26.888-.332-4.181.575-8.404.261-12.769.273-2.134.006-4.281-.553-6.247-.553-3.445.001-6.871.909-10.255 1.085-2.167.113-4.071-.333-6.062-.591-2.164-.281-4.188.315-6.446.324-2.232.009-10.949.709-11.978-.532" style="fill:#00c8ff"/>
    <path d="M6.663 205.44c-2.42 1.604-2.406 3.521-1.388 6.099.533 1.347 2.709 3.93 3.945 4.629 1.87 1.06 5.033-.864 7.203-.972 1.65-.082 3.298.078 4.88.004 1.463-.068 2.856-.411 4.376-.338 3.421.169 6.39.986 9.928.843 3.668-.149 7.114-.169 10.807-.168 8.186.001 16.061-1.952 24.195-2.654 2.686-.231 5.377.019 8.035-.371 1.968-.286 3.457-.34 5.427.037 2.088.4 3.99 1.106 6.102 1.302 2.21.203 4.485.246 6.65.688 4.849.985 9.795 1.796 14.716 2.31 3.719.387 7.521-.279 11.239-.3 2.354-.013 4.742.126 7.074.011 4.021-.201 8.146-1.734 12.271-1.533 1.909.1 4.116-.004 6.021.354 1.608.306 4.099 2.146 5.771 1.688 1.499-.406 3.168-3.271 4.236-4.506 1.752-2.021 2.734-4.862-.029-6.479-3.646-2.13-8.88-1.174-12.932-1.479-2.109-.162-4.135-.549-6.256-.662-2.562-.144-5.039.341-7.576.334-5.688-.015-11.508.227-17.157.304-3.747.051-7.433.565-11.208.372-6.311-.327-11.562-4.572-17.745-4.883-7.82-.389-15.418 3.039-23.096 4.371-4.569.793-9.303 1.455-13.916 1.729-4.263.249-8.026-.062-12.251-.549-6.685-.766-13.44-2.354-20.256-2.018-2.171.107-3.936 1.146-6.036 1.479-1.113.176-2.147.126-3.198.375" style="fill:#00c8ff"/>
    <path d="M11.544 217.224c2.291 3.67 7.191 5.658 11.064 7.278 2.237.937 4.675 1.282 6.979 2.104 1.254.441 2.409.764 3.665 1.014 1.462.29 2.646-.208 4.043-.135 3.147.164 6.12.168 9.251.172 2.818.004 7.372-.383 9.928.598 1.163-.576 2.751-.181 4.039-.258 1.433-.086 2.581-.602 3.87-1.225 2.758-1.332 5.644-1.949 8.423-3.112 2.293-.961 5.047-1.981 7.732-1.729 2.688.254 5.844 1.688 8.414 2.565 5.465 1.871 10.146 2.839 15.688 3.123 2.448.126 4.95.661 7.535.532 2.756-.137 5.602-.157 8.414-.158 5.037-.003 10.699.775 15.482-.842 2.246-.76 4.668-1.159 6.895-2.023 2.193-.854 3.658-1.961 5.512-3.408 1.478-1.146 5.795-2.375 2.912-4.291-2.146-1.429-5.584-1.93-8.086-2.557-1.639-.41-2.988-.428-4.699-.501-2.256-.097-4.912-1.008-7.066-.854-1.258.09-2.438.91-3.748 1.229-1.646.396-3.486.676-5.044.931-14.12 2.312-27.192-4.021-41.316-4.17-8.22-.085-16.252 3.34-24.439 4.198-5.729.603-11.368 1.18-17.16 1.021-5.44-.149-10.935-.955-16.344-1.509-2.085-.212-4.039-.108-6.117.193-1.41.208-4.989.356-5.65 1.646" style="fill:#00c8ff"/>
    <path d="M10.03 215.541s4.547-2.979 13.157-2.438c1.829.104 3.798.297 5.824.609 1.248.188 2.533.4 3.79.643 4.337.82 9.076 1.562 13.966 1.223.28-.021.568-.04.857-.072a51.976 51.976 0 0 0 2.635-.252c2.954-.352 5.849-.852 8.584-1.562.17-.041.339-.092.509-.146 1.379-.362 2.746-.737 4.093-1.112 3.315-.897 6.669-1.688 10.095-2.109a35.104 35.104 0 0 1 1.878-.194c.169-.015.337-.021.498-.043 2.216-.159 4.435-.2 6.651-.122 3.645.133 7.269.523 10.894 1.098 3.036.478 6.062 1.182 9.054 1.943 2.047.53 4.135 1.088 6.221 1.628l.394.089c1.522.383 3.175.674 4.896.892 6.307.771 14.771-.938 21.551-2.234 11.604-2.256 18.512 2.854 18.512 2.854" style="fill:none;stroke:#000;stroke-width:3.4000001;stroke-linecap:round;stroke-linejoin:round"/>
    <path style="fill:none" d="m152.41 219.228 2.29-2.661M9.38 215.918l2.16 3.069"/>
    <path d="M13.564 218.401s3.685-2.279 11.081-1.506c1.571.146 3.255.396 5.026.732 1.11.211 2.239.438 3.39.688 3.953.834 8.34 1.563 13.159 1.213.285-.014.567-.035.841-.067.87-.067 1.741-.149 2.601-.258a67.6 67.6 0 0 0 3.819-.545 60.942 60.942 0 0 0 4.751-.984c.178-.04.345-.08.512-.131 1.377-.354 2.756-.72 4.128-1.071.04-.01.079-.021.119-.029.593-.146 1.194-.301 1.788-.448 2.734-.675 5.505-1.234 8.337-1.562.633-.066 1.278-.142 1.921-.188.168-.013.337-.021.505-.039 1.14-.069 2.28-.12 3.419-.142 1.131-.015 2.262 0 3.394.039 3.74.137 7.486.521 11.229 1.099 3.132.477 6.246 1.157 9.341 1.914 2.104.515 4.241 1.059 6.387 1.579.131.041.27.062.396.104 1.571.374 3.256.655 4.987.88 3.93.488 8.631.138 13.215-.479.25-.039.511-.08.76-.106 2.646-.396 4.971-.982 7.021-1.555 9.84-2.745 15.358 1.382 15.358 1.382" style="fill:none;stroke:#000;stroke-width:4;stroke-linecap:round;stroke-linejoin:round"/>
    <path d="m154.7 216.567-2.29 2.66s-6.28-4.28-16.16-1.53c-2.06.569-4.39 1.159-7.05 1.561-.25.029-.51.069-.76.109-4.604.62-9.32.979-13.26.5-1.74-.22-3.436-.5-5.016-.87-.13-.04-.271-.061-.396-.1-2.149-.521-4.301-1.062-6.41-1.57-3.109-.75-6.239-1.43-9.391-1.899-3.764-.569-7.529-.95-11.304-1.079-1.14-.041-2.28-.051-3.42-.041-1.15.021-2.3.07-3.45.146-.17.021-.34.024-.51.039-.65.051-1.3.116-1.94.188-2.86.329-5.66.891-8.43 1.562-.64.155-1.29.315-1.93.479-1.39.352-2.79.711-4.19 1.062a6.81 6.81 0 0 1-.52.132c-1.57.38-3.19.698-4.84.96-1.28.21-2.59.38-3.9.521-.88.102-1.77.181-2.66.236-.28.029-.57.053-.86.062-4.93.316-9.43-.448-13.48-1.312-1.18-.25-2.37-.471-3.56-.658-1.9-.302-3.76-.488-5.5-.578-8.19-.479-11.94 1.852-11.94 1.852l-2.16-3.069s4.59-3.028 13.44-2.729c1.88.05 3.9.188 5.96.47 1.27.17 2.57.37 3.83.609 4.35.815 9.1 1.561 14 1.229.28-.021.57-.04.86-.067.89-.062 1.76-.146 2.64-.25 2.96-.34 5.86-.83 8.6-1.541.17-.039.34-.09.51-.142 1.38-.358 2.75-.729 4.1-1.1 3.32-.894 6.68-1.66 10.11-2.07.62-.08 1.25-.142 1.88-.188.17-.01.34-.021.5-.039 2.22-.146 4.44-.182 6.664-.09 3.646.147 7.276.562 10.906 1.147 3.04.49 6.068 1.21 9.068 1.99 2.052.539 4.142 1.106 6.229 1.659.13.025.262.061.391.091 1.53.39 3.184.688 4.898.909 6.32.8 14.812-.87 21.609-2.149 11.652-2.231 19.132 2.898 19.132 2.898z" style="fill:#fff"/>
    <path d="M4.31 208.978s5.34-3.72 16.18-3.68c.25 0 .51 0 .77.01 1.46.021 2.98.11 4.56.28 1.05.109 2.09.229 3.1.369.81.11 1.6.221 2.37.341 4.47.68 9.24 1.35 13.84 1.439 1.54.029 3.05-.01 4.54-.109.53-.04 1.06-.091 1.59-.141a60.805 60.805 0 0 0 3.93-.548c.76-.141 1.5-.275 2.23-.438.57-.119 1.13-.25 1.69-.393.28-.062.57-.131.85-.211.29-.066.59-.146.88-.229.9-.25 1.8-.5 2.69-.75 2.25-.62 4.5-1.188 6.76-1.642.87-.17 1.75-.319 2.62-.449.64-.092 1.27-.17 1.91-.239.5-.062 1.01-.108 1.51-.16.5-.038 1-.069 1.49-.101.82-.051 1.63-.08 2.44-.08a44.01 44.01 0 0 1 1.78 0c.66.021 1.311.04 1.95.068.271.012.55.021.819.041 3.09.199 6.121.619 9.105 1.181 3.104.569 6.12 1.341 9.13 2.141.104.029.216.062.312.091.879.229 1.771.461 2.66.685.102.026.188.05.289.075 1.08.265 2.229.5 3.438.725a41.5 41.5 0 0 0 2.96.421c1.021.104 2.08.185 3.146.239 1.354.062 2.74.04 4.16-.04a54.133 54.133 0 0 0 3.5-.312c2.898-.356 5.971-.892 8.92-1.461.648-.131 1.312-.24 1.959-.341a61.006 61.006 0 0 1 3.939-.489c.171-.011.33-.025.49-.039a64.77 64.77 0 0 1 1.92-.102c5.648-.21 10.771.602 14.359 1.5 3.93.971 5.049 2.108 5.049 2.108" style="fill:none;stroke:#000;stroke-width:3.5"/>
    <path d="M3.47 206.287s4.664-4.06 15.973-4.235l.818-.001a53.911 53.911 0 0 1 4.83.218c1.118.104 2.214.207 3.302.336.847.109 1.695.225 2.513.328 2.174.312 4.407.615 6.639.896 2.661.314 5.332.562 7.922.607 1.594.037 3.168.006 4.691-.104a47.58 47.58 0 0 0 1.633-.149 46.577 46.577 0 0 0 3.067-.414c.318-.053.627-.109.936-.174a52.497 52.497 0 0 0 2.24-.464c.577-.13 1.145-.261 1.702-.399.278-.068.567-.144.846-.225.298-.08.597-.171.885-.251.906-.252 1.802-.513 2.698-.772 2.25-.649 4.489-1.246 6.737-1.709a60.514 60.514 0 0 1 2.598-.467 37.51 37.51 0 0 1 1.891-.255c.498-.062.996-.108 1.493-.159.498-.041.985-.082 1.482-.113.796-.051 1.603-.07 2.398-.084.587 0 1.175-.002 1.75.01.646.021 1.279.037 1.922.074.119 0 .248.013.369.013.139.01.289.021.426.026 3.021.205 5.979.643 8.896 1.217 3.009.596 5.935 1.391 8.851 2.227.103.029.196.062.312.092.847.235 1.702.479 2.565.705.103.027.188.051.275.078 1.049.277 2.161.518 3.326.745.93.181 1.882.313 2.878.427a43.79 43.79 0 0 0 3.062.244c1.312.068 2.668.059 4.056-.033a53.555 53.555 0 0 0 2.391-.216c.341-.038.688-.079 1.026-.131 2.857-.384 5.879-1.024 8.812-1.729.52-.131 1.047-.238 1.574-.354a4.66 4.66 0 0 1 .357-.068c1.316-.271 2.662-.453 4.011-.596.157-.011.329-.029.487-.04a30.57 30.57 0 0 1 2.004-.11c5.939-.111 11.66 1.293 15.486 2.424 4.176 1.229 4.694 3.102 4.694 3.102" style="fill:none;stroke:#000;stroke-width:3"/>
    <path d="m160.819 206.968-.659 1.771s-1.12-1.141-5.05-2.109c-3.59-.898-8.711-1.71-14.36-1.5-.64.021-1.28.061-1.92.102-.16.014-.319.028-.49.039-1.3.121-2.63.279-3.94.489-.646.101-1.31.21-1.959.341-2.951.569-6.021 1.104-8.92 1.461-1.181.144-2.355.25-3.5.312-1.42.08-2.811.104-4.16.04a66.825 66.825 0 0 1-3.146-.239 40.62 40.62 0 0 1-2.96-.421 63.045 63.045 0 0 1-3.438-.721 26.287 26.287 0 0 0-.289-.079c-.895-.223-1.78-.45-2.659-.684-.103-.026-.212-.062-.312-.09-3.012-.802-6.027-1.57-9.132-2.143-2.985-.562-6.021-.979-9.106-1.182-.271-.021-.551-.028-.819-.041a130.93 130.93 0 0 0-1.949-.067c-.59-.01-1.19-.01-1.78 0-.81 0-1.62.028-2.44.08-.49.028-.99.062-1.49.103-.5.051-1.01.104-1.51.158-.64.069-1.27.149-1.91.239-.87.13-1.75.278-2.62.448-2.26.449-4.51 1.021-6.76 1.643-.89.25-1.79.5-2.69.75-.29.079-.59.159-.88.229-.28.08-.57.146-.85.211a62.888 62.888 0 0 1-3.92.83c-.3.051-.61.101-.91.146a57.436 57.436 0 0 1-4.61.54c-1.49.104-3 .146-4.54.106-4.6-.092-9.37-.762-13.84-1.438-.77-.115-1.56-.229-2.37-.341a80.266 80.266 0 0 0-3.1-.369 47.18 47.18 0 0 0-4.56-.276c-.26-.014-.52-.014-.77-.014-10.84-.04-16.18 3.684-16.18 3.684l-.84-2.688s4.66-4.062 15.99-4.229h.82c1.54 0 3.16.065 4.84.221 1.12.101 2.22.21 3.31.34.85.109 1.7.221 2.52.33 2.18.312 4.42.619 6.66.898 2.67.316 5.35.566 7.95.616a47.007 47.007 0 0 0 6.35-.25c1.04-.106 2.07-.235 3.08-.405a63.883 63.883 0 0 0 3.19-.631c.58-.134 1.15-.264 1.71-.399.28-.069.57-.14.85-.22.3-.08.6-.17.89-.25.91-.25 1.81-.515 2.71-.771 2.26-.647 4.51-1.238 6.77-1.699.87-.17 1.74-.33 2.61-.46.64-.101 1.27-.181 1.9-.25.5-.062 1-.109 1.5-.158a48.484 48.484 0 0 1 3.9-.187c.59 0 1.18 0 1.76.011.649.021 1.289.04 1.931.08.119 0 .25.013.369.013.141.012.29.021.432.027 3.039.21 6.011.646 8.938 1.229 3.021.604 5.96 1.397 8.892 2.238.102.029.198.061.311.092.854.237 1.711.479 2.579.709.104.028.188.051.28.08 1.049.278 2.17.521 3.34.75.934.18 1.893.318 2.893.43 1 .121 2.021.201 3.066.25 1.32.07 2.684.062 4.07-.025.779-.052 1.59-.12 2.399-.21.34-.04.688-.08 1.028-.13 2.871-.385 5.896-1.021 8.84-1.725.521-.129 1.052-.238 1.58-.352.121-.027.24-.05.359-.068 1.317-.271 2.67-.449 4.02-.591.16-.011.33-.028.49-.04a30.75 30.75 0 0 1 2.01-.109c5.949-.105 11.682 1.305 15.512 2.435 4.17 1.221 4.689 3.09 4.689 3.09z" style="fill:#fff"/>
    <path d="M47.516 193.718c.319.118.345-.379.883-.39 1.695-.036 4.195-.291 4.782.772.787 1.428-2.969 2.799-3.834 2.77"/>
    <path d="M49.346 196.87s.628-.996.203-1.729c-.486-.843-2.034-1.43-2.034-1.43"/>
    <path d="M1.225 198.866s3.235-1.52 10.059-2.635a70.789 70.789 0 0 1 6.914-.801 96.189 96.189 0 0 1 2.877-.142c3.389-.099 6.814-.034 9.706.122 2.205.119 3.491.337 4.62.527.104.021.211.035.32.059 2.565.434 5.107.24 7.634.378.913.048 1.725-.151 2.552-.271 1.527-.211 2.988-.307 4.344-.936 0-1.09-4.441-.2-5.327-.156-2.085.104-4.646-.183-6.359-.453" style="fill:none;stroke:#000;stroke-width:3"/>
    <path d="M38.707 194.565s-1.871-.129-4.271-.609c-3.917-.784-10.172-1.837-16.269-1.734-3.888.065-7.679.713-10.714 1.457-4.029.988-6.265 2.312-6.265 2.312" style="fill:none;stroke:#000;stroke-width:3"/>
    <path d="m1.629 198.866-.031-.131c-.125-.562-.411-2.745-.411-2.745" style="fill:none"/>
    <path d="M11.674 196.358c-6.65.896-9.84 2.41-9.84 2.41l-.71-2.854s2.23-1.315 6.26-2.312c3.04-.737 6.83-1.394 10.72-1.461 6.09-.103 12.35.949 16.27 1.737 2.4.479 4.27.61 4.27.61 1.18.188 3.06.18 4.43.367.58.08 1.17.121 1.75.103.81-.026 4.98-.817 5 .29-1.3.66-2.7.79-4.19 1.029-.8.131-1.59.351-2.49.318-2.48-.104-4.98.106-7.51-.289l-.31-.062c-1.11-.181-2.37-.392-4.54-.5-3.66-.181-8.17-.222-12.36-.021-2.45.135-4.73.366-6.75.635z" style="fill:#fff"/>
    <path d="M85.181 152.37c-.541-5.146-1.101-10.403-2.32-15.301-.605-2.447-1.061-4.962-1.688-7.405-.59-2.329-1.81-4.519-2.61-6.875-1.71-5.059-1.66-9.949-.5-15.101 1.05-4.708 2.02-9.504 4.086-13.804.604 1.01-.626 4.957-.912 6.018-.7 2.658-1.64 5.007-1.69 7.895-.05 2.858-.08 5.597.03 8.395.15 3.478.83 6.605 1.67 9.753.46 1.739.96 3.488 1.42 5.298 1.25 4.865 2.938 9.714 3.24 14.85.17 2.947.077 5.297.72 8.074.59 2.567 1.012 5.058 1.512 7.626 1.778 8.974 6.148 18.448 13.562 24.694a59.81 59.81 0 0 0 4.72 3.587c2.354 1.619 4.83 3.067 7.354 4.238 1.92.89 3.971 1.271 6.066 1.408 3.21.21 6.521-.13 9.61-.011.96-.354 1.8-.34 2.771-.58 2.271-.562 4.42-1.567 6.75-2.168 2.487-.645 5.09-.529 7.721-.51 5.59.037 9.699.929 14.619 2.863.393 1.353-.393 1.812-1.58 1.853-1.988.052-5.129-1.078-5.971-1.312-2.658-.721-5.398-.816-8.199-.931-.539-.021-1.068-.04-1.607-.069a17.278 17.278 0 0 0-3.723.229c-.91.147-1.812.353-2.709.578-2.961.763-5.854 1.818-8.898 2.158-4.67.512-10.762 1.028-15.09-.749-4.15-1.7-8.092-3.986-11.592-6.814-3.621-2.93-5.771-6.812-8.221-10.546-5.342-8.113-7.522-17.637-8.541-27.341z" style="fill:none;stroke:#000;stroke-width:3"/>
    <path d="M85.181 152.37c-.541-5.146-1.101-10.403-2.32-15.301-.605-2.447-1.061-4.962-1.688-7.405-.59-2.329-1.81-4.519-2.61-6.875-1.71-5.059-1.66-9.949-.5-15.101 1.05-4.708 2.02-9.504 4.086-13.804.604 1.01-.626 4.957-.912 6.018-.7 2.658-1.64 5.007-1.69 7.895-.05 2.858-.08 5.597.03 8.395.15 3.478.83 6.605 1.67 9.753.46 1.739.96 3.488 1.42 5.298 1.25 4.865 2.938 9.714 3.24 14.85.17 2.947.077 5.297.72 8.074.59 2.567 1.012 5.058 1.512 7.626 1.778 8.974 6.148 18.448 13.562 24.694a59.81 59.81 0 0 0 4.72 3.587c2.354 1.619 4.83 3.067 7.354 4.238 1.92.89 3.971 1.271 6.066 1.408 3.21.21 6.521-.13 9.61-.011.96-.354 1.8-.34 2.771-.58 2.271-.562 4.42-1.567 6.75-2.168 2.487-.645 5.09-.529 7.721-.51 5.59.037 9.699.929 14.619 2.863.393 1.353-.393 1.812-1.58 1.853-1.988.052-5.129-1.078-5.971-1.312-2.604-.706-5.286-.812-8.027-.924l-.172-.007c-.539-.021-1.068-.04-1.607-.069a17.278 17.278 0 0 0-3.723.229c-.91.147-1.812.353-2.709.578-2.961.763-5.854 1.818-8.898 2.158-4.67.512-10.762 1.028-15.09-.749-4.15-1.7-8.092-3.986-11.592-6.814-3.621-2.93-5.771-6.812-8.221-10.546-5.342-8.113-7.522-17.637-8.541-27.341z" style="fill:#fff"/>
    <path d="M1 198.271s.046 3.324 1.382 7.326c.213.646.453 1.291.73 1.938a24.98 24.98 0 0 0 2.971 5.153c1.762 2.359 3.963 4.681 6.603 6.604 5.372 3.923 12.365 6.334 17.904 7.636 5.545 1.303 9.659 1.096 9.659 1.096M128.062 228.022s.707-.064 1.566-.086a34.79 34.79 0 0 0 2.559-.172 31.25 31.25 0 0 0 3.719-.636c2.021-.464 4.271-1.088 6.543-1.991 2.98-1.191 6.01-2.763 8.582-4.763 3.06-2.374 5.479-5.336 7.285-8.216.238-.377.463-.754.683-1.125.341-.602.646-1.188.922-1.771a17.91 17.91 0 0 0 .69-1.664c.154-.432.272-.848.371-1.246.115-.477.213-.938.308-1.386.097-.479.188-.928.271-1.325.101-.468.168-.908.207-1.287.078-.776.112-1.609.112-1.609M.083 54.188h162.334" style="fill:none;stroke:#000;stroke-width:2"/>
    <path d="M80.461 238.44h1.626v1.439h-1.626z"/>
    <path d="m161.851 174.528.01 12.66h-.311c0-.09-5.09-.289-6.199-.399-6.07-.608-12.531-.431-18.801.21-3.08.32-5.73 1.48-8.8 1.79-3.069.312-6.55-.319-9.399-1.04-2.646-.68-5.051-1.619-7.551-2.811-2.359-1.119-5.279-2.109-7.05-4.149-3.39-3.89-6.56-9.22-8.21-13.989-3.811-11.101-8.391-22.17-8.391-34.41 0-6.22.631-13.06-.562-19-.566-2.88-2.25-5.69-2.236-8.6.01-2.84.276-6.31 1.01-8.99.802-2.98 1.539-5.4 1.392-8.61-.17-3.25.8-6.45.358-9.56-.238-1.62-2.648-7.28-.358-8.44 2.13-1.07 4.04 4.05 4.95 5.24 1.75 2.32 3.5 3.85 4.09 6.76.33 1.6.17 3.13.357 4.8.17 1.45.84 2.44 1.451 3.75 1.299 2.81 1.116 6.22 1.76 9.25.642 2.99 2.356 5.63 3.789 8.4 1.381 2.67 2.053 5.23 2.201 8.2.08 1.57-.384 3.2.01 4.59.142.5.369.969.642 1.43l-.05.029c-.79-.305-1.422 4.811-1.66 5.641-.62 2.119-1.45 4.18-2.223 6.25-.709 1.949-1.367 3.851-1.389 5.949-.021 1.985-.08 4.471.776 6.271 1.487 3.11 4.229 5.479 7.021 7.631 2.801 2.181 4.951 5.101 7.83 7.101 1.641 1.129 3.43 2.069 5.104 3.16 1.311.84 2.537 1.779 3.566 2.959 2.41 2.76 4.66 5.646 7.062 8.41 1.01 1.17 2.102 2.58 3.438 3.199 1.068.5 3.211.711 3.858 1.421-.87-1.479-2.778-2.659-4.04-3.819-1.891-1.735-1.947-3.051-2.818-5.221-.33-.811-1.09-1.42-1.932-1.91 1.938.396 4.062.25 6 .51 2.961.4 5.592 1.461 8.398 2.201 2.75.719 5.642 1.539 8.41 2.188 1.526.36 3.012.37 4.602.601.914.129 3.264.09 3.895.347zm-45.721 4.282c2.52 1.25 5.471 2.83 8.26 2.381-1.26-.5-3.34-.791-4.74-1.525-1.34-.7-2.234-2.438-3.06-3.686a28.64 28.64 0 0 1-2.25-4.129c-.739-1.721-1-3.431-1.59-5.146-.75-2.188-1.59-4.67-3.87-5.7a3.86 3.86 0 0 1-.38-.688l.25.629c.04.021.09.041.13.062.32.474.689.894.87 1.438.29.83.31 1.82.399 2.723.188 1.857-.319 3.8-.149 5.648.19 2.146.54 3.472 2.03 4.979 1.199 1.214 2.64 2.294 4.1 3.014zm-12.09-10.231c-1.221-.779-1.57-3.301-1.93-4.729a41.917 41.917 0 0 1-1-5.91c-.391-3.99-1.541-7.562-3.76-11.021-.711-1.102-1.34-1.988-2.17-2.961-.791-.932-2.201-1.42-2.91-2.318l-.41-.142c2.74 1.95 4.129 6.489 5.39 9.399 1.64 3.811 1.86 7.811 2.899 11.74.571 2.141 1.372 5.243 3.891 5.942zm-8.019-80.93.17-1.01c-1.735.81-3.33 3.46-3.871 5.05-.729 2.18-1.709 4.11-2.646 6.27-1.84 4.26 1.99 9.03 2.646 13.42.4 2.65.07 5.2.17 7.57.111 2.6-.444 5.92.361 8.391.18.04.299.109.439.181.391-5.25.949-10.951.54-16.141-.21-2.66-1.351-4.8-1.341-7.58 0-2.63.221-5.2.711-7.7.49-2.511 1.11-6.491 2.821-8.451z" style="fill:#fff"/>
    <path d="M139.34 179.63c-.649-.71-2.79-.921-3.86-1.421-1.34-.619-2.43-2.028-3.438-3.199-2.398-2.771-4.648-5.649-7.062-8.409-1.024-1.181-2.26-2.121-3.564-2.961l.154-.24a61.512 61.512 0 0 0 2.48 1.556c.801.471 1.59.96 2.381 1.431.479.475.979.899 1.521 1.266.8.539 1.68.85 2.6 1.039.842.485 1.602 1.101 1.932 1.906.871 2.172.934 3.479 2.818 5.225 1.258 1.147 3.168 2.326 4.038 3.807z"/>
    <path d="M128.56 167.608c.604.33 1.32.66 1.99 1.065-.92-.188-1.8-.5-2.6-1.034-.54-.361-1.04-.791-1.52-1.266.7.427 1.4.836 2.13 1.235z"/>
    <path d="M122.59 161.749c1.2 1.41 2.41 3.21 3.841 4.631-.791-.471-1.58-.96-2.381-1.431-.85-.5-1.68-1.021-2.48-1.55-2.229-1.49-4.309-3.104-6.396-4.9-2.8-2.398-5.935-4.659-7.76-7.971-1.884-3.398-2.54-7.569-3.108-11.379-.632-4.26-.539-8.84.723-12.84.421-1.32.949-2.65.789-4.146l.142-.524.05-.031c.422.729.922 1.431 1.301 2.188 2.642 5.32 2.642 11.67 4.041 17.4 1.271 5.181 3.68 9.891 6.351 14.646 1.347 2.407 3.187 3.907 4.887 5.907z" style="fill:#fff"/>
    <path d="M124.39 181.188c-2.789.451-5.74-1.129-8.26-2.379-1.46-.726-2.9-1.806-4.1-3.021-1.49-1.51-1.84-2.83-2.03-4.979-.17-1.854.34-3.791.149-5.65-.09-.899-.109-1.891-.399-2.721-.181-.549-.55-.975-.87-1.439 2.28 1.029 3.12 3.511 3.87 5.7.59 1.721.851 3.431 1.59 5.149a29.202 29.202 0 0 0 2.25 4.131c.82 1.234 1.72 2.979 3.06 3.68 1.4.74 3.48 1.029 4.74 1.529zM121.569 163.399l-.159.24c-1.671-1.096-3.46-2.031-5.101-3.16-2.879-2-5.029-4.92-7.83-7.104-2.789-2.146-5.529-4.521-7.021-7.631-.857-1.802-.8-4.279-.777-6.271.021-2.103.68-4 1.389-5.949.771-2.068 1.604-4.131 2.224-6.25.237-.828.87-5.938 1.66-5.644l-.144.53c.16 1.488-.369 2.816-.789 4.141-1.26 4-1.353 8.579-.723 12.842.57 3.812 1.229 7.979 3.11 11.381 1.829 3.312 4.96 5.568 7.76 7.972 2.093 1.804 4.172 3.413 6.401 4.903zM108.88 160.999c-.04-.02-.09-.04-.13-.061l-.25-.629c.101.251.239.48.38.69zM102.11 163.851c.359 1.435.709 3.949 1.93 4.729-2.52-.699-3.32-3.802-3.891-5.938-1.039-3.932-1.26-7.932-2.899-11.74-1.261-2.905-2.649-7.445-5.39-9.396l.41.146c.709.896 2.119 1.391 2.91 2.314.83.975 1.459 1.858 2.17 2.961 2.219 3.461 3.369 7.029 3.76 11.021.209 2.062.52 3.951 1 5.903zM96.19 86.64l-.17 1.01c-1.711 1.96-2.33 5.94-2.82 8.45-.49 2.5-.71 5.07-.71 7.7-.011 2.78 1.13 4.92 1.34 7.58.41 5.19-.149 10.891-.54 16.141-.141-.065-.26-.141-.439-.181-.811-2.47-.25-5.791-.361-8.391-.1-2.37.23-4.92-.17-7.57-.654-4.39-4.484-9.16-2.646-13.42.938-2.16 1.921-4.09 2.646-6.27.54-1.589 2.13-4.24 3.87-5.049z"/>
    <path style="fill:none;stroke:#000;stroke-width:2" d="m161.87 200.81-.01-13.622-.009-12.66-.101-121.339"/>
    <path d="M161.95 174.59c-.02-.021-.061-.04-.1-.062-.631-.26-2.98-.219-3.896-.354-1.591-.229-3.065-.235-4.604-.601-2.771-.649-5.66-1.475-8.41-2.188-2.811-.737-5.438-1.802-8.396-2.198-1.938-.264-4.062-.119-6-.514-.92-.188-1.8-.5-2.604-1.038a10.535 10.535 0 0 1-1.52-1.262c-1.432-1.421-2.641-3.224-3.841-4.631-1.7-2-3.54-3.5-4.899-5.896-2.67-4.764-5.08-9.474-6.351-14.648-1.399-5.729-1.399-12.08-4.04-17.4-.38-.76-.88-1.46-1.301-2.189-.271-.459-.5-.93-.639-1.425-.396-1.39.066-3.02-.013-4.59-.147-2.97-.817-5.53-2.198-8.2-1.435-2.77-3.15-5.41-3.789-8.4-.646-3.03-.461-6.44-1.763-9.25-.608-1.31-1.278-2.3-1.448-3.75-.189-1.67-.029-3.2-.359-4.8-.59-2.91-2.34-4.44-4.09-6.76-.91-1.19-2.82-6.31-4.951-5.24-2.289 1.16.121 6.82.361 8.44.438 3.11-.531 6.31-.361 9.56.15 3.21-.59 5.63-1.389 8.61-.73 2.68-1 6.15-1.012 8.99-.014 2.91 1.671 5.72 2.236 8.6 1.188 5.94.562 12.78.562 19 0 12.237 4.579 23.312 8.391 34.407 1.65 4.771 4.82 10.103 8.211 13.989 1.771 2.04 4.689 3.027 7.05 4.148 2.5 1.188 4.899 2.129 7.551 2.812 2.851.722 6.33 1.353 9.399 1.04 3.068-.312 5.72-1.473 8.8-1.79 6.271-.642 12.729-.817 18.801-.21 1.108.107 6.199.312 6.199.398" style="fill:none;stroke:#000;stroke-width:1.5"/>
    <path d="M36.76 168.897c-.4 3.646-3.08 5.896-6.29 7.47-2.76 1.351-5.38 2.69-8.24 3.84-3.06 1.229-5.84 2.511-7.32 5.62l-.04.521c-.84-.08-1.67-.096-2.5.064-3.75.71-7.4 2.814-11.37 2.814v-7.979h.2c1.64-1.92 7.5-.67 9.96-1.87 2.67-1.312 4.9-2.96 7.7-3.92 3.07-1.062 6.12-1.771 9.49-1.92 2.9-.142 5.72-1.37 7.7-3.688.26-.291.49-.612.71-.952zM57.62 108.958c-.24.72-.06 2.23-.1 3.15-.05 1.01-.5 1.89-.62 2.84-.27 2.19-.7 4.3-.91 6.41-.15 1.56-.53 3.09-.61 4.68-.09 1.68.06 3.311-.1 4.98-.13 1.42-.82 2.709-1.32 4.064-.42 1.13-1.04 2.801-1.93 3.646.29-2.972.05-5.92.48-8.75.49-3.261.43-6.67.93-10.021.45-3.02 1.59-6.26 2.98-9 .36-.73.67-1.42.92-2.11l.28.111z" style="fill:#fff"/>
    <path d="m73.05 76.138-2.93 3.03c-.05.79.17 1.55.08 2.38-.1.85-.23 1.67-.38 2.53-.27 1.62-.59 3.21-1.03 4.76-.16.57-.28 1.15-.39 1.72-.19.94-.36 1.87-.67 2.74-.35.99-1.62 3.01-.88 4.01.92-1.04 1.66-2.16 2.24-3.38 1.31-2.74 2.62-5.729 3.27-8.66.33-1.46.6-3 .68-4.55.07-1.33.36-3.211.01-4.58l.02-.02c-.02-.1.05-.18-.08-.19l.06.21zm-9.72 30.9c-.62 1.03-3.47 7.13-4.92 6.52-1.27-.54 0-3.26.22-4.1.36-1.35.71-3.2 0-4.57l-.26-.04c.15-.97.25-1.98.32-3.08.21-3.14 2.44-5.01 3.42-7.91 1.01-3 .72-6.37 2.89-8.94.96-1.15 2.28-1.86 3.24-2.99 1.02-1.19 1.66-2.77 2.69-3.96 1.13-1.29 2.22-2.18 3.13-3.54.62-.93 1.41-2.61 2.33-3.26.31-.22.25-.33.48-.6 6.891-1.09 1.96 13.01 1.29 15.99-1.29 5.8-4.5 10.71-6.63 16.21-2.54 6.54-1.39 12.64-2.12 19.23-.16 1.45-.23 2.95-.26 4.45h-.04c-3.64 4.539-6.44 9.66-8.06 15.15-.85 2.879-1.89 5.799-2.9 8.639-1 2.841-1.34 5.621-2.44 8.438-.69 1.771-1.26 3.303-2.47 4.883-.79 1.041-3.01 3.17-2.44 4.527 2.24-.96 4.16-4.67 5.11-6.736 1.2-2.609 2.39-5.174 3.46-7.83 1.16-2.871 2.05-5.67 3.41-8.49 1.22-2.528 2.24-5.211 3.71-7.68.99-1.66 1.48-3.33 2.41-5h.22c-.01 3.299-.16 6.549-.95 9.526-.51 1.938-.85 3.96-1.09 6.011-.56 4.713-.64 9.579-1.33 14.143-.48 3.146-1.61 6-2.41 9.182-.7 2.771-1.34 5.591-3.12 8.021-3.81 5.188-10.95 6.815-16.86 7.351-6.79.608-12.98-2.431-19.71-1.101-2.01.391-3.13 1.379-5.4 1.235-.15-.011-.29-.021-.44-.026l.05-.66c-.21-1.879 2.12-1.908 3.36-2.271 1.45-.42 2.85-.855 4.27-1.365 2.93-1.041 5.57-1.74 7.93-3.99 2.41-2.291 4.81-6.631 3.96-9.961l-.24-.148c1.08-1.852 1.83-3.938 3.45-5.512 2.23-2.17 3.73-3.479 5.06-6.538 1.23-2.83 2.19-5.359 3-8.41.46-1.761 1.44-3.29 2.21-4.897l.26.17c.59-1.066 1.59-2.17 2.3-3.051 1.83-2.25 3.43-4.461 4.83-6.972.81-1.449 1.43-2.278 1.6-3.989.16-1.58.19-3.21.49-4.699.31-1.521.46-3 .63-4.55.19-1.67.67-3.27 1.02-4.88.34-1.59.72-3.06 1.19-4.58.26-.84 1.38-3.4.74-4.08-.23.21-.42.46-.59.73z" style="fill:#fff"/>
    <path d="M21.22 183.758c-1.24.359-3.57.39-3.36 2.271l-.05.66c-.98-.09-1.96-.261-2.94-.34l.04-.521c1.48-3.109 4.26-4.392 7.32-5.62 2.86-1.148 5.48-2.489 8.24-3.84 3.21-1.569 5.89-3.819 6.29-7.471.14-.199.26-.399.37-.609h.01l.24.148c.85 3.33-1.55 7.67-3.96 9.961-2.36 2.25-5 2.949-7.93 3.99-1.42.51-2.82.951-4.27 1.371zM73.05 76.138l-.06-.21c.13.01.06.09.08.19l-.02.02zM57.34 108.857c.51-1.34.82-2.63 1.03-4.01l.26.04c.71 1.37.36 3.22 0 4.57-.22.84-1.49 3.56-.22 4.1 1.45.61 4.3-5.49 4.92-6.52.17-.27.36-.52.59-.74.64.68-.48 3.24-.74 4.08-.47 1.52-.85 2.99-1.19 4.58-.35 1.61-.83 3.21-1.02 4.88-.17 1.551-.32 3.03-.63 4.551-.3 1.489-.33 3.119-.49 4.699-.17 1.71-.79 2.54-1.6 3.989-1.4 2.511-3 4.721-4.83 6.971-.71.88-1.71 1.979-2.3 3.05l-.26-.17c.46-.96.85-1.949 1.02-3.029.06-.391.11-.775.15-1.16.89-.851 1.51-2.521 1.93-3.646.5-1.356 1.19-2.646 1.32-4.065.16-1.67.01-3.303.1-4.979.08-1.59.46-3.12.61-4.68.21-2.11.64-4.22.91-6.41.12-.95.57-1.83.62-2.84.04-.92-.14-2.43.1-3.15l-.28-.111z"/>
    <path d="m70.12 79.167 2.93-3.03c.35 1.37.06 3.25-.01 4.58-.08 1.55-.35 3.09-.68 4.55-.65 2.93-1.96 5.92-3.27 8.66-.58 1.22-1.32 2.34-2.24 3.38-.74-1 .53-3.02.88-4.01.31-.87.48-1.8.67-2.74.11-.57.23-1.15.39-1.72.44-1.55.76-3.14 1.03-4.76.15-.86.28-1.68.38-2.53.09-.83-.13-1.589-.08-2.38zM69.11 126.447h.04c-.04 1.96-.01 3.938-.03 5.899h-.22c-.93 1.67-1.42 3.34-2.41 5-1.47 2.471-2.49 5.146-3.71 7.68-1.36 2.82-2.25 5.621-3.41 8.49-1.07 2.655-2.26 5.221-3.46 7.83-.95 2.065-2.87 5.775-5.11 6.735-.57-1.354 1.65-3.485 2.44-4.524 1.21-1.58 1.78-3.11 2.47-4.886 1.1-2.815 1.44-5.601 2.44-8.438 1.01-2.84 2.05-5.76 2.9-8.643 1.62-5.484 4.42-10.603 8.06-15.143z"/>
    <path style="fill:none;stroke:#000;stroke-width:2" d="M1 198.438V53.188"/>
    <path d="M1.2 181.258c1.64-1.92 7.5-.67 9.96-1.87 2.67-1.311 4.9-2.96 7.7-3.92 3.07-1.061 6.12-1.771 9.49-1.92 2.9-.141 5.72-1.37 7.7-3.689.26-.301.49-.615.71-.961.14-.194.26-.396.37-.604h.01c1.08-1.854 1.83-3.938 3.45-5.51 2.23-2.175 3.73-3.479 5.06-6.54 1.23-2.83 2.19-5.359 3-8.41.46-1.766 1.44-3.29 2.21-4.896.46-.961.85-1.948 1.02-3.028.06-.394.11-.78.15-1.16.29-2.972.05-5.92.48-8.75.49-3.26.43-6.67.93-10.021.45-3.02 1.59-6.26 2.98-9 .36-.729.67-1.42.92-2.11.51-1.34.82-2.63 1.03-4.01.15-.97.25-1.98.32-3.08.21-3.14 2.44-5.01 3.42-7.91 1.01-3 .72-6.37 2.89-8.94.96-1.15 2.28-1.86 3.24-2.99 1.02-1.19 1.66-2.77 2.69-3.96 1.13-1.29 2.22-2.18 3.13-3.54.62-.93 1.41-2.61 2.33-3.26.31-.22.25-.33.48-.6 6.89-1.09 1.96 13.01 1.29 15.99-1.29 5.8-4.5 10.71-6.63 16.21-2.54 6.54-1.39 12.64-2.12 19.23-.16 1.45-.23 2.95-.26 4.45-.04 1.96-.01 3.938-.03 5.897-.01 3.302-.16 6.552-.95 9.527-.51 1.938-.85 3.96-1.09 6.014-.56 4.709-.64 9.578-1.33 14.141-.48 3.148-1.61 6-2.41 9.181-.7 2.771-1.34 5.593-3.12 8.021-3.81 5.188-10.95 6.815-16.86 7.351-6.79.61-12.98-2.431-19.71-1.101-2.01.391-3.13 1.381-5.4 1.239-.15-.015-.29-.021-.44-.028-.98-.091-1.96-.261-2.94-.341-.84-.079-1.67-.092-2.5.065-3.75.71-7.4 2.819-11.37 2.819-.15 0-.29 0-.44-.014M79.697 71.493h6.058" style="fill:none;stroke:#000;stroke-width:1.5"/>
    <path d="M73.75 109.478c-.87 1.58-.75 3.31-.82 5.15-.07 1.87-.31 3.64-.12 5.51.37 3.589.58 7.41.59 11.009.01 3.621-1.01 7.211-1.18 10.771-.08 1.829-.33 3.601-.7 5.392-.39 1.879-.92 3.354-.81 5.394.1 2.05-.22 4.471.14 6.526.16.934.59 1.91.79 2.84.21.974.17 2.021.35 3 .13-1.51.36-3.551.36-5.221-.01-1.855-.33-3.681-.15-5.539.19-1.938.2-3.781.37-5.711.16-1.74.93-3.511 1.18-5.271 1.04-7.263 1.36-15.029 1.28-22.61-.01-1.81-1.07-3.479-1.17-5.27-.09-1.61.87-4.5.01-5.85l-.12-.12zm0 50.95c-.18 1.81-.56 3.54-.82 5.271-.2 1.368-.71 3.75-1.97 4.438a10.54 10.54 0 0 1-.61-3.146c-.08-1.854-.46-3.609-.81-5.393-.37-1.857-.13-3.58-.24-5.5-.2-3.58.06-7.647.96-11.104 1.81-6.893 1.84-14.852 1.15-21.932-.35-3.568-.89-7.604.03-11.108.84-3.2 2.96-5.71 4.28-8.76l.14.07c.57-.03.5.83.47 1.41-.1 1.91-.94 3.67-.94 5.62.01 1.81.02 3.83.44 5.5.9 3.64.67 7.87.5 11.603-.18 3.789.59 7.803-.32 11.479-.43 1.71-.9 3.393-1.09 5.146-.19 1.883-1.35 3.343-1.17 5.147.36 3.568.36 7.568 0 11.259z"/>
    <path d="M72.93 114.627c.07-1.84-.05-3.57.82-5.15l.12.12c.86 1.35-.1 4.24-.01 5.85.1 1.79 1.16 3.46 1.17 5.27.08 7.581-.24 15.351-1.28 22.61-.25 1.761-1.02 3.529-1.18 5.271-.17 1.93-.18 3.77-.37 5.709-.18 1.855.14 3.68.15 5.541 0 1.67-.23 3.709-.36 5.219-.18-.979-.14-2.029-.35-3-.2-.935-.63-1.909-.79-2.84-.36-2.062-.04-4.479-.14-6.529-.11-2.04.42-3.51.81-5.391.37-1.789.62-3.562.7-5.395.17-3.562 1.19-7.146 1.18-10.771-.01-3.603-.22-7.42-.59-11.012-.19-1.861.05-3.631.12-5.502z" style="fill:#fff"/>
    <path d="M79.96 138.298c.31 1.43.67 2.811.82 4.33.31 3.311.07 6.71.24 10.069.19 3.84.75 7.03 1.719 10.569.471 1.67.671 3.34 1.181 4.92.36 1.131 1.819 3.931.72 5.021-2.51-1.579-4-4.89-5.04-7.619-1.26-3.33-2.17-6.761-2.66-10.2-.5-3.479-.98-7.101-.85-10.771.07-1.841.85-3.66.94-5.511.05-1.062-.49-4.854 1.05-4.92l.24-.015c1.16.767 1.38 2.906 1.64 4.127zm1.05 24.478c-.49-1.629-.97-3.312-1.05-5.039-.19-3.75-.15-7.721-.7-11.359-.25-1.602.19-3.23-.36-4.811v-.11c-2.37-.449-1.06 8.801-.93 10.069.33 3.371.82 6.801 1.63 10.08.46 1.815.87 4.471 2.469 5.681.871-.88-.739-3.431-1.059-4.511z"/>
    <path d="M79.96 157.737c.08 1.729.56 3.41 1.05 5.039.32 1.08 1.93 3.631 1.059 4.511-1.599-1.21-2.009-3.859-2.469-5.681-.81-3.279-1.3-6.709-1.63-10.08-.13-1.271-1.44-10.521.93-10.069v.11c.55 1.58.11 3.209.36 4.811.55 3.641.51 7.609.7 11.359zM59.67 189.128c.69-.74 1.06-1.609 1.41-2.551.6-1.62 1.44-3.01 2.28-4.59a23.46 23.46 0 0 1 2.91-4.29c1.1-1.3 2.02-2.8 3.56-3.58l.04.069c.71.181.28 2.105.26 2.688-.05 1.021-.36 2.104-.64 3.062-.5 1.631-1.73 2.971-2.63 4.438-.92 1.5-2.22 2.723-3.5 3.92-.7.646-3.24 3.92-4.35 3-.72-.597.23-1.717.66-2.166z" style="fill:#fff"/>
    <path d="M63.25 180.037c0-.39.79-1.239 1.05-1.601.41-.58.75-1.16 1.15-1.739.54-.771 1.19-1.41 1.8-2.13.62-.74 1.19-1.551 2.12-1.881 1.07-.379 1.88 0 2.01 1.121.1.944.05 2.18-.08 3.064-.3 1.979-.71 3.71-1.55 5.562-.75 1.659-2.14 3.17-3.33 4.551-1.21 1.41-2.62 2.699-3.92 4.021-.72.722-1.08 1.29-1.55 2.183-.34.647-.91 1.817-1.77 1.629-1.01-.229-.74-1.656-.74-2.438 0-1.394-.66-1.198-1.81-1.312-.66-.066-2.61-.271-1.83-1.33.52-.719 1.93-.709 2.7-.938 1.64-.5 2.39-2.729 3.14-4.091.46-.852.84-1.729 1.22-2.579.17-.394 1.28-1.841 1.33-2.103l.06.011zm-2.17 6.54c-.35.939-.72 1.811-1.41 2.551-.43.449-1.38 1.569-.66 2.17 1.11.92 3.65-2.351 4.35-3 1.28-1.199 2.58-2.42 3.5-3.92.9-1.471 2.13-2.811 2.63-4.439.28-.961.59-2.041.64-3.061.02-.58.45-2.511-.26-2.689l-.04-.065c-1.54.774-2.46 2.274-3.56 3.58-1.17 1.364-2.08 2.735-2.91 4.287-.84 1.576-1.68 2.966-2.28 4.586zM77.98 195.019c-.82.34-1.54 1.59-2.48 1.604-2.38.04-.29-3.688-.27-4.938.04-4.093-2.76-7.423-2.77-11.74 0-2.079.86-4.147 1.63-5.971.36-.857.58-1.699 1.54-2.039.81-.278 2.11.026 2.32.697l.04-.011c2.38 3.29 2.27 7.606 2.07 11.603-.09 1.812-.75 4.971 0 6.643.44 1 3.759 2.971 1.39 4-.98.42-2.43-.268-3.47.152zm.42-5.831c-.35-3.381.39-6.36.07-9.516-.47-1.904-.09-4.061-1.55-5.574-1.89-1.961-2.19 2.314-2.49 3.52-1.11 4.4 1.23 7.87 2.03 11.99.22 1.1-.51 4.25.15 4.85.59-.439.87-1.279 1.62-1.43.5-.09 1.62.949 1.94.311.21-.401-1.69-3.352-1.77-4.151z"/>
    <path d="M80.17 193.338c-.32.64-1.44-.399-1.94-.312-.75.146-1.03.99-1.62 1.431-.66-.601.07-3.75-.15-4.851-.8-4.119-3.14-7.59-2.03-11.989.3-1.199.6-5.479 2.49-3.521 1.46 1.521 1.08 3.67 1.55 5.575.32 3.149-.42 6.136-.07 9.515.08.801 1.98 3.752 1.77 4.152zM92.94 190.817c-.562-.78-1.5-1.189-2.28-1.729-1.45-1.021-2.771-1.881-3.87-3.341-2.12-2.84-4.27-6.84-3.391-10.479 1.811-.201 3.99 1.67 4.841 3.114.72 1.216 1.53 2.466 2.03 3.78.6 1.525 1.449 2.579 2.188 4.039.553 1.105.852 2.354 1.521 3.396.49.764.938 1.42 1.815 1.803.854.367 2.216-.027 2.646.961-.67.841-1.646.406-2.5.828-.854.422-.59 1.237-1.381 1.812-.521-.396-.619-.933-.799-1.526-.271-.917-.23-1.837-.82-2.658z" style="fill:#fff"/>
    <path d="M96.94 190.537c1.229.729 3.77.801 2.43 2.771-.59.854-1.38.92-2.18 1.271-1.41.63-.801 1-1.621 2.08-1.521 1.988-2.299-2.131-2.67-3.182-1.219-3.479-5.369-4.344-7.42-7.629-.989-1.595-1.719-3.371-2.379-5.08-.58-1.5-1.746-3.895-1.496-5.5.75-4.765 7.285 2.289 8.26 3.84l.077-.051c1.603 2.479 2.578 5.471 3.893 8.102.687 1.367 1.776 2.578 3.106 3.378zm-2.961-.931c-.67-1.049-.974-2.289-1.521-3.399-.738-1.46-1.59-2.51-2.188-4.039-.5-1.319-1.312-2.569-2.031-3.78-.85-1.449-3.029-3.32-4.84-3.119-.879 3.645 1.271 7.645 3.391 10.479 1.1 1.46 2.42 2.319 3.87 3.341.78.54 1.72.949 2.28 1.729.59.82.549 1.74.815 2.66.185.604.279 1.129.804 1.529.791-.57.525-1.391 1.381-1.811.854-.42 1.83.01 2.5-.83-.435-.989-1.791-.59-2.646-.96-.874-.38-1.324-1.039-1.815-1.8z"/>
    <path d="M99.31 228.129s-1.55.021-3.289.319c-.121.021-.229.05-.351.07 0 0-2.021-1.271-5.31-2.23-2.57-.739-5.78-1.398-9-1.43-2.85-.03-5.7.521-8.04 1.199-3.3.961-5.43 2.471-5.43 2.471l-.1.311c-.03-.011-.05-.021-.08-.029-.27-.08-.55-.16-.84-.24-.08-.025-.16-.051-.25-.065-1.03-.26-2.07-.396-2.9-.438h-.05a16.42 16.42 0 0 0-1.23-.051c-.21.012-.41.012-.58.012h-4.45v-.104s3.55-2.62 8.85-4.471c4.52-1.594 10.22-2.96 15.75-2.83 11.604.271 22.379 7.396 22.379 7.396v.09h-.225l-1.75.014-3.104.006z" style="fill:#fff"/>
    <path d="M95.67 228.519c-.42.09-.851.186-1.29.301-.82.209-1.66.479-2.449.812-.541.223-1.08.46-1.601.699-.53.25-1.05.5-1.53.761-.48.263-.93.513-1.34.771-.54.344-1.029.674-1.47 1.029-.66.529-1.25 1.119-1.771 1.729-.32.37-.609.737-.885 1.103a20.366 20.366 0 0 0-2.06 3.461c-.16-.371-.48-1.013-1.09-1.817a19.37 19.37 0 0 0-2.27-2.65 23.39 23.39 0 0 0-3.64-2.97 21.41 21.41 0 0 0-3.34-1.75c-.35-.146-.7-.29-1.05-.421-.72-.271-1.43-.513-2.1-.729l.1-.312s2.13-1.513 5.43-2.474c2.34-.682 5.19-1.229 8.04-1.199 3.22.029 6.43.688 9 1.433 3.295.952 5.316 2.223 5.316 2.223z" style="fill:#00c8ff"/>
    <path style="fill:none;stroke:#000;stroke-width:2" d="m40.16 228.028 16.733-.009h4.71M81.41 239.528s-.03-.131-.13-.354c-.16-.366-.48-1.01-1.09-1.815a19.369 19.369 0 0 0-2.27-2.649 23.224 23.224 0 0 0-3.64-2.971 21.933 21.933 0 0 0-3.34-1.75c-.35-.148-.7-.289-1.05-.421-.72-.271-1.43-.51-2.1-.729-.03-.011-.05-.021-.08-.027-.27-.08-.55-.16-.84-.24a1.692 1.692 0 0 0-.25-.067c-1.03-.26-2.07-.394-2.9-.438h-.05a16.42 16.42 0 0 0-1.23-.051c-.21.012-.41.012-.58.012h-.44"/>
    <path d="m81.13 239.498.15-.319c.27-.59.959-1.96 2.06-3.46.271-.36.56-.729.88-1.101a13.25 13.25 0 0 1 1.77-1.729c.441-.361.936-.69 1.476-1.031.41-.26.854-.51 1.343-.771.479-.261 1-.511 1.527-.761a39.546 39.546 0 0 1 1.604-.699 17.96 17.96 0 0 1 2.445-.812c.438-.119.87-.209 1.29-.299.12-.021.229-.055.354-.07 1.738-.301 3.289-.318 3.289-.318" style="fill:none;stroke:#000;stroke-width:2"/>
    <path style="fill:none;stroke:#000;stroke-width:2" d="M99.06 228.129h.25l3.11-.011 1.75-.01h.22l24.28-.089M95.67 228.519s-2.021-1.271-5.31-2.229c-2.57-.739-5.78-1.398-9-1.432-2.85-.028-5.7.521-8.04 1.201-3.3.959-5.43 2.469-5.43 2.469"/>
    <path d="M57.41 227.919s3.55-2.62 8.85-4.471c4.52-1.59 10.22-2.96 15.75-2.83 11.604.271 22.379 7.4 22.379 7.4" style="fill:none;stroke:#000;stroke-width:2"/>
    <path d="M84.239 87.658c-.199 2.32-.329 4.76-.42 7.06l-.379.05c-.08-.55-.312-1.65-.9-1.57-.68.09-1.73 1.36-2.2 1.99l-.26-.24c.62-2.38 1.04-4.82 1.68-7.23.34-1.26.74-2.33.879-3.7.1-.89.405-2.68 1.121-3.25 1.61 1.02.61 5.33.479 6.89zM23.003 87.24v5.799h-3.12v-.06l3.12-5.739zM23.003 87.24h5.143v16.561h-5.143z"/>
    <path style="fill:#fff" d="m26.66 88.697.02 13.6h-2.31V91.748l-2.43-.02 1.66-3.05 3.06.019z"/>
    <path d="M33.42 96.406c.56-2.216 1.52-3.283 1.98-3.696h6.46s-2.14 1.955-3.05 4.693c-.97 2.88-.71 6.365-.71 6.365h-5.5s.11-4.643.82-7.362z"/>
    <path d="M35.4 92.762h-5.85v-5.664h12.31v5.664H35.4z"/>
    <path d="M34.13 102.308s-.01-3.21.97-5.95c.91-2.55 2.82-4.63 2.82-4.63l-6.79-.02v-3.11h9.04l.01 3.13s-1.82 2.18-2.73 4.75c-.95 2.72-.99 5.83-.99 5.83h-2.33z" style="fill:#fff"/>
    <path d="M129.315 95.468v5.32h-2.269v3.79h-5.32v-3.79h-9.18l-.02-.01 6.64-12.86 5.38.04-2.13 4.3-.69.5v.89l-.9 1.82h.9v-1.82l.69-1.39 4.63-3.36v6.57h2.269z"/>
    <path d="m122.682 92.102-1.144 1.827v-1.17l1.144-.657z"/>
    <path style="fill:#fff" d="M127.796 96.968v2.31h-2.231v-2.3l2.231-.01z"/>
    <path d="M125.565 103.057s.17.031-.459.031c-.5 0-1.67-.021-1.881-.021l-.015-3.913h2.354v3.903h.001z" style="fill:#fff"/>
    <path style="fill:#fff" d="M125.627 96.978v2.3h-2.515l-.009-2.29 2.524-.01z"/>
    <path style="fill:#fff" d="M125.565 91.518v5.666l-2.359.01-.01-3.932 2.369-1.744z"/>
    <path style="fill:#fff" d="m123.206 96.988.01 2.29h-8.26l5.17-9.83h2.13l-3.53 7.55 4.48-.01z"/>
    <path d="M133.3 94.107c-.14.19-.23.36-.32.52-.16.32-.31.58-.379.7l-.041-.01-3.188-2.26v-.07s.357-1.57 1.47-2.94c.171-.2.36-.39.562-.59.74-.69 1.648-1.32 2.611-1.73.447-.19.907-.33 1.357-.41.25-.05.5-.07.75-.08.607 0 1.238.16 1.818.43.521.25 1.029.57 1.512.94.34.27.64.57.898.86.389.45.606.93.76 1.39.342 1.03.312 2.27.312 2.27s.021.41-.067.98a3.51 3.51 0 0 1-.262.89c-.148.34-.359.67-.641.99-.271.3-.58.6-.91.86-.71.59-1.529 1.02-2.107 1.37-.647.41-.541 1.03-.541 1.03h4.5l.01.01.021 5.22-.029.04-11.289-.02c-.01-.16-.067-1.51.183-3.04.157-.96.471-2.01 1.116-2.9.725-.98 1.771-1.79 2.771-2.45.396-.25.803-.45 1.184-.64.58-.29.908-.58 1.102-.8.107-.13.17-.22.198-.29.012-.02.021-.05.052-.09.027-.05.068-.12.102-.18.028-.04.039-.07.039-.09.021-.05.029-.08.029-.08l.021-.02s.029-.07.062-.19c.021-.08.039-.18.052-.29 0-.08 0-.17-.021-.26-.01-.05-.02-.1-.038-.15a1.31 1.31 0 0 0-.229-.42c-.105-.13-.25-.24-.396-.33a1.008 1.008 0 0 0-.659-.12c-.106.02-.229.06-.353.11-.197.09-.41.22-.619.38a5.492 5.492 0 0 0-1.035.988c-.091.12-.181.23-.271.34-.037.043-.067.092-.097.132z"/>
    <path d="M138.979 90.188c.471.63.711 1.43.84 2.11.041.19.07.35.07.48.01.23.021.33.021.33s.021.34-.011.62c-.021.24-.069.54-.16.83-.029.09-.069.18-.109.28-.109.19-.23.38-.391.55-.189.2-.399.39-.619.55-.631.45-1.33.89-1.9 1.35-.33.24-.59.5-.82.77-.799.95-.539 2.69-.539 2.69h4.521v2.31h-8.277s.021-.48.027-.54c-.01-.21.053-.87.223-1.61.119-.45.237-.92.397-1.27.09-.2.188-.38.3-.5.021-.02.03-.04.053-.05.188-.23.438-.44.697-.67.83-.67 1.852-1.32 2.78-2.04.278-.22.55-.45.8-.72.223-.21.398-.39.562-.55.26-.29.396-.63.459-.97.121-.54.07-.96.07-.96s-.029-.7-.42-1.34a2.233 2.233 0 0 0-.5-.56c-.345-.26-.75-.43-1.185-.43-.41.01-.896.15-1.345.37-.35.18-.631.4-.881.62-.58.57-.879 1.11-.938 1.21l-1.479-.92-.029-.03s.22-.81.789-1.39c.24-.26.531-.52.82-.75.26-.21.525-.4.775-.54.37-.2.771-.35 1.188-.45.32-.07.644-.11.974-.12.34-.01.659.03.989.08.287.04.566.15.857.28.278.13.528.28.778.43.01 0 .021.01.021.02.253.13.432.32.592.53z" style="fill:#fff"/>
</svg>
