<svg xmlns="http://www.w3.org/2000/svg" xml:space="preserve" viewBox="30.5 31.5 400 500" height="500" width="400">
    <path d="M230.56 531.14c74.32-53.92 125.26-122.02 155.74-208.16 27.64-78.1 38.73-172.75 33.91-289.35l-.02-.46H40.37l-.02.46c-4.81 116.6 6.28 211.24 33.91 289.35 30.48 86.14 81.42 154.24 155.74 208.16l.28.2.28-.2z" fill="#0085ca"/>
    <path d="m291.1 478.5-60.6-292.36-60.6 292.36c17.05 17.91 38.44 36.21 60.6 52.39 22.16-16.19 43.55-34.49 60.6-52.39z" style="fill-rule:evenodd;fill:#fff"/>
    <path d="M39.5 103.63 231 187.35 107.5 32.75H40.65c-.83 23.54-1.35 47.14-1.15 70.88z" style="fill-rule:evenodd;fill:#fff"/>
    <path d="M421.5 103.63 230 187.35l123.5-154.6h66.85c.83 23.54 1.35 47.14 1.15 70.88z" style="fill-rule:evenodd;fill:#fff"/>
    <path d="M41.04 33.21C31.97 252.66 77.3 419.16 230.5 530.31c153.19-111.15 198.51-277.65 189.44-497.1H41.04m-.92-.95H420.86l.04.92c4.82 116.66-6.28 211.36-33.93 289.52-30.51 86.24-81.51 154.41-155.91 208.39l-.56.41-.56-.41c-74.4-53.98-125.4-122.15-155.91-208.39C46.38 244.54 35.28 149.84 40.1 33.18l.04-.92z"/>
    <path d="m291.1 478.12-60.6-291.98-60.6 292.36" style="fill:none;stroke-linejoin:bevel;stroke:#000"/>
    <path d="M39.5 103.63 231 187.35 107.5 32.75" style="fill:none;stroke-linejoin:bevel;stroke:#000"/>
    <path d="M421.5 103.63 230 187.35l123.5-154.6" style="fill:none;stroke-linejoin:bevel;stroke:#000"/>
</svg>
