<svg xmlns="http://www.w3.org/2000/svg" xml:space="preserve" viewBox="30.5 31.5 400 500" height="500" width="400">
    <path d="M230.67 530.86C156.35 476.94 105.41 408.84 74.93 322.7 47.29 244.6 36.2 149.95 41.02 33.35l.02-.46h379.82l.02.46c4.81 116.6-6.28 211.24-33.91 289.35-30.48 86.14-81.42 154.24-155.74 208.16l-.28.2-.28-.2z" style="fill:#0085ca;fill-opacity:1"/>
    <path d="m278.41 491.3.09-83.479c0-4.466 5.5-4.466 5.5-11.09V201.896c0-5.197-5.124-5.438-5.064-11.243.041-4.016.996-6.076 3.85-10.628 4.944-7.884 13.734-16.193 26.338-16.48 17.389-.396 25.656 8.829 31.882 16.48h56.988c-7.444-7.752-36.285-9.828-40.816-14.016-12.176-11.255-26.058-23.228-55.293-22.64-19.888.399-28.88 4.557-36.811 13.553-.14-19.15-2.386-26.286-6.469-35.27-3.907-8.598-12.39-14.94-18.105-14.94 7.603 23.164 4.288 35.677 3.781 49.141-.351 10.252-3.781 24.172-3.781 35.262v205.618c0 6.623 5.5 6.623 5.5 11.09v111.202" style="fill:none;fill-opacity:1;fill-rule:evenodd;stroke:#000;stroke-width:1px;stroke-linecap:butt;stroke-linejoin:round;stroke-opacity:1"/>
    <path style="fill:#ffe000;fill-opacity:1;fill-rule:evenodd;stroke:#000;stroke-width:1px;stroke-linecap:butt;stroke-linejoin:round;stroke-opacity:1" d="M278.5 407.821c0-4.466 5.5-4.466 5.5-11.09V201.896c0-5.197-5.124-5.438-5.064-11.243.041-4.016.996-6.076 3.85-10.628 4.944-7.884 13.734-16.193 26.338-16.48 17.389-.396 25.656 8.829 31.882 16.48h56.988c-7.444-7.752-36.285-9.828-40.816-14.016-12.176-11.255-26.058-23.228-55.293-22.64-19.888.399-28.88 4.557-36.811 13.553-.14-19.15-2.386-26.286-6.469-35.27-3.907-8.598-12.39-14.94-18.105-14.94 7.603 23.164 4.288 35.677 3.781 49.141-.351 10.252-3.781 24.172-3.781 35.262v205.618c0 6.623 5.5 6.623 5.5 11.09v111.202c11.05-8.377 21.861-17.704 32.41-27.723z"/>
    <path style="fill:#ffe000;fill-opacity:1;fill-rule:evenodd;stroke:none;stroke-width:1px;stroke-linecap:butt;stroke-linejoin:round;stroke-opacity:1" d="M182.5 407.821c0-4.466-5.5-4.466-5.5-11.09V201.896c0-5.197 5.124-5.438 5.064-11.243-.041-4.016-.996-6.076-3.85-10.628-4.944-7.884-13.734-16.193-26.338-16.48-17.389-.396-25.656 8.829-31.882 16.48H63.006c7.444-7.752 36.285-9.828 40.816-14.016 12.176-11.255 26.058-23.228 55.293-22.64 19.888.399 28.88 4.557 36.811 13.553.14-19.15 2.386-26.286 6.469-35.27 3.907-8.598 12.39-14.94 18.105-14.94-7.603 23.164-4.288 35.677-3.781 49.141.351 10.252 3.781 24.172 3.781 35.262v205.618c0 6.623-5.5 6.623-5.5 11.09v111.202c-11.05-8.377-21.861-17.704-32.41-27.723z"/>
    <path d="M419.96 33.21c9.07 219.45-36.26 385.95-189.46 497.1C77.31 419.16 31.99 252.66 41.06 33.21h378.9m.92-.95H40.14l-.04.92c-4.82 116.66 6.28 211.36 33.93 289.52 30.51 86.24 81.51 154.41 155.91 208.39l.56.41.56-.41c74.4-53.98 125.4-122.15 155.91-208.39 27.65-78.16 38.75-172.86 33.93-289.52l-.04-.92z"/>
    <path d="m182.59 491.3-.09-83.479c0-4.466-5.5-4.466-5.5-11.09V201.896c0-5.197 5.124-5.438 5.064-11.243-.041-4.016-.996-6.076-3.85-10.628-4.944-7.884-13.734-16.193-26.338-16.48-17.389-.396-25.656 8.829-31.882 16.48H63.006c7.444-7.752 36.285-9.828 40.816-14.016 12.176-11.255 26.058-23.228 55.293-22.64 19.888.399 28.88 4.557 36.811 13.553.14-19.15 2.386-26.286 6.469-35.27 3.907-8.598 12.39-14.94 18.105-14.94-7.603 23.164-4.288 35.677-3.781 49.141.351 10.252 3.781 24.172 3.781 35.262v205.618c0 6.623-5.5 6.623-5.5 11.09v111.202" style="fill:none;fill-rule:evenodd;stroke:#000;stroke-width:1px;stroke-linecap:butt;stroke-linejoin:round;stroke-opacity:1"/>
</svg>
