<svg xmlns="http://www.w3.org/2000/svg" xml:space="preserve" viewBox="30.5 31.5 400 500" height="500" width="400">
    <path d="M230.33 530.86c74.32-53.92 125.26-122.02 155.74-208.16 27.64-78.1 38.73-172.75 33.91-289.35l-.02-.46H40.14l-.02.46c-4.81 116.6 6.28 211.24 33.91 289.35 30.48 86.14 81.42 154.24 155.74 208.16l.28.2.28-.2z" style="fill:#0085ca;fill-opacity:1"/>
    <path d="M41.04 33.21C31.97 252.66 77.3 419.16 230.5 530.31c153.19-111.15 198.51-277.65 189.44-497.1H41.04m-.92-.95H420.86l.04.92c4.82 116.66-6.28 211.36-33.93 289.52-30.51 86.24-81.51 154.41-155.91 208.39l-.56.41-.56-.41c-74.4-53.98-125.4-122.15-155.91-208.39C46.38 244.54 35.28 149.84 40.1 33.18l.04-.92z"/>
    <path style="fill:#ffe000;fill-opacity:1;stroke:#000;stroke-width:1;stroke-miterlimit:4;stroke-dasharray:none;stroke-opacity:1" d="M122.26 226.677c-12.7-10.135-15.933-24.217-19.554-19.19-7.901 12.223-13.6 29.954-14.871 35.814-1.077 5.488 17.425 20.01 21.242 29.127 1.174 2.884-3.373 4.075-10.124 4.717-4.78.454 3.437 16.84 9.511 17.85 11.01 1.83 20.194 1.31 20.194 1.31 26.031 31.721 53.514 67.583 54.101 68.699 2.251 3.907-4.893 4.744-11.939 5.302-2.838.186-.587 13.767 4.208 14.046 5.774.28 16.637 1.582 27.988 3.163 4.306.558 17.609 21.817 34.147 42.19 11.352 14.046 10.667 24.65 18.203 22.231 7.926-2.604 3.178-10.876 23.73-34.97 5.186-6.139 6.303-8.004-5.831-24.469-3.523-4.744-.98-14.046 1.467-19.906.196-4.186-11.743-12.93-13.21-11.442-3.426 4.651-5.48 12.279-10.276 9.395-12.526-8-40.705-44.736-46.914-54.755-1.228-1.981-.623-23.513-2.287-24.816-3.816-3.07-13.239-14.518-14.022-10.61-1.174 5.86-2.46 14.055-6.661 11.546-11.993-7.163-37.315-34.5-36.671-41.885.242-2.781-1.37-21.637-3.466-24-2.43-2.737-14.335-15.626-15.215-12.556-1.762 6.046-.032 14.697-3.653 13.21zM88.646 76.738c-8.093 14.743-20.577 20.993-15.278 24.937 27.653 27.044 50.037 44.012 59.865 59.6 2.505 3.943-9.64 10.891-13.976 12.863-2.505 1.127 8.69 16.712 13.122 15.585 4.818-1.315 19.083-5.24 21.781-3.362 14.357 13.24 38.133 43.845 42.373 48.353 14.742 15.775 37.066 44.758 40.246 49.547 3.662 5.446-1.349 5.822-8.768 9.014-3.372 1.409 3.552 8.03 9.719 13.477 2.312 2.066 20.083-5.007 29.948 2.618 5.974 4.601 23.855 32.997 42.355 58.351 4.143 5.728 11.658 6.386 13.104.94 8.19-20.284 13.007-37.178 21.968-44.878 2.698-2.253.193-5.164-.77-6.385-6.745-8.733-13.846-18.785-16.544-24.043-2.409-4.883-2.602-7.888-1.83-18.124.385-4.507-13.239-14.243-14.684-11.05-1.638 3.568-2.601 9.39-3.372 12.02-1.156 3.943-20.379-11.386-31.379-23.109-15.786-16.823-26.923-34.793-28.368-36.483-2.313-2.724-2.1-6.119.598-17.481.675-2.817-12.659-14.18-14.297-10.893-2.89 6.198-3.854 11.174-6.166 9.672-11.08-9.109-39.805-41.689-58.209-66.198-4.625-6.291-4.008-15.092-2.755-21.383.578-2.911-11.403-14.77-11.981-12.516-.193.658-3.547 11.928-5.878 9.954-13.125-11.113-44.205-58.889-49.504-52.128-5.3 6.761-6.888 13.214-11.32 21.102ZM216.744 113.262c2.821-1.69-3.845-8.578-8.143-13.526-2.846-3.276 4.787-12.942 6.882-20.748 2.404-8.956 6.68-18.46 9.173-21.991 3.386-4.884 6.947 9.36 15.129 11.144 2.633.564 3.855-4.038 5.172-9.39 1.07-4.3 6.543-1.89 10.818 4.753 2.813 4.373 6.182 7.348 5.644 9.731-1.881 9.767-4.115 13.391-.918 17.43 13.543 16.809 32.588 43.195 37.87 45.075 6.54 2.327 8.835-2.902 10.198-12.25.754-5.174 15.894 12.997 14.647 17.333-2.445 8.499-8.669 9.657-2.107 16.524 1.41 1.314 25.898 36.5 33.892 42.98 1.787 1.408 9.454-4.831 10.112-10.184.282-2.723 12.911 5.65 12.817 10.064-.376 21.693 1.393 21.253 6.847 32.146-6.916 14.053-9.684 36.822-18.56 51.436-3.762 3.193-5.693.571-7.43-2.442-12.927-22.426-38.258-58.371-50.515-61.108-4.043-.902-11.395 1.352-15.062 2.48-3.563 2.057-18.372-11.722-15.312-13.464 6.678-3.76 13.72-12.85 9.434-21.393-24.075-32.304-40.205-48.166-44.343-51.734-5.266-4.696-17.548-2.582-23.002-1.548-1.975.375-18.11-11.254-14.301-13.775 3.809-2.52 7.014-5.101 11.058-7.543z"/>
</svg>
