<svg xmlns="http://www.w3.org/2000/svg" xml:space="preserve" viewBox="30.5 31.5 400 500" height="500" width="400">
    <path d="M230.44 531.14C156.12 477.22 105.18 409.12 74.7 322.98c-27.64-78.1-38.73-172.75-33.91-289.35l.02-.46h379.82l.02.46c4.81 116.6-6.28 211.24-33.91 289.35-30.48 86.14-81.42 154.24-155.74 208.16l-.28.2-.28-.2z" fill="#0085ca"/>
    <path d="m353.14 285.81 44.86-.31c8.4-30.22 14.23-62.86 18-96.23-64.45-18.7-114.4-23.77-185.5-23.77S109.45 170.57 45 189.27c3.77 33.37 9.6 66.01 18 96.23l44.86.31c25.61-49.22 70.01-70.52 122.64-70.52 52.63 0 97.03 21.3 122.64 70.52z" style="fill-rule:evenodd;fill:#ffe000"/>
    <path d="M419.96 33.21c9.07 219.45-36.26 385.95-189.46 497.1C77.31 419.16 31.99 252.66 41.06 33.21h378.9m.92-.95H40.14l-.04.92c-4.82 116.66 6.28 211.36 33.93 289.52 30.51 86.24 81.51 154.41 155.91 208.39l.56.41.56-.41c74.4-53.98 125.4-122.15 155.91-208.39 27.65-78.16 38.75-172.86 33.93-289.52l-.04-.92z"/>
    <path d="m63 285.5 44.86.31c25.61-49.22 70.01-70.52 122.64-70.52 52.63 0 97.03 21.3 122.64 70.52l44.86-.31m18-96.23c-64.45-18.7-114.4-23.77-185.5-23.77S109.45 170.57 45 189.27" style="fill:none;stroke:#000"/>
</svg>
