<svg xmlns="http://www.w3.org/2000/svg" xml:space="preserve" viewBox="30.5 31.5 400 500" height="500" width="400">
    <path d="M230.45 531.13c-74.32-53.92-125.26-122.02-155.74-208.16-27.64-78.1-38.73-172.75-33.91-289.35l.02-.46h379.82l.02.46c4.81 116.6-6.28 211.24-33.91 289.35-30.48 86.14-81.42 154.24-155.74 208.16l-.28.2-.28-.2z" style="fill:#32ac60;fill-opacity:1"/>
    <path d="M328.653 433.5c8.915-11.95 17.367-25.291 25.696-39-48.19-18.978-90.981-45.835-123.849-87-32.868 41.165-75.659 68.022-123.85 87 8.33 13.709 16.782 27.05 25.697 39 32.882-12.313 75.871-39 98.153-64 22.282 25 65.27 51.687 98.153 64zM61.21 278.5c-3.442-14.017-6.884-29.44-10.327-47 81.22-42 140.17-106 179.617-198 39.447 92 98.397 156 179.617 198-3.443 17.56-6.885 32.983-10.328 47-69.62-31.928-130.649-79.498-169.289-153-38.64 73.502-99.67 121.072-169.29 153Z" style="fill:#fff;fill-rule:evenodd;stroke:none;stroke-width:1px;stroke-linecap:butt;stroke-linejoin:miter;stroke-opacity:1"/>
    <path style="fill:#fff;fill-rule:evenodd;stroke:none;stroke-width:1px;stroke-linecap:butt;stroke-linejoin:miter;stroke-opacity:1" d="M90.042 361.5c-5.863-13.203-11.726-27.518-17.589-44.254C135.726 292.039 192.706 245.55 230.5 189.5c37.794 56.05 94.774 102.538 158.047 127.746-5.863 16.736-11.726 31.051-17.589 44.254-63.747-26.634-103.718-56.817-140.458-107-36.74 50.183-76.711 80.366-140.458 107z"/>
    <path d="M399.79 278.5c-69.62-31.928-130.65-79.498-169.29-153-38.64 73.502-99.67 121.072-169.29 153m-10.327-47c81.22-42 140.17-106 179.617-198 39.447 92 98.397 156 179.617 198" style="fill:none;fill-rule:evenodd;stroke:#000;stroke-width:1px;stroke-linecap:butt;stroke-linejoin:miter;stroke-opacity:1"/>
    <path d="M419.96 33.21c9.07 219.45-36.25 385.95-189.45 497.1C146.04 469.02 94.36 390.9 66.52 296.34a557.24 557.24 0 0 1-5.87-21.54c-11.45-45.69-17.77-95.02-19.88-147.94-1.2-30.06-1.05-61.28.29-93.65h378.9m.92-.95H40.14l-.04.92c-4.82 116.66 6.28 211.36 33.93 289.52 30.51 86.24 81.51 154.41 155.91 208.39l.56.41.56-.41c74.4-53.98 125.4-122.15 155.91-208.39 27.65-78.16 38.75-172.86 33.93-289.52l-.04-.92z"/>
    <path d="M370.958 361.5c-63.747-26.634-103.718-56.817-140.458-107-36.74 50.183-76.711 80.366-140.458 107m-17.589-44.254C135.726 292.039 192.706 245.55 230.5 189.5c37.794 56.05 94.774 102.538 158.047 127.746" style="fill:none;fill-rule:evenodd;stroke:#000;stroke-width:1px;stroke-linecap:butt;stroke-linejoin:miter;stroke-opacity:1"/>
    <path style="fill:none;fill-rule:evenodd;stroke:#000;stroke-width:1px;stroke-linecap:butt;stroke-linejoin:miter;stroke-opacity:1" d="M354.35 394.5c-48.191-18.978-90.982-45.835-123.85-87-32.868 41.165-75.659 68.022-123.85 87m25.697 39c32.882-12.313 75.871-39 98.153-64 22.282 25 65.27 51.687 98.153 64"/>
</svg>
