<svg xmlns="http://www.w3.org/2000/svg" width="400" height="500" viewBox="30.5 31.5 400 500" xml:space="preserve">
    <path d="M230.44 531.14C156.12 477.22 105.18 409.12 74.7 322.98c-27.64-78.1-38.73-172.75-33.91-289.35l.02-.46h379.82l.02.46c4.81 116.6-6.28 211.24-33.91 289.35-30.48 86.14-81.42 154.24-155.74 208.16l-.28.2-.28-.2z" fill="#fff"/>
    <path d="M419.96 33.21c9.07 219.45-36.26 385.95-189.46 497.1C77.31 419.16 31.99 252.66 41.06 33.21h378.9m.92-.95H40.14l-.04.92c-4.82 116.66 6.28 211.36 33.93 289.52 30.51 86.24 81.51 154.41 155.91 208.39l.56.41.56-.41c74.4-53.98 125.4-122.15 155.91-208.39 27.65-78.16 38.75-172.86 33.93-289.52l-.04-.92z"/>
    <path d="M195.67 456.58c-10.72-10.8-13.2-38.58-9.22-60.17-2.4 0-11.52 7.79-14.7 14.55-7.38 15.65-.99 24.99 6.56 37.69-22.21-14.1-24.51-27.81-25.51-50.86-1.52-34.91 16.94-65 38.66-87.83-4.52-2.23-11.54-1.86-18.15.82 2-7.78 12.33-18.15 25.23-20.68-2.43-1.77-8.68-3-13.09-2.65 2.45-5.63 10.76-9.2 26.04-10.15-1.27-1.84-5.48-4.29-5.93-8.13l11.52.73c23.51 1.49 29.41-6.7 37.21-13.65 8.79-7.83 11.1-23.8 8.07-34.94-4.27-15.69-9.73-19.29-36.06-26.35-15.76-4.23-30.72-13.03-41.64-20.89-31.68-23.06-52.23-32.52-73.46-37.09-6.52-1.4-19.82-2.25-34.27.87-.03-6.08 9.24-14.35 15.42-15.12 22.17-2.76 47.32 2.99 61.07 6.87 25.82 7.29 46.5 14.68 46.5 14.68-1.57-7.91-12.5-17.14-20.23-20.76-22.35-10.48-40.39-16.74-67.66-12.08-16.26 2.78-23.65-.66-25.27-5.55-1.35-4.08.75-9.13 7.92-10.12-1.51 7.68 5.28 8.69 10.83 7.95 30.39-4 60.32 3.55 92.9 19.39-2.81-8.34-36.1-23.71-51.14-28.81-15.76-5.34-35.7-10.28-46.89-11.68-14.41-1.8-23.85 5.48-27.22 13.75-5.81-20.58 10.53-34.83 25.64-34.6 16.71.26 27.41 7.03 56.17 18.42 7.03 2.79 14.42 4.78 21.94 6.54l8.05-4.05c34.69-17.44 92.47-7.31 140.26 13.89 17.93 7.95 37.09 24 50.62 47.02 8.5 14.46 12.75 23 12.86 33.68 0 0-3.09-2.99-8.64-4.73 7.23 11.04 7.54 20.19 6.16 25.71-1.97-2.82-3.52-8.85-9.5-10.61 2.59 5.73 4.69 21.22 1.58 25.56-.94-3.57-5-10.82-8.49-11.8-.02 15.07 1.51 29.88-2.37 40.88-6.12 17.32-10.87 25.44-32.43 55.54-20.97 29.26-31.07 41.61-34.51 57.91-8.58 40.59 7 46.61 2.97 63.55-2.69 11.29-12.7 14.85-24.22 12.58 11.61-9.56 9-27.49-6.28-32.91-3.99 10.33-6.74 20.21-13.07 28.37-9.11 11.74-20.19 21.66-33.56 21.71 8.4-9.16 13.05-17.77 13.09-26.06.02-5.33-4.54-21.09-10.05-22.35-3.22-.73-16.15 13.16-20.94 22.22-6.74 12.75-10.53 25.5 10.19 44.09-10.65-1.13-17.95-5.34-22.94-10.37zm64.41-264.08c5.1-2.99 11.91-12.91 13-19.64 3.38-20.82 1.33-46.05-17.06-55.53-10.69-5.51-19.18-4.58-28.16 2.06-9.72 7.07-10.28 6.9-3.95 18.82 5.13 9.66 4.62 13.53 2.42 19.63-3.88 10.75-16.84 13.19-25.41 19.03 1.44 3.03 9.53 6.98 16.28 9.49 22.39 8.31 33.61 11.56 42.87 6.13z"/>
    <circle cx="215.9" cy="106.76" r="8.04" fill="#fff"/>
    <circle r="5.26" cy="106.76" cx="215.9"/>
</svg>
