<svg xmlns="http://www.w3.org/2000/svg" xml:space="preserve" viewBox="30.5 31.5 400 500" height="500" width="400">
    <path style="fill:#0085ca;fill-opacity:1" d="M230.44 531.14C156.12 477.22 105.18 409.12 74.7 322.98c-27.64-78.1-38.73-172.75-33.91-289.35l.02-.46h379.82l.02.46c4.81 116.6-6.28 211.24-33.91 289.35-30.48 86.14-81.42 154.24-155.74 208.16l-.28.2-.28-.2z"/>
    <path d="M419.96 33.21c9.07 219.45-36.26 385.95-189.46 497.1C77.31 419.16 31.99 252.66 41.06 33.21h378.9m.92-.95H40.14l-.04.92c-4.82 116.66 6.28 211.36 33.93 289.52 30.51 86.24 81.51 154.41 155.91 208.39l.56.41.56-.41c74.4-53.98 125.4-122.15 155.91-208.39 27.65-78.16 38.75-172.86 33.93-289.52l-.04-.92z"/>
    <path d="M292.018 110.106c-1.002-10.078-1.993-18.445-3.518-30.606-.304-2.422 24.08 8.93 24.542 11.869 3.519 22.356 6.599 45.61 9.197 68.554 4.183 36.945 5.026 73.798.593 110.577h9.857c2.193-15.088 9.27-34.168 15.941-40.958 2.678-2.726 8.209.6 6.854 3.62-6.166 13.744-11.09 26.429-11.09 43.741 0 17.313 4.924 29.998 11.09 43.742 1.355 3.02-4.176 6.345-6.854 3.62-6.67-6.79-14.632-27.677-16.824-42.765h-10.521c-5.1 26.13-19.06 60.706-41.328 89.293-7.153 9.184-15.657 18.453-24.812 26.888-1.337 1.233-14.233-8.282-13.4-9.848 6.368-10.208 12.697-22.192 17.24-31.477 12.217-24.968 20.936-52.149 27.016-74.856H175c6.08 22.707 14.8 49.888 27.016 74.856 4.543 9.285 10.872 21.269 17.24 31.477.833 1.566-12.063 11.08-13.4 9.848-9.155-8.435-17.659-17.704-24.812-26.888-22.269-28.587-36.228-63.164-41.328-89.293H128.5v14c0 1.696-12 1.696-12 0v-40c0-1.696 12-1.696 12 0v14h9.668c-4.433-36.78-3.59-72.632.593-109.577 2.598-22.944 5.678-46.198 9.197-68.554.462-2.939 24.846-14.29 24.542-11.869-1.525 12.16-2.516 20.528-3.518 30.606-5.41 54.387-5.608 104.944 3.518 159.394h116c9.126-54.45 8.928-105.007 3.518-159.394z" style="fill:#ffe000;fill-opacity:1;fill-rule:evenodd;stroke:#000;stroke-width:1px;stroke-linecap:butt;stroke-linejoin:round;stroke-opacity:1"/>
</svg>
