<svg xmlns="http://www.w3.org/2000/svg" xml:space="preserve" viewBox="30.5 31.5 400 500" height="500" width="400">
    <path d="M230.44 531.14C156.12 477.22 105.18 409.12 74.7 322.98c-27.64-78.1-38.73-172.75-33.91-289.35l.02-.46h379.82l.02.46c4.81 116.6-6.28 211.24-33.91 289.35-30.48 86.14-81.42 154.24-155.74 208.16l-.28.2-.28-.2z" style="fill:#ffe000;fill-opacity:1"/>
    <path style="fill:#000;fill-opacity:1;fill-rule:evenodd;stroke:#000;stroke-width:1px;stroke-linecap:butt;stroke-linejoin:round;stroke-opacity:1" d="M286.558 321.03V179.5H281.5v-16h5.058v-4.348c-30.405-6.077-41.688-29.91-41.917-43.685-.45-27.035 25.892-41.446 41.917-43.565v-4.316h16.884v4.316c16.025 2.119 42.367 16.53 41.917 43.565-.229 13.774-11.512 37.608-41.917 43.685v4.348h5.058v16h-5.058v97h9.058v-15h23v15h8.516v-15h6.89v60h-6.89v-13H335.5v13h-23v-13h-9.058v12.53z"/>
    <path d="M419.96 33.21c9.07 219.45-36.26 385.95-189.46 497.1C77.31 419.16 31.99 252.66 41.06 33.21h378.9m.92-.95H40.14l-.04.92c-4.82 116.66 6.28 211.36 33.93 289.52 30.51 86.24 81.51 154.41 155.91 208.39l.56.41.56-.41c74.4-53.98 125.4-122.15 155.91-208.39 27.65-78.16 38.75-172.86 33.93-289.52l-.04-.92z"/>
    <path style="fill:#000;fill-opacity:1;fill-rule:evenodd;stroke:#000;stroke-width:1px;stroke-linecap:butt;stroke-linejoin:round;stroke-opacity:1" d="M126.558 321.03V179.5H121.5v-16h5.058v-4.348c-30.405-6.077-41.688-29.91-41.917-43.685-.45-27.035 25.892-41.446 41.917-43.565v-4.316h16.884v4.316c16.025 2.119 42.367 16.53 41.917 43.565-.229 13.774-11.512 37.608-41.917 43.685v4.348h5.058v16h-5.058v97h9.058v-15h23v15h8.516v-15h6.89v60h-6.89v-13H175.5v13h-23v-13h-9.058v12.53z"/>
    <ellipse ry="32.526" rx="34.693" style="opacity:1;fill:#ffe000;fill-opacity:1;fill-rule:evenodd;stroke:#000;stroke-width:.99658787;stroke-linecap:round;stroke-linejoin:round;stroke-miterlimit:4;stroke-dasharray:none;stroke-opacity:1" cx="135" cy="115.511"/>
    <path style="fill:none;fill-rule:evenodd;stroke:#ffe000;stroke-width:3;stroke-linecap:butt;stroke-linejoin:miter;stroke-miterlimit:4;stroke-dasharray:none;stroke-opacity:1" d="M120.359 171.5h29.508"/>
    <path style="fill:none;fill-rule:evenodd;stroke:#000;stroke-width:8;stroke-linecap:butt;stroke-linejoin:miter;stroke-miterlimit:4;stroke-dasharray:none;stroke-opacity:1" d="M135 81.99v67.384"/>
    <path d="M169.804 115.467h-69.608" style="fill:none;fill-rule:evenodd;stroke:#000;stroke-width:8.23665524;stroke-linecap:butt;stroke-linejoin:miter;stroke-miterlimit:4;stroke-dasharray:none;stroke-opacity:1"/>
    <path style="fill:none;fill-rule:evenodd;stroke:#ffe000;stroke-width:10;stroke-linecap:butt;stroke-linejoin:miter;stroke-miterlimit:4;stroke-dasharray:none;stroke-opacity:1" d="M144.013 292.5h39.69M164 270v43"/>
    <path d="M212.558 411.03V269.5H207.5v-16h5.058v-4.348c-30.405-6.077-41.688-29.91-41.917-43.685-.45-27.035 25.892-41.446 41.917-43.565v-4.316h16.884v4.316c16.025 2.119 42.367 16.53 41.917 43.565-.229 13.774-11.512 37.608-41.917 43.685v4.348h5.058v16h-5.058v97h9.058v-15h23v15h8.516v-15h6.89v60h-6.89v-13H261.5v13h-23v-13h-9.058v12.53z" style="fill:#000;fill-opacity:1;fill-rule:evenodd;stroke:#000;stroke-width:1px;stroke-linecap:butt;stroke-linejoin:round;stroke-opacity:1"/>
    <path style="opacity:1;fill:#000;fill-opacity:1;fill-rule:evenodd;stroke:none;stroke-width:2;stroke-linecap:butt;stroke-linejoin:miter;stroke-miterlimit:4;stroke-dasharray:none;stroke-opacity:1" d="M126.558 142.79h16.884v5.891h-16.884zM126.558 81.504h16.884v5.891h-16.884z"/>
    <ellipse cy="205.511" cx="221" style="opacity:1;fill:#ffe000;fill-opacity:1;fill-rule:evenodd;stroke:#000;stroke-width:.99658787;stroke-linecap:round;stroke-linejoin:round;stroke-miterlimit:4;stroke-dasharray:none;stroke-opacity:1" rx="34.693" ry="32.526"/>
    <path d="M206.359 261.5h29.508" style="fill:none;fill-rule:evenodd;stroke:#ffe000;stroke-width:3;stroke-linecap:butt;stroke-linejoin:miter;stroke-miterlimit:4;stroke-dasharray:none;stroke-opacity:1"/>
    <path d="M221 171.99v67.384" style="fill:none;fill-rule:evenodd;stroke:#000;stroke-width:8;stroke-linecap:butt;stroke-linejoin:miter;stroke-miterlimit:4;stroke-dasharray:none;stroke-opacity:1"/>
    <path style="fill:none;fill-rule:evenodd;stroke:#000;stroke-width:8.23665524;stroke-linecap:butt;stroke-linejoin:miter;stroke-miterlimit:4;stroke-dasharray:none;stroke-opacity:1" d="M255.804 205.467h-69.608"/>
    <path d="M230.013 382.5h39.69M250 360v43" style="fill:none;fill-rule:evenodd;stroke:#ffe000;stroke-width:10;stroke-linecap:butt;stroke-linejoin:miter;stroke-miterlimit:4;stroke-dasharray:none;stroke-opacity:1"/>
    <path style="opacity:1;fill:#000;fill-opacity:1;fill-rule:evenodd;stroke:none;stroke-width:2;stroke-linecap:butt;stroke-linejoin:miter;stroke-miterlimit:4;stroke-dasharray:none;stroke-opacity:1" d="M212.558 232.79h16.884v5.891h-16.884zM212.558 171.504h16.884v5.891h-16.884z"/>
    <ellipse ry="32.526" rx="34.693" style="opacity:1;fill:#ffe000;fill-opacity:1;fill-rule:evenodd;stroke:#000;stroke-width:.99658787;stroke-linecap:round;stroke-linejoin:round;stroke-miterlimit:4;stroke-dasharray:none;stroke-opacity:1" cx="295" cy="115.511"/>
    <path style="fill:none;fill-rule:evenodd;stroke:#ffe000;stroke-width:3;stroke-linecap:butt;stroke-linejoin:miter;stroke-miterlimit:4;stroke-dasharray:none;stroke-opacity:1" d="M280.359 171.5h29.508"/>
    <path style="fill:none;fill-rule:evenodd;stroke:#000;stroke-width:8;stroke-linecap:butt;stroke-linejoin:miter;stroke-miterlimit:4;stroke-dasharray:none;stroke-opacity:1" d="M295 81.99v67.384"/>
    <path d="M329.804 115.467h-69.608" style="fill:none;fill-rule:evenodd;stroke:#000;stroke-width:8.23665524;stroke-linecap:butt;stroke-linejoin:miter;stroke-miterlimit:4;stroke-dasharray:none;stroke-opacity:1"/>
    <path style="fill:none;fill-rule:evenodd;stroke:#ffe000;stroke-width:10;stroke-linecap:butt;stroke-linejoin:miter;stroke-miterlimit:4;stroke-dasharray:none;stroke-opacity:1" d="M304.013 292.5h39.69M324 270v43"/>
    <path style="opacity:1;fill:#000;fill-opacity:1;fill-rule:evenodd;stroke:none;stroke-width:2;stroke-linecap:butt;stroke-linejoin:miter;stroke-miterlimit:4;stroke-dasharray:none;stroke-opacity:1" d="M286.558 142.79h16.884v5.891h-16.884zM286.558 81.504h16.884v5.891h-16.884z"/>
</svg>
