<svg xmlns="http://www.w3.org/2000/svg" xml:space="preserve" viewBox="30.5 31.5 400 500" height="500" width="400">
    <path d="M230.56 531.14c74.32-53.92 125.26-122.02 155.74-208.16 27.64-78.1 38.73-172.75 33.91-289.35l-.02-.46H40.37l-.02.46c-4.81 116.6 6.28 211.24 33.91 289.35 30.48 86.14 81.42 154.24 155.74 208.16l.28.2.28-.2z" fill="#32ac60"/>
    <path d="M41.04 33.21C31.97 252.66 77.3 419.16 230.5 530.31c153.19-111.15 198.51-277.65 189.44-497.1H41.04m-.92-.95H420.86l.04.92c4.82 116.66-6.28 211.36-33.93 289.52-30.51 86.24-81.51 154.41-155.91 208.39l-.56.41-.56-.41c-74.4-53.98-125.4-122.15-155.91-208.39C46.38 244.54 35.28 149.84 40.1 33.18l.04-.92z"/>
    <path d="M235.5 388.57c36.32-26.8 61.08-62.15 61-112.74-.07-46.03-21.34-82.86-44.05-118.6-1.99-3.13-1.38-5.18 0-6.47 1.21-1.13 3.63-2.12 3.39-3.39-.96-5.13-3.86-8.79-6.81-14.09-5.72-10.28-8.32-23.34-7.83-32.12.81-14.5 11-24.96 23.26-37.89 1.66-1.75 13.45-2.35 11.71.92-2.22 4.17-6.01 11.39-9.24 16.94-.91 1.56-.67 4.68 2.62 5.24 2.21.38-1.21 6.94-1.69 9.4-1.4 7.1-2.57 9.13-1.54 11.55 1.29 3.03 8.55-2.31 12.94-3.39 3.57-.88 18.65 16.53 18.48 19.56l-1.39 25.11c-.87 15.79 19.97 42.51 30.03 62.22l13.25 32.34 14.79-.62c5.91-.25 10.19 16.23 10.47 24.95.3 9.24 2.71 22.79-3.23 27.57-2.11 1.7-12.3 3.44-18.94 5.08-1.61 20.19-16.5 47.79-29.88 61.61-20.49 21.15-56.27 36.34-60.07 49.59-2.59 9.05 3.74 15.29 11.71 14.48 9.76-1 9-7.31 9.4-12.63 16.31 5.68 10.51 22.63 8.47 25.57-6.58 9.46-16.58 10.44-29.57 6.78v12.32c-5.88-.9-10.38-3.14-12.63-7.7-4.63-9.37-4-20.99-4.17-31.88z" style="fill-rule:evenodd;fill:#ffe000;stroke:#000"/>
    <path d="m341.86 252.34 8.24-.31c3.53-.13 5.41 9.98 6.01 17.87.45 5.94 1.01 17.49-1.46 17.94l-10.47 1.93c.67-11.08.11-24.53-2.31-37.43zM284.75 135.6c-7.66-6.92-10.02-10.78-14.57-16.21-1.44-1.72 2.7-3.13 5.36-4.24 3.27-1.37 11.88 6.13 12.07 10.12.22 4.58-1.01 11.55-2.86 10.33z" style="fill-rule:evenodd;fill:#32ac60;stroke:#000"/>
    <path d="M225.5 388.57c-36.32-26.8-61.08-62.15-61-112.74.07-46.03 21.34-82.86 44.05-118.6 1.99-3.13 1.38-5.18 0-6.47-1.21-1.13-3.63-2.12-3.39-3.39.96-5.13 3.86-8.79 6.81-14.09 5.72-10.28 8.32-23.34 7.83-32.12-.81-14.5-11-24.96-23.26-37.89-1.66-1.75-13.45-2.35-11.71.92 2.22 4.17 6.01 11.39 9.24 16.94.91 1.56.67 4.68-2.62 5.24-2.21.38 1.21 6.94 1.69 9.4 1.4 7.1 2.57 9.13 1.54 11.55-1.29 3.03-8.55-2.31-12.94-3.39-3.57-.88-18.65 16.53-18.48 19.56l1.39 25.11c.87 15.79-19.97 42.51-30.03 62.22l-13.25 32.34-14.79-.62c-5.91-.25-10.19 16.23-10.47 24.95-.3 9.24-2.71 22.79 3.23 27.57 2.11 1.7 12.3 3.44 18.94 5.08 1.61 20.19 16.5 47.79 29.88 61.61 20.49 21.15 56.27 36.34 60.07 49.59 2.59 9.05-3.74 15.29-11.71 14.48-9.76-1-9-7.31-9.4-12.63-16.31 5.68-10.51 22.63-8.47 25.57 6.58 9.46 16.58 10.44 29.57 6.78v12.32c5.88-.9 10.38-3.14 12.63-7.7 4.63-9.37 4-20.99 4.17-31.88z" style="fill-rule:evenodd;fill:#ffe000;stroke:#000"/>
    <path d="m119.14 252.34-8.24-.31c-3.53-.13-5.41 9.98-6.01 17.87-.45 5.94-1.01 17.49 1.46 17.94l10.47 1.93c-.67-11.08-.11-24.53 2.31-37.43zM176.25 135.6c7.66-6.92 10.02-10.78 14.57-16.21 1.44-1.72-2.7-3.13-5.36-4.24-3.27-1.37-11.88 6.13-12.07 10.12-.22 4.58 1.01 11.55 2.86 10.33z" style="fill-rule:evenodd;fill:#32ac60;stroke:#000"/>
</svg>
