<svg xmlns="http://www.w3.org/2000/svg" xmlns:xlink="http://www.w3.org/1999/xlink" width="420" height="500" viewBox="30.5 31.5 420 500" xml:space="preserve">
    <path style="fill:#fff;fill-rule:evenodd" d="M440 32.7c2.09 102.46-3.38 187.49-43.93 296.59-28.05 75.48-74.21 144.77-155.57 201.59-81.36-56.82-127.52-126.11-155.57-201.59C44.38 220.19 38.91 135.16 41 32.7c133 .29 266 0 399 0z"/>
    <path style="fill:none;stroke:#000" d="M440 32.7c2.09 102.46-3.38 187.49-43.93 296.59-28.05 75.48-74.21 144.77-155.57 201.59-81.36-56.82-127.52-126.11-155.57-201.59C44.38 220.19 38.91 135.16 41 32.7c133 .29 266 0 399 0z"/>
    <g id="a">
        <path d="m277.166 365.196-12.357 12.402h17.484l12.402-12.402h-17.529zM282.316 379.31l-17.507.03 12.363 12.364h17.538l-12.394-12.395zM275.978 392.93l-12.402-12.357v17.484l12.402 12.402V392.93zM261.865 398.08l-.031-17.507-12.364 12.363v17.538l12.395-12.394zM248.244 391.742l12.358-12.402h-17.485l-12.401 12.402h17.528zM243.095 377.629l17.507-.031-12.364-12.364H230.7l12.395 12.395zM249.433 364.008l12.4 12.358V358.88l-12.4-12.401v17.528zM263.545 358.858l.031 17.508 12.364-12.364v-17.538l-12.395 12.394z" style="fill:#000014;fill-opacity:1;fill-rule:nonzero;stroke:none" transform="translate(-420.4 -586.402) scale(2.51584)"/>
    </g>
    <use transform="translate(-93.127 -200.776)" width="744.094" height="1052.362" xlink:href="#a"/>
    <use transform="translate(93.127 -200.776)" width="744.094" height="1052.362" xlink:href="#a"/>
</svg>
