<svg xmlns="http://www.w3.org/2000/svg" xml:space="preserve" viewBox="30.5 31.5 400 500" height="500" width="400">
    <path d="M230.44 531.14C156.12 477.22 105.18 409.12 74.7 322.98c-27.64-78.1-38.73-172.75-33.91-289.35l.02-.46h379.82l.02.46c4.81 116.6-6.28 211.24-33.91 289.35-30.48 86.14-81.42 154.24-155.74 208.16l-.28.2-.28-.2z" style="fill:#e00e00;fill-opacity:1"/>
    <path style="fill:#ffe000;fill-opacity:1;stroke:#000;stroke-width:.96399999;stroke-linecap:round;stroke-linejoin:round;stroke-miterlimit:4;stroke-dasharray:none;stroke-opacity:1" d="M244.15 122.304c-1.452.273-5.11.172-6.815-.38-3.637-1.175-3.01-4.072-6.826-3.246-5.263 1.14-9.466 2.3-11.206 5.145-3.62 5.925-10.743 3.296-14.875 1.489-1.396-1.287-1.763-2.23-3.174-3.442-.73-.629-2.097.241-2.713-.645-2.927-4.202-.119-8.984 2.592-10.519-.073-3.981-2.606-4.535-.521-6.246l27.391-22.473c.384-3.625-2.906-4.704-3.794-8.049-2.591-9.755 7.47-11.572 17.621-12.037 11.776-.54 25.303.21 29.887-7.324 4.937 11.59-8.35 12.68-9.196 17.495 15.265-3.556 15.07 12.601 31.347 7.567.427 4.222-1.02 8.72-6.743 8.679 8.036 1.79 20.407 4.974 21.099 19.41.468 9.783 1.09 13.214 12.269 12.484 1.378-.09-.222 4.407-1.776 5.91-2.29 2.216-6.401 3.306-9.85 2.614 3.01 9.278-5.297 15.293-2.757 19.047 1.345 1.99 3.166 3.638 8.143 2.361-.427 7.381-7.515 10.775-15.871 6.827.914 4.427.007 8.795-5.01 14.724-4.033 4.765.428 8.428 1.903 15.287.67 3.113 1.242 8.313-.936 10.86-3.378 3.95-7.91 5.36-6.502 1.512 1.582-4.328.445-8.401-5.236-12.5-1.712 3.396-4.213 5.338-6.168 7.608-3.2 3.715-9.323 6.945-10.053 13.794-.753 7.06 4.434 12.387 1.142 11.751-10.193-1.97-13.322-15.427-10.804-21.56.938-2.287-.196-3.926-.581-5.185-.392-1.281-6.02 2.22-6.567 4.948-1.097 5.475 1.185 12.09 3.769 18.964 2.968 7.902 8.453 24.427 11.442 25.529 23.671 8.727 27.513 25.761 31.445 26.352 7.017 1.054 13.163-1.53 12.002-4.714-5.1-13.99-4.311-17.795 1.747-22.906 4.792-4.042 22.842-8.743 34.64-5.501 11.583 3.182 19.67 10.376 24.895 19.006 5.792 9.57 7.769 21.978 7.132 29.542-.783 9.31-1.774 14.782-6.421 21.328-11.381 16.03-28.684 29.171-33.015 50.89-1.437 7.205-1.059 25.708-3.928 24.253-9.528-4.83-11.465-20.773-11.515-26.714-.079-9.313.834-18.395 3.438-26.9 6.441-21.043 18.654-39.129 18.368-52.644-.297-14.066-14.31-13.392-17.808-8.42-8.952 12.724-10.988 18.245-24.214 14.787 3.406 15.094 2.572 31.392-1.058 48.549-1.003 4.736 6.393 9.638 14.673 14.213 1.778.982 3.507 5.85 3.72 11.034.203 4.978-1.078 10.154-1.423 11.548-.965 3.909-11.455 20.948-22.141 41.427-2.408 4.613-3.3 14.316-7.145 14.252 0 0-.241 6.925-1.48 9.554-1.188 2.52-44.63 1.932-44.672-.141-.278-13.56 9.93-18.998 19.623-24.7 5.641-3.319 11.138-7.32 14.772-11.514 6.135-7.082 14.288-29.431 13.118-31.953-1.098-2.367-7.196-11.58-8.998-12.538-9.063-4.82-15.656-5.73-23.757-9.974-9.677-5.07-16.429-11.607-20.471-15.303-1.222-1.168-2.561-1.866-3.822-2.96-.319.347-.546.654-.796.978-3.398 4.401-4.03 8.454-4.48 13.96-.283 3.467 4.366 8.12 6.054 11.52 1.423 2.87 1.15 8.41.413 11.046-3.278 11.742-41.187 38.123-40.017 42.536 1.76 6.64-.857 11.024-2.772 10.218 0 0-.025 6.513-1.678 7.892-4.088 3.41-41.496 3.34-41.702 1.293-.855-8.49 7.52-19.778 13.06-23.233l20.135-12.555c8.455-5.273 20.77-22.69 22.286-27.832 1.254-4.254-4.881-13.04-7.806-17.895-6.77-11.236-15.888-15.856-16.14-21.886-.323-7.7.805-22.252 10.749-30.462 7.55-6.234 11.946-9.099 15.288-13.532 1.626-2.157 2.924-8.187 1.314-10.862l-24.777-41.167c-1.326-2.202-8.074 3.78-12.68 3.744-5.872-.046-18.42-23.154-19.16-27.342-1.329-7.52-6.278-14.22-7.614-13.978-2.736.495-9.225 16.74-10.51 22.39 3.429.956 8.278 6.333 5.617 8.17 0 0 3.622 4.236 4.394 9.358.444 2.948-30.926 23.793-31.62 20.563-1.455-6.763-.537-14.738.42-21.44.451-3.161 1.552-5.275 4.616-9.202 1.578-2.023-3.23-4.19-.54-10.93.891-2.233 16.748-28.77 22.99-34.18 1.55-1.343 7.907-1.841 9.736-.338 2.842 2.335 5.039 6.588 9.059 12.436 2.424 3.527 5.37 14.344 8.74 12.908 2.056-.876-2.933-12.19-3.096-19.487-6.705-4.076-10.503-15.96-15.86-20.864-1.777-1.626-5.064-1.078-8.027-.82-5.182.453-13.541 8.691-20.866 15.38-1.366 1.247 1.584 15.531-2.463 15.778.15 1.431-.233 3.69-.532 5.973-.316 2.417-34.096 10.413-34.928 7.45-2.97-10.57 7.846-19.324 10.759-22.83 6.05-7.28 13.203-14.896 21.483-20.572 11.306-7.75 20.76-17.388 27.24-20.922 6.008-3.277 14.564-1.078 14.886-.61l15.612 22.707c7.527-19.006 41.2-18.239 64.474-29.184z"/>
    <path style="fill:none;stroke:#001a00;stroke-width:.96755022;stroke-miterlimit:4;stroke-dasharray:none;stroke-opacity:1" d="M231.988 94.78c.289-5.156 4.25-4.524 6.03-3.151-.115 3.476-3.119 4.522-6.03 3.15z"/>
    <path style="fill:none;stroke:#000;stroke-width:.96755022;stroke-linecap:round;stroke-linejoin:round;stroke-miterlimit:4;stroke-dasharray:none;stroke-opacity:1" d="M244.075 81.21c2.968-3.643 1.831-3.695-.15-9.015-.793-2.13 1.744-6.32 4.202-8.795 2.747 2.265 4.996 4.754 5.342 8.25.45 4.539-3.427 7.613 1.493 9.64"/>
    <path style="fill:none;stroke:#000;stroke-width:1;stroke-linecap:round;stroke-linejoin:miter;stroke-miterlimit:4;stroke-dasharray:none;stroke-opacity:1" d="M204.675 107.244c1.528.018 1.368 4.356-.126 3.855"/>
    <path d="M419.96 33.21c9.07 219.45-36.26 385.95-189.46 497.1C77.31 419.16 31.99 252.66 41.06 33.21h378.9m.92-.95H40.14l-.04.92c-4.82 116.66 6.28 211.36 33.93 289.52 30.51 86.24 81.51 154.41 155.91 208.39l.56.41.56-.41c74.4-53.98 125.4-122.15 155.91-208.39 27.65-78.16 38.75-172.86 33.93-289.52l-.04-.92z"/>
    <path d="M224.596 94.02c3.879-.085 4.533-3.479 6.327-6.484 1.16-1.943 5.207-2.73 8.662-.228M231.988 94.78l-2.638 1.756M240.655 89.872l-2.638 1.757M288.173 422.085c-2.753-.217-4.25-6.303-6.897-8.006M190.888 412.814c-2.902-.995-8.468-5.551-9.878-8.482M137.27 215.558c-1.965 1.116-4.726-.286-7.283-1.418M114.753 184.721c-1.858-.408-3.573-2.948-4.006-5.077" style="fill:none;fill-rule:evenodd;stroke:#000;stroke-width:1px;stroke-linecap:round;stroke-linejoin:miter;stroke-opacity:1"/>
    <path d="M169.273 155.917c-3.453 5.595-6.75 13.827-7.304 19.33" style="fill:none;fill-rule:evenodd;stroke:#000;stroke-width:1px;stroke-linecap:butt;stroke-linejoin:miter;stroke-opacity:1"/>
    <path d="M244.15 122.304c9.554-3.055 14.661-10.356 15.598-17.414" style="fill:none;fill-rule:evenodd;stroke:#000;stroke-width:1px;stroke-linecap:round;stroke-linejoin:miter;stroke-opacity:1"/>
    <path d="M201.254 121.87c3.362-3.89 12.113-6.753 16.031-5.708 2.537.676-5.866 3.923-12.857 9.15" style="fill:none;fill-rule:evenodd;stroke:#000;stroke-width:1px;stroke-linecap:round;stroke-linejoin:round;stroke-opacity:1"/>
    <path d="m262.521 72.072-4.298.95M287.125 88.318c-1.59.03-5.03.11-8.193-1.234M308.867 128.736c-7.966-1.954-8.355-10.345-14.369-14.778M298.382 156.97c-4.066-2.48-9.442-5.597-8.97-11.99M282.6 186.854c-12.261-8.31.744-23.124.032-27.805M256.137 193.262c-1.906-8.051 9.26-8.292 10.476-14.72M232.486 322.556c-4.484-4.249-8.292-8.793-10.893-13.865" style="fill:none;fill-rule:evenodd;stroke:#000;stroke-width:1px;stroke-linecap:round;stroke-linejoin:miter;stroke-opacity:1"/>
</svg>
