<svg xmlns="http://www.w3.org/2000/svg" width="400" height="500" viewBox="30.5 31.5 400 500" xml:space="preserve">
    <path style="fill-opacity:1;fill:#32ac60" d="M230.45 531.13c-74.32-53.92-125.26-122.02-155.74-208.16-27.64-78.1-38.73-172.75-33.91-289.35l.02-.46h379.82l.02.46c4.81 116.6-6.28 211.24-33.91 289.35-30.48 86.14-81.42 154.24-155.74 208.16l-.28.2-.28-.2z" fill="#e00e00"/>
    <path style="fill:#fff;fill-opacity:1" d="M379.209 63.152c-7.557 8.712-15.399 20.844-21.137 28.685-21.92 29.953-38.155 20.21-66.513 36.63-18.21 11.91-19.346 27.1-42.907 47.5-28.067 24.306-38.469 10.06-68.79 30.571-28.927 19.567-53.775 71.412-113.081 91.672 12.6 41.515 31.49 86.408 54.382 119.349 47.7-23.924 66.18-68.832 85.38-108.123 6.753-13.82 16.787-29.357 26.949-39.056 17.87-17.054 29.347-13.696 49.698-48.047 17.914-30.24 27.885-62.556 47.202-74.669 23.665-14.84 26.57-14.58 36.61-29.454 20.05-29.699 10.465-44.296 42.246-74.73 3.222-3.085 10.762-10.312 10.762-10.312s-4.806 2.339-10.226 5.49c-11.308 6.624-22.67 15.382-30.575 24.494z"/>
    <path d="M419.96 33.21c9.07 219.45-36.25 385.95-189.45 497.1C146.04 469.02 94.36 390.9 66.52 296.34a557.24 557.24 0 0 1-5.87-21.54c-11.45-45.69-17.77-95.02-19.88-147.94-1.2-30.06-1.05-61.28.29-93.65h378.9m.92-.95H40.14l-.04.92c-4.82 116.66 6.28 211.36 33.93 289.52 30.51 86.24 81.51 154.41 155.91 208.39l.56.41.56-.41c74.4-53.98 125.4-122.15 155.91-208.39 27.65-78.16 38.75-172.86 33.93-289.52l-.04-.92z"/>
    <path d="M121.163 417.559c47.7-23.924 66.18-68.832 85.38-108.123 6.753-13.82 16.787-29.357 26.949-39.056 17.87-17.054 29.347-13.696 49.698-48.047 17.914-30.24 27.885-62.556 47.202-74.669 23.665-14.84 26.57-14.58 36.61-29.454 20.05-29.699 10.465-44.296 42.246-74.73 3.222-3.085 10.762-10.312 10.762-10.312s-4.806 2.339-10.226 5.49c-11.308 6.624-22.67 15.382-30.575 24.494-7.557 8.712-15.399 20.844-21.137 28.685-21.92 29.953-38.155 20.21-66.513 36.63-18.21 11.91-19.346 27.1-42.907 47.5-28.067 24.306-38.469 10.06-68.79 30.571-22.765 15.4-43.004 50.79-79.5 75.043-9.879 6.565-20.948 12.313-33.581 16.629" style="fill:none;fill-opacity:1;stroke:#000;stroke-opacity:1"/>
</svg>
