<svg xmlns="http://www.w3.org/2000/svg" width="415" height="500" viewBox="30.5 31.5 415 500" xml:space="preserve">
    <path style="fill:#e00e00;fill-opacity:1;fill-rule:evenodd;stroke:none;stroke-width:1px;stroke-linecap:butt;stroke-linejoin:miter;stroke-opacity:1" d="M104.39 449.836c-33.734-25.594-73.046-61.982-73.046-135.22l.003-281.577h413.306l.003 281.577c0 73.238-39.313 109.626-73.046 135.22C327.3 483.456 238 530.91 238 530.91s-89.3-47.454-133.61-81.074z"/>
    <path style="fill:#ffe000;fill-opacity:1;fill-rule:evenodd;stroke:none;stroke-width:1px;stroke-linecap:butt;stroke-linejoin:miter;stroke-opacity:1" d="m183.06 273.935-54.94-95.767-54.941 95.767-41.832-72.846v-25.553l41.832 72.693 54.94-95.768 54.94 95.768L238 152.461l54.94 95.768 54.94-95.768 54.941 95.768 41.832-72.693v25.553l-41.832 72.846-54.94-95.767-54.94 95.767L238 178.168Z"/>
    <path style="fill:#ffe000;fill-opacity:1;fill-rule:evenodd;stroke:none;stroke-width:1px;stroke-linecap:butt;stroke-linejoin:miter;stroke-opacity:1" d="m183.06 376.76-54.94-95.768-54.941 95.767-41.832-73.153v-25.552l41.832 73 54.94-95.768 54.94 95.767L238 255.286l54.94 95.767 54.94-95.767 54.941 95.767 41.832-73 .009 25.772-41.841 72.934-54.94-95.767-54.941 95.767L238 280.992Z"/>
    <path d="m31.347 175.536 41.832 72.693 54.94-95.768 54.94 95.768L238 152.461l54.94 95.768 54.94-95.768 54.941 95.768 41.832-72.693m0 25.553-41.832 72.846-54.94-95.767-54.94 95.767L238 178.168l-54.94 95.767-54.94-95.767-54.941 95.767-41.832-72.846" style="fill:none;fill-rule:evenodd;stroke:#000;stroke-width:1.00807977px;stroke-linecap:butt;stroke-linejoin:miter;stroke-opacity:1"/>
    <path style="fill:#ffe000;fill-opacity:1;fill-rule:evenodd;stroke:none;stroke-width:1px;stroke-linecap:butt;stroke-linejoin:miter;stroke-opacity:1" d="m183.06 325.347-54.94-95.767-54.941 95.767-41.832-73.153v-25.245l41.832 72.692 54.94-95.767 54.94 95.767L238 203.874l54.94 95.767 54.94-95.767 54.941 95.767 41.832-72.692v25.245l-41.832 73.153-54.94-95.767-54.94 95.767L238 229.58Z"/>
    <path d="m31.347 226.949 41.832 72.692 54.94-95.767 54.94 95.767L238 203.874l54.94 95.767 54.94-95.767 54.941 95.767 41.832-72.692m0 25.245-41.832 73.153-54.94-95.767-54.94 95.767L238 229.58l-54.94 95.767-54.94-95.767-54.941 95.767-41.832-73.153" style="fill:none;fill-rule:evenodd;stroke:#000;stroke-width:1.00807977px;stroke-linecap:butt;stroke-linejoin:miter;stroke-opacity:1"/>
    <path d="m31.473 278.354 41.706 72.7 54.94-95.768 54.94 95.767L238 255.286l54.94 95.767 54.94-95.767 54.941 95.767 41.832-73m0 25.553-41.832 73.153-54.94-95.767-54.94 95.767L238 280.992l-54.94 95.767-54.94-95.767-54.941 95.767-41.841-72.934" style="fill:none;fill-rule:evenodd;stroke:#000;stroke-width:1.00807977px;stroke-linecap:butt;stroke-linejoin:miter;stroke-opacity:1"/>
    <path d="M104.39 449.836c-33.734-25.594-73.046-61.982-73.046-135.22l.003-281.577h413.306l.003 281.577c0 73.238-39.313 109.626-73.046 135.22C327.3 483.456 238 530.91 238 530.91s-89.3-47.454-133.61-81.074z" style="fill:none;fill-opacity:1;fill-rule:evenodd;stroke:#000;stroke-width:1.00807977px;stroke-linecap:butt;stroke-linejoin:miter;stroke-opacity:1"/>
</svg>
