<svg xmlns="http://www.w3.org/2000/svg" version="1" width="400" height="500">
    <path style="fill:#0085ca;fill-opacity:1;fill-rule:nonzero" d="M3.135 1.323h393.73v301.14c0 108.73-88.14 196.86-196.86 196.86-108.72 0-196.87-88.14-196.87-196.86V1.323z"/>
    <path style="fill:#fff;fill-opacity:1;fill-rule:evenodd;stroke:none;stroke-width:1px;stroke-linecap:butt;stroke-linejoin:miter;stroke-opacity:1" d="M166.62 496.544 137.5 447.5l47.5-80-47.5-80 47.5-80-47.5-80 47.5-80-27.373-46.101-19.95.084L165 47.5l-47.5 80 47.5 80-47.5 80 47.5 80-47.5 80 25.91 43.638c7.424 1.984 15.326 3.9 23.21 5.406z"/>
    <path d="M217.869 498.648 187.5 447.5l47.5-80-47.5-80 47.5-80-47.5-80 47.5-80-27.373-46.101-19.95.084L215 47.5l-47.5 80 47.5 80-47.5 80 47.5 80-47.5 80 30.832 51.927z" style="fill:#fff;fill-opacity:1;fill-rule:evenodd;stroke:none;stroke-width:1px;stroke-linecap:butt;stroke-linejoin:miter;stroke-opacity:1"/>
    <path d="m257.627 1.399-19.95.084L265 47.5l-47.5 80 47.5 80-47.5 80 47.5 80-47.5 80 27.646 46.562c5.971-1.091 11.652-2.763 17.15-4.8L237.5 447.5l47.5-80-47.5-80 47.5-80-47.5-80 47.5-80-27.373-46.101" style="fill:#fff;fill-rule:evenodd;stroke:none;stroke-width:1px;stroke-linecap:butt;stroke-linejoin:miter;stroke-opacity:1"/>
    <path style="fill:none;stroke:#000" d="M3.135 1.323h393.73v301.14c0 108.73-88.14 196.86-196.86 196.86-108.72 0-196.87-88.14-196.87-196.86V1.323z"/>
    <path style="fill:none;fill-rule:evenodd;stroke:#000;stroke-width:1px;stroke-linecap:butt;stroke-linejoin:miter;stroke-opacity:1" d="M217.869 498.648 187.5 447.5l47.5-80-47.5-80 47.5-80-47.5-80 47.5-80-27.373-46.101m-19.95.084L215 47.5l-47.5 80 47.5 80-47.5 80 47.5 80-47.5 80 30.832 51.927"/>
    <path d="M166.62 496.544 137.5 447.5l47.5-80-47.5-80 47.5-80-47.5-80 47.5-80-27.373-46.101m-19.95.084L165 47.5l-47.5 80 47.5 80-47.5 80 47.5 80-47.5 80 25.91 43.638M262.296 489.262 237.5 447.5l47.5-80-47.5-80 47.5-80-47.5-80 47.5-80-27.373-46.101m-19.95.084L265 47.5l-47.5 80 47.5 80-47.5 80 47.5 80-47.5 80 27.646 46.562" style="fill:none;fill-rule:evenodd;stroke:#000;stroke-width:1px;stroke-linecap:butt;stroke-linejoin:miter;stroke-opacity:1"/>
</svg>
