<svg xmlns="http://www.w3.org/2000/svg" viewBox="0 0 192.673 234.091" height="884.752" width="728.214">
    <path style="opacity:1;vector-effect:none;fill:#fff;fill-opacity:1;stroke:#256596;stroke-width:.0478017;stroke-linecap:butt;stroke-linejoin:miter;stroke-miterlimit:4;stroke-dasharray:none;stroke-dashoffset:0;stroke-opacity:1" d="M-82.51 196.262c1.262 42.353 7.121 84.703 19.16 125.375 10.196 30.973 29.047 58.36 50.566 82.551 8.493 9.008 16.933 18.17 26.476 26.082 2.386-1.156 4.229-3.574 6.323-5.268 27.166-25.618 51.233-55.417 66.002-89.966 8.045-19.191 12.2-39.719 16.114-60.072 4.663-25.994 7.461-52.433 8.032-78.785H-82.432Z" transform="translate(82.432 -196.097)"/>
    <path transform="matrix(.26458 0 0 .26458 -28.599 -5.46)" d="M108.09 20.945c4.772 160.075 26.917 320.136 72.421 473.859 38.534 117.062 109.781 220.576 191.113 312.004 32.1 34.045 64 68.673 100.068 98.576 9.016-4.367 15.982-13.509 23.895-19.91 102.676-96.823 193.636-209.45 249.458-340.027C775.45 472.91 791.156 395.328 805.95 318.4c17.623-98.244 28.199-198.172 30.354-297.768H108.388ZM738.196 185.6c2.34-.206 13.395 1.95 10.217 4.69-23.093 9.954-31.933 28.27-37.909 50.957-15.284 51.524-19.072 105.656-36.287 156.588-23.442 61.337-73.581 116.001-138.982 131.64-37.216 8.67-77.609 2.657-111.406-14.865-4.875-2.806 3.273-1.512 4.874-1.049 24.42 6.813 50.048 5.957 75.104 4.528 50.014-7.55 90.995-42.952 118.811-83.493 9.8-15.021 22.992-39.234 30.544-61.033 7.84-22.634 9.858-42.586 9.858-42.586s-5.415-1.227-18.691-2.612-38.522-3.427-61.053-3.63c-7.679 48.385-38.745 91.087-80.192 116.515-37.294 24.832-83 31.173-126.789 32.704-1.732.225-4.59.182-4.59.182s-.22 4.726-.44 12.447c-2.796 27.575-.198 58.899-13.574 84.023-6.774 10.895-22.678 22.592-35.232 24.599 3.537-7.364 5.913-11.244 9.68-16.575 16.674-29.613 13.635-64.561 15.495-97.223.223-4.838.597-8.598.597-8.598s-5.803-.218-16.316-.136c-30.007 1.599-56.133-1.58-77.175 8.755-3.191.731-19.639 12.965-22.624 11.469 2.68-13.284 11.688-25.551 22.899-33.234 21.283-11.777 46.87-9.517 70.29-12.082 22.408-1.443 22.363-1.41 22.363-1.41s1.199-41.48 5.447-60.366c7.331-40.996 26.309-80.034 56.308-109.248 27.403-28.07 67.113-47.325 106.839-45.439 14.239.68 28.35.769 41.58 6.458-17.823 3.168-37.248 1.431-55.188 6.464-43.16 9.112-77.92 41.078-98.884 78.847-21.902 37.126-28.051 81.386-29.595 123.522 36.923-2.755 75.105-5.561 108.518-23.102 39.35-19.328 73.912-54.76 86.496-97.35-6.147 1.17-11.806 1.268-23.671 4.814-33.276 7.823-66.917 23.164-87.194 51.858-6.095 6.218-8.552 15.855-15.218 21.222-2.717-7.187.614-16.068 2.157-23.502 12.043-36.906 47.21-60.952 82.573-72.875 15.05-5.874 31.176-8.285 46.406-13.152 1.308-3.62 1.485-8.94 1.734-12.59.58-8.469.507-15.093 2.582-22.505 3.53 11.072 5.25 23.142 5.876 34.568 27.522.314 85.289 7.044 85.289 7.044s1.41-7.226 5.162-22.814c3.753-15.587 9.003-45.949 18.19-67.386 7.85-17.105 26.902-26.083 45.12-25.039z" style="opacity:1;vector-effect:none;fill:#256596;fill-opacity:1;stroke:none;stroke-width:.18066844;stroke-linecap:butt;stroke-linejoin:miter;stroke-miterlimit:4;stroke-dasharray:none;stroke-dashoffset:0;stroke-opacity:1"/>
</svg>
