<svg xmlns="http://www.w3.org/2000/svg" xml:space="preserve" viewBox="30.5 31.5 400 500" height="500" width="400">
    <path d="M230.45 531.13c-74.32-53.92-125.26-122.02-155.74-208.16-27.64-78.1-38.73-172.75-33.91-289.35l.02-.46h379.82l.02.46c4.81 116.6-6.28 211.24-33.91 289.35-30.48 86.14-81.42 154.24-155.74 208.16l-.28.2-.28-.2z" style="fill:#000;fill-opacity:1"/>
    <path d="M419.96 33.21c9.07 219.45-36.25 385.95-189.45 497.1C146.04 469.02 94.36 390.9 66.52 296.34a557.24 557.24 0 0 1-5.87-21.54c-11.45-45.69-17.77-95.02-19.88-147.94-1.2-30.06-1.05-61.28.29-93.65h378.9m.92-.95H40.14l-.04.92c-4.82 116.66 6.28 211.36 33.93 289.52 30.51 86.24 81.51 154.41 155.91 208.39l.56.41.56-.41c74.4-53.98 125.4-122.15 155.91-208.39 27.65-78.16 38.75-172.86 33.93-289.52l-.04-.92z"/>
    <path style="fill:#fce300;fill-opacity:1;stroke:#000;stroke-width:1;stroke-opacity:1;stroke-miterlimit:4;stroke-dasharray:none;stroke-linejoin:round;stroke-linecap:round" d="M235.29 353.233c1.37-7.16 1.28-12.58 6.24-18.17 6.33-7.15 8.52.83 12.04 2.19 3.93 1.52 2.73-5.06 3.5-8.32 1.25-5.28 7.1-11.19 12.259-1.09 2.36 4.61.02 29.58-1.17 44.88-1.94 24.788-.23 44.108 19.34 61.947 2.7 2.46 7.13 2.79 4.6-3.28-4.15-9.96-4.57-17.59-.11-27.579 8.079-18.13 28.638-15.64 37.708-25.69 5.97-6.619.41-8.139-4.05-4.679-12.39 4.47-19.77-9.1-12.24-14.07 12.46-8.22 32.88-8.49 38.51-23.579 2.94-7.87-2.5-6.2-6.57-3.04-8.02 6.23-22.06 10.1-30.6 10.45-29.689 1.21-23.949-26.76.14-53.229 21.95-24.119 54.86-17.83 71.229-43.448 2.1-3.29.86-9.51-2.3-5.36-3.79 4.99-12.85 9.33-13.79-4.49-.9-13.22 19.12-35 17.73-41.269-1.4-6.32-5.52.82-8.54 1.97-8.63 3.3-9.94-6.01-6.24-10.4 8.1-9.59 18.04-19.81 27.47-29.659 4.01-4.18 9.519-13.31.88-12.04-4.75.7-16.16-.6-16.86-11.27-.94-14.419 9.8-27.058 18.72-41.368 1.879-3.01 9.019-11.55 2.299-10.4-7.71 1.32-11 13.95-25.07 11.38-8.479-1.55-4.09-11.16-1.2-15.98 2.25-3.75-.2-5.35-3.94-4.16-12.619 4.01-25.008 16.77-37.648 7.22-14.78-11.15-3.59-27.469-12.26-24.299-13.78 5.03-25.949 20.43-39.949 34.26-7.4 7.309-12.39-.36-11.06-6.57 1.91-8.88 8.54-16.5 18.28-23.53 5.32-3.84-.08-6.31-3.17-4.82-11.15 5.37-40.049 20.96-44.108 76.288-1.78 24.27-.67 47.989 13.57 81.548 6.659 15.68 27.748 44.108 32.068 56.258 3.63 10.21-2.12 20.02-9.3 21.67-17.479 4.03-21.869-3.49-22.219-13.79-.18-5.22-2.85-7.88-9.19-7.88h-39.578c-6.34 0-9.02 2.66-9.19 7.88-.35 10.3-4.74 17.82-22.22 13.79-7.18-1.66-12.93-11.46-9.3-21.67 4.32-12.15 25.41-40.579 32.07-56.258 14.24-33.55 15.35-57.269 13.57-81.548-4.06-55.339-32.96-70.918-44.11-76.288-3.09-1.49-8.49.97-3.17 4.82 9.74 7.04 16.37 14.65 18.28 23.53 1.33 6.21-3.65 13.879-11.06 6.57-14.009-13.84-26.169-29.24-39.958-34.27-8.67-3.17 2.52 13.14-12.26 24.3-12.64 9.54-25.03-3.21-37.649-7.23-3.74-1.19-6.19.41-3.94 4.16 2.89 4.83 7.28 14.44-1.2 15.979-14.07 2.57-17.36-10.06-25.069-11.38-6.72-1.15.42 7.39 2.3 10.4 8.92 14.32 19.66 26.95 18.72 41.369-.7 10.67-12.1 11.97-16.86 11.27-8.65-1.27-3.13 7.86.88 12.04 9.43 9.859 19.38 20.079 27.469 29.658 3.7 4.38 2.39 13.69-6.24 10.4-3.02-1.15-7.14-8.29-8.54-1.97-1.38 6.27 18.63 28.04 17.73 41.269-.94 13.82-10 9.48-13.79 4.49-3.15-4.15-4.4 2.07-2.3 5.36 16.37 25.629 49.279 19.34 71.228 43.448 24.09 26.46 29.83 54.439.14 53.229-8.54-.35-22.579-4.22-30.599-10.45-4.07-3.16-9.51-4.84-6.57 3.04 5.63 15.09 26.05 15.36 38.51 23.58 7.54 4.97-.47 18.849-12.24 14.07-4.46-3.46-10.02-1.94-4.05 4.679 9.08 10.05 29.629 7.57 37.709 25.69 4.46 9.989 4.04 17.629-.11 27.578-2.53 6.07 1.9 5.75 4.6 3.28 19.58-17.85 21.289-37.159 19.34-61.948-1.2-15.3-3.53-40.269-1.17-44.879 5.159-10.1 11.009-4.18 12.259 1.09.77 3.25-.43 9.84 3.5 8.32 3.52-1.36 5.71-9.33 12.04-2.19 4.96 5.59 4.87 11.01 6.24 18.17.47 2.45 2.17 2.19 4.789 2.19 2.63 0 4.33.26 4.79-2.19z"/>
</svg>
