<svg xmlns="http://www.w3.org/2000/svg" xml:space="preserve" viewBox="30.5 31.5 400 500" height="500" width="400">
    <path style="fill:#32ac60" d="M230.44 531.14C156.12 477.22 105.18 409.12 74.7 322.98c-27.64-78.1-38.73-172.75-33.91-289.35l.02-.46h379.82l.02.46c4.81 116.6-6.28 211.24-33.91 289.35-30.48 86.14-81.42 154.24-155.74 208.16l-.28.2-.28-.2z"/>
    <path d="M419.96 33.21c9.07 219.45-36.26 385.95-189.46 497.1C77.31 419.16 31.99 252.66 41.06 33.21h378.9m.92-.95H40.14l-.04.92c-4.82 116.66 6.28 211.36 33.93 289.52 30.51 86.24 81.51 154.41 155.91 208.39l.56.41.56-.41c74.4-53.98 125.4-122.15 155.91-208.39 27.65-78.16 38.75-172.86 33.93-289.52l-.04-.92z"/>
    <path style="fill:#ffe000;fill-opacity:1;fill-rule:evenodd;stroke:#000;stroke-width:1;stroke-linecap:round;stroke-linejoin:round;stroke-opacity:1;stroke-miterlimit:4;stroke-dasharray:none" d="M230.474 185.02c9.131-34.134 28.59-63.722 27.748-91.174-.51-16.69-7.319-30.689-27.748-37.461-20.43 6.772-27.238 20.77-27.749 37.46-.841 27.453 18.617 57.04 27.749 91.175"/>
    <path style="fill:#ffe000;fill-opacity:1;fill-rule:evenodd;stroke:#000;stroke-width:1;stroke-linecap:round;stroke-linejoin:round;stroke-miterlimit:4;stroke-dasharray:none;stroke-opacity:1" d="M236.816 185.02c7.065-17.964 18.215-41.12 40.434-52.326 21.84-11.015 47.453-.143 55.497 8.126 18.156 18.664 18.576 38.768 14.61 53.945-4.02 15.38-29.643 43.023-57.224 30.689 5.462-3.829 15.28-16.363 15.45-28.21.106-7.379-9.485-21.37-24.36-24.686-8.368-1.865-14.864-.629-21.816 6.178-10.985 10.756-12.933 21.749-14.663 32.843 6.743 5.408 9.389 12.002 9.316 18.631-.086 7.87-3.461 13.61-9.316 18.632v179.772c4.514 2.855 9.528 10.199 9.316 18.63-.415 16.53-14.638 23.795-23.586 23.587-8.948.208-23.171-7.057-23.587-23.586-.212-8.432 4.803-15.776 9.316-18.631V248.842c-5.854-5.022-9.23-10.762-9.316-18.632-.072-6.63 2.573-13.223 9.316-18.63-1.73-11.095-3.678-22.088-14.663-32.844-6.951-6.807-13.447-8.043-21.816-6.178-14.874 3.315-24.466 17.307-24.36 24.687.17 11.846 9.989 24.38 15.45 28.209-27.58 12.334-53.204-15.31-57.223-30.689-3.966-15.177-3.547-35.281 14.609-53.945 8.044-8.27 33.658-19.141 55.497-8.126 22.22 11.206 33.37 34.362 40.434 52.326h6.343z"/>
</svg>
