<svg xmlns="http://www.w3.org/2000/svg" width="420" height="500" viewBox="30.5 31.5 420 500" xml:space="preserve">
    <path d="M440 32.7c2.09 102.46-3.38 187.49-43.93 296.59-28.05 75.48-74.21 144.77-155.57 201.59-81.36-56.82-127.52-126.11-155.57-201.59C44.38 220.19 38.91 135.16 41 32.7c133 .29 266 0 399 0z" style="fill-rule:evenodd;fill:#e00e00"/>
    <path d="M440 32.7c2.09 102.46-3.38 187.49-43.93 296.59-28.05 75.48-74.21 144.77-155.57 201.59-81.36-56.82-127.52-126.11-155.57-201.59C44.38 220.19 38.91 135.16 41 32.7c133 .29 266 0 399 0z" style="fill:none;stroke:#000"/>
    <path d="m321.2 211.94-13.7 13.7 29.8 32.5-96.8 91.5-96.6-91.3 29.8-32.5-13.7-13.7-38.8 24.8-5.1-4.8-11.9 11.9 4.8 5.1-18.6 46.3 40-23.6 90.8 96.1-59.6 56.3 23 23 55.8-59 55.9 59.2 23-23-59.7-56.5 91-96.3 32.5 29.8 13.7-13.7-24.8-38.8 4.8-5.1-11.9-11.9-5.1 4.8-38.8-24.8z" style="fill-rule:nonzero;fill:#ffe000;stroke:#000"/>
    <path d="M240.5 48.24c-22.8 0-88.7 8.1-88.7 74.5 0 74.1 81.4 75.3 81.4 75.3v23.6l-37.4-3.2 8.1 26.8 26-4.5-6.5 38.7h34.2l-6.5-38.7 26 4.5 8.1-26.8-37.4 3.2v-23.6s81.4-1.2 81.4-75.3c0-66.4-65.9-74.5-88.7-74.5zm0 18.7c22.6 0 58.6 16 58.6 56.6 0 45.4-37 56.6-58.6 56.6s-58.6-11.1-58.6-56.6c0-40.6 35.9-56.6 58.6-56.6z" style="fill-rule:nonzero;fill:#ffe000;stroke:#000"/>
</svg>
