<svg xmlns="http://www.w3.org/2000/svg" width="420" height="500" viewBox="30.5 31.5 420 500" xml:space="preserve">
    <path d="M36.846 32.7c-6.56 239.76 37.97 376.005 203.654 498.18C406.183 408.705 450.715 272.46 444.154 32.7c-174.747.213-297.744.009-407.308 0Z" style="fill:#ffe000;fill-opacity:1;stroke:#000"/>
    <path style="fill:#000;stroke:#000;stroke-width:.5;stroke-linejoin:round;stroke-miterlimit:4;stroke-dasharray:none;stroke-opacity:1" d="M101.186 376.715c-2.648-4.945-8.102-15.784-10.674-21.211-19.251-40.629-29.667-75.295-33.254-110.686-1.923-18.969-3.363-59.43-2.37-66.556.734-5.259 2.443-10.185 3.984-11.482.36-.303 1.02-.66 1.467-.794 1.808-.541 4.174 1.315 6.96 5.461 6.707 9.98 29.97 37.546 53.375 63.25 18.753 20.594 35.361 37.477 46.832 47.606 4.646 4.103 12.365 10.32 12.812 10.32.143 0 1.485-.903 2.982-2.008 3.286-2.427 6.46-4.64 11.334-7.901 2.138-1.431 4.247-3.037 5.07-3.86 1.27-1.27 1.504-1.648 2.34-3.78 4.16-10.593 7.882-24.971 7.449-28.77-.128-1.123-.684-15.578-.968-25.174-.26-8.754-.522-10.576-2.082-14.428-6.321-15.61-8.317-20.883-11.613-30.686l-2.535-7.537-.094-3.488c-.136-5.055.998-20.052 1.93-25.521.4-2.345.43-2.902.212-3.877-.327-1.459-1.075-3.064-2.27-4.87-.523-.79-1.012-1.645-1.087-1.9-.075-.256-.255-.51-.4-.566-.203-.078-95.342 17.957-97.432 18.47-.928.227-.504.712 1.184 1.35.918.347 4.514 1.688 7.991 2.98 4.279 1.59 5.748 2.418 5.748 2.418s-40.25-3.356-41.133-3.58c-.576-.146 1.598-1.36 22.159-12.38 12.538-6.72 22.87-12.145 22.87-12.145s-2.736 3.067-6.17 6.726c-3.433 3.66-6.243 6.777-6.243 6.929 0 .151.218.275.484.275.513 0 88.67-16.944 89.186-17.141.167-.064.43-.425.586-.801.543-1.317 2.794-4.44 3.909-5.42.618-.546 1.814-1.334 2.656-1.753 3.573-1.777 7.905-.924 12.373 2.437.836.63 1.735 1.144 1.998 1.144.46 0 70.274-13.249 71.047-13.483.21-.063.655-.714.989-1.445 1.455-3.188 4.99-5.99 8.608-6.824 3.769-.869 8.047.272 11.904 3.174l1.532 1.153 66.03-12.716c36.318-6.993 66.235-12.714 66.484-12.713.618.002 2.161 1.155 2.676 2 .825 1.353.402 2.72-1.177 3.806-.923.635-3.175 1.08-66.487 13.144-36.042 6.868-65.748 12.538-66.012 12.6a.797.797 0 0 0-.574.594c-.469 2.439-.723 3.24-1.555 4.902-1.021 2.04-3.397 4.823-5.143 6.024l-.898.618-.581 4.805c-1.172 9.684-2.045 17.386-2.388 21.064-.432 4.633-1.099 9.995-1.535 12.343-.268 1.442-.79 2.718-2.879 7.037-2.965 6.132-3.956 8.678-4.656 11.952-.279 1.303-.954 4.5-1.501 7.106-1.88 8.958-3.32 14.162-5.896 21.313-1.321 3.668-2.833 7.69-3.36 8.936-1.579 3.74-4 7.679-6.166 10.032-1.53 1.663-11.212 20.145-12.33 23.538-1.024 3.104-1.182 6.667-.527 11.874.151 1.202.809 3.608 1.916 7.007 2.002 6.151 2.536 8.165 2.815 10.625.262 2.307 1.127 4.536 3.643 9.393 2.394 4.622 2.925 5.928 5.48 13.46 2.556 7.538 3.848 11.83 4.418 14.67.513 2.562.89 3.476 2.31 5.601 1.999 2.993 2.022 3.05 2.34 5.625.52 4.2 1.525 5.637 7.195 10.28 4.052 3.319 6.709 5.968 7.811 7.79.61 1.008 1.603 3.742 3.816 10.515 3.702 11.324 5.225 16.175 5.789 18.446.475 1.913 1.215 3.49 4.182 8.902 2.681 4.893 2.41 4.582 4.392 5.046 2.247.526 5.124 1.539 6.302 2.22 1.39.803 1.91 1.458 2.07 2.606.325 2.315 1.874 9.437 2.144 9.857.346.538 29.529 20.763 30.49 21.233-16.79 25.565-69.61 78.79-113.115 108.853-33.579-25.339-56.035-43.203-80.49-71.673-22.32-25.982-44.063-55.384-58.68-82.341zm167.847-16.85c0-.208-.345-1.298-.765-2.423-1.155-3.087-2.655-8.256-3.03-10.44-.383-2.228-1.535-4.685-3.474-7.407-1.462-2.052-2.213-2.856-3.712-3.97-1.553-1.154-16.124-15.797-19.432-19.529-1.417-1.599-2.796-3.109-3.063-3.355l-.486-.448-3.002.385c-1.65.212-4.596.476-6.544.588-2.971.17-3.803.296-5.158.782-2.35.842-7.243 3.255-7.393 3.646-.155.406-.149.41 12.238 9.843 26.929 20.504 43.165 32.704 43.524 32.704.164 0 .298-.17.297-.377zm-34.409-165.383c.79-.842 1.705-2.79 2.647-5.634.774-2.338.807-2.557.698-4.522-.07-1.254-.44-3.46-.943-5.618-.714-3.07-.823-3.875-.8-5.922.089-7.625 4.861-14.099 11.033-14.965 3.382-.474 7.851.634 13.54 3.36 1.81.866 2.696 1.849 4.267 4.73.544.998 1.066 1.815 1.16 1.815.337 0 1.684-1.854 2.426-3.338.414-.83 1.245-2.723 1.847-4.21.994-2.456 1.126-2.984 1.444-5.813.193-1.712.489-3.72.657-4.461.168-.742 1.56-4.618 3.093-8.614a1077.433 1077.433 0 0 0 6.052-16.31c3.001-8.31 3.255-9.126 3.13-10.067-.179-1.35-.962-3.367-1.393-3.59-.39-.2-72.296 13.17-72.632 13.506-.555.555-4.313 6.115-5.04 7.455-.742 1.372-.824 1.677-.809 3.033.034 3.069 2.791 14.393 5.217 21.426 1.199 3.474 1.536 5.4 1.536 8.773v2.282l.94 1.74c3.014 5.573 4.557 7.588 9.92 12.957 2.573 2.577 3.863 3.698 5.034 4.378 1.975 1.146 3.043 2.537 4.47 5.822 1.152 2.652 1.477 2.883 2.506 1.787z"/>
</svg>
