<svg xmlns="http://www.w3.org/2000/svg" width="398.428" height="514.067">
    <path style="display:inline;fill:#fbfbfb;fill-rule:evenodd;stroke:none" d="M7.654 6.135C2.106 94.779 9.608 184.55 33.044 270.342c14.617 4.925 22.785-26.84 36.954-33.245 31.308-34.47 64.593-69.97 80.66-114.472 7.087-31.468-23.298-62.303-54.772-58.038-30.491 2.303-52.56 40.92-33.632 66.85 17.17 25.496 64.145 8.509 56.39-22.148-4.393-14.373-23.948-15.577-15.701 2.708-2.054 17.76-29.655 37.916-30.923 8.202-8.853-25.847 26.978-49.048 47.709-31.973 23.683 17.793 15.885 59.444-12.329 68.176-28.936 11.832-64.265-8.991-69.236-39.628-10.155-41.165 29.648-81.955 70.688-78.314 40.624.62 75.44 39.026 71.01 79.694-3.252 42.138-31.116 76.52-43.236 116.096-22.376 62.624-33.956 134.277-8.547 197.796 8.25 23.41 27.438 39.467 45.73 54.943 9.445 9.493 30.078 27.695 24.202 2.002.566-160.963.75-321.928.273-482.891a7002.62 7002.62 0 0 0-190.63.035ZM283.2 39.014c-46.94 3.173-79.624 57.733-61.98 100.99 14.778 45.308 41.843 86.012 51.318 133.203 14.708 57.353 18.103 121.825-11.393 175.25 7.176.44 25.833-29.047 36.534-38.955 20.432-24.151 14.266-57.418 12.791-86.39-5.083-57.86-28.541-111.69-53.59-163.337-10.95-25.008-19.669-60.252 3.66-81.126 15.737-14.355 40.957-18.61 59.652-7.564-23.252 10.322-11.206 37.83-17.973 54.981-10.184 18.3-50.99-8.965-30.347 17.205 21.148 25.985 67.792 19.59 81.412-11.116 18.369-33.412-1.53-79.842-38.452-89.613-10.117-3.459-20.999-4.741-31.632-3.528Z" transform="translate(.1 .067)"/>
    <path style="display:inline;fill:#4c7bb2;fill-rule:evenodd;stroke:none" d="M.944.601C.253 43.625-1.586 87.441 2.29 130c.638 15.787 3.141 32.037 4.913 48.806 1.686 10.852 4.644 27.398 5.491 34.994 4.177 16.757 6.32 33.84 12.083 50.677 1.232 8.935 5.68 19.487 7.791 28.523 5.429 15.95 11.665 32.412 17.814 46.525 2.775 5.208 5.349 11.704 9.358 18.418 2.695 6.614 5.23 9.739 7.874 14.857 1.927 2.844 5.887 9.93 9.586 15.838 4.323 5.745 8.129 12.542 13.3 18.559 2.567 4.932 9.536 12.528 13.8 18.732 8.105 9.3 12.947 15.135 19.524 21.968 4.823 6.449 6.153 6.311 11.476 12.72 10.707 10.372 21.226 20.776 32.096 30.177 2.227.867 10.087 8.92 13.804 11.132 4.64 4.035 10.67 9.15 16.152 12.074 9.769-1.893 15.878-11.023 23.448-15.6 8.861-7.62 20.432-17.021 29.416-26.5 11.055-10.302 22.096-21.99 32.505-33.9 3.427-4.962 8.99-10.288 11.479-14.005 3.036-3.864 9.403-11.476 13.67-17.905 3.46-4.492 6.429-8.867 10.154-14.49 1.91-2.58 4.119-6.86 7.309-11.6 6.796-9.968 11.834-21.249 16.856-30.418 2.842-7.835 8.98-17.712 11.461-27.176 4.881-10.103 7.332-20.174 11.427-30.329 1.322-5.001 4.337-16.237 6.801-23.418 2.04-8.564 3.011-12.133 5.704-22.198 2.841-16.605 7.854-32.163 9.072-49.059 2.49-9.484 2.726-16.45 4.573-27.052.446-5.874 1.48-18.79 2.873-26.488 1.544-12.3 1.307-25.972 2.91-36.995.41-25.085 1.995-51.469.99-75.643-.881-10.07-1.033-21.262-1.509-31.224C264.645.25 132.765-.613.944.601ZM198.284 6.1c.462 166.63.337 333.27-.379 499.9-21.305-15.65-41.982-33.015-59.194-53.167-35.23-58.407-28.04-130.752-10.46-193.717 11.438-43.36 36.417-81.515 49.521-124.178 10.11-35.783-8.37-77.718-43.974-90.736-36.846-15.997-87.391 4.06-95.333 45.41-9.276 32.94 16.796 72.236 52.445 70.126 29.674.817 54.521-34.164 38.217-60.828-9.991-20.3-40.802-22.436-52.188-2.328-15.874 8.436 1.087 59.576 15.548 32.536 13.933-8.543 5.808-24.113 12.193-32.941 22.432 5.448 15.046 42.173-5.521 46.54-27.19 9.885-52.876-22.12-41.46-47.495 9.883-33.713 57.403-40.014 79.95-15.58 19.134 17.835 16.1 47.597 2.52 67.73-27.704 48.413-69.052 86.43-104.735 128.608-17.365-53.746-24.437-110.856-28.076-167.228C5.739 74.6 4.595 40.215 7.654 6.135a7002.844 7002.844 0 0 1 190.63-.035Zm98.747 32.717c39.645 1.614 74.115 43.285 60.712 82.411-7.682 32.666-50.46 50.247-77.762 29.771-10.586-4.213-23.779-34.903-3.787-18.145 26.047 8.907 35.303-22.455 27.769-41.599-1.12-13.325 30.893-19.823 5.76-24.56-31.059-9.706-67.558 16.388-64.065 49.9 3.412 40.333 28.72 74.19 41.654 111.68 18.384 47.444 27.7 99.133 24.228 150.002-2.906 27.075-27.972 44.85-43.22 65.615-9.08 11.427-10.955 9.33-3.435-2.702 29.79-60.701 19.35-131.586.547-193.89-12.453-40.242-36.429-76.054-46.974-116.86-6.977-32.24 7.663-68.11 37.813-83.075 12.382-6.688 26.713-9.904 40.76-8.548z" transform="translate(.1 .067)"/>
</svg>
