<svg xmlns="http://www.w3.org/2000/svg" width="400" height="500" viewBox="30.5 31.5 400 500" xml:space="preserve">
    <path style="fill:#ffe000;fill-opacity:1" d="M230.55 531.13c74.32-53.92 125.26-122.02 155.74-208.16 27.64-78.1 38.73-172.75 33.91-289.35l-.02-.46H40.36l-.02.46c-4.81 116.6 6.28 211.24 33.91 289.35 30.48 86.14 81.42 154.24 155.74 208.16l.28.2.28-.2z"/>
    <path d="M41.04 33.21c-9.07 219.45 36.25 385.95 189.45 497.1 84.47-61.29 136.15-139.41 163.99-233.97a557.24 557.24 0 0 0 5.87-21.54c11.45-45.69 17.77-95.02 19.88-147.94 1.2-30.06 1.05-61.28-.29-93.65H41.04m-.92-.95H420.86l.04.92c4.82 116.66-6.28 211.36-33.93 289.52-30.51 86.24-81.51 154.41-155.91 208.39l-.56.41-.56-.41c-74.4-53.98-125.4-122.15-155.91-208.39C46.38 244.54 35.28 149.84 40.1 33.18l.04-.92z"/>
    <path d="M246.437 81.45c3.153 12.469 3.14 22.734 8.377 30.167 5.803 8.236 16.262 9.379 25.779 19.594 6.26 6.72 8.974 24.916-.766 32.493-9.694 7.542-19.803 14.865-20.144 21.722-.548 11.016 8.315 20.824 19.715 17.701 10.03-2.747 14.212-11.67 19.098-16.942 14.077 13.675 33.551 34.607 32.96 66.537-.416 22.55-9.349 37.002-32.343 56.064-14.202 11.773-37.902 29.296-38.76 45.341-1.274 23.793-2.465 44.26 12.424 44.915 8.06.354 12.836-1.479 20.79-8.01 6.021 14.068.021 35.704-9.315 43.562-6.839 5.757-14.992 5.16-21.18 2.953-7.18 11.84-19.035 22.104-32.572 22.104-13.537 0-25.392-10.264-32.572-22.104-6.188 2.206-14.341 2.803-21.18-2.953-9.336-7.858-15.336-29.494-9.316-43.561 7.955 6.53 12.732 8.363 20.791 8.009 14.89-.655 13.698-21.122 12.425-44.915-.859-16.045-24.559-33.568-38.76-45.341-22.995-19.062-31.928-33.515-32.345-56.064-.59-31.93 18.884-52.862 32.96-66.537 4.887 5.272 9.069 14.195 19.1 16.942 11.4 3.123 20.262-6.685 19.714-17.701-.341-6.857-10.45-14.18-20.144-21.722-9.74-7.577-7.026-25.774-.766-32.493 9.517-10.215 19.976-11.358 25.78-19.594 5.237-7.433 5.23-17.696 8.376-30.166 3.376-13.388 10.5-24.223 15.937-24.335 5.34-.111 12.595 11.116 15.937 24.335z" style="fill:#000;fill-rule:evenodd;stroke:#000;stroke-width:1px;stroke-linecap:butt;stroke-linejoin:miter;stroke-opacity:1"/>
    <circle transform="scale(-1 1)" r="7.659" cy="142.912" cx="-230.5" style="opacity:.98000004;fill:#ffe000;fill-opacity:1;stroke:#000;stroke-width:1;stroke-linecap:round;stroke-linejoin:round;stroke-miterlimit:4;stroke-dasharray:none;stroke-opacity:1"/>
    <circle transform="scale(-1 1)" style="opacity:.98000004;fill:#ffe000;fill-opacity:1;stroke:#000;stroke-width:1;stroke-linecap:round;stroke-linejoin:round;stroke-miterlimit:4;stroke-dasharray:none;stroke-opacity:1" cx="-230.5" cy="426.912" r="7.659"/>
    <circle transform="scale(-1 1)" style="opacity:.98000004;fill:#ffe000;fill-opacity:1;stroke:#000;stroke-width:1;stroke-linecap:round;stroke-linejoin:round;stroke-miterlimit:4;stroke-dasharray:none;stroke-opacity:1" cx="-161.186" cy="257.92" r="7.659"/>
    <circle transform="scale(-1 1)" r="7.659" cy="257.92" cx="-299.5" style="opacity:.98000004;fill:#ffe000;fill-opacity:1;stroke:#000;stroke-width:1;stroke-linecap:round;stroke-linejoin:round;stroke-miterlimit:4;stroke-dasharray:none;stroke-opacity:1"/>
    <path d="M250.408 240.32c.045 9.806-5.229 14.911-11.604 17.6v24.793h13.151c.213 8.223-9.591 17.483-21.455 17.483-11.864 0-21.668-9.26-21.455-17.483h13.15V257.92c-6.374-2.689-11.648-7.794-11.603-17.6.04-8.93 7.544-18.566 19.908-18.566s19.867 9.637 19.908 18.566z" style="fill:#ffe000;fill-opacity:1;fill-rule:evenodd;stroke:#000;stroke-width:1px;stroke-linecap:butt;stroke-linejoin:miter;stroke-opacity:1"/>
</svg>
