<svg xmlns="http://www.w3.org/2000/svg" xml:space="preserve" width="810.093" height="1001">
    <path d="M138.01 141.66c-20.14 33.35-51.5 55.69-55.34 58.43-3.79-2.62-32.66-23.24-52.74-54.28L62.6 85.5l6.97-35.72 20.31-6.73 8.43 34.14 6.78-5.3 32.92 69.77z" style="fill:none" transform="matrix(5.48306 0 0 5.48306 -48.348 -106.481)"/>
    <path d="M9 19.42v66.96c0 .14.01.28.01.43 0 .79.02 1.57.06 2.36.01.35.02.7.04 1.04.01.38.03.76.06 1.15.01.23.02.46.04.69.06.88.12 1.76.22 2.64.02.27.05.54.08.81.13 1.23.28 2.45.46 3.66.07.51.15 1.02.23 1.52.06.38.12.77.2 1.16.1.57.2 1.14.31 1.71.07.41.15.82.24 1.23.1.49.2.97.31 1.46.04.2.09.41.14.62.15.65.3 1.3.46 1.95.08.33.17.67.25 1 .09.33.17.66.27.99l.27.99c.09.33.18.66.28.99.09.33.19.65.29.99.49 1.63 1.02 3.26 1.58 4.86.22.63.44 1.25.68 1.87.28.76.57 1.52.88 2.28.18.47.38.94.57 1.41.18.44.36.87.54 1.3.19.45.38.9.58 1.34.45 1.02.91 2.03 1.38 3.04.22.47.45.95.68 1.42.86 1.78 1.76 3.53 2.69 5.25.28.52.56 1.04.85 1.55.23.43.47.84.71 1.26.22.39.45.79.68 1.18.06.1.12.21.18.31s.12.2.18.31c.1.18.21.37.32.55.2.35.41.69.62 1.03.92 1.52 1.86 3.01 2.82 4.48.02.04.05.08.08.12.28.43.57.87.85 1.29.39.59.78 1.16 1.17 1.73.28.4.55.8.83 1.19a145.6 145.6 0 0 0 2.5 3.47 182.738 182.738 0 0 0 8.82 11.05c.39.46.79.92 1.19 1.37 4.08 4.67 8.18 8.92 12.1 12.72.33.31.65.62.97.93 1.08 1.04 2.15 2.04 3.19 3.01.54.51 1.09 1 1.62 1.49 1.26 1.14 2.48 2.23 3.67 3.25.2.18.41.36.61.53.12.11.24.21.36.31.33.28.65.56.97.83.48.41.96.81 1.42 1.2.57.48 1.13.94 1.68 1.39.49.4.96.78 1.42 1.15.33.27.65.53.97.78.08.07.17.14.25.2.79.63 1.54 1.21 2.24 1.76.33.25.64.49.95.73.13.1.26.2.38.29.27.21.54.41.79.59.23.17.46.34.68.51.18.14.35.27.52.38.17.12.33.23.48.35.09.07.17.13.26.18.14.1.27.19.39.28 0 .01 0 .01.01 0 .13.09.25.18.36.26.07.05.13.09.18.14.11.08.22.15.31.22.14.1.27.19.38.27h.01c.11.07.2.14.28.2.01.01.02.01.03.02.08.06.14.1.17.12.02.01.02.02.02.02l.4.26.4-.26c.01-.01 1.3-.89 3.55-2.55.14-.1.28-.2.42-.31.71-.53 1.5-1.13 2.36-1.79.12-.09.23-.18.35-.27 1.41-1.1 3-2.36 4.74-3.79.1-.08.19-.15.28-.23.36-.3.73-.6 1.1-.91l1.39-1.18 1.01-.86.92-.8a229.046 229.046 0 0 0 10.98-10.18c2.31-2.29 4.68-4.73 7.06-7.31.4-.43.8-.86 1.19-1.3.31-.34.61-.68.92-1.02 2.11-2.37 4.24-4.84 6.33-7.42.72-.89 1.44-1.8 2.16-2.72 1.72-2.21 3.42-4.49 5.07-6.84.24-.33.47-.67.71-1.01.82-1.18 1.63-2.38 2.43-3.59.28-.43.57-.87.84-1.31.35-.54.69-1.08 1.03-1.62.04-.07.09-.14.12-.2.23-.36.46-.73.68-1.1.1-.16.2-.31.29-.47.34-.55.67-1.12 1-1.68v-.01s0-.01.01-.01c.3-.5.59-1 .88-1.52.21-.36.41-.72.62-1.09.22-.4.45-.8.67-1.21.15-.27.3-.55.45-.83.28-.51.55-1.02.81-1.53.35-.67.7-1.35 1.04-2.03l.57-1.14c1.06-2.16 2.07-4.37 3.01-6.6.45-1.07.88-2.15 1.3-3.24.22-.56.43-1.12.64-1.68.14-.39.28-.77.42-1.16.27-.75.53-1.5.78-2.25.17-.52.35-1.04.51-1.56.03-.09.06-.18.09-.28.13-.41.26-.82.38-1.23.06-.2.12-.39.17-.58.15-.52.3-1.04.44-1.57.14-.49.27-.97.39-1.47l.15-.55c.09-.34.17-.68.25-1.02.09-.33.16-.65.23-.98.09-.35.17-.71.25-1.07.04-.15.07-.31.1-.47.08-.36.16-.73.23-1.09.08-.38.15-.76.23-1.15.09-.47.18-.94.27-1.42.09-.47.17-.95.25-1.43.08-.5.16-1 .23-1.5.09-.58.17-1.17.24-1.74.06-.46.12-.92.17-1.39.04-.26.06-.52.09-.78.06-.57.11-1.14.16-1.71.03-.33.06-.67.08-1.01.04-.39.06-.78.09-1.18.12-1.87.18-3.76.18-5.67V19.42H9zm129.01 122.24c-20.14 33.35-51.5 55.69-55.34 58.43-3.79-2.62-32.66-23.24-52.74-54.28L62.6 85.5l6.97-35.72 20.31-6.73 8.43 34.14 6.78-5.3 32.92 69.77.38.8-.38-.8z" style="fill:#006ab7" transform="matrix(5.48306 0 0 5.48306 -48.348 -106.481)"/>
    <path d="M138.01 141.66c-20.14 33.35-51.5 55.69-55.34 58.43-3.79-2.62-32.66-23.24-52.74-54.28L62.6 85.5l6.97-35.72 20.31-6.73 8.43 34.14 6.78-5.3 32.92 69.77z" style="fill:#fff" transform="matrix(5.48306 0 0 5.48306 -48.348 -106.481)"/>
</svg>
