<svg xmlns="http://www.w3.org/2000/svg" xml:space="preserve" viewBox="30.5 31.5 470 500" height="500" width="470">
    <path style="fill:#0085ca;fill-opacity:1;fill-rule:evenodd;stroke:none;stroke-width:1px;stroke-linecap:butt;stroke-linejoin:miter;stroke-opacity:1" d="M86.5 33 32 84c19.012 17.503 35.862 34.508 42.717 51 4.394 10.57 5.783 23.353 5.783 32.09v201.204C80.5 431.797 139.75 530 265.5 530s185-98.203 185-161.706V167.09c0-8.737 1.39-21.52 5.783-32.09 6.855-16.492 23.705-33.497 42.717-51l-54.5-51h-358z"/>
    <path d="M213 234c-20 0-32.5-17.5-52.5-17.5S128 234 108 234c-10.532 0-18.984-4.853-27.547-9.448.01-12.882.047-32.967.047-48.94 0-12.991 0-23.78-5.025-38.65C85.835 142.097 95.44 149 108 149c20 0 32.5-17.5 52.5-17.5S193 149 213 149s32.5-17.5 52.5-17.5S298 149 318 149s32.5-17.5 52.5-17.5S403 149 423 149c12.561 0 22.164-6.903 32.525-12.038-5.025 14.87-5.025 25.659-5.025 38.65 0 15.973.036 36.058.047 48.94C441.984 229.147 433.532 234 423 234c-20 0-32.5-17.5-52.5-17.5S338 234 318 234s-32.5-17.5-52.5-17.5S233 234 213 234z" style="fill:#fff;fill-opacity:1;fill-rule:evenodd;stroke:none;stroke-width:1px;stroke-linecap:butt;stroke-linejoin:miter;stroke-opacity:1"/>
    <path style="fill:none;fill-rule:evenodd;stroke:#000;stroke-width:1px;stroke-linecap:butt;stroke-linejoin:miter;stroke-opacity:1" d="M75.475 136.962C85.835 142.097 95.44 149 108 149c20 0 32.5-17.5 52.5-17.5S193 149 213 149s32.5-17.5 52.5-17.5S298 149 318 149s32.5-17.5 52.5-17.5S403 149 423 149c12.561 0 22.164-6.903 32.525-12.038m-4.978 87.59C441.984 229.147 433.532 234 423 234c-20 0-32.5-17.5-52.5-17.5S338 234 318 234s-32.5-17.5-52.5-17.5S233 234 213 234s-32.5-17.5-52.5-17.5S128 234 108 234c-10.532 0-18.984-4.853-27.547-9.448"/>
    <path d="M213 414c-20 0-32.5-17.5-52.5-17.5S128 414 108 414c-7.796 0-14.222-2.467-20.627-5.712-7.625-27.994-6.873-21.28-7.015-88.786C88.954 324.112 97.43 329 108 329c20 0 32.5-17.5 52.5-17.5S193 329 213 329s32.5-17.5 52.5-17.5S298 329 318 329s32.5-17.5 52.5-17.5S403 329 423 329c10.57 0 19.046-4.889 27.642-9.498-.142 67.507.61 60.792-7.015 88.786C437.222 411.533 430.797 414 423 414c-20 0-32.5-17.5-52.5-17.5S338 414 318 414s-32.5-17.5-52.5-17.5S233 414 213 414z" style="fill:#fff;fill-rule:evenodd;stroke:none;stroke-width:1px;stroke-linecap:butt;stroke-linejoin:miter;stroke-opacity:1"/>
    <path style="fill:none;fill-rule:evenodd;stroke:#000;stroke-width:1px;stroke-linecap:butt;stroke-linejoin:miter;stroke-opacity:1" d="M443.627 408.288C437.222 411.533 430.797 414 423 414c-20 0-32.5-17.5-52.5-17.5S338 414 318 414s-32.5-17.5-52.5-17.5S233 414 213 414s-32.5-17.5-52.5-17.5S128 414 108 414c-7.796 0-14.222-2.467-20.627-5.712m-7.015-88.786C88.954 324.112 97.43 329 108 329c20 0 32.5-17.5 52.5-17.5S193 329 213 329s32.5-17.5 52.5-17.5S298 329 318 329s32.5-17.5 52.5-17.5S403 329 423 329c10.57 0 19.046-4.889 27.642-9.498"/>
    <path d="M86.5 33 32 84c19.012 17.503 35.862 34.508 42.717 51 4.394 10.57 5.783 23.353 5.783 32.09v201.204C80.5 431.797 139.75 530 265.5 530s185-98.203 185-161.706V167.09c0-8.737 1.39-21.52 5.783-32.09 6.855-16.492 23.705-33.497 42.717-51l-54.5-51h-358z" style="fill:none;fill-opacity:1;fill-rule:evenodd;stroke:#000;stroke-width:1px;stroke-linecap:butt;stroke-linejoin:miter;stroke-opacity:1"/>
</svg>
