<svg xmlns="http://www.w3.org/2000/svg" width="390" height="480">
    <path d="M.004.004 390.01-.031c-.015 270.034-.019 274.018-.019 274.03 1 274.633-389.982 274.639-389.985 0L.004.003z" style="fill:#000;fill-opacity:1;stroke:none"/>
    <path d="M107.86 357.966c15.403-13.133 14.077 1.094 11.187 5.021-2.185 2.968-2.594 4.92-2.543 6.801 6.976 1.178 10.543 3.44 13.856 5.784-4.159 5.968-12.11 8.714-21.991 4.322l-2.352 6.165c21.197 9.125 10.308 31.248-8.326 33.75 1.898-3.228 3.361-6.564 3.241-10.296-2.576-1.794-5.37-3.656-.953-11.377-.932-2.837-1.599-5.373-4.894-5.212-10.287.5-12.791 10.56-12.013 15-2.161.016-3.344-.702-4.894-1.144-3.975.932-4.615 5.003-5.847 8.517-3.556-4.516-6.455-9.657-4.259-16.78-5.745.253-7.343-6.785 1.335-9.407 3.512-1.06 15.567 5.809 12.203-2.288-3.814-9.18-14.133-3.46-18.432-2.86-2.74.382-4.008-2.705-4.131-5.784l-9.916 3.686c.386-6.391 3.077-10.757 7.691-14.428 1.932-1.536-.455-4.179-2.733-5.084 2.786-2.755 10.087-4.872 14.11-4.386 11.03 1.332 11.36 16.352 19.004 17.415 4.559.635 11.9-9.948 20.657-17.415zM240.382 355.54c.927 4.169 3.243 11.171 7.165 11.293 3.887.12 8.527-5.308 12.405-7.865 1.243 8.033-5.382 19.094-10.607 21.168 1.103 3.095 3.622 5.412 7.775 5.933 6.673.836 9.26-4.942 15.506-4.225 11.79 1.353 18.538 14.438 13.213 19.685.988 3.862-.403 16.583-4.63 19.505-.603-6.387-.034-12.02-3.505-13.617-2.327 1.594-4.679 2.008-6.337 1.528-5.714-1.655-9.176-12.854-16.134-10.832-12.109 3.52 3.861 14.976 2.157 22.202-.801 3.397-4.903 4.873-7.326 4.944-1.826 2.424-.847 8.239-.135 12.854-4.959-1.262-10.89-7.122-11.146-13.843-4.941 2.101-7.547-.459-7.91-5.797-.282-4.164 6.2-7.995 6.787-11.011 1.41-7.25-11.194-1.826-10.742 1.078 1.308 8.402-1.539 11.33-7.775 12.09-2.6 4.03-1.73 8.42-.314 12.629-6.976-2.898-8.006-11.525-6.787-15.28-8.19-8.444-4.155-24.21 7.011-26.922 5.835-1.417 11.872-.357 17.393.63 1.388-5.83-.345-22.877-6.393-31.719-6.607-9.658 8.992-10.44 10.33-4.428z" style="fill:#f9423a;fill-opacity:1;stroke:none"/>
    <path d="M77.034 80.72c.376-15.762 16.484-21.85 28.856-21.737 22.386.205 52.19 32.29 57.966 41.314 14.17 22.136-1.236 90.879 10.55 117.076 4.72 10.489 38.566 17.154 38.136-6.865-.447-25-13.56-54.56-12.203-82.627 1.657-34.246 57.876-77.078 87.966-75.762 32.894 1.437 53.621 20.48 77.956 34.29 5.741 3.258 8.276 30.56 5.497 28.633-29.239-20.274-53.707-44.198-84.216-44.11-2.67.008-2.537 3.052.127 3.051 24.639-.009 49.32 21.254 67.5 38.136 4.485 4.164 10.035 30.806 7.882 28.728-15.678-15.127-32.062-31.698-48.56-43.093-16.906-5.506-35.847-7.908-50.72-7.627-9.232 8.641-27.72 22.764-35.72 27.33.176 30.284-4.303 60.044-7.119 90-.267 2.84 3.011 3.023 3.305.636 3.736-30.3 5.881-62.644 11.568-90.762 13.653-12.582 29.696-19.17 48.432-18.814 10.667.202 20.927 3.343 31.271 5.847 16.965 12.928 35.2 30.158 51.356 48.305 3.117 3.5-.715 9.786-2.923 7.628-16.601-16.227-30.167-31.985-51.61-34.45 31.847 18.934 54.382 59.177 54.788 79.068-30.082-31.615-59.489-66.869-81.61-66.61-20.122.235-26.1 21.725-31.401 43.567-4.88 20.108-9.238 40.683-10.803 44.908-.653 1.763 1.602 2.378 2.161 1.017 2.905-7.078 8.088-46.42 20.723-70.023 4.469-8.347 13.085-14.068 21.862-14.003 14.383.108 34.915 20.13 31.144 29.873 10.485 7.763 19.864 15.69 31.271 28.602 2.387 2.702 10.987 43.368 10.551 53.008-.84 18.58-17.398 28.194-4.195 49.83-23.947 2.54-14.577-60.845-21.864-91.27l-36.23-19.322-32.669 50.211c-1.31 2.014 2.15 3.105 2.924 1.907l27.076-41.949c8.807 2.625 22.2 13.99 25.678 23.008-2.03 26.643 18.05 57.2.255 71.95.015-16.387-10.993-58.49-18.306-61.144-6.237 22.567-24.062 64.026-54.152 80.339 8.487 25.446-6.642 36.842-19.818 40.642l-25.563-26.405c-15.637 2.463-30.446 2.188-45.128-2.415-3.31 8.771-21.024 45.052-50.503 26.822l10.842-40.043c-23.188-8.553-45.984-53.082-49.067-98.77l-5.848 6.99c1.617-27.491 11.257-53.97 23.009-76.398 2.706-5.165 25.243-11.342 24.025-25.805-.44-5.229-2.364-16.765-5.847-17.415-18.267-3.41-28.888-13.216-28.602-25.297z" style="fill:#fff;fill-opacity:1;stroke:none"/>
    <path d="M81.347 100.365c-10.295-1.635-22.775-2.054-27.235-8.81 3.975-3.62 12.48-3.283 18.92-3.28.87 0-10.018-7.462-11.55-6.472l-13.213 8.54c1.406-17.784 8.482-18.314 29.866-21.446-11.82 23.19 13.004 33.666 13.28 38.614.7 12.576-6.088 26.61-14.382 23.64-7.216-2.584-4.23-20.51 4.314-30.786zM95.988 57.512c31.367-7.717 52.475 29.573 72.55 30.224 2.369.076 3.6-16.26 1.168-17.798l-12.944-8.18c6.859-18.817 28.031-6.363 41.977-12.224 6.605-2.776-24.252-22.897-27.955-21.753-7.326 2.265-16.296 9.46-24.719 15.011l2.787-16c5.1.346 10.602 1.438 14.112-1.168-2.128-4.343-12.867-8.437-18.337-8.719-8.93-.46-19.55 12.635-28.404 22.382-2.496-6.403-5.745-12.053-10.157-16.54C94.47 25.65 92.95 46.59 95.988 57.513zM93.247 58.187c-5.501 1.558-10.736 5.345-14.157 9.573-4.45-8-8.486-18.899-9.483-29.932 4.23-1.394 9.852 1.07 12.719 4.584 3.354 4.11 7.485 10.095 10.92 15.775z" style="fill:#f9423a;fill-opacity:1;stroke:none"/>
    <path d="M93.242 104.81c-.238-1.609 9.772 1.84 9.947 3.59.66 6.633 1.369 14.223-2.066 20.753-1.873 3.56-15.757 5.62-13.856 1.589 3.651-7.744 7.584-15.047 5.975-25.933z" style="fill:#f9423a;fill-opacity:1;stroke:none"/>
    <path d="M127.1 79.826a22.831 17.977 0 1 1-45.663 0 22.831 17.977 0 1 1 45.662 0z" transform="matrix(1.0122 0 0 .9705 -2.26 2.895)" style="fill:none;stroke:#000;stroke-width:2.01790428;stroke-linecap:round;stroke-linejoin:round;stroke-miterlimit:4;stroke-opacity:1;stroke-dasharray:none"/>
    <path d="M127.1 79.826a22.831 17.977 0 1 1-45.663 0 22.831 17.977 0 1 1 45.662 0z" transform="matrix(.25305 0 0 .24262 67.996 59.919)" style="fill:none;stroke:#000;stroke-width:8.07161713;stroke-linecap:round;stroke-linejoin:round;stroke-miterlimit:4;stroke-opacity:1;stroke-dasharray:none"/>
</svg>
