<svg xmlns="http://www.w3.org/2000/svg" xml:space="preserve" viewBox="30.5 31.5 420 500" height="500" width="420">
    <path style="fill:#fff;stroke:#000" d="M41 32.7c-2.09 102.46 3.38 187.49 43.93 296.59 28.05 75.48 74.21 144.77 155.57 201.59 81.36-56.82 127.52-126.11 155.57-201.59C436.62 220.19 442.09 135.16 440 32.7c-133 .29-266 0-399 0z"/>
    <path style="fill:#000;stroke:none;stroke-linecap:round;stroke-linejoin:round;stroke-opacity:1" d="M215.172 384.213c-8.535-8.87-22.47-1.465-28.29-27.829-2.774-12.562-7.874-7.694-15.53-31.241-1.817 2.096-2.853 5.242-2.518 9.046-3.623-1.797-6.078-6.221-8.03-9.967-1.964 2.825-2.151 6.928-1.95 11.086-7.98-6.556-10.208-14.728-11.097-21.916-2.248 2.584-3.021 6.371-3.264 10.072-4.67-6.313-8.121-13.16-9.979-20.703-1.926 1.115-4.064 4.717-5.216 8.097-5.686-4.854-7.599-14.781-7.654-22.18-3.065 3.925-3.722 9.456-4.196 15.108-7.7-7.116-7.823-16.55-7.274-25.553-3.56 1.898-7.696 5.104-10.166 9.047-1.504-12.51 1.194-23.418 5.223-34.133-3.945 1.03-8.52 4.371-12.124 7.927-.416-10.719 1.879-20.328 5.316-29.47-3.429 1.792-7.235 6.271-10.445 10.818.008-11.6 3.786-21.44 9.046-30.589-3.34 1.008-8.099 4.06-11.191 6.528 1.952-8.471 5.981-15.965 10.911-23.035-3.623.874-8.08 3.21-11.657 5.969 3.934-14.438 14.366-20.64 24.393-28.813-34.986-26.113-30.224-65.005-11.508-80.603 13.37-11.141 33.738-10.546 54.963 15.602 0 0 18.444-14.434 39.189-16.603 20.174-2.11 33.288 1.168 48.376 1.001 15.088.167 28.202-3.11 48.376-1 20.745 2.168 39.189 16.602 39.189 16.602 21.225-26.148 41.593-26.743 54.963-15.602 18.716 15.598 23.478 54.49-11.508 80.603 10.027 8.172 20.46 14.375 24.393 28.813-3.578-2.76-8.034-5.095-11.657-5.969 4.93 7.07 8.96 14.564 10.911 23.035-3.092-2.468-7.851-5.52-11.191-6.528 5.26 9.149 9.038 18.99 9.046 30.589-3.21-4.547-7.016-9.026-10.445-10.818 3.437 9.142 5.732 18.751 5.316 29.47-3.603-3.556-8.179-6.898-12.124-7.927 4.029 10.715 6.727 21.622 5.223 34.133-2.47-3.943-6.607-7.15-10.166-9.047.548 9.003.427 18.437-7.274 25.553-.474-5.652-1.131-11.183-4.197-15.108-.054 7.399-1.967 17.326-7.653 22.18-1.152-3.38-3.29-6.982-5.216-8.097-1.858 7.543-5.31 14.39-9.979 20.703-.243-3.7-1.016-7.488-3.264-10.072-.89 7.188-3.117 15.36-11.098 21.916.202-4.158.015-8.261-1.95-11.086-1.951 3.746-4.406 8.17-8.029 9.967.335-3.804-.701-6.95-2.518-9.046-7.656 23.547-12.756 18.679-15.53 31.241-5.82 26.364-19.755 18.959-28.29 27.829l-25.328 2.504z"/>
    <path style="fill:#fff;fill-opacity:1;stroke:none;stroke-linecap:round;stroke-linejoin:round;stroke-opacity:1" d="M213.67 345.92a47.112 47.112 0 0 1-11.008-15.437c-1.679 4.476-1.582 8.649-1.147 14.244-14.902-11.275-15.781-64.29-5.6-58.357 7.227 4.211 13.692 7.47 19.736 9.855 8.71 3.437 16.594 5.024 24.849 5.067 8.255-.043 16.14-1.63 24.85-5.067 6.043-2.386 12.508-5.644 19.735-9.855 10.181-5.933 9.302 47.082-5.6 58.357.435-5.595.532-9.768-1.147-14.244a47.112 47.112 0 0 1-11.008 15.436c-6.216 5.774-17.532 8.391-26.83 8.53-9.298-.139-20.614-2.756-26.83-8.53z"/>
    <path style="fill:#000;stroke:none;stroke-linecap:round;stroke-linejoin:round;stroke-opacity:1" d="M197.75 289.724c-3.48 16.842 5.459 31.249 9.04 35.605.449-7.424 1.34-16.357 5.316-19.957.045 2.516 3.506 9.656 6.582 10.555.29-3.822 2.399-7.666 5.122-8.948-.305 2.76 1.833 7.072 4.43 8.278.718-2.049 2.091-4.4 4.415-5.506.964 2.759 2.53 4.736 4.627 5.63.942-2.368 1.908-3.752 3.218-4.45 1.31.698 2.276 2.082 3.218 4.45 2.097-.894 3.663-2.871 4.627-5.63 2.324 1.106 3.697 3.457 4.415 5.506 2.597-1.206 4.735-5.518 4.43-8.278 2.723 1.282 4.832 5.126 5.122 8.948 3.076-.9 6.537-8.04 6.582-10.555 3.975 3.6 4.867 12.533 5.316 19.957 3.581-4.356 12.52-18.763 9.04-35.605-18.53 10.11-28.567 13.233-42.75 13.589-14.183-.356-24.22-3.478-42.75-13.589z"/>
    <path style="fill:#e00e00;fill-opacity:1;stroke:#00000f;stroke-opacity:1" d="M212.006 346.229c2.414-10.186 16.51-18.407 28.494-8.507 11.985-9.9 26.08-1.68 28.494 8.507 8.03 33.887-6.967 54.632-28.494 54.34-21.527.292-36.524-20.453-28.494-54.34z"/>
    <path d="M197.49 200.927c-8.18-8.713-22.192-12.703-28.537-14.759" style="fill:none;fill-rule:evenodd;stroke:#fff;stroke-width:3.5;stroke-linecap:round;stroke-linejoin:miter;stroke-miterlimit:4;stroke-dasharray:none;stroke-opacity:1"/>
    <path d="M181.914 191.832c-3.648 3.656-3.432 10.054.708 13.56 5.266 4.46 13.78-1.008 14.868-4.465" style="fill:none;fill-rule:evenodd;stroke:#fff;stroke-width:3.5;stroke-linecap:round;stroke-linejoin:round;stroke-miterlimit:4;stroke-dasharray:none;stroke-opacity:1"/>
    <path style="fill:none;fill-rule:evenodd;stroke:#fff;stroke-width:3.5;stroke-linecap:round;stroke-linejoin:miter;stroke-miterlimit:4;stroke-dasharray:none;stroke-opacity:1" d="M283.51 200.927c8.18-8.713 22.192-12.703 28.537-14.759"/>
    <path style="fill:none;fill-rule:evenodd;stroke:#fff;stroke-width:3.5;stroke-linecap:round;stroke-linejoin:round;stroke-miterlimit:4;stroke-dasharray:none;stroke-opacity:1" d="M299.086 191.832c3.648 3.656 3.432 10.054-.708 13.56-5.266 4.46-13.78-1.008-14.868-4.465"/>
    <path style="fill:none;stroke:#fff;stroke-width:3.5;stroke-linecap:round;stroke-linejoin:round;stroke-miterlimit:4;stroke-dasharray:none;stroke-opacity:1" d="M250.74 270.852c-.396-12.543 10.906 2.231 15.946 2.498 3.107.165 5.921-3.105 6.008-10.591.166-14.303-17.363-20.017-32.194-19.872-14.831-.145-32.36 5.57-32.194 19.872.087 7.486 2.901 10.756 6.008 10.591 5.04-.267 16.342-15.04 15.947-2.498"/>
</svg>
