<svg xmlns="http://www.w3.org/2000/svg" id="Layer_1" data-name="Layer 1" width="852.599" height="1001" version="1.1">
    <defs id="defs4">
        <style id="style2">
            .cls-2{fill:#f6be00}
        </style>
    </defs>
    <path d="M695.43 722.15C788.48 559.604 851.599 327.954 851.599 0H1c0 327.954 63.248 559.604 156.169 722.15l73.53 108.667A701.197 701.197 0 0 0 425.908 1000a701.197 701.197 0 0 0 195.21-169.183Z" id="path8" style="fill:#0067b2;stroke-width:13.01405525"/>
    <path class="cls-2" id="polygon10" transform="matrix(13.01406 0 0 13.01406 -4430.156 0)" style="fill:#f6be00" d="m375.44 38.83 9.14-2.59-9.14-3.62z"/>
    <path class="cls-2" d="m707.143 403.436 71.837-103.072a9.37 9.37 0 0 0 0-10.541c-24.857-33.316-125.585-84.331-322.878-155.518v86.934c98.125 50.755 206.793 124.675 251.04 182.197z" id="path12" style="fill:#f6be00;stroke-width:13.01405525"/>
    <path class="cls-2" d="M691.916 409.813C649.23 356.325 548.762 288 455.841 238.548V407.73l148.23 58.564z" id="path14" style="fill:#f6be00;stroke-width:13.01405525"/>
    <path class="cls-2" id="polygon16" transform="matrix(13.01406 0 0 13.01406 -4430.156 0)" style="fill:#f6be00" d="m370.9 32.62-9.14 3.62 9.14 2.59z"/>
    <path class="cls-2" d="m160.682 409.813 87.845 56.22 148.36-58.563V238.287c-93.05 49.714-194.039 118.038-236.205 171.526Z" id="path18" style="fill:#f6be00;stroke-width:13.01405525"/>
    <path class="cls-2" d="M426.3 41.645c-10.282 0-10.282 7.808-10.282 26.028v442.478c1.692 37.22 2.863 37.22 10.281 37.22 7.418 0 8.59 0 10.412-37.22V67.673c.39-18.22.39-26.028-10.412-26.028z" id="path20" style="fill:#f6be00;stroke-width:13.01405525"/>
    <path class="cls-2" d="M73.879 289.823a9.24 9.24 0 0 0 0 10.541l71.577 103.072c44.248-57.522 153.175-131.442 251.432-182.197v-86.934C199.464 205.492 98.736 256.507 73.878 289.823Z" id="path22" style="fill:#f6be00;stroke-width:13.01405525"/>
    <path class="cls-2" d="M413.285 669.573c2.733-190.135-240.89-183.368-238.027-47.892 2.082 102.03 142.244 99.428 142.244 23.686 0-59.995-66.892-50.495-66.892-18.87a20.432 20.432 0 0 0 34.487 16.788c0 32.405-70.146 31.754-70.146-21.604 0-81.598 144.456-82.248 144.456 24.987 0 94.743-118.298 128.319-202.499 75.482a816.762 816.762 0 0 0 73.66 108.667c89.406 1.172 181.286-62.988 182.717-161.244z" id="path24" style="fill:#f6be00;stroke-width:13.01405525"/>
    <path class="cls-2" d="M493.322 646.668c0-107.235 144.326-106.585 144.326-24.987 0 53.358-70.146 54.009-70.146 21.604a20.432 20.432 0 0 0 34.617-16.788c0-31.625-67.022-41.125-67.022 18.87 0 75.742 140.161 78.084 142.243-23.686 2.864-135.476-240.76-142.243-238.027 47.892 1.432 98.647 92.79 162.416 182.197 161.244a816.762 816.762 0 0 0 73.66-108.667c-83.68 52.837-201.848 19.651-201.848-75.482Z" id="path26" style="fill:#f6be00;stroke-width:13.01405525"/>
</svg>
