<svg xmlns="http://www.w3.org/2000/svg" version="1.2" viewBox="0 0 1080 1080"><defs><clipPath id="a" clipPathUnits="userSpaceOnUse"><path d="M541.6 1075.3c-138.9-100.7-234-228-291-388.9C199 540.5 178.3 363.7 187.3 146v-.9h709.6v.9c9 217.8-11.7 394.6-63.3 540.5-57 161-152.2 288.2-291 389l-.5.3z"/></clipPath></defs><g clip-path="url(#a)"><path fill="#0086cb" d="M541.5 1075.3c-138.8-100.7-233.9-228-290.9-388.8-51.6-145.9-72.3-322.8-63.3-540.7v-.7h709.5l.2.7c8.9 217.9-11.8 394.8-63.5 540.7-56.8 160.8-152.1 288.1-290.9 388.8l-.6.3z"/><path fill="#fff" fill-rule="evenodd" d="M585.9 117.4a51.5 51.5 0 0 0-92.4 0L390.1 329.5l-230.3 34a51.3 51.3 0 0 0-28.6 87.2l167.2 165.4L259 849.6a51.4 51.4 0 0 0 74.9 53.8l205.9-109.9 205.9 109.9a51.4 51.4 0 0 0 74.9-53.8L781 616.1l167.2-165.4a51 51 0 0 0 12.7-52.3 52 52 0 0 0-41.3-34.9l-230.5-34z"/></g><path fill-rule="evenodd" d="M895.7 145.1c16.8 410.1-67.8 721.1-354 928.7-157.9-114.6-254.3-260.5-306.4-437.2q-1.5-4.9-2.8-9.9-1.5-5-2.8-10.1-1.5-5-2.8-10.1l-2.6-10.1a1362 1362 0 0 1-37-276.3c-2.3-56.2-2.1-114.5.5-175zM186 143.4v1.7c-9 217.8 11.8 394.7 63.3 540.8 57 161.1 152.3 288.5 291.3 389.4l1.1.7 1.1-.7c139-100.9 234.3-228.3 291.3-389.4 51.5-146.1 72.3-323 63.3-540.8v-1.7z"/><path fill="#005079" fill-rule="evenodd" d="m514.4 200.6 13.4 5-3.3-7.6 2.2-2.3-1.3-4.1-5 2.6-.8-3.2-7.8-2.8.2-2.2 6.9-1.5 4.6 4.1 12.6 5.6 7.4 11.8-4.6 1.7 1.6-2.6-2.4-3.4-2 3.2-7 1.5 12.7 10.1 1.9-1.5-4.7-4 5.3 1 4.3-3-1.7-2.6 9.1-1.9 2.1 7.3 15.1-2.1-1.3-1.3 20.9 1.1 1.7-4.8-1.7-5.2-3.9-2.7-6.9-1.3-12.3 2.6 15.3-3.7 14.4 4.7 6 6.5 15.1 8.6 3 8.8 4.1-2.1-1.7-3 8.2 2.9-12.5-7 4.5.2.6.4-.6-.4 11.6 4.9 12.3 13.4 15.1-4.8 10.1 2.2 10.5 7.3 11 12.7 18.5 11 12 19.3 14.2 14.2-2.8-.4 3.5 9.2-1.3 1.4 9.9 6.8-1.5-6.4 3.4 7.7 13.6 16.6 5.2 11.6v2.2l-1.5-1.3-2.8-8.2-8.5-11 .9 17-2.4-6.2-11.8-.2 3.2 4.9 12.1 4.7-12.9-3.4 2.4 9 10.9 5.9-9.4-4.1.2 2.8 14 16.5 10.7 23.3 4.7 3.6-3.4.2 4.1 19-14.2 22.1 4.3 18.1-2.8 12.9-3.4-.4-.5 2.8h2.8l-4.3 3.2 2.6 12.1-3.7 3.8 3.5 16.4-3.5 6.3-5.6.2-3.2 3.4 2 1.9 3.8-3.2-4.3 5.4 1.8 6.4-1.6-.2-.6 5.6-1.9-.8 1.5-9.1-3.7 1.3 1.9 11.4-10.3 1.1 3.7 4.1-.9 6.4-1.9 6.5 3.4.4-1 3.5h2.8l3.8 12.2-2.1-1.3 2.3 10.6-2.5 9-18.3 34.5-4.1 1.3-8.2-14.3-.9 2.9-3 4.2h-2.8v-2.8l9.3-26 8.2-34.8 1.5-13.6-1.8-6.9 1.8 1.3.2-1.7-4.3-12.5 4.1 3.5-2.2-7.8h-2.2l2.6-.6-6.4-6.5-.7-8.8-3.2-1.5.7-4.1-8.4 5.2-1.3-3.7 4.3-3.2-2.4-1.6-3.6 2.4-7.8-26.2-3.2.2.2-3.9-2.8 2.8-1.9-1.3 2.8-2.3-3.7-2 2.4-2.3 1.3 1.5-1.8-3.5-3.8 3-3.7-1.9 2.2-4.5-3.1.2 2.8-2.2-1.7-2.5-1.3-.9-.4-2 .4 2 1.3.9-1.1 1.9-2.7-1.1-1.6-3-2.1 3.7-2.6-4.4h3.4l-.8-3.8-2.6 1 3-1.7-4.5-10.7 1.9-1.1-1.7-3 2.4.8-2.6-4 3 1-1.5-6.9 2.8-2.8-3.5-1 1.1-3-2.1-1.8 1.9-4.3 1.9 1.3-2.7-4.5 2.7-1.1 2 2.4.6-5.2-2.1-4.5 1.3-2.1 2.8 2.8 2.6-8.9 3.4.3-2.2-2.8 7.2 3-2.8-5.6-4.6 2.1-1-2.1-1.5 3.8-1.3-3.6 3.4-2.4-2.6-2.3-.2-5.6-3.7.4.1-1.9 3 1.2-1.8-3-10.5-7.9-2 1.1-1.5-2 3.1-.6-.5-2.6-1.9 2.1.4-6.4-3.8 1-4.1-3.8 3.2-1.1.9-3-8.6-.9-1.4-4.7-4.7 2.1 2-3.8-6.7-.4v-2.6l-2 3.8-7-3.6 1.7-2.6-9.7 1.5-3.4-3.2-2.6 1.1h-5l-.6-2.6-5.2 1.7 1.3-4.8-9.9-1.7-.6-2.8-.5 3-3.2-2.1.6 2.6-4-.4v3.4l-3.1-4.3-6.6 3-3.5-.7 2.6 3.9-4.9-1.9-15.3 3.9-4.8-1.8-.2 2.2 8.2 3.9-8.4-2.6-6.7-10.3 3.1 7.1-5.8-.9-2.6-9.5.4 6.5-3.9-2.4-2.4 1.7 2.2-12.9-3.4 5.2-2-4.5.4-4.1 3.1-.2-1.8-14-.6 2.4-2.4-.7 2.4 6.2-10.3 1.6 5.8 3.4 1.9-1.7.5 2.8-2.4 1.5-2-1.7-.4 2.8 3.9 1-6.7 2.4-.6-2.6-4.1-1.3 3.8 4.7 4.1.9-11.2-.4 5.6 2.6-10.3-1.1-4.7 1.5.4 2.2-2.1-1.8-1.3-.8-2.2-.7 1.3 1.5.7.9 4.9 4.5 14.4 1.5-4.7 1.5-10.5-1.7-16.2-11-1.3 1.8 5 3-13.8-4.3-5.2 3.4-6.9-.4.1-1.7-8.5 3.6-1.4-3-2.9 1.1-3.4-2.6.9 4.3-9.3-6.9-4.3 3.7-3.9-3.1 1.3 3.7-6 .7-3.9.2 1.7 1.9-3.6 1.9-2.6-4 3.9-.1-7.1.3 3.2 2.1-8 1.3-1.7-2.1-.4.2-.2-2.8-3 1.3-.2 4.5 31.8-.2-26.5 3.9-4.9-1.6-1.9 1.5 8.5 2.8-5.3-1.2 1.1 3-5.7 1.3-1.2-2.6-2.6 1.1-6.1 1.9 1.8.8 1.7 2.9 9.9 2.3 24.8-1.9-24.2 4.1-11.1-4.3-4.3 1-2.8-3.4 1.9 4.1-2.2-.2-2.3 5.1 16.7-.2-19.5 3-4.8 6 2.6 1.1-2.1 1.7 3.8-1-4.9 2.8-4.3 9.2.2 2.8 3-1.1-5.6 5-.4 3.4-2.6.7 2.2 2.8h-2.8l-3.9 10.3 1.1 2.6-4.1 4.3 5.1 5.6-.8 3.9 2.4 3.6-6.3 14.6 12.3-18.2-7.1 19.3 2.6-1.1 1.3 5.9-3.1 1.2-9.7 12.1 3.3-.2 3.6-4.7.7 3.8 6.6-8.6-.4 3.9-5.4 5.8 1.5 1.9-15.9 14 1.5 1.8-2.1 1 2.4.7 2.7-6.1 5.6-1.9-5.1 4.5-1.5 3.7 3.2-3v2.3l-3.7 3-.2-.6-2.6 9 5-.6-9.1 9.9.1 6-2 1.1-1.3-4.3 1.8 6.9-5.4 19.1 3.2 32.7-8.8-15.4-14.4-12.1 9 2.6-.9-4.3-10.9-18.8-3.5-14.8-5.6-5.1 1.7-2.6-5.6-8.2-3-.4-.2-3.3.5 9.9 2.8 2.8-6.7-5.3-.2-3.3 2.6-11.8 8.8-13.1-2.6-7.1 3-4.6-3-6h2.3l-2.5-.6-.3-4.8 3.9-7.1.4-6.7-4.3 1.4 4.8-16.6 5.2-6.7 3.4-.2-5.8 6.9 6-5.8 2-11.6 5.3-6.7-1.3-3.5-3.6-.4-8.6 3.9-.3-2 12.1-6-2.2-2.3-1.9 3.8.4-11.2 7.1-5.4 3.3-8.1 8.4-5.2 5.8-14.6 21.9-22.6 4.1-1.3v-.6l-.2-.5 1.7-.4 10.6-2.2-8.2 1.1-1.7-.8.4-.5.4-1.1-.2-.6.7-1.3 1.9-7.1 5-2.2 2.1-6.6 5.8-6.7 5.2-1.7-.2-3.4 9.2 1.4 3-20.2 13.6-16.8 10.5-3.4 3.3 13.3 8.6.3 23.2-18.8 20.7-7.9-5.6-2zM383.1 285l.8-1.9 1.1-.1.2.9-.4.7zm-1.7 2.6h-2.8l4.5-2.6.7 1-1.5.9zm1.2.2-1.2-.2 1-.4zm126.1 28.8.9-.7 1.3.9-1.5.9zm91.6 171.7-.4-4.5 2.6-.5-2.4-4h7.6l5.8-6.7 3.4 2.6 3.7-.7.2.4-.2-.4 3-2.4-.7 4.6 13.8-.7 5.4 2.2 2.6-3.3 3 3.1 6.4 1.5 8.4 2.6-6.9-3.5 1.3-1.9 7.8 5.1 12.7 5 10.1 7.9-2.1-4.5-2 .9-.4-4.5h2.8l13.1 9.6 4.3-1-5-2.8 7.4.6.8-6.8 1.7 7.9 2.8.6-4 2 .4 4.9 3.4-.2.9 12.1 2.6-.5 1 4.3-3.6 1.8-1.3 3.6 2.2.2-3.7.7-1.3 4.1-6.5-6.3-3.6 6.3h-.6l-1.4-4.1 3.7-3v-3.3l-4.5-.2-.6-2.6h2.7l-2.8-.6-.2-6-8.1-1.1 6.9-1.5-2.9-3.7H684v-2.8l-3.2.7-.2-2.8-4.5-.7v-2.3l4.5-.4-12.5-.7-2.1-1.7h5.1l-10.7-3.2-18.3 3.2 2.1-3.2-4.5 2.1-2.3-2.2-2.6 1.1.2-4.5-3 1.1 1.5 2.4-4.5-.1-.3-2.1 11.7-5.2-13.4 5-1.9-.7 1.7-2.6-5.1 2.8-1.8-3.6v2.8l-6.6 2.6-1.8-3.5zm-32.7 311-38.7-3.5-12.3-.6-5.4-.9-3.8-.8-2.2-1.5-2.3-2 1.3-1 1.2-.7.7-.7 1.7.3 1.1.8 1 .3 1.3.4.9.2 2 .9 2.1 1 1.5.4h1.5l1.7-.6h1.3l1.1-.4 2.2.2 2.8.6h4l2.4.2 1.9.3 7.8.4 12.9.6 1.3-.2h6.9l21.5-11.8.9-1.5 1.5-.7 1.9-1 1.9-4.5 1.8-1.8.8-1.7 1.5-1.5 1.1-1.5 1.5-2 2.1-5.5 5.9-6.3 2.3.7 2-6.5 1.3 4.1 4-5.8 3.9.8-.4-2.3 6.4-1.3.3-.6 8.4-5.7 3 1.1.6-2.5 2.4.6-2 1.7 3.3-.8 8.6-11.9.4 2.2 4.3-.9-2.3-2.4 4.5-2.7 2.5 3.4.1-4.5 5.1.6 4.8-6.6 3.2 2.1-.7-3.7-3.8-1.3 6.2 2.4 6-6.2 3.3 6-4.3-2.4-3.3 2.4h4.8v5l10.7-13.4 7.3-9.9 7.1-21.7 2.2.2-.7-3.7 3.1-.8.4-3 2.1 4.1 3.7 4.3 2.1-1.1-1.5 3.8h5.6l-.2 2.2L687 727m-59.6 15.9-1.9-1.3 2.2.7zM519.5 188.7h.5v.5h-.4zm2.8 2.8.4-.2.2.6-.6.2zm-19.6 9.7h.6v.4l-.4.2zm-5.2 1.6 1.7.8-1.3 1.3zm5.4-1.1 1.5 2-2.1-1.8zm-65.7 16.2 5.4-.5 1.7 4.6zm40.1-7.5 5.8 1-6 .7zm-43.9 11.1 5.6.5 4.5 5.2-1.9 1.5-5.7-3.3-7.7.5zm43.9-6.5.4-.2.2.6-.6.2zm-49.5 16 8.6-1.1 3.9 1.9-19.6 12.5.9-5.8zm34.2-6.7h.6l.2.3-.6.2zm68.4-11.4 4.1 1-1.3 1.8zm10.3-1.6h.5v.5h-.4zm-100.3 22.1 1.1 2.6-3.1.5zm158.9-23.9-1.1-2 1.7.2zm2.4-2.1 3.4-.2-1.3 2.4zm-172.4 38.2h2.2l-2.4 2.2zm169-34 .6-.2v.6l-.6.2zm9.8-2.1.5-.2v.6l-.5.2zm2.2-.6h.6v.6h-.6zm-11.6 3.1 5.8 1-6.5.7zm13.4-2.8.6-.2v.6l-.6.2zm-196 45.4 3.8 6.9-6.4-.9 3.2-2.9zm211.1-40.7.6-.2v.6l-.4.2zm.6.4.5-.2.2.5-.6.2zm-184.7 43.9h.5l.2.4-.5.2zm-39.6 12.9h.5v.5h-.5zm235.9-47 .6-.2v.5l-.6.2zm-.2 1.1.6-.2v.6l-.6.2zm3.2.9h.4l.2.6h-.6zm.8.4h.5v.5h-.5zM386.8 282h.6v.4l-.6.2zm257.1-55.1h.6l.1.5h-.5zm-150.8 32.9.6-.2v.6l-.6.2zm-106.8 24.1.5-.2v.5h-.5zm266.4-50.2.5-.2.2.6-.5.1zm3.9-.3 7.4 1.6-2.9 1.4zm-255 56.7h.5v.4l-.4.2zm141.3-20.2 1.7-9.9.9 9.4-4.3 13.6-1.3 1.5-3-3.4h2.8l-.7-5.9zM402.4 291h.5v.5h-.3zm-12 4.9.6-.2.1.6-.5.2zm282.8-54.6 3.4-.2 1.3 3.7zm-229.6 50.3 1.7.8-2.1 2.6zm-80.9 20.7.4-.2.2.6-.6.2zm-.2 3.9.6-.2v.6l-.6.1zm115.3-24.6 2.3 2.2-1.5 1zm60.7-13.1h.5v.5h-.3zm-3 4.5h.5v.6h-.3zm-171.7 39.6.3-.2.2.6-.5.2zm76-15.2.6-.2v.6l-.6.2zm-55.3 12.3.6-.2.2.6-.6.2zm43.7-9.4.6-.2v.6l-.6.2zm25.8-5.1h.6v.4l-.4.2zm34-7.3.5-.2.2.6-.5.2zm49.5-10.7.5-.2.2.6-.5.2zm5.4-1.1.3-.2.2.5h-.5zm-125.4 29.2-3.7 3 .4-3.4zm19.9-5.4h.6v.4l-.6.2zm51.2-11.1h.6l.2.6h-.6zm55.5-11.8.6-.2v.6l-.4.2zm-196.7 43.1.5-.1.2.5-.5.2zm76.7-16.4h2.3l-2.3 2.2zm11.3-1.9.5-.1.2.5-.6.2zm-14.7 4.1h.5l.2.6h-.5zm110.4-23.6.5-.2v.6l-.5.2zm-44.7 10.1 2.5.5-.8 1.9zm58.9-12.1-1.2 3 .4-3.4zm-.2-.6h.6l.2.6h-.6zM464 309.3l.6-.2v.6l-.6.2zm22.1-4.1.5-.2v.5l-.3.2zm.5.4.6-.2.2.6-.6.2zm-3.2 1.1h.6l.2.3-.6.2zm73.1-15.7h.5v.6h-.5zm-80.4 17.7h.6l.2.6h-.6zm-7.3 2.6h.6v.6h-.4zm62.4-13.3.4-.2.2.6-.6.2zM486 308.1h.6l.2.5h-.6zm-72.3 16.7h.6v.3l-.6.2zM530.1 300l.4-.2.1.5-.5.2zm-52.5 12.9.6-.2.1.6-.5.2zm81.1-17.4.5-.2v.6h-.4zm-32.5 7.6.6-.1.2.5h-.6zM391 333.8l3.5.9-3.3 1.9zm127.2-20-9.4-2.5.2-1.6zM396 334.3l.4-.2.2.6-.6.2zm1.4.3.3-.1.2.5h-.5zm139.1-29.7.6-.2.2.6-.6.2zm-20.5 5.4h.5v.4l-.5.1zm-129.9 31.2 2.1-.3 1.1-.4-3 9.5L379 361l-1.8-1.3 4.3-6-3.4.2 7.8-5.1-5.9.8 2.6-3.4.5-.2zM541 307.3l.6-.1.2.5h-.6zM377.3 343l.6-.2.2.6-.6.2zm179.2-38.5 1.7.2-1.7 2zm-42.6 9.7h.6v.4l-.6.2zM717 272.3h.5v.6h-.3zM394.3 342l.6-.2.2.6-.6.1zm306.6-63.5v-2.2l.5 2.2zm16.7-5.2 5.6 4.9h-2.8zm-16.3 5.2.6-.2.2.6-.6.1zm6.4-1.4h.5l.2.5h-.6zM387 349.8l.3-.2.2.6-.5.1zm2 1.7h.6l.2.4-.6.2zm-1.3 1.5.4-.2.2.6h-.6zm-2.8 2.9.6-.1.2.5h-.6zm175.6-36.4.6-.2.1.6-.5.2zm26.9-1.9.5-.2.2.6-.5.1zm55.5-11.4.5-.1.2.5-.6.2zM560 325.6l.6-.2.1.6-.5.2zm39-7.8.6-.2.2.5-.6.2zm-222.3 48 1.3 1.5-2.8 1.7zm203.6-43.5.6-.2v.5l-.4.2zm9.6-2 .5-.2v.5h-.4zm51.2-10.8.4-.2.2.6-.6.2zm-311.2 72.6.7 8.3-10.2 9.5zm290.3-58.3 6.5-.9-5.6 3zm9.7-1.7 3 .5-4.7 1.7zm87.1-10.3.6-.1v.5h-.6zm26.3-5h.6v.5h-.6zm-84.4 24.9.6-.2.1.6-.5.1zm-291.4 66.7h.5l.2.6h-.6zm383-82 6.9 6.3-3.5-.3zm-379.3 83.5.6-.2.2.5-.6.2zm372.4-79.2h7.8l2.1 2.3-7 .9zm0 5 10.9 1.7 2.4 3.4-8.4-.4zm11.2-2.4.4-.2.2.6-.6.1zm.8 3.2v-2.8l3.5 3.8zM665 343.6l.6-.1v.5h-.4zm85.7-18.3.6-.2.2.6-.6.2zm1.1.2h.6l.2.5h-.6zm3 1.1.6-.2v.6l-.6.2zm-381.1 85 .6-.2.2.6h-.6zm301.9-56.3.6-.1.1.5-.5.2zm-299.5 68.6 1.5 1.3-2.6.5zm-4.9 6.2 1.9.7-5.4 6.2zm-54.4 17.2-1.1 4.7 4.5-7.1.5 4.8-5.4 6.2-3-.9zm47.7-12h.5l.2.4-.5.2zm-47.9 11.4.6-.2v.5l-.4.2zm48.2-9.3 1.9.7-4.1 2.1zm385-79.8 3.7 4.3.4 4.3-1.8-.7zM372 440.1l1.7-.2-.2 2.3zm-2 .9.5-.2.2.6-.6.2zm383.9-82.2 12.8 14.5 7 14.6-3.5-.4-6.4-8.5-7.1-4.7-1.4-7.5 4.8 7.3-1.9-6.2 1.9.6zm-386.1 83.3 1.8.8-1.8 3.7-2.3-2.2zm-49.3 12.1 2.4 8.4-1.8 1.5-2.3-2.8-1.1-4.9zm45.2-8 2.6 2.2-7.6 6.2v-2.8l5.9-3.5zm327.7-63.6 2.8 2.3 1.9-1.5 2.8 10.1-3.2-1.7-.5-5.4zm-327.5 77.9h.5v.5h-.5zm-9.9 2.8.5-.1v.5h-.5zm3.3-.5.4-.2.2.5-.6.2zm349.9-74.9.6-.2v.6h-.6zm-354.4 76.6.6-.2v.5l-.6.2zm8.3-.7.9 3.7-5.4 3.9zm395.8-82h.4l.2.6h-.6zm-60.3 17.4h.6v.5h-.6zm12.3-2.6h.6l.2.6h-.6zm-353.1 80.7.6-.2v.5l-.6.2zM767 389.2l6.6 4.3 4.4 7.8zm3.8 12.7-3.6-9.3 6.4 8.7-.8 1.7 2.3 5.3-2.3.3zm-72.8 6.2.5-.2.2.6-.5.2zm14.5 2.9.6-.1v.5l-.6.2zm53.3-9.1 1.8 2.9.8-1.8 1.3 6.3-3.2-2zm4.3-.4.6-.2.2.6-.6.2zm3.2-.8.5-.2v.6l-.3.2zm-.8 2.2h.6l.2.6h-.6zm.6.5.5-.2.2.6h-.5zm-64.3 15.5.6-.2.1.6-.5.2zm5.8-1.3.5-.2.2.5-.5.2zm-7 2.1.6-.2.2.6-.6.1zm58.1-10.2 4.5 3-3.3 2.2zm-58.9 14.4.6-.2v.6l-.4.1zm2.6 0 .6-.1.2.5h-.6zm65-13.8 2.8 2.2h-2.8zm-72.3 19.5.6-.2.2.5h-.6zm8-1.6h.4l.2.5h-.6zm57.4-11.2 2-.4 1 4.3-1.7-.2-.6 5.6-2.2-2.8-.8-3.7 3.4.4zm-346.4 77.5.4-.2.2.6-.6.2zm353.1-75.7h.6v.4l-.4.2zm-92.3 20.3.6-.2.2.6-.6.2zm8 11.6 4 2.4-2.5 1.7zm-69.6 23.9v2.2l-1.9-.7zm-2.1 3.2h.6v.3l-.6.2zm7.7-1.1h.6v.6h-.4zm-19.6 4.8.3-.2.2.6-.5.2zm21.3-4.7.5-.2.2.6-.6.2zm19.3.9.4-.2.2.6-.6.2zm-9.9 5.9.5-.1.2.5-.5.2zm.5.4.6-.2.2.6-.6.1zm10.3-1.6h.6v.3l-.6.2zm63.3-12.3.4-.2.2.6h-.6zm-45.7 15.5.5-.2.2.5-.6.2zm43.4-3.1 6.7 2.9-2.4 1.7zm.7 3.8.6-.2.2.5h-.6zm6.7 3.2.6-.2.2.6h-.6zM699 502.6l.4-.2.2.5-.6.2zm25.8 3.4.6-.2.2.5-.6.2zm3.9 3h.6l.2.4-.6.2zm-22.4 15.3h.6l.1.6h-.5zm25 28.7.6-.2.2.6h-.6zm4.3-.4h.6l.2.6h-.6zm10.1 5.6h.5l.2.6h-.5zm-1 1.3 3.2 1.6-3.5 1.9zm-31.1 69.7-1.1-5.4 2.5-7.1-1.5 8.6 3.7 1.5-.7 1.8 3.1-.7-.3 3.5 3.1 2.1-3.7-1.5.9 3.7 6-3-3.7 3.6 2.2.2-6.2 9.7-4.4 2.6-.8-16.6 2.1-.9.5 5.4.6-2.5.7 3.2 2.1-.4 1.7.2-1.7-.2-3.9-5.7zm-133.8-2.1 4.7 1.1.5 2.8 9.4-3.2 4.1-18.1-5.2-19 2.9-1.7 2.1 2.2 8.6 16.1 3 3.9 8.6 11.4 10.3 14.6 4.4 2.4v2.8l3.6 1 .9 4.2 6 4.3 2.1 6.8.3 7.1-1.1.3.2 5.5-2.4-.6-2.3 5-.2 2.3 1.7-2.6 1.5 1.3-4.5 2.6-4.5 7.7-4.3.9 1.2 2.6-4.7 1.5 1.1 2.6-3.9 2.4-.2 7.3-1.1-3-5.8 1.7 4.1-1.8-2-1.4 5.6-5.6-3.4.2-8 1.7 3.1 1.5-5.8 2.2 1.7 4.9 3.8-.9 1.3 3.7 3.1-3.5 1.4 1.3-5.1 7.2-2-1.3-1.5 6-.6.2-.7-1.5-1.4 1.9 2.1-.4-6.5 8-.8-3.1-1.9 4.3-2.2-.6 1.1 5.2-3.3 3-2.5-3.3v-5.6l1.7.1-2-4.4 2.2-2.8-3.9-.2.4 2-3.2-4.3 3.7-1.3 1.9-1.5-2.4-3.5 1.4-3.6 6 2.1-2.8-5.6 3 3.9 4.9-3.4v-2.2l1.1-.2.7.4-.7-.4-1.7-3-2.6 1.1-1.3-.9-.4-2.1-2.8 2.8-3.7 3.6-13.1 1.7-1.7 2.6h-4.8l-.6-2.2-6.2 4.8-5.9.6-.6-2.1-4.5 2.6-1.5-1.8-1.7 2-2.4-2.8 4.3-6.5 4.9 2.2 3.7-1.3 1.9-9.3-3.2-2.1 1.1-4.7 1.9.6-2.6-1.7.3-3.3-7.4-1.2-.6-2.2-8.2.7-3.6 14.2-3.5 4.2-3.4-5.5 4.1-1.5.8-6.9-3-5.9 2.4-1.7-12.9-5.6-6.3 1.8-13.1-1.5-6.4 4.7-2.8-3.4-9.1-.7-.2 9.9-7.5 6.7 1.3 5.8 4.9 1.9v5l-2.1 1 1-3.6-3.8 1.3-6.7-3-4.3-4.6-1.3 1.8-3.4.2.4-3.3-3 1.1 1.7-2.1-6-6.9-1.8 1.5-3.6-1.5 1.9 4.1 1.5 1.9-3.2.2-2.8-2.8-5-10.1 8.7-3.6 4-5.2 3.9.8 3.2-4.2 4.6 1.3 26.2-5v2.2l12.7-.5 8.6 3.2v-2.3h2.8l8.8 4.3 5.9-.2 36.1 1.3h15.5l4.1.2 20.2 1.1 3.7-4.1 1.1-9.7-1.8 6.6-2.6.5 2-5.4-4.8 2.8 2-3.4-1.9-5.6-2.4 1.5.4-3.3-3.6 4.1 3 3.3-2.6 1-1.3-3.6-4.1 1.5-2.6-3.9-12.5-1.9-2.3 2.8-5.6-2.8-9.5.4-7.1-5-6.9-.8-2.6-4.5-5.5-1.7 2.5-2.2 5.6.6 6.3-6.4 9.4-3.7v-2.3l4.8-.9zm29.9 90.8 1.1-1.9 1 1.5zm72.5 0-.6 2.4-3-1.1zm-24.8 7.1 1.8.2-1.6 2.6zm18.6-3.5 2.5.5-2.7 1.2zm-13 6.7h.5l.2.4-.5.1zm-36.7 14.1.6-.2v.5l-.6.2zM487.2 198.7h.5v.4l-.3.1zM387 221.3l.6-.1.2.5-.6.2zm-1.9 1.5.4-.2.2.6-.6.2zm42.8-6.4.6-.2v.6h-.6zm85-17.6.6-.2v.6l-.6.2zm108.2 11.9h.4l.1.4-.5.2zm1.9.7.5-.1v.5l-.4.2zm1.2.8h.5l.2.5h-.6zm24.7 1 6.4.7-11.4 1.3zm2.8 2.2h.3l.2.6h-.5zm-2.5 1.7.6-.2.2.6-.6.1zm-2 3.8-6.8-.2 5.3-1.7zm0 0 .5-.2v.6l-.3.2zm.5.4.6-.2.2.5-.6.2zm-263.6 60.9.6-.2v.6l-.6.2zm1.3 3 .6-.2v.5l-.6.2zm-8 3.4h.4l.1.5h-.5zm165.5 1.9h.6l.2.6h-.6zm-105.7 24.8 1.4 2.1 8.8-.8-11.2 2.3-1.9-.8zm17.1-1.3.5-.2.2.6-.6.2zm-45.9 14.2h.4l.1.5h-.5zm72.5-15.5h.5l.2.4-.5.2zm55.4-12h.6v.6h-.4zm-132.1 29.5.6-.2v.6h-.6zm63.9-12h.6v.6h-.4zm.6.4h.5l.2.5h-.5zm68.5-12.9.6-.2v.6h-.4zm-136 32.5 3.6.4-5.5 1.1zm3.8-.7.5-.2.2.5-.5.2zm93.9-19.6.6-.2v.6l-.6.2zm-93.6 20.5h.6v.6h-.6zm38.9-6.6.4-.1.2.5-.6.2zm83.7-12.9-7.3-.7-.7 1.8-2.3-2.4zm6-5.6.6-.2.1.6h-.5zm-6.7 2.6.5-.2.2.6-.6.1zm7.3.2.6-.2v.6h-.6zM522 320l.6-.2v.6l-.4.2zm-123.1 26.9.6-.2v.6l-.6.2zM528 319.2l.5-.2.2.6-.5.2zm-133.6 29.7.4-.2.2.5-.6.2zM321.5 365h.6v.4l-.6.2zm210.2-45.1h.6v.4l-.4.2zm16.2 3.2.6-.2v.5l-.6.2zm-147.2 33.3.4-.2.2.6-.6.1zm-13.6 3.4h.4l.2.6h-.6zm3.9.3.6-.1.2.5-.6.2zm174.7-36.4h.5v.5h-.5zm11.7 2.6.6-.1v.5l-.4.2zm-.5.6.5-.2.2.5-.5.2zm26.7-5.2h.5l.2.4-.5.2zm-222.3 48.2.5-.2.2.5-.6.2zm195.1-41.8.5-.2.2.5-.5.2zm5.8-1.3.5-.2.2.6-.6.2zm-20.9 6.1.6-.1v.5l-.6.2zm180.5-37.5.5-.2.2.5-.5.2zm.7 1 .6-.2.2.5-.6.2zm-178 38.7.5-.2v.6l-.3.1zM389 383.7h.6l.2.4-.6.2zm-.4.7.4-.2.2.6h-.6zm-.7 1.3h.6v.6h-.6zm-71.6 19.8h.6v.3l-.4.2zm57.2-11.7h.4l.2.5h-.6zm281.7-51.9h.6l.2.4-.6.1zm2.8.6 1.9.8-.8 1.6zm5.8 11.6h.6l.2.6h-.6zm6.5 4.6h.6l.2.6h-.6zm91.2-16.6.6-.2.1.6-.5.1zm9.3 1.9.6-.2v.6l-.6.2zm-394 84.8h.6l.2.4-.6.1zm299.5-62.4 3.3 2.1-1.4 1.3zm4.4 7.5h.4l.2.4-.6.1zm-3.5 4.2.5-.2.2.5-.5.2zm-362.5 94.4.6-.2v.5l-.6.2zm48.8-9.3.6-.2.2.6-.6.1zm4.7.6h.5v.6h-.5zM674 401.7l.5-.2v.6l-.5.2zm3.2 14.4-2.3-.2.2-1.7zm-4.1 1.5.6-.2v.6l-.6.2zm108.2-21.5.5-.2v.6l-.5.1zm-115.5 28.6.6-.2.2.6-.6.2zm-3.2 5.6h.4l.2.6h-.6zm2.6-.6.6-.2.2.6-.6.2zm6.7 2.9.6-.1.2.5-.6.2zm-215.6 55.7-9.1 1.5-.8-1.5 3.6-1.5 23-4.3 17.3 2.4.6 3.2-8.4-3.2-14.6-.2 8.4.4 3.6 3.2-15-1.9-.5-.4.5.4 18.7 6.2-23-5.8-6.7.4zm-26.7.5h.6v.6h-.6zm2.2-.4.6-.2v.6l-.6.2zm236.9-50.9h.6v.4l-.6.2zm3.8-.7.5-.2.2.5-.5.2zM473.7 480l.5-.2v.5h-.3zm-24.5 4.2.6-.2.1.5-.5.2zm217.2-43.7h.4l.2.4-.6.2zm-261.3 58.3 2.6-.8.8 3.4-3 1.1zm51.2-11h.3l.2.5h-.5zm213.3-45.6.6-.1v.5l-.4.2zM400.2 502l4.1 1.5-4.3.4zm81.6-17 .6-.2v.5l-.4.2zm183.5-39.4h.4l.1.6h-.5zm-181.4 40.5h.4l.1.6h-.5zm.7.9h.6l.2.5h-.6zm-10.3 4 .4-.2.2.5-.6.2zm197.1-40.5.6-.2.2.6-.6.2zm12.4-2.7.9 4.1-3.6-.9zm-190.9 43.7-2 1.1-1.2-2.6zm.8-1.8.5-.2v.5l-.3.2zm-10.1 2.6h.5v.6h-.3zm9.1-1.3.6-.2v.6l-.6.2zm-174.5 41.8 4.9-.6 12.5 6.2-8.4 4.7-6.3 20.3-1.5-7.4 2.6-10.7-3-6.5-3.2.5-.6-2.6 4-2zm-1.1 2 .5-.2v.6l-.5.2zm360.5-77.4h.6v.6h-.4zm-211.1 71.9-24.9-3.5-25 5.4 4.7-9.3 11.8-8.3 21.8-4.6 24.3-1.3 10.8 1.6 1.3 3 4-2.4-1.2 2.4 3.8 2.6 6.3 3.6 2.6 6.7-5.2-3.9-2 1.1 11.5 12.5-6.1-2.6-21.5.8zM689 459.2l4.1.8v2.4h-2.8zm-62.2 14.4.5-.2.2.5-.5.2zm60.3-12.3.6-.2v.6h-.6zm3 2.8.4-.2.2.5-.6.2zm5.2 1.2.6-.2.2.5-.6.2zM654 475.8l.6-.2.2.6-.6.1zm-300.2 67.7.6-.2.2.5-.6.2zm335.5-71.9.4-.2.2.6-.6.2zm-191.7 42.7.6-.1.2.5h-.6zm126.3-26.9.6-.2.2.6h-.6zm77.9-16.6h.6v.3l-.6.2zm-22.2 13.1h.5l.2.6h-.5zm23.9-5.1.5-.2.2.6-.5.2zm-199 47.4h.6v.6h-.4zm169.2-29.5 6 1.5-3.7.7zm-89.9 26.5 7.3-7.6 2.4 5.6-3.5 1.9-.2 4.4-3-.9-2.8 2.2.6-2.4-2.4-1.1zm24.2-6.4 7.7-5.6 19.4-2.9 26 1.6 1.1 2.6 3.9-.3 1.9 4.1 3-2.3 1.5 7 4.8-3.4-.3 3.9-2.8-.4 1.7 5.8 1.8.2-.5-4.5 5.2 5.6-1.3 7.5 3.2 1.1.5.4 1.7 2.4-3.4 5.8-1.5-2.4-2.4 2.1-4.8-4.5-12-3.6-22.8 2.6h-10.1l1.9-1.5-5.4.6v-2.8l-3.4 2.4-.2-3.3-8.6 1.8h-.3l-19.8 2.1 3.9-13.6 7.8-7.3zm7.1-6h.6v.5h-.4zm-10.3 6.8.6-.2v.5l-.6.2zm-139.9 33.8 23-2 3.3-2.4 6.6 1.3-4.5 3.1-15.3 3.4-9.2-.4zm248.9-52.1 3.7 7.1-2.6.6 1.3 3.5-2.2.4zm-132.7 31.4 2.4 1.1-3.1.6zm8.7-.8h.6v.6h-.6zm-5.2 3.9h.6l.2.4-.6.2zm-3.2 1.3.6-.2.2.5h-.6zm1.3 1 .6-.2v.6l-.6.1zm105.8-22 .5-.2.2.6h-.6zm7.1 4.6 1.4 1.3-2.5 1.7zm-81.8 18.7.6-.2v.6l-.4.2zm106.8-21.9h.6v.6h-.6zm-28.7 8.9 2.6 1.2-3 2.2zm-8.8 5.8 3.6.9-2.1 3.4zm25.8-4.5.6-.2.1.6-.5.2zm-24.3 11.4.6-1.9 3.5.9-1.7-3 1.7-2.6 1.3 6.4-4.8.5zm12.3-2.6-3 1.7.6-4.7zm-7.3 5.1.5-.2.2.5-.5.2zm.5.4.6-.2.2.6-.6.2zm13.8 2 .6-.2v.6l-.4.2zm-235.6 77.1 4.3-.3 2.7-3.4-1.7-2.4 7.3-2.6 1.1-3-3.9 2.4.9-3.5 4.7-1 4.4-8.2 2.5 1.1-1-1.5 3.8-.7-1.3-1.5 9.7-6.6 2.4.6-.7 2.4-12.4 20.6-36.6 40.1-2 5.5-3.6-.4-.7 3.5-1.2 8.1 4.2 6.3-3.4.2.9 7.1-3.1.6-2.7-9.4-2.4 1.2-.2 4.4 3.6 11.4-1 3-3.5-.9-1.1.4-6.9-24.9-1.5-9.7 2.8-4.5 1.6.2-1.6 2.6h2.2l2.6-3.7-1.3-3.8 2.4 1.2.6-2.3 4.9-3.3 6.9-7.1 4.8-.4 2.1-6.5 2.2.5 7.1-6-.9-4.8 3.4 2.6zm240.6-73.8.5-.2.2.6-.5.2zm36 1.1h.4l.2.5h-.6zM597 587.2l.5-.2v.5h-.5zm-3.4 133.2-.6-2.2 4 .4-2.1 2.6zm4.3-129.5h.6v.4l-.6.2zm-12.7 7.8.6-.2v.6l-.6.2zm-130.6 30.6h.6l.2.4-.6.2zm-5.8 6.9.6-.2v.6h-.6zm-.9.7h.5l.2.6h-.5zm66.7-14.2 11.7.2 9.2 6.9-15.2-.6-6.5-4.1zm203.6-37 .4-.2.2.6-.6.2zm-1.6 2.6.5-.2.2.6-.6.2zm-287.1 65.9.6-.2.1.6h-.5zm118.6-21.5h.6l.2.6h-.6zm1.5-.4h.6l.1.5h-.5zm-123.7 27.1.6-.2.2.6-.6.2zm153.6-32.9.5-.2v.6l-.3.2zm-29.4 8.9 3.9-2.4 1 1.9zM718.6 610l.5-.2.2.5-.5.2zm-234.7 50.8.6-.1.2.5h-.6zm-18.9 5.3h.4l.2.3-.6.2zm27.9-6h.4l.1.6h-.5zm-42.8 11.4.6-.2.2.6-.6.2zm267.1-35-2.2.4-.6-3.2-.5 2.4-.8-5.6zm-198.9 25.3h.3l.2.5h-.5zm199.5-42.6.7 6-3.5-5.4zm7.3 2.2h.5v.6h-.3zm-29.4 6.9.6-.2.2.6h-.6zm-188.5 44.2h.6v.6h-.6zm32.2-6.7.3-.2.2.6-.5.1zm164.3-34.7.6-.2.2.6-.6.2zm-242.6 52.5.5-.2.2.5-.6.2zm-6.7 2.1.4-.2.2.5h-.6zm7.5-1.5.6-.1.1.5-.5.2zm-2.4 1.7.5-.2v.6h-.5zm244.9-52.3.3-.2.2.5-.5.2zm21.3-4.7h.5l.2.4-.5.2zM517 675.2h.5v.4l-.5.2zm177.6-37.9.6-.2v.5h-.4zm-231.4 50.3.5-.2.2.6h-.6zm42.5-7.9 1.8 3.6-3.2.5zm180-36.8.5-.2.2.6-.6.2zm-245.2 53 3.5.4-3.7 1.3-1.7-.7zm27.1-5.8.5-.2.2.6-.5.2zm107.8-22.7.5-.1.2.5-.6.2zm116.8-25h2.8l.6 2.6zm-4.1 1.5 4.2 1.9-3.7 1.3zm35.9-7.7.4-.2.1.6-.5.2zm-226.3 50 4 .4-3.4 2.8zm184.8-38.9.5-.1v.5l-.5.2zm-2.8 7.9 4.6-2.3-5.9-4.3 5.4 2.3 5.8-2.3-.8 4.5 3.9.4 2.1 4.5 3.4-.8-.6 5.8 1.9.7-.6 5.1h-2.2l-.4-6.7-4.7-1.2 3.8 7.5-2.8 1.9.5-4.7-4.5-8.6-2.8.6 2.6 1.3 1 6.9-5.4-1.5 3.7-.9-1.5-4.1-1.7-.2 1.7 3-4.7.9-1.3-3-3.3-2.6h5zm-206.8 39.2h.6v.6h-.6zm142-30.3.4-.2.1.6h-.5zm65-8.8-5.4-2.2 1.3-1.9 5.2 1.1zm-205.5 42.8h.4l.2.6h-.6zm74.7-15.5h.6l.2.5h-.6zm113.6-24.3.6-.2.2.6-.6.2zm34-7.3.6-.2.1.6-.5.2zm4.3-1 2 1.7-1.5 1.5zm-25.7 6.7.5-.1v.5h-.5zm-180.1 39.2.5-.1.2.5-.5.2zm-.4.6h.4l.1.3-.5.2zm200.1-42.8 6.5-.3-.9 5.8zm-199.4 43.7h.6l.2.5h-.6zm-.9.8 1.5 2-2.4 1.5zm182.1-37.3h.6l.2.5h-.6zm6.7 5.8-2.2-.5.3-2.8zM562.6 693v2.2l-4.3 1.5-2.1-1.8v2.2l-1.3-5.8 3.2-.7zm136.6-32 .5-.2v.6l-.4.2zm-136.5 31.9.5-2.2 3 3.2zM669.2 669l2.1 2.4h-3.2zm14.4-2.4 2-1.2 1.2 5.5 2.8-2.9-2.3 4.9zm-278.3 60.2h.5l.2.5h-.6zm294.3-62.9.5-.2.2.5-.5.2zm-160.9 46.2-4.3-1.9 4.3-.9 2.3-5.6v2.8l4.6.7 1 4.3zm131.7-36 .5-.2v.5l-.5.2zm20.9-4.5.4-.2.2.6-.6.2zm-131.5 28.8.5-.2v.5l-.5.2zm114.7-24.6h.5l.2.3-.5.2zm8-1.7.4-.1.2.5-.6.2zm-270.7 59 .6-.2.2.6-.6.2zM534 705.5l.5-.2.2.6h-.5zm13.6 1.1.4-.2.2.6-.6.2zm6 1.5-2.3-.2 1.2-1.9zm136.9-29.9 4.8-.9 1.2 5.2 2.2-.4-2.2 2.6-5.3-1.1-.7 2.5-.2-4 4.1-1.3zm-85.7 21.1-2.3 2.6 1-3.5zm-3.8 3.2.4-.2.2.5h-.6zm-16.8 4.9.6-.2.2.6-.6.2zm-.4 1.1.6-.2.2.6-.6.1zm4.9-.5h.5v.4l-.4.1zm-1.3 1.9 2.3.8-2.8 2.2zm104-22.2h2.3l-2.4 2.2zm-118.5 30.5 6.2-.2 7.8-4.5 6.9.2-4.3 6.5 1.3 3-2.9-5.4-1 3-4.1-.8-1.1 2.5-4.9.3-1.1-2.4-2.8.6.9 1.5-4.4-.2zm20.9-4.5-1.3-3.6 2.6 1.2zm-21.7.1.4-.1.2.5h-.6zm-11 6.4.4-.2.2.5h-.6zm5.4-1.1 1.7 2.5-3.2 1.3zm5.8-1.3h.6l.2.3-.6.2zm-131.5 28.8.4-.2.1.6-.5.1zm255.9-54.9h.6l.2.6h-.6zm4.3-1h.6v.4l-.6.2zm-13.8 5.2 3.2 1.5-2.1 1.7zm-118.1 26.9.6-.2.2.6-.6.2zm.8.4 2.6 2.2-2.1.9zm4.3-.9h.6l.2.4-.6.2zm113.4-19.8 1.7-2.1 1.1 2.6zM581.3 724l3.9 2.6-2.6-1.7-2.8 2.8zm97.7-20.9h.6v.4l-.6.2zm-83.5 29.1-3.7-1.5 4.1-7.1zm91.3-26.7 6-3-4.8 6zm-112.5 24.1h.6l.1.6h-.5zm103.9-22.3.5-.2.2.6-.6.2zm15.7-2.3.6-.1.2.5-.6.2zm-107.2 23.4 4.1.3-1.1 3zm18.5 0 .5-.2v.6l-.5.2zm-.4.5.6-.2.1.6-.5.2zm-13.1 6.7.6-.2v.6l-.6.2zm2.2-.6h.6v.4l-.6.2zm66.2-14.2h.5l.2.4-.5.1zM464.8 486h.4l.2.4-.6.2zm.8.3h.4l.2.4-.6.2zm120.1 37.4.6-.2.2.5-.6.2zm3.7-.9h.6v.6h-.6zm32.7 1.5 2.6-.8.6 2.2-2.6 1.2zm-6.7 12.5h.5v.5h-.5zm71 .4h.5v.6h-.4zm-184.2 54 .4-.2.2.5-.6.2zm-8.7 15.9.5-.2v.6l-.5.2zm114.5.5.5-.2v.6l-.3.2zm-162.6 38.7.6-.2.2.5-.6.2zm-4.1 1.3h.6v.6h-.6zm-6.3 14.8.5-.2.2.5-.6.2zm184.6-39.6h.6v.6h-.6zm-170.9 53.4.5-.2.2.6-.5.2zm-6.8 2.4h.6v.5h-.4zm189.5-24.2.3-.2.2.5h-.5zm90.6-17 .5-.2.2.6h-.5zm-157.3 42h.5l.2.6h-.6zm74.6-15.9 3.4 2.1-1 3.5zm49.5-10.6.6-.2.2.6-.6.1zm-42.2 13.5-2.8.5.2-2.2zm43.3-11h2.8l.2 3.3 2.2.6-3.1.2zM575 682.3l3.3-.8-.1 4.5-2.7.6.4 2-5.6-.3zm13.5.3 2.6-3.1 2 2.2-.3.6-3 4.1-4.9-4.1 2.1-1.5zm-43.2 9.9.6-.2v.6h-.4zm-1.5 1.5.6-.2.1.5-.5.2zm.5 12.7.4-.2.2.6-.6.2zm63-10.7 6.5 1.9-4.6.9zm2 5.3.6-.2.2.5-.6.2zm-1.1 2.4 2.1-.5 3.3 5 2.4-1.1-.7 3.6-1.1-2.1-2.5 1.1zm-2.4 2.1 2.3.2-.8 4.1-2.6-1.7zm-8.4 2.2 2 1.9-1.1 2.4zm6.6 1.9 5.2 3.4-1.1 2.6zm6.7.7 2.2-.5.6 2.8zm-27.7 6.3 2.5.6-.8 1.9zm5.8-1.2.6-.2.2.6h-.6zm6.9-.9 1.9.7-2.4 1.7zm7.4.6 2.3-2.1.7 3.2zm0 0 1 4.3-4-.4zm-3.3 13.1 1.8 1.3-3.3 2.8zm-57.9-458.3.5-.2v.6l-.3.2zm-3.2 11.2h.5v.4l-.5.2zm-153 61.2.5-.2v.6l-.5.2zm-24.1 111.2.5-.2.2.5h-.5zm400.3-81.2h.6v.5h-.6zm.4 3.9.5-.1v.5l-.5.2zm-183.8 321 1.8.7-2 1.5zm-3-12.1h.4l.1.3-.5.2zm17.2-3.5.3-.2.2.5h-.5z"/></svg>