<svg xmlns="http://www.w3.org/2000/svg" version="1.2" viewBox="0 0 1080 1080"><defs><clipPath id="a" clipPathUnits="userSpaceOnUse"><path d="M542.1 1076.2c-159.9-116-269.5-262.5-335-447.9-59.5-168-83.4-371.6-73-622.5v-1h817.2v1c10.4 250.9-13.4 454.5-72.9 622.5-65.6 185.4-175.2 331.9-335 447.9l-.7.4z"/></clipPath></defs><g clip-path="url(#a)"><path fill="#0086cb" d="M542 1076.1C382.1 960.2 272.6 813.7 207 628.4c-59.4-168-83.3-371.8-72.9-622.7v-.8h817.1l.2.8c10.4 250.9-13.5 454.7-73.1 622.7-65.4 185.3-175.1 331.8-335 447.7l-.6.5z"/><path fill="#fff" fill-rule="evenodd" d="M593.2-27a59.2 59.2 0 0 0-106.5 0l-119 244.2-265.3 39.2a59.4 59.4 0 0 0-32.9 100.5l192.6 190.4-45.4 268.9a59.6 59.6 0 0 0 86.3 62l237.1-126.5 237.1 126.5a59.1 59.1 0 0 0 86.2-62l-45.6-268.9 192.6-190.4a58.7 58.7 0 0 0 14.6-60.3 59.6 59.6 0 0 0-47.5-40.2L712 217.2z"/></g><path fill-rule="evenodd" d="M949.9 4.9c19.4 472.2-78.1 830.5-407.7 1069.5C360.4 942.5 249.4 774.5 189.4 571q-1.8-5.6-3.3-11.4l-3.2-11.7-3.2-11.6-3-11.6c-24.6-98.3-38.1-204.4-42.6-318.2-2.6-64.8-2.4-131.9.6-201.6zm-817.4-2v2c-10.3 250.9 13.6 454.6 73 622.9 65.6 185.4 175.3 332.2 335.4 448.3l1.3.9 1.3-.9C703.6 960 813.3 813.2 878.9 627.8c59.4-168.3 83.3-372 73-622.9v-2z"/><path fill="#005079" fill-rule="evenodd" d="m510.8 68.8 15.5 5.8-3.9-8.8 2.6-2.6-1.5-4.7-5.8 3-.9-3.7-9-3.2.2-2.6 8-1.7 5.4 4.7 14.4 6.5 8.6 13.5-5.4 2 1.9-3.1-2.8-3.8-2.3 3.6-8 1.8 14.6 11.6 2.2-1.7-5.4-4.6 6 1.1 5-3.4-2-3 10.6-2.2 2.4 8.4 17.4-2.4-1.5-1.5 24.1 1.3 1.9-5.6-1.9-6-4.5-3-8-1.5-14.2 3 17.6-4.3 16.6 5.4 6.9 7.5 17.4 9.9 3.5 10.1 4.7-2.4-1.9-3.4 9.4 3.2-14.4-7.9 5.2.2.6.4-.6-.4 13.3 5.6 14.2 15.5 17.4-5.6 11.7 2.6 12 8.3 12.7 14.7 21.3 12.7 13.8 22.1 16.3 16.4-3.2-.5 4.1 10.6-1.5 1.7 11.4 7.8-1.7-7.4 3.8 8.9 15.7 19.1 6.1 13.4v2.5l-1.8-1.5-3.2-9.4-9.9-12.7 1.1 19.5-2.8-7.1-13.6-.2 3.7 5.6 14 5.4-14.9-3.9 2.8 10.4 12.5 6.8-10.7-4.7.2 3.2 16.1 19 12.3 26.9 5.3 4.1-3.8.2 4.7 21.9-16.3 25.4 4.9 20.9-3.2 14.8-3.9-.4-.6 3.2h3.2l-5 3.7 3.1 14-4.4 4.3 4.1 18.9-4.1 7.3-6.4.2-3.7 3.9 2.4 2.1 4.3-3.6-4.9 6.2 2.1 7.3-1.9-.2-.7 6.5-2.1-.9 1.7-10.5-4.3 1.5 2.1 13.1-11.8 1.3 4.3 4.7-1.1 7.4-2.1 7.5 3.9.4-1.1 4.1h3.2l4.3 14-2.4-1.5 2.6 12.2-2.8 10.4-21.1 39.8-4.7 1.5-9.5-16.6-1 3.5-3.5 4.7h-3.2v-3.2l10.8-29.9 9.4-40.1 1.7-15.7-2.1-7.9 2.1 1.5.3-2-5-14.4 4.7 4.1-2.5-9h-2.6l3-.7-7.3-7.5-.9-10.1-3.6-1.7.8-4.8-9.7 6.1-1.5-4.3 5-3.7-2.8-1.9-4.1 2.8-9-30.2-3.7.3.2-4.6-3.2 3.3-2.2-1.5 3.3-2.6-4.3-2.4 2.8-2.6 1.5 1.7-2.2-4-4.3 3.4-4.3-2.2 2.6-5.1-3.7.2 3.3-2.6-2-2.8-1.5-1.1-.4-2.3.4 2.3 1.5 1.1-1.3 2.2-3-1.3-1.9-3.5-2.4 4.3-3-5.1h3.9l-.9-4.3-3 1.1 3.5-2-5.2-12.2 2.1-1.3-1.9-3.5 2.8.9-3-4.5 3.4 1-1.7-7.9 3.2-3.3-4.1-1 1.3-3.5-2.3-2.1 2.1-5 2.2 1.5-3-5.1 3-1.3 2.3 2.8.7-6-2.4-5.2 1.5-2.4 3.3 3.2 3-10.3 3.8.5-2.5-3.3 8.3 3.5-3.2-6.5-5.4 2.4-1-2.4-1.8 4.3-1.5-4.1 3.9-2.8-3-2.6-.2-6.4-4.3.4.2-2.1 3.4 1.3-2.1-3.5-12.1-9-2.3 1.3-1.8-2.4 3.7-.6-.6-3-2.2 2.3.4-7.3-4.3 1.1-4.7-4.3 3.7-1.3 1-3.5-9.9-1-1.7-5.4-5.4 2.4 2.4-4.3-7.7-.5v-3l-2.4 4.3-8-4.1 2-3-11.2 1.7-3.9-3.6-3 1.3h-5.8l-.7-3-6 1.9 1.5-5.6-11.4-1.9-.6-3.3-.7 3.5-3.6-2.4.6 3-4.5-.4v3.9l-3.7-5-7.5 3.5-4.1-.9 3 4.5-5.6-2.1-17.6 4.5-5.6-2.2-.2 2.6 9.5 4.5-9.7-3-7.8-11.8 3.7 8.2-6.7-1.1-3-11 .4 7.5-4.5-2.8-2.8 2 2.6-14.9-3.9 6.1-2.3-5.2.4-4.7 3.7-.3-2.2-16.1-.6 2.8-2.8-.9 2.8 7.1-11.9 2 6.7 3.9 2.1-2 .7 3.2-2.8 1.8-2.4-2-.4 3.3 4.5 1-7.7 2.8-.7-3-4.7-1.5 4.3 5.4 4.7 1.1-12.9-.5 6.5 3.1-11.9-1.3-5.3 1.7.4 2.6-2.4-2.2-1.5-.8-2.6-.9 1.5 1.7.9 1.1 5.6 5.2 16.6 1.7-5.4 1.7-12.1-1.9-18.7-12.7-1.5 2.1 5.8 3.5-15.9-5-6 3.9-8-.4.2-2-9.9 4.1-1.5-3.4-3.4 1.3-3.9-3.1 1.1 5-10.8-8-4.9 4.3-4.5-3.6 1.5 4.3-6.9.8-4.5.3 1.9 2.1-4.1 2.2-3-4.6 4.5-.2-8.2.5 3.7 2.3-9.3 1.5-1.9-2.3-.4.2-.2-3.3-3.5 1.6-.2 5.1 36.6-.2-30.6 4.5-5.6-1.9-2.1 1.7 9.7 3.2-6.1-1.3 1.3 3.5-6.6 1.5-1.3-3-3 1.3-7.1 2.1 2.1.9 1.9 3.4 11.5 2.6 28.6-2.1-28 4.7-12.7-5-4.9 1.1-3.3-3.9 2.2 4.8-2.6-.2-2.6 5.8 19.2-.2-22.4 3.4-5.6 6.9 3 1.3-2.4 1.9 4.3-1.1-5.6 3.3-4.9 10.5.2 3.2 3.5-1.3-6.5 5.8-.4 3.9-3 .9 2.5 3.2h-3.2l-4.5 11.8 1.3 3.1-4.7 4.9 5.8 6.5-.9 4.5 2.8 4.1-7.3 16.7 14.2-20.8-8.2 22.1 3-1.3 1.5 6.9-3.6 1.3-11.2 14 3.9-.2 4-5.4.9 4.3 7.5-9.9-.4 4.5-6.2 6.7 1.7 2.2-18.3 16.1 1.7 2.1-2.3 1.1 2.7.9 3.1-7.1 6.4-2.2-5.8 5.2-1.7 4.3 3.6-3.4v2.5l-4.3 3.5-.2-.7-3 10.4 5.8-.7-10.5 11.4.2 6.9-2.4 1.3-1.5-5 2.2 8-6.3 22 3.7 37.6-10.1-17.6-16.6-14 10.3 3-1-5-12.5-21.7-4.1-17-6.5-5.8 2-3-6.5-9.5-3.4-.4-.2-3.9.6 11.4 3.2 3.3-7.7-6.1-.2-3.8 3-13.6 10.1-15.1-3-8.1 3.4-5.4-3.4-6.9h2.6l-2.8-.6-.5-5.6 4.6-8.2.4-7.8-5 1.8 5.6-19.2 6.1-7.7 3.8-.3-6.6 8 6.9-6.7 2.3-13.3 6-7.7-1.5-4.1-4.1-.5-9.8 4.6-.5-2.4 14-6.9-2.6-2.6-2.1 4.3.4-12.9 8.2-6.2 3.9-9.3 9.6-6L329 197l25.2-26 4.7-1.5v-.7l-.2-.6 1.9-.4 12.3-2.6-9.5 1.3-1.9-.9.4-.6.5-1.3-.3-.7.9-1.5 2.1-8.2 5.9-2.5 2.3-7.6 6.7-7.7 6-2-.2-3.8 10.5 1.5 3.5-23.3 15.7-19.3 12-3.9 3.9 15.3 9.9.4L468 78.7l23.9-9.1-6.5-2.3zM359.6 166l.8-2.1 1.3-.2.2 1-.4.9zm-1.9 3h-3.3l5.2-3 .9 1.1-1.8 1.1zm1.3.2-1.3-.2 1.1-.5zm145.2 33.2 1.1-.9 1.5 1.1-1.7 1zm105.4 197.8-.4-5.2 3-.6-2.8-4.6h8.8l6.7-7.7 3.9 3 4.3-.8.2.4-.2-.4 3.4-2.8-.8 5.3 15.9-.8 6.2 2.6 3-3.9 3.5 3.6 7.3 1.8 9.7 3-8-4.1 1.5-2.2 9.1 5.8 14.6 5.9 11.6 9-2.4-5.2-2.3 1.1-.5-5.2h3.3l15 11 5-1.1-5.8-3.2 8.6.7.8-7.8 2 9 3.2.7-4.5 2.4.4 5.5 3.9-.2 1.1 14 3-.6 1.1 4.9-4.1 2.2-1.5 4.1 2.5.2-4.3.8-1.5 4.8-7.5-7.3-4.1 7.3h-.6l-1.8-4.8 4.4-3.4v-3.9l-5.2-.2-.7-3h3.1l-3.3-.7-.2-6.8-9.2-1.3 7.9-1.7-3.4-4.4H706v-3.2l-3.6.9-.3-3.2-5.1-.9v-2.6l5.1-.4-14.4-.9-2.3-1.9h5.8l-12.3-3.7-21.1 3.7 2.4-3.7-5.2 2.4-2.6-2.6-3 1.3.3-5.2-3.5 1.3 1.7 2.8-5.1-.2-.5-2.4 13.6-6-15.5 5.8-2.2-.8 2-3-5.8 3.2-2.2-4.1v3.2l-7.5 3-2.2-4.1zM572 758.5l-44.5-4.1-14.2-.7-6.3-1-4.3-.9-2.6-1.7-2.6-2.4 1.6-1.1 1.2-.8.9-.9 1.9.5 1.3.8 1.1.4 1.5.5 1.1.2 2.4 1.1 2.3 1 1.7.5h1.8l1.9-.7h1.5l1.3-.4 2.6.2 3.2.7h4.5l2.8.2 2.2.4 9 .4 14.9.7 1.5-.2h7.9l24.8-13.6 1-1.7 1.8-.9 2.1-1 2.2-5.2 2.1-2.2.9-1.9 1.7-1.7 1.3-1.7 1.7-2.4 2.4-6.2 6.9-7.4 2.5.9 2.4-7.5 1.5 4.7 4.5-6.7 4.6.9-.5-2.6 7.3-1.5.5-.6 9.7-6.7 3.4 1.3.6-2.8 2.8.6-2.3 2 3.8-.9 9.9-13.8.5 2.6 4.9-1.1-2.6-2.8 5.2-3 2.8 3.9.2-5.2 5.8.7 5.6-7.5 3.7 2.3-.9-4.3-4.3-1.5 7.1 2.8 6.9-7.1 3.9 6.9-5-2.8-3.9 2.8h5.6v5.8l12.3-15.5 8.4-11.4 8.2-24.9 2.6.2-.9-4.3 3.7-.9.4-3.4 2.3 4.7 4.4 4.9 2.3-1.2-1.7 4.3h6.5l-.3 2.5-43.4 55.1m-68.7 18.3-2.1-1.5 2.6.9zM516.4 55.1h.7v.6h-.5zm3.3 3.3.4-.2.2.6-.6.2zm-22.6 11.2h.6v.4l-.4.2zm-6 2 1.9.8-1.5 1.5zm6.2-1.2 1.7 2.3-2.3-2.1zm-75.8 18.7 6.3-.7 1.9 5.4zm46.3-8.6 6.6 1.1-6.8.9zm-50.6 12.7 6.5.6 5.1 6-2.1 1.7-6.7-3.8-8.8.6zm50.5-7.5.5-.2.2.6-.7.2zm-57 18.5 9.9-1.3 4.5 2.2-22.6 14.4 1.1-6.7zm39.4-7.7h.6l.3.4-.7.2zm78.8-13.1 4.7 1.1-1.5 2.1zm11.8-1.9h.7v.7h-.5zm-115.5 25.3 1.3 3.1-3.7.6zm183.1-27.5-1.3-2.4 2 .2zm2.8-2.4 3.8-.2-1.5 2.8zm-198.6 43.9h2.6l-2.8 2.6zm194.7-39.2.7-.2v.7l-.7.2zm11.2-2.4.7-.2v.6l-.7.3zm2.6-.7h.7v.7h-.7zm-13.3 3.6 6.6 1.1-7.5.9zm15.5-3.3.7-.2v.7l-.7.2zm-225.7 52.3 4.3 7.9-7.3-1.1 3.7-3.2zm243.1-46.9.6-.2v.6l-.4.3zm.6.4.7-.2.2.6-.6.2zm-212.8 50.6h.6l.2.4-.6.2zm-45.6 14.9h.6v.6h-.6zm271.7-54.2.7-.2v.6l-.7.3zm-.2 1.2.6-.2v.7l-.6.2zm3.7 1.1h.4l.2.6h-.6zm.8.4h.7v.7h-.7zm-295.2 63.9h.7v.4l-.7.2zm296.1-63.4h.6l.2.6h-.6zM486.1 137l.6-.2v.6l-.6.2zM363 164.8l.6-.2v.6h-.6zm306.8-57.9.6-.2.3.7-.7.2zm4.5-.5 8.6 2-3.4 1.5zm-293.7 65.4h.7v.4l-.5.2zm162.7-23.2 1.9-11.4 1.1 10.8-5 15.7-1.5 1.7-3.4-3.9h3.2l-.8-6.9zm-161.8 24.3h.6v.7h-.4zm-13.8 5.6.7-.2.2.6-.7.2zm325.8-62.8 3.8-.2 1.6 4.3zM429 173.6l2 .8-2.4 3zm-93.2 23.9.5-.2.2.6-.7.3zm-.2 4.5.7-.2v.6l-.7.2zm132.8-28.4 2.6 2.6-1.8 1.1zm70-15.1h.6v.7h-.4zm-3.5 5.1h.7v.7h-.5zm-197.7 45.6.4-.2.3.6-.7.2zm87.6-17.4.6-.2v.6l-.6.3zM361.1 206l.6-.3.3.7-.7.2zm50.4-10.8.6-.2v.7l-.6.2zm29.7-5.8h.6v.4l-.4.2zm39.1-8.4.7-.2.2.7-.7.2zm57.1-12.3.6-.2.2.6-.6.3zm6.2-1.3.4-.2.3.6h-.7zM399.2 201l-4.3 3.4.5-3.9zm23-6.2h.6v.4l-.6.2zm58.9-12.7h.7l.2.7h-.6zm63.9-13.6.6-.2v.7l-.4.2zm-226.6 49.7.7-.2.2.6-.7.2zm88.5-18.9h2.5l-2.5 2.6zm12.9-2.2.6-.2.2.7-.6.2zm-17 4.7h.6l.2.6h-.6zM530 174.7l.6-.2v.7l-.6.2zm-51.5 11.6 2.8.6-.8 2.2zm67.7-14-1.2 3.5.4-3.9zm-.2-.7h.6l.2.7h-.6zm-93.4 22.6.7-.2v.6l-.7.2zm25.4-4.7.6-.2v.6l-.4.2zm.7.5.6-.3.2.7-.6.2zm-3.7 1.3h.7l.2.4-.7.2zm84.2-18h.6v.6h-.6zm-92.6 20.5h.7l.2.6h-.6zm-8.4 3h.6v.7h-.4zm71.8-15.3.5-.2.2.6-.7.2zm-52 11.6h.6l.2.7h-.6zm-83.3 19.1h.7v.5l-.7.2zm134.1-28.6.4-.2.2.6-.6.2zm-60.5 14.9.7-.3.2.7-.7.2zm93.4-20 .6-.2v.6h-.4zm-37.4 8.9.6-.3.2.7h-.6zm-155.8 35.3 4.1 1-3.9 2.2zm146.6-23-10.8-2.8.2-2zm-140.7 23.7.4-.2.2.6-.6.3zm1.5.4.4-.2.3.6h-.7zm160.3-34.2.6-.2.3.6-.7.2zm-23.7 6.3h.7v.4l-.7.2zm-149.5 36 2.4-.5 1.3-.4-3.5 11-8.4 12.2-2.1-1.5 4.9-6.8-3.8.2 9-5.8-6.9.8 3-3.9.7-.2zm178.3-39.3.7-.3.2.7h-.6zm-188.5 41.1.6-.2.2.6-.6.2zm206.3-44.3 2 .2-2 2.4zm-49 11.2h.6v.4l-.6.2zm233.8-48.2h.7v.7h-.4zm-371.6 80.2.6-.2.2.7-.6.2zm353.1-73.2v-2.6l.6 2.6zm19.2-6 6.4 5.6h-3.2zm-18.7 6 .6-.2.2.6-.6.3zm7.3-1.8h.6l.3.7h-.7zm-369.4 83.7.4-.2.2.6-.6.2zm2.4 2h.6l.2.4-.6.2zm-1.5 1.7.4-.2.2.7h-.6zm-3.3 3.4.7-.2.2.6h-.6zm202.2-41.9.7-.2.2.6-.7.2zm31-2.1.6-.2.3.6-.7.2zm63.9-13.1.7-.2.2.6-.7.2zM563 213.7l.7-.2.2.6-.7.3zm45-9.1.6-.2.2.6-.6.3zm-256 55.3 1.5 1.7-3.3 1.9zm234.6-50.1.6-.2v.6l-.4.2zm11-2.3.6-.3v.7h-.4zm58.9-12.5.5-.2.2.6-.7.3zm-358.4 83.7.8 9.4-11.8 11zm334.4-67.1 7.5-1.1-6.5 3.4zm11.2-1.9 3.5.6-5.4 2zm100.2-11.9.7-.2v.7h-.7zm30.4-5.8h.6v.6h-.6zM677 220.6l.7-.2.2.7-.7.2zm-335.6 76.8h.6l.3.6h-.7zM782.5 203l7.9 7.3-4-.4zm-436.8 96.1.6-.2.3.7-.7.2zm428.8-91.2h9l2.4 2.5-7.9 1.1zm0 5.8 12.4 2 2.8 3.8-9.7-.4zm13-2.8.4-.2.2.6-.6.2zm.8 3.7v-3.2l4.1 4.3zM684 234.4l.6-.2v.6h-.4zm98.7-21.1.7-.2.2.7-.7.2zm1.3.2h.7l.2.6h-.7zm3.5 1.3.6-.2v.6l-.6.3zm-438.9 97.9.6-.3.2.7h-.6zm347.7-64.8.6-.2.2.7-.6.2zm-344.9 78.9 1.7 1.5-3 .7zm-5.6 7.1 2.2.8-6.3 7.1zm-62.6 19.8-1.3 5.4 5.2-8.2.6 5.6-6.2 7.1-3.4-1zm54.8-13.8h.7l.2.4-.7.2zm-55 13.2.6-.3v.7l-.4.2zm55.5-10.7 2.1.8-4.7 2.4zm443.4-91.9 4.3 5 .5 4.9-2.2-.9zm-435 95.1 1.9-.2-.2 2.6zm-2.4 1.1.7-.2.2.6-.7.2zm442.2-94.6 14.6 16.7 8.2 16.8-4.1-.4-7.3-9.9-8.2-5.4-1.7-8.6 5.6 8.4-2.2-7.1 2.2.6zm-444.7 96 2.1.9-2.1 4.3-2.6-2.6zm-56.8 14 2.8 9.7-2.2 1.7-2.6-3.2-1.2-5.6zm52-9.3 3 2.6-8.8 7.1v-3.2l6.9-4.1zm377.4-73.2 3.2 2.6 2.2-1.7 3.2 11.6-3.7-1.9-.6-6.3zm-377.2 89.7h.7v.7h-.7zm-11.4 3.2.7-.2v.6h-.7zm3.9-.6.4-.2.2.6-.6.2zm403-86.2.6-.2v.6h-.6zm-408.2 88.2.7-.2v.6l-.7.3zm9.5-.9 1.1 4.3-6.3 4.5zm455.9-94.4h.5l.2.6h-.7zm-69.5 20h.7v.7h-.7zm14.2-3h.7l.2.6h-.6zm-406.7 92.9.7-.2v.7l-.7.2zm473.6-101.6 7.5 5 5.2 9zm4.3 14.7-4.1-10.8 7.3 10.1-.9 1.9 2.6 6.1-2.6.4zm-83.9 7.1.7-.2.2.6-.7.2zm16.8 3.5.7-.2v.6l-.7.2zm61.3-10.5 2.2 3.4.8-2.1 1.6 7.3-3.7-2.4zm4.9-.4.7-.2.2.6-.6.2zm3.6-.8.7-.2v.6l-.5.2zm-.8 2.6h.6l.2.7h-.6zm.6.6.7-.2.2.6h-.7zm-74 17.9.7-.2.2.6-.6.2zm6.6-1.5.7-.2.2.7-.7.2zm-7.9 2.3.6-.2.2.7-.6.2zm66.9-11.8 5.2 3.4-3.9 2.6zm-67.8 16.5.7-.2v.7l-.5.2zm3 0 .7-.2.2.6h-.6zm74.8-15.9 3.3 2.6h-3.3zm-83.2 22.4.6-.3.2.7h-.6zm9.2-1.9h.5l.2.6h-.7zm66.1-12.9 2.4-.4 1 4.9-1.9-.2-.6 6.4-2.6-3.2-.9-4.3 3.9.4zm-398.9 89.3.4-.2.2.7-.6.2zm406.6-87.2h.7v.5l-.5.2zm-106.2 23.4.6-.2.2.7-.6.2zm9.2 13.3 4.5 2.8-2.8 2zm-80.2 27.5v2.6l-2.2-.9zm-2.3 3.7h.6v.4l-.6.2zm8.8-1.3h.6v.7h-.4zm-22.6 5.6.4-.2.3.6-.7.2zm24.5-5.4.7-.2.2.7-.6.2zm22.1 1.1.5-.3.2.7-.7.2zm-11.4 6.9.7-.2.2.6-.7.2zm.7.5.6-.3.2.7-.6.2zm11.8-1.9h.7v.4l-.7.2zm73-14.2.4-.2.2.6h-.6zM684.6 398l.6-.2.2.6-.6.3zm49.9-3.7 7.7 3.4-2.8 2zm.9 4.3.6-.2.3.6h-.7zm7.8 3.7.6-.3.2.7h-.6zm-19.8 15.3.4-.2.2.6-.6.2zm29.7 3.9.6-.2.2.6-.6.2zm4.5 3.5h.6l.3.4-.7.2zm-25.8 17.7h.6l.3.6h-.7zm28.8 33.1.7-.2.2.7h-.6zm4.9-.5h.7l.2.7h-.7zm11.6 6.4h.7l.2.7h-.6zm-1.1 1.5 3.6 1.9-4.1 2.2zm-35.7 80.2-1.3-6.2 2.8-8.2-1.7 9.9 4.3 1.7-.8 2.2 3.6-.9-.4 4.1 3.6 2.4-4.3-1.7 1.1 4.3 6.9-3.5-4.3 4.1 2.6.2-7.1 11.2-5.2 3-.8-19.1 2.3-1.1.7 6.2.6-2.8.9 3.7 2.3-.4 2 .2-2-.2-4.5-6.7zm-154-2.4 5.4 1.3.6 3.3 10.8-3.7 4.7-20.9-6-21.9 3.4-2 2.4 2.6 9.9 18.5 3.4 4.5 9.9 13.2 11.8 16.8 5.2 2.8v3.2l4.1 1.1 1.1 4.9 6.9 5 2.3 7.7.5 8.2-1.3.4.2 6.2-2.8-.6-2.6 5.8-.2 2.6 1.9-3 1.7 1.5-5.1 3-5.2 8.8-4.9 1.1 1.3 3-5.4 1.7 1.3 3-4.6 2.8-.2 8.4-1.3-3.4-6.6 1.9 4.7-2.1-2.4-1.5 6.5-6.5-3.9.2-9.2 2 3.6 1.7-6.6 2.6 1.9 5.6 4.3-1.1 1.5 4.3 3.7-4.1 1.5 1.5-5.8 8.4-2.4-1.5-1.7 6.9-.7.2-.8-1.7-1.5 2.1 2.3-.4-7.5 9.2-.9-3.6-2.1 4.9-2.6-.6 1.3 6-3.9 3.5-2.8-3.9v-6.5l2 .2-2.4-5.1 2.6-3.3-4.5-.2.4 2.4-3.7-4.9 4.3-1.6 2.2-1.7-2.8-4.1 1.7-4.1 6.9 2.4-3.2-6.4 3.4 4.5 5.6-3.9V646l1.3-.2.9.4-.9-.4-1.9-3.4-3.1 1.3-1.5-1.1-.4-2.4-3.2 3.2-4.3 4.1-15.1 2-1.9 3h-5.6l-.7-2.6-7.1 5.6-6.8.6-.7-2.3-5.2 3-1.7-2.2-1.9 2.4-2.8-3.2 4.9-7.6 5.6 2.6 4.3-1.5 2.2-10.7-3.7-2.4 1.3-5.4 2.2.7-3-2 .4-3.9-8.6-1.2-.7-2.6-9.4.8-4.1 16.4-4.1 4.7-3.9-6.2 4.8-1.7.8-8-3.4-6.9 2.8-1.9-14.9-6.5-7.3 2.2-15-1.7-7.4 5.3-3.2-3.8-10.5-.9-.2 11.4-8.7 7.7 1.6 6.7 5.5 2.2v5.8l-2.3 1.1 1.1-4.1-4.3 1.5-7.8-3.5-4.9-5.4-1.5 2.2-3.9.2.4-3.9-3.4 1.3 1.9-2.3-6.9-8-2.1 1.7-4.1-1.7 2.1 4.7 1.7 2.2-3.6.2-3.2-3.2-5.8-11.6 10.1-4.1 4.5-6.1 4.5.9 3.7-4.7 5.3 1.5 30.2-5.8v2.6l14.6-.7 9.9 3.7v-2.6h3.2l10.1 4.9 6.9-.2 41.5 1.5h17.9l4.7.2 23.3 1.3 4.3-4.7 1.3-11.2-2.2 7.5-3 .7 2.4-6.3-5.6 3.3 2.3-3.9-2.1-6.5-2.8 1.8.4-3.9-4.1 4.7 3.5 3.9-3 1.1-1.5-4.1-4.8 1.7-3-4.5-14.4-2.2-2.6 3.3-6.4-3.3-11 .5-8.2-5.8-8-.9-3-5.2-6.2-1.9 2.8-2.6 6.4.7 7.4-7.4 10.7-4.3v-2.5l5.6-1.1zm34.4 104.6 1.3-2.2 1.1 1.7zm83.5 0-.7 2.8-3.4-1.3zm-28.6 8.2 2.1.2-1.9 3zm21.5-4.1 2.8.7-3 1.3zm-15.1 7.7h.7l.2.5-.6.2zm-42.2 16.1.6-.2v.6l-.6.3zM479.5 67.4h.6v.4l-.4.2zm-115.3 26 .6-.2.2.7-.6.2zm-2.2 1.7.5-.2.2.6-.7.2zm49.3-7.3.7-.2v.7h-.7zm97.9-20.3.7-.2v.7l-.7.2zm124.6 13.8h.4l.2.4-.6.2zm2.1.9.7-.3v.7l-.4.2zm1.2.9h.7l.2.6h-.6zm28.4 1.1 7.3.8-13.1 1.6zm3.2 2.5h.4l.2.7h-.6zm-2.8 1.9.6-.2.2.6-.6.3zm-2.4 4.3-7.7-.3 6-1.9zm0 0 .7-.2v.6l-.5.3zm.7.4.6-.2.2.6-.6.2zm-303.6 70.2.6-.2v.6l-.6.2zm1.5 3.5.7-.3v.7l-.7.2zm-9.2 3.9h.4l.2.6h-.6zm190.6 2.2h.6l.2.6h-.6zm-121.8 28.6 1.7 2.4 10.2-.9-13 2.6-2.1-.8zm19.6-1.5.6-.3.2.7-.6.2zm-52.9 16.4h.4l.2.6h-.6zm83.4-17.9h.7l.2.5-.6.2zm63.9-13.8h.6v.7h-.4zm-152.1 34 .6-.3v.7h-.6zm73.5-13.8h.7v.7h-.4zm.6.4h.6l.3.6h-.7zm79-14.8.6-.2v.6h-.4zm-156.6 37.5 4 .4-6.2 1.3zm4.3-.9.7-.2.2.7-.7.2zm108.3-22.6.6-.2v.6l-.6.2zm-107.8 23.7h.6v.6h-.6zm44.7-7.5.4-.2.3.6-.7.3zM526 206l-8.4-.9-.9 2.2-2.5-2.8zm6.9-6.5.6-.2.2.7h-.6zm-7.8 3 .7-.2.2.6-.7.2zm8.4.2.7-.2v.7h-.7zm-14.4 4.5.7-.2v.6l-.5.2zm-141.8 31 .7-.2v.7l-.7.2zM526 206.3l.7-.2.2.7-.7.2zm-153.8 34.2.4-.2.2.6-.6.2zM288.3 259h.6v.5l-.6.2zm242-51.9h.7v.5l-.5.2zm18.8 3.6.6-.2v.7l-.6.2zM379.5 249l.5-.2.2.6-.7.2zm-15.7 3.9h.4l.3.6h-.7zm4.5.5.7-.3.2.7-.7.2zm201.2-41.9h.7v.6h-.7zm13.6 3 .6-.2v.6l-.4.3zm-.7.6.7-.2.2.6-.6.2zm30.7-6h.7l.2.5-.7.2zm-256 55.5.7-.2.2.6-.7.2zm224.6-48.2.7-.2.2.7-.6.2zm6.6-1.5.7-.2.2.6-.7.2zm-24.1 7.1.7-.2v.6l-.7.3zm207.9-43.3.6-.2.2.6-.6.3zm.9 1 .6-.2.2.7-.6.2zm-205.1 44.5.7-.2v.6l-.5.3zm-202 55.9h.7l.2.4-.7.2zm-.4.9.4-.2.2.6h-.6zm-.9 1.5h.7v.7h-.7zm-82.4 22.8h.7v.4l-.4.2zm65.8-13.5h.4l.2.6h-.6zM672.4 232h.7l.2.5-.6.2zm3.2.6 2.1.9-.8 1.9zm6.6 13.3h.7l.2.7h-.6zm7.5 5.4h.6l.3.6h-.7zm105-19.1.6-.2.3.6-.7.2zm10.8 2.2.6-.2v.6l-.6.2zm-453.8 97.7h.7l.2.4-.7.2zm344.9-71.8 3.9 2.3-1.7 1.5zm5.1 8.7h.5l.2.4-.7.2zm-4 4.7.6-.2.2.7-.6.2zM280.3 382.3l.6-.2v.7l-.6.2zm56.1-10.8.7-.2.2.7-.7.2zm5.4.6h.7v.7h-.7zM694 300.6l.7-.2v.7l-.7.2zm3.7 16.5-2.6-.2.2-1.9zm-4.7 1.7.6-.2v.6l-.6.3zM817.6 294l.6-.2v.6l-.6.3zm-133 32.9.6-.2.2.6-.6.2zm-3.7 6.5h.5l.2.6h-.7zm3.1-.6.6-.2.2.6-.6.2zm7.7 3.5.7-.3.2.7-.7.2zm-248.3 64.1-10.5 1.7-.9-1.7 4.1-1.7 26.5-4.9 20 2.8.7 3.6-9.7-3.6-16.8-.3 9.7.5 4.1 3.6-17.3-2.1-.6-.5.6.5 21.6 7.1-26.5-6.7-7.8.4zm-30.7.7h.6v.6h-.6zm2.6-.4.6-.2v.6l-.6.2zm272.8-58.5h.6v.4l-.6.3zm4.3-.9.6-.2.2.6-.6.2zM463.5 391l.6-.2v.7h-.4zm-28.2 4.7.6-.2.3.6-.7.3zm250.2-50.4h.5l.2.4-.7.3zm-301 67.1 3.1-.9.8 3.9-3.4 1.3zm58.9-12.7h.5l.2.6h-.7zm245.7-52.5.7-.2v.7l-.5.2zM378.9 416l4.7 1.8-4.9.4zm94-19.6.6-.2v.6l-.4.3zM684.2 351h.4l.2.6h-.6zm-208.9 46.7h.4l.2.6h-.6zm.8 1.1h.7l.2.7h-.6zm-11.9 4.5.5-.2.2.6-.7.2zm227-46.7.7-.2.2.7-.7.2zm14.2-3 1.1 4.7-4.1-1.1zM485.5 404l-2.3 1.3-1.3-3.1zm.8-2.1.7-.2v.6l-.5.2zm-11.6 3.1h.7v.6h-.5zm10.6-1.5.6-.2v.6l-.6.2zm-201 48.2 5.6-.6 14.4 7.1-9.6 5.4-7.4 23.4-1.7-8.6 3-12.3-3.4-7.5-3.7.7-.6-3 4.5-2.4zm-1.3 2.4.7-.3v.7l-.7.2zM698.3 365h.6v.7h-.4zm-243.1 82.8-28.7-4.1-28.8 6.3 5.4-10.8 13.5-9.5 25.2-5.3 28-1.6 12.5 2 1.5 3.4 4.5-2.8-1.3 2.8 4.3 3 7.3 4.1 3 7.8-6-4.5-2.4 1.2 13.4 14.5-7.1-3.1-24.8.9zm256.3-80.7 4.7.9v2.8H713zm-71.7 16.5.7-.2.2.7-.6.2zm69.5-14.2.6-.2v.6h-.6zm3.4 3.3.4-.3.2.7-.6.2zm6 1.3.7-.2.2.6-.7.2zm-47.5 12.1.6-.2.2.6-.6.2zM325.4 464l.7-.2.2.6-.6.3zm386.4-82.9.4-.2.2.7-.6.2zM491 430.3l.7-.2.2.7h-.7zm145.5-31 .6-.2.3.6h-.7zm89.7-19.1h.7v.4l-.7.2zm-25.6 15.1h.7l.2.6h-.7zm27.6-5.8.6-.2.2.6-.6.3zm-229.1 54.6h.6v.7h-.4zm194.9-34 6.9 1.7-4.3.8zm-103.5 30.6 8.4-8.8 2.8 6.4-4.1 2.2-.2 5.1-3.5-1-3.2 2.5.7-2.8-2.8-1.2zm27.9-7.4 8.8-6.4 22.4-3.5 29.9 2 1.3 3 4.5-.4 2.2 4.7 3.4-2.6 1.8 8 5.5-3.9-.4 4.5-3.2-.4 1.9 6.7 2.2.2-.7-5.2 6.1 6.5-1.5 8.6 3.6 1.3.7.4 1.9 2.8-3.9 6.7-1.7-2.8-2.8 2.3-5.6-5.1-13.8-4.1-26.2 3h-11.6l2.1-1.7-6.2.6v-3.2l-3.9 2.8-.2-3.9-9.9 2.2h-.4l-22.8 2.3 4.5-15.7 9-8.4zm8.2-6.9h.6v.7h-.4zm-11.8 7.7.6-.2v.7l-.6.2zM453.6 473l26.5-2.3 3.9-2.8 7.5 1.5-5.2 3.6-17.6 3.9-10.6-.4zm286.6-60.1 4.3 8.2-3 .7 1.5 4.1-2.6.4zM587.5 449l2.8 1.3-3.7.7zm10.1-.9h.7v.6h-.7zm-6 4.6h.7l.2.4-.7.2zm-3.6 1.5.6-.2.2.6h-.6zm1.5 1.1.6-.2v.7l-.6.2zm121.8-25.4.6-.2.2.6h-.6zm8.2 5.4 1.5 1.5-2.8 1.9zm-94.3 21.5.7-.2v.7l-.5.2zm123.1-25.2h.7v.7h-.7zm-33.1 10.3 3 1.3-3.5 2.6zm-10.1 6.6 4.1 1.1-2.3 3.9zm29.6-5.2.7-.2.2.7-.6.2zm-28 13.1.6-2.2 4.1 1.1-1.9-3.4 1.9-3 1.5 7.3-5.6.6zm14.2-3-3.4 1.9.6-5.3zm-8.4 5.8.7-.2.2.6-.6.2zm.6.5.7-.3.2.7-.7.2zm15.9 2.4.7-.3v.7l-.4.2zM457.7 551l4.9-.5 3-3.8-1.9-2.8 8.4-3 1.3-3.5-4.6 2.8 1.1-4.1 5.4-1.1 5.2-9.4 2.8 1.3-1.1-1.7 4.3-.9-1.5-1.7 11.2-7.6 2.8.7-.9 2.8-14.2 23.6-42.2 46.3-2.3 6.2-4.1-.4-.9 4.1-1.3 9.3 4.8 7.3-3.9.2 1.1 8.2-3.7.6-3-10.8-2.8 1.3-.2 5.2 4.1 13.1-1.1 3.5-4.1-1.1-1.3.4-8-28.6-1.7-11.2 3.3-5.1 1.9.2-1.9 3h2.5l3-4.3-1.5-4.3 2.8 1.3.7-2.6 5.6-3.9 7.9-8.2 5.6-.4 2.4-7.5 2.6.6 8.2-6.9-1.1-5.6 3.9 3.1zm277.1-85 .6-.2.2.6-.6.2zm41.5 1.3h.4l.3.7h-.7zm-170.4 46.9.7-.3v.7h-.7zM602 667.6l-.6-2.6 4.5.4-2.4 3.1zm5-149.1h.6v.4l-.6.2zm-14.6 9 .6-.2v.7l-.6.2zM442 562.8h.6l.2.4-.6.2zm-6.7 8 .7-.2v.6h-.7zm-1.1.9h.7l.2.6h-.6zm76.8-16.3 13.5.2 10.6 7.9-17.5-.6-7.5-4.7zm234.5-42.6.5-.3.2.7-.7.2zm-1.9 3 .6-.2.2.6-.6.3zm-330.7 75.9.7-.2.2.6h-.7zM549.5 567h.7l.2.6h-.6zm1.7-.4h.6l.2.7h-.6zm-142.4 31.1.6-.2.2.7-.6.2zm176.8-37.9.7-.2v.7l-.4.2zm-33.8 10.3 4.5-2.8 1.1 2.2zm194-29.3.7-.2.2.6-.6.2zm-270.3 58.6.7-.3.2.7h-.7zm-21.7 6h.4l.3.4-.7.3zm32.1-6.9h.4l.2.6h-.6zm-49.3 13.1.6-.2.3.7-.7.2zm307.7-40.2-2.6.4-.6-3.7-.7 2.8-.9-6.4zm-229.1 29h.4l.3.7h-.7zM745 551.3l.9 6.9-4.1-6.2zm8.4 2.5h.6v.7h-.4zm-33.8 7.9.6-.2.3.7h-.7zm-217.1 51h.7v.6h-.7zm37-7.7.5-.3.2.7-.7.2zm189.4-40 .6-.2.2.6-.6.2zm-279.5 60.5.6-.2.2.6-.6.2zm-7.7 2.4.4-.2.2.6h-.6zm8.6-1.7.6-.2.2.6-.6.3zm-2.8 1.9.6-.2v.6h-.6zm282-60.2.5-.2.2.6-.7.2zm24.6-5.3h.6l.2.4-.6.2zM513.8 616h.6v.4l-.6.2zm204.6-43.7.6-.2v.7h-.4zm-266.6 57.8.7-.2.2.7h-.7zm48.9-9.1 2.1 4.1-3.6.7zm207.2-42.4.6-.2.2.6-.6.2zm-282.5 61.1 4.1.5-4.3 1.5-2-.9zm31.2-6.7.7-.2.2.7-.7.2zm124.2-26.1.6-.2.2.7-.6.2zm134.5-28.8h3.2l.6 3zm-4.7 1.7 5 2.1-4.3 1.5zm41.3-8.8.4-.2.2.7-.6.2zm-260.6 57.6 4.5.5-3.8 3.2zM704 583.8l.7-.2v.7l-.7.2zm-3.2 9 5.4-2.6-6.9-4.9 6.2 2.6 6.7-2.6-.8 5.2 4.5.4 2.3 5.1 3.9-.8-.6 6.7 2.1.8-.6 5.8h-2.6l-.4-7.7-5.4-1.3 4.3 8.6-3.2 2.1.6-5.3-5.2-9.9-3.2.6 3 1.5 1.1 8-6.2-1.7 4.3-1.1-1.8-4.7-1.9-.3 1.9 3.5-5.3 1.1-1.5-3.5-3.9-3h5.8zM462.6 638h.7v.6h-.7zm163.5-34.8.5-.2.2.6h-.7zm74.9-10.1-6.2-2.6 1.5-2.1 6 1.2zm-236.7 49.3h.5l.2.7h-.7zm86.1-17.9h.6l.3.7h-.7zm130.8-28 .7-.2.2.6-.7.2zm39.2-8.4.6-.2.3.7-.7.2zm5-1.1 2.3 1.9-1.7 1.8zm-29.7 7.7.7-.2v.6h-.7zm-207.4 45.2.7-.2.2.7-.7.2zm-.4.6h.4l.2.4-.6.3zm230.4-49.3 7.6-.4-1.1 6.6zm-229.6 50.4h.7l.2.6h-.7zm-1.1.9 1.8 2.3-2.8 1.8zm209.7-43.1h.7l.2.7h-.6zm7.7 6.7-2.6-.7.5-3.2zm-139.3 30.3v2.6l-4.9 1.7-2.4-2.1v2.5l-1.5-6.6 3.7-.9zM723 599.6l.6-.2v.7l-.4.2zm-157.3 36.8.6-2.6 3.5 3.6zm122.6-27.5 2.4 2.8H687zm16.6-2.8 2.4-1.3 1.3 6.2 3.2-3.2-2.6 5.6zm-320.6 69.3h.7l.2.6h-.7zm338.9-72.5.7-.2.2.7-.7.2zM538 656l-5-2.1 5-1.1 2.6-6.5v3.3l5.3.8 1.1 5zm151.7-41.5.6-.3v.7l-.6.2zm24.1-5.2.4-.2.2.7-.6.2zm-151.5 33.1.7-.2v.6l-.7.3zM694.4 614h.7l.2.4-.7.2zm9.3-1.9.4-.2.2.6-.6.2zm-311.8 68 .7-.2.2.6-.6.2zm140.7-29.4.6-.2.2.6h-.6zm15.7 1.3.4-.2.2.6-.6.2zm6.9 1.8-2.6-.3 1.3-2.1zm157.7-34.4 5.6-1.1 1.3 6 2.6-.4-2.6 3-6.1-1.3-.8 2.8-.2-4.5 4.7-1.5zm-98.8 24.3-2.5 3 1-4.1zm-4.3 3.7.5-.2.2.6h-.7zm-19.3 5.6.6-.2.2.6-.6.2zm-.4 1.3.6-.2.2.7-.6.2zm5.6-.7h.6v.5l-.4.2zm-1.5 2.1 2.6.9-3.3 2.6zm119.9-25.6h2.6l-2.8 2.6zm-136.4 35 7.1-.2 9-5.2 7.9.3-4.9 7.5 1.5 3.4-3.4-6.2-1.1 3.4-4.7-.8-1.3 2.8-5.6.4-1.3-2.8-3.2.7 1 1.7-5.1-.2zm24.1-5.2-1.5-4.1 3 1.3zm-25 .2.4-.2.3.6h-.7zm-12.7 7.4.4-.3.3.7h-.7zm6.3-1.3 1.9 2.8-3.7 1.5zm6.7-1.5h.6l.3.4-.7.2zm-151.5 33.2.5-.2.2.6-.7.2zm294.8-63.2h.7l.2.6h-.7zm5-1.1h.6v.5l-.6.2zm-15.9 6 3.6 1.7-2.4 2zm-135.9 30.9.6-.2.2.7-.6.2zm.8.4 3.1 2.6-2.4 1.1zm4.9-1.1h.7l.2.4-.6.2zM709.9 647l1.9-2.3 1.3 3zm-122.4 24.7 4.5 3-3-1.9-3.3 3.2zm112.6-24.1h.6v.5l-.6.2zm-96.2 33.5-4.3-1.7 4.7-8.2zm105.2-30.7 6.9-3.5-5.6 6.9zm-129.5 27.8h.6l.3.6h-.7zm119.6-25.6.7-.2.2.6-.6.3zm18-2.6.7-.2.2.6-.7.2zm-123.5 26.9 4.8.5-1.3 3.4zm21.3 0 .6-.2v.6l-.6.2zm-.4.7.6-.2.2.6-.6.2zm-15.1 7.8.7-.2v.6l-.7.2zm2.6-.6h.6v.4l-.6.2zm76.2-16.3h.6l.2.4-.6.2zM453.4 398.1h.5l.2.4-.7.2zm.9.4h.4l.2.5-.6.2zm138.3 43 .7-.2.2.6-.6.3zm4.3-1.1h.6v.6h-.6zm37.6 1.8 3-.9.7 2.6-3 1.3zm-7.8 14.4h.7v.6h-.7zm81.8.5h.6v.6h-.4zm-212.2 62.2.5-.2.2.6-.7.2zm-10.1 18.3.7-.2v.6l-.7.3zm131.9.6.7-.2v.6l-.5.3zm-187.2 44.5.7-.2.2.6-.6.2zm-4.8 1.5h.7v.7h-.7zm-7.3 17 .7-.2.2.6-.7.2zm212.6-45.6h.6v.7h-.6zm-196.9 61.5.7-.2.2.6-.6.2zm-7.8 2.8h.7v.7h-.5zm218.2-28 .4-.2.2.6h-.6zm104.3-19.5.7-.3.2.7h-.6zM568 620.8h.6l.3.7h-.7zm85.9-18.3 3.8 2.3-1 4.1zm57-12.2.6-.3.2.7-.6.2zm-48.6 15.5-3.3.6.2-2.5zm50-12.7h3.2l.2 3.8 2.6.7-3.7.2zm-132.3 31 3.9-.9-.2 5.2-3 .6.4 2.4-6.5-.4zm15.5.4 3-3.7 2.4 2.6-.4.7-3.5 4.7-5.6-4.7 2.4-1.8zm-49.7 11.4.6-.2v.7h-.4zm-1.7 1.7.6-.2.3.6-.7.2zm.7 14.7.4-.2.2.6-.6.2zm72.5-12.2 7.5 2.1-5.4 1.1zm2.4 6 .6-.2.2.6-.6.2zm-1.3 2.8 2.4-.6 3.8 5.8 2.8-1.3-.8 4.1-1.3-2.4-2.8 1.3zm-2.8 2.4 2.6.2-.9 4.7-3-1.9zm-9.7 2.6 2.4 2.1-1.3 2.8zm7.5 2.2 6 3.9-1.2 3zm7.7.8 2.6-.6.6 3.2zm-31.8 7.3 2.8.7-.9 2.1zm6.7-1.3.6-.2.3.7h-.7zm8-1.1 2.1.9-2.8 1.9zm8.6.6 2.6-2.3.9 3.6zm0 0 1 5-4.5-.5zm-3.8 15.1 2.1 1.5-3.9 3.2zm-66.7-527.7.7-.2v.6l-.4.2zm-3.7 12.9h.6v.5l-.6.2zm-176.2 70.5.6-.2v.7l-.6.2zm-27.8 128 .7-.2.2.6h-.7zm461.1-93.6h.7v.7h-.7zm.5 4.5.6-.2v.6l-.6.2zM584.2 641.8l2.2.8-2.4 1.8zm-3.4-14h.4l.2.4-.6.2zm19.8-4.1.4-.2.2.7h-.6z"/></svg>